<?xml version="1.0" encoding="utf-8"?>
<!-- Generator: Adobe Illustrator 12.0.0, SVG Export Plug-In . SVG Version: 6.00 Build 51448)  -->
<!DOCTYPE svg PUBLIC "-//W3C//DTD SVG 1.1//EN" "http://www.w3.org/Graphics/SVG/1.1/DTD/svg11.dtd" [
	<!ENTITY ns_svg "http://www.w3.org/2000/svg">
	<!ENTITY ns_xlink "http://www.w3.org/1999/xlink">
]>
<svg  version="1.1" id="图层_1" xmlns="&ns_svg;" xmlns:xlink="&ns_xlink;" width="98.1" height="150.083"
	 viewBox="0 0 98.1 150.083" overflow="visible" enable-background="new 0 0 98.1 150.083" xml:space="preserve">
<g>
	<g>
		<path fill="#F7F7F7" d="M98.054,143.623c0,3.74-3.014,6.776-6.727,6.776H6.771c-3.714,0-6.727-3.035-6.727-6.776V7.185
			c0-3.744,3.013-6.78,6.727-6.78h84.558c3.713,0,6.727,3.037,6.727,6.78v136.438H98.054L98.054,143.623z"/>
	</g>
	<g>
		<path fill="#060506" d="M98.01,143.623c0,3.714-2.998,6.732-6.683,6.732H6.771c-3.685,0-6.683-3.021-6.683-6.732V7.185
			c0-3.714,2.998-6.736,6.683-6.736h84.558c3.685,0,6.683,3.022,6.683,6.736v136.438l0.044-0.044h-0.044
			C98.01,143.579,98.01,143.623,98.01,143.623z M98.1,143.623V7.185c0-3.763-3.038-6.824-6.771-6.824H6.771
			C3.038,0.36,0,3.421,0,7.185v136.438c0,3.763,3.037,6.821,6.771,6.821h84.556c3.729,0,6.771-3.062,6.771-6.821l-0.044,0.044h0.044
			C98.1,143.667,98.1,143.623,98.1,143.623z"/>
	</g>
</g>
<g>
	<path fill="#0D1334" d="M89.29,136.52c0,3.354-2.486,6.07-5.549,6.07h-69.75c-3.063,0-5.55-2.721-5.55-6.07V14.396
		c0-3.353,2.486-6.069,5.55-6.069h69.75c3.062,0,5.549,2.717,5.549,6.069V136.52L89.29,136.52z"/>
</g>
<g>
	<g>
		<path fill="#0D1334" d="M56.677,128.705c0.056-0.178-14.9-0.178-14.843,0c-10.814-4.41-15.875-13.335-11.068-17.604
			c4.801-4.266,11.452,2.479,11.452,2.479s-2.888-5.064,6.737-5.064s6.856,5.064,6.856,5.064s6.438-7.205,11.238-2.94
			C71.853,114.905,67.491,124.294,56.677,128.705z"/>
	</g>
</g>
<g>
	<g>
		<path fill="#0D1334" d="M56.677,22.17c0.056,0.175-14.9,0.175-14.843,0c-10.814,4.411-15.875,13.335-11.068,17.6
			c4.801,4.266,11.452-2.474,11.452-2.474s-2.888,5.065,6.737,5.065s6.856-5.065,6.856-5.065s6.438,7.206,11.238,2.94
			C71.853,35.97,67.491,26.582,56.677,22.17z"/>
	</g>
</g>
<g>
	<g>
		<path fill="#0C1E3E" d="M87.63,75.326c0,21.739-17.274,39.361-38.581,39.361c-21.308,0-38.58-17.622-38.58-39.361
			s17.272-39.363,38.58-39.363C70.356,35.964,87.63,53.587,87.63,75.326z"/>
	</g>
</g>
<g>
	<g>
		<path fill="#B0E1DD" d="M87.058,75.326c0,10.359-3.952,20.097-11.133,27.422c-7.178,7.319-16.723,11.354-26.875,11.354
			c-10.154,0-19.698-4.033-26.876-11.354c-7.18-7.325-11.133-17.062-11.133-27.422c0-21.383,17.051-38.779,38.009-38.779
			C70.007,36.547,87.058,53.944,87.058,75.326z M49.05,35.522c-21.512,0-39.014,17.856-39.014,39.804
			c0,10.632,4.059,20.627,11.429,28.146c7.368,7.518,17.165,11.656,27.585,11.656c10.419,0,20.216-4.144,27.585-11.656
			C84,95.953,88.059,85.958,88.059,75.326C88.06,53.378,70.56,35.522,49.05,35.522z"/>
	</g>
</g>
<g>
	<g>
		<path fill="#0D1334" d="M82.226,75.326c0,18.694-14.854,33.849-33.175,33.849c-18.324,0-33.178-15.154-33.178-33.849
			s14.854-33.85,33.178-33.85C67.372,41.477,82.226,56.632,82.226,75.326z"/>
	</g>
</g>
<g>
	<g>
		<path fill="#0C1E3E" d="M36.199,62.092l-6.26-6.401c-3.316,3.361-5.781,7.592-7.051,12.328l8.562,2.398
			C32.304,67.22,33.957,64.36,36.199,62.092z"/>
	</g>
</g>
<g>
	<g>
		<path fill="#0C1E3E" d="M36.101,88.463l-6.283,6.378c3.272,3.354,7.385,5.854,11.986,7.152l2.354-8.731
			C41.068,92.387,38.301,90.719,36.101,88.463z"/>
	</g>
</g>
<g>
	<g>
		<path fill="#32626B" d="M49.05,93.958c-1.699,0-3.333-0.254-4.891-0.696l-2.354,8.731c2.308,0.647,4.735,1.007,7.246,1.007
			c2.499,0,4.911-0.354,7.206-0.994l-2.369-8.729C52.345,93.709,50.726,93.958,49.05,93.958z"/>
	</g>
</g>
<g>
	<g>
		<path fill="#0C1E3E" d="M66.638,80.28c-0.846,3.14-2.461,5.947-4.645,8.188l6.258,6.402c3.262-3.335,5.688-7.521,6.945-12.193
			L66.638,80.28z"/>
	</g>
</g>
<g>
	<g>
		<path fill="#0B2F55" d="M53.886,93.277l2.369,8.729c4.604-1.293,8.717-3.784,11.996-7.135l-6.26-6.402
			C59.784,90.735,56.999,92.407,53.886,93.277z"/>
	</g>
</g>
<g>
	<g>
		<path fill="#0B2F55" d="M31.445,80.215l-8.56,2.409c1.253,4.685,3.675,8.873,6.933,12.217l6.283-6.378
			C33.904,86.207,32.285,83.375,31.445,80.215z"/>
	</g>
</g>
<g>
	<g>
		<path fill="#0B2F55" d="M44.152,57.394l-2.369-8.728c-4.535,1.285-8.597,3.736-11.844,7.025l6.26,6.401
			C38.381,59.888,41.107,58.255,44.152,57.394z"/>
	</g>
</g>
<g>
	<g>
		<path fill="#0C1E3E" d="M61.989,62.18l6.275-6.378c-3.297-3.376-7.438-5.885-12.078-7.174l-2.354,8.734
			C56.964,58.229,59.767,59.903,61.989,62.18z"/>
	</g>
</g>
<g>
	<g>
		<path fill="#0B2F55" d="M66.622,70.309l8.553-2.409c-1.262-4.636-3.67-8.783-6.906-12.098l-6.275,6.378
			C64.161,64.406,65.771,67.195,66.622,70.309z"/>
	</g>
</g>
<g>
	<g>
		<path fill="#32626B" d="M30.787,75.326c0-1.701,0.244-3.341,0.662-4.91l-8.562-2.398c-0.622,2.33-0.962,4.777-0.962,7.308
			c0,2.526,0.338,4.972,0.96,7.299l8.56-2.41C31.029,78.654,30.787,77.021,30.787,75.326z"/>
	</g>
</g>
<g>
	<g>
		<path fill="#32626B" d="M49.05,56.694c1.66,0,3.257,0.246,4.785,0.668l2.354-8.734c-2.272-0.632-4.668-0.977-7.141-0.977
			c-2.518,0-4.953,0.359-7.268,1.014l2.369,8.728C45.713,56.948,47.349,56.694,49.05,56.694z"/>
	</g>
</g>
<g>
	<g>
		<path fill="#32626B" d="M67.312,75.326c0,1.717-0.245,3.374-0.674,4.954l8.562,2.397c0.633-2.343,0.975-4.806,0.975-7.352
			c0-2.574-0.35-5.063-0.996-7.427l-8.553,2.409C67.06,71.907,67.312,73.585,67.312,75.326z"/>
	</g>
</g>
<g>
	<g>
		<path fill="#B0E1DD" d="M81.792,75.326c0,8.924-3.406,17.312-9.59,23.624c-6.188,6.312-14.408,9.784-23.153,9.784
			c-8.746,0-16.97-3.476-23.153-9.784c-6.185-6.312-9.591-14.695-9.591-23.624c0-18.422,14.688-33.408,32.744-33.408
			S81.792,56.905,81.792,75.326z M49.05,41.037c-18.532,0-33.607,15.382-33.607,34.29c0,9.16,3.495,17.771,9.842,24.248
			c6.348,6.479,14.787,10.043,23.766,10.043c8.975,0,17.416-3.562,23.764-10.043c6.351-6.478,9.845-15.088,9.845-24.248
			C82.657,56.419,67.581,41.037,49.05,41.037z"/>
	</g>
</g>
<g>
	<g>
		<polygon fill="#D6EFEE" points="29.746,55.288 29.41,55.63 68.354,95.369 68.688,95.024 		"/>
	</g>
</g>
<g>
	<g>
		<polygon fill="#D6EFEE" points="68.354,55.288 29.41,95.022 29.746,95.369 68.688,55.631 		"/>
	</g>
</g>
<g>
	<g>
		<polygon fill="#D6EFEE" points="41.5,48.305 56.14,102.477 56.599,102.349 41.961,48.176 		"/>
	</g>
</g>
<g>
	<g>
		<polygon fill="#D6EFEE" points="56.116,48.169 41.522,102.353 41.984,102.485 56.577,48.3 		"/>
	</g>
</g>
<g>
	<g>
		<polygon fill="#D6EFEE" points="22.439,82.56 22.564,83.029 75.659,68.093 75.534,67.625 		"/>
	</g>
</g>
<g>
	<g>
		<polygon fill="#D6EFEE" points="22.557,67.647 22.432,68.114 75.538,83.006 75.667,82.539 		"/>
	</g>
</g>
<g>
	<g>
		<path fill="#D6EFEE" d="M21.132,75.326c0,15.708,12.522,28.485,27.918,28.485c15.396,0,27.918-12.777,27.918-28.485
			c0-15.708-12.522-28.486-27.918-28.486C33.654,46.841,21.132,59.618,21.132,75.326z M22.351,75.326
			c0-15.021,11.977-27.241,26.699-27.241c14.723,0,26.697,12.22,26.697,27.241s-11.979,27.24-26.697,27.24
			C34.328,102.568,22.351,90.347,22.351,75.326z"/>
	</g>
</g>
<g>
	<g>
		<path fill="#1A5578" d="M20.717,75.326c0,15.941,12.708,28.911,28.333,28.911s28.333-12.97,28.333-28.911
			s-12.711-28.91-28.333-28.91C33.425,46.417,20.717,59.385,20.717,75.326z M49.05,47.264c15.166,0,27.503,12.588,27.503,28.062
			c0,15.474-12.338,28.062-27.503,28.062c-15.166,0-27.504-12.589-27.504-28.062C21.546,59.854,33.884,47.264,49.05,47.264z"/>
	</g>
</g>
<g>
	<g>
		<path fill="#0C1E3E" d="M72.556,75.326c0,13.247-10.521,23.985-23.505,23.985c-12.984,0-23.51-10.738-23.51-23.985
			c0-13.248,10.525-23.986,23.51-23.986C62.034,51.341,72.556,62.079,72.556,75.326z"/>
	</g>
</g>
<g>
	<g>
		<path fill="#B0E1DD" d="M49.05,50.742c-13.286,0-24.096,11.029-24.096,24.584c0,13.557,10.81,24.585,24.096,24.585
			c13.287,0,24.093-11.028,24.093-24.585C73.144,61.771,62.335,50.742,49.05,50.742z M49.25,52.479
			c3.871,0.034,7.509,1.077,10.679,2.882L49.25,74.551V52.479z M48.848,74.552L38.156,55.371c3.172-1.809,6.815-2.857,10.692-2.891
			V74.552z M48.295,75.531L29.492,86.444c-1.774-3.234-2.801-6.955-2.834-10.913H48.295L48.295,75.531z M26.658,75.123
			c0.033-3.95,1.055-7.662,2.823-10.896l18.81,10.896H26.658z M48.848,98.175c-3.871-0.038-7.507-1.078-10.678-2.883l10.678-19.192
			V98.175z M49.25,76.1l10.692,19.183c-3.177,1.812-6.813,2.854-10.692,2.896V76.1L49.25,76.1z M49.804,75.123l18.802-10.913
			c1.774,3.238,2.804,6.957,2.836,10.913H49.804z M71.442,75.531c-0.032,3.95-1.058,7.662-2.823,10.896l-18.81-10.896H71.442z
			 M68.399,63.86L49.588,74.781l10.686-19.206C63.634,57.572,66.438,60.431,68.399,63.86z M37.812,55.584l10.703,19.197
			L29.691,63.878C31.646,60.445,34.447,57.583,37.812,55.584z M29.701,86.792l18.814-10.92L37.827,95.08
			C34.463,93.082,31.658,90.221,29.701,86.792z M60.288,95.069L49.586,75.874l18.823,10.903
			C66.452,90.208,63.649,93.071,60.288,95.069z"/>
	</g>
</g>
<g>
	<g>
		<path fill="#32626B" d="M43.796,65.49c0.376-0.322,1.466-2.732-0.089-4.876c-1.553-2.145-1.18-3.468,1.154-5.582
			c0,0-1.096,2.056,1.727,4.876c2.824,2.82,1.27,4.876,0.837,6.493c0,0-0.748,1.44-0.837,1.352
			C46.503,67.666,43.796,65.49,43.796,65.49z"/>
	</g>
</g>
<g>
	<g>
		<path fill="#32626B" d="M39.012,69.923c-0.308,0.391-2.638,1.57-4.78,0.042c-2.143-1.53-3.43-1.112-5.439,1.321
			c0,0,1.988-1.171,4.824,1.632c2.838,2.805,4.812,1.165,6.383,0.683c0,0,1.392-0.803,1.305-0.889
			C41.216,72.626,39.012,69.923,39.012,69.923z"/>
	</g>
</g>
<g>
	<g>
		<path fill="#32626B" d="M58.165,69.31c-0.109-0.487,0.426-3.088,2.93-3.855c2.504-0.77,2.979-2.059,2.351-5.178
			c0,0-0.325,2.316-4.239,2.855c-3.916,0.537-3.875,3.134-4.479,4.693c0,0-0.243,1.611-0.125,1.594
			C54.722,69.399,58.165,69.31,58.165,69.31z"/>
	</g>
</g>
<g>
	<g>
		<path fill="#32626B" d="M60.485,75.415c0.084,0.492,1.573,2.669,4.177,2.38c2.602-0.292,3.528,0.707,4.145,3.827
			c0,0-1.188-2.001-4.996-0.938c-3.811,1.065-4.77-1.34-5.92-2.535c0,0-0.842-1.386-0.723-1.417
			C57.28,76.705,60.485,75.415,60.485,75.415z"/>
	</g>
</g>
<g>
	<g>
		<path fill="#32626B" d="M54.907,85.263c-0.371,0.331-1.414,2.764,0.184,4.874c1.601,2.112,1.252,3.441-1.037,5.606
			c0,0,1.052-2.08-1.826-4.846c-2.878-2.761-1.364-4.849-0.967-6.475c0,0,0.72-1.455,0.81-1.368
			C52.153,83.146,54.907,85.263,54.907,85.263z"/>
	</g>
</g>
<g>
	<g>
		<path fill="#32626B" d="M43.359,84.686c-0.464-0.157-3.055,0.133-4.047,2.604c-0.994,2.469-2.3,2.82-5.279,1.882
			c0,0,2.291-0.107,3.197-4.032c0.906-3.923,3.436-3.628,5.014-4.088c0,0,1.596-0.091,1.566,0.029
			C43.781,81.202,43.359,84.686,43.359,84.686z"/>
	</g>
</g>
<g>
	<g>
		<polygon fill="#D6EFEE" points="46.296,66.469 33.863,59.837 43.658,70.12 		"/>
	</g>
</g>
<g>
	<g>
		<path fill="#FFFFFF" d="M43.752,69.833c-0.471-0.481-9.889-9.995-9.889-9.995l6.31,13.358L43.752,69.833z"/>
	</g>
</g>
<g>
	<g>
		<polygon fill="#D6EFEE" points="40.062,73.339 27.908,80.486 41.669,77.57 		"/>
	</g>
</g>
<g>
	<g>
		<path fill="#FFFFFF" d="M41.48,77.333c-0.65,0.146-13.572,3.147-13.572,3.147l14.435,1.732L41.48,77.333z"/>
	</g>
</g>
<g>
	<g>
		<polygon fill="#D6EFEE" points="42.883,82.002 43.453,96.303 47.3,82.511 		"/>
	</g>
</g>
<g>
	<g>
		<path fill="#FFFFFF" d="M47.009,82.572c-0.176,0.654-3.557,13.73-3.557,13.73l8.199-12.244L47.009,82.572z"/>
	</g>
</g>
<g>
	<g>
		<polygon fill="#D6EFEE" points="51.726,83.873 64.007,90.791 54.444,80.283 		"/>
	</g>
</g>
<g>
	<g>
		<path fill="#FFFFFF" d="M54.345,80.569c0.459,0.491,9.662,10.226,9.662,10.226l-6.01-13.502L54.345,80.569z"/>
	</g>
</g>
<g>
	<g>
		<polygon fill="#D6EFEE" points="57.726,77.369 69.776,70.045 56.06,73.164 		"/>
	</g>
</g>
<g>
	<g>
		<path fill="#FFFFFF" d="M56.251,73.395c0.646-0.156,13.522-3.349,13.522-3.349l-14.452-1.523L56.251,73.395z"/>
	</g>
</g>
<g>
	<g>
		<polygon fill="#D6EFEE" points="55.067,68.633 54.567,54.329 50.653,68.103 		"/>
	</g>
</g>
<g>
	<g>
		<path fill="#FFFFFF" d="M50.944,68.04c0.181-0.654,3.623-13.711,3.623-13.711l-8.259,12.203L50.944,68.04z"/>
	</g>
</g>
<g>
	<g>
		<path fill="#165478" d="M40.43,72.836l-12.683,7.784c-0.07,0.042-0.103,0.127-0.084,0.21c0.018,0.081,0.086,0.141,0.168,0.146
			l15.258,1.212c0.104,0.011,0.193-0.064,0.203-0.175c0-0.005,0-0.011,0-0.016c0-0.104-0.075-0.188-0.172-0.191
			c0,0-13.586-1.08-14.672-1.166c0.933-0.571,12.176-7.474,12.176-7.474c0.06-0.037,0.093-0.1,0.093-0.166
			c0-0.035-0.009-0.069-0.026-0.1C40.636,72.812,40.52,72.781,40.43,72.836z"/>
	</g>
</g>
<g>
	<g>
		<path fill="#165478" d="M34.24,78.871l-4.432,1.182l-1.458,0.394c-0.714,0.193-0.714,0.193-0.69,0.364
			c0.008,0.061,0.041,0.106,0.088,0.144c0.049,0.023,0.111,0.031,0.166,0.017c0.246-0.085,8.521-2.28,12.861-3.43
			c-0.102,0.021-0.203-0.036-0.232-0.144c-0.025-0.103,0.035-0.207,0.137-0.23L34.24,78.871z"/>
	</g>
</g>
<g>
	<g>
		<path fill="#165478" d="M54.806,68.639c0,0.004,0,0.01,0,0.015c0,0.1,0.074,0.183,0.172,0.192c0,0,13.589,1.08,14.673,1.166
			c-0.931,0.572-12.179,7.478-12.179,7.478c-0.059,0.033-0.09,0.104-0.09,0.162c0,0.035,0.01,0.068,0.027,0.104
			c0.055,0.091,0.168,0.121,0.258,0.062l12.684-7.785c0.07-0.042,0.104-0.127,0.086-0.21c-0.018-0.081-0.086-0.141-0.17-0.147
			l-15.26-1.211C54.905,68.455,54.815,68.533,54.806,68.639z"/>
	</g>
</g>
<g>
	<g>
		<path fill="#165478" d="M70.187,69.688c-0.247,0.084-8.521,2.28-12.857,3.43c0.104-0.027,0.205,0.036,0.229,0.139
			c0.027,0.103-0.036,0.207-0.137,0.234l6.438-1.708l4.433-1.181l1.459-0.393c0.713-0.194,0.713-0.194,0.688-0.365
			c-0.007-0.056-0.046-0.106-0.091-0.139C70.304,69.675,70.241,69.67,70.187,69.688z"/>
	</g>
</g>
<g>
	<g>
		<path fill="#165478" d="M33.439,59.429c-0.062,0.059-0.076,0.149-0.039,0.224l6.814,13.981c0.05,0.096,0.16,0.134,0.255,0.087
			c0.065-0.034,0.104-0.102,0.104-0.172c0-0.028-0.006-0.057-0.021-0.084c0,0-6.066-12.449-6.551-13.444
			c0.959,0.522,12.537,6.822,12.537,6.822c0.094,0.051,0.209,0.014,0.256-0.08c0.051-0.093,0.014-0.21-0.078-0.259l-13.059-7.105
			C33.586,59.358,33.496,59.372,33.439,59.429z"/>
	</g>
</g>
<g>
	<g>
		<path fill="#165478" d="M33.451,59.416c-0.043,0.035-0.067,0.09-0.068,0.148c0,0.058,0.025,0.116,0.068,0.153
			c0.201,0.175,6.295,6.29,9.492,9.5c-0.076-0.075-0.078-0.197-0.002-0.272c0.073-0.076,0.193-0.076,0.266-0.001l-4.746-4.763
			l-3.268-3.269l-1.078-1.079C33.586,59.309,33.586,59.309,33.451,59.416z"/>
	</g>
</g>
<g>
	<g>
		<path fill="#165478" d="M57.63,76.932c-0.068,0.034-0.106,0.104-0.106,0.173c0,0.029,0.013,0.062,0.021,0.085
			c0,0,6.065,12.448,6.553,13.443c-0.959-0.521-12.539-6.822-12.539-6.822c-0.092-0.051-0.207-0.015-0.254,0.08
			c-0.049,0.094-0.016,0.209,0.076,0.261l13.062,7.104c0.071,0.04,0.161,0.022,0.224-0.031c0.061-0.059,0.069-0.146,0.037-0.225
			l-6.816-13.98C57.837,76.922,57.724,76.885,57.63,76.932z"/>
	</g>
</g>
<g>
	<g>
		<path fill="#165478" d="M55.159,81.709c-0.074,0.077-0.193,0.077-0.271,0.002l4.746,4.764l3.267,3.271l1.08,1.071
			c0.528,0.523,0.528,0.523,0.661,0.418c0.045-0.032,0.07-0.092,0.07-0.146c0-0.062-0.025-0.115-0.07-0.152
			c-0.193-0.174-6.295-6.289-9.484-9.499C55.231,81.512,55.231,81.633,55.159,81.709z"/>
	</g>
</g>
<g>
	<g>
		<path fill="#165478" d="M54.534,53.666l-8.462,13.01c-0.057,0.088-0.035,0.208,0.053,0.266c0.086,0.06,0.203,0.034,0.262-0.054
			c0,0,7.535-11.582,8.136-12.509c0.034,1.107,0.479,14.49,0.479,14.49c0.002,0.107,0.09,0.19,0.19,0.187
			c0.104-0.004,0.188-0.094,0.187-0.198l-0.498-15.091c0-0.085-0.055-0.158-0.133-0.18C54.663,53.562,54.579,53.595,54.534,53.666z"
			/>
	</g>
</g>
<g>
	<g>
		<path fill="#165478" d="M54.599,53.605c-0.047,0.029-0.082,0.081-0.092,0.137c-0.049,0.263-2.192,8.706-3.322,13.133
			c0.027-0.104,0.13-0.166,0.23-0.138c0.104,0.028,0.162,0.133,0.135,0.235l1.67-6.574l1.146-4.52l0.375-1.493
			c0.18-0.73,0.18-0.73,0.021-0.792C54.708,53.569,54.649,53.578,54.599,53.605z"/>
	</g>
</g>
<g>
	<g>
		<path fill="#165478" d="M42.906,81.598c-0.104,0.004-0.187,0.095-0.18,0.198l0.493,15.092c0.002,0.087,0.058,0.157,0.14,0.181
			c0.077,0.021,0.162-0.01,0.207-0.079l8.459-13.011c0.062-0.088,0.032-0.209-0.058-0.268c-0.086-0.062-0.201-0.033-0.258,0.055
			c0,0-7.535,11.582-8.136,12.51c-0.037-1.104-0.477-14.487-0.477-14.487C43.097,81.678,43.01,81.595,42.906,81.598z"/>
	</g>
</g>
<g>
	<g>
		<path fill="#165478" d="M44.878,90.254l-1.144,4.521l-0.373,1.493c-0.182,0.729-0.182,0.729-0.023,0.793
			c0.054,0.022,0.111,0.021,0.16-0.013c0.05-0.029,0.086-0.081,0.096-0.137c0.048-0.269,2.191-8.706,3.322-13.14
			c-0.027,0.104-0.131,0.165-0.23,0.144c-0.104-0.027-0.162-0.134-0.136-0.235L44.878,90.254z"/>
	</g>
</g>
<g>
	<g>
		<path fill="#0C1E3E" d="M57.915,75.326c0,4.989-3.979,9.047-8.866,9.047c-4.888,0-8.866-4.062-8.866-9.047
			s3.979-9.046,8.866-9.046C53.937,66.28,57.915,70.338,57.915,75.326z M49.05,65.116c-5.518,0-10.008,4.581-10.008,10.21
			c0,5.63,4.49,10.21,10.008,10.21c5.516,0,10.007-4.58,10.007-10.21C59.058,69.697,54.565,65.116,49.05,65.116z"/>
	</g>
</g>
<g>
	<g>
		<path fill="#0C1E3E" d="M85.259,108.993c-1.281-1.217-2.981-1.887-4.787-1.887c-3.946,0-6.194,1.804-7.991,3.484
			c-0.591,0.551-1.146,1.097-1.649,1.603c-0.183-0.438-0.371-0.792-0.511-1.044c-0.679-1.229-1.817-2.134-3.138-2.466
			c-0.979-0.245-2.512-0.297-4.27,0.867c-2.545,1.686-2.312,4.621-1.529,6.186c0.244,0.489,0.662,0.854,1.174,1.021
			c0.513,0.171,1.062,0.128,1.537-0.122c0.99-0.516,1.388-1.756,0.886-2.767c-0.28-0.598,0.019-0.788,0.129-0.863
			c0.438-0.29,0.812-0.401,1.104-0.327c0.228,0.059,0.459,0.247,0.586,0.48c0.486,0.885,1.39,2.526-1.521,6.726
			c-3.221,4.639-11.521,8.486-16.251,8.581c-4.688-0.095-12.99-3.942-16.207-8.581c-2.91-4.194-2.006-5.841-1.521-6.726
			c0.129-0.233,0.358-0.428,0.585-0.48c0.295-0.074,0.669,0.037,1.107,0.327c0.112,0.075,0.41,0.271,0.119,0.881
			c-0.494,0.993-0.099,2.233,0.893,2.747c0.479,0.252,1.025,0.295,1.539,0.124c0.513-0.17,0.929-0.532,1.174-1.021
			c0.779-1.562,1.016-4.5-1.53-6.186c-1.76-1.164-3.295-1.112-4.271-0.867c-1.314,0.332-2.459,1.231-3.137,2.468
			c-0.139,0.25-0.328,0.604-0.507,1.042c-0.507-0.505-1.063-1.052-1.653-1.603c-1.797-1.688-4.047-3.484-7.992-3.484
			c-3.473,0-6.988,2.525-6.988,7.354c0,3.812,2.992,6.176,5.764,6.176c3.063,0,5.043-1.702,5.043-4.337
			c0-2.829-2.008-4.07-3.355-4.215c-1.105-0.119-2.1,0.703-2.217,1.83c-0.106,1.033,0.564,1.965,1.523,2.207
			c0.008,0.041,0.014,0.098,0.014,0.178c0,0.021-0.002,0.037-0.002,0.049c-0.058,0.038-0.307,0.172-1.006,0.172
			c-0.543,0-1.73-0.52-1.73-2.06c0-3.196,2.835-3.234,2.955-3.234c2.501,0,3.863,1.088,5.265,2.399
			c0.841,0.788,1.625,1.577,2.317,2.271c0.935,0.941,1.531,1.53,2.013,1.917c0.024,0.069,0.047,0.144,0.071,0.208
			c-3.514,0.573-6.209,3.648-6.209,7.356c0,2.657,1.326,5.079,3.462,6.316c1.413,0.82,3.288,1.033,4.894,0.561
			c1.43-0.428,2.539-1.333,3.204-2.621c0.753-1.461,0.74-2.662,0.446-3.59c4.693,3.888,11.334,6.445,15.892,6.541l0.011,0.002
			c0,0,0.008,0,0.012,0c0.002,0,0.005,0.001,0.005,0.001l0.075,0.001c0.006-0.001,0.029-0.004,0.05-0.006
			c4.571-0.107,11.19-2.663,15.874-6.539c-0.297,0.928-0.309,2.129,0.447,3.59c0.662,1.287,1.77,2.193,3.197,2.621
			c1.604,0.479,3.48,0.265,4.896-0.561c2.137-1.237,3.465-3.66,3.465-6.316c0-3.708-2.694-6.783-6.207-7.356
			c0.023-0.064,0.045-0.139,0.068-0.208c0.479-0.387,1.078-0.976,2.014-1.917c0.691-0.688,1.479-1.479,2.316-2.271
			c1.396-1.312,2.766-2.399,5.264-2.399c0.121,0,2.955,0.038,2.955,3.234c0,1.54-1.188,2.06-1.729,2.06
			c-0.694,0-0.944-0.134-1.006-0.172c-0.003-0.012-0.005-0.025-0.005-0.049c0-0.08,0.009-0.137,0.018-0.178
			c0.965-0.242,1.633-1.174,1.523-2.205c-0.116-1.129-1.107-1.951-2.219-1.832c-1.35,0.145-3.356,1.387-3.356,4.215
			c0,2.635,1.981,4.337,5.045,4.337c2.771,0,5.769-2.359,5.769-6.176C87.46,111.66,86.263,109.94,85.259,108.993z M80.446,116.175
			L80.446,116.175L80.446,116.175L80.446,116.175z M17.629,116.169L17.629,116.169v0.004V116.169z M29.832,127.429
			c-0.021,0.004-0.039,0.001-0.061,0.003c0.02-0.004,0.038-0.007,0.057-0.011L29.832,127.429z M68.323,127.432
			c-0.021-0.002-0.035,0.001-0.062-0.003l0.002-0.008C68.286,127.425,68.306,127.429,68.323,127.432z M68.433,126.262h-0.002H68.433
			L68.433,126.262z M68.431,126.268l-0.133,0.47l0.104-0.47C68.413,126.268,68.423,126.268,68.431,126.268z M68.146,127.397
			L68.146,127.397l-0.003,0.004L68.146,127.397z M28.861,123.438c-1.068,0.317-1.686,1.463-1.375,2.552
			c0.232,0.816,0.922,1.375,1.702,1.474c-0.024,0.063-0.058,0.146-0.114,0.256c-0.095,0.183-0.275,0.439-0.764,0.587
			c-0.558,0.166-1.302,0.09-1.77-0.183c-0.877-0.514-1.422-1.562-1.422-2.742c0-1.842,1.502-3.348,3.351-3.348
			c0.342,0,0.678,0.058,1.003,0.155c0.02,0.026,0.032,0.051,0.051,0.076c0.273,0.396,0.573,0.78,0.891,1.158
			C29.865,123.292,29.32,123.301,28.861,123.438z M68.573,122.265c0.02-0.025,0.027-0.05,0.051-0.076
			c0.324-0.103,0.662-0.155,1.004-0.155c1.85,0,3.353,1.506,3.353,3.348c0,1.184-0.546,2.229-1.425,2.742
			c-0.467,0.271-1.211,0.349-1.768,0.183c-0.488-0.145-0.67-0.404-0.77-0.587c-0.055-0.107-0.088-0.188-0.109-0.256
			c0.775-0.1,1.469-0.652,1.698-1.474c0.312-1.089-0.306-2.229-1.375-2.551c-0.459-0.138-1.002-0.146-1.554-0.015
			C67.999,123.045,68.3,122.66,68.573,122.265z M80.31,115.008L80.31,115.008L80.31,115.008L80.31,115.008z M80.31,115.01
			l0.037,0.37l-0.047-0.369C80.302,115.011,80.308,115.01,80.31,115.01z M17.599,116.163v0.007
			c-0.025-0.004-0.042-0.017-0.062-0.021C17.557,116.154,17.578,116.16,17.599,116.163z M80.501,116.169l-0.002-0.007
			c0.02-0.003,0.041-0.014,0.061-0.017C80.542,116.156,80.524,116.166,80.501,116.169z"/>
	</g>
</g>
<g>
	<g>
		<polygon fill="#7CCCC9" points="34.145,114.41 34.148,114.406 34.148,114.404 		"/>
	</g>
</g>
<g>
	<g>
		<path fill="#7CCCC9" d="M63.948,114.404c0,0.001,0.002,0.001,0.002,0.002c0,0,0.002,0.007,0.002,0.008
			C63.95,114.406,63.952,114.407,63.948,114.404z"/>
	</g>
</g>
<g>
	<g>
		<path fill="#32626B" d="M80.472,108.287c-3.53,0-5.5,1.562-7.213,3.174c-0.875,0.813-1.68,1.628-2.391,2.341
			c-0.227,0.223-0.453,0.453-0.679,0.674c-0.097-1.311-0.575-2.195-0.88-2.748c-0.521-0.95-1.396-1.644-2.404-1.896
			c-0.759-0.191-1.953-0.226-3.367,0.714c-2.058,1.354-1.642,3.645-1.129,4.661c0.217,0.436,0.732,0.604,1.162,0.387
			c0.426-0.22,0.596-0.751,0.379-1.188c-0.127-0.266-0.682-1.586,0.523-2.384c0.72-0.476,1.396-0.637,2.016-0.479
			c0.534,0.135,1.027,0.521,1.312,1.047c0.564,1.031,1.744,3.179-1.584,7.979c-3.463,4.991-12.065,8.979-17.17,9.075
			c-5.104-0.1-13.71-4.084-17.173-9.075c-3.329-4.802-2.149-6.944-1.584-7.979c0.287-0.521,0.777-0.912,1.314-1.047
			c0.616-0.155,1.293,0.005,2.012,0.479c1.205,0.798,0.654,2.118,0.529,2.384c-0.217,0.438-0.048,0.968,0.377,1.188
			c0.424,0.222,0.945,0.049,1.163-0.387c0.509-1.021,0.929-3.309-1.129-4.661c-1.415-0.938-2.612-0.905-3.368-0.714
			c-1.008,0.255-1.885,0.942-2.408,1.896c-0.301,0.553-0.783,1.438-0.879,2.748c-0.224-0.221-0.453-0.451-0.677-0.674
			c-0.708-0.713-1.511-1.521-2.388-2.341c-1.713-1.606-3.682-3.174-7.215-3.174c-2.898,0-5.834,2.117-5.834,6.174
			c0,3.089,2.393,4.999,4.609,4.999c2.399,0,3.891-1.211,3.891-3.16c0-2.212-1.52-2.961-2.324-3.047
			c-0.475-0.051-0.898,0.302-0.948,0.786c-0.05,0.48,0.294,0.919,0.769,0.97c-0.014-0.001-0.004,0-0.02-0.003
			c0.188,0.024,0.793,0.208,0.793,1.294c0,0.927-0.727,1.396-2.16,1.396c-1.162,0-2.881-1.023-2.881-3.23
			c0-3.487,2.684-4.41,4.105-4.41c2.912,0,4.521,1.281,6.044,2.709c0.853,0.801,1.646,1.597,2.347,2.298
			c1.127,1.134,1.74,1.738,2.189,2.032c0.174,0.618,0.44,1.299,0.801,2.03c-0.178-0.019-0.357-0.026-0.536-0.026
			c-3.438,0-6.233,2.819-6.233,6.284c0,2.231,1.104,4.265,2.879,5.298c1.15,0.669,2.685,0.842,4.002,0.45
			c1.123-0.336,1.988-1.041,2.506-2.042c0.695-1.348,0.675-2.499-0.061-3.527c-0.789-1.104-1.869-1.142-2.382-0.987
			c-0.459,0.14-0.721,0.626-0.588,1.098c0.133,0.467,0.612,0.732,1.073,0.601c-0.03,0.009-0.006,0.004-0.037,0.01
			c0.062-0.012,0.289-0.021,0.537,0.324c0.222,0.312,0.416,0.721-0.072,1.665c-0.298,0.576-0.789,0.971-1.46,1.17
			c-0.856,0.256-1.927,0.143-2.664-0.289c-1.237-0.719-2.005-2.159-2.005-3.765c0-2.492,2.021-4.521,4.505-4.521
			c0.608,0,1.198,0.123,1.752,0.358c0.082,0.125,0.153,0.244,0.244,0.371c3.812,5.497,12.946,9.72,18.567,9.824
			c0.004,0,0.01-0.001,0.016-0.001c0.004,0,0.009,0.001,0.014,0.001c5.621-0.104,14.752-4.327,18.57-9.824
			c0.088-0.127,0.158-0.246,0.24-0.371c0.555-0.235,1.145-0.358,1.754-0.358c2.479,0,4.504,2.027,4.504,4.521
			c0,1.604-0.771,3.046-2.006,3.764c-0.734,0.432-1.808,0.546-2.662,0.29c-0.672-0.199-1.162-0.594-1.459-1.17
			c-0.49-0.944-0.295-1.354-0.072-1.665c0.246-0.346,0.474-0.336,0.535-0.324l-0.035-0.01c0.459,0.137,0.938-0.134,1.07-0.601
			c0.135-0.471-0.129-0.958-0.588-1.098c-0.518-0.149-1.595-0.112-2.379,0.987c-0.736,1.028-0.764,2.188-0.062,3.527
			c0.521,1.001,1.383,1.706,2.506,2.042c1.316,0.392,2.854,0.219,4.002-0.45c1.777-1.033,2.88-3.062,2.88-5.298
			c0-3.465-2.796-6.284-6.229-6.284c-0.185,0-0.357,0.014-0.537,0.026c0.361-0.731,0.627-1.412,0.803-2.03
			c0.447-0.294,1.062-0.898,2.188-2.032c0.701-0.7,1.492-1.497,2.348-2.298c1.523-1.428,3.133-2.709,6.045-2.709
			c1.42,0,4.105,0.923,4.105,4.41c0,2.207-1.724,3.23-2.886,3.23c-1.435,0-2.157-0.47-2.157-1.396c0-1.086,0.604-1.27,0.795-1.294
			l-0.021,0.003c0.479-0.051,0.818-0.484,0.771-0.97c-0.054-0.484-0.479-0.836-0.951-0.786c-0.801,0.086-2.322,0.834-2.322,3.047
			c0,1.949,1.49,3.16,3.895,3.16c2.219,0,4.607-1.91,4.607-4.999C86.308,110.408,83.372,108.287,80.472,108.287z"/>
	</g>
</g>
<g>
	<g>
		<path fill="#FFFFFF" d="M32.719,110.208c-0.758-0.173-1.46-0.062-2.142,0.342c-0.605,0.355-2.039,1.465-2.258,4.006l0,0
			c-0.017,0.182,0.113,0.34,0.293,0.357c0.176,0.015,0.334-0.118,0.351-0.303l0,0c0.19-2.229,1.421-3.188,1.938-3.489
			c0.545-0.321,1.076-0.406,1.678-0.271l0,0c0.175,0.04,0.346-0.07,0.388-0.249C33.003,110.422,32.893,110.248,32.719,110.208
			L32.719,110.208z"/>
	</g>
</g>
<g>
	<g>
		<path fill="#FFFFFF" d="M17.404,108.729c-1.326,0.026-3.125,0.729-4.149,2.237c-0.666,0.978-1.017,2.052-1.043,3.188l0,0
			c-0.003,0.188,0.138,0.333,0.315,0.342c0.176,0.005,0.326-0.145,0.332-0.321l0,0c0.022-1.01,0.334-1.963,0.926-2.834
			c0.896-1.317,2.47-1.931,3.631-1.953l0,0c0.181-0.004,0.32-0.153,0.318-0.335C17.73,108.87,17.582,108.726,17.404,108.729
			L17.404,108.729z"/>
	</g>
</g>
<g>
	<g>
		<path fill="#FFFFFF" d="M23.318,125.561c0-2.979,2.375-5.398,5.297-5.398l0,0c0.176,0,0.321-0.147,0.321-0.33
			c0-0.188-0.146-0.329-0.321-0.329l0,0c-3.276,0-5.943,2.72-5.943,6.062l0,0c0,0.188,0.145,0.33,0.322,0.33
			C23.174,125.891,23.318,125.744,23.318,125.561L23.318,125.561z"/>
	</g>
</g>
<g>
	<g>
		<path fill="#FFFFFF" d="M65.521,110.849c0.604-0.136,1.133-0.05,1.679,0.271c0.521,0.306,1.745,1.26,1.938,3.488l0,0
			c0.02,0.186,0.175,0.313,0.351,0.303c0.183-0.021,0.312-0.181,0.294-0.356l0,0c-0.221-2.541-1.65-3.646-2.257-4.006
			c-0.687-0.402-1.386-0.515-2.144-0.343l0,0c-0.174,0.04-0.283,0.216-0.244,0.394C65.173,110.779,65.347,110.89,65.521,110.849
			L65.521,110.849z"/>
	</g>
</g>
<g>
	<g>
		<path fill="#FFFFFF" d="M80.681,109.388c1.162,0.022,2.736,0.636,3.634,1.953c0.59,0.871,0.901,1.824,0.931,2.834l0,0
			c0.004,0.182,0.148,0.326,0.332,0.321c0.178-0.009,0.312-0.154,0.312-0.342l0,0c-0.026-1.141-0.377-2.217-1.043-3.188
			c-1.024-1.51-2.821-2.211-4.146-2.237l0,0c-0.183-0.004-0.325,0.146-0.329,0.323C80.36,109.234,80.503,109.384,80.681,109.388
			L80.681,109.388z"/>
	</g>
</g>
<g>
	<g>
		<path fill="#FFFFFF" d="M75.427,125.561c0-3.343-2.666-6.062-5.942-6.062l0,0c-0.179,0-0.317,0.146-0.317,0.329
			c0,0.183,0.143,0.329,0.317,0.329l0,0c2.925,0,5.304,2.425,5.304,5.399l0,0c0,0.188,0.143,0.33,0.314,0.33
			C75.282,125.891,75.427,125.744,75.427,125.561L75.427,125.561z"/>
	</g>
</g>
<g>
	<g>
		<ellipse fill="#FFFFFF" cx="17.662" cy="113.874" rx="0.36" ry="0.322"/>
	</g>
</g>
<g>
	<g>
		<ellipse fill="#FFFFFF" cx="34.666" cy="114.718" rx="0.361" ry="0.322"/>
	</g>
</g>
<g>
	<g>
		<ellipse fill="#FFFFFF" cx="29.225" cy="125.23" rx="0.36" ry="0.322"/>
	</g>
</g>
<g>
	<g>
		<path fill="#FFFFFF" d="M80.073,113.873c0,0.179,0.159,0.318,0.357,0.318c0.197,0,0.359-0.145,0.359-0.318
			c0-0.18-0.162-0.321-0.359-0.321C80.234,113.551,80.073,113.696,80.073,113.873z"/>
	</g>
</g>
<g>
	<g>
		<path fill="#FFFFFF" d="M63.073,114.719c0,0.177,0.154,0.321,0.355,0.321c0.197,0,0.359-0.146,0.359-0.321
			c0-0.178-0.16-0.323-0.359-0.323C63.23,114.396,63.073,114.542,63.073,114.719z"/>
	</g>
</g>
<g>
	<g>
		<ellipse fill="#FFFFFF" cx="68.872" cy="125.23" rx="0.355" ry="0.322"/>
	</g>
</g>
<g>
	<g>
		<path fill="#32626B" d="M71.312,135.926c0-5.238-4.159-9.482-9.295-9.482c-5.133,0-9.291,4.244-9.291,9.482
			c0,5.237,4.158,7.479,9.291,7.479C67.151,143.41,71.312,141.164,71.312,135.926z"/>
	</g>
</g>
<g>
	<g>
		<path fill="#0C1E3E" d="M62.017,128.051c4.268,0,7.72,3.525,7.72,7.875c0,4.351-3.452,5.875-7.72,5.875
			c-4.262,0-7.719-1.524-7.719-5.875C54.298,131.577,57.755,128.051,62.017,128.051z"/>
	</g>
</g>
<g>
	<g>
		<path fill="#32626B" d="M68.505,135.926c0-3.655-2.904-6.618-6.488-6.618c-3.582,0-6.48,2.962-6.48,6.618
			c0,3.654,2.898,6.617,6.48,6.617C65.601,142.543,68.505,139.581,68.505,135.926z"/>
	</g>
</g>
<g>
	<g>
		<path fill="#FFFFFF" d="M62.017,127.49c-4.557,0-8.266,3.785-8.266,8.438l0,0c0,0.184-0.146,0.33-0.324,0.33
			c-0.18,0-0.324-0.146-0.324-0.33l0,0c0-5.017,4-9.098,8.914-9.098l0,0c0.181,0,0.326,0.146,0.326,0.331
			C62.343,127.342,62.196,127.49,62.017,127.49L62.017,127.49z"/>
	</g>
</g>
<g>
	<g>
		<path fill="#FFFFFF" d="M62.017,130.335c-3.02,0-5.477,2.508-5.477,5.591l0,0c0,0.184-0.146,0.331-0.324,0.331
			s-0.324-0.147-0.324-0.331l0,0c0-3.446,2.748-6.252,6.125-6.252l0,0c0.181,0,0.326,0.146,0.326,0.331
			C62.343,130.187,62.196,130.335,62.017,130.335L62.017,130.335z"/>
	</g>
</g>
<g>
	<g>
		<path fill="#32626B" d="M45.375,135.926c0-5.238-4.159-9.482-9.295-9.482c-5.131,0-9.291,4.244-9.291,9.482
			c0,5.237,4.158,7.479,9.291,7.479C41.216,143.41,45.375,141.164,45.375,135.926z"/>
	</g>
</g>
<g>
	<g>
		<path fill="#0C1E3E" d="M43.8,135.926c0-4.351-3.456-7.875-7.721-7.875c-4.262,0-7.717,3.524-7.717,7.875s3.455,5.874,7.717,5.874
			C40.344,141.8,43.8,140.277,43.8,135.926z"/>
	</g>
</g>
<g>
	<g>
		<path fill="#32626B" d="M42.568,135.926c0-3.655-2.902-6.618-6.488-6.618c-3.582,0-6.484,2.962-6.484,6.618
			c0,3.654,2.902,6.617,6.484,6.617C39.666,142.543,42.568,139.581,42.568,135.926z"/>
	</g>
</g>
<g>
	<g>
		<path fill="#FFFFFF" d="M36.08,127.49c-4.557,0-8.267,3.785-8.267,8.438l0,0c0,0.184-0.144,0.33-0.325,0.33
			c-0.179,0-0.324-0.146-0.324-0.33l0,0c0-5.017,4-9.098,8.916-9.098l0,0c0.18,0,0.324,0.146,0.324,0.331
			C36.404,127.342,36.259,127.49,36.08,127.49L36.08,127.49z"/>
	</g>
</g>
<g>
	<g>
		<path fill="#FFFFFF" d="M36.08,130.335c-3.02,0-5.478,2.508-5.478,5.591l0,0c0,0.184-0.144,0.331-0.325,0.331
			c-0.179,0-0.322-0.147-0.322-0.331l0,0c0-3.446,2.748-6.252,6.125-6.252l0,0c0.18,0,0.324,0.146,0.324,0.331
			C36.404,130.187,36.259,130.335,36.08,130.335L36.08,130.335z"/>
	</g>
</g>
<g>
	<g>
		<ellipse fill="#32626B" cx="49.05" cy="133.574" rx="9.292" ry="9.483"/>
	</g>
</g>
<g>
	<g>
		<path fill="#0C1E3E" d="M56.769,133.574c0-4.351-3.459-7.87-7.718-7.87c-4.262,0-7.719,3.521-7.719,7.87
			c0,4.353,3.457,7.874,7.719,7.874C53.31,141.448,56.769,137.922,56.769,133.574z"/>
	</g>
</g>
<g>
	<g>
		<path fill="#32626B" d="M55.534,133.574c0-3.651-2.9-6.615-6.485-6.615c-3.584,0-6.486,2.964-6.486,6.615
			c0,3.653,2.903,6.617,6.486,6.617S55.534,137.228,55.534,133.574z"/>
	</g>
</g>
<g>
	<g>
		<path fill="#32626B" d="M49.029,131.376c2.329,0,4.214,4.151,4.214,9.276c0,5.126-1.891,2.279-4.214,2.279
			c-2.328,0-4.215,2.847-4.215-2.279C44.814,135.531,46.701,131.376,49.029,131.376z"/>
	</g>
</g>
<g>
	<g>
		<path fill="#0C1E3E" d="M87.46,36.415c0-3.814-2.992-6.175-5.769-6.175c-3.062,0-5.045,1.702-5.045,4.336
			c0,2.83,2.013,4.071,3.356,4.216c1.104,0.118,2.103-0.704,2.219-1.833c0.105-1.033-0.562-1.961-1.523-2.204
			c-0.009-0.041-0.018-0.098-0.018-0.179c0-0.022,0.004-0.037,0.004-0.049c0.062-0.038,0.312-0.17,1.009-0.17
			c0.541,0,1.729,0.518,1.729,2.058c0,3.197-2.834,3.234-2.953,3.234c-2.5,0-3.862-1.086-5.266-2.398
			c-0.844-0.789-1.623-1.577-2.316-2.271c-0.936-0.94-1.532-1.531-2.014-1.917c-0.023-0.069-0.045-0.138-0.068-0.208
			c3.513-0.573,6.207-3.649,6.207-7.357c0-2.657-1.328-5.078-3.463-6.32c-1.414-0.82-3.289-1.034-4.896-0.556
			c-1.433,0.427-2.536,1.333-3.198,2.621c-0.754,1.461-0.744,2.663-0.447,3.589c-4.682-3.875-11.303-6.431-15.874-6.539
			c-0.021-0.002-0.044-0.004-0.049-0.005h-0.074c0,0-0.004,0.001-0.006,0.001c-0.003,0-0.011,0-0.011,0l-0.012,0.001
			c-4.558,0.094-11.199,2.654-15.893,6.541c0.294-0.927,0.307-2.128-0.446-3.589c-0.665-1.288-1.774-2.194-3.204-2.621
			c-1.605-0.478-3.48-0.264-4.894,0.556c-2.138,1.242-3.461,3.663-3.461,6.32c0,3.708,2.694,6.784,6.207,7.357
			c-0.023,0.07-0.048,0.139-0.07,0.208c-0.481,0.386-1.078,0.977-2.013,1.917c-0.692,0.694-1.477,1.482-2.318,2.271
			c-1.4,1.312-2.763,2.398-5.264,2.398c-0.12,0-2.955-0.037-2.955-3.234c0-1.54,1.188-2.058,1.73-2.058
			c0.698,0,0.948,0.133,1.004,0.17c0.002,0.012,0.004,0.027,0.004,0.049c0,0.081-0.006,0.138-0.014,0.179
			c-0.96,0.242-1.63,1.171-1.523,2.205c0.117,1.128,1.111,1.95,2.217,1.832c1.347-0.145,3.355-1.386,3.355-4.216
			c0-2.634-1.979-4.336-5.043-4.336c-2.771,0-5.764,2.36-5.764,6.175c0,4.825,3.516,7.351,6.988,7.351
			c3.945,0,6.195-1.797,7.992-3.483c0.59-0.551,1.146-1.098,1.654-1.602c0.18,0.44,0.368,0.792,0.506,1.042
			c0.678,1.235,1.822,2.134,3.138,2.466c0.977,0.246,2.511,0.297,4.271-0.867c2.547-1.684,2.309-4.621,1.53-6.184
			c-0.246-0.491-0.661-0.853-1.175-1.023c-0.512-0.17-1.059-0.126-1.539,0.124c-0.991,0.515-1.387,1.754-0.893,2.747
			c0.291,0.61-0.006,0.806-0.119,0.881c-0.438,0.291-0.812,0.401-1.108,0.326c-0.228-0.058-0.456-0.246-0.585-0.48
			c-0.484-0.884-1.389-2.532,1.521-6.725c3.215-4.639,11.52-8.487,16.205-8.582c4.734,0.095,13.037,3.942,16.25,8.582
			c2.905,4.193,2.009,5.841,1.521,6.725c-0.129,0.234-0.359,0.422-0.588,0.48c-0.295,0.075-0.668-0.036-1.105-0.326
			c-0.107-0.075-0.411-0.271-0.129-0.864c0.502-1.01,0.107-2.25-0.885-2.766c-0.479-0.249-1.025-0.293-1.537-0.123
			s-0.93,0.533-1.174,1.023c-0.779,1.563-1.018,4.5,1.529,6.184c1.76,1.164,3.293,1.113,4.271,0.867
			c1.314-0.332,2.457-1.231,3.135-2.464c0.143-0.251,0.328-0.604,0.511-1.043c0.511,0.505,1.062,1.051,1.649,1.602
			c1.799,1.686,4.047,3.483,7.992,3.483c1.805,0,3.506-0.668,4.787-1.881C86.263,40.936,87.46,39.215,87.46,36.415z M80.446,34.7
			L80.446,34.7L80.446,34.7L80.446,34.7z M17.629,34.703v0.004l0,0V34.703z M29.83,23.455c-0.02-0.004-0.039-0.007-0.058-0.012
			c0.021,0.003,0.038-0.001,0.06,0.004L29.83,23.455z M68.269,23.455l-0.002-0.008c0.021-0.005,0.037-0.001,0.062-0.004
			C68.306,23.446,68.286,23.45,68.269,23.455z M68.433,24.614h-0.002H68.433L68.433,24.614z M68.405,24.607l-0.107-0.468
			l0.135,0.469C68.423,24.608,68.413,24.608,68.405,24.607z M68.144,23.476l0.003,0.002l0,0L68.144,23.476z M30.416,27.453
			c-0.317,0.377-0.618,0.763-0.891,1.157c-0.02,0.028-0.033,0.051-0.052,0.077c-0.325,0.104-0.661,0.156-1.003,0.156
			c-1.848,0-3.352-1.501-3.352-3.344c0-1.182,0.545-2.231,1.424-2.742c0.466-0.272,1.211-0.348,1.769-0.183
			c0.487,0.145,0.669,0.405,0.763,0.588c0.058,0.108,0.09,0.188,0.115,0.255c-0.779,0.096-1.47,0.653-1.701,1.469
			c-0.312,1.09,0.307,2.234,1.373,2.552C29.32,27.573,29.865,27.583,30.416,27.453z M67.683,27.451
			c0.552,0.132,1.097,0.122,1.556-0.015c1.067-0.317,1.687-1.461,1.375-2.551c-0.229-0.816-0.924-1.374-1.7-1.469
			c0.021-0.067,0.059-0.147,0.11-0.255c0.099-0.183,0.276-0.443,0.769-0.588c0.557-0.166,1.301-0.089,1.768,0.183
			c0.88,0.51,1.425,1.56,1.425,2.742c0,1.844-1.502,3.344-3.351,3.344c-0.342,0-0.68-0.053-1.006-0.156
			c-0.021-0.026-0.029-0.049-0.049-0.077C68.3,28.215,67.999,27.83,67.683,27.451z M80.31,35.868L80.31,35.868L80.31,35.868
			L80.31,35.868z M80.302,35.864l0.047-0.37l-0.039,0.371C80.308,35.865,80.304,35.864,80.302,35.864z M17.537,34.725
			c0.021-0.006,0.037-0.015,0.062-0.019v0.006C17.578,34.716,17.557,34.721,17.537,34.725z M80.562,34.725
			c-0.021-0.004-0.04-0.009-0.062-0.013l0.002-0.006C80.524,34.709,80.542,34.718,80.562,34.725z"/>
	</g>
</g>
<g>
	<g>
		<polygon fill="#7CCCC9" points="34.145,36.466 34.148,36.469 34.148,36.471 		"/>
	</g>
</g>
<g>
	<g>
		<path fill="#7CCCC9" d="M63.948,36.471c0-0.001,0.002-0.001,0.002-0.002c0,0,0.002-0.001,0.002-0.003
			C63.95,36.469,63.952,36.468,63.948,36.471z"/>
	</g>
</g>
<g>
	<g>
		<path fill="#32626B" d="M80.472,42.589c-3.53,0-5.5-1.568-7.213-3.174c-0.875-0.82-1.68-1.627-2.391-2.341
			c-0.227-0.223-0.453-0.454-0.679-0.674c-0.097,1.31-0.575,2.196-0.88,2.748c-0.521,0.952-1.396,1.643-2.404,1.898
			c-0.759,0.191-1.953,0.222-3.367-0.713c-2.058-1.359-1.642-3.644-1.129-4.662c0.217-0.434,0.732-0.608,1.162-0.386
			c0.426,0.221,0.596,0.751,0.379,1.184c-0.127,0.266-0.682,1.586,0.523,2.384c0.72,0.475,1.396,0.636,2.016,0.481
			c0.534-0.136,1.027-0.527,1.312-1.048c0.564-1.031,1.744-3.178-1.584-7.979c-3.463-4.993-12.065-8.976-17.17-9.077
			c-5.104,0.101-13.71,4.084-17.173,9.077c-3.329,4.801-2.149,6.948-1.584,7.979c0.287,0.521,0.777,0.912,1.314,1.048
			c0.616,0.155,1.293-0.006,2.012-0.481c1.205-0.797,0.654-2.118,0.529-2.384c-0.217-0.433-0.048-0.963,0.377-1.184
			c0.424-0.222,0.945-0.049,1.163,0.386c0.509,1.018,0.929,3.303-1.129,4.662c-1.415,0.935-2.612,0.904-3.368,0.713
			c-1.008-0.255-1.885-0.946-2.408-1.898c-0.301-0.552-0.783-1.438-0.879-2.748c-0.224,0.22-0.453,0.451-0.677,0.674
			c-0.708,0.713-1.511,1.521-2.388,2.341c-1.713,1.606-3.682,3.174-7.215,3.174c-2.898,0-5.834-2.122-5.834-6.175
			c0-3.087,2.393-4.999,4.609-4.999c2.399,0,3.891,1.211,3.891,3.161c0,2.212-1.52,2.96-2.324,3.047
			c-0.475,0.051-0.898-0.302-0.948-0.786c-0.05-0.484,0.294-0.918,0.769-0.969c-0.014,0.001-0.004,0-0.02,0.002
			c0.188-0.029,0.793-0.208,0.793-1.294c0-0.926-0.727-1.396-2.16-1.396c-1.162,0-2.881,1.029-2.881,3.235
			c0,3.488,2.684,4.411,4.105,4.411c2.912,0,4.521-1.281,6.044-2.709c0.853-0.801,1.646-1.596,2.347-2.298
			c1.127-1.133,1.74-1.738,2.189-2.032c0.174-0.618,0.44-1.298,0.801-2.03c-0.178,0.015-0.357,0.027-0.536,0.027
			c-3.438,0-6.233-2.819-6.233-6.285c0-2.235,1.104-4.265,2.879-5.297c1.15-0.67,2.685-0.842,4.002-0.45
			c1.123,0.335,1.988,1.04,2.506,2.041c0.695,1.345,0.675,2.5-0.061,3.527c-0.789,1.105-1.869,1.142-2.382,0.99
			c-0.459-0.136-0.721-0.626-0.588-1.094c0.133-0.468,0.612-0.736,1.073-0.601c-0.03-0.008-0.006-0.003-0.037-0.009
			c0.062,0.011,0.289,0.021,0.537-0.326c0.222-0.31,0.416-0.719-0.072-1.666c-0.298-0.575-0.789-0.969-1.46-1.169
			c-0.856-0.255-1.927-0.139-2.664,0.289c-1.237,0.719-2.005,2.16-2.005,3.764c0,2.492,2.021,4.521,4.505,4.521
			c0.608,0,1.198-0.124,1.752-0.359c0.082-0.125,0.153-0.244,0.244-0.372c3.812-5.497,12.946-9.719,18.567-9.824
			c0.004,0,0.01,0.001,0.016,0.001c0.004,0,0.009-0.001,0.014-0.001c5.621,0.104,14.752,4.327,18.57,9.824
			c0.088,0.127,0.158,0.247,0.24,0.372c0.555,0.236,1.145,0.359,1.754,0.359c2.479,0,4.504-2.029,4.504-4.521
			c0-1.604-0.771-3.045-2.006-3.764c-0.734-0.428-1.808-0.544-2.662-0.289c-0.672,0.2-1.162,0.594-1.459,1.169
			c-0.49,0.946-0.295,1.355-0.072,1.666c0.246,0.347,0.474,0.336,0.535,0.326l-0.035,0.009c0.459-0.136,0.938,0.133,1.07,0.601
			c0.135,0.467-0.129,0.958-0.588,1.094c-0.518,0.153-1.595,0.116-2.379-0.99c-0.736-1.027-0.764-2.182-0.062-3.527
			c0.521-1,1.383-1.706,2.506-2.041c1.316-0.392,2.854-0.22,4.002,0.45c1.777,1.033,2.88,3.062,2.88,5.297
			c0,3.465-2.796,6.285-6.229,6.285c-0.185,0-0.357-0.012-0.537-0.027c0.361,0.732,0.627,1.412,0.803,2.03
			c0.447,0.294,1.062,0.899,2.188,2.032c0.701,0.702,1.492,1.497,2.348,2.298c1.523,1.428,3.133,2.709,6.045,2.709
			c1.42,0,4.105-0.923,4.105-4.411c0-2.206-1.724-3.235-2.886-3.235c-1.435,0-2.157,0.47-2.157,1.396
			c0,1.086,0.604,1.265,0.795,1.294l-0.021-0.002c0.479,0.05,0.818,0.484,0.771,0.969c-0.054,0.484-0.479,0.836-0.951,0.786
			c-0.801-0.087-2.322-0.834-2.322-3.047c0-1.95,1.49-3.161,3.895-3.161c2.219,0,4.607,1.912,4.607,4.999
			C86.308,40.467,83.372,42.589,80.472,42.589z"/>
	</g>
</g>
<g>
	<g>
		<path fill="#FFFFFF" d="M32.719,40.668c-0.758,0.172-1.46,0.061-2.142-0.343c-0.605-0.358-2.039-1.464-2.258-4.005l0,0
			c-0.017-0.181,0.113-0.34,0.293-0.356c0.176-0.016,0.334,0.117,0.351,0.299l0,0c0.19,2.231,1.421,3.187,1.938,3.493
			c0.545,0.32,1.076,0.406,1.678,0.27l0,0c0.175-0.04,0.346,0.072,0.388,0.249C33.003,40.453,32.893,40.628,32.719,40.668
			L32.719,40.668z"/>
	</g>
</g>
<g>
	<g>
		<path fill="#FFFFFF" d="M17.404,42.146c-1.326-0.025-3.125-0.727-4.149-2.237c-0.666-0.978-1.017-2.052-1.043-3.193l0,0
			c-0.003-0.183,0.138-0.333,0.315-0.338c0.178-0.004,0.326,0.14,0.332,0.322l0,0c0.022,1.009,0.334,1.962,0.926,2.833
			c0.896,1.317,2.47,1.932,3.631,1.954l0,0c0.181,0.003,0.32,0.154,0.318,0.335C17.73,42.005,17.582,42.149,17.404,42.146
			L17.404,42.146z"/>
	</g>
</g>
<g>
	<g>
		<path fill="#FFFFFF" d="M23.318,25.313c0,2.98,2.375,5.405,5.297,5.405l0,0c0.176,0,0.321,0.147,0.321,0.33
			c0,0.181-0.146,0.328-0.321,0.328l0,0c-3.276,0-5.943-2.72-5.943-6.062l0,0c0-0.182,0.145-0.33,0.322-0.33
			C23.174,24.984,23.318,25.132,23.318,25.313L23.318,25.313z"/>
	</g>
</g>
<g>
	<g>
		<path fill="#FFFFFF" d="M65.521,40.025c0.604,0.137,1.133,0.051,1.679-0.27c0.521-0.307,1.745-1.261,1.938-3.493l0,0
			c0.02-0.181,0.175-0.314,0.351-0.298c0.183,0.016,0.312,0.176,0.294,0.356l0,0c-0.221,2.541-1.65,3.646-2.257,4.005
			c-0.687,0.404-1.386,0.516-2.144,0.344l0,0c-0.174-0.04-0.283-0.215-0.244-0.394C65.173,40.097,65.347,39.985,65.521,40.025
			L65.521,40.025z"/>
	</g>
</g>
<g>
	<g>
		<path fill="#FFFFFF" d="M80.681,41.487c1.162-0.023,2.736-0.637,3.634-1.954c0.59-0.871,0.901-1.824,0.931-2.833l0,0
			c0.004-0.183,0.148-0.326,0.332-0.322c0.178,0.005,0.312,0.155,0.312,0.337l0,0c-0.026,1.141-0.377,2.216-1.043,3.193
			c-1.024,1.51-2.821,2.211-4.146,2.237l0,0c-0.183,0.003-0.325-0.141-0.329-0.323C80.36,41.642,80.503,41.491,80.681,41.487
			L80.681,41.487z"/>
	</g>
</g>
<g>
	<g>
		<path fill="#FFFFFF" d="M75.427,25.313c0,3.343-2.666,6.062-5.942,6.062l0,0c-0.179,0-0.317-0.147-0.317-0.328
			c0-0.183,0.143-0.33,0.317-0.33l0,0c2.925,0,5.304-2.425,5.304-5.405l0,0c0-0.182,0.143-0.33,0.314-0.33
			C75.282,24.984,75.427,25.132,75.427,25.313L75.427,25.313z"/>
	</g>
</g>
<g>
	<g>
		<ellipse fill="#FFFFFF" cx="17.662" cy="37.002" rx="0.36" ry="0.322"/>
	</g>
</g>
<g>
	<g>
		<ellipse fill="#FFFFFF" cx="34.666" cy="36.156" rx="0.361" ry="0.321"/>
	</g>
</g>
<g>
	<g>
		<ellipse fill="#FFFFFF" cx="29.225" cy="25.645" rx="0.36" ry="0.322"/>
	</g>
</g>
<g>
	<g>
		<path fill="#FFFFFF" d="M80.073,37.001c0-0.178,0.159-0.321,0.357-0.321c0.197,0,0.359,0.144,0.359,0.321
			c0,0.177-0.162,0.322-0.359,0.322C80.234,37.323,80.073,37.179,80.073,37.001z"/>
	</g>
</g>
<g>
	<g>
		<path fill="#FFFFFF" d="M63.073,36.157c0-0.178,0.154-0.321,0.355-0.321c0.197,0,0.359,0.143,0.359,0.321
			c0,0.177-0.16,0.321-0.359,0.321C63.23,36.479,63.073,36.333,63.073,36.157z"/>
	</g>
</g>
<g>
	<g>
		<ellipse fill="#FFFFFF" cx="68.872" cy="25.645" rx="0.355" ry="0.322"/>
	</g>
</g>
<g>
	<g>
		<path fill="#32626B" d="M26.789,14.949c0,5.238,4.158,9.483,9.291,9.483c5.137,0,9.295-4.245,9.295-9.483
			c0-5.237-4.159-7.482-9.295-7.482C30.949,7.467,26.789,9.712,26.789,14.949z"/>
	</g>
</g>
<g>
	<g>
		<path fill="#0C1E3E" d="M28.363,14.949c0,4.35,3.457,7.875,7.717,7.875c4.266,0,7.722-3.525,7.722-7.875
			c0-4.349-3.456-7.874-7.722-7.874C31.82,7.075,28.363,10.6,28.363,14.949z"/>
	</g>
</g>
<g>
	<g>
		<path fill="#32626B" d="M29.595,14.949c0,3.655,2.902,6.619,6.484,6.619c3.584,0,6.488-2.963,6.488-6.619
			c0-3.654-2.902-6.618-6.488-6.618C32.498,8.332,29.595,11.294,29.595,14.949z"/>
	</g>
</g>
<g>
	<g>
		<path fill="#FFFFFF" d="M36.08,23.385c4.559,0,8.269-3.785,8.269-8.436l0,0c0-0.182,0.146-0.331,0.325-0.331
			c0.179,0,0.322,0.149,0.322,0.331l0,0c0,5.017-3.998,9.097-8.916,9.097l0,0c-0.178,0-0.321-0.148-0.321-0.331
			S35.902,23.385,36.08,23.385L36.08,23.385z"/>
	</g>
</g>
<g>
	<g>
		<path fill="#FFFFFF" d="M36.08,20.54c3.021,0,5.478-2.507,5.478-5.591l0,0c0-0.182,0.146-0.331,0.326-0.331
			c0.178,0,0.323,0.149,0.323,0.331l0,0c0,3.447-2.748,6.252-6.127,6.252l0,0c-0.176,0-0.321-0.147-0.321-0.331
			C35.758,20.688,35.902,20.54,36.08,20.54L36.08,20.54z"/>
	</g>
</g>
<g>
	<g>
		<path fill="#32626B" d="M52.726,14.949c0,5.238,4.158,9.483,9.291,9.483c5.136,0,9.295-4.245,9.295-9.483
			c0-5.237-4.159-7.482-9.295-7.482C56.884,7.467,52.726,9.712,52.726,14.949z"/>
	</g>
</g>
<g>
	<g>
		<ellipse fill="#0C1E3E" cx="62.017" cy="14.949" rx="7.72" ry="7.875"/>
	</g>
</g>
<g>
	<g>
		<path fill="#32626B" d="M55.532,14.949c0,3.655,2.898,6.619,6.48,6.619c3.584,0,6.488-2.963,6.488-6.619
			c0-3.654-2.904-6.618-6.488-6.618C58.435,8.332,55.532,11.294,55.532,14.949z"/>
	</g>
</g>
<g>
	<g>
		<path fill="#FFFFFF" d="M62.017,23.385c4.562,0,8.271-3.785,8.271-8.436l0,0c0-0.182,0.146-0.331,0.321-0.331
			c0.183,0,0.323,0.149,0.323,0.331l0,0c0,5.017-4,9.097-8.918,9.097l0,0c-0.178,0-0.321-0.148-0.321-0.331
			S61.839,23.385,62.017,23.385L62.017,23.385z"/>
	</g>
</g>
<linearGradient id="XMLID_8_" gradientUnits="userSpaceOnUse" x1="252.7637" y1="36.6602" x2="263.5498" y2="36.6602" gradientTransform="matrix(9.563018e-08 1 1 -7.807048e-08 12.5981 -124.6846)">
	<stop  offset="0" style="stop-color:#081818"/>
	<stop  offset="0.3371" style="stop-color:#17292D"/>
	<stop  offset="0.6742" style="stop-color:#A2D2CD"/>
	<stop  offset="0.8483" style="stop-color:#081818"/>
</linearGradient>
<path fill="url(#XMLID_8_)" d="M49.258,138.865c-3.033,0-5.501-2.42-5.501-5.393c0-2.974,2.469-5.394,5.501-5.394
	c3.035,0.002,5.502,2.422,5.502,5.393C54.761,136.445,52.293,138.865,49.258,138.865z"/>
<g>
	<g>
		<path fill="#FFFFFF" d="M62.017,20.54c3.021,0,5.48-2.507,5.48-5.591l0,0c0-0.182,0.145-0.331,0.319-0.331
			c0.18,0,0.323,0.149,0.323,0.331l0,0c0,3.447-2.748,6.252-6.127,6.252l0,0c-0.178,0-0.323-0.147-0.323-0.331
			C61.694,20.688,61.839,20.54,62.017,20.54L62.017,20.54z"/>
	</g>
</g>
<g>
	<g>
		<ellipse fill="#32626B" cx="49.05" cy="17.301" rx="9.292" ry="9.483"/>
	</g>
</g>
<g>
	<g>
		<path fill="#0C1E3E" d="M41.332,17.301c0,4.35,3.455,7.875,7.718,7.875c4.26,0,7.717-3.525,7.717-7.875S53.31,9.427,49.05,9.427
			C44.787,9.427,41.332,12.951,41.332,17.301z"/>
	</g>
</g>
<g>
	<g>
		<path fill="#32626B" d="M42.563,17.301c0,3.655,2.903,6.618,6.486,6.618s6.485-2.963,6.485-6.618c0-3.655-2.9-6.618-6.485-6.618
			C45.466,10.684,42.563,13.646,42.563,17.301z"/>
	</g>
</g>
<g>
	<g>
		<path fill="#FFFFFF" d="M49.05,25.737c4.559,0,8.266-3.785,8.266-8.436l0,0c0-0.183,0.146-0.331,0.323-0.331
			c0.186,0,0.326,0.148,0.326,0.331l0,0c0,5.017-4,9.097-8.916,9.097l0,0c-0.182,0-0.326-0.148-0.326-0.331
			C48.724,25.885,48.869,25.737,49.05,25.737L49.05,25.737z"/>
	</g>
</g>
<g>
	<g>
		<path fill="#32626B" d="M49.072,7.482c0.438,0,0.791,0.121,0.791,2.738c0,2.617-0.354,4.738-0.791,4.738s-0.793-2.121-0.793-4.738
			C48.279,7.604,48.634,7.482,49.072,7.482z"/>
	</g>
</g>
<g>
	<g>
		<path fill="#FFFFFF" d="M49.061,18.929c1.868-0.104,3.796-3.737,3.667-9.427l0,0c-0.002-0.096,0.072-0.178,0.169-0.18
			c0.097-0.003,0.179,0.074,0.181,0.171l0,0c0.141,5.98-1.923,9.673-3.992,9.787l0,0c-0.094,0.005-0.176-0.069-0.182-0.166
			C48.893,19.017,48.968,18.934,49.061,18.929L49.061,18.929z"/>
	</g>
</g>
<g>
	<g>
		<path fill="#FFFFFF" d="M49.088,16.062c0.658-0.064,1.396-2.674,1.396-6.068l0,0c0-0.098,0.075-0.177,0.177-0.177
			c0.096,0,0.174,0.079,0.174,0.177l0,0c0,3.073-0.644,6.313-1.712,6.419l0,0c-0.094,0.008-0.178-0.062-0.187-0.158
			C48.923,16.157,48.992,16.072,49.088,16.062L49.088,16.062z"/>
	</g>
</g>
<g>
	<path fill="#FFFFFF" d="M37.828,118.431c0.304,0.346,0.457,0.771,0.457,1.274c0,0.501-0.152,0.924-0.457,1.271
		c-0.34,0.388-0.795,0.579-1.36,0.579c-0.576,0-1.029-0.191-1.363-0.579c-0.301-0.348-0.45-0.771-0.45-1.271
		c0-0.503,0.15-0.935,0.45-1.274c0.334-0.388,0.787-0.58,1.363-0.58C37.033,117.851,37.488,118.044,37.828,118.431z M35.302,118.612
		c-0.262,0.302-0.391,0.661-0.391,1.098c0,0.425,0.129,0.787,0.391,1.085c0.288,0.334,0.678,0.501,1.168,0.501
		c0.486,0,0.875-0.167,1.165-0.501c0.259-0.298,0.39-0.66,0.39-1.085c0-0.437-0.131-0.796-0.39-1.098
		c-0.29-0.329-0.679-0.492-1.165-0.492C35.98,118.119,35.591,118.282,35.302,118.612z M37.052,118.808
		c0.15,0.111,0.232,0.245,0.245,0.402c0.003,0.079-0.048,0.125-0.149,0.138c-0.105,0.014-0.164-0.021-0.174-0.103
		c-0.012-0.108-0.064-0.191-0.158-0.25c-0.093-0.062-0.218-0.084-0.375-0.084c-0.225,0-0.396,0.076-0.514,0.236
		c-0.104,0.146-0.155,0.323-0.155,0.555c0,0.24,0.048,0.431,0.142,0.559c0.108,0.146,0.277,0.221,0.504,0.221
		c0.184,0,0.33-0.041,0.439-0.121c0.09-0.068,0.149-0.167,0.172-0.286c0.002-0.046,0.021-0.075,0.057-0.103
		c0.031-0.021,0.068-0.025,0.111-0.021c0.041,0.005,0.074,0.021,0.101,0.046c0.032,0.021,0.046,0.06,0.043,0.099
		c-0.022,0.202-0.11,0.363-0.265,0.486c-0.16,0.127-0.373,0.188-0.635,0.188c-0.324,0-0.574-0.104-0.75-0.322
		c-0.156-0.189-0.236-0.438-0.236-0.738c0-0.302,0.08-0.546,0.236-0.74c0.176-0.22,0.428-0.329,0.75-0.329
		C36.684,118.636,36.889,118.694,37.052,118.808z"/>
</g>
<g>
	<path fill="#FFFFFF" d="M39.264,120.915l-0.543-1.714h0.442l0.32,1.118l0.295-1.118h0.436l0.285,1.118l0.328-1.118h0.444
		l-0.549,1.714h-0.435l-0.295-1.104l-0.289,1.104H39.264z"/>
</g>
<g>
	<path fill="#FFFFFF" d="M41.83,120.915l-0.543-1.714h0.441l0.322,1.118l0.294-1.118h0.437l0.285,1.118l0.326-1.118h0.446
		l-0.55,1.714h-0.435l-0.294-1.104l-0.29,1.104H41.83z"/>
</g>
<g>
	<path fill="#FFFFFF" d="M44.396,120.915l-0.543-1.714h0.441l0.32,1.118l0.295-1.118h0.436l0.285,1.118l0.326-1.118h0.447
		l-0.549,1.714h-0.435l-0.294-1.104l-0.29,1.104H44.396z"/>
</g>
<g>
	<path fill="#FFFFFF" d="M46.513,120.915v-0.454h0.454v0.454H46.513z"/>
</g>
<g>
	<path fill="#FFFFFF" d="M47.412,120.915v-2.366h0.453v0.853c0.14-0.153,0.306-0.234,0.498-0.234c0.209,0,0.383,0.072,0.52,0.229
		c0.137,0.151,0.206,0.368,0.206,0.651c0,0.293-0.07,0.519-0.21,0.678c-0.139,0.159-0.309,0.237-0.51,0.237
		c-0.098,0-0.193-0.024-0.289-0.075c-0.096-0.05-0.178-0.123-0.246-0.219v0.252L47.412,120.915L47.412,120.915z M47.861,120.021
		c0,0.184,0.027,0.312,0.084,0.396c0.08,0.122,0.186,0.183,0.315,0.183c0.101,0,0.187-0.043,0.257-0.13
		c0.072-0.085,0.107-0.22,0.107-0.404c0-0.192-0.036-0.339-0.108-0.426c-0.071-0.088-0.163-0.131-0.274-0.131
		c-0.109,0-0.199,0.042-0.272,0.127C47.897,119.719,47.861,119.847,47.861,120.021z"/>
</g>
<g>
	<path fill="#FFFFFF" d="M49.441,120.915v-2.366h0.453v2.366H49.441z"/>
</g>
<g>
	<path fill="#FFFFFF" d="M51.495,120.915v-0.257c-0.062,0.091-0.146,0.16-0.246,0.218c-0.104,0.055-0.209,0.081-0.322,0.081
		c-0.115,0-0.217-0.025-0.311-0.076c-0.095-0.051-0.156-0.123-0.197-0.214s-0.062-0.218-0.062-0.38v-1.091h0.452v0.79
		c0,0.241,0.009,0.394,0.025,0.443c0.018,0.057,0.047,0.104,0.09,0.13c0.045,0.032,0.101,0.047,0.168,0.047
		c0.078,0,0.146-0.021,0.209-0.062c0.062-0.042,0.104-0.095,0.125-0.158c0.021-0.062,0.035-0.219,0.035-0.464v-0.729h0.453v1.717
		L51.495,120.915L51.495,120.915z"/>
</g>
<g>
	<path fill="#FFFFFF" d="M53.368,120.372l0.453,0.071c-0.062,0.164-0.15,0.293-0.273,0.384c-0.127,0.087-0.283,0.13-0.473,0.13
		c-0.302,0-0.521-0.103-0.662-0.293c-0.113-0.156-0.168-0.354-0.168-0.596c0-0.281,0.069-0.508,0.223-0.67
		c0.146-0.156,0.336-0.237,0.562-0.237c0.256,0,0.452,0.085,0.604,0.253c0.146,0.169,0.219,0.426,0.211,0.771h-1.139
		c0.006,0.137,0.041,0.241,0.105,0.317c0.07,0.073,0.158,0.108,0.268,0.108c0.067,0,0.131-0.02,0.18-0.06
		C53.308,120.52,53.343,120.457,53.368,120.372z M53.397,119.91c-0.005-0.136-0.039-0.23-0.104-0.305
		c-0.063-0.062-0.146-0.102-0.236-0.102c-0.1,0-0.184,0.035-0.246,0.104c-0.062,0.072-0.098,0.172-0.096,0.297L53.397,119.91
		L53.397,119.91z"/>
</g>
<g>
	<path fill="#FFFFFF" d="M55.784,120.915h-0.425v-0.252c-0.065,0.098-0.147,0.171-0.241,0.221c-0.102,0.049-0.191,0.073-0.289,0.073
		c-0.197,0-0.365-0.079-0.506-0.239c-0.145-0.158-0.214-0.38-0.214-0.664c0-0.291,0.067-0.512,0.205-0.664
		c0.14-0.15,0.312-0.229,0.521-0.229c0.188,0,0.354,0.077,0.496,0.233v-0.852h0.453V120.915L55.784,120.915z M54.573,120.021
		c0,0.188,0.021,0.316,0.073,0.398c0.073,0.119,0.181,0.179,0.312,0.179c0.104,0,0.19-0.045,0.268-0.134
		c0.072-0.09,0.109-0.223,0.109-0.399c0-0.193-0.035-0.34-0.107-0.427c-0.066-0.088-0.161-0.131-0.271-0.131
		s-0.199,0.042-0.271,0.129C54.61,119.722,54.573,119.85,54.573,120.021z"/>
</g>
<g>
	<path fill="#FFFFFF" d="M56.671,119.202v1.658c0,0.224-0.016,0.372-0.045,0.467c-0.027,0.091-0.082,0.155-0.164,0.212
		c-0.08,0.05-0.187,0.071-0.312,0.071c-0.045,0-0.095-0.005-0.146-0.013s-0.106-0.021-0.168-0.037l0.078-0.386
		c0.021,0.004,0.041,0.007,0.061,0.011c0.021,0.002,0.037,0.003,0.057,0.003c0.047,0,0.079-0.009,0.109-0.024
		c0.029-0.021,0.05-0.044,0.062-0.072c0.01-0.027,0.016-0.111,0.016-0.252v-1.639L56.671,119.202L56.671,119.202z M56.216,118.968
		v-0.42h0.455v0.42H56.216z"/>
</g>
<g>
	<path fill="#FFFFFF" d="M57.144,120.915v-0.454h0.451v0.454H57.144z"/>
</g>
<g>
	<path fill="#FFFFFF" d="M59.552,119.702l-0.449,0.077c-0.016-0.09-0.049-0.15-0.102-0.194c-0.055-0.045-0.123-0.067-0.207-0.067
		c-0.113,0-0.203,0.039-0.271,0.118c-0.063,0.079-0.101,0.21-0.101,0.395c0,0.205,0.033,0.354,0.103,0.438
		c0.067,0.085,0.161,0.127,0.274,0.127c0.088,0,0.158-0.023,0.213-0.074c0.058-0.05,0.097-0.136,0.117-0.256l0.443,0.075
		c-0.05,0.205-0.139,0.357-0.27,0.466c-0.133,0.104-0.307,0.157-0.523,0.157c-0.25,0-0.449-0.079-0.604-0.237
		c-0.146-0.159-0.223-0.378-0.223-0.656c0-0.282,0.073-0.507,0.225-0.664c0.148-0.152,0.354-0.232,0.605-0.232
		c0.207,0,0.375,0.044,0.496,0.134C59.409,119.384,59.497,119.519,59.552,119.702z"/>
</g>
<g>
	<path fill="#FFFFFF" d="M59.784,120.035c0-0.151,0.037-0.301,0.107-0.438c0.074-0.14,0.184-0.248,0.314-0.322
		c0.135-0.069,0.287-0.107,0.455-0.107c0.26,0,0.471,0.086,0.637,0.254c0.166,0.169,0.248,0.382,0.248,0.639
		c0,0.261-0.082,0.479-0.252,0.646c-0.166,0.171-0.377,0.256-0.629,0.256c-0.156,0-0.31-0.035-0.449-0.106
		c-0.141-0.066-0.25-0.176-0.324-0.312C59.821,120.401,59.784,120.232,59.784,120.035z M60.247,120.059
		c0,0.171,0.041,0.303,0.121,0.396c0.08,0.091,0.18,0.136,0.299,0.136c0.117,0,0.217-0.045,0.297-0.136
		c0.08-0.096,0.119-0.229,0.119-0.396s-0.039-0.299-0.119-0.39c-0.08-0.093-0.18-0.141-0.297-0.141
		c-0.119,0-0.219,0.046-0.299,0.141C60.288,119.758,60.247,119.888,60.247,120.059z"/>
</g>
<g>
	<path fill="#FFFFFF" d="M61.876,119.202h0.416v0.229c0.146-0.181,0.328-0.271,0.535-0.271c0.104,0,0.198,0.021,0.28,0.062
		c0.082,0.045,0.146,0.113,0.198,0.204c0.074-0.091,0.154-0.159,0.242-0.204c0.088-0.044,0.18-0.062,0.279-0.062
		c0.125,0,0.229,0.021,0.314,0.073c0.086,0.056,0.15,0.124,0.193,0.229c0.031,0.074,0.049,0.188,0.049,0.354v1.101h-0.455v-0.981
		c0-0.169-0.016-0.279-0.047-0.33c-0.041-0.062-0.104-0.096-0.192-0.096c-0.062,0-0.118,0.021-0.179,0.058
		c-0.057,0.038-0.096,0.101-0.121,0.171c-0.021,0.074-0.037,0.192-0.037,0.354v0.825h-0.447v-0.94c0-0.167-0.014-0.271-0.025-0.322
		c-0.014-0.05-0.041-0.084-0.074-0.104c-0.032-0.023-0.08-0.036-0.139-0.036c-0.068,0-0.131,0.021-0.188,0.058
		c-0.057,0.036-0.096,0.096-0.12,0.162c-0.021,0.071-0.032,0.189-0.032,0.354v0.834h-0.453L61.876,119.202L61.876,119.202z"/>
</g>
<g>
	<path fill="#FFFFFF" d="M38.994,29.523h-1.08v-0.515h-1.168v-0.249h1.168v-0.606h1.08v0.606h1.314v-0.606h1.085v0.606h1.175v0.249
		h-1.175v0.527h-1.085v-0.527h-1.314V29.523z M42.554,33.809h-5.811v-0.212h0.361v-1.669h0.963V32.3
		c0.062-0.26,0.262-0.391,0.601-0.391h2.688c0.326-0.002,0.551,0.043,0.676,0.137c0.125,0.088,0.188,0.252,0.188,0.491v1.061h0.333
		L42.554,33.809L42.554,33.809z M38.012,31.554h-0.918v-1.737h0.918V31.554z M38.509,32.145c-0.245-0.014-0.391,0.093-0.439,0.321
		v1.13h0.471v-1.452L38.509,32.145L38.509,32.145z M39.342,31.727h-0.945v-2.034h0.945v1.806c0.146-0.133,0.383-0.719,0.712-1.757
		h1.023c-0.016,0.041-0.041,0.104-0.078,0.191c-0.043,0.101-0.074,0.178-0.094,0.23h1.476v0.219h-1.558
		c-0.014,0.032-0.03,0.081-0.051,0.146c-0.016,0.039-0.025,0.067-0.031,0.084c-0.146,0.459-0.299,0.731-0.461,0.818
		c-0.154,0.12-0.469,0.159-0.938,0.119V31.727L39.342,31.727z M39.427,32.145v1.452h0.455v-1.452H39.427z M41.253,32.508
		c0.009-0.243-0.151-0.363-0.482-0.363v1.452h0.482V32.508z M40.8,30.677h0.895c0.198,0.514,0.396,0.843,0.586,0.988
		c-0.273,0.01-0.482,0.005-0.623-0.015c-0.149-0.022-0.271-0.065-0.367-0.128C41.117,31.424,40.953,31.143,40.8,30.677z"/>
</g>
<g>
	<path fill="#FFFFFF" d="M43.435,33v-2.582c0.008-0.208-0.076-0.307-0.255-0.297h-0.229v-0.243h0.883
		c0.369-0.01,0.549,0.169,0.539,0.539v2.403v0.024c0.08,0.289,0.207,0.484,0.382,0.585c0.171,0.109,0.452,0.163,0.843,0.161h3.18
		v0.309h-3.262c-0.693,0.021-1.08-0.223-1.161-0.73c-0.032,0.286-0.147,0.48-0.345,0.582c-0.188,0.105-0.531,0.156-1.037,0.154
		C43.289,33.709,43.443,33.408,43.435,33z M43.3,28.142h0.93c0.035,0.603,0.163,1.003,0.386,1.203
		c-0.555,0.008-0.896-0.06-1.027-0.203C43.438,29.034,43.342,28.701,43.3,28.142z M45.678,33.124h-0.894v-4.201h0.894v0.315
		c0.063-0.202,0.239-0.316,0.521-0.342v-0.749h0.9v0.742h0.564c0.346-0.002,0.58,0.051,0.705,0.157
		c0.131,0.097,0.192,0.285,0.188,0.564v2.688c0.004,0.333-0.048,0.551-0.157,0.652c-0.097,0.111-0.309,0.165-0.636,0.161h-1.51
		c-0.337,0.01-0.529-0.125-0.575-0.403V33.124L45.678,33.124z M46.199,29.126c-0.271,0.002-0.445,0.168-0.521,0.497v1.204h0.521
		V29.126z M45.678,32.354c0.065,0.352,0.219,0.521,0.458,0.509h0.062v-1.824h-0.521L45.678,32.354L45.678,32.354z M47.23,29.126
		h-0.131v1.7h0.54v-1.246C47.65,29.268,47.513,29.116,47.23,29.126z M47.272,32.863c0.166,0.004,0.267-0.025,0.304-0.088
		c0.045-0.051,0.066-0.191,0.063-0.421V31.04h-0.54v1.825L47.272,32.863L47.272,32.863z"/>
</g>
<g>
	<path fill="#FFFFFF" d="M49.158,29.795h0.845c0.032,0.275,0.079,0.544,0.141,0.809c0.064,0.271,0.229,0.499,0.48,0.682
		c-0.521-0.024-0.845-0.074-0.986-0.148c-0.166-0.068-0.27-0.22-0.312-0.455C49.283,30.484,49.226,30.188,49.158,29.795z
		 M50.039,33.87h-0.842c0.072-0.653,0.125-1.121,0.159-1.404c0.042-0.386,0.153-0.643,0.331-0.772
		c0.166-0.135,0.482-0.204,0.949-0.206c-0.231,0.178-0.373,0.488-0.42,0.93c-0.033,0.238-0.078,0.598-0.133,1.079
		C50.063,33.662,50.049,33.786,50.039,33.87z M49.257,28.22h0.846c0.007,0.038,0.018,0.095,0.023,0.169
		c0.043,0.289,0.082,0.508,0.119,0.657c0.035,0.273,0.18,0.49,0.434,0.652c-0.455,0.006-0.771-0.038-0.945-0.133
		c-0.18-0.085-0.296-0.26-0.346-0.525c-0.02-0.098-0.048-0.274-0.085-0.527C49.283,28.387,49.267,28.289,49.257,28.22z
		 M50.679,32.75v-3.382H50.47v-0.225h0.683v-0.991h0.929v0.991h0.485c0.067-0.218,0.147-0.553,0.243-1.003h0.912
		c-0.016,0.059-0.037,0.146-0.064,0.26c-0.039,0.16-0.066,0.279-0.089,0.358h1.416v0.225h-1.479
		c-0.047,0.188-0.104,0.374-0.166,0.558h0.818c0.312,0,0.523,0.039,0.637,0.118c0.108,0.077,0.147,0.212,0.104,0.406
		c0.013,0.101-0.214,0.336-0.671,0.706c-0.049,0.042-0.09,0.076-0.113,0.1c0.07,0.16,0.131,0.408,0.163,0.746h0.812v0.221h-0.787
		c0,0.024,0.002,0.05,0.006,0.076c0.011,0.107,0.016,0.307,0.004,0.6c-0.002,0.037-0.004,0.064-0.004,0.082
		c-0.018,0.518-0.086,0.879-0.205,1.085c-0.107,0.206-0.305,0.304-0.575,0.294c-0.356-0.004-0.638-0.238-0.827-0.703
		c0.131,0.081,0.291,0.123,0.479,0.124c0.226,0.067,0.34-0.245,0.354-0.937c0.006-0.202,0.006-0.384,0-0.545
		c0-0.008-0.002-0.021-0.007-0.039c-0.002-0.016-0.004-0.028-0.004-0.037h-0.901v1.303c0.012,0.549-0.174,0.815-0.556,0.797
		c-0.296,0.002-0.521-0.098-0.688-0.3c-0.062,0.131-0.162,0.221-0.301,0.27c-0.138,0.051-0.338,0.068-0.605,0.055
		c0.082-0.118,0.141-0.264,0.166-0.44C50.665,33.364,50.681,33.106,50.679,32.75z M51.827,33.018V30.82
		c0.006-0.274-0.052-0.407-0.16-0.397c-0.08-0.002-0.144,0.11-0.187,0.336v2.042c0.002,0.344-0.021,0.591-0.069,0.742
		c0.066,0.022,0.133,0.034,0.186,0.034c0.095,0.002,0.154-0.037,0.183-0.115C51.812,33.388,51.827,33.24,51.827,33.018z
		 M52.864,30.263h0.807c0.002,0.002,0.004,0.004,0.008,0.008c0.027,0.03,0.058,0.061,0.086,0.091c0.275-0.213,0.41-0.34,0.404-0.385
		c0-0.017,0-0.039,0.004-0.067c0.045-0.095-0.047-0.14-0.279-0.133h-0.646c-0.072,0.14-0.193,0.231-0.367,0.275
		c-0.084,0.024-0.188,0.04-0.315,0.045c-0.123,0.006-0.282,0.005-0.478-0.002c0.166-0.204,0.301-0.447,0.399-0.728h-1v1.03
		c0.054-0.139,0.177-0.207,0.366-0.203h0.205c0.395-0.019,0.576,0.201,0.562,0.657v0.764h0.889
		C53.468,31.106,53.255,30.654,52.864,30.263z"/>
</g>
<g>
	<path fill="#FFFFFF" d="M56.966,28.663h-1.526v-0.255h2.006c0.496-0.017,0.737,0.156,0.728,0.515
		c-0.021,0.313-0.297,1.236-0.836,2.767c0.133,0.374,0.262,0.744,0.394,1.112c0.485-0.278,0.888-0.577,1.194-0.894
		c-0.043-0.475-0.088-1.051-0.135-1.727l-0.818,0.045V30.02l0.8-0.042l-0.274-1.831h0.93l0.203,1.346
		c0.209-0.167,0.397-0.513,0.58-1.037h0.869c-0.082,0.214-0.183,0.443-0.295,0.688c-0.068,0.161-0.188,0.266-0.35,0.312
		c-0.146,0.049-0.416,0.063-0.809,0.042l0.065,0.421l1.498-0.085v0.204l-1.481,0.087c0.012,0.309,0.022,0.597,0.043,0.864
		c0.108-0.129,0.229-0.272,0.354-0.431h1.099c-0.42,0.471-0.869,0.968-1.355,1.491c0.016,0.176,0.037,0.404,0.07,0.682
		c0.027,0.422,0.168,0.627,0.416,0.615c0.285,0.019,0.578-0.309,0.875-0.982c-0.072,1.059-0.469,1.589-1.187,1.591
		c-0.55,0.052-0.862-0.251-0.944-0.912c-0.021-0.101-0.037-0.211-0.058-0.331c-0.312,0.105-0.744,0.14-1.285,0.106l0.071,0.185
		c0.143,0.394,0.312,0.679,0.518,0.857c-0.24,0.026-0.436,0.034-0.568,0.021c-0.141-0.012-0.256-0.045-0.352-0.1
		c-0.164-0.087-0.312-0.328-0.441-0.722c-0.01-0.022-0.021-0.056-0.039-0.103c-0.014-0.031-0.021-0.053-0.024-0.067
		c-0.123,0.309-0.196,0.494-0.228,0.554c-0.113,0.216-0.271,0.358-0.461,0.425c-0.193,0.068-0.479,0.08-0.854,0.033
		c0.239-0.24,0.411-0.488,0.521-0.745c0.16-0.355,0.356-0.855,0.604-1.5c-0.28-0.853-0.562-1.707-0.845-2.564h0.854
		c0.075,0.257,0.198,0.642,0.366,1.154c0.021,0.071,0.039,0.125,0.054,0.161c0.246-0.759,0.371-1.256,0.373-1.488
		C57.288,28.735,57.187,28.648,56.966,28.663z"/>
</g>
<g>
	<path fill="#32626B" d="M51.718,8.637c0.219,1.071,0.344,0.289,0.344,1.583c0,4.256-1.34,7.705-2.99,7.705
		c-1.651,0-2.99-3.45-2.99-7.705c0-1.294,0.125-0.512,0.344-1.583h-1.24c-0.21,1.103-0.326,0.312-0.326,1.583
		c0,5.125,1.887,9.28,4.215,9.28s4.214-4.155,4.214-9.28c0-1.271-0.115-0.48-0.326-1.583H51.718z"/>
</g>
<g>
	<path fill="#0C1E3E" d="M51.054,10.22c0,3.576-0.887,6.477-1.982,6.477c-1.094,0-1.98-2.901-1.98-6.477
		c0-1.325,0.122-0.557,0.331-1.583h-0.998c-0.219,1.071-0.344,0.289-0.344,1.583c0,4.255,1.339,7.705,2.99,7.705
		c1.65,0,2.99-3.449,2.99-7.705c0-1.294-0.125-0.512-0.344-1.583h-0.996C50.931,9.664,51.054,8.896,51.054,10.22z"/>
</g>
<g>
	<path fill="#32626B" d="M49.072,16.697c1.095,0,1.982-2.901,1.982-6.477c0-1.325-0.123-0.557-0.332-1.583h-3.299
		c-0.209,1.026-0.331,0.258-0.331,1.583C47.092,13.796,47.978,16.697,49.072,16.697z"/>
</g>
<linearGradient id="XMLID_9_" gradientUnits="userSpaceOnUse" x1="217.5303" y1="75.2192" x2="235.6797" y2="75.2192" gradientTransform="matrix(0.7071 0.7071 0.7071 -0.7071 -164.372 -31.7174)">
	<stop  offset="0" style="stop-color:#003333"/>
	<stop  offset="0.2978" style="stop-color:#284249"/>
	<stop  offset="0.5506" style="stop-color:#628788"/>
	<stop  offset="0.6742" style="stop-color:#A2D2CD"/>
	<stop  offset="0.9101" style="stop-color:#0D3F49"/>
</linearGradient>
<path fill="url(#XMLID_9_)" d="M55.466,81.744c-3.609,3.607-9.428,3.667-12.964,0.131c-3.538-3.538-3.479-9.355,0.131-12.965
	c3.61-3.61,9.427-3.667,12.963-0.13C59.134,72.317,59.076,78.133,55.466,81.744z"/>
<linearGradient id="XMLID_10_" gradientUnits="userSpaceOnUse" x1="255.9844" y1="23.7427" x2="264.9424" y2="23.7427" gradientTransform="matrix(9.563018e-08 1 1 -7.807048e-08 12.5981 -124.6846)">
	<stop  offset="0" style="stop-color:#081818"/>
	<stop  offset="0.3371" style="stop-color:#17292D"/>
	<stop  offset="0.6742" style="stop-color:#A2D2CD"/>
	<stop  offset="0.8483" style="stop-color:#081818"/>
</linearGradient>
<path fill="url(#XMLID_10_)" d="M36.34,140.257c-2.519,0-4.569-2.01-4.569-4.479c0-2.471,2.051-4.479,4.57-4.479
	c2.52,0.001,4.569,2.011,4.569,4.479S38.861,140.257,36.34,140.257z"/>
<linearGradient id="XMLID_11_" gradientUnits="userSpaceOnUse" x1="255.9844" y1="49.9097" x2="264.9424" y2="49.9097" gradientTransform="matrix(9.563018e-08 1 1 -7.807048e-08 12.5981 -124.6846)">
	<stop  offset="0" style="stop-color:#081818"/>
	<stop  offset="0.3371" style="stop-color:#17292D"/>
	<stop  offset="0.6742" style="stop-color:#A2D2CD"/>
	<stop  offset="0.8483" style="stop-color:#081818"/>
</linearGradient>
<path fill="url(#XMLID_11_)" d="M62.508,140.257c-2.521,0-4.569-2.01-4.569-4.479c0-2.471,2.052-4.479,4.569-4.479
	c2.521,0.001,4.569,2.011,4.569,4.479S65.027,140.257,62.508,140.257z"/>
<linearGradient id="XMLID_12_" gradientUnits="userSpaceOnUse" x1="140.4619" y1="37.1147" x2="151.248" y2="37.1147" gradientTransform="matrix(-9.563018e-08 -1 -1 7.807048e-08 86.2485 163.5234)">
	<stop  offset="0" style="stop-color:#081818"/>
	<stop  offset="0.3371" style="stop-color:#17292D"/>
	<stop  offset="0.6742" style="stop-color:#A2D2CD"/>
	<stop  offset="0.8483" style="stop-color:#081818"/>
</linearGradient>
<path fill="url(#XMLID_12_)" d="M49.134,12.276c3.033,0,5.502,2.42,5.502,5.392c0,2.974-2.469,5.394-5.502,5.394
	c-3.035-0.002-5.502-2.422-5.502-5.393C43.632,14.696,46.099,12.276,49.134,12.276z"/>
<linearGradient id="XMLID_13_" gradientUnits="userSpaceOnUse" x1="143.6826" y1="24.1958" x2="152.6396" y2="24.1958" gradientTransform="matrix(-9.563018e-08 -1 -1 7.807048e-08 86.2485 163.5234)">
	<stop  offset="0" style="stop-color:#081818"/>
	<stop  offset="0.3371" style="stop-color:#17292D"/>
	<stop  offset="0.6742" style="stop-color:#A2D2CD"/>
	<stop  offset="0.8483" style="stop-color:#081818"/>
</linearGradient>
<path fill="url(#XMLID_13_)" d="M62.053,10.884c2.521,0,4.569,2.01,4.569,4.478c0,2.47-2.051,4.479-4.57,4.479
	c-2.52-0.001-4.568-2.011-4.568-4.479C57.482,12.894,59.532,10.884,62.053,10.884z"/>
<linearGradient id="XMLID_14_" gradientUnits="userSpaceOnUse" x1="143.6826" y1="50.3638" x2="152.6396" y2="50.3638" gradientTransform="matrix(-9.563018e-08 -1 -1 7.807048e-08 86.2485 163.5234)">
	<stop  offset="0" style="stop-color:#081818"/>
	<stop  offset="0.3371" style="stop-color:#17292D"/>
	<stop  offset="0.6742" style="stop-color:#A2D2CD"/>
	<stop  offset="0.8483" style="stop-color:#081818"/>
</linearGradient>
<path fill="url(#XMLID_14_)" d="M35.884,10.884c2.52,0,4.57,2.01,4.57,4.478c0,2.47-2.051,4.479-4.57,4.479
	c-2.52-0.001-4.569-2.011-4.569-4.479C31.315,12.894,33.365,10.884,35.884,10.884z"/>
<g>
	<path fill="#FFFFFF" d="M85.583,136.465c0,0.584-0.189,1.127-0.529,1.532c-0.311,0.36-0.711,0.562-1.129,0.562h-69.75
		c-0.915,0-1.659-0.938-1.659-2.099V14.341c0-1.158,0.744-2.099,1.659-2.099h69.75c0.418,0,0.818,0.202,1.129,0.568
		c0.34,0.404,0.529,0.948,0.529,1.531V136.465z M87.312,14.341c0-1.007-0.338-1.959-0.95-2.684
		c-0.642-0.761-1.509-1.181-2.437-1.181h-69.75c-1.868,0-3.388,1.733-3.388,3.864v122.125c0,2.13,1.521,3.864,3.388,3.864h69.75
		c0.928,0,1.795-0.419,2.437-1.185c0.612-0.725,0.95-1.678,0.95-2.685V14.341L87.312,14.341z"/>
</g>
<g>
	<g>
		<path fill="#FFFFFF" d="M49.05,125.138c-4.559,0-8.268,3.785-8.268,8.437l0,0c0,0.187-0.146,0.331-0.324,0.331
			s-0.324-0.146-0.324-0.331l0,0c0-5.018,4.001-9.098,8.917-9.098l0,0c0.179,0,0.323,0.147,0.323,0.33
			C49.375,124.993,49.228,125.138,49.05,125.138L49.05,125.138z"/>
	</g>
</g>
<g>
	<g>
		<path fill="#FFFFFF" d="M49.05,127.985c-3.02,0-5.479,2.507-5.479,5.59l0,0c0,0.187-0.145,0.331-0.326,0.331
			c-0.176,0-0.32-0.146-0.32-0.331l0,0c0-3.443,2.746-6.252,6.125-6.252l0,0c0.179,0,0.324,0.148,0.324,0.331
			C49.375,127.835,49.228,127.985,49.05,127.985L49.05,127.985z"/>
	</g>
</g>
<g>
	<g>
		<path fill="#0C1E3E" d="M52.017,140.656c0-4.257-1.338-7.701-2.99-7.701s-2.99,3.444-2.99,7.701c0,4.26,1.338,0.707,2.99,0.707
			S52.017,144.912,52.017,140.656z"/>
	</g>
</g>
<g>
	<g>
		<path fill="#32626B" d="M51.009,140.656c0-3.573-0.889-6.479-1.982-6.479c-1.093,0-1.98,2.9-1.98,6.479s0.888,1.479,1.98,1.479
			C50.12,142.133,51.009,144.234,51.009,140.656z"/>
	</g>
</g>
<g>
	<g>
		<path fill="#32626B" d="M49.82,140.656c0-2.612-0.354-4.734-0.791-4.734c-0.438,0-0.793,2.122-0.793,4.734
			c0,2.615,0.354,2.736,0.793,2.736C49.467,143.393,49.82,143.272,49.82,140.656z"/>
	</g>
</g>
<g>
	<g>
		<path fill="#FFFFFF" d="M49.037,131.947c-1.867,0.104-3.797,3.734-3.666,9.431l0,0c0.002,0.097-0.072,0.179-0.166,0.18
			c-0.098,0.003-0.176-0.072-0.178-0.171l0,0c-0.141-5.979,1.918-9.673,3.99-9.787l0,0c0.096-0.005,0.178,0.069,0.182,0.166
			C49.205,131.859,49.133,131.943,49.037,131.947L49.037,131.947z"/>
	</g>
</g>
<g>
	<g>
		<path fill="#FFFFFF" d="M49.011,134.812c-0.658,0.065-1.396,2.676-1.396,6.068l0,0c0,0.099-0.076,0.177-0.172,0.177
			c-0.097,0-0.173-0.078-0.173-0.177l0,0c0-3.073,0.64-6.312,1.71-6.42l0,0c0.096-0.006,0.18,0.062,0.188,0.159
			S49.109,134.803,49.011,134.812L49.011,134.812z"/>
	</g>
</g>
<g>
	<path fill="#0C1E3E" d="M84.933,136.465c0,0.426-0.131,0.812-0.371,1.1c-0.184,0.219-0.409,0.34-0.639,0.34H14.175
		c-0.546,0-1.009-0.654-1.009-1.438V14.341c0-0.779,0.463-1.438,1.009-1.438h69.75c0.228,0,0.453,0.121,0.637,0.338
		c0.24,0.284,0.371,0.674,0.371,1.1V136.465L84.933,136.465z M86.229,14.341c0-0.743-0.242-1.439-0.687-1.963
		c-0.438-0.514-1.01-0.798-1.619-0.798h-69.75c-1.272,0-2.308,1.239-2.308,2.762v122.125c0,1.521,1.035,2.76,2.308,2.76h69.75
		c0.609,0,1.185-0.281,1.619-0.797c0.438-0.522,0.687-1.222,0.687-1.963V14.341L86.229,14.341z"/>
</g>
<g>
	<path fill="#0D1334" d="M91.849,14.341c0-4.685-3.555-8.495-7.926-8.495H14.175c-4.371,0-7.927,3.811-7.927,8.495v122.125
		c0,4.685,3.557,8.495,7.927,8.495h69.75c4.369,0,7.924-3.812,7.924-8.495V14.341L91.849,14.341z M86.446,136.465
		c0,1.646-1.135,2.979-2.521,2.979h-69.75c-1.393,0-2.523-1.339-2.523-2.979V14.341c0-1.644,1.131-2.982,2.523-2.982h69.75
		c1.392,0,2.521,1.338,2.521,2.982V136.465L86.446,136.465z"/>
</g>
<g>
	<g>
		<path fill="#FFFFFF" d="M49.05,22.892c3.02,0,5.479-2.507,5.479-5.59l0,0c0-0.183,0.146-0.331,0.321-0.331
			c0.184,0,0.324,0.148,0.324,0.331l0,0c0,3.447-2.746,6.252-6.125,6.252l0,0c-0.182,0-0.326-0.148-0.326-0.331
			C48.723,23.04,48.869,22.892,49.05,22.892L49.05,22.892z"/>
	</g>
</g>
</svg>
