<?xml version="1.0" encoding="utf-8"?>
<!-- Generator: Adobe Illustrator 12.0.0, SVG Export Plug-In . SVG Version: 6.00 Build 51448)  -->
<!DOCTYPE svg PUBLIC "-//W3C//DTD SVG 1.1//EN" "http://www.w3.org/Graphics/SVG/1.1/DTD/svg11.dtd" [
	<!ENTITY ns_flows "http://ns.adobe.com/Flows/1.0/">
	<!ENTITY ns_extend "http://ns.adobe.com/Extensibility/1.0/">
	<!ENTITY ns_ai "http://ns.adobe.com/AdobeIllustrator/10.0/">
	<!ENTITY ns_graphs "http://ns.adobe.com/Graphs/1.0/">
	<!ENTITY ns_vars "http://ns.adobe.com/Variables/1.0/">
	<!ENTITY ns_imrep "http://ns.adobe.com/ImageReplacement/1.0/">
	<!ENTITY ns_sfw "http://ns.adobe.com/SaveForWeb/1.0/">
	<!ENTITY ns_custom "http://ns.adobe.com/GenericCustomNamespace/1.0/">
	<!ENTITY ns_adobe_xpath "http://ns.adobe.com/XPath/1.0/">
	<!ENTITY ns_svg "http://www.w3.org/2000/svg">
	<!ENTITY ns_xlink "http://www.w3.org/1999/xlink">
]>
<svg  version="1.1"
	 xmlns:x="&ns_extend;" xmlns:i="&ns_ai;" xmlns:graph="&ns_graphs;" i:viewOrigin="89.8618 287.6411" i:rulerOrigin="-89 -137.1973" i:pageBounds="89 287.1973 189 137.1973"
	 xmlns="&ns_svg;" xmlns:xlink="&ns_xlink;" xmlns:a="http://ns.adobe.com/AdobeSVGViewerExtensions/3.0/"
	 width="98.099" height="150.088" viewBox="0 0 98.099 150.088" overflow="visible" enable-background="new 0 0 98.099 150.088"
	 xml:space="preserve">
<metadata>
	<variableSets  xmlns="http://ns.adobe.com/Variables/1.0/">
		<variableSet  locked="none" varSetName="binding1">
			<variables></variables>
			<v:sampleDataSets  xmlns:v="http://ns.adobe.com/Variables/1.0/" xmlns="http://ns.adobe.com/GenericCustomNamespace/1.0/">
				</v:sampleDataSets>
		</variableSet>
	</variableSets>
</metadata>
<g id="图层_1" i:knockout="Off" i:layer="yes" i:dimmedPercent="50" i:rgbTrio="#4F008000FFFF">
	<g i:knockout="Off">
		<path fill="#F7F7F7" stroke="#060506" stroke-width="0.0882" d="M98.054,143.264c0,3.743-3.015,6.78-6.727,6.78L6.77,150.043
			c-3.715,0-6.726-3.035-6.726-6.779V6.826c0-3.745,3.011-6.782,6.726-6.782h84.559c3.712,0,6.727,3.036,6.727,6.782L98.054,143.264
			L98.054,143.264z"/>
		<g i:knockout="Off">
			<path fill="#060506" d="M8.397,8.955c0,0-3.293,12.678-3.36,12.937c-0.195,0-0.947,0-0.947,0v1.41h3.366v-1.41
				c0,0-0.638,0-0.897,0c0.089-0.36,0.632-2.563,0.688-2.792c0.248,0,3.45,0,3.698,0c0.058,0.229,0.604,2.432,0.691,2.792
				c-0.264,0-0.901,0-0.901,0v1.41h3.37v-1.41c0,0-0.756,0-0.954,0c-0.068-0.259-3.36-12.937-3.36-12.937H8.397z M9.096,11.749
				c0.267,1.077,1.381,5.572,1.472,5.939c-0.365,0-2.579,0-2.944,0C7.714,17.321,8.827,12.826,9.096,11.749z"/>
		</g>
		<g i:knockout="Off">
			<path fill="#060506" d="M90.646,126.62v1.412c0,0,0.641,0,0.9,0c-0.09,0.36-0.634,2.562-0.688,2.791c-0.248,0-3.45,0-3.696,0
				c-0.058-0.229-0.603-2.431-0.689-2.791c0.262,0,0.899,0,0.899,0v-1.412h-3.368v1.412c0,0,0.756,0,0.951,0
				c0.065,0.259,3.358,12.936,3.358,12.936h1.394c0,0,3.292-12.677,3.357-12.936c0.197,0,0.951,0,0.951,0v-1.412H90.646
				L90.646,126.62z M90.479,132.231c-0.091,0.367-1.205,4.863-1.472,5.94c-0.27-1.077-1.381-5.573-1.473-5.94
				C87.901,132.231,90.114,132.231,90.479,132.231z"/>
		</g>
		<path fill="#060506" d="M11.693,31.707c-0.808,0-1.802,1.027-2.344,1.669c0-0.265,1.813-1.954,1.813-2.864
			c0-1.167-0.927-2.113-2.067-2.113c-1.146,0-2.071,0.946-2.071,2.113c0,0.91,1.816,2.6,1.815,2.864
			c-0.542-0.639-1.536-1.669-2.347-1.669c-1.171,0-2.122,0.969-2.122,2.167c0,1.195,0.951,2.166,2.122,2.166
			c0.808,0,1.788-1.014,2.332-1.653c-0.014,0.671-0.043,1.289-0.104,1.487c-0.23,0.747-0.252,0.675-0.754,1.612h2.259
			C9.72,36.551,9.7,36.621,9.47,35.874c-0.062-0.198-0.093-0.816-0.107-1.487c0.544,0.64,1.529,1.653,2.333,1.653
			c1.17,0,2.121-0.971,2.121-2.166C13.816,32.676,12.865,31.707,11.693,31.707z"/>
		<path fill="#060506" d="M86.411,119.867c0.809,0,1.804-1.025,2.345-1.667c0,0.267-1.815,1.95-1.815,2.861
			c0,1.169,0.926,2.116,2.07,2.116c1.144,0,2.07-0.947,2.07-2.116c-0.002-0.911-1.815-2.598-1.813-2.861
			c0.541,0.642,1.534,1.667,2.344,1.667c1.173,0,2.124-0.969,2.124-2.166c-0.002-1.194-0.949-2.167-2.124-2.167
			c-0.805,0-1.788,1.017-2.333,1.653c0.019-0.67,0.046-1.29,0.106-1.485c0.229-0.748,0.253-0.68,0.755-1.615H87.88
			c0.506,0.938,0.523,0.867,0.757,1.615c0.062,0.195,0.092,0.815,0.105,1.483c-0.546-0.638-1.526-1.651-2.336-1.651
			c-1.169,0-2.12,0.973-2.12,2.167C84.286,118.899,85.236,119.867,86.411,119.867z"/>
		<path fill="#060506" d="M55.144,71.938c-1.896,0-4.224,2.583-5.493,4.197c0-0.668,4.25-4.913,4.25-7.208
			c0-2.938-2.172-5.319-4.85-5.319c-2.682,0-4.855,2.38-4.855,5.319c0.003,2.295,4.258,6.54,4.256,7.208
			c-1.27-1.608-3.601-4.197-5.498-4.197c-2.745,0-4.976,2.437-4.976,5.454c0.004,3.007,2.229,5.451,4.976,5.451
			c1.89,0,4.193-2.556,5.466-4.164c-0.03,1.687-0.104,3.246-0.244,3.744c-0.544,1.879-0.596,1.706-1.771,4.06h5.296
			c-1.188-2.353-1.232-2.181-1.772-4.06c-0.146-0.498-0.216-2.061-0.248-3.738c1.273,1.604,3.579,4.158,5.465,4.158
			c2.742,0,4.974-2.444,4.974-5.452C60.118,74.373,57.89,71.938,55.144,71.938z"/>
	</g>
</g>
</svg>
