<?xml version="1.0" encoding="utf-8"?>
<!-- Generator: Adobe Illustrator 12.0.0, SVG Export Plug-In . SVG Version: 6.00 Build 51448)  -->
<!DOCTYPE svg PUBLIC "-//W3C//DTD SVG 1.1//EN" "http://www.w3.org/Graphics/SVG/1.1/DTD/svg11.dtd" [
	<!ENTITY ns_flows "http://ns.adobe.com/Flows/1.0/">
	<!ENTITY ns_extend "http://ns.adobe.com/Extensibility/1.0/">
	<!ENTITY ns_ai "http://ns.adobe.com/AdobeIllustrator/10.0/">
	<!ENTITY ns_graphs "http://ns.adobe.com/Graphs/1.0/">
	<!ENTITY ns_vars "http://ns.adobe.com/Variables/1.0/">
	<!ENTITY ns_imrep "http://ns.adobe.com/ImageReplacement/1.0/">
	<!ENTITY ns_sfw "http://ns.adobe.com/SaveForWeb/1.0/">
	<!ENTITY ns_custom "http://ns.adobe.com/GenericCustomNamespace/1.0/">
	<!ENTITY ns_adobe_xpath "http://ns.adobe.com/XPath/1.0/">
	<!ENTITY ns_svg "http://www.w3.org/2000/svg">
	<!ENTITY ns_xlink "http://www.w3.org/1999/xlink">
]>
<svg  version="1.1"
	 xmlns:x="&ns_extend;" xmlns:i="&ns_ai;" xmlns:graph="&ns_graphs;" i:viewOrigin="0.8599 150.4429" i:rulerOrigin="0 0" i:pageBounds="0 150 100 0"
	 xmlns="&ns_svg;" xmlns:xlink="&ns_xlink;" xmlns:a="http://ns.adobe.com/AdobeSVGViewerExtensions/3.0/"
	 width="98.1" height="150.085" viewBox="0 0 98.1 150.085" overflow="visible" enable-background="new 0 0 98.1 150.085"
	 xml:space="preserve">
<metadata>
	<variableSets  xmlns="http://ns.adobe.com/Variables/1.0/">
		<variableSet  locked="none" varSetName="binding1">
			<variables></variables>
			<v:sampleDataSets  xmlns:v="http://ns.adobe.com/Variables/1.0/" xmlns="http://ns.adobe.com/GenericCustomNamespace/1.0/">
				</v:sampleDataSets>
		</variableSet>
	</variableSets>
</metadata>
<g id="图层_1" i:knockout="Off" i:layer="yes" i:dimmedPercent="50" i:rgbTrio="#4F008000FFFF">
	<g i:knockout="Off">
		<path fill="#F7F7F7" stroke="#060506" stroke-width="0.0882" d="M98.056,143.263c0,3.745-3.014,6.778-6.726,6.778H6.771
			c-3.714,0-6.727-3.033-6.727-6.778V6.824c0-3.745,3.012-6.78,6.726-6.78h84.561c3.712,0,6.726,3.035,6.726,6.78V143.263
			L98.056,143.263z"/>
		<g i:knockout="Off">
			<path fill="#060506" d="M6.384,10.178L6.384,10.178c-0.669,0.778-1.027,1.927-1.062,3.415l-0.005,0.18h1.589v-0.177
				c0-1.076,0.195-1.878,0.583-2.383c0.402-0.521,1.023-0.783,1.85-0.783c0.75,0,1.328,0.207,1.72,0.617
				c0.373,0.385,0.554,0.921,0.554,1.641c0,0.437-0.034,0.786-0.103,1.041c-0.082,0.322-0.232,0.629-0.447,0.913
				c-0.219,0.298-0.565,0.646-1.03,1.037c-0.435,0.37-1.058,0.846-1.854,1.415c-1.111,0.768-1.92,1.537-2.4,2.284
				c-0.517,0.783-0.778,1.702-0.778,2.728c0,0.007,0.023,0.57,0.023,0.57h8.077v-2.902H11.71c0,0,0,1.215,0,1.49
				c-0.314,0-4.685,0-5.081,0c0.08-0.537,0.292-1.044,0.698-1.536c0.403-0.479,1.042-1.014,1.899-1.584
				c1.582-1.086,2.607-1.968,3.136-2.699c0.554-0.736,0.836-1.672,0.836-2.776c0-1.106-0.331-1.998-0.982-2.65
				C11.54,9.314,10.589,8.956,9.39,8.956C8.098,8.953,7.087,9.366,6.384,10.178z"/>
		</g>
		<g i:knockout="Off">
			<path fill="#060506" d="M85.007,126.62v2.899h1.391c0,0,0-1.214,0-1.488c0.315,0,4.686,0,5.081,0
				c-0.081,0.534-0.299,1.053-0.698,1.533c-0.399,0.479-1.041,1.014-1.896,1.586c-1.585,1.085-2.609,1.968-3.136,2.698
				c-0.556,0.731-0.839,1.669-0.839,2.774l0,0c0,1.106,0.331,1.998,0.983,2.649c0.678,0.705,1.63,1.062,2.827,1.062
				c1.287,0,2.298-0.41,3-1.225c0.669-0.779,1.027-1.93,1.062-3.416l0.007-0.181h-1.592v0.176c0,1.077-0.193,1.882-0.582,2.387
				c-0.4,0.521-1.022,0.781-1.853,0.781c-0.746,0-1.324-0.209-1.716-0.619c-0.368-0.379-0.557-0.931-0.557-1.642
				c0-0.436,0.035-0.783,0.104-1.037c0.083-0.318,0.231-0.625,0.448-0.911c0.225-0.305,0.567-0.653,1.029-1.04
				c0.44-0.375,1.063-0.85,1.854-1.412c1.106-0.767,1.916-1.536,2.403-2.287c0.516-0.782,0.775-1.699,0.775-2.726
				c0-0.008-0.024-0.568-0.024-0.568h-8.076L85.007,126.62L85.007,126.62z"/>
		</g>
		<path fill="#060506" d="M11.697,31.71c-0.81,0-1.804,1.027-2.347,1.667c0-0.264,1.814-1.952,1.814-2.862
			c0-1.167-0.927-2.115-2.068-2.115c-1.145,0-2.072,0.948-2.072,2.115c0.002,0.91,1.816,2.599,1.816,2.862
			c-0.541-0.64-1.535-1.667-2.345-1.667c-1.172,0-2.124,0.968-2.124,2.167c0.001,1.194,0.952,2.166,2.124,2.166
			c0.806,0,1.788-1.016,2.331-1.653c-0.013,0.671-0.042,1.29-0.104,1.487c-0.231,0.749-0.254,0.679-0.754,1.612h2.258
			c-0.506-0.935-0.525-0.864-0.758-1.612c-0.062-0.198-0.093-0.816-0.105-1.486c0.544,0.637,1.527,1.651,2.333,1.651
			c1.169,0,2.122-0.972,2.122-2.166C13.819,32.676,12.867,31.71,11.697,31.71z"/>
		<path fill="#060506" d="M86.412,119.866c0.809,0,1.803-1.023,2.343-1.668c0,0.267-1.813,1.951-1.813,2.862
			c0,1.168,0.93,2.114,2.069,2.114c1.145,0,2.071-0.946,2.071-2.114c-0.001-0.911-1.813-2.601-1.813-2.862
			c0.542,0.639,1.534,1.668,2.344,1.668c1.174,0,2.124-0.971,2.124-2.168c-0.001-1.194-0.947-2.164-2.124-2.164
			c-0.803,0-1.789,1.016-2.333,1.651c0.016-0.669,0.047-1.288,0.105-1.485c0.229-0.747,0.253-0.677,0.757-1.612H87.88
			c0.506,0.937,0.524,0.865,0.758,1.612c0.062,0.197,0.091,0.815,0.104,1.485c-0.544-0.641-1.526-1.651-2.333-1.651
			c-1.171,0-2.12,0.97-2.12,2.164C84.288,118.896,85.239,119.866,86.412,119.866z"/>
		<path fill="#060506" d="M55.146,23.661c-1.894,0-4.223,2.583-5.491,4.193c0-0.663,4.249-4.911,4.249-7.203
			c0-2.938-2.17-5.319-4.85-5.319c-2.681,0-4.853,2.382-4.853,5.319c0.003,2.292,4.257,6.541,4.256,7.203
			c-1.271-1.608-3.602-4.193-5.498-4.193c-2.746,0-4.977,2.438-4.977,5.454c0.005,3.005,2.229,5.45,4.977,5.45
			c1.888,0,4.193-2.555,5.467-4.165c-0.031,1.688-0.104,3.248-0.247,3.746c-0.541,1.881-0.592,1.708-1.771,4.062h5.294
			c-1.186-2.354-1.229-2.181-1.772-4.062c-0.146-0.498-0.216-2.057-0.247-3.741c1.273,1.604,3.576,4.159,5.465,4.159
			c2.742,0,4.976-2.445,4.976-5.45C60.122,26.1,57.892,23.661,55.146,23.661z"/>
		<path fill="#060506" d="M42.959,126.36c1.896,0,4.226-2.583,5.491-4.193c0,0.662-4.249,4.91-4.249,7.206
			c0,2.938,2.168,5.315,4.849,5.315c2.68,0,4.853-2.381,4.853-5.315c-0.001-2.296-4.256-6.544-4.251-7.206
			c1.269,1.606,3.601,4.193,5.495,4.193c2.747,0,4.979-2.438,4.979-5.449c-0.008-3.009-2.229-5.452-4.979-5.452
			c-1.887,0-4.189,2.556-5.463,4.161c0.03-1.688,0.103-3.247,0.245-3.743c0.542-1.883,0.594-1.708,1.771-4.062h-5.294
			c1.187,2.354,1.231,2.179,1.772,4.062c0.146,0.496,0.219,2.057,0.25,3.741c-1.276-1.604-3.581-4.159-5.468-4.159
			c-2.74,0-4.972,2.443-4.972,5.452C37.984,123.921,40.215,126.36,42.959,126.36z"/>
	</g>
</g>
</svg>
