<?xml version="1.0" encoding="utf-8"?>
<!-- Generator: Adobe Illustrator 12.0.0, SVG Export Plug-In . SVG Version: 6.00 Build 51448)  -->
<!DOCTYPE svg PUBLIC "-//W3C//DTD SVG 1.1//EN" "http://www.w3.org/Graphics/SVG/1.1/DTD/svg11.dtd" [
	<!ENTITY ns_flows "http://ns.adobe.com/Flows/1.0/">
	<!ENTITY ns_extend "http://ns.adobe.com/Extensibility/1.0/">
	<!ENTITY ns_ai "http://ns.adobe.com/AdobeIllustrator/10.0/">
	<!ENTITY ns_graphs "http://ns.adobe.com/Graphs/1.0/">
	<!ENTITY ns_vars "http://ns.adobe.com/Variables/1.0/">
	<!ENTITY ns_imrep "http://ns.adobe.com/ImageReplacement/1.0/">
	<!ENTITY ns_sfw "http://ns.adobe.com/SaveForWeb/1.0/">
	<!ENTITY ns_custom "http://ns.adobe.com/GenericCustomNamespace/1.0/">
	<!ENTITY ns_adobe_xpath "http://ns.adobe.com/XPath/1.0/">
	<!ENTITY ns_svg "http://www.w3.org/2000/svg">
	<!ENTITY ns_xlink "http://www.w3.org/1999/xlink">
]>
<svg  version="1.1"
	 xmlns:x="&ns_extend;" xmlns:i="&ns_ai;" xmlns:graph="&ns_graphs;" i:viewOrigin="89.8623 287.6411" i:rulerOrigin="-89 -137.1973" i:pageBounds="89 287.1973 189 137.1973"
	 xmlns="&ns_svg;" xmlns:xlink="&ns_xlink;" xmlns:a="http://ns.adobe.com/AdobeSVGViewerExtensions/3.0/"
	 width="98.099" height="150.087" viewBox="0 0 98.099 150.087" overflow="visible" enable-background="new 0 0 98.099 150.087"
	 xml:space="preserve">
<metadata>
	<variableSets  xmlns="http://ns.adobe.com/Variables/1.0/">
		<variableSet  locked="none" varSetName="binding1">
			<variables></variables>
			<v:sampleDataSets  xmlns:v="http://ns.adobe.com/Variables/1.0/" xmlns="http://ns.adobe.com/GenericCustomNamespace/1.0/">
				</v:sampleDataSets>
		</variableSet>
	</variableSets>
</metadata>
<g id="图层_1" i:knockout="Off" i:layer="yes" i:dimmedPercent="50" i:rgbTrio="#4F008000FFFF">
	<g i:knockout="Off">
		<path fill="#F7F7F7" stroke="#060506" stroke-width="0.0882" d="M98.054,143.263c0,3.743-3.015,6.78-6.727,6.78H6.77
			c-3.715,0-6.726-3.036-6.726-6.78V6.826c0-3.745,3.01-6.782,6.726-6.782h84.559c3.712,0,6.727,3.036,6.727,6.782L98.054,143.263
			L98.054,143.263z"/>
		<path fill="#060506" d="M11.694,31.708c-0.81,0-1.803,1.027-2.345,1.667c0-0.262,1.815-1.95,1.815-2.861
			c0-1.167-0.926-2.114-2.07-2.114s-2.072,0.948-2.072,2.114c0.002,0.911,1.818,2.6,1.817,2.861
			c-0.543-0.636-1.536-1.667-2.346-1.667c-1.171,0-2.124,0.969-2.124,2.167c0.002,1.196,0.953,2.165,2.124,2.165
			c0.805,0,1.788-1.011,2.333-1.654c-0.014,0.67-0.044,1.289-0.106,1.489c-0.232,0.746-0.252,0.676-0.754,1.61h2.259
			c-0.505-0.933-0.524-0.864-0.757-1.61c-0.063-0.2-0.091-0.818-0.106-1.489c0.544,0.642,1.528,1.654,2.334,1.654
			c1.169,0,2.121-0.969,2.121-2.165C13.816,32.677,12.865,31.708,11.694,31.708z"/>
		<path fill="#060506" d="M86.409,119.865c0.808,0,1.804-1.025,2.344-1.665c0,0.265-1.815,1.951-1.815,2.864
			c0,1.166,0.929,2.113,2.07,2.113c1.145,0,2.071-0.948,2.071-2.113c-0.002-0.913-1.815-2.601-1.815-2.864
			c0.543,0.64,1.536,1.665,2.345,1.665c1.176,0,2.124-0.968,2.124-2.165c-0.001-1.194-0.949-2.166-2.124-2.166
			c-0.804,0-1.788,1.015-2.332,1.653c0.016-0.669,0.045-1.291,0.105-1.486c0.23-0.748,0.253-0.679,0.756-1.615h-2.26
			c0.507,0.938,0.524,0.867,0.757,1.615c0.062,0.195,0.091,0.817,0.105,1.484c-0.545-0.638-1.526-1.651-2.334-1.651
			c-1.17,0-2.12,0.972-2.12,2.166C84.285,118.897,85.235,119.865,86.409,119.865z"/>
		<g i:knockout="Off">
			<path fill="#060506" d="M5.681,8.955v2.521h1.392c0,0,0-0.89,0-1.142c0.291,0,2.958,0,3.592,0
				c-0.484,0.515-3.854,4.093-3.854,4.093l0.81,0.964l0.202-0.188C7.958,15.084,8.354,14.8,9.028,14.8
				c0.799,0,1.408,0.276,1.862,0.845c0.445,0.562,0.671,1.377,0.671,2.421c0,0.998-0.228,1.788-0.676,2.348
				c-0.428,0.562-1.035,0.846-1.806,0.846c-0.715,0-1.292-0.232-1.761-0.71c-0.487-0.492-0.734-1.117-0.756-1.913l-0.005-0.171
				H4.999l0.008,0.184c0.055,1.201,0.46,2.176,1.206,2.896c0.735,0.726,1.68,1.094,2.808,1.094c1.262,0,2.283-0.428,3.034-1.272
				c0.744-0.825,1.122-1.955,1.122-3.356c0-1.389-0.358-2.512-1.065-3.337c-0.621-0.726-1.458-1.121-2.472-1.214
				c0.419-0.441,2.94-3.094,2.94-3.094V8.954L5.681,8.955L5.681,8.955z"/>
		</g>
		<g i:knockout="Off">
			<path fill="#060506" d="M86.045,127.89c-0.745,0.827-1.123,1.957-1.123,3.354c0,1.39,0.357,2.514,1.063,3.34
				c0.622,0.727,1.46,1.12,2.474,1.213c-0.418,0.44-2.94,3.096-2.94,3.096v1.412h6.9v-2.522h-1.392c0,0,0,0.89,0,1.142
				c-0.291,0-2.96,0-3.594,0c0.484-0.515,3.855-4.092,3.855-4.092l-0.812-0.968l-0.201,0.192c-0.133,0.117-0.524,0.402-1.201,0.402
				c-0.799,0-1.407-0.275-1.862-0.846c-0.444-0.561-0.67-1.376-0.67-2.425c0-0.998,0.227-1.788,0.675-2.347
				c0.434-0.57,1.022-0.848,1.806-0.848c0.705,0,1.298,0.239,1.762,0.711c0.479,0.485,0.732,1.129,0.757,1.911l0.005,0.171h1.557
				l-0.008-0.185c-0.053-1.194-0.459-2.167-1.206-2.893c-0.735-0.727-1.681-1.095-2.808-1.095
				C87.814,126.619,86.794,127.046,86.045,127.89z"/>
		</g>
		<path fill="#060506" d="M55.144,23.664c-1.896,0-4.225,2.584-5.492,4.193c0-0.667,4.25-4.911,4.25-7.205
			c0-2.936-2.171-5.32-4.85-5.32c-2.679,0-4.854,2.384-4.854,5.32c0.002,2.294,4.257,6.538,4.255,7.205
			c-1.271-1.608-3.601-4.193-5.496-4.193c-2.747,0-4.976,2.436-4.976,5.449c0.005,3.008,2.229,5.451,4.976,5.451
			c1.886,0,4.192-2.55,5.464-4.16c-0.03,1.686-0.103,3.246-0.246,3.744c-0.541,1.879-0.592,1.705-1.77,4.059h5.294
			c-1.187-2.35-1.23-2.18-1.773-4.059c-0.145-0.498-0.215-2.058-0.248-3.739c1.276,1.604,3.579,4.155,5.468,4.155
			c2.742,0,4.971-2.443,4.971-5.451C60.116,26.1,57.89,23.664,55.144,23.664z"/>
		<path fill="#060506" d="M42.957,126.36c1.894,0,4.221-2.583,5.493-4.196c0,0.668-4.251,4.914-4.251,7.208
			c0,2.938,2.17,5.319,4.851,5.319c2.679,0,4.852-2.383,4.852-5.319c-0.002-2.294-4.257-6.54-4.255-7.208
			c1.271,1.609,3.601,4.196,5.496,4.196c2.746,0,4.976-2.437,4.976-5.452c-0.005-3.008-2.229-5.45-4.976-5.45
			c-1.888,0-4.192,2.555-5.465,4.161c0.029-1.687,0.103-3.245,0.246-3.743c0.542-1.882,0.591-1.707,1.771-4.061h-5.297
			c1.187,2.354,1.23,2.179,1.773,4.061c0.146,0.498,0.216,2.058,0.249,3.741c-1.275-1.604-3.579-4.159-5.465-4.159
			c-2.743,0-4.972,2.442-4.972,5.451C37.982,123.923,40.211,126.36,42.957,126.36z"/>
		<path fill="#060506" d="M55.144,71.937c-1.896,0-4.223,2.583-5.492,4.198c0-0.668,4.25-4.913,4.25-7.208
			c0-2.939-2.171-5.32-4.85-5.32c-2.679,0-4.854,2.38-4.854,5.32c0.002,2.295,4.257,6.54,4.256,7.208
			c-1.27-1.609-3.602-4.198-5.497-4.198c-2.747,0-4.976,2.437-4.976,5.454c0.005,3.007,2.229,5.451,4.976,5.451
			c1.886,0,4.192-2.555,5.464-4.164c-0.03,1.686-0.103,3.246-0.246,3.744c-0.541,1.879-0.592,1.706-1.77,4.06h5.294
			c-1.187-2.353-1.23-2.181-1.772-4.06c-0.146-0.498-0.217-2.06-0.248-3.738c1.275,1.604,3.579,4.158,5.466,4.158
			c2.742,0,4.974-2.444,4.974-5.452C60.119,74.373,57.89,71.937,55.144,71.937z"/>
	</g>
</g>
</svg>
