<?xml version="1.0" encoding="utf-8"?>
<!-- Generator: Adobe Illustrator 12.0.0, SVG Export Plug-In . SVG Version: 6.00 Build 51448)  -->
<!DOCTYPE svg PUBLIC "-//W3C//DTD SVG 1.1//EN" "http://www.w3.org/Graphics/SVG/1.1/DTD/svg11.dtd" [
	<!ENTITY ns_flows "http://ns.adobe.com/Flows/1.0/">
	<!ENTITY ns_extend "http://ns.adobe.com/Extensibility/1.0/">
	<!ENTITY ns_ai "http://ns.adobe.com/AdobeIllustrator/10.0/">
	<!ENTITY ns_graphs "http://ns.adobe.com/Graphs/1.0/">
	<!ENTITY ns_vars "http://ns.adobe.com/Variables/1.0/">
	<!ENTITY ns_imrep "http://ns.adobe.com/ImageReplacement/1.0/">
	<!ENTITY ns_sfw "http://ns.adobe.com/SaveForWeb/1.0/">
	<!ENTITY ns_custom "http://ns.adobe.com/GenericCustomNamespace/1.0/">
	<!ENTITY ns_adobe_xpath "http://ns.adobe.com/XPath/1.0/">
	<!ENTITY ns_svg "http://www.w3.org/2000/svg">
	<!ENTITY ns_xlink "http://www.w3.org/1999/xlink">
]>
<svg  version="1.1"
	 xmlns:x="&ns_extend;" xmlns:i="&ns_ai;" xmlns:graph="&ns_graphs;" i:viewOrigin="89.8618 287.6411" i:rulerOrigin="-89 -137.1973" i:pageBounds="89 287.1973 189 137.1973"
	 xmlns="&ns_svg;" xmlns:xlink="&ns_xlink;" xmlns:a="http://ns.adobe.com/AdobeSVGViewerExtensions/3.0/"
	 width="98.097" height="150.087" viewBox="0 0 98.097 150.087" overflow="visible" enable-background="new 0 0 98.097 150.087"
	 xml:space="preserve">
<metadata>
	<variableSets  xmlns="http://ns.adobe.com/Variables/1.0/">
		<variableSet  locked="none" varSetName="binding1">
			<variables></variables>
			<v:sampleDataSets  xmlns:v="http://ns.adobe.com/Variables/1.0/" xmlns="http://ns.adobe.com/GenericCustomNamespace/1.0/">
				</v:sampleDataSets>
		</variableSet>
	</variableSets>
</metadata>
<g id="图层_1" i:knockout="Off" i:layer="yes" i:dimmedPercent="50" i:rgbTrio="#4F008000FFFF">
	<g i:knockout="Off">
		<path fill="#F7F7F7" stroke="#060506" stroke-width="0.0882" d="M98.053,143.263c0,3.743-3.015,6.78-6.726,6.78H6.769
			c-3.714,0-6.725-3.036-6.725-6.78V6.826c0-3.745,3.011-6.782,6.725-6.782h84.56c3.711,0,6.725,3.036,6.725,6.782V143.263
			L98.053,143.263z"/>
		<path fill="#060506" d="M11.692,31.709c-0.808,0-1.802,1.028-2.345,1.667c0-0.265,1.815-1.953,1.815-2.864
			c0-1.166-0.925-2.114-2.07-2.114c-1.143,0-2.071,0.948-2.071,2.114c0,0.912,1.818,2.6,1.814,2.864
			c-0.54-0.639-1.535-1.667-2.344-1.667c-1.172,0-2.124,0.967-2.124,2.165c0,1.196,0.951,2.167,2.124,2.167
			c0.806,0,1.79-1.015,2.331-1.653c-0.012,0.67-0.043,1.29-0.104,1.488c-0.231,0.748-0.253,0.678-0.755,1.614h2.259
			c-0.506-0.936-0.525-0.866-0.756-1.614c-0.063-0.198-0.092-0.818-0.108-1.486c0.545,0.637,1.528,1.652,2.334,1.652
			c1.169,0,2.121-0.97,2.121-2.167C13.815,32.676,12.864,31.709,11.692,31.709z"/>
		<path fill="#060506" d="M86.406,119.867c0.811,0,1.805-1.026,2.346-1.669c0,0.266-1.815,1.953-1.815,2.863
			c0,1.168,0.928,2.115,2.07,2.115c1.145,0,2.07-0.948,2.07-2.115c0-0.91-1.814-2.599-1.813-2.863
			c0.541,0.641,1.533,1.669,2.343,1.669c1.174,0,2.125-0.971,2.125-2.168c-0.003-1.195-0.951-2.166-2.125-2.166
			c-0.803,0-1.788,1.014-2.331,1.652c0.015-0.668,0.045-1.288,0.106-1.486c0.229-0.746,0.251-0.677,0.754-1.612h-2.258
			c0.505,0.937,0.523,0.866,0.757,1.612c0.061,0.198,0.091,0.818,0.104,1.486c-0.544-0.64-1.526-1.652-2.333-1.652
			c-1.169,0-2.122,0.971-2.122,2.166C84.282,118.896,85.236,119.867,86.406,119.867z"/>
		<g i:knockout="Off">
			<path fill="#060506" d="M10.221,8.955l-5.593,8.76v1.22c0,0,5.278,0,5.609,0c0,0.274,0,1.624,0,1.898c-0.229,0-0.912,0-0.912,0
				v1.41h3.369v-1.41c0,0-0.646,0-0.87,0c0-0.274,0-1.625,0-1.898c0.285,0,1.731,0,1.731,0V17.59c0,0-1.446,0-1.731,0
				c0-0.338,0-8.636,0-8.636L10.221,8.955L10.221,8.955z M10.237,11.327c0,0.986,0,5.957,0,6.263c-0.301,0-3.447,0-3.977,0
				C6.555,17.127,9.701,12.172,10.237,11.327z"/>
		</g>
		<g i:knockout="Off">
			<path fill="#060506" d="M85.404,126.619v1.413c0,0,0.646,0,0.87,0c0,0.274,0,1.624,0,1.898c-0.284,0-1.73,0-1.73,0v1.347
				c0,0,1.446,0,1.73,0c0,0.339,0,8.631,0,8.631h1.604l5.592-8.756v-1.222c0,0-5.278,0-5.609,0c0-0.274,0-1.624,0-1.898
				c0.229,0,0.912,0,0.912,0v-1.413H85.404z M91.838,131.277c-0.294,0.463-3.442,5.418-3.979,6.263c0-0.985,0-5.957,0-6.263
				C88.161,131.277,91.309,131.277,91.838,131.277z"/>
		</g>
		<path fill="#060506" d="M36.789,23.662c-1.896,0-4.224,2.583-5.492,4.193c0-0.663,4.25-4.911,4.25-7.203
			c0-2.938-2.169-5.32-4.849-5.32c-2.679,0-4.851,2.382-4.851,5.32c0,2.292,4.254,6.541,4.251,7.203
			c-1.269-1.607-3.599-4.193-5.495-4.193c-2.746,0-4.976,2.438-4.976,5.455c0.005,3.004,2.229,5.45,4.976,5.45
			c1.887,0,4.192-2.555,5.464-4.165c-0.029,1.689-0.101,3.248-0.244,3.746c-0.543,1.881-0.594,1.708-1.771,4.061h5.296
			c-1.187-2.353-1.232-2.18-1.773-4.061c-0.146-0.498-0.219-2.057-0.25-3.74c1.276,1.604,3.581,4.159,5.468,4.159
			c2.741,0,4.97-2.445,4.97-5.45C41.763,26.1,39.534,23.662,36.789,23.662z"/>
		<path fill="#060506" d="M24.601,126.36c1.895,0,4.224-2.583,5.493-4.194c0,0.662-4.249,4.91-4.249,7.206
			c0,2.937,2.169,5.316,4.848,5.316c2.68,0,4.852-2.381,4.852-5.316c-0.001-2.296-4.256-6.544-4.255-7.206
			c1.271,1.607,3.601,4.194,5.498,4.194c2.746,0,4.974-2.439,4.974-5.45c-0.003-3.009-2.228-5.452-4.974-5.452
			c-1.889,0-4.193,2.554-5.466,4.161c0.03-1.688,0.103-3.247,0.245-3.743c0.543-1.883,0.593-1.707,1.771-4.061h-5.295
			c1.187,2.354,1.23,2.178,1.774,4.061c0.145,0.496,0.216,2.057,0.248,3.741c-1.274-1.604-3.578-4.159-5.465-4.159
			c-2.743,0-4.972,2.444-4.972,5.452C19.628,123.92,21.857,126.36,24.601,126.36z"/>
		<path fill="#060506" d="M73.497,23.662c-1.896,0-4.227,2.583-5.494,4.193c0-0.663,4.251-4.911,4.251-7.203
			c0-2.938-2.172-5.32-4.851-5.32s-4.854,2.382-4.854,5.32c0.004,2.292,4.259,6.541,4.256,7.203
			c-1.27-1.607-3.598-4.193-5.495-4.193c-2.747,0-4.975,2.438-4.975,5.455c0.002,3.004,2.227,5.45,4.975,5.45
			c1.887,0,4.192-2.555,5.466-4.165c-0.03,1.689-0.103,3.248-0.246,3.746c-0.545,1.881-0.593,1.708-1.771,4.061h5.294
			c-1.185-2.353-1.229-2.18-1.771-4.061c-0.146-0.498-0.218-2.057-0.247-3.74c1.273,1.604,3.577,4.159,5.465,4.159
			c2.741,0,4.972-2.445,4.972-5.45C78.469,26.1,76.241,23.662,73.497,23.662z"/>
		<path fill="#060506" d="M61.309,126.36c1.896,0,4.223-2.583,5.492-4.194c0,0.662-4.252,4.91-4.252,7.206
			c0,2.937,2.171,5.316,4.852,5.316c2.682,0,4.854-2.381,4.854-5.316c-0.001-2.296-4.256-6.544-4.254-7.206
			c1.268,1.607,3.598,4.194,5.495,4.194c2.744,0,4.975-2.439,4.975-5.45c-0.004-3.009-2.229-5.452-4.975-5.452
			c-1.889,0-4.194,2.554-5.467,4.161c0.03-1.688,0.104-3.247,0.244-3.743c0.545-1.883,0.597-1.707,1.773-4.061H64.75
			c1.185,2.354,1.229,2.178,1.772,4.061c0.146,0.496,0.217,2.057,0.249,3.741c-1.275-1.604-3.58-4.159-5.468-4.159
			c-2.741,0-4.971,2.444-4.971,5.452C56.335,123.92,58.564,126.36,61.309,126.36z"/>
	</g>
</g>
</svg>
