<?xml version="1.0" encoding="utf-8"?>
<!-- Generator: Adobe Illustrator 12.0.0, SVG Export Plug-In . SVG Version: 6.00 Build 51448)  -->
<!DOCTYPE svg PUBLIC "-//W3C//DTD SVG 1.1//EN" "http://www.w3.org/Graphics/SVG/1.1/DTD/svg11.dtd" [
	<!ENTITY ns_flows "http://ns.adobe.com/Flows/1.0/">
	<!ENTITY ns_extend "http://ns.adobe.com/Extensibility/1.0/">
	<!ENTITY ns_ai "http://ns.adobe.com/AdobeIllustrator/10.0/">
	<!ENTITY ns_graphs "http://ns.adobe.com/Graphs/1.0/">
	<!ENTITY ns_vars "http://ns.adobe.com/Variables/1.0/">
	<!ENTITY ns_imrep "http://ns.adobe.com/ImageReplacement/1.0/">
	<!ENTITY ns_sfw "http://ns.adobe.com/SaveForWeb/1.0/">
	<!ENTITY ns_custom "http://ns.adobe.com/GenericCustomNamespace/1.0/">
	<!ENTITY ns_adobe_xpath "http://ns.adobe.com/XPath/1.0/">
	<!ENTITY ns_svg "http://www.w3.org/2000/svg">
	<!ENTITY ns_xlink "http://www.w3.org/1999/xlink">
]>
<svg  version="1.1"
	 xmlns:x="&ns_extend;" xmlns:i="&ns_ai;" xmlns:graph="&ns_graphs;" i:viewOrigin="0.8618 150.4438" i:rulerOrigin="0 0" i:pageBounds="0 150 100 0"
	 xmlns="&ns_svg;" xmlns:xlink="&ns_xlink;" xmlns:a="http://ns.adobe.com/AdobeSVGViewerExtensions/3.0/"
	 width="98.098" height="150.087" viewBox="0 0 98.098 150.087" overflow="visible" enable-background="new 0 0 98.098 150.087"
	 xml:space="preserve">
<metadata>
	<variableSets  xmlns="http://ns.adobe.com/Variables/1.0/">
		<variableSet  locked="none" varSetName="binding1">
			<variables></variables>
			<v:sampleDataSets  xmlns:v="http://ns.adobe.com/Variables/1.0/" xmlns="http://ns.adobe.com/GenericCustomNamespace/1.0/">
				</v:sampleDataSets>
		</variableSet>
	</variableSets>
</metadata>
<g id="图层_1" i:knockout="Off" i:layer="yes" i:dimmedPercent="50" i:rgbTrio="#4F008000FFFF">
	<g i:knockout="Off">
		<path fill="#F7F7F7" stroke="#060506" stroke-width="0.0882" d="M98.053,143.264c0,3.743-3.016,6.779-6.726,6.779H6.769
			c-3.715,0-6.725-3.035-6.725-6.779V6.825c0-3.745,3.01-6.781,6.725-6.781h84.56c3.71,0,6.726,3.036,6.726,6.781L98.053,143.264
			L98.053,143.264z"/>
		<path fill="#060506" d="M11.692,31.708c-0.809,0-1.802,1.028-2.345,1.667c0-0.263,1.815-1.951,1.815-2.861
			c0-1.169-0.926-2.117-2.07-2.117S7.02,29.345,7.02,30.514c0.001,0.91,1.817,2.599,1.816,2.861
			c-0.542-0.639-1.536-1.667-2.344-1.667c-1.173,0-2.124,0.968-2.124,2.167c0.001,1.194,0.951,2.166,2.124,2.166
			c0.803,0,1.789-1.016,2.331-1.654c-0.012,0.67-0.043,1.29-0.104,1.489c-0.232,0.748-0.252,0.677-0.756,1.613h2.26
			c-0.506-0.937-0.525-0.866-0.756-1.613c-0.063-0.199-0.093-0.818-0.107-1.487c0.546,0.637,1.528,1.652,2.334,1.652
			c1.17,0,2.122-0.972,2.122-2.166C13.814,32.676,12.863,31.708,11.692,31.708z"/>
		<path fill="#060506" d="M86.406,119.867c0.81,0,1.805-1.025,2.346-1.669c0,0.265-1.815,1.951-1.815,2.862
			c0,1.168,0.928,2.114,2.07,2.114c1.142,0,2.07-0.946,2.07-2.114c0-0.911-1.816-2.599-1.815-2.862
			c0.542,0.64,1.536,1.669,2.345,1.669c1.173,0,2.124-0.97,2.124-2.169c-0.001-1.195-0.95-2.165-2.124-2.165
			c-0.805,0-1.786,1.015-2.333,1.651c0.016-0.669,0.046-1.288,0.107-1.486c0.229-0.746,0.251-0.677,0.755-1.609h-2.26
			c0.507,0.934,0.524,0.863,0.759,1.609c0.062,0.198,0.09,0.817,0.104,1.486c-0.543-0.638-1.526-1.651-2.33-1.651
			c-1.172,0-2.123,0.97-2.123,2.165C84.283,118.897,85.234,119.867,86.406,119.867z"/>
		<g i:knockout="Off">
			<path fill="#060506" d="M6.427,8.955l-1.024,7.167h1.338l0.052-0.082c0.252-0.396,0.579-0.708,0.972-0.927
				c0.394-0.206,0.82-0.312,1.26-0.312c0.801,0,1.41,0.276,1.863,0.845c0.444,0.56,0.67,1.376,0.67,2.424
				c0,1-0.227,1.789-0.673,2.347c-0.436,0.57-1.025,0.846-1.806,0.846c-0.716,0-1.293-0.233-1.764-0.712
				c-0.477-0.481-0.731-1.124-0.755-1.91L6.555,18.47H5l0.008,0.184c0.051,1.196,0.455,2.171,1.203,2.896
				c0.739,0.726,1.684,1.094,2.808,1.094c1.263,0,2.284-0.428,3.034-1.271c0.745-0.821,1.123-1.951,1.123-3.358
				c0-1.389-0.357-2.512-1.062-3.335c-0.715-0.835-1.693-1.258-2.908-1.258c-0.466,0-0.922,0.079-1.356,0.234
				c-0.289,0.101-0.543,0.247-0.779,0.413c0.096-0.667,0.5-3.48,0.536-3.733c0.287,0,4.968,0,4.968,0v-1.38L6.427,8.955L6.427,8.955
				z"/>
		</g>
		<g i:knockout="Off">
			<path fill="#060506" d="M86.042,127.889c-0.744,0.822-1.122,1.953-1.122,3.357c0,1.39,0.356,2.513,1.062,3.337
				c0.713,0.832,1.69,1.253,2.905,1.253c0.469,0,0.926-0.077,1.357-0.232c0.29-0.102,0.545-0.246,0.78-0.412
				c-0.097,0.667-0.503,3.48-0.539,3.734c-0.285,0-4.967,0-4.967,0v1.379h6.147l1.023-7.165h-1.339l-0.052,0.082
				c-0.252,0.396-0.578,0.709-0.97,0.926c-0.394,0.206-0.817,0.311-1.262,0.311c-0.802,0-1.41-0.274-1.863-0.844
				c-0.443-0.56-0.669-1.376-0.669-2.425c0-0.999,0.227-1.788,0.674-2.347c0.436-0.568,1.024-0.846,1.806-0.846
				c0.714,0,1.29,0.232,1.764,0.71c0.479,0.482,0.731,1.125,0.756,1.911l0.006,0.17h1.556l-0.008-0.184
				c-0.052-1.197-0.458-2.171-1.206-2.896c-0.735-0.725-1.68-1.092-2.807-1.092C87.811,126.619,86.79,127.047,86.042,127.889z"/>
		</g>
		<path fill="#060506" d="M36.787,23.662c-1.897,0-4.222,2.583-5.49,4.193c0-0.663,4.249-4.91,4.249-7.203
			c0-2.938-2.169-5.32-4.851-5.32c-2.68,0-4.853,2.382-4.853,5.32c0.002,2.293,4.258,6.541,4.254,7.203
			c-1.27-1.608-3.6-4.193-5.494-4.193c-2.748,0-4.977,2.438-4.977,5.455c0.004,3.005,2.229,5.45,4.977,5.45
			c1.885,0,4.193-2.556,5.463-4.165c-0.029,1.689-0.102,3.248-0.244,3.746c-0.543,1.881-0.593,1.708-1.772,4.061h5.296
			c-1.185-2.353-1.23-2.18-1.773-4.061c-0.146-0.498-0.217-2.057-0.249-3.74c1.276,1.603,3.58,4.159,5.467,4.159
			c2.742,0,4.972-2.445,4.972-5.45C41.763,26.1,39.533,23.662,36.787,23.662z"/>
		<path fill="#060506" d="M24.6,126.36c1.896,0,4.224-2.584,5.494-4.194c0,0.662-4.251,4.911-4.251,7.206
			c0,2.938,2.171,5.316,4.852,5.316c2.679,0,4.852-2.38,4.852-5.316c-0.004-2.295-4.258-6.544-4.255-7.206
			c1.271,1.606,3.598,4.194,5.494,4.194c2.75,0,4.977-2.44,4.977-5.45c-0.003-3.009-2.227-5.453-4.977-5.453
			c-1.886,0-4.19,2.555-5.465,4.162c0.033-1.688,0.104-3.247,0.248-3.743c0.544-1.882,0.593-1.708,1.771-4.061h-5.295
			c1.186,2.353,1.229,2.179,1.771,4.061c0.147,0.496,0.218,2.057,0.248,3.741c-1.273-1.604-3.576-4.159-5.466-4.159
			c-2.742,0-4.972,2.443-4.972,5.452C19.626,123.919,21.855,126.36,24.6,126.36z"/>
		<path fill="#060506" d="M73.496,23.662c-1.896,0-4.225,2.583-5.493,4.193c0-0.663,4.25-4.91,4.25-7.203
			c0-2.938-2.172-5.32-4.85-5.32c-2.68,0-4.854,2.382-4.854,5.32c0.002,2.293,4.258,6.541,4.256,7.203
			c-1.271-1.608-3.6-4.193-5.497-4.193c-2.747,0-4.974,2.438-4.974,5.455c0.002,3.005,2.227,5.45,4.974,5.45
			c1.889,0,4.194-2.556,5.466-4.165c-0.029,1.689-0.101,3.248-0.244,3.746c-0.544,1.881-0.593,1.708-1.771,4.061h5.293
			c-1.186-2.353-1.229-2.18-1.772-4.061c-0.146-0.498-0.216-2.057-0.249-3.74c1.276,1.603,3.58,4.159,5.466,4.159
			c2.743,0,4.974-2.445,4.974-5.45C78.469,26.1,76.24,23.662,73.496,23.662z"/>
		<path fill="#060506" d="M61.307,126.36c1.897,0,4.226-2.584,5.494-4.194c0,0.662-4.252,4.911-4.252,7.206
			c0,2.938,2.171,5.316,4.852,5.316c2.679,0,4.852-2.38,4.852-5.316c0-2.295-4.254-6.544-4.252-7.206
			c1.269,1.606,3.598,4.194,5.494,4.194c2.745,0,4.976-2.44,4.976-5.45c-0.004-3.009-2.229-5.453-4.976-5.453
			c-1.889,0-4.193,2.555-5.466,4.162c0.03-1.688,0.104-3.247,0.244-3.743c0.545-1.882,0.596-1.708,1.771-4.061H64.75
			c1.188,2.353,1.231,2.179,1.773,4.061c0.146,0.496,0.217,2.057,0.249,3.741c-1.275-1.604-3.581-4.159-5.468-4.159
			c-2.741,0-4.971,2.443-4.971,5.452C56.334,123.919,58.564,126.36,61.307,126.36z"/>
		<path fill="#060506" d="M55.142,71.934c-1.896,0-4.222,2.585-5.49,4.197c0-0.665,4.249-4.911,4.249-7.202
			c0-2.942-2.17-5.32-4.85-5.32c-2.681,0-4.853,2.378-4.853,5.32c0.001,2.291,4.256,6.537,4.253,7.202
			c-1.269-1.61-3.599-4.197-5.495-4.197c-2.746,0-4.976,2.443-4.976,5.458c0.004,3.004,2.23,5.449,4.976,5.449
			c1.887,0,4.192-2.555,5.465-4.165c-0.03,1.688-0.103,3.251-0.244,3.747c-0.543,1.88-0.594,1.705-1.772,4.058h5.295
			c-1.187-2.353-1.231-2.178-1.773-4.058c-0.146-0.496-0.218-2.06-0.248-3.743c1.275,1.606,3.578,4.161,5.466,4.161
			c2.743,0,4.972-2.445,4.972-5.449C60.117,74.377,57.888,71.934,55.142,71.934z"/>
	</g>
</g>
</svg>
