<?xml version="1.0" encoding="utf-8"?>
<!-- Generator: Adobe Illustrator 12.0.0, SVG Export Plug-In . SVG Version: 6.00 Build 51448)  -->
<!DOCTYPE svg PUBLIC "-//W3C//DTD SVG 1.1//EN" "http://www.w3.org/Graphics/SVG/1.1/DTD/svg11.dtd" [
	<!ENTITY ns_flows "http://ns.adobe.com/Flows/1.0/">
	<!ENTITY ns_extend "http://ns.adobe.com/Extensibility/1.0/">
	<!ENTITY ns_ai "http://ns.adobe.com/AdobeIllustrator/10.0/">
	<!ENTITY ns_graphs "http://ns.adobe.com/Graphs/1.0/">
	<!ENTITY ns_vars "http://ns.adobe.com/Variables/1.0/">
	<!ENTITY ns_imrep "http://ns.adobe.com/ImageReplacement/1.0/">
	<!ENTITY ns_sfw "http://ns.adobe.com/SaveForWeb/1.0/">
	<!ENTITY ns_custom "http://ns.adobe.com/GenericCustomNamespace/1.0/">
	<!ENTITY ns_adobe_xpath "http://ns.adobe.com/XPath/1.0/">
	<!ENTITY ns_svg "http://www.w3.org/2000/svg">
	<!ENTITY ns_xlink "http://www.w3.org/1999/xlink">
]>
<svg  version="1.1"
	 xmlns:x="&ns_extend;" xmlns:i="&ns_ai;" xmlns:graph="&ns_graphs;" i:viewOrigin="89.8599 287.6411" i:rulerOrigin="-89 -137.1973" i:pageBounds="89 287.1973 189 137.1973"
	 xmlns="&ns_svg;" xmlns:xlink="&ns_xlink;" xmlns:a="http://ns.adobe.com/AdobeSVGViewerExtensions/3.0/"
	 width="98.1" height="150.086" viewBox="0 0 98.1 150.086" overflow="visible" enable-background="new 0 0 98.1 150.086"
	 xml:space="preserve">
<metadata>
	<variableSets  xmlns="http://ns.adobe.com/Variables/1.0/">
		<variableSet  locked="none" varSetName="binding1">
			<variables></variables>
			<v:sampleDataSets  xmlns:v="http://ns.adobe.com/Variables/1.0/" xmlns="http://ns.adobe.com/GenericCustomNamespace/1.0/">
				</v:sampleDataSets>
		</variableSet>
	</variableSets>
</metadata>
<g id="图层_1" i:knockout="Off" i:layer="yes" i:dimmedPercent="50" i:rgbTrio="#4F008000FFFF">
	<g i:knockout="Off">
		<path fill="#F7F7F7" stroke="#060506" stroke-width="0.0882" d="M98.056,143.263c0,3.742-3.015,6.779-6.725,6.779H6.771
			c-3.715,0-6.727-3.036-6.727-6.779V6.826c0-3.745,3.012-6.782,6.727-6.782h84.56c3.711,0,6.726,3.036,6.726,6.782V143.263
			L98.056,143.263z"/>
		<path fill="#060506" d="M11.695,31.708c-0.809,0-1.803,1.029-2.346,1.667c0-0.265,1.815-1.954,1.815-2.864
			c0-1.167-0.927-2.114-2.071-2.114c-1.143,0-2.068,0.948-2.068,2.114c0,0.911,1.816,2.599,1.814,2.864
			c-0.541-0.639-1.535-1.667-2.345-1.667c-1.172,0-2.124,0.966-2.124,2.165c0.001,1.196,0.951,2.167,2.124,2.167
			c0.804,0,1.789-1.014,2.333-1.653c-0.014,0.67-0.044,1.289-0.105,1.487c-0.23,0.749-0.252,0.677-0.756,1.614h2.258
			c-0.504-0.937-0.522-0.865-0.756-1.614c-0.062-0.198-0.092-0.816-0.104-1.486c0.543,0.638,1.526,1.652,2.332,1.652
			c1.172,0,2.124-0.97,2.124-2.167C13.819,32.675,12.867,31.708,11.695,31.708z"/>
		<path fill="#060506" d="M86.409,119.867c0.812,0,1.805-1.023,2.347-1.669c0,0.266-1.814,1.953-1.814,2.863
			c0,1.168,0.928,2.112,2.069,2.112c1.145,0,2.071-0.944,2.071-2.112c-0.001-0.91-1.815-2.6-1.814-2.863
			c0.541,0.64,1.535,1.669,2.344,1.669c1.173,0,2.124-0.971,2.124-2.168c-0.001-1.195-0.951-2.165-2.124-2.165
			c-0.804,0-1.788,1.014-2.331,1.652c0.015-0.668,0.045-1.288,0.104-1.486c0.229-0.746,0.252-0.676,0.756-1.612h-2.259
			c0.505,0.937,0.521,0.866,0.757,1.612c0.062,0.198,0.091,0.818,0.104,1.486c-0.544-0.641-1.527-1.652-2.334-1.652
			c-1.17,0-2.121,0.97-2.121,2.165C84.287,118.896,85.238,119.867,86.409,119.867z"/>
		<g i:knockout="Off">
			<path fill="#060506" d="M5.071,15.92c0,4.898,1.323,7.18,4.167,7.18c3.182,0,3.878-3.579,3.878-4.957
				c0-1.819-0.813-5.258-3.892-5.258c-1.319,0-2.133,0.653-2.582,1.316c0.223-2.513,1.391-3.869,2.506-3.869
				c1.805,0,2.34,1.516,2.361,1.581l0.061,0.176l1.391-0.557l-0.055-0.159c-0.01-0.024-0.873-2.418-3.678-2.418
				C7.676,8.955,5.071,9.86,5.071,15.92z M6.676,18.05c0-2.411,1.156-3.673,2.299-3.673c1.734,0,2.729,1.366,2.729,3.748
				c0,1.644-0.632,3.563-2.412,3.563C7.363,21.688,6.676,19.808,6.676,18.05z"/>
		</g>
		<g i:knockout="Off">
			<path fill="#060506" d="M84.986,131.574c0,1.818,0.812,5.257,3.893,5.257c1.318,0,2.134-0.65,2.583-1.313
				c-0.224,2.514-1.393,3.871-2.506,3.871c-1.807,0-2.343-1.517-2.362-1.58l-0.062-0.177l-1.392,0.557l0.055,0.159
				c0.011,0.021,0.874,2.418,3.681,2.418c1.553,0,4.155-0.904,4.155-6.967c0-4.896-1.322-7.18-4.167-7.18
				C85.682,126.619,84.986,130.196,84.986,131.574z M86.398,131.59c0-1.641,0.632-3.559,2.414-3.559
				c1.929,0,2.615,1.879,2.615,3.637c0,2.412-1.155,3.676-2.299,3.676C87.393,135.342,86.398,133.975,86.398,131.59z"/>
		</g>
		<path fill="#060506" d="M36.792,23.662c-1.896,0-4.223,2.583-5.491,4.193c0-0.663,4.25-4.911,4.25-7.203
			c0-2.938-2.17-5.32-4.852-5.32c-2.68,0-4.854,2.382-4.854,5.32c0.004,2.292,4.258,6.541,4.254,7.203
			c-1.267-1.607-3.597-4.193-5.494-4.193c-2.748,0-4.975,2.438-4.975,5.455c0.002,3.004,2.227,5.45,4.975,5.45
			c1.886,0,4.193-2.555,5.464-4.165c-0.027,1.689-0.101,3.248-0.243,3.746c-0.544,1.881-0.594,1.708-1.773,4.061h5.297
			c-1.188-2.353-1.229-2.18-1.771-4.061c-0.146-0.498-0.217-2.057-0.249-3.74c1.272,1.604,3.578,4.159,5.464,4.159
			c2.745,0,4.975-2.445,4.975-5.45C41.767,26.1,39.539,23.662,36.792,23.662z"/>
		<path fill="#060506" d="M24.605,126.36c1.895,0,4.225-2.583,5.492-4.194c0,0.662-4.25,4.91-4.25,7.206
			c0,2.938,2.17,5.316,4.85,5.316c2.68,0,4.854-2.381,4.854-5.316c-0.002-2.296-4.258-6.544-4.254-7.206
			c1.27,1.607,3.6,4.194,5.494,4.194c2.749,0,4.978-2.439,4.978-5.45c-0.004-3.009-2.229-5.452-4.978-5.452
			c-1.885,0-4.191,2.555-5.464,4.161c0.03-1.688,0.103-3.247,0.246-3.743c0.542-1.883,0.591-1.707,1.771-4.061h-5.295
			c1.187,2.354,1.231,2.178,1.772,4.061c0.146,0.496,0.217,2.058,0.249,3.741c-1.275-1.604-3.578-4.159-5.467-4.159
			c-2.742,0-4.971,2.444-4.971,5.452C19.631,123.92,21.859,126.36,24.605,126.36z"/>
		<path fill="#060506" d="M36.793,71.934c-1.896,0-4.225,2.585-5.492,4.197c0-0.665,4.25-4.911,4.25-7.202
			c0-2.942-2.172-5.321-4.851-5.321c-2.681,0-4.853,2.378-4.853,5.321c0.002,2.291,4.256,6.537,4.252,7.202
			c-1.267-1.61-3.597-4.197-5.492-4.197c-2.748,0-4.977,2.443-4.977,5.458c0.004,3.004,2.229,5.447,4.977,5.447
			c1.886,0,4.193-2.554,5.462-4.162c-0.027,1.688-0.101,3.25-0.243,3.744c-0.543,1.883-0.592,1.706-1.773,4.06h5.297
			c-1.187-2.354-1.229-2.177-1.771-4.06c-0.146-0.494-0.218-2.058-0.249-3.741c1.274,1.605,3.58,4.159,5.466,4.159
			c2.744,0,4.973-2.443,4.973-5.447C41.767,74.377,39.539,71.934,36.793,71.934z"/>
		<path fill="#060506" d="M73.498,23.662c-1.896,0-4.227,2.583-5.494,4.193c0-0.663,4.252-4.911,4.252-7.203
			c0-2.938-2.173-5.32-4.852-5.32c-2.68,0-4.854,2.382-4.854,5.32c0.004,2.292,4.259,6.541,4.255,7.203
			c-1.271-1.607-3.599-4.193-5.494-4.193c-2.749,0-4.976,2.438-4.976,5.455c0.004,3.004,2.227,5.45,4.976,5.45
			c1.887,0,4.193-2.555,5.465-4.165c-0.028,1.689-0.102,3.248-0.246,3.746c-0.543,1.881-0.592,1.708-1.771,4.061h5.294
			c-1.185-2.353-1.229-2.18-1.771-4.061c-0.146-0.498-0.218-2.057-0.25-3.74c1.277,1.604,3.58,4.159,5.469,4.159
			c2.74,0,4.973-2.445,4.973-5.45C78.471,26.1,76.241,23.662,73.498,23.662z"/>
		<path fill="#060506" d="M61.309,126.36c1.896,0,4.224-2.583,5.493-4.194c0,0.662-4.251,4.91-4.251,7.206
			c0,2.938,2.171,5.316,4.852,5.316c2.682,0,4.854-2.381,4.854-5.316c0-2.296-4.255-6.544-4.254-7.206
			c1.269,1.607,3.599,4.194,5.495,4.194c2.744,0,4.976-2.439,4.976-5.45c-0.003-3.009-2.229-5.452-4.976-5.452
			c-1.89,0-4.193,2.555-5.468,4.161c0.03-1.688,0.104-3.247,0.245-3.743c0.544-1.883,0.598-1.707,1.773-4.061h-5.296
			c1.185,2.354,1.229,2.178,1.771,4.061c0.146,0.496,0.217,2.058,0.248,3.741c-1.273-1.604-3.579-4.159-5.466-4.159
			c-2.742,0-4.973,2.444-4.973,5.452C56.335,123.92,58.566,126.36,61.309,126.36z"/>
		<path fill="#060506" d="M73.498,71.934c-1.896,0-4.226,2.585-5.492,4.197c0-0.665,4.25-4.911,4.25-7.202
			c0-2.942-2.17-5.321-4.852-5.321c-2.68,0-4.854,2.378-4.854,5.321c0.004,2.291,4.259,6.537,4.255,7.202
			c-1.271-1.61-3.6-4.197-5.495-4.197c-2.746,0-4.976,2.443-4.976,5.458c0.004,3.004,2.229,5.447,4.976,5.447
			c1.887,0,4.193-2.554,5.465-4.162c-0.028,1.688-0.102,3.25-0.246,3.744c-0.541,1.883-0.591,1.706-1.771,4.06h5.295
			c-1.187-2.354-1.229-2.177-1.772-4.06c-0.146-0.494-0.217-2.058-0.248-3.741c1.275,1.605,3.578,4.159,5.467,4.159
			c2.741,0,4.973-2.443,4.973-5.447C78.472,74.377,76.243,71.934,73.498,71.934z"/>
	</g>
</g>
</svg>
