<?xml version="1.0" encoding="utf-8"?>
<!-- Generator: Adobe Illustrator 12.0.0, SVG Export Plug-In . SVG Version: 6.00 Build 51448)  -->
<!DOCTYPE svg PUBLIC "-//W3C//DTD SVG 1.1//EN" "http://www.w3.org/Graphics/SVG/1.1/DTD/svg11.dtd" [
	<!ENTITY ns_flows "http://ns.adobe.com/Flows/1.0/">
	<!ENTITY ns_extend "http://ns.adobe.com/Extensibility/1.0/">
	<!ENTITY ns_ai "http://ns.adobe.com/AdobeIllustrator/10.0/">
	<!ENTITY ns_graphs "http://ns.adobe.com/Graphs/1.0/">
	<!ENTITY ns_vars "http://ns.adobe.com/Variables/1.0/">
	<!ENTITY ns_imrep "http://ns.adobe.com/ImageReplacement/1.0/">
	<!ENTITY ns_sfw "http://ns.adobe.com/SaveForWeb/1.0/">
	<!ENTITY ns_custom "http://ns.adobe.com/GenericCustomNamespace/1.0/">
	<!ENTITY ns_adobe_xpath "http://ns.adobe.com/XPath/1.0/">
	<!ENTITY ns_svg "http://www.w3.org/2000/svg">
	<!ENTITY ns_xlink "http://www.w3.org/1999/xlink">
]>
<svg  version="1.1"
	 xmlns:x="&ns_extend;" xmlns:i="&ns_ai;" xmlns:graph="&ns_graphs;" i:viewOrigin="89.8623 287.6411" i:rulerOrigin="-89 -137.1973" i:pageBounds="89 287.1973 189 137.1973"
	 xmlns="&ns_svg;" xmlns:xlink="&ns_xlink;" xmlns:a="http://ns.adobe.com/AdobeSVGViewerExtensions/3.0/"
	 width="98.099" height="150.087" viewBox="0 0 98.099 150.087" overflow="visible" enable-background="new 0 0 98.099 150.087"
	 xml:space="preserve">
<metadata>
	<variableSets  xmlns="http://ns.adobe.com/Variables/1.0/">
		<variableSet  locked="none" varSetName="binding1">
			<variables></variables>
			<v:sampleDataSets  xmlns:v="http://ns.adobe.com/Variables/1.0/" xmlns="http://ns.adobe.com/GenericCustomNamespace/1.0/">
				</v:sampleDataSets>
		</variableSet>
	</variableSets>
</metadata>
<g id="图层_1" i:knockout="Off" i:layer="yes" i:dimmedPercent="50" i:rgbTrio="#4F008000FFFF">
	<g i:knockout="Off">
		<path fill="#F7F7F7" stroke="#060506" stroke-width="0.0882" d="M98.054,143.263c0,3.743-3.015,6.78-6.727,6.78H6.77
			c-3.715,0-6.726-3.036-6.726-6.78V6.826c0-3.745,3.01-6.782,6.726-6.782h84.559c3.712,0,6.727,3.036,6.727,6.782L98.054,143.263
			L98.054,143.263z"/>
		<path fill="#060506" d="M11.693,31.708c-0.81,0-1.803,1.027-2.345,1.668c0-0.263,1.815-1.951,1.815-2.862
			c0-1.167-0.926-2.116-2.069-2.116c-1.144,0-2.072,0.948-2.072,2.116c0.001,0.911,1.816,2.6,1.815,2.862
			c-0.542-0.639-1.535-1.668-2.344-1.668c-1.172,0-2.124,0.97-2.124,2.167c0.001,1.195,0.952,2.167,2.124,2.167
			c0.805,0,1.788-1.015,2.332-1.654c-0.013,0.67-0.043,1.289-0.105,1.489c-0.23,0.746-0.253,0.674-0.754,1.61h2.259
			c-0.507-0.933-0.526-0.864-0.757-1.61c-0.061-0.2-0.092-0.818-0.106-1.489c0.544,0.639,1.528,1.654,2.333,1.654
			c1.17,0,2.122-0.971,2.122-2.167C13.816,32.678,12.864,31.708,11.693,31.708z"/>
		<path fill="#060506" d="M86.409,119.866c0.808,0,1.802-1.026,2.344-1.666c0,0.265-1.815,1.952-1.815,2.863
			c0,1.168,0.929,2.114,2.071,2.114c1.144,0,2.069-0.947,2.069-2.114c-0.001-0.911-1.814-2.6-1.814-2.863
			c0.542,0.64,1.535,1.666,2.345,1.666c1.173,0,2.124-0.968,2.124-2.166c-0.002-1.194-0.951-2.166-2.124-2.166
			c-0.805,0-1.789,1.015-2.333,1.653c0.016-0.669,0.046-1.289,0.105-1.486c0.23-0.748,0.254-0.679,0.757-1.616h-2.26
			c0.505,0.938,0.523,0.868,0.757,1.616c0.062,0.197,0.091,0.817,0.104,1.485c-0.544-0.639-1.526-1.652-2.333-1.652
			c-1.171,0-2.121,0.972-2.121,2.166C84.284,118.898,85.235,119.866,86.409,119.866z"/>
		<g i:knockout="Off">
			<path fill="#060506" d="M5.06,8.955v2.898h1.391c0,0,0-1.152,0-1.423c0.308,0,4.296,0,4.889,0
				c-1.218,1.561-2.216,3.335-2.953,5.296c-0.699,1.79-1.247,3.914-1.629,6.312l-0.032,0.204h1.69l0.021-0.152
				c0.339-2.392,0.851-4.496,1.521-6.255c0.765-2.001,1.818-3.832,3.129-5.439l0.04-0.049V8.954L5.06,8.955L5.06,8.955z"/>
		</g>
		<g i:knockout="Off">
			<path fill="#060506" d="M89.684,126.619l-0.021,0.152c-0.335,2.381-0.849,4.483-1.521,6.254c-0.763,2-1.814,3.832-3.127,5.444
				l-0.04,0.049v1.391h8.067v-2.897h-1.393c0,0,0,1.149,0,1.422c-0.308,0-4.297,0-4.89,0c1.217-1.561,2.215-3.333,2.952-5.293
				c0.695-1.784,1.245-3.909,1.63-6.315l0.033-0.204L89.684,126.619L89.684,126.619z"/>
		</g>
		<path fill="#060506" d="M36.792,23.661c-1.896,0-4.223,2.584-5.493,4.193c0-0.664,4.251-4.911,4.251-7.205
			c0-2.935-2.171-5.318-4.85-5.318c-2.681,0-4.854,2.383-4.854,5.318c0.002,2.294,4.257,6.542,4.255,7.205
			c-1.27-1.608-3.6-4.193-5.497-4.193c-2.746,0-4.976,2.437-4.976,5.452c0.003,3.004,2.229,5.45,4.976,5.45
			c1.888,0,4.193-2.554,5.467-4.163c-0.03,1.689-0.104,3.248-0.244,3.746c-0.545,1.881-0.596,1.707-1.773,4.059h5.296
			c-1.187-2.353-1.232-2.178-1.774-4.059c-0.146-0.498-0.217-2.057-0.249-3.742c1.275,1.605,3.58,4.159,5.465,4.159
			c2.745,0,4.974-2.446,4.974-5.45C41.766,26.098,39.537,23.661,36.792,23.661z"/>
		<path fill="#060506" d="M24.602,126.357c1.897,0,4.226-2.584,5.495-4.193c0,0.664-4.251,4.91-4.251,7.205
			c0,2.938,2.17,5.318,4.851,5.318c2.678,0,4.853-2.381,4.853-5.318c-0.002-2.295-4.257-6.541-4.255-7.205
			c1.271,1.607,3.6,4.193,5.494,4.193c2.749,0,4.978-2.438,4.978-5.452c-0.004-3.007-2.229-5.451-4.978-5.451
			c-1.884,0-4.191,2.555-5.463,4.163c0.03-1.688,0.101-3.246,0.244-3.742c0.544-1.884,0.594-1.71,1.772-4.062h-5.295
			c1.184,2.353,1.229,2.179,1.771,4.062c0.147,0.496,0.219,2.056,0.25,3.739c-1.275-1.604-3.578-4.159-5.467-4.159
			c-2.741,0-4.972,2.443-4.972,5.451C19.629,123.918,21.86,126.357,24.602,126.357z"/>
		<path fill="#060506" d="M36.792,71.934c-1.896,0-4.223,2.582-5.492,4.197c0-0.666,4.25-4.913,4.25-7.205
			c0-2.942-2.169-5.319-4.85-5.319s-4.854,2.377-4.854,5.319c0.003,2.292,4.257,6.54,4.255,7.205c-1.27-1.612-3.6-4.197-5.496-4.197
			c-2.746,0-4.977,2.437-4.977,5.455c0.003,3.006,2.231,5.451,4.977,5.451c1.886,0,4.192-2.556,5.465-4.166
			c-0.03,1.688-0.104,3.25-0.244,3.746c-0.544,1.878-0.595,1.706-1.773,4.06h5.296c-1.187-2.354-1.232-2.182-1.774-4.06
			c-0.146-0.496-0.217-2.058-0.249-3.741c1.275,1.605,3.58,4.161,5.468,4.161c2.741,0,4.971-2.445,4.971-5.451
			C41.766,74.371,39.537,71.934,36.792,71.934z"/>
		<path fill="#060506" d="M73.497,23.661c-1.896,0-4.227,2.584-5.495,4.193c0-0.664,4.251-4.911,4.251-7.205
			c0-2.935-2.172-5.318-4.852-5.318c-2.678,0-4.853,2.383-4.853,5.318c0.003,2.294,4.258,6.542,4.256,7.205
			c-1.271-1.608-3.602-4.193-5.495-4.193c-2.749,0-4.977,2.437-4.977,5.452c0.005,3.004,2.228,5.45,4.977,5.45
			c1.886,0,4.192-2.554,5.464-4.163c-0.029,1.689-0.102,3.248-0.244,3.746c-0.545,1.881-0.593,1.707-1.771,4.059h5.296
			c-1.186-2.353-1.229-2.178-1.772-4.059c-0.146-0.498-0.217-2.057-0.249-3.742c1.274,1.605,3.58,4.159,5.467,4.159
			c2.743,0,4.972-2.446,4.972-5.45C78.469,26.098,76.24,23.661,73.497,23.661z"/>
		<path fill="#060506" d="M61.308,126.357c1.896,0,4.227-2.584,5.494-4.193c0,0.664-4.252,4.91-4.252,7.205
			c0,2.938,2.17,5.318,4.852,5.318c2.68,0,4.853-2.381,4.853-5.318c-0.002-2.295-4.256-6.541-4.253-7.205
			c1.268,1.607,3.599,4.193,5.494,4.193c2.745,0,4.975-2.438,4.975-5.452c-0.003-3.007-2.229-5.451-4.975-5.451
			c-1.887,0-4.193,2.555-5.465,4.163c0.027-1.688,0.102-3.246,0.243-3.742c0.544-1.884,0.596-1.71,1.772-4.062h-5.295
			c1.186,2.353,1.229,2.179,1.771,4.062c0.146,0.496,0.217,2.056,0.25,3.739c-1.274-1.604-3.582-4.159-5.469-4.159
			c-2.742,0-4.971,2.443-4.971,5.451C56.335,123.918,58.562,126.357,61.308,126.357z"/>
		<path fill="#060506" d="M73.497,71.934c-1.896,0-4.227,2.582-5.493,4.197c0-0.666,4.249-4.913,4.249-7.205
			c0-2.942-2.17-5.319-4.852-5.319c-2.678,0-4.852,2.377-4.852,5.319c0.004,2.292,4.259,6.54,4.255,7.205
			c-1.271-1.612-3.601-4.197-5.494-4.197c-2.749,0-4.977,2.437-4.977,5.455c0.004,3.006,2.228,5.451,4.977,5.451
			c1.885,0,4.191-2.556,5.463-4.166c-0.028,1.688-0.102,3.25-0.244,3.746c-0.543,1.878-0.592,1.706-1.771,4.06h5.297
			c-1.186-2.354-1.229-2.182-1.772-4.06c-0.146-0.496-0.217-2.058-0.249-3.741c1.273,1.605,3.579,4.161,5.468,4.161
			c2.74,0,4.97-2.445,4.97-5.451C78.469,74.371,76.24,71.934,73.497,71.934z"/>
		<path fill="#060506" d="M55.144,47.725c-1.896,0-4.223,2.584-5.494,4.196c0-0.664,4.25-4.91,4.25-7.204
			c0-2.938-2.171-5.32-4.85-5.32c-2.679,0-4.853,2.382-4.853,5.32c0.003,2.294,4.257,6.541,4.255,7.204
			c-1.269-1.609-3.599-4.196-5.497-4.196c-2.747,0-4.975,2.44-4.975,5.455c0.004,3.007,2.228,5.451,4.975,5.451
			c1.888,0,4.193-2.554,5.466-4.164c-0.03,1.688-0.101,3.25-0.245,3.747c-0.543,1.877-0.592,1.706-1.77,4.059h5.295
			c-1.187-2.353-1.23-2.182-1.773-4.059c-0.147-0.497-0.216-2.059-0.249-3.742c1.275,1.605,3.578,4.159,5.464,4.159
			c2.744,0,4.975-2.444,4.975-5.451C60.116,50.165,57.889,47.725,55.144,47.725z"/>
	</g>
</g>
</svg>
