<?xml version="1.0" encoding="utf-8"?>
<!-- Generator: Adobe Illustrator 12.0.0, SVG Export Plug-In . SVG Version: 6.00 Build 51448)  -->
<!DOCTYPE svg PUBLIC "-//W3C//DTD SVG 1.1//EN" "http://www.w3.org/Graphics/SVG/1.1/DTD/svg11.dtd" [
	<!ENTITY ns_flows "http://ns.adobe.com/Flows/1.0/">
	<!ENTITY ns_extend "http://ns.adobe.com/Extensibility/1.0/">
	<!ENTITY ns_ai "http://ns.adobe.com/AdobeIllustrator/10.0/">
	<!ENTITY ns_graphs "http://ns.adobe.com/Graphs/1.0/">
	<!ENTITY ns_vars "http://ns.adobe.com/Variables/1.0/">
	<!ENTITY ns_imrep "http://ns.adobe.com/ImageReplacement/1.0/">
	<!ENTITY ns_sfw "http://ns.adobe.com/SaveForWeb/1.0/">
	<!ENTITY ns_custom "http://ns.adobe.com/GenericCustomNamespace/1.0/">
	<!ENTITY ns_adobe_xpath "http://ns.adobe.com/XPath/1.0/">
	<!ENTITY ns_svg "http://www.w3.org/2000/svg">
	<!ENTITY ns_xlink "http://www.w3.org/1999/xlink">
]>
<svg  version="1.1"
	 xmlns:x="&ns_extend;" xmlns:i="&ns_ai;" xmlns:graph="&ns_graphs;" i:viewOrigin="89.8608 287.6411" i:rulerOrigin="-89 -137.1973" i:pageBounds="89 287.1973 189 137.1973"
	 xmlns="&ns_svg;" xmlns:xlink="&ns_xlink;" xmlns:a="http://ns.adobe.com/AdobeSVGViewerExtensions/3.0/"
	 width="98.097" height="150.087" viewBox="0 0 98.097 150.087" overflow="visible" enable-background="new 0 0 98.097 150.087"
	 xml:space="preserve">
<metadata>
	<variableSets  xmlns="http://ns.adobe.com/Variables/1.0/">
		<variableSet  locked="none" varSetName="binding1">
			<variables></variables>
			<v:sampleDataSets  xmlns:v="http://ns.adobe.com/Variables/1.0/" xmlns="http://ns.adobe.com/GenericCustomNamespace/1.0/">
				</v:sampleDataSets>
		</variableSet>
	</variableSets>
</metadata>
<g id="图层_1" i:knockout="Off" i:layer="yes" i:dimmedPercent="50" i:rgbTrio="#4F008000FFFF">
	<g i:knockout="Off">
		<path fill="#F7F7F7" stroke="#060506" stroke-width="0.0882" d="M98.053,143.263c0,3.743-3.015,6.78-6.726,6.78H6.769
			c-3.716,0-6.725-3.036-6.725-6.78V6.826c0-3.745,3.009-6.782,6.725-6.782h84.558c3.712,0,6.727,3.036,6.727,6.782V143.263
			L98.053,143.263z"/>
		<path fill="#060506" d="M11.692,31.707c-0.809,0-1.802,1.027-2.345,1.669c0-0.264,1.815-1.953,1.815-2.863
			c0-1.167-0.927-2.115-2.069-2.115c-1.146,0-2.073,0.948-2.073,2.115c0.001,0.91,1.817,2.599,1.816,2.863
			c-0.542-0.639-1.536-1.669-2.345-1.669c-1.173,0-2.124,0.97-2.124,2.168c0,1.196,0.951,2.167,2.124,2.167
			c0.805,0,1.789-1.015,2.331-1.654c-0.013,0.67-0.042,1.288-0.104,1.488c-0.232,0.746-0.253,0.675-0.756,1.611h2.259
			c-0.505-0.934-0.524-0.865-0.756-1.611c-0.062-0.2-0.092-0.818-0.106-1.488c0.543,0.639,1.528,1.654,2.333,1.654
			c1.17,0,2.122-0.97,2.122-2.167C13.814,32.677,12.863,31.707,11.692,31.707z"/>
		<path fill="#060506" d="M86.406,119.866c0.811,0,1.804-1.027,2.345-1.667c0,0.266-1.815,1.951-1.815,2.862
			c0,1.169,0.928,2.116,2.071,2.116c1.146,0,2.069-0.947,2.069-2.116c0-0.911-1.814-2.598-1.812-2.862
			c0.541,0.64,1.535,1.667,2.344,1.667c1.173,0,2.123-0.968,2.123-2.166c0-1.195-0.95-2.166-2.123-2.166
			c-0.805,0-1.788,1.015-2.332,1.653c0.016-0.67,0.046-1.29,0.105-1.486c0.229-0.749,0.254-0.679,0.756-1.616h-2.26
			c0.506,0.938,0.524,0.867,0.758,1.616c0.061,0.196,0.089,0.816,0.104,1.485c-0.544-0.639-1.527-1.652-2.331-1.652
			c-1.172,0-2.124,0.971-2.124,2.166C84.282,118.898,85.234,119.866,86.406,119.866z"/>
		<g i:knockout="Off">
			<path fill="#060506" d="M6.37,9.958L6.37,9.958c-0.679,0.668-1.022,1.553-1.022,2.628c0,0.664,0.156,1.248,0.465,1.736
				c0.264,0.417,0.673,0.774,1.171,1.088c-0.614,0.297-1.132,0.698-1.498,1.242c-0.396,0.636-0.594,1.377-0.594,2.209
				c0,1.251,0.386,2.272,1.148,3.036c0.758,0.779,1.788,1.175,3.06,1.175c1.249,0,2.268-0.396,3.027-1.177
				c0.77-0.763,1.162-1.784,1.162-3.034c0-0.835-0.217-1.579-0.644-2.21c-0.365-0.543-0.877-0.944-1.484-1.242
				c0.494-0.316,0.898-0.675,1.159-1.089c0.319-0.479,0.483-1.064,0.483-1.735c0-1.078-0.35-1.962-1.04-2.629
				c-0.689-0.666-1.59-1.003-2.677-1.003C7.972,8.955,7.057,9.292,6.37,9.958z M7.521,14.212L7.521,14.212
				c-0.368-0.386-0.555-0.918-0.555-1.583c0-0.712,0.193-1.283,0.574-1.697c0.395-0.4,0.898-0.597,1.536-0.597
				c0.62,0,1.131,0.203,1.52,0.601c0.391,0.411,0.59,0.98,0.59,1.693c0,0.663-0.191,1.194-0.57,1.581
				c-0.387,0.407-0.89,0.604-1.541,0.604C8.414,14.813,7.906,14.616,7.521,14.212z M7.269,20.911L7.269,20.911
				c-0.508-0.543-0.755-1.2-0.755-2.006c0-0.868,0.234-1.549,0.697-2.022c0.453-0.466,1.067-0.692,1.881-0.692
				c0.788,0,1.398,0.227,1.864,0.693c0.475,0.465,0.715,1.105,0.715,1.907c0,0.859-0.254,1.566-0.756,2.104
				c-0.496,0.536-1.091,0.797-1.823,0.797C8.356,21.691,7.76,21.436,7.269,20.911z"/>
		</g>
		<g i:knockout="Off">
			<path fill="#060506" d="M85.969,127.792c-0.771,0.769-1.163,1.79-1.163,3.039l0,0c0,0.831,0.216,1.574,0.644,2.208
				c0.364,0.542,0.878,0.942,1.483,1.24c-0.494,0.319-0.899,0.679-1.157,1.091c-0.317,0.478-0.48,1.062-0.48,1.735
				c0,1.078,0.349,1.962,1.038,2.628c0.69,0.666,1.593,1.004,2.679,1.004c1.112,0,2.025-0.338,2.716-1.004
				c0.678-0.67,1.021-1.553,1.021-2.628c0-0.669-0.157-1.253-0.468-1.737c-0.26-0.412-0.669-0.771-1.17-1.089
				c0.615-0.298,1.135-0.697,1.498-1.24c0.396-0.641,0.595-1.382,0.595-2.208c0-1.253-0.387-2.274-1.146-3.04
				c-0.76-0.776-1.79-1.172-3.062-1.172C87.747,126.619,86.729,127.013,85.969,127.792z M87.139,132.807l-0.002-0.001
				c-0.474-0.464-0.713-1.105-0.713-1.91c0-0.857,0.255-1.562,0.757-2.098c0.495-0.538,1.091-0.801,1.824-0.801
				c0.732,0,1.33,0.255,1.823,0.781c0.508,0.545,0.756,1.201,0.756,2.006c0,0.871-0.235,1.552-0.698,2.022
				c-0.448,0.46-1.08,0.691-1.88,0.691C88.216,133.5,87.607,133.274,87.139,132.807z M86.911,137.059L86.911,137.059
				c0-0.66,0.19-1.191,0.567-1.579c0.389-0.405,0.894-0.603,1.542-0.603c0.662,0,1.17,0.196,1.554,0.602
				c0.369,0.388,0.557,0.919,0.557,1.58c0,0.716-0.192,1.287-0.573,1.697c-0.394,0.401-0.896,0.6-1.536,0.6
				c-0.629,0-1.125-0.197-1.518-0.603C87.11,138.344,86.911,137.774,86.911,137.059z"/>
		</g>
		<path fill="#060506" d="M36.788,23.661c-1.894,0-4.222,2.584-5.491,4.193c0-0.664,4.25-4.911,4.25-7.205
			c0-2.935-2.17-5.318-4.85-5.318c-2.68,0-4.854,2.383-4.854,5.318c0.002,2.294,4.259,6.542,4.255,7.205
			c-1.27-1.608-3.599-4.193-5.496-4.193c-2.746,0-4.976,2.437-4.976,5.452c0.003,3.004,2.229,5.45,4.976,5.45
			c1.885,0,4.191-2.554,5.466-4.163c-0.031,1.689-0.104,3.248-0.246,3.746c-0.542,1.881-0.594,1.707-1.771,4.059h5.294
			c-1.185-2.353-1.228-2.178-1.772-4.059c-0.146-0.498-0.217-2.057-0.249-3.742c1.275,1.605,3.578,4.159,5.465,4.159
			c2.744,0,4.973-2.446,4.973-5.45C41.764,26.098,39.535,23.661,36.788,23.661z"/>
		<path fill="#060506" d="M24.6,126.357c1.897,0,4.227-2.584,5.494-4.193c0,0.664-4.25,4.91-4.25,7.205
			c0,2.938,2.172,5.318,4.851,5.318c2.68,0,4.853-2.381,4.853-5.318c-0.004-2.295-4.257-6.541-4.254-7.205
			c1.27,1.607,3.598,4.193,5.492,4.193c2.75,0,4.979-2.438,4.979-5.452c-0.003-3.007-2.229-5.451-4.979-5.451
			c-1.884,0-4.189,2.555-5.463,4.163c0.031-1.688,0.104-3.246,0.247-3.742c0.542-1.884,0.592-1.71,1.772-4.062h-5.296
			c1.184,2.353,1.229,2.179,1.772,4.062c0.146,0.496,0.217,2.056,0.25,3.739c-1.276-1.604-3.58-4.159-5.469-4.159
			c-2.74,0-4.971,2.443-4.971,5.451C19.628,123.918,21.859,126.357,24.6,126.357z"/>
		<path fill="#060506" d="M36.788,71.934c-1.894,0-4.222,2.582-5.491,4.197c0-0.666,4.25-4.913,4.25-7.205
			c0-2.942-2.169-5.319-4.85-5.319c-2.681,0-4.854,2.377-4.854,5.319c0.002,2.292,4.258,6.54,4.254,7.205
			c-1.269-1.612-3.599-4.197-5.494-4.197c-2.746,0-4.977,2.437-4.977,5.455c0.005,3.006,2.231,5.451,4.977,5.451
			c1.884,0,4.192-2.556,5.464-4.166c-0.03,1.688-0.103,3.25-0.244,3.746c-0.543,1.878-0.595,1.706-1.773,4.06h5.296
			c-1.185-2.354-1.23-2.182-1.772-4.06c-0.146-0.496-0.218-2.058-0.249-3.741c1.275,1.605,3.578,4.161,5.467,4.161
			c2.742,0,4.971-2.445,4.971-5.451C41.764,74.371,39.535,71.934,36.788,71.934z"/>
		<path fill="#060506" d="M73.493,23.661c-1.896,0-4.225,2.584-5.492,4.193c0-0.664,4.251-4.911,4.251-7.205
			c0-2.935-2.171-5.318-4.853-5.318c-2.677,0-4.851,2.383-4.851,5.318c0.002,2.294,4.257,6.542,4.253,7.205
			c-1.271-1.608-3.599-4.193-5.494-4.193c-2.748,0-4.976,2.437-4.976,5.452c0.004,3.004,2.227,5.45,4.976,5.45
			c1.885,0,4.193-2.554,5.466-4.163c-0.031,1.689-0.104,3.248-0.247,3.746c-0.542,1.881-0.592,1.707-1.77,4.059h5.295
			c-1.188-2.353-1.23-2.178-1.773-4.059c-0.146-0.498-0.218-2.057-0.249-3.742c1.274,1.605,3.578,4.159,5.468,4.159
			c2.74,0,4.971-2.446,4.971-5.45C78.466,26.098,76.238,23.661,73.493,23.661z"/>
		<path fill="#060506" d="M61.306,126.357c1.896,0,4.225-2.584,5.491-4.193c0,0.664-4.249,4.91-4.249,7.205
			c0,2.938,2.17,5.318,4.85,5.318c2.682,0,4.854-2.381,4.854-5.318c-0.002-2.295-4.257-6.541-4.254-7.205
			c1.269,1.607,3.599,4.193,5.494,4.193c2.747,0,4.976-2.438,4.976-5.452c-0.003-3.007-2.229-5.451-4.976-5.451
			c-1.887,0-4.192,2.555-5.465,4.163c0.03-1.688,0.103-3.246,0.245-3.742c0.542-1.884,0.593-1.71,1.772-4.062h-5.296
			c1.186,2.353,1.229,2.179,1.771,4.062c0.146,0.496,0.22,2.056,0.25,3.739c-1.273-1.604-3.581-4.159-5.468-4.159
			c-2.742,0-4.971,2.443-4.971,5.451C56.333,123.918,58.561,126.357,61.306,126.357z"/>
		<path fill="#060506" d="M73.495,71.934c-1.896,0-4.226,2.582-5.494,4.197c0-0.666,4.251-4.913,4.251-7.205
			c0-2.942-2.17-5.319-4.85-5.319s-4.853,2.377-4.853,5.319c0.003,2.292,4.257,6.54,4.254,7.205
			c-1.271-1.612-3.601-4.197-5.496-4.197c-2.747,0-4.976,2.437-4.976,5.455c0.004,3.006,2.229,5.451,4.976,5.451
			c1.889,0,4.194-2.556,5.466-4.166c-0.028,1.688-0.102,3.25-0.245,3.746c-0.543,1.878-0.592,1.706-1.771,4.06h5.297
			c-1.188-2.354-1.232-2.182-1.774-4.06c-0.146-0.496-0.217-2.058-0.249-3.741c1.275,1.605,3.579,4.161,5.467,4.161
			c2.742,0,4.971-2.445,4.971-5.451C78.467,74.371,76.239,71.934,73.495,71.934z"/>
		<path fill="#060506" d="M55.141,47.725c-1.896,0-4.222,2.584-5.492,4.196c0-0.664,4.249-4.91,4.249-7.204
			c0-2.938-2.17-5.32-4.849-5.32c-2.679,0-4.853,2.382-4.853,5.32c0.002,2.294,4.257,6.541,4.255,7.204
			c-1.271-1.609-3.601-4.196-5.498-4.196c-2.746,0-4.974,2.44-4.974,5.455c0.003,3.007,2.228,5.451,4.974,5.451
			c1.887,0,4.192-2.554,5.466-4.164c-0.03,1.688-0.104,3.25-0.247,3.747c-0.541,1.877-0.591,1.706-1.768,4.059h5.293
			c-1.186-2.353-1.23-2.182-1.772-4.059c-0.148-0.497-0.216-2.059-0.249-3.742c1.275,1.605,3.58,4.159,5.464,4.159
			c2.743,0,4.973-2.444,4.973-5.451C60.115,50.165,57.885,47.725,55.141,47.725z"/>
		<path fill="#060506" d="M55.141,102.357c-1.896,0-4.222-2.581-5.492-4.193c0,0.664,4.25,4.91,4.25,7.201
			c0,2.941-2.169,5.323-4.85,5.323c-2.679,0-4.852-2.382-4.852-5.323c0.001-2.291,4.256-6.537,4.255-7.201
			c-1.271,1.608-3.603,4.193-5.497,4.193c-2.747,0-4.976-2.438-4.976-5.451c0.004-3.006,2.229-5.452,4.976-5.452
			c1.888,0,4.193,2.555,5.464,4.164c-0.03-1.688-0.104-3.249-0.243-3.746c-0.543-1.878-0.594-1.707-1.771-4.059h5.293
			c-1.186,2.352-1.23,2.181-1.771,4.059c-0.147,0.497-0.217,2.058-0.249,3.741c1.274-1.604,3.579-4.159,5.466-4.159
			c2.742,0,4.972,2.446,4.972,5.452C60.116,99.92,57.887,102.357,55.141,102.357z"/>
	</g>
</g>
</svg>
