<?xml version="1.0" encoding="utf-8"?>
<!-- Generator: Adobe Illustrator 12.0.0, SVG Export Plug-In . SVG Version: 6.00 Build 51448)  -->
<!DOCTYPE svg PUBLIC "-//W3C//DTD SVG 1.1//EN" "http://www.w3.org/Graphics/SVG/1.1/DTD/svg11.dtd" [
	<!ENTITY ns_flows "http://ns.adobe.com/Flows/1.0/">
	<!ENTITY ns_extend "http://ns.adobe.com/Extensibility/1.0/">
	<!ENTITY ns_ai "http://ns.adobe.com/AdobeIllustrator/10.0/">
	<!ENTITY ns_graphs "http://ns.adobe.com/Graphs/1.0/">
	<!ENTITY ns_vars "http://ns.adobe.com/Variables/1.0/">
	<!ENTITY ns_imrep "http://ns.adobe.com/ImageReplacement/1.0/">
	<!ENTITY ns_sfw "http://ns.adobe.com/SaveForWeb/1.0/">
	<!ENTITY ns_custom "http://ns.adobe.com/GenericCustomNamespace/1.0/">
	<!ENTITY ns_adobe_xpath "http://ns.adobe.com/XPath/1.0/">
	<!ENTITY ns_svg "http://www.w3.org/2000/svg">
	<!ENTITY ns_xlink "http://www.w3.org/1999/xlink">
]>
<svg  version="1.1"
	 xmlns:x="&ns_extend;" xmlns:i="&ns_ai;" xmlns:graph="&ns_graphs;" i:viewOrigin="89.856 287.6411" i:rulerOrigin="-89 -137.1973" i:pageBounds="89 287.1973 189 137.1973"
	 xmlns="&ns_svg;" xmlns:xlink="&ns_xlink;" xmlns:a="http://ns.adobe.com/AdobeSVGViewerExtensions/3.0/"
	 width="98.111" height="150.087" viewBox="0 0 98.111 150.087" overflow="visible" enable-background="new 0 0 98.111 150.087"
	 xml:space="preserve">
<metadata>
	<variableSets  xmlns="http://ns.adobe.com/Variables/1.0/">
		<variableSet  locked="none" varSetName="binding1">
			<variables></variables>
			<v:sampleDataSets  xmlns:v="http://ns.adobe.com/Variables/1.0/" xmlns="http://ns.adobe.com/GenericCustomNamespace/1.0/">
				</v:sampleDataSets>
		</variableSet>
	</variableSets>
</metadata>
<g id="图层_1" i:knockout="Off" i:layer="yes" i:dimmedPercent="50" i:rgbTrio="#4F008000FFFF">
	<g i:knockout="Off">
		<path fill="#F7F7F7" stroke="#060506" stroke-width="0.0882" d="M98.067,143.247c0,3.781-3.016,6.797-6.749,6.797H6.793
			c-3.733,0-6.749-3.016-6.749-6.797V6.792c0-3.732,3.016-6.748,6.749-6.748h84.524c3.733,0,6.749,3.016,6.749,6.748L98.067,143.247
			L98.067,143.247z"/>
		<path fill="#060506" d="M11.675,31.68c-0.766,0-1.771,1.053-2.346,1.674c0-0.238,1.819-1.961,1.819-2.871
			c0-1.148-0.909-2.105-2.059-2.105c-1.148,0-2.058,0.957-2.058,2.105c0,0.91,1.818,2.633,1.818,2.871
			c-0.574-0.621-1.531-1.674-2.345-1.674c-1.196,0-2.154,1.004-2.154,2.201c0,1.197,0.958,2.154,2.154,2.154
			c0.813,0,1.771-1.006,2.297-1.676c0,0.67,0,1.293-0.096,1.484c-0.239,0.766-0.239,0.717-0.766,1.627h2.298
			c-0.526-0.91-0.526-0.861-0.767-1.627c-0.048-0.191-0.096-0.814-0.096-1.484c0.527,0.67,1.532,1.676,2.298,1.676
			c1.196,0,2.153-0.957,2.153-2.154C13.825,32.684,12.872,31.68,11.675,31.68z"/>
		<path fill="#060506" d="M86.436,119.889c0.813,0,1.771-1.054,2.345-1.675c0,0.238-1.817,1.962-1.817,2.871
			c0,1.148,0.908,2.105,2.058,2.105s2.059-0.957,2.059-2.105c0-0.909-1.817-2.633-1.817-2.871c0.574,0.621,1.531,1.675,2.345,1.675
			c1.196,0,2.154-1.004,2.154-2.201s-0.958-2.154-2.154-2.154c-0.766,0-1.771,1.006-2.297,1.676c0-0.67,0-1.293,0.096-1.483
			c0.239-0.767,0.239-0.718,0.767-1.627h-2.298c0.525,0.909,0.525,0.86,0.766,1.627c0.048,0.19,0.096,0.813,0.096,1.483
			c-0.525-0.67-1.531-1.676-2.297-1.676c-1.196,0-2.154,0.957-2.154,2.154S85.24,119.889,86.436,119.889z"/>
		<g i:knockout="Off">
			<path fill="#060506" d="M5.07,13.923c0,1.197,0.24,5.266,3.638,5.266c1.341,0,2.346-0.719,2.872-1.436
				c-0.191,2.535-1.196,3.973-2.92,3.973c-0.574,0-1.005-0.191-1.388-0.574c-0.287-0.287-0.479-0.623-0.574-1.006l-0.096-0.191
				l-1.389,0.574l0.048,0.145c0.192,0.574,0.527,1.053,0.91,1.436c0.67,0.67,1.483,1.004,2.393,1.004
				c2.106,0,4.547-1.244,4.547-6.986c0-4.549-0.67-7.18-4.164-7.18C5.454,8.946,5.07,12.391,5.07,13.923z M6.506,13.923
				c0-1.627,0.622-3.59,2.393-3.59s2.633,1.293,2.633,3.877c0,2.537-1.627,3.494-2.681,3.494
				C6.793,17.704,6.506,15.311,6.506,13.923z"/>
		</g>
		<g i:knockout="Off">
			<path fill="#060506" d="M85,133.579c0,4.547,0.67,7.18,4.163,7.18s3.877-3.446,3.877-4.93c0-1.246-0.239-5.266-3.638-5.266
				c-1.341,0-2.346,0.67-2.872,1.389c0.191-2.537,1.196-3.926,2.92-3.926c0.574,0,1.006,0.191,1.389,0.574
				c0.287,0.239,0.479,0.574,0.573,0.957l0.097,0.19l1.388-0.524l-0.048-0.191c-0.191-0.527-0.526-1.053-0.909-1.436
				c-0.67-0.623-1.482-0.957-2.393-0.957C87.441,126.639,85,127.834,85,133.579z M86.58,135.493c0-2.537,1.628-3.494,2.682-3.494
				c2.058,0,2.345,2.394,2.345,3.781c0,1.676-0.622,3.59-2.393,3.59C87.441,139.37,86.58,138.077,86.58,135.493z"/>
		</g>
		<path fill="#060506" d="M36.803,23.639c-1.915,0-4.212,2.584-5.505,4.211c0-0.67,4.26-4.93,4.26-7.227
			c0-2.92-2.153-5.312-4.834-5.312c-2.68,0-4.882,2.393-4.882,5.312c0,2.297,4.26,6.557,4.26,7.227
			c-1.292-1.627-3.59-4.211-5.504-4.211c-2.729,0-4.978,2.441-4.978,5.455c0,3.016,2.249,5.457,4.978,5.457
			c1.914,0,4.212-2.537,5.456-4.164c0,1.676-0.096,3.254-0.239,3.734c-0.526,1.914-0.574,1.723-1.771,4.068h5.312
			c-1.196-2.346-1.244-2.154-1.771-4.068c-0.144-0.48-0.239-2.059-0.239-3.734c1.245,1.627,3.542,4.164,5.457,4.164
			c2.728,0,4.978-2.441,4.978-5.457C41.781,26.081,39.531,23.639,36.803,23.639z"/>
		<path fill="#060506" d="M24.598,126.35c1.914,0,4.212-2.584,5.504-4.162c0,0.67-4.26,4.881-4.26,7.178
			c0,2.969,2.202,5.312,4.834,5.312c2.681,0,4.882-2.345,4.882-5.312c0-2.297-4.26-6.508-4.26-7.178
			c1.293,1.578,3.59,4.162,5.505,4.162c2.728,0,4.978-2.439,4.978-5.455c0-2.967-2.25-5.457-4.978-5.457
			c-1.915,0-4.212,2.586-5.457,4.164c0-1.674,0.096-3.207,0.239-3.732c0.527-1.867,0.575-1.676,1.771-4.067h-5.312
			c1.196,2.393,1.244,2.2,1.771,4.067c0.144,0.525,0.239,2.06,0.239,3.732c-1.244-1.578-3.542-4.164-5.456-4.164
			c-2.729,0-4.978,2.49-4.978,5.457C19.621,123.911,21.87,126.35,24.598,126.35z"/>
		<path fill="#060506" d="M73.513,23.639c-1.914,0-4.212,2.584-5.504,4.211c0-0.67,4.26-4.93,4.26-7.227
			c0-2.92-2.202-5.312-4.834-5.312c-2.681,0-4.883,2.393-4.883,5.312c0,2.297,4.26,6.557,4.26,7.227
			c-1.292-1.627-3.589-4.211-5.504-4.211c-2.729,0-4.979,2.441-4.979,5.455c0,3.016,2.25,5.457,4.979,5.457
			c1.915,0,4.212-2.537,5.456-4.164c0,1.676-0.096,3.254-0.239,3.734c-0.525,1.914-0.574,1.723-1.771,4.068h5.312
			c-1.196-2.346-1.244-2.154-1.771-4.068c-0.145-0.48-0.239-2.059-0.239-3.734c1.244,1.627,3.542,4.164,5.456,4.164
			c2.729,0,4.978-2.441,4.978-5.457C78.491,26.081,76.242,23.639,73.513,23.639z"/>
		<path fill="#060506" d="M61.308,126.35c1.915,0,4.212-2.584,5.504-4.162c0,0.67-4.26,4.881-4.26,7.178
			c0,2.969,2.154,5.312,4.835,5.312c2.68,0,4.882-2.345,4.882-5.312c0-2.297-4.26-6.508-4.26-7.178
			c1.292,1.578,3.59,4.162,5.504,4.162c2.729,0,4.978-2.439,4.978-5.455c0-2.967-2.249-5.457-4.978-5.457
			c-1.914,0-4.212,2.586-5.456,4.164c0-1.674,0.096-3.207,0.239-3.732c0.525-1.867,0.573-1.676,1.771-4.067h-5.312
			c1.195,2.393,1.244,2.2,1.771,4.067c0.145,0.525,0.239,2.06,0.239,3.732c-1.244-1.578-3.589-4.164-5.456-4.164
			c-2.728,0-4.978,2.49-4.978,5.457C56.331,123.911,58.581,126.35,61.308,126.35z"/>
		<path fill="#060506" d="M36.803,55.61c-1.915,0-4.212,2.586-5.505,4.164c0-0.67,4.26-4.881,4.26-7.178
			c0-2.969-2.153-5.312-4.834-5.312c-2.68,0-4.882,2.344-4.882,5.312c0,2.297,4.26,6.508,4.26,7.178
			c-1.244-1.578-3.59-4.164-5.504-4.164c-2.729,0-4.978,2.441-4.978,5.457s2.249,5.457,4.978,5.457c1.914,0,4.212-2.586,5.456-4.164
			c0,1.674-0.096,3.254-0.239,3.732c-0.526,1.867-0.574,1.723-1.771,4.068h5.312c-1.196-2.346-1.244-2.201-1.771-4.068
			c-0.144-0.479-0.239-2.059-0.239-3.732c1.245,1.578,3.542,4.164,5.457,4.164c2.728,0,4.978-2.441,4.978-5.457
			S39.531,55.61,36.803,55.61z"/>
		<path fill="#060506" d="M73.513,55.61c-1.914,0-4.212,2.586-5.504,4.164c0-0.67,4.26-4.881,4.26-7.178
			c0-2.969-2.154-5.312-4.834-5.312c-2.681,0-4.883,2.344-4.883,5.312c0,2.297,4.26,6.508,4.26,7.178
			c-1.244-1.578-3.589-4.164-5.504-4.164c-2.729,0-4.979,2.441-4.979,5.457s2.25,5.457,4.979,5.457c1.915,0,4.212-2.586,5.456-4.164
			c0,1.674-0.096,3.254-0.239,3.732c-0.525,1.867-0.574,1.723-1.771,4.068h5.312c-1.196-2.346-1.244-2.201-1.771-4.068
			c-0.145-0.479-0.239-2.059-0.239-3.732c1.244,1.578,3.542,4.164,5.456,4.164c2.729,0,4.978-2.441,4.978-5.457
			S76.242,55.61,73.513,55.61z"/>
		<path fill="#060506" d="M36.803,94.475c-1.915,0-4.212-2.584-5.505-4.164c0,0.67,4.26,4.881,4.26,7.18
			c0,2.967-2.153,5.312-4.834,5.312c-2.68,0-4.882-2.347-4.882-5.312c0-2.299,4.26-6.51,4.26-7.18
			c-1.244,1.58-3.59,4.164-5.504,4.164c-2.729,0-4.978-2.441-4.978-5.457c0-3.017,2.249-5.455,4.978-5.455
			c1.914,0,4.212,2.584,5.456,4.164c0-1.676-0.096-3.207-0.239-3.734c-0.526-1.867-0.574-1.723-1.771-4.067h5.312
			c-1.196,2.346-1.244,2.2-1.771,4.067c-0.144,0.527-0.239,2.06-0.239,3.734c1.245-1.58,3.542-4.164,5.457-4.164
			c2.728,0,4.978,2.488,4.978,5.455C41.781,92.034,39.531,94.475,36.803,94.475z"/>
		<path fill="#060506" d="M73.513,94.475c-1.914,0-4.212-2.584-5.504-4.164c0,0.67,4.26,4.881,4.26,7.18
			c0,2.967-2.154,5.312-4.834,5.312c-2.681,0-4.883-2.347-4.883-5.312c0-2.299,4.26-6.51,4.26-7.18
			c-1.244,1.58-3.589,4.164-5.504,4.164c-2.729,0-4.979-2.441-4.979-5.457c0-3.017,2.25-5.455,4.979-5.455
			c1.915,0,4.212,2.584,5.456,4.164c0-1.676-0.096-3.207-0.239-3.734c-0.525-1.867-0.574-1.723-1.771-4.067h5.312
			c-1.196,2.346-1.244,2.2-1.771,4.067c-0.145,0.527-0.239,2.06-0.239,3.734c1.244-1.58,3.542-4.164,5.456-4.164
			c2.729,0,4.978,2.488,4.978,5.455C78.491,92.034,76.242,94.475,73.513,94.475z"/>
		<path fill="#060506" d="M55.134,71.932c-1.867,0-4.212,2.584-5.456,4.211c0-0.67,4.212-4.93,4.212-7.227
			c0-2.92-2.154-5.312-4.835-5.312c-2.68,0-4.834,2.393-4.834,5.312c0,2.297,4.26,6.557,4.26,7.227
			c-1.292-1.627-3.638-4.211-5.504-4.211c-2.776,0-4.978,2.441-4.978,5.456c0,3.016,2.201,5.457,4.978,5.457
			c1.866,0,4.164-2.537,5.456-4.164c-0.048,1.676-0.096,3.254-0.239,3.733c-0.574,1.865-0.622,1.724-1.771,4.066h5.265
			c-1.147-2.344-1.196-2.201-1.771-4.066c-0.144-0.479-0.191-2.059-0.239-3.733c1.292,1.627,3.589,4.164,5.456,4.164
			c2.774,0,4.978-2.441,4.978-5.457C60.112,74.374,57.91,71.932,55.134,71.932z"/>
	</g>
</g>
</svg>
