<?xml version="1.0" encoding="UTF-8" standalone="no"?>
<!-- Generator: Adobe Illustrator 12.0.0, SVG Export Plug-In . SVG Version: 6.00 Build 51448)  -->
<svg
   xmlns:ns="http://ns.adobe.com/Variables/1.0/"
   xmlns:i="http://ns.adobe.com/AdobeIllustrator/10.0/"
   xmlns:dc="http://purl.org/dc/elements/1.1/"
   xmlns:cc="http://web.resource.org/cc/"
   xmlns:rdf="http://www.w3.org/1999/02/22-rdf-syntax-ns#"
   xmlns:svg="http://www.w3.org/2000/svg"
   xmlns="http://www.w3.org/2000/svg"
   xmlns:xlink="http://www.w3.org/1999/xlink"
   xmlns:sodipodi="http://sodipodi.sourceforge.net/DTD/sodipodi-0.dtd"
   xmlns:inkscape="http://www.inkscape.org/namespaces/inkscape"
   version="1.1"
   i:viewOrigin="89.8623 287.6411"
   i:rulerOrigin="-89 -137.1973"
   i:pageBounds="89 287.1973 189 137.1973"
   width="98.099"
   height="150.087"
   viewBox="0 0 98.099 150.087"
   overflow="visible"
   enable-background="new 0 0 98.099 150.087"
   xml:space="preserve"
   id="svg4706"
   sodipodi:version="0.32"
   inkscape:version="0.45.1"
   sodipodi:docname="test2.svg"
   sodipodi:docbase="/root/Documents/bluedj/pics"
   inkscape:output_extension="org.inkscape.output.svg.inkscape"><defs
   id="defs4755" /><sodipodi:namedview
   inkscape:window-height="696"
   inkscape:window-width="1024"
   inkscape:pageshadow="2"
   inkscape:pageopacity="0.0"
   guidetolerance="10.0"
   gridtolerance="10.0"
   objecttolerance="10.0"
   borderopacity="1.0"
   bordercolor="#666666"
   pagecolor="#ffffff"
   id="base"
   inkscape:zoom="3.0848773"
   inkscape:cx="49.0495"
   inkscape:cy="70.785478"
   inkscape:window-x="0"
   inkscape:window-y="25"
   inkscape:current-layer="svg4706" />
<metadata
   id="metadata4708">
	<ns:variableSets>
		<ns:variableSet
   locked="none"
   varSetName="binding1">
			<ns:variables />
			<ns:sampleDataSets>
				</ns:sampleDataSets>
		</ns:variableSet>
	</ns:variableSets>
<rdf:RDF><cc:Work
     rdf:about=""><dc:format>image/svg+xml</dc:format><dc:type
       rdf:resource="http://purl.org/dc/dcmitype/StillImage" /></cc:Work></rdf:RDF></metadata>
<g
   id="图层_1"
   i:knockout="Off"
   i:layer="yes"
   i:dimmedPercent="50"
   i:rgbTrio="#4F008000FFFF">
	<g
   i:knockout="Off"
   id="g4711">
		<path
   d="M98.054,143.263c0,3.743-3.015,6.78-6.727,6.78H6.77    c-3.714,0-6.726-3.036-6.726-6.78V6.826c0-3.745,3.011-6.782,6.726-6.782h84.559c3.712,0,6.727,3.036,6.727,6.782L98.054,143.263    L98.054,143.263z"
   id="path4713"
   stroke-width="0.0882"
   stroke="#060506"
   fill="#F7F7F7" />
<g
   id="gzh">
		<path
   d="M11.692,31.708c-0.809,0-1.803,1.026-2.344,1.667c0-0.263,1.814-1.952,1.814-2.862    c0-1.167-0.926-2.115-2.07-2.115S7.02,29.345,7.02,30.512c0.001,0.91,1.817,2.599,1.815,2.862    c-0.54-0.639-1.536-1.667-2.343-1.667c-1.174,0-2.124,0.969-2.124,2.167c0,1.196,0.95,2.167,2.124,2.167    c0.804,0,1.788-1.015,2.33-1.654c-0.012,0.67-0.043,1.289-0.103,1.488c-0.232,0.747-0.254,0.676-0.756,1.611h2.258    c-0.506-0.933-0.524-0.864-0.757-1.611c-0.062-0.2-0.09-0.817-0.105-1.488c0.543,0.639,1.527,1.654,2.333,1.654    c1.17,0,2.122-0.97,2.122-2.167C13.816,32.677,12.864,31.708,11.692,31.708z"
   id="pathclovers"
   fill="#060506" />
		
		<g
   i:knockout="Off"
   id="g4718">
			<rect
   x="4.559"
   y="8.955"
   width="1.586"
   height="13.723"
   id="rect4720"
   fill="#060506" />
		</g>
		
		<g
   i:knockout="Off"
   id="g4726">
			<path
   d="M7.55,12.855v6.682c0,2.587,1.141,3.898,3.392,3.898c2.25,0,3.39-1.312,3.39-3.898v-6.682     c0-2.588-1.14-3.901-3.39-3.901C8.692,8.955,7.55,10.267,7.55,12.855z M9.137,19.543v-6.696c0-1.625,0.59-2.415,1.805-2.415     c1.215,0,1.806,0.79,1.806,2.415v6.696c0,1.626-0.59,2.417-1.806,2.417C9.728,21.96,9.137,21.169,9.137,19.543z"
   id="path4728"
   fill="#060506" />
		</g>
		
		<path
   d="M36.791,23.661c-1.896,0-4.225,2.584-5.492,4.193c0-0.664,4.25-4.911,4.25-7.205    c0-2.935-2.17-5.318-4.852-5.318c-2.68,0-4.853,2.383-4.853,5.318c0.003,2.294,4.257,6.542,4.254,7.205    c-1.269-1.608-3.599-4.193-5.493-4.193c-2.748,0-4.977,2.437-4.977,5.452c0.005,3.004,2.229,5.45,4.977,5.45    c1.884,0,4.191-2.554,5.462-4.163c-0.03,1.689-0.102,3.248-0.243,3.746c-0.544,1.881-0.594,1.707-1.773,4.059h5.296    c-1.187-2.353-1.232-2.178-1.772-4.059c-0.147-0.498-0.217-2.057-0.25-3.742c1.274,1.605,3.579,4.159,5.467,4.159    c2.744,0,4.973-2.446,4.973-5.45C41.766,26.098,39.537,23.661,36.791,23.661z"
   id="pathcloverb"
   fill="#060506" />

<use
   xlink:href="#pathcloverb"
   x="73.497002"
   y="23.660999"
   id="use4802"
   transform="translate(-36.793002,-23.660999)"
   width="98.098999"
   height="150.08701" />

<use
   xlink:href="#pathcloverb"
   x="173.49701"
   y="23.660999"
   id="use4803"
   transform="translate(-136.79301,8.2790007)"
   width="98.098999"
   height="150.08701" />
<use
   xlink:href="#pathcloverb"
   x="73.497009"
   y="23.660999"
   id="use4859"
   transform="translate(-73.497009,8.2790007)"
   width="98.098999"
   height="150.08701" />

<use
   xlink:href="#pathcloverb"
   x="173.49701"
   y="23.660999"
   id="use5056"
   transform="translate(-155.14501,-6.8045748)"
   width="98.098999"
   height="150.08701" />

</g>
<use
   xlink:href="#gzh"
   x="20"
   y="20"
   id="use5200"
   transform="matrix(-1,0,0,-1,118.097,166.10249)"
   width="98.098999"
   height="150.08701" />

		
	</g>
</g>
</svg>