<?xml version="1.0" encoding="UTF-8" standalone="no"?>
<!-- Generator: Adobe Illustrator 12.0.0, SVG Export Plug-In . SVG Version: 6.00 Build 51448)  -->
<svg
   xmlns:dc="http://purl.org/dc/elements/1.1/"
   xmlns:cc="http://web.resource.org/cc/"
   xmlns:rdf="http://www.w3.org/1999/02/22-rdf-syntax-ns#"
   xmlns:svg="http://www.w3.org/2000/svg"
   xmlns="http://www.w3.org/2000/svg"
   xmlns:xlink="http://www.w3.org/1999/xlink"
   xmlns:sodipodi="http://sodipodi.sourceforge.net/DTD/sodipodi-0.dtd"
   xmlns:inkscape="http://www.inkscape.org/namespaces/inkscape"
   version="1.1"
   id="图层_1"
   width="98.104"
   height="150.086"
   viewBox="-156.492 5.312 98.104 150.086"
   overflow="visible"
   enable-background="new -156.492 5.312 98.104 150.086"
   xml:space="preserve"
   sodipodi:version="0.32"
   inkscape:version="0.45.1"
   sodipodi:docname="11.svg"
   sodipodi:docbase="/home/zhangxin/桌面/简化版扑克"
   inkscape:output_extension="org.inkscape.output.svg.inkscape"><metadata
     id="metadata646"><rdf:RDF><cc:Work
         rdf:about=""><dc:format>image/svg+xml</dc:format><dc:type
           rdf:resource="http://purl.org/dc/dcmitype/StillImage" /></cc:Work></rdf:RDF></metadata><defs
     id="defs644"><radialGradient
   inkscape:collect="always"
   xlink:href="#XMLID_16_"
   id="radialGradient3552"
   gradientUnits="userSpaceOnUse"
   gradientTransform="matrix(-1.1726,1.9e-3,-1.11e-2,1.1386,823.07322,1438.2245)"
   cx="792.768"
   cy="-1171.498"
   r="12.0934" /><radialGradient
   inkscape:collect="always"
   xlink:href="#XMLID_15_"
   id="radialGradient3558"
   gradientUnits="userSpaceOnUse"
   gradientTransform="matrix(-1.1726,1.9e-3,-9.5e-3,0.9671,823.58642,1449.5728)"
   cx="799.3608"
   cy="-1387.8926"
   r="14.6775" /><radialGradient
   inkscape:collect="always"
   xlink:href="#XMLID_15_"
   id="radialGradient14326"
   gradientUnits="userSpaceOnUse"
   gradientTransform="matrix(1.1726,-1.9e-3,9.5e-3,-0.9671,-1038.207,-1289.8774)"
   cx="799.3608"
   cy="-1387.8926"
   r="14.6775" /><radialGradient
   inkscape:collect="always"
   xlink:href="#XMLID_16_"
   id="radialGradient14328"
   gradientUnits="userSpaceOnUse"
   gradientTransform="matrix(1.1726,-1.9e-3,1.11e-2,-1.1386,-1037.6938,-1278.5291)"
   cx="792.768"
   cy="-1171.498"
   r="12.0934" /><radialGradient
   inkscape:collect="always"
   xlink:href="#XMLID_16_"
   id="radialGradient14666"
   gradientUnits="userSpaceOnUse"
   gradientTransform="matrix(-1.1726,1.9e-3,-1.11e-2,1.1386,822.69865,1437.7937)"
   cx="792.768"
   cy="-1171.498"
   r="12.0934" /><radialGradient
   inkscape:collect="always"
   xlink:href="#XMLID_15_"
   id="radialGradient14672"
   gradientUnits="userSpaceOnUse"
   gradientTransform="matrix(-1.1726,1.9e-3,-9.5e-3,0.9671,823.21185,1449.142)"
   cx="799.3608"
   cy="-1387.8926"
   r="14.6775" /><radialGradient
   inkscape:collect="always"
   xlink:href="#XMLID_16_"
   id="radialGradient16736"
   gradientUnits="userSpaceOnUse"
   gradientTransform="matrix(1.1726,-1.9e-3,1.11e-2,-1.1386,-1037.6938,-1278.5291)"
   cx="792.768"
   cy="-1171.498"
   r="12.0934" /><radialGradient
   inkscape:collect="always"
   xlink:href="#XMLID_15_"
   id="radialGradient16742"
   gradientUnits="userSpaceOnUse"
   gradientTransform="matrix(1.1726,-1.9e-3,9.5e-3,-0.9671,-1038.207,-1289.8774)"
   cx="799.3608"
   cy="-1387.8926"
   r="14.6775" /><radialGradient
   inkscape:collect="always"
   xlink:href="#XMLID_15_"
   id="radialGradient20037"
   gradientUnits="userSpaceOnUse"
   gradientTransform="matrix(1.1726,-1.9e-3,9.5e-3,-0.9671,-1038.207,-1289.8774)"
   cx="799.3608"
   cy="-1387.8926"
   r="14.6775" /><radialGradient
   inkscape:collect="always"
   xlink:href="#XMLID_16_"
   id="radialGradient20039"
   gradientUnits="userSpaceOnUse"
   gradientTransform="matrix(1.1726,-1.9e-3,1.11e-2,-1.1386,-1037.6938,-1278.5291)"
   cx="792.768"
   cy="-1171.498"
   r="12.0934" /><radialGradient
   inkscape:collect="always"
   xlink:href="#XMLID_16_"
   id="radialGradient20095"
   gradientUnits="userSpaceOnUse"
   gradientTransform="matrix(1.1726,-1.9e-3,1.11e-2,-1.1386,-1037.6938,-1278.5291)"
   cx="792.768"
   cy="-1171.498"
   r="12.0934" /><radialGradient
   inkscape:collect="always"
   xlink:href="#XMLID_15_"
   id="radialGradient20101"
   gradientUnits="userSpaceOnUse"
   gradientTransform="matrix(1.1726,-1.9e-3,9.5e-3,-0.9671,-1038.207,-1289.8774)"
   cx="799.3608"
   cy="-1387.8926"
   r="14.6775" /><radialGradient
   inkscape:collect="always"
   xlink:href="#XMLID_15_"
   id="radialGradient20426"
   gradientUnits="userSpaceOnUse"
   gradientTransform="matrix(1.1726,-1.9e-3,9.5e-3,-0.9671,-1038.207,-1289.8774)"
   cx="799.3608"
   cy="-1387.8926"
   r="14.6775" /><radialGradient
   inkscape:collect="always"
   xlink:href="#XMLID_16_"
   id="radialGradient20428"
   gradientUnits="userSpaceOnUse"
   gradientTransform="matrix(1.1726,-1.9e-3,1.11e-2,-1.1386,-1037.6938,-1278.5291)"
   cx="792.768"
   cy="-1171.498"
   r="12.0934" /><radialGradient
   inkscape:collect="always"
   xlink:href="#XMLID_15_"
   id="radialGradient23305"
   gradientUnits="userSpaceOnUse"
   gradientTransform="matrix(1.1726,-1.9e-3,9.5e-3,-0.9671,-1038.207,-1289.8774)"
   cx="799.3608"
   cy="-1387.8926"
   r="14.6775" /><radialGradient
   inkscape:collect="always"
   xlink:href="#XMLID_16_"
   id="radialGradient23307"
   gradientUnits="userSpaceOnUse"
   gradientTransform="matrix(1.1726,-1.9e-3,1.11e-2,-1.1386,-1037.6938,-1278.5291)"
   cx="792.768"
   cy="-1171.498"
   r="12.0934" /><radialGradient
   r="14.6775"
   cy="-1387.8926"
   cx="799.3608"
   gradientTransform="matrix(-1.1726,1.9e-3,-9.5e-3,0.9671,823.58642,1449.5728)"
   gradientUnits="userSpaceOnUse"
   id="radialGradient25266"
   xlink:href="#XMLID_15_"
   inkscape:collect="always" /><radialGradient
   r="12.0934"
   cy="-1171.498"
   cx="792.768"
   gradientTransform="matrix(-1.1726,1.9e-3,-1.11e-2,1.1386,823.07322,1438.2245)"
   gradientUnits="userSpaceOnUse"
   id="radialGradient25264"
   xlink:href="#XMLID_16_"
   inkscape:collect="always" /><radialGradient
   inkscape:collect="always"
   xlink:href="#XMLID_15_"
   id="radialGradient25934"
   gradientUnits="userSpaceOnUse"
   gradientTransform="matrix(1.1726,-1.9e-3,9.5e-3,-0.9671,-1038.1845,-1289.3959)"
   cx="799.3608"
   cy="-1387.8926"
   r="14.6775" /><radialGradient
   inkscape:collect="always"
   xlink:href="#XMLID_16_"
   id="radialGradient25936"
   gradientUnits="userSpaceOnUse"
   gradientTransform="matrix(1.1726,-1.9e-3,1.11e-2,-1.1386,-1037.6713,-1278.0476)"
   cx="792.768"
   cy="-1171.498"
   r="12.0934" /><radialGradient
   r="14.6775"
   cy="-1387.8926"
   cx="799.3608"
   gradientTransform="matrix(1.1726,-1.9e-3,9.5e-3,-0.9671,-1038.207,-1289.8774)"
   gradientUnits="userSpaceOnUse"
   id="radialGradient4298"
   xlink:href="#XMLID_15_"
   inkscape:collect="always" /><radialGradient
   r="12.0934"
   cy="-1171.498"
   cx="792.768"
   gradientTransform="matrix(1.1726,-1.9e-3,1.11e-2,-1.1386,-1037.6938,-1278.5291)"
   gradientUnits="userSpaceOnUse"
   id="radialGradient4292"
   xlink:href="#XMLID_16_"
   inkscape:collect="always" /><radialGradient
   r="14.6775"
   cy="-1387.8926"
   cx="799.3608"
   gradientTransform="matrix(-1.1726,1.9e-3,-9.5e-3,0.9671,823.58642,1449.5728)"
   gradientUnits="userSpaceOnUse"
   id="radialGradient2576"
   xlink:href="#XMLID_15_"
   inkscape:collect="always" /><radialGradient
   r="12.0934"
   cy="-1171.498"
   cx="792.768"
   gradientTransform="matrix(-1.1726,1.9e-3,-1.11e-2,1.1386,823.07322,1438.2245)"
   gradientUnits="userSpaceOnUse"
   id="radialGradient2574"
   xlink:href="#XMLID_16_"
   inkscape:collect="always" /><radialGradient
   inkscape:collect="always"
   xlink:href="#XMLID_15_"
   id="radialGradient3066"
   gradientUnits="userSpaceOnUse"
   gradientTransform="matrix(-1.1726,1.9e-3,-9.5e-3,0.9671,823.58642,1449.5728)"
   cx="799.3608"
   cy="-1387.8926"
   r="14.6775" /><radialGradient
   inkscape:collect="always"
   xlink:href="#XMLID_16_"
   id="radialGradient3068"
   gradientUnits="userSpaceOnUse"
   gradientTransform="matrix(-1.1726,1.9e-3,-1.11e-2,1.1386,823.07322,1438.2245)"
   cx="792.768"
   cy="-1171.498"
   r="12.0934" /><radialGradient
   inkscape:collect="always"
   xlink:href="#XMLID_15_"
   id="radialGradient3297"
   gradientUnits="userSpaceOnUse"
   gradientTransform="matrix(1.1726,-1.9e-3,9.5e-3,-0.9671,-1038.207,-1289.8774)"
   cx="799.3608"
   cy="-1387.8926"
   r="14.6775" /><radialGradient
   inkscape:collect="always"
   xlink:href="#XMLID_16_"
   id="radialGradient3299"
   gradientUnits="userSpaceOnUse"
   gradientTransform="matrix(1.1726,-1.9e-3,1.11e-2,-1.1386,-1037.6938,-1278.5291)"
   cx="792.768"
   cy="-1171.498"
   r="12.0934" /><radialGradient
   inkscape:collect="always"
   xlink:href="#XMLID_16_"
   id="radialGradient3351"
   gradientUnits="userSpaceOnUse"
   gradientTransform="matrix(1.1726,-1.9e-3,1.11e-2,-1.1386,-1037.6713,-1278.0476)"
   cx="792.768"
   cy="-1171.498"
   r="12.0934" /><radialGradient
   inkscape:collect="always"
   xlink:href="#XMLID_15_"
   id="radialGradient3357"
   gradientUnits="userSpaceOnUse"
   gradientTransform="matrix(1.1726,-1.9e-3,9.5e-3,-0.9671,-1038.1845,-1289.3959)"
   cx="799.3608"
   cy="-1387.8926"
   r="14.6775" /><radialGradient
   inkscape:collect="always"
   xlink:href="#XMLID_16_"
   id="radialGradient3488"
   gradientUnits="userSpaceOnUse"
   gradientTransform="matrix(-1.1726,1.9e-3,-1.11e-2,1.1386,823.09572,1438.706)"
   cx="792.768"
   cy="-1171.498"
   r="12.0934" /><radialGradient
   inkscape:collect="always"
   xlink:href="#XMLID_15_"
   id="radialGradient3494"
   gradientUnits="userSpaceOnUse"
   gradientTransform="matrix(-1.1726,1.9e-3,-9.5e-3,0.9671,823.60892,1450.0543)"
   cx="799.3608"
   cy="-1387.8926"
   r="14.6775" />
	

	

	

	

	

	

	

	

	

	

	

	

	

	

	
<radialGradient
   inkscape:collect="always"
   xlink:href="#XMLID_15_"
   id="radialGradient3050"
   gradientUnits="userSpaceOnUse"
   gradientTransform="matrix(1.1726,-1.9e-3,9.5e-3,-0.9671,-1038.1845,-1289.3959)"
   cx="799.3608"
   cy="-1387.8926"
   r="14.6775" /><radialGradient
   inkscape:collect="always"
   xlink:href="#XMLID_16_"
   id="radialGradient3052"
   gradientUnits="userSpaceOnUse"
   gradientTransform="matrix(1.1726,-1.9e-3,1.11e-2,-1.1386,-1037.6713,-1278.0476)"
   cx="792.768"
   cy="-1171.498"
   r="12.0934" /><radialGradient
   inkscape:collect="always"
   xlink:href="#XMLID_15_"
   id="radialGradient4054"
   gradientUnits="userSpaceOnUse"
   gradientTransform="matrix(1.1726,-1.9e-3,9.5e-3,-0.9671,-1038.1845,-1289.3959)"
   cx="799.3608"
   cy="-1387.8926"
   r="14.6775" /><radialGradient
   inkscape:collect="always"
   xlink:href="#XMLID_16_"
   id="radialGradient4056"
   gradientUnits="userSpaceOnUse"
   gradientTransform="matrix(1.1726,-1.9e-3,1.11e-2,-1.1386,-1037.6713,-1278.0476)"
   cx="792.768"
   cy="-1171.498"
   r="12.0934" /><radialGradient
   inkscape:collect="always"
   xlink:href="#XMLID_15_"
   id="radialGradient4426"
   gradientUnits="userSpaceOnUse"
   gradientTransform="matrix(1.1726,-1.9e-3,9.5e-3,-0.9671,-1038.1845,-1289.3959)"
   cx="799.3608"
   cy="-1387.8926"
   r="14.6775" /><radialGradient
   inkscape:collect="always"
   xlink:href="#XMLID_16_"
   id="radialGradient4428"
   gradientUnits="userSpaceOnUse"
   gradientTransform="matrix(1.1726,-1.9e-3,1.11e-2,-1.1386,-1037.6713,-1278.0476)"
   cx="792.768"
   cy="-1171.498"
   r="12.0934" /><radialGradient
   inkscape:collect="always"
   xlink:href="#XMLID_15_"
   id="radialGradient4614"
   gradientUnits="userSpaceOnUse"
   gradientTransform="matrix(1.1726,-1.9e-3,9.5e-3,-0.9671,-1038.1845,-1289.3959)"
   cx="799.3608"
   cy="-1387.8926"
   r="14.6775" /><radialGradient
   inkscape:collect="always"
   xlink:href="#XMLID_16_"
   id="radialGradient4616"
   gradientUnits="userSpaceOnUse"
   gradientTransform="matrix(1.1726,-1.9e-3,1.11e-2,-1.1386,-1037.6713,-1278.0476)"
   cx="792.768"
   cy="-1171.498"
   r="12.0934" /><radialGradient
   inkscape:collect="always"
   xlink:href="#XMLID_15_"
   id="radialGradient4798"
   gradientUnits="userSpaceOnUse"
   gradientTransform="matrix(1.1726,-1.9e-3,9.5e-3,-0.9671,-1038.1845,-1289.3959)"
   cx="799.3608"
   cy="-1387.8926"
   r="14.6775" /><radialGradient
   inkscape:collect="always"
   xlink:href="#XMLID_16_"
   id="radialGradient4800"
   gradientUnits="userSpaceOnUse"
   gradientTransform="matrix(1.1726,-1.9e-3,1.11e-2,-1.1386,-1037.6713,-1278.0476)"
   cx="792.768"
   cy="-1171.498"
   r="12.0934" /><radialGradient
   inkscape:collect="always"
   xlink:href="#XMLID_15_"
   id="radialGradient5170"
   gradientUnits="userSpaceOnUse"
   gradientTransform="matrix(1.1726,-1.9e-3,9.5e-3,-0.9671,-1038.1845,-1289.3959)"
   cx="799.3608"
   cy="-1387.8926"
   r="14.6775" /><radialGradient
   inkscape:collect="always"
   xlink:href="#XMLID_16_"
   id="radialGradient5172"
   gradientUnits="userSpaceOnUse"
   gradientTransform="matrix(1.1726,-1.9e-3,1.11e-2,-1.1386,-1037.6713,-1278.0476)"
   cx="792.768"
   cy="-1171.498"
   r="12.0934" /><radialGradient
   inkscape:collect="always"
   xlink:href="#XMLID_15_"
   id="radialGradient5732"
   gradientUnits="userSpaceOnUse"
   gradientTransform="matrix(1.1726,-1.9e-3,9.5e-3,-0.9671,-1036.1845,-1289.3959)"
   cx="799.3608"
   cy="-1387.8926"
   r="14.6775" /><radialGradient
   inkscape:collect="always"
   xlink:href="#XMLID_16_"
   id="radialGradient5734"
   gradientUnits="userSpaceOnUse"
   gradientTransform="matrix(1.1726,-1.9e-3,1.11e-2,-1.1386,-1035.6713,-1278.0476)"
   cx="792.768"
   cy="-1171.498"
   r="12.0934" /><radialGradient
   r="12.0934"
   cy="-1171.498"
   cx="792.768"
   gradientTransform="matrix(1.1726,-1.9e-3,1.11e-2,-1.1386,-1035.6713,-1278.0476)"
   gradientUnits="userSpaceOnUse"
   id="radialGradient6449"
   xlink:href="#XMLID_16_"
   inkscape:collect="always" /><radialGradient
   r="14.6775"
   cy="-1387.8926"
   cx="799.3608"
   gradientTransform="matrix(1.1726,-1.9e-3,9.5e-3,-0.9671,-1036.1845,-1289.3959)"
   gradientUnits="userSpaceOnUse"
   id="radialGradient6447"
   xlink:href="#XMLID_15_"
   inkscape:collect="always" /><radialGradient
   r="12.0934"
   cy="-1171.498"
   cx="792.768"
   gradientTransform="matrix(1.1726,-1.9e-3,1.11e-2,-1.1386,-1035.6713,-1278.0476)"
   gradientUnits="userSpaceOnUse"
   id="radialGradient6445"
   xlink:href="#XMLID_16_"
   inkscape:collect="always" /><radialGradient
   r="14.6775"
   cy="-1387.8926"
   cx="799.3608"
   gradientTransform="matrix(1.1726,-1.9e-3,9.5e-3,-0.9671,-1036.1845,-1289.3959)"
   gradientUnits="userSpaceOnUse"
   id="radialGradient6443"
   xlink:href="#XMLID_15_"
   inkscape:collect="always" /><radialGradient
   r="12.0934"
   cy="-1171.498"
   cx="792.768"
   gradientTransform="matrix(1.1726,-1.9e-3,1.11e-2,-1.1386,-1037.6713,-1278.0476)"
   gradientUnits="userSpaceOnUse"
   id="radialGradient6441"
   xlink:href="#XMLID_16_"
   inkscape:collect="always" /><radialGradient
   r="14.6775"
   cy="-1387.8926"
   cx="799.3608"
   gradientTransform="matrix(1.1726,-1.9e-3,9.5e-3,-0.9671,-1038.1845,-1289.3959)"
   gradientUnits="userSpaceOnUse"
   id="radialGradient6439"
   xlink:href="#XMLID_15_"
   inkscape:collect="always" /><radialGradient
   r="12.0934"
   cy="-1171.498"
   cx="792.768"
   gradientTransform="matrix(1.1726,-1.9e-3,1.11e-2,-1.1386,-1037.6713,-1278.0476)"
   gradientUnits="userSpaceOnUse"
   id="radialGradient6437"
   xlink:href="#XMLID_16_"
   inkscape:collect="always" /><radialGradient
   r="14.6775"
   cy="-1387.8926"
   cx="799.3608"
   gradientTransform="matrix(1.1726,-1.9e-3,9.5e-3,-0.9671,-1038.1845,-1289.3959)"
   gradientUnits="userSpaceOnUse"
   id="radialGradient6435"
   xlink:href="#XMLID_15_"
   inkscape:collect="always" /><radialGradient
   r="12.0934"
   cy="-1171.498"
   cx="792.768"
   gradientTransform="matrix(1.1726,-1.9e-3,1.11e-2,-1.1386,-1037.6713,-1278.0476)"
   gradientUnits="userSpaceOnUse"
   id="radialGradient6433"
   xlink:href="#XMLID_16_"
   inkscape:collect="always" /><radialGradient
   r="14.6775"
   cy="-1387.8926"
   cx="799.3608"
   gradientTransform="matrix(1.1726,-1.9e-3,9.5e-3,-0.9671,-1038.1845,-1289.3959)"
   gradientUnits="userSpaceOnUse"
   id="radialGradient6431"
   xlink:href="#XMLID_15_"
   inkscape:collect="always" /><radialGradient
   r="12.0934"
   cy="-1171.498"
   cx="792.768"
   gradientTransform="matrix(1.1726,-1.9e-3,1.11e-2,-1.1386,-1037.6713,-1278.0476)"
   gradientUnits="userSpaceOnUse"
   id="radialGradient6429"
   xlink:href="#XMLID_16_"
   inkscape:collect="always" /><radialGradient
   r="14.6775"
   cy="-1387.8926"
   cx="799.3608"
   gradientTransform="matrix(1.1726,-1.9e-3,9.5e-3,-0.9671,-1038.1845,-1289.3959)"
   gradientUnits="userSpaceOnUse"
   id="radialGradient6427"
   xlink:href="#XMLID_15_"
   inkscape:collect="always" /><radialGradient
   r="12.0934"
   cy="-1171.498"
   cx="792.768"
   gradientTransform="matrix(1.1726,-1.9e-3,1.11e-2,-1.1386,-1037.6713,-1278.0476)"
   gradientUnits="userSpaceOnUse"
   id="radialGradient6425"
   xlink:href="#XMLID_16_"
   inkscape:collect="always" /><radialGradient
   r="14.6775"
   cy="-1387.8926"
   cx="799.3608"
   gradientTransform="matrix(1.1726,-1.9e-3,9.5e-3,-0.9671,-1038.1845,-1289.3959)"
   gradientUnits="userSpaceOnUse"
   id="radialGradient6423"
   xlink:href="#XMLID_15_"
   inkscape:collect="always" /><radialGradient
   r="12.0934"
   cy="-1171.498"
   cx="792.768"
   gradientTransform="matrix(1.1726,-1.9e-3,1.11e-2,-1.1386,-1037.6713,-1278.0476)"
   gradientUnits="userSpaceOnUse"
   id="radialGradient6421"
   xlink:href="#XMLID_16_"
   inkscape:collect="always" /><radialGradient
   r="14.6775"
   cy="-1387.8926"
   cx="799.3608"
   gradientTransform="matrix(1.1726,-1.9e-3,9.5e-3,-0.9671,-1038.1845,-1289.3959)"
   gradientUnits="userSpaceOnUse"
   id="radialGradient6419"
   xlink:href="#XMLID_15_"
   inkscape:collect="always" />
	

	

	

	

	

	

	

	

	

	

	

	

	

	

	
<radialGradient
   r="14.6775"
   cy="-1387.8926"
   cx="799.3608"
   gradientTransform="matrix(-1.1726,1.9e-3,-9.5e-3,0.9671,823.60892,1450.0543)"
   gradientUnits="userSpaceOnUse"
   id="radialGradient6417"
   xlink:href="#XMLID_15_"
   inkscape:collect="always" /><radialGradient
   r="12.0934"
   cy="-1171.498"
   cx="792.768"
   gradientTransform="matrix(-1.1726,1.9e-3,-1.11e-2,1.1386,823.09572,1438.706)"
   gradientUnits="userSpaceOnUse"
   id="radialGradient6415"
   xlink:href="#XMLID_16_"
   inkscape:collect="always" /><radialGradient
   r="14.6775"
   cy="-1387.8926"
   cx="799.3608"
   gradientTransform="matrix(1.1726,-1.9e-3,9.5e-3,-0.9671,-1038.1845,-1289.3959)"
   gradientUnits="userSpaceOnUse"
   id="radialGradient6413"
   xlink:href="#XMLID_15_"
   inkscape:collect="always" /><radialGradient
   r="12.0934"
   cy="-1171.498"
   cx="792.768"
   gradientTransform="matrix(1.1726,-1.9e-3,1.11e-2,-1.1386,-1037.6713,-1278.0476)"
   gradientUnits="userSpaceOnUse"
   id="radialGradient6411"
   xlink:href="#XMLID_16_"
   inkscape:collect="always" /><radialGradient
   r="12.0934"
   cy="-1171.498"
   cx="792.768"
   gradientTransform="matrix(1.1726,-1.9e-3,1.11e-2,-1.1386,-1037.6938,-1278.5291)"
   gradientUnits="userSpaceOnUse"
   id="radialGradient6409"
   xlink:href="#XMLID_16_"
   inkscape:collect="always" /><radialGradient
   r="14.6775"
   cy="-1387.8926"
   cx="799.3608"
   gradientTransform="matrix(1.1726,-1.9e-3,9.5e-3,-0.9671,-1038.207,-1289.8774)"
   gradientUnits="userSpaceOnUse"
   id="radialGradient6407"
   xlink:href="#XMLID_15_"
   inkscape:collect="always" /><radialGradient
   r="12.0934"
   cy="-1171.498"
   cx="792.768"
   gradientTransform="matrix(-1.1726,1.9e-3,-1.11e-2,1.1386,823.07322,1438.2245)"
   gradientUnits="userSpaceOnUse"
   id="radialGradient6405"
   xlink:href="#XMLID_16_"
   inkscape:collect="always" /><radialGradient
   r="14.6775"
   cy="-1387.8926"
   cx="799.3608"
   gradientTransform="matrix(-1.1726,1.9e-3,-9.5e-3,0.9671,823.58642,1449.5728)"
   gradientUnits="userSpaceOnUse"
   id="radialGradient6403"
   xlink:href="#XMLID_15_"
   inkscape:collect="always" /><radialGradient
   inkscape:collect="always"
   xlink:href="#XMLID_16_"
   id="radialGradient6401"
   gradientUnits="userSpaceOnUse"
   gradientTransform="matrix(-1.1726,1.9e-3,-1.11e-2,1.1386,823.07322,1438.2245)"
   cx="792.768"
   cy="-1171.498"
   r="12.0934" /><radialGradient
   inkscape:collect="always"
   xlink:href="#XMLID_15_"
   id="radialGradient6399"
   gradientUnits="userSpaceOnUse"
   gradientTransform="matrix(-1.1726,1.9e-3,-9.5e-3,0.9671,823.58642,1449.5728)"
   cx="799.3608"
   cy="-1387.8926"
   r="14.6775" /><radialGradient
   inkscape:collect="always"
   xlink:href="#XMLID_16_"
   id="radialGradient6397"
   gradientUnits="userSpaceOnUse"
   gradientTransform="matrix(1.1726,-1.9e-3,1.11e-2,-1.1386,-1037.6938,-1278.5291)"
   cx="792.768"
   cy="-1171.498"
   r="12.0934" /><radialGradient
   inkscape:collect="always"
   xlink:href="#XMLID_15_"
   id="radialGradient6395"
   gradientUnits="userSpaceOnUse"
   gradientTransform="matrix(1.1726,-1.9e-3,9.5e-3,-0.9671,-1038.207,-1289.8774)"
   cx="799.3608"
   cy="-1387.8926"
   r="14.6775" /><radialGradient
   r="12.0934"
   cy="-1171.498"
   cx="792.768"
   gradientTransform="matrix(1.1726,-1.9e-3,1.11e-2,-1.1386,-1037.6713,-1278.0476)"
   gradientUnits="userSpaceOnUse"
   id="radialGradient6393"
   xlink:href="#XMLID_16_"
   inkscape:collect="always" /><radialGradient
   r="14.6775"
   cy="-1387.8926"
   cx="799.3608"
   gradientTransform="matrix(1.1726,-1.9e-3,9.5e-3,-0.9671,-1038.1845,-1289.3959)"
   gradientUnits="userSpaceOnUse"
   id="radialGradient6391"
   xlink:href="#XMLID_15_"
   inkscape:collect="always" /><radialGradient
   inkscape:collect="always"
   xlink:href="#XMLID_16_"
   id="radialGradient6389"
   gradientUnits="userSpaceOnUse"
   gradientTransform="matrix(-1.1726,1.9e-3,-1.11e-2,1.1386,823.07322,1438.2245)"
   cx="792.768"
   cy="-1171.498"
   r="12.0934" /><radialGradient
   inkscape:collect="always"
   xlink:href="#XMLID_15_"
   id="radialGradient6387"
   gradientUnits="userSpaceOnUse"
   gradientTransform="matrix(-1.1726,1.9e-3,-9.5e-3,0.9671,823.58642,1449.5728)"
   cx="799.3608"
   cy="-1387.8926"
   r="14.6775" /><radialGradient
   r="12.0934"
   cy="-1171.498"
   cx="792.768"
   gradientTransform="matrix(1.1726,-1.9e-3,1.11e-2,-1.1386,-1037.6938,-1278.5291)"
   gradientUnits="userSpaceOnUse"
   id="radialGradient6385"
   xlink:href="#XMLID_16_"
   inkscape:collect="always" /><radialGradient
   r="14.6775"
   cy="-1387.8926"
   cx="799.3608"
   gradientTransform="matrix(1.1726,-1.9e-3,9.5e-3,-0.9671,-1038.207,-1289.8774)"
   gradientUnits="userSpaceOnUse"
   id="radialGradient6383"
   xlink:href="#XMLID_15_"
   inkscape:collect="always" /><radialGradient
   r="12.0934"
   cy="-1171.498"
   cx="792.768"
   gradientTransform="matrix(1.1726,-1.9e-3,1.11e-2,-1.1386,-1037.6938,-1278.5291)"
   gradientUnits="userSpaceOnUse"
   id="radialGradient6381"
   xlink:href="#XMLID_16_"
   inkscape:collect="always" /><radialGradient
   r="14.6775"
   cy="-1387.8926"
   cx="799.3608"
   gradientTransform="matrix(1.1726,-1.9e-3,9.5e-3,-0.9671,-1038.207,-1289.8774)"
   gradientUnits="userSpaceOnUse"
   id="radialGradient6379"
   xlink:href="#XMLID_15_"
   inkscape:collect="always" /><radialGradient
   r="14.6775"
   cy="-1387.8926"
   cx="799.3608"
   gradientTransform="matrix(1.1726,-1.9e-3,9.5e-3,-0.9671,-1038.207,-1289.8774)"
   gradientUnits="userSpaceOnUse"
   id="radialGradient6377"
   xlink:href="#XMLID_15_"
   inkscape:collect="always" /><radialGradient
   r="12.0934"
   cy="-1171.498"
   cx="792.768"
   gradientTransform="matrix(1.1726,-1.9e-3,1.11e-2,-1.1386,-1037.6938,-1278.5291)"
   gradientUnits="userSpaceOnUse"
   id="radialGradient6375"
   xlink:href="#XMLID_16_"
   inkscape:collect="always" /><radialGradient
   r="12.0934"
   cy="-1171.498"
   cx="792.768"
   gradientTransform="matrix(1.1726,-1.9e-3,1.11e-2,-1.1386,-1037.6938,-1278.5291)"
   gradientUnits="userSpaceOnUse"
   id="radialGradient6373"
   xlink:href="#XMLID_16_"
   inkscape:collect="always" /><radialGradient
   r="14.6775"
   cy="-1387.8926"
   cx="799.3608"
   gradientTransform="matrix(1.1726,-1.9e-3,9.5e-3,-0.9671,-1038.207,-1289.8774)"
   gradientUnits="userSpaceOnUse"
   id="radialGradient6371"
   xlink:href="#XMLID_15_"
   inkscape:collect="always" /><radialGradient
   r="14.6775"
   cy="-1387.8926"
   cx="799.3608"
   gradientTransform="matrix(1.1726,-1.9e-3,9.5e-3,-0.9671,-1038.207,-1289.8774)"
   gradientUnits="userSpaceOnUse"
   id="radialGradient6369"
   xlink:href="#XMLID_15_"
   inkscape:collect="always" /><radialGradient
   r="12.0934"
   cy="-1171.498"
   cx="792.768"
   gradientTransform="matrix(1.1726,-1.9e-3,1.11e-2,-1.1386,-1037.6938,-1278.5291)"
   gradientUnits="userSpaceOnUse"
   id="radialGradient6367"
   xlink:href="#XMLID_16_"
   inkscape:collect="always" /><radialGradient
   r="14.6775"
   cy="-1387.8926"
   cx="799.3608"
   gradientTransform="matrix(-1.1726,1.9e-3,-9.5e-3,0.9671,823.21185,1449.142)"
   gradientUnits="userSpaceOnUse"
   id="radialGradient6365"
   xlink:href="#XMLID_15_"
   inkscape:collect="always" /><radialGradient
   r="12.0934"
   cy="-1171.498"
   cx="792.768"
   gradientTransform="matrix(-1.1726,1.9e-3,-1.11e-2,1.1386,822.69865,1437.7937)"
   gradientUnits="userSpaceOnUse"
   id="radialGradient6363"
   xlink:href="#XMLID_16_"
   inkscape:collect="always" /><radialGradient
   r="12.0934"
   cy="-1171.498"
   cx="792.768"
   gradientTransform="matrix(1.1726,-1.9e-3,1.11e-2,-1.1386,-1037.6938,-1278.5291)"
   gradientUnits="userSpaceOnUse"
   id="radialGradient6361"
   xlink:href="#XMLID_16_"
   inkscape:collect="always" /><radialGradient
   r="14.6775"
   cy="-1387.8926"
   cx="799.3608"
   gradientTransform="matrix(1.1726,-1.9e-3,9.5e-3,-0.9671,-1038.207,-1289.8774)"
   gradientUnits="userSpaceOnUse"
   id="radialGradient6359"
   xlink:href="#XMLID_15_"
   inkscape:collect="always" /><radialGradient
   r="14.6775"
   cy="-1387.8926"
   cx="799.3608"
   gradientTransform="matrix(-1.1726,1.9e-3,-9.5e-3,0.9671,823.58642,1449.5728)"
   gradientUnits="userSpaceOnUse"
   id="radialGradient6357"
   xlink:href="#XMLID_15_"
   inkscape:collect="always" /><radialGradient
   r="12.0934"
   cy="-1171.498"
   cx="792.768"
   gradientTransform="matrix(-1.1726,1.9e-3,-1.11e-2,1.1386,823.07322,1438.2245)"
   gradientUnits="userSpaceOnUse"
   id="radialGradient6355"
   xlink:href="#XMLID_16_"
   inkscape:collect="always" /><radialGradient
   inkscape:collect="always"
   xlink:href="#XMLID_15_"
   id="radialGradient6709"
   gradientUnits="userSpaceOnUse"
   gradientTransform="matrix(1.1726,-1.9e-3,9.5e-3,-0.9671,-1036.1845,-1289.3959)"
   cx="799.3608"
   cy="-1387.8926"
   r="14.6775" /><radialGradient
   inkscape:collect="always"
   xlink:href="#XMLID_16_"
   id="radialGradient6711"
   gradientUnits="userSpaceOnUse"
   gradientTransform="matrix(1.1726,-1.9e-3,1.11e-2,-1.1386,-1035.6713,-1278.0476)"
   cx="792.768"
   cy="-1171.498"
   r="12.0934" /><radialGradient
   inkscape:collect="always"
   xlink:href="#XMLID_16_"
   id="radialGradient2456"
   gradientUnits="userSpaceOnUse"
   gradientTransform="matrix(1.1726,-1.9e-3,1.11e-2,-1.1386,-1037.6713,-1278.0476)"
   cx="792.768"
   cy="-1171.498"
   r="12.0934" /><radialGradient
   inkscape:collect="always"
   xlink:href="#XMLID_15_"
   id="radialGradient2462"
   gradientUnits="userSpaceOnUse"
   gradientTransform="matrix(1.1726,-1.9e-3,9.5e-3,-0.9671,-1038.1845,-1289.3959)"
   cx="799.3608"
   cy="-1387.8926"
   r="14.6775" /><radialGradient
   inkscape:collect="always"
   xlink:href="#XMLID_16_"
   id="radialGradient2701"
   gradientUnits="userSpaceOnUse"
   gradientTransform="matrix(1.1726,-1.9e-3,1.11e-2,-1.1386,-1037.6713,-1278.0476)"
   cx="792.768"
   cy="-1171.498"
   r="12.0934" /><radialGradient
   inkscape:collect="always"
   xlink:href="#XMLID_15_"
   id="radialGradient2707"
   gradientUnits="userSpaceOnUse"
   gradientTransform="matrix(1.1726,-1.9e-3,9.5e-3,-0.9671,-1038.1845,-1289.3959)"
   cx="799.3608"
   cy="-1387.8926"
   r="14.6775" /></defs><sodipodi:namedview
     inkscape:window-height="713"
     inkscape:window-width="1024"
     inkscape:pageshadow="2"
     inkscape:pageopacity="0.0"
     guidetolerance="10.0"
     gridtolerance="10.0"
     objecttolerance="10.0"
     borderopacity="1.0"
     bordercolor="#666666"
     pagecolor="#ffffff"
     id="base"
     inkscape:zoom="3.2714577"
     inkscape:cx="82.977108"
     inkscape:cy="77.134203"
     inkscape:window-x="0"
     inkscape:window-y="0"
     inkscape:current-layer="图层_1"
     showguides="true"
     inkscape:guide-bbox="true" /><radialGradient
     id="XMLID_13_"
     cx="-841.5074"
     cy="4572.7397"
     r="14.676"
     gradientTransform="matrix(-1.1537 0.0645 0.0575 1.0007 -1332.9583 -4412.9204)"
     gradientUnits="userSpaceOnUse"><stop
       offset="0"
       style="stop-color:#FFFFFF"
       id="stop398" /><stop
       offset="0.0614"
       style="stop-color:#F6F4F0"
       id="stop400" /><stop
       offset="0.1786"
       style="stop-color:#DFD8C9"
       id="stop402" /><stop
       offset="0.2753"
       style="stop-color:#CABDA5"
       id="stop404" /><stop
       offset="1"
       style="stop-color:#5A3D1B"
       id="stop406" /></radialGradient><radialGradient
     id="XMLID_14_"
     cx="-847.5411"
     cy="3891.2065"
     r="12.0951"
     gradientTransform="matrix(-1.1537 0.0645 0.0677 1.1781 -1333.707 -4424.2939)"
     gradientUnits="userSpaceOnUse"><stop
       offset="0"
       style="stop-color:#FFFFFF"
       id="stop417" /><stop
       offset="0.246"
       style="stop-color:#F4F4F0"
       id="stop419" /><stop
       offset="0.7158"
       style="stop-color:#D9D8C9"
       id="stop421" /><stop
       offset="1"
       style="stop-color:#C6C4AF"
       id="stop423" /></radialGradient><radialGradient
     id="XMLID_15_"
     cx="799.3608"
     cy="-1387.8926"
     r="14.6775"
     gradientTransform="matrix(1.1726 -0.0019 0.0095 -0.9671 -1038.207 -1289.8774)"
     gradientUnits="userSpaceOnUse"><stop
       offset="0"
       style="stop-color:#FFFFFF"
       id="stop460" /><stop
       offset="0.0614"
       style="stop-color:#F6F4F0"
       id="stop462" /><stop
       offset="0.1786"
       style="stop-color:#DFD8C9"
       id="stop464" /><stop
       offset="0.2753"
       style="stop-color:#CABDA5"
       id="stop466" /><stop
       offset="1"
       style="stop-color:#5A3D1B"
       id="stop468" /></radialGradient><radialGradient
     id="XMLID_16_"
     cx="792.768"
     cy="-1171.498"
     r="12.0934"
     gradientTransform="matrix(1.1726 -0.0019 0.0111 -1.1386 -1037.6938 -1278.5291)"
     gradientUnits="userSpaceOnUse"><stop
       offset="0"
       style="stop-color:#FFFFFF"
       id="stop479" /><stop
       offset="0.246"
       style="stop-color:#F4F4F0"
       id="stop481" /><stop
       offset="0.7158"
       style="stop-color:#D9D8C9"
       id="stop483" /><stop
       offset="1"
       style="stop-color:#C6C4AF"
       id="stop485" /></radialGradient><path
     style="fill:#f7f7f7;stroke:#060506;stroke-width:0.0882"
     d="M -58.4145,148.5595 C -58.4145,152.3015 -61.4305,155.3355 -65.1425,155.3355 L -149.7025,155.3355 C -153.4165,155.3355 -156.4295,152.3025 -156.4295,148.5595 L -156.4295,12.122502 C -156.4295,8.3775021 -153.4175,5.3405021 -149.7025,5.3405021 L -65.1395,5.3405021 C -61.4275,5.3405021 -58.4115,8.3765021 -58.4115,12.122502 L -58.4145,148.5595 L -58.4145,148.5595 z "
     id="path2584" /><g
     id="g2744"
     inkscape:tile-w="66.508999"
     inkscape:tile-h="73.077667"
     inkscape:tile-cx="46.940998"
     inkscape:tile-cy="54.336638"><path
       id="path5810"
       d="M -76.2965,59.827502 L -76.2965,89.265502 C -76.2965,89.265502 -84.6695,89.796502 -85.4315,80.025502 C -86.4205,67.305502 -76.2965,59.827502 -76.2965,59.827502 z "
       style="fill:#212462" /><path
       id="path5750"
       d="M -137.2665,95.072502 C -137.0805,95.176502 -136.9665,95.375502 -136.9665,95.593502 L -136.9665,38.163502 C -136.9665,38.495502 -137.2295,38.760502 -137.5505,38.760502 L -133.4375,38.760502 C -133.7595,38.760502 -134.0225,38.494502 -134.0225,38.163502 L -134.0225,93.014502 C -134.0225,92.811502 -133.9185,92.618502 -133.7495,92.500502 L -137.8595,95.080502 C -137.6775,94.969502 -137.4535,94.964502 -137.2665,95.072502 z M -138.1375,38.162502 L -138.1375,95.590502 C -138.1375,95.813502 -138.0265,96.006502 -137.8395,96.111502 C -137.6515,96.215502 -137.4285,96.214502 -137.2455,96.097502 L -133.1325,93.515502 C -132.9575,93.411502 -132.8535,93.212502 -132.8535,93.003502 L -132.8535,38.153502 C -132.8535,37.823502 -133.1195,37.556502 -133.4375,37.556502 L -137.5515,37.556502 C -137.8755,37.563502 -138.1375,37.831502 -138.1375,38.162502 z "
       style="fill:#060506" /><polygon
       id="polygon5752"
       points="-137.574,37.681 -135.519,37.681 -135.519,93.817 -137.574,95.108 -137.574,37.681 "
       style="fill:#cfcbc8"
       transform="translate(2.25e-2,0.4815021)" /><path
       id="path5754"
       d="M -137.7475,37.960502 L -137.7475,38.159502 L -137.7475,95.589502 L -137.7475,95.943502 L -137.4505,95.755502 L -135.3885,94.460502 L -135.2935,94.398502 L -135.2935,94.291502 L -135.2935,38.155502 L -135.2935,37.956502 L -135.4885,37.956502 L -137.5475,37.956502 L -137.7475,37.960502 L -137.7475,37.960502 z M -137.3565,95.589502 L -137.3565,38.163502 L -137.5495,38.363502 L -135.4915,38.363502 L -135.6825,38.163502 L -135.6825,94.303502 L -135.5895,94.131502 L -137.6515,95.422502 L -137.3565,95.589502 z "
       style="fill:#777777" /><path
       id="path5756"
       d="M -135.7705,80.340502 L -78.9625,80.340502 C -78.9625,64.337502 -91.6785,51.361502 -107.3645,51.361502 C -123.0525,51.361502 -135.7705,64.337502 -135.7705,80.340502 z "
       style="fill:#060506" /><polygon
       id="polygon5758"
       points="-108.436,73.794 -100.361,61.31 -98.328,57.636 -112.596,53.074 -120.672,65.558 -108.436,73.794 "
       style="fill:#ffffff"
       transform="translate(2.25e-2,0.4815021)" /><path
       id="path5760"
       d="M -108.6155,73.391502 L -119.8005,65.862502 L -112.3295,54.316502 L -99.2475,58.805502 L -108.6155,73.391502 z M -121.2535,66.165502 C -121.2195,66.327502 -121.1255,66.471502 -120.9885,66.562502 L -108.7525,74.798502 C -108.4685,74.990502 -108.0875,74.910502 -107.8985,74.620502 L -97.5655,57.773502 L -112.2345,53.028502 C -112.5175,52.837502 -112.8995,52.916502 -113.0885,53.207502 L -121.1665,65.691502 C -121.2545,65.831502 -121.2865,66.001502 -121.2535,66.165502 z "
       style="fill:#060506" /><polygon
       id="polygon5762"
       points="-109.144,70.269 -103.817,62.035 -111.888,56.6 -117.213,64.835 -109.144,70.269 "
       style="fill:#060506"
       transform="translate(2.25e-2,0.4815021)" /><path
       id="path5766"
       d="M -95.0635,53.956502 L -86.5845,55.894502 C -93.4285,62.949502 -93.9885,73.992502 -93.6355,80.409502 L -102.6565,77.388502 C -104.7045,72.255502 -101.8045,61.244502 -95.0635,53.956502 z "
       style="fill:#d90000" /><path
       id="path5768"
       d="M -87.2405,55.808502 L -77.0355,58.872502 C -85.0255,66.018502 -86.0385,75.030502 -85.7735,80.411502 L -94.2825,80.411502 C -96.4495,62.046502 -87.2405,55.808502 -87.2405,55.808502 z "
       style="fill:#ffffff" /><path
       id="path5770"
       d="M -87.5425,55.262502 C -87.3965,55.178502 -87.2245,55.157502 -87.0635,55.205502 L -76.8565,58.268502 C -76.6385,58.331502 -76.4775,58.511502 -76.4265,58.737502 C -76.3765,58.960502 -76.4505,59.193502 -76.6205,59.342502 C -84.3915,66.296502 -85.3795,75.151502 -85.1355,80.409502 L -86.3645,80.409502 C -86.5935,75.068502 -85.9805,66.203502 -77.9665,59.295502 L -79.1245,58.898502 C -79.8815,59.635502 -80.5935,60.385502 -81.2175,61.155502 L -83.6595,60.227502 C -83.3675,59.837502 -83.0645,59.449502 -82.7465,59.064502 L -83.7095,58.697502 C -84.4825,59.567502 -85.1845,60.458502 -85.7985,61.362502 L -84.7445,61.785502 C -84.4735,61.359502 -84.1825,60.935502 -83.8755,60.515502 L -81.4285,61.420502 C -82.5745,62.864502 -83.4985,64.351502 -84.2465,65.847502 L -86.5075,65.064502 C -86.2085,64.401502 -85.8865,63.740502 -85.5235,63.082502 L -86.6275,62.660502 C -87.5525,64.210502 -88.2725,65.781502 -88.8155,67.338502 L -87.5385,67.712502 C -87.3035,66.992502 -87.0245,66.269502 -86.7225,65.543502 L -84.4935,66.330502 C -85.4895,68.429502 -86.1395,70.537502 -86.5555,72.558502 L -88.5765,72.068502 C -88.4725,71.417502 -88.3475,70.758502 -88.1995,70.089502 L -89.5115,69.613502 C -89.9275,71.239502 -90.1805,72.825502 -90.3125,74.323502 L -88.8635,74.520502 C -88.8155,73.892502 -88.7535,73.244502 -88.6545,72.584502 L -86.6595,73.079502 C -87.1385,75.715502 -87.2215,78.179502 -87.1225,80.267502 L -88.7895,80.268502 C -88.8875,79.320502 -88.9455,78.254502 -88.9595,77.099502 L -90.4455,77.045502 C -90.4535,78.274502 -90.3835,79.405502 -90.2935,80.410502 L -90.7785,80.367502 C -92.0625,68.785502 -86.8615,60.732502 -83.4255,57.578502 L -85.7485,56.910502 C -88.9775,60.164502 -93.8515,67.362502 -92.4795,80.410502 L -93.6605,80.410502 L -94.2825,80.410502 L -94.8975,80.410502 C -97.0585,61.793502 -87.6505,55.325502 -87.5425,55.262502 z "
       style="fill:#060506" /><path
       id="path5772"
       d="M -136.0325,61.164502 L -130.4615,56.233502 C -118.9645,62.410502 -111.4405,79.347502 -112.7405,80.338502 L -120.4635,80.409502 C -122.6985,74.683502 -127.6465,64.697502 -136.0325,61.164502 z "
       style="fill:#d90000" /><path
       id="path5774"
       d="M -142.1885,67.671502 C -134.1405,67.456502 -129.2135,74.455502 -126.4835,80.408502 L -132.6715,80.408502 C -136.1035,77.189502 -139.5545,76.582502 -139.5545,76.582502 L -142.1885,67.671502 z "
       style="fill:#0e0f6a" /><path
       id="path5778"
       d="M -127.6895,75.018502 C -127.3475,75.560502 -127.0345,76.102502 -126.7455,76.638502 L -125.8525,75.907502 C -126.5625,74.640502 -127.3695,73.136502 -128.4495,71.843502 L -129.2975,72.666502 C -128.9085,73.191502 -128.3045,74.063502 -127.9625,74.594502 L -129.3165,75.847502 C -130.4535,74.235502 -131.8085,72.646502 -133.4235,71.204502 L -132.0525,69.708502 C -131.5215,70.222502 -130.8815,70.829502 -130.1565,71.595502 L -129.2875,70.718502 C -130.3415,69.572502 -131.9235,68.093502 -133.2645,67.104502 L -133.9485,67.925502 C -133.3955,68.354502 -132.8865,68.806502 -132.3865,69.269502 L -133.8115,70.878502 C -134.9995,69.866502 -136.3135,68.934502 -137.7765,68.128502 L -136.2565,66.334502 C -135.8495,66.580502 -135.4545,66.832502 -135.0685,67.097502 L -134.4265,66.296502 C -135.2675,65.751502 -136.1615,65.251502 -137.1145,64.799502 L -137.7095,65.517502 C -137.3055,65.723502 -136.9175,65.942502 -136.5355,66.167502 L -138.0405,67.978502 C -139.1045,67.410502 -140.2565,66.911502 -141.4785,66.489502 L -139.6455,64.645502 C -139.4325,64.731502 -139.2105,64.809502 -138.9995,64.902502 L -138.4525,64.215502 C -138.6345,64.143502 -138.8275,64.078502 -139.0135,64.010502 L -138.1745,64.267502 C -134.6145,64.971502 -127.3585,68.871502 -123.2915,80.340502 L -123.8375,80.268502 C -124.1085,79.576502 -124.3975,79.073502 -124.7485,78.308502 L -125.6285,78.873502 C -125.3895,79.401502 -125.1735,79.914502 -124.9755,80.408502 L -126.6635,80.408502 C -127.3075,79.073502 -128.0765,77.670502 -129.0245,76.267502 L -127.6895,75.018502 z "
       style="fill:#060506" /><path
       id="path5782"
       d="M -126.3575,39.709502 C -133.2015,53.538502 -132.6615,58.745502 -131.4675,60.694502 C -130.8385,61.720502 -129.1985,66.146502 -129.3395,66.127502 C -131.6745,65.797502 -133.7965,64.618502 -134.3265,62.945502 C -136.7605,55.262502 -129.1025,40.419502 -129.1025,40.419502 L -126.3575,39.709502 z "
       style="fill:#ff8600" /><path
       id="path5784"
       d="M -126.8855,39.475502 C -133.6275,53.100502 -133.3735,58.694502 -131.9755,60.985502 C -131.4135,61.906502 -130.2595,65.600502 -130.0795,65.629502 C -131.7965,65.807502 -133.3085,64.209502 -133.7675,62.778502 C -136.1025,55.398502 -128.6605,40.809502 -128.5795,40.664502 C -128.6545,40.810502 -128.7945,40.919502 -128.9585,40.963502 L -126.2075,40.252502 C -126.4295,40.309502 -126.6605,40.238502 -126.8065,40.073502 C -126.9555,39.908502 -126.9835,39.670502 -126.8855,39.475502 z M -129.6335,40.173502 C -129.9495,40.790502 -137.3625,55.307502 -134.8895,63.113502 C -134.2995,64.970502 -131.7435,67.683502 -128.8175,66.072502 C -128.1295,65.693502 -130.9345,60.452502 -130.9645,60.404502 C -131.9935,58.717502 -132.6935,53.818502 -125.8305,39.941502 C -125.7295,39.744502 -125.7625,39.512502 -125.9065,39.343502 C -126.0515,39.179502 -126.2815,39.109502 -126.5035,39.165502 L -129.2555,39.875502 C -129.4195,39.921502 -129.5575,40.032502 -129.6335,40.173502 z "
       style="fill:#060506" /><path
       id="path5786"
       d="M -124.5485,39.559502 C -131.3925,53.388502 -130.8505,58.597502 -129.6595,60.544502 C -129.0305,61.573502 -127.3885,65.996502 -127.5305,65.976502 C -129.8665,65.648502 -131.9835,64.469502 -132.5135,62.795502 C -134.9515,55.112502 -127.2935,40.268502 -127.2935,40.268502 L -124.5485,39.559502 z "
       style="fill:#ff8600" /><path
       id="path5788"
       d="M -125.0775,39.326502 C -131.8185,52.952502 -131.5635,58.544502 -130.1675,60.836502 C -129.6045,61.757502 -128.4525,65.454502 -128.2715,65.479502 C -129.9915,65.658502 -131.5035,64.060502 -131.9605,62.628502 C -134.2975,55.249502 -126.8505,40.663502 -126.7725,40.517502 C -126.8445,40.663502 -126.9885,40.772502 -127.1505,40.812502 L -124.3985,40.104502 C -124.6235,40.160502 -124.8495,40.091502 -124.9985,39.924502 C -125.1425,39.755502 -125.1735,39.523502 -125.0775,39.326502 z M -127.8235,40.030502 C -128.1365,40.643502 -135.5525,55.163502 -133.0805,62.968502 C -132.4905,64.827502 -129.9325,67.542502 -127.0085,65.928502 C -126.3205,65.548502 -129.1245,60.307502 -129.1555,60.259502 C -130.1815,58.573502 -130.8845,53.674502 -124.0185,39.796502 C -123.9195,39.601502 -123.9535,39.367502 -124.0945,39.202502 C -124.2405,39.034502 -124.4695,38.964502 -124.6935,39.020502 L -127.4435,39.730502 C -127.6085,39.771502 -127.7475,39.879502 -127.8235,40.030502 z "
       style="fill:#060506" /><path
       id="path5790"
       d="M -122.6315,39.587502 C -129.4755,53.416502 -128.9345,58.622502 -127.7435,60.572502 C -127.1155,61.599502 -125.4725,66.024502 -125.6165,66.005502 C -127.9525,65.675502 -130.0725,64.497502 -130.5995,62.823502 C -133.0365,55.142502 -125.3785,40.297502 -125.3785,40.297502 L -122.6315,39.587502 z "
       style="fill:#ff8600" /><path
       id="path5792"
       d="M -123.1605,39.351502 C -129.9015,52.975502 -129.6475,58.570502 -128.2525,60.862502 C -127.6905,61.781502 -126.5365,65.477502 -126.3565,65.505502 C -128.0745,65.683502 -129.5885,64.085502 -130.0445,62.654502 C -132.3805,55.273502 -124.9355,40.685502 -124.8565,40.541502 C -124.9295,40.686502 -125.0725,40.796502 -125.2335,40.839502 L -122.4815,40.129502 C -122.7075,40.185502 -122.9345,40.114502 -123.0825,39.948502 C -123.2285,39.785502 -123.2565,39.551502 -123.1605,39.351502 z M -125.9085,40.055502 C -126.2205,40.668502 -133.6365,55.187502 -131.1635,62.993502 C -130.5725,64.851502 -128.0145,67.564502 -125.0925,65.953502 C -124.4045,65.574502 -127.2095,60.333502 -127.2405,60.285502 C -128.2655,58.599502 -128.9695,53.699502 -122.1015,39.823502 C -122.0025,39.626502 -122.0385,39.392502 -122.1775,39.225502 C -122.3235,39.059502 -122.5525,38.989502 -122.7765,39.047502 L -125.5295,39.755502 C -125.6925,39.798502 -125.8315,39.910502 -125.9085,40.055502 z "
       style="fill:#060506" /><path
       id="path5794"
       d="M -120.5185,39.407502 C -127.3665,53.235502 -126.8255,58.444502 -125.6305,60.390502 C -125.0035,61.419502 -123.3595,65.845502 -123.5035,65.824502 C -125.8395,65.494502 -127.9575,64.316502 -128.4895,62.641502 C -130.9225,54.960502 -123.2665,40.117502 -123.2665,40.117502 L -120.5185,39.407502 z "
       style="fill:#ff8600" /><path
       id="path5796"
       d="M -121.0475,39.169502 C -127.7885,52.795502 -127.5355,58.386502 -126.1385,60.677502 C -125.5765,61.597502 -124.4235,65.295502 -124.2425,65.323502 C -125.9565,65.501502 -127.4715,63.901502 -127.9305,62.471502 C -130.2665,55.090502 -122.8255,40.503502 -122.7445,40.358502 C -122.8155,40.504502 -122.9575,40.613502 -123.1225,40.656502 L -120.3705,39.945502 C -120.5945,40.002502 -120.8235,39.931502 -120.9705,39.764502 C -121.1175,39.600502 -121.1435,39.369502 -121.0475,39.169502 z M -123.7945,39.872502 C -124.1065,40.486502 -131.5235,55.007502 -129.0505,62.810502 C -128.4595,64.669502 -125.9035,67.385502 -122.9775,65.770502 C -122.2895,65.391502 -125.0965,60.151502 -125.1245,60.103502 C -126.1545,58.418502 -126.8545,53.518502 -119.9915,39.641502 C -119.8885,39.444502 -119.9245,39.210502 -120.0635,39.045502 C -120.2095,38.878502 -120.4395,38.808502 -120.6635,38.866502 L -123.4135,39.574502 C -123.5805,39.619502 -123.7185,39.725502 -123.7945,39.872502 z "
       style="fill:#060506" /><path
       id="path5798"
       d="M -118.3895,39.073502 C -125.2345,52.900502 -124.6935,58.110502 -123.5025,60.058502 C -122.8725,61.084502 -121.2315,65.510502 -121.3715,65.490502 C -123.7105,65.160502 -125.8275,63.983502 -126.3575,62.307502 C -128.7945,54.627502 -121.1345,39.783502 -121.1345,39.783502 L -118.3895,39.073502 z "
       style="fill:#ff8600" /><polygon
       id="polygon5812"
       points="-133.461,37.681 -133.461,92.531 -135.519,93.817 -135.519,37.681 -133.461,37.681 "
       style="fill:#ffffff"
       transform="translate(2.25e-2,0.4815021)" /><path
       id="path5814"
       d="M -88.7405,34.447502 C -88.7215,34.447502 -88.7195,34.447502 -88.7055,34.447502 C -87.7675,34.447502 -86.6855,35.258502 -85.8095,36.118502 C -85.4005,36.516502 -85.0365,36.927502 -84.7455,37.269502 C -84.7425,36.824502 -87.8125,33.963502 -87.8175,32.419502 C -87.8175,30.442502 -86.2505,28.836502 -84.3045,28.836502 C -82.3665,28.836502 -80.7965,30.443502 -80.7965,32.419502 C -80.7965,33.962502 -83.8715,36.822502 -83.8715,37.269502 C -83.5795,36.926502 -83.2115,36.517502 -82.8015,36.118502 C -81.9145,35.258502 -80.8345,34.447502 -79.9055,34.447502 C -79.8875,34.447502 -79.8845,34.447502 -79.8765,34.447502 C -77.9025,34.464502 -76.3145,36.096502 -76.3145,38.115502 C -76.3145,40.139502 -77.9265,41.784502 -79.9155,41.784502 C -81.2705,41.784502 -82.9385,40.065502 -83.8595,38.986502 C -83.8505,39.427502 -83.8385,39.861502 -83.8175,40.239502 C -83.8175,40.254502 -83.8175,40.266502 -83.8165,40.281502 C -83.8105,40.382502 -83.8055,40.478502 -83.7995,40.573502 C -83.7725,40.958502 -83.7375,41.264502 -83.6955,41.446502 C -83.6895,41.467502 -83.6855,41.487502 -83.6775,41.506502 C -83.2815,42.771502 -83.2515,42.653502 -82.3965,44.238502 L -86.2235,44.238502 C -85.3695,42.653502 -85.3325,42.769502 -84.9435,41.506502 C -84.9365,41.485502 -84.9315,41.462502 -84.9245,41.439502 C -84.8845,41.257502 -84.8505,40.952502 -84.8205,40.569502 C -84.8095,40.479502 -84.8045,40.382502 -84.7995,40.285502 C -84.7975,40.270502 -84.7975,40.259502 -84.7975,40.244502 C -84.7765,39.862502 -84.7665,39.429502 -84.7565,38.983502 C -85.6765,40.064502 -87.3435,41.784502 -88.7035,41.784502 C -90.6865,41.784502 -92.3035,40.139502 -92.3055,38.115502 C -92.3035,36.096502 -90.7085,34.464502 -88.7405,34.447502 z "
       style="fill:#060506" /><path
       style="fill:url(#radialGradient2707)"
       d="M -96.8285,51.289502 C -96.9015,59.127502 -104.6745,65.496502 -114.1795,65.511502 C -123.6845,65.526502 -131.3275,59.183502 -131.2505,51.344502 C -131.1745,43.504502 -123.4065,37.137502 -113.8985,37.121502 C -104.3965,37.107502 -96.7535,43.451502 -96.8285,51.289502 z "
       id="path5816" /><path
       style="fill:#f4ecd6;stroke:#dad2c0;stroke-width:0.17640001"
       d="M -112.0795,42.826502 C -112.0795,42.826502 -113.4295,37.510502 -122.0145,41.108502 C -130.6015,44.704502 -125.6185,52.341502 -125.6185,52.341502 C -125.6185,52.341502 -122.3865,55.025502 -122.7205,55.905502 C -123.5965,58.233502 -123.0625,62.263502 -115.3605,62.830502 C -107.6605,63.394502 -107.3325,58.539502 -107.7445,57.731502 C -107.7445,57.731502 -99.1685,55.057502 -100.2235,48.239502 C -101.2715,41.419502 -109.2435,39.465502 -112.0795,42.826502 z "
       id="path5818" /><path
       style="fill:#ffffff;stroke:#c1a48c;stroke-width:0.17640001"
       d="M -122.6045,44.227502 C -122.6045,44.227502 -115.8305,39.130502 -115.0475,45.488502 C -114.2685,51.844502 -117.2475,55.550502 -121.1545,53.821502 C -125.0645,52.095502 -128.2595,48.976502 -122.6045,44.227502 z "
       id="path5820" /><path
       style="fill:#ffffff;stroke:#c1a48c;stroke-width:0.17640001"
       d="M -104.0245,46.762502 C -104.0245,46.762502 -107.7885,39.935502 -111.5865,45.540502 C -115.3895,51.144502 -114.4455,55.493502 -110.0105,55.134502 C -105.5795,54.776502 -101.1285,52.914502 -104.0245,46.762502 z "
       id="path5822" /><path
       style="fill:url(#radialGradient2701);stroke:#c1a48c;stroke-width:0.17640001"
       d="M -122.8815,59.164502 C -122.8815,59.164502 -123.1105,57.365502 -122.8605,56.859502 C -121.9785,55.095502 -118.3145,53.838502 -116.2935,55.696502 C -116.2935,55.696502 -115.3405,56.380502 -114.1215,55.628502 C -112.5455,54.657502 -107.4755,55.682502 -107.3185,57.468502 C -107.1275,59.641502 -108.7725,63.050502 -114.5185,63.060502 C -120.2655,63.068502 -122.4715,60.387502 -122.8815,59.164502 z "
       id="path5824" /><path
       style="fill:none;stroke:#b29d94;stroke-width:0.17640001"
       d="M -121.0315,58.100502 C -121.0315,58.100502 -116.4575,63.296502 -108.0405,59.815502"
       id="path5826" /><path
       style="fill:none;stroke:#c6afa4;stroke-width:0.17640001"
       d="M -115.7185,56.426502 C -115.7185,56.426502 -117.5505,58.035502 -115.7805,62.947502"
       id="path5828" /><path
       style="fill:#33a02c"
       d="M -116.4345,49.169502 C -116.4555,50.927502 -118.1945,52.356502 -120.3305,52.358502 C -122.4605,52.361502 -124.1755,50.939502 -124.1585,49.180502 C -124.1375,47.423502 -122.3955,45.994502 -120.2625,45.992502 C -118.1315,45.990502 -116.4175,47.414502 -116.4345,49.169502 z "
       id="path5832" /><path
       d="M -116.8275,48.997502 C -116.8425,50.559502 -118.3895,51.828502 -120.2855,51.831502 C -122.1795,51.833502 -123.7015,50.570502 -123.6835,49.008502 C -123.6645,47.446502 -122.1215,46.177502 -120.2245,46.174502 C -118.3335,46.167502 -116.8095,47.433502 -116.8275,48.997502 z "
       id="path5834" /><path
       style="fill:#33a02c"
       d="M -120.9625,49.957502 C -120.7155,50.377502 -120.8525,50.852502 -121.2625,51.019502 C -121.6735,51.187502 -122.2065,50.983502 -122.4525,50.562502 C -122.7005,50.142502 -122.5605,49.667502 -122.1555,49.500502 C -121.7435,49.333502 -121.2075,49.539502 -120.9625,49.957502 z "
       id="path5836" /><path
       style="opacity:0.86000001;fill:#ffffff"
       enable-background="new    "
       d="M -123.1135,48.585502 C -123.1135,48.585502 -122.8175,47.082502 -121.2735,46.964502 C -121.2735,46.964502 -120.4375,47.425502 -121.1375,47.541502 C -121.8405,47.658502 -122.2615,47.774502 -122.4085,48.584502 C -122.5585,49.392502 -123.1135,48.585502 -123.1135,48.585502 z "
       id="path5838" /><path
       style="opacity:0.86000001;fill:#ffffff"
       enable-background="new    "
       d="M -118.3135,49.886502 C -118.3185,50.270502 -118.4785,50.582502 -118.6715,50.581502 C -118.8645,50.582502 -119.0195,50.270502 -119.0145,49.888502 C -119.0115,49.505502 -118.8525,49.195502 -118.6605,49.195502 C -118.4675,49.194502 -118.3095,49.502502 -118.3135,49.886502 z "
       id="path5840" /><path
       style="fill:#33a02c"
       d="M -104.8415,50.927502 C -104.8625,52.684502 -106.6015,54.113502 -108.7355,54.115502 C -110.8695,54.118502 -112.5825,52.697502 -112.5615,50.937502 C -112.5445,49.179502 -110.8035,47.751502 -108.6725,47.749502 C -106.5395,47.747502 -104.8255,49.167502 -104.8415,50.927502 z "
       id="path5844" /><path
       d="M -105.2335,50.748502 C -105.2545,52.310502 -106.7955,53.580502 -108.6915,53.582502 C -110.5875,53.585502 -112.1085,52.321502 -112.0925,50.758502 C -112.0755,49.196502 -110.5305,47.928502 -108.6355,47.925502 C -106.7425,47.921502 -105.2175,49.186502 -105.2335,50.748502 z "
       id="path5846" /><path
       style="fill:#33a02c"
       d="M -109.3685,51.712502 C -109.1235,52.131502 -109.2585,52.608502 -109.6705,52.774502 C -110.0815,52.941502 -110.6145,52.737502 -110.8625,52.317502 C -111.1055,51.897502 -110.9685,51.421502 -110.5565,51.255502 C -110.1465,51.087502 -109.6155,51.293502 -109.3685,51.712502 z "
       id="path5848" /><path
       style="opacity:0.86000001;fill:#ffffff"
       enable-background="new    "
       d="M -111.5185,50.340502 C -111.5185,50.340502 -111.2235,48.836502 -109.6805,48.718502 C -109.6805,48.718502 -108.8445,49.179502 -109.5465,49.296502 C -110.2465,49.413502 -110.6685,49.529502 -110.8175,50.338502 C -110.9675,51.148502 -111.5185,50.340502 -111.5185,50.340502 z "
       id="path5850" /><path
       style="opacity:0.86000001;fill:#ffffff"
       enable-background="new    "
       d="M -106.7205,51.642502 C -106.7245,52.025502 -106.8855,52.335502 -107.0785,52.336502 C -107.2685,52.336502 -107.4255,52.026502 -107.4225,51.642502 C -107.4185,51.260502 -107.2585,50.950502 -107.0685,50.950502 C -106.8725,50.949502 -106.7185,51.256502 -106.7205,51.642502 z "
       id="path5852" /><path
       style="fill:#a9775d"
       d="M -115.9685,54.754502 C -116.0105,54.973502 -116.1615,55.134502 -116.3105,55.116502 C -116.4565,55.097502 -116.5405,54.907502 -116.4985,54.689502 C -116.4565,54.470502 -116.3045,54.309502 -116.1585,54.328502 C -116.0115,54.348502 -115.9265,54.539502 -115.9685,54.754502 z "
       id="path5854" /><path
       style="fill:#a9775d"
       d="M -115.0895,54.876502 C -115.1335,55.094502 -115.2845,55.256502 -115.4325,55.237502 C -115.5785,55.218502 -115.6615,55.029502 -115.6205,54.809502 C -115.5785,54.591502 -115.4275,54.429502 -115.2805,54.448502 C -115.1335,54.465502 -115.0485,54.659502 -115.0895,54.876502 z "
       id="path5856" /><path
       style="fill:#ff8600"
       d="M -110.0735,36.643502 C -105.3855,51.379502 -101.4115,54.690502 -99.2195,55.219502 C -98.0695,55.496502 -93.8475,57.462502 -93.9585,57.548502 C -95.8465,58.993502 -98.1635,59.677502 -99.6965,58.871502 C -106.7185,55.163502 -111.5295,39.124502 -111.5295,39.124502 L -110.0735,36.643502 z "
       id="path5858" /><path
       style="fill:#060506"
       d="M -110.6085,36.858502 C -105.9965,51.378502 -101.9595,55.165502 -99.3805,55.788502 C -98.3435,56.038502 -94.7475,57.905502 -94.4135,58.172502 C -94.4755,58.122502 -94.5885,57.971502 -94.5775,57.750502 C -94.5615,57.566502 -94.4735,57.399502 -94.3335,57.287502 C -96.0625,58.612502 -98.1045,59.038502 -99.4165,58.350502 C -106.1685,54.788502 -110.9455,39.080502 -110.9925,38.921502 C -110.9455,39.080502 -110.9695,39.256502 -111.0545,39.405502 L -109.5915,36.923502 C -109.7105,37.123502 -109.9235,37.240502 -110.1405,37.225502 C -110.3645,37.210502 -110.5405,37.069502 -110.6085,36.858502 z M -112.0775,39.331502 C -111.8785,39.994502 -107.1225,55.630502 -99.9775,59.395502 C -98.2805,60.292502 -95.8125,59.826502 -93.7055,58.209502 C -93.5225,58.070502 -93.4315,57.839502 -93.4645,57.619502 C -93.5835,56.832502 -99.0125,54.664502 -99.0685,54.652502 C -100.9645,54.196502 -104.8395,51.219502 -109.5455,36.433502 C -109.6095,36.222502 -109.7945,36.078502 -110.0125,36.064502 C -110.2295,36.048502 -110.4445,36.168502 -110.5595,36.364502 L -112.0255,38.844502 C -112.0995,38.994502 -112.1225,39.169502 -112.0775,39.331502 z "
       id="path5860" /><path
       style="fill:#ff8600"
       d="M -107.9635,35.701502 C -103.2755,50.437502 -99.3025,53.747502 -97.1095,54.276502 C -95.9585,54.552502 -91.7415,56.517502 -91.8475,56.604502 C -93.7415,58.047502 -96.0495,58.736502 -97.5805,57.928502 C -104.6065,54.221502 -109.4195,38.180502 -109.4195,38.180502 L -107.9635,35.701502 z "
       id="path5862" /><path
       style="fill:#060506"
       d="M -108.5025,35.914502 C -103.8875,50.434502 -99.8495,54.222502 -97.2735,54.843502 C -96.2415,55.094502 -92.6415,56.960502 -92.3045,57.227502 C -92.3665,57.178502 -92.4845,57.030502 -92.4685,56.807502 C -92.4585,56.624502 -92.3685,56.453502 -92.2255,56.342502 C -93.9545,57.666502 -95.9965,58.095502 -97.3085,57.406502 C -104.0655,53.844502 -108.8375,38.135502 -108.8875,37.977502 C -108.8385,38.135502 -108.8665,38.310502 -108.9495,38.460502 L -107.4845,35.981502 C -107.5985,36.178502 -107.8145,36.296502 -108.0335,36.281502 C -108.2505,36.267502 -108.4335,36.124502 -108.5025,35.914502 z M -109.9675,38.386502 C -109.7675,39.049502 -105.0095,54.685502 -97.8695,58.451502 C -96.1695,59.345502 -93.7035,58.880502 -91.5955,57.264502 C -91.4125,57.124502 -91.3245,56.893502 -91.3545,56.674502 C -91.4705,55.887502 -96.9075,53.719502 -96.9585,53.707502 C -98.8535,53.249502 -102.7295,50.273502 -107.4335,35.489502 C -107.4985,35.276502 -107.6815,35.133502 -107.8995,35.117502 C -108.1195,35.101502 -108.3345,35.219502 -108.4505,35.420502 L -109.9155,37.899502 C -109.9925,38.051502 -110.0135,38.225502 -109.9675,38.386502 z "
       id="path5864" /><path
       style="fill:#ff8600"
       d="M -105.8135,34.729502 C -101.1285,49.466502 -97.1575,52.775502 -94.9605,53.305502 C -93.8045,53.580502 -89.5855,55.546502 -89.6985,55.632502 C -91.5875,57.077502 -93.9025,57.762502 -95.4305,56.956502 C -102.4555,53.249502 -107.2655,37.209502 -107.2655,37.209502 L -105.8135,34.729502 z "
       id="path5866" /><path
       style="fill:#060506"
       d="M -106.3515,34.943502 C -101.7415,49.462502 -97.7055,53.250502 -95.1225,53.871502 C -94.0865,54.121502 -90.4925,55.988502 -90.1575,56.256502 C -90.2195,56.208502 -90.3325,56.054502 -90.3225,55.837502 C -90.3075,55.653502 -90.2185,55.483502 -90.0745,55.372502 C -91.8035,56.698502 -93.8455,57.123502 -95.1595,56.434502 C -101.9125,52.873502 -106.6865,37.165502 -106.7385,37.007502 C -106.6865,37.165502 -106.7155,37.341502 -106.8005,37.491502 L -105.3365,35.011502 C -105.4535,35.209502 -105.6675,35.325502 -105.8855,35.309502 C -106.1045,35.294502 -106.2855,35.155502 -106.3515,34.943502 z M -107.8165,37.414502 C -107.6195,38.078502 -102.8595,53.713502 -95.7185,57.479502 C -94.0205,58.375502 -91.5545,57.912502 -89.4475,56.293502 C -89.2595,56.157502 -89.1735,55.922502 -89.2055,55.704502 C -89.3225,54.917502 -94.7535,52.749502 -94.8075,52.735502 C -96.7035,52.279502 -100.5815,49.303502 -105.2865,34.518502 C -105.3485,34.307502 -105.5355,34.164502 -105.7515,34.148502 C -105.9685,34.133502 -106.1825,34.252502 -106.3005,34.450502 L -107.7635,36.929502 C -107.8425,37.081502 -107.8675,37.255502 -107.8165,37.414502 z "
       id="path5868" /><path
       style="fill:#ff8600"
       d="M -103.6385,33.984502 C -98.9505,48.721502 -94.9775,52.029502 -92.7835,52.559502 C -91.6335,52.836502 -87.4095,54.802502 -87.5195,54.888502 C -89.4095,56.332502 -91.7245,57.018502 -93.2555,56.213502 C -100.2795,52.504502 -105.0925,36.467502 -105.0925,36.467502 L -103.6385,33.984502 z "
       id="path5870" /><path
       style="fill:#060506"
       d="M -103.7945,35.010502 C -99.1845,49.531502 -95.1455,53.322502 -92.5655,53.941502 C -91.5305,54.190502 -87.9355,56.057502 -87.6005,56.326502 C -87.6625,56.276502 -87.7745,56.127502 -87.7635,55.906502 C -87.7545,55.721502 -87.6655,55.552502 -87.5195,55.442502 C -89.2485,56.769502 -91.2905,57.194502 -92.6025,56.504502 C -99.3545,52.942502 -104.1305,37.234502 -104.1795,37.077502 C -104.1305,37.234502 -104.1585,37.411502 -104.2415,37.561502 L -102.7755,35.079502 C -102.8905,35.279502 -103.1055,35.396502 -103.3255,35.381502 C -103.5465,35.367502 -103.7285,35.221502 -103.7945,35.010502 z M -105.2625,37.480502 C -105.0625,38.142502 -100.3055,53.779502 -93.1645,57.545502 C -91.4635,58.441502 -88.9985,57.977502 -86.8885,56.360502 C -86.7075,56.220502 -86.6165,55.989502 -86.6475,55.769502 C -86.7665,54.984502 -92.1975,52.817502 -92.2515,52.802502 C -94.1465,52.345502 -98.0225,49.371502 -102.7275,34.585502 C -102.7935,34.373502 -102.9755,34.231502 -103.1935,34.213502 C -103.4145,34.199502 -103.6305,34.317502 -103.7455,34.517502 L -105.2125,36.996502 C -105.2895,37.146502 -105.3095,37.326502 -105.2625,37.480502 z "
       id="path5872" /><path
       style="fill:#ff8600"
       d="M -101.5155,32.789502 C -96.8315,47.527502 -92.8555,50.836502 -90.6635,51.364502 C -89.5075,51.641502 -85.2895,53.608502 -85.3975,53.693502 C -87.2905,55.136502 -89.6015,55.824502 -91.1305,55.018502 C -98.1585,51.309502 -102.9705,35.271502 -102.9705,35.271502 L -101.5155,32.789502 z "
       id="path5874" /><path
       style="fill:#060506"
       d="M -102.0525,33.002502 C -97.4415,47.523502 -93.4065,51.311502 -90.8235,51.935502 C -89.7875,52.182502 -86.1895,54.050502 -85.8515,54.318502 C -85.9135,54.267502 -86.0335,54.117502 -86.0175,53.896502 C -86.0035,53.713502 -85.9135,53.544502 -85.7715,53.433502 C -87.5005,54.758502 -89.5425,55.183502 -90.8545,54.495502 C -97.6135,50.934502 -102.3805,35.225502 -102.4315,35.067502 C -102.3805,35.225502 -102.4105,35.404502 -102.4935,35.552502 L -101.0315,33.072502 C -101.1425,33.269502 -101.3605,33.387502 -101.5785,33.373502 C -101.8045,33.355502 -101.9885,33.211502 -102.0525,33.002502 z M -103.5165,35.475502 C -103.3255,36.138502 -98.5675,51.775502 -91.4205,55.538502 C -89.7195,56.434502 -87.2555,55.971502 -85.1485,54.352502 C -84.9645,54.215502 -84.8775,53.983502 -84.9095,53.763502 C -85.0255,52.976502 -90.4595,50.808502 -90.5135,50.796502 C -92.4095,50.339502 -96.2845,47.362502 -100.9925,32.577502 C -101.0545,32.366502 -101.2425,32.223502 -101.4615,32.208502 C -101.6785,32.191502 -101.8935,32.310502 -102.0095,32.509502 L -103.4685,34.991502 C -103.5425,35.140502 -103.5665,35.316502 -103.5165,35.475502 z "
       id="path5876" /><path
       style="fill:#ff8600"
       d="M -98.8655,33.267502 C -95.0825,44.579502 -91.8155,48.783502 -89.5945,50.239502 C -89.5945,50.239502 -90.0905,49.180502 -89.6515,48.445502 C -89.2135,47.711502 -87.8305,47.299502 -85.5055,48.985502 C -84.3115,49.849502 -83.7125,52.212502 -84.3475,53.355502 C -84.9915,54.499502 -87.0815,55.119502 -88.6595,54.297502 C -95.4695,50.743502 -100.2575,35.592502 -100.2575,35.592502 L -98.8655,33.267502 z "
       id="path5878" /><path
       style="fill:#060506"
       d="M -85.6885,47.989502 C -86.6265,47.259502 -87.9175,46.953502 -88.9645,47.208502 C -89.5805,47.354502 -90.0685,47.694502 -90.3285,48.158502 C -90.5165,48.488502 -90.6045,48.838502 -90.6225,49.196502 C -92.6945,46.690502 -95.3975,41.962502 -98.3235,33.050502 C -98.3855,32.842502 -98.5735,32.699502 -98.7885,32.686502 C -99.0055,32.672502 -99.2175,32.790502 -99.3375,32.986502 L -100.7195,35.308502 C -100.8125,35.459502 -100.8315,35.641502 -100.7815,35.803502 C -100.5835,36.430502 -95.8435,51.208502 -88.9275,54.819502 C -87.9895,55.314502 -86.7415,55.318502 -85.6155,54.834502 C -84.6475,54.420502 -83.9225,53.713502 -83.6115,52.893502 C -82.9085,51.006502 -84.2885,49.076502 -85.6885,47.989502 z M -84.6615,52.531502 C -84.8495,53.031502 -85.3335,53.481502 -85.9885,53.760502 C -86.8005,54.110502 -87.7175,54.115502 -88.3735,53.774502 C -94.4515,50.600502 -98.9775,37.582502 -99.6285,35.629502 L -99.0245,34.610502 C -96.3665,42.467502 -93.5515,47.964502 -90.6705,50.943502 C -88.7895,52.880502 -87.3805,53.209502 -86.7215,53.177502 C -86.7155,53.177502 -86.7085,53.183502 -86.7005,53.183502 C -86.7085,53.181502 -86.7135,53.180502 -86.7195,53.177502 C -86.5805,53.171502 -86.4795,53.153502 -86.4075,53.126502 C -86.3485,53.121502 -86.3035,53.118502 -86.2555,53.099502 C -85.5535,52.818502 -85.3865,52.336502 -85.3495,52.074502 C -85.1905,50.954502 -86.7935,49.775502 -87.4955,49.321502 C -87.7535,49.154502 -88.0995,49.242502 -88.2745,49.514502 C -88.4615,49.791502 -88.3885,50.152502 -88.1325,50.317502 L -88.1325,50.317502 C -87.2975,50.863502 -86.5165,51.635502 -86.4705,51.949502 C -86.4915,51.964502 -86.5325,51.985502 -86.5875,52.010502 C -87.2615,51.890502 -88.8505,50.917502 -89.3615,49.802502 C -89.5495,49.387502 -89.5505,49.024502 -89.3745,48.698502 C -89.2865,48.541502 -89.0645,48.409502 -88.7825,48.341502 C -88.1745,48.195502 -87.2025,48.320502 -86.4035,48.936502 C -85.2095,49.859502 -84.2095,51.331502 -84.6615,52.531502 z "
       id="path5880" /><path
       style="fill:#d90000"
       d="M -132.3685,36.421502 C -131.6705,37.400502 -130.2905,38.103502 -128.9085,37.351502 C -127.9295,36.822502 -127.5355,35.661502 -127.8585,34.217502 L -129.0375,29.735502 C -128.5165,29.445502 -127.9715,29.172502 -127.4015,28.912502 C -126.6305,30.444502 -124.7965,34.084502 -124.7865,34.100502 C -124.2165,35.158502 -122.9325,36.038502 -121.4745,35.472502 C -120.4405,35.076502 -119.9075,33.977502 -120.0405,32.495502 L -120.8815,26.825502 C -119.5925,26.554502 -118.2385,26.344502 -116.8455,26.192502 C -116.8455,26.192502 -115.6465,31.725502 -115.6415,31.749502 C -115.3495,32.915502 -114.3295,34.095502 -112.7855,33.932502 C -111.7015,33.818502 -110.9115,32.907502 -110.6625,31.447502 L -110.0775,25.936502 C -108.9315,25.967502 -107.8115,26.040502 -106.7255,26.144502 C -106.7255,26.144502 -106.8445,31.527502 -106.8445,31.528502 C -106.8565,32.986502 -106.1905,34.082502 -105.0995,34.388502 C -103.5755,34.821502 -102.4115,33.838502 -101.9205,32.642502 L -100.0415,27.418502 C -99.0645,27.707502 -98.1415,28.035502 -97.2605,28.400502 C -97.6205,30.008502 -98.2885,32.738502 -98.2885,32.736502 C -98.4765,33.854502 -98.2475,35.259502 -97.0405,35.840502 C -95.6025,36.528502 -94.2895,35.755502 -93.6025,34.646502 L -91.8775,31.484502 L -91.4395,31.792502 L -91.4185,31.810502 L -95.3055,42.219502 C -95.3055,42.219502 -104.5565,39.156502 -112.8585,39.390502 C -121.1605,39.626502 -130.7105,44.219502 -130.7105,44.219502 L -133.7745,34.547502 C -133.0455,35.516502 -132.3655,36.431502 -132.3685,36.421502 z "
       id="path5882" /><path
       style="fill:#060506"
       d="M -94.2815,38.767502 C -94.5445,37.406502 -95.5105,36.222502 -96.8855,35.806502 C -98.8025,35.229502 -100.7545,36.358502 -101.2475,38.323502 C -101.4575,39.159502 -101.3515,40.007502 -101.0395,40.756502 C -97.7945,41.480502 -95.5605,42.217502 -95.5605,42.217502 L -94.2815,38.767502 z "
       id="path5884" /><path
       style="fill:#ffffff"
       d="M -99.6875,38.791502 C -99.9585,39.873502 -99.3335,41.009502 -98.2735,41.329502 C -97.2165,41.645502 -96.1405,41.025502 -95.8765,39.943502 C -95.6055,38.860502 -96.2355,37.725502 -97.2945,37.408502 C -98.3425,37.090502 -99.4175,37.710502 -99.6875,38.791502 z "
       id="path5886" /><path
       style="fill:#060506"
       d="M -104.7745,34.310502 C -106.7405,34.039502 -108.5215,35.513502 -108.7535,37.596502 C -108.8265,38.250502 -108.7295,38.875502 -108.5135,39.448502 C -107.2235,39.483502 -105.9165,39.577502 -104.6295,39.753502 C -103.8205,39.864502 -103.0195,40.008502 -102.2105,40.177502 C -101.9215,39.705502 -101.7155,39.166502 -101.6485,38.571502 C -101.4145,36.490502 -102.8075,34.581502 -104.7745,34.310502 z "
       id="path5888" /><path
       style="fill:#ff8600"
       d="M -107.1605,37.815502 C -107.2915,38.962502 -106.5195,40.013502 -105.4375,40.163502 C -104.3585,40.309502 -103.3755,39.500502 -103.2485,38.352502 C -103.1215,37.204502 -103.8895,36.155502 -104.9695,36.005502 C -106.0485,35.859502 -107.0315,36.670502 -107.1605,37.815502 z "
       id="path5890" /><path
       style="fill:#060506"
       d="M -113.0745,33.974502 C -115.0535,34.031502 -116.5825,35.776502 -116.4885,37.870502 C -116.4585,38.527502 -116.2595,39.129502 -115.9615,39.658502 C -114.6835,39.482502 -113.3785,39.360502 -112.0775,39.323502 C -111.2655,39.301502 -110.4415,39.309502 -109.6235,39.344502 C -109.4105,38.831502 -109.2955,38.267502 -109.3165,37.667502 C -109.4145,35.572502 -111.0925,33.917502 -113.0745,33.974502 z "
       id="path5892" /><path
       style="fill:#ffffff"
       d="M -114.8735,37.825502 C -114.8235,38.979502 -113.8965,39.889502 -112.8105,39.860502 C -111.7215,39.827502 -110.8795,38.867502 -110.9305,37.713502 C -110.9845,36.559502 -111.9095,35.650502 -112.9945,35.677502 C -114.0865,35.709502 -114.9265,36.670502 -114.8735,37.825502 z "
       id="path5894" /><path
       style="fill:#060506"
       d="M -121.6705,35.246502 C -119.7685,34.678502 -117.7875,35.856502 -117.2445,37.880502 C -117.0755,38.514502 -117.0805,39.150502 -117.2065,39.748502 C -118.4775,39.977502 -119.7565,40.274502 -121.0025,40.648502 C -121.7795,40.882502 -122.5595,41.148502 -123.3285,41.440502 C -123.6825,41.017502 -123.9695,40.519502 -124.1255,39.942502 C -124.6665,37.916502 -123.5735,35.816502 -121.6705,35.246502 z "
       id="path5896" /><path
       style="fill:#ff8600"
       d="M -118.7915,38.340502 C -118.4905,39.453502 -119.0965,40.611502 -120.1425,40.925502 C -121.1905,41.239502 -122.2835,40.589502 -122.5805,39.475502 C -122.8805,38.360502 -122.2705,37.205502 -121.2265,36.890502 C -120.1805,36.581502 -119.0925,37.226502 -118.7915,38.340502 z "
       id="path5898" /><path
       style="fill:#060506"
       d="M -129.0795,37.845502 C -127.2405,37.090502 -125.1585,38.067502 -124.4255,40.027502 C -124.1965,40.640502 -124.1405,41.275502 -124.2085,41.882502 C -125.4515,42.239502 -126.6955,42.660502 -127.8965,43.156502 C -128.6525,43.465502 -129.4005,43.805502 -130.1365,44.175502 C -130.5325,43.792502 -130.8655,43.321502 -131.0745,42.761502 C -131.8075,40.801502 -130.9175,38.600502 -129.0795,37.845502 z "
       id="path5900" /><path
       style="fill:#ffffff"
       d="M -125.9195,40.642502 C -125.5145,41.721502 -126.0045,42.931502 -127.0175,43.349502 C -128.0335,43.764502 -129.1765,43.225502 -129.5805,42.148502 C -129.9805,41.069502 -129.4915,39.858502 -128.4775,39.441502 C -127.4685,39.025502 -126.3245,39.559502 -125.9195,40.642502 z "
       id="path5902" /><path
       style="fill:#060506"
       d="M -135.4165,31.291502 L -135.3225,31.589502 L -131.2605,44.399502 L -131.0555,45.046502 L -130.4535,44.755502 C -130.3555,44.709502 -120.9155,40.212502 -112.8395,39.984502 C -104.7355,39.753502 -95.5745,42.753502 -95.4855,42.781502 L -95.4855,42.781502 L -94.9625,42.958502 L -94.7645,42.426502 L -90.1495,30.065502 L -90.0195,29.716502 L -90.2685,29.445502 C -90.5275,29.169502 -96.7065,22.669502 -113.0705,23.133502 C -129.4535,23.598502 -135.0085,30.741502 -135.2375,31.043502 L -135.4165,31.291502 z M -91.3785,30.017502 L -91.7745,31.081502 L -92.0175,30.910502 L -92.2255,31.292502 C -92.2255,31.292502 -93.9545,34.454502 -93.9375,34.435502 C -94.4715,35.309502 -95.5655,36.108502 -96.8755,35.483502 C -97.8835,35.000502 -98.0615,33.800502 -97.8965,32.826502 C -97.8965,32.826502 -97.1675,29.757502 -96.8785,28.491502 L -96.8045,28.161502 L -97.1165,28.034502 C -98.0075,27.666502 -98.9555,27.330502 -99.9295,27.038502 L -100.2835,26.934502 L -100.4095,27.284502 C -100.4095,27.284502 -102.2875,32.507502 -102.2795,32.492502 C -102.6635,33.434502 -103.6005,34.399502 -104.9955,34.006502 C -105.8985,33.749502 -106.4625,32.800502 -106.4525,31.537502 L -106.3355,26.154502 L -106.3275,25.785502 L -106.6815,25.750502 C -107.7855,25.641502 -108.9135,25.570502 -110.0545,25.540502 L -110.4115,25.531502 L -110.4505,25.892502 C -110.4505,25.892502 -111.0365,31.402502 -111.0315,31.374502 C -111.2505,32.649502 -111.8945,33.436502 -112.8095,33.532502 C -114.1255,33.670502 -114.9985,32.655502 -115.2475,31.657502 L -116.4505,26.103502 L -116.5265,25.756502 L -116.8735,25.794502 C -118.2795,25.947502 -119.6485,26.161502 -120.9455,26.432502 L -121.3045,26.507502 L -121.2465,26.882502 C -121.2465,26.882502 -120.4065,32.553502 -120.4115,32.531502 C -120.2895,33.826502 -120.7225,34.761502 -121.5935,35.096502 C -122.8375,35.578502 -123.9385,34.816502 -124.4215,33.914502 L -127.0385,28.726502 L -127.2065,28.393502 L -127.5435,28.546502 C -128.1245,28.809502 -128.6865,29.092502 -129.2045,29.380502 L -129.4755,29.529502 L -129.3975,29.832502 C -129.3975,29.832502 -128.2175,34.316502 -128.2205,34.302502 C -127.9395,35.568502 -128.2445,36.549502 -129.0745,36.997502 C -130.2495,37.636502 -131.4285,37.028502 -132.0325,36.192502 L -132.0405,36.182502 L -132.0465,36.177502 L -133.0515,34.831502 L -134.0965,31.539502 C -134.0515,31.493502 -134.0005,31.436502 -133.9465,31.377502 C -132.8745,32.942502 -131.0925,35.489502 -131.0955,35.481502 C -131.0335,35.574502 -130.4145,36.370502 -129.6275,35.942502 C -129.0755,35.643502 -129.3715,34.550502 -129.3715,34.538502 L -130.8465,28.944502 C -129.7515,28.258502 -128.3735,27.532502 -126.6665,26.861502 C -125.7045,28.770502 -123.3955,33.340502 -123.4035,33.330502 C -123.3465,33.433502 -122.8415,34.304502 -122.0075,33.980502 C -121.4245,33.754502 -121.5765,32.632502 -121.5765,32.621502 L -122.6275,25.579502 C -120.6045,25.070502 -118.2735,24.671502 -115.6065,24.462502 C -115.1275,26.670502 -114.1145,31.362502 -114.1155,31.352502 C -114.0885,31.461502 -113.8105,32.436502 -112.9275,32.344502 C -112.3095,32.279502 -112.1775,31.154502 -112.1725,31.141502 L -111.4575,24.303502 C -109.1205,24.303502 -107.0135,24.450502 -105.1185,24.704502 C -105.1725,27.098502 -105.2645,31.532502 -105.2655,31.535502 C -105.2655,31.548502 -105.2865,32.676502 -104.6635,32.849502 C -103.7975,33.092502 -103.3985,32.181502 -103.3635,32.088502 L -100.9855,25.480502 C -98.7145,26.042502 -96.8815,26.744502 -95.4285,27.432502 C -95.8785,29.631502 -96.7235,32.994502 -96.7265,32.996502 C -96.7275,33.009502 -96.9315,34.118502 -96.3555,34.395502 C -95.5435,34.784502 -95.0015,33.951502 -94.9505,33.867502 L -92.3945,29.191502 C -91.9295,29.543502 -91.5885,29.830502 -91.3785,30.017502 z M -98.6365,32.558502 L -98.6515,32.566502 L -98.6515,32.566502 L -98.6515,32.566502 L -98.6515,32.566502 L -98.6725,32.671502 M -97.2045,36.201502 C -95.5495,36.994502 -94.0385,36.097502 -93.2665,34.841502 L -92.9865,34.320502 L -95.6675,41.483502 C -97.7625,40.844502 -105.7085,38.589502 -112.8795,38.793502 C -120.1085,38.997502 -128.1095,42.385502 -130.3585,43.401502 L -132.3795,37.040502 C -131.5255,37.938502 -130.1355,38.470502 -128.7335,37.707502 C -127.5905,37.088502 -127.1295,35.748502 -127.4945,34.119502 L -128.5915,29.943502 C -128.2705,29.772502 -127.9345,29.603502 -127.5895,29.439502 C -127.0135,30.583502 -125.1445,34.292502 -125.1395,34.297502 C -124.4935,35.500502 -123.0275,36.497502 -121.3475,35.847502 C -120.1385,35.382502 -119.5095,34.116502 -119.6665,32.439502 L -120.4455,27.151502 C -119.3875,26.942502 -118.2915,26.768502 -117.1595,26.635502 C -116.4175,30.063502 -116.0345,31.829502 -116.0245,31.851502 C -115.6925,33.175502 -114.5245,34.516502 -112.7505,34.328502 C -111.4795,34.195502 -110.5615,33.140502 -110.2755,31.491502 L -109.7295,26.351502 C -108.8525,26.381502 -107.9815,26.434502 -107.1285,26.512502 C -107.2355,31.509502 -107.2355,31.522502 -107.2355,31.526502 C -107.2495,33.172502 -106.4675,34.416502 -105.2105,34.772502 C -103.4435,35.270502 -102.1065,34.138502 -101.5605,32.782502 L -99.8125,27.917502 C -99.0895,28.141502 -98.3905,28.386502 -97.7255,28.653502 C -98.0095,29.903502 -98.6805,32.674502 -98.6805,32.674502 C -98.8845,33.934502 -98.6145,35.521502 -97.2045,36.201502 z M -91.1165,30.263502 L -91.1165,30.263502 L -91.1165,30.263502 L -91.1165,30.263502 z "
       id="path5904" /><path
       style="fill:#ffffff"
       d="M -140.1855,38.208502 C -140.1855,40.851502 -138.0825,42.993502 -135.4975,42.993502 C -132.9075,42.993502 -130.8095,40.850502 -130.8095,38.208502 C -130.8095,35.568502 -132.9135,33.426502 -135.4975,33.426502 C -138.0815,33.426502 -140.1855,35.567502 -140.1855,38.208502 z "
       id="path5906" /><path
       style="fill:#060506"
       d="M -135.4965,34.164502 C -133.3085,34.164502 -131.5315,35.978502 -131.5315,38.208502 C -131.5315,40.440502 -133.3055,42.254502 -135.4965,42.254502 C -137.6845,42.254502 -139.4635,40.441502 -139.4635,38.208502 C -139.4615,35.978502 -137.6825,34.164502 -135.4965,34.164502 z M -140.9105,38.208502 C -140.9105,41.256502 -138.4785,43.732502 -135.4955,43.732502 C -132.5115,43.732502 -130.0815,41.254502 -130.0815,38.208502 C -130.0815,35.164502 -132.5105,32.686502 -135.4955,32.686502 C -138.4815,32.684502 -140.9105,35.164502 -140.9105,38.208502 z "
       id="path5908" /><path
       style="fill:#d90000"
       d="M -138.6005,38.208502 C -138.6005,39.955502 -137.2065,41.376502 -135.4965,41.376502 C -133.7865,41.376502 -132.3925,39.955502 -132.3925,38.208502 C -132.3925,36.464502 -133.7885,35.043502 -135.4965,35.043502 C -137.2045,35.043502 -138.6005,36.463502 -138.6005,38.208502 z "
       id="path5910" /><path
       id="path5912"
       d="M -138.1755,67.335502 C -138.7165,70.836502 -139.1545,73.674502 -135.8195,74.002502 C -133.2775,74.252502 -130.7985,72.323502 -130.1995,69.151502 C -129.5965,65.978502 -131.1375,62.965502 -133.6525,62.514502 C -137.0635,61.901502 -137.6355,63.835502 -138.1755,67.335502 z "
       style="fill:#ffffff" /><path
       id="path5914"
       d="M -136.1455,63.367502 C -135.6305,62.994502 -134.8495,62.909502 -133.7495,63.104502 C -132.8745,63.261502 -132.1125,63.790502 -131.5495,64.626502 C -130.7475,65.814502 -130.4645,67.422502 -130.7685,69.039502 C -131.2865,71.761502 -133.4285,73.640502 -135.7595,73.411502 C -136.5995,73.329502 -137.1695,73.073502 -137.5045,72.631502 C -138.2465,71.653502 -137.9425,69.699502 -137.5965,67.434502 C -137.5965,67.434502 -137.5965,67.434502 -137.5965,67.432502 L -137.5965,67.432502 C -137.3125,65.579502 -137.0045,63.994502 -136.1455,63.367502 z M -136.8255,62.392502 C -138.0545,63.290502 -138.4165,65.045502 -138.7585,67.248502 C -139.1505,69.784502 -139.4875,71.976502 -138.4345,73.362502 C -137.8905,74.078502 -137.0535,74.483502 -135.8755,74.596502 C -132.9375,74.886502 -130.2505,72.592502 -129.6225,69.263502 C -129.2595,67.332502 -129.6065,65.397502 -130.5885,63.951502 C -131.3235,62.857502 -132.3745,62.139502 -133.5495,61.929502 C -134.9915,61.669502 -136.0335,61.817502 -136.8255,62.392502 z "
       style="fill:#060506" /><path
       id="path5916"
       d="M -139.5315,66.100502 C -139.4485,65.448502 -139.0885,64.943502 -138.4735,64.854502 C -139.0385,64.611502 -139.2635,64.028502 -139.1815,63.376502 C -139.0805,62.589502 -138.3785,62.039502 -137.6145,62.138502 L -135.2415,62.454502 C -134.4705,62.555502 -133.9295,63.273502 -134.0315,64.057502 C -134.1135,64.710502 -134.4355,65.220502 -135.0485,65.307502 C -134.4825,65.550502 -134.2925,66.129502 -134.3775,66.783502 C -134.4575,67.413502 -134.7525,67.912502 -135.3335,68.024502 C -134.8015,68.281502 -134.6395,68.840502 -134.7195,69.470502 C -134.7945,70.057502 -135.0315,70.536502 -135.5525,70.687502 C -135.0825,70.969502 -134.9775,71.494502 -135.0515,72.082502 C -135.1525,72.867502 -135.8545,73.419502 -136.6225,73.316502 L -138.9955,73.002502 C -139.7655,72.900502 -140.3075,72.182502 -140.2065,71.398502 C -140.1325,70.813502 -139.8595,70.336502 -139.3375,70.184502 C -139.8085,69.904502 -139.9485,69.373502 -139.8745,68.788502 C -139.7945,68.158502 -139.4635,67.663502 -138.8835,67.554502 C -139.4145,67.290502 -139.6135,66.726502 -139.5315,66.100502 z "
       style="fill:#ffffff" /><path
       id="path5918"
       d="M -139.1335,68.088502 C -139.3625,67.977502 -139.4935,67.728502 -139.4625,67.473502 C -139.4305,67.215502 -139.2385,67.010502 -138.9895,66.962502 C -139.7865,67.117502 -140.3335,67.768502 -140.4515,68.707502 C -140.5635,69.590502 -140.2635,70.316502 -139.6335,70.699502 C -139.8355,70.577502 -139.9465,70.345502 -139.9155,70.107502 C -139.8865,69.869502 -139.7205,69.671502 -139.4945,69.610502 C -140.2045,69.812502 -140.6765,70.437502 -140.7855,71.319502 C -140.8495,71.856502 -140.7145,72.387502 -140.3895,72.817502 C -140.0695,73.247502 -139.5975,73.522502 -139.0765,73.591502 L -136.7035,73.904502 C -135.6155,74.050502 -134.6175,73.263502 -134.4745,72.154502 C -134.3285,70.989502 -134.8265,70.432502 -135.2625,70.170502 C -135.0595,70.289502 -134.9505,70.524502 -134.9765,70.760502 C -135.0075,70.996502 -135.1735,71.195502 -135.3985,71.258502 C -134.9125,71.119502 -134.2945,70.706502 -134.1425,69.545502 C -134.0215,68.581502 -134.3705,67.831502 -135.0845,67.482502 C -134.8555,67.591502 -134.7245,67.841502 -134.7555,68.096502 C -134.7865,68.353502 -134.9795,68.558502 -135.2285,68.607502 C -134.4475,68.456502 -133.9225,67.819502 -133.8015,66.858502 C -133.6765,65.872502 -134.0575,65.087502 -134.8235,64.756502 C -134.5815,64.861502 -134.4315,65.116502 -134.4695,65.383502 C -134.5005,65.649502 -134.7055,65.860502 -134.9675,65.899502 C -134.1435,65.779502 -133.5765,65.118502 -133.4495,64.134502 C -133.3045,63.025502 -134.0795,62.004502 -135.1655,61.860502 L -137.5395,61.547502 C -138.6275,61.404502 -139.6255,62.188502 -139.7685,63.298502 C -139.8895,64.262502 -139.4835,65.069502 -138.7065,65.404502 C -138.9495,65.298502 -139.0945,65.042502 -139.0605,64.776502 C -139.0275,64.510502 -138.8275,64.298502 -138.5605,64.261502 C -139.3955,64.380502 -139.9955,65.055502 -140.1175,66.021502 C -140.2315,66.960502 -139.8675,67.735502 -139.1335,68.088502 z M -138.3005,67.627502 C -138.2705,67.371502 -138.4045,67.121502 -138.6305,67.011502 C -138.9635,66.849502 -138.9885,66.467502 -138.9495,66.175502 C -138.9185,65.928502 -138.8035,65.504502 -138.3915,65.445502 C -138.1305,65.408502 -137.9255,65.198502 -137.8935,64.931502 C -137.8635,64.663502 -138.0025,64.409502 -138.2475,64.302502 C -138.6305,64.138502 -138.6335,63.699502 -138.6015,63.451502 C -138.5765,63.229502 -138.4615,63.033502 -138.2895,62.898502 C -138.1165,62.761502 -137.8985,62.703502 -137.6855,62.730502 L -135.3125,63.045502 C -134.8675,63.104502 -134.5455,63.524502 -134.6065,63.979502 C -134.6655,64.426502 -134.8355,64.676502 -135.1275,64.717502 C -135.3865,64.754502 -135.5905,64.965502 -135.6245,65.232502 C -135.6565,65.498502 -135.5135,65.754502 -135.2705,65.858502 C -135.0015,65.972502 -134.8955,66.258502 -134.9575,66.704502 C -135.0135,67.138502 -135.1755,67.384502 -135.4365,67.433502 C -135.6855,67.483502 -135.8755,67.686502 -135.9135,67.945502 C -135.9435,68.201502 -135.8095,68.450502 -135.5845,68.560502 C -135.4925,68.604502 -135.2175,68.739502 -135.2985,69.391502 C -135.3795,70.016502 -135.6205,70.084502 -135.7115,70.112502 C -135.9375,70.176502 -136.1045,70.374502 -136.1355,70.610502 C -136.1635,70.845502 -136.0525,71.080502 -135.8505,71.202502 C -135.7695,71.250502 -135.5525,71.379502 -135.6325,72.004502 C -135.6585,72.224502 -135.7715,72.420502 -135.9445,72.557502 C -136.1205,72.694502 -136.3355,72.752502 -136.5485,72.722502 L -138.9215,72.409502 C -139.1385,72.382502 -139.3305,72.267502 -139.4645,72.091502 C -139.5975,71.915502 -139.6525,71.695502 -139.6285,71.474502 C -139.5765,71.072502 -139.4265,70.832502 -139.1815,70.761502 C -138.9545,70.697502 -138.7875,70.500502 -138.7585,70.263502 C -138.7285,70.027502 -138.8405,69.792502 -139.0425,69.670502 C -139.2635,69.539502 -139.3485,69.267502 -139.2965,68.863502 C -139.2595,68.570502 -139.1405,68.209502 -138.7755,68.137502 C -138.5235,68.088502 -138.3325,67.885502 -138.3005,67.627502 z "
       style="fill:#060506" /><path
       id="path5920"
       d="M -132.3235,64.948502 C -133.5115,64.152502 -135.0035,64.331502 -135.6545,65.344502 C -136.3015,66.358502 -135.2575,68.592502 -132.7435,69.782502"
       style="fill:#ffffff" /><path
       id="path5922"
       d="M -132.6365,65.435502 C -133.1475,65.093502 -133.7435,64.959502 -134.2815,65.073502 C -134.5525,65.131502 -134.9275,65.281502 -135.1775,65.663502 C -135.3665,65.959502 -135.4085,66.373502 -135.2895,66.799502 C -135.1525,67.278502 -134.6995,68.189502 -133.1425,68.926502 L -133.1425,68.926502 C -132.8555,69.063502 -132.7315,69.410502 -132.8675,69.705502 C -133.0025,69.999502 -133.3445,70.126502 -133.6325,69.990502 L -133.6325,69.990502 C -135.0935,69.298502 -136.0755,68.278502 -136.4005,67.120502 C -136.6115,66.367502 -136.5175,65.600502 -136.1445,65.019502 C -135.7855,64.459502 -135.2065,64.070502 -134.5205,63.925502 C -133.6945,63.750502 -132.7835,63.945502 -132.0165,64.456502 L -132.0165,64.456502 C -131.7505,64.633502 -131.6775,64.997502 -131.8525,65.268502 C -132.0155,65.539502 -132.3705,65.616502 -132.6365,65.435502 L -132.6365,65.435502 z "
       style="fill:#060506" /></g><use
     x="0"
     y="0"
     inkscape:tiled-clone-of="#g2744"
     xlink:href="#g2744"
     transform="matrix(-1,0,0,-1,-214.97685,162.47193)"
     id="use2835"
     width="98.103996"
     height="150.086" /><g
     id="g2482"><rect
       y="77.61261"
       x="-139.68469"
       height="5.4095564"
       width="64.812469"
       id="rect2470"
       style="fill:#ff8600;fill-opacity:1;fill-rule:evenodd;stroke:#000000;stroke-width:0.49044365;stroke-linecap:round;stroke-linejoin:round;stroke-miterlimit:4;stroke-dasharray:none;stroke-opacity:1" /><g
       id="g2472"><rect
         id="rect11"
         height="5.204"
         width="19.438"
         y="77.691498"
         x="-116.9965"
         style="fill:#ffffff" /><path
         id="path287"
         d="M -107.3595,83.118502 C -105.8595,83.118502 -104.6375,81.872502 -104.6375,80.341502 C -104.6375,78.809502 -105.8655,77.564502 -107.3595,77.564502 C -108.8635,77.564502 -110.0835,78.809502 -110.0835,80.341502 C -110.0815,81.870502 -108.8645,83.118502 -107.3595,83.118502 z M -108.8485,80.340502 C -108.8485,79.503502 -108.1805,78.820502 -107.3615,78.820502 C -106.5445,78.820502 -105.8755,79.502502 -105.8755,80.340502 C -105.8755,81.176502 -106.5425,81.861502 -107.3615,81.861502 C -108.1805,81.863502 -108.8485,81.178502 -108.8485,80.340502 z "
         style="fill:#060506" /><path
         d="M -111.20308,80.31789 C -111.20308,83.51189 -113.73708,86.09789 -116.86608,86.09789 C -119.99508,86.09789 -122.52908,83.51189 -122.52908,80.31789 C -122.52908,77.12889 -119.99508,74.53889 -116.86608,74.53889 C -113.73708,74.53889 -111.20308,77.12689 -111.20308,80.31789 z "
         id="path3336"
         style="fill:#ffffff" /><path
         d="M -116.86508,73.90889 C -120.32908,73.90889 -123.14508,76.78589 -123.14508,80.31689 C -123.14508,83.85089 -120.32908,86.72489 -116.86608,86.72489 C -113.40308,86.72489 -110.58608,83.85089 -110.58608,80.31689 C -110.58408,76.78589 -113.40308,73.90889 -116.86508,73.90889 z M -111.81708,80.31789 C -111.81708,83.15989 -114.08408,85.46989 -116.86608,85.46989 C -119.65008,85.46989 -121.91508,83.15889 -121.91508,80.31789 C -121.91508,77.47789 -119.65008,75.16789 -116.86608,75.16789 C -114.08208,75.16589 -111.81708,77.47589 -111.81708,80.31789 z "
         id="path3340"
         style="fill:#060506" /><path
         d="M -113.39208,80.31789 C -113.39208,82.27789 -114.94808,83.86189 -116.86608,83.86189 C -118.78608,83.86189 -120.34508,82.27789 -120.34508,80.31789 C -120.34508,78.35989 -118.78508,76.77589 -116.86608,76.77589 C -114.94708,76.77289 -113.39208,78.36189 -113.39208,80.31789 z "
         id="path3344"
         style="fill:#d90000" /><path
         d="M -103.22808,80.31789 C -103.22808,83.51189 -100.69208,86.09789 -97.56408,86.09789 C -94.43608,86.09789 -91.89808,83.51189 -91.89808,80.31789 C -91.89808,77.12889 -94.43508,74.53889 -97.56408,74.53889 C -100.69308,74.53889 -103.22808,77.12689 -103.22808,80.31789 z "
         id="path3348"
         style="fill:#ffffff" /><path
         d="M -97.56508,75.16589 C -94.78108,75.16589 -92.51608,77.47789 -92.51608,80.31589 C -92.51608,83.15789 -94.78108,85.46689 -97.56508,85.46689 C -100.34808,85.46689 -102.61208,83.15689 -102.61208,80.31589 C -102.61208,77.47389 -100.34908,75.16589 -97.56508,75.16589 z M -103.84508,80.31789 C -103.84508,83.85189 -101.02908,86.72589 -97.56608,86.72589 C -94.10208,86.72589 -91.28608,83.85189 -91.28608,80.31789 C -91.28608,76.78689 -94.10208,73.90989 -97.56608,73.90989 C -101.02708,73.90889 -103.84508,76.78589 -103.84508,80.31789 z "
         id="path3352"
         style="fill:#060506" /><path
         d="M -101.03708,80.31789 C -101.03708,82.27789 -99.48308,83.86189 -97.56308,83.86189 C -95.64508,83.86189 -94.08608,82.27789 -94.08608,80.31789 C -94.08608,78.35989 -95.64508,76.77589 -97.56308,76.77589 C -99.48308,76.77289 -101.03708,78.36189 -101.03708,80.31789 z "
         id="path3356"
         style="fill:#d90000;fill-opacity:1" /></g></g><path
     style="fill:#f7f7f7;stroke:#060506;stroke-width:0.0882"
     d="M -65.1375,5.3375021 L -149.6995,5.3375021 C -153.4145,5.3375021 -156.4265,8.3745021 -156.4265,12.119502 L -156.4265,148.5575 C -156.4265,152.2995 -153.4135,155.3355 -149.6995,155.3355 L -65.1375,155.3355 C -61.4255,155.3355 -58.4095,152.2985 -58.4095,148.5575 L -58.4095,12.122502 C -58.4115,8.3745021 -61.4255,5.3375021 -65.1375,5.3375021 z M -75.1885,134.7365 C -75.1885,137.7185 -77.1675,140.1425 -79.6025,140.1425 L -135.1165,140.1425 C -137.5545,140.1425 -139.5335,137.7185 -139.5335,134.7365 L -139.5335,25.941502 C -139.5335,22.955502 -137.5545,20.533502 -135.1165,20.533502 L -79.6025,20.533502 C -77.1645,20.533502 -75.1885,22.955502 -75.1885,25.941502 L -75.1885,134.7365 z "
     id="path2821" /><path
     style="fill:#060506"
     id="path2823"
     d="M -144.7745,37.002502 C -145.5865,37.002502 -146.5795,38.030502 -147.1215,38.669502 C -147.1215,38.404502 -145.3085,36.715502 -145.3085,35.805502 C -145.3085,34.638502 -146.2395,33.692502 -147.3785,33.692502 C -148.5225,33.692502 -149.4495,34.639502 -149.4495,35.805502 C -149.4495,36.716502 -147.6345,38.405502 -147.6355,38.669502 C -148.1755,38.031502 -149.1705,37.002502 -149.9785,37.002502 C -151.1545,37.002502 -152.1035,37.970502 -152.1035,39.167502 C -152.1025,40.363502 -151.1545,41.334502 -149.9785,41.334502 C -149.1755,41.334502 -148.1905,40.320502 -147.6465,39.681502 C -147.6645,40.351502 -147.6905,40.971502 -147.7505,41.168502 C -147.9795,41.918502 -148.0055,41.847502 -148.5075,42.782502 L -146.2475,42.782502 C -146.7535,41.845502 -146.7685,41.917502 -147.0055,41.168502 C -147.0675,40.972502 -147.0965,40.352502 -147.1095,39.683502 C -146.5635,40.322502 -145.5845,41.335502 -144.7745,41.335502 C -143.6055,41.335502 -142.6545,40.365502 -142.6545,39.168502 C -142.6545,37.973502 -143.6045,37.002502 -144.7745,37.002502 z " /><path
     style="fill:#060506"
     id="path2825"
     d="M -147.2175,14.249502 L -147.2175,15.662502 C -147.2175,15.662502 -146.1215,15.662502 -145.8565,15.662502 C -145.8565,16.001502 -145.8565,24.540502 -145.8565,24.540502 C -145.8565,25.527502 -146.0275,26.228502 -146.3645,26.625502 C -146.6925,27.043502 -147.2795,27.253502 -148.1045,27.253502 C -148.8135,27.253502 -149.3435,27.054502 -149.6835,26.662502 C -150.0355,26.258502 -150.2045,25.642502 -150.2045,24.834502 L -150.2045,23.781502 L -151.7875,23.781502 L -151.7875,24.944502 C -151.7875,26.165502 -151.4755,27.114502 -150.8655,27.764502 C -150.2495,28.406502 -149.3375,28.731502 -148.1455,28.731502 C -146.9205,28.731502 -145.9575,28.387502 -145.2875,27.710502 C -144.6125,27.035502 -144.2665,26.064502 -144.2665,24.827502 C -144.2665,24.827502 -144.2665,16.001502 -144.2665,15.662502 C -144.0005,15.662502 -142.9555,15.662502 -142.9555,15.662502 L -142.9555,14.249502 L -147.2175,14.249502 L -147.2175,14.249502 z " /><path
     d="M -69.80108,123.65589 C -68.98908,123.65589 -67.99608,122.62789 -67.45408,121.98889 C -67.45408,122.25389 -69.26708,123.94289 -69.26708,124.85289 C -69.26708,126.01989 -68.33608,126.96589 -67.19708,126.96589 C -66.05308,126.96589 -65.12608,126.01889 -65.12608,124.85289 C -65.12608,123.94189 -66.94108,122.25289 -66.94008,121.98889 C -66.40008,122.62689 -65.40508,123.65589 -64.59708,123.65589 C -63.42108,123.65589 -62.47208,122.68789 -62.47208,121.49089 C -62.47308,120.29489 -63.42108,119.32389 -64.59708,119.32389 C -65.40008,119.32389 -66.38508,120.33789 -66.92908,120.97689 C -66.91108,120.30689 -66.88508,119.68689 -66.82508,119.48989 C -66.59608,118.73989 -66.57008,118.81089 -66.06808,117.87589 L -68.32808,117.87589 C -67.82208,118.81289 -67.80708,118.74089 -67.57008,119.48989 C -67.50808,119.68589 -67.47908,120.30589 -67.46608,120.97489 C -68.01208,120.33589 -68.99108,119.32289 -69.80108,119.32289 C -70.97008,119.32289 -71.92108,120.29289 -71.92108,121.48989 C -71.92108,122.68489 -70.97108,123.65589 -69.80108,123.65589 z "
     id="path3498"
     style="fill:#060506" /><path
     d="M -67.35808,146.40889 L -67.35808,144.99589 C -67.35808,144.99589 -68.45408,144.99589 -68.71908,144.99589 C -68.71908,144.65689 -68.71908,136.11789 -68.71908,136.11789 C -68.71908,135.13089 -68.54808,134.42989 -68.21108,134.03289 C -67.88308,133.61489 -67.29608,133.40489 -66.47108,133.40489 C -65.76208,133.40489 -65.23208,133.60389 -64.89208,133.99589 C -64.54008,134.39989 -64.37108,135.01589 -64.37108,135.82389 L -64.37108,136.87689 L -62.78808,136.87689 L -62.78808,135.71389 C -62.78808,134.49289 -63.10008,133.54389 -63.71008,132.89389 C -64.32608,132.25189 -65.23808,131.92689 -66.43008,131.92689 C -67.65508,131.92689 -68.61808,132.27089 -69.28808,132.94789 C -69.96308,133.62289 -70.30908,134.59389 -70.30908,135.83089 C -70.30908,135.83089 -70.30908,144.65689 -70.30908,144.99589 C -70.57508,144.99589 -71.62008,144.99589 -71.62008,144.99589 L -71.62008,146.40889 L -67.35808,146.40889 L -67.35808,146.40889 z "
     id="path3500"
     style="fill:#060506" /></svg>