<?xml version="1.0" encoding="UTF-8" standalone="no"?>
<!-- Generator: Adobe Illustrator 12.0.0, SVG Export Plug-In . SVG Version: 6.00 Build 51448)  -->
<svg
   xmlns:dc="http://purl.org/dc/elements/1.1/"
   xmlns:cc="http://web.resource.org/cc/"
   xmlns:rdf="http://www.w3.org/1999/02/22-rdf-syntax-ns#"
   xmlns:svg="http://www.w3.org/2000/svg"
   xmlns="http://www.w3.org/2000/svg"
   xmlns:xlink="http://www.w3.org/1999/xlink"
   xmlns:sodipodi="http://sodipodi.sourceforge.net/DTD/sodipodi-0.dtd"
   xmlns:inkscape="http://www.inkscape.org/namespaces/inkscape"
   version="1.1"
   id="图层_1"
   width="98.1"
   height="150.086"
   viewBox="0 0 98.1 150.086"
   overflow="visible"
   enable-background="new 0 0 98.1 150.086"
   xml:space="preserve"
   sodipodi:version="0.32"
   inkscape:version="0.45.1"
   sodipodi:docname="12.svg"
   sodipodi:docbase="/home/zhangxin/桌面/简化版扑克"
   inkscape:output_extension="org.inkscape.output.svg.inkscape"><metadata
   id="metadata6510"><rdf:RDF><cc:Work
       rdf:about=""><dc:format>image/svg+xml</dc:format><dc:type
         rdf:resource="http://purl.org/dc/dcmitype/StillImage" /></cc:Work></rdf:RDF></metadata><defs
   id="defs6508" /><sodipodi:namedview
   inkscape:window-height="713"
   inkscape:window-width="1024"
   inkscape:pageshadow="2"
   inkscape:pageopacity="0.0"
   guidetolerance="10.0"
   gridtolerance="10.0"
   objecttolerance="10.0"
   borderopacity="1.0"
   bordercolor="#666666"
   pagecolor="#ffffff"
   id="base"
   inkscape:zoom="3.2714577"
   inkscape:cx="49.049999"
   inkscape:cy="75.042999"
   inkscape:window-x="0"
   inkscape:window-y="0"
   inkscape:current-layer="图层_1" />




































































































<radialGradient
   id="XMLID_21_"
   cx="127.8547"
   cy="-3305.4438"
   r="14.675"
   gradientTransform="matrix(1.1537 0.0645 0.0575 -1.0007 94.4808 -3209.5168)"
   gradientUnits="userSpaceOnUse">
	<stop
   offset="0"
   style="stop-color:#FFFFFF"
   id="stop6202" />
	<stop
   offset="0.0614"
   style="stop-color:#F6F4F0"
   id="stop6204" />
	<stop
   offset="0.1786"
   style="stop-color:#DFD8C9"
   id="stop6206" />
	<stop
   offset="0.2753"
   style="stop-color:#CABDA5"
   id="stop6208" />
	<stop
   offset="1"
   style="stop-color:#5A3D1B"
   id="stop6210" />
</radialGradient>




<radialGradient
   id="XMLID_22_"
   cx="121.8137"
   cy="-2791.4185"
   r="12.0933"
   gradientTransform="matrix(1.1537 0.0645 0.0677 -1.1781 93.6524 -3193.4187)"
   gradientUnits="userSpaceOnUse">
	<stop
   offset="0"
   style="stop-color:#FFFFFF"
   id="stop6221" />
	<stop
   offset="0.246"
   style="stop-color:#F4F4F0"
   id="stop6223" />
	<stop
   offset="0.7158"
   style="stop-color:#D9D8C9"
   id="stop6225" />
	<stop
   offset="1"
   style="stop-color:#C6C4AF"
   id="stop6227" />
</radialGradient>

















<radialGradient
   id="XMLID_23_"
   cx="1327.7532"
   cy="399.47659"
   r="14.6777"
   gradientTransform="matrix(-1.1726,-1.9e-3,9.5e-3,0.9671,1597.9309,-338.9503)"
   gradientUnits="userSpaceOnUse">
	<stop
   offset="0"
   style="stop-color:#FFFFFF"
   id="stop6264" />
	<stop
   offset="0.0614"
   style="stop-color:#F6F4F0"
   id="stop6266" />
	<stop
   offset="0.1786"
   style="stop-color:#DFD8C9"
   id="stop6268" />
	<stop
   offset="0.2753"
   style="stop-color:#CABDA5"
   id="stop6270" />
	<stop
   offset="1"
   style="stop-color:#5A3D1B"
   id="stop6272" />
</radialGradient>




<radialGradient
   id="XMLID_24_"
   cx="1321.2317"
   cy="355.2842"
   r="12.0944"
   gradientTransform="matrix(-1.1726,-1.9e-3,1.11e-2,1.1386,1597.1685,-354.1553)"
   gradientUnits="userSpaceOnUse">
	<stop
   offset="0"
   style="stop-color:#FFFFFF"
   id="stop6283" />
	<stop
   offset="0.246"
   style="stop-color:#F4F4F0"
   id="stop6285" />
	<stop
   offset="0.7158"
   style="stop-color:#D9D8C9"
   id="stop6287" />
	<stop
   offset="1"
   style="stop-color:#C6C4AF"
   id="stop6289" />
</radialGradient>





























































































<g
   id="g4633"><path
     id="path5807"
     d="M 98.054,143.264 C 98.054,147.005 95.035,150.042 91.325,150.042 L 6.77,150.042 C 3.053,150.042 0.044,147.006 0.044,143.264 L 0.044,6.826 C 0.044,3.081 3.053,0.044 6.77,0.044 L 91.332,0.044 C 95.043,0.044 98.06,3.08 98.06,6.826 L 98.054,143.264 L 98.054,143.264 z "
     style="fill:#f7f7f7;stroke:#060506;stroke-width:0.0882" /><g
     inkscape:tile-cy="48.658573"
     inkscape:tile-cx="50.583159"
     inkscape:tile-h="63.113673"
     inkscape:tile-w="75.52768"
     id="g8532"><g
       id="g5983">
	<path
   d="M 15.248,73.192 C 15.716,72.942 26.941,67.103 49.563,73.014 C 70.477,78.482 80.85,73.241 80.957,73.186 L 82.859,76.896 C 82.392,77.148 71.17,82.986 48.547,77.075 C 27.632,71.609 17.257,76.847 17.154,76.904 L 15.248,73.192 z "
   id="path5985"
   style="fill:#0e0f6a" />
</g><g
       id="g5987">
	<path
   d="M 31.225,72.528 C 31.225,73.319 31.856,73.959 32.629,73.959 C 33.401,73.959 34.028,73.319 34.028,72.528 C 34.028,71.74 33.401,71.098 32.629,71.098 C 31.856,71.096 31.225,71.739 31.225,72.528 z "
   id="path5989"
   style="fill:#ffffff" />
</g><g
       id="g5991">
	<path
   d="M 32.627,71.515 C 33.176,71.515 33.618,71.968 33.618,72.526 C 33.618,73.086 33.176,73.538 32.627,73.538 C 32.08,73.538 31.637,73.086 31.637,72.526 C 31.637,71.968 32.081,71.515 32.627,71.515 z M 30.815,72.528 C 30.815,73.549 31.631,74.378 32.627,74.378 C 33.627,74.378 34.439,73.548 34.439,72.528 C 34.439,71.509 33.628,70.678 32.627,70.678 C 31.631,70.676 30.815,71.509 30.815,72.528 z "
   id="path5993"
   style="fill:#060506" />
</g><g
       id="g5995">
	<path
   d="M 66.883,77.555 C 66.883,78.346 66.256,78.987 65.483,78.987 C 64.712,78.987 64.084,78.348 64.084,77.555 C 64.084,76.766 64.717,76.125 65.483,76.125 C 66.256,76.126 66.883,76.766 66.883,77.555 z "
   id="path5997"
   style="fill:#ffffff" />
</g><g
       id="g5999">
	<path
   d="M 65.482,75.705 C 64.482,75.705 63.67,76.537 63.67,77.557 C 63.67,78.576 64.482,79.407 65.482,79.407 C 66.481,79.407 67.294,78.578 67.294,77.557 C 67.294,76.535 66.481,75.705 65.482,75.705 z M 66.472,77.555 C 66.472,78.114 66.03,78.567 65.483,78.567 C 64.935,78.567 64.492,78.114 64.492,77.555 C 64.492,76.993 64.935,76.537 65.483,76.537 C 66.029,76.542 66.472,76.998 66.472,77.555 z "
   id="path6001"
   style="fill:#060506" />
</g><g
       id="g6007">
	<path
   d="M 16.413,57.176 L 44.824,21.509 C 44.824,21.509 57.269,27.99 62.402,38.465 C 63.832,41.37 66.25,45.707 66.821,46.796 C 69.424,51.711 67.55,57.097 62.217,61.499 C 53.696,68.522 71.037,72.688 71.037,72.688 L 27.229,72.68 L 16.413,57.176 z "
   id="path6009"
   style="fill:#060506" />
</g><g
       id="g6011">
	<path
   d="M 40.618,55.795 C 40.618,60.278 44.195,63.929 48.591,63.929 C 52.987,63.929 56.564,60.278 56.564,55.795 C 56.564,51.308 52.987,47.659 48.591,47.659 C 44.196,47.657 40.618,51.307 40.618,55.795 z M 48.592,51.847 C 50.724,51.847 52.458,53.617 52.458,55.793 C 52.458,57.967 50.728,59.736 48.592,59.736 C 46.461,59.736 44.725,57.967 44.725,55.793 C 44.725,53.617 46.46,51.847 48.592,51.847 z "
   id="path6013"
   style="fill:#ffffff" />
</g><g
       id="g6015">
	<path
   d="M 48.592,52.919 C 50.146,52.919 51.411,54.209 51.411,55.795 C 51.411,57.381 50.142,58.67 48.592,58.67 C 47.038,58.67 45.774,57.381 45.774,55.795 C 45.774,54.209 47.037,52.919 48.592,52.919 z M 43.309,55.795 C 43.309,58.766 45.678,61.185 48.592,61.185 C 51.509,61.185 53.876,58.766 53.876,55.795 C 53.876,52.822 51.509,50.406 48.592,50.406 C 45.678,50.405 43.309,52.822 43.309,55.795 z "
   id="path6017"
   style="fill:#060506" />
</g><g
       id="g6019">
	<path
   d="M 49.457,71.277 C 48.44,69.935 47.351,68.651 46.841,68.468 C 45.935,68.148 44.945,68.633 44.627,69.559 C 44.314,70.479 44.788,71.494 45.692,71.815 C 46.202,71.995 47.84,71.679 49.457,71.277 L 49.457,71.277 z "
   id="path6021"
   style="fill:#ff8600" />
</g><g
       id="g6023">
	<path
   d="M 49.457,71.277 C 50.53,69.982 51.676,68.746 52.191,68.586 C 53.11,68.305 54.083,68.836 54.357,69.772 C 54.628,70.71 54.112,71.703 53.193,71.984 C 52.679,72.142 51.056,71.752 49.457,71.277 L 49.457,71.277 z "
   id="path6025"
   style="fill:#ff8600" />
</g><g
       id="g6027">
	<path
   d="M 49.457,71.277 C 48.581,69.833 47.783,68.345 47.792,67.792 C 47.813,66.815 48.609,66.037 49.568,66.06 C 50.526,66.08 51.292,66.891 51.268,67.869 C 51.258,68.419 50.396,69.872 49.457,71.277 L 49.457,71.277 z "
   id="path6029"
   style="fill:#ff8600" />
</g><g
       id="g6031">
	<path
   d="M 49.046,75.052 C 61.52,60.111 60.291,52.009 60.291,52.009 L 87.903,74.94"
   id="path6033"
   style="fill:#ffffff" />
</g><g
       id="g6035">
	<path
   d="M 75.176,64.579 C 70.881,70.009 68.217,74.408 67.951,74.913 L 88.347,74.956 L 75.176,64.579 z "
   id="path6037"
   style="fill:#d90000" />
</g><g
       id="g6039">
	<path
   d="M 60.833,75.008 C 61.109,74.47 69.048,59.552 69.048,59.552 L 76.442,65.837 C 76.442,65.837 71.12,74.424 70.823,74.99 L 60.833,75.008 z "
   id="path6041"
   style="fill:#060506" />
</g><g
       id="g6043">
	<path
   d="M 55.525,69.243 L 56.676,68.287 L 56.256,69.74 C 56.256,69.74 56.73,70.748 56.768,70.813 C 56.692,70.804 55.601,70.754 55.601,70.754 L 54.455,71.708 L 54.867,70.258 C 54.867,70.258 54.394,69.251 54.357,69.183 C 54.435,69.197 55.525,69.243 55.525,69.243 z "
   id="path6045"
   style="fill:#060506" />
</g><g
       id="g6047">
	<path
   d="M 59.969,62.403 L 61.117,61.447 L 60.694,62.898 C 60.694,62.898 61.173,63.907 61.213,63.97 C 61.138,63.96 60.043,63.913 60.043,63.913 L 58.897,64.869 L 59.31,63.417 C 59.31,63.417 58.839,62.41 58.8,62.345 C 58.879,62.354 59.969,62.403 59.969,62.403 z "
   id="path6049"
   style="fill:#ff8600" />
</g><g
       id="g6051">
	<path
   d="M 57.749,65.823 L 58.895,64.867 L 58.479,66.319 C 58.479,66.319 58.955,67.325 58.988,67.39 C 58.918,67.38 57.82,67.331 57.82,67.331 L 56.674,68.287 L 57.086,66.836 C 57.086,66.836 56.612,65.829 56.574,65.762 C 56.657,65.774 57.749,65.823 57.749,65.823 z "
   id="path6053"
   style="fill:#0e0f6a" />
</g><g
       id="g6055">
	<path
   d="M 62.065,59.035 L 61.922,57.527 L 61.2,58.852 C 61.2,58.852 60.171,59.216 60.096,59.235 C 60.158,59.282 60.955,60.041 60.955,60.041 L 61.099,61.544 L 61.819,60.227 C 61.819,60.227 62.851,59.86 62.928,59.841 C 62.864,59.795 62.065,59.035 62.065,59.035 z "
   id="path6057"
   style="fill:#0e0f6a" />
</g><g
       id="g6059">
	<path
   d="M 62.9,54.982 L 62.758,53.474 L 62.035,54.795 C 62.035,54.795 61.006,55.164 60.931,55.182 C 60.993,55.228 61.792,55.988 61.792,55.988 L 61.931,57.491 L 62.653,56.173 C 62.653,56.173 63.683,55.807 63.76,55.788 C 63.703,55.738 62.9,54.982 62.9,54.982 z "
   id="path6061"
   style="fill:#060506" />
</g><g
       id="g6063">
	<polygon
   points="67.918,58.4 58.885,75.787 57.583,75.092 66.62,57.701 67.918,58.4 "
   id="polygon6065"
   style="fill:#212462" />
</g><g
       id="g6067">
	<path
   d="M 49.046,75.052 C 49.046,75.052 35.751,50.54 30.516,50.54 C 13.057,50.54 14.397,74.947 14.397,74.947"
   id="path6069"
   style="fill:#ffffff" />
</g><g
       id="g6071">
	<path
   d="M 37.262,75.001 L 14.397,74.95 C 14.397,74.95 13.684,61.981 20.246,54.95 C 30.241,61.78 36.848,74.206 37.262,75.001 z "
   id="path6073"
   style="fill:#d90000" />
</g><g
       id="g6075">
	<path
   d="M 26.669,55.195 C 26.932,55.382 33.178,59.866 40.778,73.811 L 39.341,74.626 C 31.954,61.079 25.794,56.618 25.733,56.576 L 26.669,55.195 z "
   id="path6077"
   style="fill:#212462" />
</g><g
       id="g6079">
	<path
   d="M 16.768,60.538 C 17.608,58.512 18.731,56.571 20.246,54.947 C 30.24,61.779 36.85,74.206 37.265,74.998 L 27.26,74.975 C 26.833,74.171 22.938,66.929 16.768,60.538 z "
   id="path6081"
   style="fill:#060506" />
</g><g
       id="g6083">
	<path
   d="M 41.784,67.15 L 40.637,66.194 L 41.053,67.647 C 41.053,67.647 40.58,68.654 40.541,68.719 C 40.618,68.71 41.709,68.661 41.709,68.661 L 42.855,69.615 L 42.442,68.165 C 42.442,68.165 42.912,67.159 42.951,67.091 C 42.874,67.101 41.784,67.15 41.784,67.15 z "
   id="path6085"
   style="fill:#060506" />
</g><g
       id="g6087">
	<path
   d="M 37.34,60.306 L 36.19,59.35 L 36.608,60.801 C 36.608,60.801 36.135,61.809 36.096,61.874 C 36.172,61.864 37.264,61.817 37.264,61.817 L 38.41,62.772 L 37.996,61.322 C 37.996,61.322 38.467,60.315 38.504,60.248 C 38.43,60.259 37.34,60.306 37.34,60.306 z "
   id="path6089"
   style="fill:#ff8600" />
</g><g
       id="g6091">
	<path
   d="M 35.17,56.974 L 34.02,56.017 L 34.438,57.469 C 34.438,57.469 33.963,58.476 33.928,58.542 C 34.004,58.531 35.096,58.482 35.096,58.482 L 36.242,59.439 L 35.829,57.986 C 35.829,57.986 36.301,56.982 36.34,56.913 C 36.262,56.926 35.17,56.974 35.17,56.974 z "
   id="path6093"
   style="fill:#0e0f6a" />
</g><g
       id="g6095">
	<path
   d="M 39.563,63.729 L 38.413,62.773 L 38.83,64.226 C 38.83,64.226 38.358,65.232 38.32,65.298 C 38.393,65.289 39.488,65.239 39.488,65.239 L 40.635,66.195 L 40.221,64.745 C 40.221,64.745 40.688,63.737 40.729,63.671 C 40.653,63.678 39.563,63.729 39.563,63.729 z "
   id="path6097"
   style="fill:#0e0f6a" />
</g><g
       id="g6099">
	<path
   d="M 61.165,44.969 C 60.727,52.023 52.397,57.223 42.578,56.587 C 32.753,55.948 25.14,49.714 25.58,42.66 C 26.018,35.608 34.346,30.406 44.171,31.043 C 53.995,31.681 61.603,37.92 61.165,44.969 z "
   id="path6101"
   style="fill:#ffffff" />
</g><g
       id="g6103">
	<path
   d="M 44.203,30.449 C 34.07,29.79 25.454,35.253 24.995,42.621 C 24.819,45.429 25.828,48.189 27.912,50.602 C 31.136,54.337 36.6,56.795 42.538,57.18 C 48.476,57.566 54.205,55.833 57.864,52.546 C 60.23,50.421 61.572,47.813 61.754,45.009 C 62.208,37.638 54.338,31.107 44.203,30.449 z M 60.581,44.932 C 60.429,47.415 59.22,49.737 57.093,51.651 C 53.655,54.733 48.25,56.356 42.614,55.989 C 36.978,55.623 31.812,53.315 28.792,49.813 C 26.918,47.642 26.01,45.182 26.166,42.698 C 26.584,35.984 34.645,31.024 44.133,31.639 C 53.62,32.258 60.999,38.218 60.581,44.932 z "
   id="path6105"
   style="fill:#060506" />
</g><g
       id="g6107">
	<path
   d="M 22.422,58.247 C 24.596,56.366 26.006,56.655 26.512,57.344 C 27.014,58.039 26.608,59.138 26.608,59.138 C 27.572,58.377 28.709,57.005 29.928,54.624 L 31.719,55.833 C 30.198,58.939 28.287,61.808 26.008,63.264 C 24.512,64.218 22.366,63.785 21.637,62.702 C 20.909,61.62 21.305,59.216 22.422,58.247 z "
   id="path6109"
   style="fill:#ff8600" />
</g><g
       id="g6111">
	<path
   d="M 22.563,57.482 C 23.436,56.672 24.665,56.076 25.733,56.239 C 26.361,56.332 26.865,56.565 27.165,57.006 C 27.379,57.314 27.466,57.518 27.509,57.875 C 28.14,56.96 28.707,55.805 29.423,54.285 L 30.982,53.291 C 30.275,55.654 28.519,58.413 27.534,59.624 C 25.822,61.719 24.439,62.513 23.556,62.224 C 23.152,62.093 22.642,61.539 22.58,61.278 C 22.33,60.178 23.768,58.927 24.423,58.414 C 24.662,58.225 25.278,57.831 25.558,58.245 C 25.831,58.661 25.323,59.112 25.101,59.323 C 24.597,59.804 24.241,60.136 23.882,60.451 C 23.517,60.775 23.638,61.021 23.752,61.171 C 23.851,61.299 24.19,61.264 24.613,60.893 C 25.243,60.345 26.205,59.581 26.466,58.859 C 26.622,58.427 26.517,58.008 26.304,57.697 C 26.202,57.547 25.898,57.31 25.605,57.267 C 24.984,57.174 24.054,57.439 23.314,58.122 C 22.209,59.149 21.168,60.617 21.816,61.91 C 22.058,62.388 22.523,62.899 23.201,63.119 C 24.043,63.399 25.055,62.994 25.676,62.597 C 27.878,61.191 29.78,58.275 31.264,55.226 L 32.126,56.056 C 30.811,58.874 28.756,61.852 26.389,63.364 C 25.491,63.939 24.135,64.423 22.965,64.038 C 21.967,63.713 21.319,63.082 20.942,62.291 C 20.075,60.476 21.262,58.685 22.563,57.482 z "
   id="path6113"
   style="fill:#060506" />
</g><g
       id="g6115">
	<path
   d="M 59.583,32.007 C 59.583,32.451 59.937,32.812 60.372,32.812 C 60.809,32.812 61.161,32.451 61.161,32.007 C 61.161,31.56 60.807,31.2 60.372,31.2 C 59.938,31.198 59.583,31.558 59.583,32.007 z "
   id="path6117"
   style="fill:#0e0f6a" />
</g><g
       id="g6119">
	<path
   d="M 61.967,33.772 L 61.967,33.77 C 61.987,33.828 63.936,39.92 65.84,42.745 C 65.84,42.741 66.051,43.054 66.051,43.054 C 68.047,45.997 70.986,50.326 67.53,57.608 C 67.25,58.206 65.166,57.116 65.418,56.586 C 68.291,50.544 66,47.171 64.133,44.415 L 63.918,44.101 C 61.862,41.06 59.951,35.167 59.738,34.505 L 61.967,33.772 z "
   id="path6121"
   style="fill:#060506" />
</g><g
       id="g6123">
	<path
   d="M 59.061,32.289 L 60.957,33.248 L 61.225,34.008 L 61.225,34.008 C 61.246,34.071 63.23,40.275 65.204,43.192 L 65.415,43.504 C 67.585,46.7 70.554,51.076 65.882,59.054 L 65.21,58.647 C 69.626,51.108 66.817,46.975 64.772,43.959 L 64.561,43.647 C 62.525,40.632 61.445,36.865 61.207,36.297 C 60.161,33.78 59.061,32.289 59.061,32.289 z "
   id="path6125"
   style="fill:#ffffff" />
</g><g
       id="g6127">
	<path
   d="M 75.109,63.343 C 74.391,67.002 73.814,69.968 70.399,69.052 C 67.801,68.354 66.043,65.527 66.584,62.17 C 67.125,58.816 69.721,56.412 72.359,56.9 C 75.953,57.56 75.823,59.684 75.109,63.343 z "
   id="path6129"
   style="fill:#ffffff" />
</g><g
       id="g6131">
	<path
   d="M 75.538,57.96 C 74.96,57.094 73.98,56.563 72.473,56.282 C 71.239,56.056 69.943,56.372 68.827,57.178 C 67.348,58.243 66.306,60.028 65.974,62.069 C 65.408,65.593 67.245,68.855 70.245,69.66 C 71.443,69.984 72.421,69.895 73.214,69.39 C 74.745,68.412 75.193,66.125 75.714,63.475 L 75.716,63.467 C 76.163,61.168 76.434,59.301 75.538,57.96 z M 74.52,58.665 C 75.146,59.603 74.883,61.282 74.502,63.225 C 74.037,65.59 73.642,67.63 72.557,68.322 C 72.069,68.633 71.412,68.672 70.557,68.441 C 68.17,67.803 66.724,65.15 67.187,62.271 C 67.463,60.558 68.32,59.076 69.535,58.202 C 70.391,57.585 71.336,57.348 72.256,57.518 C 73.405,57.733 74.146,58.108 74.52,58.665 z "
   id="path6133"
   style="fill:#060506" />
</g><g
       id="g6135">
	<path
   d="M 67.006,71.451 L 67.006,71.451 C 67.504,71.213 79.121,65.481 72.985,51.172 L 73.323,51.021 L 73.323,51.021 L 73.323,51.021 L 73.662,50.872 C 80.088,65.861 67.438,72.071 67.31,72.131 L 67.16,71.791 L 67.16,71.791 L 67.16,71.791 L 67.006,71.451 z "
   id="path6137"
   style="fill:#ffffff" />
</g><g
       id="g6139">
	<path
   d="M 79.555,55.153 C 78.051,57.182 75.398,57.722 75.398,57.722 C 75.398,57.722 75.187,54.973 76.689,52.943 C 78.2,50.913 80.85,50.373 80.85,50.373 C 80.85,50.373 81.061,53.121 79.555,55.153 z "
   id="path6141"
   style="fill:#ffffff" />
</g><g
       id="g6143">
	<path
   d="M 81.463,50.322 C 81.444,50.143 81.359,49.978 81.22,49.871 C 81.078,49.763 80.902,49.72 80.729,49.756 C 80.613,49.779 77.833,50.368 76.201,52.563 C 74.575,54.758 74.775,57.649 74.789,57.771 C 74.805,57.951 74.893,58.114 75.026,58.223 C 75.172,58.331 75.346,58.373 75.519,58.339 C 75.635,58.316 78.42,57.728 80.047,55.532 C 81.674,53.338 81.473,50.446 81.463,50.322 z M 80.477,50.872 C 80.336,50.763 80.248,50.599 80.234,50.42 C 80.238,50.444 80.404,52.965 79.064,54.771 C 77.726,56.582 75.301,57.1 75.278,57.105 C 75.457,57.07 75.632,57.111 75.771,57.221 C 75.916,57.328 76,57.495 76.013,57.673 C 76.01,57.649 75.844,55.128 77.182,53.322 C 78.525,51.514 80.948,50.994 80.972,50.989 L 80.969,50.989 C 80.797,51.023 80.618,50.982 80.477,50.872 z "
   id="path6145"
   style="fill:#060506" />
</g><g
       id="g6147">
	<path
   d="M 65.508,48.15 C 65.506,49.287 66.787,50.212 68.377,50.215 C 68.873,50.216 69.338,50.119 69.744,49.96 C 69.59,50.377 69.494,50.848 69.494,51.356 C 69.498,52.977 70.398,54.287 71.515,54.285 C 72.629,54.282 73.53,52.967 73.526,51.348 C 73.525,50.842 73.427,50.372 73.272,49.958 C 73.68,50.118 74.146,50.216 74.645,50.215 C 76.232,50.212 77.516,49.287 77.515,48.15 C 77.511,47.012 76.224,46.096 74.636,46.098 C 74.138,46.101 73.678,46.198 73.271,46.359 C 73.427,45.942 73.525,45.473 73.527,44.966 C 73.535,43.345 72.631,42.031 71.515,42.027 C 70.401,42.027 69.494,43.336 69.494,44.956 C 69.494,45.466 69.592,45.941 69.746,46.357 C 69.342,46.199 68.883,46.101 68.387,46.099 C 66.799,46.093 65.513,47.01 65.508,48.15 z M 71.508,48.42 C 71.404,48.42 71.31,48.442 71.213,48.462 C 71.234,48.363 71.256,48.266 71.256,48.162 C 71.256,48.055 71.235,47.953 71.213,47.849 C 71.31,47.871 71.401,47.894 71.508,47.894 C 71.612,47.894 71.713,47.871 71.816,47.849 C 71.795,47.953 71.772,48.055 71.772,48.162 C 71.772,48.266 71.793,48.363 71.815,48.464 C 71.713,48.443 71.612,48.42 71.508,48.42 z "
   id="path6149"
   style="fill:#212462" />
</g><g
       id="g6151">
	<path
   d="M 65.099,48.15 C 65.096,49.538 66.537,50.628 68.377,50.634 C 68.641,50.634 68.898,50.608 69.148,50.565 C 69.104,50.821 69.084,51.086 69.084,51.358 C 69.092,53.234 70.16,54.704 71.522,54.704 C 72.884,54.701 73.949,53.224 73.944,51.345 C 73.943,51.074 73.917,50.815 73.874,50.561 C 74.128,50.608 74.394,50.634 74.653,50.634 C 76.495,50.628 77.933,49.538 77.932,48.15 C 77.927,46.759 76.484,45.674 74.642,45.679 C 74.371,45.679 74.115,45.711 73.871,45.758 C 73.916,45.503 73.942,45.24 73.943,44.966 C 73.948,43.09 72.883,41.612 71.521,41.609 C 70.166,41.607 69.09,43.077 69.083,44.955 C 69.083,45.227 69.105,45.496 69.15,45.754 C 68.909,45.71 68.65,45.678 68.38,45.678 C 66.547,45.675 65.101,46.76 65.099,48.15 z M 72.954,46.03 C 72.538,46.219 72.186,46.477 71.927,46.782 L 71.927,44.959 C 71.927,44.729 71.739,44.54 71.518,44.54 C 71.29,44.54 71.106,44.729 71.106,44.959 L 71.106,46.782 C 70.841,46.477 70.493,46.216 70.075,46.028 C 69.971,45.696 69.913,45.333 69.913,44.955 C 69.919,43.594 70.651,42.442 71.523,42.444 C 72.393,42.447 73.127,43.599 73.127,44.962 C 73.12,45.343 73.059,45.706 72.954,46.03 z M 73.597,49.63 C 73.41,49.202 73.159,48.848 72.857,48.575 L 74.646,48.575 C 74.875,48.575 75.056,48.39 75.056,48.157 C 75.056,47.925 74.869,47.738 74.646,47.738 L 72.857,47.738 C 73.159,47.467 73.416,47.113 73.596,46.688 C 73.914,46.583 74.269,46.519 74.643,46.519 C 75.978,46.515 77.106,47.264 77.11,48.152 C 77.11,49.041 75.983,49.795 74.65,49.798 C 74.278,49.796 73.922,49.734 73.597,49.63 z M 70.074,50.266 C 70.435,50.102 70.767,49.9 71.022,49.64 C 71.053,49.609 71.079,49.576 71.101,49.547 L 71.101,51.35 C 71.101,51.582 71.289,51.769 71.513,51.769 C 71.737,51.769 71.923,51.583 71.923,51.35 L 71.923,49.547 C 71.945,49.576 71.971,49.609 72.001,49.64 C 72.255,49.897 72.585,50.1 72.94,50.264 C 73.046,50.595 73.111,50.961 73.116,51.347 C 73.118,52.709 72.387,53.862 71.512,53.864 C 70.639,53.865 69.903,52.718 69.899,51.355 C 69.907,50.97 69.967,50.601 70.074,50.266 z M 65.92,48.151 C 65.922,47.263 67.051,46.515 68.385,46.518 C 68.765,46.518 69.123,46.583 69.447,46.693 C 69.606,47.061 69.805,47.396 70.058,47.657 C 70.087,47.688 70.12,47.709 70.15,47.737 L 68.38,47.737 C 68.151,47.737 67.971,47.925 67.971,48.156 C 67.971,48.389 68.154,48.574 68.38,48.574 L 70.15,48.574 C 70.124,48.602 70.088,48.625 70.058,48.656 C 69.802,48.917 69.603,49.257 69.444,49.626 C 69.114,49.731 68.756,49.796 68.382,49.796 C 67.043,49.794 65.918,49.038 65.92,48.151 z "
   id="path6153"
   style="fill:#060506" />
</g><g
       id="g6155">
	<path
   d="M 73.045,49.627 C 72.316,50.494 71.049,50.597 70.193,49.859 C 69.344,49.122 69.248,47.823 69.966,46.957 C 70.689,46.091 71.963,45.988 72.811,46.727 C 73.668,47.463 73.768,48.76 73.045,49.627 z "
   id="path6157"
   style="fill:#ffffff" />
</g><g
       id="g6159">
	<path
   d="M 76.89,62.626 C 77.037,61.95 76.864,61.316 76.293,61.002 C 76.939,60.973 77.36,60.479 77.521,59.804 C 77.707,58.991 77.207,58.185 76.41,58.001 L 73.959,57.427 C 73.16,57.242 72.365,57.75 72.188,58.562 C 72.037,59.238 72.174,59.861 72.75,60.175 C 72.104,60.205 71.711,60.706 71.562,61.382 C 71.416,62.034 71.529,62.635 72.062,62.962 C 71.444,63.019 71.084,63.512 70.938,64.164 C 70.803,64.77 70.864,65.333 71.33,65.676 C 70.768,65.778 70.476,66.258 70.344,66.865 C 70.156,67.676 70.656,68.485 71.448,68.67 L 73.905,69.24 C 74.7,69.425 75.491,68.918 75.676,68.105 C 75.816,67.5 75.717,66.929 75.245,66.585 C 75.811,66.482 76.141,66.01 76.274,65.404 C 76.422,64.752 76.271,64.14 75.737,63.815 C 76.349,63.76 76.745,63.277 76.89,62.626 z "
   id="path6161"
   style="fill:#ffffff" />
</g><g
       id="g6163">
	<path
   d="M 75.672,63.192 C 75.401,63.215 75.189,63.412 75.127,63.676 C 75.065,63.941 75.184,64.215 75.41,64.356 C 75.742,64.559 75.727,64.962 75.662,65.267 C 75.565,65.684 75.391,65.919 75.127,65.966 C 74.885,66.01 74.689,66.199 74.637,66.445 C 74.58,66.69 74.674,66.946 74.873,67.095 C 75.094,67.254 75.149,67.548 75.061,67.968 C 75.01,68.197 74.873,68.39 74.681,68.516 C 74.486,68.64 74.255,68.68 74.031,68.627 L 71.579,68.057 C 71.35,68.004 71.165,67.866 71.042,67.669 C 70.919,67.471 70.884,67.234 70.934,67.006 C 71.08,66.36 71.339,66.313 71.437,66.295 C 71.681,66.25 71.875,66.061 71.929,65.816 C 71.983,65.571 71.891,65.315 71.688,65.168 C 71.61,65.108 71.397,64.951 71.542,64.307 C 71.692,63.629 72.019,63.599 72.118,63.591 C 72.389,63.566 72.604,63.369 72.667,63.103 C 72.729,62.838 72.607,62.564 72.386,62.425 C 72.287,62.369 72.017,62.2 72.162,61.525 C 72.266,61.063 72.474,60.82 72.777,60.805 C 73.054,60.795 73.294,60.595 73.351,60.317 C 73.413,60.043 73.289,59.76 73.04,59.626 C 72.769,59.476 72.686,59.168 72.79,58.704 C 72.894,58.233 73.352,57.937 73.815,58.045 L 76.27,58.615 C 76.733,58.725 77.025,59.195 76.916,59.666 C 76.854,59.924 76.694,60.357 76.267,60.376 C 75.989,60.389 75.754,60.588 75.693,60.864 C 75.631,61.141 75.758,61.424 76.005,61.559 C 76.388,61.767 76.349,62.229 76.288,62.486 C 76.221,62.786 76.06,63.155 75.672,63.192 z M 76.331,63.956 C 76.269,64.221 76.054,64.417 75.786,64.441 C 76.638,64.362 77.269,63.734 77.484,62.762 C 77.713,61.763 77.362,60.875 76.583,60.447 C 76.829,60.581 76.958,60.866 76.895,61.142 C 76.833,61.417 76.599,61.618 76.322,61.628 C 77.214,61.589 77.898,60.943 78.126,59.942 C 78.384,58.795 77.677,57.65 76.554,57.387 L 74.099,56.814 C 72.974,56.552 71.849,57.272 71.593,58.422 C 71.364,59.442 71.688,60.304 72.452,60.727 C 72.214,60.594 72.089,60.31 72.143,60.033 C 72.205,59.76 72.44,59.559 72.716,59.547 C 71.841,59.586 71.183,60.221 70.947,61.242 C 70.726,62.235 71.01,63.059 71.731,63.499 C 71.502,63.359 71.388,63.084 71.452,62.82 C 71.514,62.554 71.727,62.358 71.999,62.333 C 71.161,62.411 70.558,63.025 70.331,64.023 C 70.06,65.225 70.519,65.861 70.958,66.183 C 70.761,66.034 70.665,65.779 70.721,65.533 C 70.777,65.289 70.97,65.099 71.212,65.055 C 70.685,65.151 69.993,65.52 69.729,66.722 C 69.604,67.278 69.7,67.85 70,68.335 C 70.299,68.817 70.766,69.153 71.31,69.279 L 73.766,69.85 C 74.311,69.979 74.87,69.882 75.344,69.577 C 75.818,69.275 76.148,68.802 76.271,68.245 C 76.476,67.331 76.235,66.54 75.607,66.074 C 75.805,66.223 75.901,66.48 75.846,66.725 C 75.784,66.97 75.596,67.159 75.354,67.203 C 76.119,67.064 76.672,66.459 76.875,65.545 C 77.095,64.571 76.783,63.724 76.056,63.277 C 76.274,63.415 76.389,63.693 76.331,63.956 z "
   id="path6165"
   style="fill:#060506" />
</g><g
       id="g6167">
	<path
   d="M 70.635,58.865 C 72.092,58.521 73.502,59.251 73.781,60.492 C 74.062,61.736 72.228,63.554 69.321,63.794"
   id="path6169"
   style="fill:#ffffff" />
</g><g
       id="g6171">
	<path
   d="M 70.773,59.468 C 71.4,59.319 72.041,59.409 72.521,59.719 C 72.768,59.877 73.086,60.163 73.195,60.634 C 73.277,60.998 73.174,61.423 72.902,61.798 C 72.598,62.219 71.821,62.952 70.02,63.102 L 70.02,63.102 C 69.687,63.128 69.44,63.427 69.467,63.766 C 69.488,64.107 69.783,64.358 70.113,64.33 L 70.113,64.33 C 71.804,64.192 73.139,63.547 73.88,62.525 C 74.356,61.858 74.529,61.068 74.372,60.355 C 74.218,59.667 73.786,59.069 73.156,58.67 C 72.402,58.191 71.432,58.043 70.497,58.263 L 70.497,58.263 C 70.175,58.343 69.972,58.673 70.048,59.005 C 70.122,59.339 70.446,59.544 70.773,59.468 L 70.773,59.468 z "
   id="path6173"
   style="fill:#060506" />
</g><g
       id="g6177"
       style="stroke:#000000;stroke-opacity:1">
	<path
   d="M 82.853,76.9 C 82.387,77.152 71.164,82.99 48.538,77.078 C 27.623,71.611 17.249,76.851 17.147,76.907 L 15.242,73.197 C 15.708,72.945 26.936,67.107 49.557,73.019 C 70.471,78.486 80.846,73.245 80.948,73.19 L 82.853,76.9 z "
   id="path6179"
   style="fill:#212462;stroke:#000000;stroke-opacity:1" />
</g><g
       id="g6181"
       style="stroke:#000000;stroke-width:0.5;stroke-miterlimit:4;stroke-dasharray:none;stroke-opacity:1">
	<path
   d="M 66.874,77.564 C 66.874,76.773 66.245,76.133 65.476,76.133 C 64.704,76.133 64.075,76.773 64.075,77.564 C 64.075,78.353 64.704,78.995 65.476,78.995 C 66.245,78.994 66.874,78.354 66.874,77.564 z "
   id="path6183"
   style="fill:#ffffff;stroke:#000000;stroke-width:0.5;stroke-miterlimit:4;stroke-dasharray:none;stroke-opacity:1" />
</g><g
       id="g6189"
       style="stroke:#000000;stroke-width:0.5;stroke-miterlimit:4;stroke-dasharray:none;stroke-opacity:1">
	<path
   d="M 31.219,72.534 C 31.219,71.744 31.846,71.104 32.618,71.104 C 33.39,71.104 34.021,71.744 34.021,72.534 C 34.021,73.323 33.39,73.965 32.618,73.965 C 31.846,73.968 31.219,73.323 31.219,72.534 z "
   id="path6191"
   style="fill:#ffffff;stroke:#000000;stroke-width:0.5;stroke-miterlimit:4;stroke-dasharray:none;stroke-opacity:1" />
</g><g
       id="g6197">
	<path
   d="M 67.665,29.153 C 67.679,29.153 67.686,29.153 67.696,29.153 C 68.634,29.153 69.717,29.964 70.593,30.824 C 71.003,31.223 71.37,31.633 71.663,31.976 C 71.667,31.53 68.587,28.67 68.587,27.126 C 68.587,25.149 70.157,23.543 72.1,23.543 C 74.038,23.543 75.606,25.15 75.606,27.126 C 75.606,28.669 72.536,31.529 72.536,31.976 C 72.822,31.633 73.191,31.224 73.602,30.824 C 74.486,29.964 75.565,29.153 76.503,29.153 C 76.515,29.153 76.524,29.153 76.532,29.153 C 78.503,29.171 80.094,30.803 80.094,32.821 C 80.094,34.846 78.482,36.49 76.498,36.49 C 75.137,36.49 73.471,34.771 72.546,33.692 C 72.557,34.134 72.567,34.567 72.589,34.946 C 72.59,34.96 72.592,34.973 72.592,34.987 C 72.597,35.088 72.603,35.185 72.611,35.279 C 72.633,35.664 72.673,35.97 72.715,36.149 C 72.722,36.172 72.726,36.194 72.732,36.212 C 73.128,37.477 73.162,37.359 74.015,38.944 L 70.19,38.944 C 71.044,37.359 71.083,37.476 71.47,36.212 C 71.477,36.19 71.482,36.168 71.489,36.145 C 71.529,35.963 71.563,35.657 71.593,35.275 C 71.6,35.184 71.604,35.088 71.611,34.991 C 71.611,34.976 71.613,34.964 71.613,34.949 C 71.634,34.568 71.645,34.134 71.654,33.688 C 70.734,34.77 69.064,36.489 67.71,36.489 C 65.724,36.489 64.106,34.845 64.106,32.82 C 64.099,30.801 65.695,29.173 67.665,29.153 z "
   id="path6199"
   style="fill:#060506" />
</g><path
       d="M 27.59,44.835 C 27.665,52.673 35.434,59.042 44.94,59.057 C 54.443,59.072 62.088,52.729 62.012,44.891 C 61.936,37.051 54.168,30.684 44.662,30.668 C 35.156,30.653 27.514,36.993 27.59,44.835 z "
       id="path6274"
       style="fill:url(#XMLID_23_);fill-opacity:1.0" /><path
       d="M 42.84,36.368 C 42.84,36.368 44.19,31.053 52.774,34.65 C 61.361,38.248 56.379,45.885 56.379,45.885 C 56.379,45.885 53.146,48.568 53.48,49.449 C 54.357,51.777 53.822,55.808 46.119,56.374 C 38.416,56.94 38.09,52.083 38.499,51.275 C 38.499,51.275 29.924,48.602 30.978,41.783 C 32.033,34.966 40.002,33.01 42.84,36.368 z "
       id="path6276"
       style="fill:#f4ecd6;stroke:#dad2c0;stroke-width:0.17640001" /><path
       d="M 53.365,37.775 C 53.365,37.775 46.591,32.678 45.808,39.034 C 45.03,45.391 48.009,49.096 51.917,47.368 C 55.825,45.638 59.021,42.524 53.365,37.775 z "
       id="path6278"
       style="fill:#ffffff;stroke:#c1a48c;stroke-width:0.17640001" /><path
       d="M 34.785,40.306 C 34.785,40.306 38.548,33.478 42.35,39.084 C 46.153,44.688 45.211,49.036 40.774,48.678 C 36.34,48.322 31.889,46.46 34.785,40.306 z "
       id="path6280"
       style="fill:#ffffff;stroke:#c1a48c;stroke-width:0.17640001" /><path
       d="M 53.642,52.709 C 53.642,52.709 53.871,50.91 53.621,50.404 C 52.735,48.641 49.078,47.382 47.051,49.241 C 47.051,49.241 46.096,49.925 44.879,49.173 C 43.303,48.203 38.234,49.227 38.076,51.013 C 37.885,53.186 39.53,56.596 45.278,56.605 C 51.026,56.614 53.233,53.931 53.642,52.709 z "
       id="path6291"
       style="fill:url(#XMLID_24_);stroke:#c1a48c;stroke-width:0.17640001" /><path
       d="M 51.79,51.642 C 51.79,51.642 47.216,56.838 38.8,53.356"
       id="path6293"
       style="fill:none;stroke:#b29d94;stroke-width:0.17640001" /><path
       d="M 46.479,49.969 C 46.479,49.969 48.312,51.578 46.541,56.49"
       id="path6295"
       style="fill:none;stroke:#c6afa4;stroke-width:0.17640001" /><path
       d="M 46.969,42.736 C 46.988,44.652 48.886,46.207 51.207,46.211 C 53.524,46.215 55.395,44.665 55.381,42.75 C 55.36,40.834 53.463,39.279 51.142,39.274 C 48.817,39.268 46.95,40.82 46.969,42.736 z "
       id="path6297"
       style="fill:#165829" /><path
       d="M 47.197,42.717 C 47.216,44.475 48.956,45.903 51.092,45.906 C 53.223,45.909 54.936,44.488 54.918,42.729 C 54.897,40.971 53.154,39.544 51.022,39.54 C 48.893,39.534 47.178,40.959 47.197,42.717 z "
       id="path6299"
       style="fill:#33a02c" /><path
       d="M 47.588,42.538 C 47.602,44.1 49.15,45.369 51.046,45.371 C 52.941,45.375 54.462,44.11 54.442,42.548 C 54.425,40.986 52.88,39.717 50.983,39.714 C 49.096,39.714 47.572,40.976 47.588,42.538 z "
       id="path6301" /><path
       d="M 51.723,43.504 C 51.477,43.923 51.613,44.399 52.023,44.566 C 52.434,44.733 52.967,44.529 53.213,44.109 C 53.461,43.69 53.319,43.214 52.914,43.047 C 52.502,42.88 51.969,43.084 51.723,43.504 z "
       id="path6303"
       style="fill:#33a02c" /><path
       enable-background="new    "
       d="M 53.872,42.132 C 53.872,42.132 53.579,40.628 52.036,40.51 C 52.036,40.51 51.195,40.971 51.897,41.088 C 52.6,41.205 53.02,41.321 53.168,42.13 C 53.32,42.94 53.872,42.132 53.872,42.132 z "
       id="path6305"
       style="opacity:0.86000001;fill:#ffffff" /><path
       enable-background="new    "
       d="M 49.075,43.43 C 49.079,43.813 49.241,44.124 49.433,44.124 C 49.626,44.124 49.78,43.814 49.776,43.431 C 49.772,43.048 49.613,42.737 49.421,42.737 C 49.227,42.739 49.072,43.049 49.075,43.43 z "
       id="path6307"
       style="opacity:0.86000001;fill:#ffffff" /><path
       d="M 35.374,44.489 C 35.395,46.405 37.29,47.96 39.611,47.964 C 41.934,47.968 43.801,46.418 43.783,44.503 C 43.762,42.586 41.867,41.032 39.546,41.027 C 37.221,41.023 35.356,42.573 35.374,44.489 z "
       id="path6309"
       style="fill:#165829" /><path
       d="M 35.602,44.47 C 35.621,46.227 37.361,47.655 39.495,47.658 C 41.626,47.661 43.341,46.24 43.322,44.481 C 43.305,42.724 41.563,41.295 39.432,41.292 C 37.301,41.289 35.585,42.713 35.602,44.47 z "
       id="path6311"
       style="fill:#33a02c" /><path
       d="M 35.993,44.295 C 36.009,45.857 37.555,47.126 39.45,47.129 C 41.345,47.132 42.867,45.868 42.852,44.305 C 42.836,42.743 41.289,41.475 39.395,41.472 C 37.502,41.468 35.977,42.733 35.993,44.295 z "
       id="path6313" /><path
       d="M 40.129,45.259 C 39.883,45.678 40.016,46.154 40.428,46.321 C 40.84,46.488 41.373,46.284 41.62,45.863 C 41.866,45.444 41.73,44.968 41.318,44.801 C 40.91,44.634 40.374,44.839 40.129,45.259 z "
       id="path6315"
       style="fill:#33a02c" /><path
       enable-background="new    "
       d="M 42.281,43.885 C 42.281,43.885 41.986,42.381 40.443,42.263 C 40.443,42.263 39.606,42.724 40.309,42.84 C 41.01,42.957 41.43,43.073 41.58,43.883 C 41.727,44.695 42.281,43.885 42.281,43.885 z "
       id="path6317"
       style="opacity:0.86000001;fill:#ffffff" /><path
       enable-background="new    "
       d="M 37.481,45.185 C 37.486,45.568 37.647,45.878 37.84,45.879 C 38.032,45.879 38.186,45.569 38.184,45.186 C 38.18,44.803 38.02,44.492 37.83,44.492 C 37.633,44.491 37.479,44.801 37.481,45.185 z "
       id="path6319"
       style="opacity:0.86000001;fill:#ffffff" /><path
       d="M 46.729,48.301 C 46.772,48.52 46.924,48.681 47.073,48.663 C 47.219,48.644 47.303,48.454 47.261,48.235 C 47.22,48.017 47.066,47.855 46.921,47.873 C 46.772,47.89 46.688,48.084 46.729,48.301 z "
       id="path6321"
       style="fill:#a9775d" /><path
       d="M 45.85,48.422 C 45.893,48.64 46.047,48.802 46.193,48.783 C 46.339,48.766 46.422,48.575 46.381,48.356 C 46.34,48.139 46.186,47.977 46.039,47.995 C 45.893,48.01 45.809,48.201 45.85,48.422 z "
       id="path6323"
       style="fill:#a9775d" /><path
       d="M 20.76,43.485 C 23.018,34.702 27.572,29.205 31.342,30.359 C 34.549,33.693 35.387,42.872 33.096,51.644 C 30.854,60.238 25.131,64.946 22.141,62.988 C 19.15,61.03 18.504,52.264 20.76,43.485 z "
       id="path6325"
       style="fill:#ff8600" /><path
       d="M 21.824,63.489 C 22.816,64.142 24.056,64.202 25.413,63.666 C 28.271,62.533 31.934,58.425 33.663,51.796 C 35.992,42.883 35.174,33.486 31.762,29.94 L 31.658,29.829 L 31.513,29.786 C 30.345,29.429 29.066,29.619 27.812,30.337 C 24.673,32.135 21.827,36.992 20.196,43.334 C 17.84,52.494 18.557,61.349 21.824,63.489 z M 21.326,43.634 C 22.852,37.691 25.555,32.993 28.384,31.376 C 29.367,30.812 30.308,30.66 31.175,30.928 L 30.925,30.774 C 34.019,33.991 34.726,43.089 32.529,51.487 C 30.905,57.71 27.57,61.528 24.987,62.549 C 24.299,62.824 23.297,63.033 22.456,62.483 C 19.987,60.869 18.943,52.907 21.326,43.634 z "
       id="path6327"
       style="fill:#060506" /><path
       d="M 20.76,43.485 C 22.815,35.484 26.781,30.215 30.32,30.21 C 32.852,34.124 33.458,42.298 31.311,50.273 C 29.237,57.992 25.29,63.545 21.752,63.548 C 19.221,59.634 18.705,51.486 20.76,43.485 z "
       id="path6329"
       style="fill:#ff8600" /><path
       d="M 21.264,63.873 L 21.438,64.143 L 21.754,64.143 C 25.541,64.14 29.703,58.499 31.877,50.43 C 33.988,42.568 33.551,34.118 30.809,29.879 L 30.635,29.609 L 30.32,29.609 C 26.374,29.615 22.303,35.128 20.195,43.331 C 18.147,51.295 18.588,59.741 21.264,63.873 z M 22.242,63.218 C 19.735,59.346 19.358,51.294 21.327,43.636 C 23.235,36.207 27.017,30.811 30.32,30.806 L 29.832,30.538 C 32.362,34.447 32.748,42.681 30.748,50.114 C 28.749,57.549 24.967,62.947 21.753,62.95 L 22.242,63.218 z "
       id="path6331"
       style="fill:#060506" /><path
       d="M 20.76,43.485 C 22.604,36.305 25.989,31.309 29.221,30.361 C 31.117,34.608 31.338,41.923 29.492,49.104 C 27.645,56.285 24.263,61.278 21.03,62.227 C 19.137,57.974 18.914,50.662 20.76,43.485 z "
       id="path6333"
       style="fill:#ff8600" /><path
       d="M 20.498,62.473 L 20.707,62.943 L 21.191,62.799 C 24.729,61.761 28.212,56.442 30.057,49.251 C 31.885,42.139 31.764,34.626 29.752,30.111 L 29.543,29.641 L 29.057,29.784 C 25.518,30.823 22.036,36.14 20.191,43.331 C 18.367,50.444 18.485,57.956 20.498,62.473 z M 21.565,61.981 C 19.656,57.7 19.563,50.499 21.328,43.636 C 23.045,36.95 26.284,31.844 29.386,30.933 L 28.691,30.606 C 30.601,34.887 30.693,42.087 28.929,48.95 C 27.21,55.637 23.972,60.742 20.871,61.654 L 21.565,61.981 z "
       id="path6335"
       style="fill:#060506" /><path
       d="M 28.085,30.868 C 29.383,35.214 29.361,41.608 27.743,47.911 C 26.113,54.251 23.284,58.871 20.418,60.525 C 19.119,56.177 19.141,49.784 20.76,43.482 C 22.389,37.141 25.219,32.523 28.085,30.868 z "
       id="path6337"
       style="fill:#ff8600" /><path
       d="M 28.434,29.984 L 27.797,30.35 C 24.657,32.161 21.817,37.014 20.193,43.333 C 18.594,49.557 18.469,56.049 19.859,60.702 L 20.07,61.415 L 20.707,61.048 C 23.847,59.238 26.686,54.383 28.31,48.063 C 29.913,41.84 30.039,35.349 28.646,30.695 L 28.434,29.984 z M 28.373,31.388 L 27.524,31.043 C 28.835,35.426 28.701,41.831 27.176,47.759 C 25.653,53.685 22.951,58.378 20.129,60.007 L 20.977,60.352 C 19.668,55.968 19.801,49.562 21.326,43.634 C 22.848,37.712 25.547,33.016 28.373,31.388 z "
       id="path6339"
       style="fill:#060506" /><path
       d="M 26.776,31.816 C 27.527,35.99 27.297,41.404 25.926,46.743 C 24.545,52.113 22.305,56.259 19.909,58.41 C 19.155,54.238 19.387,48.82 20.76,43.484 C 22.139,38.114 24.381,33.965 26.776,31.816 z "
       id="path6341"
       style="fill:#ff8600" /><path
       d="M 27.163,30.672 L 26.39,31.37 C 23.81,33.683 21.554,38.043 20.195,43.334 C 18.851,48.557 18.541,54.093 19.34,58.52 L 19.526,59.557 L 20.303,58.86 C 22.877,56.544 25.137,52.185 26.496,46.896 C 27.836,41.673 28.148,36.136 27.351,31.712 L 27.163,30.672 z M 27.161,32.264 L 26.201,31.923 C 26.968,36.183 26.661,41.528 25.359,46.589 C 24.055,51.654 21.93,55.8 19.523,57.96 L 20.485,58.3 C 19.717,54.04 20.024,48.695 21.327,43.634 C 22.625,38.569 24.754,34.426 27.161,32.264 z "
       id="path6343"
       style="fill:#060506" /><path
       d="M 51.355,22.565 C 56.778,25.396 60.107,34.365 61.6,38.687 C 59.579,40.324 56.67,39.088 53.976,37.835 C 49.806,35.893 47.52,30.73 48.872,26.301 C 49.351,24.723 50.234,23.458 51.355,22.565 z "
       id="path6345"
       style="fill:#ff8600" /><path
       d="M 49.353,27.339 C 49.346,27.492 49.207,31.149 51.994,34.199 C 54.285,36.705 57.832,38.029 62.525,38.135 C 62.525,38.135 62.107,36.947 61.889,36.935 C 57.854,36.736 54.814,35.552 52.849,33.413 C 50.391,30.735 50.502,27.427 50.504,27.393 L 49.353,27.339 z "
       id="path6347"
       style="fill:#060506" /><path
       d="M 51.576,29.789 C 52.637,32.122 55.055,35.101 60.597,36.039 L 60.785,34.878 C 55.734,34.024 53.556,31.372 52.621,29.296 L 51.576,29.789 z "
       id="path6349"
       style="fill:#060506" /><path
       d="M 62.838,38.695 L 62.838,38.695 C 62.393,38.771 51.852,40.417 48.935,30.034 L 47.827,30.358 C 51.029,41.758 62.91,39.876 63.03,39.854 L 62.838,38.695 z "
       id="path6351"
       style="fill:#060506" /><path
       d="M 49.959,26.175 C 51.831,30.201 48.694,35.961 42.961,39.041 C 37.232,42.121 31.068,41.356 29.201,37.333 C 27.334,33.309 30.468,27.55 36.197,24.469 C 41.932,21.384 48.092,22.154 49.959,26.175 z "
       id="path6353"
       style="fill:#ff8600" /><path
       d="M 43.225,39.611 C 49.242,36.378 52.496,30.224 50.492,25.892 C 50.145,25.151 49.662,24.518 49.078,23.981 C 49.012,23.845 48.929,23.722 48.855,23.592 C 47.837,23.479 46.803,23.47 45.752,23.568 C 45.691,26.811 43.006,30.582 38.82,32.829 C 35.935,34.379 32.954,34.869 30.57,34.408 C 30.388,34.773 30.23,35.145 30.075,35.518 C 32.763,36.13 36.116,35.653 39.33,33.924 C 43.731,31.56 46.594,27.566 46.851,23.957 L 46.856,23.957 C 47.779,27.458 44.939,32.095 40.099,34.693 C 36.411,36.679 32.542,36.948 30.003,35.681 C 29.634,36.578 29.343,37.492 29.115,38.415 C 31.532,42.046 37.602,42.633 43.225,39.611 z M 41.457,36.442 C 37.472,38.587 33.272,38.779 30.695,37.225 C 33.479,38.085 37.133,37.662 40.612,35.791 C 45.445,33.194 48.416,28.635 48.134,24.775 C 48.134,24.776 48.135,24.776 48.137,24.777 C 49.684,28.415 46.727,33.611 41.457,36.442 z M 31.036,38.74 C 33.961,39.982 38.076,39.661 41.977,37.564 C 46.574,35.095 49.518,30.894 49.686,27.144 C 50.774,30.804 47.8,35.727 42.695,38.467 C 38.243,40.863 33.537,40.862 31.036,38.74 z "
       id="path6355"
       style="fill:#060506" /><path
       d="M 35.21,30.413 C 40.185,26.033 59.008,28.422 59.008,28.422 C 59.008,28.422 52.57,19.963 45.061,18.272 C 40.424,17.227 25.846,17.21 24.674,21.853 C 23.391,26.951 21.895,29.661 18.971,33.422 C 17.588,35.196 20.631,42.731 20.631,42.731 C 20.631,42.731 30.236,34.79 35.21,30.413 z "
       id="path6357"
       style="fill:#d90000" /><path
       d="M 20.264,42.266 C 20.409,42.149 20.598,42.105 20.777,42.151 C 20.957,42.199 21.104,42.328 21.173,42.503 C 19.964,39.509 18.623,34.828 19.429,33.793 C 22.216,30.208 23.884,27.398 25.242,22.002 C 26.225,18.085 40.033,17.75 44.93,18.855 C 52.143,20.48 58.48,28.706 58.539,28.787 C 58.393,28.598 58.379,28.337 58.494,28.126 C 58.606,27.917 58.842,27.799 59.074,27.83 C 58.299,27.73 39.93,25.46 34.82,29.96 C 29.915,34.282 20.36,42.19 20.264,42.266 z M 20.488,43.309 C 20.67,43.354 20.856,43.313 21.001,43.195 C 21.099,43.114 30.668,35.197 35.595,30.863 C 40.314,26.709 58.752,28.991 58.936,29.016 C 59.17,29.044 59.401,28.929 59.519,28.717 C 59.633,28.508 58.498,26.793 57.068,25.303 C 54.485,22.619 50.093,18.794 45.189,17.689 C 40.611,16.657 25.437,16.442 24.111,21.707 C 22.798,26.925 21.257,29.523 18.513,33.053 C 16.992,35.003 19.562,41.648 20.093,42.96 C 20.161,43.134 20.309,43.261 20.488,43.309 z "
       id="path6359"
       style="fill:#060506" /><path
       d="M 28.055,23.591 C 28.428,22.995 29.201,22.814 29.785,23.19 C 30.37,23.569 30.551,24.36 30.18,24.96 C 29.973,25.294 28.909,25.867 27.818,26.381 C 27.799,25.155 27.85,23.926 28.055,23.591 z "
       id="path6361"
       style="fill:#060506" /><path
       d="M 25.453,23.483 C 25.984,23.031 26.776,23.103 27.224,23.647 C 27.472,23.952 27.677,25.161 27.82,26.381 C 26.674,26.02 25.545,25.594 25.295,25.287 C 24.848,24.743 24.92,23.933 25.453,23.483 z "
       id="path6363"
       style="fill:#060506" /><path
       d="M 30.493,25.753 C 31.163,25.926 31.569,26.623 31.399,27.307 C 31.228,27.995 30.545,28.411 29.874,28.237 C 29.499,28.14 28.635,27.283 27.818,26.381 C 28.955,25.986 30.112,25.655 30.493,25.753 z "
       id="path6365"
       style="fill:#060506" /><path
       d="M 28.059,30.141 C 27.371,30.187 26.768,29.653 26.723,28.947 C 26.701,28.551 27.229,27.45 27.818,26.378 C 28.539,27.363 29.203,28.383 29.227,28.778 C 29.276,29.487 28.75,30.094 28.059,30.141 z "
       id="path6367"
       style="fill:#060506" /><path
       d="M 25.085,26.114 C 25.444,25.968 26.639,26.139 27.815,26.379 C 27.121,27.382 26.375,28.347 26.013,28.493 C 25.37,28.757 24.64,28.433 24.382,27.779 C 24.129,27.121 24.444,26.377 25.085,26.114 z "
       id="path6369"
       style="fill:#060506" /><g
       id="g6371">
	<path
   d="M 24.897,30.383 C 25.198,30.578 25.292,30.986 25.098,31.295 C 24.993,31.468 24.443,31.765 23.875,32.03 C 23.867,31.397 23.893,30.763 23.999,30.591 C 24.192,30.279 24.592,30.186 24.897,30.383 z "
   id="path6373"
   style="fill:#060506" />
	<path
   d="M 22.654,30.53 C 22.93,30.295 23.342,30.334 23.569,30.613 C 23.696,30.773 23.803,31.398 23.879,32.028 C 23.284,31.842 22.698,31.622 22.569,31.462 C 22.342,31.182 22.379,30.763 22.654,30.53 z "
   id="path6375"
   style="fill:#060506" />
	<path
   d="M 25.729,32.51 C 25.639,32.864 25.288,33.079 24.94,32.988 C 24.748,32.939 24.299,32.498 23.878,32.03 C 24.467,31.827 25.065,31.655 25.262,31.707 C 25.606,31.797 25.817,32.155 25.729,32.51 z "
   id="path6377"
   style="fill:#060506" />
	<path
   d="M 24.002,33.974 C 23.643,33.997 23.332,33.723 23.309,33.358 C 23.297,33.152 23.573,32.582 23.874,32.027 C 24.246,32.538 24.59,33.064 24.603,33.27 C 24.629,33.634 24.36,33.95 24.002,33.974 z "
   id="path6379"
   style="fill:#060506" />
	<path
   d="M 22.463,31.89 C 22.65,31.813 23.266,31.905 23.875,32.027 C 23.518,32.548 23.131,33.046 22.942,33.119 C 22.61,33.257 22.232,33.09 22.097,32.752 C 21.969,32.414 22.133,32.029 22.463,31.89 z "
   id="path6381"
   style="fill:#060506" />
</g><path
       d="M 21.156,35.635 C 21.151,35.236 21.167,34.836 21.233,34.725 C 21.354,34.531 21.608,34.472 21.799,34.594 C 21.987,34.717 22.047,34.975 21.926,35.17 C 21.858,35.28 21.51,35.468 21.156,35.635 L 21.156,35.635 z "
       id="path6383"
       style="fill:#060506" /><path
       d="M 21.156,35.635 C 20.781,35.516 20.414,35.378 20.333,35.278 C 20.188,35.1 20.214,34.837 20.388,34.69 C 20.56,34.542 20.821,34.566 20.964,34.744 C 21.04,34.843 21.108,35.239 21.156,35.635 L 21.156,35.635 z "
       id="path6385"
       style="fill:#060506" /><path
       d="M 21.156,35.635 C 21.527,35.505 21.904,35.4 22.027,35.43 C 22.246,35.486 22.381,35.713 22.325,35.937 C 22.266,36.158 22.047,36.296 21.827,36.239 C 21.702,36.209 21.422,35.929 21.156,35.635 L 21.156,35.635 z "
       id="path6387"
       style="fill:#060506" /><path
       d="M 21.156,35.635 C 21.389,35.955 21.606,36.286 21.617,36.416 C 21.634,36.645 21.461,36.846 21.234,36.86 C 21.008,36.875 20.813,36.702 20.797,36.471 C 20.789,36.343 20.963,35.986 21.156,35.635 L 21.156,35.635 z "
       id="path6389"
       style="fill:#060506" /><path
       d="M 21.156,35.635 C 20.772,35.556 20.385,35.499 20.266,35.548 C 20.057,35.632 19.954,35.877 20.037,36.09 C 20.12,36.303 20.359,36.409 20.569,36.322 C 20.686,36.278 20.93,35.964 21.156,35.635 L 21.156,35.635 z "
       id="path6391"
       style="fill:#060506" /><path
       d="M 13.623,41.803 C 18.084,40.5 23.988,37.38 30.602,30.295 C 33.713,26.96 40.411,21.075 49.451,22.252 C 59.399,23.545 61.642,33.496 61.642,33.496 C 61.642,33.496 54.121,26.805 48.642,27.783 C 43.763,28.655 38.339,30.48 35.275,34.264 C 29.942,40.857 22.6,47.303 13.561,48.92 L 13.623,41.803 z "
       id="path6393"
       style="fill:#060506" /><path
       d="M 13.895,57.969 C 18.793,47.874 26.639,43.305 33.492,34.838 C 35.971,31.775 42.585,29.472 48.744,28.373 C 53.88,27.455 61.184,33.881 61.238,34.376 L 62.597,35.586 C 62.597,35.586 59.756,22.993 49.523,21.661 C 40.923,20.541 34.257,25.515 30.177,29.884 C 24.677,35.779 19.054,39.595 13.464,41.23 L 13.895,57.969 z M 14.145,48.926 L 14.208,41.808 L 13.785,42.377 C 19.576,40.683 25.377,36.758 31.023,30.707 C 34.915,26.537 41.257,21.789 49.375,22.845 C 56.277,23.741 59.296,28.914 60.457,31.763 C 60.879,32.798 61.053,33.526 61.069,33.63 C 61.069,33.63 54.225,26.179 48.54,27.196 C 42.097,28.346 37.481,30.598 34.821,33.886 C 28.152,42.128 20.967,46.99 13.459,48.334 L 14.145,48.926 z "
       id="path6395"
       style="fill:#060506" /><path
       d="M 30.986,32.764 C 34.496,28.726 41.746,23.545 48.379,23.447 C 54.355,23.356 58.916,27.626 60.379,30.413 C 64.541,38.345 61.842,45.837 61.842,45.837 C 61.842,45.837 63.696,35.188 56.088,30.612 C 51.33,27.749 44.281,29.716 39.994,32.503 C 35.7,35.288 28.03,42.034 23.899,48.589 C 21.419,52.527 19.276,55.518 16.492,62.184 L 16.393,51.501 C 16.391,51.503 18.793,46.798 30.986,32.764 z "
       id="path6397"
       style="fill:#ffffff" /><path
       d="M 16.03,53.072 C 16.028,53.115 16.03,53.159 16.037,53.205 C 16.037,53.205 13.995,68.851 14.278,68.851 C 14.565,68.851 18.047,59.206 24.389,48.913 C 28.424,42.367 36.16,35.695 40.303,33.008 C 44.75,30.12 51.496,28.547 55.783,31.128 C 62.942,35.436 61.274,45.631 61.262,45.734 C 61.205,46.037 61.393,46.333 61.684,46.414 C 61.978,46.495 62.285,46.336 62.387,46.043 C 62.484,45.773 65.221,43.804 63.116,37.143 C 62.762,36.024 61.058,31.138 60.449,29.976 C 58.946,27.111 54.657,22.755 48.369,22.852 C 43.304,22.929 37.49,26.025 30.598,32.323 C 16.592,45.114 16.044,52.751 16.03,53.072 z M 15.527,53.364 C 15.533,53.289 18.539,46.381 31.377,33.211 C 38.009,26.41 43.618,24.214 48.387,24.044 C 56.262,23.764 58.486,28.079 59.859,30.695 C 63.843,38.283 61.313,45.56 61.294,45.631 C 61.398,45.341 61.697,45.18 61.992,45.262 C 62.286,45.343 62.471,45.637 62.419,45.943 C 62.44,45.832 64.251,34.832 56.388,30.099 C 51.471,27.142 44.279,29.011 39.679,32 C 35.447,34.749 27.601,41.61 23.408,48.269 C 21.369,51.505 18.511,56.99 16.106,61.695 C 15.891,62.619 15.53,53.317 15.527,53.364 z "
       id="path6399"
       style="fill:#060506" /><path
       d="M 12.943,53.971 C 12.959,54.019 12.984,54.061 13.002,54.105 C 12.981,54.109 12.968,54.115 12.95,54.118 L 15.779,55.716 C 15.897,55.695 16.018,55.674 16.137,55.635 C 17.465,55.195 18.199,53.734 17.768,52.376 C 17.735,52.269 17.684,52.176 17.639,52.074 C 17.729,52.058 17.819,52.046 17.91,52.018 C 19.241,51.577 19.972,50.115 19.542,48.759 C 19.534,48.737 19.521,48.719 19.518,48.7 C 19.698,48.681 19.874,48.647 20.053,48.588 C 21.292,48.177 21.992,46.88 21.737,45.608 C 21.841,45.611 21.938,45.613 22.046,45.602 C 23.435,45.435 24.433,44.147 24.267,42.73 C 24.255,42.618 24.224,42.515 24.199,42.408 C 24.292,42.408 24.384,42.415 24.476,42.403 C 25.868,42.234 26.861,40.946 26.698,39.53 C 26.695,39.508 26.685,39.489 26.683,39.468 C 26.861,39.485 27.043,39.488 27.23,39.466 C 28.55,39.304 29.501,38.127 29.453,36.794 C 29.564,36.811 29.682,36.83 29.805,36.83 C 31.201,36.83 32.34,35.668 32.34,34.242 C 32.34,34.131 32.319,34.023 32.309,33.915 C 32.401,33.925 32.491,33.943 32.584,33.943 C 33.98,33.943 35.119,32.781 35.119,31.357 C 35.119,31.335 35.112,31.315 35.112,31.293 C 35.288,31.333 35.468,31.357 35.655,31.357 C 37.002,31.357 38.093,30.277 38.176,28.924 C 38.194,28.931 38.213,28.931 38.229,28.939 C 38.465,29.015 38.71,29.067 38.973,29.067 C 40.182,29.067 41.192,28.196 41.446,27.039 C 41.791,27.215 42.173,27.325 42.584,27.325 C 43.688,27.325 44.618,26.597 44.968,25.593 C 45.355,25.836 45.804,25.983 46.291,25.983 C 47.188,25.983 47.976,25.501 48.427,24.778 C 48.893,25.329 49.573,25.685 50.341,25.685 C 50.945,25.685 51.487,25.461 51.927,25.102 C 52.362,25.89 53.179,26.431 54.128,26.431 C 54.44,26.431 54.745,26.365 55.024,26.256 C 57.462,27.426 58.734,27.243 58.44,26.891 C 58.197,27.119 56.314,25.128 56.566,24.876 C 56.233,24.546 55.878,24.208 55.488,23.859 C 55.481,24.619 54.878,25.236 54.132,25.236 C 53.378,25.236 52.767,24.611 52.767,23.842 C 52.767,23.832 52.771,23.82 52.771,23.81 C 52.81,23.667 52.835,23.52 52.853,23.371 C 53.013,22.918 53.33,22.974 53.8,22.878 C 53.677,22.78 52.477,22.244 50.874,22.136 C 51.359,22.241 51.706,22.524 51.706,23.096 C 51.706,23.108 51.7,23.117 51.7,23.131 C 51.662,23.273 51.638,23.419 51.618,23.569 C 51.43,24.105 50.93,24.489 50.343,24.489 C 49.591,24.489 48.979,23.864 48.979,23.096 C 48.979,22.391 49.498,22.132 50.167,22.092 C 48.945,22.025 47.625,21.991 46.502,22.023 C 47.155,22.125 47.663,22.699 47.663,23.396 C 47.663,24.163 47.05,24.788 46.296,24.788 C 45.543,24.788 44.931,24.163 44.931,23.396 C 44.931,22.739 45.378,22.192 45.98,22.044 C 44.839,22.106 44.015,22.254 43.916,22.542 C 43.527,22.299 43.079,22.151 42.592,22.151 C 41.381,22.151 40.37,23.021 40.12,24.179 C 39.773,24.001 39.392,23.893 38.982,23.893 C 37.64,23.893 36.551,24.964 36.461,26.309 C 36.461,26.315 36.46,26.319 36.46,26.325 C 36.209,26.24 35.943,26.182 35.665,26.182 C 34.266,26.182 33.129,27.341 33.129,28.769 C 33.129,28.79 33.136,28.809 33.136,28.831 C 32.959,28.794 32.778,28.769 32.594,28.769 C 31.196,28.769 30.059,29.928 30.059,31.357 C 30.059,31.468 30.079,31.574 30.088,31.683 C 29.998,31.672 29.906,31.655 29.815,31.655 C 28.417,31.655 27.278,32.815 27.278,34.241 C 27.278,34.278 27.284,34.313 27.29,34.349 C 27.081,34.316 26.866,34.3 26.645,34.325 C 25.255,34.492 24.261,35.783 24.424,37.199 C 24.426,37.221 24.438,37.24 24.438,37.261 C 24.258,37.243 24.079,37.242 23.893,37.263 C 22.502,37.431 21.505,38.72 21.669,40.136 C 21.684,40.246 21.714,40.351 21.736,40.458 C 21.646,40.458 21.554,40.451 21.461,40.461 C 20.07,40.629 19.075,41.919 19.24,43.335 C 19.246,43.385 19.261,43.431 19.271,43.478 C 19.251,43.478 19.234,43.481 19.214,43.48 L 19.297,43.551 C 19.03,43.549 18.765,43.576 18.499,43.664 C 17.169,44.106 16.437,45.567 16.868,46.922 C 16.875,46.943 16.889,46.961 16.891,46.981 C 16.711,46.998 16.536,47.035 16.354,47.091 C 15.026,47.531 14.292,48.993 14.725,50.35 C 14.758,50.454 14.809,50.55 14.854,50.652 C 14.762,50.67 14.671,50.681 14.583,50.71 C 13.243,51.155 12.512,52.615 12.943,53.971 z M 41.208,24.74 C 41.208,23.971 41.819,23.347 42.574,23.347 C 43.326,23.347 43.936,23.972 43.936,24.74 C 43.936,25.508 43.326,26.133 42.574,26.133 C 41.821,26.134 41.208,25.51 41.208,24.74 z M 37.6,26.483 C 37.6,25.714 38.211,25.089 38.965,25.089 C 39.717,25.089 40.329,25.714 40.329,26.483 C 40.329,27.251 39.719,27.876 38.965,27.876 C 38.211,27.875 37.6,27.25 37.6,26.483 z M 34.284,28.772 C 34.284,28.004 34.894,27.378 35.649,27.378 C 36.402,27.378 37.015,28.004 37.015,28.772 C 37.015,29.541 36.402,30.165 35.649,30.165 C 34.895,30.163 34.284,29.538 34.284,28.772 z M 31.211,31.36 C 31.211,30.591 31.822,29.967 32.576,29.967 C 33.328,29.967 33.941,30.592 33.941,31.36 C 33.941,32.127 33.328,32.752 32.576,32.752 C 31.824,32.752 31.211,32.127 31.211,31.36 z M 29.797,35.636 C 29.044,35.636 28.432,35.011 28.432,34.243 C 28.432,33.475 29.042,32.85 29.797,32.85 C 30.549,32.85 31.161,33.475 31.161,34.243 C 31.162,35.012 30.549,35.636 29.797,35.636 z M 26.764,35.514 C 27.514,35.424 28.194,35.971 28.283,36.733 C 28.372,37.495 27.836,38.19 27.088,38.279 C 26.341,38.368 25.66,37.821 25.57,37.06 C 25.481,36.301 26.016,35.606 26.764,35.514 z M 22.815,40.001 C 22.727,39.237 23.264,38.543 24.012,38.452 C 24.76,38.363 25.44,38.91 25.528,39.673 C 25.618,40.437 25.081,41.13 24.333,41.22 C 23.585,41.308 22.904,40.76 22.815,40.001 z M 21.904,44.42 C 21.158,44.511 20.477,43.962 20.389,43.198 C 20.301,42.436 20.836,41.742 21.58,41.653 C 22.329,41.562 23.012,42.11 23.1,42.872 C 23.188,43.634 22.651,44.327 21.904,44.42 z M 17.971,46.557 C 17.74,45.827 18.133,45.039 18.848,44.801 C 19.565,44.565 20.336,44.969 20.568,45.7 C 20.799,46.429 20.406,47.216 19.69,47.454 C 18.973,47.692 18.202,47.287 17.971,46.557 z M 15.827,49.987 C 15.597,49.256 15.991,48.469 16.707,48.234 C 17.425,47.996 18.193,48.397 18.427,49.128 C 18.658,49.859 18.265,50.646 17.55,50.883 C 16.832,51.117 16.061,50.717 15.827,49.987 z M 14.934,51.85 C 15.65,51.613 16.422,52.016 16.654,52.746 C 16.887,53.476 16.493,54.262 15.777,54.499 C 15.061,54.734 14.29,54.333 14.057,53.603 C 13.824,52.873 14.217,52.088 14.934,51.85 z "
       id="path6401"
       style="fill:#060506" /></g><use
     height="150.086"
     width="98.099998"
     id="use8698"
     transform="matrix(-1,0,0,-1,98.14576,150.08718)"
     xlink:href="#g8532"
     inkscape:tiled-clone-of="#g8532"
     y="0"
     x="0" /><path
     id="path6483"
     d="M 91.331,0.044 L 6.77,0.044 C 3.053,0.044 0.044,3.081 0.044,6.826 L 0.044,143.264 C 0.044,147.006 3.053,150.042 6.77,150.042 L 91.326,150.042 C 95.038,150.042 98.055,147.005 98.055,143.264 L 98.057,6.826 C 98.057,3.08 95.042,0.044 91.331,0.044 z M 81.216,129.441 C 81.216,132.427 79.237,134.849 76.802,134.849 L 21.293,134.849 C 18.854,134.849 16.875,132.427 16.875,129.441 L 16.875,20.649 C 16.875,17.663 18.854,15.241 21.293,15.241 L 76.803,15.241 C 79.238,15.241 81.217,17.663 81.217,20.649 L 81.216,129.441 z "
     style="fill:#f7f7f7;stroke:#060506;stroke-width:0.0882" /><g
     id="g6485">
	<path
   id="path6487"
   d="M 11.69,31.71 C 10.883,31.71 9.889,32.736 9.346,33.378 C 9.346,33.114 11.161,31.426 11.161,30.516 C 11.161,29.349 10.231,28.401 9.092,28.401 C 7.946,28.401 7.02,29.349 7.02,30.516 C 7.02,31.426 8.834,33.115 8.834,33.378 C 8.292,32.739 7.297,31.71 6.488,31.71 C 5.317,31.71 4.364,32.679 4.364,33.877 C 4.364,35.073 5.316,36.044 6.488,36.044 C 7.297,36.044 8.277,35.029 8.82,34.39 C 8.808,35.06 8.778,35.678 8.716,35.878 C 8.484,36.625 8.462,36.554 7.96,37.489 L 10.218,37.489 C 9.712,36.556 9.695,36.625 9.462,35.878 C 9.4,35.678 9.368,35.06 9.357,34.39 C 9.902,35.029 10.884,36.044 11.69,36.044 C 12.858,36.044 13.81,35.074 13.81,33.877 C 13.815,32.677 12.863,31.71 11.69,31.71 z "
   style="fill:#060506" />
	<path
   id="path6489"
   d="M 86.407,119.868 C 87.219,119.868 88.213,118.843 88.754,118.202 C 88.754,118.469 86.941,120.152 86.941,121.062 C 86.941,122.232 87.871,123.177 89.012,123.177 C 90.156,123.177 91.079,122.232 91.079,121.062 C 91.079,120.152 89.266,118.461 89.267,118.202 C 89.808,118.843 90.802,119.868 91.609,119.868 C 92.785,119.868 93.733,118.898 93.733,117.701 C 93.731,116.509 92.785,115.535 91.609,115.535 C 90.806,115.535 89.823,116.556 89.279,117.187 C 89.298,116.517 89.322,115.896 89.384,115.703 C 89.613,114.954 89.636,115.021 90.14,114.089 L 87.879,114.089 C 88.386,115.027 88.4,114.954 88.636,115.703 C 88.698,115.896 88.729,116.517 88.74,117.185 C 88.194,116.545 87.216,115.535 86.406,115.535 C 85.236,115.535 84.284,116.508 84.284,117.701 C 84.282,118.9 85.235,119.868 86.407,119.868 z "
   style="fill:#060506" />
	<path
   id="path6491"
   d="M 6.35,9.974 C 5.674,10.65 5.33,11.62 5.33,12.857 C 5.33,12.857 5.33,16.149 5.33,16.479 C 5.075,16.471 4.258,16.447 4.258,16.447 L 4.264,16.629 L 4.264,18.016 C 4.264,18.016 5.096,18.043 5.329,18.051 C 5.329,18.325 5.329,19.538 5.329,19.538 C 5.329,20.774 5.674,21.744 6.35,22.419 C 6.996,23.071 7.916,23.414 9.086,23.437 C 10.264,23.415 11.186,23.072 11.834,22.419 C 11.834,22.419 12.03,22.176 12.143,22.042 C 12.633,22.123 13.167,22.168 13.743,22.168 L 13.92,22.168 L 13.92,20.603 L 13.743,20.603 C 13.389,20.603 13.059,20.573 12.747,20.534 C 12.808,20.22 12.852,19.896 12.852,19.538 L 12.852,12.858 C 12.852,11.623 12.51,10.652 11.834,9.975 C 11.184,9.324 10.262,8.981 9.094,8.955 C 7.92,8.982 6.998,9.322 6.35,9.974 z M 6.915,19.544 C 6.915,19.544 6.915,18.643 6.915,18.303 C 7.845,18.575 8.181,19.01 8.353,19.413 C 8.757,20.35 9.468,21.047 10.439,21.513 C 10.085,21.805 9.636,21.962 9.089,21.962 C 6.977,21.962 6.915,19.79 6.915,19.544 z M 6.915,12.854 C 6.915,12.606 6.977,10.435 9.091,10.435 C 11.206,10.435 11.269,12.606 11.269,12.854 L 11.269,19.544 C 11.269,19.632 11.248,19.853 11.2,20.115 C 10.644,19.839 10.248,19.456 10.035,18.963 L 10.035,18.963 C 9.511,17.75 8.48,17.008 6.917,16.68 C 6.915,16.429 6.915,12.854 6.915,12.854 z "
   style="fill:#060506" />
	<path
   id="path6493"
   d="M 86.262,127.634 C 86.262,127.634 86.048,127.899 85.953,128.014 C 85.464,127.932 84.93,127.889 84.349,127.889 L 84.171,127.889 L 84.171,129.451 L 84.349,129.451 C 84.686,129.451 85.018,129.479 85.346,129.518 C 85.284,129.83 85.242,130.164 85.242,130.516 L 85.242,137.196 C 85.242,138.43 85.586,139.401 86.262,140.082 C 86.913,140.733 87.838,141.077 89.002,141.103 C 90.173,141.082 91.096,140.74 91.746,140.082 C 92.422,139.401 92.764,138.436 92.764,137.196 C 92.764,137.196 92.764,133.903 92.764,133.573 C 93.018,133.582 93.838,133.606 93.838,133.606 L 93.83,133.42 L 93.83,132.031 C 93.83,132.031 92.994,132.005 92.764,131.995 C 92.764,131.724 92.764,130.516 92.764,130.516 C 92.764,129.28 92.422,128.309 91.746,127.628 C 91.096,126.977 90.173,126.631 89.008,126.609 C 87.838,126.639 86.916,126.98 86.262,127.634 z M 87.523,139.07 C 86.863,138.412 86.834,137.4 86.834,137.205 L 86.834,130.517 C 86.834,130.424 86.855,130.205 86.899,129.95 C 87.458,130.221 87.851,130.603 88.065,131.101 C 88.586,132.312 89.617,133.054 91.181,133.38 C 91.181,133.628 91.181,137.203 91.181,137.203 C 91.181,137.397 91.148,138.41 90.488,139.069 C 90.126,139.434 89.63,139.621 89.009,139.621 C 89.009,139.621 89.008,139.621 89.007,139.621 C 88.39,139.623 87.891,139.438 87.523,139.07 z M 89.006,128.093 C 91.118,128.093 91.182,130.266 91.182,130.514 C 91.182,130.514 91.182,131.41 91.182,131.753 C 90.252,131.482 89.915,131.049 89.744,130.647 L 89.744,130.647 C 89.348,129.725 88.623,129.012 87.652,128.543 C 88.012,128.25 88.458,128.093 89.006,128.093 z "
   style="fill:#060506" />
</g></g></svg>