<?xml version="1.0" encoding="UTF-8" standalone="no"?>
<!-- Generator: Adobe Illustrator 12.0.0, SVG Export Plug-In . SVG Version: 6.00 Build 51448)  -->
<svg
   xmlns:dc="http://purl.org/dc/elements/1.1/"
   xmlns:cc="http://web.resource.org/cc/"
   xmlns:rdf="http://www.w3.org/1999/02/22-rdf-syntax-ns#"
   xmlns:svg="http://www.w3.org/2000/svg"
   xmlns="http://www.w3.org/2000/svg"
   xmlns:xlink="http://www.w3.org/1999/xlink"
   xmlns:sodipodi="http://sodipodi.sourceforge.net/DTD/sodipodi-0.dtd"
   xmlns:inkscape="http://www.inkscape.org/namespaces/inkscape"
   version="1.1"
   id="图层_1"
   width="98.1"
   height="150.086"
   viewBox="0 0 98.1 150.086"
   overflow="visible"
   enable-background="new 0 0 98.1 150.086"
   xml:space="preserve"
   sodipodi:version="0.32"
   inkscape:version="0.45.1"
   sodipodi:docname="13.svg"
   sodipodi:docbase="/home/zhangxin/桌面/简化版扑克"
   inkscape:output_extension="org.inkscape.output.svg.inkscape"><metadata
   id="metadata728"><rdf:RDF><cc:Work
       rdf:about=""><dc:format>image/svg+xml</dc:format><dc:type
         rdf:resource="http://purl.org/dc/dcmitype/StillImage" /></cc:Work></rdf:RDF></metadata><defs
   id="defs726"><radialGradient
     inkscape:collect="always"
     xlink:href="#XMLID_35_"
     id="radialGradient4508"
     gradientUnits="userSpaceOnUse"
     gradientTransform="matrix(1.1726,-1.9e-3,-9.5e-3,0.9671,986.6497,-338.9523)"
     cx="-794.2288"
     cy="395.0586"
     r="14.6782" /><radialGradient
     inkscape:collect="always"
     xlink:href="#XMLID_36_"
     id="radialGradient4510"
     gradientUnits="userSpaceOnUse"
     gradientTransform="matrix(1.1726,-1.9e-3,-1.11e-2,1.1386,987.4111,-354.1572)"
     cx="-800.7483"
     cy="351.5342"
     r="12.094" /><radialGradient
     inkscape:collect="always"
     xlink:href="#XMLID_36_"
     id="radialGradient4555"
     gradientUnits="userSpaceOnUse"
     gradientTransform="matrix(1.1726,-1.9e-3,-1.11e-2,1.1386,987.4111,-354.1572)"
     cx="-800.7483"
     cy="351.5342"
     r="12.094" /><radialGradient
     inkscape:collect="always"
     xlink:href="#XMLID_35_"
     id="radialGradient4562"
     gradientUnits="userSpaceOnUse"
     gradientTransform="matrix(1.1726,-1.9e-3,-9.5e-3,0.9671,986.6497,-338.9523)"
     cx="-794.2288"
     cy="395.0586"
     r="14.6782" /></defs><sodipodi:namedview
   inkscape:window-height="713"
   inkscape:window-width="1024"
   inkscape:pageshadow="2"
   inkscape:pageopacity="0.0"
   guidetolerance="10.0"
   gridtolerance="10.0"
   objecttolerance="10.0"
   borderopacity="1.0"
   bordercolor="#666666"
   pagecolor="#ffffff"
   id="base"
   inkscape:zoom="3.2714577"
   inkscape:cx="49.049999"
   inkscape:cy="75.042999"
   inkscape:window-x="0"
   inkscape:window-y="0"
   inkscape:current-layer="图层_1" />
<path
   fill="#F7F7F7"
   stroke="#060506"
   stroke-width="0.0882"
   d="M98.054,143.264c0,3.741-3.018,6.778-6.728,6.778H6.769  c-3.715,0-6.726-3.036-6.726-6.778V6.826c0-3.745,3.011-6.782,6.726-6.782h84.562c3.71,0,6.728,3.036,6.728,6.782L98.054,143.264  L98.054,143.264z"
   id="path3" /><g
   id="g5075"
   inkscape:tile-w="68.985454"
   inkscape:tile-h="76.687999"
   inkscape:tile-cx="52.479727"
   inkscape:tile-cy="55.992"><g
     id="g9">
	<path
   id="path11"
   d="M 42.875,75.014 C 42.875,75.014 42.873,75.027 42.872,75.031 C 45.351,77.088 55.008,85.643 55.35,94.336 C 79.082,94.324 85.378,75.068 85.378,75.068"
   style="fill:#060506" />
</g><g
     id="g77">
	<path
   id="path79"
   d="M 43.994,57.099 C 43.994,57.099 44.798,61.097 47.056,64.193 C 47.056,64.193 49.288,60.849 51.018,58.717 L 43.994,57.099 z "
   style="fill:#060506" />
</g><g
     id="g87">
	<path
   id="path89"
   d="M 43.505,63.253 C 42.917,63.976 42.06,64.382 41.087,64.401 C 39.592,64.427 38.293,63.657 37.233,62.109 L 37.171,62.019 C 37.167,62.014 37.164,62.004 37.161,61.991 C 37.143,61.959 37.123,61.918 37.123,61.918 C 36.376,60.166 36.411,58.634 37.214,57.343 C 37.737,56.509 38.526,55.975 39.437,55.84 C 40.249,55.721 41.083,55.957 41.661,56.47 C 42.252,56.997 42.746,57.896 42.712,58.837 C 43.517,59.3 44.012,60.198 44.144,60.987 C 44.268,61.761 44.031,62.607 43.505,63.253 z "
   style="fill:#060506" />
</g><g
     id="g91">
	<path
   id="path93"
   d="M 41.169,57.043 C 40.753,56.671 40.144,56.502 39.542,56.592 C 38.85,56.693 38.245,57.104 37.841,57.754 C 37.179,58.816 37.161,60.107 37.797,61.595 C 37.805,61.609 37.818,61.619 37.821,61.633 C 37.83,61.646 37.832,61.661 37.841,61.675 C 38.751,63.004 39.84,63.667 41.075,63.643 C 41.828,63.629 42.489,63.319 42.932,62.77 C 43.321,62.294 43.498,61.672 43.407,61.115 C 43.275,60.313 42.704,59.478 41.881,59.312 C 42.174,58.509 41.77,57.579 41.169,57.043 z M 40.97,59.104 C 40.639,59.638 40.196,59.648 40.068,59.64 C 39.881,59.625 39.75,59.542 39.717,59.474 C 39.651,59.318 39.712,59.208 39.744,59.169 C 39.778,59.125 39.854,59.055 39.992,59.079 C 40.239,59.124 40.476,58.954 40.519,58.699 C 40.562,58.446 40.396,58.203 40.147,58.161 C 39.709,58.083 39.289,58.244 39.022,58.595 C 38.751,58.949 38.698,59.428 38.881,59.849 C 39.027,60.189 39.35,60.434 39.752,60.529 C 39.622,60.928 39.658,61.338 39.864,61.641 C 40.121,62.021 40.552,62.225 40.986,62.175 C 41.42,62.124 41.772,61.842 41.938,61.421 C 42.032,61.181 41.915,60.912 41.678,60.817 C 41.447,60.721 41.181,60.838 41.087,61.077 C 41.035,61.21 40.939,61.241 40.88,61.247 C 40.832,61.254 40.708,61.25 40.612,61.113 C 40.57,61.048 40.57,60.89 40.657,60.721 C 40.717,60.605 40.955,60.221 41.576,60.214 C 42.039,60.207 42.417,60.759 42.503,61.273 C 42.552,61.565 42.446,61.905 42.226,62.177 C 41.954,62.512 41.536,62.701 41.054,62.711 C 40.154,62.729 39.333,62.211 38.615,61.181 C 38.127,60.016 38.124,59.031 38.608,58.258 C 38.868,57.841 39.245,57.58 39.67,57.516 C 40.014,57.467 40.349,57.552 40.569,57.748 C 40.956,58.089 41.218,58.706 40.97,59.104 z "
   style="fill:#d90000" />
</g><g
     id="g99">
	<path
   id="path101"
   d="M 42.971,75.044 C 42.971,75.044 52.146,50.123 68.573,50.123 C 92.323,50.123 85.444,75.054 85.444,75.054"
   style="fill:#060506" />
</g><g
     id="g103">
	<path
   id="path105"
   d="M 86.036,75.223 C 86.097,75.023 91.399,55.131 75.724,50.568 L 75.537,50.514 L 75.355,50.576 C 62.192,55.058 54.982,74.071 54.681,74.879 L 54.681,74.879 C 54.56,75.204 54.719,75.567 55.035,75.691 C 55.352,75.812 55.71,75.648 55.831,75.324 L 55.831,75.324 C 55.899,75.133 63.13,56.063 75.742,51.768 L 75.379,51.777 C 89.893,56 84.9,74.692 84.849,74.882 L 84.849,74.882 C 84.754,75.215 84.947,75.563 85.274,75.656 C 85.602,75.753 85.944,75.559 86.036,75.223 L 86.036,75.223 z "
   style="fill:#060506" />
</g><g
     id="g107">
	<path
   id="path109"
   d="M 81.305,55.779 C 70.011,56.512 62.415,75.036 62.415,75.036 L 81.339,75.017 L 81.305,55.779 z "
   style="fill:#212462" />
	<path
   id="path111"
   d="M 55.115,75.044 C 57.068,79.012 62.624,86.711 62.549,93.672 C 80.386,90.317 85.384,75.068 85.384,75.068 L 55.115,75.044 z "
   style="fill:#212462" />
</g><g
     id="g113">
	<path
   id="path115"
   d="M 62.983,75.278 L 62.983,75.278 C 63.058,75.099 70.562,57.107 81.342,56.406 L 80.686,55.78 L 80.721,75.02 L 80.721,75.02 C 80.722,75.367 80.995,75.65 81.337,75.646 C 81.678,75.646 81.951,75.366 81.95,75.018 L 81.95,75.018 L 81.918,55.779 L 81.918,55.111 L 81.264,55.154 C 69.722,55.9 62.164,74.023 61.848,74.794 L 61.848,74.794 C 61.716,75.115 61.864,75.483 62.179,75.617 C 62.491,75.75 62.853,75.599 62.985,75.278 L 62.983,75.278 L 62.983,75.278 z "
   style="fill:#060506" />
</g><g
     id="g117">
	<path
   id="path119"
   d="M 57.722,63.313 C 56.993,62.423 55.913,61.924 54.691,61.908 C 52.67,61.879 50.891,62.973 49.406,65.157 C 49.404,65.16 49.402,65.167 49.399,65.174 C 49.395,65.187 49.387,65.204 49.377,65.223 C 49.377,65.221 49.38,65.219 49.381,65.216 L 49.375,65.226 C 49.375,65.225 49.375,65.224 49.376,65.223 C 49.368,65.238 49.358,65.251 49.351,65.261 C 49.347,65.268 49.341,65.275 49.341,65.276 C 48.31,67.719 48.338,69.838 49.434,71.573 C 50.098,72.625 51.081,73.294 52.205,73.454 C 53.184,73.596 54.172,73.318 54.847,72.714 C 55.754,71.9 56.495,70.4 55.99,69.027 L 55.961,68.946 L 56.048,68.929 C 57.452,68.644 58.313,67.207 58.51,65.992 C 58.648,65.091 58.356,64.089 57.722,63.313 z M 57.15,65.766 C 57.005,66.648 56.354,67.595 55.548,67.587 C 54.484,67.575 54.063,66.916 53.956,66.713 C 53.804,66.404 53.807,66.115 53.89,65.988 C 54.078,65.712 54.328,65.72 54.399,65.73 C 54.485,65.738 54.695,65.788 54.799,66.055 C 54.861,66.23 54.995,66.365 55.164,66.44 C 55.335,66.512 55.518,66.514 55.686,66.444 C 56.038,66.299 56.207,65.892 56.066,65.536 C 55.799,64.865 55.232,64.418 54.545,64.341 C 53.854,64.263 53.167,64.591 52.758,65.199 C 52.437,65.678 52.373,66.327 52.587,66.978 L 52.608,67.054 L 52.532,67.073 C 51.885,67.229 51.377,67.626 51.142,68.162 C 50.854,68.835 50.942,69.602 51.374,70.163 C 51.801,70.719 52.474,70.975 53.172,70.849 C 53.353,70.816 53.509,70.715 53.61,70.563 C 53.714,70.409 53.756,70.223 53.72,70.038 C 53.688,69.854 53.587,69.693 53.437,69.587 C 53.291,69.481 53.107,69.44 52.928,69.473 C 52.738,69.508 52.563,69.446 52.446,69.3 C 52.387,69.223 52.266,69.014 52.391,68.719 C 52.453,68.58 52.694,68.425 53.034,68.397 C 53.257,68.38 54.024,68.397 54.598,69.314 C 55.033,70.005 54.585,71.071 53.929,71.662 C 53.55,72.002 52.972,72.154 52.381,72.069 C 51.658,71.966 51.016,71.522 50.569,70.817 C 49.748,69.516 49.744,67.863 50.553,65.904 L 50.556,65.897 L 50.562,65.89 C 51.76,64.152 53.137,63.282 54.655,63.303 C 55.476,63.317 56.184,63.638 56.654,64.21 C 57.053,64.675 57.232,65.257 57.15,65.766 z "
   style="fill:#d90000" />
</g><g
     id="g121">
	<path
   id="path123"
   d="M 43.547,75.265 L 43.547,75.265 C 43.639,75.02 52.766,50.751 68.571,50.751 C 75.102,50.751 79.842,52.679 82.66,56.482 C 87.876,63.523 84.835,74.755 84.806,74.868 L 85.993,75.211 C 86.132,74.726 89.226,63.257 83.643,55.724 C 80.581,51.589 75.511,49.495 68.575,49.495 C 51.916,49.495 42.778,73.789 42.396,74.824 L 43.547,75.265 z "
   style="fill:#060506" />
</g><g
     id="g125">
	<polygon
   id="polygon127"
   points="63.098,73.483 56.868,73.483 58.102,71.177 64.332,71.177 63.098,73.483 "
   style="fill:#ff8600" />
</g><g
     id="g129">
	<polygon
   id="polygon131"
   points="65.562,68.454 59.333,68.454 60.565,66.15 66.792,66.15 65.562,68.454 "
   style="fill:#d90000" />
</g><g
     id="g133">
	<polygon
   id="polygon135"
   points="68.916,63.565 62.687,63.565 63.919,61.261 70.148,61.261 68.916,63.565 "
   style="fill:#ff8600" />
</g><g
     id="g137">
	<polygon
   id="polygon139"
   points="73.159,58.469 66.928,58.469 68.161,56.163 74.391,56.163 73.159,58.469 "
   style="fill:#d90000" />
</g><g
     id="g141">
	<path
   id="path143"
   d="M 77.719,49.923 C 64.411,52.067 55.448,74.074 55.073,75.008 L 54.922,75.397 L 56.443,76.033 L 56.598,75.644 C 56.688,75.422 65.557,53.581 77.978,51.58 L 78.381,51.514 L 78.122,49.858 L 77.719,49.923 z "
   style="fill:#ffffff" />
</g><g
     id="g145">
	<path
   id="path147"
   d="M 62.823,76.271 C 65.72,69.042 72.062,56.671 82.013,55.069 L 81.754,53.413 C 71.012,55.145 64.33,68.079 61.303,75.639 L 62.823,76.271 z "
   style="fill:#ffffff" />
</g><g
     id="g149">
	<path
   id="path151"
   d="M 82.067,55.412 L 82.401,55.357 L 82.349,55.017 L 82.09,53.362 L 82.04,53.02 L 81.701,53.074 C 78.305,53.622 75.033,55.326 71.99,58.138 L 71.969,58.157 L 71.941,58.157 L 68.045,58.157 L 67.872,58.157 L 67.99,58.032 C 68.544,57.453 69.094,56.912 69.636,56.422 L 69.657,56.403 L 69.682,56.403 L 73.807,56.403 L 74.226,55.644 L 70.741,55.644 L 70.54,55.644 L 70.698,55.513 C 73.154,53.518 75.621,52.31 78.024,51.922 L 78.766,51.802 L 78.647,51.047 L 78.518,50.216 L 78.401,49.463 L 77.663,49.582 C 74.53,50.088 71.392,51.708 68.335,54.397 C 65.906,56.532 63.521,59.347 61.231,62.764 C 57.324,68.601 55.011,74.251 54.758,74.876 L 54.476,75.584 C 54.658,75.659 55.167,75.872 55.167,75.872 L 55.928,76.191 L 56.619,76.48 C 56.69,76.295 56.901,75.771 56.9,75.771 C 56.903,75.765 57.171,75.124 57.664,74.042 L 57.687,74 L 57.732,74 L 61.503,74 L 61.608,74 L 61.565,74.103 C 61.355,74.595 61.163,75.067 60.985,75.505 L 60.857,75.825 C 60.964,75.871 61.169,75.955 61.169,75.956 L 62.69,76.59 L 63.002,76.723 C 63.047,76.612 63.131,76.405 63.131,76.405 C 66.006,69.24 72.278,56.988 82.067,55.412 z M 71.006,58.917 L 71.18,58.917 L 71.057,59.043 C 70.57,59.536 70.074,60.077 69.579,60.647 L 69.558,60.671 L 69.526,60.671 L 65.86,60.671 L 65.712,60.671 L 65.81,60.552 C 66.304,59.932 66.748,59.406 67.162,58.943 L 67.183,58.918 L 67.214,58.918 L 71.006,58.917 L 71.006,58.917 z M 60.794,68.214 L 60.669,68.214 L 60.731,68.104 C 61.031,67.575 61.349,67.034 61.675,66.494 L 61.696,66.46 L 61.735,66.46 L 65.304,66.46 L 65.43,66.46 L 65.364,66.57 C 65.021,67.148 64.718,67.674 64.442,68.177 L 64.421,68.214 L 64.378,68.214 L 60.794,68.214 L 60.794,68.214 z M 64.012,68.973 L 63.951,69.082 C 63.68,69.591 63.403,70.131 63.134,70.686 L 63.113,70.727 L 63.07,70.727 L 59.42,70.727 L 59.3,70.727 L 59.358,70.619 C 59.601,70.155 59.883,69.63 60.222,69.011 L 60.243,68.974 L 60.285,68.974 L 63.895,68.974 L 64.012,68.973 L 64.012,68.973 z M 62.3,65.699 L 62.164,65.699 L 62.234,65.586 C 62.457,65.236 62.716,64.826 62.992,64.416 L 63.138,64.195 L 63.284,63.976 C 63.284,63.976 63.305,63.945 63.305,63.944 L 63.344,63.944 L 66.906,63.944 L 67.047,63.944 L 66.97,64.059 C 66.586,64.621 66.241,65.146 65.918,65.665 L 65.9,65.699 L 65.862,65.699 L 62.3,65.699 L 62.3,65.699 z M 63.973,63.185 L 63.83,63.185 L 63.912,63.069 C 64.268,62.556 64.654,62.03 65.097,61.459 L 65.118,61.431 L 65.153,61.431 L 68.776,61.431 L 68.928,61.431 L 68.828,61.552 C 68.424,62.058 68.014,62.598 67.603,63.156 L 67.582,63.185 L 67.55,63.185 L 63.973,63.185 L 63.973,63.185 z M 56.283,75.512 L 56.26,75.58 L 56.194,75.553 L 55.433,75.235 L 55.367,75.207 L 55.394,75.14 C 55.764,74.211 64.624,52.384 77.775,50.265 L 77.846,50.254 L 77.856,50.327 L 77.987,51.155 L 78,51.228 L 77.932,51.239 C 75.154,51.687 72.325,53.163 69.523,55.627 L 69.5,55.646 L 69.497,55.646 L 69.493,55.647 C 61.464,62.71 56.333,75.385 56.283,75.512 z M 58.162,73.24 L 58.048,73.24 L 58.1,73.136 C 58.363,72.583 58.621,72.056 58.89,71.527 L 58.911,71.488 L 58.955,71.488 L 62.641,71.488 L 62.757,71.488 L 62.7,71.593 C 62.443,72.134 62.197,72.673 61.97,73.197 L 61.949,73.24 L 61.9,73.24 L 58.162,73.24 L 58.162,73.24 z M 62.667,75.755 L 62.642,75.822 L 62.577,75.795 L 61.818,75.477 L 61.752,75.449 L 61.778,75.381 C 64.716,68.17 71.174,55.78 81.408,53.838 L 81.48,53.824 L 81.492,53.899 L 81.62,54.725 L 81.636,54.795 L 81.569,54.809 C 71.784,56.679 65.527,68.735 62.667,75.755 z "
   style="fill:#060506" />
</g><g
     id="g153">
	<path
   id="path155"
   d="M 42.076,76.415 L 42.076,76.415 C 42.131,76.279 47.697,62.885 53.568,57.49 L 52.876,56.703 C 46.834,62.257 41.355,75.445 41.124,76.004 L 42.076,76.415 z "
   style="fill:#ffffff" />
</g><g
     id="g209">
	<path
   id="path211"
   d="M 45.538,32.575 C 43.925,44.413 41.505,49.17 39.593,51.032 C 39.593,51.032 39.885,49.894 39.316,49.257 C 38.741,48.622 37.311,48.487 35.338,50.591 C 34.328,51.669 34.18,54.105 35.015,55.105 C 35.852,56.105 38.029,56.307 39.417,55.198 C 45.441,50.391 47.329,34.587 47.329,34.587 L 45.538,32.575 z "
   style="fill:#ff8600" />
</g><g
     id="g213">
	<path
   id="path215"
   d="M 34.27,54.755 C 34.714,55.486 35.545,56.028 36.549,56.241 C 37.732,56.492 38.927,56.254 39.745,55.602 C 45.845,50.735 47.746,35.337 47.825,34.684 C 47.841,34.537 47.792,34.386 47.69,34.269 C 47.69,34.269 45.899,32.255 45.9,32.256 C 45.767,32.107 45.561,32.042 45.379,32.09 C 45.2,32.136 45.071,32.284 45.044,32.477 C 44.023,40.336 42.484,46.178 40.473,49.844 L 40.379,50.011 L 40.338,49.824 C 40.263,49.481 40.106,49.169 39.874,48.894 C 39.541,48.505 39.02,48.276 38.408,48.251 C 37.349,48.204 36.163,48.744 35.39,49.626 C 34.237,50.944 33.25,53.079 34.27,54.755 z M 36.156,50.323 C 36.904,49.401 38.154,48.741 39.134,49.474 C 39.443,49.704 39.686,50.285 39.561,50.857 C 39.324,51.961 38.093,52.981 37.803,53.175 C 37.394,53.447 37.104,53.515 36.896,53.384 C 36.799,53.325 36.736,53.236 36.71,53.125 C 36.683,52.997 36.708,52.851 36.783,52.734 C 36.845,52.634 37.022,52.487 37.247,52.3 C 37.529,52.066 37.88,51.776 38.109,51.487 C 38.412,51.105 38.717,50.593 38.445,50.321 C 38.179,50.051 37.619,50.372 37.392,50.594 C 36.934,51.037 35.871,52.171 35.883,53.118 C 35.889,53.428 36.01,53.695 36.244,53.911 C 36.592,54.228 36.995,54.359 37.445,54.301 C 38.421,54.176 39.61,53.146 40.705,51.476 C 42.979,48.011 44.715,42.082 45.871,33.854 L 45.892,33.699 L 45.994,33.816 L 46.778,34.699 L 46.799,34.724 L 46.796,34.758 C 46.604,36.182 46.035,39.922 44.909,43.873 C 43.376,49.243 41.448,52.885 39.172,54.701 C 38.539,55.204 37.516,55.434 36.686,55.258 C 36.028,55.118 35.449,54.724 35.132,54.205 C 34.31,52.855 35.574,51.041 36.156,50.323 z "
   style="fill:#060506" />
</g><g
     id="g217">
	<path
   id="path219"
   d="M 43.242,32.493 C 41.627,44.33 39.209,49.086 37.297,50.948 C 37.297,50.948 37.586,49.811 37.017,49.176 C 36.448,48.54 35.013,48.404 33.041,50.508 C 32.03,51.588 31.881,54.024 32.716,55.023 C 33.555,56.025 35.732,56.225 37.119,55.117 C 43.144,50.309 45.032,34.507 45.032,34.507 L 43.242,32.493 z "
   style="fill:#ff8600" />
</g><g
     id="g221">
	<path
   id="path223"
   d="M 45.527,34.601 C 45.545,34.454 45.495,34.299 45.394,34.187 C 45.394,34.187 43.603,32.171 43.604,32.171 C 43.469,32.023 43.263,31.957 43.083,32.005 C 42.902,32.053 42.771,32.204 42.747,32.391 C 41.726,40.25 40.187,46.094 38.175,49.761 L 38.083,49.927 L 38.041,49.739 C 37.964,49.393 37.808,49.079 37.576,48.807 C 37.246,48.419 36.726,48.191 36.113,48.163 C 35.052,48.118 33.867,48.657 33.092,49.538 C 31.94,50.857 30.952,52.992 31.973,54.668 C 32.417,55.398 33.248,55.939 34.254,56.153 C 35.437,56.404 36.629,56.165 37.447,55.513 C 43.549,50.649 45.449,35.255 45.527,34.601 z M 34.392,55.176 C 33.675,55.022 33.101,54.664 32.814,54.192 C 32.129,53.068 32.846,51.395 33.86,50.237 C 34.539,49.463 35.494,49.142 36.139,49.169 C 36.452,49.182 36.707,49.278 36.835,49.432 C 37.097,49.736 37.167,50.115 37.046,50.585 C 36.734,51.835 35.32,53.097 34.687,53.34 L 34.666,53.347 L 34.645,53.343 C 34.585,53.33 34.535,53.316 34.504,53.302 L 34.462,53.284 L 34.461,53.237 C 34.446,52.854 35.149,51.903 35.815,51.255 L 35.817,51.253 C 35.903,51.169 35.951,51.055 35.954,50.931 C 35.957,50.792 35.902,50.653 35.803,50.547 C 35.605,50.34 35.288,50.323 35.096,50.51 C 34.506,51.079 33.17,52.52 33.522,53.548 C 33.603,53.784 33.846,54.201 34.547,54.333 C 34.584,54.34 34.621,54.337 34.661,54.333 L 34.686,54.33 L 34.694,54.33 L 34.703,54.332 C 34.772,54.344 34.874,54.341 34.993,54.323 C 34.994,54.322 34.994,54.322 34.996,54.322 C 35.496,54.246 36.827,53.808 38.412,51.393 C 40.683,47.924 42.42,41.995 43.573,33.771 L 43.594,33.615 L 43.697,33.731 L 44.482,34.615 L 44.504,34.639 L 44.499,34.673 C 44.353,35.761 43.782,39.639 42.57,43.836 C 41.011,49.237 39.067,52.895 36.792,54.711 C 36.201,55.186 35.281,55.364 34.392,55.176 z "
   style="fill:#060506" />
</g><g
     id="g225">
	<path
   id="path227"
   d="M 40.946,32.409 C 39.331,44.246 36.911,49.004 35,50.864 C 35,50.864 35.292,49.728 34.722,49.091 C 34.15,48.457 32.715,48.321 30.745,50.426 C 29.735,51.504 29.585,53.94 30.421,54.938 C 31.259,55.939 33.435,56.14 34.824,55.031 C 40.849,50.226 42.736,34.423 42.736,34.423 L 40.946,32.409 z "
   style="fill:#ff8600" />
</g><g
     id="g229">
	<path
   id="path231"
   d="M 43.231,34.517 C 43.247,34.37 43.199,34.221 43.096,34.105 L 41.304,32.089 C 41.17,31.938 40.965,31.874 40.784,31.922 C 40.6,31.971 40.472,32.118 40.449,32.309 C 39.428,40.166 37.888,46.01 35.878,49.676 L 35.788,49.842 L 35.745,49.657 C 35.665,49.312 35.511,49 35.278,48.728 C 34.948,48.339 34.427,48.109 33.814,48.082 C 32.752,48.036 31.567,48.576 30.793,49.459 C 29.641,50.777 28.655,52.912 29.675,54.586 C 30.121,55.316 30.951,55.857 31.955,56.071 C 33.139,56.325 34.33,56.086 35.15,55.432 C 41.238,50.577 43.152,35.17 43.231,34.517 z M 32.094,55.092 C 31.38,54.942 30.805,54.584 30.516,54.11 C 29.829,52.985 30.547,51.313 31.563,50.156 C 32.244,49.378 33.2,49.058 33.844,49.087 C 34.16,49.101 34.408,49.194 34.54,49.35 C 34.8,49.655 34.867,50.032 34.749,50.5 C 34.438,51.75 33.023,53.013 32.388,53.257 L 32.368,53.264 L 32.347,53.26 C 32.285,53.248 32.239,53.234 32.205,53.219 L 32.163,53.201 L 32.161,53.155 C 32.146,52.777 32.861,51.808 33.514,51.174 C 33.603,51.089 33.653,50.973 33.655,50.846 C 33.657,50.706 33.603,50.571 33.503,50.465 C 33.307,50.259 32.987,50.242 32.796,50.427 C 32.206,50.998 30.869,52.438 31.222,53.467 C 31.304,53.703 31.544,54.117 32.249,54.251 C 32.281,54.257 32.311,54.255 32.348,54.252 C 32.361,54.251 32.374,54.25 32.389,54.249 L 32.396,54.249 L 32.403,54.249 C 32.475,54.259 32.58,54.256 32.696,54.239 L 32.696,54.239 C 32.697,54.239 32.697,54.239 32.698,54.238 C 33.087,54.181 34.481,53.799 36.112,51.31 C 38.384,47.844 40.122,41.916 41.275,33.69 L 41.296,33.534 L 41.4,33.65 L 42.187,34.534 L 42.208,34.558 L 42.204,34.592 C 42.058,35.682 41.483,39.565 40.275,43.755 C 38.715,49.156 36.771,52.814 34.495,54.63 C 33.904,55.104 32.982,55.281 32.094,55.092 z "
   style="fill:#060506" />
</g><g
     id="g233">
	<path
   id="path235"
   d="M 34.097,44.516 C 34.097,52.206 42.346,58.441 52.518,58.441 C 62.69,58.441 70.938,52.206 70.938,44.516 C 70.938,36.827 62.691,30.591 52.518,30.591 C 42.345,30.591 34.097,36.827 34.097,44.516 z "
   style="fill:#ffffff" />
</g><g
     id="g237">
	<path
   id="path239"
   d="M 59.63,46.314 C 59.654,47.416 48.258,47.793 48.23,46.625 C 48.185,44.958 59.583,44.645 59.63,46.314 z "
   style="fill:#ffffff" />
</g><g
     id="g241">
	<path
   id="path243"
   d="M 55.276,50.855 C 55.13,50.835 54.982,50.876 54.862,50.971 C 54.748,51.065 54.674,51.197 54.652,51.349 C 54.633,51.498 54.673,51.647 54.764,51.767 C 54.854,51.887 54.985,51.961 55.127,51.981 C 53.898,52.969 50.799,53.408 49.63,53.498 C 49.484,53.507 49.346,53.577 49.249,53.691 C 49.152,53.807 49.105,53.952 49.115,54.105 C 49.139,54.417 49.406,54.652 49.712,54.629 C 50.43,54.573 53.883,54.249 55.649,52.997 C 55.668,53.054 55.68,53.11 55.711,53.162 C 55.79,53.287 55.915,53.379 56.065,53.411 C 56.209,53.445 56.355,53.417 56.48,53.337 C 56.605,53.255 56.695,53.131 56.728,52.981 C 56.845,52.441 56.771,51.972 56.508,51.588 C 56.102,50.998 55.411,50.875 55.276,50.855 z "
   display="none"
   style="fill:#060506;display:none" />
</g><g
     id="g245">
	<path
   id="path247"
   d="M 33.513,44.516 C 33.513,52.522 42.038,59.038 52.518,59.038 C 62.997,59.038 71.523,52.522 71.523,44.516 C 71.523,36.507 62.999,29.995 52.518,29.995 C 42.038,29.994 33.513,36.507 33.513,44.516 z M 52.518,31.188 C 62.352,31.188 70.351,37.167 70.351,44.516 C 70.351,51.866 62.352,57.844 52.518,57.844 C 42.684,57.844 34.684,51.866 34.684,44.516 C 34.683,37.167 42.684,31.188 52.518,31.188 z "
   style="fill:#060506" />
</g><g
     id="g249">
	<path
   id="path251"
   d="M 46.52,26.765 L 46.46,26.839 C 46.461,26.841 46.461,26.842 46.461,26.844 L 46.526,26.836 C 46.528,26.833 46.525,26.81 46.52,26.765 z "
   style="fill:#060506" />
</g><g
     id="g253">
	<path
   id="path255"
   d="M 48.63,17.652 L 48.63,17.652 L 48.648,17.648 C 48.638,17.652 48.636,17.651 48.63,17.652 z "
   style="fill:#060506" />
</g><g
     id="g281">
	<path
   id="path283"
   d="M 44.504,59.52 C 44.531,60.682 45.251,62.254 45.251,62.254 C 42.074,61.365 42.968,55.348 42.968,55.348 L 44.693,56.042 C 44.693,56.042 44.476,58.355 44.504,59.52 z "
   style="fill:#ff8600" />
</g><g
     id="g285">
	<path
   id="path287"
   d="M 45.15,61.941 C 43.573,61.461 43.277,58.116 43.524,55.765 C 43.559,55.412 43.311,55.103 42.967,55.065 C 42.624,55.028 42.317,55.283 42.281,55.631 C 42.281,55.631 41.711,61.603 44.497,62.694 C 46.111,63.326 46.725,62.984 46.725,62.984 C 46.725,62.984 46.11,62.232 45.15,61.941 z "
   style="fill:#060506" />
</g><g
     id="g289">
	<path
   id="path291"
   d="M 48.337,63.12 C 48.337,63.12 47.785,63.24 46.825,62.949 C 44.716,62.309 44.849,57.877 45.141,56.212 L 46.867,56.795 C 46.61,58.686 48.337,63.12 48.337,63.12 z "
   style="fill:#ff8600" />
</g><g
     id="g293">
	<path
   id="path295"
   d="M 47.193,62.636 C 45.044,61.864 45.542,56.316 45.542,56.316 C 45.571,55.97 45.316,55.664 44.975,55.635 C 44.631,55.607 44.329,55.864 44.298,56.212 C 44.298,56.212 43.568,62.814 46.916,63.654 C 49.608,64.331 49.897,63.2 49.897,63.2 C 49.897,63.2 48.138,62.976 47.193,62.636 z "
   style="fill:#060506" />
</g><g
     id="g297">
	<path
   id="path299"
   d="M 51.212,59.133 C 51.893,59.209 52.893,59.546 52.9,60.874 C 52.914,62.203 51.594,63.999 49.203,63.193 C 46.809,62.385 46.974,58.799 47.224,56.923 L 49.082,57.323 C 48.89,59.009 50.767,59.083 51.212,59.133 z "
   style="fill:#ff8600" />
</g><g
     id="g301">
	<path
   id="path303"
   d="M 51.326,58.257 C 50.736,58.189 50.18,58.296 49.714,58.57 C 49.725,58.537 49.824,57.442 49.824,57.442 C 49.862,57.092 49.613,56.78 49.271,56.743 C 48.927,56.704 48.622,56.958 48.583,57.307 C 48.583,57.307 48.333,59.386 48.658,60.498 C 49.017,61.724 49.844,61.87 49.936,61.889 C 50.251,61.948 51.149,61.904 51.38,61.279 C 51.442,61.109 51.485,60.873 51.36,60.679 C 51.256,60.514 50.959,60.395 50.756,60.498 C 50.601,60.579 50.527,60.805 50.349,60.841 C 50.224,60.867 49.872,60.879 49.72,60.55 C 49.594,60.281 49.763,59.956 49.928,59.78 C 50.163,59.525 50.648,59.347 51.095,59.398 C 51.917,59.486 52.402,60.309 52.449,60.922 C 52.492,61.465 52.22,62.159 51.552,62.571 C 50.944,62.943 50.226,63.096 49.281,62.766 C 46.837,61.905 47.71,56.958 47.71,56.958 C 47.748,56.607 47.497,56.293 47.155,56.255 C 46.813,56.219 46.505,56.47 46.469,56.822 C 46.469,56.822 45.45,62.781 48.962,63.875 C 50.614,64.391 51.662,63.979 52.254,63.527 C 53.214,62.792 53.566,61.937 53.558,60.929 C 53.543,59.834 52.708,58.412 51.326,58.257 z "
   style="fill:#060506" />
</g><g
     id="g305">
	<path
   id="path307"
   d="M 50.621,75.044 C 50.621,74.155 49.916,73.433 49.042,73.433 C 48.171,73.433 47.464,74.156 47.464,75.044 C 47.464,75.936 48.171,76.655 49.042,76.655 C 49.915,76.655 50.621,75.935 50.621,75.044 z "
   style="fill:#ff8600" />
</g><g
     id="g369">
	<polygon
   id="polygon371"
   points="73,27.379 73,59.537 76.249,59.537 76.249,22.409 73,27.379 "
   style="fill:#ffffff" />
</g><g
     id="g373">
	<polygon
   id="polygon375"
   points="79.264,27.379 76.289,22.35 76.249,22.409 76.249,59.537 79.264,59.537 79.264,27.379 "
   style="fill:#908881" />
</g><g
     id="g377">
	<path
   id="path379"
   d="M 79.264,58.908 L 73,58.908 L 73.615,59.536 L 73.615,27.378 L 73.511,27.726 L 76.797,22.698 L 75.757,22.673 L 78.736,27.702 L 78.645,27.378 L 78.645,59.536 L 79.264,58.908 z M 79.792,27.053 L 76.813,22.024 L 76.312,21.179 L 75.775,22.002 L 72.487,27.03 L 72.383,27.186 L 72.383,27.379 L 72.383,59.537 L 79.879,59.537 L 79.879,27.379 L 79.879,27.204 L 79.792,27.053 z "
   style="fill:#060506" />
</g><g
     id="g381">
	<rect
   id="rect383"
   height="18.804001"
   width="5.5960002"
   y="60.967999"
   x="72.962997"
   style="fill:#ff8600" />
</g><g
     id="g385">
	<path
   id="path387"
   d="M 72.661,60.48 L 72.661,80.452 L 79.303,80.452 L 79.303,60.48 L 72.661,60.48 z M 78.067,69.416 L 73.891,69.416 L 73.891,68.439 L 78.067,68.439 L 78.067,69.416 z M 73.891,67.183 L 73.891,66.205 L 78.067,66.205 L 78.067,67.183 L 73.891,67.183 z M 73.891,64.948 L 73.891,63.97 L 78.067,63.97 L 78.067,64.948 L 73.891,64.948 z M 73.891,62.714 L 73.891,61.737 L 78.067,61.737 L 78.067,62.714 L 73.891,62.714 z M 78.067,78.217 L 78.067,79.196 L 73.891,79.196 L 73.891,78.217 L 78.067,78.217 z M 73.891,76.959 L 73.891,75.98 L 78.067,75.98 L 78.067,76.959 L 73.891,76.959 z M 73.891,72.491 L 73.891,71.514 L 78.067,71.514 L 78.067,72.491 L 73.891,72.491 z "
   style="fill:#060506" />
</g><g
     id="g389">
	<path
   id="path391"
   d="M 79.026,58.873 L 73.276,58.873 C 73.276,58.873 72.113,57.267 70.13,57.267 C 68.146,57.267 67.319,59.014 67.319,60.55 C 67.319,62.085 68.757,63.203 70.13,63.203 C 71.498,63.203 72.798,62.434 72.798,61.036 L 79.096,61.036 L 79.026,58.873 z "
   style="fill:#ff8600" />
</g><g
     id="g393">
	<path
   id="path395"
   d="M 79.881,59.537 L 79.027,58.245 L 73.559,58.245 C 73.104,57.737 71.913,56.639 70.127,56.639 C 67.773,56.639 66.703,58.665 66.703,60.551 C 66.703,62.514 68.474,63.833 70.127,63.833 C 71.562,63.833 73.008,63.09 73.34,61.667 L 79.092,61.667 L 79.881,59.537 z M 72.18,61.037 C 72.18,62.046 71.147,62.575 70.126,62.575 C 69.092,62.575 67.936,61.709 67.936,60.55 C 67.936,59.39 68.399,57.895 70.126,57.895 C 71.776,57.895 72.771,59.233 72.776,59.246 L 72.964,59.502 L 73.276,59.502 L 78.428,59.502 L 78.178,60.436 L 72.795,60.409 L 72.181,60.409 L 72.18,61.037 L 72.18,61.037 z "
   style="fill:#060506" />
</g><g
     id="g397">
	<path
   id="path399"
   d="M 80.083,83.454 C 80.083,85.702 78.298,87.523 76.098,87.523 C 73.896,87.523 72.111,85.702 72.111,83.454 C 72.111,81.212 73.896,79.392 76.098,79.392 C 78.298,79.387 80.083,81.209 80.083,83.454 z "
   style="fill:#ffffff" />
</g><g
     id="g401">
	<path
   id="path403"
   d="M 76.097,80.762 C 74.642,80.762 73.455,81.971 73.455,83.45 C 73.455,84.935 74.642,86.142 76.097,86.142 C 77.552,86.142 78.739,84.935 78.739,83.45 C 78.739,81.971 77.552,80.762 76.097,80.762 z "
   style="fill:#060506" />
</g><g
     id="g405">
	<path
   id="path407"
   d="M 78.705,70.737 C 79.269,74.422 79.734,77.408 76.225,77.757 C 73.55,78.022 70.938,75.986 70.307,72.65 C 69.678,69.311 71.295,66.144 73.945,65.667 C 77.533,65.013 78.132,67.05 78.705,70.737 z "
   style="fill:#ffffff" />
</g><g
     id="g409">
	<path
   id="path411"
   d="M 78.093,70.831 L 78.093,70.831 C 78.096,70.838 78.096,70.838 78.096,70.838 C 78.463,73.22 78.782,75.277 77.995,76.309 C 77.641,76.774 77.046,77.042 76.16,77.129 C 73.706,77.368 71.443,75.392 70.903,72.526 C 70.587,70.823 70.882,69.127 71.725,67.881 C 72.32,66.998 73.121,66.443 74.037,66.278 C 75.189,66.07 76.016,66.16 76.558,66.553 C 77.47,67.214 77.793,68.883 78.093,70.831 z M 73.832,65.044 C 72.6,65.264 71.488,66.021 70.718,67.169 C 69.69,68.693 69.319,70.733 69.697,72.766 C 70.358,76.269 73.188,78.683 76.28,78.38 C 77.518,78.26 78.399,77.834 78.972,77.075 C 80.076,75.618 79.723,73.311 79.312,70.643 C 78.956,68.319 78.576,66.476 77.279,65.53 C 76.446,64.925 75.35,64.769 73.832,65.044 z "
   style="fill:#060506" />
</g><g
     id="g413">
	<path
   id="path415"
   d="M 80.129,69.433 C 80.039,68.745 79.658,68.213 79.021,68.12 C 79.621,67.864 79.852,67.25 79.766,66.562 C 79.662,65.737 78.918,65.156 78.112,65.263 L 75.614,65.593 C 74.804,65.7 74.235,66.457 74.343,67.281 C 74.432,67.969 74.775,68.506 75.413,68.597 C 74.812,68.853 74.617,69.461 74.706,70.15 C 74.791,70.813 75.102,71.337 75.711,71.455 C 75.149,71.726 74.982,72.313 75.065,72.977 C 75.144,73.595 75.39,74.101 75.943,74.257 C 75.448,74.556 75.339,75.108 75.417,75.727 C 75.521,76.553 76.265,77.134 77.069,77.026 L 79.567,76.696 C 80.379,76.592 80.946,75.832 80.838,75.008 C 80.764,74.391 80.478,73.89 79.924,73.732 C 80.416,73.435 80.57,72.878 80.486,72.26 C 80.402,71.595 80.055,71.076 79.444,70.959 C 80.007,70.687 80.214,70.095 80.129,69.433 z "
   style="fill:#ffffff" />
</g><g
     id="g417">
	<path
   id="path419"
   d="M 80.74,69.351 C 80.61,68.334 79.984,67.623 79.108,67.499 C 79.38,67.537 79.595,67.76 79.629,68.039 C 79.662,68.321 79.514,68.589 79.26,68.699 C 80.072,68.35 80.503,67.5 80.372,66.484 C 80.226,65.316 79.173,64.491 78.025,64.641 L 75.527,64.972 C 74.972,65.045 74.479,65.334 74.138,65.787 C 73.795,66.239 73.649,66.798 73.72,67.362 C 73.852,68.403 74.449,69.096 75.316,69.22 C 75.045,69.182 74.83,68.96 74.795,68.681 C 74.759,68.399 74.91,68.129 75.166,68.019 C 74.356,68.366 73.955,69.192 74.089,70.232 C 74.216,71.244 74.766,71.915 75.591,72.073 C 75.326,72.023 75.129,71.806 75.096,71.536 C 75.062,71.267 75.2,71.005 75.443,70.888 C 74.684,71.254 74.323,72.047 74.448,73.06 C 74.607,74.285 75.26,74.717 75.772,74.865 C 75.536,74.796 75.36,74.59 75.33,74.342 C 75.3,74.091 75.415,73.845 75.631,73.717 C 75.164,73.995 74.65,74.584 74.804,75.807 C 74.873,76.372 75.158,76.878 75.605,77.225 C 76.043,77.573 76.596,77.725 77.152,77.651 L 79.648,77.319 C 80.201,77.247 80.694,76.962 81.036,76.507 C 81.383,76.05 81.526,75.493 81.456,74.925 C 81.341,73.994 80.847,73.338 80.101,73.123 C 80.335,73.192 80.513,73.399 80.541,73.649 C 80.57,73.898 80.453,74.144 80.239,74.271 C 80.909,73.869 81.223,73.106 81.103,72.176 C 80.98,71.187 80.405,70.499 79.565,70.34 C 79.825,70.391 80.028,70.606 80.062,70.877 C 80.094,71.147 79.958,71.408 79.715,71.526 C 80.481,71.152 80.866,70.34 80.74,69.351 z M 79.333,71.578 C 79.715,71.65 79.842,72.033 79.881,72.34 C 79.937,72.767 79.846,73.051 79.61,73.191 C 79.397,73.316 79.279,73.561 79.311,73.813 C 79.342,74.061 79.517,74.269 79.754,74.336 C 80.014,74.411 80.17,74.664 80.226,75.088 C 80.255,75.321 80.195,75.551 80.054,75.738 C 79.911,75.923 79.708,76.042 79.483,76.07 L 76.986,76.402 C 76.757,76.435 76.531,76.373 76.35,76.228 C 76.164,76.085 76.048,75.878 76.022,75.644 C 75.938,74.987 76.168,74.852 76.251,74.799 C 76.466,74.672 76.581,74.426 76.554,74.177 C 76.523,73.927 76.347,73.72 76.107,73.651 C 76.012,73.624 75.758,73.553 75.674,72.894 C 75.585,72.206 75.877,72.066 75.974,72.02 C 76.214,71.902 76.354,71.643 76.321,71.373 C 76.291,71.102 76.088,70.884 75.825,70.833 C 75.721,70.813 75.402,70.753 75.316,70.065 C 75.256,69.596 75.369,69.295 75.651,69.173 C 75.906,69.063 76.057,68.794 76.023,68.513 C 75.986,68.234 75.772,68.011 75.5,67.972 C 75.195,67.928 75.017,67.668 74.954,67.197 C 74.927,66.964 74.984,66.735 75.127,66.55 C 75.269,66.363 75.473,66.244 75.694,66.216 L 78.194,65.885 C 78.662,65.823 79.095,66.163 79.156,66.642 C 79.189,66.903 79.184,67.366 78.784,67.538 C 78.529,67.647 78.378,67.918 78.412,68.2 C 78.449,68.478 78.662,68.7 78.937,68.74 C 79.368,68.801 79.487,69.25 79.52,69.511 C 79.561,69.819 79.534,70.221 79.183,70.391 C 78.942,70.509 78.801,70.769 78.834,71.04 C 78.868,71.311 79.069,71.529 79.333,71.578 z "
   style="fill:#060506" />
</g><g
     id="g421">
	<path
   id="path423"
   d="M 72.989,68.115 C 74.237,67.277 75.807,67.463 76.497,68.532 C 77.185,69.598 76.074,71.95 73.435,73.203"
   style="fill:#ffffff" />
</g><g
     id="g425">
	<path
   id="path427"
   d="M 73.321,68.631 C 73.858,68.27 74.489,68.131 75.05,68.249 C 75.334,68.311 75.736,68.465 75.99,68.87 C 76.19,69.182 76.232,69.618 76.109,70.065 C 75.966,70.568 75.485,71.528 73.846,72.305 L 73.846,72.305 C 73.544,72.449 73.409,72.816 73.553,73.124 C 73.694,73.432 74.054,73.567 74.356,73.424 L 74.356,73.424 C 75.894,72.696 76.928,71.622 77.27,70.402 C 77.492,69.61 77.394,68.804 76.999,68.191 C 76.617,67.602 76.014,67.193 75.29,67.039 C 74.423,66.857 73.461,67.059 72.651,67.6 L 72.651,67.6 C 72.374,67.786 72.297,68.168 72.479,68.454 C 72.666,68.739 73.042,68.818 73.321,68.631 L 73.321,68.631 z "
   style="fill:#060506" />
</g><g
     id="g429">
	<path
   id="path431"
   d="M 58.398,78.393 C 59.34,79.223 60.502,79.737 61.712,79.932 L 61.712,82.821 L 59.245,82.821 C 58.563,82.821 57.769,83.274 58.016,84.079 C 58.257,84.884 59.787,85.048 60.893,86.176 C 61.997,87.302 62.266,88.98 62.945,88.98 C 63.63,88.98 63.86,87.337 65.001,86.176 C 66.143,85.017 67.639,84.796 67.879,84.079 C 68.115,83.362 67.322,82.821 66.648,82.821 L 64.18,82.821 L 64.18,79.899 C 65.326,79.68 66.412,79.182 67.309,78.393 C 70.069,75.966 69.455,73.836 68.927,72.834 C 68.502,72.028 67.702,71.511 66.862,71.262 L 58.849,71.262 C 58.002,71.512 57.206,72.028 56.785,72.834 C 56.256,73.836 55.64,75.967 58.398,78.393 z "
   style="fill:#ff8600" />
</g><g
     id="g433">
	<path
   id="path435"
   d="M 67.972,73.425 C 67.842,74.019 67.347,74.473 66.726,74.473 C 66.374,74.473 66.052,74.336 65.807,74.087 C 65.628,73.905 65.532,73.672 65.479,73.426 L 64.16,73.426 C 64.031,74.02 63.536,74.474 62.913,74.474 C 62.565,74.474 62.239,74.337 61.992,74.088 C 61.814,73.906 61.718,73.673 61.665,73.427 L 60.366,73.427 C 60.237,74.021 59.742,74.475 59.12,74.475 C 58.769,74.475 58.443,74.338 58.198,74.089 C 58.02,73.907 57.924,73.674 57.871,73.428 L 57.116,73.428 C 56.989,73.676 56.79,74.148 56.79,74.684 C 56.79,74.86 56.815,75.042 56.857,75.227 C 56.986,75.184 57.117,75.146 57.256,75.146 C 57.769,75.146 58.209,75.473 58.412,75.939 L 59.889,75.939 C 60.091,75.473 60.533,75.146 61.048,75.146 C 61.561,75.146 62.001,75.473 62.204,75.939 L 63.691,75.939 C 63.895,75.473 64.337,75.146 64.849,75.146 C 65.361,75.146 65.802,75.473 66.005,75.939 L 67.058,75.939 C 67.261,75.473 67.7,75.146 68.216,75.146 C 68.466,75.146 68.697,75.23 68.899,75.361 C 68.947,75.156 68.986,74.929 68.986,74.682 C 68.986,74.152 68.827,73.683 68.719,73.425 L 67.972,73.425 L 67.972,73.425 z "
   style="fill:none" />
	<path
   id="path437"
   d="M 69.31,72.802 L 69.193,72.589 L 68.958,72.589 L 67.566,72.589 L 67.081,72.589 L 67.162,73.081 C 67.171,73.116 67.179,73.141 67.183,73.163 C 67.175,73.425 66.965,73.636 66.705,73.636 C 66.578,73.636 66.457,73.588 66.366,73.496 C 66.277,73.405 66.229,73.289 66.225,73.165 C 66.233,73.137 66.241,73.111 66.244,73.081 L 66.327,72.589 L 65.843,72.589 L 63.758,72.589 L 63.27,72.589 L 63.351,73.081 C 63.358,73.115 63.365,73.141 63.369,73.163 C 63.362,73.424 63.151,73.637 62.893,73.637 C 62.764,73.637 62.644,73.589 62.553,73.496 C 62.464,73.404 62.416,73.287 62.413,73.16 C 62.42,73.134 62.429,73.11 62.431,73.081 L 62.514,72.589 L 62.027,72.589 L 59.964,72.589 L 59.478,72.589 L 59.559,73.081 C 59.566,73.116 59.573,73.141 59.577,73.163 C 59.57,73.425 59.36,73.637 59.101,73.637 C 58.971,73.637 58.851,73.589 58.761,73.497 C 58.672,73.405 58.622,73.289 58.619,73.164 C 58.626,73.137 58.636,73.111 58.638,73.082 L 58.722,72.59 L 58.235,72.59 L 56.86,72.59 L 56.642,72.59 L 56.521,72.777 C 56.5,72.812 55.956,73.645 55.956,74.686 C 55.956,75.108 56.047,75.55 56.224,75.991 L 56.453,76.579 L 56.892,76.132 C 56.993,76.038 57.114,75.988 57.241,75.988 C 57.476,75.988 57.675,76.167 57.701,76.418 L 57.749,76.781 L 58.109,76.781 L 60.168,76.781 L 60.525,76.781 L 60.572,76.418 C 60.603,76.168 60.801,75.988 61.033,75.988 C 61.268,75.988 61.465,76.167 61.492,76.418 L 61.543,76.781 L 61.899,76.781 L 63.972,76.781 L 64.33,76.781 L 64.378,76.418 C 64.406,76.168 64.603,75.988 64.837,75.988 C 65.069,75.988 65.267,76.167 65.299,76.418 L 65.346,76.781 L 65.704,76.781 L 67.33,76.781 L 67.689,76.781 L 67.736,76.418 C 67.769,76.168 67.965,75.988 68.196,75.988 C 68.398,75.988 68.579,76.127 68.641,76.335 L 68.953,77.367 L 69.399,76.387 C 69.545,76.075 69.784,75.438 69.784,74.686 C 69.786,73.66 69.331,72.837 69.31,72.802 z M 68.901,75.361 C 68.701,75.23 68.469,75.146 68.219,75.146 C 67.7,75.146 67.263,75.473 67.06,75.939 L 66.007,75.939 C 65.804,75.473 65.361,75.146 64.851,75.146 C 64.339,75.146 63.897,75.473 63.693,75.939 L 62.206,75.939 C 62.003,75.473 61.561,75.146 61.05,75.146 C 60.533,75.146 60.093,75.473 59.891,75.939 L 58.414,75.939 C 58.211,75.473 57.769,75.146 57.258,75.146 C 57.117,75.146 56.987,75.184 56.859,75.227 C 56.817,75.042 56.792,74.86 56.792,74.684 C 56.792,74.148 56.991,73.676 57.118,73.428 L 57.873,73.428 C 57.926,73.674 58.022,73.907 58.2,74.089 C 58.445,74.338 58.771,74.475 59.122,74.475 C 59.744,74.475 60.239,74.021 60.368,73.427 L 61.667,73.427 C 61.721,73.673 61.816,73.906 61.994,74.088 C 62.241,74.337 62.567,74.474 62.915,74.474 C 63.538,74.474 64.033,74.02 64.162,73.426 L 65.481,73.426 C 65.534,73.672 65.63,73.905 65.809,74.087 C 66.054,74.336 66.376,74.473 66.728,74.473 C 67.349,74.473 67.845,74.019 67.974,73.425 L 68.723,73.425 C 68.829,73.683 68.99,74.153 68.99,74.682 C 68.988,74.929 68.949,75.156 68.901,75.361 z "
   style="fill:#ffffff" />
</g><g
     id="g439">
	<path
   id="path441"
   d="M 61.852,84.775 C 61.852,84.17 62.331,83.671 62.93,83.671 C 63.525,83.671 64.006,84.162 64.006,84.775 C 64.006,85.379 63.525,85.874 62.93,85.874 C 62.333,85.874 61.852,85.381 61.852,84.775 z "
   style="fill:#d90000" />
</g><g
     id="g457">
	<path
   id="path459"
   d="M 30.424,29.15 C 30.413,29.15 30.402,29.15 30.391,29.15 C 29.454,29.15 28.374,29.962 27.49,30.821 C 27.078,31.219 26.711,31.632 26.418,31.974 C 26.416,31.525 29.494,28.666 29.494,27.124 C 29.494,25.145 27.922,23.539 25.984,23.539 C 24.046,23.539 22.479,25.145 22.479,27.124 C 22.479,28.666 25.553,31.525 25.553,31.974 C 25.261,31.628 24.894,31.219 24.481,30.821 C 23.598,29.963 22.515,29.15 21.58,29.15 C 21.57,29.15 21.559,29.15 21.549,29.15 C 19.58,29.169 17.987,30.8 17.987,32.82 C 17.987,34.845 19.599,36.489 21.582,36.489 C 22.946,36.489 24.61,34.769 25.533,33.69 C 25.524,34.131 25.511,34.563 25.492,34.942 C 25.492,34.956 25.491,34.97 25.489,34.985 C 25.485,35.084 25.479,35.183 25.472,35.277 C 25.448,35.659 25.413,35.967 25.369,36.145 C 25.364,36.167 25.357,36.187 25.352,36.208 C 24.957,37.474 24.928,37.356 24.071,38.942 L 27.899,38.942 C 27.047,37.357 27.009,37.474 26.619,36.208 C 26.614,36.187 26.607,36.166 26.601,36.142 C 26.559,35.964 26.526,35.654 26.499,35.272 C 26.493,35.181 26.488,35.085 26.482,34.987 C 26.482,34.974 26.481,34.959 26.481,34.946 C 26.46,34.564 26.447,34.13 26.441,33.685 C 27.36,34.767 29.026,36.487 30.389,36.487 C 32.372,36.487 33.986,34.842 33.987,32.818 C 33.989,30.801 32.395,29.169 30.424,29.15 z "
   style="fill:#060506" />
</g><path
     id="path553"
     d="M 68.798,44.592 C 68.722,52.43 60.952,58.798 51.444,58.814 C 41.942,58.829 34.298,52.486 34.372,44.648 C 34.449,36.808 42.216,30.441 51.722,30.425 C 61.232,30.41 68.875,36.753 68.798,44.592 z "
     style="fill:url(#radialGradient4562)" /><path
     id="path555"
     d="M 42.535,48.777 C 42.535,48.777 35.478,44.572 39.33,37.169 C 43.184,29.766 57.241,30.793 62.636,34.853 C 62.636,34.853 69.639,40.811 64.637,47.158 C 64.637,47.158 62.423,50.752 58.641,51.009 C 58.641,51.009 59.018,53.162 56.976,54.855 C 55.747,55.872 53.527,56.86 49.726,56.585 C 39.601,55.848 42.535,48.777 42.535,48.777 z "
     style="fill:#b3b3b3;stroke:#372511;stroke-width:0.0882" /><path
     id="path557"
     d="M 53.548,36.128 C 53.548,36.128 52.194,30.812 43.611,34.409 C 35.024,38.006 40.006,45.643 40.006,45.643 C 40.006,45.643 43.238,48.326 42.904,49.207 C 42.028,51.535 42.562,55.567 50.267,56.133 C 57.969,56.699 58.297,51.842 57.886,51.033 C 57.886,51.033 66.46,48.361 65.407,41.541 C 64.355,34.722 56.385,32.769 53.548,36.128 z "
     style="fill:#f4ecd6;stroke:#dad2c0;stroke-width:0.17640001" /><path
     id="path559"
     d="M 43.022,37.532 C 43.022,37.532 49.8,32.434 50.58,38.791 C 51.357,45.148 48.378,48.853 44.475,47.124 C 40.562,45.397 37.368,42.281 43.022,37.532 z "
     style="fill:#ffffff;stroke:#c1a48c;stroke-width:0.17640001" /><path
     id="path561"
     d="M 61.603,40.065 C 61.603,40.065 57.84,33.237 54.039,38.843 C 50.233,44.447 51.182,48.795 55.612,48.437 C 60.048,48.079 64.5,46.217 61.603,40.065 z "
     style="fill:#ffffff;stroke:#c1a48c;stroke-width:0.17640001" /><path
     id="path572"
     d="M 42.746,52.467 C 42.746,52.467 42.516,50.668 42.768,50.162 C 43.649,48.399 47.313,47.14 49.337,48.999 C 49.337,48.999 50.29,49.683 51.509,48.931 C 53.085,47.961 58.152,48.985 58.311,50.771 C 58.503,52.944 56.856,56.354 51.109,56.363 C 45.361,56.372 43.155,53.69 42.746,52.467 z "
     style="fill:url(#radialGradient4555);stroke:#c1a48c;stroke-width:0.17640001" /><path
     id="path574"
     d="M 44.597,51.401 C 44.597,51.401 49.17,56.597 57.588,53.115"
     style="fill:none;stroke:#b29d94;stroke-width:0.17640001" /><path
     id="path576"
     d="M 49.909,49.728 C 49.909,49.728 48.077,51.337 49.847,56.249"
     style="fill:none;stroke:#c6afa4;stroke-width:0.17640001" /><path
     id="path578"
     d="M 49.42,42.492 C 49.401,44.408 47.503,45.963 45.182,45.967 C 42.861,45.971 40.991,44.421 41.01,42.506 C 41.031,40.59 42.929,39.034 45.25,39.03 C 47.572,39.027 49.438,40.577 49.42,42.492 z "
     style="fill:#165829" /><path
     id="path580"
     d="M 49.191,42.473 C 49.173,44.231 47.433,45.659 45.298,45.662 C 43.168,45.665 41.454,44.243 41.471,42.485 C 41.489,40.728 43.23,39.299 45.362,39.296 C 47.495,39.294 49.209,40.716 49.191,42.473 z "
     style="fill:#33a02c" /><path
     id="path582"
     d="M 48.801,42.297 C 48.787,43.859 47.238,45.128 45.343,45.131 C 43.45,45.134 41.928,43.87 41.942,42.308 C 41.959,40.746 43.504,39.477 45.401,39.474 C 47.293,39.47 48.817,40.735 48.801,42.297 z " /><path
     id="path584"
     d="M 44.665,43.261 C 44.912,43.68 44.776,44.156 44.365,44.323 C 43.953,44.49 43.419,44.286 43.174,43.866 C 42.926,43.447 43.063,42.971 43.473,42.804 C 43.885,42.636 44.419,42.841 44.665,43.261 z "
     style="fill:#33a02c" /><path
     id="path586"
     d="M 42.516,41.889 C 42.516,41.889 42.809,40.385 44.353,40.267 C 44.353,40.267 45.189,40.728 44.487,40.845 C 43.784,40.962 43.364,41.078 43.216,41.887 C 43.068,42.697 42.516,41.889 42.516,41.889 z "
     enable-background="new    "
     style="opacity:0.86000001;fill:#ffffff" /><path
     id="path588"
     d="M 47.313,43.189 C 47.309,43.572 47.147,43.884 46.954,43.883 C 46.762,43.884 46.608,43.574 46.611,43.19 C 46.614,42.807 46.774,42.496 46.966,42.496 C 47.16,42.496 47.316,42.806 47.313,43.189 z "
     enable-background="new    "
     style="opacity:0.86000001;fill:#ffffff" /><path
     id="path590"
     d="M 61.013,44.247 C 60.992,46.163 59.097,47.719 56.775,47.722 C 54.451,47.726 52.587,46.176 52.604,44.261 C 52.625,42.345 54.52,40.79 56.842,40.785 C 59.166,40.781 61.032,42.331 61.013,44.247 z "
     style="fill:#165829" /><path
     id="path592"
     d="M 60.786,44.229 C 60.766,45.987 59.025,47.415 56.892,47.418 C 54.761,47.421 53.047,46 53.064,44.241 C 53.084,42.484 54.823,41.055 56.956,41.052 C 59.087,41.048 60.802,42.47 60.786,44.229 z "
     style="fill:#33a02c" /><path
     id="path594"
     d="M 60.394,44.052 C 60.377,45.613 58.832,46.883 56.937,46.885 C 55.042,46.889 53.52,45.624 53.537,44.062 C 53.556,42.5 55.099,41.232 56.992,41.229 C 58.886,41.226 60.411,42.489 60.394,44.052 z " /><path
     id="path596"
     d="M 56.259,45.016 C 56.504,45.435 56.368,45.911 55.956,46.078 C 55.546,46.245 55.014,46.041 54.767,45.62 C 54.521,45.201 54.656,44.725 55.068,44.558 C 55.48,44.391 56.013,44.595 56.259,45.016 z "
     style="fill:#33a02c" /><path
     id="path598"
     d="M 54.108,43.644 C 54.108,43.644 54.403,42.14 55.947,42.023 C 55.947,42.023 56.783,42.484 56.083,42.6 C 55.384,42.717 54.963,42.834 54.812,43.643 C 54.662,44.451 54.108,43.644 54.108,43.644 z "
     enable-background="new    "
     style="opacity:0.86000001;fill:#ffffff" /><path
     id="path600"
     d="M 58.907,44.944 C 58.902,45.327 58.742,45.637 58.553,45.638 C 58.36,45.638 58.203,45.328 58.207,44.945 C 58.213,44.563 58.371,44.251 58.561,44.251 C 58.754,44.251 58.909,44.56 58.907,44.944 z "
     enable-background="new    "
     style="opacity:0.86000001;fill:#ffffff" /><path
     id="path602"
     d="M 49.658,48.059 C 49.616,48.277 49.464,48.439 49.316,48.421 C 49.17,48.402 49.086,48.212 49.128,47.993 C 49.17,47.775 49.323,47.614 49.468,47.632 C 49.615,47.649 49.7,47.841 49.658,48.059 z "
     style="fill:#a9775d" /><path
     id="path604"
     d="M 50.539,48.179 C 50.495,48.397 50.346,48.559 50.193,48.54 C 50.047,48.523 49.964,48.331 50.005,48.113 C 50.047,47.896 50.199,47.734 50.346,47.752 C 50.495,47.769 50.579,47.96 50.539,48.179 z "
     style="fill:#a9775d" /><path
     id="path606"
     d="M 70.161,29.155 C 70.505,41.1 72.396,46.099 74.099,48.161 C 74.099,48.161 73.932,46.999 74.566,46.431 C 75.203,45.863 76.643,45.888 78.378,48.198 C 79.268,49.382 79.15,51.821 78.217,52.722 C 77.279,53.621 75.096,53.579 73.828,52.326 C 68.35,46.878 68.162,30.958 68.162,30.958 L 70.161,29.155 z "
     style="fill:#ff8600" /><path
     id="path608"
     d="M 78.993,52.454 C 80.185,50.901 79.435,48.671 78.431,47.233 C 77.753,46.269 76.636,45.598 75.577,45.528 C 74.971,45.486 74.429,45.654 74.056,46.005 C 73.793,46.252 73.608,46.547 73.492,46.879 L 73.431,47.059 L 73.359,46.884 C 71.754,43.015 70.848,37.035 70.671,29.111 C 70.664,28.921 70.552,28.756 70.378,28.69 C 70.201,28.621 69.989,28.662 69.847,28.796 L 67.85,30.601 C 67.738,30.703 67.668,30.848 67.669,30.997 C 67.681,31.654 67.928,47.171 73.472,52.685 C 74.214,53.426 75.373,53.796 76.576,53.677 C 77.587,53.577 78.473,53.131 78.993,52.454 z M 78.208,51.884 C 77.872,52.322 77.265,52.615 76.532,52.685 C 75.636,52.775 74.734,52.497 74.194,51.961 C 72.13,49.903 70.585,46.049 69.61,40.508 C 68.855,36.21 68.702,32.286 68.672,31.185 L 68.671,31.151 L 68.692,31.129 L 69.567,30.337 L 69.681,30.232 L 69.686,30.389 C 69.957,38.694 71.047,44.78 72.937,48.48 C 74.294,51.134 75.639,51.669 76.021,51.771 L 76.04,51.776 L 76.041,51.777 C 76.147,51.802 76.245,51.817 76.312,51.814 L 76.321,51.814 L 76.33,51.816 L 76.353,51.82 C 76.391,51.829 76.428,51.837 76.464,51.833 C 77.18,51.779 77.463,51.393 77.568,51.167 C 78.024,50.187 76.853,48.604 76.329,47.97 C 76.159,47.764 75.845,47.748 75.623,47.932 C 75.516,48.024 75.442,48.155 75.435,48.293 C 75.423,48.418 75.46,48.538 75.539,48.632 L 75.541,48.633 C 76.122,49.336 76.729,50.38 76.675,50.754 L 76.667,50.8 L 76.621,50.812 C 76.588,50.822 76.539,50.83 76.479,50.836 L 76.458,50.838 L 76.437,50.829 C 75.833,50.517 74.56,49.104 74.381,47.826 C 74.317,47.346 74.423,46.978 74.713,46.704 C 74.859,46.564 75.111,46.498 75.435,46.52 C 76.081,46.564 76.997,46.99 77.585,47.837 C 78.475,49.102 79.01,50.842 78.208,51.884 z "
     style="fill:#060506" /><path
     id="path610"
     d="M 68.557,29.86 C 68.899,41.807 70.793,46.805 72.495,48.867 C 72.495,48.867 72.326,47.706 72.963,47.135 C 73.603,46.568 75.037,46.592 76.775,48.904 C 77.668,50.089 77.55,52.527 76.615,53.428 C 75.677,54.33 73.492,54.287 72.228,53.031 C 66.749,47.582 66.562,31.665 66.562,31.665 L 68.557,29.86 z "
     style="fill:#ff8600" /><path
     id="path612"
     d="M 77.391,53.16 C 78.581,51.606 77.83,49.376 76.826,47.937 C 76.153,46.975 75.031,46.307 73.972,46.234 C 73.362,46.191 72.82,46.361 72.449,46.712 C 72.189,46.957 72.006,47.251 71.887,47.587 L 71.825,47.766 L 71.756,47.591 C 70.149,43.719 69.238,37.739 69.068,29.819 C 69.063,29.629 68.949,29.464 68.776,29.397 C 68.6,29.329 68.39,29.371 68.242,29.504 L 66.245,31.309 C 66.137,31.412 66.066,31.558 66.068,31.706 C 66.076,32.362 66.297,47.851 71.869,53.394 C 72.61,54.133 73.772,54.503 74.975,54.386 C 75.988,54.282 76.872,53.837 77.391,53.16 z M 76.608,52.589 C 76.272,53.027 75.663,53.32 74.933,53.393 C 74.031,53.482 73.135,53.203 72.592,52.665 C 70.526,50.607 68.983,46.755 68.011,41.214 C 67.253,36.91 67.099,32.989 67.072,31.891 L 67.071,31.857 L 67.096,31.834 L 67.97,31.044 L 68.081,30.94 L 68.088,31.096 C 68.357,39.399 69.446,45.486 71.34,49.185 C 72.694,51.836 74.038,52.374 74.422,52.476 L 74.428,52.477 L 74.434,52.48 L 74.434,52.48 C 74.541,52.507 74.645,52.522 74.713,52.519 L 74.721,52.519 L 74.729,52.521 C 74.741,52.522 74.75,52.525 74.762,52.527 C 74.8,52.534 74.831,52.541 74.866,52.538 C 75.583,52.485 75.865,52.1 75.97,51.874 C 76.428,50.89 75.256,49.31 74.731,48.677 C 74.56,48.471 74.245,48.453 74.024,48.637 C 73.916,48.73 73.845,48.859 73.834,48.997 C 73.822,49.122 73.857,49.242 73.938,49.337 L 73.941,49.339 C 74.521,50.042 75.129,51.085 75.074,51.46 L 75.067,51.51 L 75.018,51.521 C 74.993,51.527 74.948,51.537 74.877,51.543 L 74.856,51.546 L 74.835,51.537 C 74.231,51.222 72.955,49.808 72.78,48.534 C 72.715,48.053 72.819,47.685 73.11,47.41 C 73.256,47.274 73.517,47.207 73.835,47.227 C 74.48,47.271 75.395,47.694 75.984,48.543 C 76.874,49.807 77.409,51.549 76.608,52.589 z "
     style="fill:#060506" /><path
     id="path614"
     d="M 66.956,30.567 C 67.296,42.512 69.191,47.51 70.894,49.574 C 70.894,49.574 70.725,48.41 71.36,47.841 C 72.001,47.275 73.435,47.298 75.172,49.609 C 76.062,50.793 75.945,53.232 75.012,54.132 C 74.074,55.032 71.89,54.991 70.622,53.736 C 65.144,48.289 64.957,32.369 64.957,32.369 L 66.956,30.567 z "
     style="fill:#ff8600" /><path
     id="path616"
     d="M 75.789,53.866 C 76.982,52.311 76.231,50.081 75.227,48.644 C 74.55,47.681 73.43,47.011 72.373,46.939 C 71.764,46.897 71.222,47.066 70.851,47.417 C 70.592,47.662 70.403,47.955 70.289,48.291 L 70.227,48.47 L 70.154,48.296 C 68.55,44.426 67.64,38.445 67.466,30.521 C 67.459,30.332 67.348,30.166 67.175,30.101 C 66.994,30.033 66.783,30.075 66.64,30.209 L 64.646,32.012 C 64.533,32.116 64.466,32.261 64.466,32.408 C 64.487,34.062 64.865,48.728 70.266,54.097 C 71.01,54.837 72.171,55.207 73.37,55.089 C 74.384,54.988 75.27,54.542 75.789,53.866 z M 75.006,53.295 C 74.665,53.733 74.06,54.026 73.329,54.097 C 72.43,54.186 71.528,53.909 70.988,53.371 C 68.924,51.312 67.382,47.46 66.404,41.917 C 65.651,37.619 65.497,33.695 65.466,32.595 L 65.464,32.56 L 65.487,32.537 L 66.359,31.744 L 66.474,31.64 L 66.479,31.797 C 66.75,40.105 67.84,46.192 69.73,49.89 C 71.047,52.469 72.328,53.051 72.812,53.181 C 72.812,53.181 72.819,53.183 72.825,53.185 C 72.936,53.212 73.038,53.227 73.102,53.222 L 73.112,53.221 L 73.126,53.223 L 73.147,53.227 C 73.187,53.237 73.226,53.245 73.262,53.242 C 73.975,53.188 74.258,52.8 74.366,52.575 C 74.821,51.59 73.647,50.013 73.123,49.38 C 72.952,49.173 72.64,49.154 72.418,49.338 C 72.31,49.432 72.237,49.562 72.228,49.7 C 72.217,49.825 72.253,49.947 72.332,50.041 C 72.912,50.745 73.52,51.786 73.466,52.159 L 73.457,52.201 L 73.418,52.216 C 73.384,52.23 73.33,52.238 73.272,52.242 L 73.251,52.243 L 73.231,52.233 C 72.627,51.923 71.354,50.513 71.174,49.232 C 71.109,48.752 71.217,48.386 71.507,48.112 C 71.653,47.97 71.908,47.904 72.231,47.926 C 72.877,47.971 73.792,48.396 74.381,49.244 C 75.27,50.513 75.805,52.253 75.006,53.295 z "
     style="fill:#060506" /><path
     id="path618"
     d="M 65.354,31.272 C 65.695,43.217 67.59,48.216 69.292,50.278 C 69.292,50.278 69.123,49.116 69.763,48.548 C 70.399,47.98 71.839,48.005 73.573,50.313 C 74.467,51.499 74.35,53.937 73.412,54.838 C 72.474,55.737 70.293,55.696 69.027,54.442 C 63.549,48.994 63.361,33.074 63.361,33.074 L 65.354,31.272 z "
     style="fill:#ff8600" /><path
     id="path620"
     d="M 74.188,54.57 C 75.38,53.019 74.629,50.788 73.625,49.349 C 72.946,48.386 71.83,47.716 70.771,47.645 C 70.159,47.602 69.618,47.772 69.248,48.123 C 68.986,48.368 68.803,48.66 68.686,48.996 L 68.624,49.177 L 68.554,49.001 C 66.946,45.133 66.037,39.153 65.864,31.229 C 65.86,31.035 65.748,30.874 65.57,30.807 C 65.396,30.738 65.186,30.78 65.038,30.914 L 63.046,32.719 C 62.934,32.821 62.863,32.969 62.865,33.114 C 62.873,33.772 63.119,49.288 68.664,54.805 C 69.407,55.544 70.569,55.914 71.771,55.796 C 72.784,55.693 73.667,55.247 74.188,54.57 z M 73.403,54.001 C 73.068,54.439 72.46,54.73 71.73,54.802 C 70.831,54.892 69.931,54.614 69.391,54.077 C 67.322,52.018 65.78,48.164 64.806,42.623 C 64.05,38.32 63.897,34.4 63.868,33.302 L 63.867,33.269 L 63.891,33.246 L 64.767,32.453 L 64.879,32.349 L 64.885,32.506 C 65.155,40.811 66.244,46.898 68.138,50.597 C 69.492,53.246 70.837,53.785 71.219,53.887 L 71.224,53.888 L 71.224,53.888 C 71.337,53.916 71.439,53.93 71.511,53.927 L 71.52,53.926 L 71.529,53.929 L 71.55,53.933 C 71.59,53.943 71.628,53.952 71.662,53.948 C 72.383,53.894 72.663,53.508 72.766,53.283 C 73.222,52.303 72.049,50.721 71.525,50.086 C 71.354,49.881 71.04,49.863 70.82,50.045 C 70.711,50.139 70.64,50.269 70.631,50.41 C 70.619,50.533 70.652,50.65 70.734,50.743 L 70.738,50.747 C 71.318,51.451 71.926,52.494 71.872,52.867 L 71.863,52.912 L 71.821,52.927 C 71.793,52.936 71.749,52.944 71.676,52.951 L 71.655,52.953 L 71.634,52.944 C 71.029,52.632 69.756,51.22 69.577,49.943 C 69.514,49.462 69.619,49.094 69.906,48.82 C 70.052,48.682 70.314,48.615 70.632,48.637 C 71.278,48.682 72.194,49.106 72.781,49.953 C 73.67,51.218 74.205,52.96 73.403,54.001 z "
     style="fill:#060506" /><path
     id="path622"
     d="M 63.75,31.976 C 64.093,43.923 65.985,48.921 67.688,50.983 C 67.688,50.983 67.52,49.822 68.153,49.251 C 68.795,48.684 70.23,48.708 71.965,51.02 C 72.856,52.206 72.74,54.643 71.808,55.543 C 70.87,56.445 68.684,56.403 67.42,55.147 C 61.941,49.698 61.752,33.78 61.752,33.78 L 63.75,31.976 z "
     style="fill:#ff8600" /><path
     id="path624"
     d="M 72.586,55.276 C 73.774,53.722 73.024,51.492 72.022,50.054 C 71.347,49.093 70.226,48.423 69.168,48.35 C 68.56,48.308 68.019,48.477 67.646,48.828 C 67.388,49.073 67.198,49.367 67.084,49.701 L 67.022,49.881 L 66.95,49.706 C 65.346,45.834 64.436,39.855 64.262,31.934 C 64.257,31.741 64.147,31.58 63.97,31.512 C 63.794,31.443 63.583,31.485 63.435,31.618 L 61.442,33.423 C 61.329,33.524 61.261,33.672 61.262,33.818 C 61.272,34.477 61.518,49.993 67.063,55.507 C 67.805,56.246 68.965,56.617 70.167,56.499 C 71.182,56.399 72.066,55.952 72.586,55.276 z M 71.802,54.706 C 71.467,55.143 70.859,55.435 70.126,55.508 C 69.225,55.598 68.326,55.319 67.784,54.781 C 65.72,52.723 64.175,48.869 63.2,43.327 C 62.446,39.029 62.294,35.105 62.262,34.005 L 62.261,33.97 L 62.282,33.947 L 63.157,33.157 L 63.27,33.053 L 63.275,33.209 C 63.546,41.513 64.638,47.6 66.526,51.299 C 67.88,53.949 69.228,54.487 69.606,54.589 C 69.608,54.589 69.608,54.59 69.61,54.591 L 69.61,54.59 C 69.724,54.621 69.83,54.635 69.899,54.632 L 69.91,54.632 L 69.92,54.633 C 69.933,54.635 69.941,54.637 69.951,54.64 C 69.984,54.647 70.017,54.655 70.055,54.651 C 70.769,54.599 71.053,54.213 71.159,53.987 C 71.638,52.972 70.329,51.284 69.921,50.79 C 69.752,50.585 69.437,50.566 69.216,50.749 C 69.108,50.841 69.034,50.973 69.025,51.111 C 69.014,51.236 69.05,51.355 69.129,51.449 L 69.131,51.452 C 69.711,52.155 70.319,53.198 70.265,53.571 L 70.257,53.621 L 70.206,53.632 C 70.185,53.637 70.141,53.648 70.066,53.655 L 70.045,53.657 L 70.024,53.647 C 69.42,53.334 68.146,51.921 67.971,50.647 C 67.904,50.165 68.011,49.799 68.301,49.522 C 68.447,49.385 68.711,49.318 69.024,49.34 C 69.67,49.383 70.586,49.807 71.173,50.656 C 72.068,51.924 72.603,53.665 71.802,54.706 z "
     style="fill:#060506" /><path
     id="path626"
     d="M 62.148,32.682 C 62.491,44.628 64.387,49.626 66.089,51.689 C 66.089,51.689 65.919,50.525 66.556,49.956 C 67.193,49.389 68.631,49.414 70.366,51.723 C 71.26,52.907 71.143,55.348 70.208,56.247 C 69.27,57.148 67.085,57.107 65.82,55.851 C 60.342,50.404 60.154,34.484 60.154,34.484 L 62.148,32.682 z "
     style="fill:#ff8600" /><path
     id="path628"
     d="M 59.653,34.524 C 59.662,35.18 59.896,50.685 65.454,56.212 C 66.194,56.952 67.356,57.322 68.559,57.205 C 69.58,57.102 70.464,56.656 70.985,55.98 C 72.177,54.428 71.424,52.196 70.423,50.758 C 69.747,49.794 68.625,49.125 67.569,49.055 C 66.961,49.013 66.417,49.181 66.048,49.533 C 65.785,49.778 65.601,50.071 65.486,50.407 L 65.424,50.587 L 65.352,50.411 C 63.743,46.543 62.834,40.562 62.66,32.637 C 62.654,32.445 62.547,32.283 62.369,32.215 C 62.193,32.148 61.983,32.19 61.834,32.323 L 59.843,34.126 C 59.716,34.231 59.651,34.376 59.653,34.524 z M 60.69,34.654 L 61.563,33.863 L 61.677,33.759 L 61.683,33.916 C 61.951,42.223 63.044,48.31 64.933,52.009 C 66.287,54.659 67.635,55.197 68.014,55.299 L 67.993,55.297 C 68.006,55.297 68.01,55.301 68.014,55.303 L 68.014,55.299 C 68.127,55.329 68.231,55.344 68.303,55.341 C 68.303,55.341 68.313,55.34 68.311,55.34 L 68.32,55.342 L 68.346,55.348 C 68.387,55.357 68.42,55.365 68.456,55.361 C 69.171,55.306 69.452,54.921 69.56,54.695 C 70.018,53.711 68.844,52.133 68.318,51.5 C 68.147,51.293 67.836,51.275 67.613,51.46 C 67.509,51.552 67.434,51.68 67.425,51.819 C 67.41,51.945 67.446,52.067 67.526,52.161 C 68.108,52.865 68.717,53.908 68.662,54.282 L 68.653,54.326 L 68.611,54.34 C 68.588,54.349 68.541,54.359 68.465,54.364 L 68.444,54.365 L 68.425,54.356 C 67.819,54.046 66.546,52.637 66.367,51.354 C 66.303,50.875 66.407,50.509 66.697,50.234 C 66.843,50.095 67.102,50.028 67.422,50.048 C 68.066,50.093 68.98,50.519 69.571,51.367 C 70.459,52.63 70.992,54.37 70.188,55.413 C 69.851,55.85 69.243,56.142 68.515,56.214 C 67.613,56.303 66.713,56.026 66.175,55.489 C 64.107,53.429 62.564,49.576 61.591,44.035 C 60.833,39.72 60.683,35.808 60.653,34.712 L 60.651,34.677 L 60.69,34.654 z "
     style="fill:#060506" /><path
     id="path630"
     d="M 71.497,41.711 C 71.497,41.711 63.24,36.461 55.133,34.649 C 47.023,32.837 36.67,34.945 36.67,34.945 L 35.757,21.511 C 35.757,21.511 42.732,15.847 58.651,19.406 C 74.569,22.966 78.899,30.852 78.899,30.852 L 71.497,41.711 z "
     style="fill:#212462" /><path
     id="path632"
     d="M 55.75,28.948 C 53.799,28.617 51.973,30.032 51.672,32.106 C 51.574,32.757 51.655,33.386 51.858,33.966 C 53.145,34.039 54.45,34.174 55.731,34.391 C 56.534,34.527 57.335,34.696 58.134,34.891 C 58.441,34.429 58.655,33.899 58.744,33.302 C 59.043,31.228 57.707,29.28 55.75,28.948 z "
     style="fill:#ffffff" /><path
     id="path634"
     d="M 53.262,32.376 C 53.095,33.519 53.827,34.593 54.906,34.777 C 55.983,34.956 56.988,34.177 57.155,33.035 C 57.319,31.892 56.588,30.819 55.509,30.636 C 54.43,30.455 53.429,31.236 53.262,32.376 z "
     style="fill:#d90000" /><path
     id="path636"
     d="M 73.499,38.098 C 73.568,36.712 72.911,35.326 71.678,34.582 C 69.95,33.548 67.789,34.159 66.848,35.941 C 66.444,36.701 66.339,37.549 66.471,38.355 C 69.45,39.86 71.435,41.126 71.435,41.126 L 73.499,38.098 z "
     style="fill:#ffffff" /><path
     id="path638"
     d="M 68.246,36.786 C 67.725,37.769 68.066,39.026 69.017,39.595 C 69.965,40.165 71.155,39.829 71.677,38.846 C 72.197,37.863 71.852,36.607 70.905,36.035 C 69.954,35.468 68.764,35.8 68.246,36.786 z "
     style="fill:#d90000" /><path
     id="path640"
     d="M 39.693,29.377 C 41.611,28.98 43.464,30.312 43.831,32.352 C 43.947,32.992 43.891,33.62 43.715,34.198 C 42.445,34.317 41.162,34.498 39.904,34.758 C 39.117,34.924 38.33,35.117 37.548,35.338 C 37.232,34.893 36.993,34.377 36.887,33.791 C 36.52,31.751 37.774,29.777 39.693,29.377 z "
     style="fill:#ffffff" /><path
     id="path642"
     d="M 42.27,32.677 C 42.474,33.8 41.784,34.888 40.728,35.109 C 39.671,35.325 38.651,34.591 38.447,33.469 C 38.245,32.345 38.936,31.257 39.991,31.037 C 41.05,30.819 42.068,31.555 42.27,32.677 z "
     style="fill:#d90000" /><path
     id="path644"
     d="M 79.536,30.885 C 79.483,30.792 79.357,30.561 79.357,30.562 L 79.336,30.522 L 79.32,30.501 L 79.329,30.511 C 79.319,30.501 79.314,30.491 79.309,30.485 C 79.308,30.483 79.307,30.48 79.307,30.48 C 79.297,30.468 79.287,30.456 79.286,30.443 C 79.274,30.425 79.265,30.403 79.249,30.382 C 79.249,30.382 79.246,30.378 79.245,30.376 L 79.244,30.373 C 79.243,30.372 79.239,30.368 79.237,30.366 C 79.234,30.361 79.23,30.354 79.226,30.347 C 79.202,30.307 79.164,30.254 79.126,30.198 L 79.119,30.191 L 79.116,30.184 C 79.116,30.181 79.111,30.177 79.108,30.172 C 79.108,30.172 79.103,30.165 79.106,30.169 C 78.437,29.162 76.399,26.531 71.962,23.876 L 71.973,23.881 C 71.957,23.875 71.95,23.869 71.934,23.86 C 71.731,23.739 71.507,23.608 71.209,23.439 L 71.188,23.427 C 71.169,23.418 71.151,23.408 71.136,23.398 C 70.869,23.25 70.629,23.118 70.396,22.994 C 70.379,22.986 70.366,22.977 70.348,22.969 C 70.334,22.963 70.324,22.956 70.308,22.949 C 70.034,22.801 69.776,22.67 69.531,22.549 C 68.406,21.991 67.183,21.461 65.908,20.975 C 65.908,20.975 65.903,20.974 65.897,20.971 L 65.897,20.971 C 64.354,20.384 62.687,19.85 60.938,19.387 L 60.856,19.365 L 60.619,19.301 C 60.04,19.152 59.409,18.994 58.75,18.848 C 58.282,18.743 57.803,18.641 57.312,18.546 C 56.902,18.465 56.493,18.392 56.109,18.326 L 56.046,18.315 L 55.943,18.298 C 54.503,18.053 53.066,17.878 51.684,17.773 L 51.68,17.773 L 51.673,17.772 C 51.67,17.772 51.664,17.771 51.656,17.77 C 51.649,17.77 51.645,17.77 51.641,17.77 C 51.179,17.735 50.703,17.709 50.187,17.689 L 49.999,17.682 L 49.99,17.681 C 49.49,17.664 49.041,17.656 48.61,17.656 L 48.605,17.658 L 48.589,17.658 C 47.682,17.659 46.781,17.696 45.915,17.768 C 45.875,17.77 45.837,17.774 45.791,17.777 C 40.244,18.243 37.04,19.971 35.911,20.7 C 35.91,20.701 35.908,20.704 35.908,20.704 L 35.9,20.711 C 35.827,20.757 35.763,20.801 35.709,20.838 L 35.7,20.847 L 35.696,20.849 C 35.693,20.849 35.692,20.851 35.688,20.852 C 35.637,20.888 35.591,20.92 35.555,20.946 C 35.554,20.948 35.55,20.949 35.547,20.95 L 35.506,20.983 C 35.485,20.998 35.47,21.01 35.454,21.021 C 35.454,21.023 35.452,21.024 35.451,21.024 L 35.449,21.027 C 35.438,21.034 35.409,21.054 35.402,21.061 L 35.4,21.064 L 35.397,21.066 L 35.135,21.277 L 35.193,21.623 L 35.193,21.627 L 35.194,21.631 L 36.013,37.338 C 37.933,36.349 44.953,33.291 55.018,35.209 C 62.579,36.649 70.337,41.626 71.202,42.189 C 71.215,42.195 71.223,42.201 71.223,42.202 L 71.64,42.467 C 71.702,42.376 71.83,42.186 71.927,42.049 L 79.324,31.187 L 79.536,30.885 z M 63.26,29.169 L 63.265,29.149 L 63.267,29.148 C 63.317,28.961 64.055,26.195 64.654,23.955 L 65.175,21.998 L 65.196,21.92 L 65.269,21.948 C 66.641,22.461 68.331,23.25 69.29,23.766 L 69.359,23.804 L 69.315,23.873 C 69.315,23.873 65.095,30.23 65.092,30.231 C 65.068,30.269 64.447,31.124 63.562,30.676 C 62.943,30.36 63.226,29.289 63.26,29.169 z M 45.571,19.057 C 46.954,18.924 48.405,18.915 50.009,19.03 L 50.091,19.037 L 50.074,19.118 L 48.553,26.824 C 48.553,26.824 48.553,26.825 48.55,26.831 L 48.55,26.832 C 48.505,27.028 48.246,28.002 47.622,28.007 C 46.642,28.021 46.463,26.895 46.456,26.847 L 46.461,26.847 C 46.461,26.845 46.461,26.844 46.461,26.843 L 46.456,26.844 L 46.459,26.838 C 46.449,26.787 46.438,26.703 46.42,26.559 L 46.325,25.793 L 46.027,23.377 L 45.505,19.138 L 45.496,19.062 L 45.571,19.057 z M 78.218,30.879 L 71.383,40.904 L 71.346,40.96 L 71.285,40.925 C 69.275,39.713 62.18,35.642 55.236,34.089 C 46.822,32.207 38.101,34.65 37.132,34.936 L 37.045,34.961 L 37.04,34.869 L 36.312,21.829 L 36.31,21.786 L 36.345,21.763 C 36.369,21.747 38.983,20.096 42.521,19.432 L 42.596,19.417 L 42.605,19.494 C 42.605,19.494 43.686,27.771 43.685,27.764 C 43.928,28.846 45,30.69 47.484,30.746 C 49.713,30.796 50.832,29.403 51.136,28.079 C 51.198,27.79 52.657,20.986 53.028,19.124 L 53.046,19.058 L 53.108,19.065 C 53.115,19.065 53.132,19.066 53.161,19.068 C 54.287,19.152 58.276,19.541 62.366,20.967 L 62.429,20.989 L 62.409,21.055 C 62.409,21.055 60.411,28.833 60.411,28.831 C 60.071,30.264 60.41,32.168 62.377,33.214 C 64.577,34.387 66.348,33.27 67.038,32.429 L 71.943,25.28 L 71.983,25.223 L 72.043,25.26 C 74.867,27.045 76.587,28.769 77.524,29.902 L 77.518,29.895 C 77.526,29.902 77.533,29.909 77.538,29.914 C 77.541,29.916 77.543,29.918 77.545,29.92 C 77.612,30.003 77.682,30.084 77.738,30.16 C 77.742,30.163 77.743,30.166 77.747,30.17 C 77.755,30.176 77.763,30.185 77.768,30.194 L 77.762,30.187 C 77.762,30.187 77.91,30.383 77.915,30.385 C 77.919,30.391 77.925,30.398 77.931,30.405 C 77.936,30.412 77.941,30.42 77.946,30.426 C 77.998,30.489 78.04,30.547 78.07,30.593 C 78.075,30.599 78.089,30.613 78.095,30.628 L 78.124,30.671 L 78.212,30.794 L 78.24,30.836 L 78.218,30.879 z "
     style="fill:#060506" /><path
     id="path646"
     d="M 63.175,31.757 C 64.098,32.261 64.975,31.849 65.519,31.407 C 65.849,31.141 66.063,30.814 66.063,30.814 L 70.38,24.388 C 70.313,24.35 70.098,24.206 70.026,24.169 C 69.299,25.263 65.969,30.286 65.693,30.696 C 65.422,31.105 64.446,32.015 63.214,31.365 C 62.288,30.875 62.348,29.726 62.554,28.948 L 64.492,21.686 C 64.43,21.664 64.18,21.581 64.114,21.558 C 63.529,23.74 62.497,27.774 62.182,28.993 C 62.123,29.221 61.658,30.926 63.175,31.757 z "
     style="fill:#ffffff" /><path
     id="path648"
     d="M 49.18,26.983 C 49.053,27.653 48.614,28.65 47.621,28.65 C 46.335,28.65 45.89,27.59 45.793,26.942 L 44.838,19.205 C 44.763,19.215 44.521,19.286 44.442,19.297 L 45.345,26.976 C 45.345,26.976 45.569,29.113 47.505,29.113 C 49.323,29.113 49.602,27.135 49.602,27.135 L 51.163,19.188 C 51.097,19.183 50.817,19.173 50.749,19.169 C 50.531,20.27 49.18,26.988 49.18,26.983 z "
     style="fill:#ffffff" /><path
     id="path650"
     d="M 46.25,49.264 C 46.099,48.934 45.828,48.686 45.492,48.563 C 44.857,48.33 43.682,48.323 42.589,49.32 C 42.205,48.592 41.456,48.006 40.355,47.947 C 39.055,47.878 37.69,48.806 37.591,50.716 C 37.543,51.648 37.831,52.51 38.403,53.145 C 38.952,53.751 39.705,54.099 40.528,54.125 C 42.36,54.182 43.313,52.972 43.939,51.911 C 44.296,51.305 44.599,51.169 44.699,51.164 C 44.704,51.165 44.716,51.167 44.716,51.167 L 44.716,51.162 C 45.017,51.239 45.326,51.216 45.61,51.081 C 45.933,50.927 46.179,50.651 46.299,50.307 C 46.42,49.965 46.403,49.596 46.25,49.264 z M 44.806,50.432 C 44.811,50.432 44.812,50.432 44.815,50.432 L 44.784,50.514 L 44.806,50.432 z M 45.134,49.226 L 45.132,49.224 L 45.132,49.224 L 45.134,49.226 z "
     style="fill:#060506" /><path
     id="path652"
     d="M 45.171,49.472 C 45.11,49.447 43.67,48.951 42.46,51 C 41.772,52.168 41.249,52.384 40.579,52.363 C 40.227,52.351 39.906,52.205 39.679,51.951 C 39.416,51.664 39.294,51.267 39.318,50.806 C 39.374,49.714 40.118,49.699 40.266,49.706 C 40.9,49.74 41.17,50.125 41.16,50.497 C 41.154,50.736 41.091,50.93 40.987,51.026 C 40.939,51.071 40.882,51.094 40.819,51.09 C 40.726,51.085 40.688,51.048 40.664,51.016 C 40.621,50.953 40.599,50.848 40.605,50.726 L 40.605,50.726 C 40.617,50.505 40.45,50.319 40.236,50.308 C 40.02,50.296 39.836,50.464 39.824,50.684 L 39.824,50.684 C 39.809,50.995 39.881,51.272 40.036,51.487 C 40.208,51.727 40.472,51.869 40.778,51.886 C 41.05,51.901 41.313,51.805 41.516,51.612 C 41.701,51.439 41.922,51.111 41.94,50.522 C 41.964,49.766 41.41,48.971 40.307,48.912 C 39.503,48.869 38.609,49.43 38.54,50.766 C 38.505,51.437 38.706,52.049 39.104,52.49 C 39.476,52.904 39.992,53.142 40.556,53.159 C 41.631,53.193 42.375,52.687 43.129,51.41 C 43.992,49.946 44.878,50.21 44.914,50.222 L 44.907,50.219 C 45.112,50.294 45.334,50.184 45.407,49.977 C 45.48,49.774 45.374,49.544 45.171,49.472 L 45.171,49.472 z "
     style="fill:#ff8600" /><path
     id="path706"
     d="M 48.394,54.648 C 48.446,55.705 48.882,56.652 49.623,57.317 C 50.367,57.986 51.377,58.327 52.397,58.25 C 54.134,58.122 55.444,57.187 56.506,55.305 C 57.494,53.558 58.163,53.33 58.277,53.303 C 58.561,53.348 58.849,53.306 59.112,53.172 C 59.447,53.001 59.697,52.706 59.817,52.34 C 60.06,51.592 59.663,50.778 58.929,50.531 C 58.542,50.4 56.662,49.982 54.615,53.008 C 54.229,51.688 53.011,50.893 51.369,50.98 C 49.815,51.064 48.28,52.459 48.394,54.648 z M 58.359,52.278 L 58.359,52.278 L 58.359,52.278 L 58.359,52.278 z M 58.083,53.262 L 58.088,53.26 C 58.14,53.275 58.192,53.286 58.238,53.295 C 58.205,53.295 58.156,53.285 58.083,53.262 z M 58.04,53.25 L 58.04,53.25 L 58.04,53.25 L 58.04,53.25 z "
     style="fill:#060506" /><path
     id="path708"
     d="M 58.359,52.281 C 58.371,52.283 58.363,52.281 58.375,52.283 C 58.362,52.281 57.209,52.026 55.646,54.792 C 54.75,56.376 53.726,57.127 52.328,57.231 C 51.577,57.286 50.836,57.038 50.296,56.55 C 49.76,56.067 49.442,55.372 49.4,54.594 C 49.319,52.985 50.379,52.057 51.424,52.001 C 52.799,51.928 53.692,52.617 53.75,53.798 C 53.831,55.411 52.845,55.587 52.534,55.604 C 51.733,55.647 51.296,55.238 51.222,54.384 L 51.222,54.384 C 51.201,54.158 51.366,53.96 51.583,53.939 C 51.807,53.92 51.999,54.086 52.021,54.313 L 52.021,54.313 C 52.062,54.771 52.175,54.804 52.5,54.788 C 52.622,54.781 53.003,54.761 52.953,53.841 C 52.906,52.933 52.12,52.784 51.474,52.819 C 50.932,52.847 50.144,53.334 50.203,54.552 C 50.233,55.116 50.448,55.594 50.828,55.937 C 51.209,56.28 51.735,56.455 52.274,56.413 C 53.408,56.33 54.184,55.741 54.954,54.383 C 56.859,51.022 58.445,51.444 58.619,51.502 L 58.619,51.502 C 58.831,51.572 58.944,51.804 58.875,52.018 C 58.795,52.235 58.569,52.351 58.359,52.281 L 58.359,52.281 z "
     style="fill:#ff8600" /></g>

















































































































<radialGradient
   id="XMLID_32_"
   cx="2248.6355"
   cy="-3167.978"
   r="14.6765"
   gradientTransform="matrix(-1.1537 0.0645 -0.0575 -1.0007 2458.6895 -3209.5012)"
   gradientUnits="userSpaceOnUse">
	<stop
   offset="0"
   style="stop-color:#FFFFFF"
   id="stop462" />
	<stop
   offset="0.0614"
   style="stop-color:#F6F4F0"
   id="stop464" />
	<stop
   offset="0.1786"
   style="stop-color:#DFD8C9"
   id="stop466" />
	<stop
   offset="0.2753"
   style="stop-color:#CABDA5"
   id="stop468" />
	<stop
   offset="1"
   style="stop-color:#5A3D1B"
   id="stop470" />
</radialGradient>



<linearGradient
   id="XMLID_33_"
   gradientUnits="userSpaceOnUse"
   x1="2485.197"
   y1="-3183.4907"
   x2="2485.197"
   y2="-3159.6255"
   gradientTransform="matrix(-0.9984 0.0559 -0.0559 -0.9984 2350.2217 -3199.7021)">
	<stop
   offset="0"
   style="stop-color:#FFFFFF"
   id="stop479" />
	<stop
   offset="0.0128"
   style="stop-color:#FBFBF7"
   id="stop481" />
	<stop
   offset="0.0501"
   style="stop-color:#F4F2E6"
   id="stop483" />
	<stop
   offset="0.0966"
   style="stop-color:#EEECDB"
   id="stop485" />
	<stop
   offset="0.1618"
   style="stop-color:#EBE8D4"
   id="stop487" />
	<stop
   offset="0.3427"
   style="stop-color:#EAE7D2"
   id="stop489" />
	<stop
   offset="1"
   style="stop-color:#E6E3CB"
   id="stop491" />
</linearGradient>



<radialGradient
   id="XMLID_34_"
   cx="2242.5886"
   cy="-2674.6533"
   r="12.0954"
   gradientTransform="matrix(-1.1537 0.0645 -0.0677 -1.1781 2459.5188 -3193.4031)"
   gradientUnits="userSpaceOnUse">
	<stop
   offset="0"
   style="stop-color:#FFFFFF"
   id="stop500" />
	<stop
   offset="0.246"
   style="stop-color:#F4F4F0"
   id="stop502" />
	<stop
   offset="0.7158"
   style="stop-color:#D9D8C9"
   id="stop504" />
	<stop
   offset="1"
   style="stop-color:#C6C4AF"
   id="stop506" />
</radialGradient>

















<radialGradient
   id="XMLID_35_"
   cx="-794.2288"
   cy="395.0586"
   r="14.6782"
   gradientTransform="matrix(1.1726,-1.9e-3,-9.5e-3,0.9671,986.6497,-338.9523)"
   gradientUnits="userSpaceOnUse">
	<stop
   offset="0"
   style="stop-color:#FFFFFF"
   id="stop543" />
	<stop
   offset="0.0614"
   style="stop-color:#F6F4F0"
   id="stop545" />
	<stop
   offset="0.1786"
   style="stop-color:#DFD8C9"
   id="stop547" />
	<stop
   offset="0.2753"
   style="stop-color:#CABDA5"
   id="stop549" />
	<stop
   offset="1"
   style="stop-color:#5A3D1B"
   id="stop551" />
</radialGradient>





<radialGradient
   id="XMLID_36_"
   cx="-800.7483"
   cy="351.5342"
   r="12.094"
   gradientTransform="matrix(1.1726,-1.9e-3,-1.11e-2,1.1386,987.4111,-354.1572)"
   gradientUnits="userSpaceOnUse">
	<stop
   offset="0"
   style="stop-color:#FFFFFF"
   id="stop564" />
	<stop
   offset="0.246"
   style="stop-color:#F4F4F0"
   id="stop566" />
	<stop
   offset="0.7158"
   style="stop-color:#D9D8C9"
   id="stop568" />
	<stop
   offset="1"
   style="stop-color:#C6C4AF"
   id="stop570" />
</radialGradient>





































































<use
   x="0"
   y="0"
   inkscape:tiled-clone-of="#g5075"
   xlink:href="#g5075"
   transform="matrix(-1,0,0,-1,97.83205,149.8876)"
   id="use5245"
   width="98.099998"
   height="150.086" />

<path
   d="M91.331,0.044H6.769c-3.715,0-6.726,3.037-6.726,6.782v136.438  c0,3.742,3.011,6.778,6.726,6.778h84.56c3.71,0,6.728-3.037,6.728-6.778V6.826C98.056,3.08,95.041,0.044,91.331,0.044z   M81.213,129.441c0,2.98-1.979,5.404-4.417,5.404H21.284c-2.437,0-4.413-2.424-4.413-5.404V20.645c0-2.984,1.977-5.406,4.413-5.406  h55.511c2.438,0,4.418,2.422,4.418,5.406V129.441z"
   id="path710"
   stroke-width="0.0882"
   stroke="#060506"
   fill="#F7F7F7" /><g
   id="g712">
	<path
   id="XMLID_1_"
   fill="none"
   stroke="#404040"
   stroke-width="0.1764"
   d="M81.213,129.441c0,2.98-1.979,5.404-4.417,5.404H21.284   c-2.437,0-4.413-2.424-4.413-5.404V20.645c0-2.984,1.977-5.406,4.413-5.406h55.511c2.438,0,4.418,2.422,4.418,5.406V129.441   L81.213,129.441z" />
	<g
   id="g715">
		<path
   fill="#060506"
   d="M11.711,31.708c-0.81,0-1.801,1.027-2.345,1.668c0-0.263,1.815-1.952,1.815-2.862    c0-1.167-0.928-2.115-2.07-2.115c-1.144,0-2.07,0.948-2.07,2.115c0,0.91,1.815,2.599,1.815,2.862    c-0.542-0.639-1.536-1.668-2.345-1.668c-1.173,0-2.124,0.969-2.124,2.167c0.003,1.195,0.951,2.166,2.124,2.166    c0.806,0,1.787-1.015,2.331-1.654c-0.013,0.671-0.042,1.288-0.104,1.489c-0.232,0.746-0.254,0.674-0.755,1.609h2.258    c-0.504-0.933-0.525-0.863-0.757-1.609c-0.062-0.201-0.091-0.818-0.106-1.489c0.543,0.639,1.527,1.654,2.333,1.654    c1.17,0,2.121-0.971,2.121-2.166C13.833,32.677,12.882,31.708,11.711,31.708z"
   id="path717" />
		<path
   fill="#060506"
   d="M86.425,119.867c0.81,0,1.803-1.025,2.344-1.667c0,0.267-1.812,1.95-1.812,2.862    c0,1.168,0.931,2.115,2.07,2.115c1.146,0,2.07-0.947,2.07-2.115c-0.002-0.912-1.815-2.601-1.815-2.862    c0.542,0.642,1.534,1.667,2.348,1.667c1.174,0,2.122-0.969,2.122-2.167c-0.002-1.192-0.947-2.166-2.122-2.166    c-0.808,0-1.788,1.019-2.332,1.653c0.015-0.67,0.045-1.289,0.104-1.486c0.229-0.749,0.251-0.68,0.754-1.614h-2.259    c0.505,0.938,0.522,0.865,0.757,1.614c0.062,0.197,0.089,0.816,0.105,1.484c-0.547-0.639-1.528-1.651-2.336-1.651    c-1.168,0-2.122,0.973-2.122,2.165C84.3,118.898,85.253,119.867,86.425,119.867z"
   id="path719" />
		<path
   fill="#060506"
   d="M9.888,8.955v1.413c0,0,0.294,0,0.404,0c-0.292,0.454-2.916,4.537-3.437,5.347c0-0.946,0-5.048,0-5.347    c0.226,0,0.878,0,0.878,0V8.955H4.366v1.413c0,0,0.675,0,0.904,0c0,0.337,0,10.956,0,11.292c-0.229,0-0.904,0-0.904,0v1.413h3.368    V21.66c0,0-0.653,0-0.878,0c0-0.314,0-3.25,0-3.347c0.048-0.074,0.938-1.443,1.18-1.815c0.248,0.44,2.651,4.706,2.908,5.162    c-0.14,0-0.458,0-0.458,0v1.413h3.369V21.66c0,0-0.843,0-1.003,0c-0.1-0.167-3.74-6.331-3.848-6.512    c0.114-0.174,3.034-4.629,3.134-4.78c0.156,0,1.115,0,1.115,0V8.955H9.888z"
   id="path721" />
		<path
   fill="#060506"
   d="M90.402,126.619v1.41c0,0,0.653,0,0.878,0c0,0.314,0,3.252,0,3.351c-0.048,0.072-0.938,1.44-1.182,1.812    c-0.247-0.438-2.652-4.705-2.909-5.162c0.144,0,0.46,0,0.46,0v-1.41h-3.368v1.41c0,0,0.845,0,1.003,0    c0.104,0.168,3.739,6.33,3.852,6.512c-0.114,0.176-3.034,4.633-3.136,4.781c-0.154,0-1.113,0-1.113,0v1.414h3.364v-1.414    c0,0-0.295,0-0.403,0c0.292-0.452,2.918-4.535,3.438-5.346c0,0.943,0,5.049,0,5.346c-0.225,0-0.878,0-0.878,0v1.414h3.364v-1.414    c0,0-0.676,0-0.904,0c0-0.336,0-10.955,0-11.293c0.229,0,0.904,0,0.904,0v-1.41H90.402L90.402,126.619z"
   id="path723" />
	</g>
</g></svg>