<?xml version="1.0" encoding="utf-8"?>
<!-- Generator: Adobe Illustrator 12.0.0, SVG Export Plug-In . SVG Version: 6.00 Build 51448)  -->
<!DOCTYPE svg PUBLIC "-//W3C//DTD SVG 1.1//EN" "http://www.w3.org/Graphics/SVG/1.1/DTD/svg11.dtd" [
	<!ENTITY ns_flows "http://ns.adobe.com/Flows/1.0/">
	<!ENTITY ns_extend "http://ns.adobe.com/Extensibility/1.0/">
	<!ENTITY ns_ai "http://ns.adobe.com/AdobeIllustrator/10.0/">
	<!ENTITY ns_graphs "http://ns.adobe.com/Graphs/1.0/">
	<!ENTITY ns_vars "http://ns.adobe.com/Variables/1.0/">
	<!ENTITY ns_imrep "http://ns.adobe.com/ImageReplacement/1.0/">
	<!ENTITY ns_sfw "http://ns.adobe.com/SaveForWeb/1.0/">
	<!ENTITY ns_custom "http://ns.adobe.com/GenericCustomNamespace/1.0/">
	<!ENTITY ns_adobe_xpath "http://ns.adobe.com/XPath/1.0/">
	<!ENTITY ns_svg "http://www.w3.org/2000/svg">
	<!ENTITY ns_xlink "http://www.w3.org/1999/xlink">
]>
<svg  version="1.1"
	 xmlns:x="&ns_extend;" xmlns:i="&ns_ai;" xmlns:graph="&ns_graphs;" i:viewOrigin="89.8623 287.6411" i:rulerOrigin="-89 -137.1973" i:pageBounds="89 287.1973 189 137.1973"
	 xmlns="&ns_svg;" xmlns:xlink="&ns_xlink;" xmlns:a="http://ns.adobe.com/AdobeSVGViewerExtensions/3.0/"
	 width="98.098" height="150.086" viewBox="0 0 98.098 150.086" overflow="visible" enable-background="new 0 0 98.098 150.086"
	 xml:space="preserve">
<metadata>
	<variableSets  xmlns="http://ns.adobe.com/Variables/1.0/">
		<variableSet  locked="none" varSetName="binding1">
			<variables></variables>
			<v:sampleDataSets  xmlns:v="http://ns.adobe.com/Variables/1.0/" xmlns="http://ns.adobe.com/GenericCustomNamespace/1.0/">
				</v:sampleDataSets>
		</variableSet>
	</variableSets>
</metadata>
<g id="图层_1" i:knockout="Off" i:layer="yes" i:dimmedPercent="50" i:rgbTrio="#4F008000FFFF">
	<g i:knockout="Off">
		<path fill="#F7F7F7" stroke="#060506" stroke-width="0.0882" d="M98.054,143.264c0,3.742-3.015,6.778-6.726,6.778H6.77
			c-3.715,0-6.726-3.034-6.726-6.778V6.824c0-3.744,3.011-6.78,6.726-6.78h84.559c3.711,0,6.725,3.036,6.725,6.78L98.054,143.264
			L98.054,143.264z"/>
		<g i:knockout="Off">
			<path fill="#FF0300" d="M8.397,8.954c0,0-3.294,12.677-3.361,12.936c-0.197,0-0.951,0-0.951,0v1.41h3.368v-1.41
				c0,0-0.637,0-0.899,0c0.089-0.361,0.633-2.563,0.69-2.792c0.248,0,3.45,0,3.698,0c0.056,0.228,0.6,2.43,0.689,2.792
				c-0.262,0-0.9,0-0.9,0v1.41h3.372v-1.41c0,0-0.759,0-0.957,0C13.08,21.631,9.786,8.954,9.786,8.954H8.397z M9.092,11.747
				c0.267,1.078,1.381,5.574,1.472,5.941c-0.365,0-2.579,0-2.943,0C7.711,17.32,8.825,12.825,9.092,11.747z"/>
		</g>
		<g i:knockout="Off">
			<path fill="#FF0300" d="M90.642,127.049v1.411c0,0,0.64,0,0.901,0c-0.089,0.361-0.632,2.562-0.688,2.79c-0.248,0-3.45,0-3.698,0
				c-0.056-0.228-0.601-2.429-0.689-2.79c0.263,0,0.899,0,0.899,0v-1.411h-3.368v1.411c0,0,0.757,0,0.954,0
				c0.065,0.26,3.358,12.938,3.358,12.938h1.393c0,0,3.292-12.678,3.357-12.938c0.198,0,0.951,0,0.951,0v-1.411H90.642z
				 M90.478,132.663c-0.092,0.368-1.206,4.862-1.474,5.94c-0.268-1.078-1.38-5.573-1.472-5.94
				C87.898,132.663,90.112,132.663,90.478,132.663z"/>
		</g>
		<path fill="#FF0800" d="M10.884,30.85c-1.279-1.421-1.722-3.229-1.792-3.548C9.021,27.62,8.579,29.428,7.3,30.85
			c-1.279,1.425-2.514,2.001-2.727,2.092c0.213,0.094,1.448,0.669,2.727,2.094c1.279,1.424,1.721,3.229,1.792,3.548
			c0.07-0.318,0.513-2.124,1.792-3.548c1.277-1.424,2.512-2,2.727-2.094C13.396,32.851,12.161,32.275,10.884,30.85z"/>
		<path fill="#FF0800" d="M87.215,118.587c1.279,1.423,1.722,3.229,1.792,3.548c0.069-0.319,0.513-2.125,1.789-3.548
			c1.276-1.424,2.517-2.002,2.729-2.094c-0.212-0.095-1.451-0.67-2.729-2.094c-1.276-1.425-1.72-3.229-1.789-3.546
			c-0.07,0.316-0.513,2.121-1.792,3.546c-1.277,1.424-2.515,1.999-2.729,2.094C84.701,116.585,85.938,117.164,87.215,118.587z"/>
		<path fill="#FF0800" d="M53.116,69.754c-2.997-3.581-4.03-8.127-4.196-8.929c-0.166,0.801-1.202,5.348-4.194,8.929
			c-2.998,3.582-5.892,5.034-6.395,5.264c0.502,0.235,3.396,1.687,6.395,5.271c2.993,3.586,4.028,8.126,4.194,8.93
			c0.166-0.804,1.2-5.344,4.196-8.93c2.992-3.584,5.891-5.036,6.393-5.271C59.006,74.788,56.108,73.337,53.116,69.754z"/>
	</g>
</g>
</svg>
