<?xml version="1.0" encoding="utf-8"?>
<!-- Generator: Adobe Illustrator 12.0.0, SVG Export Plug-In . SVG Version: 6.00 Build 51448)  -->
<!DOCTYPE svg PUBLIC "-//W3C//DTD SVG 1.1//EN" "http://www.w3.org/Graphics/SVG/1.1/DTD/svg11.dtd" [
	<!ENTITY ns_flows "http://ns.adobe.com/Flows/1.0/">
	<!ENTITY ns_extend "http://ns.adobe.com/Extensibility/1.0/">
	<!ENTITY ns_ai "http://ns.adobe.com/AdobeIllustrator/10.0/">
	<!ENTITY ns_graphs "http://ns.adobe.com/Graphs/1.0/">
	<!ENTITY ns_vars "http://ns.adobe.com/Variables/1.0/">
	<!ENTITY ns_imrep "http://ns.adobe.com/ImageReplacement/1.0/">
	<!ENTITY ns_sfw "http://ns.adobe.com/SaveForWeb/1.0/">
	<!ENTITY ns_custom "http://ns.adobe.com/GenericCustomNamespace/1.0/">
	<!ENTITY ns_adobe_xpath "http://ns.adobe.com/XPath/1.0/">
	<!ENTITY ns_svg "http://www.w3.org/2000/svg">
	<!ENTITY ns_xlink "http://www.w3.org/1999/xlink">
]>
<svg  version="1.1"
	 xmlns:x="&ns_extend;" xmlns:i="&ns_ai;" xmlns:graph="&ns_graphs;" i:viewOrigin="89.8633 287.6411" i:rulerOrigin="-89 -137.1973" i:pageBounds="89 287.1973 189 137.1973"
	 xmlns="&ns_svg;" xmlns:xlink="&ns_xlink;" xmlns:a="http://ns.adobe.com/AdobeSVGViewerExtensions/3.0/"
	 width="98.098" height="150.086" viewBox="0 0 98.098 150.086" overflow="visible" enable-background="new 0 0 98.098 150.086"
	 xml:space="preserve">
<metadata>
	<variableSets  xmlns="http://ns.adobe.com/Variables/1.0/">
		<variableSet  locked="none" varSetName="binding1">
			<variables></variables>
			<v:sampleDataSets  xmlns:v="http://ns.adobe.com/Variables/1.0/" xmlns="http://ns.adobe.com/GenericCustomNamespace/1.0/">
				</v:sampleDataSets>
		</variableSet>
	</variableSets>
</metadata>
<g id="图层_1" i:knockout="Off" i:layer="yes" i:dimmedPercent="50" i:rgbTrio="#4F008000FFFF">
	<g i:knockout="Off">
		<path fill="#F7F7F7" stroke="#060506" stroke-width="0.0882" d="M98.053,143.264c0,3.742-3.015,6.778-6.726,6.778H6.769
			c-3.714,0-6.725-3.034-6.725-6.778V6.824c0-3.744,3.011-6.78,6.725-6.78h84.56c3.711,0,6.726,3.036,6.726,6.78L98.053,143.264
			L98.053,143.264z"/>
		<g i:knockout="Off">
			<path fill="#FF0800" d="M6.381,10.178L6.381,10.178c-0.669,0.78-1.026,1.929-1.063,3.416l-0.004,0.18h1.588v-0.176
				c0-1.076,0.196-1.879,0.583-2.386c0.4-0.518,1.022-0.78,1.849-0.78c0.761,0,1.323,0.202,1.718,0.617
				c0.373,0.384,0.554,0.92,0.554,1.641c0,0.434-0.035,0.784-0.104,1.04c-0.082,0.323-0.231,0.628-0.447,0.912
				c-0.218,0.297-0.564,0.646-1.031,1.038c-0.436,0.372-1.059,0.847-1.852,1.413c-1.112,0.77-1.921,1.54-2.402,2.286
				c-0.517,0.783-0.779,1.701-0.779,2.728c0,0.008,0.025,0.568,0.025,0.568h8.076v-2.902h-1.39c0,0,0,1.215,0,1.49
				c-0.316,0-4.683,0-5.08,0c0.08-0.533,0.297-1.05,0.698-1.534c0.403-0.48,1.043-1.014,1.9-1.584
				c1.584-1.086,2.609-1.969,3.134-2.699c0.554-0.735,0.836-1.671,0.836-2.777c0-1.107-0.331-1.999-0.984-2.65
				c-0.675-0.705-1.626-1.064-2.825-1.064C8.094,8.954,7.083,9.366,6.381,10.178z"/>
		</g>
		<g i:knockout="Off">
			<path fill="#FF0800" d="M85.004,127.678v2.898h1.39c0,0,0-1.212,0-1.487c0.316,0,4.684,0,5.081,0
				c-0.081,0.535-0.299,1.054-0.698,1.535c-0.404,0.483-1.044,1.017-1.897,1.583c-1.585,1.086-2.61,1.969-3.135,2.698
				c-0.556,0.735-0.839,1.672-0.839,2.779c0,1.104,0.331,1.995,0.982,2.648c0.676,0.704,1.629,1.062,2.829,1.062
				c1.288,0,2.298-0.412,2.999-1.225c0.669-0.779,1.027-1.929,1.064-3.415l0.005-0.181h-1.589v0.177
				c0,1.075-0.196,1.878-0.583,2.387c-0.402,0.519-1.024,0.78-1.851,0.78c-0.76,0-1.321-0.202-1.718-0.621
				c-0.368-0.378-0.555-0.929-0.555-1.64c0-0.431,0.035-0.78,0.104-1.037c0.082-0.318,0.232-0.626,0.448-0.911
				c0.219-0.3,0.563-0.647,1.029-1.042c0.448-0.377,1.071-0.853,1.854-1.413c1.109-0.768,1.918-1.536,2.401-2.284
				c0.517-0.781,0.777-1.699,0.777-2.728c0-0.008-0.025-0.567-0.025-0.567h-8.075V127.678z"/>
		</g>
		<path fill="#FF0800" d="M10.882,30.85c-1.278-1.422-1.72-3.229-1.791-3.547c-0.07,0.318-0.514,2.125-1.791,3.547
			c-1.279,1.424-2.514,2.001-2.728,2.093c0.214,0.095,1.449,0.67,2.728,2.094c1.277,1.425,1.721,3.229,1.791,3.547
			c0.071-0.318,0.512-2.123,1.791-3.547c1.28-1.423,2.514-1.999,2.729-2.094C13.396,32.851,12.162,32.274,10.882,30.85z"/>
		<path fill="#FF0800" d="M87.215,118.587c1.278,1.423,1.721,3.229,1.792,3.548c0.07-0.319,0.513-2.125,1.79-3.548
			c1.276-1.425,2.516-2.001,2.729-2.094c-0.213-0.093-1.45-0.669-2.729-2.093c-1.277-1.425-1.72-3.229-1.79-3.547
			c-0.071,0.316-0.514,2.122-1.792,3.547c-1.276,1.424-2.513,2-2.729,2.093C84.702,116.586,85.938,117.163,87.215,118.587z"/>
		<path fill="#FF0800" d="M53.243,24.262c-2.992-3.582-4.029-8.128-4.195-8.93c-0.166,0.802-1.202,5.348-4.193,8.93
			c-2.996,3.583-5.892,5.034-6.394,5.263c0.501,0.237,3.397,1.688,6.394,5.271c2.991,3.586,4.027,8.127,4.193,8.927
			c0.166-0.799,1.202-5.34,4.195-8.927c2.994-3.583,5.89-5.034,6.393-5.271C59.133,29.296,56.238,27.846,53.243,24.262z"/>
		<path fill="#FF0800" d="M44.851,131.273c2.997,3.58,4.031,8.129,4.197,8.93c0.166-0.801,1.202-5.35,4.195-8.93
			c2.999-3.581,5.893-5.035,6.393-5.265c-0.5-0.235-3.394-1.687-6.393-5.271c-2.992-3.586-4.029-8.126-4.195-8.928
			c-0.166,0.801-1.2,5.342-4.197,8.928c-2.991,3.585-5.888,5.035-6.39,5.271C38.963,126.238,41.86,127.692,44.851,131.273z"/>
	</g>
</g>
</svg>
