<?xml version="1.0" encoding="utf-8"?>
<!-- Generator: Adobe Illustrator 12.0.0, SVG Export Plug-In . SVG Version: 6.00 Build 51448)  -->
<!DOCTYPE svg PUBLIC "-//W3C//DTD SVG 1.1//EN" "http://www.w3.org/Graphics/SVG/1.1/DTD/svg11.dtd" [
	<!ENTITY ns_flows "http://ns.adobe.com/Flows/1.0/">
	<!ENTITY ns_extend "http://ns.adobe.com/Extensibility/1.0/">
	<!ENTITY ns_ai "http://ns.adobe.com/AdobeIllustrator/10.0/">
	<!ENTITY ns_graphs "http://ns.adobe.com/Graphs/1.0/">
	<!ENTITY ns_vars "http://ns.adobe.com/Variables/1.0/">
	<!ENTITY ns_imrep "http://ns.adobe.com/ImageReplacement/1.0/">
	<!ENTITY ns_sfw "http://ns.adobe.com/SaveForWeb/1.0/">
	<!ENTITY ns_custom "http://ns.adobe.com/GenericCustomNamespace/1.0/">
	<!ENTITY ns_adobe_xpath "http://ns.adobe.com/XPath/1.0/">
	<!ENTITY ns_svg "http://www.w3.org/2000/svg">
	<!ENTITY ns_xlink "http://www.w3.org/1999/xlink">
]>
<svg  version="1.1"
	 xmlns:x="&ns_extend;" xmlns:i="&ns_ai;" xmlns:graph="&ns_graphs;" i:viewOrigin="89.8623 287.6411" i:rulerOrigin="-89 -137.1973" i:pageBounds="89 287.1973 189 137.1973"
	 xmlns="&ns_svg;" xmlns:xlink="&ns_xlink;" xmlns:a="http://ns.adobe.com/AdobeSVGViewerExtensions/3.0/"
	 width="98.098" height="150.086" viewBox="0 0 98.098 150.086" overflow="visible" enable-background="new 0 0 98.098 150.086"
	 xml:space="preserve">
<metadata>
	<variableSets  xmlns="http://ns.adobe.com/Variables/1.0/">
		<variableSet  locked="none" varSetName="binding1">
			<variables></variables>
			<v:sampleDataSets  xmlns:v="http://ns.adobe.com/Variables/1.0/" xmlns="http://ns.adobe.com/GenericCustomNamespace/1.0/">
				</v:sampleDataSets>
		</variableSet>
	</variableSets>
</metadata>
<g id="图层_1" i:knockout="Off" i:layer="yes" i:dimmedPercent="50" i:rgbTrio="#4F008000FFFF">
	<g i:knockout="Off">
		<path fill="#F7F7F7" stroke="#060506" stroke-width="0.0882" d="M98.054,143.264c0,3.742-3.015,6.778-6.726,6.778H6.77
			c-3.715,0-6.726-3.034-6.726-6.778V6.824c0-3.744,3.011-6.78,6.726-6.78h84.559c3.711,0,6.725,3.036,6.725,6.78L98.054,143.264
			L98.054,143.264z"/>
		<path fill="#FF0800" d="M10.885,30.849c-1.279-1.421-1.721-3.229-1.792-3.547c-0.069,0.318-0.512,2.125-1.79,3.547
			c-1.28,1.424-2.515,2.001-2.729,2.093c0.213,0.094,1.449,0.67,2.729,2.094c1.277,1.424,1.72,3.229,1.79,3.548
			c0.071-0.318,0.514-2.124,1.792-3.548c1.277-1.423,2.512-2,2.727-2.094C13.396,32.851,12.162,32.273,10.885,30.849z"/>
		<path fill="#FF0800" d="M87.217,118.587c1.278,1.423,1.721,3.229,1.791,3.549c0.07-0.32,0.513-2.125,1.79-3.549
			s2.514-2.001,2.729-2.093c-0.215-0.094-1.449-0.67-2.729-2.095c-1.277-1.423-1.72-3.229-1.79-3.546
			c-0.07,0.316-0.513,2.123-1.791,3.546c-1.277,1.425-2.514,2.001-2.729,2.095C84.703,116.586,85.939,117.164,87.217,118.587z"/>
		<g i:knockout="Off">
			<path fill="#FF0800" d="M5.681,8.954v2.523h1.391c0,0,0-0.891,0-1.143c0.291,0,2.959,0,3.593,0
				c-0.485,0.515-3.854,4.094-3.854,4.094l0.811,0.964l0.201-0.188c0.135-0.12,0.528-0.404,1.204-0.404
				c0.799,0,1.408,0.277,1.861,0.845c0.446,0.563,0.673,1.378,0.673,2.422c0,0.997-0.227,1.786-0.675,2.348
				C10.45,20.984,9.86,21.26,9.079,21.26c-0.717,0-1.293-0.232-1.763-0.709c-0.478-0.484-0.731-1.126-0.753-1.91L6.558,18.47H5
				l0.008,0.184c0.052,1.198,0.458,2.171,1.205,2.893c0.735,0.726,1.68,1.095,2.806,1.095l0,0c1.265,0,2.286-0.428,3.036-1.272
				c0.743-0.822,1.121-1.952,1.121-3.356c0-1.391-0.358-2.514-1.064-3.337c-0.621-0.726-1.458-1.121-2.47-1.214
				c0.418-0.44,2.94-3.094,2.94-3.094V8.956L5.681,8.954L5.681,8.954z"/>
		</g>
		<g i:knockout="Off">
			<path fill="#FF0800" d="M86.045,128.979c-0.745,0.827-1.124,1.958-1.124,3.358c0,1.39,0.358,2.512,1.065,3.338
				c0.621,0.727,1.458,1.12,2.472,1.215c-0.419,0.439-2.939,3.093-2.939,3.093v1.415h6.9v-2.524h-1.393c0,0,0,0.892,0,1.145
				c-0.291,0-2.96,0-3.594,0c0.484-0.516,3.854-4.096,3.854-4.096l-0.812-0.971l-0.202,0.198c-0.1,0.089-0.502,0.399-1.199,0.399
				c-0.802,0-1.409-0.276-1.86-0.846c-0.447-0.562-0.673-1.378-0.673-2.425c0-0.997,0.228-1.786,0.676-2.347
				c0.435-0.57,1.024-0.847,1.806-0.847c0.704,0,1.297,0.239,1.763,0.711c0.479,0.485,0.731,1.129,0.755,1.909l0.005,0.172h1.557
				l-0.009-0.185c-0.052-1.195-0.457-2.168-1.204-2.891c-0.733-0.727-1.679-1.094-2.808-1.094
				C87.812,127.711,86.792,128.138,86.045,128.979z"/>
		</g>
		<path fill="#FF0800" d="M53.118,24.262c-2.997-3.582-4.031-8.128-4.197-8.93c-0.165,0.802-1.202,5.348-4.195,8.93
			c-2.996,3.583-5.892,5.034-6.394,5.263c0.502,0.237,3.398,1.688,6.394,5.271c2.993,3.586,4.03,8.127,4.195,8.927
			c0.167-0.799,1.202-5.34,4.197-8.927c2.991-3.583,5.889-5.034,6.39-5.271C59.008,29.296,56.11,27.846,53.118,24.262z"/>
		<path fill="#FF0800" d="M44.726,131.273c2.994,3.58,4.031,8.129,4.195,8.93c0.167-0.801,1.202-5.35,4.194-8.93
			c2.996-3.581,5.893-5.035,6.394-5.265c-0.501-0.235-3.396-1.687-6.394-5.271c-2.993-3.586-4.028-8.126-4.194-8.928
			c-0.165,0.801-1.201,5.342-4.195,8.928c-2.995,3.585-5.891,5.035-6.394,5.271C38.834,126.238,41.73,127.692,44.726,131.273z"/>
		<path fill="#FF0800" d="M53.118,69.754c-2.997-3.581-4.031-8.127-4.197-8.929c-0.167,0.801-1.202,5.348-4.195,8.929
			c-2.998,3.582-5.892,5.034-6.394,5.264c0.502,0.235,3.396,1.687,6.394,5.271c2.993,3.586,4.028,8.126,4.195,8.93
			c0.167-0.804,1.202-5.344,4.197-8.93c2.991-3.584,5.889-5.036,6.39-5.271C59.008,74.788,56.11,73.337,53.118,69.754z"/>
	</g>
</g>
</svg>
