<?xml version="1.0" encoding="utf-8"?>
<!-- Generator: Adobe Illustrator 12.0.0, SVG Export Plug-In . SVG Version: 6.00 Build 51448)  -->
<!DOCTYPE svg PUBLIC "-//W3C//DTD SVG 1.1//EN" "http://www.w3.org/Graphics/SVG/1.1/DTD/svg11.dtd" [
	<!ENTITY ns_flows "http://ns.adobe.com/Flows/1.0/">
	<!ENTITY ns_extend "http://ns.adobe.com/Extensibility/1.0/">
	<!ENTITY ns_ai "http://ns.adobe.com/AdobeIllustrator/10.0/">
	<!ENTITY ns_graphs "http://ns.adobe.com/Graphs/1.0/">
	<!ENTITY ns_vars "http://ns.adobe.com/Variables/1.0/">
	<!ENTITY ns_imrep "http://ns.adobe.com/ImageReplacement/1.0/">
	<!ENTITY ns_sfw "http://ns.adobe.com/SaveForWeb/1.0/">
	<!ENTITY ns_custom "http://ns.adobe.com/GenericCustomNamespace/1.0/">
	<!ENTITY ns_adobe_xpath "http://ns.adobe.com/XPath/1.0/">
	<!ENTITY ns_svg "http://www.w3.org/2000/svg">
	<!ENTITY ns_xlink "http://www.w3.org/1999/xlink">
]>
<svg  version="1.1"
	 xmlns:x="&ns_extend;" xmlns:i="&ns_ai;" xmlns:graph="&ns_graphs;" i:viewOrigin="89.8623 287.6411" i:rulerOrigin="-89 -137.1973" i:pageBounds="89 287.1973 189 137.1973"
	 xmlns="&ns_svg;" xmlns:xlink="&ns_xlink;" xmlns:a="http://ns.adobe.com/AdobeSVGViewerExtensions/3.0/"
	 width="98.098" height="150.086" viewBox="0 0 98.098 150.086" overflow="visible" enable-background="new 0 0 98.098 150.086"
	 xml:space="preserve">
<metadata>
	<variableSets  xmlns="http://ns.adobe.com/Variables/1.0/">
		<variableSet  locked="none" varSetName="binding1">
			<variables></variables>
			<v:sampleDataSets  xmlns:v="http://ns.adobe.com/Variables/1.0/" xmlns="http://ns.adobe.com/GenericCustomNamespace/1.0/">
				</v:sampleDataSets>
		</variableSet>
	</variableSets>
</metadata>
<g id="图层_1" i:knockout="Off" i:layer="yes" i:dimmedPercent="50" i:rgbTrio="#4F008000FFFF">
	<g i:knockout="Off">
		<path fill="#F7F7F7" stroke="#060506" stroke-width="0.0882" d="M98.054,143.264c0,3.742-3.015,6.778-6.726,6.778H6.77
			c-3.714,0-6.726-3.034-6.726-6.778V6.824c0-3.744,3.011-6.78,6.726-6.78h84.56c3.711,0,6.725,3.036,6.725,6.78V143.264
			L98.054,143.264z"/>
		<path fill="#FF0800" d="M10.883,30.849c-1.279-1.421-1.721-3.228-1.792-3.547c-0.069,0.319-0.512,2.126-1.79,3.547
			c-1.276,1.424-2.515,2.001-2.729,2.093c0.214,0.094,1.453,0.669,2.729,2.093c1.278,1.424,1.72,3.229,1.79,3.548
			c0.071-0.319,0.513-2.124,1.792-3.548c1.279-1.424,2.514-2,2.728-2.093C13.396,32.851,12.161,32.273,10.883,30.849z"/>
		<path fill="#FF0800" d="M87.216,118.587c1.278,1.423,1.722,3.229,1.791,3.549c0.071-0.318,0.514-2.126,1.789-3.549
			c1.279-1.424,2.516-2,2.73-2.093c-0.216-0.093-1.451-0.669-2.73-2.094c-1.275-1.424-1.718-3.229-1.789-3.547
			c-0.069,0.316-0.513,2.123-1.791,3.547s-2.515,2.001-2.729,2.094C84.701,116.587,85.938,117.164,87.216,118.587z"/>
		<g i:knockout="Off">
			<path fill="#FF0800" d="M10.222,8.954l-5.593,8.759v1.221c0,0,5.277,0,5.608,0c0,0.274,0,1.624,0,1.898c-0.229,0-0.912,0-0.912,0
				v1.41h3.369v-1.41c0,0-0.646,0-0.87,0c0-0.274,0-1.624,0-1.898c0.285,0,1.73,0,1.73,0v-1.345c0,0-1.446,0-1.73,0
				c0-0.338,0-8.635,0-8.635H10.222z M10.238,11.325c0,0.986,0,5.957,0,6.263c-0.301,0-3.447,0-3.977,0
				C6.555,17.125,9.701,12.17,10.238,11.325z"/>
		</g>
		<g i:knockout="Off">
			<path fill="#FF0800" d="M85.404,128.11v1.414c0,0,0.646,0,0.87,0c0,0.272,0,1.622,0,1.896c-0.285,0-1.729,0-1.729,0v1.346
				c0,0,1.445,0,1.729,0c0,0.339,0,8.633,0,8.633h1.604l5.59-8.758v-1.221c0,0-5.276,0-5.607,0c0-0.273,0-1.623,0-1.896
				c0.229,0,0.912,0,0.912,0v-1.414H85.404z M91.838,132.766c-0.294,0.463-3.441,5.419-3.979,6.264c0-0.986,0-5.959,0-6.264
				C88.161,132.766,91.309,132.766,91.838,132.766z"/>
		</g>
		<path fill="#FF0800" d="M34.875,24.261c-2.995-3.582-4.03-8.126-4.197-8.93c-0.165,0.804-1.202,5.349-4.194,8.93
			c-2.998,3.583-5.89,5.034-6.394,5.265c0.504,0.236,3.396,1.686,6.394,5.27c2.991,3.586,4.029,8.129,4.194,8.929
			c0.167-0.799,1.202-5.342,4.197-8.929c2.994-3.583,5.89-5.034,6.394-5.27C40.766,29.295,37.871,27.845,34.875,24.261z"/>
		<path fill="#FF0800" d="M26.483,131.273c2.998,3.579,4.032,8.129,4.196,8.93c0.167-0.801,1.202-5.352,4.197-8.93
			c2.997-3.584,5.892-5.035,6.394-5.268c-0.502-0.233-3.397-1.685-6.394-5.269c-2.995-3.586-4.03-8.127-4.197-8.928
			c-0.165,0.801-1.199,5.342-4.196,8.928c-2.99,3.584-5.887,5.034-6.391,5.269C20.596,126.238,23.493,127.689,26.483,131.273z"/>
		<path fill="#FF0800" d="M71.614,24.261c-2.994-3.582-4.028-8.126-4.195-8.93c-0.167,0.804-1.201,5.349-4.194,8.93
			c-2.999,3.583-5.893,5.034-6.394,5.265c0.501,0.236,3.395,1.686,6.394,5.27c2.993,3.586,4.027,8.129,4.194,8.929
			c0.167-0.799,1.201-5.342,4.195-8.929c2.992-3.583,5.891-5.034,6.392-5.27C77.504,29.295,74.606,27.845,71.614,24.261z"/>
		<path fill="#FF0800" d="M63.223,131.273c2.995,3.579,4.028,8.129,4.196,8.93c0.167-0.801,1.2-5.352,4.193-8.93
			c2.995-3.584,5.893-5.035,6.394-5.268c-0.501-0.233-3.397-1.685-6.394-5.269c-2.992-3.586-4.026-8.127-4.193-8.928
			c-0.168,0.801-1.201,5.342-4.196,8.928c-2.994,3.584-5.891,5.034-6.393,5.269C57.332,126.238,60.229,127.689,63.223,131.273z"/>
	</g>
</g>
</svg>
