<?xml version="1.0" encoding="utf-8"?>
<!-- Generator: Adobe Illustrator 12.0.0, SVG Export Plug-In . SVG Version: 6.00 Build 51448)  -->
<!DOCTYPE svg PUBLIC "-//W3C//DTD SVG 1.1//EN" "http://www.w3.org/Graphics/SVG/1.1/DTD/svg11.dtd" [
	<!ENTITY ns_flows "http://ns.adobe.com/Flows/1.0/">
	<!ENTITY ns_extend "http://ns.adobe.com/Extensibility/1.0/">
	<!ENTITY ns_ai "http://ns.adobe.com/AdobeIllustrator/10.0/">
	<!ENTITY ns_graphs "http://ns.adobe.com/Graphs/1.0/">
	<!ENTITY ns_vars "http://ns.adobe.com/Variables/1.0/">
	<!ENTITY ns_imrep "http://ns.adobe.com/ImageReplacement/1.0/">
	<!ENTITY ns_sfw "http://ns.adobe.com/SaveForWeb/1.0/">
	<!ENTITY ns_custom "http://ns.adobe.com/GenericCustomNamespace/1.0/">
	<!ENTITY ns_adobe_xpath "http://ns.adobe.com/XPath/1.0/">
	<!ENTITY ns_svg "http://www.w3.org/2000/svg">
	<!ENTITY ns_xlink "http://www.w3.org/1999/xlink">
]>
<svg  version="1.1"
	 xmlns:x="&ns_extend;" xmlns:i="&ns_ai;" xmlns:graph="&ns_graphs;" i:viewOrigin="89.8608 287.6411" i:rulerOrigin="-89 -137.1973" i:pageBounds="89 287.1973 189 137.1973"
	 xmlns="&ns_svg;" xmlns:xlink="&ns_xlink;" xmlns:a="http://ns.adobe.com/AdobeSVGViewerExtensions/3.0/"
	 width="98.097" height="150.086" viewBox="0 0 98.097 150.086" overflow="visible" enable-background="new 0 0 98.097 150.086"
	 xml:space="preserve">
<metadata>
	<variableSets  xmlns="http://ns.adobe.com/Variables/1.0/">
		<variableSet  locked="none" varSetName="binding1">
			<variables></variables>
			<v:sampleDataSets  xmlns:v="http://ns.adobe.com/Variables/1.0/" xmlns="http://ns.adobe.com/GenericCustomNamespace/1.0/">
				</v:sampleDataSets>
		</variableSet>
	</variableSets>
</metadata>
<g id="图层_1" i:knockout="Off" i:layer="yes" i:dimmedPercent="50" i:rgbTrio="#4F008000FFFF">
	<g i:knockout="Off">
		<path fill="#F7F7F7" stroke="#060506" stroke-width="0.0882" d="M98.053,143.264c0,3.742-3.014,6.778-6.725,6.778H6.77
			c-3.714,0-6.726-3.034-6.726-6.778V6.824c0-3.744,3.011-6.78,6.726-6.78h84.559c3.711,0,6.725,3.036,6.725,6.78V143.264
			L98.053,143.264z"/>
		<path fill="#FF0800" d="M10.884,30.849c-1.279-1.421-1.721-3.228-1.791-3.546c-0.072,0.318-0.514,2.124-1.792,3.546
			c-1.279,1.424-2.514,2.003-2.728,2.094c0.213,0.095,1.449,0.67,2.728,2.094c1.277,1.424,1.72,3.228,1.792,3.546
			c0.07-0.318,0.512-2.122,1.791-3.546c1.276-1.424,2.513-2,2.727-2.094C13.397,32.852,12.16,32.273,10.884,30.849z"/>
		<path fill="#FF0800" d="M87.216,118.587c1.278,1.423,1.721,3.23,1.791,3.549c0.068-0.317,0.513-2.125,1.79-3.549
			c1.276-1.424,2.515-2,2.729-2.092c-0.215-0.094-1.452-0.67-2.729-2.094c-1.277-1.424-1.722-3.229-1.79-3.548
			c-0.07,0.316-0.513,2.124-1.791,3.548c-1.277,1.424-2.513,2-2.729,2.094C84.704,116.587,85.939,117.164,87.216,118.587z"/>
		<g i:knockout="Off">
			<path fill="#FF0800" d="M6.429,8.954L5.406,16.12h1.339l0.052-0.082c0.249-0.394,0.575-0.707,0.971-0.929
				c0.401-0.207,0.815-0.309,1.26-0.309c0.802,0,1.411,0.276,1.862,0.845c0.446,0.562,0.672,1.376,0.672,2.422
				c0,0.999-0.227,1.789-0.675,2.348c-0.435,0.57-1.025,0.845-1.805,0.845c-0.716,0-1.293-0.232-1.764-0.709
				c-0.477-0.483-0.731-1.126-0.755-1.91L6.558,18.47H5.003l0.008,0.184c0.051,1.196,0.456,2.169,1.204,2.893
				c0.735,0.726,1.68,1.095,2.806,1.095c1.266,0,2.287-0.428,3.035-1.272c0.744-0.82,1.123-1.95,1.123-3.356
				c0-1.391-0.357-2.514-1.062-3.337c-0.713-0.833-1.692-1.255-2.907-1.255c-0.466,0-0.922,0.078-1.355,0.233
				c-0.291,0.101-0.544,0.248-0.781,0.414c0.096-0.668,0.501-3.481,0.537-3.733c0.287,0,4.967,0,4.967,0v-1.38L6.429,8.954
				L6.429,8.954z"/>
		</g>
		<g i:knockout="Off">
			<path fill="#FF0800" d="M86.043,128.979c-0.744,0.824-1.121,1.955-1.121,3.359c0,1.389,0.356,2.511,1.062,3.336
				c0.714,0.832,1.691,1.255,2.906,1.255c0.465,0,0.921-0.079,1.357-0.233c0.29-0.102,0.544-0.248,0.778-0.413
				c-0.096,0.667-0.501,3.481-0.538,3.734c-0.285,0-4.965,0-4.965,0v1.38h6.146l1.022-7.165h-1.339l-0.052,0.082
				c-0.248,0.394-0.575,0.705-0.971,0.925c-0.394,0.205-0.817,0.311-1.261,0.311c-0.802,0-1.409-0.275-1.861-0.845
				c-0.445-0.56-0.671-1.375-0.671-2.424c0-1,0.228-1.79,0.674-2.348c0.438-0.57,1.026-0.847,1.806-0.847
				c0.714,0,1.29,0.232,1.763,0.711c0.479,0.484,0.732,1.127,0.757,1.91l0.006,0.171h1.555l-0.008-0.184
				c-0.051-1.196-0.457-2.169-1.205-2.892c-0.734-0.727-1.679-1.094-2.806-1.094C87.811,127.711,86.791,128.138,86.043,128.979z"/>
		</g>
		<path fill="#FF0800" d="M34.875,24.261c-2.993-3.581-4.029-8.125-4.194-8.93c-0.167,0.805-1.203,5.349-4.195,8.93
			c-2.997,3.584-5.892,5.035-6.393,5.266c0.501,0.236,3.396,1.686,6.393,5.27c2.992,3.585,4.029,8.128,4.196,8.927
			c0.166-0.798,1.201-5.341,4.194-8.927c2.995-3.584,5.89-5.034,6.395-5.27C40.765,29.296,37.87,27.846,34.875,24.261z"/>
		<path fill="#FF0800" d="M26.484,131.272c2.996,3.579,4.031,8.128,4.197,8.93c0.166-0.802,1.201-5.352,4.194-8.93
			c2.997-3.583,5.892-5.034,6.394-5.267c-0.502-0.234-3.397-1.686-6.394-5.269c-2.993-3.588-4.029-8.127-4.194-8.928
			c-0.167,0.801-1.202,5.34-4.197,8.928c-2.994,3.583-5.889,5.033-6.391,5.269C20.595,126.238,23.49,127.689,26.484,131.272z"/>
		<path fill="#FF0800" d="M71.615,24.261c-2.993-3.581-4.03-8.125-4.195-8.93c-0.168,0.805-1.202,5.349-4.195,8.93
			c-2.997,3.584-5.892,5.035-6.394,5.266c0.502,0.236,3.396,1.686,6.394,5.27c2.993,3.585,4.027,8.128,4.195,8.927
			c0.165-0.798,1.201-5.341,4.195-8.927c2.992-3.584,5.89-5.034,6.394-5.27C77.503,29.296,74.607,27.846,71.615,24.261z"/>
		<path fill="#FF0800" d="M63.222,131.272c2.996,3.579,4.029,8.128,4.196,8.93c0.166-0.802,1.202-5.352,4.195-8.93
			c2.995-3.583,5.891-5.034,6.394-5.267c-0.503-0.234-3.397-1.686-6.394-5.269c-2.993-3.588-4.029-8.127-4.195-8.928
			c-0.167,0.801-1.2,5.34-4.196,8.928c-2.992,3.583-5.891,5.033-6.393,5.269C57.332,126.238,60.23,127.689,63.222,131.272z"/>
		<path fill="#FF0800" d="M53.247,69.776c-2.995-3.581-4.033-8.125-4.197-8.93c-0.165,0.804-1.202,5.349-4.194,8.93
			c-2.997,3.584-5.892,5.035-6.393,5.267c0.501,0.235,3.396,1.685,6.393,5.27c2.992,3.586,4.029,8.129,4.194,8.927
			c0.165-0.798,1.202-5.341,4.197-8.927c2.992-3.585,5.89-5.034,6.393-5.27C59.136,74.81,56.24,73.361,53.247,69.776z"/>
	</g>
</g>
</svg>
