<?xml version="1.0" encoding="utf-8"?>
<!-- Generator: Adobe Illustrator 12.0.0, SVG Export Plug-In . SVG Version: 6.00 Build 51448)  -->
<!DOCTYPE svg PUBLIC "-//W3C//DTD SVG 1.1//EN" "http://www.w3.org/Graphics/SVG/1.1/DTD/svg11.dtd" [
	<!ENTITY ns_flows "http://ns.adobe.com/Flows/1.0/">
	<!ENTITY ns_extend "http://ns.adobe.com/Extensibility/1.0/">
	<!ENTITY ns_ai "http://ns.adobe.com/AdobeIllustrator/10.0/">
	<!ENTITY ns_graphs "http://ns.adobe.com/Graphs/1.0/">
	<!ENTITY ns_vars "http://ns.adobe.com/Variables/1.0/">
	<!ENTITY ns_imrep "http://ns.adobe.com/ImageReplacement/1.0/">
	<!ENTITY ns_sfw "http://ns.adobe.com/SaveForWeb/1.0/">
	<!ENTITY ns_custom "http://ns.adobe.com/GenericCustomNamespace/1.0/">
	<!ENTITY ns_adobe_xpath "http://ns.adobe.com/XPath/1.0/">
	<!ENTITY ns_svg "http://www.w3.org/2000/svg">
	<!ENTITY ns_xlink "http://www.w3.org/1999/xlink">
]>
<svg  version="1.1"
	 xmlns:x="&ns_extend;" xmlns:i="&ns_ai;" xmlns:graph="&ns_graphs;" i:viewOrigin="89.8608 287.6411" i:rulerOrigin="-89 -137.1973" i:pageBounds="89 287.1973 189 137.1973"
	 xmlns="&ns_svg;" xmlns:xlink="&ns_xlink;" xmlns:a="http://ns.adobe.com/AdobeSVGViewerExtensions/3.0/"
	 width="98.099" height="150.086" viewBox="0 0 98.099 150.086" overflow="visible" enable-background="new 0 0 98.099 150.086"
	 xml:space="preserve">
<metadata>
	<variableSets  xmlns="http://ns.adobe.com/Variables/1.0/">
		<variableSet  locked="none" varSetName="binding1">
			<variables></variables>
			<v:sampleDataSets  xmlns:v="http://ns.adobe.com/Variables/1.0/" xmlns="http://ns.adobe.com/GenericCustomNamespace/1.0/">
				</v:sampleDataSets>
		</variableSet>
	</variableSets>
</metadata>
<g id="图层_1" i:knockout="Off" i:layer="yes" i:dimmedPercent="50" i:rgbTrio="#4F008000FFFF">
	<g i:knockout="Off">
		<path fill="#F7F7F7" stroke="#060506" stroke-width="0.0882" d="M98.055,143.264c0,3.742-3.015,6.778-6.725,6.778H6.77
			c-3.714,0-6.726-3.034-6.726-6.778V6.824c0-3.744,3.011-6.78,6.726-6.78h84.56c3.711,0,6.725,3.036,6.725,6.78L98.055,143.264
			L98.055,143.264z"/>
		<path fill="#FF0800" d="M10.885,30.848c-1.278-1.42-1.721-3.226-1.792-3.545c-0.07,0.319-0.513,2.124-1.791,3.545
			c-1.277,1.425-2.513,2.003-2.728,2.095c0.214,0.094,1.451,0.67,2.728,2.094c1.278,1.424,1.721,3.228,1.791,3.547
			c0.071-0.319,0.514-2.123,1.792-3.547c1.277-1.423,2.514-2,2.727-2.094C13.399,32.852,12.162,32.273,10.885,30.848z"/>
		<path fill="#FF0800" d="M87.219,118.587c1.276,1.423,1.72,3.23,1.788,3.549c0.071-0.317,0.514-2.125,1.792-3.549
			c1.275-1.423,2.514-1.999,2.729-2.092c-0.216-0.094-1.453-0.67-2.729-2.093c-1.278-1.425-1.721-3.23-1.792-3.549
			c-0.068,0.316-0.512,2.124-1.788,3.549c-1.281,1.423-2.515,1.999-2.73,2.093C84.705,116.588,85.939,117.165,87.219,118.587z"/>
		<g i:knockout="Off">
			<path fill="#FF0800" d="M5.072,15.918c0,4.898,1.324,7.18,4.167,7.18c3.181,0,3.877-3.579,3.877-4.957
				c0-1.819-0.813-5.258-3.891-5.258c-1.319,0-2.134,0.655-2.585,1.319c0.223-2.514,1.393-3.871,2.51-3.871
				c1.803,0,2.338,1.515,2.359,1.579l0.06,0.176l1.392-0.554l-0.055-0.159c-0.009-0.024-0.874-2.419-3.675-2.419
				C7.677,8.954,5.072,9.858,5.072,15.918z M6.675,18.047c0-2.411,1.157-3.673,2.3-3.673c1.734,0,2.729,1.367,2.729,3.75
				c0,1.643-0.632,3.562-2.414,3.562C7.362,21.685,6.675,19.806,6.675,18.047z"/>
		</g>
		<g i:knockout="Off">
			<path fill="#FF0800" d="M84.987,132.208c0,1.818,0.812,5.258,3.889,5.258c1.319,0,2.134-0.652,2.585-1.315
				c-0.224,2.515-1.393,3.872-2.507,3.872c-1.806,0-2.339-1.516-2.359-1.579l-0.061-0.177l-1.394,0.553l0.055,0.16
				c0.01,0.023,0.875,2.42,3.679,2.42c1.553,0,4.157-0.905,4.157-6.967c0-4.898-1.323-7.181-4.167-7.181
				C85.683,127.252,84.987,130.83,84.987,132.208z M86.397,132.225c0-1.644,0.632-3.562,2.414-3.562
				c1.929,0,2.615,1.878,2.615,3.638c0,2.41-1.156,3.673-2.299,3.673C87.392,135.974,86.397,134.608,86.397,132.225z"/>
		</g>
		<path fill="#FF0800" d="M34.878,69.779c-2.994-3.583-4.031-8.125-4.197-8.93c-0.165,0.805-1.2,5.348-4.193,8.93
			c-2.997,3.583-5.892,5.034-6.394,5.265c0.502,0.235,3.397,1.685,6.394,5.269c2.993,3.587,4.029,8.13,4.193,8.928
			c0.167-0.798,1.203-5.341,4.197-8.928c2.995-3.584,5.891-5.033,6.393-5.269C40.769,74.813,37.873,73.363,34.878,69.779z"/>
		<path fill="#FF0800" d="M71.617,69.779c-2.995-3.583-4.03-8.125-4.195-8.93c-0.166,0.805-1.203,5.348-4.195,8.93
			c-2.997,3.583-5.892,5.034-6.395,5.265c0.503,0.235,3.396,1.685,6.395,5.269c2.992,3.587,4.029,8.13,4.195,8.928
			c0.165-0.798,1.2-5.341,4.195-8.928c2.991-3.584,5.89-5.033,6.393-5.269C77.505,74.813,74.608,73.363,71.617,69.779z"/>
		<path fill="#FF0800" d="M34.878,24.261c-2.994-3.581-4.031-8.125-4.197-8.93c-0.165,0.805-1.2,5.349-4.193,8.93
			c-2.997,3.584-5.892,5.035-6.394,5.266c0.502,0.236,3.397,1.686,6.394,5.27c2.993,3.585,4.029,8.128,4.193,8.927
			c0.167-0.798,1.203-5.341,4.197-8.927c2.995-3.584,5.891-5.034,6.393-5.27C40.769,29.296,37.873,27.846,34.878,24.261z"/>
		<path fill="#FF0800" d="M26.485,131.272c2.996,3.579,4.031,8.128,4.196,8.93c0.167-0.802,1.203-5.352,4.197-8.93
			c2.998-3.583,5.892-5.034,6.394-5.267c-0.502-0.234-3.396-1.686-6.394-5.269c-2.994-3.589-4.031-8.127-4.197-8.928
			c-0.165,0.801-1.199,5.339-4.196,8.928c-2.993,3.583-5.889,5.033-6.392,5.269C20.596,126.238,23.492,127.689,26.485,131.272z"/>
		<path fill="#FF0800" d="M71.617,24.261c-2.995-3.581-4.03-8.125-4.195-8.93c-0.166,0.805-1.203,5.349-4.195,8.93
			c-2.997,3.584-5.892,5.035-6.395,5.266c0.503,0.236,3.396,1.686,6.395,5.27c2.992,3.585,4.029,8.128,4.195,8.927
			c0.165-0.798,1.2-5.341,4.195-8.927c2.991-3.584,5.89-5.034,6.393-5.27C77.505,29.296,74.608,27.846,71.617,24.261z"/>
		<path fill="#FF0800" d="M63.224,131.272c2.995,3.579,4.031,8.128,4.196,8.93c0.165-0.802,1.2-5.352,4.194-8.93
			c2.995-3.583,5.891-5.034,6.394-5.267c-0.503-0.234-3.397-1.686-6.394-5.269c-2.994-3.589-4.029-8.127-4.194-8.928
			c-0.166,0.801-1.201,5.339-4.196,8.928c-2.993,3.583-5.89,5.033-6.394,5.269C57.334,126.238,60.231,127.689,63.224,131.272z"/>
	</g>
</g>
</svg>
