<?xml version="1.0" encoding="utf-8"?>
<!-- Generator: Adobe Illustrator 12.0.0, SVG Export Plug-In . SVG Version: 6.00 Build 51448)  -->
<!DOCTYPE svg PUBLIC "-//W3C//DTD SVG 1.1//EN" "http://www.w3.org/Graphics/SVG/1.1/DTD/svg11.dtd" [
	<!ENTITY ns_flows "http://ns.adobe.com/Flows/1.0/">
	<!ENTITY ns_extend "http://ns.adobe.com/Extensibility/1.0/">
	<!ENTITY ns_ai "http://ns.adobe.com/AdobeIllustrator/10.0/">
	<!ENTITY ns_graphs "http://ns.adobe.com/Graphs/1.0/">
	<!ENTITY ns_vars "http://ns.adobe.com/Variables/1.0/">
	<!ENTITY ns_imrep "http://ns.adobe.com/ImageReplacement/1.0/">
	<!ENTITY ns_sfw "http://ns.adobe.com/SaveForWeb/1.0/">
	<!ENTITY ns_custom "http://ns.adobe.com/GenericCustomNamespace/1.0/">
	<!ENTITY ns_adobe_xpath "http://ns.adobe.com/XPath/1.0/">
	<!ENTITY ns_svg "http://www.w3.org/2000/svg">
	<!ENTITY ns_xlink "http://www.w3.org/1999/xlink">
]>
<svg  version="1.1"
	 xmlns:x="&ns_extend;" xmlns:i="&ns_ai;" xmlns:graph="&ns_graphs;" i:viewOrigin="89.8633 287.6411" i:rulerOrigin="-89 -137.1973" i:pageBounds="89 287.1973 189 137.1973"
	 xmlns="&ns_svg;" xmlns:xlink="&ns_xlink;" xmlns:a="http://ns.adobe.com/AdobeSVGViewerExtensions/3.0/"
	 width="98.098" height="150.086" viewBox="0 0 98.098 150.086" overflow="visible" enable-background="new 0 0 98.098 150.086"
	 xml:space="preserve">
<metadata>
	<variableSets  xmlns="http://ns.adobe.com/Variables/1.0/">
		<variableSet  locked="none" varSetName="binding1">
			<variables></variables>
			<v:sampleDataSets  xmlns:v="http://ns.adobe.com/Variables/1.0/" xmlns="http://ns.adobe.com/GenericCustomNamespace/1.0/">
				</v:sampleDataSets>
		</variableSet>
	</variableSets>
</metadata>
<g id="图层_1" i:knockout="Off" i:layer="yes" i:dimmedPercent="50" i:rgbTrio="#4F008000FFFF">
	<g i:knockout="Off">
		<path fill="#F7F7F7" stroke="#060506" stroke-width="0.0882" d="M98.054,143.264c0,3.742-3.015,6.778-6.726,6.778H6.77
			c-3.715,0-6.726-3.034-6.726-6.778V6.824c0-3.744,3.011-6.78,6.726-6.78h84.558c3.712,0,6.727,3.036,6.727,6.78V143.264
			L98.054,143.264z"/>
		<path fill="#FF0800" d="M10.883,30.85c-1.278-1.422-1.72-3.23-1.789-3.549c-0.07,0.318-0.514,2.126-1.791,3.549
			c-1.279,1.424-2.514,2-2.729,2.092c0.215,0.093,1.45,0.668,2.729,2.092c1.277,1.425,1.721,3.23,1.791,3.549
			c0.069-0.318,0.511-2.124,1.789-3.549c1.278-1.423,2.514-2,2.73-2.092C13.396,32.85,12.161,32.275,10.883,30.85z"/>
		<path fill="#FF0800" d="M87.215,118.587c1.28,1.423,1.723,3.229,1.793,3.548c0.07-0.319,0.512-2.125,1.791-3.548
			c1.277-1.425,2.514-2.001,2.728-2.094c-0.214-0.093-1.449-0.67-2.728-2.094c-1.279-1.424-1.721-3.229-1.791-3.546
			c-0.07,0.316-0.513,2.122-1.793,3.546c-1.275,1.424-2.512,2.001-2.727,2.094C84.703,116.586,85.938,117.163,87.215,118.587z"/>
		<g i:knockout="Off">
			<path fill="#FF0800" d="M5.06,8.954v2.898h1.391c0,0,0-1.151,0-1.422c0.308,0,4.297,0,4.889,0
				c-1.217,1.559-2.215,3.333-2.953,5.295c-0.696,1.783-1.245,3.908-1.629,6.312l-0.033,0.204h1.69l0.021-0.151
				c0.338-2.391,0.851-4.495,1.521-6.254c0.767-2.009,1.82-3.839,3.128-5.44l0.04-0.049V8.953L5.06,8.954L5.06,8.954z"/>
		</g>
		<g i:knockout="Off">
			<path fill="#FF0800" d="M89.684,128.11l-0.021,0.152c-0.336,2.38-0.849,4.483-1.521,6.254c-0.766,2.005-1.816,3.835-3.128,5.44
				l-0.039,0.05v1.392h8.067V138.5h-1.393c0,0,0,1.152,0,1.423c-0.309,0-4.297,0-4.889,0c1.216-1.559,2.213-3.332,2.95-5.293
				c0.694-1.778,1.245-3.904,1.632-6.313l0.032-0.204L89.684,128.11L89.684,128.11z"/>
		</g>
		<path fill="#FF0800" d="M34.877,69.778c-2.995-3.582-4.029-8.126-4.196-8.93c-0.166,0.804-1.203,5.348-4.195,8.93
			c-2.996,3.583-5.891,5.034-6.394,5.265c0.503,0.234,3.397,1.685,6.394,5.269c2.992,3.587,4.029,8.129,4.195,8.928
			c0.167-0.799,1.201-5.341,4.196-8.928c2.995-3.583,5.89-5.034,6.394-5.269C40.767,74.812,37.872,73.362,34.877,69.778z"/>
		<path fill="#FF0800" d="M71.617,69.778c-2.996-3.582-4.033-8.126-4.196-8.93c-0.167,0.804-1.203,5.348-4.197,8.93
			c-2.997,3.583-5.893,5.034-6.394,5.265c0.501,0.234,3.396,1.685,6.394,5.269c2.993,3.587,4.03,8.129,4.197,8.928
			c0.163-0.799,1.2-5.341,4.196-8.928c2.99-3.583,5.888-5.034,6.391-5.269C77.505,74.812,74.608,73.362,71.617,69.778z"/>
		<path fill="#FF0800" d="M34.877,24.261c-2.995-3.582-4.029-8.126-4.196-8.93c-0.165,0.804-1.202,5.349-4.195,8.93
			c-2.996,3.583-5.89,5.034-6.393,5.265c0.503,0.236,3.397,1.686,6.393,5.27c2.992,3.586,4.03,8.128,4.195,8.928
			c0.167-0.799,1.201-5.342,4.196-8.928c2.995-3.584,5.891-5.034,6.394-5.27C40.767,29.296,37.872,27.845,34.877,24.261z"/>
		<path fill="#FF0800" d="M26.485,131.273c2.995,3.579,4.03,8.129,4.195,8.93c0.167-0.801,1.201-5.352,4.196-8.93
			c2.998-3.584,5.893-5.035,6.395-5.268c-0.502-0.233-3.396-1.685-6.395-5.269c-2.994-3.586-4.028-8.127-4.196-8.928
			c-0.165,0.801-1.2,5.342-4.195,8.928c-2.992,3.584-5.89,5.034-6.393,5.269C20.595,126.238,23.493,127.689,26.485,131.273z"/>
		<path fill="#FF0800" d="M71.617,24.261c-2.996-3.582-4.033-8.126-4.196-8.93c-0.167,0.804-1.203,5.349-4.197,8.93
			c-2.997,3.583-5.893,5.034-6.394,5.265c0.501,0.236,3.396,1.686,6.394,5.27c2.993,3.586,4.03,8.128,4.197,8.928
			c0.163-0.799,1.2-5.342,4.196-8.928c2.99-3.584,5.888-5.034,6.391-5.27C77.505,29.296,74.608,27.845,71.617,24.261z"/>
		<path fill="#FF0800" d="M63.224,131.273c2.995,3.579,4.03,8.129,4.197,8.93c0.163-0.801,1.2-5.352,4.192-8.93
			c2.997-3.584,5.893-5.035,6.396-5.268c-0.503-0.233-3.397-1.685-6.396-5.269c-2.992-3.586-4.029-8.127-4.192-8.928
			c-0.167,0.801-1.202,5.342-4.197,8.928c-2.995,3.584-5.893,5.034-6.394,5.269C57.331,126.238,60.229,127.689,63.224,131.273z"/>
		<path fill="#FF0800" d="M53.24,45.554c-2.994-3.581-4.03-8.125-4.196-8.93c-0.166,0.804-1.201,5.348-4.195,8.93
			c-2.997,3.584-5.89,5.034-6.394,5.265c0.504,0.235,3.397,1.686,6.394,5.27c2.995,3.586,4.029,8.129,4.195,8.928
			c0.167-0.799,1.202-5.342,4.196-8.928c2.993-3.583,5.89-5.034,6.393-5.27C59.13,50.588,56.234,49.138,53.24,45.554z"/>
	</g>
</g>
</svg>
