<?xml version="1.0" encoding="utf-8"?>
<!-- Generator: Adobe Illustrator 12.0.0, SVG Export Plug-In . SVG Version: 6.00 Build 51448)  -->
<!DOCTYPE svg PUBLIC "-//W3C//DTD SVG 1.1//EN" "http://www.w3.org/Graphics/SVG/1.1/DTD/svg11.dtd" [
	<!ENTITY ns_flows "http://ns.adobe.com/Flows/1.0/">
	<!ENTITY ns_extend "http://ns.adobe.com/Extensibility/1.0/">
	<!ENTITY ns_ai "http://ns.adobe.com/AdobeIllustrator/10.0/">
	<!ENTITY ns_graphs "http://ns.adobe.com/Graphs/1.0/">
	<!ENTITY ns_vars "http://ns.adobe.com/Variables/1.0/">
	<!ENTITY ns_imrep "http://ns.adobe.com/ImageReplacement/1.0/">
	<!ENTITY ns_sfw "http://ns.adobe.com/SaveForWeb/1.0/">
	<!ENTITY ns_custom "http://ns.adobe.com/GenericCustomNamespace/1.0/">
	<!ENTITY ns_adobe_xpath "http://ns.adobe.com/XPath/1.0/">
	<!ENTITY ns_svg "http://www.w3.org/2000/svg">
	<!ENTITY ns_xlink "http://www.w3.org/1999/xlink">
]>
<svg  version="1.1"
	 xmlns:x="&ns_extend;" xmlns:i="&ns_ai;" xmlns:graph="&ns_graphs;" i:viewOrigin="89.8618 287.6411" i:rulerOrigin="-89 -137.1973" i:pageBounds="89 287.1973 189 137.1973"
	 xmlns="&ns_svg;" xmlns:xlink="&ns_xlink;" xmlns:a="http://ns.adobe.com/AdobeSVGViewerExtensions/3.0/"
	 width="98.097" height="150.086" viewBox="0 0 98.097 150.086" overflow="visible" enable-background="new 0 0 98.097 150.086"
	 xml:space="preserve">
<metadata>
	<variableSets  xmlns="http://ns.adobe.com/Variables/1.0/">
		<variableSet  locked="none" varSetName="binding1">
			<variables></variables>
			<v:sampleDataSets  xmlns:v="http://ns.adobe.com/Variables/1.0/" xmlns="http://ns.adobe.com/GenericCustomNamespace/1.0/">
				</v:sampleDataSets>
		</variableSet>
	</variableSets>
</metadata>
<g id="图层_1" i:knockout="Off" i:layer="yes" i:dimmedPercent="50" i:rgbTrio="#4F008000FFFF">
	<g i:knockout="Off">
		<path fill="#F7F7F7" stroke="#060506" stroke-width="0.0882" d="M98.052,143.264c0,3.742-3.014,6.778-6.725,6.778H6.769
			c-3.716,0-6.725-3.034-6.725-6.778V6.824c0-3.744,3.009-6.78,6.725-6.78h84.56c3.711,0,6.725,3.036,6.725,6.78L98.052,143.264
			L98.052,143.264z"/>
		<path fill="#FF0800" d="M10.881,30.848c-1.277-1.42-1.72-3.228-1.789-3.547C9.02,27.62,8.578,29.427,7.3,30.848
			c-1.278,1.425-2.514,2.002-2.729,2.094c0.215,0.093,1.452,0.668,2.729,2.094c1.277,1.424,1.719,3.229,1.792,3.548
			c0.069-0.319,0.511-2.124,1.789-3.548c1.278-1.425,2.514-2.001,2.73-2.094C13.394,32.85,12.159,32.273,10.881,30.848z"/>
		<path fill="#FF0800" d="M87.214,118.587c1.277,1.423,1.722,3.229,1.792,3.549c0.069-0.32,0.512-2.125,1.791-3.549
			c1.276-1.424,2.513-2.003,2.728-2.094c-0.215-0.095-1.449-0.67-2.728-2.094c-1.279-1.425-1.722-3.229-1.791-3.546
			c-0.07,0.316-0.515,2.121-1.792,3.546c-1.276,1.424-2.514,1.999-2.728,2.094C84.702,116.585,85.938,117.164,87.214,118.587z"/>
		<g i:knockout="Off">
			<path fill="#FF0800" d="M6.37,9.956L6.37,9.956c-0.677,0.667-1.021,1.551-1.021,2.629c0,0.665,0.156,1.249,0.464,1.736
				c0.266,0.42,0.668,0.772,1.171,1.089c-0.612,0.296-1.129,0.697-1.497,1.242c-0.396,0.641-0.595,1.382-0.595,2.209
				c0,1.25,0.386,2.272,1.148,3.037c0.76,0.779,1.79,1.175,3.059,1.175c1.249,0,2.268-0.396,3.027-1.176
				c0.771-0.764,1.162-1.786,1.162-3.035c0-0.831-0.216-1.574-0.643-2.209c-0.368-0.545-0.88-0.946-1.484-1.242
				c0.494-0.317,0.898-0.676,1.157-1.089c0.32-0.48,0.483-1.065,0.483-1.735c0-1.079-0.35-1.964-1.041-2.63
				c-0.688-0.665-1.589-1.002-2.677-1.002C7.971,8.954,7.057,9.291,6.37,9.956z M7.521,14.21L7.521,14.21
				c-0.369-0.388-0.556-0.919-0.556-1.582c0-0.712,0.193-1.283,0.575-1.697c0.393-0.401,0.896-0.597,1.536-0.597
				c0.618,0,1.13,0.202,1.52,0.601c0.391,0.412,0.59,0.982,0.59,1.693c0,0.662-0.192,1.193-0.57,1.581
				c-0.386,0.407-0.89,0.604-1.539,0.604C8.413,14.811,7.905,14.615,7.521,14.21z M7.269,20.909L7.269,20.909
				c-0.508-0.542-0.755-1.199-0.755-2.007c0-0.866,0.235-1.545,0.698-2.02c0.452-0.466,1.066-0.692,1.88-0.692
				c0.79,0,1.399,0.227,1.863,0.694c0.482,0.469,0.716,1.093,0.716,1.908c0,0.86-0.255,1.566-0.756,2.1
				c-0.487,0.531-1.1,0.799-1.824,0.799C8.355,21.69,7.759,21.434,7.269,20.909z"/>
		</g>
		<g i:knockout="Off">
			<path fill="#FF0800" d="M85.97,128.456c-0.772,0.767-1.165,1.787-1.165,3.035c0,0.828,0.217,1.571,0.643,2.21
				c0.368,0.545,0.882,0.944,1.485,1.24c-0.493,0.317-0.896,0.677-1.157,1.089c-0.318,0.481-0.481,1.066-0.481,1.737
				c0,1.077,0.35,1.961,1.039,2.628c0.689,0.666,1.591,1.003,2.678,1.003l0,0c1.114,0,2.029-0.337,2.716-1.003
				c0.679-0.669,1.021-1.554,1.021-2.628c0-0.669-0.156-1.254-0.468-1.738c-0.26-0.413-0.669-0.771-1.17-1.088
				c0.614-0.296,1.134-0.696,1.498-1.24c0.396-0.642,0.595-1.383,0.595-2.21c0-1.251-0.387-2.271-1.146-3.035
				c-0.759-0.778-1.789-1.175-3.062-1.175C87.746,127.281,86.728,127.676,85.97,128.456z M87.137,133.469L87.137,133.469
				c-0.479-0.473-0.713-1.097-0.713-1.908c0-0.856,0.255-1.562,0.757-2.1c0.493-0.539,1.09-0.801,1.823-0.801
				c0.734,0,1.332,0.256,1.823,0.782c0.508,0.543,0.756,1.198,0.756,2.006c0,0.867-0.235,1.548-0.699,2.021
				c-0.445,0.458-1.077,0.689-1.879,0.689C88.216,134.162,87.605,133.935,87.137,133.469z M86.911,137.723
				c0-0.661,0.19-1.192,0.567-1.58c0.389-0.404,0.894-0.602,1.541-0.602c0.663,0,1.171,0.196,1.554,0.6
				c0.369,0.387,0.557,0.919,0.557,1.582c0,0.723-0.188,1.277-0.574,1.696c-0.394,0.402-0.896,0.601-1.535,0.601
				c-0.619,0-1.13-0.203-1.518-0.604C87.104,139,86.911,138.445,86.911,137.723z"/>
		</g>
		<path fill="#FF0800" d="M34.876,69.776c-2.995-3.581-4.029-8.125-4.197-8.93c-0.166,0.804-1.203,5.349-4.195,8.93
			c-2.997,3.584-5.891,5.035-6.394,5.267c0.503,0.234,3.397,1.685,6.394,5.27c2.992,3.586,4.029,8.128,4.195,8.927
			c0.168-0.799,1.202-5.341,4.197-8.927c2.992-3.585,5.889-5.035,6.391-5.27C40.765,74.81,37.869,73.361,34.876,69.776z"/>
		<path fill="#FF0800" d="M71.614,69.776c-2.995-3.581-4.03-8.125-4.194-8.93c-0.166,0.804-1.203,5.349-4.197,8.93
			c-2.995,3.584-5.89,5.035-6.394,5.267c0.504,0.234,3.397,1.685,6.394,5.27c2.994,3.586,4.031,8.128,4.197,8.927
			c0.164-0.799,1.199-5.341,4.194-8.927c2.993-3.585,5.891-5.035,6.394-5.27C77.503,74.81,74.607,73.361,71.614,69.776z"/>
		<path fill="#FF0800" d="M34.876,24.261c-2.995-3.581-4.029-8.126-4.197-8.93c-0.166,0.804-1.203,5.349-4.195,8.93
			c-2.997,3.584-5.891,5.034-6.394,5.265c0.503,0.235,3.397,1.686,6.394,5.27c2.992,3.587,4.029,8.129,4.195,8.928
			c0.168-0.798,1.202-5.341,4.197-8.928c2.992-3.583,5.889-5.034,6.391-5.27C40.765,29.296,37.869,27.846,34.876,24.261z"/>
		<path fill="#FF0800" d="M26.481,131.272c2.996,3.579,4.032,8.128,4.197,8.929c0.168-0.801,1.203-5.349,4.196-8.929
			c2.998-3.584,5.892-5.035,6.393-5.267c-0.501-0.234-3.396-1.685-6.393-5.269c-2.993-3.587-4.027-8.128-4.196-8.928
			c-0.166,0.8-1.202,5.341-4.197,8.928c-2.992,3.584-5.887,5.033-6.391,5.269C20.595,126.237,23.49,127.688,26.481,131.272z"/>
		<path fill="#FF0800" d="M71.614,24.261c-2.995-3.581-4.03-8.126-4.194-8.93c-0.166,0.804-1.203,5.349-4.197,8.93
			c-2.995,3.584-5.89,5.034-6.394,5.265c0.504,0.235,3.397,1.686,6.394,5.27c2.994,3.587,4.031,8.129,4.197,8.928
			c0.164-0.798,1.199-5.341,4.194-8.928c2.993-3.583,5.891-5.034,6.394-5.27C77.503,29.296,74.607,27.846,71.614,24.261z"/>
		<path fill="#FF0800" d="M63.221,131.272c2.996,3.579,4.031,8.128,4.197,8.929c0.164-0.801,1.202-5.349,4.194-8.929
			c2.996-3.584,5.891-5.035,6.394-5.267c-0.503-0.234-3.396-1.685-6.394-5.269c-2.991-3.587-4.03-8.128-4.194-8.928
			c-0.166,0.8-1.201,5.341-4.197,8.928c-2.991,3.584-5.89,5.033-6.394,5.269C57.332,126.237,60.23,127.688,63.221,131.272z"/>
		<path fill="#FF0800" d="M53.24,45.552c-2.996-3.581-4.031-8.125-4.197-8.929c-0.166,0.804-1.201,5.348-4.196,8.929
			c-2.996,3.584-5.891,5.034-6.394,5.265c0.503,0.237,3.398,1.686,6.394,5.27c2.995,3.587,4.03,8.129,4.196,8.928
			c0.167-0.799,1.201-5.341,4.197-8.928c2.992-3.584,5.89-5.033,6.394-5.27C59.128,50.587,56.232,49.136,53.24,45.552z"/>
		<path fill="#FF0800" d="M53.245,104.531c-2.994,3.581-4.032,8.125-4.197,8.93c-0.165-0.804-1.202-5.349-4.194-8.93
			c-2.995-3.583-5.893-5.034-6.394-5.266c0.5-0.235,3.398-1.688,6.394-5.271c2.992-3.585,4.029-8.129,4.194-8.928
			c0.166,0.799,1.203,5.343,4.197,8.928c2.992,3.582,5.89,5.034,6.394,5.271C59.134,99.497,56.238,100.947,53.245,104.531z"/>
	</g>
</g>
</svg>
