<?xml version="1.0" encoding="utf-8"?>
<!-- Generator: Adobe Illustrator 12.0.0, SVG Export Plug-In . SVG Version: 6.00 Build 51448)  -->
<!DOCTYPE svg PUBLIC "-//W3C//DTD SVG 1.1//EN" "http://www.w3.org/Graphics/SVG/1.1/DTD/svg11.dtd" [
	<!ENTITY ns_flows "http://ns.adobe.com/Flows/1.0/">
	<!ENTITY ns_extend "http://ns.adobe.com/Extensibility/1.0/">
	<!ENTITY ns_ai "http://ns.adobe.com/AdobeIllustrator/10.0/">
	<!ENTITY ns_graphs "http://ns.adobe.com/Graphs/1.0/">
	<!ENTITY ns_vars "http://ns.adobe.com/Variables/1.0/">
	<!ENTITY ns_imrep "http://ns.adobe.com/ImageReplacement/1.0/">
	<!ENTITY ns_sfw "http://ns.adobe.com/SaveForWeb/1.0/">
	<!ENTITY ns_custom "http://ns.adobe.com/GenericCustomNamespace/1.0/">
	<!ENTITY ns_adobe_xpath "http://ns.adobe.com/XPath/1.0/">
	<!ENTITY ns_svg "http://www.w3.org/2000/svg">
	<!ENTITY ns_xlink "http://www.w3.org/1999/xlink">
]>
<svg  version="1.1"
	 xmlns:x="&ns_extend;" xmlns:i="&ns_ai;" xmlns:graph="&ns_graphs;" i:viewOrigin="89.8618 287.6411" i:rulerOrigin="-89 -137.1973" i:pageBounds="89 287.1973 189 137.1973"
	 xmlns="&ns_svg;" xmlns:xlink="&ns_xlink;" xmlns:a="http://ns.adobe.com/AdobeSVGViewerExtensions/3.0/"
	 width="98.097" height="150.086" viewBox="0 0 98.097 150.086" overflow="visible" enable-background="new 0 0 98.097 150.086"
	 xml:space="preserve">
<metadata>
	<variableSets  xmlns="http://ns.adobe.com/Variables/1.0/">
		<variableSet  locked="none" varSetName="binding1">
			<variables></variables>
			<v:sampleDataSets  xmlns:v="http://ns.adobe.com/Variables/1.0/" xmlns="http://ns.adobe.com/GenericCustomNamespace/1.0/">
				</v:sampleDataSets>
		</variableSet>
	</variableSets>
</metadata>
<g id="图层_1" i:knockout="Off" i:layer="yes" i:dimmedPercent="50" i:rgbTrio="#4F008000FFFF">
	<g i:knockout="Off">
		<path fill="#F7F7F7" stroke="#060506" stroke-width="0.0882" d="M98.052,143.264c0,3.742-3.015,6.778-6.725,6.778H6.769
			c-3.714,0-6.725-3.034-6.725-6.778V6.824c0-3.744,3.01-6.78,6.725-6.78h84.56c3.71,0,6.725,3.036,6.725,6.78L98.052,143.264
			L98.052,143.264z"/>
		<path fill="#FF0800" d="M10.882,30.848c-1.278-1.42-1.72-3.226-1.79-3.545C9.02,27.622,8.578,29.427,7.3,30.848
			c-1.278,1.425-2.514,2.003-2.73,2.095c0.216,0.094,1.453,0.67,2.73,2.094c1.277,1.424,1.719,3.228,1.792,3.547
			c0.07-0.319,0.511-2.123,1.79-3.547c1.278-1.423,2.513-2,2.729-2.094C13.394,32.852,12.159,32.273,10.882,30.848z"/>
		<path fill="#FF0800" d="M87.213,118.587c1.278,1.423,1.722,3.23,1.793,3.549c0.07-0.317,0.512-2.125,1.791-3.549
			c1.276-1.423,2.515-1.999,2.728-2.092c-0.214-0.094-1.45-0.67-2.728-2.093c-1.279-1.425-1.721-3.23-1.791-3.549
			c-0.071,0.316-0.515,2.124-1.793,3.549c-1.275,1.423-2.514,1.999-2.727,2.093C84.702,116.588,85.938,117.165,87.213,118.587z"/>
		<g i:knockout="Off">
			<path fill="#FF0800" d="M5.069,13.908c0,1.236,0.261,5.267,3.624,5.267c1.336,0,2.335-0.697,2.865-1.409
				c-0.169,2.547-1.174,3.95-2.891,3.95c-0.567,0-1.031-0.189-1.416-0.578c-0.25-0.255-0.443-0.591-0.573-0.999L6.62,19.958
				l-1.395,0.558l0.054,0.158c0.19,0.56,0.492,1.044,0.897,1.44c0.653,0.652,1.464,0.984,2.409,0.984
				c2.065,0,4.528-1.209,4.528-6.968c0-4.545-0.682-7.177-4.167-7.177C5.447,8.954,5.069,12.419,5.069,13.908z M6.482,13.923
				c0-1.642,0.632-3.56,2.413-3.56c1.761,0,2.616,1.262,2.616,3.859c0,2.542-1.627,3.49-2.653,3.49
				C6.791,17.712,6.482,15.338,6.482,13.923z"/>
		</g>
		<g i:knockout="Off">
			<path fill="#FF0800" d="M84.982,134.221c0,4.546,0.684,7.177,4.167,7.177c3.502,0,3.88-3.465,3.88-4.955
				c0-1.235-0.262-5.267-3.624-5.267c-1.337,0-2.336,0.695-2.864,1.407c0.169-2.548,1.174-3.95,2.892-3.95
				c0.566,0,1.029,0.188,1.414,0.578c0.254,0.26,0.447,0.596,0.574,0.996l0.057,0.183l1.396-0.557l-0.056-0.158
				c-0.19-0.56-0.492-1.043-0.896-1.44c-0.651-0.651-1.462-0.982-2.409-0.982C87.445,127.252,84.982,128.461,84.982,134.221z
				 M86.585,136.125c0-2.541,1.629-3.487,2.654-3.487c2.065,0,2.374,2.374,2.374,3.788c0,1.642-0.632,3.56-2.411,3.56
				C87.442,139.986,86.585,138.723,86.585,136.125z"/>
		</g>
		<path fill="#FF0800" d="M34.875,85.813c-2.996-3.581-4.032-8.124-4.197-8.929c-0.165,0.804-1.201,5.348-4.195,8.929
			c-2.995,3.585-5.893,5.035-6.393,5.266c0.5,0.236,3.398,1.688,6.393,5.271c2.994,3.586,4.03,8.129,4.195,8.928
			c0.166-0.799,1.202-5.342,4.197-8.928c2.995-3.583,5.89-5.033,6.394-5.271C40.765,90.848,37.87,89.398,34.875,85.813z"/>
		<path fill="#FF0800" d="M71.615,85.813c-2.995-3.581-4.031-8.124-4.195-8.929c-0.166,0.804-1.202,5.348-4.196,8.929
			c-2.996,3.585-5.893,5.035-6.395,5.266c0.502,0.236,3.397,1.688,6.395,5.271c2.993,3.586,4.03,8.129,4.196,8.928
			c0.164-0.799,1.2-5.342,4.195-8.928c2.992-3.583,5.888-5.033,6.392-5.271C77.501,90.848,74.607,89.398,71.615,85.813z"/>
		<path fill="#FF0800" d="M34.875,53.744c-2.996-3.583-4.032-8.126-4.197-8.93c-0.165,0.804-1.201,5.348-4.195,8.93
			c-2.995,3.583-5.893,5.034-6.393,5.265c0.5,0.235,3.398,1.686,6.393,5.27c2.994,3.586,4.03,8.128,4.195,8.927
			c0.166-0.799,1.202-5.341,4.197-8.927c2.995-3.583,5.89-5.034,6.394-5.27C40.765,58.778,37.87,57.328,34.875,53.744z"/>
		<path fill="#FF0800" d="M71.615,53.744c-2.995-3.583-4.031-8.126-4.195-8.93c-0.166,0.804-1.202,5.348-4.196,8.93
			c-2.996,3.583-5.893,5.034-6.395,5.265c0.502,0.235,3.397,1.686,6.395,5.27c2.993,3.586,4.03,8.128,4.196,8.927
			c0.164-0.799,1.2-5.341,4.195-8.927c2.992-3.583,5.888-5.034,6.392-5.27C77.501,58.778,74.607,57.328,71.615,53.744z"/>
		<path fill="#FF0800" d="M34.875,24.261c-2.996-3.581-4.032-8.125-4.197-8.93c-0.165,0.805-1.201,5.349-4.195,8.93
			c-2.995,3.584-5.893,5.035-6.393,5.266c0.5,0.236,3.398,1.686,6.393,5.27c2.994,3.585,4.03,8.128,4.195,8.927
			c0.166-0.798,1.202-5.341,4.197-8.927c2.995-3.584,5.89-5.034,6.394-5.27C40.765,29.296,37.87,27.846,34.875,24.261z"/>
		<path fill="#FF0800" d="M26.483,131.272c2.996,3.579,4.03,8.128,4.195,8.93c0.166-0.802,1.202-5.352,4.196-8.93
			c2.999-3.583,5.893-5.034,6.395-5.267c-0.501-0.234-3.396-1.686-6.395-5.269c-2.994-3.589-4.03-8.127-4.196-8.928
			c-0.165,0.801-1.199,5.339-4.195,8.928c-2.995,3.583-5.89,5.033-6.393,5.269C20.593,126.238,23.488,127.689,26.483,131.272z"/>
		<path fill="#FF0800" d="M71.615,24.261c-2.995-3.581-4.031-8.125-4.195-8.93c-0.166,0.805-1.202,5.349-4.196,8.93
			c-2.996,3.584-5.893,5.035-6.395,5.266c0.502,0.236,3.397,1.686,6.395,5.27c2.993,3.585,4.03,8.128,4.196,8.927
			c0.164-0.798,1.2-5.341,4.195-8.927c2.992-3.584,5.888-5.034,6.392-5.27C77.501,29.296,74.607,27.846,71.615,24.261z"/>
		<path fill="#FF0800" d="M63.221,131.272c2.996,3.579,4.031,8.128,4.197,8.93c0.164-0.802,1.2-5.352,4.193-8.93
			c2.997-3.583,5.892-5.034,6.394-5.267c-0.502-0.234-3.396-1.686-6.394-5.269c-2.993-3.589-4.029-8.127-4.193-8.928
			c-0.166,0.801-1.201,5.339-4.197,8.928c-2.993,3.583-5.891,5.033-6.394,5.269C57.331,126.238,60.228,127.689,63.221,131.272z"/>
		<path fill="#FF0800" d="M53.246,69.779c-2.997-3.583-4.031-8.125-4.197-8.93c-0.166,0.805-1.203,5.348-4.196,8.93
			c-2.997,3.583-5.891,5.034-6.393,5.265c0.501,0.235,3.396,1.685,6.393,5.269c2.992,3.587,4.03,8.13,4.196,8.928
			c0.166-0.798,1.2-5.341,4.197-8.928c2.992-3.584,5.888-5.033,6.393-5.269C59.133,74.813,56.239,73.363,53.246,69.779z"/>
	</g>
</g>
</svg>
