<?xml version="1.0" encoding="utf-8"?>
<!-- Generator: Adobe Illustrator 12.0.0, SVG Export Plug-In . SVG Version: 6.00 Build 51448)  -->
<!DOCTYPE svg PUBLIC "-//W3C//DTD SVG 1.1//EN" "http://www.w3.org/Graphics/SVG/1.1/DTD/svg11.dtd" [
	<!ENTITY ns_flows "http://ns.adobe.com/Flows/1.0/">
	<!ENTITY ns_extend "http://ns.adobe.com/Extensibility/1.0/">
	<!ENTITY ns_ai "http://ns.adobe.com/AdobeIllustrator/10.0/">
	<!ENTITY ns_graphs "http://ns.adobe.com/Graphs/1.0/">
	<!ENTITY ns_vars "http://ns.adobe.com/Variables/1.0/">
	<!ENTITY ns_imrep "http://ns.adobe.com/ImageReplacement/1.0/">
	<!ENTITY ns_sfw "http://ns.adobe.com/SaveForWeb/1.0/">
	<!ENTITY ns_custom "http://ns.adobe.com/GenericCustomNamespace/1.0/">
	<!ENTITY ns_adobe_xpath "http://ns.adobe.com/XPath/1.0/">
	<!ENTITY ns_svg "http://www.w3.org/2000/svg">
	<!ENTITY ns_xlink "http://www.w3.org/1999/xlink">
]>
<svg  version="1.1"
	 xmlns:x="&ns_extend;" xmlns:i="&ns_ai;" xmlns:graph="&ns_graphs;" i:viewOrigin="89.8623 287.6411" i:rulerOrigin="-89 -137.1973" i:pageBounds="89 287.1973 189 137.1973"
	 xmlns="&ns_svg;" xmlns:xlink="&ns_xlink;" xmlns:a="http://ns.adobe.com/AdobeSVGViewerExtensions/3.0/"
	 width="98.098" height="150.086" viewBox="0 0 98.098 150.086" overflow="visible" enable-background="new 0 0 98.098 150.086"
	 xml:space="preserve">
<metadata>
	<variableSets  xmlns="http://ns.adobe.com/Variables/1.0/">
		<variableSet  locked="none" varSetName="binding1">
			<variables></variables>
			<v:sampleDataSets  xmlns:v="http://ns.adobe.com/Variables/1.0/" xmlns="http://ns.adobe.com/GenericCustomNamespace/1.0/">
				</v:sampleDataSets>
		</variableSet>
	</variableSets>
</metadata>
<g id="图层_1" i:knockout="Off" i:layer="yes" i:dimmedPercent="50" i:rgbTrio="#4F008000FFFF">
	<g i:knockout="Off">
		<path fill="#F7F7F7" stroke="#060506" stroke-width="0.0882" d="M98.054,143.264c0,3.742-3.016,6.778-6.727,6.778H6.77
			c-3.715,0-6.726-3.034-6.726-6.778V6.824c0-3.744,3.01-6.78,6.726-6.78h84.559c3.711,0,6.726,3.036,6.726,6.78V143.264
			L98.054,143.264z"/>
		<path fill="#FF0800" d="M10.882,30.849c-1.277-1.421-1.719-3.229-1.79-3.548c-0.071,0.318-0.512,2.126-1.791,3.548
			c-1.277,1.424-2.514,2.001-2.729,2.092c0.215,0.094,1.452,0.669,2.729,2.094c1.279,1.424,1.72,3.229,1.791,3.548
			c0.07-0.319,0.513-2.124,1.79-3.548c1.278-1.425,2.515-2,2.729-2.094C13.396,32.85,12.159,32.273,10.882,30.849z"/>
		<path fill="#FF0800" d="M87.215,118.587c1.278,1.423,1.72,3.229,1.79,3.548c0.07-0.319,0.513-2.125,1.792-3.548
			c1.279-1.424,2.514-2.003,2.729-2.094c-0.215-0.095-1.448-0.67-2.729-2.094c-1.279-1.425-1.721-3.229-1.792-3.546
			c-0.07,0.316-0.512,2.121-1.79,3.546c-1.277,1.424-2.516,1.999-2.729,2.094C84.701,116.585,85.938,117.164,87.215,118.587z"/>
		<g i:knockout="Off">
			<rect x="4.558" y="8.954" fill="#FF0800" width="1.586" height="13.722"/>
		</g>
		<g i:knockout="Off">
			<rect x="91.954" y="127.678" fill="#FF0800" width="1.586" height="13.72"/>
		</g>
		<g i:knockout="Off">
			<path fill="#FF0800" d="M7.553,12.853v6.683c0,2.587,1.141,3.899,3.391,3.899c2.249,0,3.388-1.312,3.388-3.899v-6.683
				c0-2.587-1.14-3.899-3.388-3.899C8.694,8.954,7.553,10.266,7.553,12.853z M9.137,19.542v-6.695c0-1.626,0.591-2.417,1.806-2.417
				c1.214,0,1.804,0.791,1.804,2.417v6.695c0,1.626-0.59,2.417-1.804,2.417C9.728,21.959,9.137,21.169,9.137,19.542z"/>
		</g>
		<g i:knockout="Off">
			<path fill="#FF0800" d="M83.766,130.816v6.681c0,2.589,1.141,3.901,3.391,3.901c2.249,0,3.391-1.312,3.391-3.901v-6.681
				c0-2.589-1.142-3.901-3.391-3.901C84.906,126.915,83.766,128.227,83.766,130.816z M85.353,137.504v-6.694
				c0-1.626,0.59-2.417,1.804-2.417c1.216,0,1.807,0.79,1.807,2.417v6.694c0,1.626-0.591,2.417-1.807,2.417
				C85.942,139.921,85.353,139.13,85.353,137.504z"/>
		</g>
		<path fill="#FF0800" d="M34.878,85.811c-2.995-3.581-4.032-8.126-4.197-8.931c-0.167,0.805-1.203,5.35-4.194,8.931
			c-2.999,3.585-5.893,5.034-6.395,5.266c0.502,0.235,3.396,1.687,6.395,5.271c2.992,3.586,4.028,8.13,4.194,8.928
			c0.166-0.798,1.202-5.342,4.197-8.928c2.992-3.583,5.889-5.034,6.391-5.271C40.767,90.846,37.87,89.396,34.878,85.811z"/>
		<path fill="#FF0800" d="M71.615,85.811c-2.995-3.581-4.03-8.126-4.196-8.931c-0.166,0.805-1.199,5.35-4.195,8.931
			c-2.997,3.585-5.891,5.034-6.394,5.266c0.503,0.235,3.396,1.687,6.394,5.271c2.995,3.586,4.029,8.13,4.195,8.928
			c0.166-0.798,1.201-5.342,4.196-8.928c2.991-3.583,5.889-5.034,6.394-5.271C77.503,90.846,74.606,89.396,71.615,85.811z"/>
		<path fill="#FF0800" d="M34.878,53.741c-2.995-3.582-4.032-8.127-4.197-8.931c-0.167,0.804-1.203,5.349-4.194,8.931
			c-2.999,3.584-5.893,5.035-6.395,5.266c0.502,0.235,3.396,1.685,6.395,5.27c2.992,3.585,4.028,8.127,4.194,8.927
			c0.166-0.8,1.202-5.341,4.197-8.927c2.992-3.584,5.889-5.034,6.391-5.27C40.767,58.776,37.87,57.325,34.878,53.741z"/>
		<path fill="#FF0800" d="M71.615,53.741c-2.995-3.582-4.03-8.127-4.196-8.931c-0.166,0.804-1.199,5.349-4.195,8.931
			c-2.997,3.584-5.891,5.035-6.394,5.266c0.503,0.235,3.396,1.685,6.394,5.27c2.995,3.585,4.029,8.127,4.195,8.927
			c0.166-0.8,1.201-5.341,4.196-8.927c2.991-3.584,5.889-5.034,6.394-5.27C77.503,58.776,74.606,57.325,71.615,53.741z"/>
		<path fill="#FF0800" d="M34.878,24.261c-2.995-3.581-4.032-8.126-4.197-8.93c-0.167,0.804-1.203,5.349-4.194,8.93
			c-2.999,3.584-5.893,5.034-6.395,5.265c0.502,0.235,3.396,1.686,6.395,5.27c2.992,3.587,4.028,8.129,4.194,8.928
			c0.166-0.798,1.202-5.341,4.197-8.928c2.992-3.583,5.889-5.034,6.391-5.27C40.767,29.296,37.87,27.846,34.878,24.261z"/>
		<path fill="#FF0800" d="M26.483,131.272c2.995,3.579,4.031,8.128,4.197,8.929c0.166-0.801,1.202-5.349,4.195-8.929
			c2.998-3.584,5.893-5.035,6.393-5.267c-0.5-0.234-3.395-1.685-6.393-5.269c-2.993-3.587-4.03-8.128-4.195-8.928
			c-0.166,0.8-1.202,5.341-4.197,8.928c-2.993,3.584-5.889,5.033-6.391,5.269C20.594,126.237,23.49,127.688,26.483,131.272z"/>
		<path fill="#FF0800" d="M71.615,24.261c-2.995-3.581-4.03-8.126-4.196-8.93c-0.166,0.804-1.199,5.349-4.195,8.93
			c-2.997,3.584-5.891,5.034-6.394,5.265c0.503,0.235,3.396,1.686,6.394,5.27c2.995,3.587,4.029,8.129,4.195,8.928
			c0.166-0.798,1.201-5.341,4.196-8.928c2.991-3.583,5.889-5.034,6.394-5.27C77.503,29.296,74.606,27.846,71.615,24.261z"/>
		<path fill="#FF0800" d="M63.223,131.272c2.995,3.579,4.029,8.128,4.195,8.929c0.166-0.801,1.201-5.349,4.195-8.929
			c2.996-3.584,5.891-5.035,6.395-5.267c-0.504-0.234-3.397-1.685-6.395-5.269c-2.993-3.587-4.029-8.128-4.195-8.928
			c-0.166,0.8-1.199,5.341-4.195,8.928c-2.992,3.584-5.891,5.033-6.394,5.269C57.332,126.237,60.229,127.688,63.223,131.272z"/>
		<path fill="#FF0800" d="M53.245,37.852c-2.994-3.582-4.031-8.125-4.197-8.929c-0.166,0.804-1.202,5.347-4.196,8.929
			c-2.997,3.583-5.891,5.034-6.393,5.265c0.501,0.236,3.396,1.686,6.393,5.27c2.994,3.586,4.03,8.129,4.196,8.928
			c0.166-0.799,1.203-5.342,4.197-8.928c2.994-3.584,5.891-5.034,6.393-5.27C59.136,42.885,56.24,41.435,53.245,37.852z"/>
		<path fill="#FF0800" d="M53.245,101.696c-2.994-3.579-4.031-8.126-4.197-8.93c-0.166,0.804-1.202,5.35-4.196,8.93
			c-2.997,3.585-5.891,5.034-6.393,5.267c0.501,0.235,3.396,1.686,6.393,5.271c2.994,3.586,4.03,8.128,4.196,8.927
			c0.166-0.799,1.203-5.341,4.197-8.927c2.994-3.585,5.891-5.034,6.393-5.271C59.136,106.73,56.24,105.281,53.245,101.696z"/>
	</g>
</g>
</svg>
