<?xml version="1.0" encoding="UTF-8" standalone="no"?>
<!-- Generator: Adobe Illustrator 12.0.0, SVG Export Plug-In . SVG Version: 6.00 Build 51448)  -->
<svg
   xmlns:dc="http://purl.org/dc/elements/1.1/"
   xmlns:cc="http://web.resource.org/cc/"
   xmlns:rdf="http://www.w3.org/1999/02/22-rdf-syntax-ns#"
   xmlns:svg="http://www.w3.org/2000/svg"
   xmlns="http://www.w3.org/2000/svg"
   xmlns:xlink="http://www.w3.org/1999/xlink"
   xmlns:sodipodi="http://sodipodi.sourceforge.net/DTD/sodipodi-0.dtd"
   xmlns:inkscape="http://www.inkscape.org/namespaces/inkscape"
   version="1.1"
   id="图层_1"
   width="98.098"
   height="150.085"
   viewBox="0 0 98.098 150.085"
   overflow="visible"
   enable-background="new 0 0 98.098 150.085"
   xml:space="preserve"
   sodipodi:version="0.32"
   inkscape:version="0.45.1"
   sodipodi:docname="24.svg"
   sodipodi:docbase="/home/zhangxin/桌面/简化版扑克"
   inkscape:output_extension="org.inkscape.output.svg.inkscape"><metadata
   id="metadata726"><rdf:RDF><cc:Work
       rdf:about=""><dc:format>image/svg+xml</dc:format><dc:type
         rdf:resource="http://purl.org/dc/dcmitype/StillImage" /></cc:Work></rdf:RDF></metadata><defs
   id="defs724"><radialGradient
     inkscape:collect="always"
     xlink:href="#XMLID_76_"
     id="radialGradient3229"
     gradientUnits="userSpaceOnUse"
     gradientTransform="matrix(-1.0687,0.1455,-0.1368,-1.1709,2065.6074,26.3576)"
     cx="1853.2427"
     cy="212.4478"
     r="12.0935" /><radialGradient
     inkscape:collect="always"
     xlink:href="#XMLID_75_"
     id="radialGradient3235"
     gradientUnits="userSpaceOnUse"
     gradientTransform="matrix(-1.2514,0.1455,-0.1361,-0.9945,2407.2854,14.7578)"
     cx="1859.3267"
     cy="241.5728"
     r="14.6777" /><radialGradient
     inkscape:collect="always"
     xlink:href="#XMLID_75_"
     id="radialGradient5916"
     gradientUnits="userSpaceOnUse"
     gradientTransform="matrix(-1.2514,0.1455,-0.1361,-0.9945,2407.2854,14.7578)"
     cx="1859.3267"
     cy="241.5728"
     r="14.6777" /><radialGradient
     inkscape:collect="always"
     xlink:href="#XMLID_76_"
     id="radialGradient5918"
     gradientUnits="userSpaceOnUse"
     gradientTransform="matrix(-1.0687,0.1455,-0.1368,-1.1709,2065.6074,26.3576)"
     cx="1853.2427"
     cy="212.4478"
     r="12.0935" /><radialGradient
     inkscape:collect="always"
     xlink:href="#XMLID_75_"
     id="radialGradient6166"
     gradientUnits="userSpaceOnUse"
     gradientTransform="matrix(-1.2514,0.1455,-0.1361,-0.9945,2407.2854,14.7578)"
     cx="1859.3267"
     cy="241.5728"
     r="14.6777" /><radialGradient
     inkscape:collect="always"
     xlink:href="#XMLID_76_"
     id="radialGradient6168"
     gradientUnits="userSpaceOnUse"
     gradientTransform="matrix(-1.0687,0.1455,-0.1368,-1.1709,2065.6074,26.3576)"
     cx="1853.2427"
     cy="212.4478"
     r="12.0935" /></defs><sodipodi:namedview
   inkscape:window-height="713"
   inkscape:window-width="1024"
   inkscape:pageshadow="2"
   inkscape:pageopacity="0.0"
   guidetolerance="10.0"
   gridtolerance="10.0"
   objecttolerance="10.0"
   borderopacity="1.0"
   bordercolor="#666666"
   pagecolor="#ffffff"
   id="base"
   inkscape:zoom="3.2714793"
   inkscape:cx="49.048999"
   inkscape:cy="80.327573"
   inkscape:window-x="0"
   inkscape:window-y="0"
   inkscape:current-layer="图层_1" />
<path
   fill="#F7F7F7"
   stroke="#060506"
   stroke-width="0.0882"
   d="M98.053,143.264c0,3.741-3.016,6.775-6.728,6.775H6.77  c-3.715,0-6.726-3.031-6.726-6.775V6.824c0-3.744,3.01-6.78,6.726-6.78h84.556c3.714,0,6.729,3.036,6.729,6.78L98.053,143.264  L98.053,143.264z"
   id="path3" /><g
   id="use5666"
   inkscape:tile-w="73.650827"
   inkscape:tile-h="78.153659"
   inkscape:tile-cx="49.023482"
   inkscape:tile-cy="56.14274"><path
     style="fill:#212462"
     d="M 46.621,74.939 C 46.621,74.939 44.814,51.585 30.811,50.664 C 16.806,49.743 12.29,71.252 12.29,71.252 L 12.29,75.399 L 27.714,75.192 C 21.886,76.304 12.416,78.225 12.825,78.898 C 15.292,82.942 29.367,96.928 36.351,94.256 C 36.64,94.147 38.837,80.507 39.708,75.031 L 46.621,74.939 z "
     id="path5672" /><g
     id="g5674">
	<polygon
   style="fill:#060506"
   points="46.305,59.147 60.6,55.742 57.38,68.133 56.126,72.312 46.305,59.147 "
   id="polygon5676" />
</g><g
     id="g5678">
	<path
   style="fill:#060506"
   d="M 12.261,78.556 C 12.164,78.775 12.18,79.026 12.303,79.229 C 14.852,83.407 29.107,97.699 36.568,94.846 C 37.003,94.681 37.265,94.576 40.672,72.886 L 40.812,71.997 L 39.945,72.17 L 32.022,73.753 C 12.865,77.177 12.409,78.215 12.261,78.556 z M 13.288,79.208 C 14.165,78.516 23.709,76.519 32.26,74.987 L 40.183,73.404 L 39.456,72.688 C 38.238,80.441 36.173,93.069 35.819,93.958 C 35.848,93.894 35.948,93.741 36.136,93.672 C 29.521,96.197 15.627,82.304 13.347,78.568 C 13.508,78.828 13.394,79.125 13.288,79.208 z "
   id="path5680" />
</g><g
     id="g5682">
	<polygon
   style="fill:#ffffff"
   points="27.566,82.078 30.831,85.801 26.316,85.9 28.777,89.785 24.497,89.94 23.436,89.98 25.932,84.233 27.66,77.764 31.889,80.705 27.566,82.078 "
   id="polygon5684" />
</g><g
     id="g5686">
	<path
   style="fill:#212462"
   d="M 65.906,75.716 L 57.981,77.299 C 57.981,77.299 61.335,55.966 61.694,55.829 C 68.678,53.16 82.755,67.146 85.22,71.19 C 85.811,72.157 65.906,75.716 65.906,75.716 z "
   id="path5688" />
</g><g
     id="g5690">
	<path
   style="fill:#060506"
   d="M 85.786,71.53 C 85.885,71.311 85.865,71.06 85.741,70.857 C 83.192,66.678 68.937,52.388 61.476,55.239 C 61.039,55.406 60.779,55.505 57.372,77.2 L 57.23,78.09 L 58.097,77.913 L 66.02,76.33 C 85.181,72.908 85.637,71.87 85.786,71.53 z M 84.758,70.878 C 83.88,71.574 74.336,73.57 65.787,75.1 L 57.861,76.683 L 58.59,77.399 C 59.809,69.646 61.87,57.017 62.226,56.129 C 62.199,56.197 62.099,56.345 61.91,56.417 C 68.525,53.89 82.424,67.787 84.699,71.521 C 84.538,71.258 84.652,70.961 84.758,70.878 z "
   id="path5692" />
</g><g
     id="g5694">
	<path
   style="fill:#ffffff"
   d="M 65.783,54.639 L 60.788,54.57 C 60.788,54.57 56.61,60.016 56.064,75.1 L 61.06,74.961 C 61.06,74.961 61.196,66.51 65.783,54.639 z "
   id="path5696" />
</g><g
     id="g5698">
	<path
   style="fill:#ff8600"
   d="M 60.997,65.212 L 57.899,66.676 C 57.789,66.728 57.711,66.841 57.706,66.968 C 57.697,67.093 57.76,67.215 57.861,67.282 L 60.75,69.137 C 60.852,69.202 60.979,69.207 61.085,69.151 C 61.189,69.097 61.263,68.987 61.273,68.866 L 61.335,67.836 C 61.258,67.834 61.095,67.832 60.992,67.826 C 60.039,67.764 59.279,67.426 59.304,67.07 C 59.325,66.716 60.116,66.478 61.075,66.541 C 61.174,66.547 61.319,66.565 61.415,66.577 L 61.478,65.546 C 61.484,65.424 61.428,65.308 61.332,65.238 C 61.23,65.171 61.102,65.16 60.997,65.212 z "
   id="path5700" />
</g><g
     id="g5702">
	<path
   style="fill:#eb0500"
   d="M 60.876,58.657 L 62.73,61.577 C 62.797,61.684 62.803,61.819 62.746,61.931 C 62.686,62.041 62.569,62.112 62.446,62.112 L 59.037,62.114 C 58.92,62.114 58.808,62.049 58.746,61.943 C 58.684,61.839 58.684,61.709 58.737,61.602 L 59.218,60.695 C 59.283,60.737 59.424,60.824 59.511,60.872 C 60.354,61.339 61.17,61.463 61.336,61.15 C 61.503,60.838 60.953,60.207 60.108,59.74 C 60.024,59.694 59.888,59.628 59.802,59.587 L 60.285,58.679 C 60.344,58.572 60.449,58.504 60.567,58.498 C 60.698,58.495 60.811,58.555 60.876,58.657 z "
   id="path5704" />
</g><g
     id="g5706">
	<path
   style="fill:#ffffff"
   d="M 61.168,73.616 L 60.882,73.304 L 60.555,73.571 C 60.766,72.006 62.661,58.363 65.29,55.591 L 65.731,56.027 C 63.71,58.163 61.909,68.101 61.168,73.636 L 61.131,73.928 C 61.124,73.95 60.841,73.93 60.841,73.93 L 60.553,73.91 L 60.553,73.616 L 61.168,73.616 L 61.168,73.616 z "
   id="path5708" />
</g><g
     id="g5710">
	<polygon
   style="fill:#ffffff"
   points="70.481,68.008 67.214,64.284 71.729,64.186 69.268,60.301 73.546,60.145 74.611,60.106 72.114,65.853 70.384,72.321 66.157,69.381 70.481,68.008 "
   id="polygon5712" />
</g><g
     id="g5714">
	<path
   style="fill:#ffffff"
   d="M 42.4,54.895 L 26.698,54.895 C 37.108,61.179 41.177,74.972 41.177,74.972 L 56.88,74.972 C 56.879,74.972 52.406,59.505 42.4,54.895 z "
   id="path5716" />
</g><g
     id="g5718">
	<path
   style="fill:#eb0500"
   d="M 46.812,63.196 L 43.138,70.021 C 43.003,70.269 43.014,70.572 43.165,70.812 C 43.314,71.048 43.58,71.186 43.858,71.167 L 51.47,70.602 C 51.738,70.583 51.974,70.421 52.091,70.174 C 52.214,69.933 52.195,69.642 52.052,69.412 L 50.833,67.469 C 50.688,67.574 50.394,67.789 50.21,67.913 C 48.403,69.094 46.599,69.507 46.184,68.838 C 45.763,68.167 46.884,66.671 48.688,65.488 C 48.874,65.369 49.161,65.2 49.344,65.096 L 48.119,63.149 C 47.974,62.92 47.72,62.786 47.452,62.794 C 47.182,62.802 46.938,62.956 46.812,63.196 z "
   id="path5720" />
</g><g
     id="g5722">
	<path
   style="fill:#ff8600"
   d="M 34.064,59.501 L 41.268,58.178 C 41.53,58.13 41.798,58.232 41.966,58.445 C 42.131,58.654 42.172,58.945 42.07,59.196 L 39.241,66.085 C 39.143,66.326 38.925,66.498 38.67,66.533 C 38.418,66.571 38.163,66.466 38.003,66.262 L 36.643,64.536 C 36.78,64.435 37.065,64.224 37.227,64.091 C 38.834,62.78 39.753,61.233 39.285,60.637 C 38.816,60.042 37.139,60.625 35.534,61.938 C 35.373,62.068 35.131,62.287 34.983,62.425 L 33.624,60.696 C 33.464,60.492 33.422,60.216 33.512,59.97 C 33.601,59.726 33.81,59.546 34.064,59.501 z "
   id="path5724" />
</g><g
     id="g5726">
	<polygon
   style="fill:#ffffff"
   points="27.566,67.662 30.831,63.937 26.316,63.839 28.777,59.954 24.497,59.799 23.436,59.758 25.932,65.506 27.66,71.974 31.889,69.034 27.566,67.662 "
   id="polygon5728" />
</g><g
     id="g5730">
	<path
   style="fill:#ff8600"
   d="M 57.78,31.049 C 67.69,42.786 68.396,47.974 67.705,50.157 C 67.339,51.309 66.795,56.007 66.924,55.952 C 69.112,55.058 70.893,53.393 71.014,51.637 C 71.56,43.584 60.621,31.061 60.621,31.061 L 57.78,31.049 z "
   id="path5732" />
</g><g
     id="g5734">
	<path
   style="fill:#060506"
   d="M 58.853,31.542 C 58.712,31.375 58.572,31.207 58.43,31.038 C 58.43,31.134 58.411,31.232 58.368,31.323 C 58.322,31.41 58.259,31.481 58.18,31.539 L 58.853,31.542 z "
   id="path5736" />
</g><g
     id="g5738">
	<path
   style="fill:#060506"
   d="M 66.416,55.961 C 67.545,56.257 68.572,56.07 69.478,55.405 C 70.769,54.456 71.44,52.798 71.518,51.659 C 72.07,43.523 61.465,31.263 61.014,30.745 C 60.92,30.637 60.779,30.575 60.629,30.574 C 60.629,30.574 57.789,30.562 57.793,30.562 C 57.593,30.562 57.403,30.672 57.315,30.844 C 57.228,31.014 57.253,31.217 57.377,31.359 C 67.345,43.167 67.815,48.123 67.208,50.026 C 67.107,50.355 65.924,55.133 66.338,55.891 C 66.363,55.93 66.386,55.953 66.416,55.961 z M 57.765,31.684 L 57.766,31.537 C 57.968,31.537 58.151,31.429 58.241,31.254 C 58.329,31.085 58.304,30.883 58.181,30.739 L 58.181,30.739 L 58.181,30.739 L 58.288,30.642 C 58.288,30.643 58.288,30.643 58.288,30.643 C 58.548,30.947 58.795,31.246 59.039,31.542 L 60.176,31.547 C 60.148,31.514 60.123,31.488 60.114,31.474 L 60.114,31.474 C 60.114,31.473 60.114,31.473 60.114,31.473 L 60.13,31.463 L 60.227,31.378 C 60.32,31.486 60.457,31.548 60.609,31.548 L 60.609,31.548 L 60.609,31.695 L 60.608,31.695 L 60.608,31.695 L 60.497,31.695 C 62.185,33.703 70.981,44.542 70.507,51.615 C 70.395,53.223 69.229,55.111 67.534,55.357 L 67.495,55.216 C 67.483,55.222 67.476,55.23 67.476,55.23 C 67.541,55.133 67.646,54.203 67.738,53.383 C 67.869,52.195 68.019,50.847 68.197,50.287 C 68.985,47.809 67.985,42.577 58.98,31.688 L 57.765,31.684 z "
   id="path5740" />
</g><g
     id="g5742">
	<path
   style="fill:#ff8600"
   d="M 55.268,31.424 C 65.177,43.161 65.883,48.35 65.19,50.533 C 64.822,51.685 64.277,56.383 64.407,56.328 C 66.598,55.433 68.38,53.769 68.499,52.014 C 69.046,43.96 58.106,31.437 58.106,31.437 L 55.268,31.424 z "
   id="path5744" />
</g><g
     id="g5746">
	<path
   style="fill:#060506"
   d="M 56.338,31.917 C 56.196,31.75 56.06,31.583 55.918,31.413 C 55.918,31.511 55.897,31.608 55.855,31.699 C 55.811,31.786 55.746,31.856 55.667,31.914 L 56.338,31.917 z "
   id="path5748" />
</g><g
     id="g5750">
	<path
   style="fill:#060506"
   d="M 63.903,56.336 C 65.031,56.633 66.062,56.445 66.967,55.78 C 68.259,54.83 68.928,53.172 69.006,52.035 C 69.558,43.899 58.952,31.639 58.502,31.12 C 58.402,31.012 58.267,30.951 58.114,30.95 L 55.276,30.937 C 55.079,30.937 54.891,31.047 54.803,31.219 C 54.718,31.39 54.741,31.592 54.861,31.735 C 64.833,43.541 65.3,48.498 64.695,50.401 C 64.595,50.731 63.41,55.508 63.825,56.267 C 63.85,56.305 63.875,56.328 63.903,56.336 z M 65.679,50.665 C 66.466,48.185 65.468,42.953 56.461,32.064 L 55.252,32.059 L 55.252,31.912 C 55.454,31.912 55.638,31.803 55.729,31.629 C 55.814,31.46 55.791,31.257 55.668,31.114 L 55.668,31.114 L 55.668,31.114 L 55.773,31.018 C 55.775,31.018 55.775,31.019 55.775,31.019 C 56.034,31.323 56.279,31.621 56.524,31.917 L 57.661,31.922 C 57.636,31.89 57.608,31.865 57.599,31.85 C 57.598,31.85 57.598,31.85 57.598,31.85 L 57.616,31.834 L 57.711,31.753 C 57.804,31.862 57.94,31.923 58.093,31.924 L 58.093,31.924 L 58.093,32.071 L 58.093,32.071 L 58.093,32.071 L 57.98,32.07 C 59.666,34.077 68.464,44.928 67.987,51.991 C 67.872,53.647 66.43,55.849 64.029,55.674 L 64.008,55.532 C 64,55.535 63.996,55.54 63.996,55.54 C 64.04,55.493 64.298,55.004 65.679,50.665 z "
   id="path5752" />
</g><g
     id="g5754">
	<path
   style="fill:#ff8600"
   d="M 52.766,31.26 C 62.675,42.997 63.381,48.185 62.688,50.368 C 62.321,51.52 61.775,56.218 61.905,56.164 C 64.095,55.269 65.876,53.605 65.997,51.849 C 66.545,43.795 55.603,31.272 55.603,31.272 L 52.766,31.26 z "
   id="path5756" />
</g><g
     id="g5758">
	<path
   style="fill:#060506"
   d="M 53.837,31.753 C 53.694,31.586 53.557,31.418 53.413,31.249 C 53.415,31.346 53.396,31.444 53.351,31.534 C 53.307,31.622 53.239,31.692 53.163,31.75 L 53.837,31.753 z "
   id="path5760" />
</g><g
     id="g5762">
	<path
   style="fill:#060506"
   d="M 61.401,56.172 C 62.529,56.468 63.559,56.281 64.465,55.615 C 65.756,54.665 66.426,53.009 66.504,51.871 C 67.057,43.721 56.449,31.474 56,30.957 C 55.902,30.849 55.767,30.787 55.612,30.786 C 55.612,30.786 52.775,30.773 52.776,30.773 C 52.578,30.773 52.389,30.883 52.302,31.055 C 52.216,31.226 52.239,31.429 52.362,31.571 C 62.331,43.379 62.8,48.334 62.193,50.237 C 62.085,50.612 60.908,55.35 61.323,56.103 C 61.349,56.142 61.374,56.164 61.401,56.172 z M 62.601,53.3 C 62.805,52.174 63.016,51.009 63.177,50.5 C 63.965,48.022 62.966,42.79 53.958,31.9 L 52.748,31.895 L 52.749,31.748 C 52.952,31.748 53.136,31.64 53.227,31.465 C 53.312,31.298 53.289,31.095 53.168,30.95 L 53.272,30.854 C 53.529,31.159 53.777,31.457 54.022,31.753 L 55.16,31.758 C 55.135,31.726 55.107,31.7 55.098,31.685 L 55.098,31.685 L 55.098,31.685 L 55.106,31.679 L 55.21,31.589 C 55.303,31.697 55.439,31.759 55.592,31.76 L 55.593,31.76 L 55.592,31.907 L 55.591,31.907 L 55.591,31.907 L 55.48,31.907 C 57.167,33.913 65.964,44.765 65.487,51.827 C 65.387,53.241 64.274,55.421 62.199,55.614 L 62.17,55.473 C 62.153,55.478 62.149,55.484 62.149,55.485 C 62.225,55.379 62.425,54.275 62.601,53.3 z "
   id="path5764" />
</g><g
     id="g5766">
	<path
   style="fill:#ff8600"
   d="M 50.406,31.237 C 60.315,42.974 61.021,48.162 60.326,50.346 C 59.963,51.498 59.417,56.196 59.549,56.142 C 61.737,55.246 63.517,53.581 63.637,51.827 C 64.18,43.774 53.242,31.25 53.242,31.25 L 50.406,31.237 z "
   id="path5768" />
</g><g
     id="g5770">
	<path
   style="fill:#060506"
   d="M 59.04,56.15 C 60.171,56.446 61.196,56.259 62.102,55.593 C 63.394,54.644 64.066,52.987 64.144,51.848 C 64.694,43.728 54.091,31.453 53.639,30.935 C 53.544,30.827 53.403,30.765 53.253,30.764 L 50.414,30.751 C 50.217,30.75 50.029,30.861 49.943,31.032 C 49.855,31.201 49.879,31.405 49.999,31.548 C 59.966,43.352 60.438,48.309 59.832,50.213 C 59.731,50.543 58.551,55.332 58.963,56.079 C 58.987,56.119 59.012,56.143 59.04,56.15 z M 59.838,44.559 C 58.15,40.738 55.364,36.473 51.588,31.878 L 50.39,31.873 L 50.39,31.726 C 50.594,31.726 50.776,31.618 50.866,31.444 C 50.953,31.276 50.928,31.075 50.807,30.93 L 50.806,30.93 L 50.806,30.93 L 50.806,30.93 L 50.913,30.834 C 51.17,31.136 51.404,31.434 51.651,31.733 L 52.797,31.738 C 52.765,31.698 52.735,31.67 52.735,31.665 L 52.843,31.567 C 52.938,31.675 53.076,31.738 53.229,31.738 L 53.229,31.884 L 53.229,31.884 L 53.229,31.884 L 53.114,31.884 C 53.866,32.778 56.07,35.478 58.218,38.812 C 60.607,42.519 63.396,47.784 63.121,51.806 C 63.011,53.414 61.844,55.302 60.149,55.548 L 60.111,55.408 C 60.289,55.313 62.049,53.187 61.822,51.52 C 61.659,50.278 61.345,47.966 59.838,44.559 z "
   id="path5772" />
</g><g
     id="g5774">
	<path
   style="fill:#060506"
   d="M 51.467,31.73 C 51.326,31.563 51.195,31.398 51.055,31.23 C 51.055,31.325 51.035,31.422 50.993,31.511 C 50.948,31.598 50.885,31.669 50.805,31.727 L 51.467,31.73 z "
   id="path5776" />
</g><g
     id="g5778">
	<ellipse
   style="fill:#ffffff"
   sodipodi:ry="13.924"
   sodipodi:rx="18.419001"
   sodipodi:cy="43.925999"
   sodipodi:cx="47.213001"
   cx="47.213001"
   cy="43.925999"
   rx="18.419001"
   ry="13.924"
   id="ellipse5780" />
</g><g
     id="g5782">
	<path
   style="fill:#ffffff"
   d="M 46.963,31.918 C 47.187,33.05 46.506,34.16 45.44,34.4 C 44.375,34.636 43.331,33.912 43.107,32.779 C 42.885,31.647 43.566,30.536 44.633,30.298 C 45.698,30.06 46.74,30.786 46.963,31.918 z "
   id="path5784" />
</g><g
     id="g5786">
	<path
   style="fill:#d90000"
   d="M 36.287,30.21 C 35.483,30.673 34.607,29.79 34.546,29.708 L 30.216,23.182 C 30.348,23.091 30.485,23.004 30.62,22.915 C 31.74,22.366 33.21,21.614 34.57,21.104 C 35.139,23.238 36.591,28.593 36.594,28.597 C 36.597,28.609 36.858,29.881 36.287,30.21 z "
   id="path5788" />
</g><g
     id="g5790">
	<path
   style="fill:#ffffff"
   d="M 34.895,19.94 C 34.877,19.97 37.147,28.384 37.147,28.384"
   id="path5792" />
</g><g
     id="g5794">
	<path
   style="fill:#ffffff"
   d="M 20.514,61.017 C 19.946,64.702 19.483,67.69 22.996,68.035 C 25.672,68.298 28.284,66.266 28.914,62.927 C 29.544,59.588 27.923,56.419 25.277,55.942 C 21.685,55.295 21.084,57.331 20.514,61.017 z "
   id="path5796" />
</g><g
     id="g5798">
	<path
   style="fill:#060506"
   d="M 22.652,56.836 C 23.194,56.442 24.016,56.353 25.171,56.562 C 26.091,56.728 26.895,57.281 27.488,58.164 C 28.331,59.412 28.63,61.106 28.309,62.809 C 27.769,65.673 25.508,67.652 23.055,67.41 C 22.171,67.324 21.572,67.056 21.219,66.591 C 20.435,65.561 20.753,63.504 21.122,61.12 C 21.122,61.12 21.122,61.12 21.122,61.115 L 21.122,61.115 C 21.423,59.164 21.748,57.495 22.652,56.836 z M 21.937,55.813 C 20.641,56.757 20.263,58.604 19.904,60.924 C 19.493,63.594 19.135,65.9 20.245,67.359 C 20.818,68.114 21.7,68.538 22.938,68.66 C 26.028,68.964 28.858,66.551 29.52,63.045 C 29.903,61.013 29.532,58.973 28.503,57.45 C 27.728,56.302 26.62,55.545 25.386,55.323 C 23.867,55.05 22.771,55.205 21.937,55.813 z "
   id="path5800" />
</g><g
     id="g5802">
	<polygon
   style="fill:#ffffff"
   points="24.68,34.797 24.68,88.243 23.335,89.5 23.335,34.797 24.68,34.797 "
   id="polygon5804" />
</g><g
     id="g5806">
	<polygon
   style="fill:#908881"
   points="21.992,34.797 23.335,34.797 23.335,89.5 21.992,90.758 21.992,34.797 "
   id="polygon5808" />
</g><g
     id="g5810">
	<path
   style="fill:#ffffff"
   d="M 19.347,89.172 C 19.347,91.419 21.134,93.238 23.335,93.238 C 25.537,93.238 27.323,91.419 27.323,89.172 C 27.323,86.929 25.537,85.107 23.335,85.107 C 21.134,85.105 19.347,86.927 19.347,89.172 z "
   id="path5812" />
</g><g
     id="g5814">
	<path
   style="fill:#d90000"
   d="M 20.696,89.172 C 20.696,90.655 21.879,91.863 23.335,91.863 C 24.791,91.863 25.974,90.655 25.974,89.172 C 25.974,87.691 24.791,86.483 23.335,86.483 C 21.879,86.481 20.696,87.689 20.696,89.172 z "
   id="path5816" />
</g><g
     id="g5818">
	<path
   style="fill:#ffffff"
   d="M 19.088,59.713 C 19.176,59.026 19.557,58.494 20.198,58.402 C 19.6,58.145 19.366,57.532 19.452,56.845 C 19.557,56.02 20.298,55.438 21.106,55.545 L 23.604,55.876 C 24.414,55.983 24.985,56.738 24.879,57.564 C 24.793,58.252 24.449,58.788 23.809,58.88 C 24.406,59.136 24.603,59.744 24.516,60.431 C 24.432,61.094 24.12,61.619 23.509,61.736 C 24.071,62.008 24.239,62.597 24.156,63.26 C 24.076,63.877 23.829,64.383 23.278,64.54 C 23.772,64.838 23.884,65.39 23.806,66.007 C 23.702,66.833 22.961,67.415 22.152,67.308 L 19.653,66.977 C 18.844,66.87 18.274,66.113 18.379,65.289 C 18.457,64.671 18.742,64.171 19.294,64.012 C 18.799,63.715 18.649,63.158 18.728,62.54 C 18.812,61.876 19.161,61.357 19.772,61.241 C 19.21,60.969 19.004,60.376 19.088,59.713 z "
   id="path5820" />
</g><g
     id="g5822">
	<path
   style="fill:#060506"
   d="M 19.508,61.809 C 19.265,61.692 19.127,61.431 19.161,61.161 C 19.195,60.89 19.397,60.674 19.658,60.624 C 18.819,60.784 18.242,61.471 18.119,62.459 C 17.998,63.389 18.314,64.153 18.981,64.555 C 18.769,64.427 18.651,64.181 18.683,63.931 C 18.715,63.682 18.889,63.475 19.128,63.408 C 18.381,63.622 17.887,64.278 17.768,65.209 C 17.697,65.773 17.844,66.333 18.186,66.786 C 18.527,67.239 19.02,67.528 19.576,67.6 L 22.071,67.931 C 23.217,68.082 24.269,67.257 24.417,66.088 C 24.573,64.864 24.053,64.276 23.589,63.998 C 23.802,64.125 23.919,64.372 23.887,64.621 C 23.855,64.87 23.682,65.078 23.443,65.144 C 23.962,64.997 24.609,64.563 24.765,63.338 C 24.893,62.326 24.532,61.534 23.774,61.167 C 24.014,61.283 24.153,61.545 24.12,61.814 C 24.086,62.085 23.885,62.301 23.623,62.352 C 24.45,62.194 24.997,61.522 25.125,60.511 C 25.256,59.472 24.854,58.646 24.048,58.298 C 24.302,58.408 24.455,58.679 24.419,58.958 C 24.383,59.238 24.17,59.46 23.895,59.5 C 24.76,59.375 25.358,58.68 25.49,57.642 C 25.563,57.077 25.416,56.517 25.074,56.064 C 24.731,55.612 24.238,55.323 23.685,55.251 L 21.186,54.92 C 20.041,54.768 18.991,55.595 18.841,56.764 C 18.713,57.78 19.141,58.628 19.958,58.979 C 19.702,58.869 19.549,58.6 19.584,58.318 C 19.621,58.038 19.836,57.817 20.111,57.777 C 19.232,57.902 18.607,58.612 18.477,59.63 C 18.351,60.621 18.735,61.435 19.508,61.809 z M 20.382,61.323 C 20.416,61.052 20.277,60.789 20.036,60.674 C 19.686,60.504 19.659,60.103 19.7,59.795 C 19.734,59.534 19.853,59.086 20.283,59.025 C 20.558,58.985 20.773,58.763 20.808,58.483 C 20.843,58.203 20.692,57.933 20.435,57.823 C 20.035,57.651 20.031,57.186 20.064,56.927 C 20.124,56.447 20.558,56.107 21.028,56.169 L 23.525,56.5 C 23.754,56.53 23.958,56.649 24.097,56.834 C 24.237,57.02 24.299,57.251 24.268,57.482 C 24.208,57.953 24.025,58.214 23.721,58.257 C 23.448,58.297 23.234,58.518 23.198,58.799 C 23.163,59.079 23.315,59.349 23.571,59.459 C 23.852,59.582 23.965,59.88 23.904,60.352 C 23.817,61.038 23.5,61.1 23.396,61.119 C 23.135,61.17 22.933,61.387 22.899,61.656 C 22.865,61.925 23.004,62.187 23.246,62.304 C 23.34,62.351 23.631,62.491 23.546,63.179 C 23.462,63.837 23.208,63.909 23.112,63.936 C 22.873,64.005 22.699,64.211 22.667,64.459 C 22.636,64.71 22.751,64.954 22.966,65.082 C 23.052,65.133 23.28,65.27 23.195,65.927 C 23.135,66.407 22.702,66.747 22.232,66.686 L 19.734,66.355 C 19.506,66.324 19.302,66.206 19.162,66.02 C 19.023,65.833 18.961,65.603 18.992,65.369 C 19.044,64.947 19.203,64.693 19.462,64.619 C 19.7,64.551 19.875,64.344 19.906,64.095 C 19.938,63.845 19.82,63.601 19.607,63.473 C 19.377,63.333 19.284,63.048 19.34,62.621 C 19.38,62.314 19.506,61.933 19.886,61.86 C 20.149,61.808 20.349,61.591 20.382,61.323 z "
   id="path5824" />
</g><g
     id="g5826">
	<path
   style="fill:#ffffff"
   d="M 26.229,58.396 C 24.979,57.557 23.411,57.745 22.723,58.813 C 22.037,59.88 23.142,62.231 25.786,63.484"
   id="path5828" />
</g><g
     id="g5830">
	<path
   style="fill:#060506"
   d="M 25.896,58.911 C 25.359,58.551 24.729,58.411 24.171,58.53 C 23.885,58.591 23.488,58.748 23.228,59.151 C 23.028,59.464 22.983,59.899 23.108,60.346 C 23.25,60.849 23.731,61.81 25.37,62.586 L 25.37,62.586 C 25.673,62.73 25.803,63.096 25.663,63.405 C 25.523,63.714 25.162,63.848 24.861,63.706 L 24.861,63.706 C 23.321,62.977 22.286,61.904 21.947,60.684 C 21.725,59.892 21.823,59.087 22.217,58.474 C 22.597,57.884 23.204,57.474 23.925,57.322 C 24.796,57.138 25.756,57.342 26.562,57.881 L 26.562,57.881 C 26.839,58.069 26.917,58.451 26.735,58.735 C 26.552,59.018 26.176,59.098 25.896,58.911 L 25.896,58.911 z "
   id="path5832" />
</g><g
     id="g5834">
	<path
   style="fill:#ff0800"
   d="M 64.996,30.431 C 65.364,30.278 67.457,29.303 69.622,26.889 C 71.789,24.48 72.533,21.417 72.654,20.876 C 72.775,21.417 73.521,24.48 75.685,26.889 C 77.85,29.303 79.946,30.278 80.31,30.431 C 79.946,30.592 77.85,31.567 75.685,33.979 C 73.521,36.392 72.775,39.451 72.654,39.991 C 72.533,39.451 71.789,36.392 69.622,33.979 C 67.457,31.566 65.366,30.591 64.996,30.431 z "
   id="path5836" />
</g><path
     style="fill:url(#radialGradient5916)"
     d="M 29.297,47.181 C 30.401,55.242 39.518,60.821 49.662,59.642 C 59.804,58.462 67.132,50.971 66.032,42.911 C 64.928,34.849 55.809,29.27 45.667,30.449 C 35.523,31.629 28.195,39.12 29.297,47.181 z "
     id="path5838" /><path
     style="fill:#f4ecd6;stroke:#dad2c0;stroke-width:0.17640001"
     d="M 46.506,36.549 C 46.506,36.549 47.144,30.907 55.364,33.531 C 63.592,36.155 59.898,44.644 59.898,44.644 C 59.898,44.644 57.252,47.812 57.653,48.678 C 58.715,50.964 58.674,55.183 51.716,56.734 C 44.758,58.285 43.921,53.326 44.206,52.442 C 44.206,52.442 36.095,50.769 36.295,43.615 C 36.502,36.462 43.547,33.449 46.506,36.549 z "
     id="path5840" /><path
     style="fill:#ffffff;stroke:#c1a48c;stroke-width:0.17640001"
     d="M 56.252,36.672 C 56.252,36.672 49.506,32.276 49.505,38.919 C 49.503,45.562 52.631,49.002 55.998,46.731 C 59.37,44.46 61.933,40.85 56.252,36.672 z "
     id="path5842" /><path
     style="fill:#ffffff;stroke:#c1a48c;stroke-width:0.17640001"
     d="M 39.605,41.616 C 39.605,41.616 42.273,34.114 46.364,39.407 C 50.453,44.699 50.077,49.294 45.995,49.483 C 41.913,49.672 37.651,48.314 39.605,41.616 z "
     id="path5844" /><path
     style="fill:url(#radialGradient5918);stroke:#c1a48c;stroke-width:0.17640001"
     d="M 58.167,52.013 C 58.167,52.013 58.179,50.132 57.892,49.642 C 56.893,47.938 53.413,47.102 51.777,49.27 C 51.777,49.27 50.984,50.095 49.79,49.474 C 48.247,48.673 43.743,50.364 43.799,52.223 C 43.864,54.484 45.745,57.787 50.983,57.075 C 56.218,56.362 57.93,53.324 58.167,52.013 z "
     id="path5846" /><path
     style="fill:none;stroke:#b29d94;stroke-width:0.17640001"
     d="M 56.361,51.15 C 56.361,51.15 52.771,57.074 44.715,54.547"
     id="path5848" /><path
     style="fill:none;stroke:#c6afa4;stroke-width:0.17640001"
     d="M 51.336,50.094 C 51.336,50.094 53.184,51.52 52.113,56.8"
     id="path5850" /><path
     style="fill:#165829"
     d="M 50.976,42.584 C 51.205,44.553 53.108,45.916 55.225,45.628 C 57.34,45.34 58.871,43.509 58.64,41.54 C 58.411,39.571 56.506,38.207 54.39,38.495 C 52.274,38.783 50.746,40.614 50.976,42.584 z "
     id="path5852" /><path
     style="fill:#33a02c"
     d="M 51.182,42.535 C 51.393,44.343 53.138,45.594 55.08,45.329 C 57.019,45.065 58.427,43.384 58.217,41.577 C 58.004,39.769 56.26,38.518 54.317,38.783 C 52.374,39.048 50.969,40.728 51.182,42.535 z "
     id="path5854" /><path
     d="M 51.518,42.304 C 51.706,43.911 53.258,45.022 54.984,44.787 C 56.713,44.552 57.959,43.06 57.769,41.454 C 57.581,39.847 56.03,38.736 54.303,38.971 C 52.578,39.205 51.33,40.698 51.518,42.304 z "
     id="path5856" /><path
     style="fill:#33a02c"
     d="M 55.393,42.777 C 55.215,43.24 55.392,43.713 55.788,43.833 C 56.183,43.954 56.642,43.676 56.821,43.213 C 57.001,42.75 56.823,42.277 56.43,42.156 C 56.036,42.036 55.571,42.313 55.393,42.777 z "
     id="path5858" /><path
     style="opacity:0.86000001;fill:#ffffff"
     enable-background="new    "
     d="M 57.199,41.094 C 57.199,41.094 56.764,39.583 55.345,39.656 C 55.345,39.656 54.634,40.236 55.285,40.267 C 55.936,40.299 56.336,40.366 56.557,41.181 C 56.787,41.996 57.199,41.094 57.199,41.094 z "
     id="path5860" /><path
     style="opacity:0.86000001;fill:#ffffff"
     enable-background="new    "
     d="M 52.973,43.036 C 53.019,43.431 53.201,43.73 53.377,43.705 C 53.553,43.682 53.653,43.343 53.608,42.948 C 53.562,42.554 53.382,42.254 53.211,42.279 C 53.036,42.303 52.927,42.642 52.973,43.036 z "
     id="path5862" /><path
     style="fill:#165829"
     d="M 40.607,45.847 C 40.837,47.816 42.739,49.18 44.856,48.891 C 46.973,48.603 48.502,46.773 48.272,44.803 C 48.041,42.834 46.139,41.471 44.023,41.759 C 41.906,42.047 40.378,43.878 40.607,45.847 z "
     id="path5864" /><path
     style="fill:#33a02c"
     d="M 40.813,45.8 C 41.025,47.608 42.771,48.858 44.714,48.594 C 46.655,48.33 48.058,46.65 47.848,44.842 C 47.638,43.034 45.892,41.783 43.95,42.047 C 42.006,42.311 40.602,43.992 40.813,45.8 z "
     id="path5866" /><path
     d="M 41.15,45.569 C 41.337,47.175 42.889,48.287 44.614,48.053 C 46.341,47.818 47.587,46.325 47.4,44.718 C 47.212,43.113 45.66,42.001 43.935,42.236 C 42.21,42.47 40.961,43.963 41.15,45.569 z "
     id="path5868" /><path
     style="fill:#33a02c"
     d="M 45.025,46.041 C 44.848,46.504 45.023,46.977 45.417,47.097 C 45.811,47.217 46.275,46.94 46.453,46.476 C 46.63,46.013 46.455,45.541 46.061,45.421 C 45.666,45.3 45.202,45.578 45.025,46.041 z "
     id="path5870" /><path
     style="opacity:0.86000001;fill:#ffffff"
     enable-background="new    "
     d="M 46.832,44.359 C 46.832,44.359 46.396,42.848 44.977,42.921 C 44.977,42.921 44.266,43.501 44.919,43.532 C 45.57,43.565 45.967,43.631 46.193,44.446 C 46.418,45.26 46.832,44.359 46.832,44.359 z "
     id="path5872" /><path
     style="opacity:0.86000001;fill:#ffffff"
     enable-background="new    "
     d="M 42.605,46.3 C 42.651,46.694 42.833,46.993 43.009,46.969 C 43.185,46.945 43.29,46.606 43.244,46.212 C 43.198,45.818 43.018,45.519 42.843,45.543 C 42.665,45.567 42.56,45.906 42.605,46.3 z "
     id="path5874" /><path
     style="fill:#a9775d"
     d="M 51.378,48.344 C 51.44,48.563 51.598,48.711 51.73,48.674 C 51.861,48.637 51.918,48.43 51.855,48.211 C 51.793,47.992 51.634,47.844 51.504,47.881 C 51.372,47.917 51.316,48.125 51.378,48.344 z "
     id="path5876" /><path
     style="fill:#a9775d"
     d="M 50.589,48.579 C 50.651,48.798 50.81,48.946 50.942,48.908 C 51.073,48.872 51.13,48.664 51.067,48.445 C 51.005,48.226 50.847,48.078 50.715,48.116 C 50.583,48.151 50.528,48.359 50.589,48.579 z "
     id="path5878" /><path
     style="fill:#ff8600"
     d="M 37.005,31.273 C 35.924,46.726 32.787,50.917 30.749,51.969 C 29.67,52.523 25.974,55.468 26.106,55.524 C 28.32,56.46 30.778,56.556 32.101,55.397 C 38.16,50.069 39.052,33.32 39.052,33.32 L 37.005,31.273 z "
     id="path5880" /><path
     style="fill:#060506"
     d="M 39.56,33.381 C 39.567,33.237 39.51,33.092 39.403,32.984 C 39.403,32.984 37.356,30.937 37.355,30.937 C 37.212,30.792 37.001,30.737 36.817,30.797 C 36.634,30.855 36.509,31.016 36.497,31.205 C 35.408,46.748 32.263,50.607 30.49,51.521 C 30.256,51.667 25.636,55.006 25.699,55.708 C 25.719,55.904 25.851,56.082 26.037,56.162 C 28.49,57.2 31.008,57.05 32.454,55.78 C 38.578,50.396 39.522,34.072 39.56,33.381 z M 31.745,55.014 C 30.763,55.876 29.045,56.063 27.283,55.559 C 27.014,55.803 26.822,55.989 26.765,56.062 L 26.764,56.061 C 26.764,56.062 26.764,56.062 26.764,56.062 L 26.648,55.971 C 26.648,55.971 26.649,55.971 26.649,55.97 C 26.682,55.929 26.754,55.781 26.697,55.59 C 26.65,55.436 26.535,55.311 26.382,55.246 L 26.439,55.11 C 26.707,55.224 26.975,55.318 27.243,55.398 C 28.262,54.478 30.266,52.798 31.008,52.416 C 33.322,51.223 36.278,46.79 37.418,32.585 L 36.549,31.715 C 36.548,31.715 36.548,31.715 36.548,31.714 L 36.548,31.714 L 36.548,31.714 L 36.652,31.61 C 36.798,31.754 37.01,31.808 37.194,31.75 C 37.375,31.692 37.502,31.532 37.514,31.343 L 37.514,31.343 L 37.66,31.353 L 37.66,31.353 L 37.66,31.353 C 37.633,31.755 37.602,32.145 37.571,32.531 L 38.388,33.348 C 38.392,33.296 38.394,33.258 38.394,33.252 L 38.541,33.26 C 38.534,33.405 38.59,33.55 38.698,33.658 L 38.595,33.762 L 38.512,33.679 C 38.426,34.855 38.121,38.369 37.333,42.265 C 36.454,46.612 34.77,52.353 31.745,55.014 z "
     id="path5882" /><path
     style="fill:#ff8600"
     d="M 34.647,30.86 C 33.565,46.314 30.427,50.506 28.389,51.556 C 27.312,52.111 23.614,55.056 23.747,55.111 C 25.961,56.049 28.42,56.144 29.741,54.985 C 35.8,49.657 36.692,32.908 36.692,32.908 L 34.647,30.86 z "
     id="path5884" /><path
     style="fill:#060506"
     d="M 37.199,32.969 C 37.207,32.824 37.15,32.679 37.042,32.571 L 34.997,30.523 C 34.855,30.379 34.643,30.325 34.456,30.383 C 34.274,30.442 34.149,30.602 34.137,30.792 C 33.049,46.334 29.904,50.193 28.13,51.107 C 27.897,51.253 23.277,54.592 23.341,55.295 C 23.358,55.49 23.49,55.667 23.678,55.746 C 26.131,56.784 28.649,56.635 30.095,55.366 C 36.245,49.96 37.164,33.66 37.199,32.969 z M 29.385,54.601 C 28.404,55.463 26.686,55.651 24.924,55.145 C 24.655,55.39 24.463,55.576 24.404,55.649 L 24.404,55.649 L 24.404,55.65 L 24.289,55.559 C 24.289,55.559 24.29,55.558 24.29,55.557 C 24.323,55.515 24.395,55.367 24.338,55.176 C 24.29,55.022 24.176,54.898 24.024,54.833 L 24.083,54.697 C 24.351,54.81 24.619,54.904 24.886,54.984 C 25.905,54.065 27.909,52.384 28.65,52.003 C 30.965,50.808 33.921,46.375 35.061,32.171 L 34.19,31.301 C 34.19,31.301 34.19,31.301 34.189,31.301 L 34.294,31.197 L 34.294,31.197 L 34.294,31.197 C 34.438,31.342 34.649,31.396 34.833,31.337 C 35.017,31.278 35.142,31.118 35.155,30.93 L 35.155,30.929 L 35.301,30.94 L 35.301,30.94 L 35.301,30.94 C 35.273,31.341 35.243,31.73 35.213,32.117 L 36.029,32.934 C 36.032,32.883 36.035,32.846 36.035,32.84 L 36.181,32.847 C 36.173,32.993 36.231,33.137 36.338,33.244 L 36.338,33.244 L 36.338,33.244 L 36.235,33.348 L 36.234,33.348 L 36.153,33.266 C 36.066,34.442 35.761,37.959 34.974,41.852 C 34.095,46.2 32.411,51.941 29.385,54.601 z "
     id="path5886" /><path
     style="fill:#ff8600"
     d="M 32.286,30.447 C 31.204,45.901 28.067,50.093 26.028,51.144 C 24.952,51.698 21.255,54.643 21.386,54.698 C 23.601,55.636 26.058,55.73 27.38,54.572 C 33.44,49.243 34.33,32.495 34.33,32.495 L 32.286,30.447 z "
     id="path5888" /><path
     style="fill:#060506"
     d="M 34.839,32.556 C 34.849,32.411 34.792,32.266 34.684,32.158 L 32.639,30.111 C 32.495,29.967 32.283,29.912 32.097,29.971 C 31.916,30.03 31.79,30.19 31.778,30.379 C 30.69,45.923 27.546,49.782 25.772,50.696 C 25.529,50.847 20.918,54.168 20.982,54.884 C 21,55.079 21.132,55.257 21.319,55.336 C 23.771,56.374 26.29,56.224 27.736,54.954 C 33.901,49.535 34.804,33.247 34.839,32.556 z M 27.025,54.189 C 26.041,55.051 24.324,55.238 22.564,54.733 C 22.295,54.977 22.103,55.164 22.045,55.236 L 21.929,55.147 L 21.929,55.147 L 21.929,55.146 C 21.929,55.146 21.93,55.146 21.93,55.145 C 21.971,55.091 22.033,54.945 21.979,54.764 C 21.932,54.61 21.817,54.485 21.665,54.421 L 21.722,54.285 C 21.99,54.397 22.257,54.492 22.525,54.572 C 23.544,53.652 25.546,51.974 26.29,51.59 C 28.604,50.395 31.559,45.962 32.7,31.76 L 31.83,30.889 L 31.934,30.785 C 32.078,30.929 32.289,30.983 32.473,30.925 C 32.655,30.867 32.781,30.706 32.793,30.517 L 32.793,30.517 L 32.94,30.527 L 32.94,30.527 L 32.94,30.527 C 32.912,30.929 32.881,31.318 32.851,31.705 L 33.667,32.524 C 33.671,32.471 33.673,32.433 33.673,32.427 L 33.819,32.435 C 33.812,32.58 33.869,32.724 33.975,32.833 L 33.976,32.834 L 33.976,32.834 L 33.976,32.834 L 33.872,32.937 L 33.79,32.856 C 33.704,34.035 33.4,37.542 32.611,41.439 C 31.735,45.788 30.05,51.529 27.025,54.189 z "
     id="path5890" /><path
     style="fill:#ff8600"
     d="M 29.777,31.562 C 28.76,43.47 26.548,48.352 24.701,50.312 C 24.701,50.312 24.938,49.161 24.325,48.557 C 23.708,47.953 22.242,47.896 20.347,50.102 C 19.377,51.234 19.354,53.675 20.256,54.629 C 21.161,55.581 23.387,55.666 24.744,54.483 C 30.622,49.359 31.706,33.476 31.706,33.476 L 29.777,31.562 z "
     id="path5892" /><path
     style="fill:#060506"
     d="M 32.216,33.545 C 32.226,33.397 32.168,33.248 32.058,33.138 C 32.058,33.138 30.129,31.223 30.129,31.224 C 29.982,31.079 29.775,31.027 29.591,31.085 C 29.408,31.142 29.285,31.297 29.269,31.489 C 28.644,39.393 27.388,45.312 25.533,49.081 L 25.45,49.251 L 25.398,49.067 C 25.301,48.728 25.125,48.424 24.876,48.163 C 24.516,47.791 23.974,47.591 23.349,47.598 C 22.267,47.61 21.089,48.214 20.349,49.137 C 19.245,50.514 18.354,52.698 19.48,54.316 C 19.972,55.022 20.846,55.518 21.88,55.678 C 23.097,55.865 24.299,55.562 25.097,54.866 C 31.039,49.685 32.171,34.201 32.216,33.545 z M 24.389,54.1 C 23.81,54.605 22.883,54.831 21.968,54.691 C 21.231,54.576 20.627,54.249 20.31,53.793 C 19.553,52.708 20.195,51 21.166,49.788 C 21.818,48.976 22.774,48.605 23.432,48.598 C 23.75,48.594 24.015,48.677 24.154,48.823 C 24.434,49.114 24.524,49.487 24.429,49.963 C 24.179,51.229 22.804,52.566 22.169,52.842 L 22.15,52.85 L 22.129,52.847 C 22.066,52.838 22.017,52.827 21.983,52.815 L 21.94,52.799 L 21.936,52.753 C 21.9,52.377 22.577,51.37 23.207,50.702 C 23.291,50.613 23.336,50.494 23.332,50.369 C 23.327,50.23 23.265,50.094 23.158,49.996 C 22.945,49.8 22.621,49.8 22.437,49.996 C 21.867,50.598 20.583,52.106 20.994,53.115 C 21.089,53.346 21.356,53.748 22.079,53.843 C 22.118,53.848 22.157,53.843 22.197,53.836 L 22.221,53.832 C 22.221,53.832 22.229,53.831 22.228,53.831 L 22.237,53.832 C 22.28,53.837 22.377,53.839 22.524,53.81 L 22.525,53.809 L 22.537,53.807 C 22.929,53.727 24.327,53.269 25.856,50.698 C 27.985,47.115 29.441,41.101 30.18,32.824 L 30.196,32.668 L 30.306,32.778 L 31.152,33.618 L 31.176,33.642 L 31.174,33.676 C 31.081,34.775 30.699,38.692 29.693,42.929 C 28.396,48.406 26.611,52.164 24.389,54.1 z "
     id="path5894" /><path
     style="fill:#212462"
     d="M 28.235,41.122 C 28.235,41.122 36.489,35.873 44.601,34.06 C 52.712,32.246 63.064,34.355 63.064,34.355 L 63.977,20.923 C 63.977,20.923 57.002,15.256 41.083,18.816 C 25.166,22.377 20.834,30.262 20.834,30.262 L 28.235,41.122 z "
     id="path5896" /><path
     style="fill:#ffffff"
     d="M 31.427,36.786 C 31.949,37.769 31.602,39.028 30.655,39.596 C 29.706,40.163 28.516,39.827 27.994,38.843 C 27.476,37.86 27.824,36.603 28.77,36.034 C 29.722,35.467 30.911,35.804 31.427,36.786 z "
     id="path5898" /><path
     style="fill:#ffffff"
     d="M 57.574,32.061 C 57.435,33.207 58.198,34.262 59.279,34.418 C 60.358,34.571 61.344,33.767 61.483,32.62 C 61.622,31.474 60.857,30.42 59.778,30.264 C 58.696,30.111 57.711,30.915 57.574,32.061 z "
     id="path5900" /><path
     style="fill:#d90000"
     d="M 42.604,32.061 C 42.465,33.207 43.228,34.262 44.309,34.418 C 45.388,34.571 46.374,33.767 46.513,32.62 C 46.652,31.474 45.887,30.42 44.808,30.264 C 43.726,30.111 42.741,30.915 42.604,32.061 z "
     id="path5902" /><path
     style="fill:#060506"
     d="M 64.533,21.037 L 64.533,21.032 L 64.595,20.688 C 64.523,20.63 64.33,20.476 64.324,20.474 C 64.318,20.468 64.303,20.454 64.277,20.437 C 64.277,20.437 64.273,20.434 64.276,20.437 L 64.271,20.432 C 64.248,20.412 64.214,20.389 64.175,20.361 L 64.175,20.361 L 64.175,20.361 L 64.173,20.359 L 64.159,20.351 L 64.16,20.351 C 64.134,20.329 64.098,20.304 64.057,20.277 L 64.025,20.255 L 64.046,20.266 C 64.026,20.261 64.019,20.253 64.014,20.249 L 64.026,20.256 L 64.018,20.253 L 64.013,20.247 C 63.96,20.21 63.9,20.171 63.827,20.125 C 63.81,20.122 63.785,20.114 63.782,20.112 L 63.782,20.095 C 62.636,19.358 59.436,17.648 53.924,17.184 L 53.887,17.181 C 53.857,17.179 53.826,17.177 53.801,17.174 C 52.928,17.105 52.029,17.068 51.124,17.066 L 51.11,17.066 C 50.701,17.065 50.246,17.072 49.724,17.089 L 49.667,17.091 C 49.62,17.093 49.573,17.094 49.525,17.098 C 49.023,17.117 48.547,17.143 48.07,17.179 C 48.066,17.179 48.063,17.179 48.06,17.18 C 48.054,17.18 48.048,17.18 48.043,17.181 L 48.04,17.181 L 48.04,17.181 C 46.664,17.284 45.23,17.46 43.777,17.706 C 43.728,17.713 43.674,17.724 43.623,17.733 C 43.623,17.733 43.622,17.733 43.617,17.735 L 43.616,17.735 C 43.177,17.81 42.783,17.881 42.41,17.956 C 41.935,18.048 41.452,18.148 40.974,18.256 C 40.42,18.379 39.844,18.519 39.103,18.711 L 38.917,18.76 L 38.781,18.796 C 37.039,19.258 35.372,19.791 33.824,20.379 C 33.818,20.384 33.814,20.388 33.812,20.388 L 33.802,20.388 C 32.529,20.873 31.314,21.401 30.191,21.958 C 29.951,22.078 29.695,22.208 29.41,22.358 L 29.373,22.377 C 29.355,22.386 29.337,22.395 29.32,22.404 C 29.071,22.537 28.829,22.669 28.582,22.807 C 28.561,22.819 28.54,22.831 28.519,22.843 C 28.519,22.843 28.508,22.849 28.51,22.849 C 28.253,22.995 28.009,23.137 27.781,23.273 C 27.778,23.275 27.775,23.276 27.772,23.279 C 27.766,23.282 27.758,23.287 27.746,23.291 L 27.756,23.287 C 23.324,25.94 21.285,28.572 20.618,29.576 C 20.616,29.58 20.614,29.583 20.611,29.586 C 20.61,29.589 20.609,29.592 20.608,29.593 L 20.606,29.6 L 20.6,29.607 C 20.565,29.655 20.532,29.706 20.503,29.752 C 20.495,29.769 20.485,29.783 20.476,29.794 L 20.481,29.787 C 20.46,29.824 20.44,29.855 20.425,29.88 L 20.42,29.889 L 20.423,29.883 C 20.42,29.89 20.416,29.897 20.413,29.903 C 20.412,29.904 20.411,29.907 20.406,29.914 C 20.391,29.939 20.379,29.959 20.374,29.97 C 20.374,29.97 20.374,29.97 20.373,29.972 C 20.373,29.972 20.248,30.202 20.197,30.295 C 20.253,30.377 20.405,30.598 20.405,30.598 L 27.805,41.46 C 27.896,41.592 28.029,41.787 28.092,41.879 L 28.509,41.614 L 28.521,41.606 C 29.376,41.044 37.101,36.069 44.711,34.618 C 54.812,32.695 61.99,35.311 63.971,36.171 L 64.533,21.041 L 64.533,21.037 L 64.533,21.037 z M 49.721,18.44 C 51.325,18.325 52.777,18.335 54.159,18.467 L 54.234,18.474 L 54.225,18.549 L 53.496,24.441 L 53.338,25.745 L 53.289,26.121 C 53.28,26.182 53.273,26.22 53.268,26.25 L 53.272,26.254 L 53.268,26.254 C 53.268,26.256 53.268,26.257 53.266,26.258 L 53.271,26.258 C 53.207,26.693 52.883,27.428 52.105,27.418 C 51.503,27.412 51.246,26.52 51.178,26.247 C 51.177,26.245 51.177,26.244 51.176,26.243 L 51.176,26.242 L 51.175,26.235 L 49.653,18.527 L 49.636,18.445 L 49.721,18.44 z M 30.431,23.181 C 30.516,23.124 30.602,23.067 30.687,23.012 L 30.827,22.92 L 30.831,22.917 L 30.834,22.915 C 31.977,22.355 33.197,21.832 34.46,21.357 L 34.534,21.329 L 34.555,21.407 C 35.109,23.485 36.437,28.458 36.469,28.57 C 36.469,28.571 36.469,28.572 36.469,28.573 L 36.473,28.585 C 36.518,28.779 36.719,29.763 36.166,30.082 C 35.333,30.563 34.703,29.738 34.631,29.641 L 30.411,23.283 L 30.37,23.221 L 30.431,23.181 z M 63.414,21.239 L 63.009,34.423 L 63.006,34.518 L 62.916,34.492 C 61.902,34.195 52.812,31.641 44.494,33.501 C 37.56,35.051 30.456,39.125 28.444,40.336 L 28.387,40.371 L 28.349,40.315 L 21.516,30.291 L 21.488,30.249 L 21.515,30.207 C 21.537,30.174 21.562,30.14 21.589,30.103 C 21.589,30.103 21.634,30.038 21.637,30.036 C 21.643,30.028 21.651,30.017 21.657,30.007 C 21.657,30.007 21.657,30.006 21.662,30.001 L 21.662,30 L 21.696,29.954 C 21.723,29.916 21.752,29.876 21.782,29.836 C 21.786,29.831 21.789,29.826 21.795,29.821 C 21.8,29.813 21.807,29.805 21.815,29.795 L 21.91,29.67 C 21.91,29.67 21.966,29.599 21.961,29.604 C 21.969,29.593 21.977,29.584 21.983,29.576 C 21.986,29.573 21.989,29.571 21.99,29.569 C 22.056,29.485 22.119,29.406 22.187,29.326 C 22.188,29.325 22.19,29.322 22.193,29.319 C 22.194,29.317 22.196,29.314 22.199,29.311 C 23.142,28.18 24.858,26.456 27.684,24.671 L 27.742,24.634 L 27.782,24.693 L 32.587,31.449 C 33.286,32.298 35.055,33.693 37.244,32.527 C 39.425,31.364 39.38,29.371 39.118,28.263 L 37.318,20.468 L 37.299,20.398 L 37.367,20.378 C 41.52,18.952 47.092,18.461 47.092,18.461 C 47.397,20.012 48.931,26.94 49.061,27.527 C 49.311,28.62 50.406,30.076 52.279,30.076 C 53.913,30.076 55.127,29.011 55.401,27.381 C 56.314,21.99 56.797,18.708 56.797,18.707 C 56.797,18.707 60.827,19.54 63.385,21.174 L 63.42,21.196 L 63.414,21.239 z "
     id="path5904" /><path
     style="fill:#d90000"
     d="M 53.295,26.436 C 53.274,26.555 53.08,27.603 52.144,27.591 C 51.487,27.585 51.147,26.391 51.141,26.379 L 49.637,18.296 C 51.318,18.176 52.854,18.186 54.296,18.325 C 54.076,20.104 53.293,26.448 53.295,26.436 z "
     id="path5906" /><polygon
     style="fill:#ff8600"
     points="23.335,17.638 23.335,42.131 15.581,29.884 23.335,17.638 "
     id="polygon5908" /><polygon
     style="fill:#ffffff"
     points="23.335,17.638 31.091,29.884 31.091,29.884 23.335,42.131 23.335,17.638 "
     id="polygon5910" /><path
     style="fill:#ffffff"
     d="M 19.347,30.356 C 19.347,32.603 21.134,34.424 23.335,34.424 C 25.537,34.424 27.323,32.603 27.323,30.356 C 27.323,28.11 25.537,26.288 23.335,26.288 C 21.134,26.288 19.347,28.11 19.347,30.356 z "
     id="path5912" /><path
     style="fill:#d90000"
     d="M 20.696,30.356 C 20.696,31.841 21.879,33.049 23.335,33.049 C 24.791,33.049 25.974,31.841 25.974,30.356 C 25.974,28.872 24.791,27.664 23.335,27.664 C 21.879,27.664 20.696,28.871 20.696,30.356 z "
     id="path5914" /></g>

<radialGradient
   id="XMLID_72_"
   cx="270.1899"
   cy="4280.3755"
   r="13.2759"
   gradientTransform="matrix(1.0713 0.1245 -0.1345 0.9922 328.002 -4178.3042)"
   gradientUnits="userSpaceOnUse">
	<stop
   offset="0"
   style="stop-color:#FFFFFF"
   id="stop8" />
	<stop
   offset="0.0614"
   style="stop-color:#F6F4F0"
   id="stop10" />
	<stop
   offset="0.1786"
   style="stop-color:#DFD8C9"
   id="stop12" />
	<stop
   offset="0.2753"
   style="stop-color:#CABDA5"
   id="stop14" />
	<stop
   offset="1"
   style="stop-color:#5A3D1B"
   id="stop16" />
</radialGradient>




<linearGradient
   id="XMLID_73_"
   gradientUnits="userSpaceOnUse"
   x1="201.8638"
   y1="4299.7378"
   x2="201.8638"
   y2="4278.1548"
   gradientTransform="matrix(0.9922 0.1245 -0.1245 0.9922 375.6661 -4178.3042)">
	<stop
   offset="0"
   style="stop-color:#FFFFFF"
   id="stop29" />
	<stop
   offset="0.0128"
   style="stop-color:#FBFBF7"
   id="stop31" />
	<stop
   offset="0.0501"
   style="stop-color:#F4F2E6"
   id="stop33" />
	<stop
   offset="0.0966"
   style="stop-color:#EEECDB"
   id="stop35" />
	<stop
   offset="0.1618"
   style="stop-color:#EBE8D4"
   id="stop37" />
	<stop
   offset="0.3427"
   style="stop-color:#EAE7D2"
   id="stop39" />
	<stop
   offset="1"
   style="stop-color:#E6E3CB"
   id="stop41" />
</linearGradient>



<radialGradient
   id="XMLID_74_"
   cx="264.9956"
   cy="3643.0649"
   r="10.9374"
   gradientTransform="matrix(1.0713 0.1245 -0.1583 1.1682 329.1428 -4189.9453)"
   gradientUnits="userSpaceOnUse">
	<stop
   offset="0"
   style="stop-color:#FFFFFF"
   id="stop50" />
	<stop
   offset="0.246"
   style="stop-color:#F4F4F0"
   id="stop52" />
	<stop
   offset="0.7158"
   style="stop-color:#D9D8C9"
   id="stop54" />
	<stop
   offset="1"
   style="stop-color:#C6C4AF"
   id="stop56" />
</radialGradient>












































































































<g
   id="g394">
	<path
   fill="#060506"
   d="M29.605,55.809"
   id="path396" />
</g>



<g
   id="g410">
	<path
   fill="#FFFFFF"
   d="M37.147,28.383"
   id="path412" />
</g>
<g
   id="g414">
	<path
   fill="#FFFFFF"
   d="M34.895,19.94"
   id="path416" />
</g>

























<radialGradient
   id="XMLID_75_"
   cx="1859.3267"
   cy="241.5728"
   r="14.6777"
   gradientTransform="matrix(-1.2514,0.1455,-0.1361,-0.9945,2407.2854,14.7578)"
   gradientUnits="userSpaceOnUse">
	<stop
   offset="0"
   style="stop-color:#FFFFFF"
   id="stop519" />
	<stop
   offset="0.0614"
   style="stop-color:#F6F4F0"
   id="stop521" />
	<stop
   offset="0.1786"
   style="stop-color:#DFD8C9"
   id="stop523" />
	<stop
   offset="0.2753"
   style="stop-color:#CABDA5"
   id="stop525" />
	<stop
   offset="1"
   style="stop-color:#5A3D1B"
   id="stop527" />
</radialGradient>




<radialGradient
   id="XMLID_76_"
   cx="1853.2427"
   cy="212.4478"
   r="12.0935"
   gradientTransform="matrix(-1.0687,0.1455,-0.1368,-1.1709,2065.6074,26.3576)"
   gradientUnits="userSpaceOnUse">
	<stop
   offset="0"
   style="stop-color:#FFFFFF"
   id="stop538" />
	<stop
   offset="0.246"
   style="stop-color:#F4F4F0"
   id="stop540" />
	<stop
   offset="0.7158"
   style="stop-color:#D9D8C9"
   id="stop542" />
	<stop
   offset="1"
   style="stop-color:#C6C4AF"
   id="stop544" />
</radialGradient>

















<radialGradient
   id="XMLID_77_"
   cx="-226.7612"
   cy="2957.1313"
   r="14.6775"
   gradientTransform="matrix(1.2209 -0.1455 0.1328 0.9945 -66.2776 -2868.9014)"
   gradientUnits="userSpaceOnUse">
	<stop
   offset="0"
   style="stop-color:#FFFFFF"
   id="stop581" />
	<stop
   offset="0.0614"
   style="stop-color:#F6F4F0"
   id="stop583" />
	<stop
   offset="0.1786"
   style="stop-color:#DFD8C9"
   id="stop585" />
	<stop
   offset="0.2753"
   style="stop-color:#CABDA5"
   id="stop587" />
	<stop
   offset="1"
   style="stop-color:#5A3D1B"
   id="stop589" />
</radialGradient>




<radialGradient
   id="XMLID_78_"
   cx="-232.7163"
   cy="2518.0601"
   r="12.0932"
   gradientTransform="matrix(1.0687 -0.1455 0.1368 1.1709 -53.9796 -2880.5032)"
   gradientUnits="userSpaceOnUse">
	<stop
   offset="0"
   style="stop-color:#FFFFFF"
   id="stop600" />
	<stop
   offset="0.246"
   style="stop-color:#F4F4F0"
   id="stop602" />
	<stop
   offset="0.7158"
   style="stop-color:#D9D8C9"
   id="stop604" />
	<stop
   offset="1"
   style="stop-color:#C6C4AF"
   id="stop606" />
</radialGradient>






















































<path
   id="XMLID_4_"
   fill="none"
   stroke="#404040"
   stroke-width="0.1764"
   d="M16.852,129.44c0,2.984,1.977,5.408,4.417,5.408h55.51  c2.438,0,4.415-2.425,4.415-5.408V20.645c0-2.985-1.978-5.407-4.415-5.407h-55.51c-2.44,0-4.417,2.422-4.417,5.407V129.44z" /><use
   x="0"
   y="0"
   inkscape:tiled-clone-of="#use5666"
   xlink:href="#use5666"
   transform="matrix(-1,0,0,-1,98.642155,150.49449)"
   id="use2474"
   width="98.098"
   height="150.08501" />



<g
   id="g4327"><rect
     y="72.341949"
     x="16.686573"
     height="5.4020987"
     width="64.840553"
     id="rect3344"
     style="fill:#d90000;fill-opacity:1;fill-rule:evenodd;stroke:none;stroke-width:0.46390122;stroke-linecap:round;stroke-linejoin:round;stroke-miterlimit:4;stroke-dasharray:none;stroke-opacity:1" /><g
     id="g4321"><g
       id="g426">
	<path
   style="fill:#0e0f6a"
   d="M 49.023,79.223 C 51.281,79.223 53.123,77.348 53.123,75.043 C 53.123,72.737 51.281,70.863 49.023,70.863 C 46.764,70.863 44.927,72.737 44.927,75.043 C 44.927,77.348 46.764,79.223 49.023,79.223 z M 47.029,75.044 C 47.029,73.921 47.925,73.009 49.023,73.009 C 50.123,73.009 51.017,73.921 51.017,75.044 C 51.017,76.166 50.122,77.079 49.023,77.079 C 47.924,77.079 47.029,76.165 47.029,75.044 z "
   id="path428" />
</g><g
       id="g430">
	<ellipse
   style="fill:#ffffff"
   sodipodi:ry="2.148"
   sodipodi:rx="2.105"
   sodipodi:cy="75.042999"
   sodipodi:cx="49.022999"
   cx="49.022999"
   cy="75.042999"
   rx="2.105"
   ry="2.148"
   id="ellipse432" />
</g></g></g><path
   d="M91.326,0.044H6.77c-3.716,0-6.726,3.036-6.726,6.78v136.44  c0,3.744,3.011,6.775,6.726,6.775h84.557c3.712,0,6.728-3.034,6.728-6.775l0.002-136.44C98.055,3.08,95.04,0.044,91.326,0.044z   M81.194,129.44c0,2.983-1.977,5.408-4.415,5.408h-55.51c-2.44,0-4.417-2.424-4.417-5.408V20.645c0-2.985,1.977-5.407,4.417-5.407  h55.51c2.438,0,4.415,2.422,4.415,5.407V129.44z"
   id="path706"
   stroke-width="0.0882"
   stroke="#060506"
   fill="#F7F7F7" /><g
   id="g2878"><path
     id="path708"
     d="M10.882,30.849c-1.277-1.421-1.718-3.229-1.788-3.548c-0.073,0.318-0.515,2.126-1.791,3.548  c-1.279,1.424-2.515,2.001-2.732,2.092c0.217,0.094,1.453,0.669,2.732,2.094c1.276,1.424,1.718,3.229,1.791,3.548  c0.069-0.319,0.51-2.124,1.788-3.548c1.281-1.425,2.515-2,2.73-2.094C13.397,32.85,12.163,32.273,10.882,30.849z"
     fill="#FF0800" /><path
     id="path710"
     d="M87.216,121.951c1.272,1.422,1.721,3.229,1.791,3.547c0.069-0.314,0.513-2.125,1.792-3.547  c1.272-1.424,2.512-2.003,2.727-2.094c-0.215-0.094-1.448-0.669-2.727-2.094c-1.279-1.426-1.723-3.229-1.792-3.546  c-0.07,0.314-0.519,2.12-1.791,3.546c-1.276,1.425-2.519,2-2.729,2.094C84.703,119.948,85.939,120.527,87.216,121.951z"
     fill="#FF0800" /><path
     id="path712"
     d="M9.252,8.954v1.413c0,0,1.094,0,1.361,0c0,0.339,0,8.876,0,8.876c0,0.986-0.17,1.688-0.505,2.087  c-0.331,0.417-0.916,0.626-1.742,0.626l0,0c-0.72,0-1.236-0.193-1.58-0.591c-0.346-0.403-0.522-1.019-0.522-1.828v-1.053H4.68v1.162  c0,1.222,0.311,2.171,0.923,2.821c0.615,0.642,1.529,0.967,2.717,0.967c1.224,0,2.186-0.343,2.861-1.021  c0.675-0.675,1.017-1.646,1.017-2.883c0,0,0-8.825,0-9.165c0.264,0,1.309,0,1.309,0V8.952L9.252,8.954L9.252,8.954z"
     fill="#FF0800" /><path
     id="path714"
     d="M86.918,127.939c-0.676,0.677-1.02,1.646-1.02,2.882c0,0,0,8.824,0,9.164c-0.265,0-1.31,0-1.31,0v1.413  h4.255v-1.413c0,0-1.094,0-1.36,0c0-0.34,0-8.877,0-8.877c0-0.986,0.17-1.688,0.505-2.085c0.329-0.418,0.914-0.627,1.742-0.627  c0.71,0,1.241,0.199,1.58,0.592c0.348,0.401,0.521,1.017,0.521,1.827v1.055h1.587v-1.164c0-1.221-0.312-2.169-0.926-2.815  c-0.612-0.646-1.525-0.969-2.717-0.969C88.556,126.918,87.592,127.262,86.918,127.939z"
     fill="#FF0800" /></g></svg>