<?xml version="1.0" encoding="UTF-8" standalone="no"?>
<!-- Generator: Adobe Illustrator 12.0.0, SVG Export Plug-In . SVG Version: 6.00 Build 51448)  -->
<svg
   xmlns:dc="http://purl.org/dc/elements/1.1/"
   xmlns:cc="http://web.resource.org/cc/"
   xmlns:rdf="http://www.w3.org/1999/02/22-rdf-syntax-ns#"
   xmlns:svg="http://www.w3.org/2000/svg"
   xmlns="http://www.w3.org/2000/svg"
   xmlns:xlink="http://www.w3.org/1999/xlink"
   xmlns:sodipodi="http://sodipodi.sourceforge.net/DTD/sodipodi-0.dtd"
   xmlns:inkscape="http://www.inkscape.org/namespaces/inkscape"
   version="1.1"
   id="图层_1"
   width="98.098"
   height="150.085"
   viewBox="0 0 98.098 150.085"
   overflow="visible"
   enable-background="new 0 0 98.098 150.085"
   xml:space="preserve"
   sodipodi:version="0.32"
   inkscape:version="0.45.1"
   sodipodi:docname="25.svg"
   sodipodi:docbase="/home/zhangxin/桌面/ceshi"
   inkscape:output_extension="org.inkscape.output.svg.inkscape"><metadata
   id="metadata612"><rdf:RDF><cc:Work
       rdf:about=""><dc:format>image/svg+xml</dc:format><dc:type
         rdf:resource="http://purl.org/dc/dcmitype/StillImage" /></cc:Work></rdf:RDF></metadata><defs
   id="defs610">
	
	
	
	
<radialGradient
   inkscape:collect="always"
   xlink:href="#XMLID_5_"
   id="radialGradient2449"
   gradientUnits="userSpaceOnUse"
   gradientTransform="matrix(-1.0687,0.1455,-0.1162,-0.9945,2064.3716,14.7578)"
   cx="1862.6196"
   cy="242.0552"
   r="14.6768" /><radialGradient
   inkscape:collect="always"
   xlink:href="#XMLID_6_"
   id="radialGradient2451"
   gradientUnits="userSpaceOnUse"
   gradientTransform="matrix(-1.0687,0.1455,-0.1368,-1.1709,2065.6074,26.3576)"
   cx="1856.5356"
   cy="212.8569"
   r="12.0913" /><radialGradient
   inkscape:collect="always"
   xlink:href="#XMLID_5_"
   id="radialGradient2699"
   gradientUnits="userSpaceOnUse"
   gradientTransform="matrix(-1.0687,0.1455,-0.1162,-0.9945,2064.3716,14.7578)"
   cx="1862.6196"
   cy="242.0552"
   r="14.6768" /><radialGradient
   inkscape:collect="always"
   xlink:href="#XMLID_6_"
   id="radialGradient2701"
   gradientUnits="userSpaceOnUse"
   gradientTransform="matrix(-1.0687,0.1455,-0.1368,-1.1709,2065.6074,26.3576)"
   cx="1856.5356"
   cy="212.8569"
   r="12.0913" /><radialGradient
   inkscape:collect="always"
   xlink:href="#XMLID_6_"
   id="radialGradient2750"
   gradientUnits="userSpaceOnUse"
   gradientTransform="matrix(-1.0687,0.1455,-0.1368,-1.1709,2065.6074,26.3576)"
   cx="1856.5356"
   cy="212.8569"
   r="12.0913" /><radialGradient
   inkscape:collect="always"
   xlink:href="#XMLID_5_"
   id="radialGradient2756"
   gradientUnits="userSpaceOnUse"
   gradientTransform="matrix(-1.0687,0.1455,-0.1162,-0.9945,2064.3716,14.7578)"
   cx="1862.6196"
   cy="242.0552"
   r="14.6768" />
	
<radialGradient
   inkscape:collect="always"
   xlink:href="#XMLID_6_"
   id="radialGradient2877"
   gradientUnits="userSpaceOnUse"
   gradientTransform="matrix(1.0687,-0.1455,0.1368,1.1709,-1967.3056,120.28117)"
   cx="1856.5356"
   cy="212.8569"
   r="12.0913" /><radialGradient
   inkscape:collect="always"
   xlink:href="#XMLID_5_"
   id="radialGradient2883"
   gradientUnits="userSpaceOnUse"
   gradientTransform="matrix(1.0687,-0.1455,0.1162,0.9945,-1966.0698,131.88097)"
   cx="1862.6196"
   cy="242.0552"
   r="14.6768" /></defs><sodipodi:namedview
   inkscape:window-height="713"
   inkscape:window-width="1024"
   inkscape:pageshadow="2"
   inkscape:pageopacity="0.0"
   guidetolerance="10.0"
   gridtolerance="10.0"
   objecttolerance="10.0"
   borderopacity="1.0"
   bordercolor="#666666"
   pagecolor="#ffffff"
   id="base"
   inkscape:zoom="3.2714793"
   inkscape:cx="49.048997"
   inkscape:cy="73.563108"
   inkscape:window-x="0"
   inkscape:window-y="0"
   inkscape:current-layer="图层_1" />



















































































<radialGradient
   id="XMLID_5_"
   cx="1862.6196"
   cy="242.0552"
   r="14.6768"
   gradientTransform="matrix(-1.0687,0.1455,-0.1162,-0.9945,2064.3716,14.7578)"
   gradientUnits="userSpaceOnUse">
	<stop
   offset="0"
   style="stop-color:#FFFFFF"
   id="stop332" />
	<stop
   offset="0.0614"
   style="stop-color:#F6F4F0"
   id="stop334" />
	<stop
   offset="0.1786"
   style="stop-color:#DFD8C9"
   id="stop336" />
	<stop
   offset="0.2753"
   style="stop-color:#CABDA5"
   id="stop338" />
	<stop
   offset="1"
   style="stop-color:#5A3D1B"
   id="stop340" />
</radialGradient>




<radialGradient
   id="XMLID_6_"
   cx="1856.5356"
   cy="212.8569"
   r="12.0913"
   gradientTransform="matrix(-1.0687,0.1455,-0.1368,-1.1709,2065.6074,26.3576)"
   gradientUnits="userSpaceOnUse">
	<stop
   offset="0"
   style="stop-color:#FFFFFF"
   id="stop351" />
	<stop
   offset="0.246"
   style="stop-color:#F4F4F0"
   id="stop353" />
	<stop
   offset="0.7158"
   style="stop-color:#D9D8C9"
   id="stop355" />
	<stop
   offset="1"
   style="stop-color:#C6C4AF"
   id="stop357" />
</radialGradient>

















<radialGradient
   id="XMLID_7_"
   cx="-223.082"
   cy="2956.6665"
   r="14.6775"
   gradientTransform="matrix(1.0687 -0.1455 0.1162 0.9945 -52.7495 -2868.9014)"
   gradientUnits="userSpaceOnUse">
	<stop
   offset="0"
   style="stop-color:#FFFFFF"
   id="stop394" />
	<stop
   offset="0.0614"
   style="stop-color:#F6F4F0"
   id="stop396" />
	<stop
   offset="0.1786"
   style="stop-color:#DFD8C9"
   id="stop398" />
	<stop
   offset="0.2753"
   style="stop-color:#CABDA5"
   id="stop400" />
	<stop
   offset="1"
   style="stop-color:#5A3D1B"
   id="stop402" />
</radialGradient>




<radialGradient
   id="XMLID_8_"
   cx="-229.145"
   cy="2518.5034"
   r="12.0931"
   gradientTransform="matrix(1.0687 -0.1455 0.1368 1.1709 -53.9796 -2880.5032)"
   gradientUnits="userSpaceOnUse">
	<stop
   offset="0"
   style="stop-color:#FFFFFF"
   id="stop413" />
	<stop
   offset="0.246"
   style="stop-color:#F4F4F0"
   id="stop415" />
	<stop
   offset="0.7158"
   style="stop-color:#D9D8C9"
   id="stop417" />
	<stop
   offset="1"
   style="stop-color:#C6C4AF"
   id="stop419" />
</radialGradient>



















































































<g
   id="g2956"><path
     style="fill:#f7f7f7;stroke:#060506;stroke-width:0.0882"
     id="path3"
     d="M 98.071501,143.2475 C 98.071501,146.9885 95.055501,150.0225 91.344501,150.0225 L 6.7885,150.0225 C 3.0725,150.0225 0.0625,146.9915 0.0625,143.2475 L 0.0625,6.8075087 C 0.0625,3.0635087 3.0715,0.027508683 6.7885,0.027508683 L 91.345501,0.027508683 C 95.059501,0.027508683 98.074501,3.0635087 98.074501,6.8075087 L 98.071501,143.2475 L 98.071501,143.2475 z " /><path
     style="fill:#060506"
     id="path121"
     d="" /><path
     style="fill:#212462"
     d="M 36.365807,84.035124 L 37.113807,84.035124 C 37.580807,93.143888 44.299807,96.844101 56.079807,95.463357 C 68.296807,94.03198 62.135807,82.999691 62.135807,82.999691 L 61.388807,82.999691 C 60.922807,73.890927 54.203807,70.190208 42.423807,71.571459 C 30.206807,73.002835 36.365807,84.035124 36.365807,84.035124 z "
     id="path2455" /><g
     transform="matrix(-1,0,0,-1,98.301807,146.63877)"
     id="g2457">
	<path
   d="M 66.722,61.937 C 66.844,61.572 67.233,61.379 67.59,61.506 C 67.944,61.631 68.136,62.027 68.012,62.391 C 67.889,62.755 67.498,62.948 67.144,62.822 C 66.789,62.695 66.597,62.3 66.722,61.937 z "
   id="path2459"
   style="fill:#0e0f6a" />
</g><g
     transform="matrix(-1,0,0,-1,98.301807,146.63877)"
     id="g2461">
	<path
   d="M 65.638,52.692 C 65.763,52.329 66.151,52.135 66.508,52.262 C 66.862,52.387 67.054,52.783 66.928,53.148 C 66.807,53.511 66.418,53.704 66.062,53.579 C 65.708,53.452 65.516,53.056 65.638,52.692 z "
   id="path2463"
   style="fill:#0e0f6a" />
</g><g
     transform="matrix(-1,0,0,-1,98.301807,146.63877)"
     id="g2465">
	<path
   d="M 63.742,43.775 C 63.866,43.412 64.258,43.218 64.61,43.345 C 64.967,43.47 65.156,43.867 65.033,44.23 C 64.909,44.594 64.521,44.787 64.166,44.663 C 63.807,44.536 63.618,44.139 63.742,43.775 z "
   id="path2467"
   style="fill:#0e0f6a" />
</g><g
     transform="matrix(-1,0,0,-1,98.301807,146.63877)"
     id="g2469">
	<path
   d="M 60.333,35.255 C 60.454,34.892 60.844,34.7 61.196,34.824 C 61.554,34.95 61.745,35.346 61.621,35.711 C 61.499,36.074 61.106,36.267 60.756,36.142 C 60.4,36.015 60.208,35.62 60.333,35.255 z "
   id="path2471"
   style="fill:#0e0f6a" />
</g><g
     transform="matrix(-1,0,0,-1,98.301807,146.63877)"
     id="g2473">
	<polygon
   points="48.803,30.279 48.803,30.278 48.801,30.279 48.801,30.28 48.801,30.281 48.803,30.279 "
   id="polygon2475"
   style="fill:#060506" />
</g><g
     transform="matrix(-1,0,0,-1,98.301807,146.63877)"
     id="g2477">
	<polygon
   points="48.836,30.313 48.83,30.309 48.831,30.311 48.837,30.315 48.836,30.313 "
   id="polygon2479"
   style="fill:#060506" />
</g><g
     transform="matrix(-1,0,0,-1,98.301807,146.63877)"
     id="g2481">
	<path
   d="M 70.043,60.915 C 69.83,60.462 69.509,60.079 69.079,59.778 L 69.009,59.726 L 69.071,59.664 C 69.399,59.345 69.636,58.976 69.78,58.569 C 70.254,57.223 69.697,55.743 68.468,55.051 L 68.388,55.006 L 68.45,54.938 C 68.69,54.662 68.874,54.348 68.992,54.004 C 69.478,52.611 68.855,51.071 67.547,50.422 L 67.466,50.381 L 67.524,50.31 C 67.729,50.052 67.886,49.768 67.991,49.466 C 68.461,48.13 67.912,46.655 66.695,45.959 L 66.618,45.915 L 66.68,45.847 C 66.904,45.578 67.076,45.278 67.19,44.951 C 67.711,43.455 66.947,41.792 65.484,41.243 L 65.402,41.213 L 65.447,41.137 C 65.564,40.942 65.645,40.774 65.703,40.608 C 66.23,39.096 65.453,37.426 63.974,36.888 C 63.891,36.858 63.797,36.831 63.683,36.804 L 63.597,36.783 L 63.634,36.702 L 63.642,36.685 C 63.675,36.609 63.704,36.537 63.735,36.461 C 63.993,35.729 63.953,34.938 63.627,34.234 C 63.302,33.532 62.727,33.001 62.008,32.74 C 61.455,32.541 60.861,32.524 60.279,32.695 L 60.237,32.706 L 60.2,32.675 C 59.982,32.446 59.808,32.272 59.649,32.13 C 56.53,29.318 53.688,27.986 51.208,28.172 C 49.115,28.329 48.069,29.555 48.025,29.607 C 47.91,29.747 47.875,29.942 47.933,30.117 L 57.647,58.706 C 57.679,58.8 57.736,58.883 57.81,58.945 L 68.236,67.464 C 68.394,67.592 68.612,67.616 68.791,67.524 C 68.973,67.43 69.079,67.238 69.07,67.031 C 69.07,67.026 69.031,66.141 68.924,64.698 L 68.921,64.653 L 68.955,64.63 C 69.52,64.276 69.948,63.748 70.16,63.141 C 70.411,62.41 70.37,61.62 70.043,60.915 z M 48.915,30.371 L 48.905,30.381 L 48.901,30.386 L 48.895,30.39 C 48.895,30.39 48.885,30.397 48.884,30.397 L 48.873,30.4 L 48.902,30.383 L 48.831,30.31 L 48.793,30.291 L 48.801,30.28 L 48.801,30.28 L 48.801,30.279 L 48.802,30.278 L 48.803,30.278 L 48.804,30.278 L 48.804,30.277 L 48.815,30.268 L 48.834,30.26 C 48.817,30.265 48.81,30.274 48.805,30.279 L 48.804,30.28 L 48.837,30.315 L 48.923,30.357 C 48.922,30.356 48.917,30.368 48.915,30.371 z M 69.187,62.79 C 69.014,63.282 68.656,63.668 68.176,63.876 C 67.971,63.964 67.845,64.175 67.863,64.398 L 67.963,65.744 L 67.975,65.912 L 67.845,65.806 L 58.576,58.235 L 58.559,58.221 L 58.552,58.201 L 49.017,30.138 L 49.001,30.089 L 49.039,30.056 C 49.38,29.774 50.128,29.29 51.314,29.212 C 53.47,29.069 56.113,30.35 58.96,32.913 C 59.193,33.125 59.441,33.377 59.693,33.661 C 59.843,33.83 60.081,33.88 60.283,33.786 C 60.721,33.586 61.205,33.566 61.644,33.727 C 62.102,33.892 62.472,34.232 62.683,34.683 C 62.892,35.132 62.914,35.638 62.753,36.109 C 62.651,36.386 62.485,36.634 62.259,36.846 C 62.091,37.002 62.043,37.255 62.143,37.463 C 62.248,37.685 62.505,37.838 62.711,37.802 C 63.027,37.748 63.332,37.772 63.61,37.874 C 64.559,38.22 65.056,39.288 64.717,40.256 C 64.593,40.615 64.361,40.925 64.043,41.152 C 63.843,41.295 63.77,41.554 63.858,41.784 C 63.943,41.993 64.154,42.13 64.372,42.117 C 64.626,42.1 64.867,42.135 65.098,42.217 C 65.557,42.384 65.925,42.724 66.135,43.174 C 66.345,43.625 66.367,44.131 66.204,44.599 C 66.016,45.137 65.642,45.438 65.364,45.597 C 65.162,45.711 65.057,45.952 65.114,46.182 L 65.135,46.265 C 65.186,46.473 65.359,46.631 65.568,46.66 C 65.714,46.681 65.812,46.703 65.901,46.735 C 66.848,47.08 67.346,48.148 67.009,49.117 C 66.875,49.495 66.627,49.815 66.286,50.042 C 66.108,50.16 66.021,50.37 66.06,50.577 L 66.082,50.688 C 66.082,50.688 66.099,50.773 66.099,50.772 C 66.142,50.999 66.322,51.167 66.541,51.193 C 66.685,51.212 66.799,51.236 66.895,51.273 C 67.356,51.441 67.724,51.781 67.934,52.231 C 68.142,52.682 68.168,53.188 68.004,53.657 C 67.809,54.216 67.406,54.52 67.107,54.676 C 66.911,54.777 66.797,54.996 66.835,55.219 L 66.825,55.197 C 66.839,55.219 66.846,55.292 66.846,55.295 L 66.844,55.285 C 66.844,55.285 66.851,55.32 66.85,55.32 C 66.886,55.554 67.075,55.735 67.303,55.76 C 67.456,55.776 67.577,55.8 67.69,55.839 C 68.149,56.006 68.518,56.345 68.727,56.796 C 68.937,57.247 68.962,57.753 68.798,58.222 C 68.621,58.723 68.247,59.112 67.743,59.315 C 67.529,59.4 67.395,59.624 67.423,59.857 C 67.447,60.101 67.628,60.315 67.841,60.357 C 67.933,60.375 68.005,60.39 68.062,60.41 C 68.521,60.577 68.891,60.916 69.102,61.367 C 69.325,61.813 69.35,62.32 69.187,62.79 z "
   id="path2483"
   style="fill:#212462" />
</g><g
     transform="matrix(-1,0,0,-1,98.301807,146.63877)"
     id="g2485">
	<path
   d="M 53.981,54.982 C 56.714,53.419 59.985,52.439 65.118,52.858 L 81.363,67.362 L 81.445,75.29 L 52.874,75.115 C 54.184,70.662 56.259,61.63 53.981,54.982 z "
   id="path2487"
   style="fill:#ffffff" />
</g><g
     transform="matrix(-1,0,0,-1,98.301807,146.63877)"
     id="g2489">
	<path
   d="M 58.788,57.809 C 60.529,56.974 62.652,56.459 65.258,56.459 L 82.622,71.644 L 57.885,71.644 C 58.795,67.684 59.555,62.449 58.788,57.809 z "
   id="path2491"
   style="fill:#d90000" />
</g><g
     transform="matrix(-1,0,0,-1,98.301807,146.63877)"
     id="g2493">
	<path
   d="M 71.617,67.846 C 71.701,67.753 71.765,67.642 71.805,67.514 C 71.941,67.051 71.684,66.561 71.232,66.422 C 70.956,66.334 70.67,66.4 70.454,66.57 C 70.35,66.38 70.178,66.226 69.956,66.157 C 69.5,66.017 69.018,66.278 68.884,66.74 C 68.819,66.964 68.844,67.193 68.939,67.386 C 68.605,67.421 68.307,67.655 68.203,68.004 C 68.066,68.466 68.32,68.957 68.776,69.097 C 68.884,69.132 68.996,69.142 69.102,69.132 C 69.04,69.555 69.29,69.972 69.703,70.101 C 70.155,70.241 70.64,69.98 70.774,69.517 C 70.787,69.47 70.796,69.424 70.803,69.376 C 70.866,69.422 70.944,69.458 71.024,69.483 C 71.479,69.623 71.961,69.362 72.096,68.9 C 72.218,68.473 72.008,68.023 71.617,67.846 z M 70.799,68.232 C 70.695,68.571 70.348,68.762 70.015,68.659 C 69.683,68.556 69.494,68.199 69.597,67.859 C 69.698,67.521 70.048,67.33 70.381,67.433 C 70.712,67.535 70.902,67.893 70.799,68.232 z "
   id="path2495"
   style="fill:#ffffff" />
</g><g
     transform="matrix(-1,0,0,-1,98.301807,146.63877)"
     id="g2497">
	<ellipse
   cx="66.144997"
   cy="61.448002"
   rx="0.61500001"
   ry="0.62800002"
   id="ellipse2499"
   sodipodi:cx="66.144997"
   sodipodi:cy="61.448002"
   sodipodi:rx="0.61500001"
   sodipodi:ry="0.62800002"
   style="fill:#ffffff" />
</g><g
     transform="matrix(-1,0,0,-1,98.301807,146.63877)"
     id="g2501">
	<path
   d="M 45.252,75.012 C 45.252,75.012 45.093,53.085 30.083,53.085 C 15.074,53.085 11.441,75.292 11.441,75.292 L 45.252,75.012 z "
   id="path2503"
   style="fill:#ffffff" />
</g><g
     transform="matrix(-1,0,0,-1,98.301807,146.63877)"
     id="g2505">
	<path
   d="M 16.848,71.713 C 17.185,69.953 20.22,56.978 29.765,56.978 C 39.897,56.978 40.337,71.407 40.34,71.713 L 16.848,71.713 z "
   id="path2507"
   style="fill:#d90000" />
</g><g
     transform="matrix(-1,0,0,-1,98.301807,146.63877)"
     id="g2509">
	<path
   d="M 29.472,66.151 C 29.729,67.016 30.626,67.504 31.473,67.241 C 31.623,67.194 31.764,67.127 31.888,67.042 C 31.899,67.129 31.915,67.217 31.942,67.304 C 32.201,68.168 33.096,68.657 33.944,68.394 C 34.715,68.154 35.179,67.374 35.061,66.584 C 35.262,66.603 35.47,66.584 35.676,66.521 C 36.524,66.257 37.001,65.344 36.744,64.479 C 36.551,63.828 35.994,63.39 35.369,63.327 C 35.546,62.966 35.594,62.538 35.47,62.119 C 35.212,61.256 34.316,60.767 33.467,61.029 C 33.054,61.158 32.73,61.442 32.534,61.799 C 32.135,61.483 31.597,61.361 31.078,61.522 C 30.231,61.784 29.752,62.698 30.01,63.564 C 30.081,63.801 30.201,64.009 30.353,64.182 C 29.624,64.513 29.233,65.353 29.472,66.151 z M 32.662,63.408 C 33.282,63.216 33.938,63.573 34.125,64.206 C 34.314,64.84 33.964,65.508 33.346,65.699 C 32.724,65.892 32.067,65.535 31.88,64.902 C 31.693,64.27 32.042,63.6 32.662,63.408 z "
   id="path2511"
   style="fill:#ffffff" />
</g><g
     transform="matrix(-1,0,0,-1,98.301807,146.63877)"
     id="g2513">
	<path
   d="M 21.101,66.536 C 21.262,67.08 21.824,67.387 22.358,67.221 C 22.451,67.192 22.54,67.149 22.616,67.096 C 22.624,67.15 22.636,67.205 22.652,67.261 C 22.814,67.803 23.377,68.11 23.908,67.945 C 24.392,67.795 24.683,67.306 24.609,66.809 C 24.735,66.822 24.865,66.809 24.994,66.77 C 25.528,66.605 25.827,66.03 25.665,65.487 C 25.543,65.077 25.194,64.803 24.801,64.763 C 24.913,64.536 24.942,64.269 24.864,64.006 C 24.703,63.464 24.139,63.157 23.608,63.322 C 23.35,63.402 23.145,63.58 23.022,63.805 C 22.773,63.605 22.435,63.53 22.108,63.631 C 21.577,63.796 21.275,64.37 21.438,64.912 C 21.482,65.061 21.559,65.192 21.654,65.301 C 21.197,65.508 20.952,66.036 21.101,66.536 z M 23.104,64.816 C 23.493,64.695 23.904,64.919 24.021,65.316 C 24.14,65.714 23.921,66.132 23.532,66.254 C 23.143,66.375 22.731,66.151 22.611,65.753 C 22.495,65.357 22.714,64.936 23.104,64.816 z "
   id="path2515"
   style="fill:#ffffff" />
</g><g
     transform="matrix(-1,0,0,-1,98.301807,146.63877)"
     id="g2517">
	<path
   d="M 25.951,63.14 C 25.951,63.835 26.503,64.398 27.183,64.398 C 27.863,64.398 28.415,63.835 28.415,63.14 C 28.415,62.446 27.863,61.884 27.183,61.884 C 26.502,61.884 25.951,62.447 25.951,63.14 z "
   id="path2519"
   style="fill:#ffffff" />
</g><g
     transform="matrix(-1,0,0,-1,98.301807,146.63877)"
     id="g2521">
	<path
   d="M 56.923,60.611 C 56.789,60.842 53.575,66.218 41.362,63.317 L 41.641,62.093 C 52.877,64.761 55.829,60.024 55.857,59.977 L 55.919,59.872 C 55.922,59.867 56.017,59.794 56.017,59.794 L 56.923,60.611 z "
   id="path2523"
   style="fill:#ffffff" />
</g><g
     transform="matrix(-1,0,0,-1,98.301807,146.63877)"
     id="g2525">
	<path
   d="M 56.865,63.609 C 55.594,64.973 51.44,68.152 41.763,65.947 C 41.328,65.848 40.734,64.401 40.734,64.401 C 52.706,67.578 56.255,62.411 56.286,62.359 L 56.347,62.271 C 56.349,62.267 56.434,62.203 56.434,62.203 C 56.434,62.203 57.15,63.303 56.865,63.609 z "
   id="path2527"
   style="fill:#ffffff" />
</g><g
     transform="matrix(-1,0,0,-1,98.301807,146.63877)"
     id="g2529">
	<path
   d="M 48.519,60.435 C 48.519,60.898 48.887,61.273 49.341,61.273 C 49.794,61.273 50.162,60.898 50.162,60.435 C 50.162,59.973 49.791,59.598 49.341,59.598 C 48.887,59.597 48.519,59.972 48.519,60.435 z "
   id="path2531"
   style="fill:#ffffff" />
</g><g
     transform="matrix(-1,0,0,-1,98.301807,146.63877)"
     id="g2533">
	<path
   d="M 62.95,44.752 C 64.061,49.802 61.766,54.627 57.828,55.531 C 53.888,56.432 49.79,53.069 48.682,48.018 C 47.571,42.968 49.865,38.143 53.806,37.24 C 57.746,36.338 61.839,39.701 62.95,44.752 z "
   id="path2535"
   style="fill:#ff8600" />
</g><g
     transform="matrix(-1,0,0,-1,98.301807,146.63877)"
     id="g2537">
	<path
   d="M 62.407,44.628 C 63.428,49.263 61.275,53.716 57.611,54.555 C 56.082,54.905 54.501,54.592 53.041,53.649 C 51.109,52.402 49.685,50.223 49.124,47.67 C 48.104,43.034 50.255,38.58 53.916,37.742 C 57.578,36.903 61.387,39.992 62.407,44.628 z M 53.693,36.737 C 49.488,37.7 46.994,42.705 48.136,47.895 C 48.755,50.712 50.345,53.127 52.5,54.519 C 54.166,55.597 56.062,55.967 57.832,55.561 C 62.038,54.598 64.528,49.593 63.392,44.404 C 62.249,39.214 57.9,35.775 53.693,36.737 z "
   id="path2539"
   style="fill:#060506" />
</g><g
     transform="matrix(-1,0,0,-1,98.301807,146.63877)"
     id="g2541">
	<path
   d="M 35.644,47.031 C 36.754,52.081 34.46,56.906 30.519,57.809 C 26.578,58.711 22.484,55.347 21.373,50.296 C 20.263,45.246 22.557,40.421 26.498,39.518 C 30.439,38.616 34.535,41.98 35.644,47.031 z "
   id="path2543"
   style="fill:#ff8600" />
</g><g
     transform="matrix(-1,0,0,-1,98.301807,146.63877)"
     id="g2545">
	<path
   d="M 35.101,46.906 C 36.12,51.542 33.967,55.995 30.305,56.834 C 28.774,57.184 27.193,56.871 25.733,55.928 C 23.802,54.68 22.375,52.501 21.814,49.948 C 20.794,45.312 22.945,40.859 26.608,40.02 C 30.271,39.182 34.081,42.271 35.101,46.906 z M 26.388,39.016 C 22.182,39.979 19.688,44.984 20.83,50.173 C 21.45,52.99 23.038,55.404 25.192,56.796 C 26.859,57.874 28.754,58.244 30.525,57.838 C 34.731,56.875 37.224,51.87 36.084,46.681 C 34.944,41.492 30.594,38.053 26.388,39.016 z "
   id="path2547"
   style="fill:#060506" />
</g><g
     transform="matrix(-1,0,0,-1,98.301807,146.63877)"
     id="g2549">
	<path
   d="M 23.523,41.781 C 26.499,42.18 29.325,44.914 30.058,48.744 C 31.066,54.029 28.365,57.154 28.365,57.154 L 27.176,57.007 C 27.176,57.007 29.517,54.214 28.664,50.137 C 27.974,46.845 25.932,44.279 23.489,43.072 C 23.482,43.446 23.476,43.829 23.473,44.222 C 25.455,45.375 27.069,47.586 27.679,50.362 C 28.23,52.865 27.644,54.986 26.167,56.86 C 27.356,57.779 29.517,57.852 30.707,57.412 C 33.582,55.526 34.351,51.586 33.419,47.344 C 32.279,42.154 27.929,38.716 23.724,39.678 C 23.684,39.687 23.647,39.701 23.609,39.712 C 23.579,40.297 23.547,40.999 23.523,41.781 z M 23.943,40.682 C 27.607,39.844 31.416,42.933 32.435,47.569 C 33.191,51.009 32.616,55.243 30.129,57.117 C 30.039,57.194 29.337,57.227 29.337,57.227 C 29.337,57.227 32.003,54.029 31.04,48.519 C 30.297,44.258 27.059,41.233 23.688,40.757 C 23.773,40.734 23.856,40.702 23.943,40.682 z "
   id="path2551"
   style="fill:#060506" />
</g><g
     transform="matrix(-1,0,0,-1,98.301807,146.63877)"
     id="g2553">
	<path
   d="M 64.458,64.425 C 66.873,65.058 69.277,63.795 69.277,63.795 C 69.277,63.795 67.764,61.509 65.349,60.876 C 62.931,60.244 60.527,61.505 60.527,61.505 C 60.527,61.505 62.043,63.792 64.458,64.425 z "
   id="path2555"
   style="fill:#ffffff" />
</g><g
     transform="matrix(-1,0,0,-1,98.301807,146.63877)"
     id="g2557">
	<path
   d="M 79.133,77.852 L 79.259,77.498 L 79.62,76.509 L 78.644,76.139 C 78.167,75.958 67.043,71.547 71.717,57.746 L 72.055,56.746 L 71.078,56.4 L 70.728,56.277 L 70.381,56.154 L 69.402,55.809 L 69.063,56.809 C 68.53,58.384 68.159,59.953 67.957,61.476 L 67.938,61.6 L 67.84,61.526 C 67.079,60.948 66.286,60.547 65.483,60.337 C 62.889,59.659 60.382,60.955 60.276,61.011 C 60.139,61.083 60.041,61.213 60,61.366 C 59.965,61.521 59.987,61.684 60.073,61.813 C 60.141,61.914 61.749,64.286 64.318,64.961 C 65.352,65.232 66.496,65.221 67.714,64.931 L 67.797,64.91 L 67.803,64.998 C 68.365,75.099 77.566,78.785 77.657,78.821 L 78.636,79.2 L 79,78.202 L 79.133,77.852 z M 67.817,62.986 L 67.806,63.17 C 67.794,63.351 67.784,63.537 67.781,63.714 L 67.78,63.769 L 67.726,63.784 C 66.941,64 65.758,64.193 64.595,63.888 C 63.211,63.525 62.135,62.561 61.478,61.816 L 61.405,61.734 L 61.509,61.697 C 62.439,61.368 63.833,61.051 65.22,61.413 C 66.107,61.645 66.974,62.155 67.796,62.926 L 67.817,62.95 L 67.817,62.986 L 67.817,62.986 z "
   id="path2559"
   style="fill:#070606" />
</g><g
     transform="matrix(-1,0,0,-1,98.301807,146.63877)"
     id="g2561">
	<path
   d="M 78.29,77.131 L 78.29,77.131 C 77.773,76.938 65.745,72.163 70.74,57.402 L 70.393,57.279 L 70.393,57.279 L 70.393,57.279 L 70.046,57.156 C 64.811,72.622 77.9,77.785 78.028,77.837 L 78.155,77.483 L 78.155,77.483 L 78.155,77.483 L 78.29,77.131 z "
   id="path2563"
   style="fill:#ffffff" />
</g><g
     transform="matrix(-1,0,0,-1,98.301807,146.63877)"
     id="g2565">
	<path
   d="M 68.415,50.023 C 66.926,50.485 66.076,52.095 66.53,53.619 C 66.655,54.038 66.87,54.404 67.136,54.707 C 65.854,55.29 65.163,56.77 65.582,58.177 C 66.036,59.699 67.611,60.56 69.104,60.097 C 69.371,60.014 69.617,59.894 69.833,59.745 C 69.854,59.899 69.886,60.054 69.932,60.207 C 70.387,61.73 71.964,62.59 73.454,62.127 C 74.811,61.704 75.633,60.332 75.424,58.941 C 75.778,58.973 76.145,58.941 76.507,58.83 C 77.999,58.365 78.84,56.754 78.389,55.232 C 78.049,54.083 77.067,53.314 75.966,53.202 C 76.277,52.564 76.361,51.813 76.143,51.077 C 75.69,49.556 74.111,48.695 72.619,49.157 C 71.89,49.383 71.317,49.884 70.973,50.512 C 70.278,49.954 69.331,49.737 68.415,50.023 z "
   id="path2567"
   style="fill:#d90000" />
</g><g
     transform="matrix(-1,0,0,-1,98.301807,146.63877)"
     id="g2569">
	<path
   d="M 75.993,59.555 L 75.999,59.493 L 76.061,59.485 C 76.275,59.462 76.48,59.419 76.672,59.36 C 78.444,58.806 79.454,56.882 78.914,55.07 C 78.602,54.011 77.795,53.168 76.757,52.817 L 76.694,52.795 L 76.714,52.729 C 76.86,52.122 76.848,51.495 76.676,50.914 C 76.136,49.102 74.246,48.075 72.469,48.624 C 71.844,48.819 71.285,49.194 70.865,49.71 L 70.828,49.755 L 70.777,49.728 C 69.988,49.313 69.094,49.228 68.26,49.488 C 66.481,50.041 65.475,51.965 66.015,53.778 C 66.087,54.023 66.189,54.26 66.314,54.483 L 66.347,54.539 L 66.293,54.578 C 65.147,55.442 64.653,56.952 65.064,58.334 C 65.328,59.213 65.912,59.936 66.705,60.369 C 67.499,60.801 68.409,60.891 69.267,60.625 C 69.291,60.618 69.319,60.605 69.346,60.595 C 69.366,60.587 69.388,60.577 69.408,60.57 L 69.474,60.546 L 69.498,60.612 C 70.134,62.278 71.94,63.176 73.615,62.656 C 74.961,62.241 75.916,60.994 75.993,59.555 z M 70.458,60.046 C 70.429,59.945 70.401,59.831 70.381,59.665 L 70.255,58.802 L 69.54,59.283 C 69.357,59.406 69.162,59.501 68.95,59.565 C 68.367,59.747 67.756,59.685 67.218,59.392 C 66.68,59.099 66.281,58.609 66.11,58.015 C 65.776,56.894 66.315,55.691 67.363,55.215 L 68.051,54.903 C 67.904,54.736 67.549,54.336 67.549,54.336 C 67.32,54.077 67.153,53.782 67.06,53.459 C 66.882,52.865 66.945,52.235 67.231,51.687 C 67.519,51.138 68.001,50.736 68.581,50.556 C 69.289,50.334 70.063,50.482 70.651,50.951 L 71.151,51.349 L 71.462,50.786 C 71.755,50.254 72.229,49.865 72.788,49.69 C 73.992,49.317 75.269,50.012 75.64,51.24 C 75.81,51.812 75.756,52.422 75.494,52.956 L 75.14,53.676 L 75.927,53.756 C 76.846,53.851 77.615,54.494 77.882,55.396 C 78.244,56.624 77.568,57.926 76.361,58.3 C 76.076,58.387 75.781,58.419 75.485,58.389 L 74.794,58.325 L 74.898,59.027 C 75.068,60.159 74.386,61.265 73.31,61.598 C 72.101,61.969 70.823,61.273 70.458,60.046 z "
   id="path2571"
   style="fill:#060506" />
</g><g
     transform="matrix(-1,0,0,-1,98.301807,146.63877)"
     id="g2573">
	<path
   d="M 71.207,53.347 C 72.3,53.008 73.453,53.637 73.782,54.751 C 74.114,55.866 73.501,57.044 72.407,57.381 C 71.314,57.721 70.161,57.092 69.828,55.977 C 69.498,54.864 70.114,53.686 71.207,53.347 z "
   id="path2575"
   style="fill:#ffffff" />
</g><g
     transform="matrix(-1,0,0,-1,98.301807,146.63877)"
     id="g2577">
	<path
   d="M 75.596,67.95 C 73.517,65.012 71.934,63.652 69.874,65.167 C 68.831,65.934 66.686,67.377 67.56,68.859 C 68.347,70.196 69.208,70.115 69.208,70.115 C 69.208,70.115 68.52,70.888 69.479,72.244 C 70.341,73.462 71.316,73.431 71.316,73.431 C 71.316,73.431 71.092,74.28 71.576,74.955 C 72.945,76.894 75.206,75.506 76.813,74.321 C 78.875,72.805 77.674,70.89 75.596,67.95 z "
   id="path2579"
   style="fill:#ffffff" />
</g><g
     transform="matrix(-1,0,0,-1,98.301807,146.63877)"
     id="g2581">
	<path
   d="M 76.457,73.811 C 74.186,75.483 72.876,75.715 72.075,74.586 C 71.78,74.169 71.916,73.593 71.916,73.593 C 71.966,73.407 71.921,73.207 71.807,73.052 C 71.694,72.898 71.508,72.805 71.319,72.802 C 71.293,72.802 70.631,72.781 69.988,71.877 C 69.355,70.983 69.675,70.536 69.675,70.536 C 69.845,70.342 69.897,70.063 69.779,69.832 C 69.668,69.599 69.438,69.462 69.183,69.487 C 69.162,69.487 68.645,69.473 68.092,68.535 C 67.6,67.701 68.85,66.69 70.06,65.808 L 70.24,65.676 C 71.55,64.715 72.655,64.86 75.101,68.317 C 77.399,71.576 77.886,72.758 76.457,73.811 z M 76.097,67.583 C 74.347,65.11 72.249,62.643 69.515,64.658 L 69.339,64.786 C 68.227,65.596 65.912,67.283 67.029,69.183 C 67.986,70.811 69.135,70.75 69.261,70.739 C 69.009,70.763 68.767,70.627 68.655,70.395 C 68.545,70.164 68.58,69.884 68.752,69.692 C 68.711,69.739 67.746,70.861 68.981,72.61 C 70.004,74.058 71.207,74.062 71.336,74.058 C 71.142,74.065 70.953,73.976 70.833,73.82 C 70.713,73.664 70.672,73.46 70.723,73.266 C 70.692,73.383 70.444,74.43 71.077,75.321 C 72.934,77.951 76.015,75.682 77.179,74.829 C 79.833,72.874 78.018,70.303 76.097,67.583 z "
   id="path2583"
   style="fill:#060506" />
</g><g
     transform="matrix(-1,0,0,-1,98.301807,146.63877)"
     id="g2585">
	<path
   d="M 47.649,75.047 C 47.649,74.257 48.274,73.615 49.05,73.615 C 49.823,73.615 50.453,74.256 50.453,75.047 C 50.453,75.837 49.824,76.477 49.05,76.477 C 48.275,76.477 47.649,75.837 47.649,75.047 z "
   id="path2587"
   style="fill:#060506" />
</g><g
     transform="matrix(-1,0,0,-1,98.301807,146.63877)"
     id="g2589">
	<path
   d="M 49.05,76.896 C 50.05,76.896 50.862,76.065 50.862,75.047 C 50.862,74.026 50.05,73.197 49.05,73.197 C 48.05,73.197 47.238,74.027 47.238,75.047 C 47.238,76.066 48.05,76.896 49.05,76.896 z M 48.059,75.047 C 48.059,74.489 48.502,74.035 49.049,74.035 C 49.597,74.035 50.041,74.489 50.041,75.047 C 50.041,75.603 49.597,76.058 49.049,76.058 C 48.503,76.058 48.059,75.604 48.059,75.047 z "
   id="path2591"
   style="fill:#ffffff" />
</g><g
     transform="matrix(-1,0,0,-1,98.301807,146.63877)"
     id="g2593">
	<path
   d="M 69.65,26.889 C 71.816,24.48 72.563,21.417 72.683,20.877 C 72.804,21.418 73.552,24.48 75.714,26.889 C 77.881,29.303 79.975,30.278 80.341,30.431 C 79.975,30.592 77.88,31.567 75.714,33.979 C 73.552,36.392 72.804,39.451 72.683,39.991 C 72.563,39.451 71.816,36.392 69.65,33.979 C 67.483,31.567 65.391,30.592 65.023,30.431 C 65.391,30.278 67.483,29.302 69.65,26.889 z "
   id="path2595"
   style="fill:#ff0800" />
</g><path
     d="M 68.322807,99.45777 C 67.380807,91.39677 59.594807,85.81777 50.931807,86.99677 C 42.269807,88.17677 36.012807,95.66777 36.952807,103.72777 C 37.894807,111.78977 45.681807,117.36877 54.343807,116.18977 C 63.006807,115.00977 69.264807,107.51877 68.322807,99.45777 z "
     id="path2597"
     style="fill:url(#radialGradient2883)" /><path
     d="M 55.369807,110.08977 C 55.369807,110.08977 54.731807,115.73177 46.512807,113.10777 C 38.285807,110.48377 41.979807,101.99477 41.979807,101.99477 C 41.979807,101.99477 44.625807,98.82677 44.221807,97.96077 C 43.161807,95.67477 43.200807,91.45577 50.159807,89.90477 C 57.115807,88.35377 57.954807,93.31277 57.668807,94.19677 C 57.668807,94.19677 65.779807,95.86977 65.579807,103.02377 C 65.373807,110.17677 58.328807,113.18977 55.369807,110.08977 z "
     id="path2599"
     style="fill:#f4ecd6;stroke:#dad2c0;stroke-width:0.17640001" /><path
     d="M 45.623807,109.96677 C 45.623807,109.96677 52.366807,114.36277 52.368807,107.71977 C 52.370807,101.07677 49.243807,97.63677 45.874807,99.90777 C 42.505807,102.17877 39.942807,105.78877 45.623807,109.96677 z "
     id="path2601"
     style="fill:#ffffff;stroke:#c1a48c;stroke-width:0.17640001" /><path
     d="M 62.270807,105.02277 C 62.270807,105.02277 59.602807,112.52477 55.511807,107.23177 C 51.422807,101.93977 51.797807,97.34477 55.880807,97.15577 C 59.962807,96.96677 64.224807,98.32477 62.270807,105.02277 z "
     id="path2603"
     style="fill:#ffffff;stroke:#c1a48c;stroke-width:0.17640001" /><path
     d="M 43.709807,94.62577 C 43.709807,94.62577 43.698807,96.50677 43.985807,96.99677 C 44.984807,98.70077 48.464807,99.53677 50.101807,97.36877 C 50.101807,97.36877 50.894807,96.54377 52.087807,97.16477 C 53.630807,97.96577 58.134807,96.27477 58.079807,94.41577 C 58.013807,92.15477 56.132807,88.85177 50.895807,89.56377 C 45.656807,90.27677 43.945807,93.31477 43.709807,94.62577 z "
     id="path2605"
     style="fill:url(#radialGradient2877);stroke:#c1a48c;stroke-width:0.17640001" /><path
     d="M 45.514807,95.48877 C 45.514807,95.48877 49.104807,89.56477 57.160807,92.09177"
     id="path2607"
     style="fill:none;stroke:#b29d94;stroke-width:0.17640001" /><path
     d="M 50.539807,96.54477 C 50.539807,96.54477 48.691807,95.11877 49.757807,89.83877"
     id="path2609"
     style="fill:none;stroke:#c6afa4;stroke-width:0.17640001" /><path
     d="M 50.693807,104.10377 C 50.482807,102.29577 48.736807,101.04477 46.793807,101.30977 C 44.855807,101.57377 43.447807,103.25477 43.658807,105.06177 C 43.871807,106.86977 45.615807,108.12077 47.558807,107.85577 C 49.502807,107.59077 50.905807,105.91077 50.693807,104.10377 z "
     id="path2611"
     style="fill:#33a02c" /><path
     d="M 50.357807,104.33477 C 50.170807,102.72777 48.617807,101.61677 46.891807,101.85177 C 45.163807,102.08677 43.916807,103.57877 44.108807,105.18477 C 44.296807,106.79177 45.844807,107.90277 47.574807,107.66777 C 49.297807,107.43377 50.546807,105.94077 50.357807,104.33477 z "
     id="path2613" /><path
     d="M 46.482807,103.86177 C 46.660807,103.39877 46.483807,102.92577 46.086807,102.80577 C 45.693807,102.68477 45.232807,102.96277 45.053807,103.42577 C 44.874807,103.88877 45.051807,104.36177 45.445807,104.48277 C 45.843807,104.60277 46.304807,104.32577 46.482807,103.86177 z "
     id="path2615"
     style="fill:#33a02c" /><path
     enable-background="new    "
     d="M 44.676807,105.54477 C 44.676807,105.54477 45.113807,107.05577 46.530807,106.98277 C 46.530807,106.98277 47.240807,106.40277 46.588807,106.37177 C 45.939807,106.33977 45.539807,106.27277 45.317807,105.45777 C 45.089807,104.64277 44.676807,105.54477 44.676807,105.54477 z "
     id="path2617"
     style="opacity:0.86000001;fill:#ffffff" /><path
     enable-background="new    "
     d="M 48.902807,103.60277 C 48.856807,103.20777 48.674807,102.90877 48.498807,102.93377 C 48.322807,102.95677 48.217807,103.29577 48.263807,103.69077 C 48.309807,104.08477 48.488807,104.38477 48.664807,104.35977 C 48.841807,104.33577 48.948807,103.99677 48.902807,103.60277 z "
     id="path2619"
     style="opacity:0.86000001;fill:#ffffff" /><path
     d="M 61.062807,100.83877 C 60.851807,99.03077 59.104807,97.78077 57.161807,98.04477 C 55.220807,98.30877 53.817807,99.98877 54.028807,101.79677 C 54.238807,103.60477 55.984807,104.85577 57.926807,104.59177 C 59.869807,104.32777 61.273807,102.64677 61.062807,100.83877 z "
     id="path2621"
     style="fill:#33a02c" /><path
     d="M 60.725807,101.06977 C 60.538807,99.46377 58.986807,98.35177 57.261807,98.58577 C 55.534807,98.82077 54.288807,100.31377 54.475807,101.92077 C 54.663807,103.52577 56.215807,104.63777 57.940807,104.40277 C 59.665807,104.16877 60.913807,102.67577 60.725807,101.06977 z "
     id="path2623" /><path
     d="M 56.850807,100.59777 C 57.026807,100.13477 56.852807,99.66177 56.458807,99.54177 C 56.064807,99.42177 55.600807,99.69877 55.422807,100.16277 C 55.245807,100.62577 55.420807,101.09777 55.813807,101.21777 C 56.209807,101.33877 56.673807,101.06077 56.850807,100.59777 z "
     id="path2625"
     style="fill:#33a02c" /><path
     enable-background="new    "
     d="M 55.043807,102.27977 C 55.043807,102.27977 55.480807,103.79077 56.898807,103.71777 C 56.898807,103.71777 57.609807,103.13777 56.956807,103.10677 C 56.305807,103.07377 55.908807,103.00777 55.681807,102.19277 C 55.457807,101.37877 55.043807,102.27977 55.043807,102.27977 z "
     id="path2627"
     style="opacity:0.86000001;fill:#ffffff" /><path
     enable-background="new    "
     d="M 59.270807,100.33877 C 59.224807,99.94477 59.042807,99.64577 58.866807,99.66977 C 58.690807,99.69377 58.585807,100.03277 58.631807,100.42677 C 58.677807,100.82077 58.857807,101.11977 59.032807,101.09577 C 59.209807,101.07177 59.315807,100.73277 59.270807,100.33877 z "
     id="path2629"
     style="opacity:0.86000001;fill:#ffffff" /><path
     d="M 50.497807,98.29477 C 50.434807,98.07577 50.277807,97.92777 50.145807,97.96477 C 50.014807,98.00177 49.958807,98.20877 50.020807,98.42777 C 50.084807,98.64677 50.241807,98.79477 50.371807,98.75777 C 50.503807,98.72177 50.559807,98.51377 50.497807,98.29477 z "
     id="path2631"
     style="fill:#a9775d" /><path
     d="M 51.286807,98.05977 C 51.221807,97.84077 51.065807,97.69277 50.933807,97.73077 C 50.802807,97.76677 50.747807,97.97477 50.808807,98.19377 C 50.871807,98.41277 51.028807,98.56077 51.160807,98.52277 C 51.291807,98.48777 51.347807,98.27977 51.286807,98.05977 z "
     id="path2633"
     style="fill:#a9775d" /><path
     d="M 42.310807,116.54277 C 40.706807,114.27877 39.128807,111.03577 38.152807,108.71977 C 40.256807,108.53777 44.585807,109.17677 47.037807,111.46377 C 50.387807,114.58877 50.681807,120.13577 49.513807,122.53777 C 49.158807,122.82677 48.737807,123.02977 48.271807,123.15377 C 46.157807,121.33877 44.126807,119.11677 42.310807,116.54277 z "
     id="path2635"
     style="fill:#ff8600" /><path
     d="M 51.093807,122.36377 C 53.070807,119.85177 51.570807,115.03977 47.676807,111.41077 C 44.405807,108.36077 40.483807,107.18777 38.129807,108.55777 L 37.738807,108.78577 L 37.909807,109.20977 C 38.962807,111.83077 40.364807,114.38877 42.076807,116.81477 C 43.901807,119.40077 45.972807,121.68777 48.232807,123.61277 L 48.411807,123.76477 L 48.641807,123.72777 C 49.673807,123.56477 50.520807,123.09277 51.093807,122.36377 z M 42.913807,116.20377 C 41.392807,114.04777 40.107807,111.73977 39.096807,109.34377 L 39.069807,109.27177 L 39.139807,109.24577 C 41.171807,108.52277 44.327807,109.70377 46.991807,112.18577 C 50.366807,115.33477 51.882807,119.69677 50.299807,121.70977 C 49.939807,122.16677 49.417807,122.47877 48.751807,122.63377 L 48.715807,122.64177 L 48.688807,122.61777 C 46.556807,120.77477 44.617807,118.61577 42.913807,116.20377 z "
     id="path2637"
     style="fill:#060506" /><path
     d="M 39.043807,111.18277 C 41.484807,110.71277 43.672807,112.09977 45.308807,113.36077 L 45.792807,112.70477 C 44.025807,111.34177 41.646807,109.84577 38.896807,110.37477 L 39.043807,111.18277 z "
     id="path2639"
     style="fill:#060506" /><path
     d="M 45.084807,114.79377 C 43.325807,113.17577 41.575807,112.34577 39.888807,112.32677 L 39.877807,113.14977 C 41.364807,113.16677 42.939807,113.92577 44.545807,115.40477 L 45.084807,114.79377 z "
     id="path2641"
     style="fill:#060506" /><path
     d="M 71.638807,108.97977 C 69.416807,105.00977 61.942807,105.09477 54.937807,109.16977 C 47.936807,113.24577 44.055807,119.76777 46.274807,123.73877 C 48.494807,127.71077 55.972807,127.62577 62.974807,123.54877 C 69.977807,119.47477 73.857807,112.95177 71.638807,108.97977 z "
     id="path2643"
     style="fill:#ff8600" /><path
     d="M 71.435807,113.23377 C 70.511807,116.67377 67.158807,120.42677 62.684807,123.02977 C 58.212807,125.63377 53.339807,126.66777 49.970807,125.72577 C 48.490807,125.31277 47.387807,124.52377 46.784807,123.44177 C 44.729807,119.76477 48.517807,113.59377 55.227807,109.68777 C 61.941807,105.78277 69.073807,105.59877 71.130807,109.27577 C 71.733807,110.35577 71.839807,111.72477 71.435807,113.23377 z M 72.562807,113.54877 C 73.051807,111.72777 72.907807,110.04477 72.146807,108.68377 C 69.729807,104.36277 62.044807,104.34777 54.646807,108.64977 C 47.250807,112.95477 43.352807,119.71077 45.766807,124.03277 C 46.527807,125.39477 47.871807,126.37777 49.661807,126.87577 C 53.321807,127.89677 58.534807,126.81977 63.265807,124.06577 C 67.998807,121.31377 71.561807,117.28277 72.562807,113.54877 z "
     id="path2645"
     style="fill:#060506" /><path
     d="M 46.556807,124.74277 L 46.592807,124.85877 C 46.613807,124.88377 46.670807,124.94877 46.670807,124.94877 C 47.784807,126.18177 49.507807,126.93977 51.651807,127.14177 C 52.968807,127.28477 54.421807,127.21377 55.969807,126.93277 C 58.559807,126.53377 61.273807,125.56977 63.815807,124.14477 C 69.376807,121.03277 73.283807,116.19877 73.537807,112.11777 L 73.559807,111.73977 L 73.214807,111.59877 C 73.201807,111.59277 73.186807,111.58777 73.171807,111.58377 C 73.156807,111.57777 73.141807,111.57277 73.126807,111.56677 L 73.080807,111.54777 L 73.080807,111.49777 C 73.079807,111.45277 73.080807,111.40577 73.080807,111.36077 C 73.081807,111.26977 73.082807,111.17577 73.076807,111.08777 L 73.057807,110.83877 L 72.880807,110.71277 L 72.855807,110.69477 L 72.850807,110.66277 C 72.810807,110.36977 72.749807,110.08477 72.671807,109.81877 L 72.637807,109.70277 C 72.615807,109.67877 72.555807,109.61277 72.556807,109.61277 C 69.541807,106.28177 62.516807,106.67877 55.853807,110.55677 C 49.192807,114.43877 45.281807,120.40277 46.556807,124.74277 z M 49.188807,125.42177 L 49.098807,125.37677 C 48.914807,125.28377 48.747807,125.18077 48.620807,125.10077 L 48.586807,125.07977 L 48.585807,125.03977 C 48.553807,123.18477 49.397807,121.08277 51.031807,118.96377 C 52.665807,116.84377 54.932807,114.90577 57.588807,113.36077 C 62.388807,110.56777 67.642807,109.58977 70.971807,110.86877 L 70.936807,111.01077 C 67.435807,110.53877 62.918807,111.61477 58.854807,113.88977 C 53.568807,116.84777 49.779807,121.33577 49.202807,125.32077 L 49.188807,125.42177 z M 71.837807,112.24877 L 71.829807,112.31477 C 71.604807,114.07777 70.650807,116.02277 69.069807,117.93877 C 67.463807,119.88377 65.318807,121.66577 62.863807,123.09377 C 60.030807,124.74277 56.948807,125.79977 54.183807,126.07077 C 52.694807,126.14577 51.372807,125.99277 50.256807,125.61277 L 50.200807,125.59377 L 50.207807,125.53377 C 50.445807,123.73877 51.435807,121.77677 53.066807,119.85877 C 54.701807,117.93877 56.871807,116.19177 59.344807,114.80677 C 63.668807,112.38577 68.432807,111.39977 71.774807,112.23377 L 71.837807,112.24877 z M 56.365807,111.46877 C 61.921807,108.23577 67.941807,107.48377 71.007807,109.64077 L 70.945807,109.77077 C 67.264807,108.58977 61.951807,109.61577 57.078807,112.44977 C 51.817807,115.51277 48.101807,120.08577 47.614807,124.09977 L 47.469807,124.10677 C 47.073807,122.25877 47.744807,119.96777 49.374807,117.65377 C 51.002807,115.34177 53.484807,113.14577 56.365807,111.46877 z "
     id="path2647"
     style="fill:#060506" /><path
     d="M 72.885807,112.62777 L 60.303807,117.20577 C 60.303807,117.20577 60.670807,116.26077 61.330807,114.71377 C 60.859807,114.28177 60.557807,113.66277 60.552807,112.96677 C 60.539807,111.64877 61.577807,110.56877 62.872807,110.55677 C 62.975807,110.55677 63.074807,110.57077 63.174807,110.58477 C 63.180807,110.57177 63.186807,110.55977 63.192807,110.54677 C 62.698807,110.11377 62.375807,109.48677 62.368807,108.77077 C 62.356807,107.45277 63.393807,106.37377 64.686807,106.36077 C 64.864807,106.35977 65.033807,106.38877 65.197807,106.42877 C 65.213807,106.39977 65.228807,106.37077 65.242807,106.34377 C 64.839807,105.92077 64.578807,105.35677 64.574807,104.71877 C 64.563807,103.40077 65.601807,102.32277 66.894807,102.30977 C 67.059807,102.30877 67.217807,102.33177 67.371807,102.36677 C 67.404807,102.30977 67.437807,102.25177 67.469807,102.19577 C 67.168807,101.79877 66.982807,101.30677 66.977807,100.76677 C 66.966807,99.44777 68.005807,98.36977 69.297807,98.35777 C 69.452807,98.35577 69.598807,98.37777 69.744807,98.40777 C 69.760807,98.38177 69.776807,98.35777 69.791807,98.33177 C 69.425807,97.91377 69.192807,97.37077 69.186807,96.76577 C 69.176807,95.44777 70.212807,94.36877 71.505807,94.35577 C 71.832807,94.35377 72.141807,94.42277 72.424807,94.54377 C 72.425807,94.54077 72.429807,94.53677 72.432807,94.53377 C 72.157807,94.14577 71.987807,93.67477 71.981807,93.15877 C 71.971807,91.84077 73.008807,90.76077 74.301807,90.74777 C 74.711807,90.74477 75.090807,90.85777 75.426807,91.04477 C 75.440807,91.03077 75.452807,91.01577 75.465807,91.00377 C 75.287807,90.67277 75.175807,90.29977 75.172807,89.89477 C 75.160807,88.57577 76.199807,87.49677 77.491807,87.48477 C 78.119807,87.47777 78.689807,87.72877 79.115807,88.13777 C 79.442807,87.95377 79.771807,87.79077 80.100807,87.65177 C 89.308807,83.78377 91.219807,88.84577 91.219807,88.84577 L 72.885807,112.62777 z "
     id="path2649"
     style="fill:#ffffff" /><path
     d="M 65.277807,116.50777 C 65.277807,116.50777 72.398807,92.62577 87.971807,88.27877 L 86.930807,95.26177 L 74.153807,110.93477 L 65.277807,116.50777 z "
     id="path2651"
     style="fill:#212462" /><path
     d="M 67.401807,113.48177 C 67.631807,112.86277 73.147807,98.26977 80.840807,93.91977 L 81.218807,94.61677 C 73.775807,98.82477 68.185807,113.61677 68.130807,113.76577 L 67.401807,113.48177 z "
     id="path2653"
     style="fill:#ffffff" /><path
     d="M 63.668807,112.97677 C 63.668807,112.59177 63.363807,112.27977 62.985807,112.27977 C 62.608807,112.27977 62.301807,112.59177 62.301807,112.97677 C 62.301807,113.36077 62.609807,113.67277 62.985807,113.67277 C 63.363807,113.67277 63.668807,113.36077 63.668807,112.97677 z "
     id="path2655"
     style="fill:#0e0f6a" /><path
     d="M 67.653807,104.59977 C 67.653807,104.21577 67.347807,103.90377 66.969807,103.90377 C 66.591807,103.90377 66.286807,104.21577 66.286807,104.59977 C 66.286807,104.98577 66.591807,105.29677 66.969807,105.29677 C 67.347807,105.29677 67.653807,104.98577 67.653807,104.59977 z "
     id="path2657"
     style="fill:#0e0f6a" /><path
     d="M 72.300807,96.80477 C 72.300807,96.42077 71.996807,96.10777 71.616807,96.10777 C 71.239807,96.10777 70.934807,96.41977 70.934807,96.80477 C 70.934807,97.18977 71.238807,97.50077 71.616807,97.50077 C 71.996807,97.50177 72.300807,97.18977 72.300807,96.80477 z "
     id="path2659"
     style="fill:#0e0f6a" /><ellipse
     transform="matrix(-1,0,0,-1,98.301807,146.63877)"
     cx="20.733999"
     cy="56.75"
     rx="0.68300003"
     ry="0.69599998"
     id="ellipse2661"
     sodipodi:cx="20.733999"
     sodipodi:cy="56.75"
     sodipodi:rx="0.68300003"
     sodipodi:ry="0.69599998"
     style="fill:#0e0f6a" /><path
     d="M 74.934807,115.31477 C 74.934807,115.31477 62.548807,133.42577 51.037807,133.42577 C 44.503807,133.42577 39.821807,118.59877 39.821807,118.59877 L 40.163807,114.86677 C 40.163807,114.86677 44.421807,119.68377 49.575807,119.24477 C 54.729807,118.80577 74.154807,110.93577 74.154807,110.93577 L 74.934807,115.31477 z "
     id="path2663"
     style="fill:#212462" /><path
     d="M 40.290807,119.08877 L 40.290807,119.08877 C 40.328807,119.18977 44.198807,129.28077 50.002807,130.04477 C 50.235807,130.07677 50.470807,130.11177 50.718807,130.14977 C 54.352807,130.71477 59.845807,131.56477 74.124807,114.02977 L 74.124807,114.02977 C 74.226807,113.90377 74.410807,113.88477 74.535807,113.99077 C 74.659807,114.09577 74.678807,114.28477 74.573807,114.41077 L 74.573807,114.41077 C 60.085807,132.20477 54.394807,131.32477 50.630807,130.74177 C 50.386807,130.70277 50.154807,130.66677 49.929807,130.63777 C 43.780807,129.82777 39.907807,119.73277 39.744807,119.30377 L 39.744807,119.30377 C 39.685807,119.14977 39.763807,118.97577 39.912807,118.91777 C 40.062807,118.85777 40.232807,118.93377 40.290807,119.08877 L 40.290807,119.08877 z "
     id="path2665"
     style="fill:#ffffff" /><path
     d="M 67.350807,115.48777 C 66.257807,114.90477 62.688807,115.08477 62.688807,115.08477 C 62.688807,115.08477 64.579807,118.17777 65.674807,118.76077 C 66.765807,119.34377 68.025807,119.08277 68.489807,118.17877 C 68.953807,117.27577 68.442807,116.07077 67.350807,115.48777 z "
     id="path2667"
     style="fill:#ffffff" /><path
     d="M 59.255807,121.42477 C 58.636807,120.33777 58.654807,116.69077 58.654807,116.69077 C 58.654807,116.69077 61.766807,118.48277 62.385807,119.57077 C 63.004807,120.65777 62.804807,121.95477 61.939807,122.46677 C 61.078807,122.98077 59.872807,122.51177 59.255807,121.42477 z "
     id="path2669"
     style="fill:#ffffff" /><path
     d="M 52.031807,122.76977 C 49.987807,122.76977 48.329807,121.07977 48.329807,118.99377 C 48.329807,116.90977 49.986807,115.21777 52.031807,115.21777 C 54.074807,115.21777 57.438807,118.99377 57.438807,118.99377 C 57.438807,118.99377 54.074807,122.76977 52.031807,122.76977 z "
     id="path2671"
     style="fill:#ffffff" /><path
     d="M 52.031807,123.36577 C 54.268807,123.36577 57.510807,119.80177 57.871807,119.39377 L 58.231807,118.99277 L 57.871807,118.59177 C 57.509807,118.18377 54.268807,114.61877 52.031807,114.61877 C 49.667807,114.61877 47.744807,116.58077 47.744807,118.99277 C 47.744807,121.40477 49.667807,123.36577 52.031807,123.36577 z M 51.939807,115.42277 C 53.263807,115.42277 55.644807,117.45477 57.109807,118.99377 C 55.644807,120.53177 53.263807,122.56477 51.939807,122.56477 C 50.009807,122.56477 48.439807,120.96277 48.439807,118.99377 C 48.439807,117.02377 50.009807,115.42277 51.939807,115.42277 z "
     id="path2673"
     style="fill:#060506" /><path
     d="M 51.953807,121.29777 C 50.704807,121.29777 49.693807,120.26677 49.693807,118.99377 C 49.693807,117.72077 50.704807,116.68877 51.953807,116.68877 C 53.199807,116.68877 55.253807,118.99377 55.253807,118.99377 C 55.253807,118.99377 53.199807,121.29777 51.953807,121.29777 z "
     id="path2675"
     style="fill:#060506" /><path
     d="M 44.638807,122.76977 C 46.685807,122.76977 48.342807,121.07977 48.342807,118.99377 C 48.342807,116.90977 46.685807,115.21777 44.638807,115.21777 C 42.594807,115.21777 39.232807,118.99377 39.232807,118.99377 C 39.232807,118.99377 42.594807,122.76977 44.638807,122.76977 z "
     id="path2677"
     style="fill:#ffffff" /><path
     d="M 38.798807,119.39477 C 39.161807,119.80277 42.402807,123.36677 44.641807,123.36677 C 45.787807,123.36677 46.865807,122.91177 47.669807,122.08577 C 48.481807,121.25977 48.926807,120.16177 48.926807,118.99377 C 48.926807,117.82577 48.480807,116.72677 47.669807,115.90177 C 46.860807,115.07477 45.784807,114.61977 44.641807,114.61977 C 42.405807,114.61977 39.162807,118.18377 38.798807,118.59277 L 38.444807,118.99377 L 38.798807,119.39477 z M 44.731807,115.42277 C 45.665807,115.42277 46.543807,115.79477 47.208807,116.46977 C 47.865807,117.14477 48.231807,118.04077 48.231807,118.99377 C 48.231807,119.94777 47.865807,120.84377 47.208807,121.51777 C 46.543807,122.19377 45.665807,122.56477 44.731807,122.56477 C 43.407807,122.56477 41.024807,120.53177 39.560807,118.99377 C 41.024807,117.45477 43.407807,115.42277 44.731807,115.42277 z "
     id="path2679"
     style="fill:#060506" /><path
     d="M 44.718807,121.29777 C 45.966807,121.29777 46.978807,120.26677 46.978807,118.99377 C 46.978807,117.72077 45.966807,116.68877 44.718807,116.68877 C 43.470807,116.68877 41.414807,118.99377 41.414807,118.99377 C 41.414807,118.99377 43.469807,121.29777 44.718807,121.29777 z "
     id="path2681"
     style="fill:#060506" /><path
     d="M 52.036807,122.76277 C 52.036807,120.67777 50.378807,118.98777 48.335807,118.98777 C 46.291807,118.98777 44.634807,120.67677 44.634807,122.76277 C 44.634807,124.84877 48.335807,128.28277 48.335807,128.28277 C 48.335807,128.28277 52.036807,124.84877 52.036807,122.76277 z "
     id="path2683"
     style="fill:#ffffff" /><path
     d="M 47.941807,128.72377 L 48.335807,129.08877 L 48.729807,128.72377 C 49.126807,128.35477 52.621807,125.04677 52.621807,122.76377 C 52.621807,121.59577 52.175807,120.49777 51.365807,119.67177 C 50.557807,118.84577 49.480807,118.39077 48.335807,118.39077 C 45.971807,118.39077 44.047807,120.35277 44.047807,122.76377 C 44.049807,125.04677 47.542807,128.35477 47.941807,128.72377 z M 48.335807,119.14477 C 49.259807,119.14477 50.130807,119.51277 50.784807,120.18077 C 51.439807,120.84777 51.799807,121.73477 51.799807,122.67977 C 51.799807,124.01777 49.827807,126.42177 48.336807,127.90277 C 46.842807,126.42277 44.871807,124.01777 44.871807,122.67977 C 44.870807,120.72977 46.424807,119.14477 48.335807,119.14477 z "
     id="path2685"
     style="fill:#060506" /><path
     d="M 50.594807,122.68477 C 50.594807,121.41177 49.582807,120.37977 48.335807,120.37977 C 47.086807,120.37977 46.076807,121.41077 46.076807,122.68477 C 46.076807,123.95677 48.335807,126.05277 48.335807,126.05277 C 48.335807,126.05277 50.594807,123.95677 50.594807,122.68477 z "
     id="path2687"
     style="fill:#060506" /><path
     d="M 52.036807,115.22277 C 52.036807,117.30777 50.378807,118.99777 48.335807,118.99777 C 46.291807,118.99777 44.634807,117.30777 44.634807,115.22277 C 44.634807,113.13777 48.335807,109.70377 48.335807,109.70377 C 48.335807,109.70377 52.036807,113.13777 52.036807,115.22277 z "
     id="path2689"
     style="fill:#ffffff" /><path
     d="M 48.335807,119.59577 C 49.481807,119.59577 50.557807,119.14177 51.365807,118.31577 C 52.175807,117.48877 52.620807,116.39177 52.620807,115.22277 C 52.620807,112.93877 49.126807,109.63177 48.729807,109.26277 L 48.334807,108.89777 L 47.940807,109.26277 C 47.543807,109.63177 44.044807,112.93977 44.044807,115.22277 C 44.049807,117.63377 45.971807,119.59577 48.335807,119.59577 z M 48.729807,110.14677 L 48.729807,110.14677 L 48.729807,110.14677 C 48.728807,110.14677 48.729807,110.14677 48.729807,110.14677 z M 48.335807,110.16177 C 49.800807,111.61377 51.738807,113.97677 51.738807,115.29277 C 51.738807,116.22077 51.384807,117.09277 50.741807,117.74877 C 50.098807,118.40477 49.243807,118.76577 48.334807,118.76577 C 46.457807,118.76577 44.932807,117.20777 44.932807,115.29277 C 44.931807,113.97877 46.868807,111.61677 48.335807,110.16177 z "
     id="path2691"
     style="fill:#060506" /><path
     d="M 50.594807,115.30277 C 50.594807,116.57577 49.582807,117.60677 48.335807,117.60677 C 47.086807,117.60677 46.076807,116.57577 46.076807,115.30277 C 46.076807,114.03077 48.335807,111.93477 48.335807,111.93477 C 48.335807,111.93477 50.594807,114.03077 50.594807,115.30277 z "
     id="path2693"
     style="fill:#060506" /><ellipse
     transform="matrix(-1,0,0,-1,98.301807,146.63877)"
     cx="49.966"
     cy="27.638"
     rx="2.027"
     ry="2.0680001"
     id="ellipse2695"
     sodipodi:cx="49.966"
     sodipodi:cy="27.638"
     sodipodi:rx="2.027"
     sodipodi:ry="2.0680001"
     style="fill:#ffffff" /><path
     d="M 49.791807,119.00077 C 49.791807,118.17977 49.140807,117.51477 48.335807,117.51477 C 47.531807,117.51477 46.878807,118.17977 46.878807,119.00077 C 46.878807,119.82077 47.530807,120.48577 48.335807,120.48577 C 49.140807,120.48577 49.791807,119.82077 49.791807,119.00077 z "
     id="path2697"
     style="fill:#d90000" /><path
     id="path5"
     d="M 61.936,62.603646 L 61.188,62.603646 C 60.721,53.494882 54.002,49.794669 42.222,51.175413 C 30.005,52.60679 36.166,63.639079 36.166,63.639079 L 36.913,63.639079 C 37.379,72.747843 44.098,76.448562 55.878,75.067311 C 68.095,73.635935 61.936,62.603646 61.936,62.603646 z "
     style="fill:#212462" /><g
     id="g143">
	<path
   style="fill:#0e0f6a"
   id="path145"
   d="M 66.722,61.937 C 66.844,61.572 67.233,61.379 67.59,61.506 C 67.944,61.631 68.136,62.027 68.012,62.391 C 67.889,62.755 67.498,62.948 67.144,62.822 C 66.789,62.695 66.597,62.3 66.722,61.937 z " />
</g><g
     id="g147">
	<path
   style="fill:#0e0f6a"
   id="path149"
   d="M 65.638,52.692 C 65.763,52.329 66.151,52.135 66.508,52.262 C 66.862,52.387 67.054,52.783 66.928,53.148 C 66.807,53.511 66.418,53.704 66.062,53.579 C 65.708,53.452 65.516,53.056 65.638,52.692 z " />
</g><g
     id="g151">
	<path
   style="fill:#0e0f6a"
   id="path153"
   d="M 63.742,43.775 C 63.866,43.412 64.258,43.218 64.61,43.345 C 64.967,43.47 65.156,43.867 65.033,44.23 C 64.909,44.594 64.521,44.787 64.166,44.663 C 63.807,44.536 63.618,44.139 63.742,43.775 z " />
</g><g
     id="g155">
	<path
   style="fill:#0e0f6a"
   id="path157"
   d="M 60.333,35.255 C 60.454,34.892 60.844,34.7 61.196,34.824 C 61.554,34.95 61.745,35.346 61.621,35.711 C 61.499,36.074 61.106,36.267 60.756,36.142 C 60.4,36.015 60.208,35.62 60.333,35.255 z " />
</g><g
     id="g159">
	<polygon
   style="fill:#060506"
   id="polygon161"
   points="48.803,30.279 48.803,30.278 48.801,30.279 48.801,30.28 48.801,30.281 48.803,30.279 " />
</g><g
     id="g163">
	<polygon
   style="fill:#060506"
   id="polygon165"
   points="48.836,30.313 48.83,30.309 48.831,30.311 48.837,30.315 48.836,30.313 " />
</g><g
     id="g167">
	<path
   style="fill:#212462"
   id="path169"
   d="M 70.043,60.915 C 69.83,60.462 69.509,60.079 69.079,59.778 L 69.009,59.726 L 69.071,59.664 C 69.399,59.345 69.636,58.976 69.78,58.569 C 70.254,57.223 69.697,55.743 68.468,55.051 L 68.388,55.006 L 68.45,54.938 C 68.69,54.662 68.874,54.348 68.992,54.004 C 69.478,52.611 68.855,51.071 67.547,50.422 L 67.466,50.381 L 67.524,50.31 C 67.729,50.052 67.886,49.768 67.991,49.466 C 68.461,48.13 67.912,46.655 66.695,45.959 L 66.618,45.915 L 66.68,45.847 C 66.904,45.578 67.076,45.278 67.19,44.951 C 67.711,43.455 66.947,41.792 65.484,41.243 L 65.402,41.213 L 65.447,41.137 C 65.564,40.942 65.645,40.774 65.703,40.608 C 66.23,39.096 65.453,37.426 63.974,36.888 C 63.891,36.858 63.797,36.831 63.683,36.804 L 63.597,36.783 L 63.634,36.702 L 63.642,36.685 C 63.675,36.609 63.704,36.537 63.735,36.461 C 63.993,35.729 63.953,34.938 63.627,34.234 C 63.302,33.532 62.727,33.001 62.008,32.74 C 61.455,32.541 60.861,32.524 60.279,32.695 L 60.237,32.706 L 60.2,32.675 C 59.982,32.446 59.808,32.272 59.649,32.13 C 56.53,29.318 53.688,27.986 51.208,28.172 C 49.115,28.329 48.069,29.555 48.025,29.607 C 47.91,29.747 47.875,29.942 47.933,30.117 L 57.647,58.706 C 57.679,58.8 57.736,58.883 57.81,58.945 L 68.236,67.464 C 68.394,67.592 68.612,67.616 68.791,67.524 C 68.973,67.43 69.079,67.238 69.07,67.031 C 69.07,67.026 69.031,66.141 68.924,64.698 L 68.921,64.653 L 68.955,64.63 C 69.52,64.276 69.948,63.748 70.16,63.141 C 70.411,62.41 70.37,61.62 70.043,60.915 z M 48.915,30.371 L 48.905,30.381 L 48.901,30.386 L 48.895,30.39 C 48.895,30.39 48.885,30.397 48.884,30.397 L 48.873,30.4 L 48.902,30.383 L 48.831,30.31 L 48.793,30.291 L 48.801,30.28 L 48.801,30.28 L 48.801,30.279 L 48.802,30.278 L 48.803,30.278 L 48.804,30.278 L 48.804,30.277 L 48.815,30.268 L 48.834,30.26 C 48.817,30.265 48.81,30.274 48.805,30.279 L 48.804,30.28 L 48.837,30.315 L 48.923,30.357 C 48.922,30.356 48.917,30.368 48.915,30.371 z M 69.187,62.79 C 69.014,63.282 68.656,63.668 68.176,63.876 C 67.971,63.964 67.845,64.175 67.863,64.398 L 67.963,65.744 L 67.975,65.912 L 67.845,65.806 L 58.576,58.235 L 58.559,58.221 L 58.552,58.201 L 49.017,30.138 L 49.001,30.089 L 49.039,30.056 C 49.38,29.774 50.128,29.29 51.314,29.212 C 53.47,29.069 56.113,30.35 58.96,32.913 C 59.193,33.125 59.441,33.377 59.693,33.661 C 59.843,33.83 60.081,33.88 60.283,33.786 C 60.721,33.586 61.205,33.566 61.644,33.727 C 62.102,33.892 62.472,34.232 62.683,34.683 C 62.892,35.132 62.914,35.638 62.753,36.109 C 62.651,36.386 62.485,36.634 62.259,36.846 C 62.091,37.002 62.043,37.255 62.143,37.463 C 62.248,37.685 62.505,37.838 62.711,37.802 C 63.027,37.748 63.332,37.772 63.61,37.874 C 64.559,38.22 65.056,39.288 64.717,40.256 C 64.593,40.615 64.361,40.925 64.043,41.152 C 63.843,41.295 63.77,41.554 63.858,41.784 C 63.943,41.993 64.154,42.13 64.372,42.117 C 64.626,42.1 64.867,42.135 65.098,42.217 C 65.557,42.384 65.925,42.724 66.135,43.174 C 66.345,43.625 66.367,44.131 66.204,44.599 C 66.016,45.137 65.642,45.438 65.364,45.597 C 65.162,45.711 65.057,45.952 65.114,46.182 L 65.135,46.265 C 65.186,46.473 65.359,46.631 65.568,46.66 C 65.714,46.681 65.812,46.703 65.901,46.735 C 66.848,47.08 67.346,48.148 67.009,49.117 C 66.875,49.495 66.627,49.815 66.286,50.042 C 66.108,50.16 66.021,50.37 66.06,50.577 L 66.082,50.688 C 66.082,50.688 66.099,50.773 66.099,50.772 C 66.142,50.999 66.322,51.167 66.541,51.193 C 66.685,51.212 66.799,51.236 66.895,51.273 C 67.356,51.441 67.724,51.781 67.934,52.231 C 68.142,52.682 68.168,53.188 68.004,53.657 C 67.809,54.216 67.406,54.52 67.107,54.676 C 66.911,54.777 66.797,54.996 66.835,55.219 L 66.825,55.197 C 66.839,55.219 66.846,55.292 66.846,55.295 L 66.844,55.285 C 66.844,55.285 66.851,55.32 66.85,55.32 C 66.886,55.554 67.075,55.735 67.303,55.76 C 67.456,55.776 67.577,55.8 67.69,55.839 C 68.149,56.006 68.518,56.345 68.727,56.796 C 68.937,57.247 68.962,57.753 68.798,58.222 C 68.621,58.723 68.247,59.112 67.743,59.315 C 67.529,59.4 67.395,59.624 67.423,59.857 C 67.447,60.101 67.628,60.315 67.841,60.357 C 67.933,60.375 68.005,60.39 68.062,60.41 C 68.521,60.577 68.891,60.916 69.102,61.367 C 69.325,61.813 69.35,62.32 69.187,62.79 z " />
</g><g
     id="g171">
	<path
   style="fill:#ffffff"
   id="path173"
   d="M 53.981,54.982 C 56.714,53.419 59.985,52.439 65.118,52.858 L 81.363,67.362 L 81.445,75.29 L 52.874,75.115 C 54.184,70.662 56.259,61.63 53.981,54.982 z " />
</g><g
     id="g175">
	<path
   style="fill:#d90000"
   id="path177"
   d="M 58.788,57.809 C 60.529,56.974 62.652,56.459 65.258,56.459 L 82.622,71.644 L 57.885,71.644 C 58.795,67.684 59.555,62.449 58.788,57.809 z " />
</g><g
     id="g179">
	<path
   style="fill:#ffffff"
   id="path181"
   d="M 71.617,67.846 C 71.701,67.753 71.765,67.642 71.805,67.514 C 71.941,67.051 71.684,66.561 71.232,66.422 C 70.956,66.334 70.67,66.4 70.454,66.57 C 70.35,66.38 70.178,66.226 69.956,66.157 C 69.5,66.017 69.018,66.278 68.884,66.74 C 68.819,66.964 68.844,67.193 68.939,67.386 C 68.605,67.421 68.307,67.655 68.203,68.004 C 68.066,68.466 68.32,68.957 68.776,69.097 C 68.884,69.132 68.996,69.142 69.102,69.132 C 69.04,69.555 69.29,69.972 69.703,70.101 C 70.155,70.241 70.64,69.98 70.774,69.517 C 70.787,69.47 70.796,69.424 70.803,69.376 C 70.866,69.422 70.944,69.458 71.024,69.483 C 71.479,69.623 71.961,69.362 72.096,68.9 C 72.218,68.473 72.008,68.023 71.617,67.846 z M 70.799,68.232 C 70.695,68.571 70.348,68.762 70.015,68.659 C 69.683,68.556 69.494,68.199 69.597,67.859 C 69.698,67.521 70.048,67.33 70.381,67.433 C 70.712,67.535 70.902,67.893 70.799,68.232 z " />
</g><g
     id="g183">
	<ellipse
   style="fill:#ffffff"
   sodipodi:ry="0.62800002"
   sodipodi:rx="0.61500001"
   sodipodi:cy="61.448002"
   sodipodi:cx="66.144997"
   id="ellipse185"
   ry="0.62800002"
   rx="0.61500001"
   cy="61.448002"
   cx="66.144997" />
</g><g
     id="g187">
	<path
   style="fill:#ffffff"
   id="path189"
   d="M 45.252,75.012 C 45.252,75.012 45.093,53.085 30.083,53.085 C 15.074,53.085 11.441,75.292 11.441,75.292 L 45.252,75.012 z " />
</g><g
     id="g191">
	<path
   style="fill:#d90000"
   id="path193"
   d="M 16.848,71.713 C 17.185,69.953 20.22,56.978 29.765,56.978 C 39.897,56.978 40.337,71.407 40.34,71.713 L 16.848,71.713 z " />
</g><g
     id="g195">
	<path
   style="fill:#ffffff"
   id="path197"
   d="M 29.472,66.151 C 29.729,67.016 30.626,67.504 31.473,67.241 C 31.623,67.194 31.764,67.127 31.888,67.042 C 31.899,67.129 31.915,67.217 31.942,67.304 C 32.201,68.168 33.096,68.657 33.944,68.394 C 34.715,68.154 35.179,67.374 35.061,66.584 C 35.262,66.603 35.47,66.584 35.676,66.521 C 36.524,66.257 37.001,65.344 36.744,64.479 C 36.551,63.828 35.994,63.39 35.369,63.327 C 35.546,62.966 35.594,62.538 35.47,62.119 C 35.212,61.256 34.316,60.767 33.467,61.029 C 33.054,61.158 32.73,61.442 32.534,61.799 C 32.135,61.483 31.597,61.361 31.078,61.522 C 30.231,61.784 29.752,62.698 30.01,63.564 C 30.081,63.801 30.201,64.009 30.353,64.182 C 29.624,64.513 29.233,65.353 29.472,66.151 z M 32.662,63.408 C 33.282,63.216 33.938,63.573 34.125,64.206 C 34.314,64.84 33.964,65.508 33.346,65.699 C 32.724,65.892 32.067,65.535 31.88,64.902 C 31.693,64.27 32.042,63.6 32.662,63.408 z " />
</g><g
     id="g199">
	<path
   style="fill:#ffffff"
   id="path201"
   d="M 21.101,66.536 C 21.262,67.08 21.824,67.387 22.358,67.221 C 22.451,67.192 22.54,67.149 22.616,67.096 C 22.624,67.15 22.636,67.205 22.652,67.261 C 22.814,67.803 23.377,68.11 23.908,67.945 C 24.392,67.795 24.683,67.306 24.609,66.809 C 24.735,66.822 24.865,66.809 24.994,66.77 C 25.528,66.605 25.827,66.03 25.665,65.487 C 25.543,65.077 25.194,64.803 24.801,64.763 C 24.913,64.536 24.942,64.269 24.864,64.006 C 24.703,63.464 24.139,63.157 23.608,63.322 C 23.35,63.402 23.145,63.58 23.022,63.805 C 22.773,63.605 22.435,63.53 22.108,63.631 C 21.577,63.796 21.275,64.37 21.438,64.912 C 21.482,65.061 21.559,65.192 21.654,65.301 C 21.197,65.508 20.952,66.036 21.101,66.536 z M 23.104,64.816 C 23.493,64.695 23.904,64.919 24.021,65.316 C 24.14,65.714 23.921,66.132 23.532,66.254 C 23.143,66.375 22.731,66.151 22.611,65.753 C 22.495,65.357 22.714,64.936 23.104,64.816 z " />
</g><g
     id="g203">
	<path
   style="fill:#ffffff"
   id="path205"
   d="M 25.951,63.14 C 25.951,63.835 26.503,64.398 27.183,64.398 C 27.863,64.398 28.415,63.835 28.415,63.14 C 28.415,62.446 27.863,61.884 27.183,61.884 C 26.502,61.884 25.951,62.447 25.951,63.14 z " />
</g><g
     id="g207">
	<path
   style="fill:#ffffff"
   id="path209"
   d="M 56.923,60.611 C 56.789,60.842 53.575,66.218 41.362,63.317 L 41.641,62.093 C 52.877,64.761 55.829,60.024 55.857,59.977 L 55.919,59.872 C 55.922,59.867 56.017,59.794 56.017,59.794 L 56.923,60.611 z " />
</g><g
     id="g211">
	<path
   style="fill:#ffffff"
   id="path213"
   d="M 56.865,63.609 C 55.594,64.973 51.44,68.152 41.763,65.947 C 41.328,65.848 40.734,64.401 40.734,64.401 C 52.706,67.578 56.255,62.411 56.286,62.359 L 56.347,62.271 C 56.349,62.267 56.434,62.203 56.434,62.203 C 56.434,62.203 57.15,63.303 56.865,63.609 z " />
</g><g
     id="g215">
	<path
   style="fill:#ffffff"
   id="path217"
   d="M 48.519,60.435 C 48.519,60.898 48.887,61.273 49.341,61.273 C 49.794,61.273 50.162,60.898 50.162,60.435 C 50.162,59.973 49.791,59.598 49.341,59.598 C 48.887,59.597 48.519,59.972 48.519,60.435 z " />
</g><g
     id="g219">
	<path
   style="fill:#ff8600"
   id="path221"
   d="M 62.95,44.752 C 64.061,49.802 61.766,54.627 57.828,55.531 C 53.888,56.432 49.79,53.069 48.682,48.018 C 47.571,42.968 49.865,38.143 53.806,37.24 C 57.746,36.338 61.839,39.701 62.95,44.752 z " />
</g><g
     id="g223">
	<path
   style="fill:#060506"
   id="path225"
   d="M 62.407,44.628 C 63.428,49.263 61.275,53.716 57.611,54.555 C 56.082,54.905 54.501,54.592 53.041,53.649 C 51.109,52.402 49.685,50.223 49.124,47.67 C 48.104,43.034 50.255,38.58 53.916,37.742 C 57.578,36.903 61.387,39.992 62.407,44.628 z M 53.693,36.737 C 49.488,37.7 46.994,42.705 48.136,47.895 C 48.755,50.712 50.345,53.127 52.5,54.519 C 54.166,55.597 56.062,55.967 57.832,55.561 C 62.038,54.598 64.528,49.593 63.392,44.404 C 62.249,39.214 57.9,35.775 53.693,36.737 z " />
</g><g
     id="g243">
	<path
   style="fill:#ff8600"
   id="path245"
   d="M 35.644,47.031 C 36.754,52.081 34.46,56.906 30.519,57.809 C 26.578,58.711 22.484,55.347 21.373,50.296 C 20.263,45.246 22.557,40.421 26.498,39.518 C 30.439,38.616 34.535,41.98 35.644,47.031 z " />
</g><g
     id="g247">
	<path
   style="fill:#060506"
   id="path249"
   d="M 35.101,46.906 C 36.12,51.542 33.967,55.995 30.305,56.834 C 28.774,57.184 27.193,56.871 25.733,55.928 C 23.802,54.68 22.375,52.501 21.814,49.948 C 20.794,45.312 22.945,40.859 26.608,40.02 C 30.271,39.182 34.081,42.271 35.101,46.906 z M 26.388,39.016 C 22.182,39.979 19.688,44.984 20.83,50.173 C 21.45,52.99 23.038,55.404 25.192,56.796 C 26.859,57.874 28.754,58.244 30.525,57.838 C 34.731,56.875 37.224,51.87 36.084,46.681 C 34.944,41.492 30.594,38.053 26.388,39.016 z " />
</g><g
     id="g251">
	<path
   style="fill:#060506"
   id="path253"
   d="M 23.523,41.781 C 26.499,42.18 29.325,44.914 30.058,48.744 C 31.066,54.029 28.365,57.154 28.365,57.154 L 27.176,57.007 C 27.176,57.007 29.517,54.214 28.664,50.137 C 27.974,46.845 25.932,44.279 23.489,43.072 C 23.482,43.446 23.476,43.829 23.473,44.222 C 25.455,45.375 27.069,47.586 27.679,50.362 C 28.23,52.865 27.644,54.986 26.167,56.86 C 27.356,57.779 29.517,57.852 30.707,57.412 C 33.582,55.526 34.351,51.586 33.419,47.344 C 32.279,42.154 27.929,38.716 23.724,39.678 C 23.684,39.687 23.647,39.701 23.609,39.712 C 23.579,40.297 23.547,40.999 23.523,41.781 z M 23.943,40.682 C 27.607,39.844 31.416,42.933 32.435,47.569 C 33.191,51.009 32.616,55.243 30.129,57.117 C 30.039,57.194 29.337,57.227 29.337,57.227 C 29.337,57.227 32.003,54.029 31.04,48.519 C 30.297,44.258 27.059,41.233 23.688,40.757 C 23.773,40.734 23.856,40.702 23.943,40.682 z " />
</g><g
     id="g255">
	<path
   style="fill:#ffffff"
   id="path257"
   d="M 64.458,64.425 C 66.873,65.058 69.277,63.795 69.277,63.795 C 69.277,63.795 67.764,61.509 65.349,60.876 C 62.931,60.244 60.527,61.505 60.527,61.505 C 60.527,61.505 62.043,63.792 64.458,64.425 z " />
</g><g
     id="g259">
	<path
   style="fill:#070606"
   id="path261"
   d="M 79.133,77.852 L 79.259,77.498 L 79.62,76.509 L 78.644,76.139 C 78.167,75.958 67.043,71.547 71.717,57.746 L 72.055,56.746 L 71.078,56.4 L 70.728,56.277 L 70.381,56.154 L 69.402,55.809 L 69.063,56.809 C 68.53,58.384 68.159,59.953 67.957,61.476 L 67.938,61.6 L 67.84,61.526 C 67.079,60.948 66.286,60.547 65.483,60.337 C 62.889,59.659 60.382,60.955 60.276,61.011 C 60.139,61.083 60.041,61.213 60,61.366 C 59.965,61.521 59.987,61.684 60.073,61.813 C 60.141,61.914 61.749,64.286 64.318,64.961 C 65.352,65.232 66.496,65.221 67.714,64.931 L 67.797,64.91 L 67.803,64.998 C 68.365,75.099 77.566,78.785 77.657,78.821 L 78.636,79.2 L 79,78.202 L 79.133,77.852 z M 67.817,62.986 L 67.806,63.17 C 67.794,63.351 67.784,63.537 67.781,63.714 L 67.78,63.769 L 67.726,63.784 C 66.941,64 65.758,64.193 64.595,63.888 C 63.211,63.525 62.135,62.561 61.478,61.816 L 61.405,61.734 L 61.509,61.697 C 62.439,61.368 63.833,61.051 65.22,61.413 C 66.107,61.645 66.974,62.155 67.796,62.926 L 67.817,62.95 L 67.817,62.986 L 67.817,62.986 z " />
</g><g
     id="g263">
	<path
   style="fill:#ffffff"
   id="path265"
   d="M 78.29,77.131 L 78.29,77.131 C 77.773,76.938 65.745,72.163 70.74,57.402 L 70.393,57.279 L 70.393,57.279 L 70.393,57.279 L 70.046,57.156 C 64.811,72.622 77.9,77.785 78.028,77.837 L 78.155,77.483 L 78.155,77.483 L 78.155,77.483 L 78.29,77.131 z " />
</g><g
     id="g267">
	<path
   style="fill:#d90000"
   id="path269"
   d="M 68.415,50.023 C 66.926,50.485 66.076,52.095 66.53,53.619 C 66.655,54.038 66.87,54.404 67.136,54.707 C 65.854,55.29 65.163,56.77 65.582,58.177 C 66.036,59.699 67.611,60.56 69.104,60.097 C 69.371,60.014 69.617,59.894 69.833,59.745 C 69.854,59.899 69.886,60.054 69.932,60.207 C 70.387,61.73 71.964,62.59 73.454,62.127 C 74.811,61.704 75.633,60.332 75.424,58.941 C 75.778,58.973 76.145,58.941 76.507,58.83 C 77.999,58.365 78.84,56.754 78.389,55.232 C 78.049,54.083 77.067,53.314 75.966,53.202 C 76.277,52.564 76.361,51.813 76.143,51.077 C 75.69,49.556 74.111,48.695 72.619,49.157 C 71.89,49.383 71.317,49.884 70.973,50.512 C 70.278,49.954 69.331,49.737 68.415,50.023 z " />
</g><g
     id="g271">
	<path
   style="fill:#060506"
   id="path273"
   d="M 75.993,59.555 L 75.999,59.493 L 76.061,59.485 C 76.275,59.462 76.48,59.419 76.672,59.36 C 78.444,58.806 79.454,56.882 78.914,55.07 C 78.602,54.011 77.795,53.168 76.757,52.817 L 76.694,52.795 L 76.714,52.729 C 76.86,52.122 76.848,51.495 76.676,50.914 C 76.136,49.102 74.246,48.075 72.469,48.624 C 71.844,48.819 71.285,49.194 70.865,49.71 L 70.828,49.755 L 70.777,49.728 C 69.988,49.313 69.094,49.228 68.26,49.488 C 66.481,50.041 65.475,51.965 66.015,53.778 C 66.087,54.023 66.189,54.26 66.314,54.483 L 66.347,54.539 L 66.293,54.578 C 65.147,55.442 64.653,56.952 65.064,58.334 C 65.328,59.213 65.912,59.936 66.705,60.369 C 67.499,60.801 68.409,60.891 69.267,60.625 C 69.291,60.618 69.319,60.605 69.346,60.595 C 69.366,60.587 69.388,60.577 69.408,60.57 L 69.474,60.546 L 69.498,60.612 C 70.134,62.278 71.94,63.176 73.615,62.656 C 74.961,62.241 75.916,60.994 75.993,59.555 z M 70.458,60.046 C 70.429,59.945 70.401,59.831 70.381,59.665 L 70.255,58.802 L 69.54,59.283 C 69.357,59.406 69.162,59.501 68.95,59.565 C 68.367,59.747 67.756,59.685 67.218,59.392 C 66.68,59.099 66.281,58.609 66.11,58.015 C 65.776,56.894 66.315,55.691 67.363,55.215 L 68.051,54.903 C 67.904,54.736 67.549,54.336 67.549,54.336 C 67.32,54.077 67.153,53.782 67.06,53.459 C 66.882,52.865 66.945,52.235 67.231,51.687 C 67.519,51.138 68.001,50.736 68.581,50.556 C 69.289,50.334 70.063,50.482 70.651,50.951 L 71.151,51.349 L 71.462,50.786 C 71.755,50.254 72.229,49.865 72.788,49.69 C 73.992,49.317 75.269,50.012 75.64,51.24 C 75.81,51.812 75.756,52.422 75.494,52.956 L 75.14,53.676 L 75.927,53.756 C 76.846,53.851 77.615,54.494 77.882,55.396 C 78.244,56.624 77.568,57.926 76.361,58.3 C 76.076,58.387 75.781,58.419 75.485,58.389 L 74.794,58.325 L 74.898,59.027 C 75.068,60.159 74.386,61.265 73.31,61.598 C 72.101,61.969 70.823,61.273 70.458,60.046 z " />
</g><g
     id="g275">
	<path
   style="fill:#ffffff"
   id="path277"
   d="M 71.207,53.347 C 72.3,53.008 73.453,53.637 73.782,54.751 C 74.114,55.866 73.501,57.044 72.407,57.381 C 71.314,57.721 70.161,57.092 69.828,55.977 C 69.498,54.864 70.114,53.686 71.207,53.347 z " />
</g><g
     id="g279">
	<path
   style="fill:#ffffff"
   id="path281"
   d="M 75.596,67.95 C 73.517,65.012 71.934,63.652 69.874,65.167 C 68.831,65.934 66.686,67.377 67.56,68.859 C 68.347,70.196 69.208,70.115 69.208,70.115 C 69.208,70.115 68.52,70.888 69.479,72.244 C 70.341,73.462 71.316,73.431 71.316,73.431 C 71.316,73.431 71.092,74.28 71.576,74.955 C 72.945,76.894 75.206,75.506 76.813,74.321 C 78.875,72.805 77.674,70.89 75.596,67.95 z " />
</g><g
     id="g283">
	<path
   style="fill:#060506"
   id="path285"
   d="M 76.457,73.811 C 74.186,75.483 72.876,75.715 72.075,74.586 C 71.78,74.169 71.916,73.593 71.916,73.593 C 71.966,73.407 71.921,73.207 71.807,73.052 C 71.694,72.898 71.508,72.805 71.319,72.802 C 71.293,72.802 70.631,72.781 69.988,71.877 C 69.355,70.983 69.675,70.536 69.675,70.536 C 69.845,70.342 69.897,70.063 69.779,69.832 C 69.668,69.599 69.438,69.462 69.183,69.487 C 69.162,69.487 68.645,69.473 68.092,68.535 C 67.6,67.701 68.85,66.69 70.06,65.808 L 70.24,65.676 C 71.55,64.715 72.655,64.86 75.101,68.317 C 77.399,71.576 77.886,72.758 76.457,73.811 z M 76.097,67.583 C 74.347,65.11 72.249,62.643 69.515,64.658 L 69.339,64.786 C 68.227,65.596 65.912,67.283 67.029,69.183 C 67.986,70.811 69.135,70.75 69.261,70.739 C 69.009,70.763 68.767,70.627 68.655,70.395 C 68.545,70.164 68.58,69.884 68.752,69.692 C 68.711,69.739 67.746,70.861 68.981,72.61 C 70.004,74.058 71.207,74.062 71.336,74.058 C 71.142,74.065 70.953,73.976 70.833,73.82 C 70.713,73.664 70.672,73.46 70.723,73.266 C 70.692,73.383 70.444,74.43 71.077,75.321 C 72.934,77.951 76.015,75.682 77.179,74.829 C 79.833,72.874 78.018,70.303 76.097,67.583 z " />
</g><g
     id="g287">
	<path
   style="fill:#060506"
   id="path289"
   d="M 47.649,75.047 C 47.649,74.257 48.274,73.615 49.05,73.615 C 49.823,73.615 50.453,74.256 50.453,75.047 C 50.453,75.837 49.824,76.477 49.05,76.477 C 48.275,76.477 47.649,75.837 47.649,75.047 z " />
</g><g
     id="g291">
	<path
   style="fill:#ffffff"
   id="path293"
   d="M 49.05,76.896 C 50.05,76.896 50.862,76.065 50.862,75.047 C 50.862,74.026 50.05,73.197 49.05,73.197 C 48.05,73.197 47.238,74.027 47.238,75.047 C 47.238,76.066 48.05,76.896 49.05,76.896 z M 48.059,75.047 C 48.059,74.489 48.502,74.035 49.049,74.035 C 49.597,74.035 50.041,74.489 50.041,75.047 C 50.041,75.603 49.597,76.058 49.049,76.058 C 48.503,76.058 48.059,75.604 48.059,75.047 z " />
</g><g
     id="g295">
	<path
   style="fill:#ff0800"
   id="path297"
   d="M 69.65,26.889 C 71.816,24.48 72.563,21.417 72.683,20.877 C 72.804,21.418 73.552,24.48 75.714,26.889 C 77.881,29.303 79.975,30.278 80.341,30.431 C 79.975,30.592 77.88,31.567 75.714,33.979 C 73.552,36.392 72.804,39.451 72.683,39.991 C 72.563,39.451 71.816,36.392 69.65,33.979 C 67.483,31.567 65.391,30.592 65.023,30.431 C 65.391,30.278 67.483,29.302 69.65,26.889 z " />
</g><path
     style="fill:url(#radialGradient2756)"
     id="path342"
     d="M 29.979,47.181 C 30.921,55.242 38.707,60.821 47.37,59.642 C 56.032,58.462 62.289,50.971 61.349,42.911 C 60.407,34.849 52.62,29.27 43.958,30.449 C 35.295,31.629 29.037,39.12 29.979,47.181 z " /><path
     style="fill:#f4ecd6;stroke:#dad2c0;stroke-width:0.17640001"
     id="path344"
     d="M 42.932,36.549 C 42.932,36.549 43.57,30.907 51.789,33.531 C 60.016,36.155 56.322,44.644 56.322,44.644 C 56.322,44.644 53.676,47.812 54.08,48.678 C 55.14,50.964 55.101,55.183 48.142,56.734 C 41.186,58.285 40.347,53.326 40.633,52.442 C 40.633,52.442 32.522,50.769 32.722,43.615 C 32.928,36.462 39.973,33.449 42.932,36.549 z " /><path
     style="fill:#ffffff;stroke:#c1a48c;stroke-width:0.17640001"
     id="path346"
     d="M 52.678,36.672 C 52.678,36.672 45.935,32.276 45.933,38.919 C 45.931,45.562 49.058,49.002 52.427,46.731 C 55.796,44.46 58.359,40.85 52.678,36.672 z " /><path
     style="fill:#ffffff;stroke:#c1a48c;stroke-width:0.17640001"
     id="path348"
     d="M 36.031,41.616 C 36.031,41.616 38.699,34.114 42.79,39.407 C 46.879,44.699 46.504,49.294 42.421,49.483 C 38.339,49.672 34.077,48.314 36.031,41.616 z " /><path
     style="fill:url(#radialGradient2750);stroke:#c1a48c;stroke-width:0.17640001"
     id="path359"
     d="M 54.592,52.013 C 54.592,52.013 54.603,50.132 54.316,49.642 C 53.317,47.938 49.837,47.102 48.2,49.27 C 48.2,49.27 47.407,50.095 46.214,49.474 C 44.671,48.673 40.167,50.364 40.222,52.223 C 40.288,54.484 42.169,57.787 47.406,57.075 C 52.645,56.362 54.356,53.324 54.592,52.013 z " /><path
     style="fill:none;stroke:#b29d94;stroke-width:0.17640001"
     id="path361"
     d="M 52.787,51.15 C 52.787,51.15 49.197,57.074 41.141,54.547" /><path
     style="fill:none;stroke:#c6afa4;stroke-width:0.17640001"
     id="path363"
     d="M 47.762,50.094 C 47.762,50.094 49.61,51.52 48.544,56.8" /><path
     style="fill:#33a02c"
     id="path367"
     d="M 47.608,42.535 C 47.819,44.343 49.565,45.594 51.508,45.329 C 53.446,45.065 54.854,43.384 54.643,41.577 C 54.43,39.769 52.686,38.518 50.743,38.783 C 48.799,39.048 47.396,40.728 47.608,42.535 z " /><path
     id="path369"
     d="M 47.944,42.304 C 48.131,43.911 49.684,45.022 51.41,44.787 C 53.138,44.552 54.385,43.06 54.193,41.454 C 54.005,39.847 52.457,38.736 50.727,38.971 C 49.004,39.205 47.755,40.698 47.944,42.304 z " /><path
     style="fill:#33a02c"
     id="path371"
     d="M 51.819,42.777 C 51.641,43.24 51.818,43.713 52.215,43.833 C 52.608,43.954 53.069,43.676 53.248,43.213 C 53.427,42.75 53.25,42.277 52.856,42.156 C 52.458,42.036 51.997,42.313 51.819,42.777 z " /><path
     style="opacity:0.86000001;fill:#ffffff"
     id="path373"
     d="M 53.625,41.094 C 53.625,41.094 53.188,39.583 51.771,39.656 C 51.771,39.656 51.061,40.236 51.713,40.267 C 52.362,40.299 52.762,40.366 52.984,41.181 C 53.212,41.996 53.625,41.094 53.625,41.094 z "
     enable-background="new    " /><path
     style="opacity:0.86000001;fill:#ffffff"
     id="path375"
     d="M 49.399,43.036 C 49.445,43.431 49.627,43.73 49.803,43.705 C 49.979,43.682 50.084,43.343 50.038,42.948 C 49.992,42.554 49.813,42.254 49.637,42.279 C 49.46,42.303 49.353,42.642 49.399,43.036 z "
     enable-background="new    " /><path
     style="fill:#33a02c"
     id="path379"
     d="M 37.239,45.8 C 37.45,47.608 39.197,48.858 41.14,48.594 C 43.081,48.33 44.484,46.65 44.273,44.842 C 44.063,43.034 42.317,41.783 40.375,42.047 C 38.432,42.311 37.028,43.992 37.239,45.8 z " /><path
     id="path381"
     d="M 37.576,45.569 C 37.763,47.175 39.315,48.287 41.04,48.053 C 42.767,47.818 44.013,46.325 43.826,44.718 C 43.638,43.113 42.086,42.001 40.361,42.236 C 38.636,42.47 37.388,43.963 37.576,45.569 z " /><path
     style="fill:#33a02c"
     id="path383"
     d="M 41.451,46.041 C 41.275,46.504 41.449,46.977 41.843,47.097 C 42.237,47.217 42.701,46.94 42.879,46.476 C 43.056,46.013 42.881,45.541 42.488,45.421 C 42.092,45.3 41.628,45.578 41.451,46.041 z " /><path
     style="opacity:0.86000001;fill:#ffffff"
     id="path385"
     d="M 43.258,44.359 C 43.258,44.359 42.821,42.848 41.403,42.921 C 41.403,42.921 40.692,43.501 41.345,43.532 C 41.996,43.565 42.393,43.631 42.62,44.446 C 42.844,45.26 43.258,44.359 43.258,44.359 z "
     enable-background="new    " /><path
     style="opacity:0.86000001;fill:#ffffff"
     id="path387"
     d="M 39.031,46.3 C 39.077,46.694 39.259,46.993 39.435,46.969 C 39.611,46.945 39.716,46.606 39.67,46.212 C 39.624,45.818 39.444,45.519 39.269,45.543 C 39.092,45.567 38.986,45.906 39.031,46.3 z "
     enable-background="new    " /><path
     style="fill:#a9775d"
     id="path389"
     d="M 47.804,48.344 C 47.867,48.563 48.024,48.711 48.156,48.674 C 48.287,48.637 48.343,48.43 48.281,48.211 C 48.217,47.992 48.06,47.844 47.93,47.881 C 47.798,47.917 47.742,48.125 47.804,48.344 z " /><path
     style="fill:#a9775d"
     id="path391"
     d="M 47.015,48.579 C 47.08,48.798 47.236,48.946 47.368,48.908 C 47.499,48.872 47.554,48.664 47.493,48.445 C 47.43,48.226 47.273,48.078 47.141,48.116 C 47.01,48.151 46.954,48.359 47.015,48.579 z " /><path
     style="fill:#ff8600"
     id="path455"
     d="M 55.991,30.096 C 57.595,32.36 59.173,35.603 60.149,37.919 C 58.045,38.101 53.716,37.462 51.264,35.175 C 47.914,32.05 47.62,26.503 48.788,24.101 C 49.143,23.812 49.564,23.609 50.03,23.485 C 52.144,25.3 54.175,27.522 55.991,30.096 z " /><path
     style="fill:#060506"
     id="path457"
     d="M 47.208,24.275 C 45.231,26.787 46.731,31.599 50.625,35.228 C 53.896,38.278 57.818,39.451 60.172,38.081 L 60.563,37.853 L 60.392,37.429 C 59.339,34.808 57.937,32.25 56.225,29.824 C 54.4,27.238 52.329,24.951 50.069,23.026 L 49.89,22.874 L 49.66,22.911 C 48.628,23.074 47.781,23.546 47.208,24.275 z M 55.388,30.435 C 56.909,32.591 58.194,34.899 59.205,37.295 L 59.232,37.367 L 59.162,37.393 C 57.13,38.116 53.974,36.935 51.31,34.453 C 47.935,31.304 46.419,26.942 48.002,24.929 C 48.362,24.472 48.884,24.16 49.55,24.005 L 49.586,23.997 L 49.613,24.021 C 51.745,25.864 53.684,28.023 55.388,30.435 z " /><path
     style="fill:#060506"
     id="path459"
     d="M 59.258,35.456 C 56.817,35.926 54.629,34.539 52.993,33.278 L 52.509,33.934 C 54.276,35.297 56.655,36.793 59.405,36.264 L 59.258,35.456 z " /><path
     style="fill:#060506"
     id="path461"
     d="M 53.217,31.845 C 54.976,33.463 56.726,34.293 58.413,34.312 L 58.424,33.489 C 56.937,33.472 55.362,32.713 53.756,31.234 L 53.217,31.845 z " /><path
     style="fill:#ff8600"
     id="path463"
     d="M 26.663,37.659 C 28.885,41.629 36.359,41.544 43.364,37.469 C 50.365,33.393 54.246,26.871 52.027,22.9 C 49.807,18.928 42.329,19.013 35.327,23.09 C 28.324,27.164 24.444,33.687 26.663,37.659 z " /><path
     style="fill:#060506"
     id="path465"
     d="M 26.866,33.405 C 27.79,29.965 31.143,26.212 35.617,23.609 C 40.089,21.005 44.962,19.971 48.331,20.913 C 49.811,21.326 50.914,22.115 51.517,23.197 C 53.572,26.874 49.784,33.045 43.074,36.951 C 36.36,40.856 29.228,41.04 27.171,37.363 C 26.568,36.283 26.462,34.914 26.866,33.405 z M 25.739,33.09 C 25.25,34.911 25.394,36.594 26.155,37.955 C 28.572,42.276 36.257,42.291 43.655,37.989 C 51.051,33.684 54.949,26.928 52.535,22.606 C 51.774,21.244 50.43,20.261 48.64,19.763 C 44.98,18.742 39.767,19.819 35.036,22.573 C 30.303,25.325 26.74,29.356 25.739,33.09 z " /><path
     style="fill:#060506"
     id="path467"
     d="M 51.745,21.896 L 51.709,21.78 C 51.688,21.755 51.631,21.69 51.631,21.69 C 50.517,20.457 48.794,19.699 46.65,19.497 C 45.333,19.354 43.88,19.425 42.332,19.706 C 39.742,20.105 37.028,21.069 34.486,22.494 C 28.925,25.606 25.018,30.44 24.764,34.521 L 24.742,34.899 L 25.087,35.04 C 25.1,35.046 25.115,35.051 25.13,35.055 C 25.145,35.061 25.16,35.066 25.175,35.072 L 25.221,35.091 L 25.221,35.141 C 25.222,35.186 25.221,35.233 25.221,35.278 C 25.22,35.369 25.219,35.463 25.225,35.551 L 25.244,35.8 L 25.421,35.926 L 25.446,35.944 L 25.451,35.976 C 25.491,36.269 25.552,36.554 25.63,36.82 L 25.664,36.936 C 25.686,36.96 25.746,37.026 25.745,37.026 C 28.76,40.357 35.785,39.96 42.448,36.082 C 49.109,32.2 53.02,26.236 51.745,21.896 z M 49.113,21.217 L 49.203,21.262 C 49.387,21.355 49.554,21.458 49.681,21.538 L 49.715,21.559 L 49.716,21.599 C 49.748,23.454 48.904,25.556 47.27,27.675 C 45.636,29.795 43.369,31.733 40.713,33.278 C 35.913,36.071 30.659,37.049 27.33,35.77 L 27.365,35.628 C 30.866,36.1 35.383,35.024 39.447,32.749 C 44.733,29.791 48.522,25.303 49.099,21.318 L 49.113,21.217 z M 26.464,34.39 L 26.472,34.324 C 26.697,32.561 27.651,30.616 29.232,28.7 C 30.838,26.755 32.983,24.973 35.438,23.545 C 38.271,21.896 41.353,20.839 44.118,20.568 C 45.607,20.493 46.929,20.646 48.045,21.026 L 48.101,21.045 L 48.094,21.105 C 47.856,22.9 46.866,24.862 45.235,26.78 C 43.6,28.7 41.43,30.447 38.957,31.832 C 34.633,34.253 29.869,35.239 26.527,34.405 L 26.464,34.39 z M 41.936,35.17 C 36.38,38.403 30.36,39.155 27.294,36.998 L 27.356,36.868 C 31.037,38.049 36.35,37.023 41.223,34.189 C 46.484,31.126 50.2,26.553 50.687,22.539 L 50.832,22.532 C 51.228,24.38 50.557,26.671 48.927,28.985 C 47.299,31.297 44.817,33.493 41.936,35.17 z " /><path
     style="fill:#ffffff"
     id="path469"
     d="M 25.416,34.011 L 37.998,29.433 C 37.998,29.433 37.631,30.378 36.971,31.925 C 37.442,32.357 37.744,32.976 37.749,33.672 C 37.762,34.99 36.724,36.07 35.429,36.082 C 35.326,36.082 35.227,36.068 35.127,36.054 C 35.121,36.067 35.115,36.079 35.109,36.092 C 35.603,36.525 35.926,37.152 35.933,37.868 C 35.945,39.186 34.908,40.265 33.615,40.278 C 33.437,40.279 33.268,40.25 33.104,40.21 C 33.088,40.239 33.073,40.268 33.059,40.295 C 33.462,40.718 33.723,41.282 33.727,41.92 C 33.738,43.238 32.7,44.316 31.407,44.329 C 31.242,44.33 31.084,44.307 30.93,44.272 C 30.897,44.329 30.864,44.387 30.832,44.443 C 31.133,44.84 31.319,45.332 31.324,45.872 C 31.335,47.191 30.296,48.269 29.004,48.281 C 28.849,48.283 28.703,48.261 28.557,48.231 C 28.541,48.257 28.525,48.281 28.51,48.307 C 28.876,48.725 29.109,49.268 29.115,49.873 C 29.125,51.191 28.089,52.27 26.796,52.283 C 26.469,52.285 26.16,52.216 25.877,52.095 C 25.876,52.098 25.872,52.102 25.869,52.105 C 26.144,52.493 26.314,52.964 26.32,53.48 C 26.33,54.798 25.293,55.878 24,55.891 C 23.59,55.894 23.211,55.781 22.875,55.594 C 22.861,55.608 22.849,55.623 22.836,55.635 C 23.014,55.966 23.126,56.339 23.129,56.744 C 23.141,58.063 22.102,59.142 20.81,59.154 C 20.182,59.161 19.612,58.91 19.186,58.501 C 18.859,58.685 18.53,58.848 18.201,58.987 C 8.993,62.855 7.082,57.793 7.082,57.793 L 25.416,34.011 z " /><path
     style="fill:#212462"
     id="path471"
     d="M 33.024,30.131 C 33.024,30.131 25.903,54.013 10.33,58.36 L 11.371,51.377 L 24.148,35.704 L 33.024,30.131 z " /><path
     style="fill:#ffffff"
     id="path473"
     d="M 30.9,33.157 C 30.67,33.776 25.154,48.369 17.461,52.719 L 17.083,52.022 C 24.526,47.814 30.116,33.022 30.171,32.873 L 30.9,33.157 z " /><path
     style="fill:#0e0f6a"
     id="path475"
     d="M 34.633,33.662 C 34.633,34.047 34.938,34.359 35.316,34.359 C 35.693,34.359 36,34.047 36,33.662 C 36,33.278 35.692,32.966 35.316,32.966 C 34.938,32.966 34.633,33.278 34.633,33.662 z " /><path
     style="fill:#0e0f6a"
     id="path477"
     d="M 30.648,42.039 C 30.648,42.423 30.954,42.735 31.332,42.735 C 31.71,42.735 32.015,42.423 32.015,42.039 C 32.015,41.653 31.71,41.342 31.332,41.342 C 30.954,41.342 30.648,41.653 30.648,42.039 z " /><path
     style="fill:#0e0f6a"
     id="path479"
     d="M 26.001,49.834 C 26.001,50.218 26.305,50.531 26.685,50.531 C 27.062,50.531 27.367,50.219 27.367,49.834 C 27.367,49.449 27.063,49.138 26.685,49.138 C 26.305,49.137 26.001,49.449 26.001,49.834 z " /><ellipse
     style="fill:#0e0f6a"
     sodipodi:ry="0.69599998"
     sodipodi:rx="0.68300003"
     sodipodi:cy="56.75"
     sodipodi:cx="20.733999"
     id="ellipse481"
     ry="0.69599998"
     rx="0.68300003"
     cy="56.75"
     cx="20.733999" /><path
     style="fill:#212462"
     id="path483"
     d="M 23.367,31.324 C 23.367,31.324 35.753,13.213 47.264,13.213 C 53.798,13.213 58.48,28.04 58.48,28.04 L 58.138,31.772 C 58.138,31.772 53.88,26.955 48.726,27.394 C 43.572,27.833 24.147,35.703 24.147,35.703 L 23.367,31.324 z " /><path
     style="fill:#ffffff"
     id="path485"
     d="M 58.011,27.55 L 58.011,27.55 C 57.973,27.449 54.103,17.358 48.299,16.594 C 48.066,16.562 47.831,16.527 47.583,16.489 C 43.949,15.924 38.456,15.074 24.177,32.609 L 24.177,32.609 C 24.075,32.735 23.891,32.754 23.766,32.648 C 23.642,32.543 23.623,32.354 23.728,32.228 L 23.728,32.228 C 38.216,14.434 43.907,15.314 47.671,15.897 C 47.915,15.936 48.147,15.972 48.372,16.001 C 54.521,16.811 58.394,26.906 58.557,27.335 L 58.557,27.335 C 58.616,27.489 58.538,27.663 58.389,27.721 C 58.239,27.781 58.069,27.705 58.011,27.55 L 58.011,27.55 z " /><path
     style="fill:#ffffff"
     id="path487"
     d="M 30.951,31.151 C 32.044,31.734 35.613,31.554 35.613,31.554 C 35.613,31.554 33.722,28.461 32.627,27.878 C 31.536,27.295 30.276,27.556 29.812,28.46 C 29.348,29.363 29.859,30.568 30.951,31.151 z " /><path
     style="fill:#ffffff"
     id="path489"
     d="M 39.046,25.214 C 39.665,26.301 39.647,29.948 39.647,29.948 C 39.647,29.948 36.535,28.156 35.916,27.068 C 35.297,25.981 35.497,24.684 36.362,24.172 C 37.223,23.658 38.429,24.127 39.046,25.214 z " /><path
     style="fill:#ffffff"
     id="path491"
     d="M 46.27,23.869 C 48.314,23.869 49.972,25.559 49.972,27.645 C 49.972,29.729 48.315,31.421 46.27,31.421 C 44.227,31.421 40.863,27.645 40.863,27.645 C 40.863,27.645 44.227,23.869 46.27,23.869 z " /><path
     style="fill:#060506"
     id="path493"
     d="M 46.27,23.273 C 44.033,23.273 40.791,26.837 40.43,27.245 L 40.07,27.646 L 40.43,28.047 C 40.792,28.455 44.033,32.02 46.27,32.02 C 48.634,32.02 50.557,30.058 50.557,27.646 C 50.557,25.234 48.634,23.273 46.27,23.273 z M 46.362,31.216 C 45.038,31.216 42.657,29.184 41.192,27.645 C 42.657,26.107 45.038,24.074 46.362,24.074 C 48.292,24.074 49.862,25.676 49.862,27.645 C 49.862,29.615 48.292,31.216 46.362,31.216 z " /><path
     style="fill:#060506"
     id="path495"
     d="M 46.348,25.341 C 47.597,25.341 48.608,26.372 48.608,27.645 C 48.608,28.918 47.597,29.95 46.348,29.95 C 45.102,29.95 43.048,27.645 43.048,27.645 C 43.048,27.645 45.102,25.341 46.348,25.341 z " /><path
     style="fill:#ffffff"
     id="path497"
     d="M 53.663,23.869 C 51.616,23.869 49.959,25.559 49.959,27.645 C 49.959,29.729 51.616,31.421 53.663,31.421 C 55.707,31.421 59.069,27.645 59.069,27.645 C 59.069,27.645 55.707,23.869 53.663,23.869 z " /><path
     style="fill:#060506"
     id="path499"
     d="M 59.503,27.244 C 59.14,26.836 55.899,23.272 53.66,23.272 C 52.514,23.272 51.436,23.727 50.632,24.553 C 49.82,25.379 49.375,26.477 49.375,27.645 C 49.375,28.813 49.821,29.912 50.632,30.737 C 51.441,31.564 52.517,32.019 53.66,32.019 C 55.896,32.019 59.139,28.455 59.503,28.046 L 59.857,27.645 L 59.503,27.244 z M 53.57,31.216 C 52.636,31.216 51.758,30.844 51.093,30.169 C 50.436,29.494 50.07,28.598 50.07,27.645 C 50.07,26.691 50.436,25.795 51.093,25.121 C 51.758,24.445 52.636,24.074 53.57,24.074 C 54.894,24.074 57.277,26.107 58.741,27.645 C 57.277,29.184 54.894,31.216 53.57,31.216 z " /><path
     style="fill:#060506"
     id="path501"
     d="M 53.583,25.341 C 52.335,25.341 51.323,26.372 51.323,27.645 C 51.323,28.918 52.335,29.95 53.583,29.95 C 54.831,29.95 56.887,27.645 56.887,27.645 C 56.887,27.645 54.832,25.341 53.583,25.341 z " /><path
     style="fill:#ffffff"
     id="path503"
     d="M 46.265,23.876 C 46.265,25.961 47.923,27.651 49.966,27.651 C 52.01,27.651 53.667,25.962 53.667,23.876 C 53.667,21.79 49.966,18.356 49.966,18.356 C 49.966,18.356 46.265,21.79 46.265,23.876 z " /><path
     style="fill:#060506"
     id="path505"
     d="M 50.36,17.915 L 49.966,17.55 L 49.572,17.915 C 49.175,18.284 45.68,21.592 45.68,23.875 C 45.68,25.043 46.126,26.141 46.936,26.967 C 47.744,27.793 48.821,28.248 49.966,28.248 C 52.33,28.248 54.254,26.286 54.254,23.875 C 54.252,21.592 50.759,18.284 50.36,17.915 z M 49.966,27.494 C 49.042,27.494 48.171,27.126 47.517,26.458 C 46.862,25.791 46.502,24.904 46.502,23.959 C 46.502,22.621 48.474,20.217 49.965,18.736 C 51.459,20.216 53.43,22.621 53.43,23.959 C 53.431,25.909 51.877,27.494 49.966,27.494 z " /><path
     style="fill:#060506"
     id="path507"
     d="M 47.707,23.954 C 47.707,25.227 48.719,26.259 49.966,26.259 C 51.215,26.259 52.225,25.228 52.225,23.954 C 52.225,22.682 49.966,20.586 49.966,20.586 C 49.966,20.586 47.707,22.682 47.707,23.954 z " /><path
     style="fill:#ffffff"
     id="path509"
     d="M 46.265,31.416 C 46.265,29.331 47.923,27.641 49.966,27.641 C 52.01,27.641 53.667,29.331 53.667,31.416 C 53.667,33.501 49.966,36.935 49.966,36.935 C 49.966,36.935 46.265,33.501 46.265,31.416 z " /><path
     style="fill:#060506"
     id="path511"
     d="M 49.966,27.043 C 48.82,27.043 47.744,27.497 46.936,28.323 C 46.126,29.15 45.681,30.247 45.681,31.416 C 45.681,33.7 49.175,37.007 49.572,37.376 L 49.967,37.741 L 50.361,37.376 C 50.758,37.007 54.257,33.699 54.257,31.416 C 54.252,29.005 52.33,27.043 49.966,27.043 z M 49.572,36.492 L 49.572,36.492 L 49.572,36.492 C 49.573,36.492 49.572,36.492 49.572,36.492 z M 49.966,36.477 C 48.501,35.025 46.563,32.662 46.563,31.346 C 46.563,30.418 46.917,29.546 47.56,28.89 C 48.203,28.234 49.058,27.873 49.967,27.873 C 51.844,27.873 53.369,29.431 53.369,31.346 C 53.37,32.66 51.433,35.022 49.966,36.477 z " /><path
     style="fill:#060506"
     id="path513"
     d="M 47.707,31.336 C 47.707,30.063 48.719,29.032 49.966,29.032 C 51.215,29.032 52.225,30.063 52.225,31.336 C 52.225,32.608 49.966,34.704 49.966,34.704 C 49.966,34.704 47.707,32.608 47.707,31.336 z " /><ellipse
     style="fill:#ffffff"
     sodipodi:ry="2.0680001"
     sodipodi:rx="2.027"
     sodipodi:cy="27.638"
     sodipodi:cx="49.966"
     id="ellipse515"
     ry="2.0680001"
     rx="2.027"
     cy="27.638"
     cx="49.966" /><path
     style="fill:#d90000"
     id="path517"
     d="M 48.51,27.638 C 48.51,28.459 49.161,29.124 49.966,29.124 C 50.77,29.124 51.423,28.459 51.423,27.638 C 51.423,26.818 50.771,26.153 49.966,26.153 C 49.161,26.153 48.51,26.818 48.51,27.638 z " /><path
     id="path593"
     d="M 91.327,0.044 L 6.77,0.044 C 3.053,0.044 0.044,3.08 0.044,6.824 L 0.044,143.264 C 0.044,147.008 3.054,150.039 6.77,150.039 L 91.328,150.039 C 95.039,150.039 98.055,147.005 98.055,143.264 L 98.057,6.824 C 98.055,3.08 95.041,0.044 91.327,0.044 z M 81.221,129.44 C 81.221,132.424 79.242,134.848 76.804,134.848 L 21.293,134.848 C 18.855,134.848 16.879,132.423 16.879,129.44 L 16.879,20.645 C 16.879,17.66 18.855,15.238 21.293,15.238 L 76.804,15.238 C 79.242,15.238 81.221,17.66 81.221,20.645 L 81.221,129.44 z "
     style="fill:#f7f7f7;stroke:#060506;stroke-width:0.0882" /><path
     style="fill:#ff0800"
     d="M 10.883,30.849 C 9.605,29.428 9.164,27.62 9.093,27.301 C 9.021,27.619 8.58,29.427 7.303,30.849 C 6.024,32.273 4.788,32.85 4.574,32.941 C 4.788,33.035 6.024,33.61 7.303,35.035 C 8.58,36.459 9.021,38.264 9.093,38.583 C 9.164,38.264 9.604,36.459 10.883,35.035 C 12.163,33.61 13.397,33.035 13.613,32.941 C 13.397,32.85 12.163,32.273 10.883,30.849 z "
     id="path597" /><path
     style="fill:#ff0800"
     d="M 87.217,118.587 C 88.489,120.011 88.937,121.816 89.006,122.136 C 89.074,121.817 89.52,120.011 90.799,118.587 C 92.072,117.16 93.31,116.581 93.526,116.491 C 93.311,116.396 92.079,115.821 90.799,114.397 C 89.52,112.972 89.072,111.168 89.006,110.851 C 88.937,111.165 88.489,112.972 87.217,114.397 C 85.94,115.821 84.697,116.396 84.488,116.491 C 84.703,116.584 85.939,117.163 87.217,118.587 z "
     id="path599" /><path
     style="fill:#ff0800"
     d="M 6.351,9.972 C 5.677,10.648 5.335,11.618 5.335,12.855 C 5.335,12.855 5.335,16.15 5.335,16.48 C 5.079,16.472 4.263,16.447 4.263,16.447 L 4.269,16.629 L 4.269,18.014 C 4.269,18.014 5.102,18.042 5.335,18.049 C 5.335,18.323 5.335,19.536 5.335,19.536 C 5.335,20.772 5.677,21.742 6.351,22.416 C 6.999,23.069 7.921,23.412 9.088,23.435 C 10.264,23.413 11.187,23.07 11.837,22.416 C 11.837,22.416 12.034,22.173 12.143,22.039 C 12.64,22.121 13.176,22.166 13.745,22.166 L 13.921,22.166 L 13.921,20.6 L 13.745,20.6 C 13.386,20.6 13.059,20.57 12.746,20.53 C 12.805,20.218 12.852,19.893 12.852,19.536 L 12.852,12.855 C 12.852,11.62 12.51,10.649 11.836,9.972 C 11.184,9.319 10.261,8.976 9.094,8.953 C 7.922,8.976 7.001,9.319 6.351,9.972 z M 6.918,19.54 C 6.918,19.54 6.918,18.638 6.918,18.298 C 7.846,18.57 8.181,19.005 8.355,19.409 C 8.753,20.333 9.48,21.046 10.442,21.51 C 10.089,21.803 9.641,21.96 9.091,21.96 C 6.978,21.959 6.918,19.788 6.918,19.54 z M 6.918,12.848 C 6.918,12.6 6.979,10.43 9.091,10.43 C 11.207,10.43 11.268,12.601 11.268,12.848 L 11.268,19.54 C 11.268,19.629 11.248,19.851 11.199,20.11 C 10.645,19.836 10.247,19.453 10.034,18.958 L 10.034,18.958 C 9.51,17.746 8.482,17.004 6.918,16.675 C 6.918,16.425 6.918,12.848 6.918,12.848 z "
     id="path601" /><path
     style="fill:#ff0800"
     d="M 86.262,127.934 L 86.255,127.941 L 86.262,127.934 C 86.261,127.935 86.051,128.196 85.956,128.313 C 85.458,128.231 84.924,128.186 84.352,128.186 L 84.176,128.186 L 84.176,129.748 L 84.352,129.748 C 84.697,129.748 85.028,129.777 85.349,129.817 C 85.288,130.132 85.245,130.461 85.245,130.814 L 85.245,137.494 C 85.245,138.729 85.59,139.7 86.264,140.38 C 86.918,141.031 87.841,141.373 89.005,141.399 C 90.175,141.378 91.097,141.036 91.749,140.38 C 92.424,139.703 92.766,138.734 92.766,137.494 C 92.766,137.494 92.766,134.2 92.766,133.871 C 93.02,133.881 93.838,133.903 93.838,133.903 L 93.831,133.72 L 93.831,132.33 C 93.831,132.33 92.997,132.307 92.766,132.299 C 92.766,132.025 92.766,130.814 92.766,130.814 C 92.766,129.576 92.424,128.606 91.749,127.93 C 91.099,127.277 90.177,126.935 89.011,126.909 C 87.837,126.939 86.915,127.281 86.262,127.934 z M 87.524,139.37 C 86.864,138.712 86.833,137.701 86.833,137.508 L 86.833,130.816 C 86.833,130.728 86.854,130.506 86.9,130.249 C 87.456,130.521 87.852,130.903 88.066,131.4 C 88.588,132.614 89.617,133.356 91.182,133.684 C 91.182,133.932 91.182,137.509 91.182,137.509 C 91.182,137.702 91.149,138.713 90.489,139.371 C 90.125,139.737 89.629,139.924 89.01,139.924 L 89.009,139.924 C 88.39,139.922 87.891,139.736 87.524,139.37 z M 89.007,128.392 C 91.119,128.392 91.182,130.563 91.182,130.811 C 91.182,130.811 91.182,131.712 91.182,132.055 C 90.253,131.784 89.918,131.347 89.744,130.943 L 89.745,130.944 C 89.349,130.023 88.624,129.309 87.656,128.842 C 88.012,128.55 88.458,128.392 89.007,128.392 z "
     id="path603" /></g></svg>