<?xml version="1.0" encoding="utf-8"?>
<!-- Generator: Adobe Illustrator 12.0.0, SVG Export Plug-In . SVG Version: 6.00 Build 51448)  -->
<!DOCTYPE svg PUBLIC "-//W3C//DTD SVG 1.1//EN" "http://www.w3.org/Graphics/SVG/1.1/DTD/svg11.dtd" [
	<!ENTITY ns_flows "http://ns.adobe.com/Flows/1.0/">
	<!ENTITY ns_extend "http://ns.adobe.com/Extensibility/1.0/">
	<!ENTITY ns_ai "http://ns.adobe.com/AdobeIllustrator/10.0/">
	<!ENTITY ns_graphs "http://ns.adobe.com/Graphs/1.0/">
	<!ENTITY ns_vars "http://ns.adobe.com/Variables/1.0/">
	<!ENTITY ns_imrep "http://ns.adobe.com/ImageReplacement/1.0/">
	<!ENTITY ns_sfw "http://ns.adobe.com/SaveForWeb/1.0/">
	<!ENTITY ns_custom "http://ns.adobe.com/GenericCustomNamespace/1.0/">
	<!ENTITY ns_adobe_xpath "http://ns.adobe.com/XPath/1.0/">
	<!ENTITY ns_svg "http://www.w3.org/2000/svg">
	<!ENTITY ns_xlink "http://www.w3.org/1999/xlink">
]>
<svg  version="1.1"
	 xmlns:x="&ns_extend;" xmlns:i="&ns_ai;" xmlns:graph="&ns_graphs;" i:viewOrigin="89.8633 287.6421" i:rulerOrigin="-89 -137.1973" i:pageBounds="89 287.1973 189 137.1973"
	 xmlns="&ns_svg;" xmlns:xlink="&ns_xlink;" xmlns:a="http://ns.adobe.com/AdobeSVGViewerExtensions/3.0/"
	 width="98.098" height="150.087" viewBox="0 0 98.098 150.087" overflow="visible" enable-background="new 0 0 98.098 150.087"
	 xml:space="preserve">
<metadata>
	<variableSets  xmlns="http://ns.adobe.com/Variables/1.0/">
		<variableSet  locked="none" varSetName="binding1">
			<variables></variables>
			<v:sampleDataSets  xmlns:v="http://ns.adobe.com/Variables/1.0/" xmlns="http://ns.adobe.com/GenericCustomNamespace/1.0/">
				</v:sampleDataSets>
		</variableSet>
	</variableSets>
</metadata>
<g id="图层_1" i:knockout="Off" i:layer="yes" i:dimmedPercent="50" i:rgbTrio="#4F008000FFFF">
	<g i:knockout="Off">
		<path fill="#F7F7F7" stroke="#060506" stroke-width="0.0882" d="M98.053,143.264c0,3.743-3.015,6.779-6.726,6.779H6.769
			c-3.714,0-6.725-3.036-6.725-6.779V6.826c0-3.745,3.011-6.782,6.725-6.782h84.56c3.711,0,6.726,3.037,6.726,6.782L98.053,143.264
			L98.053,143.264z"/>
		<g i:knockout="Off">
			<path fill="#FF0800" d="M6.382,10.179L6.382,10.179c-0.669,0.778-1.027,1.928-1.063,3.417l-0.004,0.18h1.588V13.6
				c0-1.076,0.196-1.879,0.583-2.387c0.405-0.525,1.01-0.781,1.849-0.781c0.75,0,1.329,0.208,1.718,0.616
				c0.373,0.386,0.553,0.923,0.553,1.641c0,0.433-0.035,0.783-0.103,1.04c-0.083,0.325-0.229,0.623-0.447,0.912
				c-0.218,0.296-0.564,0.645-1.031,1.037c-0.429,0.367-1.034,0.829-1.852,1.415c-1.11,0.769-1.919,1.538-2.401,2.285
				c-0.517,0.782-0.779,1.701-0.779,2.728c0,0.008,0.026,0.568,0.026,0.568h8.076v-2.903h-1.39c0,0,0,1.217,0,1.491
				c-0.316,0-4.683,0-5.08,0c0.08-0.533,0.297-1.05,0.698-1.535c0.405-0.481,1.044-1.014,1.899-1.584
				c1.585-1.087,2.61-1.97,3.135-2.7c0.554-0.735,0.836-1.671,0.836-2.775c0-1.108-0.331-2-0.984-2.65
				c-0.673-0.705-1.625-1.064-2.825-1.064C8.095,8.955,7.086,9.367,6.382,10.179z"/>
		</g>
		<g i:knockout="Off">
			<path fill="#FF0800" d="M85.004,127.68v2.898h1.39c0,0,0-1.213,0-1.485c0.316,0,4.684,0,5.081,0
				c-0.081,0.534-0.299,1.053-0.698,1.532c-0.402,0.48-1.042,1.016-1.898,1.584c-1.561,1.067-2.613,1.977-3.134,2.699
				c-0.556,0.734-0.839,1.669-0.839,2.777c0,1.104,0.331,1.995,0.982,2.649c0.677,0.704,1.63,1.062,2.829,1.062
				c1.288,0,2.298-0.41,2.999-1.222c0.669-0.782,1.027-1.932,1.064-3.416l0.005-0.183h-1.589v0.177c0,1.076-0.196,1.88-0.583,2.387
				c-0.401,0.519-1.024,0.78-1.851,0.78c-0.747,0-1.326-0.208-1.719-0.616c-0.367-0.38-0.554-0.933-0.554-1.642
				c0-0.433,0.035-0.783,0.104-1.04c0.082-0.317,0.232-0.625,0.448-0.912c0.219-0.297,0.563-0.646,1.029-1.04
				c0.464-0.389,1.088-0.862,1.854-1.41c1.112-0.771,1.921-1.541,2.401-2.288c0.517-0.779,0.777-1.696,0.777-2.725
				c0-0.008-0.025-0.569-0.025-0.569L85.004,127.68L85.004,127.68z"/>
		</g>
		<path fill="#FF0800" d="M10.882,28.766c-1.134,0-1.613,0.932-1.791,1.449c-0.177-0.518-0.657-1.449-1.791-1.449
			c-1.572-0.005-2.36,0.899-2.36,2.736c0,2.646,4.14,5.619,4.14,5.619s0.004-0.003,0.011-0.008c0.006,0.005,0.011,0.008,0.011,0.008
			s4.14-2.974,4.14-5.619C13.242,29.665,12.454,28.761,10.882,28.766z"/>
		<path fill="#FF0800" d="M87.214,122.811c1.135-0.002,1.616-0.935,1.793-1.451c0.179,0.518,0.656,1.449,1.79,1.451
			c1.571,0.002,2.357-0.903,2.357-2.738c0-2.648-4.138-5.62-4.138-5.62s-0.005,0.004-0.011,0.01c-0.008-0.006-0.012-0.01-0.012-0.01
			s-4.14,2.972-4.14,5.62C84.856,121.908,85.644,122.813,87.214,122.811z"/>
		<path fill="#FF0800" d="M53.248,15.331c-2.663,0.003-3.784,2.349-4.2,3.651c-0.417-1.302-1.541-3.648-4.195-3.651
			c-3.682-0.008-5.528,2.267-5.528,6.888c0,6.661,9.697,14.14,9.697,14.14s0.012-0.006,0.026-0.02
			c0.017,0.014,0.026,0.02,0.026,0.02s9.7-7.479,9.7-14.14C58.774,17.598,56.927,15.323,53.248,15.331z"/>
		<path fill="#FF0800" d="M44.851,133.781c2.658,0,3.784-2.346,4.198-3.649c0.418,1.304,1.541,3.649,4.195,3.649
			c3.684,0.012,5.531-2.267,5.531-6.887c0-6.658-9.7-14.143-9.7-14.143s-0.01,0.006-0.027,0.021
			c-0.015-0.015-0.026-0.021-0.026-0.021s-9.697,7.483-9.697,14.143C39.325,131.514,41.172,133.792,44.851,133.781z"/>
	</g>
</g>
</svg>
