<?xml version="1.0" encoding="utf-8"?>
<!-- Generator: Adobe Illustrator 12.0.0, SVG Export Plug-In . SVG Version: 6.00 Build 51448)  -->
<!DOCTYPE svg PUBLIC "-//W3C//DTD SVG 1.1//EN" "http://www.w3.org/Graphics/SVG/1.1/DTD/svg11.dtd" [
	<!ENTITY ns_flows "http://ns.adobe.com/Flows/1.0/">
	<!ENTITY ns_extend "http://ns.adobe.com/Extensibility/1.0/">
	<!ENTITY ns_ai "http://ns.adobe.com/AdobeIllustrator/10.0/">
	<!ENTITY ns_graphs "http://ns.adobe.com/Graphs/1.0/">
	<!ENTITY ns_vars "http://ns.adobe.com/Variables/1.0/">
	<!ENTITY ns_imrep "http://ns.adobe.com/ImageReplacement/1.0/">
	<!ENTITY ns_sfw "http://ns.adobe.com/SaveForWeb/1.0/">
	<!ENTITY ns_custom "http://ns.adobe.com/GenericCustomNamespace/1.0/">
	<!ENTITY ns_adobe_xpath "http://ns.adobe.com/XPath/1.0/">
	<!ENTITY ns_svg "http://www.w3.org/2000/svg">
	<!ENTITY ns_xlink "http://www.w3.org/1999/xlink">
]>
<svg  version="1.1"
	 xmlns:x="&ns_extend;" xmlns:i="&ns_ai;" xmlns:graph="&ns_graphs;" i:viewOrigin="89.8623 287.6421" i:rulerOrigin="-89 -137.1973" i:pageBounds="89 287.1973 189 137.1973"
	 xmlns="&ns_svg;" xmlns:xlink="&ns_xlink;" xmlns:a="http://ns.adobe.com/AdobeSVGViewerExtensions/3.0/"
	 width="98.098" height="150.087" viewBox="0 0 98.098 150.087" overflow="visible" enable-background="new 0 0 98.098 150.087"
	 xml:space="preserve">
<metadata>
	<variableSets  xmlns="http://ns.adobe.com/Variables/1.0/">
		<variableSet  locked="none" varSetName="binding1">
			<variables></variables>
			<v:sampleDataSets  xmlns:v="http://ns.adobe.com/Variables/1.0/" xmlns="http://ns.adobe.com/GenericCustomNamespace/1.0/">
				</v:sampleDataSets>
		</variableSet>
	</variableSets>
</metadata>
<g id="图层_1" i:knockout="Off" i:layer="yes" i:dimmedPercent="50" i:rgbTrio="#4F008000FFFF">
	<g i:knockout="Off">
		<path fill="#F7F7F7" stroke="#060506" stroke-width="0.0882" d="M98.054,143.264c0,3.743-3.015,6.779-6.726,6.779H6.77
			c-3.715,0-6.726-3.036-6.726-6.779V6.826c0-3.745,3.011-6.782,6.726-6.782h84.559c3.711,0,6.725,3.037,6.725,6.782L98.054,143.264
			L98.054,143.264z"/>
		<path fill="#FF0800" d="M10.885,28.766c-1.134,0-1.613,0.932-1.791,1.449c-0.178-0.518-0.658-1.449-1.791-1.449
			c-1.57-0.005-2.36,0.899-2.36,2.736c0,2.646,4.141,5.619,4.141,5.619s0.004-0.004,0.01-0.007c0.007,0.003,0.011,0.007,0.011,0.007
			s4.139-2.973,4.139-5.619C13.244,29.665,12.455,28.761,10.885,28.766z"/>
		<path fill="#FF0800" d="M87.216,122.811c1.136-0.002,1.615-0.935,1.792-1.451c0.178,0.518,0.657,1.449,1.791,1.451
			c1.57,0.002,2.358-0.903,2.358-2.739c0-2.647-4.139-5.62-4.139-5.62s-0.005,0.005-0.012,0.011c-0.007-0.006-0.01-0.011-0.01-0.011
			s-4.142,2.973-4.142,5.62C84.856,121.908,85.646,122.813,87.216,122.811z"/>
		<g i:knockout="Off">
			<path fill="#FF0800" d="M5.682,8.955v2.523h1.392c0,0,0-0.892,0-1.144c0.291,0,2.958,0,3.592,0
				c-0.485,0.515-3.854,4.094-3.854,4.094l0.81,0.963l0.202-0.184c0.136-0.121,0.529-0.406,1.206-0.406
				c0.799,0,1.407,0.276,1.861,0.845c0.445,0.562,0.672,1.377,0.672,2.424c0,0.996-0.228,1.786-0.675,2.347
				c-0.428,0.562-1.035,0.845-1.805,0.845c-0.719,0-1.294-0.232-1.761-0.71c-0.48-0.486-0.734-1.128-0.756-1.91l-0.005-0.171H5.003
				l0.008,0.184c0.054,1.198,0.459,2.171,1.205,2.892c0.734,0.726,1.68,1.095,2.809,1.095c1.262,0,2.282-0.428,3.033-1.271
				c0.744-0.825,1.122-1.955,1.122-3.357c0-1.39-0.358-2.513-1.064-3.338c-0.621-0.725-1.459-1.121-2.472-1.215
				c0.418-0.44,2.941-3.093,2.941-3.093V8.954L5.682,8.955L5.682,8.955z"/>
		</g>
		<g i:knockout="Off">
			<path fill="#FF0800" d="M86.045,128.98c-0.745,0.831-1.124,1.961-1.124,3.357l0,0c0,1.39,0.358,2.512,1.065,3.34
				c0.622,0.727,1.459,1.12,2.473,1.214c-0.419,0.44-2.939,3.094-2.939,3.094v1.414h6.899v-2.522h-1.393c0,0,0,0.891,0,1.143
				c-0.29,0-2.959,0-3.593,0c0.484-0.516,3.855-4.094,3.855-4.094l-0.813-0.971l-0.202,0.196c-0.133,0.118-0.528,0.403-1.199,0.403
				c-0.798,0-1.406-0.277-1.862-0.849c-0.445-0.56-0.672-1.374-0.672-2.424c0-0.997,0.229-1.787,0.676-2.348
				c0.435-0.569,1.022-0.846,1.806-0.846c0.716,0,1.292,0.232,1.761,0.713c0.48,0.482,0.734,1.125,0.757,1.906l0.005,0.172h1.559
				l-0.009-0.185c-0.054-1.197-0.46-2.17-1.206-2.891c-0.732-0.727-1.678-1.096-2.808-1.096
				C87.815,127.71,86.795,128.138,86.045,128.98z"/>
		</g>
		<path fill="#FF0800" d="M53.248,15.331c-2.659,0.003-3.783,2.349-4.197,3.651c-0.417-1.302-1.54-3.648-4.196-3.651
			c-3.683-0.008-5.529,2.267-5.529,6.888c0,6.661,9.698,14.14,9.698,14.14s0.012-0.006,0.027-0.02
			c0.017,0.014,0.026,0.02,0.026,0.02s9.7-7.479,9.7-14.14C58.776,17.598,56.928,15.323,53.248,15.331z"/>
		<path fill="#FF0800" d="M44.853,133.781c2.66,0,3.784-2.346,4.198-3.649c0.417,1.304,1.54,3.649,4.195,3.649
			c3.682,0.012,5.53-2.267,5.53-6.887c0-6.658-9.7-14.143-9.7-14.143s-0.009,0.006-0.026,0.021
			c-0.017-0.015-0.027-0.021-0.027-0.021s-9.698,7.483-9.698,14.143C39.326,131.514,41.173,133.792,44.853,133.781z"/>
		<path fill="#FF0800" d="M53.248,64.531c-2.659,0.004-3.783,2.348-4.197,3.653c-0.417-1.305-1.54-3.649-4.196-3.653
			c-3.683-0.007-5.529,2.271-5.529,6.889c0,6.659,9.698,14.141,9.698,14.141s0.012-0.007,0.027-0.021
			c0.017,0.015,0.026,0.021,0.026,0.021s9.7-7.481,9.7-14.141C58.776,66.802,56.928,64.524,53.248,64.531z"/>
	</g>
</g>
</svg>
