<?xml version="1.0" encoding="utf-8"?>
<!-- Generator: Adobe Illustrator 12.0.0, SVG Export Plug-In . SVG Version: 6.00 Build 51448)  -->
<!DOCTYPE svg PUBLIC "-//W3C//DTD SVG 1.1//EN" "http://www.w3.org/Graphics/SVG/1.1/DTD/svg11.dtd" [
	<!ENTITY ns_flows "http://ns.adobe.com/Flows/1.0/">
	<!ENTITY ns_extend "http://ns.adobe.com/Extensibility/1.0/">
	<!ENTITY ns_ai "http://ns.adobe.com/AdobeIllustrator/10.0/">
	<!ENTITY ns_graphs "http://ns.adobe.com/Graphs/1.0/">
	<!ENTITY ns_vars "http://ns.adobe.com/Variables/1.0/">
	<!ENTITY ns_imrep "http://ns.adobe.com/ImageReplacement/1.0/">
	<!ENTITY ns_sfw "http://ns.adobe.com/SaveForWeb/1.0/">
	<!ENTITY ns_custom "http://ns.adobe.com/GenericCustomNamespace/1.0/">
	<!ENTITY ns_adobe_xpath "http://ns.adobe.com/XPath/1.0/">
	<!ENTITY ns_svg "http://www.w3.org/2000/svg">
	<!ENTITY ns_xlink "http://www.w3.org/1999/xlink">
]>
<svg  version="1.1"
	 xmlns:x="&ns_extend;" xmlns:i="&ns_ai;" xmlns:graph="&ns_graphs;" i:viewOrigin="89.8623 287.6421" i:rulerOrigin="-89 -137.1973" i:pageBounds="89 287.1973 189 137.1973"
	 xmlns="&ns_svg;" xmlns:xlink="&ns_xlink;" xmlns:a="http://ns.adobe.com/AdobeSVGViewerExtensions/3.0/"
	 width="98.098" height="150.087" viewBox="0 0 98.098 150.087" overflow="visible" enable-background="new 0 0 98.098 150.087"
	 xml:space="preserve">
<metadata>
	<variableSets  xmlns="http://ns.adobe.com/Variables/1.0/">
		<variableSet  locked="none" varSetName="binding1">
			<variables></variables>
			<v:sampleDataSets  xmlns:v="http://ns.adobe.com/Variables/1.0/" xmlns="http://ns.adobe.com/GenericCustomNamespace/1.0/">
				</v:sampleDataSets>
		</variableSet>
	</variableSets>
</metadata>
<g id="图层_1" i:knockout="Off" i:layer="yes" i:dimmedPercent="50" i:rgbTrio="#4F008000FFFF">
	<g i:knockout="Off">
		<path fill="#F7F7F7" stroke="#060506" stroke-width="0.0882" d="M98.054,143.264c0,3.743-3.015,6.779-6.726,6.779H6.77
			c-3.714,0-6.726-3.036-6.726-6.779V6.826c0-3.745,3.011-6.782,6.726-6.782h84.56c3.711,0,6.725,3.037,6.725,6.782V143.264
			L98.054,143.264z"/>
		<path fill="#FF0800" d="M10.884,28.766c-1.135,0-1.614,0.932-1.792,1.451c-0.178-0.519-0.657-1.451-1.791-1.451
			c-1.572-0.003-2.36,0.9-2.36,2.736c0,2.646,4.14,5.619,4.14,5.619s0.005-0.002,0.011-0.007c0.007,0.004,0.011,0.007,0.011,0.007
			s4.138-2.973,4.138-5.619C13.242,29.666,12.454,28.762,10.884,28.766z"/>
		<path fill="#FF0800" d="M87.214,122.811c1.136,0,1.615-0.934,1.793-1.451c0.178,0.519,0.657,1.451,1.789,1.451
			c1.573,0.002,2.36-0.903,2.36-2.738c0-2.646-4.14-5.621-4.14-5.621s-0.005,0.005-0.011,0.011c-0.008-0.006-0.01-0.011-0.01-0.011
			s-4.143,2.976-4.143,5.621C84.855,121.908,85.645,122.813,87.214,122.811z"/>
		<g i:knockout="Off">
			<path fill="#FF0800" d="M10.222,8.955L4.63,17.713v1.222c0,0,5.278,0,5.609,0c0,0.274,0,1.623,0,1.896c-0.229,0-0.913,0-0.913,0
				v1.411h3.368v-1.411c0,0-0.646,0-0.87,0c0-0.274,0-1.623,0-1.896c0.285,0,1.731,0,1.731,0v-1.347c0,0-1.446,0-1.731,0
				c0-0.338,0-8.633,0-8.633H10.222L10.222,8.955z M10.24,11.325c0,0.985,0,5.956,0,6.262c-0.301,0-3.448,0-3.978,0
				C6.556,17.124,9.703,12.17,10.24,11.325z"/>
		</g>
		<g i:knockout="Off">
			<path fill="#FF0800" d="M85.406,128.112v1.413c0,0,0.646,0,0.868,0c0,0.272,0,1.622,0,1.896c-0.284,0-1.729,0-1.729,0v1.347
				c0,0,1.445,0,1.729,0c0,0.338,0,8.632,0,8.632h1.604l5.592-8.757v-1.222c0,0-5.278,0-5.608,0c0-0.273,0-1.623,0-1.896
				c0.229,0,0.912,0,0.912,0v-1.413H85.406z M91.839,132.767c-0.294,0.463-3.443,5.42-3.979,6.264c0-0.985,0-5.958,0-6.264
				C88.16,132.767,91.31,132.767,91.839,132.767z"/>
		</g>
		<path fill="#FF0800" d="M34.894,15.331c-2.66,0.003-3.783,2.349-4.199,3.651c-0.417-1.302-1.539-3.648-4.196-3.651
			c-3.681-0.008-5.528,2.267-5.528,6.888c0,6.661,9.698,14.14,9.698,14.14s0.011-0.006,0.026-0.02
			c0.018,0.014,0.028,0.02,0.028,0.02s9.698-7.479,9.698-14.14C40.422,17.598,38.575,15.323,34.894,15.331z"/>
		<path fill="#FF0800" d="M26.498,133.781c2.659,0,3.784-2.346,4.197-3.649c0.417,1.304,1.542,3.649,4.195,3.649
			c3.684,0.012,5.531-2.267,5.531-6.887c0-6.658-9.698-14.143-9.698-14.143s-0.011,0.006-0.028,0.021
			c-0.016-0.015-0.026-0.021-0.026-0.021s-9.698,7.483-9.698,14.143C20.971,131.514,22.819,133.792,26.498,133.781z"/>
		<path fill="#FF0800" d="M71.598,15.331c-2.658,0.003-3.779,2.349-4.197,3.651c-0.416-1.302-1.537-3.648-4.193-3.651
			c-3.683-0.008-5.529,2.267-5.529,6.888c0,6.661,9.699,14.14,9.699,14.14s0.009-0.006,0.023-0.02
			c0.017,0.014,0.026,0.02,0.026,0.02s9.698-7.479,9.698-14.14C77.125,17.598,75.279,15.323,71.598,15.331z"/>
		<path fill="#FF0800" d="M63.201,133.781c2.66,0,3.782-2.346,4.198-3.649c0.418,1.304,1.539,3.649,4.197,3.649
			c3.682,0.012,5.527-2.267,5.527-6.887c0-6.658-9.698-14.143-9.698-14.143s-0.011,0.006-0.026,0.021
			c-0.016-0.015-0.023-0.021-0.023-0.021s-9.699,7.483-9.699,14.143C57.677,131.514,59.523,133.792,63.201,133.781z"/>
	</g>
</g>
</svg>
