<?xml version="1.0" encoding="utf-8"?>
<!-- Generator: Adobe Illustrator 12.0.0, SVG Export Plug-In . SVG Version: 6.00 Build 51448)  -->
<!DOCTYPE svg PUBLIC "-//W3C//DTD SVG 1.1//EN" "http://www.w3.org/Graphics/SVG/1.1/DTD/svg11.dtd" [
	<!ENTITY ns_flows "http://ns.adobe.com/Flows/1.0/">
	<!ENTITY ns_extend "http://ns.adobe.com/Extensibility/1.0/">
	<!ENTITY ns_ai "http://ns.adobe.com/AdobeIllustrator/10.0/">
	<!ENTITY ns_graphs "http://ns.adobe.com/Graphs/1.0/">
	<!ENTITY ns_vars "http://ns.adobe.com/Variables/1.0/">
	<!ENTITY ns_imrep "http://ns.adobe.com/ImageReplacement/1.0/">
	<!ENTITY ns_sfw "http://ns.adobe.com/SaveForWeb/1.0/">
	<!ENTITY ns_custom "http://ns.adobe.com/GenericCustomNamespace/1.0/">
	<!ENTITY ns_adobe_xpath "http://ns.adobe.com/XPath/1.0/">
	<!ENTITY ns_svg "http://www.w3.org/2000/svg">
	<!ENTITY ns_xlink "http://www.w3.org/1999/xlink">
]>
<svg  version="1.1"
	 xmlns:x="&ns_extend;" xmlns:i="&ns_ai;" xmlns:graph="&ns_graphs;" i:viewOrigin="89.8608 287.6421" i:rulerOrigin="-89 -137.1973" i:pageBounds="89 287.1973 189 137.1973"
	 xmlns="&ns_svg;" xmlns:xlink="&ns_xlink;" xmlns:a="http://ns.adobe.com/AdobeSVGViewerExtensions/3.0/"
	 width="98.097" height="150.087" viewBox="0 0 98.097 150.087" overflow="visible" enable-background="new 0 0 98.097 150.087"
	 xml:space="preserve">
<metadata>
	<variableSets  xmlns="http://ns.adobe.com/Variables/1.0/">
		<variableSet  locked="none" varSetName="binding1">
			<variables></variables>
			<v:sampleDataSets  xmlns:v="http://ns.adobe.com/Variables/1.0/" xmlns="http://ns.adobe.com/GenericCustomNamespace/1.0/">
				</v:sampleDataSets>
		</variableSet>
	</variableSets>
</metadata>
<g id="图层_1" i:knockout="Off" i:layer="yes" i:dimmedPercent="50" i:rgbTrio="#4F008000FFFF">
	<g i:knockout="Off">
		<path fill="#F7F7F7" stroke="#060506" stroke-width="0.0882" d="M98.053,143.264c0,3.743-3.014,6.779-6.725,6.779H6.77
			c-3.714,0-6.726-3.036-6.726-6.779V6.826c0-3.745,3.011-6.782,6.726-6.782h84.559c3.711,0,6.725,3.037,6.725,6.782V143.264
			L98.053,143.264z"/>
		<path fill="#FF0800" d="M10.884,28.765c-1.137,0.001-1.615,0.932-1.791,1.45c-0.178-0.519-0.657-1.449-1.792-1.45
			c-1.571-0.005-2.359,0.903-2.359,2.736c0,2.648,4.14,5.621,4.14,5.621s0.003-0.004,0.011-0.008c0.006,0.004,0.01,0.008,0.01,0.008
			s4.14-2.973,4.14-5.621C13.243,29.668,12.454,28.76,10.884,28.765z"/>
		<path fill="#FF0800" d="M87.215,122.809c1.135,0,1.613-0.936,1.792-1.451c0.177,0.517,0.657,1.451,1.79,1.451
			c1.569,0.005,2.358-0.902,2.358-2.739c0-2.644-4.139-5.616-4.139-5.616s-0.004,0.001-0.01,0.008
			c-0.009-0.007-0.012-0.008-0.012-0.008s-4.142,2.974-4.142,5.616C84.856,121.907,85.644,122.814,87.215,122.809z"/>
		<g i:knockout="Off">
			<path fill="#FF0800" d="M6.428,8.955l-1.024,7.167h1.34l0.052-0.083c0.249-0.394,0.576-0.707,0.971-0.929
				c0.393-0.204,0.819-0.309,1.26-0.309c0.801,0,1.41,0.276,1.863,0.845c0.444,0.56,0.67,1.375,0.67,2.424
				c0,0.998-0.227,1.787-0.674,2.347c-0.436,0.569-1.025,0.844-1.805,0.844c-0.718,0-1.295-0.232-1.765-0.71
				c-0.477-0.484-0.73-1.126-0.754-1.91L6.557,18.47H5.002l0.008,0.184c0.051,1.197,0.456,2.171,1.203,2.893
				c0.735,0.726,1.681,1.095,2.808,1.095c1.264,0,2.285-0.428,3.035-1.271c0.744-0.82,1.122-1.95,1.122-3.357
				c0-1.391-0.357-2.514-1.062-3.337c-0.715-0.833-1.693-1.255-2.908-1.255c-0.468,0-0.924,0.079-1.356,0.233
				c-0.295,0.103-0.546,0.248-0.779,0.413c0.096-0.67,0.5-3.481,0.536-3.733c0.287,0,4.968,0,4.968,0v-1.38H6.428L6.428,8.955z"/>
		</g>
		<g i:knockout="Off">
			<path fill="#FF0800" d="M86.043,128.982c-0.745,0.824-1.123,1.953-1.123,3.355c0,1.39,0.356,2.513,1.062,3.341
				c0.712,0.831,1.689,1.252,2.905,1.252c0.471,0,0.928-0.079,1.358-0.233c0.286-0.1,0.541-0.246,0.778-0.414
				c-0.097,0.667-0.501,3.482-0.538,3.735c-0.285,0-4.966,0-4.966,0v1.381h6.146l1.023-7.167h-1.339l-0.052,0.082
				c-0.251,0.396-0.577,0.708-0.971,0.928c-0.396,0.207-0.821,0.312-1.262,0.312c-0.8,0-1.409-0.277-1.861-0.849
				c-0.444-0.557-0.67-1.372-0.67-2.423c0-1.001,0.228-1.79,0.674-2.349c0.437-0.569,1.025-0.846,1.805-0.846
				c0.715,0,1.291,0.232,1.764,0.713c0.479,0.48,0.731,1.124,0.757,1.907l0.006,0.171h1.554l-0.008-0.184
				c-0.051-1.197-0.456-2.169-1.204-2.891c-0.736-0.728-1.682-1.097-2.809-1.097C87.812,127.71,86.792,128.138,86.043,128.982z"/>
		</g>
		<path fill="#FF0800" d="M53.247,64.532c-2.66,0.003-3.783,2.349-4.198,3.652c-0.416-1.303-1.539-3.649-4.196-3.652
			c-3.68-0.008-5.526,2.27-5.526,6.888c0,6.66,9.696,14.141,9.696,14.141s0.012-0.004,0.026-0.019
			c0.017,0.015,0.026,0.019,0.026,0.019s9.699-7.48,9.699-14.141C58.774,66.802,56.927,64.524,53.247,64.532z"/>
		<path fill="#FF0800" d="M34.892,15.331c-2.658,0.003-3.781,2.349-4.197,3.651c-0.416-1.302-1.54-3.648-4.196-3.651
			c-3.68-0.008-5.527,2.27-5.527,6.891c0,6.658,9.698,14.137,9.698,14.137s0.013-0.006,0.025-0.02
			c0.018,0.014,0.026,0.02,0.026,0.02s9.698-7.479,9.698-14.138C40.42,17.601,38.574,15.323,34.892,15.331z"/>
		<path fill="#FF0800" d="M26.497,133.779c2.659-0.001,3.784-2.346,4.199-3.649c0.416,1.305,1.541,3.648,4.195,3.649
			c3.683,0.011,5.529-2.267,5.529-6.888c0-6.657-9.698-14.14-9.698-14.14s-0.012,0.008-0.026,0.021
			c-0.018-0.016-0.025-0.021-0.025-0.021s-9.698,7.481-9.698,14.14C20.972,131.512,22.82,133.79,26.497,133.779z"/>
		<path fill="#FF0800" d="M71.598,15.331c-2.659,0.003-3.782,2.349-4.197,3.651c-0.416-1.302-1.539-3.648-4.194-3.651
			c-3.683-0.008-5.529,2.27-5.529,6.891c0,6.658,9.699,14.137,9.699,14.137s0.01-0.006,0.023-0.02
			c0.018,0.014,0.028,0.02,0.028,0.02s9.698-7.479,9.698-14.138C77.126,17.601,75.28,15.323,71.598,15.331z"/>
		<path fill="#FF0800" d="M63.203,133.779c2.658-0.001,3.781-2.346,4.196-3.649c0.416,1.305,1.538,3.648,4.196,3.649
			c3.683,0.011,5.53-2.267,5.53-6.888c0-6.657-9.697-14.14-9.697-14.14s-0.012,0.008-0.028,0.021
			c-0.016-0.016-0.023-0.021-0.023-0.021s-9.699,7.481-9.699,14.14C57.676,131.512,59.521,133.79,63.203,133.779z"/>
	</g>
</g>
</svg>
