<?xml version="1.0" encoding="utf-8"?>
<!-- Generator: Adobe Illustrator 12.0.0, SVG Export Plug-In . SVG Version: 6.00 Build 51448)  -->
<!DOCTYPE svg PUBLIC "-//W3C//DTD SVG 1.1//EN" "http://www.w3.org/Graphics/SVG/1.1/DTD/svg11.dtd" [
	<!ENTITY ns_flows "http://ns.adobe.com/Flows/1.0/">
	<!ENTITY ns_extend "http://ns.adobe.com/Extensibility/1.0/">
	<!ENTITY ns_ai "http://ns.adobe.com/AdobeIllustrator/10.0/">
	<!ENTITY ns_graphs "http://ns.adobe.com/Graphs/1.0/">
	<!ENTITY ns_vars "http://ns.adobe.com/Variables/1.0/">
	<!ENTITY ns_imrep "http://ns.adobe.com/ImageReplacement/1.0/">
	<!ENTITY ns_sfw "http://ns.adobe.com/SaveForWeb/1.0/">
	<!ENTITY ns_custom "http://ns.adobe.com/GenericCustomNamespace/1.0/">
	<!ENTITY ns_adobe_xpath "http://ns.adobe.com/XPath/1.0/">
	<!ENTITY ns_svg "http://www.w3.org/2000/svg">
	<!ENTITY ns_xlink "http://www.w3.org/1999/xlink">
]>
<svg  version="1.1"
	 xmlns:x="&ns_extend;" xmlns:i="&ns_ai;" xmlns:graph="&ns_graphs;" i:viewOrigin="89.8623 287.6421" i:rulerOrigin="-89 -137.1973" i:pageBounds="89 287.1973 189 137.1973"
	 xmlns="&ns_svg;" xmlns:xlink="&ns_xlink;" xmlns:a="http://ns.adobe.com/AdobeSVGViewerExtensions/3.0/"
	 width="98.098" height="150.087" viewBox="0 0 98.098 150.087" overflow="visible" enable-background="new 0 0 98.098 150.087"
	 xml:space="preserve">
<metadata>
	<variableSets  xmlns="http://ns.adobe.com/Variables/1.0/">
		<variableSet  locked="none" varSetName="binding1">
			<variables></variables>
			<v:sampleDataSets  xmlns:v="http://ns.adobe.com/Variables/1.0/" xmlns="http://ns.adobe.com/GenericCustomNamespace/1.0/">
				</v:sampleDataSets>
		</variableSet>
	</variableSets>
</metadata>
<g id="图层_1" i:knockout="Off" i:layer="yes" i:dimmedPercent="50" i:rgbTrio="#4F008000FFFF">
	<g i:knockout="Off">
		<path fill="#F7F7F7" stroke="#060506" stroke-width="0.0882" d="M98.054,143.264c0,3.743-3.016,6.779-6.726,6.779H6.77
			c-3.714,0-6.726-3.036-6.726-6.779V6.826c0-3.745,3.011-6.782,6.726-6.782h84.56c3.71,0,6.725,3.037,6.725,6.782V143.264
			L98.054,143.264z"/>
		<path fill="#FF0800" d="M10.884,28.765c-1.135,0.001-1.614,0.932-1.792,1.45c-0.177-0.518-0.657-1.448-1.791-1.45
			c-1.57-0.004-2.36,0.902-2.36,2.735c0,2.648,4.142,5.622,4.142,5.622s0.003-0.005,0.009-0.009
			c0.007,0.005,0.011,0.009,0.011,0.009s4.14-2.973,4.14-5.622C13.242,29.667,12.453,28.76,10.884,28.765z"/>
		<path fill="#FF0800" d="M87.215,122.81c1.134,0,1.615-0.936,1.791-1.451c0.178,0.517,0.657,1.451,1.791,1.451
			c1.571,0.004,2.358-0.902,2.358-2.739c0-2.645-4.138-5.617-4.138-5.617s-0.006,0-0.012,0.009c-0.008-0.009-0.01-0.009-0.01-0.009
			s-4.143,2.974-4.143,5.617C84.854,121.908,85.645,122.814,87.215,122.81z"/>
		<g i:knockout="Off">
			<path fill="#FF0800" d="M5.069,15.92c0,4.898,1.324,7.179,4.168,7.179c3.182,0,3.878-3.578,3.878-4.957
				c0-1.818-0.813-5.257-3.891-5.257c-1.32,0-2.134,0.652-2.584,1.315c0.223-2.513,1.392-3.869,2.507-3.869
				c1.805,0,2.34,1.514,2.362,1.579l0.06,0.176l1.392-0.554l-0.055-0.159c-0.009-0.024-0.874-2.419-3.677-2.419
				C7.674,8.955,5.069,9.86,5.069,15.92z M6.672,18.049c0-2.412,1.157-3.674,2.299-3.674c1.735,0,2.73,1.366,2.73,3.749
				c0,1.644-0.632,3.563-2.412,3.563C7.36,21.687,6.672,19.807,6.672,18.049z"/>
		</g>
		<g i:knockout="Off">
			<path fill="#FF0800" d="M84.982,132.208c0,1.818,0.813,5.26,3.892,5.26c1.319,0,2.134-0.652,2.583-1.315
				c-0.223,2.513-1.392,3.868-2.505,3.868c-1.807,0-2.342-1.515-2.363-1.578l-0.061-0.176l-1.392,0.555l0.056,0.159
				c0.008,0.023,0.874,2.419,3.679,2.419c1.553,0,4.156-0.904,4.156-6.965c0-4.898-1.323-7.182-4.167-7.182
				C85.68,127.254,84.982,130.831,84.982,132.208z M86.395,132.225c0-1.643,0.632-3.56,2.413-3.56c1.93,0,2.617,1.878,2.617,3.638
				c0,2.409-1.156,3.672-2.299,3.672C87.391,135.975,86.395,134.608,86.395,132.225z"/>
		</g>
		<path fill="#FF0800" d="M34.893,15.331c-2.659,0.003-3.783,2.349-4.199,3.651c-0.416-1.302-1.539-3.648-4.196-3.651
			c-3.68-0.008-5.526,2.27-5.526,6.891c0,6.658,9.698,14.137,9.698,14.137s0.012-0.006,0.024-0.02
			c0.018,0.014,0.027,0.02,0.027,0.02s9.697-7.479,9.697-14.138C40.419,17.601,38.575,15.323,34.893,15.331z"/>
		<path fill="#FF0800" d="M26.497,133.779c2.658-0.001,3.784-2.346,4.197-3.649c0.417,1.305,1.542,3.648,4.196,3.649
			c3.684,0.011,5.528-2.267,5.528-6.888c0-6.657-9.697-14.14-9.697-14.14s-0.012,0.008-0.027,0.021
			c-0.016-0.016-0.024-0.021-0.024-0.021s-9.698,7.481-9.698,14.14C20.972,131.512,22.819,133.79,26.497,133.779z"/>
		<path fill="#FF0800" d="M71.599,15.331c-2.659,0.003-3.782,2.349-4.199,3.651c-0.415-1.302-1.537-3.648-4.194-3.651
			c-3.683-0.008-5.529,2.27-5.529,6.891c0,6.658,9.699,14.137,9.699,14.137s0.011-0.006,0.024-0.02
			c0.017,0.014,0.027,0.02,0.027,0.02s9.697-7.479,9.697-14.138C77.125,17.601,75.277,15.323,71.599,15.331z"/>
		<path fill="#FF0800" d="M63.201,133.779c2.66-0.001,3.782-2.346,4.197-3.649c0.417,1.305,1.539,3.648,4.196,3.649
			c3.682,0.011,5.529-2.267,5.529-6.888c0-6.657-9.698-14.14-9.698-14.14s-0.011,0.008-0.027,0.021
			c-0.014-0.016-0.023-0.021-0.023-0.021s-9.699,7.481-9.699,14.14C57.675,131.512,59.521,133.79,63.201,133.779z"/>
		<path fill="#FF0800" d="M34.893,64.531c-2.659,0.004-3.783,2.348-4.199,3.653c-0.416-1.305-1.539-3.649-4.196-3.653
			c-3.68-0.007-5.526,2.271-5.526,6.889c0,6.659,9.698,14.141,9.698,14.141s0.012-0.007,0.024-0.021
			c0.018,0.015,0.027,0.021,0.027,0.021s9.697-7.481,9.697-14.141C40.419,66.802,38.575,64.524,34.893,64.531z"/>
		<path fill="#FF0800" d="M71.599,64.531c-2.659,0.004-3.782,2.348-4.199,3.653c-0.415-1.305-1.537-3.649-4.194-3.653
			c-3.683-0.007-5.529,2.271-5.529,6.889c0,6.659,9.699,14.141,9.699,14.141s0.011-0.007,0.024-0.021
			c0.017,0.015,0.027,0.021,0.027,0.021s9.697-7.481,9.697-14.141C77.125,66.802,75.277,64.524,71.599,64.531z"/>
	</g>
</g>
</svg>
