<?xml version="1.0" encoding="utf-8"?>
<!-- Generator: Adobe Illustrator 12.0.0, SVG Export Plug-In . SVG Version: 6.00 Build 51448)  -->
<!DOCTYPE svg PUBLIC "-//W3C//DTD SVG 1.1//EN" "http://www.w3.org/Graphics/SVG/1.1/DTD/svg11.dtd" [
	<!ENTITY ns_flows "http://ns.adobe.com/Flows/1.0/">
	<!ENTITY ns_extend "http://ns.adobe.com/Extensibility/1.0/">
	<!ENTITY ns_ai "http://ns.adobe.com/AdobeIllustrator/10.0/">
	<!ENTITY ns_graphs "http://ns.adobe.com/Graphs/1.0/">
	<!ENTITY ns_vars "http://ns.adobe.com/Variables/1.0/">
	<!ENTITY ns_imrep "http://ns.adobe.com/ImageReplacement/1.0/">
	<!ENTITY ns_sfw "http://ns.adobe.com/SaveForWeb/1.0/">
	<!ENTITY ns_custom "http://ns.adobe.com/GenericCustomNamespace/1.0/">
	<!ENTITY ns_adobe_xpath "http://ns.adobe.com/XPath/1.0/">
	<!ENTITY ns_svg "http://www.w3.org/2000/svg">
	<!ENTITY ns_xlink "http://www.w3.org/1999/xlink">
]>
<svg  version="1.1"
	 xmlns:x="&ns_extend;" xmlns:i="&ns_ai;" xmlns:graph="&ns_graphs;" i:viewOrigin="89.8633 287.6421" i:rulerOrigin="-89 -137.1973" i:pageBounds="89 287.1973 189 137.1973"
	 xmlns="&ns_svg;" xmlns:xlink="&ns_xlink;" xmlns:a="http://ns.adobe.com/AdobeSVGViewerExtensions/3.0/"
	 width="98.098" height="150.087" viewBox="0 0 98.098 150.087" overflow="visible" enable-background="new 0 0 98.098 150.087"
	 xml:space="preserve">
<metadata>
	<variableSets  xmlns="http://ns.adobe.com/Variables/1.0/">
		<variableSet  locked="none" varSetName="binding1">
			<variables></variables>
			<v:sampleDataSets  xmlns:v="http://ns.adobe.com/Variables/1.0/" xmlns="http://ns.adobe.com/GenericCustomNamespace/1.0/">
				</v:sampleDataSets>
		</variableSet>
	</variableSets>
</metadata>
<g id="图层_1" i:knockout="Off" i:layer="yes" i:dimmedPercent="50" i:rgbTrio="#4F008000FFFF">
	<g i:knockout="Off">
		<path fill="#F7F7F7" stroke="#060506" stroke-width="0.0882" d="M98.054,143.264c0,3.743-3.015,6.779-6.726,6.779H6.77
			c-3.715,0-6.726-3.036-6.726-6.779V6.826c0-3.745,3.011-6.782,6.726-6.782h84.558c3.712,0,6.727,3.037,6.727,6.782V143.264
			L98.054,143.264z"/>
		<path fill="#FF0800" d="M10.884,28.766c-1.135,0-1.614,0.932-1.79,1.45c-0.18-0.519-0.658-1.45-1.792-1.45
			c-1.571-0.006-2.36,0.899-2.36,2.736c0,2.645,4.14,5.618,4.14,5.618s0.004-0.001,0.012-0.007c0.005,0.006,0.009,0.007,0.009,0.007
			s4.14-2.973,4.14-5.618C13.243,29.666,12.453,28.76,10.884,28.766z"/>
		<path fill="#FF0800" d="M87.215,122.811c1.135,0,1.614-0.934,1.793-1.451c0.177,0.519,0.656,1.451,1.789,1.451
			c1.572,0.002,2.358-0.903,2.358-2.738c0-2.646-4.139-5.621-4.139-5.621s-0.004,0.005-0.01,0.011
			c-0.008-0.006-0.011-0.011-0.011-0.011s-4.141,2.976-4.141,5.621C84.857,121.908,85.645,122.813,87.215,122.811z"/>
		<g i:knockout="Off">
			<path fill="#FF0800" d="M5.06,8.955v2.896h1.391c0,0,0-1.15,0-1.42c0.308,0,4.296,0,4.889,0c-1.219,1.56-2.216,3.333-2.952,5.293
				c-0.698,1.787-1.246,3.911-1.629,6.313l-0.033,0.205h1.69l0.021-0.152c0.339-2.393,0.851-4.497,1.521-6.253
				c0.767-2.005,1.82-3.836,3.13-5.441l0.04-0.049V8.955H5.06L5.06,8.955z"/>
		</g>
		<g i:knockout="Off">
			<path fill="#FF0800" d="M89.684,128.112l-0.021,0.151c-0.338,2.384-0.851,4.487-1.521,6.255
				c-0.765,2.001-1.816,3.832-3.128,5.442l-0.039,0.05v1.389h8.066v-2.897h-1.392c0,0,0,1.15,0,1.421c-0.309,0-4.298,0-4.89,0
				c1.213-1.554,2.211-3.326,2.951-5.293c0.697-1.78,1.245-3.904,1.63-6.312l0.032-0.204L89.684,128.112L89.684,128.112z"/>
		</g>
		<path fill="#FF0800" d="M34.894,15.333c-2.66,0.002-3.782,2.349-4.198,3.649c-0.416-1.3-1.539-3.647-4.196-3.649
			c-3.68-0.011-5.527,2.267-5.527,6.888c0,6.66,9.698,14.137,9.698,14.137s0.012-0.003,0.025-0.017
			c0.017,0.013,0.028,0.017,0.028,0.017s9.697-7.477,9.697-14.137C40.421,17.6,38.575,15.322,34.894,15.333z"/>
		<path fill="#FF0800" d="M26.497,133.781c2.66,0,3.785-2.346,4.198-3.649c0.416,1.304,1.542,3.649,4.195,3.649
			c3.684,0.012,5.53-2.267,5.53-6.887c0-6.658-9.697-14.143-9.697-14.143s-0.012,0.006-0.028,0.021
			c-0.016-0.015-0.025-0.021-0.025-0.021s-9.698,7.483-9.698,14.143C20.973,131.514,22.821,133.792,26.497,133.781z"/>
		<path fill="#FF0800" d="M71.6,15.333c-2.66,0.002-3.782,2.349-4.198,3.649c-0.417-1.3-1.539-3.647-4.196-3.649
			c-3.68-0.011-5.527,2.267-5.527,6.888c0,6.66,9.7,14.137,9.7,14.137s0.009-0.003,0.023-0.017c0.018,0.013,0.027,0.017,0.027,0.017
			s9.697-7.477,9.697-14.137C77.126,17.6,75.279,15.322,71.6,15.333z"/>
		<path fill="#FF0800" d="M63.203,133.781c2.657,0,3.78-2.346,4.197-3.649c0.416,1.304,1.538,3.649,4.196,3.649
			c3.681,0.012,5.528-2.267,5.528-6.887c0-6.658-9.697-14.143-9.697-14.143s-0.011,0.006-0.027,0.021
			c-0.016-0.015-0.023-0.021-0.023-0.021s-9.701,7.483-9.701,14.143C57.676,131.514,59.522,133.792,63.203,133.781z"/>
		<path fill="#FF0800" d="M34.894,64.531c-2.66,0.001-3.782,2.348-4.198,3.651c-0.416-1.303-1.539-3.65-4.196-3.651
			c-3.68-0.011-5.527,2.269-5.527,6.888c0,6.66,9.698,14.139,9.698,14.139s0.012-0.004,0.025-0.019
			c0.017,0.015,0.028,0.019,0.028,0.019s9.697-7.479,9.697-14.139C40.421,66.8,38.575,64.521,34.894,64.531z"/>
		<path fill="#FF0800" d="M71.6,64.531c-2.66,0.001-3.782,2.348-4.198,3.651c-0.417-1.303-1.539-3.65-4.196-3.651
			c-3.68-0.011-5.527,2.269-5.527,6.888c0,6.66,9.7,14.139,9.7,14.139s0.009-0.004,0.023-0.019c0.018,0.015,0.027,0.019,0.027,0.019
			s9.697-7.479,9.697-14.139C77.126,66.8,75.279,64.521,71.6,64.531z"/>
		<path fill="#FF0800" d="M53.258,40.309c-2.66,0.002-3.783,2.346-4.198,3.651c-0.416-1.305-1.541-3.649-4.196-3.651
			c-3.68-0.008-5.529,2.267-5.529,6.891c0,6.658,9.699,14.137,9.699,14.137s0.01-0.003,0.025-0.02
			c0.017,0.017,0.025,0.02,0.025,0.02s9.703-7.479,9.703-14.137C58.787,42.576,56.938,40.3,53.258,40.309z"/>
	</g>
</g>
</svg>
