<?xml version="1.0" encoding="utf-8"?>
<!-- Generator: Adobe Illustrator 12.0.0, SVG Export Plug-In . SVG Version: 6.00 Build 51448)  -->
<!DOCTYPE svg PUBLIC "-//W3C//DTD SVG 1.1//EN" "http://www.w3.org/Graphics/SVG/1.1/DTD/svg11.dtd" [
	<!ENTITY ns_flows "http://ns.adobe.com/Flows/1.0/">
	<!ENTITY ns_extend "http://ns.adobe.com/Extensibility/1.0/">
	<!ENTITY ns_ai "http://ns.adobe.com/AdobeIllustrator/10.0/">
	<!ENTITY ns_graphs "http://ns.adobe.com/Graphs/1.0/">
	<!ENTITY ns_vars "http://ns.adobe.com/Variables/1.0/">
	<!ENTITY ns_imrep "http://ns.adobe.com/ImageReplacement/1.0/">
	<!ENTITY ns_sfw "http://ns.adobe.com/SaveForWeb/1.0/">
	<!ENTITY ns_custom "http://ns.adobe.com/GenericCustomNamespace/1.0/">
	<!ENTITY ns_adobe_xpath "http://ns.adobe.com/XPath/1.0/">
	<!ENTITY ns_svg "http://www.w3.org/2000/svg">
	<!ENTITY ns_xlink "http://www.w3.org/1999/xlink">
]>
<svg  version="1.1"
	 xmlns:x="&ns_extend;" xmlns:i="&ns_ai;" xmlns:graph="&ns_graphs;" i:viewOrigin="89.8618 287.6421" i:rulerOrigin="-89 -137.1973" i:pageBounds="89 287.1973 189 137.1973"
	 xmlns="&ns_svg;" xmlns:xlink="&ns_xlink;" xmlns:a="http://ns.adobe.com/AdobeSVGViewerExtensions/3.0/"
	 width="98.097" height="150.087" viewBox="0 0 98.097 150.087" overflow="visible" enable-background="new 0 0 98.097 150.087"
	 xml:space="preserve">
<metadata>
	<variableSets  xmlns="http://ns.adobe.com/Variables/1.0/">
		<variableSet  locked="none" varSetName="binding1">
			<variables></variables>
			<v:sampleDataSets  xmlns:v="http://ns.adobe.com/Variables/1.0/" xmlns="http://ns.adobe.com/GenericCustomNamespace/1.0/">
				</v:sampleDataSets>
		</variableSet>
	</variableSets>
</metadata>
<g id="图层_1" i:knockout="Off" i:layer="yes" i:dimmedPercent="50" i:rgbTrio="#4F008000FFFF">
	<g i:knockout="Off">
		<path fill="#F7F7F7" stroke="#060506" stroke-width="0.0882" d="M98.052,143.264c0,3.743-3.014,6.779-6.725,6.779H6.769
			c-3.716,0-6.725-3.036-6.725-6.779V6.826c0-3.745,3.009-6.782,6.725-6.782h84.56c3.711,0,6.725,3.037,6.725,6.782L98.052,143.264
			L98.052,143.264z"/>
		<path fill="#FF0800" d="M10.882,28.766c-1.135,0-1.614,0.932-1.79,1.451c-0.178-0.519-0.658-1.451-1.792-1.451
			c-1.571-0.006-2.36,0.899-2.36,2.736c0,2.645,4.14,5.618,4.14,5.618s0.004-0.002,0.012-0.008C9.098,37.118,9.1,37.12,9.1,37.12
			s4.139-2.973,4.139-5.618C13.24,29.666,12.451,28.76,10.882,28.766z"/>
		<path fill="#FF0800" d="M87.213,122.811c1.136,0,1.614-0.934,1.793-1.451c0.178,0.519,0.657,1.451,1.79,1.451
			c1.569,0.002,2.359-0.903,2.359-2.738c0-2.646-4.139-5.622-4.139-5.622s-0.007,0.006-0.012,0.012
			c-0.009-0.007-0.012-0.012-0.012-0.012s-4.14,2.977-4.14,5.622C84.855,121.908,85.643,122.813,87.213,122.811z"/>
		<g i:knockout="Off">
			<path fill="#FF0800" d="M6.37,9.957L6.37,9.957c-0.678,0.668-1.022,1.552-1.022,2.629c0,0.665,0.157,1.25,0.466,1.736
				c0.264,0.418,0.673,0.776,1.171,1.088c-0.612,0.296-1.13,0.697-1.498,1.243c-0.396,0.637-0.594,1.378-0.594,2.208
				c0,1.25,0.386,2.271,1.148,3.036c0.759,0.78,1.789,1.176,3.06,1.176c1.249,0,2.268-0.396,3.027-1.177
				c0.771-0.765,1.162-1.787,1.162-3.035c0-0.834-0.217-1.577-0.644-2.209c-0.367-0.545-0.879-0.947-1.483-1.243
				c0.493-0.315,0.897-0.673,1.158-1.089c0.32-0.478,0.483-1.062,0.483-1.735c0-1.079-0.35-1.963-1.04-2.629
				c-0.69-0.665-1.59-1.001-2.677-1.001C7.971,8.955,7.057,9.292,6.37,9.957z M6.966,12.63c0-0.712,0.193-1.284,0.574-1.701
				c0.39-0.395,0.909-0.597,1.535-0.597c0.617,0,1.129,0.202,1.521,0.602c0.391,0.413,0.59,0.984,0.59,1.696
				c0,0.668-0.187,1.186-0.571,1.58c-0.382,0.401-0.899,0.603-1.54,0.603c-0.661,0-1.169-0.196-1.555-0.601
				C7.147,13.818,6.966,13.3,6.966,12.63z M7.269,20.909L7.269,20.909c-0.501-0.534-0.755-1.208-0.755-2.006
				c0-0.868,0.234-1.548,0.697-2.021c0.448-0.46,1.08-0.692,1.881-0.692c0.787,0,1.396,0.227,1.864,0.693
				c0.481,0.472,0.715,1.096,0.715,1.909c0,0.859-0.254,1.565-0.756,2.101c-0.495,0.538-1.091,0.799-1.823,0.799
				C8.355,21.691,7.759,21.436,7.269,20.909z"/>
		</g>
		<g i:knockout="Off">
			<path fill="#FF0800" d="M85.968,128.455c-0.771,0.77-1.163,1.791-1.163,3.038c0,0.828,0.217,1.571,0.644,2.21
				c0.364,0.541,0.878,0.941,1.484,1.24c-0.496,0.319-0.9,0.679-1.156,1.089c-0.319,0.479-0.482,1.064-0.482,1.734
				c0,1.08,0.35,1.964,1.039,2.629c0.69,0.667,1.592,1.004,2.677,1.004l0,0c1.113,0,2.027-0.337,2.717-1.004
				c0.678-0.668,1.021-1.552,1.021-2.629c0-0.665-0.157-1.249-0.468-1.735c-0.266-0.419-0.668-0.771-1.17-1.088
				c0.615-0.3,1.136-0.699,1.498-1.24c0.396-0.644,0.594-1.384,0.594-2.21c0-1.252-0.387-2.272-1.146-3.038
				c-0.759-0.776-1.789-1.173-3.062-1.173C87.749,127.282,86.73,127.676,85.968,128.455z M87.138,133.468L87.138,133.468
				c-0.48-0.471-0.713-1.094-0.713-1.906c0-0.858,0.254-1.564,0.755-2.1c0.497-0.54,1.093-0.802,1.823-0.802
				c0.735,0,1.332,0.256,1.823,0.781c0.509,0.544,0.757,1.2,0.757,2.007c0,0.87-0.235,1.55-0.698,2.021
				c-0.447,0.459-1.08,0.69-1.882,0.69C88.216,134.162,87.606,133.935,87.138,133.468z M86.91,137.724
				c0-0.663,0.19-1.195,0.566-1.581c0.388-0.404,0.893-0.603,1.543-0.603c0.664,0,1.172,0.196,1.554,0.601
				c0.369,0.387,0.557,0.919,0.557,1.582c0,0.715-0.193,1.285-0.574,1.695c-0.395,0.403-0.897,0.603-1.535,0.603
				c-0.628,0-1.124-0.198-1.519-0.604C87.109,139.006,86.91,138.436,86.91,137.724z"/>
		</g>
		<path fill="#FF0800" d="M34.891,15.333c-2.66,0.002-3.783,2.349-4.198,3.649c-0.416-1.3-1.539-3.647-4.195-3.649
			c-3.682-0.011-5.527,2.267-5.527,6.888c0,6.66,9.698,14.137,9.698,14.137s0.012-0.003,0.025-0.017
			c0.019,0.013,0.026,0.017,0.026,0.017s9.7-7.477,9.7-14.137C40.419,17.6,38.573,15.322,34.891,15.333z"/>
		<path fill="#FF0800" d="M26.496,133.781c2.658,0,3.783-2.346,4.197-3.649c0.416,1.304,1.542,3.649,4.195,3.649
			c3.684,0.012,5.53-2.267,5.53-6.887c0-6.658-9.699-14.143-9.699-14.143s-0.01,0.006-0.026,0.021
			c-0.015-0.015-0.024-0.021-0.024-0.021s-9.698,7.483-9.698,14.143C20.971,131.514,22.817,133.792,26.496,133.781z"/>
		<path fill="#FF0800" d="M71.597,15.333c-2.659,0.002-3.781,2.349-4.198,3.649c-0.415-1.3-1.539-3.647-4.194-3.649
			c-3.682-0.011-5.528,2.267-5.528,6.888c0,6.66,9.699,14.137,9.699,14.137s0.009-0.003,0.023-0.017
			c0.018,0.013,0.027,0.017,0.027,0.017s9.699-7.477,9.699-14.137C77.125,17.6,75.278,15.322,71.597,15.333z"/>
		<path fill="#FF0800" d="M63.202,133.781c2.657,0,3.781-2.346,4.196-3.649c0.417,1.304,1.539,3.649,4.195,3.649
			c3.684,0.012,5.531-2.267,5.531-6.887c0-6.658-9.699-14.143-9.699-14.143s-0.01,0.006-0.027,0.021
			c-0.015-0.015-0.022-0.021-0.022-0.021s-9.699,7.483-9.699,14.143C57.675,131.514,59.521,133.792,63.202,133.781z"/>
		<path fill="#FF0800" d="M34.891,64.531c-2.66,0.001-3.783,2.348-4.198,3.651c-0.416-1.303-1.539-3.65-4.195-3.651
			c-3.682-0.011-5.527,2.269-5.527,6.888c0,6.66,9.698,14.139,9.698,14.139s0.012-0.004,0.025-0.019
			c0.019,0.015,0.026,0.019,0.026,0.019s9.7-7.479,9.7-14.139C40.419,66.8,38.573,64.521,34.891,64.531z"/>
		<path fill="#FF0800" d="M71.597,64.531c-2.659,0.001-3.781,2.348-4.198,3.651c-0.415-1.303-1.539-3.65-4.194-3.651
			c-3.682-0.011-5.528,2.269-5.528,6.888c0,6.66,9.699,14.139,9.699,14.139s0.009-0.004,0.023-0.019
			c0.018,0.015,0.027,0.019,0.027,0.019s9.699-7.479,9.699-14.139C77.125,66.8,75.278,64.521,71.597,64.531z"/>
		<path fill="#FF0800" d="M53.255,40.309c-2.658,0.002-3.783,2.346-4.198,3.651c-0.415-1.305-1.539-3.649-4.194-3.651
			c-3.682-0.008-5.532,2.267-5.532,6.891c0,6.658,9.7,14.137,9.7,14.137s0.009-0.003,0.026-0.02c0.017,0.017,0.025,0.02,0.025,0.02
			s9.701-7.479,9.701-14.137C58.785,42.576,56.936,40.3,53.255,40.309z"/>
		<path fill="#FF0800" d="M53.244,109.802c-2.658-0.005-3.781-2.351-4.196-3.652c-0.417,1.302-1.54,3.647-4.197,3.652
			c-3.68,0.007-5.526-2.27-5.526-6.893c0-6.657,9.696-14.139,9.696-14.139s0.011,0.007,0.026,0.021
			c0.017-0.016,0.026-0.021,0.026-0.021s9.699,7.48,9.699,14.139C58.773,107.534,56.926,109.809,53.244,109.802z"/>
	</g>
</g>
</svg>
