<?xml version="1.0" encoding="utf-8"?>
<!-- Generator: Adobe Illustrator 12.0.0, SVG Export Plug-In . SVG Version: 6.00 Build 51448)  -->
<!DOCTYPE svg PUBLIC "-//W3C//DTD SVG 1.1//EN" "http://www.w3.org/Graphics/SVG/1.1/DTD/svg11.dtd" [
	<!ENTITY ns_flows "http://ns.adobe.com/Flows/1.0/">
	<!ENTITY ns_extend "http://ns.adobe.com/Extensibility/1.0/">
	<!ENTITY ns_ai "http://ns.adobe.com/AdobeIllustrator/10.0/">
	<!ENTITY ns_graphs "http://ns.adobe.com/Graphs/1.0/">
	<!ENTITY ns_vars "http://ns.adobe.com/Variables/1.0/">
	<!ENTITY ns_imrep "http://ns.adobe.com/ImageReplacement/1.0/">
	<!ENTITY ns_sfw "http://ns.adobe.com/SaveForWeb/1.0/">
	<!ENTITY ns_custom "http://ns.adobe.com/GenericCustomNamespace/1.0/">
	<!ENTITY ns_adobe_xpath "http://ns.adobe.com/XPath/1.0/">
	<!ENTITY ns_svg "http://www.w3.org/2000/svg">
	<!ENTITY ns_xlink "http://www.w3.org/1999/xlink">
]>
<svg  version="1.1"
	 xmlns:x="&ns_extend;" xmlns:i="&ns_ai;" xmlns:graph="&ns_graphs;" i:viewOrigin="89.8608 287.6421" i:rulerOrigin="-89 -137.1973" i:pageBounds="89 287.1973 189 137.1973"
	 xmlns="&ns_svg;" xmlns:xlink="&ns_xlink;" xmlns:a="http://ns.adobe.com/AdobeSVGViewerExtensions/3.0/"
	 width="98.098" height="150.087" viewBox="0 0 98.098 150.087" overflow="visible" enable-background="new 0 0 98.098 150.087"
	 xml:space="preserve">
<metadata>
	<variableSets  xmlns="http://ns.adobe.com/Variables/1.0/">
		<variableSet  locked="none" varSetName="binding1">
			<variables></variables>
			<v:sampleDataSets  xmlns:v="http://ns.adobe.com/Variables/1.0/" xmlns="http://ns.adobe.com/GenericCustomNamespace/1.0/">
				</v:sampleDataSets>
		</variableSet>
	</variableSets>
</metadata>
<g id="图层_1" i:knockout="Off" i:layer="yes" i:dimmedPercent="50" i:rgbTrio="#4F008000FFFF">
	<g i:knockout="Off">
		<path fill="#F7F7F7" stroke="#060506" stroke-width="0.0882" d="M98.054,143.264c0,3.743-3.016,6.779-6.725,6.779H6.769
			c-3.714,0-6.725-3.036-6.725-6.779V6.826c0-3.745,3.011-6.782,6.725-6.782H91.33c3.71,0,6.725,3.037,6.725,6.782V143.264z"/>
		<path fill="#FF0800" d="M10.884,28.765c-1.136,0.001-1.614,0.932-1.791,1.45c-0.179-0.518-0.658-1.448-1.792-1.45
			c-1.571-0.004-2.36,0.902-2.36,2.735c0,2.648,4.14,5.622,4.14,5.622s0.005-0.005,0.012-0.009c0.005,0.005,0.009,0.009,0.009,0.009
			s4.139-2.973,4.139-5.622C13.242,29.667,12.454,28.76,10.884,28.765z"/>
		<path fill="#FF0800" d="M87.215,122.81c1.136,0,1.614-0.936,1.793-1.451c0.176,0.517,0.655,1.451,1.79,1.451
			c1.569,0.004,2.358-0.902,2.358-2.739c0-2.645-4.14-5.617-4.14-5.617s-0.004,0-0.01,0.009c-0.008-0.009-0.011-0.009-0.011-0.009
			s-4.142,2.974-4.142,5.617C84.857,121.908,85.645,122.814,87.215,122.81z"/>
		<g i:knockout="Off">
			<path fill="#FF0800" d="M5.07,13.909c0,1.236,0.261,5.267,3.624,5.267c1.336,0,2.335-0.697,2.865-1.41
				c-0.169,2.547-1.174,3.95-2.89,3.95c-0.566,0-1.029-0.189-1.417-0.579c-0.25-0.255-0.443-0.591-0.572-0.998l-0.057-0.181
				l-1.397,0.559l0.055,0.159c0.193,0.561,0.496,1.044,0.899,1.437c0.652,0.653,1.463,0.984,2.407,0.984
				c2.065,0,4.529-1.209,4.529-6.969c0-4.544-0.682-7.175-4.167-7.175C5.447,8.955,5.07,12.42,5.07,13.909z M6.483,13.924
				c0-1.642,0.631-3.56,2.411-3.56c1.761,0,2.617,1.263,2.617,3.86c0,2.542-1.626,3.489-2.652,3.489
				C6.792,17.713,6.483,15.339,6.483,13.924z"/>
		</g>
		<g i:knockout="Off">
			<path fill="#FF0800" d="M84.983,134.221c0,4.546,0.684,7.178,4.168,7.178c3.501,0,3.879-3.465,3.879-4.955
				c0-1.235-0.262-5.267-3.624-5.267c-1.338,0-2.337,0.696-2.864,1.408c0.169-2.549,1.174-3.953,2.89-3.953
				c0.566,0,1.029,0.19,1.417,0.581c0.25,0.255,0.443,0.59,0.573,0.994l0.058,0.182l1.396-0.554l-0.056-0.158
				c-0.191-0.562-0.494-1.048-0.897-1.441c-0.65-0.651-1.461-0.981-2.408-0.981C87.446,127.254,84.983,128.462,84.983,134.221z
				 M86.587,136.127c0-2.542,1.627-3.487,2.652-3.487c2.066,0,2.375,2.373,2.375,3.787c0,1.642-0.632,3.56-2.411,3.56
				C87.443,139.986,86.587,138.723,86.587,136.127z"/>
		</g>
		<path fill="#FF0800" d="M35.158,15.331c-2.662,0.003-3.783,2.349-4.198,3.651c-0.419-1.302-1.541-3.648-4.198-3.651
			c-3.68-0.008-5.528,2.27-5.528,6.891c0,6.658,9.7,14.137,9.7,14.137s0.009-0.006,0.026-0.02c0.015,0.014,0.026,0.02,0.026,0.02
			s9.698-7.479,9.698-14.138C40.683,17.601,38.835,15.323,35.158,15.331z"/>
		<path fill="#FF0800" d="M26.762,133.779c2.66-0.001,3.78-2.346,4.198-3.649c0.416,1.305,1.54,3.648,4.196,3.649
			c3.678,0.011,5.527-2.267,5.527-6.888c0-6.657-9.698-14.14-9.698-14.14s-0.011,0.008-0.025,0.021
			c-0.018-0.016-0.027-0.021-0.027-0.021s-9.699,7.481-9.699,14.14C21.234,131.512,23.08,133.79,26.762,133.779z"/>
		<path fill="#FF0800" d="M71.862,15.331c-2.658,0.003-3.783,2.349-4.198,3.651c-0.415-1.302-1.54-3.648-4.194-3.651
			c-3.682-0.008-5.528,2.27-5.528,6.891c0,6.658,9.697,14.137,9.697,14.137s0.012-0.006,0.025-0.02
			c0.019,0.014,0.026,0.02,0.026,0.02s9.699-7.479,9.699-14.138C77.389,17.601,75.542,15.323,71.862,15.331z"/>
		<path fill="#FF0800" d="M63.465,133.779c2.658-0.001,3.782-2.346,4.197-3.649c0.417,1.305,1.54,3.648,4.195,3.649
			c3.683,0.011,5.53-2.267,5.53-6.888c0-6.657-9.699-14.14-9.699-14.14s-0.011,0.008-0.026,0.021
			c-0.017-0.016-0.025-0.021-0.025-0.021s-9.697,7.481-9.697,14.14C57.94,131.512,59.788,133.79,63.465,133.779z"/>
		<path fill="#FF0800" d="M34.634,46.591c-2.661,0.002-3.785,2.349-4.199,3.651c-0.416-1.302-1.541-3.649-4.196-3.651
			c-3.681-0.008-5.528,2.27-5.528,6.888c0,6.659,9.698,14.14,9.698,14.14s0.012-0.005,0.027-0.019
			c0.015,0.014,0.024,0.019,0.024,0.019s9.7-7.48,9.7-14.14C40.16,48.86,38.313,46.583,34.634,46.591z"/>
		<path fill="#FF0800" d="M71.337,46.591c-2.662,0.002-3.783,2.349-4.197,3.651c-0.419-1.302-1.54-3.649-4.197-3.651
			c-3.681-0.008-5.525,2.27-5.525,6.888c0,6.659,9.697,14.14,9.697,14.14s0.012-0.005,0.025-0.019
			c0.018,0.014,0.026,0.019,0.026,0.019s9.698-7.48,9.698-14.14C76.866,48.86,75.017,46.583,71.337,46.591z"/>
		<path fill="#FF0800" d="M26.238,97.697c2.658-0.003,3.781-2.349,4.197-3.652c0.416,1.305,1.539,3.649,4.195,3.652
			c3.682,0.008,5.529-2.27,5.529-6.891c0-6.656-9.7-14.139-9.7-14.139s-0.009,0.006-0.025,0.021
			c-0.016-0.016-0.027-0.021-0.027-0.021s-9.698,7.481-9.698,14.139C20.71,95.427,22.557,97.705,26.238,97.697z"/>
		<path fill="#FF0800" d="M62.942,97.697c2.658-0.003,3.782-2.349,4.198-3.652c0.416,1.305,1.539,3.649,4.196,3.652
			c3.681,0.008,5.528-2.27,5.528-6.891c0-6.656-9.698-14.139-9.698-14.139s-0.012,0.006-0.026,0.021
			c-0.019-0.016-0.025-0.021-0.025-0.021s-9.697,7.481-9.697,14.139C57.417,95.427,59.261,97.705,62.942,97.697z"/>
		<path fill="#FF0800" d="M53.248,64.531c-2.661,0.004-3.785,2.348-4.197,3.653c-0.418-1.305-1.542-3.649-4.197-3.653
			c-3.682-0.007-5.528,2.271-5.528,6.889c0,6.659,9.699,14.141,9.699,14.141s0.009-0.007,0.025-0.021
			c0.015,0.015,0.024,0.021,0.024,0.021s9.701-7.481,9.701-14.141C58.775,66.802,56.927,64.524,53.248,64.531z"/>
	</g>
</g>
</svg>
