<?xml version="1.0" encoding="utf-8"?>
<!-- Generator: Adobe Illustrator 12.0.0, SVG Export Plug-In . SVG Version: 6.00 Build 51448)  -->
<!DOCTYPE svg PUBLIC "-//W3C//DTD SVG 1.1//EN" "http://www.w3.org/Graphics/SVG/1.1/DTD/svg11.dtd" [
	<!ENTITY ns_flows "http://ns.adobe.com/Flows/1.0/">
	<!ENTITY ns_extend "http://ns.adobe.com/Extensibility/1.0/">
	<!ENTITY ns_ai "http://ns.adobe.com/AdobeIllustrator/10.0/">
	<!ENTITY ns_graphs "http://ns.adobe.com/Graphs/1.0/">
	<!ENTITY ns_vars "http://ns.adobe.com/Variables/1.0/">
	<!ENTITY ns_imrep "http://ns.adobe.com/ImageReplacement/1.0/">
	<!ENTITY ns_sfw "http://ns.adobe.com/SaveForWeb/1.0/">
	<!ENTITY ns_custom "http://ns.adobe.com/GenericCustomNamespace/1.0/">
	<!ENTITY ns_adobe_xpath "http://ns.adobe.com/XPath/1.0/">
	<!ENTITY ns_svg "http://www.w3.org/2000/svg">
	<!ENTITY ns_xlink "http://www.w3.org/1999/xlink">
]>
<svg  version="1.1"
	 xmlns:x="&ns_extend;" xmlns:i="&ns_ai;" xmlns:graph="&ns_graphs;" i:viewOrigin="89.8623 287.6421" i:rulerOrigin="-89 -137.1973" i:pageBounds="89 287.1973 189 137.1973"
	 xmlns="&ns_svg;" xmlns:xlink="&ns_xlink;" xmlns:a="http://ns.adobe.com/AdobeSVGViewerExtensions/3.0/"
	 width="98.101" height="150.087" viewBox="0 0 98.101 150.087" overflow="visible" enable-background="new 0 0 98.101 150.087"
	 xml:space="preserve">
<metadata>
	<variableSets  xmlns="http://ns.adobe.com/Variables/1.0/">
		<variableSet  locked="none" varSetName="binding1">
			<variables></variables>
			<v:sampleDataSets  xmlns:v="http://ns.adobe.com/Variables/1.0/" xmlns="http://ns.adobe.com/GenericCustomNamespace/1.0/">
				</v:sampleDataSets>
		</variableSet>
	</variableSets>
</metadata>
<g id="图层_1" i:knockout="Off" i:layer="yes" i:dimmedPercent="50" i:rgbTrio="#4F008000FFFF">
	<g i:knockout="Off">
		<path fill="#F7F7F7" stroke="#060506" stroke-width="0.0882" d="M98.056,143.265c0,3.742-3.016,6.778-6.728,6.778H6.77
			c-3.714,0-6.726-3.036-6.726-6.778V6.826c0-3.745,3.012-6.782,6.726-6.782h84.559c3.713,0,6.729,3.037,6.729,6.782L98.056,143.265
			L98.056,143.265z"/>
		<path fill="#FF0800" d="M10.886,28.767c-1.138,0-1.614,0.932-1.792,1.45c-0.181-0.519-0.657-1.45-1.792-1.45
			c-1.57-0.006-2.358,0.899-2.358,2.736c0,2.646,4.141,5.618,4.141,5.618s0.005-0.001,0.011-0.007
			c0.007,0.006,0.01,0.007,0.01,0.007s4.139-2.973,4.139-5.618C13.242,29.667,12.454,28.76,10.886,28.767z"/>
		<path fill="#FF0800" d="M87.214,122.812c1.137-0.001,1.615-0.937,1.793-1.451c0.179,0.518,0.658,1.45,1.791,1.451
			c1.572,0.002,2.357-0.902,2.357-2.737c0-2.647-4.141-5.621-4.141-5.621s-0.005,0.005-0.011,0.01
			c-0.008-0.006-0.011-0.01-0.011-0.01s-4.142,2.974-4.142,5.621C84.857,121.909,85.646,122.814,87.214,122.812z"/>
		<g i:knockout="Off">
			<rect x="4.56" y="8.956" fill="#FF0800" width="1.587" height="13.722"/>
		</g>
		<g i:knockout="Off">
			<rect x="91.955" y="127.681" fill="#FF0800" width="1.585" height="13.719"/>
		</g>
		<g i:knockout="Off">
			<path fill="#FF0800" d="M7.553,12.857v6.682c0,2.586,1.141,3.898,3.392,3.898c2.249,0,3.389-1.312,3.389-3.898v-6.682
				c0-2.589-1.14-3.9-3.389-3.9C8.694,8.956,7.553,10.267,7.553,12.857z M9.139,19.544v-6.697c0-1.625,0.59-2.416,1.805-2.416
				c1.215,0,1.806,0.79,1.806,2.416v6.697c0,1.626-0.59,2.417-1.806,2.417C9.729,21.961,9.139,21.171,9.139,19.544z"/>
		</g>
		<g i:knockout="Off">
			<path fill="#FF0800" d="M83.767,130.818v6.683c0,2.588,1.143,3.899,3.393,3.899s3.392-1.312,3.392-3.899v-6.683
				c0-2.588-1.142-3.899-3.392-3.899S83.767,128.23,83.767,130.818z M85.354,137.505v-6.692c0-1.626,0.59-2.417,1.805-2.417
				c1.216,0,1.807,0.791,1.807,2.417v6.692c0,1.629-0.591,2.42-1.807,2.42C85.944,139.925,85.354,139.132,85.354,137.505z"/>
		</g>
		<path fill="#FF0800" d="M35.159,15.334c-2.66,0.002-3.783,2.349-4.198,3.649c-0.419-1.301-1.537-3.647-4.194-3.649
			c-3.683-0.011-5.529,2.267-5.529,6.888c0,6.66,9.701,14.138,9.701,14.138s0.009-0.003,0.025-0.018
			c0.015,0.014,0.023,0.018,0.023,0.018s9.698-7.478,9.698-14.138C40.685,17.6,38.839,15.322,35.159,15.334z"/>
		<path fill="#FF0800" d="M26.763,133.783c2.66-0.001,3.779-2.348,4.196-3.65c0.417,1.305,1.538,3.649,4.196,3.65
			c3.684,0.011,5.528-2.269,5.528-6.889c0-6.658-9.698-14.144-9.698-14.144s-0.011,0.006-0.026,0.021
			c-0.019-0.016-0.022-0.021-0.022-0.021s-9.701,7.482-9.701,14.144C21.235,131.515,23.081,133.793,26.763,133.783z"/>
		<path fill="#FF0800" d="M71.863,15.334c-2.658,0.002-3.783,2.349-4.197,3.649c-0.416-1.301-1.539-3.647-4.195-3.649
			c-3.682-0.011-5.528,2.267-5.528,6.888c0,6.66,9.698,14.138,9.698,14.138s0.012-0.003,0.025-0.018
			c0.02,0.014,0.024,0.018,0.024,0.018s9.7-7.478,9.7-14.138C77.391,17.6,75.544,15.322,71.863,15.334z"/>
		<path fill="#FF0800" d="M63.467,133.783c2.657-0.001,3.783-2.348,4.195-3.65c0.418,1.305,1.542,3.649,4.195,3.65
			c3.684,0.011,5.53-2.269,5.53-6.889c0-6.658-9.7-14.144-9.7-14.144s-0.008,0.006-0.025,0.021
			c-0.017-0.016-0.023-0.021-0.023-0.021s-9.699,7.482-9.699,14.144C57.939,131.515,59.786,133.793,63.467,133.783z"/>
		<path fill="#FF0800" d="M34.636,46.588c-2.663,0.006-3.785,2.351-4.198,3.655c-0.417-1.305-1.541-3.649-4.196-3.655
			c-3.683-0.004-5.531,2.273-5.531,6.893c0,6.656,9.699,14.14,9.699,14.14s0.013-0.007,0.028-0.022
			c0.016,0.017,0.021,0.022,0.021,0.022s9.702-7.483,9.702-14.14C40.162,48.862,38.314,46.584,34.636,46.588z"/>
		<path fill="#FF0800" d="M71.339,46.588c-2.662,0.006-3.781,2.351-4.197,3.655c-0.418-1.305-1.542-3.649-4.196-3.655
			c-3.683-0.004-5.525,2.273-5.525,6.893c0,6.656,9.695,14.14,9.695,14.14s0.014-0.007,0.025-0.022
			c0.02,0.017,0.024,0.022,0.024,0.022s9.697-7.483,9.697-14.14C76.865,48.862,75.018,46.584,71.339,46.588z"/>
		<path fill="#FF0800" d="M26.239,97.698c2.66-0.004,3.782-2.351,4.199-3.652c0.416,1.304,1.538,3.649,4.196,3.652
			c3.679,0.008,5.527-2.271,5.527-6.892c0-6.658-9.702-14.144-9.702-14.144s-0.007,0.007-0.021,0.022
			c-0.021-0.019-0.028-0.022-0.028-0.022s-9.699,7.482-9.699,14.144C20.708,95.428,22.557,97.706,26.239,97.698z"/>
		<path fill="#FF0800" d="M62.94,97.698c2.661-0.004,3.785-2.351,4.2-3.652c0.417,1.304,1.539,3.649,4.196,3.652
			c3.681,0.008,5.525-2.271,5.525-6.892c0-6.658-9.697-14.144-9.697-14.144s-0.011,0.007-0.024,0.022
			c-0.017-0.019-0.025-0.022-0.025-0.022s-9.695,7.482-9.695,14.144C57.417,95.428,59.263,97.706,62.94,97.698z"/>
		<path fill="#FF0800" d="M53.249,32.883c-2.66,0.002-3.783,2.347-4.199,3.651c-0.417-1.305-1.539-3.649-4.195-3.651
			c-3.681-0.011-5.529,2.269-5.529,6.888c0,6.661,9.699,14.139,9.699,14.139s0.011-0.004,0.026-0.019
			c0.016,0.015,0.026,0.019,0.026,0.019s9.698-7.478,9.698-14.139C58.775,35.153,56.929,32.873,53.249,32.883z"/>
		<path fill="#FF0800" d="M53.248,117.21c-2.66-0.005-3.782-2.352-4.198-3.653c-0.417,1.305-1.539,3.648-4.195,3.653
			c-3.681,0.005-5.529-2.271-5.529-6.893c0-6.656,9.699-14.14,9.699-14.14s0.011,0.007,0.026,0.021
			c0.016-0.015,0.026-0.021,0.026-0.021s9.698,7.48,9.698,14.14C58.775,114.94,56.928,117.215,53.248,117.21z"/>
	</g>
</g>
</svg>
