<?xml version="1.0" encoding="UTF-8" standalone="no"?>
<!-- Generator: Adobe Illustrator 12.0.0, SVG Export Plug-In . SVG Version: 6.00 Build 51448)  -->
<svg
   xmlns:dc="http://purl.org/dc/elements/1.1/"
   xmlns:cc="http://web.resource.org/cc/"
   xmlns:rdf="http://www.w3.org/1999/02/22-rdf-syntax-ns#"
   xmlns:svg="http://www.w3.org/2000/svg"
   xmlns="http://www.w3.org/2000/svg"
   xmlns:xlink="http://www.w3.org/1999/xlink"
   xmlns:sodipodi="http://sodipodi.sourceforge.net/DTD/sodipodi-0.dtd"
   xmlns:inkscape="http://www.inkscape.org/namespaces/inkscape"
   version="1.1"
   id="图层_1"
   width="98.098"
   height="150.086"
   viewBox="0 0 98.098 150.086"
   overflow="visible"
   enable-background="new 0 0 98.098 150.086"
   xml:space="preserve"
   sodipodi:version="0.32"
   inkscape:version="0.45.1"
   sodipodi:docname="38.svg"
   sodipodi:docbase="/home/zhangxin/桌面/简化版扑克"
   inkscape:output_extension="org.inkscape.output.svg.inkscape"><metadata
   id="metadata530"><rdf:RDF><cc:Work
       rdf:about=""><dc:format>image/svg+xml</dc:format><dc:type
         rdf:resource="http://purl.org/dc/dcmitype/StillImage" /></cc:Work></rdf:RDF></metadata><defs
   id="defs528" /><sodipodi:namedview
   inkscape:window-height="713"
   inkscape:window-width="1024"
   inkscape:pageshadow="2"
   inkscape:pageopacity="0.0"
   guidetolerance="10.0"
   gridtolerance="10.0"
   objecttolerance="10.0"
   borderopacity="1.0"
   bordercolor="#666666"
   pagecolor="#ffffff"
   id="base"
   inkscape:zoom="2.5252189"
   inkscape:cx="49.049"
   inkscape:cy="75.042999"
   inkscape:window-x="0"
   inkscape:window-y="0"
   inkscape:current-layer="图层_1" />
<path
   fill="#F7F7F7"
   stroke="#060506"
   stroke-width="0.0882"
   d="M98.053,143.264c0,3.742-3.016,6.778-6.727,6.778H6.77  c-3.716,0-6.726-3.036-6.726-6.778V6.826c0-3.745,3.009-6.782,6.726-6.782h84.557c3.714,0,6.729,3.037,6.729,6.782L98.053,143.264  L98.053,143.264z"
   id="path3" />






























































<radialGradient
   id="XMLID_93_"
   cx="2025.6792"
   cy="3286.7915"
   r="14.6768"
   gradientTransform="matrix(-1.1463 -0.1455 -0.1247 0.9945 2779.0837 -2868.9033)"
   gradientUnits="userSpaceOnUse">
	<stop
   offset="0"
   style="stop-color:#FFFFFF"
   id="stop254" />
	<stop
   offset="0.0614"
   style="stop-color:#F6F4F0"
   id="stop256" />
	<stop
   offset="0.1786"
   style="stop-color:#DFD8C9"
   id="stop258" />
	<stop
   offset="0.2753"
   style="stop-color:#CABDA5"
   id="stop260" />
	<stop
   offset="1"
   style="stop-color:#5A3D1B"
   id="stop262" />
</radialGradient>



<linearGradient
   id="XMLID_94_"
   gradientUnits="userSpaceOnUse"
   x1="2213.9849"
   y1="3302.4565"
   x2="2213.9849"
   y2="3278.5962"
   gradientTransform="matrix(-0.9921 -0.1258 -0.1258 0.9921 2657.3298 -2881.0205)">
	<stop
   offset="0"
   style="stop-color:#FFFFFF"
   id="stop271" />
	<stop
   offset="0.0128"
   style="stop-color:#FBFBF7"
   id="stop273" />
	<stop
   offset="0.0501"
   style="stop-color:#F4F2E6"
   id="stop275" />
	<stop
   offset="0.0966"
   style="stop-color:#EEECDB"
   id="stop277" />
	<stop
   offset="0.1618"
   style="stop-color:#EBE8D4"
   id="stop279" />
	<stop
   offset="0.3427"
   style="stop-color:#EAE7D2"
   id="stop281" />
	<stop
   offset="1"
   style="stop-color:#E6E3CB"
   id="stop283" />
</linearGradient>



<radialGradient
   id="XMLID_95_"
   cx="2019.6548"
   cy="2798.9019"
   r="12.0945"
   gradientTransform="matrix(-1.1463 -0.1455 -0.1468 1.1709 2780.4287 -2880.5022)"
   gradientUnits="userSpaceOnUse">
	<stop
   offset="0"
   style="stop-color:#FFFFFF"
   id="stop292" />
	<stop
   offset="0.246"
   style="stop-color:#F4F4F0"
   id="stop294" />
	<stop
   offset="0.7158"
   style="stop-color:#D9D8C9"
   id="stop296" />
	<stop
   offset="1"
   style="stop-color:#C6C4AF"
   id="stop298" />
</radialGradient>

















<radialGradient
   id="XMLID_96_"
   cx="-382.1147"
   cy="-124.7305"
   r="14.6782"
   gradientTransform="matrix(1.1642 0.1403 0.1266 -0.9588 510.9217 -22.2873)"
   gradientUnits="userSpaceOnUse">
	<stop
   offset="0"
   style="stop-color:#FFFFFF"
   id="stop335" />
	<stop
   offset="0.0614"
   style="stop-color:#F6F4F0"
   id="stop337" />
	<stop
   offset="0.1786"
   style="stop-color:#DFD8C9"
   id="stop339" />
	<stop
   offset="0.2753"
   style="stop-color:#CABDA5"
   id="stop341" />
	<stop
   offset="1"
   style="stop-color:#5A3D1B"
   id="stop343" />
</radialGradient>



<linearGradient
   id="XMLID_97_"
   gradientUnits="userSpaceOnUse"
   x1="-594.3032"
   y1="-80.9043"
   x2="-594.3032"
   y2="-103.9116"
   gradientTransform="matrix(0.9921 0.1258 0.1258 -0.9921 651.8225 26.8788)">
	<stop
   offset="0"
   style="stop-color:#FFFFFF"
   id="stop352" />
	<stop
   offset="0.0128"
   style="stop-color:#FBFBF7"
   id="stop354" />
	<stop
   offset="0.0501"
   style="stop-color:#F4F2E6"
   id="stop356" />
	<stop
   offset="0.0966"
   style="stop-color:#EEECDB"
   id="stop358" />
	<stop
   offset="0.1618"
   style="stop-color:#EBE8D4"
   id="stop360" />
	<stop
   offset="0.3427"
   style="stop-color:#EAE7D2"
   id="stop362" />
	<stop
   offset="1"
   style="stop-color:#E6E3CB"
   id="stop364" />
</linearGradient>



<radialGradient
   id="XMLID_98_"
   cx="-387.8203"
   cy="-98.4268"
   r="12.0936"
   gradientTransform="matrix(1.1642 0.1403 0.1491 -1.1289 509.1002 -10.8818)"
   gradientUnits="userSpaceOnUse">
	<stop
   offset="0"
   style="stop-color:#FFFFFF"
   id="stop373" />
	<stop
   offset="0.246"
   style="stop-color:#F4F4F0"
   id="stop375" />
	<stop
   offset="0.7158"
   style="stop-color:#D9D8C9"
   id="stop377" />
	<stop
   offset="1"
   style="stop-color:#C6C4AF"
   id="stop379" />
</radialGradient>





































































<g
   id="g2682"
   inkscape:tile-w="79.506999"
   inkscape:tile-h="63.845215"
   inkscape:tile-cx="49.4535"
   inkscape:tile-cy="49.038607"><g
     id="g113">
	<path
   id="path115"
   d="M79.724,56.957c0,0-18.207-11.591-26.283-39.386H48.65c0,0-18.032,11.741-18.032,39.255l-3.56,15.862   l15.127-0.009L79.724,56.957z"
   fill="#060506" />
</g><g
     id="g117">
	<path
   id="path119"
   d="M49.284,58.029c0,1.15-0.917,2.084-2.042,2.084c-1.126,0-2.043-0.934-2.043-2.084   c0-1.148,0.917-2.083,2.043-2.083S49.284,56.881,49.284,58.029z M47.242,54.984c-1.648,0-2.985,1.367-2.985,3.045   c0,1.68,1.336,3.046,2.985,3.046c1.645,0,2.984-1.366,2.984-3.046C50.227,56.351,48.887,54.984,47.242,54.984z"
   fill="#FFFFFF" />
</g><g
     id="g121">
	<path
   id="path123"
   d="M44.472,75.052c0,0-0.696-22.192-6.466-22.192c-11.245,0-27.816,22.079-27.816,22.079"
   fill="#D90000" />
</g><g
     id="g125">
	<path
   id="path127"
   d="M21.241,62.901c4.294,5.43,8.635,11.507,8.899,12.011L9.744,74.956L21.241,62.901z"
   fill="#212462" />
</g><g
     id="g129">
	<path
   id="path131"
   d="M35.92,75.006c-0.316-0.606-4.817-9.062-11.821-15.097c-1.309,1.02-2.972,2.398-4.604,3.993   c4.58,5.136,7.442,10.444,7.779,11.084L35.92,75.006z"
   fill="#060506" />
</g><g
     id="g133">
	<path
   id="path135"
   d="M33.593,73.98c-0.259-0.127-0.527-0.197-0.798-0.239c0.643-1.436,0.049-3.142-1.352-3.829   c-0.347-0.172-0.71-0.26-1.073-0.282c0.465-1.375-0.129-2.923-1.443-3.568c-0.484-0.238-0.997-0.311-1.495-0.266   c0.374-1.333-0.231-2.792-1.5-3.413c-0.472-0.235-0.977-0.308-1.467-0.268c0.107-0.746-0.077-1.499-0.496-2.103   c-0.303,0.236-0.618,0.488-0.951,0.76c0.312,0.478,0.384,1.104,0.121,1.657c-0.043,0.098-0.098,0.185-0.158,0.269   c-0.154,0.117-0.297,0.252-0.425,0.405c-0.468,0.308-1.074,0.376-1.61,0.111c-0.157-0.078-0.29-0.18-0.411-0.297   c-0.294,0.271-0.589,0.549-0.885,0.833c0.223,0.227,0.474,0.425,0.771,0.573c0.475,0.233,0.979,0.31,1.468,0.266   c-0.171,1.225,0.424,2.471,1.572,3.037c0.482,0.236,0.995,0.309,1.494,0.263c-0.375,1.333,0.23,2.792,1.499,3.417   c0.345,0.167,0.709,0.257,1.072,0.279c-0.444,1.313,0.086,2.775,1.277,3.466h2.938c0.385-0.157,0.82-0.167,1.227,0h1.791   C34.484,74.606,34.093,74.226,33.593,73.98z M23.982,66.515c-0.816-0.4-1.162-1.405-0.768-2.239   c0.046-0.097,0.102-0.184,0.161-0.266c0.155-0.119,0.297-0.255,0.424-0.406c0.465-0.311,1.071-0.377,1.611-0.112   c0.818,0.4,1.162,1.405,0.769,2.239C25.786,66.566,24.801,66.918,23.982,66.515z M26.976,70.196   c-0.818-0.402-1.162-1.408-0.77-2.242c0.391-0.832,1.378-1.185,2.195-0.786c0.817,0.403,1.163,1.408,0.769,2.242   C28.78,70.246,27.792,70.597,26.976,70.196z M31.689,73.26c-0.393,0.833-1.378,1.185-2.195,0.784   c-0.816-0.4-1.162-1.405-0.77-2.239c0.394-0.835,1.379-1.188,2.197-0.787C31.738,71.421,32.082,72.427,31.689,73.26z"
   fill="#FFFFFF" />
</g><g
     id="g137">
	<path
   id="path139"
   d="M37.457,60.841c-0.108-0.068-0.215-0.125-0.323-0.187c0.131-0.111,0.241-0.249,0.325-0.408   c0.066-0.131,0.654-1.316,0.18-2.537c-0.314-0.806-0.984-1.478-1.788-1.794c-0.804-0.315-1.69-0.265-2.495,0.141   c-1.59,0.795-2.018,2.997-1.339,4.431c0.003,0.006,0.009,0.013,0.012,0.02c-0.904,0.646-1.322,1.53-1.435,1.811   c-0.129,0.314-0.723,1.972,0.071,3.651c0.593,1.254,1.753,2.143,3.448,2.64c1.585,0.463,3.197-0.192,3.75-1.525   c0.254-0.616,0.233-1.299-0.028-1.968c1.945,3.239,1.801,8.36,1.799,8.423c0,0,2.692,0.489,2.708,0.121   C42.359,73.274,42.705,64.129,37.457,60.841z M34.456,59.28c-0.112-0.239-0.001-0.671,0.101-0.744   c0.161-0.081,0.252-0.065,0.321-0.039c0.116,0.046,0.204,0.152,0.234,0.22c0.004,0.055-0.026,0.187-0.06,0.255l0.003,0.003   c-0.108,0.215-0.154,0.451-0.143,0.687C34.686,59.511,34.496,59.352,34.456,59.28z M35.06,58.96L35.06,58.96L35.06,58.96   L35.06,58.96z M34.328,65.342c0.525,0.047,1.315,0.498,0.906,0.639c-0.436,0.15-1.818-0.409-2.127-1.212   c-0.257-0.668-0.014-1.385-0.011-1.392c0.024-0.061,0.251-0.587,0.775-0.761c0.186-0.06,0.41-0.059,0.651-0.026   c-0.326-0.013-0.642,0.088-0.898,0.298c-0.283,0.232-0.459,0.562-0.498,0.93C33.047,64.576,33.584,65.274,34.328,65.342z    M41.521,73.624c-0.006,0.145-0.067,0.28-0.171,0.377c-0.105,0.099-0.242,0.147-0.383,0.144c-0.143-0.007-0.275-0.071-0.372-0.177   c-0.096-0.108-0.145-0.246-0.14-0.392l0.048-1.078l-0.055,0.056c-0.072-2.325-0.607-7.958-3.979-10.069   c-1.099-0.689-2.085-0.919-2.852-0.665c-0.855,0.283-1.216,1.078-1.28,1.235c-0.017,0.042-0.439,1.085,0.03,2.078   c0.349,0.737,1.113,1.285,2.268,1.624c0.7,0.204,1.333-0.051,1.488-0.419c0.102-0.251-0.036-0.552-0.126-0.709   c-0.328-0.567-1.039-0.963-1.58-1.12c-0.308-0.088-0.487-0.265-0.473-0.599c0.011-0.287,0.357-0.435,0.5-0.418   c0.885,0.098,1.978,0.726,2.474,1.584c0.332,0.577,0.401,1.174,0.188,1.683c-0.39,0.943-1.579,1.393-2.765,1.046   c-1.46-0.429-2.448-1.168-2.936-2.198c-0.641-1.359-0.157-2.711-0.053-2.967c0.103-0.253,0.507-1.113,1.43-1.626l0.409-0.228   c0,0-0.391-0.57-0.432-0.659c-0.502-1.061-0.192-2.738,0.96-3.318c0.598-0.299,1.25-0.338,1.838-0.108   c0.595,0.232,1.087,0.728,1.318,1.323c0.345,0.884-0.123,1.793-0.141,1.833c-0.067,0.128-0.361,0.416-0.722,0.226   c-0.364-0.189-0.288-0.609-0.22-0.737v-0.001c0.009-0.021,0.245-0.523,0.092-0.921c-0.09-0.232-0.331-0.556-0.711-0.704   c-0.316-0.124-0.645-0.101-0.982,0.069c-0.58,0.29-0.717,1.27-0.472,1.866c0.314,0.763,1.351,1.064,1.351,1.064   c0.618,0.131,1.277,0.414,1.958,0.84C41.868,64.588,41.538,73.255,41.521,73.624z"
   fill="#FFFFFF" />
</g><g
     id="g141">
	<path
   id="path143"
   d="M38.005,52.86c-0.224,0.001-1.612,0.178-1.842,0.194c3.073,1.551,5.543,6.426,6.296,22.139l2.012-0.141   C44.472,75.052,43.555,52.845,38.005,52.86z"
   fill="#EB0500" />
</g><g
     id="g145">
	<path
   id="path147"
   d="M45.087,75.031c-0.073-2.332-0.892-22.799-7.082-22.799c-11.418,0-27.622,21.413-28.305,22.325l0.979,0.764   l0,0c0.163-0.217,16.514-21.832,27.327-21.832c3.768,0,5.588,13.239,5.851,21.583L45.087,75.031z"
   fill="#060506" />
</g><g
     id="g149">
	<path
   id="path151"
   d="M37.291,75.052c0,0,12.834-24.931,30.29-24.512c17.45,0.419,16.116,24.407,16.116,24.407"
   fill="#D90000" />
</g><g
     id="g153">
	<path
   id="path155"
   d="M60.831,74.999l22.864-0.051c0,0,0.712-12.968-5.849-19.999C67.854,61.78,61.245,74.206,60.831,74.999z"
   fill="#212462" />
</g><g
     id="g157">
	<path
   id="path159"
   d="M69.886,50.763c-0.734-0.116-1.493-0.203-2.31-0.223c-17.456-0.419-30.29,24.512-30.29,24.512l5.619-0.013   C43.043,74.783,54.235,53.211,69.886,50.763z"
   fill="#EB0500" />
</g><g
     id="g165">
	<polygon
   id="polygon167"
   points="40.68,69.814 45.812,69.814 46.684,68.557 40.68,68.557  "
   fill="#FFFFFF" />
</g><g
     id="g169">
	<polygon
   id="polygon171"
   points="43.898,65.136 42.802,66.463 48.122,66.463 49.202,65.205  "
   fill="#FFFFFF" />
</g><g
     id="g173">
	<polygon
   id="polygon175"
   points="45.608,63.111 50.843,63.111 51.921,61.853 46.702,61.853  "
   fill="#FFFFFF" />
</g><g
     id="g177">
	<polygon
   id="polygon179"
   points="48.894,59.759 53.974,59.811 55.208,58.502 50.331,58.502  "
   fill="#FFFFFF" />
</g><g
     id="g181">
	<path
   id="path183"
   d="M65.532,58.263c-0.525-0.859-1.339-1.429-2.271-1.605c-0.939-0.175-1.947,0.062-2.697,0.635   c-1.132,0.865-1.252,2.328-1.261,2.492c-0.021,0.293,0.054,0.577,0.197,0.82c-0.246-0.018-0.501-0.028-0.766-0.028   c-7.086,0-12.19,9.248-12.404,9.641c-0.37,0.679-0.128,1.538,0.539,1.918c0.667,0.376,1.587-0.281,1.765-0.417l0.069-0.054   l0.042-0.077c0.013-0.025,0.415-0.74,1.1-1.729c-0.398,1.249,0.143,2.433,0.21,2.573c0.127,0.262,0.331,0.47,0.578,0.605   c-0.228,0.112-0.447,0.234-0.674,0.368c-0.613,0.363-1.159,0.798-1.653,1.284l1.008,0.2c0.33-0.279,0.681-0.536,1.06-0.76   c0.444-0.265,1.84-0.669,2.76-1.129c0.754-0.377,1.087-0.815,1.197-1.038c0.387-0.771,0.109-1.946-0.53-2.289   c-0.402-0.213-0.816-0.251-1.203-0.112c-0.396,0.144-0.733,0.468-0.892,0.841c-0.161,0.397-0.02,0.915,0.085,1.14   c0,0,0.001,0.004,0.004,0.005l0,0c0.062,0.136,0.076,0.29,0.025,0.435c-0.045,0.144-0.146,0.262-0.275,0.331   c-0.14,0.068-0.285,0.078-0.432,0.031c-0.143-0.049-0.257-0.151-0.323-0.287c-0.021-0.046-0.528-1.101-0.113-2.099   c0.276-0.671,0.854-1.221,1.542-1.47c0.676-0.251,1.423-0.189,2.1,0.173c1.306,0.691,1.615,2.625,1.008,3.824   c-0.219,0.435-0.605,0.814-0.605,0.814l0.453,0.239c1.139,0.604,1.61,1.674,1.729,1.989c0.047,0.12,0.155,0.454,0.227,0.904   l0.845,0.167c-0.067-0.688-0.238-1.203-0.301-1.375c-0.133-0.343-0.615-1.425-1.723-2.179c0.037-0.06,0.076-0.118,0.106-0.18   c0.54-1.074,0.505-2.547-0.115-3.674c0.422,0.363,0.936,0.656,1.521,0.821c1.934,0.548,3.568,0.396,4.864-0.451   c1.729-1.136,2.112-3.08,2.177-3.457c0.057-0.363,0.17-1.549-0.411-2.765c0.062-0.032,0.123-0.065,0.18-0.101   C65.728,62.285,66.58,59.955,65.532,58.263z M52.458,70.729c0.065-0.158,0.233-0.315,0.412-0.379   c0.166-0.061,0.348-0.039,0.546,0.066c0.203,0.109,0.373,0.774,0.18,1.165c-0.075,0.15-0.573,0.531-1.025,0.739   c-0.002,0.001-0.002,0.004-0.002,0.004c0.011-0.026,0.024-0.051,0.032-0.079c0.113-0.35,0.089-0.724-0.069-1.055l0.002-0.002   C52.469,71.051,52.43,70.803,52.458,70.729z M62.049,59.983h0.003c0.013-0.152,0.101-0.386,0.163-0.435   c0.137-0.104,0.355-0.153,0.543-0.119c0.175,0.034,0.314,0.144,0.438,0.338c0.126,0.198-0.059,0.86-0.418,1.096   c-0.14,0.092-0.757,0.167-1.25,0.115c0,0-0.005,0.002-0.008,0c0.021-0.017,0.049-0.03,0.07-0.051   C61.861,60.685,62.023,60.35,62.049,59.983z M54.694,67.918c-0.883-0.472-1.859-0.549-2.759-0.222   c-0.276,0.102-0.534,0.253-0.776,0.423c1.846-2.234,4.565-4.725,7.575-4.725c1.283,0,2.207,0.296,2.672,0.85   c0.363,0.436,0.428,1.017,0.365,1.416c-0.002,0.012-0.169,1.024-0.938,1.527c-0.604,0.397-1.488,0.434-2.638,0.11   c-0.219-0.062-0.605-0.365-0.446-0.651c0.205-0.367,0.971-0.089,1.311,0c0.356,0.091,0.896,0.163,1.241,0.036   c0.349-0.128,0.627-0.385,0.783-0.725s0.18-0.723,0.055-1.077c-0.125-0.356-0.376-0.639-0.71-0.801   c-1.165-0.561-2.83-0.489-4.054,0.172c-0.896,0.487-1.462,1.244-1.594,2.128c-0.097,0.647,0.053,1.289,0.37,1.858   C55.007,68.123,54.863,68.008,54.694,67.918z M63.824,62.533c-0.399,0.263-0.928,0.391-0.928,0.391l0.273,0.441   c0.688,1.106,0.567,2.274,0.519,2.606c-0.049,0.317-0.37,1.941-1.807,2.884c-1.091,0.714-2.502,0.832-4.203,0.351   c-1.36-0.384-2.256-1.545-2.084-2.701c0.091-0.617,0.504-1.153,1.165-1.512c0.99-0.538,2.386-0.603,3.312-0.155   c0.138,0.065,0.237,0.18,0.29,0.324c0.051,0.144,0.041,0.299-0.021,0.437c-0.064,0.136-0.179,0.241-0.317,0.294   c-0.142,0.051-0.284,0.02-0.428-0.023c-1.899-0.559-2.708,0.274-2.771,0.594c-0.15,0.786,0.271,1.391,1.154,1.642   c1.379,0.391,2.489,0.319,3.3-0.212c1.085-0.71,1.297-2.046,1.31-2.102c0.089-0.581-0.012-1.437-0.557-2.088   c-0.626-0.749-1.766-1.145-3.297-1.145c-5.592,0-10.132,7.621-10.654,8.529c-0.309,0.22-0.705,0.375-0.813,0.314   c-0.269-0.153-0.368-0.501-0.218-0.778c0.205-0.375,5.08-9.209,11.686-9.209c0.521,0,1.92,0.364,2.941,0.439   c0.838,0.062,1.341-0.147,1.547-0.283c0.714-0.467,1.059-1.624,0.669-2.251c-0.242-0.39-0.582-0.636-0.983-0.713   c-0.41-0.077-0.861,0.028-1.186,0.271c-0.335,0.257-0.464,0.781-0.487,1.026l0,0l0,0c0,0.001,0,0.003,0,0.005v0.003   c-0.009,0.15-0.073,0.29-0.188,0.39c-0.112,0.101-0.259,0.15-0.406,0.142c-0.146-0.011-0.285-0.078-0.384-0.192   c-0.103-0.114-0.148-0.261-0.144-0.414c0.005-0.05,0.087-1.224,0.938-1.874c0.567-0.436,1.339-0.615,2.057-0.481   c0.71,0.132,1.323,0.57,1.73,1.227C65.623,59.978,64.94,61.808,63.824,62.533z"
   fill="#FFFFFF" />
</g><g
     id="g185">
	<path
   id="path187"
   d="M37.837,75.343L37.837,75.343c0.127-0.245,12.859-24.58,29.727-24.174c4.101,0.099,7.462,1.567,9.995,4.366   c6.141,6.786,5.529,19.252,5.521,19.377l1.229,0.071c0.029-0.533,0.65-13.116-5.845-20.298c-2.771-3.06-6.429-4.667-10.874-4.773   C49.957,49.489,37.275,73.729,36.744,74.76L37.837,75.343z"
   fill="#060506" />
</g><g
     id="g189">
	<path
   id="path191"
   d="M34.424,44.753c0.438,7.052,8.763,12.253,18.589,11.616c9.825-0.638,17.436-6.873,16.996-13.926   C69.57,35.392,61.245,30.19,51.42,30.827C41.594,31.465,33.985,37.7,34.424,44.753z"
   fill="#FFFFFF" />
</g><g
     id="g193">
	<path
   id="path195"
   d="M33.84,44.791c0.176,2.805,1.518,5.413,3.884,7.538c3.66,3.287,9.39,5.021,15.326,4.636   c5.938-0.386,11.402-2.844,14.627-6.579c2.083-2.413,3.093-5.172,2.916-7.981c-0.459-7.369-9.076-12.831-19.208-12.173   C41.251,30.889,33.381,37.421,33.84,44.791z M51.458,31.422c9.485-0.616,17.551,4.347,17.969,11.058   c0.152,2.485-0.753,4.945-2.628,7.118c-3.021,3.502-8.188,5.81-13.822,6.176c-5.633,0.365-11.045-1.258-14.477-4.34   c-2.128-1.913-3.335-4.235-3.491-6.718C34.59,38.001,41.97,32.037,51.458,31.422z"
   fill="#060506" />
</g><g
     id="g197">
	<path
   id="path199"
   d="M46.002,51.52c0,0.125-0.087,0.225-0.2,0.225c-0.108,0-0.198-0.1-0.198-0.225   c0-0.124,0.09-0.224,0.198-0.224C45.915,51.296,46.002,51.396,46.002,51.52z"
   fill="#FEEDE0" />
</g><g
     id="g201">
	<path
   id="path203"
   d="M76.882,57.546c-0.129-1.016-0.758-1.726-1.635-1.853c0.271,0.039,0.485,0.26,0.521,0.54   c0.036,0.282-0.116,0.552-0.371,0.661c0.815-0.352,1.244-1.199,1.115-2.216c-0.148-1.167-1.2-1.994-2.345-1.845l-2.497,0.331   c-0.561,0.073-1.052,0.363-1.394,0.815s-0.486,1.011-0.418,1.578c0.134,1.037,0.729,1.732,1.597,1.857   c-0.271-0.04-0.484-0.262-0.521-0.542c-0.036-0.281,0.117-0.55,0.372-0.66c-0.81,0.347-1.211,1.175-1.079,2.213   c0.128,1.01,0.676,1.681,1.502,1.842c-0.262-0.052-0.461-0.269-0.495-0.54c-0.032-0.269,0.105-0.529,0.348-0.648   c-0.758,0.369-1.118,1.159-0.99,2.172c0.154,1.226,0.807,1.658,1.321,1.808c-0.237-0.069-0.414-0.276-0.444-0.526   c-0.031-0.25,0.087-0.495,0.3-0.623c-0.463,0.278-0.98,0.867-0.828,2.091c0.072,0.566,0.356,1.068,0.8,1.417   c0.443,0.347,0.992,0.498,1.549,0.423l2.497-0.331c0.555-0.072,1.046-0.36,1.391-0.812c0.341-0.452,0.485-1.011,0.418-1.577   c-0.118-0.931-0.612-1.588-1.36-1.802c0.237,0.066,0.413,0.276,0.444,0.524c0.029,0.25-0.087,0.496-0.299,0.623   c0.669-0.4,0.98-1.165,0.86-2.095c-0.125-0.989-0.695-1.675-1.536-1.836c0.262,0.051,0.461,0.267,0.494,0.537   c0.034,0.27-0.104,0.531-0.346,0.65C76.624,59.348,77.009,58.535,76.882,57.546z M75.474,59.772   c0.379,0.074,0.507,0.455,0.546,0.762c0.053,0.425-0.037,0.711-0.271,0.851c-0.213,0.127-0.327,0.373-0.3,0.622   c0.031,0.25,0.205,0.456,0.443,0.525c0.26,0.074,0.418,0.328,0.474,0.751c0.026,0.234-0.03,0.464-0.174,0.649   c-0.14,0.186-0.344,0.304-0.568,0.334l-2.497,0.33c-0.229,0.033-0.454-0.03-0.637-0.173c-0.186-0.141-0.302-0.35-0.33-0.582   c-0.084-0.656,0.146-0.794,0.229-0.844c0.213-0.128,0.33-0.374,0.297-0.624c-0.032-0.249-0.206-0.455-0.442-0.524   c-0.097-0.028-0.351-0.1-0.436-0.758c-0.086-0.688,0.205-0.829,0.301-0.874c0.241-0.116,0.383-0.378,0.348-0.647   c-0.031-0.271-0.231-0.486-0.495-0.538c-0.104-0.02-0.424-0.081-0.51-0.766c-0.062-0.472,0.054-0.771,0.336-0.894   c0.253-0.109,0.403-0.379,0.371-0.66c-0.036-0.28-0.25-0.501-0.523-0.541c-0.304-0.044-0.486-0.306-0.546-0.776   c-0.029-0.232,0.029-0.463,0.17-0.647c0.143-0.188,0.344-0.305,0.571-0.335l2.498-0.331c0.472-0.062,0.899,0.279,0.966,0.758   c0.031,0.261,0.024,0.725-0.373,0.896c-0.257,0.11-0.408,0.38-0.372,0.66c0.037,0.279,0.251,0.502,0.521,0.541   c0.436,0.063,0.553,0.51,0.584,0.771c0.04,0.308,0.017,0.708-0.336,0.879c-0.239,0.116-0.382,0.377-0.346,0.647   C75.011,59.505,75.208,59.721,75.474,59.772z"
   fill="#060506" />
</g><g
     id="g205">
	<path
   id="path207"
   d="M69.131,56.308c1.249-0.838,2.814-0.649,3.506,0.418c0.685,1.067-0.419,3.417-3.065,4.67"
   fill="#FFFFFF" />
</g><g
     id="g209">
	<path
   id="path211"
   d="M74.236,59.027L74.236,59.027c0.001,0.007,0.001,0.007,0.001,0.007c0.368,2.38,0.688,4.439-0.096,5.468   c-0.354,0.464-0.955,0.732-1.837,0.82c-2.454,0.242-4.714-1.737-5.255-4.602c-0.32-1.703-0.021-3.395,0.819-4.644   c0.599-0.882,1.396-1.435,2.314-1.602c1.155-0.208,1.979-0.118,2.521,0.276C73.612,55.408,73.935,57.077,74.236,59.027z    M69.974,53.237c-1.234,0.223-2.343,0.977-3.118,2.127c-1.027,1.522-1.396,3.563-1.017,5.595c0.66,3.505,3.49,5.919,6.584,5.614   c1.235-0.122,2.115-0.547,2.688-1.3c1.108-1.46,0.752-3.766,0.342-6.436c-0.356-2.32-0.733-4.167-2.03-5.112   C72.586,53.118,71.492,52.964,69.974,53.237z"
   fill="#060506" />
</g><g
     id="g213">
	<path
   id="path215"
   d="M15.815,74.306c0.45-0.243,11.273-5.862,33.435-0.07c21.395,5.592,32.154,0.125,32.261,0.07l-1.655-0.534   l1.906,3.711l0.516-1.696c-0.446,0.243-11.271,5.865-33.435,0.072c-21.394-5.593-32.155-0.126-32.261-0.07l1.656,0.533   l-1.906-3.712L15.815,74.306z M17.711,78.023l-0.009,0.005c0.098-0.051,10.288-5.026,30.529,0.269   c23.072,6.028,34.712-0.021,35.198-0.281l1.087-0.584l-0.572-1.112l-1.903-3.71l-0.567-1.106l-1.088,0.572   c-0.09,0.044-10.276,5.021-30.521-0.272c-23.07-6.031-34.711,0.021-35.196,0.282l-1.087,0.586l0.571,1.11l1.906,3.712l0.567,1.104   L17.711,78.023z"
   fill="#060506" />
</g><g
     id="g217">
	<path
   id="path219"
   d="M15.432,73.564c0.461-0.247,11.558-6.012,34.022-0.14c21.095,5.513,31.578,0.191,31.682,0.138l-0.554-0.179   l1.903,3.711l0.175-0.566C82.2,76.777,71.1,82.543,48.639,76.673c-21.095-5.518-31.578-0.191-31.681-0.14l0.552,0.179l-1.906-3.709   L15.432,73.564z M17.336,77.278h-0.002c0.101-0.053,10.438-5.198,31.102,0.205c22.771,5.951,34.137,0.043,34.609-0.213l0.357-0.195   l-0.188-0.37l-1.905-3.71l-0.188-0.367l-0.36,0.19c-0.104,0.051-10.438,5.197-31.1-0.204c-22.767-5.951-34.137-0.043-34.61,0.21   l-0.362,0.196l0.191,0.372l1.907,3.71l0.189,0.368L17.336,77.278z"
   fill="#FFFFFF" />
</g><g
     id="g221">
	<path
   id="path223"
   d="M15.241,73.195c0.466-0.251,11.694-6.09,34.315-0.176c20.914,5.466,31.287,0.223,31.39,0.17l1.906,3.712   c-0.466,0.25-11.694,6.089-34.315,0.177c-20.914-5.469-31.289-0.226-31.392-0.173L15.241,73.195z"
   fill="#060506" />
</g><g
     id="g249">
	<path
   id="path251"
   d="M27.91,23.614c-0.01,0-0.017,0-0.024,0c-0.919,0-1.583,0.36-2.059,0.831   c-0.077,0.077-0.148,0.157-0.217,0.238c-0.389,0.467-0.623,0.997-0.757,1.387c-0.135-0.39-0.371-0.919-0.759-1.387   c-0.066-0.081-0.139-0.161-0.216-0.238c-0.477-0.471-1.141-0.831-2.06-0.831c-0.01,0-0.017,0-0.025,0   c-2.645,0-3.972,1.532-3.972,4.636c0,4.48,7.014,9.517,7.014,9.517s0.008-0.004,0.019-0.013c0.011,0.008,0.018,0.013,0.018,0.013   s7.015-5.036,7.015-9.517C31.885,25.146,30.556,23.614,27.91,23.614z"
   fill="#FF0800" />
</g><path
     id="path345"
     d="M67.36,45.753c-1.025,7.771-9.509,13.15-18.946,12.015c-9.437-1.138-16.255-8.36-15.229-16.132  c1.026-7.772,9.508-13.151,18.945-12.016C61.568,30.759,68.385,37.98,67.36,45.753z"
     fill="url(#XMLID_96_)" /><path
     id="path347"
     d="M40.783,46.722c0,0-6.495-5.029-1.774-11.911  c4.722-6.882,18.551-4.159,23.415,0.526c0,0,6.229,6.762,0.492,12.457c0,0-2.634,3.299-6.418,3.095c0,0,0.111,2.184-2.117,3.616  c-1.345,0.86-3.667,1.573-7.406,0.839C37.013,53.386,40.783,46.722,40.783,46.722z"
     stroke-width="0.0882"
     stroke="#372511"
     fill="#B3B3B3" /><path
     id="path349"
     d="M53.248,35.502c0,0-0.692-5.44-9.65-2.91  c-8.959,2.53-4.941,10.715-4.941,10.715s2.884,3.054,2.446,3.889c-1.153,2.205-1.111,6.271,6.468,7.767  c7.578,1.495,8.492-3.286,8.181-4.139c0,0,8.839-1.613,8.616-8.51C64.146,35.418,56.471,32.512,53.248,35.502z"
     stroke-width="0.1764"
     stroke="#DAD2C0"
     fill="#F4ECD6" /><path
     id="path366"
     d="M53.13,35.488c0,0-0.688-5.439-9.576-2.9c-8.89,2.539-4.913,10.718-4.913,10.718  c1.07,2.49,2.876,3.014,2.423,3.887c-1.146,2.205-1.109,6.271,6.409,7.76c7.518,1.487,8.429-3.294,8.12-4.146  c0,0,8.77-1.621,8.56-8.517C63.942,35.393,56.328,32.495,53.13,35.488z"
     fill="url(#XMLID_97_)" /><path
     id="path368"
     d="M42.63,35.62c0,0,7.346-4.238,7.348,2.167  c0.002,6.405-3.404,9.721-7.074,7.532S36.441,39.649,42.63,35.62z"
     stroke-width="0.1764"
     stroke="#C1A48C"
     fill="#FFFFFF" /><path
     id="path370"
     d="M60.765,40.386c0,0-2.906-7.232-7.362-2.13  c-4.455,5.102-4.043,9.533,0.401,9.715C58.25,48.154,62.894,46.845,60.765,40.386z"
     stroke-width="0.1764"
     stroke="#C1A48C"
     fill="#FFFFFF" /><path
     id="path381"
     d="M40.545,50.411c0,0-0.012-1.814,0.302-2.286  c1.088-1.643,4.877-2.448,6.663-0.358c0,0,0.863,0.795,2.164,0.196c1.682-0.772,6.587,0.859,6.525,2.651  c-0.067,2.181-2.119,5.365-7.827,4.678C42.667,54.604,40.802,51.675,40.545,50.411z"
     stroke-width="0.1764"
     stroke="#C1A48C"
     fill="url(#XMLID_98_)" /><path
     id="path383"
     d="M42.512,49.578c0,0,3.911,5.711,12.688,3.276"
     stroke-width="0.1764"
     stroke="#B29D94"
     fill="none" /><path
     id="path385"
     d="M47.986,48.561c0,0-2.014,1.375-0.852,6.465"
     stroke-width="0.1764"
     stroke="#C6AFA4"
     fill="none" /><path
     id="path387"
     d="M48.378,41.32c-0.251,1.899-2.324,3.213-4.629,2.935c-2.305-0.277-3.972-2.042-3.721-3.941  c0.252-1.899,2.324-3.213,4.629-2.936C46.964,37.655,48.629,39.42,48.378,41.32z"
     fill="#165829" /><path
     id="path389"
     d="M48.154,41.273c-0.229,1.743-2.132,2.949-4.25,2.694c-2.115-0.255-3.644-1.874-3.415-3.617  c0.231-1.743,2.133-2.949,4.25-2.695C46.855,37.911,48.384,39.531,48.154,41.273z"
     fill="#33A02C" /><path
     id="path391"
     d="M47.787,41.05c-0.203,1.549-1.895,2.621-3.776,2.394c-1.88-0.227-3.237-1.666-3.035-3.215  c0.206-1.549,1.895-2.62,3.777-2.394C46.633,38.062,47.993,39.502,47.787,41.05z" /><path
     id="path393"
     d="M43.565,41.506c0.194,0.447,0.001,0.902-0.427,1.018c-0.428,0.117-0.934-0.151-1.127-0.597  c-0.194-0.447-0.003-0.902,0.424-1.019C42.867,40.792,43.371,41.06,43.565,41.506z"
     fill="#33A02C" /><path
     id="path395"
     d="M41.598,39.883c0,0,0.474-1.457,2.021-1.387  c0,0,0.773,0.559,0.062,0.59c-0.712,0.03-1.143,0.096-1.388,0.881C42.048,40.753,41.598,39.883,41.598,39.883z"
     enable-background="new    "
     fill="#FFFFFF"
     opacity="0.86" /><path
     id="path397"
     d="M46.202,41.755c-0.05,0.38-0.248,0.67-0.44,0.646  c-0.192-0.023-0.307-0.35-0.256-0.729c0.049-0.38,0.245-0.669,0.437-0.646C46.135,41.05,46.252,41.376,46.202,41.755z"
     enable-background="new    "
     fill="#FFFFFF"
     opacity="0.86" /><path
     id="path399"
     d="M59.673,44.467c-0.252,1.899-2.322,3.213-4.628,2.935c-2.311-0.278-3.977-2.042-3.725-3.941  c0.251-1.899,2.322-3.213,4.631-2.936C58.259,40.802,59.923,42.568,59.673,44.467z"
     fill="#165829" /><path
     id="path401"
     d="M59.45,44.421c-0.229,1.743-2.133,2.948-4.25,2.694c-2.111-0.255-3.643-1.874-3.412-3.618  c0.229-1.743,2.134-2.949,4.246-2.694C58.15,41.058,59.679,42.677,59.45,44.421z"
     fill="#33A02C" /><path
     id="path403"
     d="M59.083,44.197c-0.202,1.548-1.896,2.621-3.772,2.395c-1.881-0.227-3.239-1.666-3.035-3.215  c0.204-1.548,1.896-2.62,3.774-2.394C57.928,41.21,59.288,42.65,59.083,44.197z" /><path
     id="path405"
     d="M54.861,44.653c0.192,0.446,0.003,0.902-0.427,1.018c-0.429,0.115-0.936-0.152-1.128-0.599  c-0.193-0.446-0.002-0.901,0.427-1.017C54.163,43.939,54.668,44.207,54.861,44.653z"
     fill="#33A02C" /><path
     id="path407"
     d="M52.892,43.031c0,0,0.476-1.457,2.021-1.387  c0,0,0.772,0.559,0.062,0.589c-0.71,0.032-1.144,0.096-1.388,0.881C53.343,43.9,52.892,43.031,52.892,43.031z"
     enable-background="new    "
     fill="#FFFFFF"
     opacity="0.86" /><path
     id="path409"
     d="M57.499,44.903c-0.054,0.38-0.248,0.668-0.439,0.646  c-0.192-0.023-0.306-0.35-0.257-0.73c0.051-0.379,0.247-0.668,0.437-0.646C57.431,44.196,57.546,44.523,57.499,44.903z"
     enable-background="new    "
     fill="#FFFFFF"
     opacity="0.86" /><path
     id="path411"
     d="M47.94,46.874c-0.069,0.211-0.239,0.354-0.384,0.317c-0.143-0.036-0.203-0.235-0.135-0.447  c0.069-0.211,0.24-0.354,0.381-0.318C47.947,46.462,48.007,46.662,47.94,46.874z"
     fill="#A9775D" /><path
     id="path413"
     d="M48.799,47.1c-0.07,0.211-0.241,0.354-0.385,0.317c-0.142-0.035-0.202-0.235-0.135-0.447  c0.067-0.211,0.239-0.353,0.382-0.317C48.805,46.688,48.866,46.887,48.799,47.1z"
     fill="#A9775D" /><path
     id="path415"
     d="M81.325,60.537c-0.838-2.023-1.963-3.965-3.477-5.588c-9.994,6.832-16.604,19.257-17.02,20.05l10.003-0.022  C71.26,74.169,75.154,66.929,81.325,60.537z"
     fill="#060506" /><path
     id="path417"
     d="M48.503,20.677c-7.402,2.895-11.826,10.394-13.868,14.814c2.763,1.671,6.61,2.086,10.291,0.801  c5.688-1.985,8.812-7.267,6.967-11.793C51.236,22.885,50.031,21.593,48.503,20.677z"
     fill="#FF8600" /><path
     id="path419"
     d="M52.737,25.274c-0.812-0.54-1.657-1.024-2.539-1.437c-0.583,2.913-3.095,5.647-6.763,6.926  c-2.216,0.774-4.491,0.883-6.504,0.45c-0.224,0.364-0.44,0.722-0.641,1.077c2.35,0.656,5.046,0.615,7.649-0.292  c3.456-1.207,5.95-3.66,6.981-6.444c-0.397,3.163-3.047,6.21-7.006,7.591c-2.826,0.985-5.746,0.919-8.12,0.032  c-0.195,0.363-0.38,0.717-0.552,1.06c2.688,1.128,6.004,1.278,9.185,0.169c3.876-1.351,6.574-4.237,7.407-7.422  c0.062,3.542-2.75,7.126-7.17,8.667c-3.509,1.226-7.177,0.864-9.778-0.685c-0.178,0.373-0.344,0.728-0.49,1.06  c2.928,1.785,6.959,2.246,10.79,0.91C50.77,34.986,53.968,29.91,52.737,25.274z"
     fill="#060506" /><path
     id="path421"
     d="M43.332,29.582c3.191-1.113,5.547-3.295,6.704-5.815c-0.367-0.17-0.737-0.335-1.115-0.48  c-1.084,2.169-3.228,4.064-6.092,5.062c-1.49,0.52-3.006,0.737-4.455,0.696c-0.29,0.401-0.56,0.8-0.824,1.198  C39.41,30.455,41.398,30.258,43.332,29.582z"
     fill="#060506" /><path
     id="path423"
     d="M44.061,22.934c-2.708,4.075,0.066,10.809,6.201,15.043c6.131,4.233,13.3,4.362,16.008,0.286  c2.711-4.074-0.062-10.808-6.198-15.042C53.941,18.988,46.773,18.86,44.061,22.934z"
     fill="#FF8600" /><path
     id="path425"
     d="M66.208,39.451c-0.128-1.036-0.331-2.073-0.626-3.104c-3.089,0.98-7.483,0.086-11.435-2.64  c-5.179-3.572-7.778-9.044-6.224-12.698h0.003c-0.208,3.956,2.502,8.733,7.214,11.986c3.438,2.373,7.212,3.413,10.38,3.167  c-0.126-0.429-0.256-0.856-0.411-1.281c-2.796,0.126-6.146-0.865-9.229-2.996c-4.479-3.087-7.023-7.596-6.629-11.124  c-1.189-0.267-2.378-0.419-3.56-0.457c-0.104,0.129-0.213,0.252-0.311,0.389c-0.742,0.489-1.388,1.101-1.889,1.852  c-2.916,4.387-0.053,11.568,6.383,16.011C55.895,42.706,62.936,43.014,66.208,39.451z M46.345,21.701  c0.002-0.001,0.004-0.001,0.005-0.004c-0.867,4.142,1.892,9.551,7.062,13.12c3.727,2.571,7.851,3.598,11.16,3.098  c-3.174,1.284-7.954,0.425-12.223-2.521C46.711,31.502,44.061,25.409,46.345,21.701z M50.646,37.398  c-5.463-3.768-8.174-9.57-6.409-13.369c-0.338,4.093,2.444,9.108,7.36,12.501c4.176,2.883,8.847,3.87,12.372,2.979  C60.803,41.418,55.409,40.688,50.646,37.398z"
     fill="#060506" /><path
     id="path427"
     d="M32.809,53.811c-0.39-4.18,0.332-12.716,3.081-18.581c2.547-5.433,7.766-11.042,16.332-15.195l-3.902-1.99  c0,0-9.399,3.391-14.882,16.318c-2.323,5.479-3.262,13.775-2.578,20.441L32.809,53.811z"
     fill="#FFFFFF" /><path
     id="path429"
     d="M33.395,53.744c-0.404-4.336,0.374-12.608,3.022-18.254c1.974-4.211,6.362-10.215,16.055-14.914  c0.201-0.098,0.333-0.305,0.335-0.534s-0.125-0.438-0.325-0.539l-3.901-1.991c-0.141-0.072-0.307-0.084-0.456-0.029  c-0.395,0.142-9.704,3.626-15.223,16.645c-2.193,5.17-3.207,13.848-2.464,21.105C30.459,55.428,33.395,53.744,33.395,53.744z   M31.603,55.11c-0.725-7.076,0.25-15.507,2.373-20.507c5.307-12.514,14.448-15.959,14.54-15.994c0.045-0.016,0.089-0.04,0.129-0.066  c-0.175,0.119-0.399,0.132-0.586,0.037l3.902,1.99c-0.201-0.103-0.326-0.312-0.324-0.541c0.003-0.227,0.132-0.435,0.333-0.534  c-10.001,4.851-14.551,11.095-16.607,15.48c-2.744,5.851-3.39,14.784-2.973,19.257c-0.022-0.246,0.105-0.48,0.321-0.59l-1.951,0.995  c0.171-0.087,0.374-0.084,0.542,0.011C31.471,54.742,31.583,54.915,31.603,55.11z"
     fill="#060506" /><path
     id="path431"
     d="M53.905,17.912h11.055c0,0,6.836,0.398,7.151,6.236c0.419,7.684,0.896,9.471,2.997,13.767  c0.992,2.027-2.505,10.323-2.505,10.323L53.905,17.912z"
     fill="#D90000" /><path
     id="path433"
     d="M70.114,28.986c-0.024-0.015-2.786-1.415-2.885-3.324c-0.021-0.472,0.067-0.823,0.271-1.016  c0.17-0.164,0.396-0.202,0.561-0.185c0.015,0.001,0.394,0.045,0.604,0.346c0.159,0.228,0.19,0.56,0.103,0.99  c-0.053,0.244-0.217,0.353-0.292,0.345c-0.037-0.002-0.083-0.046-0.126-0.116c-0.105-0.184-0.141-0.479-0.071-0.649  c0.066-0.166-0.011-0.355-0.174-0.426c-0.163-0.068-0.351,0.012-0.418,0.177c-0.146,0.363-0.097,0.869,0.117,1.232  c0.146,0.255,0.362,0.407,0.606,0.431c0.441,0.048,0.861-0.319,0.979-0.851c0.135-0.619,0.063-1.126-0.207-1.514  c-0.361-0.513-0.943-0.6-1.058-0.611c-0.054-0.008-0.154-0.008-0.276,0.004c0.307-0.649,0.538-1.473,0.26-2.214  c-0.084-0.213-0.182-0.392-0.301-0.528c-0.001-0.009-0.003-0.022-0.008-0.034c-0.048-0.093-0.104-0.264-0.089-0.34  c0.026-0.14,0.192-0.278,0.307-0.254c0.077,0.015,0.132,0.051,0.168,0.112c0.036,0.059,0.046,0.138,0.029,0.201  c-0.02,0.061-0.096,0.114-0.126,0.131l0.003-0.003c-0.109,0.052-0.16,0.185-0.109,0.298s0.184,0.163,0.292,0.112  c0.028-0.015,0.287-0.144,0.365-0.417c0.051-0.183,0.021-0.392-0.077-0.557c-0.103-0.167-0.263-0.279-0.459-0.32  c-0.383-0.078-0.751,0.253-0.821,0.606c-0.009,0.044-0.009,0.087-0.008,0.134c-0.312-0.064-0.572,0.066-0.646,0.11  c-0.066,0.041-0.409,0.264-0.499,0.688c-0.062,0.322,0.032,0.663,0.286,1.014c0.221,0.301,0.584,0.413,0.854,0.258  c0.146-0.087,0.241-0.243,0.267-0.446c0.034-0.291-0.072-0.622-0.267-0.811c-0.089-0.084-0.229-0.082-0.312,0.009  c-0.086,0.089-0.081,0.233,0.009,0.318c0.089,0.087,0.146,0.282,0.133,0.428c-0.007,0.057-0.025,0.097-0.048,0.112  C67,22.45,66.866,22.43,66.768,22.29c-0.178-0.244-0.247-0.464-0.208-0.654c0.05-0.248,0.272-0.384,0.285-0.39  c0.096-0.056,0.252-0.097,0.4-0.042c0.182,0.063,0.335,0.259,0.447,0.564c0.284,0.755-0.114,1.673-0.471,2.279  c-0.007,0.003-0.018,0.005-0.021,0.01c-0.023-0.061-0.056-0.119-0.094-0.171c-0.295-0.424-0.974-0.642-1.435-0.306  c-0.237,0.168-0.39,0.416-0.425,0.696c-0.034,0.278,0.049,0.573,0.223,0.785c0.258,0.317,0.676,0.33,0.723,0.332  c0.18,0.001,0.318-0.144,0.322-0.324c0.002-0.181-0.143-0.327-0.313-0.329h0.003c-0.058-0.003-0.188-0.027-0.24-0.096  c-0.062-0.073-0.093-0.187-0.078-0.286c0.012-0.1,0.064-0.184,0.155-0.249c0.136-0.097,0.433-0.012,0.551,0.154  c0.062,0.094,0.092,0.353,0.084,0.505c0,0.018,0.005,0.031,0.007,0.046c-0.076,0.254-0.105,0.548-0.089,0.883  c0.113,2.292,3.112,3.81,3.243,3.875c0.154,0.077,0.349,0.011,0.425-0.149C70.338,29.259,70.272,29.067,70.114,28.986z"
     fill="#060506" /><path
     id="path435"
     d="M71.103,28.889c-0.021-0.014-0.043-0.023-0.064-0.038c0.021-0.021,0.035-0.042,0.054-0.065  c0.227-0.345,0.312-0.742,0.25-1.088c-0.048-0.246-0.179-0.451-0.364-0.579c-0.467-0.317-1.146-0.083-1.552,0.533  c-0.019,0.022-0.021,0.047-0.037,0.071c-0.021-0.016-0.037-0.034-0.061-0.05c-0.604-0.415-1.319-0.366-1.635,0.107  c-0.125,0.188-0.169,0.428-0.122,0.674c0.065,0.345,0.298,0.679,0.641,0.912c0.021,0.016,0.048,0.027,0.068,0.041  c-0.018,0.021-0.034,0.039-0.051,0.062c-0.405,0.614-0.355,1.346,0.104,1.666c0.188,0.128,0.425,0.171,0.664,0.125  c0.341-0.068,0.665-0.305,0.894-0.649c0.016-0.023,0.022-0.05,0.039-0.075c0.021,0.018,0.039,0.037,0.062,0.052  c0.605,0.413,1.322,0.361,1.637-0.116C71.938,29.997,71.708,29.3,71.103,28.889z M70.631,27.647c0.062,0.042,0.088,0.119,0.1,0.173  c0.036,0.18-0.022,0.415-0.156,0.615c-0.063,0.104-0.152,0.193-0.256,0.268l-0.008,0.006c-0.055-0.096-0.128-0.181-0.223-0.246  c-0.095-0.062-0.193-0.1-0.295-0.117l0.001-0.004c0.022-0.121,0.072-0.236,0.143-0.338C70.152,27.674,70.482,27.543,70.631,27.647z   M68.178,28.333c-0.01-0.055-0.016-0.135,0.024-0.198c0.104-0.153,0.453-0.159,0.772,0.062c0.104,0.069,0.189,0.157,0.261,0.258  l0.009,0.009c-0.079,0.056-0.148,0.124-0.208,0.21c-0.064,0.1-0.102,0.211-0.112,0.324l-0.035-0.007  c-0.118-0.028-0.235-0.08-0.336-0.152C68.356,28.709,68.212,28.511,68.178,28.333z M68.88,30.637  c-0.061,0.013-0.138,0.017-0.196-0.024c-0.15-0.103-0.157-0.464,0.058-0.793c0.069-0.104,0.155-0.19,0.258-0.262l0.039-0.028  c0.055,0.083,0.123,0.157,0.209,0.215c0.092,0.062,0.188,0.1,0.285,0.116l-0.01,0.054c-0.024,0.123-0.076,0.237-0.146,0.343  C69.246,30.458,69.055,30.604,68.88,30.637z M70.338,30.062c-0.104-0.068-0.19-0.156-0.264-0.258l-0.025-0.041  c0.096-0.058,0.18-0.129,0.246-0.23c0.056-0.083,0.089-0.176,0.105-0.27l0.024,0.006c0.119,0.028,0.229,0.078,0.333,0.146  c0.32,0.219,0.449,0.554,0.351,0.709C71.012,30.276,70.661,30.283,70.338,30.062z"
     fill="#EB0500" /><path
     id="path437"
     d="M70.934,29.152c-0.145-0.094-0.291-0.156-0.438-0.191c0.119-0.089,0.236-0.205,0.334-0.35  c0.304-0.461,0.289-1.011-0.026-1.228c-0.317-0.216-0.822-0.016-1.124,0.446c-0.096,0.144-0.154,0.295-0.188,0.446  c-0.086-0.125-0.192-0.243-0.338-0.34c-0.449-0.31-0.989-0.3-1.205,0.023c-0.213,0.324-0.02,0.837,0.435,1.147  c0.143,0.097,0.295,0.159,0.438,0.193c-0.122,0.089-0.236,0.202-0.332,0.347c-0.303,0.46-0.292,1.01,0.022,1.228  c0.312,0.218,0.821,0.022,1.124-0.438c0.097-0.146,0.155-0.297,0.188-0.448c0.089,0.125,0.198,0.243,0.343,0.339  c0.45,0.308,0.99,0.295,1.205-0.029C71.583,29.973,71.387,29.462,70.934,29.152z M69.418,29.483  c-0.205-0.14-0.264-0.422-0.122-0.634c0.138-0.208,0.412-0.264,0.617-0.124c0.204,0.14,0.262,0.423,0.123,0.633  C69.901,29.568,69.622,29.624,69.418,29.483z"
     fill="#060506" /><path
     id="path439"
     d="M53.905,18.51h11.055c0.227,0.015,6.281,0.444,6.566,5.672c0.433,7.915,0.967,9.718,3.062,14  c0.602,1.228-1.112,6.481-2.521,9.82c0.087-0.203,0.276-0.342,0.492-0.359c0.217-0.017,0.426,0.09,0.542,0.277l-18.7-30.325  c0.114,0.185,0.12,0.417,0.021,0.606C54.316,18.391,54.118,18.51,53.905,18.51z M73.141,48.475c0.602-1.43,3.551-8.661,2.491-10.828  c-2.038-4.165-2.519-5.79-2.938-13.531c-0.345-6.298-7.632-6.795-7.703-6.8c-0.033,0-11.089,0-11.089,0  c-0.214,0-0.407,0.118-0.513,0.307c-0.104,0.191-0.098,0.424,0.019,0.606l18.699,30.326c0.114,0.188,0.322,0.295,0.537,0.278  C72.866,48.817,73.055,48.677,73.141,48.475z"
     fill="#060506" /><path
     id="path441"
     d="M55.726,17.116h-6.503c0,0,11.582,43.503,39.984,43.528v-8.158C89.208,52.486,67.949,55.196,55.726,17.116z"
     fill="#FFFFFF" /><path
     id="path443"
     d="M54.542,17.267h-0.825c1.129,3.492,3.345,9.593,6.749,15.768c6.898,12.513,15.539,19.651,24.975,20.641  l0.079-0.791C67.229,50.966,57.477,26.196,54.542,17.267z"
     fill="#EB0500" /><path
     id="path445"
     d="M51.028,21.587c0,2.245-1.787,4.069-3.989,4.069c-2.202,0-3.989-1.824-3.989-4.069s1.787-4.069,3.989-4.069  C49.24,17.518,51.028,19.342,51.028,21.587z"
     fill="#D90000" /><path
     id="path447"
     d="M74.845,58.929c0.566,3.685,1.029,6.672-2.482,7.019c-2.675,0.262-5.289-1.769-5.919-5.107  c-0.628-3.339,0.991-6.509,3.639-6.985C73.674,53.209,74.275,55.245,74.845,58.929z"
     fill="#FFFFFF" /><path
     id="path449"
     d="M79.476,67.075c-0.452-0.216-11.039-5.425-5.376-18.636l0.493-1.15l-1.128-0.504l-0.338-0.15l-0.338-0.151  l-1.13-0.506l-0.489,1.154c-6.868,16.027,6.812,22.832,6.948,22.898l1.117,0.54l0.523-1.145l0.153-0.34l0.153-0.341l0.521-1.138  L79.476,67.075z M77.685,68.023l-0.155,0.341l1.646-0.606c-0.477-0.232-11.63-5.882-5.744-19.619l-1.624,0.648l0.337,0.151  l0.337,0.15l-0.635-1.654c-6.616,15.435,6.053,21.663,6.595,21.921l-0.598-1.671C77.839,67.684,77.684,68.024,77.685,68.023z"
     fill="#070606" /><path
     id="path451"
     d="M78.957,68.214L78.957,68.214c-0.499-0.236-12.116-5.968-5.984-20.278l-0.337-0.15l0,0l0,0l-0.336-0.151  c-6.424,14.991,6.222,21.199,6.349,21.261l0.155-0.34l0,0l0,0L78.957,68.214z"
     fill="#FFFFFF" /><path
     id="path453"
     d="M66.407,51.914c1.505,2.031,4.158,2.57,4.158,2.57s0.211-2.75-1.293-4.78  c-1.507-2.029-4.159-2.57-4.159-2.57S64.903,49.885,66.407,51.914z"
     fill="#FFFFFF" /><path
     id="path455"
     d="M65.917,52.294c1.625,2.194,4.408,2.782,4.525,2.806c0.173,0.036,0.354-0.006,0.493-0.115  c0.14-0.108,0.229-0.272,0.241-0.452c0.009-0.122,0.212-3.012-1.415-5.208c-1.629-2.196-4.412-2.784-4.531-2.808  c-0.172-0.035-0.35,0.007-0.491,0.117c-0.141,0.108-0.229,0.271-0.24,0.452C64.49,47.207,64.289,50.099,65.917,52.294z   M64.993,47.75h-0.002c0.025,0.005,2.448,0.525,3.79,2.334c1.341,1.807,1.173,4.328,1.17,4.352c0.017-0.181,0.104-0.344,0.24-0.453  c0.144-0.109,0.32-0.151,0.494-0.115c-0.021-0.005-2.447-0.526-3.787-2.333c-1.341-1.808-1.174-4.329-1.171-4.354  c-0.013,0.18-0.1,0.345-0.241,0.455C65.344,47.744,65.165,47.787,64.993,47.75z"
     fill="#060506" /><path
     id="path457"
     d="M77.576,42.86c-0.494,0.001-0.953,0.102-1.358,0.26c0.154-0.418,0.253-0.891,0.251-1.401  c-0.003-1.621-0.908-2.93-2.022-2.928c-1.112,0.004-2.014,1.317-2.01,2.936c0.001,0.507,0.098,0.979,0.255,1.394  c-0.407-0.16-0.867-0.26-1.365-0.262c-1.587-0.003-2.876,0.915-2.88,2.053c-0.001,1.137,1.283,2.061,2.872,2.064  c0.498,0.002,0.962-0.096,1.372-0.257c-0.155,0.416-0.253,0.884-0.254,1.389c-0.003,1.62,0.896,2.934,2.01,2.938  c1.115,0.001,2.021-1.308,2.023-2.928c0.001-0.508-0.096-0.98-0.25-1.398c0.409,0.159,0.871,0.257,1.37,0.255  c1.587-0.003,2.869-0.927,2.867-2.064C80.451,43.775,79.164,42.857,77.576,42.86z M74.149,45.224  c0.021-0.098,0.041-0.196,0.041-0.298c0-0.108-0.021-0.212-0.042-0.315c0.103,0.023,0.201,0.044,0.309,0.044  c0.104,0,0.195-0.022,0.294-0.042c-0.021,0.102-0.044,0.206-0.044,0.314c0,0.102,0.021,0.2,0.044,0.298  c-0.099-0.021-0.19-0.043-0.294-0.043C74.349,45.181,74.249,45.204,74.149,45.224z"
     fill="#FF8600" /><path
     id="path459"
     d="M72.918,46.389c0.722,0.865,1.993,0.97,2.844,0.232c0.846-0.738,0.949-2.037,0.225-2.903  c-0.722-0.865-1.994-0.969-2.843-0.232C72.294,44.225,72.195,45.525,72.918,46.389z"
     fill="#060506" /><path
     id="path461"
     d="M76.27,57.628c-0.088-0.688-0.467-1.221-1.106-1.312c0.599-0.256,0.829-0.871,0.742-1.557  c-0.104-0.827-0.846-1.408-1.65-1.301l-2.499,0.331c-0.812,0.108-1.378,0.862-1.273,1.687c0.088,0.688,0.432,1.225,1.071,1.318  c-0.599,0.255-0.794,0.863-0.706,1.551c0.082,0.663,0.395,1.187,1.005,1.304c-0.562,0.271-0.729,0.861-0.646,1.523  c0.077,0.617,0.323,1.123,0.878,1.282c-0.494,0.296-0.605,0.849-0.526,1.465c0.104,0.827,0.845,1.409,1.651,1.301l2.497-0.331  c0.812-0.107,1.383-0.863,1.273-1.688c-0.077-0.616-0.361-1.117-0.915-1.276c0.495-0.296,0.646-0.854,0.565-1.471  c-0.083-0.664-0.435-1.185-1.043-1.3C76.149,58.882,76.356,58.289,76.27,57.628z"
     fill="#FFFFFF" /><path
     id="path513"
     d="M70.402,61.033c0.129,1.018,0.754,1.728,1.633,1.854c-0.275-0.039-0.489-0.262-0.524-0.542  c-0.037-0.28,0.116-0.55,0.372-0.659c-0.816,0.353-1.245,1.199-1.117,2.216c0.149,1.167,1.201,1.993,2.344,1.846l2.5-0.329  c0.554-0.075,1.049-0.364,1.391-0.815c0.339-0.451,0.486-1.011,0.417-1.577c-0.132-1.039-0.729-1.729-1.597-1.854  c0.273,0.038,0.488,0.259,0.524,0.54c0.036,0.279-0.116,0.551-0.373,0.658c0.808-0.348,1.21-1.175,1.079-2.212  c-0.128-1.014-0.676-1.685-1.502-1.844c0.262,0.053,0.462,0.271,0.497,0.536c0.032,0.271-0.104,0.533-0.347,0.647  c0.758-0.365,1.121-1.158,0.992-2.172c-0.158-1.227-0.806-1.657-1.324-1.809c0.238,0.069,0.414,0.275,0.445,0.523  c0.032,0.252-0.084,0.495-0.299,0.625c0.465-0.277,0.984-0.867,0.828-2.093c-0.072-0.564-0.355-1.068-0.801-1.417  c-0.442-0.351-0.992-0.499-1.547-0.426c0.002-0.002-2.496,0.329-2.496,0.329c-0.555,0.074-1.047,0.361-1.389,0.813  c-0.342,0.451-0.49,1.013-0.418,1.577c0.119,0.932,0.613,1.589,1.359,1.803c-0.238-0.069-0.413-0.276-0.443-0.524  c-0.033-0.25,0.086-0.495,0.299-0.623c-0.67,0.4-0.985,1.163-0.865,2.097c0.124,0.987,0.697,1.679,1.54,1.839  c-0.261-0.051-0.462-0.271-0.497-0.536c-0.034-0.272,0.105-0.533,0.346-0.648C70.66,59.229,70.273,60.044,70.402,61.033z   M71.81,58.805c-0.382-0.071-0.508-0.455-0.546-0.762c-0.055-0.431,0.034-0.714,0.267-0.854c0.211-0.127,0.33-0.372,0.299-0.622  c-0.033-0.249-0.206-0.458-0.444-0.521c-0.259-0.075-0.418-0.328-0.471-0.754c-0.03-0.231,0.03-0.463,0.171-0.649  c0.141-0.185,0.342-0.305,0.57-0.333l2.498-0.331c0.229-0.03,0.455,0.03,0.636,0.177c0.184,0.144,0.298,0.351,0.329,0.581  c0.084,0.655-0.143,0.794-0.229,0.849c-0.213,0.127-0.331,0.372-0.3,0.622c0.033,0.247,0.207,0.453,0.445,0.521  c0.095,0.025,0.348,0.099,0.434,0.755c0.086,0.688-0.204,0.828-0.301,0.874c-0.241,0.118-0.381,0.382-0.346,0.648  c0.033,0.271,0.232,0.485,0.496,0.54c0.104,0.02,0.422,0.079,0.508,0.766c0.061,0.473-0.051,0.772-0.334,0.896  c-0.254,0.104-0.407,0.379-0.371,0.654c0.035,0.28,0.25,0.504,0.523,0.544c0.303,0.043,0.487,0.306,0.549,0.773  c0.026,0.232-0.033,0.462-0.172,0.648c-0.141,0.184-0.344,0.305-0.572,0.331l-2.498,0.331c-0.471,0.062-0.903-0.274-0.965-0.759  c-0.033-0.261-0.027-0.725,0.373-0.896c0.256-0.109,0.408-0.38,0.373-0.662c-0.037-0.279-0.252-0.5-0.524-0.539  c-0.431-0.062-0.552-0.511-0.584-0.771c-0.04-0.311-0.015-0.712,0.337-0.881c0.24-0.114,0.379-0.379,0.346-0.646  C72.271,59.072,72.07,58.856,71.81,58.805z"
     fill="#060506" /></g><use
   x="0"
   y="0"
   inkscape:tiled-clone-of="#g2682"
   xlink:href="#g2682"
   transform="matrix(-1,0,0,-1,98.024929,149.95391)"
   id="use2790"
   width="98.098"
   height="150.086" /><path
   fill="#F7F7F7"
   stroke="#060506"
   stroke-width="0.0882"
   d="M91.327,0.044H6.77c-3.717,0-6.726,3.037-6.726,6.782v136.438  c0,3.742,3.01,6.778,6.726,6.778h84.558c3.711,0,6.727-3.036,6.727-6.778L98.055,6.826C98.055,3.081,95.041,0.044,91.327,0.044z   M81.216,129.442c0,2.985-1.978,5.408-4.414,5.408h-55.51c-2.438,0-4.417-2.423-4.417-5.408V20.648c0-2.985,1.979-5.407,4.417-5.407  h55.51c2.436,0,4.414,2.422,4.414,5.407V129.442z"
   id="path515" /><g
   id="g517">
	<path
   fill="#FF0800"
   d="M10.883,28.767c-1.135,0-1.614,0.931-1.791,1.45c-0.178-0.519-0.657-1.45-1.792-1.45   c-1.57-0.006-2.359,0.899-2.359,2.735c0,2.646,4.14,5.618,4.14,5.618s0.005-0.001,0.011-0.007c0.007,0.006,0.011,0.007,0.011,0.007   s4.139-2.973,4.139-5.618C13.242,29.666,12.453,28.76,10.883,28.767z"
   id="path519" />
	<path
   fill="#FF0800"
   d="M87.214,122.811c1.134-0.003,1.613-0.938,1.792-1.451c0.179,0.519,0.655,1.448,1.79,1.451   c1.566,0.001,2.355-0.903,2.355-2.739c0-2.646-4.139-5.62-4.139-5.62s-0.004,0.005-0.011,0.013   c-0.01-0.008-0.014-0.013-0.014-0.013s-4.142,2.975-4.142,5.62C84.855,121.908,85.644,122.812,87.214,122.811z"
   id="path521" />
	<path
   fill="#FF0800"
   d="M6.351,9.972c-0.676,0.675-1.019,1.645-1.019,2.885c0,0,0,3.293,0,3.623   c-0.256-0.008-1.073-0.032-1.073-0.032l0.005,0.182v1.386c0,0,0.835,0.028,1.068,0.036c0,0.274,0,1.487,0,1.487   c0,1.235,0.342,2.205,1.019,2.881c0.648,0.653,1.57,0.995,2.737,1.017c1.175-0.022,2.097-0.364,2.747-1.017   c0,0,0.199-0.245,0.308-0.38c0.504,0.083,1.04,0.129,1.6,0.129h0.176v-1.567h-0.176c-0.368,0-0.693-0.023-0.998-0.062   c0.06-0.316,0.108-0.643,0.108-1v-6.681c0-1.238-0.343-2.208-1.018-2.884c-0.649-0.651-1.571-0.994-2.739-1.018   C7.922,8.979,7,9.321,6.351,9.972z M6.916,19.542c0,0,0-0.903,0-1.243c0.929,0.272,1.264,0.707,1.438,1.111   c0.405,0.938,1.116,1.635,2.087,2.099c-0.354,0.294-0.803,0.452-1.35,0.452l0,0C6.977,21.96,6.916,19.789,6.916,19.542z    M6.916,12.849c0-0.248,0.061-2.418,2.175-2.418c2.116,0,2.177,2.17,2.177,2.418v6.693c0,0.088-0.02,0.309-0.07,0.568   c-0.555-0.274-0.952-0.656-1.165-1.152v-0.001c-0.525-1.211-1.554-1.952-3.117-2.281C6.916,16.428,6.916,12.849,6.916,12.849z"
   id="path523" />
	<path
   fill="#FF0800"
   d="M86.262,127.937c0,0-0.213,0.264-0.308,0.378c-0.498-0.082-1.032-0.127-1.604-0.127h-0.176v1.562h0.176   c0.339,0,0.67,0.03,0.997,0.07c-0.061,0.317-0.104,0.646-0.104,0.997v6.681c0,1.235,0.345,2.206,1.019,2.886   c0.656,0.652,1.578,0.996,2.741,1.018c1.168-0.021,2.09-0.36,2.742-1.018c0.677-0.674,1.019-1.646,1.019-2.886c0,0,0-3.294,0-3.623   c0.255,0.009,1.074,0.032,1.074,0.032l-0.008-0.183v-1.385c0,0-0.835-0.028-1.066-0.036c0-0.273,0-1.485,0-1.485   c0-1.24-0.342-2.21-1.019-2.883c-0.646-0.652-1.568-0.994-2.736-1.018C87.833,126.942,86.914,127.284,86.262,127.937z    M87.524,139.373c-0.66-0.657-0.691-1.671-0.691-1.865v-6.692c0-0.088,0.021-0.311,0.067-0.565   c0.556,0.271,0.952,0.654,1.165,1.153c0.523,1.211,1.552,1.951,3.117,2.282c0,0.248,0,3.822,0,3.822   c0,0.194-0.033,1.208-0.694,1.865c-0.364,0.366-0.859,0.553-1.479,0.553c-0.001,0-0.002,0-0.003,0   C88.389,139.925,87.891,139.739,87.524,139.373z M89.006,128.394c2.113,0,2.176,2.17,2.176,2.418c0,0,0,0.902,0,1.246   c-0.928-0.272-1.264-0.707-1.438-1.111v0.001c-0.399-0.936-1.109-1.635-2.089-2.103C88.011,128.552,88.458,128.394,89.006,128.394z    M86.256,127.944c0,0,0.006-0.006,0.006-0.007L86.256,127.944z"
   id="path525" />
</g></svg>