<?xml version="1.0" encoding="utf-8"?>
<!-- Generator: Adobe Illustrator 12.0.0, SVG Export Plug-In . SVG Version: 6.00 Build 51448)  -->
<!DOCTYPE svg PUBLIC "-//W3C//DTD SVG 1.1//EN" "http://www.w3.org/Graphics/SVG/1.1/DTD/svg11.dtd" [
	<!ENTITY ns_flows "http://ns.adobe.com/Flows/1.0/">
	<!ENTITY ns_extend "http://ns.adobe.com/Extensibility/1.0/">
	<!ENTITY ns_ai "http://ns.adobe.com/AdobeIllustrator/10.0/">
	<!ENTITY ns_graphs "http://ns.adobe.com/Graphs/1.0/">
	<!ENTITY ns_vars "http://ns.adobe.com/Variables/1.0/">
	<!ENTITY ns_imrep "http://ns.adobe.com/ImageReplacement/1.0/">
	<!ENTITY ns_sfw "http://ns.adobe.com/SaveForWeb/1.0/">
	<!ENTITY ns_custom "http://ns.adobe.com/GenericCustomNamespace/1.0/">
	<!ENTITY ns_adobe_xpath "http://ns.adobe.com/XPath/1.0/">
	<!ENTITY ns_svg "http://www.w3.org/2000/svg">
	<!ENTITY ns_xlink "http://www.w3.org/1999/xlink">
]>
<svg  version="1.1"
	 xmlns:x="&ns_extend;" xmlns:i="&ns_ai;" xmlns:graph="&ns_graphs;" i:viewOrigin="0.8633 150.0435" i:rulerOrigin="0 0" i:pageBounds="0 150 100 0"
	 xmlns="&ns_svg;" xmlns:xlink="&ns_xlink;" xmlns:a="http://ns.adobe.com/AdobeSVGViewerExtensions/3.0/"
	 width="98.098" height="150.087" viewBox="0 0 98.098 150.087" overflow="visible" enable-background="new 0 0 98.098 150.087"
	 xml:space="preserve">
<metadata>
	<variableSets  xmlns="http://ns.adobe.com/Variables/1.0/">
		<variableSet  locked="none" varSetName="binding1">
			<variables></variables>
			<v:sampleDataSets  xmlns:v="http://ns.adobe.com/Variables/1.0/" xmlns="http://ns.adobe.com/GenericCustomNamespace/1.0/">
				</v:sampleDataSets>
		</variableSet>
	</variableSets>
</metadata>
<g id="图层_1" i:knockout="Off" i:layer="yes" i:dimmedPercent="50" i:rgbTrio="#4F008000FFFF">
	<g i:knockout="Off">
		<path fill="#F7F7F7" stroke="#060506" stroke-width="0.0882" d="M98.053,143.262c0,3.744-3.014,6.781-6.726,6.781H6.77
			c-3.715,0-6.726-3.036-6.726-6.781V6.824c0-3.744,3.011-6.78,6.726-6.78h84.559c3.712,0,6.726,3.036,6.726,6.78L98.053,143.262
			L98.053,143.262z"/>
		<g i:knockout="Off">
			<path fill="#060506" d="M8.396,8.953c0,0-3.293,12.678-3.361,12.937c-0.197,0-0.951,0-0.951,0v1.411h3.368V21.89
				c0,0-0.637,0-0.899,0c0.089-0.361,0.633-2.563,0.689-2.791c0.248,0,3.45,0,3.698,0c0.056,0.228,0.6,2.43,0.688,2.791
				c-0.262,0-0.9,0-0.9,0v1.411H14.1V21.89c0,0-0.758,0-0.956,0C13.077,21.631,9.783,8.953,9.783,8.953H8.396z M9.091,11.747
				c0.267,1.077,1.381,5.573,1.472,5.94c-0.365,0-2.579,0-2.943,0C7.71,17.321,8.824,12.825,9.091,11.747z"/>
		</g>
		<g i:knockout="Off">
			<path fill="#060506" d="M90.644,126.618v1.412c0,0,0.64,0,0.9,0c-0.09,0.361-0.634,2.562-0.69,2.79c-0.248,0-3.45,0-3.698,0
				c-0.056-0.229-0.599-2.429-0.688-2.79c0.262,0,0.9,0,0.9,0v-1.412h-3.371v1.412c0,0,0.758,0,0.955,0
				c0.066,0.26,3.358,12.937,3.358,12.937h1.391c0,0,3.292-12.677,3.358-12.937c0.197,0,0.953,0,0.953,0v-1.412H90.644z
				 M90.477,132.231c-0.091,0.367-1.204,4.862-1.471,5.939c-0.269-1.077-1.381-5.572-1.472-5.939
				C87.899,132.231,90.111,132.231,90.477,132.231z"/>
		</g>
		<path fill="#060506" d="M11.982,31.666c-1.605-1.414-2.892-3.239-2.892-3.239s-1.286,1.825-2.891,3.239
			c-1.79,1.574-1.391,2.957-1.049,3.606c0.399,0.759,1.302,1.135,2.08,1.135c1.164,0,1.562-1.209,1.562-1.209
			s0.009,0.437-0.165,0.94c-0.335,0.965-0.783,1.317-0.783,1.317h2.492c0,0-0.449-0.353-0.782-1.317
			c-0.176-0.504-0.163-0.94-0.163-0.94s0.394,1.209,1.559,1.209c0.778,0,1.683-0.375,2.083-1.135
			C13.372,34.623,13.771,33.241,11.982,31.666z"/>
		<path fill="#060506" d="M86.113,119.909c1.604,1.411,2.894,3.236,2.894,3.236s1.284-1.825,2.889-3.236
			c1.793-1.574,1.392-2.96,1.05-3.606c-0.398-0.759-1.303-1.135-2.078-1.135c-1.164,0-1.562,1.208-1.562,1.208
			s-0.01-0.437,0.163-0.939c0.336-0.964,0.782-1.318,0.782-1.318h-2.49c0,0,0.45,0.354,0.782,1.318
			c0.176,0.504,0.166,0.939,0.166,0.939s-0.398-1.208-1.563-1.208c-0.774,0-1.681,0.375-2.08,1.135
			C84.724,116.949,84.323,118.333,86.113,119.909z"/>
		<path d="M33.967,32.834h-1.631v-0.779h-1.769v-0.376h1.769v-0.916h1.631v0.916h1.988v-0.916h1.64v0.916h1.777v0.376h-1.777v0.797
			h-1.64v-0.797h-1.988V32.834z M39.349,39.311h-8.782v-0.32h0.545v-2.524h1.457v0.563c0.092-0.394,0.394-0.591,0.907-0.591h4.063
			c0.494-0.003,0.835,0.066,1.021,0.206c0.192,0.135,0.287,0.382,0.284,0.742v1.604h0.504L39.349,39.311L39.349,39.311z
			 M32.482,35.903h-1.388v-2.625h1.388V35.903z M33.234,36.796c-0.37-0.021-0.591,0.141-0.665,0.485v1.709h0.71v-2.194H33.234z
			 M34.493,36.164h-1.429V33.09h1.429v2.73c0.22-0.201,0.579-1.087,1.077-2.657h1.548c-0.024,0.062-0.064,0.158-0.119,0.289
			c-0.064,0.152-0.111,0.269-0.142,0.348h2.231v0.33h-2.354c-0.019,0.049-0.044,0.122-0.078,0.22
			c-0.021,0.059-0.037,0.102-0.046,0.129c-0.22,0.693-0.452,1.105-0.696,1.236c-0.235,0.181-0.708,0.24-1.42,0.179L34.493,36.164
			L34.493,36.164z M34.622,36.796v2.194h0.687v-2.194H34.622z M37.379,37.346c0.015-0.366-0.228-0.55-0.728-0.55v2.194h0.728V37.346
			z M36.697,34.579h1.352c0.302,0.775,0.599,1.273,0.889,1.493c-0.416,0.015-0.73,0.008-0.944-0.023
			c-0.226-0.033-0.411-0.098-0.554-0.191C37.176,35.707,36.929,35.282,36.697,34.579z"/>
		<path d="M40.685,38.088v-3.903c0.012-0.314-0.116-0.464-0.385-0.448h-0.348V33.37h1.333c0.559-0.015,0.831,0.257,0.815,0.816
			v3.632v0.037c0.123,0.437,0.315,0.731,0.578,0.884c0.259,0.165,0.684,0.246,1.273,0.243h4.805v0.467h-4.929
			c-1.048,0.03-1.632-0.338-1.755-1.104c-0.049,0.434-0.223,0.727-0.522,0.879c-0.281,0.159-0.803,0.237-1.567,0.233
			C40.464,39.161,40.698,38.704,40.685,38.088z M40.479,30.744h1.406c0.052,0.91,0.246,1.517,0.582,1.819
			c-0.837,0.012-1.354-0.09-1.553-0.308C40.688,32.095,40.543,31.591,40.479,30.744z M44.075,38.276h-1.352v-6.349h1.352v0.477
			c0.098-0.306,0.36-0.479,0.788-0.518v-1.132h1.36v1.122h0.853c0.522-0.003,0.877,0.076,1.067,0.238
			c0.195,0.146,0.29,0.431,0.284,0.853v4.062c0.006,0.504-0.074,0.832-0.238,0.985c-0.146,0.168-0.467,0.249-0.962,0.242h-2.281
			c-0.51,0.016-0.8-0.188-0.87-0.608L44.075,38.276L44.075,38.276z M44.863,32.234c-0.413,0.003-0.675,0.254-0.788,0.751v1.819
			h0.788V32.234z M44.075,37.113c0.101,0.531,0.331,0.788,0.691,0.77h0.096v-2.758h-0.788L44.075,37.113L44.075,37.113z
			 M46.421,32.234h-0.197v2.57h0.815v-1.883C47.054,32.448,46.848,32.219,46.421,32.234z M46.485,37.882
			c0.25,0.006,0.403-0.038,0.458-0.133c0.07-0.076,0.103-0.289,0.096-0.637v-1.988h-0.815v2.758H46.485L46.485,37.882z"/>
		<path d="M49.337,33.246h1.276c0.051,0.415,0.121,0.822,0.217,1.223c0.095,0.409,0.336,0.753,0.724,1.03
			c-0.782-0.036-1.278-0.111-1.489-0.225c-0.25-0.104-0.408-0.332-0.472-0.687C49.527,34.286,49.441,33.838,49.337,33.246z
			 M50.67,39.403h-1.273c0.11-0.986,0.191-1.693,0.243-2.121c0.064-0.583,0.23-0.973,0.5-1.168c0.25-0.204,0.729-0.309,1.435-0.312
			c-0.352,0.269-0.563,0.738-0.638,1.406c-0.049,0.36-0.115,0.904-0.197,1.631C50.708,39.09,50.686,39.278,50.67,39.403z
			 M49.489,30.865h1.278c0.008,0.058,0.021,0.143,0.036,0.256c0.064,0.437,0.124,0.769,0.179,0.994
			c0.056,0.412,0.273,0.74,0.655,0.985c-0.69,0.009-1.167-0.059-1.43-0.202c-0.272-0.128-0.446-0.392-0.522-0.792
			c-0.031-0.15-0.073-0.415-0.128-0.797C49.527,31.117,49.504,30.968,49.489,30.865z M51.637,37.712v-5.111H51.32v-0.34h1.031
			v-1.498h1.396v1.498h0.741c0.103-0.329,0.224-0.835,0.366-1.516h1.38c-0.021,0.089-0.056,0.22-0.102,0.394
			c-0.062,0.241-0.105,0.422-0.133,0.541h2.14v0.339h-2.236c-0.072,0.284-0.155,0.565-0.252,0.843h1.237
			c0.478,0,0.797,0.06,0.962,0.179c0.171,0.116,0.228,0.32,0.165,0.614c0.013,0.152-0.325,0.508-1.013,1.066
			c-0.076,0.064-0.136,0.115-0.179,0.151c0.112,0.241,0.196,0.617,0.253,1.127h1.228v0.335h-1.191c0,0.036,0.004,0.074,0.01,0.114
			c0.016,0.162,0.017,0.464,0.005,0.907c-0.003,0.055-0.005,0.096-0.005,0.124c-0.027,0.781-0.131,1.328-0.312,1.64
			c-0.168,0.312-0.458,0.459-0.87,0.444c-0.544-0.007-0.963-0.36-1.256-1.063c0.198,0.122,0.44,0.186,0.726,0.188
			c0.336,0.101,0.513-0.371,0.53-1.416c0.01-0.305,0.01-0.58,0-0.824c0-0.012-0.002-0.032-0.005-0.06
			c-0.003-0.024-0.005-0.042-0.005-0.055h-1.369v1.97c0.019,0.83-0.26,1.232-0.834,1.205c-0.445,0.003-0.793-0.148-1.039-0.454
			c-0.093,0.198-0.244,0.335-0.454,0.408c-0.205,0.076-0.511,0.104-0.916,0.082c0.125-0.177,0.209-0.398,0.252-0.664
			C51.618,38.639,51.64,38.25,51.637,37.712z M53.373,38.116v-3.321c0.009-0.415-0.072-0.615-0.243-0.6
			c-0.119-0.003-0.211,0.166-0.274,0.508v3.088c0.003,0.52-0.034,0.894-0.109,1.122c0.106,0.034,0.199,0.051,0.278,0.051
			c0.142,0.003,0.232-0.055,0.275-0.174C53.349,38.676,53.373,38.452,53.373,38.116z M54.939,33.952h1.22
			c0.003,0.003,0.007,0.008,0.013,0.014c0.04,0.046,0.083,0.092,0.129,0.138c0.419-0.32,0.621-0.515,0.609-0.582
			c0-0.024,0.003-0.058,0.009-0.101c0.066-0.144-0.073-0.211-0.421-0.201h-0.986c-0.11,0.211-0.295,0.35-0.554,0.417
			c-0.129,0.036-0.289,0.06-0.481,0.068c-0.187,0.01-0.426,0.008-0.719-0.004c0.25-0.309,0.453-0.675,0.609-1.1h-1.513v1.558
			c0.076-0.211,0.261-0.313,0.555-0.308h0.312c0.589-0.027,0.87,0.304,0.843,0.994v1.154h1.342
			C55.854,35.227,55.533,34.544,54.939,33.952z"/>
		<path d="M61.146,31.533h-2.31v-0.385h3.033c0.751-0.024,1.115,0.235,1.095,0.779c-0.031,0.474-0.452,1.867-1.265,4.182
			c0.197,0.565,0.396,1.126,0.592,1.682c0.734-0.421,1.339-0.872,1.809-1.352c-0.066-0.718-0.136-1.588-0.205-2.61l-1.236,0.068
			v-0.312l1.209-0.064l-0.422-2.767h1.406l0.308,2.034c0.313-0.253,0.605-0.775,0.875-1.566h1.313
			c-0.122,0.323-0.271,0.67-0.444,1.04c-0.106,0.244-0.28,0.401-0.521,0.472c-0.224,0.073-0.631,0.095-1.224,0.064l0.104,0.636
			l2.264-0.128v0.307l-2.245,0.133c0.021,0.467,0.04,0.902,0.064,1.306c0.171-0.195,0.35-0.412,0.536-0.65h1.654
			c-0.633,0.711-1.315,1.462-2.05,2.253c0.022,0.267,0.058,0.61,0.105,1.031c0.047,0.639,0.256,0.948,0.628,0.93
			c0.434,0.028,0.875-0.467,1.324-1.483c-0.11,1.6-0.706,2.401-1.786,2.404c-0.831,0.079-1.309-0.38-1.434-1.379
			c-0.027-0.152-0.057-0.319-0.082-0.499c-0.476,0.158-1.122,0.212-1.943,0.16l0.11,0.279c0.211,0.596,0.471,1.027,0.778,1.297
			c-0.367,0.039-0.653,0.05-0.86,0.032c-0.215-0.019-0.391-0.069-0.527-0.151c-0.254-0.132-0.478-0.495-0.673-1.091
			c-0.014-0.033-0.032-0.085-0.061-0.155c-0.019-0.046-0.029-0.079-0.037-0.101c-0.187,0.467-0.301,0.746-0.343,0.838
			c-0.172,0.326-0.403,0.54-0.696,0.642c-0.29,0.104-0.721,0.12-1.287,0.05c0.362-0.363,0.626-0.739,0.788-1.126
			c0.24-0.538,0.545-1.294,0.91-2.269c-0.428-1.288-0.852-2.58-1.272-3.875h1.283c0.119,0.389,0.306,0.97,0.559,1.745
			c0.033,0.107,0.061,0.188,0.078,0.243c0.373-1.148,0.561-1.898,0.562-2.249C61.634,31.643,61.479,31.511,61.146,31.533z"/>
		<path fill="#060506" d="M55.823,71.83c-3.76-3.555-6.774-8.148-6.774-8.148s-3.016,4.594-6.774,8.148
			c-4.196,3.965-3.256,7.443-2.46,9.083c0.938,1.908,3.054,2.854,4.875,2.854c2.729,0,3.66-3.042,3.66-3.042s0.022,1.1-0.386,2.368
			c-0.783,2.426-1.835,3.313-1.835,3.313h5.836c0,0-1.049-0.889-1.833-3.313c-0.411-1.27-0.387-2.368-0.387-2.368
			s0.933,3.042,3.661,3.042c1.82,0,3.94-0.944,4.874-2.854C59.079,79.274,60.016,75.795,55.823,71.83z"/>
		<path stroke="#060506" stroke-width="0.0706" d="M34.295,119.009c0.356,0.405,0.534,0.902,0.534,1.489
			c0,0.585-0.178,1.079-0.534,1.483c-0.396,0.45-0.927,0.676-1.588,0.676c-0.671,0-1.2-0.226-1.59-0.676
			c-0.351-0.404-0.528-0.898-0.528-1.483c0-0.587,0.177-1.084,0.528-1.489c0.39-0.45,0.919-0.676,1.59-0.676
			C33.368,118.333,33.898,118.559,34.295,119.009z M31.348,119.221c-0.304,0.349-0.455,0.773-0.455,1.277
			c0,0.497,0.15,0.919,0.455,1.267c0.336,0.39,0.791,0.585,1.364,0.585c0.569,0,1.021-0.195,1.359-0.585
			c0.303-0.348,0.455-0.77,0.455-1.267c0-0.504-0.152-0.93-0.455-1.277c-0.338-0.385-0.79-0.578-1.359-0.578
			C32.139,118.643,31.684,118.836,31.348,119.221z M33.391,119.451c0.176,0.131,0.271,0.286,0.286,0.47
			c0.004,0.093-0.055,0.146-0.174,0.161c-0.124,0.016-0.191-0.024-0.203-0.12c-0.014-0.126-0.076-0.225-0.185-0.292
			c-0.109-0.065-0.256-0.099-0.438-0.099c-0.262,0-0.463,0.095-0.602,0.281c-0.12,0.164-0.18,0.377-0.18,0.641
			c0,0.287,0.054,0.506,0.163,0.653c0.127,0.172,0.324,0.258,0.59,0.258c0.213,0,0.384-0.048,0.512-0.143
			c0.107-0.084,0.176-0.195,0.201-0.332c0.003-0.054,0.026-0.094,0.067-0.121c0.037-0.022,0.081-0.03,0.129-0.022
			c0.049,0.005,0.088,0.021,0.118,0.053c0.038,0.029,0.054,0.066,0.05,0.113c-0.026,0.236-0.128,0.427-0.309,0.566
			c-0.187,0.149-0.435,0.224-0.741,0.224c-0.378,0-0.671-0.126-0.875-0.378c-0.183-0.226-0.275-0.514-0.275-0.864
			c0-0.349,0.092-0.637,0.275-0.864c0.205-0.257,0.498-0.384,0.875-0.384C32.963,119.25,33.201,119.317,33.391,119.451z"/>
		<path d="M38.177,121.911l-0.634-2.002h0.515l0.375,1.312l0.344-1.312h0.509l0.333,1.312L40,119.909h0.52l-0.64,2.002h-0.507
			l-0.344-1.287l-0.338,1.287H38.177z"/>
		<path d="M41.172,121.911l-0.634-2.002h0.515l0.375,1.312l0.344-1.312h0.509l0.333,1.312l0.381-1.312h0.521l-0.64,2.002h-0.507
			l-0.344-1.287l-0.338,1.287H41.172z"/>
		<path d="M44.167,121.911l-0.634-2.002h0.515l0.375,1.312l0.344-1.312h0.509l0.333,1.312l0.381-1.312h0.52l-0.641,2.002h-0.507
			l-0.343-1.287l-0.338,1.287H44.167z"/>
		<path d="M46.638,121.911v-0.529h0.529v0.529H46.638z"/>
		<path d="M47.686,121.911v-2.763h0.529v0.995c0.164-0.186,0.357-0.278,0.582-0.278c0.244,0,0.446,0.089,0.606,0.266
			c0.16,0.177,0.24,0.431,0.24,0.762c0,0.342-0.081,0.605-0.244,0.79c-0.164,0.186-0.361,0.277-0.594,0.277
			c-0.115,0-0.228-0.029-0.339-0.088c-0.111-0.06-0.208-0.145-0.288-0.256v0.293L47.686,121.911L47.686,121.911z M48.21,120.867
			c0,0.208,0.033,0.361,0.099,0.463c0.093,0.141,0.215,0.212,0.369,0.212c0.118,0,0.218-0.052,0.301-0.15
			c0.083-0.101,0.125-0.259,0.125-0.475c0-0.229-0.042-0.396-0.125-0.496c-0.083-0.103-0.191-0.152-0.321-0.152
			c-0.128,0-0.234,0.049-0.319,0.148C48.252,120.514,48.21,120.665,48.21,120.867z"/>
		<path d="M50.055,121.911v-2.763h0.529v2.763H50.055z"/>
		<path d="M52.452,121.911v-0.301c-0.072,0.107-0.168,0.191-0.286,0.255c-0.118,0.062-0.244,0.096-0.376,0.096
			c-0.136,0-0.255-0.03-0.361-0.09c-0.107-0.06-0.185-0.143-0.232-0.249c-0.047-0.106-0.07-0.256-0.07-0.443v-1.269h0.528v0.922
			c0,0.281,0.011,0.455,0.029,0.519c0.021,0.064,0.055,0.114,0.106,0.151c0.052,0.038,0.115,0.056,0.194,0.056
			c0.092,0,0.173-0.023,0.243-0.074c0.071-0.05,0.121-0.11,0.146-0.186c0.025-0.073,0.04-0.254,0.04-0.541v-0.847h0.528v2.001
			H52.452L52.452,121.911z"/>
		<path d="M54.64,121.276l0.529,0.088c-0.068,0.194-0.175,0.343-0.321,0.443c-0.146,0.101-0.33,0.152-0.55,0.152
			c-0.348,0-0.605-0.114-0.772-0.343c-0.132-0.183-0.196-0.412-0.196-0.689c0-0.333,0.086-0.593,0.26-0.78
			c0.173-0.188,0.392-0.282,0.656-0.282c0.298,0,0.532,0.099,0.705,0.294c0.172,0.196,0.255,0.497,0.246,0.901h-1.328
			c0.004,0.159,0.047,0.282,0.128,0.37c0.082,0.088,0.185,0.132,0.306,0.132c0.083,0,0.153-0.021,0.21-0.066
			C54.568,121.45,54.61,121.376,54.64,121.276z M54.672,120.735c-0.004-0.151-0.043-0.269-0.119-0.349
			c-0.076-0.079-0.168-0.119-0.276-0.119c-0.114,0-0.212,0.042-0.288,0.126c-0.074,0.084-0.111,0.198-0.11,0.342H54.672
			L54.672,120.735z"/>
		<path d="M57.459,121.911h-0.49v-0.295c-0.082,0.114-0.179,0.199-0.29,0.258c-0.11,0.058-0.223,0.087-0.335,0.087
			c-0.23,0-0.427-0.094-0.591-0.279c-0.164-0.185-0.245-0.444-0.245-0.776c0-0.34,0.079-0.597,0.239-0.772
			c0.158-0.177,0.359-0.267,0.604-0.267c0.225,0,0.416,0.094,0.579,0.278v-0.995h0.529V121.911L57.459,121.911z M56.048,120.867
			c0,0.215,0.029,0.369,0.089,0.466c0.086,0.14,0.205,0.209,0.358,0.209c0.122,0,0.227-0.054,0.312-0.156
			c0.086-0.104,0.129-0.26,0.129-0.467c0-0.23-0.042-0.396-0.125-0.498c-0.083-0.103-0.188-0.152-0.318-0.152
			c-0.125,0-0.23,0.05-0.315,0.15C56.09,120.517,56.048,120.667,56.048,120.867z"/>
		<path d="M58.493,119.909v1.941c0,0.255-0.018,0.436-0.051,0.54c-0.032,0.105-0.097,0.188-0.19,0.246
			c-0.096,0.059-0.216,0.089-0.362,0.089c-0.052,0-0.108-0.005-0.17-0.015c-0.061-0.01-0.126-0.022-0.196-0.042l0.091-0.451
			c0.025,0.006,0.05,0.009,0.07,0.013c0.022,0.003,0.042,0.005,0.062,0.005c0.054,0,0.098-0.012,0.133-0.035
			c0.034-0.022,0.058-0.052,0.067-0.084c0.013-0.032,0.018-0.131,0.018-0.295v-1.912H58.493L58.493,119.909z M57.964,119.638v-0.49
			h0.529v0.49H57.964z"/>
		<path d="M59.045,121.911v-0.529h0.529v0.529H59.045z"/>
		<path d="M61.856,120.493l-0.522,0.095c-0.019-0.103-0.059-0.18-0.119-0.23c-0.062-0.052-0.144-0.078-0.242-0.078
			c-0.132,0-0.236,0.046-0.314,0.139c-0.078,0.092-0.117,0.245-0.117,0.46c0,0.238,0.04,0.406,0.12,0.507
			c0.079,0.099,0.188,0.146,0.322,0.146c0.102,0,0.184-0.028,0.248-0.087c0.063-0.058,0.109-0.158,0.137-0.299l0.518,0.088
			c-0.054,0.24-0.157,0.421-0.31,0.544c-0.153,0.122-0.358,0.185-0.615,0.185c-0.293,0-0.525-0.094-0.699-0.277
			s-0.261-0.441-0.261-0.768c0-0.331,0.088-0.59,0.262-0.773c0.175-0.184,0.41-0.276,0.707-0.276c0.243,0,0.436,0.053,0.58,0.155
			C61.691,120.124,61.794,120.281,61.856,120.493z"/>
		<path d="M62.13,120.883c0-0.176,0.043-0.347,0.13-0.511c0.085-0.165,0.208-0.291,0.367-0.378c0.158-0.088,0.336-0.131,0.531-0.131
			c0.302,0,0.55,0.1,0.742,0.295c0.192,0.197,0.289,0.446,0.289,0.747c0,0.304-0.098,0.555-0.292,0.755
			c-0.194,0.198-0.439,0.299-0.735,0.299c-0.185,0-0.358-0.041-0.524-0.125c-0.166-0.083-0.292-0.204-0.378-0.364
			C62.173,121.309,62.13,121.114,62.13,120.883z M62.67,120.912c0,0.198,0.047,0.353,0.141,0.458s0.21,0.158,0.349,0.158
			c0.138,0,0.254-0.053,0.347-0.158c0.094-0.105,0.14-0.261,0.14-0.463c0-0.196-0.047-0.348-0.14-0.453
			c-0.094-0.106-0.209-0.159-0.347-0.159c-0.139,0-0.255,0.053-0.349,0.159C62.717,120.559,62.67,120.712,62.67,120.912z"/>
		<path d="M64.569,119.909h0.485v0.272c0.175-0.211,0.383-0.316,0.624-0.316c0.128,0,0.239,0.025,0.333,0.078
			c0.095,0.054,0.172,0.132,0.232,0.237c0.087-0.105,0.182-0.185,0.282-0.237c0.102-0.052,0.211-0.078,0.326-0.078
			c0.146,0,0.271,0.029,0.372,0.09c0.102,0.06,0.178,0.146,0.229,0.263c0.036,0.085,0.055,0.224,0.055,0.415v1.278h-0.529v-1.146
			c0-0.198-0.018-0.326-0.054-0.385c-0.05-0.075-0.124-0.112-0.227-0.112c-0.073,0-0.144,0.022-0.209,0.067
			c-0.064,0.046-0.111,0.11-0.141,0.198s-0.043,0.226-0.043,0.413v0.963h-0.529v-1.098c0-0.195-0.01-0.32-0.027-0.378
			c-0.02-0.056-0.049-0.098-0.088-0.126c-0.039-0.027-0.094-0.041-0.16-0.041c-0.081,0-0.154,0.021-0.221,0.066
			c-0.064,0.044-0.11,0.106-0.14,0.188c-0.028,0.084-0.042,0.222-0.042,0.414v0.973h-0.529V119.909L64.569,119.909z"/>
	</g>
</g>
</svg>
