<?xml version="1.0" encoding="utf-8"?>
<!-- Generator: Adobe Illustrator 12.0.0, SVG Export Plug-In . SVG Version: 6.00 Build 51448)  -->
<!DOCTYPE svg PUBLIC "-//W3C//DTD SVG 1.1//EN" "http://www.w3.org/Graphics/SVG/1.1/DTD/svg11.dtd" [
	<!ENTITY ns_flows "http://ns.adobe.com/Flows/1.0/">
	<!ENTITY ns_extend "http://ns.adobe.com/Extensibility/1.0/">
	<!ENTITY ns_ai "http://ns.adobe.com/AdobeIllustrator/10.0/">
	<!ENTITY ns_graphs "http://ns.adobe.com/Graphs/1.0/">
	<!ENTITY ns_vars "http://ns.adobe.com/Variables/1.0/">
	<!ENTITY ns_imrep "http://ns.adobe.com/ImageReplacement/1.0/">
	<!ENTITY ns_sfw "http://ns.adobe.com/SaveForWeb/1.0/">
	<!ENTITY ns_custom "http://ns.adobe.com/GenericCustomNamespace/1.0/">
	<!ENTITY ns_adobe_xpath "http://ns.adobe.com/XPath/1.0/">
	<!ENTITY ns_svg "http://www.w3.org/2000/svg">
	<!ENTITY ns_xlink "http://www.w3.org/1999/xlink">
]>
<svg  version="1.1"
	 xmlns:x="&ns_extend;" xmlns:i="&ns_ai;" xmlns:graph="&ns_graphs;" i:viewOrigin="89.8623 287.6421" i:rulerOrigin="-89 -137.1973" i:pageBounds="89 287.1973 189 137.1973"
	 xmlns="&ns_svg;" xmlns:xlink="&ns_xlink;" xmlns:a="http://ns.adobe.com/AdobeSVGViewerExtensions/3.0/"
	 width="98.098" height="150.087" viewBox="0 0 98.098 150.087" overflow="visible" enable-background="new 0 0 98.098 150.087"
	 xml:space="preserve">
<metadata>
	<variableSets  xmlns="http://ns.adobe.com/Variables/1.0/">
		<variableSet  locked="none" varSetName="binding1">
			<variables></variables>
			<v:sampleDataSets  xmlns:v="http://ns.adobe.com/Variables/1.0/" xmlns="http://ns.adobe.com/GenericCustomNamespace/1.0/">
				</v:sampleDataSets>
		</variableSet>
	</variableSets>
</metadata>
<g id="图层_1" i:knockout="Off" i:layer="yes" i:dimmedPercent="50" i:rgbTrio="#4F008000FFFF">
	<g i:knockout="Off">
		<path fill="#F7F7F7" stroke="#060506" stroke-width="0.0882" d="M98.054,143.263c0,3.743-3.014,6.78-6.725,6.78H6.77
			c-3.714,0-6.726-3.036-6.726-6.78V6.825c0-3.744,3.011-6.781,6.726-6.781h84.559c3.712,0,6.726,3.037,6.726,6.781V143.263
			L98.054,143.263z"/>
		<g i:knockout="Off">
			<path fill="#060506" d="M6.381,10.18L6.381,10.18c-0.668,0.779-1.026,1.927-1.062,3.415l-0.004,0.181h1.588V13.6
				c0-1.077,0.196-1.879,0.583-2.386c0.407-0.525,1.013-0.781,1.849-0.781c0.76,0,1.322,0.202,1.718,0.617
				c0.373,0.385,0.554,0.921,0.554,1.641c0,0.426-0.035,0.776-0.104,1.042c-0.081,0.319-0.231,0.625-0.447,0.911
				c-0.219,0.298-0.565,0.646-1.03,1.038c-0.442,0.375-1.065,0.851-1.853,1.414c-1.109,0.767-1.918,1.536-2.402,2.286
				c-0.516,0.784-0.778,1.702-0.778,2.728c0,0.008,0.025,0.569,0.025,0.569h8.077v-2.903h-1.391c0,0,0,1.216,0,1.49
				c-0.316,0-4.681,0-5.079,0c0.08-0.533,0.296-1.051,0.697-1.535c0.402-0.479,1.042-1.012,1.9-1.583
				c1.582-1.085,2.606-1.968,3.135-2.7c0.554-0.737,0.835-1.672,0.835-2.777c0-1.106-0.332-1.998-0.985-2.651
				c-0.674-0.705-1.625-1.063-2.825-1.063C8.095,8.954,7.084,9.366,6.381,10.18z"/>
		</g>
		<g i:knockout="Off">
			<path fill="#060506" d="M85.005,126.619v2.9h1.39c0,0,0-1.213,0-1.487c0.316,0,4.684,0,5.08,0
				c-0.081,0.534-0.298,1.052-0.698,1.534c-0.402,0.48-1.043,1.015-1.898,1.584c-1.561,1.066-2.612,1.975-3.135,2.698
				c-0.556,0.734-0.838,1.672-0.838,2.778c0,1.103,0.331,1.993,0.983,2.65c0.675,0.703,1.627,1.061,2.827,1.061
				c1.289,0,2.299-0.41,3.001-1.223c0.669-0.78,1.027-1.929,1.063-3.415l0.006-0.181h-1.591v0.176c0,1.078-0.195,1.88-0.583,2.386
				c-0.401,0.52-1.023,0.781-1.85,0.781c-0.747,0-1.325-0.208-1.718-0.619c-0.368-0.379-0.556-0.93-0.556-1.641
				c0-0.43,0.035-0.778,0.104-1.039c0.081-0.316,0.231-0.624,0.448-0.912c0.222-0.301,0.567-0.65,1.03-1.039
				c0.432-0.366,1.056-0.842,1.854-1.414c1.108-0.766,1.917-1.535,2.402-2.285c0.516-0.782,0.777-1.699,0.777-2.726
				c-0.001-0.009-0.025-0.569-0.025-0.569L85.005,126.619L85.005,126.619z"/>
		</g>
		<path fill="#060506" d="M11.985,31.668c-1.605-1.414-2.893-3.239-2.893-3.239s-1.286,1.826-2.891,3.239
			c-1.791,1.574-1.39,2.957-1.048,3.607c0.399,0.758,1.302,1.134,2.081,1.134c1.164,0,1.562-1.209,1.562-1.209
			s0.008,0.436-0.166,0.941c-0.334,0.964-0.783,1.316-0.783,1.316h2.491c0,0-0.447-0.353-0.782-1.316
			C9.382,35.636,9.391,35.2,9.391,35.2s0.396,1.209,1.563,1.209c0.777,0,1.681-0.375,2.081-1.134
			C13.373,34.624,13.774,33.242,11.985,31.668z"/>
		<path fill="#060506" d="M86.114,119.91c1.604,1.411,2.894,3.236,2.894,3.236s1.286-1.825,2.892-3.236
			c1.79-1.575,1.391-2.961,1.048-3.606c-0.397-0.76-1.303-1.136-2.078-1.136c-1.164,0-1.562,1.208-1.562,1.208
			s-0.01-0.436,0.165-0.938c0.333-0.965,0.783-1.319,0.783-1.319h-2.49c0,0,0.447,0.354,0.781,1.319
			c0.176,0.504,0.165,0.938,0.165,0.938s-0.397-1.208-1.562-1.208c-0.775,0-1.681,0.375-2.08,1.136
			C84.727,116.949,84.326,118.334,86.114,119.91z"/>
		<path fill="#060506" d="M55.824,23.481c-3.76-3.555-6.775-8.149-6.775-8.149s-3.014,4.595-6.773,8.149
			c-4.195,3.964-3.256,7.444-2.458,9.08c0.935,1.912,3.052,2.855,4.873,2.855c2.728,0,3.663-3.042,3.663-3.042
			s0.022,1.1-0.388,2.368c-0.783,2.426-1.835,3.314-1.835,3.314h5.838c0,0-1.05-0.888-1.833-3.314
			c-0.408-1.268-0.385-2.368-0.385-2.368s0.931,3.042,3.659,3.042c1.82,0,3.939-0.944,4.876-2.855
			C59.08,30.924,60.017,27.445,55.824,23.481z"/>
		<path fill="#060506" d="M42.275,126.479c3.76,3.558,6.774,8.148,6.774,8.148s3.015-4.592,6.774-8.148
			c4.195-3.963,3.258-7.441,2.458-9.079c-0.937-1.91-3.052-2.854-4.871-2.854c-2.729,0-3.664,3.039-3.664,3.039
			s-0.021-1.098,0.387-2.365c0.784-2.426,1.835-3.313,1.835-3.313h-5.835c0,0,1.049,0.889,1.832,3.313
			c0.411,1.269,0.387,2.365,0.387,2.365s-0.93-3.039-3.66-3.039c-1.821,0-3.939,0.943-4.874,2.854
			C39.019,119.038,38.083,122.516,42.275,126.479z"/>
	</g>
</g>
</svg>
