<?xml version="1.0" encoding="utf-8"?>
<!-- Generator: Adobe Illustrator 12.0.0, SVG Export Plug-In . SVG Version: 6.00 Build 51448)  -->
<!DOCTYPE svg PUBLIC "-//W3C//DTD SVG 1.1//EN" "http://www.w3.org/Graphics/SVG/1.1/DTD/svg11.dtd" [
	<!ENTITY ns_flows "http://ns.adobe.com/Flows/1.0/">
	<!ENTITY ns_extend "http://ns.adobe.com/Extensibility/1.0/">
	<!ENTITY ns_ai "http://ns.adobe.com/AdobeIllustrator/10.0/">
	<!ENTITY ns_graphs "http://ns.adobe.com/Graphs/1.0/">
	<!ENTITY ns_vars "http://ns.adobe.com/Variables/1.0/">
	<!ENTITY ns_imrep "http://ns.adobe.com/ImageReplacement/1.0/">
	<!ENTITY ns_sfw "http://ns.adobe.com/SaveForWeb/1.0/">
	<!ENTITY ns_custom "http://ns.adobe.com/GenericCustomNamespace/1.0/">
	<!ENTITY ns_adobe_xpath "http://ns.adobe.com/XPath/1.0/">
	<!ENTITY ns_svg "http://www.w3.org/2000/svg">
	<!ENTITY ns_xlink "http://www.w3.org/1999/xlink">
]>
<svg  version="1.1"
	 xmlns:x="&ns_extend;" xmlns:i="&ns_ai;" xmlns:graph="&ns_graphs;" i:viewOrigin="89.8623 287.6421" i:rulerOrigin="-89 -137.1973" i:pageBounds="89 287.1973 189 137.1973"
	 xmlns="&ns_svg;" xmlns:xlink="&ns_xlink;" xmlns:a="http://ns.adobe.com/AdobeSVGViewerExtensions/3.0/"
	 width="98.098" height="150.087" viewBox="0 0 98.098 150.087" overflow="visible" enable-background="new 0 0 98.098 150.087"
	 xml:space="preserve">
<metadata>
	<variableSets  xmlns="http://ns.adobe.com/Variables/1.0/">
		<variableSet  locked="none" varSetName="binding1">
			<variables></variables>
			<v:sampleDataSets  xmlns:v="http://ns.adobe.com/Variables/1.0/" xmlns="http://ns.adobe.com/GenericCustomNamespace/1.0/">
				</v:sampleDataSets>
		</variableSet>
	</variableSets>
</metadata>
<g id="图层_1" i:knockout="Off" i:layer="yes" i:dimmedPercent="50" i:rgbTrio="#4F008000FFFF">
	<g i:knockout="Off">
		<path fill="#F7F7F7" stroke="#060506" stroke-width="0.0882" d="M98.054,143.263c0,3.743-3.015,6.78-6.726,6.78H6.77
			c-3.715,0-6.726-3.036-6.726-6.78V6.825c0-3.744,3.01-6.781,6.726-6.781h84.558c3.712,0,6.726,3.037,6.726,6.781L98.054,143.263
			L98.054,143.263z"/>
		<path fill="#060506" d="M11.984,31.668c-1.605-1.414-2.893-3.24-2.893-3.24s-1.286,1.826-2.89,3.24
			c-1.791,1.574-1.39,2.957-1.049,3.606c0.398,0.759,1.303,1.135,2.081,1.135c1.165,0,1.562-1.208,1.562-1.208
			s0.007,0.436-0.167,0.94c-0.334,0.964-0.784,1.316-0.784,1.316h2.491c0,0-0.447-0.353-0.782-1.316
			c-0.174-0.505-0.165-0.94-0.165-0.94s0.397,1.208,1.562,1.208c0.779,0,1.683-0.375,2.081-1.135
			C13.374,34.624,13.774,33.242,11.984,31.668z"/>
		<path fill="#060506" d="M86.113,119.91c1.605,1.411,2.894,3.235,2.894,3.235s1.286-1.824,2.892-3.235
			c1.791-1.575,1.391-2.961,1.05-3.606c-0.398-0.761-1.305-1.136-2.079-1.136c-1.164,0-1.562,1.208-1.562,1.208
			s-0.01-0.437,0.164-0.938c0.333-0.965,0.781-1.319,0.781-1.319h-2.489c0,0,0.447,0.354,0.783,1.319
			c0.175,0.503,0.163,0.938,0.163,0.938s-0.396-1.208-1.562-1.208c-0.775,0-1.681,0.375-2.08,1.136
			C84.727,116.95,84.324,118.334,86.113,119.91z"/>
		<g i:knockout="Off">
			<path fill="#060506" d="M5.681,8.954v2.523h1.391c0,0,0-0.891,0-1.143c0.291,0,2.959,0,3.593,0
				c-0.485,0.515-3.854,4.094-3.854,4.094l0.811,0.965l0.202-0.189c0.134-0.119,0.526-0.403,1.204-0.403
				c0.799,0,1.408,0.276,1.86,0.845c0.447,0.561,0.673,1.376,0.673,2.421c0,0.998-0.228,1.788-0.676,2.348
				C10.45,20.984,9.86,21.26,9.079,21.26c-0.717,0-1.294-0.232-1.763-0.71c-0.484-0.491-0.731-1.115-0.754-1.911l-0.005-0.171H5
				l0.008,0.184c0.052,1.198,0.458,2.172,1.205,2.895c0.735,0.725,1.68,1.093,2.807,1.093c1.264,0,2.285-0.428,3.035-1.271
				c0.744-0.823,1.122-1.952,1.122-3.356c0-1.391-0.358-2.514-1.064-3.338c-0.622-0.726-1.458-1.121-2.471-1.214
				c0.419-0.44,2.94-3.094,2.94-3.094V8.953L5.681,8.954L5.681,8.954z"/>
		</g>
		<g i:knockout="Off">
			<path fill="#060506" d="M86.044,127.888c-0.745,0.826-1.123,1.957-1.123,3.357c0,1.39,0.357,2.512,1.064,3.338
				c0.622,0.728,1.459,1.121,2.472,1.215c-0.419,0.44-2.939,3.095-2.939,3.095v1.413h6.9v-2.522h-1.393c0,0,0,0.89,0,1.144
				c-0.291,0-2.96,0-3.594,0c0.484-0.516,3.854-4.095,3.854-4.095l-0.812-0.97l-0.202,0.195c-0.132,0.117-0.524,0.401-1.2,0.401
				c-0.801,0-1.408-0.275-1.86-0.846c-0.446-0.562-0.673-1.378-0.673-2.425c0-0.997,0.228-1.786,0.676-2.347
				c0.435-0.57,1.023-0.847,1.806-0.847c0.716,0,1.292,0.232,1.762,0.711c0.479,0.484,0.732,1.127,0.757,1.909l0.005,0.171h1.555
				l-0.007-0.184c-0.052-1.196-0.457-2.169-1.205-2.892c-0.733-0.727-1.679-1.095-2.808-1.095
				C87.812,126.619,86.792,127.046,86.044,127.888z"/>
		</g>
		<path fill="#060506" d="M55.824,23.481c-3.759-3.555-6.775-8.149-6.775-8.149s-3.016,4.595-6.773,8.149
			c-4.196,3.964-3.256,7.444-2.458,9.08c0.936,1.912,3.053,2.856,4.875,2.856c2.728,0,3.661-3.042,3.661-3.042
			s0.023,1.099-0.387,2.367c-0.784,2.426-1.835,3.314-1.835,3.314h5.836c0,0-1.049-0.888-1.833-3.314
			c-0.411-1.268-0.386-2.367-0.386-2.367s0.932,3.042,3.659,3.042c1.82,0,3.941-0.944,4.877-2.856
			C59.08,30.924,60.017,27.445,55.824,23.481z"/>
		<path fill="#060506" d="M42.272,126.479c3.76,3.558,6.776,8.148,6.776,8.148s3.014-4.592,6.772-8.148
			c4.196-3.963,3.26-7.441,2.46-9.079c-0.937-1.91-3.051-2.854-4.874-2.854c-2.729,0-3.662,3.039-3.662,3.039
			s-0.021-1.098,0.386-2.365c0.785-2.426,1.836-3.313,1.836-3.313h-5.836c0,0,1.05,0.889,1.833,3.313
			c0.411,1.269,0.386,2.365,0.386,2.365s-0.929-3.039-3.659-3.039c-1.822,0-3.94,0.943-4.875,2.854
			C39.019,119.038,38.082,122.516,42.272,126.479z"/>
		<path fill="#060506" d="M55.824,71.832c-3.76-3.555-6.774-8.148-6.774-8.148s-3.016,4.594-6.774,8.148
			c-4.197,3.965-3.256,7.443-2.46,9.082c0.937,1.909,3.053,2.854,4.875,2.854c2.729,0,3.66-3.042,3.66-3.042s0.022,1.1-0.386,2.368
			c-0.783,2.426-1.835,3.313-1.835,3.313h5.835c0,0-1.048-0.889-1.832-3.313c-0.412-1.27-0.387-2.368-0.387-2.368
			s0.932,3.042,3.661,3.042c1.819,0,3.94-0.944,4.874-2.854C59.08,79.275,60.017,75.797,55.824,71.832z"/>
	</g>
</g>
</svg>
