<?xml version="1.0" encoding="utf-8"?>
<!-- Generator: Adobe Illustrator 12.0.0, SVG Export Plug-In . SVG Version: 6.00 Build 51448)  -->
<!DOCTYPE svg PUBLIC "-//W3C//DTD SVG 1.1//EN" "http://www.w3.org/Graphics/SVG/1.1/DTD/svg11.dtd" [
	<!ENTITY ns_flows "http://ns.adobe.com/Flows/1.0/">
	<!ENTITY ns_extend "http://ns.adobe.com/Extensibility/1.0/">
	<!ENTITY ns_ai "http://ns.adobe.com/AdobeIllustrator/10.0/">
	<!ENTITY ns_graphs "http://ns.adobe.com/Graphs/1.0/">
	<!ENTITY ns_vars "http://ns.adobe.com/Variables/1.0/">
	<!ENTITY ns_imrep "http://ns.adobe.com/ImageReplacement/1.0/">
	<!ENTITY ns_sfw "http://ns.adobe.com/SaveForWeb/1.0/">
	<!ENTITY ns_custom "http://ns.adobe.com/GenericCustomNamespace/1.0/">
	<!ENTITY ns_adobe_xpath "http://ns.adobe.com/XPath/1.0/">
	<!ENTITY ns_svg "http://www.w3.org/2000/svg">
	<!ENTITY ns_xlink "http://www.w3.org/1999/xlink">
]>
<svg  version="1.1"
	 xmlns:x="&ns_extend;" xmlns:i="&ns_ai;" xmlns:graph="&ns_graphs;" i:viewOrigin="89.8633 287.6421" i:rulerOrigin="-89 -137.1973" i:pageBounds="89 287.1973 189 137.1973"
	 xmlns="&ns_svg;" xmlns:xlink="&ns_xlink;" xmlns:a="http://ns.adobe.com/AdobeSVGViewerExtensions/3.0/"
	 width="98.097" height="150.087" viewBox="0 0 98.097 150.087" overflow="visible" enable-background="new 0 0 98.097 150.087"
	 xml:space="preserve">
<metadata>
	<variableSets  xmlns="http://ns.adobe.com/Variables/1.0/">
		<variableSet  locked="none" varSetName="binding1">
			<variables></variables>
			<v:sampleDataSets  xmlns:v="http://ns.adobe.com/Variables/1.0/" xmlns="http://ns.adobe.com/GenericCustomNamespace/1.0/">
				</v:sampleDataSets>
		</variableSet>
	</variableSets>
</metadata>
<g id="图层_1" i:knockout="Off" i:layer="yes" i:dimmedPercent="50" i:rgbTrio="#4F008000FFFF">
	<g i:knockout="Off">
		<path fill="#F7F7F7" stroke="#060506" stroke-width="0.0882" d="M98.053,143.263c0,3.743-3.015,6.78-6.726,6.78H6.769
			c-3.715,0-6.725-3.036-6.725-6.78V6.825c0-3.744,3.011-6.781,6.725-6.781h84.559c3.712,0,6.726,3.037,6.726,6.781V143.263
			L98.053,143.263z"/>
		<path fill="#060506" d="M11.982,31.667c-1.604-1.413-2.892-3.239-2.892-3.239s-1.286,1.826-2.89,3.239
			c-1.79,1.575-1.392,2.957-1.05,3.607c0.4,0.759,1.303,1.134,2.081,1.134c1.166,0,1.563-1.208,1.563-1.208s0.009,0.436-0.167,0.94
			c-0.333,0.964-0.783,1.317-0.783,1.317h2.492c0,0-0.448-0.353-0.783-1.317c-0.174-0.504-0.164-0.94-0.164-0.94
			s0.396,1.208,1.561,1.208c0.778,0,1.683-0.375,2.081-1.134C13.372,34.624,13.771,33.242,11.982,31.667z"/>
		<path fill="#060506" d="M86.112,119.909c1.605,1.412,2.893,3.236,2.893,3.236s1.287-1.824,2.893-3.236
			c1.789-1.574,1.39-2.96,1.05-3.606c-0.399-0.759-1.304-1.135-2.08-1.135c-1.163,0-1.562,1.208-1.562,1.208
			s-0.01-0.436,0.165-0.938c0.334-0.964,0.782-1.319,0.782-1.319h-2.491c0,0,0.449,0.355,0.784,1.319
			c0.175,0.504,0.164,0.938,0.164,0.938s-0.396-1.208-1.563-1.208c-0.773,0-1.68,0.375-2.078,1.135
			C84.725,116.95,84.323,118.334,86.112,119.909z"/>
		<g i:knockout="Off">
			<path fill="#060506" d="M10.221,8.954l-5.592,8.76v1.22c0,0,5.278,0,5.609,0c0,0.274,0,1.624,0,1.897c-0.23,0-0.913,0-0.913,0
				v1.411h3.367v-1.411c0,0-0.645,0-0.869,0c0-0.274,0-1.624,0-1.897c0.285,0,1.73,0,1.73,0v-1.345c0,0-1.446,0-1.73,0
				c0-0.338,0-8.635,0-8.635H10.221z M10.239,11.325c0,0.986,0,5.958,0,6.264c-0.301,0-3.449,0-3.979,0
				C6.554,17.126,9.702,12.17,10.239,11.325z"/>
		</g>
		<g i:knockout="Off">
			<path fill="#060506" d="M85.404,126.619v1.414c0,0,0.646,0,0.869,0c0,0.273,0,1.624,0,1.898c-0.285,0-1.73,0-1.73,0v1.345
				c0,0,1.446,0,1.73,0c0,0.339,0,8.632,0,8.632h1.603l5.593-8.757v-1.22c0,0-5.278,0-5.609,0c0-0.273,0-1.624,0-1.898
				c0.229,0,0.913,0,0.913,0v-1.414H85.404L85.404,126.619z M91.836,131.276c-0.294,0.462-3.441,5.419-3.979,6.263
				c0-0.984,0-5.957,0-6.263C88.159,131.276,91.307,131.276,91.836,131.276z"/>
		</g>
		<path fill="#060506" d="M37.454,23.481c-3.759-3.556-6.776-8.149-6.776-8.149s-3.014,4.593-6.772,8.149
			c-4.195,3.962-3.257,7.443-2.459,9.08c0.935,1.912,3.051,2.854,4.872,2.854c2.73,0,3.664-3.041,3.664-3.041
			s0.021,1.099-0.388,2.367c-0.784,2.426-1.835,3.313-1.835,3.313h5.835c0,0-1.05-0.887-1.833-3.313
			c-0.409-1.268-0.385-2.367-0.385-2.367s0.931,3.041,3.659,3.041c1.822,0,3.939-0.942,4.876-2.854
			C40.711,30.924,41.646,27.444,37.454,23.481z"/>
		<path fill="#060506" d="M23.902,126.479c3.761,3.556,6.776,8.148,6.776,8.148s3.016-4.593,6.775-8.148
			c4.197-3.963,3.257-7.442,2.459-9.08c-0.937-1.909-3.054-2.854-4.874-2.854c-2.731,0-3.662,3.04-3.662,3.04
			s-0.022-1.099,0.386-2.365c0.783-2.426,1.835-3.313,1.835-3.313h-5.836c0,0,1.049,0.889,1.833,3.313
			c0.41,1.268,0.384,2.365,0.384,2.365s-0.928-3.04-3.659-3.04c-1.822,0-3.939,0.944-4.874,2.854
			C20.649,119.038,19.711,122.516,23.902,126.479z"/>
		<path fill="#060506" d="M74.191,23.481c-3.759-3.556-6.773-8.149-6.773-8.149s-3.018,4.593-6.776,8.149
			c-4.192,3.962-3.256,7.443-2.456,9.08c0.937,1.912,3.053,2.854,4.873,2.854c2.729,0,3.661-3.041,3.661-3.041
			s0.021,1.099-0.387,2.367c-0.785,2.426-1.834,3.313-1.834,3.313h5.834c0,0-1.049-0.887-1.832-3.313
			c-0.41-1.268-0.387-2.367-0.387-2.367s0.932,3.041,3.66,3.041c1.82,0,3.939-0.942,4.875-2.854
			C77.445,30.924,78.385,27.444,74.191,23.481z"/>
		<path fill="#060506" d="M60.641,126.479c3.76,3.556,6.776,8.148,6.776,8.148s3.012-4.593,6.772-8.148
			c4.194-3.963,3.256-7.442,2.459-9.08c-0.937-1.909-3.052-2.854-4.874-2.854c-2.728,0-3.661,3.04-3.661,3.04
			s-0.021-1.099,0.388-2.365c0.783-2.426,1.835-3.313,1.835-3.313H64.5c0,0,1.048,0.889,1.832,3.313
			c0.408,1.268,0.387,2.365,0.387,2.365s-0.931-3.04-3.659-3.04c-1.822,0-3.94,0.944-4.875,2.854
			C57.386,119.038,56.45,122.516,60.641,126.479z"/>
	</g>
</g>
</svg>
