<?xml version="1.0" encoding="utf-8"?>
<!-- Generator: Adobe Illustrator 12.0.0, SVG Export Plug-In . SVG Version: 6.00 Build 51448)  -->
<!DOCTYPE svg PUBLIC "-//W3C//DTD SVG 1.1//EN" "http://www.w3.org/Graphics/SVG/1.1/DTD/svg11.dtd" [
	<!ENTITY ns_flows "http://ns.adobe.com/Flows/1.0/">
	<!ENTITY ns_extend "http://ns.adobe.com/Extensibility/1.0/">
	<!ENTITY ns_ai "http://ns.adobe.com/AdobeIllustrator/10.0/">
	<!ENTITY ns_graphs "http://ns.adobe.com/Graphs/1.0/">
	<!ENTITY ns_vars "http://ns.adobe.com/Variables/1.0/">
	<!ENTITY ns_imrep "http://ns.adobe.com/ImageReplacement/1.0/">
	<!ENTITY ns_sfw "http://ns.adobe.com/SaveForWeb/1.0/">
	<!ENTITY ns_custom "http://ns.adobe.com/GenericCustomNamespace/1.0/">
	<!ENTITY ns_adobe_xpath "http://ns.adobe.com/XPath/1.0/">
	<!ENTITY ns_svg "http://www.w3.org/2000/svg">
	<!ENTITY ns_xlink "http://www.w3.org/1999/xlink">
]>
<svg  version="1.1"
	 xmlns:x="&ns_extend;" xmlns:i="&ns_ai;" xmlns:graph="&ns_graphs;" i:viewOrigin="0.8608 150.4448" i:rulerOrigin="0 0" i:pageBounds="0 150 100 0"
	 xmlns="&ns_svg;" xmlns:xlink="&ns_xlink;" xmlns:a="http://ns.adobe.com/AdobeSVGViewerExtensions/3.0/"
	 width="98.097" height="150.087" viewBox="0 0 98.097 150.087" overflow="visible" enable-background="new 0 0 98.097 150.087"
	 xml:space="preserve">
<metadata>
	<variableSets  xmlns="http://ns.adobe.com/Variables/1.0/">
		<variableSet  locked="none" varSetName="binding1">
			<variables></variables>
			<v:sampleDataSets  xmlns:v="http://ns.adobe.com/Variables/1.0/" xmlns="http://ns.adobe.com/GenericCustomNamespace/1.0/">
				</v:sampleDataSets>
		</variableSet>
	</variableSets>
</metadata>
<g id="图层_1" i:knockout="Off" i:layer="yes" i:dimmedPercent="50" i:rgbTrio="#4F008000FFFF">
	<g i:knockout="Off">
		<path fill="#F7F7F7" stroke="#060506" stroke-width="0.0882" d="M98.053,143.263c0,3.743-3.014,6.78-6.725,6.78H6.77
			c-3.715,0-6.726-3.036-6.726-6.78V6.825c0-3.744,3.011-6.781,6.726-6.781h84.559c3.711,0,6.725,3.037,6.725,6.781V143.263
			L98.053,143.263z"/>
		<path fill="#060506" d="M11.984,31.668c-1.604-1.414-2.892-3.24-2.892-3.24s-1.286,1.826-2.891,3.24
			c-1.792,1.574-1.39,2.957-1.051,3.606c0.399,0.759,1.303,1.135,2.082,1.135c1.165,0,1.561-1.208,1.561-1.208
			s0.009,0.436-0.164,0.94c-0.335,0.964-0.784,1.316-0.784,1.316h2.491c0,0-0.447-0.353-0.782-1.316
			c-0.173-0.505-0.164-0.94-0.164-0.94s0.396,1.208,1.561,1.208c0.777,0,1.682-0.375,2.081-1.135
			C13.373,34.624,13.774,33.242,11.984,31.668z"/>
		<path fill="#060506" d="M86.114,119.91c1.604,1.411,2.894,3.236,2.894,3.236s1.286-1.825,2.891-3.236
			c1.79-1.575,1.391-2.961,1.051-3.606c-0.399-0.76-1.307-1.136-2.079-1.136c-1.165,0-1.563,1.208-1.563,1.208
			s-0.009-0.436,0.166-0.938c0.333-0.965,0.782-1.319,0.782-1.319h-2.49c0,0,0.447,0.354,0.782,1.319
			c0.175,0.504,0.164,0.938,0.164,0.938s-0.397-1.208-1.562-1.208c-0.775,0-1.681,0.375-2.08,1.136
			C84.725,116.95,84.325,118.334,86.114,119.91z"/>
		<g i:knockout="Off">
			<path fill="#060506" d="M6.428,8.954L5.405,16.12h1.338l0.052-0.082c0.25-0.395,0.576-0.707,0.971-0.928
				c0.401-0.207,0.815-0.309,1.26-0.309c0.802,0,1.411,0.277,1.862,0.845c0.445,0.56,0.671,1.375,0.671,2.421
				c0,1-0.227,1.79-0.674,2.348C10.45,20.984,9.861,21.26,9.08,21.26c-0.716,0-1.293-0.232-1.763-0.71
				c-0.485-0.49-0.731-1.116-0.755-1.911l-0.005-0.171H5.001l0.008,0.184c0.051,1.197,0.456,2.171,1.204,2.895
				c0.735,0.725,1.679,1.094,2.806,1.094c1.266,0,2.287-0.428,3.036-1.271c0.744-0.82,1.122-1.949,1.122-3.355
				c0-1.391-0.357-2.514-1.061-3.338c-0.714-0.833-1.692-1.255-2.908-1.255c-0.468,0-0.924,0.078-1.355,0.232
				c-0.29,0.101-0.544,0.248-0.781,0.415c0.097-0.669,0.501-3.481,0.538-3.734c0.287,0,4.967,0,4.967,0v-1.38L6.428,8.954
				L6.428,8.954z"/>
		</g>
		<g i:knockout="Off">
			<path fill="#060506" d="M86.042,127.888c-0.744,0.822-1.121,1.953-1.121,3.357c0,1.391,0.356,2.514,1.062,3.338
				c0.712,0.832,1.689,1.253,2.904,1.253c0.469,0,0.925-0.077,1.357-0.231c0.289-0.102,0.544-0.247,0.779-0.414
				c-0.096,0.668-0.502,3.481-0.538,3.735c-0.286,0-4.966,0-4.966,0v1.38h6.147l1.022-7.165h-1.339l-0.052,0.081
				c-0.25,0.395-0.576,0.706-0.97,0.926c-0.396,0.206-0.82,0.312-1.262,0.312c-0.801,0-1.41-0.275-1.861-0.846
				c-0.445-0.561-0.672-1.376-0.672-2.425c0-0.999,0.229-1.788,0.676-2.347c0.436-0.57,1.024-0.847,1.805-0.847
				c0.715,0,1.291,0.232,1.764,0.711c0.479,0.482,0.731,1.125,0.756,1.91l0.006,0.17h1.555l-0.007-0.184
				c-0.053-1.196-0.458-2.169-1.207-2.892c-0.733-0.727-1.678-1.095-2.806-1.095C87.811,126.619,86.791,127.045,86.042,127.888z"/>
		</g>
		<path fill="#060506" d="M55.825,71.831c-3.76-3.554-6.775-8.149-6.775-8.149s-3.015,4.595-6.772,8.149
			c-4.196,3.966-3.257,7.444-2.458,9.083c0.934,1.909,3.053,2.854,4.873,2.854c2.728,0,3.662-3.043,3.662-3.043
			s0.023,1.099-0.388,2.369c-0.783,2.424-1.835,3.313-1.835,3.313h5.836c0,0-1.048-0.89-1.833-3.313
			c-0.41-1.271-0.386-2.369-0.386-2.369s0.932,3.043,3.659,3.043c1.822,0,3.941-0.944,4.877-2.854
			C59.08,79.275,60.016,75.797,55.825,71.831z"/>
		<path fill="#060506" d="M37.456,23.481c-3.76-3.556-6.775-8.149-6.775-8.149s-3.015,4.593-6.774,8.149
			c-4.196,3.962-3.257,7.443-2.46,9.08c0.936,1.912,3.053,2.854,4.874,2.854c2.73,0,3.664-3.041,3.664-3.041
			s0.021,1.099-0.388,2.367c-0.783,2.426-1.835,3.313-1.835,3.313h5.837c0,0-1.05-0.887-1.834-3.313
			c-0.408-1.268-0.384-2.367-0.384-2.367s0.931,3.041,3.657,3.041c1.822,0,3.941-0.942,4.876-2.854
			C40.71,30.924,41.648,27.444,37.456,23.481z"/>
		<path fill="#060506" d="M23.904,126.479c3.759,3.556,6.776,8.148,6.776,8.148s3.015-4.593,6.773-8.148
			c4.196-3.963,3.257-7.442,2.458-9.08c-0.936-1.909-3.052-2.854-4.873-2.854c-2.729,0-3.662,3.04-3.662,3.04
			s-0.023-1.099,0.385-2.365c0.785-2.426,1.837-3.313,1.837-3.313H27.76c0,0,1.05,0.889,1.833,3.313
			c0.411,1.268,0.385,2.365,0.385,2.365s-0.93-3.04-3.658-3.04c-1.821,0-3.941,0.944-4.877,2.854
			C20.648,119.038,19.711,122.516,23.904,126.479z"/>
		<path fill="#060506" d="M74.194,23.481c-3.76-3.556-6.775-8.149-6.775-8.149s-3.018,4.593-6.776,8.149
			c-4.192,3.962-3.254,7.443-2.455,9.08c0.937,1.912,3.052,2.854,4.873,2.854c2.729,0,3.659-3.041,3.659-3.041
			s0.022,1.099-0.386,2.367c-0.782,2.426-1.835,3.313-1.835,3.313h5.836c0,0-1.047-0.887-1.833-3.313
			c-0.409-1.268-0.385-2.367-0.385-2.367s0.931,3.041,3.658,3.041c1.821,0,3.938-0.942,4.877-2.854
			C77.448,30.924,78.385,27.444,74.194,23.481z"/>
		<path fill="#060506" d="M60.641,126.479c3.76,3.556,6.776,8.148,6.776,8.148s3.015-4.593,6.775-8.148
			c4.192-3.963,3.256-7.442,2.459-9.08c-0.938-1.909-3.055-2.854-4.877-2.854c-2.729,0-3.66,3.04-3.66,3.04
			s-0.021-1.099,0.387-2.365c0.786-2.426,1.835-3.313,1.835-3.313H64.5c0,0,1.051,0.889,1.833,3.313
			c0.41,1.268,0.385,2.365,0.385,2.365s-0.927-3.04-3.657-3.04c-1.822,0-3.939,0.944-4.874,2.854
			C57.387,119.038,56.45,122.516,60.641,126.479z"/>
	</g>
</g>
</svg>
