<?xml version="1.0" encoding="utf-8"?>
<!-- Generator: Adobe Illustrator 12.0.0, SVG Export Plug-In . SVG Version: 6.00 Build 51448)  -->
<!DOCTYPE svg PUBLIC "-//W3C//DTD SVG 1.1//EN" "http://www.w3.org/Graphics/SVG/1.1/DTD/svg11.dtd" [
	<!ENTITY ns_flows "http://ns.adobe.com/Flows/1.0/">
	<!ENTITY ns_extend "http://ns.adobe.com/Extensibility/1.0/">
	<!ENTITY ns_ai "http://ns.adobe.com/AdobeIllustrator/10.0/">
	<!ENTITY ns_graphs "http://ns.adobe.com/Graphs/1.0/">
	<!ENTITY ns_vars "http://ns.adobe.com/Variables/1.0/">
	<!ENTITY ns_imrep "http://ns.adobe.com/ImageReplacement/1.0/">
	<!ENTITY ns_sfw "http://ns.adobe.com/SaveForWeb/1.0/">
	<!ENTITY ns_custom "http://ns.adobe.com/GenericCustomNamespace/1.0/">
	<!ENTITY ns_adobe_xpath "http://ns.adobe.com/XPath/1.0/">
	<!ENTITY ns_svg "http://www.w3.org/2000/svg">
	<!ENTITY ns_xlink "http://www.w3.org/1999/xlink">
]>
<svg  version="1.1"
	 xmlns:x="&ns_extend;" xmlns:i="&ns_ai;" xmlns:graph="&ns_graphs;" i:viewOrigin="89.8618 287.6421" i:rulerOrigin="-89 -137.1973" i:pageBounds="89 287.1973 189 137.1973"
	 xmlns="&ns_svg;" xmlns:xlink="&ns_xlink;" xmlns:a="http://ns.adobe.com/AdobeSVGViewerExtensions/3.0/"
	 width="98.098" height="150.087" viewBox="0 0 98.098 150.087" overflow="visible" enable-background="new 0 0 98.098 150.087"
	 xml:space="preserve">
<metadata>
	<variableSets  xmlns="http://ns.adobe.com/Variables/1.0/">
		<variableSet  locked="none" varSetName="binding1">
			<variables></variables>
			<v:sampleDataSets  xmlns:v="http://ns.adobe.com/Variables/1.0/" xmlns="http://ns.adobe.com/GenericCustomNamespace/1.0/">
				</v:sampleDataSets>
		</variableSet>
	</variableSets>
</metadata>
<g id="图层_1" i:knockout="Off" i:layer="yes" i:dimmedPercent="50" i:rgbTrio="#4F008000FFFF">
	<g i:knockout="Off">
		<path fill="#F7F7F7" stroke="#060506" stroke-width="0.0882" d="M98.054,143.263c0,3.743-3.015,6.78-6.725,6.78H6.769
			c-3.714,0-6.725-3.036-6.725-6.78V6.825c0-3.744,3.011-6.781,6.725-6.781h84.56c3.711,0,6.725,3.037,6.725,6.781L98.054,143.263
			L98.054,143.263z"/>
		<path fill="#060506" d="M11.984,31.667c-1.606-1.413-2.893-3.238-2.893-3.238s-1.286,1.826-2.89,3.238
			c-1.791,1.575-1.391,2.958-1.05,3.608c0.4,0.758,1.304,1.134,2.081,1.134c1.166,0,1.563-1.208,1.563-1.208s0.008,0.436-0.166,0.94
			c-0.335,0.964-0.784,1.317-0.784,1.317h2.491c0,0-0.448-0.353-0.783-1.317c-0.174-0.504-0.165-0.94-0.165-0.94
			s0.397,1.208,1.562,1.208c0.779,0,1.683-0.375,2.082-1.134C13.373,34.624,13.773,33.242,11.984,31.667z"/>
		<path fill="#060506" d="M86.115,119.91c1.604,1.411,2.894,3.235,2.894,3.235s1.285-1.824,2.891-3.235
			c1.79-1.574,1.391-2.961,1.05-3.607c-0.398-0.759-1.304-1.135-2.079-1.135c-1.164,0-1.562,1.208-1.562,1.208
			s-0.011-0.436,0.165-0.938c0.333-0.964,0.78-1.319,0.78-1.319h-2.491c0,0,0.448,0.355,0.784,1.319
			c0.176,0.504,0.165,0.938,0.165,0.938s-0.398-1.208-1.563-1.208c-0.773,0-1.679,0.376-2.079,1.135
			C84.725,116.95,84.325,118.335,86.115,119.91z"/>
		<g i:knockout="Off">
			<path fill="#060506" d="M5.07,15.921c0,4.898,1.324,7.179,4.167,7.179c3.181,0,3.877-3.579,3.877-4.957
				c0-1.819-0.813-5.258-3.891-5.258c-1.319,0-2.133,0.654-2.584,1.318c0.222-2.514,1.392-3.87,2.509-3.87
				c1.802,0,2.337,1.515,2.359,1.58l0.06,0.176l1.391-0.554l-0.055-0.16c-0.009-0.024-0.873-2.42-3.675-2.42
				C7.676,8.954,5.07,9.86,5.07,15.921z M6.673,18.049c0-2.412,1.158-3.673,2.301-3.673c1.734,0,2.729,1.367,2.729,3.75
				c0,1.643-0.632,3.561-2.414,3.561C7.36,21.686,6.673,19.807,6.673,18.049z"/>
		</g>
		<g i:knockout="Off">
			<path fill="#060506" d="M84.985,131.573c0,1.819,0.812,5.259,3.89,5.259c1.319,0,2.134-0.652,2.584-1.315
				c-0.223,2.514-1.393,3.871-2.508,3.871c-1.805,0-2.338-1.515-2.358-1.579l-0.061-0.177l-1.394,0.555l0.056,0.159
				c0.009,0.023,0.874,2.419,3.678,2.419c1.553,0,4.157-0.904,4.157-6.967c0-4.896-1.323-7.179-4.167-7.179
				C85.681,126.619,84.985,130.195,84.985,131.573z M86.395,131.59c0-1.642,0.632-3.56,2.414-3.56c1.929,0,2.616,1.878,2.616,3.636
				c0,2.411-1.156,3.672-2.299,3.672C87.391,135.339,86.395,133.973,86.395,131.59z"/>
		</g>
		<path fill="#060506" d="M37.449,23.482c-3.761-3.556-6.776-8.149-6.776-8.149s-3.015,4.594-6.775,8.149
			c-4.194,3.962-3.256,7.442-2.458,9.079c0.936,1.913,3.054,2.854,4.875,2.854c2.73,0,3.662-3.042,3.662-3.042
			s0.021,1.099-0.386,2.367c-0.785,2.427-1.837,3.313-1.837,3.313h5.837c0,0-1.05-0.886-1.833-3.313
			c-0.409-1.268-0.386-2.367-0.386-2.367s0.931,3.042,3.66,3.042c1.821,0,3.94-0.941,4.875-2.854
			C40.704,30.924,41.64,27.444,37.449,23.482z"/>
		<path fill="#060506" d="M23.897,126.387c3.76,3.556,6.776,8.148,6.776,8.148s3.014-4.594,6.774-8.148
			c4.195-3.964,3.257-7.443,2.459-9.08c-0.935-1.91-3.052-2.854-4.873-2.854c-2.731,0-3.664,3.041-3.664,3.041
			s-0.021-1.099,0.388-2.366c0.783-2.425,1.835-3.312,1.835-3.312h-5.837c0,0,1.049,0.889,1.834,3.312
			c0.408,1.269,0.385,2.366,0.385,2.366s-0.93-3.041-3.659-3.041c-1.822,0-3.94,0.944-4.876,2.854
			C20.642,118.944,19.706,122.423,23.897,126.387z"/>
		<path fill="#060506" d="M37.449,71.739c-3.76-3.555-6.776-8.15-6.776-8.15s-3.015,4.595-6.775,8.15
			c-4.192,3.964-3.255,7.445-2.457,9.082c0.935,1.91,3.053,2.854,4.874,2.854c2.729,0,3.661-3.045,3.661-3.045s0.022,1.1-0.386,2.37
			c-0.785,2.426-1.835,3.312-1.835,3.312h5.835c0,0-1.048-0.889-1.833-3.312c-0.409-1.271-0.386-2.37-0.386-2.37
			s0.931,3.045,3.661,3.045c1.821,0,3.939-0.944,4.875-2.854C40.704,79.184,41.64,75.704,37.449,71.739z"/>
		<path fill="#060506" d="M74.2,23.48c-3.758-3.554-6.775-8.149-6.775-8.149s-3.013,4.595-6.772,8.149
			c-4.194,3.964-3.257,7.446-2.459,9.083c0.937,1.91,3.055,2.854,4.873,2.854c2.729,0,3.661-3.044,3.661-3.044s0.024,1.1-0.386,2.37
			c-0.783,2.424-1.834,3.313-1.834,3.313h5.834c0,0-1.049-0.889-1.833-3.313c-0.408-1.27-0.385-2.37-0.385-2.37
			s0.931,3.044,3.658,3.044c1.821,0,3.941-0.945,4.876-2.854C77.456,30.926,78.391,27.444,74.2,23.48z"/>
		<path fill="#060506" d="M60.649,126.576c3.763,3.557,6.774,8.147,6.774,8.147s3.017-4.592,6.775-8.147
			c4.194-3.965,3.258-7.441,2.458-9.079c-0.937-1.912-3.051-2.854-4.874-2.854c-2.729,0-3.661,3.039-3.661,3.039
			s-0.021-1.098,0.387-2.367c0.784-2.425,1.836-3.313,1.836-3.313h-5.835c0,0,1.049,0.89,1.831,3.313
			c0.411,1.271,0.386,2.367,0.386,2.367s-0.929-3.039-3.659-3.039c-1.82,0-3.938,0.941-4.875,2.854
			C57.394,119.132,56.458,122.611,60.649,126.576z"/>
		<path fill="#060506" d="M74.202,71.928c-3.761-3.556-6.776-8.149-6.776-8.149s-3.015,4.593-6.774,8.149
			c-4.194,3.962-3.256,7.442-2.459,9.079c0.938,1.913,3.055,2.854,4.875,2.854c2.729,0,3.659-3.041,3.659-3.041
			s0.024,1.099-0.385,2.367c-0.783,2.427-1.834,3.312-1.834,3.312h5.833c0,0-1.048-0.887-1.831-3.312
			c-0.41-1.27-0.387-2.367-0.387-2.367s0.931,3.041,3.66,3.041c1.82,0,3.939-0.941,4.874-2.854
			C77.456,79.371,78.391,75.891,74.202,71.928z"/>
	</g>
</g>
</svg>
