<?xml version="1.0" encoding="utf-8"?>
<!-- Generator: Adobe Illustrator 12.0.0, SVG Export Plug-In . SVG Version: 6.00 Build 51448)  -->
<!DOCTYPE svg PUBLIC "-//W3C//DTD SVG 1.1//EN" "http://www.w3.org/Graphics/SVG/1.1/DTD/svg11.dtd" [
	<!ENTITY ns_flows "http://ns.adobe.com/Flows/1.0/">
	<!ENTITY ns_extend "http://ns.adobe.com/Extensibility/1.0/">
	<!ENTITY ns_ai "http://ns.adobe.com/AdobeIllustrator/10.0/">
	<!ENTITY ns_graphs "http://ns.adobe.com/Graphs/1.0/">
	<!ENTITY ns_vars "http://ns.adobe.com/Variables/1.0/">
	<!ENTITY ns_imrep "http://ns.adobe.com/ImageReplacement/1.0/">
	<!ENTITY ns_sfw "http://ns.adobe.com/SaveForWeb/1.0/">
	<!ENTITY ns_custom "http://ns.adobe.com/GenericCustomNamespace/1.0/">
	<!ENTITY ns_adobe_xpath "http://ns.adobe.com/XPath/1.0/">
	<!ENTITY ns_svg "http://www.w3.org/2000/svg">
	<!ENTITY ns_xlink "http://www.w3.org/1999/xlink">
]>
<svg  version="1.1"
	 xmlns:x="&ns_extend;" xmlns:i="&ns_ai;" xmlns:graph="&ns_graphs;" i:viewOrigin="89.8633 287.6421" i:rulerOrigin="-89 -137.1973" i:pageBounds="89 287.1973 189 137.1973"
	 xmlns="&ns_svg;" xmlns:xlink="&ns_xlink;" xmlns:a="http://ns.adobe.com/AdobeSVGViewerExtensions/3.0/"
	 width="98.098" height="150.087" viewBox="0 0 98.098 150.087" overflow="visible" enable-background="new 0 0 98.098 150.087"
	 xml:space="preserve">
<metadata>
	<variableSets  xmlns="http://ns.adobe.com/Variables/1.0/">
		<variableSet  locked="none" varSetName="binding1">
			<variables></variables>
			<v:sampleDataSets  xmlns:v="http://ns.adobe.com/Variables/1.0/" xmlns="http://ns.adobe.com/GenericCustomNamespace/1.0/">
				</v:sampleDataSets>
		</variableSet>
	</variableSets>
</metadata>
<g id="图层_1" i:knockout="Off" i:layer="yes" i:dimmedPercent="50" i:rgbTrio="#4F008000FFFF">
	<g i:knockout="Off">
		<path fill="#F7F7F7" stroke="#060506" stroke-width="0.0882" d="M98.054,143.263c0,3.743-3.015,6.78-6.727,6.78H6.77
			c-3.715,0-6.726-3.036-6.726-6.78V6.825c0-3.744,3.011-6.781,6.726-6.781h84.558c3.712,0,6.727,3.037,6.727,6.781V143.263
			L98.054,143.263z"/>
		<path fill="#060506" d="M11.985,31.667c-1.606-1.413-2.892-3.239-2.892-3.239s-1.287,1.826-2.892,3.239
			c-1.789,1.575-1.389,2.957-1.049,3.607c0.399,0.759,1.302,1.134,2.081,1.134c1.166,0,1.562-1.208,1.562-1.208
			s0.009,0.436-0.165,0.94c-0.335,0.964-0.785,1.317-0.785,1.317h2.492c0,0-0.448-0.353-0.782-1.317
			C9.38,35.636,9.389,35.2,9.389,35.2s0.397,1.208,1.562,1.208c0.778,0,1.682-0.375,2.08-1.134
			C13.375,34.624,13.774,33.242,11.985,31.667z"/>
		<path fill="#060506" d="M86.115,119.909c1.604,1.412,2.892,3.236,2.892,3.236s1.286-1.824,2.891-3.236
			c1.79-1.574,1.391-2.959,1.05-3.606c-0.398-0.759-1.304-1.136-2.078-1.136c-1.166,0-1.564,1.209-1.564,1.209
			s-0.009-0.436,0.167-0.939c0.333-0.963,0.781-1.318,0.781-1.318h-2.489c0,0,0.446,0.355,0.781,1.318
			c0.176,0.505,0.165,0.939,0.165,0.939s-0.398-1.209-1.563-1.209c-0.774,0-1.681,0.376-2.08,1.136
			C84.727,116.95,84.326,118.334,86.115,119.909z"/>
		<g i:knockout="Off">
			<path fill="#060506" d="M5.059,8.954v2.898H6.45c0,0,0-1.151,0-1.422c0.308,0,4.297,0,4.89,0
				c-1.218,1.559-2.215,3.333-2.952,5.294c-0.696,1.785-1.245,3.91-1.629,6.313l-0.033,0.204h1.69l0.021-0.151
				c0.338-2.391,0.85-4.495,1.521-6.255c0.768-2.007,1.82-3.838,3.129-5.439l0.04-0.049V8.954H5.059z"/>
		</g>
		<g i:knockout="Off">
			<path fill="#060506" d="M89.684,126.619l-0.021,0.152c-0.336,2.378-0.849,4.481-1.521,6.254
				c-0.767,2.006-1.817,3.837-3.128,5.443l-0.04,0.049v1.391h8.068v-2.897h-1.393c0,0,0,1.15,0,1.422c-0.309,0-4.297,0-4.889,0
				c1.215-1.558,2.212-3.33,2.95-5.292c0.697-1.785,1.246-3.91,1.631-6.315l0.032-0.205L89.684,126.619L89.684,126.619z"/>
		</g>
		<path fill="#060506" d="M23.898,126.385c3.758,3.557,6.776,8.147,6.776,8.147s3.015-4.592,6.773-8.147
			c4.197-3.964,3.256-7.444,2.459-9.08c-0.935-1.909-3.053-2.854-4.873-2.854c-2.73,0-3.663,3.041-3.663,3.041
			s-0.024-1.099,0.388-2.367c0.782-2.424,1.834-3.312,1.834-3.312h-5.836c0,0,1.051,0.89,1.833,3.312
			c0.408,1.27,0.384,2.367,0.384,2.367s-0.93-3.041-3.658-3.041c-1.822,0-3.939,0.945-4.877,2.854
			C20.642,118.941,19.706,122.422,23.898,126.385z"/>
		<path fill="#060506" d="M60.648,126.575c3.763,3.556,6.775,8.146,6.775,8.146s3.017-4.592,6.775-8.146
			c4.195-3.965,3.257-7.443,2.46-9.081c-0.938-1.912-3.055-2.854-4.878-2.854c-2.727,0-3.658,3.039-3.658,3.039
			s-0.021-1.098,0.386-2.367c0.783-2.424,1.835-3.314,1.835-3.314h-5.836c0,0,1.05,0.891,1.833,3.314
			c0.409,1.271,0.386,2.367,0.386,2.367s-0.929-3.039-3.659-3.039c-1.821,0-3.938,0.94-4.874,2.854
			C57.395,119.131,56.456,122.61,60.648,126.575z"/>
		<path fill="#060506" d="M55.825,47.702c-3.761-3.554-6.776-8.149-6.776-8.149s-3.017,4.595-6.774,8.149
			c-4.193,3.964-3.255,7.446-2.458,9.082c0.938,1.91,3.053,2.854,4.874,2.854c2.728,0,3.66-3.043,3.66-3.043
			s0.023,1.099-0.387,2.368c-0.782,2.425-1.833,3.313-1.833,3.313h5.835c0,0-1.048-0.889-1.833-3.313
			c-0.409-1.27-0.384-2.368-0.384-2.368s0.93,3.043,3.66,3.043c1.817,0,3.939-0.945,4.873-2.854
			C59.08,55.148,60.018,51.667,55.825,47.702z"/>
		<path fill="#060506" d="M37.45,23.481c-3.759-3.556-6.776-8.149-6.776-8.149s-3.015,4.593-6.776,8.149
			c-4.191,3.962-3.255,7.444-2.455,9.08c0.934,1.913,3.052,2.855,4.873,2.855c2.728,0,3.66-3.042,3.66-3.042
			s0.022,1.099-0.386,2.366c-0.783,2.428-1.836,3.315-1.836,3.315h5.838c0,0-1.051-0.887-1.832-3.315
			c-0.412-1.267-0.385-2.366-0.385-2.366s0.929,3.042,3.657,3.042c1.822,0,3.94-0.943,4.877-2.855
			C40.704,30.925,41.643,27.444,37.45,23.481z"/>
		<path fill="#060506" d="M37.45,71.737c-3.759-3.554-6.776-8.149-6.776-8.149s-3.015,4.595-6.776,8.149
			c-4.191,3.964-3.253,7.445-2.455,9.083c0.935,1.909,3.052,2.854,4.874,2.854c2.727,0,3.659-3.043,3.659-3.043
			s0.022,1.1-0.386,2.369c-0.783,2.424-1.833,3.313-1.833,3.313h5.834c0,0-1.049-0.891-1.832-3.313
			c-0.412-1.271-0.385-2.369-0.385-2.369s0.929,3.043,3.659,3.043c1.819,0,3.94-0.943,4.875-2.854
			C40.704,79.18,41.643,75.701,37.45,71.737z"/>
		<path fill="#060506" d="M74.201,23.48c-3.76-3.554-6.777-8.149-6.777-8.149s-3.014,4.595-6.771,8.149
			c-4.195,3.965-3.257,7.445-2.459,9.082c0.937,1.91,3.053,2.854,4.873,2.854c2.729,0,3.661-3.043,3.661-3.043s0.021,1.1-0.387,2.37
			c-0.783,2.425-1.833,3.314-1.833,3.314h5.835c0,0-1.05-0.889-1.835-3.314c-0.408-1.27-0.384-2.37-0.384-2.37
			s0.931,3.043,3.657,3.043c1.82,0,3.942-0.945,4.878-2.854C77.456,30.925,78.393,27.445,74.201,23.48z"/>
		<path fill="#060506" d="M74.203,71.925c-3.762-3.556-6.776-8.149-6.776-8.149s-3.015,4.593-6.772,8.149
			c-4.196,3.963-3.259,7.443-2.461,9.079c0.937,1.913,3.053,2.855,4.873,2.855c2.73,0,3.661-3.041,3.661-3.041
			s0.021,1.099-0.385,2.366c-0.784,2.427-1.835,3.313-1.835,3.313h5.835c0,0-1.05-0.888-1.832-3.313
			c-0.411-1.269-0.387-2.366-0.387-2.366s0.931,3.041,3.657,3.041c1.823,0,3.942-0.942,4.878-2.855
			C77.456,79.369,78.393,75.888,74.203,71.925z"/>
	</g>
</g>
</svg>
