<?xml version="1.0" encoding="utf-8"?>
<!-- Generator: Adobe Illustrator 12.0.0, SVG Export Plug-In . SVG Version: 6.00 Build 51448)  -->
<!DOCTYPE svg PUBLIC "-//W3C//DTD SVG 1.1//EN" "http://www.w3.org/Graphics/SVG/1.1/DTD/svg11.dtd" [
	<!ENTITY ns_flows "http://ns.adobe.com/Flows/1.0/">
	<!ENTITY ns_extend "http://ns.adobe.com/Extensibility/1.0/">
	<!ENTITY ns_ai "http://ns.adobe.com/AdobeIllustrator/10.0/">
	<!ENTITY ns_graphs "http://ns.adobe.com/Graphs/1.0/">
	<!ENTITY ns_vars "http://ns.adobe.com/Variables/1.0/">
	<!ENTITY ns_imrep "http://ns.adobe.com/ImageReplacement/1.0/">
	<!ENTITY ns_sfw "http://ns.adobe.com/SaveForWeb/1.0/">
	<!ENTITY ns_custom "http://ns.adobe.com/GenericCustomNamespace/1.0/">
	<!ENTITY ns_adobe_xpath "http://ns.adobe.com/XPath/1.0/">
	<!ENTITY ns_svg "http://www.w3.org/2000/svg">
	<!ENTITY ns_xlink "http://www.w3.org/1999/xlink">
]>
<svg  version="1.1"
	 xmlns:x="&ns_extend;" xmlns:i="&ns_ai;" xmlns:graph="&ns_graphs;" i:viewOrigin="89.8633 287.6421" i:rulerOrigin="-89 -137.1973" i:pageBounds="89 287.1973 189 137.1973"
	 xmlns="&ns_svg;" xmlns:xlink="&ns_xlink;" xmlns:a="http://ns.adobe.com/AdobeSVGViewerExtensions/3.0/"
	 width="98.099" height="150.087" viewBox="0 0 98.099 150.087" overflow="visible" enable-background="new 0 0 98.099 150.087"
	 xml:space="preserve">
<metadata>
	<variableSets  xmlns="http://ns.adobe.com/Variables/1.0/">
		<variableSet  locked="none" varSetName="binding1">
			<variables></variables>
			<v:sampleDataSets  xmlns:v="http://ns.adobe.com/Variables/1.0/" xmlns="http://ns.adobe.com/GenericCustomNamespace/1.0/">
				</v:sampleDataSets>
		</variableSet>
	</variableSets>
</metadata>
<g id="图层_1" i:knockout="Off" i:layer="yes" i:dimmedPercent="50" i:rgbTrio="#4F008000FFFF">
	<g i:knockout="Off">
		<path fill="#F7F7F7" stroke="#060506" stroke-width="0.0882" d="M98.054,143.263c0,3.743-3.014,6.78-6.727,6.78H6.771
			c-3.716,0-6.727-3.036-6.727-6.78V6.825c0-3.744,3.011-6.781,6.727-6.781h84.558c3.713,0,6.727,3.037,6.727,6.781L98.054,143.263
			L98.054,143.263z"/>
		<path fill="#060506" d="M11.983,31.667c-1.604-1.413-2.89-3.238-2.89-3.238s-1.287,1.826-2.892,3.238
			c-1.791,1.575-1.392,2.957-1.05,3.607c0.399,0.759,1.304,1.134,2.082,1.134c1.166,0,1.561-1.208,1.561-1.208
			s0.01,0.436-0.164,0.94c-0.334,0.964-0.783,1.317-0.783,1.317h2.491c0,0-0.449-0.353-0.783-1.317C9.38,35.636,9.39,35.2,9.39,35.2
			s0.397,1.208,1.562,1.208c0.776,0,1.682-0.375,2.08-1.134C13.372,34.624,13.773,33.242,11.983,31.667z"/>
		<path fill="#060506" d="M86.114,119.91c1.604,1.411,2.894,3.235,2.894,3.235s1.285-1.824,2.891-3.235
			c1.79-1.575,1.39-2.961,1.049-3.607c-0.398-0.759-1.304-1.135-2.079-1.135c-1.163,0-1.562,1.208-1.562,1.208
			s-0.012-0.436,0.163-0.938c0.335-0.964,0.782-1.319,0.782-1.319h-2.491c0,0,0.448,0.355,0.784,1.319
			c0.175,0.504,0.164,0.938,0.164,0.938s-0.396-1.208-1.562-1.208c-0.776,0-1.681,0.375-2.08,1.135
			C84.726,116.95,84.323,118.334,86.114,119.91z"/>
		<g i:knockout="Off">
			<path fill="#060506" d="M6.371,9.958L6.371,9.958c-0.678,0.667-1.021,1.551-1.021,2.627l0,0c0,0.667,0.156,1.251,0.465,1.737
				c0.264,0.419,0.667,0.771,1.169,1.089c-0.613,0.297-1.13,0.698-1.496,1.242c-0.395,0.639-0.594,1.38-0.594,2.209
				c0,1.25,0.386,2.271,1.146,3.036c0.761,0.779,1.791,1.174,3.06,1.174c1.249,0,2.267-0.395,3.026-1.176
				c0.771-0.765,1.164-1.787,1.164-3.035c0-0.832-0.216-1.575-0.644-2.209c-0.367-0.544-0.879-0.945-1.484-1.242
				c0.493-0.318,0.898-0.676,1.158-1.089c0.319-0.479,0.482-1.064,0.482-1.737c0-1.078-0.35-1.962-1.039-2.627
				c-0.689-0.666-1.59-1.003-2.679-1.003C7.972,8.954,7.059,9.292,6.371,9.958z M7.521,14.212L7.521,14.212
				c-0.369-0.389-0.556-0.921-0.556-1.583c0-0.712,0.193-1.283,0.575-1.697c0.395-0.401,0.898-0.598,1.536-0.598
				c0.626,0,1.124,0.197,1.521,0.602c0.389,0.411,0.588,0.981,0.588,1.693c0,0.67-0.186,1.187-0.57,1.58
				c-0.386,0.407-0.889,0.603-1.539,0.603C8.414,14.813,7.906,14.616,7.521,14.212z M7.269,20.91L7.269,20.91
				c-0.508-0.542-0.755-1.198-0.755-2.007c0-0.868,0.235-1.547,0.698-2.02c0.453-0.467,1.067-0.693,1.88-0.693
				c0.79,0,1.399,0.228,1.864,0.694c0.481,0.47,0.714,1.093,0.714,1.908c0,0.86-0.254,1.566-0.756,2.1
				c-0.487,0.531-1.101,0.799-1.823,0.799C8.356,21.691,7.76,21.436,7.269,20.91z"/>
		</g>
		<g i:knockout="Off">
			<path fill="#060506" d="M85.97,127.792c-0.772,0.77-1.164,1.79-1.164,3.038l0,0c0,0.829,0.217,1.571,0.643,2.209
				c0.367,0.544,0.882,0.943,1.484,1.24c-0.492,0.319-0.896,0.678-1.155,1.089c-0.318,0.48-0.481,1.066-0.481,1.736
				c0,1.078,0.349,1.963,1.038,2.629c0.69,0.666,1.593,1.003,2.678,1.003c1.113,0,2.027-0.338,2.716-1.003
				c0.679-0.668,1.021-1.552,1.021-2.629c0-0.668-0.157-1.252-0.468-1.737c-0.26-0.412-0.669-0.771-1.17-1.088
				c0.614-0.297,1.134-0.697,1.498-1.239c0.396-0.642,0.595-1.383,0.595-2.21c0-1.252-0.387-2.272-1.146-3.038
				c-0.761-0.777-1.791-1.173-3.062-1.173C87.747,126.619,86.729,127.013,85.97,127.792z M87.138,132.807L87.138,132.807
				c-0.479-0.474-0.713-1.098-0.713-1.91c0-0.854,0.254-1.562,0.757-2.097c0.494-0.54,1.09-0.802,1.823-0.802
				s1.331,0.255,1.823,0.78c0.508,0.544,0.756,1.2,0.756,2.007c0,0.869-0.235,1.55-0.699,2.021c-0.446,0.459-1.078,0.69-1.879,0.69
				C88.217,133.5,87.606,133.273,87.138,132.807z M86.911,137.061L86.911,137.061c0-0.66,0.19-1.192,0.568-1.58
				c0.389-0.405,0.893-0.603,1.54-0.603c0.663,0,1.171,0.196,1.554,0.601c0.369,0.388,0.557,0.92,0.557,1.582
				c0,0.714-0.193,1.284-0.574,1.696c-0.394,0.402-0.896,0.601-1.535,0.601c-0.619,0-1.13-0.203-1.518-0.604
				C87.11,138.341,86.911,137.773,86.911,137.061z"/>
		</g>
		<path fill="#060506" d="M23.896,126.384c3.761,3.557,6.777,8.148,6.777,8.148s3.015-4.593,6.775-8.148
			c4.195-3.964,3.255-7.443,2.458-9.08c-0.934-1.909-3.054-2.854-4.873-2.854c-2.731,0-3.663,3.041-3.663,3.041
			s-0.023-1.099,0.386-2.367c0.784-2.425,1.837-3.313,1.837-3.313h-5.838c0,0,1.049,0.89,1.833,3.313
			c0.408,1.27,0.385,2.367,0.385,2.367s-0.931-3.041-3.659-3.041c-1.822,0-3.94,0.944-4.876,2.854
			C20.642,118.941,19.705,122.42,23.896,126.384z"/>
		<path fill="#060506" d="M60.647,126.574c3.764,3.556,6.775,8.147,6.775,8.147s3.017-4.593,6.774-8.147
			c4.196-3.965,3.257-7.442,2.461-9.08c-0.938-1.912-3.056-2.854-4.875-2.854c-2.73,0-3.661,3.039-3.661,3.039
			s-0.022-1.098,0.386-2.367c0.782-2.424,1.837-3.313,1.837-3.313h-5.838c0,0,1.049,0.891,1.832,3.313
			c0.409,1.271,0.386,2.367,0.386,2.367s-0.93-3.039-3.656-3.039c-1.821,0-3.94,0.941-4.876,2.854
			C57.393,119.131,56.455,122.609,60.647,126.574z"/>
		<path fill="#060506" d="M55.823,47.702c-3.76-3.554-6.776-8.149-6.776-8.149s-3.015,4.595-6.771,8.149
			c-4.196,3.964-3.256,7.444-2.459,9.082c0.937,1.91,3.052,2.854,4.875,2.854c2.727,0,3.661-3.042,3.661-3.042
			s0.022,1.099-0.389,2.368c-0.783,2.425-1.833,3.314-1.833,3.314h5.836c0,0-1.047-0.889-1.834-3.314
			c-0.408-1.27-0.385-2.368-0.385-2.368s0.932,3.042,3.663,3.042c1.818,0,3.938-0.944,4.874-2.854
			C59.079,55.146,60.018,51.667,55.823,47.702z"/>
		<path fill="#060506" d="M37.449,23.481c-3.759-3.556-6.776-8.149-6.776-8.149s-3.016,4.593-6.774,8.149
			c-4.194,3.962-3.257,7.443-2.458,9.08c0.934,1.913,3.052,2.854,4.872,2.854c2.731,0,3.663-3.041,3.663-3.041
			s0.021,1.099-0.387,2.366c-0.784,2.428-1.835,3.315-1.835,3.315h5.836c0,0-1.049-0.887-1.833-3.315
			c-0.409-1.267-0.385-2.366-0.385-2.366s0.93,3.04,3.658,3.04c1.823,0,3.942-0.941,4.877-2.854
			C40.703,30.924,41.642,27.444,37.449,23.481z"/>
		<path fill="#060506" d="M37.449,71.737c-3.759-3.554-6.776-8.15-6.776-8.15s-3.016,4.595-6.774,8.15
			c-4.194,3.964-3.256,7.445-2.458,9.083c0.938,1.909,3.052,2.854,4.875,2.854c2.728,0,3.66-3.044,3.66-3.044
			s0.021,1.101-0.387,2.37c-0.784,2.424-1.833,3.313-1.833,3.313h5.835c0,0-1.049-0.891-1.833-3.313
			c-0.409-1.271-0.385-2.37-0.385-2.37s0.93,3.044,3.662,3.044c1.819,0,3.938-0.943,4.874-2.854
			C40.703,79.18,41.642,75.701,37.449,71.737z"/>
		<path fill="#060506" d="M74.198,23.48c-3.758-3.553-6.774-8.149-6.774-8.149s-3.013,4.595-6.773,8.149
			c-4.193,3.965-3.254,7.445-2.457,9.083c0.938,1.909,3.055,2.854,4.876,2.854c2.728,0,3.659-3.043,3.659-3.043
			s0.021,1.099-0.389,2.369c-0.783,2.425-1.833,3.314-1.833,3.314h5.835c0,0-1.048-0.889-1.833-3.314
			c-0.409-1.27-0.386-2.369-0.386-2.369s0.931,3.043,3.661,3.043c1.817,0,3.939-0.945,4.874-2.854
			C77.454,30.925,78.392,27.445,74.198,23.48z"/>
		<path fill="#060506" d="M74.201,71.925c-3.762-3.556-6.774-8.149-6.774-8.149s-3.017,4.593-6.774,8.149
			c-4.196,3.963-3.257,7.443-2.46,9.079c0.938,1.913,3.055,2.855,4.876,2.855c2.728,0,3.659-3.041,3.659-3.041
			s0.021,1.099-0.386,2.366c-0.783,2.427-1.836,3.313-1.836,3.313h5.835c0,0-1.048-0.888-1.831-3.313
			c-0.411-1.269-0.388-2.366-0.388-2.366s0.931,3.041,3.661,3.041c1.819,0,3.939-0.942,4.873-2.855
			C77.454,79.369,78.392,75.888,74.201,71.925z"/>
		<path fill="#060506" d="M55.823,102.384c-3.76,3.554-6.776,8.148-6.776,8.148s-3.015-4.596-6.771-8.148
			c-4.196-3.966-3.256-7.444-2.459-9.084c0.937-1.908,3.052-2.854,4.875-2.854c2.727,0,3.661,3.043,3.661,3.043
			s0.022-1.099-0.389-2.369c-0.783-2.424-1.833-3.312-1.833-3.312h5.836c0,0-1.047,0.89-1.834,3.312
			c-0.408,1.271-0.385,2.369-0.385,2.369s0.932-3.043,3.663-3.043c1.818,0,3.938,0.944,4.874,2.854
			C59.079,94.94,60.018,98.419,55.823,102.384z"/>
	</g>
</g>
</svg>
