<?xml version="1.0" encoding="utf-8"?>
<!-- Generator: Adobe Illustrator 12.0.0, SVG Export Plug-In . SVG Version: 6.00 Build 51448)  -->
<!DOCTYPE svg PUBLIC "-//W3C//DTD SVG 1.1//EN" "http://www.w3.org/Graphics/SVG/1.1/DTD/svg11.dtd" [
	<!ENTITY ns_flows "http://ns.adobe.com/Flows/1.0/">
	<!ENTITY ns_extend "http://ns.adobe.com/Extensibility/1.0/">
	<!ENTITY ns_ai "http://ns.adobe.com/AdobeIllustrator/10.0/">
	<!ENTITY ns_graphs "http://ns.adobe.com/Graphs/1.0/">
	<!ENTITY ns_vars "http://ns.adobe.com/Variables/1.0/">
	<!ENTITY ns_imrep "http://ns.adobe.com/ImageReplacement/1.0/">
	<!ENTITY ns_sfw "http://ns.adobe.com/SaveForWeb/1.0/">
	<!ENTITY ns_custom "http://ns.adobe.com/GenericCustomNamespace/1.0/">
	<!ENTITY ns_adobe_xpath "http://ns.adobe.com/XPath/1.0/">
	<!ENTITY ns_svg "http://www.w3.org/2000/svg">
	<!ENTITY ns_xlink "http://www.w3.org/1999/xlink">
]>
<svg  version="1.1"
	 xmlns:x="&ns_extend;" xmlns:i="&ns_ai;" xmlns:graph="&ns_graphs;" i:viewOrigin="89.8633 287.6421" i:rulerOrigin="-89 -137.1973" i:pageBounds="89 287.1973 189 137.1973"
	 xmlns="&ns_svg;" xmlns:xlink="&ns_xlink;" xmlns:a="http://ns.adobe.com/AdobeSVGViewerExtensions/3.0/"
	 width="98.097" height="150.087" viewBox="0 0 98.097 150.087" overflow="visible" enable-background="new 0 0 98.097 150.087"
	 xml:space="preserve">
<metadata>
	<variableSets  xmlns="http://ns.adobe.com/Variables/1.0/">
		<variableSet  locked="none" varSetName="binding1">
			<variables></variables>
			<v:sampleDataSets  xmlns:v="http://ns.adobe.com/Variables/1.0/" xmlns="http://ns.adobe.com/GenericCustomNamespace/1.0/">
				</v:sampleDataSets>
		</variableSet>
	</variableSets>
</metadata>
<g id="图层_1" i:knockout="Off" i:layer="yes" i:dimmedPercent="50" i:rgbTrio="#4F008000FFFF">
	<g i:knockout="Off">
		<path fill="#F7F7F7" stroke="#060506" stroke-width="0.0882" d="M98.053,143.263c0,3.743-3.015,6.78-6.726,6.78H6.769
			c-3.714,0-6.725-3.036-6.725-6.78V6.825c0-3.744,3.011-6.781,6.725-6.781h84.559c3.712,0,6.726,3.037,6.726,6.781V143.263
			L98.053,143.263z"/>
		<path fill="#060506" d="M11.984,31.667c-1.606-1.413-2.892-3.238-2.892-3.238s-1.287,1.826-2.893,3.238
			C4.41,33.242,4.81,34.625,5.15,35.275c0.399,0.758,1.303,1.134,2.081,1.134c1.166,0,1.563-1.208,1.563-1.208
			s0.007,0.436-0.166,0.94c-0.334,0.964-0.785,1.317-0.785,1.317h2.493c0,0-0.448-0.353-0.783-1.317
			c-0.173-0.504-0.165-0.94-0.165-0.94s0.396,1.208,1.561,1.208c0.779,0,1.683-0.375,2.082-1.134
			C13.373,34.624,13.773,33.242,11.984,31.667z"/>
		<path fill="#060506" d="M86.113,119.91c1.604,1.411,2.894,3.235,2.894,3.235s1.285-1.824,2.891-3.235
			c1.79-1.574,1.39-2.961,1.049-3.607c-0.397-0.759-1.303-1.135-2.078-1.135c-1.165,0-1.563,1.208-1.563,1.208
			s-0.01-0.436,0.165-0.938c0.334-0.964,0.782-1.319,0.782-1.319h-2.489c0,0,0.447,0.355,0.782,1.319
			c0.174,0.504,0.164,0.938,0.164,0.938s-0.397-1.208-1.563-1.208c-0.774,0-1.68,0.376-2.08,1.135
			C84.724,116.95,84.323,118.335,86.113,119.91z"/>
		<g i:knockout="Off">
			<path fill="#060506" d="M5.069,13.909c0,1.235,0.261,5.267,3.623,5.267c1.336,0,2.336-0.698,2.866-1.41
				c-0.169,2.548-1.175,3.951-2.891,3.951c-0.566,0-1.029-0.189-1.415-0.578C7,20.882,6.807,20.546,6.68,20.141l-0.057-0.182
				l-1.397,0.559l0.054,0.159c0.191,0.558,0.494,1.042,0.898,1.438c0.653,0.653,1.465,0.984,2.41,0.984
				c2.065,0,4.527-1.209,4.527-6.968c0-4.546-0.682-7.178-4.166-7.178C5.446,8.954,5.069,12.42,5.069,13.909z M6.482,13.924
				c0-1.642,0.632-3.559,2.413-3.559c1.76,0,2.616,1.262,2.616,3.858c0,2.543-1.627,3.49-2.653,3.49
				C6.79,17.713,6.482,15.34,6.482,13.924z"/>
		</g>
		<g i:knockout="Off">
			<path fill="#060506" d="M84.981,133.586c0,4.546,0.683,7.179,4.167,7.179c3.501,0,3.879-3.465,3.879-4.955
				c0-1.235-0.262-5.268-3.624-5.268c-1.337,0-2.336,0.696-2.864,1.408c0.169-2.549,1.174-3.952,2.892-3.952
				c0.559,0,1.034,0.195,1.415,0.58c0.253,0.258,0.446,0.594,0.573,0.995l0.057,0.181l1.396-0.555l-0.055-0.159
				c-0.191-0.56-0.494-1.044-0.897-1.439c-0.651-0.65-1.463-0.981-2.408-0.981C87.444,126.619,84.981,127.828,84.981,133.586z
				 M86.585,135.493c0-2.543,1.628-3.49,2.653-3.49c2.065,0,2.374,2.374,2.374,3.788c0,1.644-0.632,3.561-2.411,3.561
				C87.44,139.35,86.585,138.088,86.585,135.493z"/>
		</g>
		<path fill="#060506" d="M55.823,71.831c-3.759-3.554-6.775-8.149-6.775-8.149s-3.017,4.595-6.774,8.149
			c-4.194,3.966-3.255,7.444-2.458,9.083c0.935,1.909,3.052,2.854,4.874,2.854c2.728,0,3.661-3.043,3.661-3.043
			s0.022,1.099-0.388,2.369c-0.783,2.424-1.833,3.313-1.833,3.313h5.833c0,0-1.047-0.89-1.832-3.313
			c-0.41-1.271-0.386-2.369-0.386-2.369s0.931,3.043,3.66,3.043c1.82,0,3.941-0.944,4.874-2.854
			C59.08,79.275,60.016,75.797,55.823,71.831z"/>
		<path fill="#060506" d="M23.896,126.387c3.759,3.556,6.776,8.146,6.776,8.146s3.015-4.591,6.773-8.146
			c4.197-3.966,3.256-7.443,2.458-9.08c-0.934-1.911-3.052-2.854-4.872-2.854c-2.73,0-3.664,3.039-3.664,3.039
			s-0.021-1.097,0.39-2.367c0.782-2.424,1.834-3.312,1.834-3.312h-5.835c0,0,1.05,0.89,1.833,3.312
			c0.408,1.271,0.384,2.367,0.384,2.367s-0.93-3.039-3.657-3.039c-1.823,0-3.94,0.943-4.877,2.854
			C20.641,118.944,19.703,122.422,23.896,126.387z"/>
		<path fill="#060506" d="M60.646,126.574c3.763,3.556,6.775,8.149,6.775,8.149s3.015-4.594,6.775-8.149
			c4.195-3.963,3.257-7.442,2.461-9.08c-0.938-1.909-3.055-2.854-4.878-2.854c-2.729,0-3.659,3.041-3.659,3.041
			s-0.021-1.101,0.386-2.367c0.781-2.425,1.835-3.313,1.835-3.313h-5.836c0,0,1.05,0.89,1.833,3.313
			c0.41,1.268,0.384,2.367,0.384,2.367s-0.927-3.041-3.658-3.041c-1.821,0-3.938,0.943-4.873,2.854
			C57.392,119.131,56.455,122.611,60.646,126.574z"/>
		<path fill="#060506" d="M37.449,23.482c-3.759-3.556-6.777-8.149-6.777-8.149s-3.015,4.594-6.776,8.149
			c-4.192,3.962-3.254,7.442-2.454,9.08c0.933,1.913,3.051,2.854,4.871,2.854c2.73,0,3.662-3.042,3.662-3.042
			s0.022,1.099-0.386,2.367c-0.783,2.427-1.836,3.313-1.836,3.313h5.836c0,0-1.048-0.886-1.831-3.313
			c-0.411-1.268-0.387-2.367-0.387-2.367s0.932,3.042,3.659,3.042c1.822,0,3.94-0.941,4.878-2.854
			C40.701,30.924,41.639,27.444,37.449,23.482z"/>
		<path fill="#060506" d="M74.198,23.48c-3.758-3.554-6.775-8.149-6.775-8.149s-3.014,4.595-6.772,8.149
			c-4.193,3.964-3.256,7.446-2.458,9.083c0.936,1.91,3.052,2.854,4.872,2.854c2.729,0,3.663-3.044,3.663-3.044s0.022,1.1-0.388,2.37
			c-0.783,2.424-1.834,3.313-1.834,3.313h5.833c0,0-1.047-0.889-1.832-3.313c-0.41-1.27-0.384-2.37-0.384-2.37
			s0.931,3.044,3.658,3.044c1.819,0,3.94-0.945,4.877-2.854C77.454,30.926,78.39,27.444,74.198,23.48z"/>
		<path fill="#060506" d="M37.449,54.041c-3.759-3.554-6.777-8.149-6.777-8.149s-3.015,4.596-6.776,8.149
			c-4.193,3.965-3.253,7.445-2.454,9.082c0.934,1.91,3.051,2.854,4.874,2.854c2.727,0,3.658-3.044,3.658-3.044
			s0.022,1.101-0.386,2.37c-0.783,2.424-1.833,3.314-1.833,3.314h5.833c0,0-1.047-0.89-1.831-3.314
			c-0.412-1.27-0.388-2.37-0.388-2.37s0.932,3.044,3.662,3.044c1.82,0,3.94-0.945,4.875-2.854
			C40.701,61.486,41.639,58.006,37.449,54.041z"/>
		<path fill="#060506" d="M74.201,54.231c-3.762-3.556-6.777-8.15-6.777-8.15s-3.014,4.594-6.771,8.15
			c-4.196,3.962-3.259,7.442-2.461,9.08c0.936,1.912,3.052,2.854,4.872,2.854c2.731,0,3.663-3.042,3.663-3.042
			s0.022,1.1-0.387,2.368c-0.783,2.427-1.835,3.313-1.835,3.313h5.833c0,0-1.047-0.886-1.83-3.313
			c-0.412-1.268-0.387-2.368-0.387-2.368s0.931,3.042,3.659,3.042c1.822,0,3.939-0.942,4.876-2.854
			C77.454,61.673,78.39,58.193,74.201,54.231z"/>
		<path fill="#060506" d="M37.449,93.327c-3.759,3.555-6.777,8.15-6.777,8.15s-3.015-4.597-6.776-8.15
			c-4.193-3.964-3.253-7.442-2.454-9.082c0.934-1.909,3.051-2.854,4.874-2.854c2.727,0,3.658,3.044,3.658,3.044
			s0.022-1.101-0.386-2.37c-0.783-2.425-1.833-3.313-1.833-3.313h5.833c0,0-1.047,0.89-1.831,3.313
			c-0.412,1.271-0.388,2.37-0.388,2.37s0.932-3.044,3.662-3.044c1.82,0,3.94,0.943,4.875,2.854
			C40.701,85.882,41.639,89.363,37.449,93.327z"/>
		<path fill="#060506" d="M74.201,93.138c-3.762,3.557-6.777,8.148-6.777,8.148s-3.014-4.593-6.771-8.148
			c-4.196-3.964-3.259-7.442-2.461-9.08c0.936-1.911,3.052-2.854,4.872-2.854c2.731,0,3.663,3.041,3.663,3.041
			s0.022-1.098-0.387-2.366c-0.783-2.427-1.835-3.312-1.835-3.312h5.833c0,0-1.047,0.887-1.83,3.312
			c-0.412,1.27-0.387,2.366-0.387,2.366s0.931-3.041,3.659-3.041c1.822,0,3.939,0.943,4.876,2.854
			C77.454,85.696,78.39,89.174,74.201,93.138z"/>
	</g>
</g>
</svg>
