<?xml version="1.0" encoding="utf-8"?>
<!-- Generator: Adobe Illustrator 12.0.0, SVG Export Plug-In . SVG Version: 6.00 Build 51448)  -->
<!DOCTYPE svg PUBLIC "-//W3C//DTD SVG 1.1//EN" "http://www.w3.org/Graphics/SVG/1.1/DTD/svg11.dtd" [
	<!ENTITY ns_flows "http://ns.adobe.com/Flows/1.0/">
	<!ENTITY ns_extend "http://ns.adobe.com/Extensibility/1.0/">
	<!ENTITY ns_ai "http://ns.adobe.com/AdobeIllustrator/10.0/">
	<!ENTITY ns_graphs "http://ns.adobe.com/Graphs/1.0/">
	<!ENTITY ns_vars "http://ns.adobe.com/Variables/1.0/">
	<!ENTITY ns_imrep "http://ns.adobe.com/ImageReplacement/1.0/">
	<!ENTITY ns_sfw "http://ns.adobe.com/SaveForWeb/1.0/">
	<!ENTITY ns_custom "http://ns.adobe.com/GenericCustomNamespace/1.0/">
	<!ENTITY ns_adobe_xpath "http://ns.adobe.com/XPath/1.0/">
	<!ENTITY ns_svg "http://www.w3.org/2000/svg">
	<!ENTITY ns_xlink "http://www.w3.org/1999/xlink">
]>
<svg  version="1.1"
	 xmlns:x="&ns_extend;" xmlns:i="&ns_ai;" xmlns:graph="&ns_graphs;" i:viewOrigin="89.8633 287.6421" i:rulerOrigin="-89 -137.1973" i:pageBounds="89 287.1973 189 137.1973"
	 xmlns="&ns_svg;" xmlns:xlink="&ns_xlink;" xmlns:a="http://ns.adobe.com/AdobeSVGViewerExtensions/3.0/"
	 width="98.098" height="150.087" viewBox="0 0 98.098 150.087" overflow="visible" enable-background="new 0 0 98.098 150.087"
	 xml:space="preserve">
<metadata>
	<variableSets  xmlns="http://ns.adobe.com/Variables/1.0/">
		<variableSet  locked="none" varSetName="binding1">
			<variables></variables>
			<v:sampleDataSets  xmlns:v="http://ns.adobe.com/Variables/1.0/" xmlns="http://ns.adobe.com/GenericCustomNamespace/1.0/">
				</v:sampleDataSets>
		</variableSet>
	</variableSets>
</metadata>
<g id="图层_1" i:knockout="Off" i:layer="yes" i:dimmedPercent="50" i:rgbTrio="#4F008000FFFF">
	<g i:knockout="Off">
		<path fill="#F7F7F7" stroke="#060506" stroke-width="0.0882" d="M98.053,143.263c0,3.743-3.015,6.78-6.726,6.78H6.769
			c-3.714,0-6.725-3.036-6.725-6.78V6.825c0-3.744,3.01-6.781,6.725-6.781h84.56c3.711,0,6.726,3.037,6.726,6.781L98.053,143.263
			L98.053,143.263z"/>
		<path fill="#060506" d="M11.983,31.668c-1.605-1.414-2.892-3.239-2.892-3.239s-1.286,1.825-2.89,3.239
			c-1.79,1.575-1.391,2.957-1.051,3.607c0.4,0.759,1.304,1.134,2.081,1.134c1.166,0,1.564-1.209,1.564-1.209s0.008,0.437-0.167,0.94
			c-0.334,0.964-0.782,1.317-0.782,1.317h2.49c0,0-0.448-0.353-0.782-1.317C9.38,35.636,9.388,35.2,9.388,35.2
			s0.397,1.209,1.562,1.209c0.778,0,1.683-0.375,2.082-1.134C13.373,34.624,13.771,33.242,11.983,31.668z"/>
		<path fill="#060506" d="M86.113,119.91c1.604,1.411,2.893,3.236,2.893,3.236s1.286-1.825,2.892-3.236
			c1.791-1.574,1.391-2.961,1.049-3.606c-0.398-0.761-1.304-1.136-2.078-1.136c-1.166,0-1.562,1.208-1.562,1.208
			s-0.01-0.436,0.165-0.938c0.334-0.964,0.781-1.319,0.781-1.319h-2.491c0,0,0.448,0.355,0.784,1.319
			c0.176,0.504,0.163,0.938,0.163,0.938s-0.396-1.208-1.562-1.208c-0.776,0-1.682,0.375-2.081,1.136
			C84.724,116.95,84.323,118.335,86.113,119.91z"/>
		<g i:knockout="Off">
			<rect x="4.557" y="8.954" fill="#060506" width="1.587" height="13.722"/>
		</g>
		<g i:knockout="Off">
			<rect x="91.952" y="126.619" fill="#060506" width="1.587" height="13.72"/>
		</g>
		<g i:knockout="Off">
			<path fill="#060506" d="M7.552,12.854v6.682c0,2.587,1.141,3.899,3.39,3.899s3.389-1.312,3.389-3.899v-6.682
				c0-2.587-1.14-3.9-3.389-3.9S7.552,10.267,7.552,12.854z M9.137,19.543v-6.695c0-1.626,0.591-2.417,1.805-2.417
				c1.215,0,1.805,0.791,1.805,2.417v6.695c0,1.037-0.187,2.417-1.805,2.417C9.727,21.959,9.137,21.168,9.137,19.543z"/>
		</g>
		<g i:knockout="Off">
			<path fill="#060506" d="M83.765,130.52v6.681c0,2.589,1.141,3.902,3.391,3.902s3.392-1.313,3.392-3.902v-6.681
				c0-2.589-1.142-3.901-3.392-3.901S83.765,127.931,83.765,130.52z M85.352,137.208v-6.693c0-1.627,0.59-2.418,1.804-2.418
				c1.216,0,1.807,0.791,1.807,2.418v6.693c0,1.628-0.591,2.419-1.807,2.419C85.941,139.626,85.352,138.835,85.352,137.208z"/>
		</g>
		<path fill="#060506" d="M55.823,40.005c-3.758-3.553-6.775-8.149-6.775-8.149s-3.015,4.596-6.773,8.149
			c-4.194,3.965-3.255,7.446-2.458,9.083c0.937,1.91,3.052,2.854,4.875,2.854c2.726,0,3.66-3.043,3.66-3.043
			s0.022,1.099-0.389,2.369c-0.783,2.425-1.833,3.313-1.833,3.313h5.836c0,0-1.049-0.889-1.834-3.313
			c-0.411-1.27-0.386-2.369-0.386-2.369s0.931,3.043,3.66,3.043c1.819,0,3.941-0.944,4.875-2.854
			C59.078,47.45,60.017,43.97,55.823,40.005z"/>
		<path fill="#060506" d="M55.823,110.081c-3.758,3.555-6.775,8.149-6.775,8.149s-3.015-4.596-6.773-8.149
			c-4.194-3.965-3.255-7.444-2.458-9.082c0.937-1.909,3.052-2.854,4.875-2.854c2.726,0,3.66,3.043,3.66,3.043s0.022-1.1-0.389-2.368
			c-0.783-2.424-1.833-3.314-1.833-3.314h5.836c0,0-1.049,0.891-1.834,3.314c-0.411,1.27-0.386,2.368-0.386,2.368
			s0.931-3.043,3.66-3.043c1.819,0,3.941,0.944,4.875,2.854C59.078,102.636,60.017,106.116,55.823,110.081z"/>
		<path fill="#060506" d="M23.895,126.384c3.759,3.557,6.777,8.148,6.777,8.148s3.014-4.593,6.774-8.148
			c4.194-3.964,3.256-7.443,2.458-9.08c-0.935-1.909-3.053-2.854-4.873-2.854c-2.731,0-3.663,3.041-3.663,3.041
			s-0.022-1.099,0.387-2.367c0.785-2.425,1.836-3.313,1.836-3.313h-5.836c0,0,1.049,0.89,1.832,3.313
			c0.409,1.27,0.386,2.367,0.386,2.367s-0.93-3.041-3.658-3.041c-1.822,0-3.94,0.944-4.877,2.854
			C20.64,118.941,19.705,122.42,23.895,126.384z"/>
		<path fill="#060506" d="M60.648,126.574c3.762,3.556,6.774,8.147,6.774,8.147s3.016-4.593,6.773-8.147
			c4.195-3.965,3.257-7.442,2.459-9.08c-0.936-1.912-3.052-2.854-4.875-2.854c-2.729,0-3.659,3.039-3.659,3.039
			s-0.021-1.098,0.387-2.367c0.783-2.424,1.836-3.313,1.836-3.313h-5.839c0,0,1.051,0.891,1.833,3.313
			c0.411,1.271,0.386,2.367,0.386,2.367s-0.929-3.039-3.657-3.039c-1.82,0-3.94,0.941-4.875,2.854
			C57.393,119.131,56.453,122.609,60.648,126.574z"/>
		<path fill="#060506" d="M37.449,23.481c-3.76-3.556-6.776-8.149-6.776-8.149s-3.016,4.593-6.774,8.149
			c-4.193,3.962-3.258,7.443-2.458,9.08c0.935,1.913,3.053,2.854,4.873,2.854c2.731,0,3.662-3.041,3.662-3.041
			s0.022,1.099-0.387,2.366c-0.783,2.428-1.835,3.315-1.835,3.315h5.836c0,0-1.048-0.887-1.833-3.315
			c-0.409-1.267-0.384-2.366-0.384-2.366s0.929,3.04,3.657,3.04c1.823,0,3.941-0.941,4.876-2.854
			C40.703,30.924,41.641,27.444,37.449,23.481z"/>
		<path fill="#060506" d="M74.198,23.48c-3.759-3.553-6.774-8.149-6.774-8.149s-3.014,4.595-6.774,8.149
			c-4.194,3.965-3.253,7.445-2.457,9.083c0.938,1.909,3.055,2.854,4.875,2.854c2.728,0,3.659-3.043,3.659-3.043
			s0.022,1.099-0.388,2.369c-0.783,2.425-1.833,3.314-1.833,3.314h5.836c0,0-1.049-0.889-1.834-3.314
			c-0.408-1.27-0.386-2.369-0.386-2.369s0.931,3.043,3.659,3.043c1.819,0,3.941-0.945,4.874-2.854
			C77.454,30.925,78.391,27.445,74.198,23.48z"/>
		<path fill="#060506" d="M37.449,54.041c-3.76-3.554-6.776-8.149-6.776-8.149s-3.016,4.596-6.774,8.149
			c-4.193,3.964-3.253,7.444-2.458,9.082c0.937,1.91,3.053,2.854,4.875,2.854c2.728,0,3.659-3.044,3.659-3.044s0.023,1.1-0.387,2.37
			c-0.783,2.424-1.832,3.313-1.832,3.313h5.833c0,0-1.046-0.89-1.833-3.313c-0.409-1.27-0.384-2.37-0.384-2.37
			s0.93,3.044,3.661,3.044c1.82,0,3.938-0.944,4.873-2.854C40.703,61.485,41.641,58.005,37.449,54.041z"/>
		<path fill="#060506" d="M74.2,54.23c-3.762-3.557-6.774-8.149-6.774-8.149s-3.016,4.593-6.774,8.149
			c-4.196,3.963-3.256,7.442-2.46,9.079c0.938,1.913,3.055,2.855,4.875,2.855c2.729,0,3.659-3.042,3.659-3.042
			s0.022,1.099-0.385,2.368c-0.782,2.426-1.836,3.313-1.836,3.313h5.836c0,0-1.049-0.887-1.83-3.313
			c-0.412-1.269-0.39-2.368-0.39-2.368s0.931,3.042,3.659,3.042c1.823,0,3.941-0.942,4.874-2.855
			C77.454,61.673,78.391,58.193,74.2,54.23z"/>
		<path fill="#060506" d="M37.449,93.325c-3.76,3.555-6.776,8.149-6.776,8.149s-3.016-4.596-6.774-8.149
			c-4.193-3.965-3.253-7.444-2.458-9.082c0.937-1.909,3.053-2.854,4.875-2.854c2.728,0,3.659,3.043,3.659,3.043
			s0.023-1.1-0.387-2.369c-0.783-2.425-1.832-3.314-1.832-3.314h5.833c0,0-1.046,0.891-1.833,3.314
			c-0.409,1.271-0.384,2.369-0.384,2.369s0.93-3.043,3.661-3.043c1.82,0,3.938,0.943,4.873,2.854
			C40.703,85.88,41.641,89.36,37.449,93.325z"/>
		<path fill="#060506" d="M74.2,93.135c-3.762,3.557-6.774,8.148-6.774,8.148s-3.016-4.593-6.774-8.148
			c-4.196-3.963-3.256-7.442-2.46-9.079c0.938-1.912,3.055-2.854,4.875-2.854c2.729,0,3.659,3.041,3.659,3.041
			s0.022-1.1-0.385-2.367c-0.782-2.427-1.836-3.312-1.836-3.312h5.836c0,0-1.049,0.887-1.83,3.312
			c-0.412,1.269-0.39,2.367-0.39,2.367s0.931-3.041,3.659-3.041c1.823,0,3.941,0.942,4.874,2.854
			C77.454,85.693,78.391,89.173,74.2,93.135z"/>
	</g>
</g>
</svg>
