<?xml version="1.0" encoding="UTF-8" standalone="no"?>
<!-- Generator: Adobe Illustrator 12.0.0, SVG Export Plug-In . SVG Version: 6.00 Build 51448)  -->
<svg
   xmlns:dc="http://purl.org/dc/elements/1.1/"
   xmlns:cc="http://web.resource.org/cc/"
   xmlns:rdf="http://www.w3.org/1999/02/22-rdf-syntax-ns#"
   xmlns:svg="http://www.w3.org/2000/svg"
   xmlns="http://www.w3.org/2000/svg"
   xmlns:xlink="http://www.w3.org/1999/xlink"
   xmlns:sodipodi="http://sodipodi.sourceforge.net/DTD/sodipodi-0.dtd"
   xmlns:inkscape="http://www.inkscape.org/namespaces/inkscape"
   version="1.1"
   id="图层_1"
   width="98.099"
   height="150.086"
   viewBox="0 0 98.099 150.086"
   overflow="visible"
   enable-background="new 0 0 98.099 150.086"
   xml:space="preserve"
   sodipodi:version="0.32"
   inkscape:version="0.45.1"
   sodipodi:docname="51.svg"
   sodipodi:docbase="/home/zhangxin/桌面/简化版扑克"
   inkscape:output_extension="org.inkscape.output.svg.inkscape"><metadata
   id="metadata655"><rdf:RDF><cc:Work
       rdf:about=""><dc:format>image/svg+xml</dc:format><dc:type
         rdf:resource="http://purl.org/dc/dcmitype/StillImage" /></cc:Work></rdf:RDF></metadata><defs
   id="defs653" /><sodipodi:namedview
   inkscape:window-height="713"
   inkscape:window-width="1024"
   inkscape:pageshadow="2"
   inkscape:pageopacity="0.0"
   guidetolerance="10.0"
   gridtolerance="10.0"
   objecttolerance="10.0"
   borderopacity="1.0"
   bordercolor="#666666"
   pagecolor="#ffffff"
   id="base"
   inkscape:zoom="4.6265399"
   inkscape:cx="73.181082"
   inkscape:cy="100.21613"
   inkscape:window-x="0"
   inkscape:window-y="0"
   inkscape:current-layer="图层_1"
   width="150.086px"
   height="98.098999px" />
<path
   d="M 91.285,0.091000015 L 6.725,0.091000015 C 3.01,0.091000015 1.110223e-16,3.127 1.110223e-16,6.871 L 1.110223e-16,143.309 C 1.110223e-16,147.051 3.01,150.086 6.725,150.086 L 91.283,150.086 C 94.994,150.086 98.011,147.049 98.011,143.309 L 98.011,6.871 C 98.01,3.127 94.997,0.091000015 91.285,0.091000015 z "
   id="path3"
   style="fill:#f7f7f7" />



































































































<radialGradient
   id="XMLID_137_"
   cx="-767.3394"
   cy="291.1558"
   r="13.2751"
   gradientTransform="matrix(1.2191 -0.1245 -0.153 -0.9922 1021.798 237.095)"
   gradientUnits="userSpaceOnUse">
	<stop
   offset="0"
   style="stop-color:#FFFFFF"
   id="stop402" />
	<stop
   offset="0.0614"
   style="stop-color:#F6F4F0"
   id="stop404" />
	<stop
   offset="0.1786"
   style="stop-color:#DFD8C9"
   id="stop406" />
	<stop
   offset="0.2753"
   style="stop-color:#CABDA5"
   id="stop408" />
	<stop
   offset="1"
   style="stop-color:#5A3D1B"
   id="stop410" />
</radialGradient>




<radialGradient
   id="XMLID_138_"
   cx="-773.1064"
   cy="254.9185"
   r="10.9384"
   gradientTransform="matrix(1.2191 -0.1245 -0.1802 -1.1682 1024.0571 248.7374)"
   gradientUnits="userSpaceOnUse">
	<stop
   offset="0"
   style="stop-color:#FFFFFF"
   id="stop421" />
	<stop
   offset="0.246"
   style="stop-color:#F4F4F0"
   id="stop423" />
	<stop
   offset="0.7158"
   style="stop-color:#D9D8C9"
   id="stop425" />
	<stop
   offset="1"
   style="stop-color:#C6C4AF"
   id="stop427" />
</radialGradient>

















<radialGradient
   id="XMLID_139_"
   cx="2505.3965"
   cy="4001.1606"
   r="13.2764"
   gradientTransform="matrix(-1.2191 0.1245 0.153 0.9922 2499.3015 -4178.0854)"
   gradientUnits="userSpaceOnUse">
	<stop
   offset="0"
   style="stop-color:#FFFFFF"
   id="stop464" />
	<stop
   offset="0.0614"
   style="stop-color:#F6F4F0"
   id="stop466" />
	<stop
   offset="0.1786"
   style="stop-color:#DFD8C9"
   id="stop468" />
	<stop
   offset="0.2753"
   style="stop-color:#CABDA5"
   id="stop470" />
	<stop
   offset="1"
   style="stop-color:#5A3D1B"
   id="stop472" />
</radialGradient>




<radialGradient
   id="XMLID_140_"
   cx="2499.7871"
   cy="3405.9585"
   r="10.9389"
   gradientTransform="matrix(-1.2191 0.1245 0.1802 1.1682 2497.0483 -4189.7285)"
   gradientUnits="userSpaceOnUse">
	<stop
   offset="0"
   style="stop-color:#FFFFFF"
   id="stop483" />
	<stop
   offset="0.246"
   style="stop-color:#F4F4F0"
   id="stop485" />
	<stop
   offset="0.7158"
   style="stop-color:#D9D8C9"
   id="stop487" />
	<stop
   offset="1"
   style="stop-color:#C6C4AF"
   id="stop489" />
</radialGradient>
































<linearGradient
   id="XMLID_141_"
   gradientUnits="userSpaceOnUse"
   x1="-2227.0977"
   y1="17052.957"
   x2="-2221.3596"
   y2="17046.4434"
   gradientTransform="matrix(-0.8784 0.4778 -0.4778 -0.8784 6229.334 16071.0742)">
	<stop
   offset="0.0111"
   style="stop-color:#EFF711"
   id="stop556" />
	<stop
   offset="1"
   style="stop-color:#FF6500"
   id="stop558" />
</linearGradient>











<g
   id="g3004"
   inkscape:tile-w="68.333572"
   inkscape:tile-h="62.891999"
   inkscape:tile-cx="47.861213"
   inkscape:tile-cy="48.028"><g
     id="g189">
	<path
   id="path191"
   d="M43.99,18.639h-4.552c0,0-22.182,14.032-15.649,37.417h45.169C68.957,56.056,51.661,45.044,43.99,18.639z"
   fill="#060506" />
</g><g
     id="g193">
	<polygon
   id="polygon195"
   points="51.807,56.328 27.167,52.696 27.304,71.901 36.613,72.879  "
   fill="#FFFFFF" />
</g><g
     id="g197">
	<polygon
   id="polygon199"
   points="53.725,56.572 25.902,51.963 25.936,61.426 47.015,64.15  "
   fill="#060506" />
</g><g
     id="g201">
	<path
   id="path203"
   d="M33.059,72.31c0,0,7.928-22.514,28.468-22.337c16.147,0.14,19.711,9.917,19.711,9.917v11.312   c0,0-6.296,7.124-19.853,6.146C47.838,76.37,44.011,72.31,33.059,72.31z"
   fill="#D90000" />
</g><g
     id="g205">
	<path
   id="path207"
   d="M39.293,68.488c-0.595,1.938,0.931,4.175,3.406,5c2.474,0.822,4.961-0.081,5.556-2.018   c0.594-1.938-0.933-4.177-3.405-5C42.374,65.647,39.886,66.551,39.293,68.488z"
   fill="#060506" />
</g><g
     id="g209">
	<path
   fill="#FFFFFF"
   id="path211"
   d="M40.807,68.991c-0.327,1.061,0.74,2.361,2.379,2.907c1.64,0.545,3.231,0.128,3.559-0.93   c0.323-1.059-0.744-2.361-2.381-2.908C42.722,67.516,41.131,67.932,40.807,68.991z" />
</g><g
     id="g213">
	<path
   id="path215"
   d="M43.32,60.721c-0.823,1.532,0.097,3.699,2.051,4.84c1.957,1.14,4.212,0.823,5.034-0.709   c0.824-1.533-0.093-3.7-2.05-4.84C46.401,58.871,44.143,59.188,43.32,60.721z"
   fill="#060506" />
</g><g
     id="g217">
	<path
   id="path219"
   d="M44.516,61.418c-0.45,0.837,0.237,2.13,1.53,2.886c1.298,0.756,2.712,0.689,3.164-0.148   c0.45-0.838-0.235-2.13-1.53-2.885C46.383,60.515,44.969,60.58,44.516,61.418z"
   fill="#EB0500" />
</g><g
     id="g221">
	<path
   id="path223"
   d="M47.912,55.184c-0.946,1.214-0.523,3.201,0.94,4.441c1.466,1.238,3.419,1.26,4.367,0.047   c0.946-1.213,0.525-3.201-0.938-4.44C50.813,53.994,48.858,53.973,47.912,55.184z"
   fill="#060506" />
</g><g
     id="g225">
	<path
   id="path227"
   d="M48.808,55.942c-0.517,0.664-0.149,1.867,0.82,2.688c0.971,0.821,2.178,0.948,2.696,0.286   c0.519-0.663,0.146-1.866-0.82-2.688C50.533,55.408,49.326,55.28,48.808,55.942z"
   fill="#FFFFFF" />
</g><g
     id="g229">
	<path
   id="path231"
   d="M42.089,61.705c-1.437,1.815-2.323,4.197-2.323,4.197c1.376-1.298,3.486-0.958,3.486-0.958   C41.953,63.87,42.089,61.705,42.089,61.705z"
   fill="#060506" />
</g><g
     id="g233">
	<path
   id="path235"
   d="M46.812,56.677c-2.089,1.23-2.534,2.234-2.534,2.234c1.394-0.841,3.33-0.094,3.33-0.094   C46.491,57.315,46.812,56.677,46.812,56.677z"
   fill="#060506" />
</g><g
     id="g237">
	<path
   id="path239"
   d="M66.935,50.741c1.424-0.065,2.533,0.452,3.771,0.6c8.405,2.72,10.533,8.548,10.533,8.548v11.312   c0,0-6.296,7.124-19.853,6.146c-2.072-0.149-14.354-2.046-16.123-2.303C45.443,69.736,48.797,51.579,66.935,50.741z"
   fill="#D90000" />
</g><g
     id="g241">
	<path
   id="path243"
   d="M66.935,50.741l1.438,3.212c0,0-9.678-0.562-14.307,10.266c-2.035,4.758-1.648,11.962-1.648,11.962   s-6.657-2.05-7.111-2.116C45.48,68.757,48.797,51.579,66.935,50.741z"
   fill="#FFFFFF" />
</g><g
     id="g245">
	<path
   id="path247"
   d="M71.292,57.118c5.118-0.601,8.314,2.272,9.943,4.785v9.299c0,0-3.782,4.184-15.187,4.391   C63.03,70.644,59.791,58.467,71.292,57.118z"
   fill="#212462" />
</g><g
     id="g249">
	<path
   id="path251"
   d="M72.183,76.431L72.183,76.431c-0.063-0.08-6.688-8.086-5.585-13.964c0.362-1.927,1.534-3.435,3.482-4.482   l-0.271-0.521c-2.106,1.135-3.382,2.781-3.774,4.893c-1.155,6.157,5.433,14.121,5.715,14.457L72.183,76.431z"
   fill="#060506" />
</g><g
     id="g253">
	<path
   id="path255"
   d="M67.585,77.523c0,0-10.305-16.097,2.358-19.799c0,0-9.552,3.876,1.746,18.854L67.585,77.523z"
   fill="#FFFFFF" />
</g><g
     id="g257">
	<path
   id="path259"
   d="M74.908,54.98c-0.437,0.062-10.574,1.587-11.587,8.653c-0.989,6.923,3.926,15.479,4.137,15.841l0.624-0.378   l0,0c-0.053-0.087-4.994-8.694-4.04-15.355c0.933-6.516,10.867-8.012,10.968-8.026L74.908,54.98z"
   fill="#060506" />
</g><g
     id="g261">
	<path
   fill="#FFFFFF"
   id="path263"
   d="M54.081,68.382l0.308-0.881l0.31,0.881c0,0,0.646,0.351,0.694,0.371c-0.049,0.021-0.694,0.372-0.694,0.372   l-0.31,0.881l-0.308-0.881c0,0-0.647-0.351-0.697-0.372C53.434,68.733,54.081,68.382,54.081,68.382z" />
</g><g
     id="g265">
	<path
   id="path267"
   d="M62.452,60.558l-0.561-0.254c-0.062-0.029-0.608-0.324-1.003-0.533l-0.447-1.306l-0.25-0.72l-0.25,0.719   l-0.453,1.307c-0.46,0.247-0.941,0.505-1,0.531c0,0-0.564,0.239-0.562,0.241l0.562,0.257c0.062,0.029,0.61,0.325,1.004,0.534   l0.453,1.307l0.25,0.72l0.25-0.72l0.447-1.307c0.396-0.209,0.94-0.504,1.006-0.533C61.896,60.801,62.456,60.56,62.452,60.558z    M60.465,60.954l-0.035,0.1l-0.233,0.687l-0.237-0.687l-0.033-0.099l-0.092-0.049c-0.158-0.085-0.425-0.228-0.657-0.353   c0.232-0.125,0.499-0.268,0.657-0.354l0.092-0.049l0.033-0.099l0.237-0.687l0.233,0.687l0.035,0.099l0.092,0.049   c0.157,0.086,0.427,0.228,0.658,0.354c-0.231,0.125-0.501,0.268-0.658,0.353L60.465,60.954z"
   fill="#FFFFFF" />
</g><g
     id="g269">
	<path
   fill="#FFFFFF"
   id="path271"
   d="M58.462,72.808l-0.625-0.287c-0.074-0.033-0.694-0.365-1.133-0.6l-0.511-1.474l-0.28-0.811l-0.282,0.811   l-0.512,1.474c-0.521,0.278-1.062,0.57-1.126,0.599c0,0-0.645,0.27-0.637,0.271l0.631,0.29c0.068,0.033,0.688,0.366,1.132,0.601   l0.512,1.474l0.282,0.812l0.28-0.812l0.511-1.474c0.438-0.236,1.062-0.569,1.13-0.6C57.834,73.082,58.466,72.811,58.462,72.808z    M56.22,73.255l-0.039,0.113l-0.268,0.773l-0.271-0.774l-0.039-0.112L55.5,73.2c-0.181-0.096-0.479-0.257-0.741-0.398   c0.269-0.141,0.562-0.302,0.741-0.398l0.103-0.056l0.039-0.112l0.271-0.774l0.268,0.773l0.039,0.112l0.104,0.056   c0.18,0.096,0.479,0.257,0.741,0.398c-0.269,0.141-0.562,0.302-0.741,0.398L56.22,73.255z" />
</g><g
     id="g273">
	<path
   id="path275"
   d="M60.191,66.388l-0.625-0.286c-0.072-0.034-0.691-0.365-1.136-0.601l-0.509-1.473l-0.282-0.811l-0.276,0.811   l-0.518,1.474c-0.518,0.278-1.062,0.57-1.125,0.599c0,0-0.64,0.27-0.636,0.271l0.632,0.29c0.071,0.034,0.692,0.366,1.129,0.602   l0.518,1.474l0.276,0.812l0.282-0.812l0.509-1.474c0.438-0.236,1.062-0.568,1.133-0.601C59.563,66.662,60.195,66.391,60.191,66.388   z M57.95,66.835l-0.039,0.113l-0.271,0.773l-0.27-0.774l-0.038-0.112l-0.104-0.055c-0.18-0.096-0.479-0.256-0.74-0.398   c0.269-0.141,0.562-0.302,0.74-0.398l0.104-0.055l0.038-0.112l0.27-0.774l0.271,0.774l0.039,0.112l0.104,0.055   c0.182,0.097,0.479,0.257,0.742,0.398c-0.269,0.141-0.562,0.302-0.742,0.398L57.95,66.835z"
   fill="#FFFFFF" />
</g><g
     id="g277">
	<path
   id="path279"
   d="M32.624,72.53c0,0,11.457,1.743,14.889,2.792c3.321,1.015,7.083,2.166,13.833,2.653   c13.694,0.986,20.085-6.051,20.354-6.354c0.104-0.115,0.156-0.265,0.156-0.421V59.89c0-0.075-0.015-0.149-0.035-0.22   c-0.15-0.416-4.004-9.712-20.396-9.854C40.634,49.636,32.008,71.483,32.624,72.53z M47.866,74.118   c-3.379-1.033-14.135-1.808-14.135-1.808c-0.374-1.396,7.721-21.303,27.542-21.132c15.486,0.134,19.244,8.549,19.392,8.931   c-0.026-0.07-0.038-0.144-0.038-0.219v11.312c0-0.173,0.067-0.339,0.192-0.458c-6.236,5.967-14.82,6.305-19.389,5.979   C54.82,76.244,51.126,75.114,47.866,74.118z"
   fill="#060506" />
</g><g
     id="g281">
	<path
   id="path283"
   d="M32.624,72.53c0,0-9.266-12.178-1.197-24.723c0,0-9.894-0.393-14.314,8.919   c-4.418,9.311-2.479,15.804-2.479,15.804H32.624z"
   fill="#FFFFFF" />
</g><g
     id="g285">
	<path
   id="path287"
   d="M25.54,48.919c-2.94,1.118-6.311,3.349-8.427,7.807c-4.419,9.311-2.479,15.805-2.479,15.805h11.278   C18.167,58.94,25.063,49.541,25.54,48.919z"
   fill="#212462" />
</g><g
     id="g289">
	<path
   id="path291"
   d="M33.021,72.215L33.021,72.215c-0.091-0.119-8.946-12.043-1.174-24.126l0.489-0.761l-0.892-0.036   c-0.102-0.004-10.276-0.295-14.786,9.209c-4.454,9.385-2.589,15.906-2.508,16.178l0.109,0.365h0.374h17.99h1.029L33.021,72.215z    M15.116,72.381L15.116,72.381c-0.019-0.062-1.818-6.435,2.451-15.43c4.226-8.905,13.744-8.633,13.839-8.629l-0.402-0.796   c-8.172,12.706,1.126,25.197,1.22,25.321l0.399-0.83H14.634L15.116,72.381z"
   fill="#060506" />
</g><g
     id="g293">
	<path
   id="path295"
   d="M25.344,48.699c-0.086,0.106-2.097,2.655-2.978,7.074c-0.811,4.066-0.755,10.536,4.11,18.264l0.485-0.318   c-9.1-14.453-1.253-24.548-1.172-24.648L25.344,48.699z"
   fill="#060506" />
</g><g
     id="g297">
	<path
   id="path299"
   d="M25.054,43.948c0.697,7.557,9.17,12.924,18.921,11.988c9.75-0.937,17.093-7.822,16.397-15.379   c-0.698-7.556-9.17-12.923-18.921-11.986C31.7,29.507,24.357,36.392,25.054,43.948z"
   fill="#FFFFFF" />
</g><g
     id="g301">
	<path
   id="path303"
   d="M29.715,34.287c3.006-2.821,7.196-4.618,11.795-5.06c9.417-0.904,17.616,4.204,18.278,11.385   c0.663,7.183-6.459,13.761-15.875,14.666c-4.601,0.441-9.045-0.526-12.516-2.725c-3.397-2.154-5.445-5.229-5.762-8.661   C25.319,40.462,26.77,37.05,29.715,34.287z M28.954,33.266c-3.249,3.047-4.841,6.86-4.483,10.738   c0.358,3.879,2.621,7.323,6.37,9.697c3.676,2.329,8.362,3.357,13.195,2.893c10.058-0.966,17.646-8.185,16.918-16.092   c-0.729-7.907-9.508-13.555-19.564-12.589C36.557,28.377,32.14,30.278,28.954,33.266z"
   fill="#060506" />
</g><g
     id="g305">
	<path
   id="path307"
   d="M30.347,40.746c1.654,0.293,3.318,1.105,4.066,2.235c0.002,0.159,0,0.319-0.009,0.48   c-0.005,0.104-0.02,0.205-0.029,0.307c-0.392-1.302-2.286-2.299-4.086-2.619c-1.52-0.27-3.389-0.118-4.046,1.066   c0.042-0.287,0.101-0.564,0.173-0.832C27.367,40.588,28.994,40.506,30.347,40.746z"
   fill="#FFFFFF" />
</g><g
     id="g309">
	<path
   id="path311"
   d="M25.915,34.163c0,0,7.392-15.125,17.816-15.125"
   fill="#060506" />
</g><g
     id="g313">
	<path
   id="path315"
   d="M45.29,17.976h11.054c0,0,6.833,0.397,7.152,6.236c0.419,7.684,0.896,9.47,2.998,13.765   c0.989,2.029-3.514,8.758-3.514,8.758L45.29,17.976z"
   fill="#D90000" />
</g><g
     id="g317">
	<polygon
   id="polygon319"
   points="54.467,22.391 50.922,21.036 52.014,18.06 52.642,18.097 54.509,22.283 54.516,22.264    56.61,27.239 56.613,27.228 59.098,32.219 62.201,36.447 66.167,40.31 62.267,40.402 62.18,36.589 58.46,36.044 59,32.208    55.403,31.013 56.562,27.383 53.069,25.961  "
   fill="#060506" />
</g><g
     id="g321">
	<path
   id="path323"
   d="M64.375,59.186c2.414,0.632,4.818-0.63,4.818-0.63s-1.516-2.287-3.932-2.919   c-2.418-0.632-4.818,0.63-4.818,0.63S61.958,58.552,64.375,59.186z"
   fill="#FFFFFF" />
</g><g
     id="g325">
	<path
   id="path327"
   d="M78.204,71.891L78.204,71.891c-0.517-0.195-12.545-4.968-7.546-19.73l-0.354-0.122l0,0l0,0l-0.348-0.123   c-5.234,15.464,7.854,20.627,7.982,20.679l0.129-0.352l0,0l0,0L78.204,71.891z"
   fill="#FFFFFF" />
</g><g
     id="g329">
	<path
   id="path331"
   d="M22.414,63.52c0-4.783-0.669-5.284-1.645-5.284s-1.889,0.501-1.889,5.284   c0,4.782,1.889,12.035,1.889,12.035S22.414,68.301,22.414,63.52z"
   fill="#FFFFFF" />
</g><g
     id="g333">
	<path
   id="path335"
   d="M22.414,47.263c0,4.783-0.669,5.285-1.645,5.285s-1.889-0.502-1.889-5.285   c0-4.782,1.889-12.036,1.889-12.036S22.414,42.481,22.414,47.263z"
   fill="#FFFFFF" />
</g><g
     id="g337">
	<path
   id="path339"
   d="M20.769,57.721c-1.721,0-2.393,1.625-2.393,5.799c0,4.161,1.387,10.077,1.795,11.731   c0.074-0.336,0.261-1.21,0.484-2.39c-0.546-2.526-1.27-6.419-1.27-9.341c0-4.77,0.934-4.77,1.384-4.77c0.223,0,0.529,0,0.761,0.635   c0.255,0.7,0.379,2.053,0.379,4.135c0,2.924-0.629,6.81-1.105,9.338c0.253,1.172,0.467,2.04,0.552,2.374   c0.357-1.658,1.562-7.565,1.562-11.711C22.917,59.13,22.395,57.721,20.769,57.721z"
   fill="#060506" />
</g><g
     id="g341">
	<path
   id="path343"
   d="M21.356,35.551c-0.085,0.334-0.299,1.202-0.552,2.374c0.476,2.528,1.105,6.413,1.105,9.338   c0,2.082-0.124,3.435-0.378,4.135c-0.232,0.635-0.539,0.635-0.762,0.635c-0.45,0-1.383,0-1.383-4.77c0-2.922,0.723-6.815,1.27-9.34   c-0.222-1.18-0.41-2.054-0.483-2.391c-0.409,1.654-1.795,7.57-1.795,11.731c0,4.173,0.671,5.799,2.392,5.799   c1.626,0,2.148-1.409,2.148-5.799C22.917,43.118,21.714,37.21,21.356,35.551z"
   fill="#060506" />
</g><g
     id="g345">
	<path
   id="path347"
   d="M23.16,53.971c-0.451,0-0.871,0.088-1.22,0.24c0.147-0.355,0.236-0.783,0.236-1.243   c0-1.236-0.623-2.238-1.392-2.238c-0.77,0-1.393,1.002-1.393,2.238c0,0.46,0.087,0.888,0.235,1.243   c-0.348-0.151-0.768-0.239-1.218-0.239c-1.21,0-2.193,0.635-2.193,1.42s0.982,1.42,2.193,1.42c0.451,0,0.871-0.089,1.218-0.24   c-0.148,0.355-0.235,0.783-0.235,1.244c0,1.235,0.623,2.238,1.393,2.238c0.769,0,1.392-1.002,1.392-2.238   c0-0.46-0.088-0.888-0.236-1.244c0.349,0.151,0.769,0.24,1.22,0.24c1.211,0,2.193-0.636,2.193-1.42   C25.353,54.607,24.371,53.971,23.16,53.971z M20.567,55.613c0.019-0.073,0.035-0.146,0.035-0.221c0-0.076-0.016-0.149-0.035-0.221   c0.072,0.018,0.143,0.035,0.217,0.035c0.074,0,0.146-0.017,0.217-0.035c-0.018,0.072-0.035,0.146-0.035,0.222   c0,0.075,0.017,0.149,0.035,0.221c-0.071-0.018-0.143-0.036-0.217-0.036C20.71,55.577,20.639,55.595,20.567,55.613z"
   fill="#FF8600" />
</g><g
     id="g349">
	<ellipse
   id="ellipse351"
   ry="2.134"
   rx="2.091"
   cy="55.205"
   cx="20.784"
   fill="#FF8600" />
</g><g
     id="g353">
	<polygon
   id="polygon355"
   points="20.784,19.683 24.811,27.156 20.784,34.629 16.755,27.156  "
   fill="#FFFFFF" />
</g><g
     id="g357">
	<path
   id="path359"
   d="M16.324,27.5l4.027,7.472c0.095,0.178,0.259,0.285,0.434,0.285c0.174,0,0.337-0.106,0.433-0.285   l4.028-7.472c0.112-0.209,0.112-0.479,0-0.689l-4.028-7.472c-0.095-0.178-0.258-0.285-0.433-0.285   c-0.175,0-0.338,0.106-0.434,0.285l-4.027,7.472C16.211,27.021,16.211,27.291,16.324,27.5z M20.552,33.049l-1.545-5.893   l1.545-5.893l0.233-0.432l0.233,0.432l1.542,5.893l-1.542,5.893l-0.233,0.432L20.552,33.049z M21.721,22.57l2.473,4.586   l-2.473,4.585l1.184-4.522c0.012-0.041,0.012-0.085,0-0.126L21.721,22.57z M19.846,31.741l-2.472-4.585l2.472-4.585l-1.185,4.522   c-0.01,0.041-0.01,0.085,0,0.126L19.846,31.741z"
   fill="#060506" />
</g><g
     id="g361">
	<path
   id="path363"
   d="M18.715,34.629c0,1.389,0.925,2.514,2.07,2.514c1.144,0,2.07-1.125,2.07-2.514   c0-1.388-0.927-2.514-2.07-2.514C19.64,32.115,18.715,33.24,18.715,34.629z"
   fill="#FF8600" />
</g><g
     id="g365">
	<path
   id="path367"
   d="M20.784,32.449c0.989,0,1.795,0.978,1.795,2.18c0,1.202-0.806,2.179-1.795,2.179   c-0.989,0-1.796-0.977-1.796-2.179C18.989,33.427,19.795,32.449,20.784,32.449z M18.196,34.629c0,1.733,1.161,3.143,2.588,3.143   c1.426,0,2.587-1.41,2.587-3.143c0-1.732-1.161-3.143-2.587-3.143C19.357,31.486,18.196,32.896,18.196,34.629z"
   fill="#060506" />
</g><g
     id="g397">
	<path
   id="path399"
   d="M68.168,28.363c2.665-2.345,4.801-5.377,4.801-5.377s2.144,3.033,4.8,5.377   c1.731,1.522,2.229,2.936,2.232,4.065c0.003,0.811-0.251,1.474-0.487,1.925c-0.668,1.26-2.164,1.882-3.457,1.882   c-1.937,0-2.595-2.006-2.595-2.006s0,0.005,0,0.013c0,0.08,0.005,0.522,0.14,1.085c0.015,0.043,0.021,0.086,0.034,0.131   c0.029,0.108,0.062,0.22,0.104,0.333c0.002,0.003,0.003,0.007,0.004,0.01c0.31,0.879,0.674,1.451,0.938,1.787   c0.214,0.272,0.362,0.39,0.362,0.39h-4.137c0,0,0.146-0.117,0.359-0.39c0.266-0.336,0.625-0.907,0.936-1.787   c0.003-0.003,0.005-0.007,0.006-0.01c0.036-0.113,0.069-0.225,0.102-0.333c0.016-0.044,0.021-0.088,0.032-0.131   c0.135-0.564,0.144-1.005,0.144-1.085c0-0.009,0-0.014,0-0.014s-0.657,2.007-2.598,2.007c-1.293,0-2.794-0.623-3.453-1.882   c-0.232-0.451-0.487-1.114-0.486-1.925C65.942,31.299,66.438,29.885,68.168,28.363z"
   fill="#060506" />
</g><path
     id="path412"
     d="M57.971,42.092c1.123,7.273-5.214,13.912-14.152,14.825s-17.094-4.245-18.215-11.518  c-1.123-7.275,5.214-13.913,14.152-14.826C48.694,29.66,56.85,34.817,57.971,42.092z"
     fill="url(#XMLID_137_)" /><path
     id="path414"
     d="M42.338,35.687c0,0-2.079-4.801-9.606-0.653  c-7.53,4.146-1.68,10.755-1.68,10.755s3.449,2.181,3.27,3.03c-0.471,2.241,0.647,5.928,7.979,5.724  c7.332-0.205,6.901-4.738,6.39-5.448c0,0,7.66-3.289,5.63-9.511C52.289,33.363,44.494,32.306,42.338,35.687z"
     stroke-width="0.1764"
     stroke="#DAD2C0"
     fill="#F4ECD6" /><path
     id="path416"
     d="M32.651,37.985c0,0,5.599-5.367,7.3,0.453  c1.7,5.82-0.538,9.536-4.477,8.304C31.534,45.509,28.055,42.922,32.651,37.985z"
     stroke-width="0.1764"
     stroke="#C1A48C"
     fill="#FFFFFF" /><path
     id="path418"
     d="M50.514,38.576c0,0-4.578-5.974-7.303-0.417  c-2.724,5.556-1.175,9.497,2.944,8.746C50.272,46.153,54.175,44.006,50.514,38.576z"
     stroke-width="0.1764"
     stroke="#C1A48C"
     fill="#FFFFFF" /><path
     id="path429"
     d="M34.666,51.856c0,0-0.492-1.646-0.331-2.139  c0.56-1.717,3.815-3.23,6.004-1.699c0,0,1.001,0.544,2.032-0.268c1.333-1.049,6.255-0.579,6.677,1.062  c0.514,1.997-0.518,5.313-5.923,5.865C37.72,55.229,35.237,52.952,34.666,51.856z"
     stroke-width="0.1764"
     stroke="#C1A48C"
     fill="url(#XMLID_138_)" /><path
     id="path431"
     d="M36.246,50.693c0,0,5.094,4.385,12.479,0.36"
     stroke-width="0.1764"
     stroke="#B29D94"
     fill="none" /><path
     id="path433"
     d="M40.986,48.64c0,0-1.478,1.665,0.937,6.051"
     stroke-width="0.1764"
     stroke="#C6AFA4"
     fill="none" /><path
     id="path435"
     d="M39.424,41.978c0.274,1.777-1.274,3.399-3.458,3.623c-2.182,0.223-4.177-1.038-4.45-2.815  c-0.273-1.778,1.274-3.4,3.458-3.623S39.151,40.201,39.424,41.978z"
     fill="#165829" /><path
     id="path437"
     d="M39.207,41.983c0.251,1.631-1.17,3.12-3.176,3.325c-2.003,0.205-3.832-0.952-4.083-2.583  c-0.251-1.632,1.168-3.12,3.173-3.325S38.956,40.351,39.207,41.983z"
     fill="#33A02C" /><path
     id="path439"
     d="M38.812,41.856c0.224,1.449-1.04,2.772-2.821,2.955c-1.78,0.182-3.405-0.846-3.629-2.295  c-0.223-1.45,1.039-2.771,2.821-2.954C36.963,39.379,38.59,40.406,38.812,41.856z" /><path
     id="path441"
     d="M35.07,43.14c0.295,0.366,0.241,0.819-0.121,1.013c-0.362,0.194-0.895,0.055-1.191-0.311  c-0.296-0.365-0.242-0.819,0.119-1.013C34.24,42.635,34.774,42.775,35.07,43.14z"
     fill="#33A02C" /><path
     id="path443"
     d="M32.838,42.072c0,0,0.048-1.421,1.481-1.677  c0,0,0.858,0.349,0.214,0.522c-0.642,0.175-1.021,0.323-1.036,1.087C33.482,42.768,32.838,42.072,32.838,42.072z"
     enable-background="new    "
     fill="#FFFFFF"
     opacity="0.86" /><path
     id="path445"
     d="M37.548,42.823c0.055,0.356-0.049,0.66-0.231,0.678  c-0.181,0.019-0.373-0.255-0.428-0.61c-0.055-0.355,0.047-0.659,0.23-0.677C37.3,42.195,37.494,42.468,37.548,42.823z"
     enable-background="new    "
     fill="#FFFFFF"
     opacity="0.86" /><path
     id="path447"
     d="M50.597,42.508c0.273,1.778-1.271,3.399-3.458,3.623c-2.184,0.223-4.176-1.037-4.45-2.814  c-0.273-1.778,1.274-3.399,3.458-3.623C48.33,39.471,50.321,40.731,50.597,42.508z"
     fill="#165829" /><path
     id="path449"
     d="M50.379,42.513c0.252,1.631-1.169,3.12-3.174,3.324c-2.004,0.205-3.832-0.952-4.084-2.583  c-0.251-1.631,1.168-3.12,3.173-3.325C48.298,39.725,50.127,40.881,50.379,42.513z"
     fill="#33A02C" /><path
     id="path451"
     d="M49.985,42.386c0.225,1.449-1.039,2.772-2.82,2.955c-1.781,0.182-3.406-0.846-3.63-2.296  c-0.223-1.449,1.04-2.772,2.82-2.954C48.136,39.909,49.762,40.937,49.985,42.386z" /><path
     id="path453"
     d="M46.241,43.671c0.295,0.366,0.242,0.819-0.121,1.013c-0.362,0.193-0.895,0.055-1.19-0.312  c-0.295-0.366-0.242-0.819,0.121-1.013C45.414,43.165,45.946,43.305,46.241,43.671z"
     fill="#33A02C" /><path
     id="path455"
     d="M44.01,42.603c0,0,0.048-1.422,1.481-1.677  c0,0,0.857,0.349,0.213,0.523c-0.641,0.175-1.02,0.322-1.037,1.086C44.653,43.299,44.01,42.603,44.01,42.603z"
     enable-background="new    "
     fill="#FFFFFF"
     opacity="0.86" /><path
     id="path457"
     d="M48.721,43.354c0.054,0.355-0.05,0.658-0.232,0.677  c-0.182,0.019-0.373-0.255-0.428-0.61s0.048-0.659,0.229-0.677C48.473,42.725,48.664,42.999,48.721,43.354z"
     enable-background="new    "
     fill="#FFFFFF"
     opacity="0.86" /><path
     id="path459"
     d="M40.496,47.116c-0.007,0.206-0.126,0.371-0.267,0.368s-0.25-0.172-0.243-0.378  c0.007-0.206,0.125-0.371,0.265-0.368C40.393,46.741,40.502,46.91,40.496,47.116z"
     fill="#A9775D" /><path
     id="path461"
     d="M41.342,47.144c-0.008,0.206-0.126,0.371-0.267,0.368c-0.139-0.003-0.248-0.172-0.243-0.378  c0.007-0.206,0.126-0.371,0.266-0.368C41.238,46.769,41.347,46.938,41.342,47.144z"
     fill="#A9775D" /><path
     id="path525"
     d="M36.13,27.843c-1.848,3.504,1.179,8.875,6.76,11.997c5.582,3.122,11.604,2.811,13.456-0.692  c1.854-3.504-1.177-8.876-6.759-11.998S37.981,24.34,36.13,27.843z"
     fill="#FF8600" /><path
     id="path527"
     d="M49.324,27.647c3.297,1.843,5.787,4.563,6.663,7.273c0.479,1.477,0.426,2.839-0.155,3.939  c-1.702,3.225-7.39,3.443-12.678,0.485c-5.289-2.958-8.208-7.987-6.505-11.213C38.351,24.906,44.038,24.689,49.324,27.647z   M35.616,27.555c-1.992,3.772,1.157,9.507,7.014,12.781c5.856,3.276,12.241,2.872,14.23-0.9c0.725-1.369,0.803-3.033,0.228-4.81  c-0.969-2.999-3.675-5.979-7.239-7.973C43.993,23.379,37.608,23.783,35.616,27.555z"
     fill="#060506" /><path
     id="path529"
     d="M38.813,29.187c-1.296,2.455,0.979,6.302,5.077,8.596c4.101,2.292,8.478,2.161,9.771-0.294  c1.293-2.455-0.98-6.303-5.077-8.597C44.485,26.599,40.111,26.732,38.813,29.187z"
     fill="#FF8600" /><path
     id="path531"
     d="M41.347,28.02c1.89-0.505,4.563,0.019,6.974,1.368c3.81,2.132,5.974,5.637,4.829,7.813  c-1.147,2.177-5.187,2.214-8.997,0.085c-3.808-2.131-5.972-5.636-4.823-7.811C39.699,28.778,40.396,28.275,41.347,28.02z   M40.989,26.911c-1.25,0.334-1.919,0.774-2.431,1.739c-1.462,2.77,0.626,6.876,5.077,9.368c4.452,2.489,9.079,2.53,10.542-0.24  c1.46-2.77-0.879-6.891-5.332-9.381C46.13,26.878,43.194,26.321,40.989,26.911z"
     fill="#060506" /><path
     id="path533"
     d="M40.003,29.503c0.092,2.335,2.688,5.137,5.802,6.259c3.111,1.125,5.562,0.145,5.47-2.188  c-0.097-2.334-2.688-5.137-5.801-6.261C42.362,26.188,39.912,27.17,40.003,29.503z"
     fill="#FF8600" /><path
     id="path535"
     d="M41.234,28.285c0.865-0.764,2.501-0.843,4.27-0.202c2.708,0.978,5.062,3.387,5.134,5.261  c0.028,0.734-0.307,1.191-0.594,1.445c-0.864,0.766-2.448,1.424-4.217,0.786c-1.768-0.638-3.479-2.068-4.43-3.486  c-0.315-0.472-0.728-1.62-0.757-2.357C40.612,28.997,40.948,28.54,41.234,28.285z M40.291,26.873  c-0.643,0.571-0.963,1.4-0.924,2.398c0.038,1,0.434,2.088,1.142,3.148c1.209,1.807,3.201,3.344,5.326,4.109  c2.127,0.77,4.054,0.646,5.151-0.328c0.646-0.57,0.966-1.4,0.927-2.398c-0.11-2.8-2.952-5.987-6.47-7.257  C43.318,25.777,41.391,25.899,40.291,26.873z"
     fill="#060506" /><path
     id="path537"
     d="M41.288,27.928c0.088,2.246,2.585,4.941,5.581,6.021c2.992,1.082,5.349,0.139,5.261-2.104  c-0.088-2.246-2.588-4.94-5.579-6.021C43.556,24.741,41.2,25.686,41.288,27.928z"
     fill="#FF8600" /><path
     id="path539"
     d="M42.473,26.758c0.832-0.735,2.405-0.811,4.106-0.195c2.605,0.941,4.868,3.258,4.938,5.061  c0.028,0.706-0.295,1.146-0.567,1.389c-0.831,0.736-2.354,1.37-4.055,0.756c-1.701-0.614-3.347-1.989-4.261-3.354  c-0.304-0.455-0.699-1.558-0.729-2.267C41.873,27.443,42.197,27.003,42.473,26.758z M41.566,25.4  c-0.619,0.55-0.928,1.346-0.891,2.307c0.038,0.962,0.418,2.009,1.1,3.028c1.163,1.737,3.079,3.216,5.123,3.952  c2.046,0.74,3.897,0.622,4.958-0.315c0.615-0.548,0.927-1.347,0.891-2.307c-0.106-2.693-2.839-5.759-6.224-6.981  C44.477,24.345,42.623,24.463,41.566,25.4z"
     fill="#060506" /><path
     id="path541"
     d="M36.409,30.128c1.179,2.503-0.758,6.105-4.326,8.048c-3.569,1.944-7.316,0.227-7.316,0.227l3.045-9.284  C27.812,29.119,35.229,27.628,36.409,30.128z"
     fill="#FF8600" /><path
     id="path543"
     d="M27.565,28.593c-0.378,0.14-4.195,9.5-3.946,9.779c1.733,1.947,5.358,2.155,8.709,0.329  c3.832-2.085,5.882-6.05,4.569-8.838C35.583,27.076,31.629,27.1,27.565,28.593z M35.923,30.393c1.038,2.209-0.794,5.466-4.088,7.259  c-3.294,1.794-6.82,1.457-7.862-0.751c-0.348-0.739,2.021-6.133,4.086-7.258C31.354,27.849,34.88,28.186,35.923,30.393z"
     fill="#060506" /><path
     id="path545"
     d="M34.5,30.549c0.99,1.483-0.203,3.996-2.667,5.613c-2.463,1.617-5.267,1.726-6.258,0.243  c-0.992-1.483,0.201-3.996,2.664-5.614C30.706,29.174,33.51,29.066,34.5,30.549z"
     fill="#FF8600" /><path
     id="path547"
     d="M32.997,29.046c-1.493-0.282-3.38,0.206-5.052,1.303c-2.757,1.811-3.999,4.603-2.825,6.358  c1.174,1.754,4.111,1.452,6.872-0.359c2.756-1.811,4.139-4.345,2.967-6.099C34.542,29.627,33.862,29.21,32.997,29.046z M32.767,30.1  c0.404,0.075,1.145,0.121,1.468,0.604c0.812,1.214-0.527,3.591-2.697,5.016c-2.169,1.423-4.69,1.6-5.502,0.385  c-0.813-1.214,0.334-3.444,2.504-4.87C29.95,30.309,31.572,29.873,32.767,30.1z"
     fill="#060506" /><path
     id="path549"
     d="M33.458,29.547c0.851,0.579,0.151,2.304-1.561,3.853c-1.708,1.548-3.786,2.335-4.632,1.756  c-0.848-0.58-0.15-2.305,1.561-3.854C30.538,29.754,32.613,28.966,33.458,29.547z"
     fill="#FF8600" /><path
     id="path551"
     d="M32.261,28.883c-1.196,0.239-2.635,1.039-3.845,2.136c-1.213,1.099-2.02,2.33-2.153,3.292  c-0.081,0.587,0.085,1.041,0.483,1.313c0.401,0.271,0.994,0.34,1.719,0.194c1.195-0.24,2.493-1.076,3.707-2.173  c1.211-1.099,2.159-2.293,2.293-3.257c0.082-0.587-0.087-1.04-0.484-1.313C33.58,28.804,32.986,28.736,32.261,28.883z   M32.112,29.945c0.373-0.075,0.653-0.051,0.829,0.07c0.179,0.122,0.618,0.243,0.575,0.543c-0.096,0.679-0.909,1.715-1.84,2.557  c-0.929,0.842-2.207,1.616-3.051,1.785c-0.372,0.075-0.664-0.095-0.841-0.214c-0.177-0.122-0.245-0.337-0.203-0.639  c0.096-0.679,0.731-1.624,1.66-2.463C30.17,30.743,31.271,30.114,32.112,29.945z"
     fill="#060506" /><path
     id="path553"
     d="M39.854,34.488c0,0-0.079-2.006-0.099-2.546c0.424-0.325,2-1.528,2-1.528  c0.197-0.15,0.295-0.405,0.248-0.654c-0.012-0.07-0.034-0.136-0.067-0.197c-0.082-0.156-0.224-0.273-0.396-0.322  c0,0-1.894-0.545-2.404-0.69c-0.172-0.513-0.806-2.412-0.806-2.412c-0.01-0.035-0.025-0.07-0.043-0.104  c-0.099-0.184-0.279-0.312-0.488-0.34c-0.247-0.032-0.489,0.079-0.629,0.289c0,0-1.09,1.668-1.385,2.119  c-0.53,0.008-2.496,0.038-2.496,0.038c-0.25,0.002-0.476,0.15-0.582,0.379c-0.091,0.195-0.082,0.42,0.017,0.604  c0.017,0.032,0.039,0.064,0.061,0.093c0,0,1.22,1.575,1.546,2.001c-0.156,0.516-0.737,2.432-0.737,2.432  c-0.053,0.175-0.034,0.36,0.049,0.515c0.033,0.062,0.075,0.118,0.124,0.167c0.182,0.173,0.443,0.229,0.676,0.14  c0,0,1.845-0.695,2.343-0.881c0.434,0.312,2.041,1.467,2.041,1.467c0.203,0.147,0.47,0.162,0.689,0.042  C39.73,34.978,39.863,34.742,39.854,34.488z"
     fill="#B80C00" /><polygon
     id="polygon560"
     points="39.201,34.514 36.88,32.843 34.216,33.848 35.055,31.08 33.295,28.806 36.136,28.764   37.713,26.356 38.627,29.096 41.363,29.882 39.088,31.619 "
     fill="url(#XMLID_141_)" /><path
     id="path562"
     d="M25.353,48.726c-0.412-7.363,2.23-20.583,18.823-28.627l-2.895-2.256c0,0-18.381,6.446-18.087,30.614  C23.215,50.069,25.369,48.999,25.353,48.726z"
     fill="#FFFFFF" /><path
     id="path564"
     d="M44.437,19.564c0,0-2.423-2.269-2.935-2.394c-0.341-0.083-1.271,0.321-1.42,0.374  c-0.176,0.063-18.599,7.188-17.472,30.92c0.043,0.896,0.563,1.469,1.406,1.459c0.664-0.008,1.748-0.563,1.719-1.284  c-0.359-9.116,1.955-19.677,18.228-27.566c0.202-0.098,0.798-0.742,0.8-0.97C44.763,19.876,44.639,19.667,44.437,19.564z   M24.768,48.487c-0.242,0.146-0.72,0.308-0.92,0.222c-0.062-0.027-0.065-0.221-0.068-0.259  c-1.577-19.952,13.548-28.404,16.238-29.592c0.088-0.039,1.727-0.816,2.557-0.742c0.831,0.075,0.291,1.981,0.291,1.981  C27.146,28.229,24.741,41.21,24.768,48.487z"
     fill="#060506" /><path
     id="path566"
     d="M49.607,17.319H43.86c0,0,11.033,39.525,37.583,39.525v-6.515C81.443,50.33,60.409,52.601,49.607,17.319z"
     fill="#A60300" /><path
     id="path568"
     d="M49.048,17.498c5.637,18.41,14.118,26.517,20.239,30.076c6.693,3.893,11.996,3.374,12.219,3.35L80.86,50.33  v6.515l0.586-0.597c-25.804,0-36.912-38.7-37.021-39.091l-0.562,0.761h5.747L49.048,17.498z M82.028,49.667l-0.646,0.069  c-0.204,0.022-20.679,1.822-31.216-32.595c0,0-0.151-0.544-0.833-0.544c-0.496,0-6.203,0-6.203,0  c0.027,0.1,3.018,10.963,9.069,20.802c8.062,13.112,18.177,20.043,29.243,20.043h0.585v-0.597V50.33L82.028,49.667L82.028,49.667z"
     fill="#060506" /><path
     id="path570"
     d="M47.111,17.179h-6.502c0,0,11.583,43.502,39.985,43.527v-8.157C80.594,52.55,59.335,55.259,47.111,17.179z"
     fill="#FFFFFF" /><path
     id="path572"
     d="M80.98,52.102c-0.125-0.113-0.291-0.167-0.459-0.145c-0.209,0.026-20.923,2.219-32.854-34.963  c-0.08-0.246-0.303-0.412-0.557-0.412h-6.502c-0.182,0-0.354,0.088-0.465,0.235c-0.11,0.147-0.148,0.339-0.099,0.519  c0.027,0.109,2.989,11.082,9.405,21.907c8.545,14.422,19.312,22.051,31.145,22.061c0.155,0,0.309-0.062,0.414-0.174  c0.11-0.112,0.171-0.264,0.171-0.422v-8.157C81.179,52.379,81.107,52.215,80.98,52.102z M41.391,17.777h5.957  C53.709,37.33,62.17,45.33,68.458,49.081c5.621,3.354,9.894,3.579,11.55,3.528v7.486C54.82,59.519,43.083,23.465,41.391,17.777z"
     fill="#060506" /><path
     id="path574"
     d="M65.993,54.772l-0.028,0.472l0.462-0.028c0.104-0.006,2.515-0.17,4.13-1.822  c0.688-0.699,1.107-1.542,1.368-2.29c0.268,0.742,0.687,1.575,1.361,2.266c1.615,1.652,4.021,1.815,4.128,1.822l0.462,0.028  l-0.027-0.471c-0.005-0.104-0.167-2.562-1.781-4.213c-0.678-0.687-1.479-1.114-2.203-1.382c0.726-0.268,1.53-0.695,2.208-1.383  c1.618-1.651,1.775-4.11,1.78-4.215l0.026-0.47l-0.461,0.028c-0.103,0.006-2.513,0.17-4.13,1.821  c-0.682,0.694-1.104,1.529-1.362,2.274c-0.261-0.749-0.684-1.593-1.369-2.293c-1.617-1.651-4.023-1.815-4.13-1.822l-0.462-0.028  l0.028,0.471c0.006,0.104,0.166,2.562,1.782,4.214c0.688,0.704,1.521,1.136,2.265,1.402c-0.737,0.267-1.572,0.699-2.265,1.404  C66.159,52.21,65.999,54.669,65.993,54.772z M71.453,48.669c-0.729-0.13-2.104-0.499-3.098-1.509  c-0.983-1.007-1.351-2.413-1.479-3.159c0.729,0.131,2.107,0.501,3.096,1.508C70.963,46.515,71.325,47.923,71.453,48.669z   M75.488,47.178c-0.984,1.007-2.366,1.376-3.101,1.508c0.126-0.745,0.488-2.148,1.479-3.16c0.985-1.006,2.364-1.376,3.098-1.508  C76.84,44.764,76.478,46.167,75.488,47.178z M72.387,49.619c0.731,0.132,2.109,0.502,3.101,1.509  c0.982,1.006,1.351,2.413,1.479,3.159c-0.729-0.132-2.106-0.502-3.094-1.509C72.88,51.771,72.517,50.365,72.387,49.619z   M69.976,52.802c-0.982,1.007-2.362,1.377-3.097,1.508c0.128-0.745,0.489-2.148,1.479-3.159c0.984-1.007,2.362-1.377,3.099-1.508  C71.325,50.388,70.963,51.795,69.976,52.802z"
     fill="#FF8600" /><path
     id="path576"
     d="M71.9,49.157c-0.057,0.047-1.311,1.155-2.855,1.155c-1.584,0-2.867-1.162-2.867-1.162  s1.283-1.164,2.867-1.165c1.398,0.001,2.562,0.908,2.812,1.118c-0.229-0.281-1.091-1.453-1.091-2.859  c0-1.615,1.146-2.925,1.146-2.925s1.141,1.309,1.14,2.925c0.001,1.375-0.816,2.521-1.063,2.834c0.308-0.25,1.431-1.089,2.774-1.088  c1.585-0.001,2.866,1.164,2.866,1.164s-1.282,1.162-2.866,1.163c-1.38,0-2.525-0.882-2.805-1.11c0.203,0.25,1.097,1.438,1.099,2.872  c-0.002,1.617-1.143,2.926-1.143,2.926s-1.142-1.31-1.142-2.926c0-1.58,1.086-2.86,1.133-2.915l-0.003-0.003L71.9,49.157z"
     fill="#FFFFFF" /><path
     id="path578"
     d="M65.557,49.151l0.351,0.313c0.059,0.051,1.419,1.268,3.142,1.268c0.623,0,1.193-0.162,1.681-0.367  c-0.199,0.493-0.356,1.078-0.356,1.713c0,1.755,1.189,3.146,1.241,3.205l0.31,0.353l0.311-0.353c0.052-0.058,1.24-1.449,1.242-3.205  c-0.002-0.63-0.153-1.209-0.354-1.7c0.479,0.201,1.042,0.358,1.65,0.358c1.723,0,3.083-1.217,3.142-1.268l0.347-0.313l-0.347-0.314  c-0.059-0.052-1.419-1.27-3.142-1.269c-0.607,0-1.173,0.155-1.647,0.355c0.196-0.487,0.352-1.061,0.352-1.683  c0.001-1.754-1.188-3.145-1.24-3.203l-0.311-0.353l-0.31,0.353c-0.052,0.059-1.242,1.45-1.242,3.204c0,0.624,0.152,1.198,0.35,1.686  c-0.479-0.204-1.048-0.363-1.665-0.364c-1.721,0.001-3.083,1.219-3.141,1.27L65.557,49.151z M72.64,46.244  c0,0.922-0.423,1.745-0.729,2.22c-0.307-0.474-0.729-1.294-0.729-2.22c0-0.921,0.429-1.744,0.73-2.22  C72.219,44.497,72.64,45.318,72.64,46.244z M74.762,49.897c-0.9,0-1.71-0.434-2.178-0.746c0.466-0.312,1.271-0.744,2.178-0.743  c0.902,0,1.709,0.432,2.179,0.744C76.47,49.465,75.663,49.897,74.762,49.897z M71.605,54.726L71.605,54.726L71.605,54.726  L71.605,54.726z M71.184,52.077c0-0.92,0.428-1.743,0.729-2.218c0.307,0.475,0.729,1.297,0.729,2.218  c-0.002,0.921-0.424,1.744-0.729,2.22C71.607,53.821,71.184,52.999,71.184,52.077z M69.043,49.894c-0.903,0-1.71-0.432-2.176-0.744  c0.463-0.312,1.269-0.744,2.176-0.745c0.902,0.001,1.712,0.434,2.177,0.746C70.755,49.462,69.951,49.894,69.043,49.894z"
     fill="#060506" /><path
     id="path580"
     d="M70.482,50.625c0.789,0.804,2.062,0.804,2.854,0c0.788-0.803,0.788-2.106,0-2.911  c-0.789-0.804-2.062-0.804-2.854,0C69.696,48.518,69.696,49.821,70.482,50.625z"
     fill="#D90000" /><path
     id="path582"
     d="M70.772,48.009c0.627-0.639,1.646-0.639,2.271,0c0.304,0.311,0.47,0.722,0.47,1.161  c0,0.438-0.166,0.849-0.469,1.159c-0.627,0.639-1.646,0.64-2.271,0C70.147,49.69,70.147,48.649,70.772,48.009z M70.192,50.922  c0.944,0.966,2.484,0.966,3.438,0c0.459-0.468,0.71-1.09,0.71-1.751c0-0.663-0.252-1.285-0.711-1.753  c-0.946-0.965-2.487-0.966-3.437,0C69.247,48.383,69.247,49.955,70.192,50.922z"
     fill="#060506" /></g>



















<linearGradient
   id="XMLID_142_"
   gradientUnits="userSpaceOnUse"
   x1="-4040.9517"
   y1="17113.5684"
   x2="-4035.2119"
   y2="17107.0547"
   gradientTransform="matrix(0.8784 -0.4778 0.4778 0.8784 -4566.9053 -16840.8887)">
	<stop
   offset="0.0111"
   style="stop-color:#EFF711"
   id="stop623" />
	<stop
   offset="1"
   style="stop-color:#FF6500"
   id="stop625" />
</linearGradient>












<path
   id="XMLID_1_"
   fill="none"
   stroke="#404040"
   stroke-width="0.0882"
   d="M16.88,129.441c0,2.984,1.978,5.407,4.417,5.407h55.51  c2.438,0,4.414-2.422,4.414-5.407V20.646c0-2.984-1.976-5.406-4.414-5.406H21.296c-2.438,0-4.417,2.422-4.417,5.406L16.88,129.441  L16.88,129.441z" />
<use
   x="0"
   y="0"
   inkscape:tiled-clone-of="#g3004"
   xlink:href="#g3004"
   transform="matrix(-1,0,0,-1,98.641735,150.16032)"
   id="use3148"
   width="98.098999"
   height="150.086" /><g
   id="g2992"><g
     id="g369">
	<path
   id="path371"
   d="M13.582,72.666l0.571,1.111l1.908,3.711c0,0,0.556,1.089,0.563,1.084l1.08-0.545   c0.1-0.05,10.293-5.024,30.531,0.27c23.071,6.027,34.71-0.021,35.197-0.28l1.086-0.587L83.95,76.32l-1.904-3.711   c0,0-0.562-1.088-0.562-1.086l-1.079,0.546c-0.104,0.051-10.292,5.022-30.531-0.266c-23.071-6.031-34.712,0.022-35.197,0.283   L13.582,72.666z M18.241,76.321l-1.907-3.71l-0.515,1.694c0.45-0.242,11.273-5.864,33.435-0.07   c21.341,5.579,32.149,0.128,32.259,0.072l-1.649-0.536l1.902,3.711l0.52-1.695c-0.448,0.242-11.272,5.864-33.435,0.071   c-21.34-5.579-32.15-0.128-32.257-0.073L18.241,76.321z"
   fill="#060506" />
</g><g
     id="g373">
	<path
   id="path375"
   d="M14.688,73.018l0.191,0.37l1.907,3.711c0,0,0.187,0.363,0.188,0.363l0.361-0.188   c0.103-0.053,10.454-5.194,31.103,0.203c22.77,5.951,34.135,0.042,34.611-0.212l0.361-0.195l-0.191-0.37l-1.902-3.708l-0.188-0.365   l-0.359,0.186c-0.104,0.053-10.455,5.192-31.104-0.203c-22.768-5.952-34.138-0.043-34.61,0.212L14.688,73.018z M17.513,76.71   L15.607,73l-0.172,0.565c0.461-0.249,11.557-6.014,34.023-0.142c21.043,5.5,31.577,0.192,31.679,0.139l-0.55-0.179l1.906,3.711   l0.172-0.565c-0.461,0.248-11.562,6.018-34.023,0.146c-21.043-5.5-31.576-0.19-31.68-0.143L17.513,76.71z"
   fill="#D90000" />
</g><g
     id="g377">
	<path
   id="path379"
   d="M15.243,73.194c0.466-0.251,11.695-6.09,34.316-0.176c20.913,5.467,31.288,0.225,31.394,0.171l1.903,3.711   c-0.471,0.252-11.692,6.09-34.315,0.177c-20.914-5.467-31.288-0.225-31.39-0.171L15.243,73.194z"
   fill="#FF8600" />
</g><g
     id="g381">
	<ellipse
   id="ellipse383"
   ry="1.43"
   rx="1.402"
   cy="72.531"
   cx="32.624"
   fill="#D90000" />
</g><g
     id="g385">
	<path
   id="path387"
   d="M32.624,71.518c0.547,0,0.991,0.455,0.991,1.012c0,0.558-0.444,1.011-0.991,1.011   c-0.548,0-0.992-0.453-0.992-1.011C31.632,71.973,32.076,71.518,32.624,71.518z M30.811,72.53c0,1.02,0.813,1.85,1.812,1.85   s1.812-0.83,1.812-1.85c0-1.02-0.813-1.85-1.812-1.85C31.625,70.681,30.811,71.511,30.811,72.53z"
   fill="#FFFFFF" />
</g></g><path
   d="M 91.3475,0.025500014 L 6.7885,0.025500014 C 3.0735,0.025500014 0.062500001,3.0625 0.062500001,6.8065 L 0.062500001,143.2445 C 0.062500001,146.9875 3.0735,150.0235 6.7885,150.0235 L 91.3455,150.0235 C 95.0585,150.0235 98.0725,146.9865 98.0725,143.2445 L 98.0745,6.8065 C 98.0745,3.0625 95.0605,0.025500014 91.3475,0.025500014 z M 81.2395,129.4225 C 81.2395,132.4075 79.2635,134.8295 76.8255,134.8295 L 21.3155,134.8295 C 18.8765,134.8295 16.8985,132.4065 16.8985,129.4225 L 16.8975,20.6275 C 16.8975,17.6435 18.8765,15.2215 21.3145,15.2215 L 76.8255,15.2215 C 79.2635,15.2215 81.2395,17.6435 81.2395,20.6275 L 81.2395,129.4225 z "
   id="path641"
   style="fill:#f7f7f7;stroke:#060506;stroke-width:0.0882" /><g
   id="g2986"><path
     id="path643"
     d="M11.985,31.668c-1.604-1.414-2.893-3.239-2.893-3.239s-1.288,1.825-2.891,3.239  c-1.79,1.575-1.391,2.957-1.05,3.607c0.401,0.759,1.304,1.134,2.082,1.134c1.165,0,1.562-1.209,1.562-1.209s0.009,0.437-0.166,0.94  c-0.335,0.964-0.784,1.317-0.784,1.317h2.491c0,0-0.447-0.353-0.782-1.317C9.38,35.636,9.388,35.2,9.388,35.2  s0.397,1.209,1.562,1.209c0.779,0,1.683-0.375,2.081-1.134C13.374,34.624,13.773,33.242,11.985,31.668z"
     fill="#060506" /><path
     id="path645"
     d="M86.113,119.909c1.604,1.411,2.895,3.237,2.895,3.237s1.286-1.826,2.895-3.237  c1.792-1.569,1.392-2.96,1.053-3.604c-0.399-0.762-1.311-1.137-2.08-1.137c-1.166,0-1.562,1.208-1.562,1.208  s-0.012-0.438,0.162-0.938c0.335-0.964,0.782-1.319,0.782-1.319h-2.489c0,0,0.447,0.355,0.781,1.319  c0.177,0.504,0.165,0.938,0.165,0.938s-0.396-1.208-1.562-1.208c-0.774,0-1.686,0.375-2.08,1.137  C84.727,116.95,84.325,118.335,86.113,119.909z"
     fill="#060506" /><path
     id="path647"
     d="M6.35,9.973c-0.674,0.675-1.015,1.645-1.015,2.883c0,0,0,3.294,0,3.624  c-0.255-0.008-1.073-0.033-1.073-0.033l0.005,0.182v1.385c0,0,0.834,0.027,1.067,0.035c0,0.274,0,1.487,0,1.487  c0,1.237,0.342,2.207,1.016,2.881c0.648,0.652,1.57,0.995,2.738,1.018c1.176-0.022,2.098-0.365,2.747-1.018  c0,0,0.198-0.243,0.307-0.377c0.495,0.081,1.031,0.126,1.602,0.126h0.176v-1.565h-0.176c-0.356,0-0.684-0.03-0.999-0.069  c0.059-0.315,0.106-0.64,0.106-0.996v-6.68c0-1.237-0.342-2.207-1.017-2.884c-0.651-0.653-1.574-0.996-2.74-1.018  C7.922,8.977,7,9.32,6.35,9.973z M6.917,19.54c0,0,0-0.901,0-1.242c0.929,0.272,1.264,0.707,1.437,1.111  c0.404,0.937,1.114,1.634,2.086,2.1c-0.352,0.293-0.801,0.45-1.35,0.45C6.979,21.959,6.917,19.788,6.917,19.54z M6.917,12.849  c0-0.247,0.061-2.419,2.174-2.419c2.116,0,2.176,2.172,2.176,2.419v6.691c0,0.089-0.02,0.31-0.069,0.57  c-0.555-0.275-0.952-0.658-1.165-1.153l0,0c-0.523-1.212-1.552-1.953-3.116-2.282C6.917,16.427,6.917,12.849,6.917,12.849z"
     fill="#060506" /><path
     id="path649"
     d="M86.263,127.634l-0.007,0.008L86.263,127.634c-0.001,0.001-0.212,0.263-0.305,0.378  c-0.5-0.081-1.036-0.126-1.604-0.126h-0.18v1.562h0.18c0.348,0,0.676,0.03,0.994,0.069c-0.059,0.312-0.104,0.641-0.104,0.997v6.681  c0,1.236,0.342,2.207,1.017,2.883c0.654,0.654,1.577,0.996,2.741,1.021c1.168-0.021,2.09-0.362,2.745-1.021  c0.674-0.676,1.015-1.646,1.015-2.884c0,0,0-3.294,0-3.624c0.259,0.008,1.073,0.033,1.073,0.033l-0.005-0.185v-1.389  c0,0-0.835-0.025-1.068-0.037c0-0.271,0-1.479,0-1.479c0-1.237-0.341-2.207-1.015-2.884c-0.652-0.652-1.574-0.993-2.739-1.021  C87.837,126.64,86.914,126.982,86.263,127.634z M87.523,139.071c-0.66-0.66-0.691-1.67-0.691-1.865v-6.688  c0-0.086,0.02-0.312,0.067-0.568c0.556,0.274,0.948,0.656,1.166,1.153c0.521,1.213,1.553,1.954,3.112,2.281c0,0.249,0,3.822,0,3.822  c0,0.196-0.029,1.206-0.69,1.866c-0.364,0.365-0.862,0.551-1.479,0.55C88.39,139.622,87.891,139.437,87.523,139.071z M89.007,128.09  c2.113,0,2.175,2.173,2.175,2.421c0,0,0,0.897,0,1.242c-0.93-0.271-1.264-0.707-1.438-1.108h0.001  c-0.396-0.922-1.122-1.636-2.087-2.104C88.011,128.25,88.46,128.09,89.007,128.09z"
     fill="#060506" /></g></svg>