<?xml version="1.0" encoding="UTF-8" standalone="no"?>
<!-- Generator: Adobe Illustrator 12.0.0, SVG Export Plug-In . SVG Version: 6.00 Build 51448)  -->
<svg
   xmlns:dc="http://purl.org/dc/elements/1.1/"
   xmlns:cc="http://web.resource.org/cc/"
   xmlns:rdf="http://www.w3.org/1999/02/22-rdf-syntax-ns#"
   xmlns:svg="http://www.w3.org/2000/svg"
   xmlns="http://www.w3.org/2000/svg"
   xmlns:xlink="http://www.w3.org/1999/xlink"
   xmlns:sodipodi="http://sodipodi.sourceforge.net/DTD/sodipodi-0.dtd"
   xmlns:inkscape="http://www.inkscape.org/namespaces/inkscape"
   version="1.1"
   id="图层_1"
   width="98.1"
   height="150.086"
   viewBox="0 0 98.1 150.086"
   overflow="visible"
   enable-background="new 0 0 98.1 150.086"
   xml:space="preserve"
   sodipodi:version="0.32"
   inkscape:version="0.45.1"
   sodipodi:docname="52.svg"
   sodipodi:docbase="/home/zhangxin/桌面/简化版扑克"
   inkscape:output_extension="org.inkscape.output.svg.inkscape"><metadata
   id="metadata558"><rdf:RDF><cc:Work
       rdf:about=""><dc:format>image/svg+xml</dc:format><dc:type
         rdf:resource="http://purl.org/dc/dcmitype/StillImage" /></cc:Work></rdf:RDF></metadata><defs
   id="defs556" /><sodipodi:namedview
   inkscape:window-height="713"
   inkscape:window-width="1024"
   inkscape:pageshadow="2"
   inkscape:pageopacity="0.0"
   guidetolerance="10.0"
   gridtolerance="10.0"
   objecttolerance="10.0"
   borderopacity="1.0"
   bordercolor="#666666"
   pagecolor="#ffffff"
   id="base"
   inkscape:zoom="2.5252189"
   inkscape:cx="49.049999"
   inkscape:cy="75.042999"
   inkscape:window-x="0"
   inkscape:window-y="0"
   inkscape:current-layer="图层_1" />
<path
   fill="#F7F7F7"
   stroke="#060506"
   stroke-width="0.0882"
   d="M98.054,143.263c0,3.742-3.014,6.779-6.726,6.779H6.77  c-3.714,0-6.726-3.036-6.726-6.779V6.825c0-3.744,3.012-6.781,6.726-6.781h84.56c3.712,0,6.727,3.037,6.727,6.781L98.054,143.263  L98.054,143.263z"
   id="path3" />































































<radialGradient
   id="XMLID_127_"
   cx="1850.8184"
   cy="-56.8501"
   r="13.9446"
   gradientTransform="matrix(-1.2713 -0.092 0.1336 -0.9709 2416.5308 160.2918)"
   gradientUnits="userSpaceOnUse">
	<stop
   offset="0"
   style="stop-color:#FFFFFF"
   id="stop258" />
	<stop
   offset="0.0614"
   style="stop-color:#F6F4F0"
   id="stop260" />
	<stop
   offset="0.1786"
   style="stop-color:#DFD8C9"
   id="stop262" />
	<stop
   offset="0.2753"
   style="stop-color:#CABDA5"
   id="stop264" />
	<stop
   offset="1"
   style="stop-color:#5A3D1B"
   id="stop266" />
</radialGradient>




<radialGradient
   id="XMLID_128_"
   cx="1845.1484"
   cy="-41.002"
   r="11.4904"
   gradientTransform="matrix(-1.2713 -0.092 0.1573 -1.1431 2415.0037 171.4722)"
   gradientUnits="userSpaceOnUse">
	<stop
   offset="0"
   style="stop-color:#FFFFFF"
   id="stop277" />
	<stop
   offset="0.246"
   style="stop-color:#F4F4F0"
   id="stop279" />
	<stop
   offset="0.7158"
   style="stop-color:#D9D8C9"
   id="stop281" />
	<stop
   offset="1"
   style="stop-color:#C6C4AF"
   id="stop283" />
</radialGradient>

















<radialGradient
   id="XMLID_129_"
   cx="-183.5371"
   cy="4351.5347"
   r="13.9448"
   gradientTransform="matrix(1.2713 0.092 -0.1336 0.9709 857.2281 -4102.6699)"
   gradientUnits="userSpaceOnUse">
	<stop
   offset="0"
   style="stop-color:#FFFFFF"
   id="stop320" />
	<stop
   offset="0.0614"
   style="stop-color:#F6F4F0"
   id="stop322" />
	<stop
   offset="0.1786"
   style="stop-color:#DFD8C9"
   id="stop324" />
	<stop
   offset="0.2753"
   style="stop-color:#CABDA5"
   id="stop326" />
	<stop
   offset="1"
   style="stop-color:#5A3D1B"
   id="stop328" />
</radialGradient>




<radialGradient
   id="XMLID_130_"
   cx="-189.1943"
   cy="3703.2886"
   r="11.4903"
   gradientTransform="matrix(1.2713 0.092 -0.1573 1.1431 858.7591 -4113.8501)"
   gradientUnits="userSpaceOnUse">
	<stop
   offset="0"
   style="stop-color:#FFFFFF"
   id="stop339" />
	<stop
   offset="0.246"
   style="stop-color:#F4F4F0"
   id="stop341" />
	<stop
   offset="0.7158"
   style="stop-color:#D9D8C9"
   id="stop343" />
	<stop
   offset="1"
   style="stop-color:#C6C4AF"
   id="stop345" />
</radialGradient>

























































<g
   id="g2710"
   inkscape:tile-w="69.524999"
   inkscape:tile-h="60.113835"
   inkscape:tile-cx="49.108499"
   inkscape:tile-cy="48.046917"><g
     id="g73">
	<path
   id="path75"
   d="M73.696,44.535c0,7.302-8.448,13.222-18.87,13.222c-10.424,0-18.875-5.919-18.875-13.222   c0-7.302,8.45-13.221,18.875-13.221C65.246,31.314,73.696,37.233,73.696,44.535z"
   fill="#FFFFFF" />
</g><g
     id="g77">
	<path
   id="path79"
   d="M37.637,48.144l-9.37,2.456c6.845,7.053,7.405,18.096,7.05,24.514l6.051-0.07   C42.542,67.646,44.376,55.429,37.637,48.144z"
   fill="#D90000" />
</g><g
     id="g81">
	<path
   id="path83"
   d="M18.713,53.573c0,0-2.422,1.077-3.071,2.18c-0.648,1.103-1.296,4.264-1.296,4.264s8.68,6.891,9.613,15.096   h4.968C29.335,68.199,28.233,57.7,18.713,53.573z"
   fill="#212462" />
</g><g
     id="g85">
	<path
   id="path87"
   d="M28.919,50.509l-10.207,3.064c7.994,7.147,9.002,16.158,8.744,21.539h8.505   C38.13,56.748,28.919,50.509,28.919,50.509z"
   fill="#212462" />
</g><g
     id="g89">
	<path
   id="path91"
   d="M25.413,51.216l-1.627,0.546c0.162,0.153,0.333,0.304,0.489,0.458l-0.902,0.362   c-0.175-0.184-0.37-0.362-0.553-0.544l-2.794,0.799c1.078,0.976,2.036,1.986,2.875,3.022l2.443-0.928   c-0.292-0.39-0.591-0.779-0.912-1.164l0.962-0.367c0.778,0.871,1.471,1.761,2.088,2.665l-1.054,0.422   c-0.271-0.426-0.562-0.848-0.868-1.269l-2.449,0.906c1.14,1.444,2.072,2.93,2.819,4.427l2.261-0.784   c-0.3-0.662-0.621-1.324-0.987-1.982l1.106-0.422c0.925,1.551,1.642,3.122,2.19,4.678l-1.285,0.374   c-0.235-0.72-0.507-1.444-0.816-2.168l-2.229,0.787c0.996,2.099,1.651,4.205,2.06,6.226l2.019-0.49   c-0.102-0.65-0.225-1.308-0.377-1.978l1.315-0.477c0.416,1.627,0.67,3.213,0.802,4.711l-1.453,0.198   c-0.046-0.629-0.117-1.277-0.21-1.937l-1.998,0.496c0.485,2.634,0.561,5.099,0.462,7.187l1.667,0.001   c0.095-0.948,0.159-2.014,0.167-3.168l1.492-0.054c0.004,1.23-0.061,2.361-0.157,3.366h1.288   C34.651,62.494,28.821,53.596,25.413,51.216z"
   fill="#FFFFFF" />
</g><g
     id="g93">
	<path
   id="path95"
   d="M41.637,63.987c-0.276-5.182-1.733-9.125-2.508-10.894c-0.188,0.242-0.384,0.484-0.594,0.724   c0.773,1.869,2.034,5.561,2.283,10.216c0.161,3.031,0.084,6.907-0.724,10.976h0.843C41.729,70.921,41.803,67.035,41.637,63.987z"
   fill="#FFFFFF" />
</g><g
     id="g97">
	<path
   id="path99"
   d="M77.712,55.867l-5.571-4.932c-11.494,6.177-14.083,18.292-14.652,24.178h4.653   C64.376,69.384,69.329,59.399,77.712,55.867z"
   fill="#D90000" />
</g><g
     id="g101">
	<path
   id="path103"
   d="M74.188,53.286l-0.347-0.76c-10.74,5.101-14.787,14.329-16.105,22.482h0.836   C59.883,67.1,63.832,58.203,74.188,53.286z"
   fill="#FFFFFF" />
</g><g
     id="g105">
	<path
   id="path107"
   d="M83.871,62.375c-8.052-0.216-12.979,6.783-15.708,12.738h6.19c3.433-3.22,6.882-3.827,6.882-3.827   L83.871,62.375z"
   fill="#FFFFFF" />
</g><g
     id="g109">
	<path
   id="path111"
   d="M81.814,68.516c0,0-4.568,0.553-9.229,6.597h7.277L81.814,68.516z"
   fill="#060506" />
</g><g
     id="g113">
	<path
   id="path115"
   d="M83.871,62.375l-6.627-6.851c0,0-9.911,1.805-15.646,19.589h8.049   C72.034,70.508,76.354,64.898,83.871,62.375z"
   fill="#212462" />
</g><g
     id="g117">
	<path
   id="path119"
   d="M69.371,69.722c-0.339,0.542-0.656,1.083-0.947,1.62l-1.04-0.767c0.708-1.266,1.548-2.558,2.528-3.822   l0.817,0.958c-0.393,0.525-0.749,1.056-1.094,1.586l1.356,1.253c1.132-1.613,2.489-3.202,4.104-4.643l-1.396-1.602   c-0.532,0.513-1.036,1.04-1.508,1.578l-0.841-0.851c1.054-1.148,2.241-2.239,3.585-3.227l0.681,0.821   c-0.549,0.431-1.063,0.881-1.562,1.344l1.426,1.61c1.186-1.013,2.504-1.943,3.965-2.75l-1.521-1.794   c-0.404,0.246-0.801,0.5-1.184,0.763L76.1,60.998c0.842-0.544,1.736-1.046,2.688-1.497l0.595,0.717   c-0.403,0.206-0.794,0.426-1.174,0.652l1.505,1.811c1.068-0.571,2.217-1.07,3.44-1.49l-1.834-1.843   c-0.211,0.088-0.437,0.165-0.646,0.256l-0.547-0.685c0.181-0.073,0.376-0.136,0.562-0.205l-1.031-1.143   c-3.562,0.705-11.546,6.072-15.607,17.541h1.198c0.269-0.692,0.575-1.427,0.932-2.191l1.125,0.656   c-0.236,0.529-0.453,1.042-0.648,1.535h1.685c0.646-1.336,1.415-2.738,2.365-4.141L69.371,69.722z"
   fill="#FFFFFF" />
</g><g
     id="g121">
	<path
   id="path123"
   d="M49.051,32.259c-0.316-0.072-0.628,0.13-0.699,0.452c-0.029,0.135-3.04,13.616-8.071,19.749   c-1.425,1.737-3.365,2.817-5.321,2.962c-1.712,0.127-3.349-0.47-4.728-1.725c-0.957-0.871-1.438-2.052-1.433-3.511   c0.008-2.16,1.119-4.442,2.188-5.4c1.593-1.427,4.073-1.51,5.768-0.194c1.524,1.185,1.678,3.24,0.862,4.344   c-0.483,0.656-1.138,1.074-1.75,1.119c-0.402,0.029-0.759-0.109-1.057-0.412c-0.721-0.731-0.182-1.505-0.157-1.538   c0.19-0.266,0.134-0.64-0.126-0.834c-0.261-0.195-0.629-0.136-0.819,0.13c-0.402,0.562-0.863,1.931,0.276,3.089   c0.542,0.548,1.221,0.81,1.968,0.756c0.941-0.069,1.912-0.662,2.596-1.585c0-0.001,0-0.001,0-0.001c0-0.001,0-0.002,0.002-0.003   c0-0.001,0-0.001,0-0.001c0.001-0.001,0.003-0.002,0.003-0.003c3.358-4.461,6.135-15.112,6.251-15.563   c0.084-0.319-0.103-0.646-0.416-0.729c-0.314-0.084-0.632,0.106-0.716,0.425c-0.022,0.09-1.982,7.6-4.5,12.565   c-0.211-0.994-0.76-1.969-1.71-2.707c-2.13-1.653-5.247-1.548-7.249,0.247c-1.247,1.117-2.577,3.702-2.586,6.292   c-0.008,1.79,0.623,3.314,1.823,4.407c1.621,1.476,3.555,2.177,5.592,2.025c2.271-0.168,4.505-1.403,6.134-3.386   c5.214-6.356,8.192-19.69,8.315-20.255C49.564,32.651,49.367,32.332,49.051,32.259z"
   fill="#060506" />
</g><g
     id="g125">
	<path
   id="path127"
   d="M38.086,49.295c0.976-1.322,0.868-3.745-0.977-5.177c-1.844-1.433-4.664-1.433-6.508,0.22   c-1.843,1.653-3.904,6.941-0.759,9.805c3.559,3.239,8.177,2.006,10.889-1.298c5.183-6.318,8.096-19.405,8.096-19.405l-4.78,1.194   C44.046,34.633,41.665,44.558,38.086,49.295"
   fill="#FFFFFF" />
</g><g
     id="g129">
	<path
   id="path131"
   d="M28.824,46.795L28.81,46.83l0.059,0.02c0.003-0.003,0.005-0.008,0.007-0.01L28.824,46.795z"
   fill="#060506" />
</g><g
     id="g153">
	<polygon
   id="polygon155"
   points="48.796,76.779 42.851,68.488 50.979,62.423 56.919,70.714  "
   fill="#FF8600" />
</g><g
     id="g157">
	<path
   id="path159"
   d="M49.293,76.408l-5.945-8.29c0.095,0.134,0.136,0.301,0.111,0.467c-0.025,0.164-0.112,0.312-0.245,0.41   l8.125-6.064c-0.273,0.205-0.659,0.145-0.858-0.136l5.943,8.291c-0.097-0.135-0.138-0.303-0.111-0.468   c0.025-0.164,0.112-0.312,0.243-0.411l-8.125,6.065C48.705,76.066,49.09,76.127,49.293,76.408z M57.419,70.342l-5.945-8.291   c-0.2-0.28-0.586-0.34-0.859-0.136l-8.125,6.065c-0.132,0.099-0.218,0.246-0.245,0.411c-0.026,0.165,0.015,0.333,0.111,0.467   l5.945,8.29c0.201,0.28,0.586,0.342,0.861,0.137l8.125-6.062c0.132-0.099,0.218-0.246,0.241-0.412   C57.555,70.645,57.514,70.477,57.419,70.342z"
   fill="#060506" />
</g><g
     id="g161">
	<polygon
   id="polygon163"
   points="49.166,74.335 45.242,68.866 50.604,64.866 54.524,70.335  "
   fill="#FFFFFF" />
</g><g
     id="g177">
	<path
   id="path179"
   d="M55.022,69.964l-3.92-5.468c-0.202-0.281-0.59-0.342-0.859-0.137l-5.361,4   c-0.131,0.098-0.219,0.246-0.244,0.411s0.016,0.333,0.112,0.467l3.92,5.469c0.201,0.281,0.586,0.341,0.862,0.136l5.358-4   c0.135-0.099,0.222-0.247,0.245-0.411S55.119,70.098,55.022,69.964z M46.106,69.003l4.365-3.259l3.193,4.456l-4.365,3.258   L46.106,69.003z"
   fill="#212462" />
</g><g
     id="g193">
	<path
   id="path195"
   d="M62.964,60.043l-0.001-0.002c0,0.003,0.002,0.007,0.004,0.009v0.001L62.964,60.043z"
   fill="#060506" />
</g><g
     id="g225">
	<polygon
   id="polygon227"
   points="80.735,61.029 74.931,61.029 74.931,40.602 77.979,35.575 80.735,40.602  "
   fill="#FFFFFF" />
</g><g
     id="g229">
	<path
   id="path231"
   d="M78.001,34.403l-3.645,6.01v20.616l0.57,0.628h5.807l0.568-0.628V40.427L78.001,34.403z M80.164,40.778   v19.623h-4.665V40.793l2.454-4.045L80.164,40.778z"
   fill="#060506" />
</g><g
     id="g233">
	<polygon
   id="polygon235"
   points="75.183,62.6 75.183,64.835 75.183,65.149 75.183,67.07 80.194,67.07 80.194,65.149 80.194,64.835    80.194,62.6  "
   fill="#FFFFFF" />
</g><g
     id="g237">
	<path
   id="path239"
   d="M80.514,60.366h-5.331c0,0-1.076-1.607-2.917-1.607s-2.603,1.746-2.603,3.283   c0,1.536,1.333,2.653,2.603,2.653c1.271,0,2.479-0.768,2.479-2.165h5.836L80.514,60.366z"
   fill="#FFFFFF" />
</g><g
     id="g241">
	<path
   id="path243"
   d="M81.325,67.698V62.05l0.523-2.312h-5.828c-0.425-0.507-1.521-1.606-3.182-1.606   c-2.183,0-3.173,2.027-3.173,3.911c0,1.963,1.639,3.282,3.173,3.282c0.883,0,1.764-0.339,2.348-0.98v3.354L81.325,67.698   L81.325,67.698z M80.201,66.441H76.33v-0.978h3.871V66.441z M80.201,64.206H76.33v-0.978h3.871V64.206z M74.767,60.62   c-0.9-0.396-1.781,0.276-1.88,0.354c-0.255,0.204-0.312,0.597-0.126,0.878c0.187,0.281,0.541,0.343,0.796,0.14   c0,0.001,0,0-0.001,0.002c0.116-0.092,0.519-0.326,0.787-0.207c0.184,0.081,0.312,0.22,0.403,0.378v0.365   c0,1.008-0.958,1.537-1.903,1.537c-0.961,0-2.029-0.832-2.029-2.025c0-0.986,0.426-2.654,2.029-2.654   c1.534,0,2.449,1.338,2.458,1.352l0.171,0.255h0.289h4.775l-0.271,0.907h-4.372C75.706,61.334,75.306,60.858,74.767,60.62z"
   fill="#060506" />
</g><g
     id="g245">
	<path
   id="path247"
   d="M81.121,72.133c0,3.414-0.508,5.342-3.046,5.342c-1.284,0-3.855,0.104-3.997-1.521   c-0.128-1.462,0.617-1.885,0.617-1.885s-1-0.206-1-1.781c0-1.414,0.811-1.938,0.811-1.938s-0.666-0.524-0.666-1.31   c0-2.252,2.632-2.462,4.616-2.462C80.997,66.581,81.121,68.719,81.121,72.133z"
   fill="#FFFFFF" />
</g><g
     id="g249">
	<path
   id="path251"
   d="M80.55,72.133c0,3.612-0.579,4.713-2.475,4.713l-0.229,0.001c-1.013,0.004-3.117,0.014-3.204-0.952   c-0.087-0.979,0.313-1.265,0.33-1.276c0.198-0.138,0.314-0.403,0.271-0.658c-0.044-0.254-0.213-0.46-0.444-0.508   c-0.077-0.022-0.535-0.196-0.535-1.163c0-1.008,0.521-1.387,0.538-1.403c0.158-0.112,0.263-0.309,0.268-0.516   c0.008-0.208-0.077-0.409-0.232-0.53c0,0-0.427-0.36-0.427-0.798c0-1.268,1.248-1.833,4.046-1.833   C80.276,67.21,80.55,68.318,80.55,72.133z M78.456,65.952c-1.418,0-5.188,0-5.188,3.09c0,1.078,0.813,1.748,0.905,1.821   c-0.157-0.124-0.247-0.327-0.239-0.539c0.01-0.213,0.115-0.406,0.28-0.514c-0.401,0.262-1.09,1.079-1.09,2.479   c0,1.658,0.959,2.294,1.466,2.398c-0.242-0.049-0.426-0.261-0.461-0.527c-0.035-0.266,0.087-0.527,0.305-0.649   c-0.404,0.229-1.058,1.014-0.927,2.505c0.188,2.104,2.894,2.094,4.35,2.087l0.221-0.001c3.336,0,3.614-3.081,3.614-5.97   C81.692,69.094,81.692,65.952,78.456,65.952z"
   fill="#060506" />
</g><g
     id="g253">
	<path
   id="path255"
   d="M30.505,28.363c-2.663-2.345-4.799-5.377-4.799-5.377s-2.138,3.033-4.801,5.377   c-1.731,1.522-2.229,2.936-2.231,4.065c-0.001,0.811,0.251,1.474,0.489,1.925c0.664,1.26,2.161,1.882,3.455,1.882   c1.936,0,2.595-2.006,2.595-2.006s0,0.005,0,0.013c0,0.08-0.005,0.521-0.14,1.084c-0.008,0.043-0.022,0.086-0.033,0.131   c-0.03,0.108-0.062,0.22-0.101,0.334c-0.001,0.003-0.003,0.007-0.004,0.01c-0.307,0.879-0.669,1.451-0.935,1.787   c-0.213,0.272-0.361,0.39-0.361,0.39h4.134c0,0-0.148-0.117-0.362-0.39c-0.263-0.336-0.625-0.908-0.933-1.787   c-0.001-0.003-0.002-0.007-0.004-0.01c-0.039-0.114-0.072-0.225-0.102-0.333c-0.012-0.044-0.022-0.088-0.032-0.131   c-0.134-0.558-0.139-0.996-0.139-1.083c0-0.01,0-0.015,0-0.015s0.658,2.006,2.592,2.006c1.293,0,2.793-0.622,3.457-1.882   c0.234-0.451,0.49-1.114,0.488-1.925C32.734,31.299,32.235,29.885,30.505,28.363z"
   fill="#060506" />
</g><path
     id="path268"
     d="M38.262,43.93c-1.029,7.477,6.074,14.113,15.864,14.822c9.79,0.708,18.562-4.779,19.591-12.256  c1.029-7.478-6.073-14.114-15.862-14.823C48.062,30.965,39.291,36.452,38.262,43.93z"
     fill="url(#XMLID_127_)" /><path
     id="path270"
     d="M55.17,36.976c0,0,2.144-4.969,10.479-0.913  c8.339,4.056,2.126,10.971,2.126,10.971s-3.71,2.321-3.488,3.186c0.572,2.283-0.549,6.087-8.562,6.064  c-8.018-0.024-7.667-4.677-7.128-5.417c0,0-8.459-3.173-6.41-9.596C44.234,34.847,52.723,33.568,55.17,36.976z"
     stroke-width="0.1764"
     stroke="#DAD2C0"
     fill="#F4ECD6" /><path
     id="path272"
     d="M65.816,39.083c0,0-6.265-5.354-7.964,0.649  c-1.701,6.002,0.845,9.75,5.113,8.389C67.239,46.759,70.971,44.022,65.816,39.083z"
     stroke-width="0.1764"
     stroke="#C1A48C"
     fill="#FFFFFF" /><path
     id="path274"
     d="M46.315,40.141c0,0,4.839-6.232,7.968-0.612  c3.127,5.62,1.541,9.696-2.979,9.03C46.784,47.893,42.461,45.793,46.315,40.141z"
     stroke-width="0.1764"
     stroke="#C1A48C"
     fill="#FFFFFF" /><path
     id="path285"
     d="M63.989,53.338c0,0,0.492-1.698,0.304-2.199  c-0.658-1.744-4.256-3.211-6.604-1.588c0,0-1.079,0.583-2.229-0.223c-1.485-1.041-6.851-0.434-7.267,1.257  c-0.507,2.058,0.71,5.428,6.628,5.856C60.743,56.869,63.396,54.474,63.989,53.338z"
     stroke-width="0.1764"
     stroke="#C1A48C"
     fill="url(#XMLID_128_)" /><path
     id="path287"
     d="M62.231,52.187c0,0-5.444,4.618-13.625,0.685"
     stroke-width="0.1764"
     stroke="#B29D94"
     fill="none" /><path
     id="path289"
     d="M56.997,50.205c0,0,1.66,1.667-0.859,6.22"
     stroke-width="0.1764"
     stroke="#C6AFA4"
     fill="none" /><path
     id="path291"
     d="M58.523,43.343c-0.252,1.827,1.481,3.448,3.876,3.622c2.393,0.173,4.533-1.168,4.787-2.995  c0.25-1.827-1.483-3.449-3.879-3.622C60.917,40.175,58.774,41.517,58.523,43.343z"
     fill="#165829" /><path
     id="path293"
     d="M58.761,43.342c-0.229,1.676,1.362,3.165,3.562,3.324c2.192,0.158,4.161-1.072,4.395-2.749  c0.229-1.677-1.359-3.166-3.561-3.325C60.959,40.435,58.991,41.666,58.761,43.342z"
     fill="#33A02C" /><path
     id="path295"
     d="M59.188,43.202c-0.206,1.49,1.211,2.813,3.16,2.954c1.95,0.141,3.697-0.953,3.903-2.442c0.204-1.49-1.21-2.812-3.162-2.954  C61.143,40.619,59.393,41.712,59.188,43.202z" /><path
     id="path297"
     d="M63.313,44.423c-0.312,0.382-0.241,0.845,0.156,1.034c0.4,0.19,0.979,0.034,1.293-0.348  c0.313-0.382,0.242-0.845-0.155-1.035C64.205,43.885,63.626,44.041,63.313,44.423z"
     fill="#33A02C" /><path
     id="path299"
     d="M65.722,43.272c0,0-0.09-1.454-1.663-1.68  c0,0-0.927,0.378-0.22,0.541c0.706,0.162,1.125,0.305,1.162,1.087C65.039,44.003,65.722,43.272,65.722,43.272z"
     enable-background="new    "
     fill="#FFFFFF"
     opacity="0.86" /><path
     id="path301"
     d="M60.596,44.162c-0.05,0.366,0.071,0.674,0.272,0.688  c0.196,0.015,0.396-0.27,0.449-0.635c0.052-0.365-0.068-0.673-0.271-0.688C60.85,43.512,60.646,43.796,60.596,44.162z"
     enable-background="new    "
     fill="#FFFFFF"
     opacity="0.86" /><path
     id="path303"
     d="M46.331,44.17c-0.251,1.827,1.483,3.448,3.876,3.622c2.393,0.174,4.534-1.167,4.786-2.995  c0.251-1.827-1.484-3.448-3.876-3.622C48.726,41.002,46.583,42.342,46.331,44.17z"
     fill="#165829" /><path
     id="path305"
     d="M46.569,44.169c-0.231,1.676,1.361,3.165,3.558,3.323c2.193,0.16,4.161-1.072,4.395-2.749  c0.229-1.677-1.358-3.166-3.56-3.324C48.767,41.261,46.8,42.491,46.569,44.169z"
     fill="#33A02C" /><path
     id="path307"
     d="M46.997,44.028c-0.206,1.49,1.21,2.813,3.163,2.955c1.949,0.141,3.697-0.953,3.902-2.443  c0.203-1.489-1.21-2.812-3.161-2.954C48.95,41.445,47.201,42.539,46.997,44.028z" /><path
     id="path309"
     d="M51.12,45.249c-0.312,0.382-0.241,0.845,0.157,1.035c0.399,0.189,0.979,0.033,1.293-0.349  c0.312-0.382,0.241-0.845-0.157-1.034C52.013,44.712,51.434,44.867,51.12,45.249z"
     fill="#33A02C" /><path
     id="path311"
     d="M53.53,44.099c0,0-0.091-1.455-1.662-1.68  c0,0-0.929,0.378-0.222,0.54c0.703,0.163,1.121,0.305,1.161,1.087C52.847,44.828,53.53,44.099,53.53,44.099z"
     enable-background="new    "
     fill="#FFFFFF"
     opacity="0.86" /><path
     id="path313"
     d="M48.403,44.988c-0.049,0.365,0.072,0.673,0.271,0.688  c0.2,0.014,0.4-0.271,0.452-0.637c0.05-0.365-0.071-0.672-0.27-0.687C48.657,44.338,48.455,44.622,48.403,44.988z"
     enable-background="new    "
     fill="#FFFFFF"
     opacity="0.86" /><path
     id="path315"
     d="M57.491,48.632c0.014,0.21,0.146,0.376,0.301,0.369c0.152-0.006,0.271-0.182,0.256-0.393  s-0.146-0.377-0.3-0.37C57.594,48.245,57.479,48.421,57.491,48.632z"
     fill="#A9775D" /><path
     id="path317"
     d="M56.567,48.682c0.017,0.211,0.146,0.376,0.304,0.369c0.15-0.006,0.267-0.183,0.256-0.394  c-0.015-0.21-0.146-0.376-0.301-0.37C56.671,48.293,56.556,48.47,56.567,48.682z"
     fill="#A9775D" /><path
     id="path381"
     d="M31.977,47.893c0.894-1.209,0.793-3.426-0.892-4.735c-1.688-1.311-4.267-1.311-5.955,0.202  c-1.687,1.51-3.57,6.348-0.692,8.969c3.253,2.962,7.478,1.835,9.958-1.188c4.744-5.779,7.408-17.751,7.408-17.751l-4.372,1.093  C37.432,34.481,35.254,43.56,31.977,47.893"
     fill="#FF8600" /><path
     id="path383"
     d="M34.791,51.476c4.767-5.811,7.488-18.003,7.602-18.52c0.062-0.281-0.112-0.562-0.389-0.626  c-0.134-0.03-0.271-0.006-0.388,0.069c-0.115,0.075-0.194,0.191-0.226,0.327c-0.027,0.124-2.752,12.427-7.388,18.077  c-1.307,1.593-3.086,2.584-4.881,2.717c-1.573,0.118-3.075-0.43-4.342-1.583c-0.88-0.801-1.324-1.887-1.318-3.23  c0.008-1.982,1.027-4.076,2.007-4.956c1.466-1.313,3.747-1.389,5.305-0.179c1.406,1.092,1.546,2.987,0.794,4.004  c-0.447,0.606-1.052,0.992-1.618,1.032c-0.376,0.028-0.706-0.101-0.983-0.382c-0.629-0.639-0.236-1.305-0.147-1.438l0,0  c0.166-0.233,0.116-0.561-0.112-0.73c-0.11-0.083-0.245-0.116-0.381-0.095c-0.135,0.021-0.254,0.096-0.335,0.208  c-0.364,0.508-0.781,1.747,0.251,2.796c0.488,0.498,1.104,0.734,1.782,0.685c0.848-0.062,1.726-0.595,2.347-1.425  c0-0.002,0-0.005,0.001-0.006l0.001-0.001c0-0.007,0-0.016,0-0.017l0.024-0.012c3.041-4.05,5.602-13.803,5.709-14.217  c0.035-0.135,0.016-0.276-0.052-0.397c-0.069-0.121-0.181-0.208-0.313-0.243c-0.132-0.035-0.271-0.017-0.39,0.053  c-0.118,0.071-0.202,0.184-0.238,0.319c-0.072,0.279-1.807,6.891-4.066,11.396l-0.088,0.175l-0.045-0.19  c-0.231-0.946-0.756-1.758-1.519-2.35c-1.939-1.507-4.777-1.41-6.603,0.225c-1.135,1.019-2.348,3.375-2.358,5.738  c-0.006,1.632,0.569,3.02,1.662,4.015c1.479,1.346,3.243,1.985,5.102,1.847C31.268,54.411,33.307,53.285,34.791,51.476z"
     fill="#060506" /><path
     id="path385"
     d="M34.69,48.823c0.949-1.284,0.844-3.638-0.948-5.029c-1.792-1.392-4.53-1.392-6.322,0.214  c-1.79,1.604-3.792,6.741-0.737,9.524c3.456,3.146,7.94,1.948,10.577-1.262c5.034-6.138,7.862-18.849,7.862-18.849l-4.642,1.16  C40.479,34.582,38.168,44.222,34.69,48.823"
     fill="#FF8600" /><path
     id="path387"
     d="M37.654,52.607c5.044-6.15,7.942-19.102,8.063-19.65c0.062-0.282-0.111-0.562-0.389-0.626  c-0.132-0.03-0.271-0.006-0.389,0.07c-0.114,0.075-0.194,0.191-0.225,0.327c-0.029,0.131-2.922,13.202-7.85,19.207  c-1.395,1.7-3.292,2.755-5.208,2.897c-1.679,0.125-3.28-0.46-4.632-1.689c-0.94-0.857-1.415-2.019-1.411-3.452  c0.008-2.114,1.097-4.349,2.144-5.288c1.567-1.403,4.007-1.485,5.673-0.191c1.506,1.17,1.656,3.204,0.85,4.297  c-0.481,0.651-1.131,1.065-1.741,1.109c-0.407,0.03-0.768-0.11-1.069-0.416c-0.687-0.697-0.255-1.427-0.159-1.567  c0.081-0.113,0.113-0.251,0.093-0.389c-0.02-0.138-0.094-0.259-0.203-0.342c-0.229-0.17-0.551-0.12-0.718,0.113  c-0.383,0.533-0.818,1.831,0.264,2.928c0.513,0.521,1.158,0.769,1.865,0.718c0.895-0.065,1.816-0.627,2.472-1.504v-0.005  l0.018-0.017l0,0c3.285-4.364,6.035-14.99,6.063-15.097c0.036-0.135,0.016-0.276-0.054-0.397c-0.067-0.121-0.18-0.208-0.313-0.243  c-0.131-0.035-0.269-0.017-0.387,0.054c-0.119,0.071-0.204,0.184-0.239,0.319c-0.019,0.073-1.899,7.312-4.352,12.172l-0.089,0.179  l-0.045-0.196c-0.229-1.015-0.793-1.896-1.633-2.549c-2.049-1.589-5.046-1.487-6.973,0.237c-1.2,1.077-2.482,3.57-2.492,6.071  c-0.008,1.722,0.6,3.187,1.753,4.237c1.563,1.424,3.427,2.1,5.39,1.953C33.921,55.714,36.079,54.522,37.654,52.607z"
     fill="#060506" /><path
     id="path389"
     d="M38.086,49.295c0.976-1.322,0.868-3.745-0.977-5.177c-1.844-1.433-4.664-1.433-6.508,0.22  c-1.843,1.653-3.904,6.941-0.759,9.805c3.559,3.239,8.177,2.006,10.889-1.298c5.183-6.318,8.096-19.405,8.096-19.405l-4.78,1.194  C44.046,34.633,41.665,44.558,38.086,49.295"
     fill="#FF8600" /><path
     id="path391"
     d="M41.123,53.181c5.231-6.377,8.178-19.662,8.301-20.224c0.06-0.282-0.113-0.562-0.389-0.626  c-0.135-0.03-0.272-0.006-0.389,0.07c-0.116,0.075-0.196,0.19-0.225,0.327c-0.029,0.135-3.059,13.652-8.087,19.78  c-1.437,1.753-3.394,2.842-5.37,2.988c-1.733,0.128-3.387-0.474-4.781-1.743c-0.972-0.885-1.463-2.085-1.458-3.566  c0.008-2.181,1.131-4.486,2.214-5.455c1.617-1.449,4.136-1.534,5.859-0.198c1.557,1.212,1.711,3.316,0.875,4.447  c-0.494,0.673-1.169,1.101-1.801,1.147c-0.426,0.031-0.8-0.114-1.112-0.433c-0.767-0.778-0.189-1.599-0.166-1.633  c0.167-0.234,0.117-0.562-0.11-0.731c-0.112-0.083-0.247-0.117-0.384-0.095c-0.136,0.022-0.254,0.096-0.335,0.208  c-0.39,0.544-0.835,1.871,0.269,2.994c0.527,0.533,1.188,0.787,1.913,0.735c0.913-0.066,1.857-0.641,2.529-1.538  c0-0.022,0-0.047,0-0.047h0.035c3.325-4.437,6.108-15.065,6.225-15.517c0.036-0.135,0.017-0.276-0.052-0.396  c-0.069-0.121-0.18-0.207-0.313-0.243c-0.132-0.036-0.272-0.016-0.39,0.054c-0.118,0.07-0.201,0.184-0.236,0.321  c-0.083,0.311-2.027,7.689-4.506,12.578l-0.091,0.181l-0.042-0.199c-0.228-1.063-0.811-1.985-1.686-2.664  c-2.104-1.633-5.181-1.528-7.159,0.243c-1.235,1.107-2.551,3.67-2.561,6.238c-0.007,1.768,0.615,3.272,1.799,4.351  c1.607,1.463,3.522,2.157,5.54,2.007C37.29,56.374,39.508,55.149,41.123,53.181z"
     fill="#060506" /><path
     id="path393"
     d="M37.512,36.126c0,0,8.774-3.084,16.776-3.084c8,0,16.385,3.185,16.385,3.185l4.585-11.643  c0,0-5.757-6.07-21.459-6.07c-15.702,0-21.262,6.269-21.262,6.269L37.512,36.126z"
     fill="#D90000" /><path
     id="path395"
     d="M68.459,26.296c0.412,0.148,0.427,1.252,0.028,2.47c-0.396,1.219-1.06,2.086-1.476,1.94  c-0.414-0.147-0.427-1.252-0.027-2.47C67.387,27.016,68.043,26.151,68.459,26.296z" /><path
     id="path397"
     d="M58.589,24.312c0.427,0.055,0.66,1.133,0.521,2.402c-0.144,1.273-0.604,2.258-1.022,2.201  c-0.427-0.057-0.657-1.134-0.52-2.404C57.706,25.241,58.166,24.257,58.589,24.312z"
     fill="#FFFFFF" /><path
     id="path399"
     d="M48.558,24.255c0.438-0.023,0.863,0.992,0.951,2.272c0.087,1.281-0.198,2.339-0.637,2.366  c-0.438,0.026-0.863-0.992-0.95-2.271C47.836,25.338,48.12,24.283,48.558,24.255z" /><path
     id="path401"
     d="M38.467,25.45c1.043-0.298,2.341,1.005,2.896,2.906c0.555,1.904,0.156,3.684-0.889,3.98  c-1.045,0.297-2.341-1.004-2.896-2.906C37.026,27.527,37.423,25.747,38.467,25.45z"
     fill="#D90000" /><path
     id="path403"
     d="M38.824,26.673c0.414-0.119,1.04,0.782,1.394,2.006c0.359,1.229,0.313,2.318-0.102,2.434  c-0.415,0.118-1.038-0.782-1.396-2.007C38.365,27.881,38.412,26.792,38.824,26.673z"
     fill="#FFFFFF" /><path
     id="path405"
     d="M39.524,22.228c2.633-1.094,6.436-1.792,6.436-1.792c-2.534,1.36-2.503,5.108-2.503,5.108  C42.043,22.361,39.524,22.228,39.524,22.228z"
     fill="#060506" /><path
     id="path407"
     d="M67.354,22.095c-2.636-1.228-6.729-1.725-6.729-1.725c2.635,1.361,2.73,5.109,2.73,5.109  C64.769,22.295,67.354,22.095,67.354,22.095z"
     fill="#060506" /><path
     id="path409"
     d="M49.862,19.873c2.915-0.64,7.542-0.034,7.542-0.034c-3.251,0.697-3.89,4.427-3.89,4.427  C52.877,20.833,49.862,19.873,49.862,19.873z"
     fill="#060506" /><path
     id="path411"
     d="M33.248,25.844c0.732-0.946,2.336-1.793,2.336-1.793c-1.805,2.215-0.809,5.176-0.809,5.176L33.248,25.844z"
     fill="#060506" /><path
     id="path413"
     d="M74.731,25.91c-0.733-0.941-2.765-1.99-2.765-1.99c1.658,2.223,0.911,5.307,0.911,5.307L74.731,25.91z"
     fill="#060506" /><path
     id="path415"
     d="M35.886,32.418l1.625,3.708c0,0,8.774-3.084,16.776-3.084c8,0,16.385,3.185,16.385,3.185l1.479-3.764  c-3.072-1.202-10.583-3.813-17.833-3.813C46.912,28.649,38.946,31.292,35.886,32.418z"
     fill="#212462" /><path
     id="path417"
     d="M36.678,32.764c3.388-1.208,10.77-3.519,17.644-3.519c6.774,0,13.845,2.339,17.063,3.56l0.979-0.901  c-2.962-1.159-10.647-3.853-18.042-3.853c-7.462,0-15.468,2.641-18.602,3.792L36.678,32.764z"
     fill="#FFFFFF" /><path
     id="path419"
     d="M62.041,30.792c-0.518,0-0.938,0.428-0.938,0.956c0,0.526,0.423,0.955,0.938,0.955  c0.25,0,0.484-0.1,0.662-0.28c0.178-0.18,0.271-0.42,0.271-0.675s-0.096-0.495-0.271-0.676  C62.527,30.892,62.291,30.792,62.041,30.792z"
     fill="#FFFFFF" /><path
     id="path421"
     d="M68.347,32.384c-0.517,0-0.935,0.428-0.935,0.956c0,0.526,0.419,0.955,0.935,0.955  c0.253,0,0.487-0.1,0.663-0.28c0.18-0.18,0.273-0.42,0.273-0.675c0-0.255-0.1-0.495-0.273-0.676  C68.834,32.484,68.6,32.384,68.347,32.384z"
     fill="#FFFFFF" /><path
     id="path423"
     d="M53.589,29.996c-0.52,0-0.938,0.429-0.938,0.956c0,0.527,0.42,0.955,0.938,0.955  c0.249,0,0.482-0.099,0.659-0.279c0.179-0.18,0.272-0.42,0.272-0.675c0-0.255-0.098-0.495-0.272-0.676  C54.072,30.096,53.838,29.996,53.589,29.996z"
     fill="#FFFFFF" /><path
     id="path425"
     d="M45.2,30.991c-0.515,0-0.936,0.428-0.936,0.956c0,0.527,0.421,0.955,0.936,0.955  c0.25,0,0.486-0.1,0.662-0.28c0.177-0.18,0.273-0.42,0.273-0.675c0-0.255-0.097-0.496-0.273-0.676  C45.687,31.091,45.45,30.991,45.2,30.991z"
     fill="#FFFFFF" /><path
     id="path427"
     d="M37.594,32.982c-0.517,0-0.936,0.428-0.936,0.956c0,0.526,0.419,0.955,0.936,0.955  c0.25,0,0.484-0.1,0.662-0.28c0.176-0.18,0.273-0.42,0.273-0.675s-0.098-0.496-0.273-0.676  C38.078,33.081,37.843,32.982,37.594,32.982z"
     fill="#FFFFFF" /><path
     id="path429"
     d="M75.732,24.778l0.125-0.315l-0.229-0.244c-0.242-0.254-6.094-6.229-21.826-6.229  c-15.727,0-21.409,6.178-21.643,6.441l-0.225,0.254c0.04,0.09,0.136,0.312,0.136,0.312l4.974,11.344l0.194,0.437l0.444-0.156  c0.085-0.03,8.737-3.057,16.608-3.057c7.729,0,15.861,3.023,16.206,3.152l0.47,0.178l0.188-0.473L75.732,24.778z M70.407,35.498  l-0.026,0.066l-0.062-0.023c-2.013-0.709-9.104-3.022-16.026-3.022c-6.862,0-14.314,2.253-16.437,2.944l-0.062,0.02l-0.026-0.06  l-4.589-10.47l-0.023-0.05l0.04-0.036c0.624-0.57,2.432-2.039,5.764-3.356c4.157-1.643,9.152-2.475,14.843-2.475  c5.7,0,10.729,0.808,14.94,2.401c3.372,1.277,5.227,2.701,5.866,3.253l0.039,0.034l-0.021,0.049L70.407,35.498z"
     fill="#060506" /><path
     id="path431"
     d="M52.992,51.891c0,0-3.887,5.14-8.256,2.453c-2.424-1.492-1.181-3.882-0.43-4.391  c0.796-0.542,2.192-0.649,2.89,0.152c0.781,0.898,0.931,2.119-0.119,2.665C47.077,52.77,50.266,54.527,52.992,51.891"
     fill="#FF8600" /><path
     id="path433"
     d="M53.489,51.412c-0.469-0.404-0.882,0.029-0.897,0.045c-1.634,1.58-3.892,1.535-5.025,1.113  c0.522-0.056,1.007-1.838-0.11-2.812c-0.999-0.873-2.361-0.929-3.403-0.221c-0.634,0.432-1.159,1.435-1.135,2.573  c0.019,0.764,0.277,1.78,1.657,2.628c3.81,2.343,7.429-0.559,8.884-2.482C53.471,52.235,53.83,51.706,53.489,51.412z M50.392,53.93  c-1.312,0.874-3.3,1.337-5.428,0.028c-0.742-0.457-1.138-1.051-1.208-1.816c-0.073-0.805,0.159-1.466,0.801-1.942  c0.752-0.56,1.819-0.312,2.387,0.188c0.229,0.203,0.466,0.595,0.474,1.013c0.004,0.141,0.038,0.544-0.412,0.692  c-0.224,0.073-0.576-0.074-0.809-0.276c-0.222-0.19-0.475,0.042-0.546,0.142c-0.149,0.211-0.022,0.503,0.117,0.644  c0.169,0.172,0.962,0.708,2.841,0.941c1.879,0.233,3.279-0.735,3.279-0.735S51.274,53.341,50.392,53.93z M52.532,51.526  L52.532,51.526C52.532,51.527,52.532,51.526,52.532,51.526L52.532,51.526z"
     fill="#060506" /><path
     id="path435"
     d="M62.374,50.555c0,0,2.33,3.722,5.938,1.905c2.006-1.009,1.171-2.981,0.613-3.435  c-0.596-0.482-1.688-0.664-2.286-0.08c-0.673,0.654-0.865,1.607-0.073,2.11C66.567,51.055,64.357,52.825,62.374,50.555"
     fill="#FF8600" /><path
     id="path437"
     d="M69.248,48.689c-0.818-0.666-2.019-0.833-2.834-0.049c-0.67,0.643-0.636,1.319-0.455,1.764  c0.135,0.338,0.435,0.532,0.431,0.539c-0.654,0.276-2.472,0.54-3.673-0.539c-0.02-0.016-0.385-0.592-0.729-0.294  c-0.347,0.297-0.114,0.746-0.104,0.767c0.901,1.443,3.812,3.497,6.688,2.119c0.941-0.452,1.38-1.521,1.441-2.15  C70.121,49.868,69.744,49.092,69.248,48.689z M69.368,50.845c-0.095,0.474-0.478,1.105-1.033,1.421  c-2.475,1.396-4.875-0.686-4.875-0.686s2.282,0.71,3.91-0.428c0.38-0.266,0.559-0.479,0.441-0.706  c-0.118-0.232-0.312-0.059-0.536,0.056c-0.238,0.123-0.673-0.095-0.792-0.294c-0.111-0.192-0.098-0.757,0.338-1.103  c0.59-0.471,1.512-0.319,1.896,0.024C69.173,49.535,69.484,50.253,69.368,50.845z"
     fill="#060506" /><path
     id="path439"
     d="M60.525,55.93c0,0,0.11,6.626,3.559,6.652c3.204,0.023,3.271-2.64,3.047-3.406  c-0.22-0.768-1.204-1.695-2.21-1.517c-1.008,0.179-1.949,1.07-1.42,2.207c0,0-1.146-0.892-1.313-4.235L60.525,55.93z"
     fill="#FF8600" /><path
     id="path441"
     d="M67.621,59.029c-0.271-0.946-1.46-2.121-2.79-1.885c-0.588,0.104-1.143,0.408-1.513,0.832l-0.091,0.105  l-0.034-0.135c0-0.001,0-0.001,0-0.002c-0.062,0.088-0.176,0.381-0.261,0.822c-0.107,0.588-0.104,1.076,0.02,1.248  c0.007,0.01,0.008,0.017,0.01,0.024c0.584,0.954,1.399,0.905,1.49,0.896c0.138-0.013,0.26-0.081,0.349-0.189  c0.085-0.108,0.125-0.244,0.113-0.383c-0.018-0.139-0.081-0.264-0.188-0.353c-0.104-0.089-0.238-0.13-0.376-0.116v-0.004  c-0.047-0.004-0.194-0.029-0.368-0.214l-0.011-0.008l-0.004-0.009c-0.005-0.011-0.005-0.017-0.006-0.024  c-0.129-0.278-0.136-0.527-0.019-0.761c0.171-0.334,0.598-0.614,1.062-0.696c0.708-0.125,1.479,0.61,1.631,1.147  c0.089,0.312,0.121,1.218-0.367,1.878c-0.427,0.576-1.16,0.866-2.186,0.858c-2.885-0.022-3.146-6.353-3.147-6.417  c-0.003-0.139-0.061-0.269-0.158-0.364c-0.102-0.096-0.229-0.147-0.369-0.143c-0.28,0.009-0.506,0.251-0.494,0.539  c0.009,0.302,0.29,7.403,4.166,7.432c1.697,0.012,2.574-0.686,3.011-1.274C67.795,60.877,67.793,59.632,67.621,59.029z"
     fill="#060506" /><path
     id="path443"
     d="M62.184,55.632c0,0,0.166,6.642,3.608,6.667c3.207,0.024,3.271-2.638,3.047-3.406  c-0.218-0.767-1.203-1.694-2.209-1.516c-1.005,0.178-1.949,1.071-1.418,2.207c0,0-1.203-1.007-1.37-4.35L62.184,55.632z"
     fill="#FF8600" /><path
     id="path445"
     d="M69.331,58.745c-0.27-0.945-1.46-2.12-2.788-1.885c-0.057,0.01-0.104,0.077-0.131,0.131  c-0.358,0.673-0.271,3.218-0.197,3.638c0.146-0.088,0.479-0.429,0.749-0.71c0.643-0.664,1.047-1.063,1.266-1.006  c0.038,0.01,0.098,0.04,0.116,0.126c0.095,0.312,0.125,1.217-0.36,1.877c-0.431,0.578-1.166,0.867-2.188,0.859  c-1.185-0.009-2.104-1.119-2.657-3.211c-0.421-1.589-0.489-3.191-0.489-3.206c-0.011-0.289-0.246-0.516-0.527-0.507  c-0.281,0.01-0.507,0.252-0.495,0.541c0.011,0.302,0.291,7.402,4.166,7.431c1.703,0.012,2.577-0.687,3.012-1.275  C69.508,60.59,69.506,59.347,69.331,58.745z"
     fill="#060506" /><path
     id="path447"
     d="M63.842,55.234c0,0,0.198,6.624,3.643,6.649c3.205,0.023,3.27-2.638,3.046-3.405  c-0.218-0.768-1.201-1.696-2.209-1.517c-1.007,0.178-1.947,1.07-1.419,2.207c0,0-1.104-1.553-1.271-4.896L63.842,55.234z"
     fill="#FF8600" /><path
     id="path449"
     d="M71.021,58.329c-0.277-0.983-1.307-1.964-2.651-1.845c-0.592,0.051-1.252,0.361-1.61,0.752l-0.088,0.097  l-0.033-0.128c-0.2-0.779-0.343-1.721-0.421-2.8c-0.009-0.139-0.067-0.266-0.174-0.357c-0.104-0.093-0.234-0.137-0.373-0.128  c-0.283,0.021-0.495,0.272-0.478,0.561c0.206,2.971,0.656,3.908,1.14,4.9c0.483,1.014,1.459,0.948,1.567,0.938  c0.449-0.046,1.016-0.22,1.122-0.787c0.104-0.538-0.076-0.915-0.479-1.009c-0.089-0.021-0.247,0.015-0.344,0.108  c-0.066,0.067-0.095,0.153-0.072,0.254c0.053,0.293-0.151,0.482-0.363,0.533c-0.312,0.075-0.607-0.094-0.72-0.413  c-0.114-0.331,0.027-0.793,0.227-1.033c0.324-0.398,0.676-0.575,1.175-0.591c0.896-0.028,1.455,0.746,1.599,1.24  c0.09,0.312,0.123,1.218-0.366,1.878c-0.496,0.673-1.297,0.985-2.193,0.858c-1.214-0.172-2.141-1.319-2.679-3.316  c-0.396-1.479-0.455-2.936-0.46-3.1c-0.009-0.289-0.245-0.516-0.528-0.506c-0.281,0.009-0.504,0.25-0.497,0.539  c0.014,0.302,0.291,7.403,4.166,7.432c1.706,0.013,2.58-0.687,3.014-1.275C71.197,60.176,71.195,58.932,71.021,58.329z"
     fill="#060506" /><path
     id="path451"
     d="M60.267,55.93c0,0,0.297,7.794-3.835,8.126c-3.842,0.309-4.149-2.724-3.957-3.62  c0.194-0.896,1.293-2.041,2.52-1.926c1.224,0.115,2.436,1.051,1.896,2.395c0,0,1.404-0.862,1.308-4.693L60.267,55.93z"
     fill="#FF8600" /><path
     id="path453"
     d="M56.306,64.082c4.625-0.176,4.64-8.374,4.64-8.457c-0.001-0.139-0.056-0.27-0.149-0.368  c-0.099-0.098-0.229-0.153-0.363-0.152c-0.28,0.001-0.512,0.237-0.512,0.526c0,0.073-0.042,7.268-3.646,7.405  c-1.418,0.054-2.243-0.204-2.764-0.863c-0.354-0.452-0.489-0.988-0.524-1.428l-0.33,2.126l0.058-0.046  C53.409,63.723,54.62,64.146,56.306,64.082z"
     fill="#060506" /><path
     id="path455"
     d="M54.536,60.527c0,0,1.104-0.52,1.312-4.346l2.346,0.031c0,0-0.228,7.433-4.365,7.418  c-3.853-0.014-3.919-3.062-3.652-3.939"
     fill="#FF8600" /><path
     id="path457"
     d="M50.245,62.617c0.501,0.696,1.526,1.528,3.583,1.536c4.605,0.017,4.924-8.044,4.935-8.389  c0.005-0.139-0.043-0.271-0.136-0.374c-0.097-0.104-0.224-0.163-0.358-0.167C58.131,55.218,58,55.267,57.9,55.362  c-0.102,0.096-0.155,0.225-0.162,0.366c-0.016,0.302-0.362,7.39-3.906,7.377c-1.305-0.005-2.232-0.378-2.761-1.11  c-0.562-0.785-0.519-1.788-0.403-2.151l-1.049-0.332l0.067,0.022C49.488,60.186,49.473,61.543,50.245,62.617z"
     fill="#060506" /><path
     id="path459"
     d="M56.011,56.167c0,0-0.438,7.425-4.577,7.295c-3.851-0.12-3.835-3.169-3.545-4.038  c0.289-0.869,1.504-1.885,2.708-1.634c1.204,0.251,2.309,1.315,1.63,2.591c0,0,1.121-0.424,1.437-4.244L56.011,56.167z"
     fill="#FF8600" /><path
     id="path461"
     d="M56.095,55.182c-0.279-0.018-0.525,0.202-0.545,0.489c-0.014,0.284-0.354,6.949-4.091,7.269  c-1.16,0.099-2.156-0.333-2.738-1.185c-0.562-0.829-0.475-1.775-0.349-2.161c0.322-0.986,1.093-1.457,2.116-1.292  c0.651,0.106,1.215,0.471,1.425,0.931c0.095,0.211,0.25,0.796,0.085,1.163c-0.065,0.152-0.183,0.252-0.336,0.298  c-0.183,0.054-0.339,0.045-0.46-0.026c-0.225-0.128-0.305-0.43-0.366-0.672l-0.02-0.065c-0.084-0.316-0.295-0.471-0.627-0.46  c-0.458,0.015-0.589,0.383-0.597,0.576c-0.015,0.407,0.094,0.759,0.326,1.045c0.312,0.392,0.783,0.59,1.324,0.56  c0.631-0.036,1.235-0.375,1.551-0.868c0.59-0.927,1.188-2.085,1.432-5.098c0.015-0.138-0.026-0.273-0.115-0.38  c-0.091-0.107-0.213-0.173-0.353-0.185c-0.281-0.024-0.531,0.191-0.554,0.478c-0.1,1.203-0.229,1.969-0.444,2.643l-0.037,0.116  l-0.082-0.087c-0.456-0.48-1.127-0.824-1.94-0.993c-1.575-0.328-2.873,0.775-3.294,1.979c-0.213,0.609-0.274,1.988,0.478,3.094  c0.482,0.71,1.49,1.57,3.541,1.635c4.585,0.144,5.136-7.906,5.156-8.249C56.591,55.449,56.377,55.2,56.095,55.182z"
     fill="#060506" /></g>










































<use
   x="0"
   y="0"
   inkscape:tiled-clone-of="#g2710"
   xlink:href="#g2710"
   transform="matrix(-1,0,0,-1,98.045071,149.95055)"
   id="use3069"
   width="98.099998"
   height="150.086" /><g
   id="g133">
	<rect
   x="24.136"
   y="72.303"
   fill="#D90000"
   width="49.7"
   height="5.866"
   id="rect135" />
</g><path
   fill="#F7F7F7"
   stroke="#060506"
   stroke-width="0.0882"
   d="M91.33,0.044H6.77c-3.714,0-6.726,3.037-6.726,6.781v136.438  c0,3.743,3.012,6.779,6.726,6.779h84.558c3.712,0,6.726-3.037,6.726-6.779L98.057,6.825C98.057,3.081,95.042,0.044,91.33,0.044z   M81.219,129.441c0,2.984-1.978,5.407-4.416,5.407H21.292c-2.438,0-4.415-2.422-4.415-5.407V20.646c0-2.984,1.976-5.406,4.415-5.406  h55.511c2.438,0,4.416,2.422,4.416,5.406V129.441z"
   id="path543" /><g
   id="g545">
	<path
   fill="#060506"
   d="M9.886,8.954v1.413c0,0,0.294,0,0.406,0C10,10.821,7.376,14.904,6.855,15.714c0-0.946,0-5.048,0-5.347   c0.225,0,0.878,0,0.878,0V8.954h-3.37v1.413c0,0,0.678,0,0.907,0c0,0.337,0,10.957,0,11.293c-0.229,0-0.907,0-0.907,0v1.412h3.37   V21.66c0,0-0.653,0-0.878,0c0-0.314,0-3.251,0-3.348c0.048-0.074,0.939-1.442,1.181-1.814c0.248,0.44,2.651,4.706,2.908,5.162   c-0.141,0-0.458,0-0.458,0v1.412h3.369V21.66c0,0-0.844,0-1.004,0c-0.099-0.167-3.741-6.33-3.848-6.511   c0.114-0.174,3.035-4.63,3.134-4.782c0.157,0,1.117,0,1.117,0V8.954H9.886L9.886,8.954z"
   id="path547" />
	<path
   fill="#060506"
   d="M90.399,126.619v1.41c0,0,0.65,0,0.878,0c0,0.312,0,3.252,0,3.351c-0.049,0.071-0.938,1.44-1.184,1.812   c-0.248-0.438-2.649-4.707-2.906-5.163c0.144,0,0.46,0,0.46,0v-1.41h-3.371v1.41c0,0,0.846,0,1.004,0   c0.1,0.166,3.741,6.331,3.85,6.515c-0.113,0.175-3.034,4.63-3.133,4.779c-0.157,0-1.119,0-1.119,0v1.413h3.371v-1.413   c0,0-0.295,0-0.406,0c0.291-0.453,2.916-4.537,3.438-5.348c0,0.944,0,5.049,0,5.348c-0.228,0-0.878,0-0.878,0v1.413h3.363v-1.413   c0,0-0.676,0-0.902,0c0-0.337,0-10.957,0-11.294c0.229,0,0.902,0,0.902,0v-1.41H90.399L90.399,126.619z"
   id="path549" />
	<path
   fill="#060506"
   d="M12.001,31.667c-1.605-1.413-2.893-3.238-2.893-3.238s-1.286,1.826-2.89,3.238   c-1.79,1.575-1.39,2.958-1.05,3.608c0.399,0.758,1.303,1.134,2.082,1.134c1.165,0,1.561-1.208,1.561-1.208s0.01,0.436-0.165,0.94   c-0.335,0.964-0.784,1.317-0.784,1.317h2.491c0,0-0.447-0.353-0.781-1.317c-0.174-0.504-0.166-0.94-0.166-0.94   s0.396,1.208,1.562,1.208c0.776,0,1.681-0.375,2.08-1.134C13.391,34.624,13.79,33.242,12.001,31.667z"
   id="path551" />
	<path
   fill="#060506"
   d="M86.129,119.909c1.604,1.41,2.896,3.236,2.896,3.236s1.284-1.826,2.893-3.236   c1.788-1.572,1.389-2.959,1.048-3.604c-0.397-0.761-1.303-1.137-2.08-1.137c-1.165,0-1.562,1.208-1.562,1.208   s-0.008-0.438,0.166-0.938c0.338-0.964,0.781-1.319,0.781-1.319h-2.49c0,0,0.446,0.355,0.781,1.319   c0.176,0.504,0.162,0.938,0.162,0.938s-0.396-1.208-1.562-1.208c-0.775,0-1.684,0.376-2.08,1.137   C84.743,116.95,84.34,118.334,86.129,119.909z"
   id="path553" />
</g></svg>