<?xml version="1.0" encoding="utf-8"?>
<!-- Generator: Adobe Illustrator 12.0.0, SVG Export Plug-In . SVG Version: 6.00 Build 51448)  -->
<!DOCTYPE svg PUBLIC "-//W3C//DTD SVG 1.1//EN" "http://www.w3.org/Graphics/SVG/1.1/DTD/svg11.dtd" [
	<!ENTITY ns_flows "http://ns.adobe.com/Flows/1.0/">
	<!ENTITY ns_extend "http://ns.adobe.com/Extensibility/1.0/">
	<!ENTITY ns_ai "http://ns.adobe.com/AdobeIllustrator/10.0/">
	<!ENTITY ns_graphs "http://ns.adobe.com/Graphs/1.0/">
	<!ENTITY ns_vars "http://ns.adobe.com/Variables/1.0/">
	<!ENTITY ns_imrep "http://ns.adobe.com/ImageReplacement/1.0/">
	<!ENTITY ns_sfw "http://ns.adobe.com/SaveForWeb/1.0/">
	<!ENTITY ns_custom "http://ns.adobe.com/GenericCustomNamespace/1.0/">
	<!ENTITY ns_adobe_xpath "http://ns.adobe.com/XPath/1.0/">
	<!ENTITY ns_svg "http://www.w3.org/2000/svg">
	<!ENTITY ns_xlink "http://www.w3.org/1999/xlink">
]>
<svg  version="1.1"
	 xmlns:x="&ns_extend;" xmlns:i="&ns_ai;" xmlns:graph="&ns_graphs;" i:viewOrigin="-0.3193 135.7061" i:rulerOrigin="0 0" i:pageBounds="0 136 85 0"
	 xmlns="&ns_svg;" xmlns:xlink="&ns_xlink;" xmlns:a="http://ns.adobe.com/AdobeSVGViewerExtensions/3.0/"
	 width="85.678" height="136.025" viewBox="0 0 85.678 136.025" overflow="visible" enable-background="new 0 0 85.678 136.025"
	 xml:space="preserve">
<metadata>
	<variableSets  xmlns="http://ns.adobe.com/Variables/1.0/">
		<variableSet  varSetName="binding1" locked="none">
			<variables></variables>
			<v:sampleDataSets  xmlns:v="http://ns.adobe.com/Variables/1.0/" xmlns="http://ns.adobe.com/GenericCustomNamespace/1.0/">
				</v:sampleDataSets>
		</variableSet>
	</variableSets>
</metadata>
<g id="图层_1" i:knockout="Off" i:layer="yes" i:dimmedPercent="50" i:rgbTrio="#4F008000FFFF">
	<g i:knockout="Off">
		<path fill="#333333" d="M2.274,99.465v24.962c0,5.149,3.353,9.325,7.481,9.325h68.118c4.133,0,7.484-4.176,7.484-9.325h-0.002
			V9.216c0-4.344-3.352-7.869-7.482-7.869H9.756c-4.131,0-7.481,3.525-7.481,7.869H2.272v90.228
			C2.272,99.45,2.274,99.458,2.274,99.465z"/>
		
			<linearGradient id="XMLID_3_" gradientUnits="userSpaceOnUse" x1="-22.9907" y1="22.7183" x2="-22.9907" y2="148.2847" gradientTransform="matrix(1 0 0 -1 64.8535 158.4238)">
			<stop  offset="0.0899" style="stop-color:#2089B9"/>
			<stop  offset="0.0985" style="stop-color:#4FA3C2"/>
			<stop  offset="0.1071" style="stop-color:#77B9CA"/>
			<stop  offset="0.1138" style="stop-color:#8FC7CF"/>
			<stop  offset="0.118" style="stop-color:#98CCD1"/>
			<stop  offset="0.1341" style="stop-color:#9ECFD3"/>
			<stop  offset="0.156" style="stop-color:#AFD6D9"/>
			<stop  offset="0.1809" style="stop-color:#CBE1E3"/>
			<stop  offset="0.1966" style="stop-color:#E1EAEB"/>
			<a:midPointStop  offset="0.0899" style="stop-color:#2089B9"/>
			<a:midPointStop  offset="0.5" style="stop-color:#2089B9"/>
			<a:midPointStop  offset="0.0985" style="stop-color:#4FA3C2"/>
			<a:midPointStop  offset="0.5" style="stop-color:#4FA3C2"/>
			<a:midPointStop  offset="0.1071" style="stop-color:#77B9CA"/>
			<a:midPointStop  offset="0.5" style="stop-color:#77B9CA"/>
			<a:midPointStop  offset="0.1138" style="stop-color:#8FC7CF"/>
			<a:midPointStop  offset="0.5" style="stop-color:#8FC7CF"/>
			<a:midPointStop  offset="0.118" style="stop-color:#98CCD1"/>
			<a:midPointStop  offset="0.5" style="stop-color:#98CCD1"/>
			<a:midPointStop  offset="0.1341" style="stop-color:#9ECFD3"/>
			<a:midPointStop  offset="0.5" style="stop-color:#9ECFD3"/>
			<a:midPointStop  offset="0.156" style="stop-color:#AFD6D9"/>
			<a:midPointStop  offset="0.5" style="stop-color:#AFD6D9"/>
			<a:midPointStop  offset="0.1809" style="stop-color:#CBE1E3"/>
			<a:midPointStop  offset="0.5" style="stop-color:#CBE1E3"/>
			<a:midPointStop  offset="0.1966" style="stop-color:#E1EAEB"/>
		</linearGradient>
		<path fill="url(#XMLID_3_)" d="M83.405,126.381c0,5.15-3.352,9.325-7.48,9.325H7.804c-4.131,0-7.482-4.177-7.482-9.325V19.465
			c0-5.148,3.354-9.326,7.482-9.326h68.117c4.133,0,7.482,4.176,7.482,9.326v106.916H83.405z"/>
		<path fill="none" stroke="#333333" stroke-width="0.977" d="M83.405,126.381c0,5.15-3.352,9.325-7.48,9.325H7.804
			c-4.131,0-7.482-4.177-7.482-9.325V19.465c0-5.148,3.354-9.326,7.482-9.326h68.117c4.133,0,7.482,4.176,7.482,9.326v106.916
			H83.405z"/>
		<path fill="#FFFFFF" d="M0.32,11.17c0-4.344,3.354-7.869,7.482-7.869h68.118c4.133,0,7.482,3.523,7.482,7.869v90.229
			c0,4.346-3.352,7.869-7.482,7.869H7.802c-4.131,0-7.482-3.523-7.482-7.87L0.32,11.17L0.32,11.17z"/>
		
			<linearGradient id="XMLID_4_" gradientUnits="userSpaceOnUse" x1="3.7021" y1="54.9395" x2="85.8467" y2="54.9395" gradientTransform="matrix(-1 0 0 1 86.6367 1.3447)">
			<stop  offset="0" style="stop-color:#A2D8E0"/>
			<stop  offset="0.0899" style="stop-color:#1878AD"/>
			<stop  offset="0.2135" style="stop-color:#194D91"/>
			<stop  offset="0.6404" style="stop-color:#2B90BD"/>
			<stop  offset="0.9438" style="stop-color:#82CBDE"/>
			<stop  offset="1" style="stop-color:#1A478D"/>
			<a:midPointStop  offset="0" style="stop-color:#A2D8E0"/>
			<a:midPointStop  offset="0.5" style="stop-color:#A2D8E0"/>
			<a:midPointStop  offset="0.0899" style="stop-color:#1878AD"/>
			<a:midPointStop  offset="0.5" style="stop-color:#1878AD"/>
			<a:midPointStop  offset="0.2135" style="stop-color:#194D91"/>
			<a:midPointStop  offset="0.5" style="stop-color:#194D91"/>
			<a:midPointStop  offset="0.6404" style="stop-color:#2B90BD"/>
			<a:midPointStop  offset="0.5" style="stop-color:#2B90BD"/>
			<a:midPointStop  offset="0.9438" style="stop-color:#82CBDE"/>
			<a:midPointStop  offset="0.5" style="stop-color:#82CBDE"/>
			<a:midPointStop  offset="1" style="stop-color:#1A478D"/>
		</linearGradient>
		<path i:isolated="yes" i:knockout="Off" opacity="0.1" fill="url(#XMLID_4_)" enable-background="new    " d="M0.79,11.17
			c0-4.344,3.313-7.869,7.397-7.869h67.347c4.086,0,7.4,3.523,7.4,7.869v90.229c0,4.346-3.314,7.869-7.4,7.869H8.188
			c-4.084,0-7.397-3.523-7.397-7.87V11.17L0.79,11.17z"/>
		<path fill="none" stroke="#4D4D4D" stroke-width="0.977" d="M0.32,101.419v24.962c0,5.148,3.353,9.325,7.482,9.325h68.12
			c4.131,0,7.48-4.175,7.48-9.325V11.171c0-4.346-3.352-7.869-7.482-7.869H7.803c-4.13,0-7.482,3.525-7.482,7.869l-0.001,90.228
			C0.319,101.404,0.32,101.411,0.32,101.419z"/>
	</g>
	<path fill="#24258D" d="M40.266,79.737c-0.189-0.385-0.286-1.053-0.286-2.006l-1.146,0.285c-0.955,0.191-1.529,0.287-1.721,0.287
		c-0.381,0-0.763-0.096-1.146-0.287c-0.382,0-0.86-0.285-1.434-0.857c-0.572-0.191-0.955-0.574-1.146-1.146
		c-0.19-0.189-0.286-0.574-0.286-1.146l0.286-0.287c0.191,0,0.574-0.287,1.146-0.859c0.19,0,0.478-0.189,0.859-0.574
		c0.766-0.382,1.338-0.668,1.72-0.857c0.384-0.191,0.861-0.383,1.434-0.574c1.146-0.573,2.198-1.051,3.152-1.432l0.573-3.439
		l-1.434,0.572c-0.955,0.572-1.91,0.859-2.866,0.859c-0.955,0.191-1.91,0.287-2.866,0.287c-0.955,0-1.91-0.096-2.866-0.287
		c-0.382,0-0.859-0.096-1.433-0.285h-0.569c-0.382,0-0.859-0.096-1.434-0.287c-0.573,0-1.146-0.287-1.72-0.859
		c-0.572-0.192-1.241-0.766-2.006-1.721c-0.765-0.574-1.243-1.147-1.435-1.719c-0.189,0-0.286-0.957-0.286-2.867l0.859-0.859
		c0.574-0.574,1.147-1.434,1.72-2.58c0.574-1.147,1.243-2.389,2.007-3.727c0.384-0.572,0.861-1.242,1.434-2.006
		c0.19-0.574,0.383-0.955,0.573-1.146c0.19-0.191,0.478-0.478,0.859-0.859c0.382-0.575,0.764-1.051,1.146-1.434
		c0.765-0.574,1.434-1.147,2.006-1.719c0.574-0.191,1.147-0.478,1.72-0.861c0.191,0,0.383,0,0.573,0
		c0.382-0.191,0.669-0.285,0.859-0.285l0.286,0.285c0,0.191,0.097,0.383,0.287,0.574c0.191,0.38,0.382,0.668,0.573,0.859
		l0.573,0.287c0.383,0.191,0.86,0.287,1.433,0.287c0.574,0.19,1.243-0.002,2.007-0.574l0.286-0.572
		c0.191,0.19,0.287-0.957,0.287-3.439l-1.146-0.287c-0.383,0-1.052-0.191-2.008-0.574c-0.381-0.191-0.763-0.381-1.146-0.572
		c-1.337-0.574-2.675-1.242-4.013-2.006c-1.528-0.574-2.962-1.338-4.3-2.293c-1.528-0.575-2.866-1.149-4.013-1.721
		c-1.146-0.191-1.337-0.287-0.573-0.287c-0.763,0-1.91-0.287-3.438-0.859c-1.529-0.191-2.962-0.574-4.3-1.146
		c-0.764-0.191-1.814-0.574-3.152-1.146c-0.381-0.191-0.669-0.287-0.86-0.287c-1.337-0.573-2.195-1.051-2.579-1.432v-0.574
		l0.286-0.287c0.192,0,0.861-0.287,2.007-0.859c1.146-0.191,2.293-0.478,3.439-0.859c0.383,0,0.956,0,1.72,0
		c0.955-0.191,1.721-0.287,2.293-0.287c0.573,0,1.242,0.096,2.006,0.287c0.766,0,1.243,0,1.435,0
		c0.765,0.191,1.624,0.572,2.579,1.146c0.765,0.573,1.625,1.147,2.58,1.719c0.383,0.191,0.86,0.574,1.433,1.146
		c0.575,0.574,1.052,0.955,1.434,1.146c1.146,1.146,2.197,2.006,3.152,2.58c0.383,0.383,1.052,0.86,2.007,1.434
		c0.382,0.191,0.669,0.381,0.859,0.572c0.956,0.764,2.199,1.434,3.727,2.008l0.573-0.574v-5.732c0-2.484,0-4.203,0-5.158
		c0-1.147,0.096-1.817,0.286-2.008c0-0.381,0.096-0.86,0.287-1.434c0-0.381,0.096-0.86,0.285-1.432c0-0.191,0.097-0.478,0.287-0.861
		c0-0.189,0.097-0.381,0.287-0.572c0.189-0.383,0.478-0.86,0.858-1.434c0.191-0.573,0.573-1.051,1.146-1.434h0.572l0.285,0.574
		c0.191,0,0.287,0.191,0.287,0.572c0.19,0.383,0.382,0.574,0.573,0.574c0.382,0.383,0.764,0.86,1.146,1.434
		c0.19,0.572,0.764,1.338,1.719,2.293c0.383,0.383,0.765,0.86,1.146,1.432c0.384,0.191,0.669,0.383,0.859,0.574
		c0.574,0.955,1.052,1.719,1.434,2.293c0.191,0.764,0.478,1.434,0.859,2.006c0.191,0.575,0.287,1.051,0.287,1.434l1.433-1.146
		c0.956-0.574,1.625-1.147,2.007-1.719c0.192-0.191,0.767-0.957,1.722-2.293h0.571l0.573,0.572v0.865
		c0,0.575-0.097,1.051-0.287,1.434c-0.189,0.383-0.668,1.338-1.433,2.867V31.31l-0.86,0.859c-0.189,0.191-0.476,0.476-0.857,0.859
		c-0.381,0.573-0.765,1.051-1.146,1.434c-0.19,0.38-0.477,0.763-0.858,1.146c-0.383,0.38-0.668,0.763-0.859,1.146
		c-0.383,0.572-0.86,1.338-1.434,2.293c-0.384,0.572-1.053,1.623-2.008,3.152c0.385-0.383,0.192,0-0.572,1.146l0.858-0.287
		c0.191,0,0.479,0,0.859,0c0.383-0.191,0.765-0.285,1.146-0.285l0.859,0.572c0.574,0.573,1.242,1.147,2.007,1.721
		c0.765,0.955,1.436,1.814,2.006,2.578c0.19,0.191,0.384,0.574,0.573,1.146c0.191,0.383,0.479,0.955,0.859,1.721
		c0.19,0.381,0.287,0.955,0.287,1.719c0.189,0.575,0.383,1.051,0.571,1.434c0.191,1.146,0.287,2.197,0.287,3.152
		c0,1.146-0.096,2.101-0.287,2.867c-0.381,1.146-0.668,2.006-0.858,2.58c-0.382,0.955-0.764,1.528-1.146,1.719
		c-0.382,0.572-0.86,0.859-1.435,0.859c-0.572,0.382-1.146,0.67-1.72,0.861c-0.19,0.189-0.668,0.572-1.434,1.146
		c0.383-0.192,0.191-0.098-0.573,0.285c-0.189,0.191-0.382,0.383-0.572,0.574c-0.383,0.191-0.955,0.476-1.721,0.859l0.286,0.287
		c0.191,0.383,0.574,0.572,1.146,0.572c0.573,0.382,1.146,0.67,1.72,0.861c0.189,0.188,0.478,0.381,0.86,0.572
		c0.381,0.382,0.764,0.763,1.146,1.146v0.574l-0.287,0.285c-0.189,0.383-0.86,0.572-2.006,0.572
		c-1.146,0.382-2.293,0.668-3.438,0.859c-0.954,0.572-2.102,0.955-3.438,1.146l-0.287,0.572c-0.188,0.573-0.286,1.051-0.286,1.434
		c0,0.573,0.098,1.146,0.286,1.721c0.191,0.573,0.479,1.147,0.859,1.719c0.19,0.575,0.573,1.051,1.146,1.436v0.572l-0.287,0.285
		c-0.188,0.383-0.571,0.574-1.146,0.574c-0.571,0.191-0.954,0.287-1.146,0.287c-0.189,0-0.668-0.096-1.433-0.287
		c-0.383,0-0.955-0.287-1.721-0.859c-0.19-0.189-0.382-0.285-0.572-0.285c-1.146-0.768-2.102-1.436-2.866-2.008L40.266,79.737z
		 M47.433,65.124v2.868h0.286c0.192,0,0.67-0.096,1.436-0.287c0.764,0,1.623-0.287,2.578-0.859c1.146-0.383,2.197-0.957,3.152-1.721
		h0.286c0.191,0,1.052-0.382,2.58-1.146l0.285-0.572c0.19,0,0.287-0.957,0.287-2.867l-0.572,0.287
		c-0.192,0.191-0.766,0.476-1.721,0.859c0.766-0.383,0.479-0.287-0.859,0.287c-0.383,0.191-0.955,0.476-1.721,0.859
		c-0.765,0.191-1.336,0.383-1.72,0.574c-0.383,0.189-1.241,0.572-2.579,1.146C48.388,64.741,47.815,64.933,47.433,65.124
		L47.433,65.124z M48.001,60.539l0.859-0.287c0.573,0,1.338-0.191,2.293-0.572c0.383,0,0.86,0,1.435,0
		c0.573-0.191,1.051-0.287,1.434-0.287c0.766,0,1.625-0.096,2.579-0.287c0.574,0,1.146-0.287,1.722-0.859v-1.146
		c0-0.574-0.098-1.434-0.287-2.58c-0.381-0.955-0.668-2.006-0.859-3.152c-0.381-1.146-0.669-2.006-0.858-2.58
		c0-0.191-0.097-0.285-0.287-0.285c0-0.382-0.189-0.765-0.572-1.146h-0.573H54.31c-0.381,0.189-0.669,0.285-0.858,0.285
		c-0.572,0.191-1.242,0.574-2.006,1.146c-0.955,0.575-1.529,1.051-1.722,1.434c-0.381,0.572-0.669,0.955-0.858,1.146
		c-0.19,0.572-0.287,0.955-0.287,1.146l2.006,0.287c0.384,0,0.861,0.096,1.435,0.287c0.385,0.189,0.861,0.285,1.434,0.285
		c0.19,0.191,0.383,0.383,0.574,0.574c0.381,0,0.668,0.096,0.858,0.287v0.572l-1.146,0.574c-0.382,0.189-0.859,0.476-1.435,0.859
		c-0.381,0.191-0.764,0.381-1.146,0.572c-0.955,0.764-2.196,1.434-3.727,2.008v1.146L48.001,60.539z M49.151,39.899l0.571-0.859
		c0.191-0.191,0.478-0.574,0.859-1.146c0.382-0.382,0.668-0.765,0.859-1.146c0.572-0.574,1.338-1.529,2.293-2.867
		c-0.191,0.192,0-0.095,0.572-0.859v-0.287l-0.286-1.146c-0.19-0.573-0.571-1.147-1.146-1.719c-0.19-0.191-0.477-0.383-0.859-0.574
		c-0.381-0.382-0.669-0.668-0.858-0.859c-0.574-0.191-1.051-0.478-1.435-0.859H49.15c-0.383-0.191-0.765-0.287-1.146-0.287
		l-0.573,0.574v3.152c0,2.484,0.19,5.062,0.573,7.738L49.151,39.899z M32.526,64.836c0.384,0.191,1.147,0.287,2.293,0.287
		s2.197-0.096,3.152-0.287c0.765,0,1.625-0.287,2.58-0.859c0.574-0.191,1.146-0.574,1.72-1.146v-2.865h-1.434
		c-0.955,0-1.719-0.096-2.293-0.287c-0.572,0.191-1.241-0.288-2.006-1.434v-0.572l1.433-1.434c0.765-0.955,1.625-1.721,2.58-2.293
		c0.765-0.383,1.243-0.862,1.433-1.434c0.191-0.191,0.287-0.574,0.287-1.146l-0.859-0.287c-0.573,0-1.146-0.191-1.721-0.572
		c-0.571,0-1.24-0.287-2.006-0.859l-0.287,0.572c-0.189,0.573-0.571,1.147-1.146,1.721c-0.573,0.763-1.146,1.719-1.721,2.865
		c-0.572,1.338-1.05,2.581-1.433,3.727c-0.381,1.527-0.669,2.673-0.86,3.439c-0.189,0.764-0.285,1.623-0.285,2.58L32.526,64.836z"/>
</g>
</svg>
