<?xml version="1.0" encoding="utf-8"?>
<!-- Generator: Adobe Illustrator 12.0.0, SVG Export Plug-In . SVG Version: 6.00 Build 51448)  -->
<!DOCTYPE svg PUBLIC "-//W3C//DTD SVG 1.1//EN" "http://www.w3.org/Graphics/SVG/1.1/DTD/svg11.dtd" [
	<!ENTITY ns_flows "http://ns.adobe.com/Flows/1.0/">
	<!ENTITY ns_extend "http://ns.adobe.com/Extensibility/1.0/">
	<!ENTITY ns_ai "http://ns.adobe.com/AdobeIllustrator/10.0/">
	<!ENTITY ns_graphs "http://ns.adobe.com/Graphs/1.0/">
	<!ENTITY ns_vars "http://ns.adobe.com/Variables/1.0/">
	<!ENTITY ns_imrep "http://ns.adobe.com/ImageReplacement/1.0/">
	<!ENTITY ns_sfw "http://ns.adobe.com/SaveForWeb/1.0/">
	<!ENTITY ns_custom "http://ns.adobe.com/GenericCustomNamespace/1.0/">
	<!ENTITY ns_adobe_xpath "http://ns.adobe.com/XPath/1.0/">
	<!ENTITY ns_svg "http://www.w3.org/2000/svg">
	<!ENTITY ns_xlink "http://www.w3.org/1999/xlink">
]>
<svg  version="1.1"
	 xmlns:x="&ns_extend;" xmlns:i="&ns_ai;" xmlns:graph="&ns_graphs;" i:viewOrigin="-0.3193 135.7061" i:rulerOrigin="0 0" i:pageBounds="0 136 85 0"
	 xmlns="&ns_svg;" xmlns:xlink="&ns_xlink;" xmlns:a="http://ns.adobe.com/AdobeSVGViewerExtensions/3.0/"
	 width="85.678" height="136.025" viewBox="0 0 85.678 136.025" overflow="visible" enable-background="new 0 0 85.678 136.025"
	 xml:space="preserve">
<metadata>
	<variableSets  xmlns="http://ns.adobe.com/Variables/1.0/">
		<variableSet  varSetName="binding1" locked="none">
			<variables></variables>
			<v:sampleDataSets  xmlns:v="http://ns.adobe.com/Variables/1.0/" xmlns="http://ns.adobe.com/GenericCustomNamespace/1.0/">
				</v:sampleDataSets>
		</variableSet>
	</variableSets>
</metadata>
<g id="图层_1" i:knockout="Off" i:layer="yes" i:dimmedPercent="50" i:rgbTrio="#4F008000FFFF">
	<g i:knockout="Off">
		<path fill="#333333" d="M2.274,99.465v24.962c0,5.149,3.353,9.325,7.481,9.325h68.118c4.133,0,7.484-4.176,7.484-9.325h-0.002
			V9.216c0-4.344-3.352-7.869-7.482-7.869H9.756c-4.131,0-7.481,3.525-7.481,7.869H2.272v90.228
			C2.272,99.45,2.274,99.458,2.274,99.465z"/>
		
			<linearGradient id="XMLID_3_" gradientUnits="userSpaceOnUse" x1="-22.9907" y1="22.7183" x2="-22.9907" y2="148.2847" gradientTransform="matrix(1 0 0 -1 64.8535 158.4238)">
			<stop  offset="0.0899" style="stop-color:#2089B9"/>
			<stop  offset="0.0985" style="stop-color:#4FA3C2"/>
			<stop  offset="0.1071" style="stop-color:#77B9CA"/>
			<stop  offset="0.1138" style="stop-color:#8FC7CF"/>
			<stop  offset="0.118" style="stop-color:#98CCD1"/>
			<stop  offset="0.1341" style="stop-color:#9ECFD3"/>
			<stop  offset="0.156" style="stop-color:#AFD6D9"/>
			<stop  offset="0.1809" style="stop-color:#CBE1E3"/>
			<stop  offset="0.1966" style="stop-color:#E1EAEB"/>
			<a:midPointStop  offset="0.0899" style="stop-color:#2089B9"/>
			<a:midPointStop  offset="0.5" style="stop-color:#2089B9"/>
			<a:midPointStop  offset="0.0985" style="stop-color:#4FA3C2"/>
			<a:midPointStop  offset="0.5" style="stop-color:#4FA3C2"/>
			<a:midPointStop  offset="0.1071" style="stop-color:#77B9CA"/>
			<a:midPointStop  offset="0.5" style="stop-color:#77B9CA"/>
			<a:midPointStop  offset="0.1138" style="stop-color:#8FC7CF"/>
			<a:midPointStop  offset="0.5" style="stop-color:#8FC7CF"/>
			<a:midPointStop  offset="0.118" style="stop-color:#98CCD1"/>
			<a:midPointStop  offset="0.5" style="stop-color:#98CCD1"/>
			<a:midPointStop  offset="0.1341" style="stop-color:#9ECFD3"/>
			<a:midPointStop  offset="0.5" style="stop-color:#9ECFD3"/>
			<a:midPointStop  offset="0.156" style="stop-color:#AFD6D9"/>
			<a:midPointStop  offset="0.5" style="stop-color:#AFD6D9"/>
			<a:midPointStop  offset="0.1809" style="stop-color:#CBE1E3"/>
			<a:midPointStop  offset="0.5" style="stop-color:#CBE1E3"/>
			<a:midPointStop  offset="0.1966" style="stop-color:#E1EAEB"/>
		</linearGradient>
		<path fill="url(#XMLID_3_)" d="M83.405,126.381c0,5.15-3.352,9.325-7.48,9.325H7.804c-4.131,0-7.482-4.177-7.482-9.325V19.465
			c0-5.148,3.354-9.326,7.482-9.326h68.117c4.133,0,7.482,4.176,7.482,9.326v106.916H83.405z"/>
		<path fill="none" stroke="#333333" stroke-width="0.977" d="M83.405,126.381c0,5.15-3.352,9.325-7.48,9.325H7.804
			c-4.131,0-7.482-4.177-7.482-9.325V19.465c0-5.148,3.354-9.326,7.482-9.326h68.117c4.133,0,7.482,4.176,7.482,9.326v106.916
			H83.405z"/>
		<path fill="#FFFFFF" d="M0.32,11.17c0-4.344,3.354-7.869,7.482-7.869h68.118c4.133,0,7.482,3.523,7.482,7.869v90.229
			c0,4.346-3.352,7.869-7.482,7.869H7.802c-4.131,0-7.482-3.523-7.482-7.87L0.32,11.17L0.32,11.17z"/>
		
			<linearGradient id="XMLID_4_" gradientUnits="userSpaceOnUse" x1="3.7021" y1="54.9395" x2="85.8467" y2="54.9395" gradientTransform="matrix(-1 0 0 1 86.6367 1.3447)">
			<stop  offset="0" style="stop-color:#A2D8E0"/>
			<stop  offset="0.0899" style="stop-color:#1878AD"/>
			<stop  offset="0.2135" style="stop-color:#194D91"/>
			<stop  offset="0.6404" style="stop-color:#2B90BD"/>
			<stop  offset="0.9438" style="stop-color:#82CBDE"/>
			<stop  offset="1" style="stop-color:#1A478D"/>
			<a:midPointStop  offset="0" style="stop-color:#A2D8E0"/>
			<a:midPointStop  offset="0.5" style="stop-color:#A2D8E0"/>
			<a:midPointStop  offset="0.0899" style="stop-color:#1878AD"/>
			<a:midPointStop  offset="0.5" style="stop-color:#1878AD"/>
			<a:midPointStop  offset="0.2135" style="stop-color:#194D91"/>
			<a:midPointStop  offset="0.5" style="stop-color:#194D91"/>
			<a:midPointStop  offset="0.6404" style="stop-color:#2B90BD"/>
			<a:midPointStop  offset="0.5" style="stop-color:#2B90BD"/>
			<a:midPointStop  offset="0.9438" style="stop-color:#82CBDE"/>
			<a:midPointStop  offset="0.5" style="stop-color:#82CBDE"/>
			<a:midPointStop  offset="1" style="stop-color:#1A478D"/>
		</linearGradient>
		<path i:isolated="yes" i:knockout="Off" opacity="0.1" fill="url(#XMLID_4_)" enable-background="new    " d="M0.79,11.17
			c0-4.344,3.313-7.869,7.397-7.869h67.347c4.086,0,7.4,3.523,7.4,7.869v90.229c0,4.346-3.314,7.869-7.4,7.869H8.188
			c-4.084,0-7.397-3.523-7.397-7.87V11.17L0.79,11.17z"/>
		<path fill="none" stroke="#4D4D4D" stroke-width="0.977" d="M0.32,101.419v24.962c0,5.148,3.353,9.325,7.482,9.325h68.12
			c4.131,0,7.48-4.175,7.48-9.325V11.171c0-4.346-3.352-7.869-7.482-7.869H7.803c-4.13,0-7.482,3.525-7.482,7.869l-0.001,90.228
			C0.319,101.404,0.32,101.411,0.32,101.419z"/>
	</g>
	<path fill="#24258D" d="M39.595,71.161c-1.168,0-2.087-0.168-2.756-0.5c-0.668,0-1.252-0.168-1.754-0.503
		c-0.5,0-1.002-0.25-1.504-0.751c-0.667-0.334-1.252-0.835-1.753-1.503v-1.002l0.501-0.251c0.168,0,0.417-0.083,0.752-0.251
		c0.334-0.167,0.584-0.251,0.752-0.251c0.668,0,1.503-0.252,2.506-0.751c1.002-0.168,1.838-0.502,2.506-1.003
		c0.5-0.167,1.502-0.667,3.006-1.502l0.501-1.253c0.167-0.67,0.501-1.672,1.003-3.008l-1.003,0.751
		c-0.501,0.335-0.668,0.419-0.501,0.252c-0.668,0.333-1.169,0.751-1.504,1.253h-0.5c-0.334,0.165-0.836-0.001-1.504-0.502
		c-0.668-0.334-1.252-0.751-1.754-1.253c-0.501-0.501-0.836-1.086-1.002-1.754c-0.168-0.167-0.251-0.502-0.251-1.002
		c-0.167-0.335-0.251-0.584-0.251-0.751l-2.255,0.25c-1.336,0-2.256,0-2.758,0c-0.5,0-1.252-0.083-2.254-0.25
		c-1.003,0-1.922-0.252-2.758-0.752c-0.834-0.167-1.586-0.502-2.254-1.002c-0.334-0.168-0.836-0.419-1.504-0.753
		c-0.167-0.168-0.334-0.334-0.501-0.501c-0.667-0.502-1.086-0.835-1.253-1.002c-0.334,0-0.584-0.419-0.752-1.254
		c-0.334-0.501-0.501-0.918-0.501-1.252l0.251-1.003c0.166-0.335,0.501-1.003,1.002-2.005c0.502-0.667,0.836-1.502,1.002-2.505
		c0.167-0.334,0.251-0.919,0.251-1.754c0.167-0.669,0.251-1.253,0.251-1.754s0.083-1.087,0.25-1.754c0-1.003,0.084-1.67,0.25-2.005
		c0.168-1.003,0.418-2.256,0.753-3.758c0.167-0.835,0.501-2.089,1.002-3.759c0.167-0.502,0.333-0.837,0.501-1.003l-0.501-0.501
		l1.003-1.253c0.334-0.333,0.668-0.752,1.002-1.254c0.334-0.333,0.584-0.583,0.751-0.751c0.502-0.5,1.087-1.003,1.755-1.502
		c0.167-0.168,0.417-0.336,0.751-0.503c0.669-0.5,1.253-0.918,1.754-1.253l0.251,0.251l0.25,0.251
		c0.336,0.502,0.67,0.918,1.004,1.254c0.669,0.667,1.253,1.418,1.753,2.253c0.168,0.335,0.586,0.753,1.254,1.254
		c0.334,0.334,0.584,0.586,0.752,0.751c0.835,0.67,1.504,1.086,2.004,1.253c0.502,0.168,0.919,0.503,1.254,1.003
		c0.166,0.501,0.5,1.42,1.002,2.758l-0.252-0.252c-0.333,0-0.834-0.251-1.503-0.751c-0.835-0.335-1.67-0.753-2.505-1.254
		c-0.335-0.334-1.004-0.585-2.006-0.751c0.502,0,0.336-0.084-0.5-0.25c-0.167,0-0.501,0-1.003,0
		c-0.667-0.168-1.254-0.252-1.755-0.252l-0.501,0.502c-0.334,0.501-0.584,0.835-0.752,1.003c-0.166,0.165-0.25,0.417-0.25,0.751
		c0,0.167-0.084,0.333-0.251,0.501c-0.334,0.501-0.584,1.253-0.751,2.255c-0.334,1.169-0.586,2.004-0.753,2.507
		c-0.166,0.835-0.25,1.335-0.25,1.502c0,0.5-0.083,1.087-0.251,1.754c-0.166,0.334-0.25,0.919-0.25,1.756
		c-0.168,0.667-0.251,1.167-0.251,1.502c0,0.5-0.083,1.169-0.251,2.004c0,0.835-0.083,1.42-0.25,1.754
		c-0.167,1.338-0.25,2.34-0.25,3.008c0,0.835,0.334,1.92,1.002,3.258h0.25h0.501c0.503,0.167,1.003,0.334,1.504,0.501
		c1.169,0.501,2.508,0.584,4.01,0.25c0.502,0,1.17-0.084,2.004-0.25c0.669,0,1.17,0,1.504,0v-0.251c0.168,0,0.502-0.502,1.002-1.504
		c0.168-0.334,0.503-0.752,1.003-1.251c0.335-0.336,0.585-0.67,0.753-1.003l-1.004-0.502c-0.834-0.167-1.336-0.502-1.502-1.002
		c-0.335-0.168-0.586-0.502-0.752-1.003c-0.168-0.167-0.251-0.835-0.251-2.005l1.253-1.253c1.002-0.835,1.921-1.921,2.756-3.256
		h-2.004l-0.502-0.502c-0.334-0.335-0.668-0.752-1.002-1.253c-0.334-0.5-0.585-1.003-0.752-1.503
		c-0.166-0.335-0.25-0.919-0.25-1.754l1.002-0.501l1.002,0.501l1.504-1.002h0.502c0.5,0,1.335-0.168,2.505-0.502l-0.501-1.502
		l0.25-0.503c0.168-0.167,0.251-0.502,0.251-1.002c0.167-0.335,0.25-0.668,0.25-1.002c0.167-0.835,0.419-1.586,0.752-2.256
		c0.335-0.835,0.501-1.921,0.501-3.258l1.003-1.503l1.503,1.003l0.25,1.002c0,0.167,0.084,0.418,0.252,0.752
		c0,0.501,0.084,0.835,0.25,1.002c0.168,0.502,0.25,1.002,0.25,1.504c0,0.334,0.084,0.668,0.252,1.003
		c0.334,0.5,0.25,1.253-0.252,2.255l1.504-0.502c0.502-0.167,0.668-0.167,0.502,0c0.834-0.335,1.67-0.5,2.506-0.5l0.5,0.5
		c0.168,0.5,0.418,1.086,0.752,1.753c0.168,1.003,0.25,1.588,0.25,1.756l-1.002,1.502H50.37l-0.252,0.252
		c-0.166,0.333-0.582,0.5-1.252,0.5c-0.666,0.167-1.336,0.586-2.004,1.253v2.005l0.502-0.251c0.334,0,0.918-0.251,1.752-0.751
		c0.67-0.335,1.588-0.501,2.758-0.501l0.5-0.502l0.502,1.505l-0.502,1.002l0.502,0.5l-0.252,0.751
		c-0.332,0.669-0.918,1.422-1.752,2.257l0.5,1.001c0,0.168,0.084,0.417,0.25,0.752c0.168,0.335,0.252,0.586,0.252,0.753v0.752
		l1.002-0.252c0.669-0.167,1.421-0.501,2.255-1.002c0.836-0.168,1.505-0.418,2.005-0.751c0.502,0,0.919-0.252,1.253-0.752
		c0.168-0.167,0.418-0.669,0.752-1.504c0.167-0.167,0.251-0.419,0.251-0.751c0-0.503,0.083-0.835,0.25-1.003
		c0.167-0.501,0.167-1.002,0-1.504c-0.167-0.335-0.25-0.751-0.25-1.252c0-0.334,0.167-0.837,0.501-1.504l-0.251-2.004
		c0-0.335-0.083-0.919-0.25-1.754c0-0.835-0.084-1.421-0.251-1.754c-0.166-0.669-0.25-1.504-0.25-2.507l1.002-1.002h0.503
		l1.002,1.002c0.668,1.17,1.169,2.005,1.503,2.507c0.168,0.835,0.418,1.503,0.752,2.004c0.168,0.669,0.252,1.252,0.252,1.754
		c0,0.501-0.084,1.254-0.252,2.257c-0.166,1.001-0.25,1.92-0.25,2.755c0,1.002,0.084,1.754,0.25,2.255
		c0.168,0.835,0.418,1.754,0.752,2.757c0,0.333,0.084,0.667,0.25,1.002c0.168,0.5,0.252,1.086,0.252,1.754l-0.502,0.502
		c-0.334,0.5-0.75,0.751-1.254,0.751c-0.5,0.167-0.916,0.251-1.252,0.251c-0.501,0-1.338-0.335-2.507-1.002h2.507l-0.501-1.253
		c-0.168-0.67-0.502-1.338-1.002-2.005l-0.503,1.002c-0.334,0.5-0.751,1.003-1.253,1.502c-0.668,0.668-1.42,1.087-2.255,1.254
		l-0.251,0.502c-0.334,0.5-0.584,0.835-0.751,1.003c-0.168,0.499-0.836,0.917-2.005,1.251v0.251c0,0.168-0.168,0.667-0.502,1.504
		h-0.252c-0.166,0-0.5,0-1.002,0l-0.5,0.25c-0.334,0.167-0.584,0.501-0.752,1.002c-0.334,0.502-0.668,1.755-1.002,3.76h0.75
		c0.168,0,0.42,0,0.754,0c0.5,0.166,0.918,0.249,1.252,0.249c0.668,0.168,1.588,0.252,2.757,0.252l0.502,0.501
		c0.334,0.5,0.752,0.835,1.252,1.003c0.168,0.166,0.418,0.416,0.752,0.751c0.335,0.168,0.585,0.333,0.752,0.5
		c0.502,0.503,1.086,1.421,1.754,2.758h-1.002c-0.334,0-0.919,0.082-1.755,0.25c-0.333,0.166-0.667,0.25-1.002,0.25
		c-0.835,0.335-2.255,0.503-4.26,0.503l-1.002,0.751c-0.168,0-0.334,0.084-0.502,0.25c-0.668,0.501-1.336,0.835-2.004,1.003
		l-0.252,2.254c-0.166,1.505-0.25,3.175-0.25,5.011c0,2.173,0.168,3.927,0.502,5.263l1.502-0.5l1.004,0.5v0.502l-0.754,0.752
		c-0.498,0.668-0.916,1.002-1.252,1.002c-0.334,0.167-0.584,0.251-0.752,0.251c-0.166,0-0.5-0.084-1.002-0.251
		c-0.5,0-1.086-0.251-1.754-0.752c-0.334-0.167-0.834-0.417-1.503-0.753c-0.167-0.167-0.334-0.332-0.501-0.499
		c-0.668-0.503-1.253-1.003-1.755-1.505c-0.501-0.501-0.835-1.002-1.003-1.503c-0.166-0.502-0.25-0.835-0.25-1.002l0.502-1.505
		c0.334-0.667,0.501-1.586,0.501-2.755L39.595,71.161z M42.352,51.115c0.335,0,0.919-0.251,1.754-0.752
		c0.837-0.334,1.921-0.751,3.259-1.252l0.25-0.501c0.334-0.334,0.25-1.253-0.25-2.756l-1.254,0.5
		c-0.836,0.501-1.586,0.668-2.255,0.502l-0.501,1.003c-0.334,0.667-0.586,1.252-0.752,1.753c0,0.168-0.084,0.334-0.251,0.501
		c-0.167,0.502-0.333,0.918-0.501,1.253L42.352,51.115z M39.847,57.882h0.5c0.168,0,0.669-0.084,1.504-0.251
		c0.335,0,0.836-0.083,1.504-0.251c-0.334,0.168-0.167,0.084,0.501-0.251l0.501-1.252c0-0.334,0.252-1.085,0.752-2.256l-0.752,0.252
		h-0.501c-0.501,0.166-0.919,0.249-1.253,0.249c-0.836,0.334-1.587,0.502-2.256,0.502L39.847,57.882z"/>
</g>
</svg>
