<?xml version="1.0" encoding="utf-8"?>
<!-- Generator: Adobe Illustrator 12.0.0, SVG Export Plug-In . SVG Version: 6.00 Build 51448)  -->
<!DOCTYPE svg PUBLIC "-//W3C//DTD SVG 1.1//EN" "http://www.w3.org/Graphics/SVG/1.1/DTD/svg11.dtd" [
	<!ENTITY ns_flows "http://ns.adobe.com/Flows/1.0/">
	<!ENTITY ns_extend "http://ns.adobe.com/Extensibility/1.0/">
	<!ENTITY ns_ai "http://ns.adobe.com/AdobeIllustrator/10.0/">
	<!ENTITY ns_graphs "http://ns.adobe.com/Graphs/1.0/">
	<!ENTITY ns_vars "http://ns.adobe.com/Variables/1.0/">
	<!ENTITY ns_imrep "http://ns.adobe.com/ImageReplacement/1.0/">
	<!ENTITY ns_sfw "http://ns.adobe.com/SaveForWeb/1.0/">
	<!ENTITY ns_custom "http://ns.adobe.com/GenericCustomNamespace/1.0/">
	<!ENTITY ns_adobe_xpath "http://ns.adobe.com/XPath/1.0/">
	<!ENTITY ns_svg "http://www.w3.org/2000/svg">
	<!ENTITY ns_xlink "http://www.w3.org/1999/xlink">
]>
<svg  version="1.1"
	 xmlns:x="&ns_extend;" xmlns:i="&ns_ai;" xmlns:graph="&ns_graphs;" i:viewOrigin="-0.3193 135.7061" i:rulerOrigin="0 0" i:pageBounds="0 136 85 0"
	 xmlns="&ns_svg;" xmlns:xlink="&ns_xlink;" xmlns:a="http://ns.adobe.com/AdobeSVGViewerExtensions/3.0/"
	 width="85.678" height="136.025" viewBox="0 0 85.678 136.025" overflow="visible" enable-background="new 0 0 85.678 136.025"
	 xml:space="preserve">
<metadata>
	<variableSets  xmlns="http://ns.adobe.com/Variables/1.0/">
		<variableSet  varSetName="binding1" locked="none">
			<variables></variables>
			<v:sampleDataSets  xmlns:v="http://ns.adobe.com/Variables/1.0/" xmlns="http://ns.adobe.com/GenericCustomNamespace/1.0/">
				</v:sampleDataSets>
		</variableSet>
	</variableSets>
</metadata>
<g id="图层_1" i:knockout="Off" i:layer="yes" i:dimmedPercent="50" i:rgbTrio="#4F008000FFFF">
	<g i:knockout="Off">
		<path fill="#333333" d="M2.274,99.465v24.962c0,5.149,3.353,9.325,7.481,9.325h68.118c4.133,0,7.484-4.176,7.484-9.325h-0.002
			V9.216c0-4.344-3.352-7.869-7.482-7.869H9.756c-4.131,0-7.481,3.525-7.481,7.869H2.272v90.228
			C2.272,99.45,2.274,99.458,2.274,99.465z"/>
		
			<linearGradient id="XMLID_3_" gradientUnits="userSpaceOnUse" x1="-22.9907" y1="22.7183" x2="-22.9907" y2="148.2847" gradientTransform="matrix(1 0 0 -1 64.8535 158.4238)">
			<stop  offset="0.0899" style="stop-color:#2089B9"/>
			<stop  offset="0.0985" style="stop-color:#4FA3C2"/>
			<stop  offset="0.1071" style="stop-color:#77B9CA"/>
			<stop  offset="0.1138" style="stop-color:#8FC7CF"/>
			<stop  offset="0.118" style="stop-color:#98CCD1"/>
			<stop  offset="0.1341" style="stop-color:#9ECFD3"/>
			<stop  offset="0.156" style="stop-color:#AFD6D9"/>
			<stop  offset="0.1809" style="stop-color:#CBE1E3"/>
			<stop  offset="0.1966" style="stop-color:#E1EAEB"/>
			<a:midPointStop  offset="0.0899" style="stop-color:#2089B9"/>
			<a:midPointStop  offset="0.5" style="stop-color:#2089B9"/>
			<a:midPointStop  offset="0.0985" style="stop-color:#4FA3C2"/>
			<a:midPointStop  offset="0.5" style="stop-color:#4FA3C2"/>
			<a:midPointStop  offset="0.1071" style="stop-color:#77B9CA"/>
			<a:midPointStop  offset="0.5" style="stop-color:#77B9CA"/>
			<a:midPointStop  offset="0.1138" style="stop-color:#8FC7CF"/>
			<a:midPointStop  offset="0.5" style="stop-color:#8FC7CF"/>
			<a:midPointStop  offset="0.118" style="stop-color:#98CCD1"/>
			<a:midPointStop  offset="0.5" style="stop-color:#98CCD1"/>
			<a:midPointStop  offset="0.1341" style="stop-color:#9ECFD3"/>
			<a:midPointStop  offset="0.5" style="stop-color:#9ECFD3"/>
			<a:midPointStop  offset="0.156" style="stop-color:#AFD6D9"/>
			<a:midPointStop  offset="0.5" style="stop-color:#AFD6D9"/>
			<a:midPointStop  offset="0.1809" style="stop-color:#CBE1E3"/>
			<a:midPointStop  offset="0.5" style="stop-color:#CBE1E3"/>
			<a:midPointStop  offset="0.1966" style="stop-color:#E1EAEB"/>
		</linearGradient>
		<path fill="url(#XMLID_3_)" d="M83.405,126.381c0,5.15-3.352,9.325-7.48,9.325H7.804c-4.131,0-7.482-4.177-7.482-9.325V19.465
			c0-5.148,3.354-9.326,7.482-9.326h68.117c4.133,0,7.482,4.176,7.482,9.326v106.916H83.405z"/>
		<path fill="none" stroke="#333333" stroke-width="0.977" d="M83.405,126.381c0,5.15-3.352,9.325-7.48,9.325H7.804
			c-4.131,0-7.482-4.177-7.482-9.325V19.465c0-5.148,3.354-9.326,7.482-9.326h68.117c4.133,0,7.482,4.176,7.482,9.326v106.916
			H83.405z"/>
		<path fill="#FFFFFF" d="M0.32,11.17c0-4.344,3.354-7.869,7.482-7.869h68.118c4.133,0,7.482,3.523,7.482,7.869v90.229
			c0,4.346-3.352,7.869-7.482,7.869H7.802c-4.131,0-7.482-3.523-7.482-7.87L0.32,11.17L0.32,11.17z"/>
		
			<linearGradient id="XMLID_4_" gradientUnits="userSpaceOnUse" x1="3.7021" y1="54.9395" x2="85.8467" y2="54.9395" gradientTransform="matrix(-1 0 0 1 86.6367 1.3447)">
			<stop  offset="0" style="stop-color:#A2D8E0"/>
			<stop  offset="0.0899" style="stop-color:#1878AD"/>
			<stop  offset="0.2135" style="stop-color:#194D91"/>
			<stop  offset="0.6404" style="stop-color:#2B90BD"/>
			<stop  offset="0.9438" style="stop-color:#82CBDE"/>
			<stop  offset="1" style="stop-color:#1A478D"/>
			<a:midPointStop  offset="0" style="stop-color:#A2D8E0"/>
			<a:midPointStop  offset="0.5" style="stop-color:#A2D8E0"/>
			<a:midPointStop  offset="0.0899" style="stop-color:#1878AD"/>
			<a:midPointStop  offset="0.5" style="stop-color:#1878AD"/>
			<a:midPointStop  offset="0.2135" style="stop-color:#194D91"/>
			<a:midPointStop  offset="0.5" style="stop-color:#194D91"/>
			<a:midPointStop  offset="0.6404" style="stop-color:#2B90BD"/>
			<a:midPointStop  offset="0.5" style="stop-color:#2B90BD"/>
			<a:midPointStop  offset="0.9438" style="stop-color:#82CBDE"/>
			<a:midPointStop  offset="0.5" style="stop-color:#82CBDE"/>
			<a:midPointStop  offset="1" style="stop-color:#1A478D"/>
		</linearGradient>
		<path i:isolated="yes" i:knockout="Off" opacity="0.1" fill="url(#XMLID_4_)" enable-background="new    " d="M0.79,11.17
			c0-4.344,3.313-7.869,7.397-7.869h67.347c4.086,0,7.4,3.523,7.4,7.869v90.229c0,4.346-3.314,7.869-7.4,7.869H8.188
			c-4.084,0-7.397-3.523-7.397-7.87V11.17L0.79,11.17z"/>
		<path fill="none" stroke="#4D4D4D" stroke-width="0.977" d="M0.32,101.419v24.962c0,5.148,3.353,9.325,7.482,9.325h68.12
			c4.131,0,7.48-4.175,7.48-9.325V11.171c0-4.346-3.352-7.869-7.482-7.869H7.803c-4.13,0-7.482,3.525-7.482,7.869l-0.001,90.228
			C0.319,101.404,0.32,101.411,0.32,101.419z"/>
	</g>
	<path fill="#24258D" d="M32.154,68.812c0.191,0,0.384-0.096,0.574-0.285c0.191-0.191,0.383-0.287,0.572-0.287
		c0.192,0,0.67-0.096,1.434-0.287c-0.381,0.192-0.189,0.096,0.574-0.287c0.383,0,1.147-0.382,2.293-1.146
		c0.572-0.382,0.955-0.668,1.146-0.859l1.146,0.574l0.572-0.574l-1.719-1.719h-1.722l-1.719-1.721l-0.574,0.574l-2.293-2.293V57.35
		l-1.434,0.287c-0.955,0-1.528,0-1.719,0c-0.192,0.192-0.668,0-1.435-0.572l-0.57,0.285c-0.382,0.191-0.67,0.287-0.86,0.287
		c-0.381,0.192-0.955,0-1.719-0.572c-0.955-0.191-1.72-0.574-2.293-1.146c-0.191-0.191-0.572-0.383-1.146-0.574
		c-0.382-0.382-0.668-0.668-0.859-0.859c-0.573-0.383-1.528-1.242-2.866-2.58V50.76l0.573-0.572
		c0.383-0.192,0.764-0.862,1.146-2.008c0-0.191,0.19-0.572,0.572-1.146c0.19-0.764,0.383-1.338,0.573-1.719
		c0-0.382,0.191-0.765,0.572-1.146c0.383-0.575,0.574-1.051,0.574-1.434c0.382-0.574,0.763-1.529,1.146-2.865
		c0.384-1.146,0.86-2.293,1.433-3.439c0.574-1.146,1.244-2.293,2.008-3.439c0.764-1.146,1.434-2.103,2.006-2.867
		c0.575-0.574,1.051-1.147,1.435-1.719c0.191-0.191,0.764-0.478,1.719-0.861c0.766,0,1.528-0.287,2.293-0.859l0.287,0.859
		c0.19,0.191,0.287,0.574,0.287,1.146c0,0.382,0.096,0.67,0.284,0.861c0.384,0.955,0.862,2.291,1.435,4.012h2.006
		c1.338,0,2.581-0.096,3.727-0.287c1.146,0,2.196-0.191,3.151-0.572c0.385,0,1.242-0.096,2.58-0.287
		c-0.955,0.192-0.668,0.096,0.858-0.287c1.338,0,2.582-0.287,3.728-0.859c1.146-0.191,2.197-0.574,3.151-1.146
		c0.767-0.383,1.625-0.572,2.58-0.572c0.383,0,0.766,0.094,1.146,0.285h0.574c0.383,0.383,0.859,0.86,1.433,1.434
		c0.19,0.191,0.479,0.476,0.86,0.859c0.191,0.574,0.381,0.955,0.572,1.146c0,0.191,0.096,0.382,0.287,0.574
		c0.189,0.192,0.478,0.764,0.857,1.719c0.191,1.146,0.479,2.006,0.859,2.58c0.19,0.383,0.286,0.86,0.286,1.434
		c0,0.38,0.097,0.763,0.287,1.146c0.19,1.146,0.479,2.101,0.858,2.865c0.191,0.574,0.479,1.338,0.859,2.293
		c-0.19-0.383-0.094-0.287,0.287,0.287c0.191,0.955,0.478,2.006,0.859,3.152c0.19,1.529,0.098,2.675-0.285,3.439
		c-0.383,1.146-0.86,2.101-1.436,2.867c-0.383,0.955-1.242,1.814-2.58,2.58l0.858-1.146c0.574-0.574,0.957-1.338,1.146-2.293
		c0.191-0.575,0.287-1.149,0.287-1.721l-0.571-0.859c0-0.191-0.19-0.478-0.574-0.859c-0.379-0.575-0.668-1.053-0.858-1.434
		c-0.765-1.146-1.625-2.197-2.58-3.152l-0.287,0.859c-0.188,0.763-0.283,0.955-0.283,0.572c0,0.383-0.287,0.86-0.861,1.434
		c-0.572,0.955-1.336,1.53-2.293,1.721c-0.381,0.38-1.147,0.668-2.293,0.859c0.574,0,0.383,0.096-0.572,0.287
		c-0.764,0.572-1.434,0.859-2.006,0.859l0.285,0.859c0.189,0.191,0.287,0.477,0.287,0.859c0,0.382,0.096,0.67,0.287,0.861
		c0,0.189,0.096,0.476,0.287,0.859c0,0.38,0.096,0.668,0.283,0.859c0.19,0.383,0.287,0.955,0.287,1.721l-0.57,0.285
		c-0.191,0.191-0.574,0.287-1.146,0.287l-0.574-0.572l-0.571-0.287c-0.383-0.382-0.671-0.67-0.861-0.859
		c-0.571-0.191-1.433-1.148-2.578-2.867l-0.286,0.574c-0.382,0.572-0.668,1.24-0.858,2.006c-0.383,1.147-0.671,1.815-0.86,2.006
		c-0.381,0.572-1.051,1.529-2.006,2.867v0.572h0.287c0.189,0,0.572-0.096,1.146-0.287c0.19,0,0.479,0,0.858,0
		c0.383-0.191,0.766-0.285,1.146-0.285l1.722,1.146l0.571-0.287c0.191,0,0.479-0.096,0.859-0.287s0.67-0.287,0.86-0.287
		c0.765,0,1.622-0.287,2.577-0.859c0.768-0.191,1.625-0.478,2.58-0.859c0.768,0,1.436-0.191,2.006-0.574c0.191,0,0.385,0,0.574,0
		c0.382-0.191,0.668-0.285,0.858-0.285l-1.146,0.859c-0.381,0.191-0.859,0.572-1.435,1.146c-0.379,0.38-0.762,0.668-1.146,0.859
		c-0.763,0.955-1.812,1.53-3.15,1.721l0.574,0.572c0,0.191,0.189,0.476,0.57,0.859c0.383,0.191,0.574,0.383,0.574,0.574
		c0.383,0.572,0.86,1.338,1.432,2.292c0.574,1.147,0.861,1.815,0.861,2.006l-2.293,0.287c-1.53,0.381-2.772,0.572-3.728,0.572
		c-0.955,0.383-1.91,0.574-2.867,0.574c-0.955,0.38-2.006,0.668-3.151,0.857c-0.572,0.384-1.435,0.668-2.58,0.859
		c0.574,0,0.383,0.096-0.572,0.287c-0.955,0.572-1.719,0.859-2.293,0.859c-0.572,0.189-0.955,0.285-1.146,0.285
		c-0.192,0.192-0.668,0-1.435-0.57c-0.764-0.191-1.526-0.574-2.293-1.146c-0.955-0.383-1.527-0.86-1.719-1.434
		c-0.382-0.575-0.67-1.147-0.861-1.722c-0.188-0.384-0.285-1.052-0.285-2.007L32.154,68.812z M58.804,46.744v-0.287l0.287-1.146
		c0.191-0.191,0.287-0.574,0.287-1.146c0.191-0.382,0.285-0.765,0.285-1.146c0.19-0.955,0.19-1.721,0-2.293
		c-0.381-0.575-0.381-1.147,0-1.721c0.383-0.383,0.287-1.623-0.285-3.725l-1.721,0.285c-1.146,0.383-1.433,0.478-0.859,0.287
		c-0.573,0.191-1.146,0.287-1.721,0.287c-0.572,0.381-1.623,0.86-3.152,1.434l0.287,1.719c0.191,1.146,0.287,2.006,0.287,2.58
		c0,0.572-0.096,1.434-0.287,2.58c-0.383,1.147-0.383,1.91,0,2.293c0.191,0,0.67-0.096,1.435-0.287c0.572,0,1.146-0.287,1.719-0.859
		L58.804,46.744z M42.467,51.044c0.574,0,0.957-0.191,1.146-0.574l0.574-0.285c0.573-0.191,1.241-0.478,2.006-0.861l0.287-1.432
		c0.19-0.191,0.286-0.574,0.286-1.146c0.191-0.574,0.285-0.957,0.285-1.146c0.191-0.192,0.287-0.766,0.287-1.721
		c0.191-0.764,0.287-1.338,0.287-1.719c0.191-0.957,0.287-2.391,0.287-4.301l-0.861,0.287c-0.188,0-0.381,0-0.571,0
		c-0.765,0.191-1.435,0.287-2.007,0.287v0.572c0,0.191-0.096,0.574-0.286,1.146c-0.191,0.191-0.287,0.574-0.287,1.146
		c-0.19,0.574-0.287,0.955-0.287,1.146c0,0.383-0.095,0.86-0.285,1.434c0,0.573-0.095,1.051-0.287,1.434
		c0,0.381-0.096,0.86-0.287,1.434c0,0.572-0.096,0.955-0.287,1.146c-0.189,0.381-0.285,0.955-0.285,1.719
		c-0.19,0.573-0.287,1.051-0.287,1.434H42.467z M43.612,61.65c0.576-0.192,1.053-0.766,1.435-1.721
		c0.383-0.574,0.479-0.67,0.287-0.287c0.19-0.383,0.479-1.147,0.858-2.293c0.383-0.763,0.479-0.955,0.287-0.572
		c0.19-0.383,0.286-0.862,0.286-1.434l-1.146-1.146l-0.573,0.287c-0.191,0.191-1.528,0.572-4.012,1.146v0.573
		c0,0.383-0.097,0.86-0.287,1.434l-0.287,1.434c0,0.191,0.096,0.572,0.287,1.146c0,0.191,0.096,0.381,0.287,0.572
		c0,0.383,0.096,0.574,0.284,0.574c0.192,0.38,0.67,0.668,1.435,0.859L43.612,61.65z M30.427,53.908l0.572-0.285
		c0.19,0,0.478-0.096,0.86-0.287c0.765,0,1.435-0.191,2.007-0.574l0.571-0.859c0-0.191,0.191-0.574,0.574-1.146
		c0.191-0.764,0.383-1.434,0.572-2.006c0.575-1.147,1.053-2.485,1.434-4.014c0.383-1.338,0.862-2.865,1.435-4.586l-0.859-0.859
		l-1.146,1.146H36.16c-0.384,0-1.052-0.191-2.007-0.572l-0.573-0.861c0-0.191-0.097-0.381-0.287-0.572
		c-0.38-0.575-0.668-1.051-0.859-1.434l-0.858,1.146c-0.573,0.955-1.052,1.719-1.435,2.293c-0.38,0.764-0.668,1.434-0.858,2.006
		c-0.383,0.574-0.669,1.434-0.859,2.58c0,0.383-0.191,1.051-0.574,2.006c-0.381,0.764-0.572,1.338-0.572,1.721
		c-0.382,1.338-0.67,2.293-0.86,2.865c0,0.191-0.095,0.383-0.285,0.574c-0.191,0.573-0.383,1.051-0.574,1.434l1.146,0.572
		l1.721-1.146l0.285,0.287c0.191,0.38,0.67,0.668,1.434,0.859L30.427,53.908z"/>
</g>
</svg>
