<?xml version="1.0" encoding="utf-8"?>
<!-- Generator: Adobe Illustrator 12.0.0, SVG Export Plug-In . SVG Version: 6.00 Build 51448)  -->
<!DOCTYPE svg PUBLIC "-//W3C//DTD SVG 1.1//EN" "http://www.w3.org/Graphics/SVG/1.1/DTD/svg11.dtd" [
	<!ENTITY ns_flows "http://ns.adobe.com/Flows/1.0/">
	<!ENTITY ns_extend "http://ns.adobe.com/Extensibility/1.0/">
	<!ENTITY ns_ai "http://ns.adobe.com/AdobeIllustrator/10.0/">
	<!ENTITY ns_graphs "http://ns.adobe.com/Graphs/1.0/">
	<!ENTITY ns_vars "http://ns.adobe.com/Variables/1.0/">
	<!ENTITY ns_imrep "http://ns.adobe.com/ImageReplacement/1.0/">
	<!ENTITY ns_sfw "http://ns.adobe.com/SaveForWeb/1.0/">
	<!ENTITY ns_custom "http://ns.adobe.com/GenericCustomNamespace/1.0/">
	<!ENTITY ns_adobe_xpath "http://ns.adobe.com/XPath/1.0/">
	<!ENTITY ns_svg "http://www.w3.org/2000/svg">
	<!ENTITY ns_xlink "http://www.w3.org/1999/xlink">
]>
<svg  version="1.1"
	 xmlns:x="&ns_extend;" xmlns:i="&ns_ai;" xmlns:graph="&ns_graphs;" i:viewOrigin="-0.3193 135.7061" i:rulerOrigin="0 0" i:pageBounds="0 136 85 0"
	 xmlns="&ns_svg;" xmlns:xlink="&ns_xlink;" xmlns:a="http://ns.adobe.com/AdobeSVGViewerExtensions/3.0/"
	 width="85.678" height="136.025" viewBox="0 0 85.678 136.025" overflow="visible" enable-background="new 0 0 85.678 136.025"
	 xml:space="preserve">
<metadata>
	<variableSets  xmlns="http://ns.adobe.com/Variables/1.0/">
		<variableSet  varSetName="binding1" locked="none">
			<variables></variables>
			<v:sampleDataSets  xmlns:v="http://ns.adobe.com/Variables/1.0/" xmlns="http://ns.adobe.com/GenericCustomNamespace/1.0/">
				</v:sampleDataSets>
		</variableSet>
	</variableSets>
</metadata>
<g id="图层_1" i:knockout="Off" i:layer="yes" i:dimmedPercent="50" i:rgbTrio="#4F008000FFFF">
	<g i:knockout="Off">
		<path fill="#333333" d="M2.274,99.465v24.962c0,5.149,3.353,9.325,7.481,9.325h68.118c4.133,0,7.484-4.176,7.484-9.325h-0.002
			V9.216c0-4.344-3.352-7.869-7.482-7.869H9.756c-4.131,0-7.481,3.525-7.481,7.869H2.272v90.228
			C2.272,99.45,2.274,99.458,2.274,99.465z"/>
		
			<linearGradient id="XMLID_3_" gradientUnits="userSpaceOnUse" x1="-22.9907" y1="22.7183" x2="-22.9907" y2="148.2847" gradientTransform="matrix(1 0 0 -1 64.8535 158.4238)">
			<stop  offset="0.0899" style="stop-color:#2089B9"/>
			<stop  offset="0.0985" style="stop-color:#4FA3C2"/>
			<stop  offset="0.1071" style="stop-color:#77B9CA"/>
			<stop  offset="0.1138" style="stop-color:#8FC7CF"/>
			<stop  offset="0.118" style="stop-color:#98CCD1"/>
			<stop  offset="0.1341" style="stop-color:#9ECFD3"/>
			<stop  offset="0.156" style="stop-color:#AFD6D9"/>
			<stop  offset="0.1809" style="stop-color:#CBE1E3"/>
			<stop  offset="0.1966" style="stop-color:#E1EAEB"/>
			<a:midPointStop  offset="0.0899" style="stop-color:#2089B9"/>
			<a:midPointStop  offset="0.5" style="stop-color:#2089B9"/>
			<a:midPointStop  offset="0.0985" style="stop-color:#4FA3C2"/>
			<a:midPointStop  offset="0.5" style="stop-color:#4FA3C2"/>
			<a:midPointStop  offset="0.1071" style="stop-color:#77B9CA"/>
			<a:midPointStop  offset="0.5" style="stop-color:#77B9CA"/>
			<a:midPointStop  offset="0.1138" style="stop-color:#8FC7CF"/>
			<a:midPointStop  offset="0.5" style="stop-color:#8FC7CF"/>
			<a:midPointStop  offset="0.118" style="stop-color:#98CCD1"/>
			<a:midPointStop  offset="0.5" style="stop-color:#98CCD1"/>
			<a:midPointStop  offset="0.1341" style="stop-color:#9ECFD3"/>
			<a:midPointStop  offset="0.5" style="stop-color:#9ECFD3"/>
			<a:midPointStop  offset="0.156" style="stop-color:#AFD6D9"/>
			<a:midPointStop  offset="0.5" style="stop-color:#AFD6D9"/>
			<a:midPointStop  offset="0.1809" style="stop-color:#CBE1E3"/>
			<a:midPointStop  offset="0.5" style="stop-color:#CBE1E3"/>
			<a:midPointStop  offset="0.1966" style="stop-color:#E1EAEB"/>
		</linearGradient>
		<path fill="url(#XMLID_3_)" d="M83.405,126.381c0,5.15-3.352,9.325-7.48,9.325H7.804c-4.131,0-7.482-4.177-7.482-9.325V19.465
			c0-5.148,3.354-9.326,7.482-9.326h68.117c4.133,0,7.482,4.176,7.482,9.326v106.916H83.405z"/>
		<path fill="none" stroke="#333333" stroke-width="0.977" d="M83.405,126.381c0,5.15-3.352,9.325-7.48,9.325H7.804
			c-4.131,0-7.482-4.177-7.482-9.325V19.465c0-5.148,3.354-9.326,7.482-9.326h68.117c4.133,0,7.482,4.176,7.482,9.326v106.916
			H83.405z"/>
		<path fill="#FFFFFF" d="M0.32,11.17c0-4.344,3.354-7.869,7.482-7.869h68.118c4.133,0,7.482,3.523,7.482,7.869v90.229
			c0,4.346-3.352,7.869-7.482,7.869H7.802c-4.131,0-7.482-3.523-7.482-7.87L0.32,11.17L0.32,11.17z"/>
		
			<linearGradient id="XMLID_4_" gradientUnits="userSpaceOnUse" x1="3.7021" y1="54.9395" x2="85.8467" y2="54.9395" gradientTransform="matrix(-1 0 0 1 86.6367 1.3447)">
			<stop  offset="0" style="stop-color:#A2D8E0"/>
			<stop  offset="0.0899" style="stop-color:#1878AD"/>
			<stop  offset="0.2135" style="stop-color:#194D91"/>
			<stop  offset="0.6404" style="stop-color:#2B90BD"/>
			<stop  offset="0.9438" style="stop-color:#82CBDE"/>
			<stop  offset="1" style="stop-color:#1A478D"/>
			<a:midPointStop  offset="0" style="stop-color:#A2D8E0"/>
			<a:midPointStop  offset="0.5" style="stop-color:#A2D8E0"/>
			<a:midPointStop  offset="0.0899" style="stop-color:#1878AD"/>
			<a:midPointStop  offset="0.5" style="stop-color:#1878AD"/>
			<a:midPointStop  offset="0.2135" style="stop-color:#194D91"/>
			<a:midPointStop  offset="0.5" style="stop-color:#194D91"/>
			<a:midPointStop  offset="0.6404" style="stop-color:#2B90BD"/>
			<a:midPointStop  offset="0.5" style="stop-color:#2B90BD"/>
			<a:midPointStop  offset="0.9438" style="stop-color:#82CBDE"/>
			<a:midPointStop  offset="0.5" style="stop-color:#82CBDE"/>
			<a:midPointStop  offset="1" style="stop-color:#1A478D"/>
		</linearGradient>
		<path i:isolated="yes" i:knockout="Off" opacity="0.1" fill="url(#XMLID_4_)" enable-background="new    " d="M0.79,11.17
			c0-4.344,3.313-7.869,7.397-7.869h67.347c4.086,0,7.4,3.523,7.4,7.869v90.229c0,4.346-3.314,7.869-7.4,7.869H8.188
			c-4.084,0-7.397-3.523-7.397-7.87V11.17L0.79,11.17z"/>
		<path fill="none" stroke="#4D4D4D" stroke-width="0.977" d="M0.32,101.419v24.962c0,5.148,3.353,9.325,7.482,9.325h68.12
			c4.131,0,7.48-4.175,7.48-9.325V11.171c0-4.346-3.352-7.869-7.482-7.869H7.803c-4.13,0-7.482,3.525-7.482,7.869l-0.001,90.228
			C0.319,101.404,0.32,101.411,0.32,101.419z"/>
	</g>
	<path fill="#24258D" d="M36.989,79.03c-1.146-0.573-2.196-1.147-3.152-1.721c-0.382-0.189-0.955-0.478-1.72-0.857
		c-0.19-0.191-0.383-0.287-0.573-0.287s-0.477,0-0.859,0c-0.381-0.191-0.763-0.287-1.146-0.287l-1.146-1.719v-0.574l-1.146-1.146
		l1.146-1.719v-1.434c0-0.955,0.096-2.293,0.286-4.014c0-0.383,0.096-0.955,0.287-1.719c0.19-1.338,0.382-2.581,0.573-3.727
		l-1.146-2.293l-0.573,1.721l-0.859,0.572c-0.572,0.572-1.337,0.859-2.293,0.859c-0.955,0.382-1.72,0.67-2.293,0.861
		c-0.573,0.572-1.146,0.859-1.721,0.859c-0.571,0.191-0.955,0.287-1.146,0.287c-0.382,0-1.051-0.191-2.006-0.574l-0.573-0.859
		c-0.381-0.574-0.669-1.242-0.86-2.006c-0.189-0.575-0.286-1.149-0.286-1.721c-0.191-0.191,0-0.955,0.573-2.293l0.859-0.572
		c0.19,0,0.383-0.096,0.573-0.287c0.191,0,0.765-0.287,1.72-0.859c0.956-0.383,2.007-0.862,3.153-1.434
		c0.19-0.191,0.572-0.383,1.146-0.574c0.383,0,0.956-0.287,1.72-0.859c0.765-0.192,1.721-0.764,2.866-1.719h0.573l1.72,1.146
		l0.286-0.861c0.191-0.191,0.287-0.572,0.287-1.146c0.191-0.382,0.286-0.763,0.286-1.146c0.19-0.383,0.287-0.86,0.287-1.432
		c0.19-0.575,0.286-1.053,0.286-1.434c0.19-0.955,0.286-1.721,0.286-2.293c0-0.574-0.096-1.242-0.286-2.006
		c-0.19-0.574-0.286-0.765-0.286-0.574c0-0.192-0.286-0.67-0.86-1.434c-0.381-0.383-1.432-0.955-3.152-1.719
		c0.192,0.192-0.19,0.096-1.146-0.287l-0.86,0.287c-0.571,0.38-1.241,0.668-2.006,0.859c-0.382,0.383-1.91,0.955-4.586,1.721
		l-0.573-1.146l-0.572,1.146l-1.146-0.574c-0.955-0.191-1.529-0.478-1.72-0.859c-0.381,0-1.528-0.861-3.439-2.58l-0.287-1.146
		c-0.189-0.574-0.286-1.147-0.286-1.719c0-0.192,0.191-0.766,0.573-1.721c-0.191,0.383,0,0,0.573-1.146l0.859-0.287
		c0.573,0,1.528-0.287,2.865-0.859c1.338-0.191,2.39-0.287,3.153-0.287c0.764,0.383,1.72,0.383,2.866,0c1.146,0,2.007,0,2.579,0
		c0.573,0.191,1.147,0.287,1.72,0.287c0.191,0,0.478,0,0.86,0c0.955,0.191,1.72,0.287,2.293,0.287c0.383,0,0.86,0.096,1.433,0.287
		c0.575,0.189,1.052,0.285,1.434,0.285c0.192,0.382,0.766,0.67,1.721,0.861c0.765,0.573,1.338,1.145,1.72,1.719
		c0,0.383,0.191,0.86,0.573,1.434c0.383,0.38,0.573,0.763,0.573,1.146c0.19,1.146,0.477,2.101,0.858,2.865
		c0.191,1.146,0.287,2.101,0.287,2.867c0,1.146-0.096,2.101-0.287,2.865c-0.189,0.383-0.286,1.051-0.286,2.008
		c-0.19,0.764-0.287,1.336-0.287,1.719c-0.189,1.719-0.285,2.676-0.285,2.867c0,0.572,0.19,1.527,0.572,2.865l0.859-0.859
		c0.192-0.192,0.765-0.67,1.72-1.434c-0.573,0.383-0.286,0.192,0.86-0.572c0.955-0.383,3.63-2.867,8.025-7.453l0.285-2.006
		c0.19-0.383,0.286-1.051,0.286-2.006c0.191-0.957,0.286-1.625,0.286-2.008c0.19-0.383,0.287-0.955,0.287-1.719
		c0-0.766,0.097-1.338,0.286-1.721c0-0.191,0.096-0.572,0.287-1.146c0-0.572,0.096-0.955,0.285-1.146
		c0.383-0.572,0.86-1.623,1.435-3.152l0.573,0.574c0,0.189,0.191,0.476,0.572,0.859c0.574,0.764,1.146,1.623,1.721,2.58l1.72-1.146
		l0.286-0.861c0.191-0.383,0.67-1.147,1.435-2.293c0.955-1.146,2.293-2.293,4.014-3.439h0.858c0.573,0.191,1.242,0.287,2.007,0.287
		l0.287,0.287c0.189,0.192,0.572,0.86,1.146,2.006c0.19,0.383,0.479,1.051,0.86,2.006c0.189,0.382,0.285,0.67,0.285,0.861
		c0.19,0.955,0.286,1.528,0.286,1.719c0,0.573-0.188,1.147-0.571,1.721c-0.381,0.955-0.67,1.719-0.86,2.293
		c-0.382,0.955-0.669,2.006-0.858,3.152c-0.19,0.572-0.479,1.434-0.86,2.58c-0.189,0.38-0.285,0.668-0.285,0.859
		c-0.191,0.572-0.573,1.434-1.146,2.58c-0.191,0.38-0.383,0.763-0.572,1.146l0.857,0.285c0.574,0.191,1.243,0.574,2.008,1.146
		c0.766,0.575,1.242,1.147,1.434,1.721c0.19,0.191,0.287,0.572,0.287,1.146c0.189,0.38,0.381,0.668,0.572,0.859
		c0,0.191,0.19,0.572,0.572,1.146c0.382,0.955,0.766,1.91,1.146,2.867H69.38c-0.188,0-0.477,0-0.858,0
		c-0.765,0.189-1.434,0.285-2.008,0.285c-1.527,0.191-2.674,0.287-3.438,0.287c-0.383,0-0.86,0.096-1.435,0.287
		c-0.381,0-0.669,0-0.858,0c-0.19,0.191-1.242,0.287-3.152,0.287l-0.859,0.572c-0.571,0.572-1.241,0.955-2.007,1.146l0.286,0.574
		c0.191,0.572,0.287,0.955,0.287,1.146c0,0.19,0.096,0.764,0.285,1.719c-0.19-0.575-0.094-0.287,0.287,0.859
		c0.19,0.574,0.383,1.338,0.574,2.293c0.383,0.575,0.571,1.051,0.571,1.434c0.191,0.955,0.573,2.484,1.146,4.586l-0.86-0.287
		c-0.189,0-0.476-0.096-0.857-0.285H55.91c-0.381,0-1.051-0.096-2.006-0.287c-0.766,0.191-2.007-0.67-3.728-2.58h-0.572l-0.86-1.146
		c-0.571-0.574-0.955-1.338-1.146-2.293c-0.189-0.191-0.286-0.574-0.286-1.146c-0.19-0.574-0.286-0.955-0.286-1.146
		c-0.189-0.574-0.285-1.242-0.285-2.006c0-0.574,0.096-1.434,0.285-2.58c0-0.383,0.096-0.86,0.286-1.434
		c0-0.573,0.097-1.051,0.286-1.432c0.19-0.192,0.287-0.67,0.287-1.434c0.19-0.575,0.286-1.051,0.286-1.434
		c0.191-0.574,0.287-1.529,0.287-2.865c0.191-0.957,0.285-1.721,0.285-2.293l-0.858,0.859c-0.382,0.192-1.146,0.86-2.293,2.006
		c-0.955,0.764-1.72,1.434-2.293,2.006c-0.763,0.763-1.815,1.721-3.153,2.867c-1.529,1.528-2.771,2.77-3.726,3.727l-0.287,4.299
		c-0.19,2.865-0.286,4.777-0.286,5.732c0,1.146,0.096,2.293,0.286,3.439c0,0.381,0.096,0.858,0.287,1.434
		c0,0.381,0.096,0.86,0.286,1.432c0.19,0.575,0.478,1.147,0.859,1.723c0.191,0.189,0.286,0.572,0.286,1.146
		c0.191,0.38,0.383,0.668,0.573,0.859c0,0.189,0.096,0.476,0.287,0.859c0.19,0.764,0.382,1.434,0.573,2.008l-0.573,1.146
		L36.989,79.03z M57.345,45.777c0.574-0.573,1.243-1.147,2.007-1.719c0.766-0.383,1.624-1.147,2.579-2.293
		c0.956-0.955,1.625-1.721,2.008-2.293c0-0.191,0.19-0.478,0.572-0.859c0.383-0.382,0.572-0.67,0.572-0.861
		c0.384-0.572,0.479-0.668,0.287-0.285c0.189-0.383,0.478-1.147,0.859-2.293c0.19-0.574,0.19-0.765,0-0.574
		c0.383-0.955,0.572-1.91,0.572-2.865l-1.435,0.572c-0.381,0.191-0.955,0.476-1.719,0.859c-0.574,0.191-1.052,0.383-1.435,0.574
		c-0.19,0.191-0.477,0.381-0.859,0.572c-0.573,0.383-1.146,0.574-1.721,0.574c-0.764,0.381-2.006,1.431-3.727,3.152l-0.287,1.721
		c-0.189,1.146-0.285,2.196-0.285,3.152s0.382,2.198,1.146,3.727L57.345,45.777z"/>
</g>
</svg>
