<?xml version="1.0" encoding="utf-8"?>
<!-- Generator: Adobe Illustrator 12.0.0, SVG Export Plug-In . SVG Version: 6.00 Build 51448)  -->
<!DOCTYPE svg PUBLIC "-//W3C//DTD SVG 1.1//EN" "http://www.w3.org/Graphics/SVG/1.1/DTD/svg11.dtd" [
	<!ENTITY ns_flows "http://ns.adobe.com/Flows/1.0/">
	<!ENTITY ns_extend "http://ns.adobe.com/Extensibility/1.0/">
	<!ENTITY ns_ai "http://ns.adobe.com/AdobeIllustrator/10.0/">
	<!ENTITY ns_graphs "http://ns.adobe.com/Graphs/1.0/">
	<!ENTITY ns_vars "http://ns.adobe.com/Variables/1.0/">
	<!ENTITY ns_imrep "http://ns.adobe.com/ImageReplacement/1.0/">
	<!ENTITY ns_sfw "http://ns.adobe.com/SaveForWeb/1.0/">
	<!ENTITY ns_custom "http://ns.adobe.com/GenericCustomNamespace/1.0/">
	<!ENTITY ns_adobe_xpath "http://ns.adobe.com/XPath/1.0/">
	<!ENTITY ns_svg "http://www.w3.org/2000/svg">
	<!ENTITY ns_xlink "http://www.w3.org/1999/xlink">
]>
<svg  version="1.1"
	 xmlns:x="&ns_extend;" xmlns:i="&ns_ai;" xmlns:graph="&ns_graphs;" i:viewOrigin="-0.3193 135.7061" i:rulerOrigin="0 0" i:pageBounds="0 136 85 0"
	 xmlns="&ns_svg;" xmlns:xlink="&ns_xlink;" xmlns:a="http://ns.adobe.com/AdobeSVGViewerExtensions/3.0/"
	 width="85.678" height="136.025" viewBox="0 0 85.678 136.025" overflow="visible" enable-background="new 0 0 85.678 136.025"
	 xml:space="preserve">
<metadata>
	<variableSets  xmlns="http://ns.adobe.com/Variables/1.0/">
		<variableSet  varSetName="binding1" locked="none">
			<variables></variables>
			<v:sampleDataSets  xmlns:v="http://ns.adobe.com/Variables/1.0/" xmlns="http://ns.adobe.com/GenericCustomNamespace/1.0/">
				</v:sampleDataSets>
		</variableSet>
	</variableSets>
</metadata>
<g id="图层_1" i:knockout="Off" i:layer="yes" i:dimmedPercent="50" i:rgbTrio="#4F008000FFFF">
	<g i:knockout="Off">
		<path fill="#333333" d="M2.274,99.465v24.962c0,5.149,3.353,9.325,7.481,9.325h68.118c4.133,0,7.484-4.176,7.484-9.325h-0.002
			V9.216c0-4.344-3.352-7.869-7.482-7.869H9.756c-4.131,0-7.481,3.525-7.481,7.869H2.272v90.228
			C2.272,99.45,2.274,99.458,2.274,99.465z"/>
		
			<linearGradient id="XMLID_3_" gradientUnits="userSpaceOnUse" x1="-22.9907" y1="22.7183" x2="-22.9907" y2="148.2847" gradientTransform="matrix(1 0 0 -1 64.8535 158.4238)">
			<stop  offset="0.0899" style="stop-color:#2089B9"/>
			<stop  offset="0.0985" style="stop-color:#4FA3C2"/>
			<stop  offset="0.1071" style="stop-color:#77B9CA"/>
			<stop  offset="0.1138" style="stop-color:#8FC7CF"/>
			<stop  offset="0.118" style="stop-color:#98CCD1"/>
			<stop  offset="0.1341" style="stop-color:#9ECFD3"/>
			<stop  offset="0.156" style="stop-color:#AFD6D9"/>
			<stop  offset="0.1809" style="stop-color:#CBE1E3"/>
			<stop  offset="0.1966" style="stop-color:#E1EAEB"/>
			<a:midPointStop  offset="0.0899" style="stop-color:#2089B9"/>
			<a:midPointStop  offset="0.5" style="stop-color:#2089B9"/>
			<a:midPointStop  offset="0.0985" style="stop-color:#4FA3C2"/>
			<a:midPointStop  offset="0.5" style="stop-color:#4FA3C2"/>
			<a:midPointStop  offset="0.1071" style="stop-color:#77B9CA"/>
			<a:midPointStop  offset="0.5" style="stop-color:#77B9CA"/>
			<a:midPointStop  offset="0.1138" style="stop-color:#8FC7CF"/>
			<a:midPointStop  offset="0.5" style="stop-color:#8FC7CF"/>
			<a:midPointStop  offset="0.118" style="stop-color:#98CCD1"/>
			<a:midPointStop  offset="0.5" style="stop-color:#98CCD1"/>
			<a:midPointStop  offset="0.1341" style="stop-color:#9ECFD3"/>
			<a:midPointStop  offset="0.5" style="stop-color:#9ECFD3"/>
			<a:midPointStop  offset="0.156" style="stop-color:#AFD6D9"/>
			<a:midPointStop  offset="0.5" style="stop-color:#AFD6D9"/>
			<a:midPointStop  offset="0.1809" style="stop-color:#CBE1E3"/>
			<a:midPointStop  offset="0.5" style="stop-color:#CBE1E3"/>
			<a:midPointStop  offset="0.1966" style="stop-color:#E1EAEB"/>
		</linearGradient>
		<path fill="url(#XMLID_3_)" d="M83.405,126.381c0,5.15-3.352,9.325-7.48,9.325H7.804c-4.131,0-7.482-4.177-7.482-9.325V19.465
			c0-5.148,3.354-9.326,7.482-9.326h68.117c4.133,0,7.482,4.176,7.482,9.326v106.916H83.405z"/>
		<path fill="none" stroke="#333333" stroke-width="0.977" d="M83.405,126.381c0,5.15-3.352,9.325-7.48,9.325H7.804
			c-4.131,0-7.482-4.177-7.482-9.325V19.465c0-5.148,3.354-9.326,7.482-9.326h68.117c4.133,0,7.482,4.176,7.482,9.326v106.916
			H83.405z"/>
		<path fill="#FFFFFF" d="M0.32,11.17c0-4.344,3.354-7.869,7.482-7.869h68.118c4.133,0,7.482,3.523,7.482,7.869v90.229
			c0,4.346-3.352,7.869-7.482,7.869H7.802c-4.131,0-7.482-3.523-7.482-7.87L0.32,11.17L0.32,11.17z"/>
		
			<linearGradient id="XMLID_4_" gradientUnits="userSpaceOnUse" x1="3.7021" y1="54.9395" x2="85.8467" y2="54.9395" gradientTransform="matrix(-1 0 0 1 86.6367 1.3447)">
			<stop  offset="0" style="stop-color:#A2D8E0"/>
			<stop  offset="0.0899" style="stop-color:#1878AD"/>
			<stop  offset="0.2135" style="stop-color:#194D91"/>
			<stop  offset="0.6404" style="stop-color:#2B90BD"/>
			<stop  offset="0.9438" style="stop-color:#82CBDE"/>
			<stop  offset="1" style="stop-color:#1A478D"/>
			<a:midPointStop  offset="0" style="stop-color:#A2D8E0"/>
			<a:midPointStop  offset="0.5" style="stop-color:#A2D8E0"/>
			<a:midPointStop  offset="0.0899" style="stop-color:#1878AD"/>
			<a:midPointStop  offset="0.5" style="stop-color:#1878AD"/>
			<a:midPointStop  offset="0.2135" style="stop-color:#194D91"/>
			<a:midPointStop  offset="0.5" style="stop-color:#194D91"/>
			<a:midPointStop  offset="0.6404" style="stop-color:#2B90BD"/>
			<a:midPointStop  offset="0.5" style="stop-color:#2B90BD"/>
			<a:midPointStop  offset="0.9438" style="stop-color:#82CBDE"/>
			<a:midPointStop  offset="0.5" style="stop-color:#82CBDE"/>
			<a:midPointStop  offset="1" style="stop-color:#1A478D"/>
		</linearGradient>
		<path i:isolated="yes" i:knockout="Off" opacity="0.1" fill="url(#XMLID_4_)" enable-background="new    " d="M0.79,11.17
			c0-4.344,3.313-7.869,7.397-7.869h67.347c4.086,0,7.4,3.523,7.4,7.869v90.229c0,4.346-3.314,7.869-7.4,7.869H8.188
			c-4.084,0-7.397-3.523-7.397-7.87V11.17L0.79,11.17z"/>
		<path fill="none" stroke="#4D4D4D" stroke-width="0.977" d="M0.32,101.419v24.962c0,5.148,3.353,9.325,7.482,9.325h68.12
			c4.131,0,7.48-4.175,7.48-9.325V11.171c0-4.346-3.352-7.869-7.482-7.869H7.803c-4.13,0-7.482,3.525-7.482,7.869l-0.001,90.228
			C0.319,101.404,0.32,101.411,0.32,101.419z"/>
	</g>
	<path fill="#D90000" d="M43.233,88.894l-1.875,1.25l0.625-0.625l-0.312-0.312c-0.209,0-0.521-0.105-0.939-0.312
		c0.418,0.207,0.209-0.002-0.625-0.627c-0.834-0.209-1.562-0.625-2.188-1.25c-0.625-0.209-1.355-0.627-2.189-1.252l-0.312-1.25
		c-0.207-0.625-0.312-1.252-0.312-1.877c0-0.209,0.105-0.521,0.312-0.938c0.208-0.418,0.312-0.73,0.312-0.939
		c0.209-0.416,0.627-1.668,1.252-3.752l-1.252-0.625l1.252-2.502l-1.877,0.312c-1.25,0.416-1.459,0.521-0.625,0.312
		c-0.834,0.208-1.668,0.312-2.502,0.312c-1.043,0.208-2.293,0.312-3.754,0.312c-0.625,0-1.459,0.104-2.502,0.312
		c-0.417,0-0.729,0-0.938,0c-0.209,0.209-0.521,0.418-0.938,0.627c-0.209,0-0.418,0.103-0.627,0.312l-0.625-0.627l-0.625-0.312
		c-0.417-0.417-0.729-0.729-0.938-0.938c-0.625-0.418-1.459-0.938-2.502-1.562c-0.209-0.209-0.521-0.416-0.938-0.625
		c-0.833-0.42-1.354-0.731-1.562-0.938c-0.625-0.209-1.043-0.627-1.252-1.252c-0.208-0.209-0.312-0.416-0.312-0.625
		c-0.208-0.418-0.312-0.731-0.312-0.938c-0.208-0.418-0.312-0.939-0.312-1.564l1.25-1.564c0.834-1.043,1.772-1.877,2.813-2.502
		c0.834-0.625,2.086-1.668,3.754-3.127c0.418-0.418,1.043-1.043,1.878-1.877c0.623-0.625,1.146-1.043,1.562-1.25
		c1.252-0.834,2.293-1.564,3.127-2.189L27.6,53.553c0-0.209-0.207-0.523-0.625-0.939c-0.416-0.625-0.834-1.252-1.252-1.877
		l0.314-0.625c0.209-0.209,0.521-0.625,0.938-1.25c-0.416,0.625-0.209,0.207,0.625-1.252h0.312h0.627
		c0.625,0.209,1.25,0.416,1.875,0.625c1.461,0.625,2.504,0.834,3.129,0.627c0.834,0,1.771-0.209,2.813-0.627l0.312-1.25
		c0.208-0.209,0.312-0.834,0.312-1.877c0.208-1.043,0.312-1.771,0.312-2.189c0.208-0.625,0.312-1.877,0.312-3.752
		c0.208-1.461,0.312-2.607,0.312-3.441s0.104-2.084,0.312-3.752c0-1.668,0.105-2.814,0.314-3.439
		c0.208-0.627,0.312-1.564,0.312-2.816c0-1.25,0.104-2.189,0.312-2.814c0-0.416,0.103-1.146,0.312-2.189
		c0-1.25,0.104-2.084,0.312-2.502c0-0.416,0.104-0.937,0.312-1.562c0-0.625,0.105-1.146,0.312-1.564
		c0-0.209,0.104-0.416,0.312-0.625c0-0.834,0.209-1.459,0.627-1.877l0.625,1.252c0.209,0.834,0.522,2.293,0.938,4.377
		c0,0.418,0.105,1.043,0.312,1.877c0,0.834,0.104,1.564,0.313,2.189c0.209,0.418,0.312,1.459,0.312,3.127c0,1.668,0,3.127,0,4.379
		c0,1.25,0.104,2.605,0.312,4.066c0.207,1.459,0.312,3.127,0.312,5.004c0,1.25,0,3.752,0,7.506l0.938-0.312
		c0.627,0,1.461-0.209,2.502-0.627c0.418,0,0.836-0.103,1.252-0.312h0.625h0.312c0.419,0.208,0.729,0.312,0.938,0.312
		c0.625,0.418,1.771,1.146,3.438,2.189V45.11c0-1.459,0.104-2.502,0.312-3.127l0.312-0.312c0.209-0.418,0.418-0.73,0.625-0.939
		l2.502,2.502c0.418,0.418,0.938,1.043,1.562,1.877c0.625,0.625,1.146,1.252,1.563,1.877c0,0.416,0.209,0.937,0.625,1.564
		c0.418,0.416,0.625,0.832,0.625,1.25c0.209,1.25,0.521,2.502,0.938,3.754c0.208,0.625,0.312,1.459,0.312,2.502
		c0,0.834,0.103,1.563,0.312,2.188c0,0.418,0.104,1.043,0.312,1.877c0,0.625,0.104,1.252,0.312,1.877
		c0,0.209,0.105,0.522,0.312,0.938c0,0.625,0.104,1.043,0.312,1.252c0.208,0.625,0.312,1.771,0.312,3.439l-0.938-0.625
		c-0.625-0.209-1.25-0.834-1.877-1.877c-0.208-0.209-0.52-0.522-0.938-0.938c-0.419-0.627-0.729-1.043-0.938-1.252
		c-0.834-0.625-1.564-1.771-2.189-3.439l-0.312,1.25c-0.209,1.043-1.043,2.189-2.502,3.441c-1.668,1.459-2.92,2.502-3.754,3.127
		c-1.043,0.625-1.98,1.146-2.814,1.564c-1.043,0.626-1.668,0.938-1.877,0.938c-0.416,0.416-0.938,0.625-1.562,0.625
		c-0.625,0.418-1.146,0.729-1.563,0.938c-0.209,0.208-0.416,0.521-0.625,0.938c0,0.209-0.103,0.416-0.312,0.625
		c-0.209,0.625-0.314,1.562-0.314,2.812c0,1.459-0.103,2.502-0.312,3.129c-0.207,0.834-0.312,1.562-0.312,2.189
		c0,0.625,0.105,1.25,0.312,1.875c0,0.209,0.105,0.418,0.312,0.627c0.209,0.624,0.418,1.144,0.627,1.562l0.312-1.25
		c0.207-0.209,0.312-0.729,0.312-1.562c0.208-0.834,0.312-1.459,0.312-1.877c0.209-0.625,0.312-1.355,0.312-2.189
		c0-0.625,0-2.084,0-4.377l0.312,2.502c0.207,1.875,0.312,3.543,0.312,5.004c0,1.875-0.207,3.334-0.625,4.377l0.625,1.252
		l-0.312,0.625c0,0.416-0.938,1.25-2.814,2.502L43.233,88.894z M43.846,54.494v9.381l0.938-0.312c0.625,0,1.562-0.314,2.812-0.939
		c1.461-0.418,3.336-1.043,5.629-1.877l0.628-0.938c0.209-0.625,0.521-1.355,0.938-2.189c0.207-0.209,0.312-0.625,0.312-1.25
		c0.208-0.626,0.312-1.148,0.312-1.564c0.209-0.834,0.312-1.564,0.312-2.189c0-0.418-0.206-1.043-0.625-1.877l-1.877,1.252h-1.25
		v1.25h-2.502C48.015,53.242,46.138,53.66,43.846,54.494L43.846,54.494z M27.581,72.005l0.625-1.252l3.754-0.625l0.625,0.625
		l0.312-0.312c0.209,0,0.418-0.104,0.627-0.312s0.416-0.312,0.625-0.312c0.418,0,1.355-0.521,2.814-1.564v-2.502
		c0-1.668,0.103-2.814,0.312-3.439s0.209-1.355,0-2.189c0-0.209-0.103-0.522-0.312-0.938c-0.209-0.834-0.416-1.564-0.625-2.189
		l-1.564,1.25c-0.209,0.209-0.625,0.627-1.25,1.252c-0.834,0.625-1.563,1.25-2.188,1.877L31.96,62l-0.938,0.626
		c-0.209,0.209-0.521,0.521-0.938,0.939l-0.625,0.312c-0.209,0.208-0.416,0.52-0.625,0.938c-0.209,0.417-0.418,0.729-0.627,0.938
		l-1.25,0.627l0.625,1.25l-0.938,0.939c-0.416,0.417-0.937,1.353-1.563,2.814L27.581,72.005z"/>
</g>
</svg>
