<?xml version="1.0" encoding="utf-8"?>
<!-- Generator: Adobe Illustrator 12.0.0, SVG Export Plug-In . SVG Version: 6.00 Build 51448)  -->
<!DOCTYPE svg PUBLIC "-//W3C//DTD SVG 1.1//EN" "http://www.w3.org/Graphics/SVG/1.1/DTD/svg11.dtd" [
	<!ENTITY ns_flows "http://ns.adobe.com/Flows/1.0/">
	<!ENTITY ns_extend "http://ns.adobe.com/Extensibility/1.0/">
	<!ENTITY ns_ai "http://ns.adobe.com/AdobeIllustrator/10.0/">
	<!ENTITY ns_graphs "http://ns.adobe.com/Graphs/1.0/">
	<!ENTITY ns_vars "http://ns.adobe.com/Variables/1.0/">
	<!ENTITY ns_imrep "http://ns.adobe.com/ImageReplacement/1.0/">
	<!ENTITY ns_sfw "http://ns.adobe.com/SaveForWeb/1.0/">
	<!ENTITY ns_custom "http://ns.adobe.com/GenericCustomNamespace/1.0/">
	<!ENTITY ns_adobe_xpath "http://ns.adobe.com/XPath/1.0/">
	<!ENTITY ns_svg "http://www.w3.org/2000/svg">
	<!ENTITY ns_xlink "http://www.w3.org/1999/xlink">
]>
<svg  version="1.1"
	 xmlns:x="&ns_extend;" xmlns:i="&ns_ai;" xmlns:graph="&ns_graphs;" i:viewOrigin="-0.3193 135.7061" i:rulerOrigin="0 0" i:pageBounds="0 136 85 0"
	 xmlns="&ns_svg;" xmlns:xlink="&ns_xlink;" xmlns:a="http://ns.adobe.com/AdobeSVGViewerExtensions/3.0/"
	 width="85.678" height="136.025" viewBox="0 0 85.678 136.025" overflow="visible" enable-background="new 0 0 85.678 136.025"
	 xml:space="preserve">
<metadata>
	<variableSets  xmlns="http://ns.adobe.com/Variables/1.0/">
		<variableSet  varSetName="binding1" locked="none">
			<variables></variables>
			<v:sampleDataSets  xmlns:v="http://ns.adobe.com/Variables/1.0/" xmlns="http://ns.adobe.com/GenericCustomNamespace/1.0/">
				</v:sampleDataSets>
		</variableSet>
	</variableSets>
</metadata>
<g id="图层_1" i:knockout="Off" i:layer="yes" i:dimmedPercent="50" i:rgbTrio="#4F008000FFFF">
	<g i:knockout="Off">
		<path fill="#333333" d="M2.274,99.465v24.962c0,5.149,3.353,9.325,7.481,9.325h68.118c4.133,0,7.484-4.176,7.484-9.325h-0.002
			V9.216c0-4.344-3.352-7.869-7.482-7.869H9.756c-4.131,0-7.481,3.525-7.481,7.869H2.272v90.228
			C2.272,99.45,2.274,99.458,2.274,99.465z"/>
		
			<linearGradient id="XMLID_3_" gradientUnits="userSpaceOnUse" x1="-22.9907" y1="22.7183" x2="-22.9907" y2="148.2847" gradientTransform="matrix(1 0 0 -1 64.8535 158.4238)">
			<stop  offset="0.0899" style="stop-color:#2089B9"/>
			<stop  offset="0.0985" style="stop-color:#4FA3C2"/>
			<stop  offset="0.1071" style="stop-color:#77B9CA"/>
			<stop  offset="0.1138" style="stop-color:#8FC7CF"/>
			<stop  offset="0.118" style="stop-color:#98CCD1"/>
			<stop  offset="0.1341" style="stop-color:#9ECFD3"/>
			<stop  offset="0.156" style="stop-color:#AFD6D9"/>
			<stop  offset="0.1809" style="stop-color:#CBE1E3"/>
			<stop  offset="0.1966" style="stop-color:#E1EAEB"/>
			<a:midPointStop  offset="0.0899" style="stop-color:#2089B9"/>
			<a:midPointStop  offset="0.5" style="stop-color:#2089B9"/>
			<a:midPointStop  offset="0.0985" style="stop-color:#4FA3C2"/>
			<a:midPointStop  offset="0.5" style="stop-color:#4FA3C2"/>
			<a:midPointStop  offset="0.1071" style="stop-color:#77B9CA"/>
			<a:midPointStop  offset="0.5" style="stop-color:#77B9CA"/>
			<a:midPointStop  offset="0.1138" style="stop-color:#8FC7CF"/>
			<a:midPointStop  offset="0.5" style="stop-color:#8FC7CF"/>
			<a:midPointStop  offset="0.118" style="stop-color:#98CCD1"/>
			<a:midPointStop  offset="0.5" style="stop-color:#98CCD1"/>
			<a:midPointStop  offset="0.1341" style="stop-color:#9ECFD3"/>
			<a:midPointStop  offset="0.5" style="stop-color:#9ECFD3"/>
			<a:midPointStop  offset="0.156" style="stop-color:#AFD6D9"/>
			<a:midPointStop  offset="0.5" style="stop-color:#AFD6D9"/>
			<a:midPointStop  offset="0.1809" style="stop-color:#CBE1E3"/>
			<a:midPointStop  offset="0.5" style="stop-color:#CBE1E3"/>
			<a:midPointStop  offset="0.1966" style="stop-color:#E1EAEB"/>
		</linearGradient>
		<path fill="url(#XMLID_3_)" d="M83.405,126.381c0,5.15-3.352,9.325-7.48,9.325H7.804c-4.131,0-7.482-4.177-7.482-9.325V19.465
			c0-5.148,3.354-9.326,7.482-9.326h68.117c4.133,0,7.482,4.176,7.482,9.326v106.916H83.405z"/>
		<path fill="none" stroke="#333333" stroke-width="0.977" d="M83.405,126.381c0,5.15-3.352,9.325-7.48,9.325H7.804
			c-4.131,0-7.482-4.177-7.482-9.325V19.465c0-5.148,3.354-9.326,7.482-9.326h68.117c4.133,0,7.482,4.176,7.482,9.326v106.916
			H83.405z"/>
		<path fill="#FFFFFF" d="M0.32,11.17c0-4.344,3.354-7.869,7.482-7.869h68.118c4.133,0,7.482,3.523,7.482,7.869v90.229
			c0,4.346-3.352,7.869-7.482,7.869H7.802c-4.131,0-7.482-3.523-7.482-7.87L0.32,11.17L0.32,11.17z"/>
		
			<linearGradient id="XMLID_4_" gradientUnits="userSpaceOnUse" x1="3.7021" y1="54.9395" x2="85.8467" y2="54.9395" gradientTransform="matrix(-1 0 0 1 86.6367 1.3447)">
			<stop  offset="0" style="stop-color:#A2D8E0"/>
			<stop  offset="0.0899" style="stop-color:#1878AD"/>
			<stop  offset="0.2135" style="stop-color:#194D91"/>
			<stop  offset="0.6404" style="stop-color:#2B90BD"/>
			<stop  offset="0.9438" style="stop-color:#82CBDE"/>
			<stop  offset="1" style="stop-color:#1A478D"/>
			<a:midPointStop  offset="0" style="stop-color:#A2D8E0"/>
			<a:midPointStop  offset="0.5" style="stop-color:#A2D8E0"/>
			<a:midPointStop  offset="0.0899" style="stop-color:#1878AD"/>
			<a:midPointStop  offset="0.5" style="stop-color:#1878AD"/>
			<a:midPointStop  offset="0.2135" style="stop-color:#194D91"/>
			<a:midPointStop  offset="0.5" style="stop-color:#194D91"/>
			<a:midPointStop  offset="0.6404" style="stop-color:#2B90BD"/>
			<a:midPointStop  offset="0.5" style="stop-color:#2B90BD"/>
			<a:midPointStop  offset="0.9438" style="stop-color:#82CBDE"/>
			<a:midPointStop  offset="0.5" style="stop-color:#82CBDE"/>
			<a:midPointStop  offset="1" style="stop-color:#1A478D"/>
		</linearGradient>
		<path i:isolated="yes" i:knockout="Off" opacity="0.1" fill="url(#XMLID_4_)" enable-background="new    " d="M0.79,11.17
			c0-4.344,3.313-7.869,7.397-7.869h67.347c4.086,0,7.4,3.523,7.4,7.869v90.229c0,4.346-3.314,7.869-7.4,7.869H8.188
			c-4.084,0-7.397-3.523-7.397-7.87V11.17L0.79,11.17z"/>
		<path fill="none" stroke="#4D4D4D" stroke-width="0.977" d="M0.32,101.419v24.962c0,5.148,3.353,9.325,7.482,9.325h68.12
			c4.131,0,7.48-4.175,7.48-9.325V11.171c0-4.346-3.352-7.869-7.482-7.869H7.803c-4.13,0-7.482,3.525-7.482,7.869l-0.001,90.228
			C0.319,101.404,0.32,101.411,0.32,101.419z"/>
	</g>
	<path fill="#1D8F38" d="M40.839,84.201h-1.566c-1.043,0-1.877-0.104-2.502-0.312c-0.625,0-1.042-0.209-1.251-0.625
		c-0.417,0-0.729-0.418-0.938-1.252c-0.417-0.625-0.729-1.25-0.938-1.875c-0.208-0.418-0.312-1.146-0.312-2.188l0.312-0.312
		c0.209,0,0.521-0.209,0.938-0.627c0.209,0,0.626-0.103,1.251-0.312c0.417-0.208,0.834-0.312,1.251-0.312
		c1.251,0,2.188-0.209,2.813-0.625c0.417,0,0.938-0.312,1.563-0.938l-1.251-0.625c-0.416-0.209-1.146-0.625-2.188-1.25
		c-0.625-0.627-1.146-1.043-1.563-1.252h-0.625l-1.563,1.252c-0.417,0.416-0.938,0.832-1.563,1.25
		c-0.417,0.416-0.729,0.729-0.938,0.938c-0.209,0.208-0.521,0.521-0.938,0.938l-0.312,0.625c-0.209,0.209-0.312,1.043-0.312,2.502
		l-0.612,0.624H29.28c-0.417,0-0.729-0.104-0.938-0.312c-0.417,0-0.938-0.312-1.563-0.938c-0.625-0.209-1.146-0.627-1.563-1.252
		c-0.417-0.416-0.729-0.938-0.938-1.562c-0.209-0.418-0.312-0.938-0.312-1.562l0.312-0.312c0.209,0,0.522-0.103,0.938-0.312
		c-0.416,0.209-0.208,0,0.626-0.625c0.834-0.209,1.771-0.627,2.813-1.252h0.312c1.46-0.418,2.92-1.043,4.379-1.877l-0.626-0.625
		c-0.416-0.417-1.042-0.938-1.876-1.562c-1.042-0.627-1.98-1.252-2.814-1.877c-1.043-0.627-2.188-1.252-3.439-1.877
		c-0.417-0.209-1.146-0.522-2.189-0.938c-0.834-0.209-1.459-0.418-1.876-0.627c-1.668-0.209-2.919-0.522-3.753-0.938
		c-1.043,0-2.188-0.313-3.439-0.938c-1.251-0.418-2.397-0.939-3.44-1.564c-1.459-0.834-2.396-1.564-2.813-2.189V56.06l0.625-0.312
		l0.938-0.312c0.626,0,1.252-0.105,1.877-0.312c0.625,0,1.354,0,2.188,0c0.834-0.209,1.563-0.314,2.188-0.314
		c0.626,0,1.355,0.105,2.189,0.314c0.834,0,1.46,0,1.876,0c1.252,0.417,2.397,0.729,3.439,0.938
		c0.418,0.209,1.043,0.522,1.877,0.938c0.209,0.208,0.417,0.312,0.625,0.312c0.626,0.625,1.46,1.252,2.502,1.877
		c0.209,0.209,0.626,0.625,1.251,1.252c0.834,0.625,1.564,1.25,2.189,1.875v-0.938c0-0.625,0.104-1.355,0.312-2.189
		c0.208-0.209,0.312-0.522,0.312-0.938c0-0.418,0.104-0.73,0.312-0.939s0.312-0.416,0.312-0.625
		c0.208-0.418,0.312-0.731,0.312-0.938c0.208-0.418,0.312-0.939,0.312-1.564l-0.625-0.625l-0.938,0.312
		c-0.625,0.208-1.042,0.312-1.251,0.312c-0.416,0-0.729-0.103-0.938-0.312c-0.416,0-0.833-0.313-1.251-0.938
		c-0.417-0.209-0.729-0.627-0.938-1.252c-0.209,0-0.312-0.625-0.312-1.877l0.312-0.312l0.625-0.312c0.209,0,0.521-0.103,0.938-0.312
		c0.834,0,1.46-0.209,1.876-0.625c0.418,0,0.938-0.314,1.563-0.939c0.209-0.209,0.626-0.522,1.251-0.938
		c0.834-0.625,1.563-1.146,2.188-1.564H34.28c-0.625,0-1.146-0.103-1.563-0.312c-0.416,0-0.833-0.313-1.251-0.938
		c-0.417-0.209-0.729-0.627-0.938-1.252c-0.209-0.416-0.312-0.937-0.312-1.562c0-0.418,0.104-0.939,0.312-1.564
		c0.209-0.209,0.522-0.834,0.938-1.877c0.209-0.625,0.521-1.459,0.938-2.502c0.208-0.625,0.312-1.25,0.312-1.875l-1.251-0.627
		c-0.416-0.209-1.042-0.522-1.876-0.938c-0.625-0.209-1.042-0.418-1.251-0.625c-1.251-0.627-2.502-1.252-3.753-1.877
		s-2.397-1.252-3.44-1.877c-1.042-0.625-1.876-1.25-2.502-1.875c-0.625-0.418-1.042-0.834-1.251-1.252
		c-0.208-0.625-0.312-1.25-0.312-1.877c0-0.625,0.104-1.25,0.312-1.877c0-0.207,0.104-0.312,0.312-0.312
		c0-0.416,0.209-0.832,0.626-1.25h0.312c0.209,0,0.521,0.103,0.938,0.312c0.209,0.209,1.146,0.834,2.813,1.877
		c0.626,0.416,1.564,1.146,2.814,2.189c0.626,0.417,1.043,0.729,1.251,0.938c1.252,0.834,2.503,1.564,3.753,2.189
		c0.626,0.416,1.354,0.937,2.188,1.564c0.626,0.207,1.043,0.416,1.251,0.625c0.834,0.626,1.564,0.938,2.189,0.938l0.312-0.312
		l0.626-0.312c0.209-0.418,0.522-0.731,0.938-0.938c0.418-0.209,0.835-0.418,1.251-0.627c0.418-0.417,0.835-0.729,1.251-0.938
		c0.834-0.209,1.771-0.522,2.815-0.938c0.417,0,0.938,0,1.562,0c0.625-0.209,1.146-0.314,1.562-0.314
		c0.418,0,0.938,0.105,1.562,0.314c0.417,0,0.729,0,0.938,0s0.416,0.103,0.625,0.312c0.209,0.207,0.418,0.312,0.625,0.312
		c0.209,0.207,0.312,0.416,0.312,0.625c0.209,0.209,0.312,0.416,0.312,0.625c0.209,0.625,0.312,1.146,0.312,1.564l-0.626-0.312
		c-0.416,0-0.937-0.209-1.562-0.625c-0.207,0-0.521,0-0.938,0c-0.417-0.209-0.729-0.314-0.938-0.314s-0.521,0.105-0.938,0.314
		c-0.417,0-0.729,0-0.938,0c-0.625,0.417-1.25,0.729-1.875,0.938c-0.209,0.209-0.521,0.522-0.938,0.938l-0.626,0.312
		c0,0.209-0.208,0.418-0.625,0.627c-0.417,0.625-0.834,1.25-1.251,1.875l0.625,0.627c0.209,0.625,0.835,1.041,1.877,1.25
		c0.834,0.625,1.563,0.939,2.188,0.939c0.625,0.207,1.252,0.312,1.877,0.312c0.834,0,1.771-0.209,2.812-0.627l0.626-1.875h0.625
		l0.312-0.312c0.209,0,0.521-0.627,0.938-1.877c0-0.209,0.209-0.627,0.626-1.252c0.209-0.834,0.417-1.459,0.625-1.875
		c0.209-0.418,0.521-1.043,0.938-1.877c0.209-0.627,0.418-1.043,0.627-1.252c0.209,0,0.521-0.313,0.938-0.938
		c0.417-0.416,0.73-0.73,0.938-0.939c0.209-0.208,0.521-0.52,0.938-0.938l0.625-0.312c0.209-0.208,0.522-0.312,0.938-0.312
		c0.209,0,0.521,0.103,0.938,0.312l0.625,0.312c0.417,0.418,0.73,0.731,0.938,0.938c0.209,0.209,0.521,0.523,0.938,0.939
		l0.312,0.625c0.209,0.209,0.312,0.416,0.312,0.625c0.209,0.418,0.312,0.73,0.312,0.939c0.209,1.25,0.312,2.189,0.312,2.814
		c0,1.043-0.208,2.084-0.626,3.127l-0.312-0.938c-0.209-0.209-0.312-0.418-0.312-0.625c0-0.418-0.104-0.73-0.312-0.939
		c-0.416-0.418-0.938-1.043-1.563-1.877h-0.625L58.973,27.6h-0.63l-0.312,0.312c-0.209,0-0.521,0.313-0.938,0.938
		c0,0.209-0.103,0.416-0.312,0.625s-0.521,0.834-0.938,1.877c-0.417,1.25-0.729,2.084-0.938,2.502l-0.312,1.252
		c-0.208,0.207,0,0.728,0.625,1.562h0.626l0.938-0.625c0.625-0.418,1.459-0.939,2.502-1.564c0.418-0.209,1.043-0.522,1.877-0.938
		c0.209-0.208,0.416-0.312,0.625-0.312s0.521,0,0.938,0c0.418-0.208,0.835-0.312,1.251-0.312l0.626,0.625v0.626
		c0,0.416-0.208,1.25-0.626,2.502h0.626v0.625l-0.626,0.627c-0.416,0.625-0.938,1.041-1.562,1.25
		c-0.625,0.625-1.146,0.939-1.563,0.939l-0.626,0.312c-0.417,0.417-0.729,0.729-0.938,0.938c-0.834,0.834-1.563,1.771-2.189,2.814
		V44.8h0.312c0.209,0,0.625-0.103,1.25-0.312c0.625,0,1.146-0.209,1.562-0.625c0.418,0,0.835-0.209,1.251-0.625h0.312
		c0.418-0.208,0.729-0.312,0.938-0.312l0.626,0.625v0.625c0,0.625-0.104,1.146-0.312,1.564c-0.416,0.624-0.729,1.146-0.938,1.562
		c-0.417,0.625-0.834,0.939-1.251,0.939c-0.417,0.417-0.938,0.729-1.562,0.938c-0.209,0.209-0.521,0.521-0.938,0.939
		c-0.417,0.207-0.729,0.416-0.938,0.625c-0.625,0.625-1.146,1.25-1.563,1.877c-0.208,0.626-0.625,1.354-1.251,2.188h0.938
		c0.209,0,0.521,0.105,0.938,0.314h0.626c0.209,0.417,0.626,0.729,1.251,0.938l0.312-0.312c0.209,0,0.627-0.627,1.252-1.877
		c0.209-0.209,0.416-0.625,0.625-1.25c0.625-0.834,1.146-1.564,1.562-2.189c0.417-0.418,0.834-0.939,1.251-1.564
		c0.418-0.834,0.834-1.459,1.252-1.877c0.416-0.416,0.835-0.937,1.25-1.562c0.419-0.418,0.729-0.73,0.938-0.939
		c0.209-0.209,0.522-0.416,0.938-0.625c0.416-0.418,0.729-0.731,0.938-0.938c0.625-0.209,1.146-0.521,1.562-0.939
		c0.209,0,0.627-0.103,1.252-0.312c-0.625,0.209-0.209,0,1.25-0.625v0.625h1.252l0.625,0.625v0.627l-0.625,0.625h-0.625
		l-0.627,0.312h-0.625c0,0.209-0.207,0.416-0.625,0.625c-0.416,0-0.625,0.103-0.625,0.312c-0.418,0.625-0.938,1.252-1.563,1.877
		c-0.209,0.209-0.521,0.521-0.938,0.939c-0.207,0.625-0.416,1.041-0.625,1.25c-0.416,0.625-0.938,1.459-1.563,2.502
		c-0.625,1.25-1.354,2.502-2.188,3.754c-0.625,0.834-1.669,2.814-3.129,5.941h0.938c0.209,0,0.521,0.103,0.938,0.312
		c0.419,0,0.73,0,0.938,0c0.625,0.417,1.147,0.729,1.562,0.938c0,0.209,0.21,0.521,0.625,0.939c0.419,0.207,0.625,0.416,0.625,0.625
		c0.21,0.625,0.522,1.25,0.938,1.877c0.208,0.624,0.312,1.146,0.312,1.562l-0.625,0.627h-1.562c-1.043,0-1.771-0.105-2.189-0.312
		H62.73l-0.625-0.314h-0.626c-0.417,0.209-0.729,0.314-0.938,0.314c-0.625,0.417-1.252,0.729-1.877,0.938
		c-0.625,0.625-1.043,1.042-1.252,1.25c-0.207,0.209-0.312,0.521-0.312,0.938c-0.208,0.624-0.417,1.146-0.626,1.562l0.626,0.627
		h0.938c0.209,0,0.521,0.103,0.938,0.312H59.6c0.209,0.207,0.521,0.416,0.938,0.625c0.416,0.209,0.729,0.416,0.938,0.625
		s0.521,0.521,0.938,0.939c0.418,0.416,0.729,0.625,0.938,0.625v0.625l-0.312,0.312c-0.418,0.418-1.043,0.627-1.877,0.627
		c-1.043,0.416-1.877,0.625-2.502,0.625c-0.625,0.417-1.355,0.729-2.189,0.938c-0.209,0.209-0.521,0.416-0.938,0.625
		c-0.418,0.209-0.729,0.418-0.938,0.627H53.97c-0.416,0-0.833-0.105-1.251-0.312c-0.416,0-0.937-0.521-1.562-1.562
		c-0.625-0.625-1.354-1.668-2.188-3.127l-0.625,0.312c-0.208,0.207-1.042,0.312-2.502,0.312L45.215,76.7
		c-0.416,0.625-1.145,1.252-2.188,1.877c-0.209,0.209-0.626,0.625-1.251,1.25c-0.834,0.625-1.562,1.252-2.188,1.877v0.625
		l1.251,1.252v0.625V84.201z M51.165,72.946c0.209-0.209,0.521-0.834,0.938-1.877c0-0.209,0.209-0.522,0.625-0.938
		c0.417-0.834,0.729-1.461,0.938-1.877c0.627-0.834,1.252-2.086,1.877-3.754c0.625-1.25,1.146-2.502,1.563-3.752
		c0.416-0.834,0.521-1.043,0.312-0.625c0.209-0.418,0.312-0.939,0.312-1.564h-0.625h-0.626c-0.417,0.208-0.729,0.312-0.938,0.312
		c-0.625,0.417-1.25,0.729-1.877,0.938c-0.625,0.625-1.146,0.939-1.562,0.939c-0.417,0.207-0.834,0.312-1.251,0.312
		s-0.834-0.105-1.251-0.312c-0.417,0-0.938-0.418-1.562-1.252c-0.625-0.416-1.043-0.937-1.252-1.562
		c-0.209-0.209-0.312-0.627-0.312-1.252l5.631-5.629v-0.625l-0.938-0.627c-0.625-0.209-1.041-0.625-1.25-1.25
		c-0.209-0.209-0.312-1.043-0.312-2.502l0.312-0.312c0.209,0,0.625-0.314,1.25-0.939c0.209,0.209,1.772-1.25,4.691-4.377h-0.938
		c-0.625,0-1.252-0.105-1.877-0.312c-0.625,0-1.146-0.314-1.562-0.939c-0.417-0.417-0.729-0.937-0.938-1.562
		c0-0.209-0.104-0.523-0.312-0.939c-0.208-0.625-0.416-1.252-0.625-1.877l-0.626,0.939c-0.416,0.834-0.833,1.25-1.252,1.25
		c0,0.208-1.251,0.312-3.753,0.312v0.627h1.251l0.626,0.625c0.209,0.625,0.521,1.041,0.938,1.25
		c0.207,0.625,0.312,1.043,0.312,1.252l-0.938,0.312c-0.625,0.417-1.354,0.729-2.188,0.938c-0.416,0.209-0.833,0.521-1.25,0.939
		c-0.416,0.207-0.833,0.416-1.251,0.625c-0.416,0.209-0.833,0.625-1.251,1.252c-0.416,0.417-0.833,0.729-1.251,0.938
		c-0.834,1.043-2.085,2.084-3.753,3.127l0.626,0.312c0.209,0.418,0.521,0.627,0.938,0.627c0.208,0.207,0.312,0.416,0.312,0.625
		l0.312,0.312c0.208,0.625,0.312,1.041,0.312,1.25c0,0.625-0.104,1.459-0.312,2.502c-0.208,1.252-0.312,2.086-0.312,2.502
		l0.625,0.627h2.502l0.626-0.627v-1.25c0-0.625,0.104-1.771,0.312-3.439c0-0.418,0.104-1.043,0.312-1.877
		c0-0.626,0.104-1.148,0.312-1.564c0.209-0.625,0.522-1.564,0.938-2.814c0.209-0.418,0.625-1.043,1.25-1.877
		c0.209-0.417,0.418-0.729,0.626-0.938h0.625l0.312,0.312c0.209,0.209,0.312,0.416,0.312,0.625l0.312,0.312
		c0.207,0.209,0.312,0.521,0.312,0.939c0,0.417,0.104,0.729,0.313,0.938c0.207,1.043,0.312,1.668,0.312,1.877
		c0,0.625-0.103,1.041-0.312,1.25c-0.418,0.625-0.729,1.355-0.938,2.189c-0.417,1.252-0.729,2.189-0.938,2.814
		c-0.207,1.043-0.312,1.668-0.312,1.877c0,0.625,0.104,1.252,0.312,1.877c0.209,0.834,0.312,1.668,0.312,2.502l-0.625-0.312
		c-0.417,0-1.043-0.314-1.876-0.939l-0.625,0.314c-0.417,0.417-0.938,0.729-1.563,0.938c-0.625,0.625-1.251,1.041-1.877,1.25
		c-0.208,0.209-0.52,0.418-0.938,0.627c-0.416,0.416-0.833,0.832-1.251,1.25l-0.625-0.312h-0.312
		c-0.834-0.208-1.771-0.312-2.814-0.312l0.938,0.938c0.834,1.043,2.189,2.189,4.065,3.441l1.877-0.627
		c1.251-0.209,2.293-0.522,3.127-0.938c0.418,0,0.834-0.103,1.25-0.312c0.209,0,0.418,0,0.626,0l-5.003,3.127l0.312,0.312
		c0.209,0.209,0.521,0.418,0.938,0.627c0.417,0.207,0.729,0.416,0.938,0.625c1.043,0.624,2.085,1.146,3.128,1.562
		c1.043,0.625,2.084,0.938,3.127,0.938c0.834,0.207,1.771,0.312,2.813,0.312L51.165,72.946z M35.835,42.297h0.312
		c0.209,0.209,0.729,0,1.563-0.625c0.418-0.209,1.043-0.522,1.877-0.938c0.209-0.209,0.417-0.418,0.625-0.625
		c0.418-0.209,1.146-0.627,2.189-1.252c-0.417,0.208,0.104-0.104,1.563-0.938v-0.627l-1.251-0.312c-1.042,0-1.98-0.313-2.814-0.938
		c-0.834-0.417-1.042-0.521-0.625-0.312c-0.417-0.208-0.938-0.312-1.563-0.312l-0.625,1.562c-0.417,1.252-0.729,2.189-0.938,2.814
		C35.938,40.628,35.835,41.462,35.835,42.297L35.835,42.297z"/>
</g>
</svg>
