<?xml version="1.0" encoding="utf-8"?>
<!-- Generator: Adobe Illustrator 12.0.0, SVG Export Plug-In . SVG Version: 6.00 Build 51448)  -->
<!DOCTYPE svg PUBLIC "-//W3C//DTD SVG 1.1//EN" "http://www.w3.org/Graphics/SVG/1.1/DTD/svg11.dtd" [
	<!ENTITY ns_flows "http://ns.adobe.com/Flows/1.0/">
	<!ENTITY ns_extend "http://ns.adobe.com/Extensibility/1.0/">
	<!ENTITY ns_ai "http://ns.adobe.com/AdobeIllustrator/10.0/">
	<!ENTITY ns_graphs "http://ns.adobe.com/Graphs/1.0/">
	<!ENTITY ns_vars "http://ns.adobe.com/Variables/1.0/">
	<!ENTITY ns_imrep "http://ns.adobe.com/ImageReplacement/1.0/">
	<!ENTITY ns_sfw "http://ns.adobe.com/SaveForWeb/1.0/">
	<!ENTITY ns_custom "http://ns.adobe.com/GenericCustomNamespace/1.0/">
	<!ENTITY ns_adobe_xpath "http://ns.adobe.com/XPath/1.0/">
	<!ENTITY ns_svg "http://www.w3.org/2000/svg">
	<!ENTITY ns_xlink "http://www.w3.org/1999/xlink">
]>
<svg  version="1.1"
	 xmlns:x="&ns_extend;" xmlns:i="&ns_ai;" xmlns:graph="&ns_graphs;" i:viewOrigin="-0.3193 135.7061" i:rulerOrigin="0 0" i:pageBounds="0 136 85 0"
	 xmlns="&ns_svg;" xmlns:xlink="&ns_xlink;" xmlns:a="http://ns.adobe.com/AdobeSVGViewerExtensions/3.0/"
	 width="85.678" height="136.025" viewBox="0 0 85.678 136.025" overflow="visible" enable-background="new 0 0 85.678 136.025"
	 xml:space="preserve">
<metadata>
	<variableSets  xmlns="http://ns.adobe.com/Variables/1.0/">
		<variableSet  varSetName="binding1" locked="none">
			<variables></variables>
			<v:sampleDataSets  xmlns:v="http://ns.adobe.com/Variables/1.0/" xmlns="http://ns.adobe.com/GenericCustomNamespace/1.0/">
				</v:sampleDataSets>
		</variableSet>
	</variableSets>
</metadata>
<g id="图层_1" i:knockout="Off" i:layer="yes" i:dimmedPercent="50" i:rgbTrio="#4F008000FFFF">
	<g i:knockout="Off">
		<path fill="#333333" d="M2.274,99.465v24.962c0,5.149,3.353,9.325,7.481,9.325h68.118c4.133,0,7.484-4.176,7.484-9.325h-0.002
			V9.216c0-4.344-3.352-7.869-7.482-7.869H9.756c-4.131,0-7.481,3.525-7.481,7.869H2.272v90.228
			C2.272,99.45,2.274,99.458,2.274,99.465z"/>
		
			<linearGradient id="XMLID_3_" gradientUnits="userSpaceOnUse" x1="-22.9907" y1="22.7183" x2="-22.9907" y2="148.2847" gradientTransform="matrix(1 0 0 -1 64.8535 158.4238)">
			<stop  offset="0.0899" style="stop-color:#2089B9"/>
			<stop  offset="0.0985" style="stop-color:#4FA3C2"/>
			<stop  offset="0.1071" style="stop-color:#77B9CA"/>
			<stop  offset="0.1138" style="stop-color:#8FC7CF"/>
			<stop  offset="0.118" style="stop-color:#98CCD1"/>
			<stop  offset="0.1341" style="stop-color:#9ECFD3"/>
			<stop  offset="0.156" style="stop-color:#AFD6D9"/>
			<stop  offset="0.1809" style="stop-color:#CBE1E3"/>
			<stop  offset="0.1966" style="stop-color:#E1EAEB"/>
			<a:midPointStop  offset="0.0899" style="stop-color:#2089B9"/>
			<a:midPointStop  offset="0.5" style="stop-color:#2089B9"/>
			<a:midPointStop  offset="0.0985" style="stop-color:#4FA3C2"/>
			<a:midPointStop  offset="0.5" style="stop-color:#4FA3C2"/>
			<a:midPointStop  offset="0.1071" style="stop-color:#77B9CA"/>
			<a:midPointStop  offset="0.5" style="stop-color:#77B9CA"/>
			<a:midPointStop  offset="0.1138" style="stop-color:#8FC7CF"/>
			<a:midPointStop  offset="0.5" style="stop-color:#8FC7CF"/>
			<a:midPointStop  offset="0.118" style="stop-color:#98CCD1"/>
			<a:midPointStop  offset="0.5" style="stop-color:#98CCD1"/>
			<a:midPointStop  offset="0.1341" style="stop-color:#9ECFD3"/>
			<a:midPointStop  offset="0.5" style="stop-color:#9ECFD3"/>
			<a:midPointStop  offset="0.156" style="stop-color:#AFD6D9"/>
			<a:midPointStop  offset="0.5" style="stop-color:#AFD6D9"/>
			<a:midPointStop  offset="0.1809" style="stop-color:#CBE1E3"/>
			<a:midPointStop  offset="0.5" style="stop-color:#CBE1E3"/>
			<a:midPointStop  offset="0.1966" style="stop-color:#E1EAEB"/>
		</linearGradient>
		<path fill="url(#XMLID_3_)" d="M83.405,126.381c0,5.15-3.352,9.325-7.48,9.325H7.804c-4.131,0-7.482-4.177-7.482-9.325V19.465
			c0-5.148,3.354-9.326,7.482-9.326h68.117c4.133,0,7.482,4.176,7.482,9.326v106.916H83.405z"/>
		<path fill="none" stroke="#333333" stroke-width="0.977" d="M83.405,126.381c0,5.15-3.352,9.325-7.48,9.325H7.804
			c-4.131,0-7.482-4.177-7.482-9.325V19.465c0-5.148,3.354-9.326,7.482-9.326h68.117c4.133,0,7.482,4.176,7.482,9.326v106.916
			H83.405z"/>
		<path fill="#FFFFFF" d="M0.32,11.17c0-4.344,3.354-7.869,7.482-7.869h68.118c4.133,0,7.482,3.523,7.482,7.869v90.229
			c0,4.346-3.352,7.869-7.482,7.869H7.802c-4.131,0-7.482-3.523-7.482-7.87L0.32,11.17L0.32,11.17z"/>
		
			<linearGradient id="XMLID_4_" gradientUnits="userSpaceOnUse" x1="3.7021" y1="54.9395" x2="85.8467" y2="54.9395" gradientTransform="matrix(-1 0 0 1 86.6367 1.3447)">
			<stop  offset="0" style="stop-color:#A2D8E0"/>
			<stop  offset="0.0899" style="stop-color:#1878AD"/>
			<stop  offset="0.2135" style="stop-color:#194D91"/>
			<stop  offset="0.6404" style="stop-color:#2B90BD"/>
			<stop  offset="0.9438" style="stop-color:#82CBDE"/>
			<stop  offset="1" style="stop-color:#1A478D"/>
			<a:midPointStop  offset="0" style="stop-color:#A2D8E0"/>
			<a:midPointStop  offset="0.5" style="stop-color:#A2D8E0"/>
			<a:midPointStop  offset="0.0899" style="stop-color:#1878AD"/>
			<a:midPointStop  offset="0.5" style="stop-color:#1878AD"/>
			<a:midPointStop  offset="0.2135" style="stop-color:#194D91"/>
			<a:midPointStop  offset="0.5" style="stop-color:#194D91"/>
			<a:midPointStop  offset="0.6404" style="stop-color:#2B90BD"/>
			<a:midPointStop  offset="0.5" style="stop-color:#2B90BD"/>
			<a:midPointStop  offset="0.9438" style="stop-color:#82CBDE"/>
			<a:midPointStop  offset="0.5" style="stop-color:#82CBDE"/>
			<a:midPointStop  offset="1" style="stop-color:#1A478D"/>
		</linearGradient>
		<path i:isolated="yes" i:knockout="Off" opacity="0.1" fill="url(#XMLID_4_)" enable-background="new    " d="M0.79,11.17
			c0-4.344,3.313-7.869,7.397-7.869h67.347c4.086,0,7.4,3.523,7.4,7.869v90.229c0,4.346-3.314,7.869-7.4,7.869H8.188
			c-4.084,0-7.397-3.523-7.397-7.87V11.17L0.79,11.17z"/>
		<path fill="none" stroke="#4D4D4D" stroke-width="0.977" d="M0.32,101.419v24.962c0,5.148,3.353,9.325,7.482,9.325h68.12
			c4.131,0,7.48-4.175,7.48-9.325V11.171c0-4.346-3.352-7.869-7.482-7.869H7.803c-4.13,0-7.482,3.525-7.482,7.869l-0.001,90.228
			C0.319,101.404,0.32,101.411,0.32,101.419z"/>
	</g>
	<g i:knockout="Off">
		<path fill="#24258D" d="M24.701,84.713c-3.941,0-8.742-0.102-14.402-0.303c-0.809-0.104-1.011-0.608-0.607-1.519
			c1.314-2.628,3.74-3.589,7.277-2.881c4.348,1.112,8.693,1.668,13.039,1.668c4.447-0.102,8.288-0.759,11.521-1.972
			c0.81-0.303,1.466-0.252,1.972,0.152c0.505,0.605,0.555,1.264,0.15,1.971c-0.604,1.011-1.362,1.719-2.272,2.123
			c-0.91,0.505-1.668,0.604-2.274,0.303c-0.605-0.405-1.516-0.506-2.729-0.303C32.536,84.358,28.645,84.61,24.701,84.713z"/>
	</g>
	<path i:knockout="Off" fill="none" d="M53.573,69.192c-0.209,2.898-0.302,6.016-0.111,9.369c-0.811-0.813-1.654-1.992-1.869-3.508
		C51.337,73.247,52.005,71.281,53.573,69.192z"/>
	<path i:knockout="Off" fill="none" d="M55.45,71.289c0.019-0.363,0.037-0.729,0.06-1.084c1.891,2.828,4.584,5.598,4.741,5.76
		l1.425-1.394c0.278,0.938,0.235,1.925-0.354,2.888C59.933,76.768,56.644,74.803,55.45,71.289z"/>
	<path i:knockout="Off" fill="none" d="M55.485,78.978c-0.086-1.282-0.119-2.527-0.125-3.748c1.471,1.864,3.297,3.07,4.522,3.738
		c-1.465,1.042-3.241,1.325-4.258,1.396C55.569,79.911,55.516,79.455,55.485,78.978z"/>
	<path i:knockout="Off" fill="none" d="M51.513,62.479c-0.229,0.908-0.309,1.705-1.288,2.619c-0.961,0.896-2.652,1.516-3.913,1.68
		c0.929-0.528,1.836-1.131,2.818-1.938C50.03,64.102,50.848,63.273,51.513,62.479z"/>
	<path i:knockout="Off" fill="none" d="M61.034,55.753c2.418-0.914,4.658,1.002,4.762,1.092l1.283-1.449
		c0.117,0.941,0.014,2.072-0.437,3.107c-0.176,0.404-0.429,0.846-0.784,1.251c-0.443-0.108-0.892-0.243-1.349-0.438
		C62.975,58.658,61.886,57.336,61.034,55.753z"/>
	<path i:knockout="Off" fill="none" d="M59.663,58.96c-0.342-0.789-0.467-1.633-0.439-2.361c1.003,1.891,2.345,3.554,4.312,4.464
		c-0.119,0.023-0.229,0.054-0.354,0.07C61.057,61.404,60.065,59.888,59.663,58.96z"/>
	<path i:knockout="Off" fill="none" d="M43.187,64.366c0,0,3.309,0.201,2.913,0.41c-1.06,0.565-3.183,1.387-4.106,1.591
		c-0.187-0.436-0.387-1.066-0.387-1.837c0-1.18,0.475-2.635,2.203-4.018c3.005-2.403,5.928-1.506,7.278-0.855
		c-0.428,0.678-0.688,1.176-0.688,1.176l-5.664-0.059c0,0-0.222,1.073,0.807,1.021c1.029-0.05,4.011,0.145,4.011,0.145l-1.229,1.252
		l-0.992,0.669l-3.424-0.388L43.187,64.366z"/>
	<path i:knockout="Off" fill="none" d="M62.556,29.209c-0.338-0.127-0.676-0.259-1.014-0.404c0.24-0.269,0.494-0.592,0.761-0.99
		l0.727-1.266c0.977-1.806,2.61-4.832,4.715-4.699c2.138,0.139,4.586,2.631,5.693,3.994c-0.671,1.56-1.658,3.005-3.14,3.814
		c-0.458,0.25-0.965,0.402-1.494,0.502c2.197-1.912,3.5-4.611,3.578-4.777l-1.807-0.855c-0.024,0.049-2.334,4.816-5.551,5.447
		c-0.188-0.042-0.378-0.093-0.568-0.146c0.725-3.268,4.746-5.245,4.789-5.266l-0.861-1.805
		C68.169,22.861,63.581,25.107,62.556,29.209z"/>
	<path i:knockout="Off" fill="none" d="M26.384,34.216c-2.512,0.059-4.061-0.459-4.783-0.773c0.135-1.51,0.75-5.49,3.598-6.459
		c1.43-0.486,2.764-0.432,3.966,0.166c0.606,0.3,1.088,0.712,1.488,1.146c-0.653,0.99-2.344,2.724-5.745,1.648l-0.604,1.906
		c3.643,1.153,6.104-0.201,7.464-1.734c0.115,0.449-0.05,1.043-0.479,1.652C30.456,32.949,28.616,34.166,26.384,34.216z"/>
	<path fill="#35A034" d="M42.605,27.9c-0.719,0.328-1.337,0.682-1.84,1.01c-0.557-3.455-2.868-7.197-2.894-7.238l-1.544-2.469
		l2.733,0.998c3.683,1.344,7.479,4.913,9.062,6.52c-0.941-0.014-1.823,0.082-2.641,0.246c-1.16-1.077-2.726-2.411-4.398-3.479
		C41.669,24.758,42.265,26.314,42.605,27.9z"/>
	<path fill="#35A034" d="M20.021,34.887c0.15,0.099,2.252,1.424,6.411,1.328c2.577-0.059,5.126-1.354,6.494-3.297
		c0.832-1.182,1.091-2.428,0.73-3.508c-0.159-0.482-0.423-1.023-0.786-1.566c-0.39-2.224,0.255-4.578,0.771-5.988
		c2.155,2.156,4.17,4.92,5.398,8.334c0.112-0.057,0.178-0.09,0.178-0.09s0.534-0.519,1.491-1.15
		c-3.778-9.742-13.182-14.209-15.113-15.037c-0.102-0.194-0.308-0.584-0.603-1.145c0.108,0.028,0.354,0.086,0.377,0.092
		c2.736,1.145,22.625,10.434,27.057,13.215c4.65,2.918,13.31,8.35,18.829,5.34c5.692-3.106,5.774-8.08,4.967-10.596
		c-0.519-1.617-1.404-1.543-1.404-1.543c0,0.039-0.039,2.073-0.638,4.385c-1.384-1.496-3.789-3.645-6.311-3.807
		c-3.381-0.215-5.398,3.516-6.604,5.746l-0.63,1.104c-0.425,0.639-0.787,1.002-1.028,1.205c-2.373-1.183-4.572-2.558-6.121-3.531
		c-4.733-2.97-25.021-12.404-27.419-13.396l-0.071-0.029c0,0-1.379-0.944-2.716-1.268c-1.046-0.252-2.119,0.1-2.119,0.1l2.457,4.668
		l-2.42,2.057l1.414,1.414l2.435-2.062c1.164,0.531,4.059,1.994,7.016,4.531c-0.442,1.045-1.176,3.088-1.299,5.371
		c-0.225-0.146-0.462-0.283-0.712-0.406c-1.673-0.83-3.574-0.924-5.498-0.268c-3.488,1.187-4.538,5.141-4.856,7.375
		c-2.472-1.666-4.034-5-4.049-5.037c0,0-0.649,0.287-0.785,1.066C14.593,30.066,16.112,33.119,20.021,34.887z M62.303,27.815
		l0.727-1.266c0.977-1.806,2.61-4.832,4.715-4.699c2.138,0.139,4.586,2.631,5.693,3.994c-0.671,1.56-1.658,3.005-3.14,3.814
		c-0.458,0.25-0.965,0.402-1.494,0.502c2.197-1.912,3.5-4.611,3.578-4.777l-1.807-0.855c-0.024,0.049-2.334,4.816-5.551,5.447
		c-0.188-0.042-0.378-0.093-0.568-0.146c0.725-3.268,4.746-5.245,4.789-5.266l-0.861-1.805c-0.215,0.103-4.803,2.349-5.828,6.451
		c-0.338-0.127-0.676-0.259-1.014-0.404C61.782,28.535,62.036,28.213,62.303,27.815z M25.198,26.983
		c1.43-0.486,2.764-0.432,3.966,0.166c0.606,0.3,1.088,0.712,1.488,1.146c-0.653,0.99-2.344,2.724-5.745,1.648l-0.604,1.906
		c3.643,1.153,6.104-0.201,7.464-1.734c0.115,0.449-0.05,1.043-0.479,1.652c-0.832,1.181-2.671,2.398-4.903,2.447
		c-2.512,0.059-4.061-0.459-4.783-0.773C21.736,31.932,22.352,27.951,25.198,26.983z"/>
	<path fill="#35A034" d="M52.042,57.895c-2.168-1.07-5.947-1.772-9.484,1.059c-3.184,2.547-3.264,5.599-2.621,7.634
		c-3.654-0.055-5.834-2.505-6.188-2.936c0,0-0.51,0.839,0.13,1.989c0.837,1.503,3.253,3.369,7.461,2.855
		c0.981,0.224,6.561,1.326,9.836-1.729c2.968-2.765,2.602-6.145,2.352-7.334c0.537-1.057,0.934-2.115,1.211-3.143
		c-0.101,2.162-0.336,4.401-0.588,6.759c-0.097,0.899-0.191,1.831-0.285,2.778c-3.246,3.306-4.687,6.513-4.248,9.531
		c0.48,3.326,3.018,5.262,4.065,5.943c0.666,4.117,1.806,7.444,4.749,9.531c9.405,6.662,12.893,2.244,12.893,2.244
		c-0.064,0.006-6.056,0.272-10.664-3.7c-2.074-1.787-3.976-4.003-4.685-7.032c1.742-0.147,5.152-0.795,7.076-3.432
		c2.137-2.927,1.199-5.957-3.844-9.967c0,0,1.5,2.412,2.462,5.604c-1.397-1.429-5.077-5.562-5.866-8.031
		c0.107-1.119,0.224-2.209,0.334-3.262c0.349-3.269,0.664-6.314,0.644-9.273c-1.457,0.551-3,1.05-3.809,1.06
		C52.771,55.969,52.476,56.927,52.042,57.895z M46.1,64.775c-1.06,0.565-3.183,1.387-4.106,1.591
		c-0.187-0.436-0.387-1.066-0.387-1.837c0-1.18,0.475-2.635,2.203-4.018c3.005-2.403,5.928-1.506,7.278-0.855
		c-0.428,0.678-0.688,1.176-0.688,1.176l-5.664-0.059c0,0-0.222,1.073,0.807,1.021c1.029-0.05,4.011,0.145,4.011,0.145l-1.229,1.252
		l-0.992,0.669l-3.424-0.388l-0.722,0.893C43.186,64.365,46.493,64.566,46.1,64.775z M50.225,65.098
		c-0.961,0.896-2.652,1.516-3.914,1.68c0.93-0.528,1.837-1.131,2.819-1.938c0.9-0.738,1.718-1.566,2.383-2.361
		C51.284,63.387,51.204,64.184,50.225,65.098z M53.462,78.562c-0.811-0.813-1.654-1.992-1.869-3.508
		c-0.256-1.807,0.412-3.771,1.98-5.861C53.366,72.092,53.271,75.207,53.462,78.562z M55.509,70.205
		c1.892,2.828,4.584,5.598,4.742,5.76l1.424-1.394c0.277,0.938,0.236,1.925-0.354,2.888c-1.391-0.691-4.68-2.656-5.871-6.17
		C55.469,70.926,55.487,70.562,55.509,70.205z M59.885,78.968c-1.465,1.042-3.241,1.325-4.257,1.396
		c-0.059-0.453-0.112-0.909-0.143-1.388c-0.086-1.282-0.119-2.527-0.125-3.748C56.831,77.095,58.657,78.301,59.885,78.968z"/>
	<path fill="#35A034" d="M58.021,53.895c-1.08,1.481-0.994,4.005-0.191,5.86c1.047,2.42,3.263,3.436,5.725,3.124
		c1.157-0.148,2.064-0.322,2.918-0.968c4.146,0.557,6.746-1.403,7.828-2.65c1.279-1.476,0.626-2.337,0.626-2.337
		c-0.148,0.151-2.956,2.911-6.794,3.063c0.124-0.219,0.242-0.446,0.348-0.685c0.979-2.255,0.849-5.061-0.311-6.671
		c-2.006-2.787-5.885-1.758-6.783-1.697c-0.899,0.06-0.237,1.926,0.843,1.865c1.079-0.061,3.332-0.369,4.317,1
		c0.252,0.352,0.436,0.884,0.523,1.504c-0.422-0.357-3.47-2.784-6.886-1.369c-0.155-0.381-0.298-0.769-0.44-1.156
		c-0.4,0.173-1.066,0.459-1.848,0.773C57.938,53.666,57.977,53.779,58.021,53.895z M65.796,56.845l1.283-1.449
		c0.117,0.941,0.014,2.072-0.437,3.107c-0.176,0.404-0.429,0.846-0.784,1.251c-0.443-0.108-0.892-0.243-1.349-0.438
		c-1.537-0.658-2.625-1.98-3.477-3.562C63.45,54.84,65.692,56.756,65.796,56.845z M63.534,61.063
		c-0.119,0.023-0.229,0.054-0.354,0.07c-2.123,0.271-3.114-1.245-3.517-2.173c-0.34-0.789-0.467-1.633-0.438-2.361
		C60.229,58.489,61.569,60.152,63.534,61.063z"/>
	<path fill="#35A034" d="M38.979,55.682c0.142,0.117,0.349,0.258,0.579,0.405c-0.445,0.886-1.222,1.614-2.306,2.093
		c-1.696,0.75-3.153,0.869-4.333,0.354c-0.578-0.253-0.978-0.612-1.254-0.948c-0.021,0.005-0.04,0.013-0.062,0.018
		c-2.65,0.678-4.849-0.582-6.022-1.358c-2.669-1.763-2.927-4.999-2.927-4.999c0.021,0.033,2.425,2.088,4.324,3.4
		c0.173-0.746,0.571-1.691,1.399-2.815c0.396,0.61,0.951,1.175,1.355,1.552c-0.725,1.092-0.858,1.832-0.868,2.201
		c0.719,0.215,1.473,0.278,2.243,0.082c1.688-0.43,3.058-1.568,4.363-2.729c0.724,0.173,1.332,0.578,1.847,1.035
		c-0.057,0.049-0.11,0.097-0.168,0.148c-1.003,0.897-2.099,1.867-3.392,2.596c0.635,0.255,1.562,0.13,2.683-0.365
		c0.903-0.398,1.405-0.987,1.517-1.749C38.368,55.043,38.706,55.457,38.979,55.682z"/>
	<path i:knockout="Off" fill="none" d="M40.532,33.675c0.282-1.627,3.078-5.043,6.625-4.58c3.524,0.461,5.651,4.061,5.979,6.35
		l0.194,1.363l1.236-0.607c2.166-1.064,4.291-1.092,5.83-0.074c1.439,0.951,2.2,2.666,2.09,4.701
		c-0.182,3.326-3.601,5.261-5.063,5.941c-0.716-1.283-1.605-2.158-2.929-2.291c-0.703-0.07-1.121,0.211-1.346,0.461
		c-0.625,0.688-0.427,1.686-0.096,3.338c0.076,0.377,0.164,0.92,0.227,1.574c-0.938-1.468-2.986-1.826-4.158-1.777
		c0.604-0.308,0.977-0.599,1.035-0.648c2.104-1.632,3.217-3.812,3.217-6.148c0-0.955-0.186-1.935-0.564-2.914
		c-0.593-1.529-1.963-2.775-3.761-3.418c-2.251-0.805-4.745-0.539-7.024,0.748c-2.167,1.225-3.326,3.381-3.179,5.916
		c0.083,1.428,0.565,2.832,1.305,4.008c-1.133,1.168-4.23,3.555-8.695,0.639c-1.629-1.062-1.881-2.666-1.805-3.824
		c0.153-2.336,1.799-4.967,3.668-5.863c0.897-0.429,1.71-0.398,2.414,0.096c1.078,0.754,2.042,0.961,2.866,0.619
		C39.836,36.77,40.259,35.248,40.532,33.675z"/>
	<path i:knockout="Off" fill="none" d="M46.774,53.499c0,0.205-0.027,0.416-0.09,0.631c-0.234,0.824-1.396,1.24-2.381,1.167
		c-0.521-0.039-1.758-0.273-1.931-1.598c-0.1-0.765-0.085-1.798,0.543-2.38c0.508-0.471,1.418-0.61,2.499-0.426
		C45.8,51.242,46.774,52.243,46.774,53.499z"/>
	<path i:knockout="Off" fill="none" d="M48.926,45.855l-0.021,0.016c-0.09,0.072-2.217,1.75-5.01,0.572
		c-1.589-0.668-2.931-2.842-3.052-4.947c-0.073-1.254,0.244-2.973,2.166-4.059c2.382-1.347,4.385-0.959,5.366-0.607
		c1.232,0.442,2.191,1.285,2.568,2.258C51.93,41.633,51.194,44.098,48.926,45.855z"/>
	<path i:knockout="Off" fill="none" d="M40.811,29.191c-0.032-0.084-0.072-0.16-0.103-0.242c0.02-0.014,0.036-0.025,0.057-0.039
		C40.779,29.004,40.798,29.098,40.811,29.191z"/>
	<g i:knockout="Off">
		<circle fill="#D90000" cx="46.345" cy="44.559" r="1.422"/>
		<circle fill="#D90000" cx="48.864" cy="42.039" r="1.422"/>
		<circle fill="#D90000" cx="46.345" cy="39.158" r="1.422"/>
		<circle fill="#D90000" cx="43.823" cy="42.039" r="1.422"/>
	</g>
	<path fill="#D90000" d="M39.041,30.189c0.131,0.365,0.261,0.73,0.373,1.109c-0.449,0.719-0.746,1.428-0.852,2.037
		c-0.312,1.799-0.638,2.063-0.73,2.102c-0.062,0.028-0.357,0.004-0.95-0.41c-1.303-0.912-2.875-1.004-4.427-0.26
		c-2.533,1.215-4.598,4.455-4.8,7.535c-0.156,2.389,0.806,4.389,2.706,5.631c5.438,3.549,9.417,0.807,11.06-0.775
		c0.518,0.481,1.089,0.873,1.699,1.129c2.599,1.096,4.777,0.412,5.997-0.207l0.084,1.994c0.022,0,2.394-0.07,2.565,1.354
		c0.097,0.786-0.143,1.512-0.669,2.044c-0.484,0.489-1.142,0.741-1.755,0.673c-0.135-0.016-0.54-0.061-0.579-0.412
		c0.156-2.641-2.193-4.498-2.306-4.584l-0.182-0.141l-0.225-0.047c-1.547-0.326-2.907-0.154-3.923,0.469
		c-1.459-0.031-2.687,0.453-3.791,1.176c-0.447-0.377-0.944-0.612-1.438-0.639l-0.83-0.076c-2.029-0.213-5.807-0.607-7.68,1.92
		c-0.005,0.008-0.009,0.014-0.015,0.021c0.396,0.61,0.951,1.175,1.355,1.552c0.082-0.123,0.167-0.248,0.267-0.382
		c1.192-1.61,4.116-1.304,5.863-1.121l0.729,0.065c-0.26,0.227-0.519,0.456-0.774,0.685c-0.114,0.103-0.229,0.205-0.346,0.308
		c0.724,0.173,1.332,0.578,1.847,1.035c0.185-0.164,0.369-0.328,0.55-0.486c0.041,0.14,0.073,0.287,0.095,0.44
		c0.031,0.239,0.025,0.464-0.005,0.676c0.411,0.44,0.749,0.854,1.02,1.079c0.142,0.117,0.349,0.258,0.579,0.405
		c0.395-0.782,0.529-1.686,0.353-2.659c-0.077-0.426-0.215-0.832-0.388-1.211c0.315-0.199,0.636-0.363,0.964-0.494
		c-0.152,0.601-0.212,1.334-0.095,2.234c0.245,1.873,1.723,3.182,3.767,3.334c1.394,0.104,2.963-0.392,3.855-1.494
		c0.3,0.163,0.663,0.285,1.106,0.335c1.215,0.136,2.485-0.333,3.396-1.253c0.251-0.254,0.465-0.535,0.646-0.836
		c-0.051,0.328-0.114,0.664-0.188,1.003c0.809-0.01,2.352-0.509,3.809-1.06c-0.012-1.52-0.104-3.016-0.34-4.508
		c0.247,0.631,0.488,1.316,0.731,2.029c0.226,0.658,0.465,1.349,0.723,2.043c0.782-0.314,1.448-0.599,1.849-0.773
		c-0.236-0.643-0.463-1.285-0.678-1.914c-0.271-0.793-0.533-1.559-0.81-2.27c1.814-0.834,5.986-3.218,6.229-7.654
		c0.148-2.723-0.967-5.147-2.982-6.479c-1.85-1.224-4.227-1.343-6.653-0.482c-0.758-2.516-2.82-5.508-6.045-6.551
		c-0.119-0.129-0.357-0.381-0.681-0.707c-0.94-0.014-1.822,0.082-2.639,0.246c0.049,0.047,0.108,0.1,0.156,0.145
		c-1.083,0.133-2.087,0.506-2.979,1.029c-0.016-0.08-0.04-0.16-0.058-0.24c-0.719,0.328-1.337,0.682-1.84,1.01
		c0.015,0.093,0.033,0.187,0.046,0.281c-0.032-0.084-0.072-0.16-0.103-0.242c-0.957,0.63-1.491,1.15-1.491,1.15
		S39.151,30.133,39.041,30.189z M46.688,54.13c-0.236,0.824-1.396,1.24-2.382,1.167c-0.522-0.039-1.758-0.273-1.931-1.598
		c-0.1-0.765-0.085-1.798,0.543-2.38c0.508-0.471,1.418-0.61,2.5-0.426c0.383,0.349,1.357,1.35,1.357,2.605
		C46.774,53.703,46.745,53.914,46.688,54.13z M48.926,45.855l-0.021,0.016c-0.09,0.072-2.217,1.75-5.01,0.572
		c-1.589-0.668-2.931-2.842-3.052-4.947c-0.073-1.254,0.244-2.973,2.166-4.059c2.382-1.347,4.385-0.959,5.366-0.607
		c1.232,0.442,2.191,1.285,2.568,2.258C51.93,41.633,51.194,44.098,48.926,45.855z M47.157,29.095
		c3.523,0.461,5.65,4.061,5.979,6.35l0.195,1.363l1.234-0.607c2.168-1.064,4.293-1.092,5.831-0.074
		c1.439,0.951,2.2,2.666,2.091,4.701c-0.183,3.326-3.602,5.261-5.064,5.941c-0.717-1.283-1.606-2.158-2.928-2.291
		c-0.705-0.07-1.121,0.211-1.346,0.461c-0.625,0.688-0.428,1.686-0.097,3.338c0.076,0.377,0.164,0.92,0.228,1.574
		c-0.939-1.468-2.988-1.826-4.16-1.777c0.605-0.308,0.978-0.599,1.035-0.648c2.105-1.632,3.217-3.812,3.217-6.148
		c0-0.955-0.185-1.935-0.563-2.914c-0.593-1.529-1.963-2.775-3.761-3.418c-2.251-0.805-4.745-0.539-7.024,0.748
		c-2.167,1.225-3.326,3.381-3.179,5.916c0.083,1.428,0.565,2.832,1.305,4.008c-1.133,1.168-4.23,3.555-8.695,0.639
		c-1.63-1.062-1.881-2.666-1.805-3.824c0.153-2.336,1.799-4.967,3.668-5.863c0.897-0.429,1.71-0.398,2.414,0.096
		c1.078,0.754,2.042,0.961,2.866,0.619c1.238-0.515,1.661-2.037,1.934-3.607C40.814,32.051,43.61,28.635,47.157,29.095z"/>
</g>
</svg>
