<?xml version="1.0" encoding="utf-8"?>
<!-- Generator: Adobe Illustrator 12.0.0, SVG Export Plug-In . SVG Version: 6.00 Build 51448)  -->
<!DOCTYPE svg PUBLIC "-//W3C//DTD SVG 1.1//EN" "http://www.w3.org/Graphics/SVG/1.1/DTD/svg11.dtd" [
	<!ENTITY ns_flows "http://ns.adobe.com/Flows/1.0/">
	<!ENTITY ns_extend "http://ns.adobe.com/Extensibility/1.0/">
	<!ENTITY ns_ai "http://ns.adobe.com/AdobeIllustrator/10.0/">
	<!ENTITY ns_graphs "http://ns.adobe.com/Graphs/1.0/">
	<!ENTITY ns_vars "http://ns.adobe.com/Variables/1.0/">
	<!ENTITY ns_imrep "http://ns.adobe.com/ImageReplacement/1.0/">
	<!ENTITY ns_sfw "http://ns.adobe.com/SaveForWeb/1.0/">
	<!ENTITY ns_custom "http://ns.adobe.com/GenericCustomNamespace/1.0/">
	<!ENTITY ns_adobe_xpath "http://ns.adobe.com/XPath/1.0/">
	<!ENTITY ns_svg "http://www.w3.org/2000/svg">
	<!ENTITY ns_xlink "http://www.w3.org/1999/xlink">
]>
<svg  version="1.1"
	 xmlns:x="&ns_extend;" xmlns:i="&ns_ai;" xmlns:graph="&ns_graphs;" i:viewOrigin="-0.3193 135.7061" i:rulerOrigin="0 0" i:pageBounds="0 136 85 0"
	 xmlns="&ns_svg;" xmlns:xlink="&ns_xlink;" xmlns:a="http://ns.adobe.com/AdobeSVGViewerExtensions/3.0/"
	 width="85.678" height="136.025" viewBox="0 0 85.678 136.025" overflow="visible" enable-background="new 0 0 85.678 136.025"
	 xml:space="preserve">
<metadata>
	<variableSets  xmlns="http://ns.adobe.com/Variables/1.0/">
		<variableSet  varSetName="binding1" locked="none">
			<variables></variables>
			<v:sampleDataSets  xmlns:v="http://ns.adobe.com/Variables/1.0/" xmlns="http://ns.adobe.com/GenericCustomNamespace/1.0/">
				</v:sampleDataSets>
		</variableSet>
	</variableSets>
</metadata>
<g id="图层_1" i:knockout="Off" i:layer="yes" i:dimmedPercent="50" i:rgbTrio="#4F008000FFFF">
	<g i:knockout="Off">
		<path fill="#333333" d="M2.274,99.465v24.962c0,5.149,3.353,9.325,7.481,9.325h68.118c4.133,0,7.484-4.176,7.484-9.325h-0.002
			V9.216c0-4.344-3.352-7.869-7.482-7.869H9.756c-4.131,0-7.481,3.525-7.481,7.869H2.272v90.228
			C2.272,99.45,2.274,99.458,2.274,99.465z"/>
		
			<linearGradient id="XMLID_3_" gradientUnits="userSpaceOnUse" x1="-22.9907" y1="22.7183" x2="-22.9907" y2="148.2847" gradientTransform="matrix(1 0 0 -1 64.8535 158.4238)">
			<stop  offset="0.0899" style="stop-color:#2089B9"/>
			<stop  offset="0.0985" style="stop-color:#4FA3C2"/>
			<stop  offset="0.1071" style="stop-color:#77B9CA"/>
			<stop  offset="0.1138" style="stop-color:#8FC7CF"/>
			<stop  offset="0.118" style="stop-color:#98CCD1"/>
			<stop  offset="0.1341" style="stop-color:#9ECFD3"/>
			<stop  offset="0.156" style="stop-color:#AFD6D9"/>
			<stop  offset="0.1809" style="stop-color:#CBE1E3"/>
			<stop  offset="0.1966" style="stop-color:#E1EAEB"/>
			<a:midPointStop  offset="0.0899" style="stop-color:#2089B9"/>
			<a:midPointStop  offset="0.5" style="stop-color:#2089B9"/>
			<a:midPointStop  offset="0.0985" style="stop-color:#4FA3C2"/>
			<a:midPointStop  offset="0.5" style="stop-color:#4FA3C2"/>
			<a:midPointStop  offset="0.1071" style="stop-color:#77B9CA"/>
			<a:midPointStop  offset="0.5" style="stop-color:#77B9CA"/>
			<a:midPointStop  offset="0.1138" style="stop-color:#8FC7CF"/>
			<a:midPointStop  offset="0.5" style="stop-color:#8FC7CF"/>
			<a:midPointStop  offset="0.118" style="stop-color:#98CCD1"/>
			<a:midPointStop  offset="0.5" style="stop-color:#98CCD1"/>
			<a:midPointStop  offset="0.1341" style="stop-color:#9ECFD3"/>
			<a:midPointStop  offset="0.5" style="stop-color:#9ECFD3"/>
			<a:midPointStop  offset="0.156" style="stop-color:#AFD6D9"/>
			<a:midPointStop  offset="0.5" style="stop-color:#AFD6D9"/>
			<a:midPointStop  offset="0.1809" style="stop-color:#CBE1E3"/>
			<a:midPointStop  offset="0.5" style="stop-color:#CBE1E3"/>
			<a:midPointStop  offset="0.1966" style="stop-color:#E1EAEB"/>
		</linearGradient>
		<path fill="url(#XMLID_3_)" d="M83.405,126.381c0,5.15-3.352,9.325-7.48,9.325H7.804c-4.131,0-7.482-4.177-7.482-9.325V19.465
			c0-5.148,3.354-9.326,7.482-9.326h68.117c4.133,0,7.482,4.176,7.482,9.326v106.916H83.405z"/>
		<path fill="none" stroke="#333333" stroke-width="0.977" d="M83.405,126.381c0,5.15-3.352,9.325-7.48,9.325H7.804
			c-4.131,0-7.482-4.177-7.482-9.325V19.465c0-5.148,3.354-9.326,7.482-9.326h68.117c4.133,0,7.482,4.176,7.482,9.326v106.916
			H83.405z"/>
		<path fill="#FFFFFF" d="M0.32,11.17c0-4.344,3.354-7.869,7.482-7.869h68.118c4.133,0,7.482,3.523,7.482,7.869v90.229
			c0,4.346-3.352,7.869-7.482,7.869H7.802c-4.131,0-7.482-3.523-7.482-7.87L0.32,11.17L0.32,11.17z"/>
		
			<linearGradient id="XMLID_4_" gradientUnits="userSpaceOnUse" x1="3.7021" y1="54.9395" x2="85.8467" y2="54.9395" gradientTransform="matrix(-1 0 0 1 86.6367 1.3447)">
			<stop  offset="0" style="stop-color:#A2D8E0"/>
			<stop  offset="0.0899" style="stop-color:#1878AD"/>
			<stop  offset="0.2135" style="stop-color:#194D91"/>
			<stop  offset="0.6404" style="stop-color:#2B90BD"/>
			<stop  offset="0.9438" style="stop-color:#82CBDE"/>
			<stop  offset="1" style="stop-color:#1A478D"/>
			<a:midPointStop  offset="0" style="stop-color:#A2D8E0"/>
			<a:midPointStop  offset="0.5" style="stop-color:#A2D8E0"/>
			<a:midPointStop  offset="0.0899" style="stop-color:#1878AD"/>
			<a:midPointStop  offset="0.5" style="stop-color:#1878AD"/>
			<a:midPointStop  offset="0.2135" style="stop-color:#194D91"/>
			<a:midPointStop  offset="0.5" style="stop-color:#194D91"/>
			<a:midPointStop  offset="0.6404" style="stop-color:#2B90BD"/>
			<a:midPointStop  offset="0.5" style="stop-color:#2B90BD"/>
			<a:midPointStop  offset="0.9438" style="stop-color:#82CBDE"/>
			<a:midPointStop  offset="0.5" style="stop-color:#82CBDE"/>
			<a:midPointStop  offset="1" style="stop-color:#1A478D"/>
		</linearGradient>
		<path i:isolated="yes" i:knockout="Off" opacity="0.1" fill="url(#XMLID_4_)" enable-background="new    " d="M0.79,11.17
			c0-4.344,3.313-7.869,7.397-7.869h67.347c4.086,0,7.4,3.523,7.4,7.869v90.229c0,4.346-3.314,7.869-7.4,7.869H8.188
			c-4.084,0-7.397-3.523-7.397-7.87V11.17L0.79,11.17z"/>
		<path fill="none" stroke="#4D4D4D" stroke-width="0.977" d="M0.32,101.419v24.962c0,5.148,3.353,9.325,7.482,9.325h68.12
			c4.131,0,7.48-4.175,7.48-9.325V11.171c0-4.346-3.352-7.869-7.482-7.869H7.803c-4.13,0-7.482,3.525-7.482,7.869l-0.001,90.228
			C0.319,101.404,0.32,101.411,0.32,101.419z"/>
	</g>
	<g i:knockout="Off">
		<path fill="#24258D" d="M43.78,77.789c-0.504,0.404-1.364,0.604-2.576,0.604c-1.919-0.102-3.941,0.053-6.064,0.455
			c-3.941,0.607-11.674,0.707-23.197,0.305c-0.907,0-1.615,0-2.122,0c-1.313-0.103-1.667-0.707-1.062-1.818
			c0.91-2.021,2.021-3.285,3.336-3.791c1.315-0.404,3.235-0.152,5.762,0.758c2.932,1.213,6.368,1.921,10.31,2.123
			c2.629,0.103,5.004-0.051,7.126-0.455c2.224-0.403,5.003-1.213,8.339-2.426c0.909-0.303,1.567-0.252,1.972,0.152
			c0.304,0.402,0.253,1.009-0.151,1.816C44.845,76.727,44.288,77.484,43.78,77.789z M15.432,89.159
			c0.1-0.506,0.554-0.811,1.363-0.909c1.012-0.102,3.489-0.203,7.43-0.304c1.92-0.103,3.336-0.151,4.245-0.151
			c4.245,0.1,7.632-0.153,10.157-0.758c0.91-0.103,1.618-0.001,2.123,0.303c0.404,0.302,0.354,0.758-0.151,1.364
			c-0.708,0.909-1.313,1.466-1.819,1.668c-0.505,0.202-1.263,0.253-2.273,0.15c-2.324-0.304-5.255-0.304-8.794,0
			c-2.426,0.201-4.347,0.304-5.761,0.304c-1.415,0.102-3.284,0.051-5.609-0.15C15.634,90.473,15.331,89.968,15.432,89.159z"/>
	</g>
	<path fill="#1D8F38" d="M54.342,90.674c0.246-0.463,0.33-0.953,0.33-0.953s-0.89-0.513-1.521-1.146
		c-0.375-0.375-0.629-1.014-0.629-1.014l4.85-7.229c0,0-0.363,1.736-0.094,3.399c0.406,2.505,1.854,4.815,1.854,4.815
		s-0.879,0.797-1.558,1.16c-1.133,0.604-2.308,0.908-2.308,0.908l-0.715,1.219c0,0,2.363,0.127,3.592-0.266
		c1.646-0.527,2.279-1.613,2.279-1.613s3.162,2.113,4.994,2.537c2.779,0.644,4.166-0.393,4.166-0.393S58.924,89.07,59.276,80.734
		c0.352-8.334,2.35-7.975,3.848-19.186c1.068-8.008-0.354-14.674-0.354-14.674l-1.526,0.586c0,0,0.742,7.424-0.349,14.895
		c-0.905,6.19-2.745,12.453-5.22,16.889c-7.84,14.069-20.1,14.596-20.1,14.596l-0.513,1.162c0,0,3.119,0.695,6.984-0.537
		c4.219-1.344,8.81-5.436,8.81-5.436S53.526,92.199,54.342,90.674z"/>
	<path fill="#1D8F38" d="M64.196,45.439l-1.297,0.576c0,0,0.963,8.062,3.273,10.816c4.871,5.812,9.037,4.23,9.037,4.23
		c0.72-0.215,1.942-1.727,1.942-1.727C66.21,61.998,64.194,45.438,64.196,45.439z"/>
	<path fill="#1D8F38" d="M45.419,67.915c17.564-1.539,15.467-20.148,15.467-20.148l-0.754-3.023l-0.319,3.303
		c0,0-0.435,8.275-3.261,11.855c-4.903,6.215-11.69,7.244-11.69,7.244L45.419,67.915z"/>
	<path fill="#1D8F38" d="M66.28,31.033c-8.192-3.69-17.266-12.645-17.266-12.645l4.298,5.66l-2.479,1.184
		c0,0-2.957-4.363-6.014-8.092c-2.146-2.615-3.96-3.967-3.96-3.967s0.767,1.213,2.767,3.873c1.992,2.651,4.461,5.715,4.461,5.715
		l-1.736,1.057l-1.004-2.209l0.605,2.375l-1.484,0.125c0,0-1.402-3.29-2.756-5.77c-1.263-2.312-1.881-3.062-1.881-3.062l4.193,9.451
		l-1.986,0.207l-2.986-6.809c0,0-0.638,2.883-3.48,5.33c-2.854,2.455-7.688,4.795-12.965,3.83c-3.301-0.603-7.194-3.82-8.16-5.906
		c-0.666-1.442,0.953-1.76,0.953-1.76s2.276,4.54,8.336,5.559c6.061,1.019,10.492-3.303,10.492-3.303s-5.358-0.445-8.119-1.707
		c-1.842-0.84-1.969-2.909-0.889-2.428c1.08,0.481,8.862,3.684,10.842,0.85c1.533-2.196,0.848-4.889,0.82-7.102
		c-0.021-1.391,0.262-1.764,0.785-2.176c1.065-0.842,3.407-0.102,3.407-0.102s3.314,5.013,9.839,6.736
		c9.144,2.416,11.66-1.852,11.66-1.852l1.823,0.637c0,0-0.071,2.232-3.411,3.084c-3.848,0.979-9.211-0.031-9.211-0.031
		s6.773,6.313,12.896,9.506c7.675,4.006,14.528,3.621,14.483,4.072C79.108,31.812,74.468,34.721,66.28,31.033z"/>
	<path fill="#1D8F38" d="M26.994,42.462c0,0-0.201,2.895-0.445,3.922c-0.244,1.026-3.619,2.078-4.904,4.547
		c-0.433,0.834-0.877,3.217-0.651,4.951c0.172,1.312,0.832,3.216,1.407,3.732c1.002,0.898,2.058-0.215,2.058-0.215
		s-2.174-2.176-1.451-6.438c0.508-2.994,2.668-3.539,2.668-3.539l-0.24,2.279c0,0,0.83,2.334,0.928,3.801
		c0.098,1.465-1.807,2.429-1.807,3.115c0,0.684,1.062,0.676,1.697,0.381c0.634-0.293,2.261-2.324,1.772-3.84
		c-0.489-1.513-1.369-6.308-0.295-6.488c0.151-0.023,0.26,1.5,0.547,3.188c0.275,1.615,0.732,3.389,0.828,3.748
		c0.196,0.732,1.412-0.949,1.267-2.172c-0.084-0.701-0.918-3.522-1.33-5.963c-0.395-2.322-0.367-4.289-0.367-4.289L26.994,42.462z"
		/>
	<path fill="#1D8F38" d="M26.773,38.143c-0.824,0.154-1.51,1.679-2.795,1.781c-1.285,0.103-4.68-3.463-4.68-3.463
		s-0.552-0.277-0.943,0.211c-0.379,0.472-0.344,0.99-0.344,0.99s2.607,3.564,5.023,4.234c2.418,0.668,4.524-1.834,4.524-1.834
		S27.595,37.988,26.773,38.143z"/>
	<path fill="#D90000" d="M46.079,32.943c0,0-5.558,3.965-5.127,10.709c0.438,6.892,6.172,9.49,6.686,9.49
		c0.515,0,2.773-2.021,3.767-6.455c0.496-2.215,0.053-6.277-1.416-9.404C48.229,33.535,46.079,32.943,46.079,32.943z M47.433,50.289
		c-0.771,0-3.506-2.305-4.071-5.832c-0.746-4.654,1.903-8.777,2.625-8.83c0.721-0.05,2.752,2.829,3.274,6.268
		C49.983,46.648,48.204,50.289,47.433,50.289z M39.436,34.953c-2.795,2.912-3.019,8.969-2.074,11.842
		c0.623,1.897,1.554,2.1,2.365,1.762c0.64-0.263,0.701-0.736,0.701-0.736l-0.955-1.4c0,0-1.205-3.731,0.094-7.51
		c0.672-1.953,2.772-3.856,4.269-5.346c1.4-1.394,2.105-2.193,2.125-2.574c0.039-0.787-2.004-6.4-2.004-6.4l-1.959,0.27
		c0,0,1.754,5.217,1.676,5.729C43.593,31.102,42.231,32.041,39.436,34.953z M28.502,37.302c-0.051,1.441-1.543,5.332-1.543,5.332
		l1.783,0.652c0,0,0.894-2.074,1.407-3.912c0.472-1.688,0.563-2.844,0.101-3.307c-0.463-0.461-2.229-2.828-0.787-5.193
		c1.439-2.365,4.686-2.263,5.76-2.109c2.828,0.412,3.959,1.51,3.855,2.383c-0.103,0.875-5.125,4.955-5.125,4.955
		s-0.65,6.976-0.65,7.748s1.954,0.703,1.852,0.086c-0.103-0.617,0.274-5.28,0.841-6.719c0.564-1.442,5.357-4.973,5.52-6.172
		c0.467-3.473-6.053-4.647-9.035-4.594c-2.982,0.05-6.301,4.214-6.137,6.855C26.497,35.775,28.554,35.861,28.502,37.302z
		 M32.65,46.523c-0.901-2.506,0.668-9.924,0.668-9.924s-0.504-0.41-1.018-0.461c-0.531-0.053-1.072,0.254-1.072,0.254
		s-1.43,5.818-0.979,9.652c0.827,7.014,7.303,8.948,8.436,9.309c1.131,0.36,1.853-1.115,1.389-1.527
		C39.612,53.416,34.503,51.668,32.65,46.523z M48.78,33.546c0,0,2.092,1.989,3.121,4.766c1.027,2.777,1.525,9,0.6,10.131
		c-0.926,1.133,0.396,2.299,1.423,1.938c2.137-0.748,1.944-6.651,0.825-10.846c-1.491-5.603-5.291-7.666-5.829-8.318
		c-0.541-0.652-2.968-7.355-2.968-7.355l-1.438,0.24c0,0,1.784,5.845,2.145,7.029C47.017,32.312,48.78,33.546,48.78,33.546z
		 M53.813,34.871c2.174,1.75,3.764,5.632,3.75,8.191c-0.012,2.383-1.199,3.87-1.199,5.309c0,1.459,1.223,1.105,1.815,0.748
		c1.168-0.705,2.129-5.551,1.123-9.508c-1.35-5.311-5.039-7.5-5.039-7.5s-1.448-1.432-2.813-3.424
		c-1.821-2.664-3.426-5.951-3.426-5.951L46.3,23.705c0,0,1.439,3.316,3.271,6.152C50.96,32.014,52.786,34.043,53.813,34.871z
		 M54.698,31.3c0.898,0.359,3.084-0.778,5.657,0.148c2.25,0.811,5.919,4.073,3.75,6.27c-1.125,1.143-2.106,1.348-2.771,1.52
		c-2.449,0.633-0.074,8.254-0.074,8.254l1.526-0.576c0,0-0.547-3.537-0.485-4.82c0.052-1.103,0.641-1.238,0.916-1.316
		c0.276-0.078,4.248-2.052,4.261-4.941c0.009-2.234-2.646-5.041-5.259-6.238c-2.902-1.326-5.32-0.77-5.929-1.084
		c-0.606-0.316-3.002-4.482-3.002-4.482l-2.471,1.174c0,0,1.629,1.826,2.16,3.314C53.259,29.303,53.21,30.707,54.698,31.3z"/>
</g>
</svg>
