<?xml version="1.0" encoding="utf-8"?>
<!-- Generator: Adobe Illustrator 12.0.0, SVG Export Plug-In . SVG Version: 6.00 Build 51448)  -->
<!DOCTYPE svg PUBLIC "-//W3C//DTD SVG 1.1//EN" "http://www.w3.org/Graphics/SVG/1.1/DTD/svg11.dtd" [
	<!ENTITY ns_flows "http://ns.adobe.com/Flows/1.0/">
	<!ENTITY ns_extend "http://ns.adobe.com/Extensibility/1.0/">
	<!ENTITY ns_ai "http://ns.adobe.com/AdobeIllustrator/10.0/">
	<!ENTITY ns_graphs "http://ns.adobe.com/Graphs/1.0/">
	<!ENTITY ns_vars "http://ns.adobe.com/Variables/1.0/">
	<!ENTITY ns_imrep "http://ns.adobe.com/ImageReplacement/1.0/">
	<!ENTITY ns_sfw "http://ns.adobe.com/SaveForWeb/1.0/">
	<!ENTITY ns_custom "http://ns.adobe.com/GenericCustomNamespace/1.0/">
	<!ENTITY ns_adobe_xpath "http://ns.adobe.com/XPath/1.0/">
	<!ENTITY ns_svg "http://www.w3.org/2000/svg">
	<!ENTITY ns_xlink "http://www.w3.org/1999/xlink">
]>
<svg  version="1.1"
	 xmlns:x="&ns_extend;" xmlns:i="&ns_ai;" xmlns:graph="&ns_graphs;" i:viewOrigin="-0.3193 135.7061" i:rulerOrigin="0 0" i:pageBounds="0 136 85 0"
	 xmlns="&ns_svg;" xmlns:xlink="&ns_xlink;" xmlns:a="http://ns.adobe.com/AdobeSVGViewerExtensions/3.0/"
	 width="85.678" height="136.025" viewBox="0 0 85.678 136.025" overflow="visible" enable-background="new 0 0 85.678 136.025"
	 xml:space="preserve">
<metadata>
	<variableSets  xmlns="http://ns.adobe.com/Variables/1.0/">
		<variableSet  varSetName="binding1" locked="none">
			<variables></variables>
			<v:sampleDataSets  xmlns:v="http://ns.adobe.com/Variables/1.0/" xmlns="http://ns.adobe.com/GenericCustomNamespace/1.0/">
				</v:sampleDataSets>
		</variableSet>
	</variableSets>
</metadata>
<g id="图层_1" i:knockout="Off" i:layer="yes" i:dimmedPercent="50" i:rgbTrio="#4F008000FFFF">
	<g i:knockout="Off">
		<path fill="#333333" d="M2.274,99.465v24.962c0,5.149,3.353,9.325,7.481,9.325h68.118c4.133,0,7.484-4.176,7.484-9.325h-0.002
			V9.216c0-4.344-3.352-7.869-7.482-7.869H9.756c-4.131,0-7.481,3.525-7.481,7.869H2.272v90.228
			C2.272,99.45,2.274,99.458,2.274,99.465z"/>
		
			<linearGradient id="XMLID_3_" gradientUnits="userSpaceOnUse" x1="-22.9907" y1="22.7183" x2="-22.9907" y2="148.2847" gradientTransform="matrix(1 0 0 -1 64.8535 158.4238)">
			<stop  offset="0.0899" style="stop-color:#2089B9"/>
			<stop  offset="0.0985" style="stop-color:#4FA3C2"/>
			<stop  offset="0.1071" style="stop-color:#77B9CA"/>
			<stop  offset="0.1138" style="stop-color:#8FC7CF"/>
			<stop  offset="0.118" style="stop-color:#98CCD1"/>
			<stop  offset="0.1341" style="stop-color:#9ECFD3"/>
			<stop  offset="0.156" style="stop-color:#AFD6D9"/>
			<stop  offset="0.1809" style="stop-color:#CBE1E3"/>
			<stop  offset="0.1966" style="stop-color:#E1EAEB"/>
			<a:midPointStop  offset="0.0899" style="stop-color:#2089B9"/>
			<a:midPointStop  offset="0.5" style="stop-color:#2089B9"/>
			<a:midPointStop  offset="0.0985" style="stop-color:#4FA3C2"/>
			<a:midPointStop  offset="0.5" style="stop-color:#4FA3C2"/>
			<a:midPointStop  offset="0.1071" style="stop-color:#77B9CA"/>
			<a:midPointStop  offset="0.5" style="stop-color:#77B9CA"/>
			<a:midPointStop  offset="0.1138" style="stop-color:#8FC7CF"/>
			<a:midPointStop  offset="0.5" style="stop-color:#8FC7CF"/>
			<a:midPointStop  offset="0.118" style="stop-color:#98CCD1"/>
			<a:midPointStop  offset="0.5" style="stop-color:#98CCD1"/>
			<a:midPointStop  offset="0.1341" style="stop-color:#9ECFD3"/>
			<a:midPointStop  offset="0.5" style="stop-color:#9ECFD3"/>
			<a:midPointStop  offset="0.156" style="stop-color:#AFD6D9"/>
			<a:midPointStop  offset="0.5" style="stop-color:#AFD6D9"/>
			<a:midPointStop  offset="0.1809" style="stop-color:#CBE1E3"/>
			<a:midPointStop  offset="0.5" style="stop-color:#CBE1E3"/>
			<a:midPointStop  offset="0.1966" style="stop-color:#E1EAEB"/>
		</linearGradient>
		<path fill="url(#XMLID_3_)" d="M83.405,126.381c0,5.15-3.352,9.325-7.48,9.325H7.804c-4.131,0-7.482-4.177-7.482-9.325V19.465
			c0-5.148,3.354-9.326,7.482-9.326h68.117c4.133,0,7.482,4.176,7.482,9.326v106.916H83.405z"/>
		<path fill="none" stroke="#333333" stroke-width="0.977" d="M83.405,126.381c0,5.15-3.352,9.325-7.48,9.325H7.804
			c-4.131,0-7.482-4.177-7.482-9.325V19.465c0-5.148,3.354-9.326,7.482-9.326h68.117c4.133,0,7.482,4.176,7.482,9.326v106.916
			H83.405z"/>
		<path fill="#FFFFFF" d="M0.32,11.17c0-4.344,3.354-7.869,7.482-7.869h68.118c4.133,0,7.482,3.523,7.482,7.869v90.229
			c0,4.346-3.352,7.869-7.482,7.869H7.802c-4.131,0-7.482-3.523-7.482-7.87L0.32,11.17L0.32,11.17z"/>
		
			<linearGradient id="XMLID_4_" gradientUnits="userSpaceOnUse" x1="3.7021" y1="54.9395" x2="85.8467" y2="54.9395" gradientTransform="matrix(-1 0 0 1 86.6367 1.3447)">
			<stop  offset="0" style="stop-color:#A2D8E0"/>
			<stop  offset="0.0899" style="stop-color:#1878AD"/>
			<stop  offset="0.2135" style="stop-color:#194D91"/>
			<stop  offset="0.6404" style="stop-color:#2B90BD"/>
			<stop  offset="0.9438" style="stop-color:#82CBDE"/>
			<stop  offset="1" style="stop-color:#1A478D"/>
			<a:midPointStop  offset="0" style="stop-color:#A2D8E0"/>
			<a:midPointStop  offset="0.5" style="stop-color:#A2D8E0"/>
			<a:midPointStop  offset="0.0899" style="stop-color:#1878AD"/>
			<a:midPointStop  offset="0.5" style="stop-color:#1878AD"/>
			<a:midPointStop  offset="0.2135" style="stop-color:#194D91"/>
			<a:midPointStop  offset="0.5" style="stop-color:#194D91"/>
			<a:midPointStop  offset="0.6404" style="stop-color:#2B90BD"/>
			<a:midPointStop  offset="0.5" style="stop-color:#2B90BD"/>
			<a:midPointStop  offset="0.9438" style="stop-color:#82CBDE"/>
			<a:midPointStop  offset="0.5" style="stop-color:#82CBDE"/>
			<a:midPointStop  offset="1" style="stop-color:#1A478D"/>
		</linearGradient>
		<path i:isolated="yes" i:knockout="Off" opacity="0.1" fill="url(#XMLID_4_)" enable-background="new    " d="M0.79,11.17
			c0-4.344,3.313-7.869,7.397-7.869h67.347c4.086,0,7.4,3.523,7.4,7.869v90.229c0,4.346-3.314,7.869-7.4,7.869H8.188
			c-4.084,0-7.397-3.523-7.397-7.87V11.17L0.79,11.17z"/>
		<path fill="none" stroke="#4D4D4D" stroke-width="0.977" d="M0.32,101.419v24.962c0,5.148,3.353,9.325,7.482,9.325h68.12
			c4.131,0,7.48-4.175,7.48-9.325V11.171c0-4.346-3.352-7.869-7.482-7.869H7.803c-4.13,0-7.482,3.525-7.482,7.869l-0.001,90.228
			C0.319,101.404,0.32,101.411,0.32,101.419z"/>
	</g>
	<g i:knockout="Off">
		<path fill="#24258D" d="M43.737,77.59c-0.504-0.201-0.909-0.303-1.212-0.303c-1.01,0-2.475,0.05-4.397,0.149
			c-1.919,0.102-3.384,0.151-4.396,0.151c-5.963,0-10.308,0-13.037,0c-3.032,0-4.952-0.05-5.762-0.151c-0.102,0-0.354,0-0.758,0
			c-1.213-0.101-1.97-0.101-2.275,0c-0.907-0.1-0.808-1.01,0.306-2.729c1.515-2.526,3.537-3.234,6.063-2.122
			c2.223,0.909,4.8,1.466,7.73,1.668c1.517,0.202,3.234,0.304,5.154,0.304c1.921,0.102,4.498,0.102,7.732,0
			c2.83-0.202,4.803-0.556,5.913-1.062c1.112-0.504,1.213-0.554,0.303-0.15c0.91-0.402,1.668-0.605,2.274-0.605
			c1.213,0.102,1.516,0.91,0.908,2.426c-1.516,2.123-2.932,2.981-4.244,2.578C43.737,77.643,43.637,77.592,43.737,77.59z
			 M43.434,90.934c-0.405,0.404-0.91,0.708-1.516,0.91c-0.81,0.202-1.465,0.252-1.972,0.151c-0.403-0.102-0.858-0.151-1.364-0.151
			c-0.707,0-1.719,0.05-3.031,0.151c-1.314,0.1-2.325,0.149-3.033,0.149c-4.447,0-8.49-0.101-12.129-0.303
			c-1.717-0.304-2.526-1.012-2.426-2.123c0.102-0.707,0.758-1.162,1.971-1.362c4.349,0.304,9.249,0.453,14.707,0.453
			c2.324,0,4.549-0.2,6.671-0.604c0.505-0.202,1.112-0.303,1.819-0.303C44.747,88.104,44.85,89.115,43.434,90.934z M32.062,84.719
			c-1.716,0.103-3.435,0.103-5.153,0c-1.819,0-3.185-0.101-4.095-0.304c-1.617-0.103-2.426-0.455-2.426-1.062
			c0-0.809,0.506-1.313,1.518-1.516c10.41,0,16.425-0.304,18.041-0.91c0.91-0.203,1.516,0,1.818,0.606
			c0.305,0.605,0.103,1.263-0.604,1.971c-1.013,1.011-2.021,1.415-3.033,1.213C38.027,84.414,36.006,84.414,32.062,84.719z"/>
	</g>
	<g i:knockout="Off">
		<path fill="#1D8F38" d="M42.877,62.273c3.125,3.011,5.772,2.816,7.094,2.41c2.255-0.693,3.975-2.9,4.487-5.761
			c0.064-0.362,0.096-0.698,0.1-1.017c0.29-0.186,0.56-0.36,0.81-0.524c-0.071,2.692-0.133,5.133-0.133,5.684
			c0,0.348-0.125,0.776-0.26,1.229c-0.279,0.953-0.63,2.139,0.021,3.331c-0.006-0.014-0.01-0.021-0.01-0.021
			c0.162,0.421-0.049,2.262-0.219,3.741c-0.322,2.847-0.726,6.385-0.242,9.628c1.52,10.209,9.61,12.381,13.684,12.303
			c2.63-0.053,2.064-1.201,2.064-1.201c-0.121-0.018-9.302-1.223-12.68-7.932c1.664-1.008,5.686-3.865,5.52-7.918l-0.021-0.646
			c-0.062-2.565-0.155-5.729-6.059-7.379c-0.002-0.67-0.082-1.16-0.283-1.531c-0.241-0.444-0.104-0.976,0.142-1.809
			c0.167-0.568,0.791-0.976,0.791-1.613c0-0.992-0.24-8.781-0.142-12.297c0.764,1.437,1.652,3.162,1.957,3.957
			c0.383,0.994,2.56,5.923,7.888,5.314c4.961-0.568,6.852-3.367,7.018-5.054c0.09-0.929-0.881-1.294-0.881-1.294V53.87
			c-0.021,0.031-1.648,2.41-4.109,3.654c0.295-1.67,0.315-4.094-1.516-5.559c-1.703-1.363-3.974-2.068-5.922-1.838
			c-0.834,0.097-1.562,0.377-2.191,0.785c-0.83-1.594-1.664-3.108-1.727-3.219l-2.465,1.424c-0.008,0.234-0.082,2.878-0.162,5.812
			c-0.41,0.282-0.906,0.612-1.461,0.97c-0.092-0.126-0.172-0.263-0.287-0.372c-1.306-1.245-3.611-0.891-5.234-0.518
			c-2.756,0.637-4.832,3.674-5.667,5.085c-1.67-0.834-2.698-2.649-2.712-2.673c0,0-0.749,0.547-0.832,1.366
			C39.125,59.879,40.593,61.404,42.877,62.273z M62.212,52.111c1.415-0.168,3.156,0.387,4.438,1.412
			c0.799,0.641,0.959,1.738,0.896,2.752c-1.081-1.506-2.991-3.648-5.395-4.152C62.172,52.119,62.19,52.113,62.212,52.111z
			 M66.471,58.264c-3.372-0.042-4.833-3.374-5.104-4.081c-0.018-0.045-0.041-0.1-0.062-0.15
			C63.7,54.191,65.749,57.106,66.471,58.264z M56.683,72.222c0.767,0.354,1.293,0.834,1.568,1.475
			c0.826,1.914-0.68,4.655-0.696,4.684l1.738,0.988c0.083-0.146,2.024-3.613,0.794-6.465c-0.436-1.013-1.202-1.795-2.268-2.354
			c3.17,1.229,3.224,2.962,3.273,5.075l0.021,0.681c0.111,2.773-2.776,4.987-4.266,5.94c-0.146-0.498-0.266-1.02-0.348-1.568
			C56.093,77.924,56.39,74.828,56.683,72.222z M49.383,62.769c-0.998,0.306-2.115,0.106-3.265-0.539
			c1.834-0.529,4.162-1.75,6.203-2.955C51.825,61.041,50.739,62.352,49.383,62.769z M48.897,56.957
			c2.324-0.537,3.116-0.236,3.387,0.002c-2.574,1.578-5.646,3.242-7.377,3.502C45.817,59.091,47.302,57.326,48.897,56.957z"/>
	</g>
	<path fill="#1D8F38" d="M43.271,48.636l-1.877-0.689v-0.002c-0.071,0.194-0.99,2.578-3.104,4.967
		c-1.573-0.461-5.623-1.291-9.022,1.047c-1.636,1.125-2.909,2.117-3.783,2.95c-0.14,0.133-0.267,0.26-0.381,0.38
		c-2.203-1.123-2.54-3.457-2.558-3.592c0,0-0.789,1.704-0.466,2.933c0.322,1.23,4.824,7.251,12.708,4.353
		c4.093-1.506,4.672-5.313,4.78-6.516C42.1,51.695,43.188,48.859,43.271,48.636z M30.399,55.607c2.099-1.443,4.59-1.328,6.191-1.035
		c-1.979,1.66-4.646,3.047-8.148,3.293c-0.373,0.027-0.717,0.024-1.044,0.006C28.025,57.332,28.975,56.588,30.399,55.607z
		 M34,59.145c-1.445,0.619-2.774,0.699-3.917,0.525c2.568-0.412,4.703-1.359,6.444-2.547C35.996,57.882,35.206,58.627,34,59.145z"/>
	<path fill="#1D8F38" d="M29.842,34.784c3.201-0.768,5.143-4.115,5.992-7.017c0.931-3.183,0.604-5.93,0.526-6.41
		c3.521,4.223,5.882,8.413,5.916,8.475l1.749-0.973c-0.164-0.292-3.049-5.416-7.299-10.146c5.849,5.035,10.812,12.534,10.869,12.62
		l1.672-1.097c-0.174-0.266-2.907-4.392-6.745-8.621c1.199,0.795,2.395,1.607,3.518,2.371c1.672,1.135,3.25,2.207,4.609,3.08
		c5.077,3.264,12.252,6.126,15.336,7.183c2.436,0.836,5.18,0.523,7.344-0.834c1.873-1.174,3.089-3.007,3.334-5.03
		c0.486-4.022,0.022-9.004,0.002-9.215l-1.989,0.189c0.004,0.041,0.312,3.359,0.17,6.648c-2.082-1.051-5.968-2.463-8.818-0.207
		c-2.15,1.704-2.484,3.825-2.191,5.519c-2.297-0.903-5.223-2.161-8.021-3.606c1.838,0.24,3.898-0.024,5.389-1.016
		c2.355-1.571,2.401-4.024,1.966-5.633c1.335-1.779,1.702-2.773,1.728-3.74c0.037-1.53-0.878-2.479-0.878-2.479
		c-0.045,0.193-0.568,2.375-2.066,4.566c-1.76-1.103-3.485-1.425-5.137-0.939c-3.51,1.031-5.232,5.357-5.305,5.541l-0.041,0.105
		l-0.019,0.109c-0.037,0.26-0.037,0.633,0.111,1.043c-1.301-0.839-2.804-1.859-4.396-2.941c-4.602-3.125-9.82-6.668-12.604-7.504
		c-3.485-1.045-5.158-1.754-5.174-1.762l-0.074-0.031l-0.077-0.018l-0.316-0.08l-0.302,0.123l-2.426,0.984l0.081-3.152l-1.999-0.053
		l-0.12,4.682l-0.04,1.527l1.416-0.576c0,0,2.197-1.299,2.924-1.371c1.474-0.146,4.563,2.08,5.177,2.875
		c0.613,0.793,1.962,4.859,0.201,9.064c-0.054,0.129-0.118,0.254-0.186,0.379c-1.043-1.016-2.896-2.362-5.465-2.432
		c-3.74-0.105-4.976,3.664-5.386,5.964c-1.533-0.57-3.129-1.738-4.17-4.056c0,0-0.72,0.522-0.646,1.559
		C18.248,32.272,26.149,35.669,29.842,34.784z M72.269,31.72c-1.396,0.875-3.108,1.174-4.731,0.867
		c1.011-2.243,5.17-3.854,7.131-4.407c0.001,0.002,0.004,0.002,0.006,0.004C74.487,29.609,73.637,30.862,72.269,31.72z
		 M67.271,27.368c1.329-1.053,3.136-0.875,4.688-0.389c-2.109,0.818-4.873,2.25-6.063,4.415
		C65.598,30.346,65.546,28.73,67.271,27.368z M60.094,25.031c-1.011,0.674-2.535,0.861-3.898,0.709
		c2.129-0.48,3.822-1.486,5.166-2.691C61.272,23.732,60.946,24.463,60.094,25.031z M57.383,20.388
		c1.016-0.297,2.119-0.092,3.293,0.592c-1.57,1.629-3.814,2.961-6.97,3.055C54.263,22.953,55.518,20.934,57.383,20.388z
		 M29.329,33.394c-0.502,0.184-1.097-0.068-1.604-0.113c0.628-0.413,1.913-0.78,2.796-0.811
		C30.131,32.778,30.117,33.103,29.329,33.394z M28.125,26.982c2.043,0.057,3.508,1.225,4.261,2c-1.597,1.45-4.08,2.445-6.544,2.476
		c-0.325,0.004-0.697-0.012-1.096-0.055C25.035,29.686,25.852,26.92,28.125,26.982z"/>
	<g i:knockout="Off">
		<g i:knockout="Off">
			<path fill="#D90000" d="M40.062,32.32l-0.003-0.001c0.042,0.006,4.177,0.661,5.015,3.523c0.429,1.464,1.504,6.416-2.63,8.627
				c-1.517,0.811-3.41,0.777-5.064-0.091c-1.65-0.866-2.713-2.385-2.914-4.166c-0.191-1.684,0.112-4.096,1.534-5.815
				c1.02-1.231,2.479-1.927,4.338-2.068L40.062,32.32z M31.98,40.494c0.297,2.619,1.84,4.841,4.236,6.099
				c2.388,1.254,5.157,1.284,7.405,0.082c4.605-2.463,5.009-7.573,3.851-11.534c-1.291-4.41-6.816-5.261-7.051-5.295l-0.137-0.02
				l-0.138,0.011c-2.524,0.191-4.627,1.217-6.075,2.967C32.441,34.775,31.659,37.65,31.98,40.494z"/>
		</g>
	</g>
	<g i:knockout="Off">
		<g i:knockout="Off">
			
				<rect x="34.733" y="37.242" transform="matrix(0.1354 0.9908 -0.9908 0.1354 74.4002 -8.2741)" fill="#D90000" width="14.415" height="2.501"/>
		</g>
	</g>
	<g i:knockout="Off">
		<g i:knockout="Off">
			
				<rect x="31.049" y="37.88" transform="matrix(0.1664 0.9861 -0.9861 0.1664 70.5101 -5.1467)" fill="#D90000" width="14.501" height="2.5"/>
		</g>
	</g>
	<g i:knockout="Off">
		<g i:knockout="Off">
			<path fill="#D90000" d="M41.652,45.494c1.714,2.149,3.871,4.687,4.33,5.016c-0.257-0.142-0.516-0.103-0.601-0.062
				c0.164-0.079,0.57-0.482,0.84-0.749c0.64-0.634,1.302-1.29,2.114-1.54c1.312-0.404,3.86-0.416,4.147-0.416l-1.177,0.824
				c0.033-0.09,3.163-8.943-1.774-11.714c-0.459-0.258-2.127-0.451-3.398-0.471h0.001l0.036-2.5
				c0.766,0.012,3.355,0.102,4.584,0.791c6.789,3.807,3.064,14.302,2.904,14.747l-0.301,0.822h-0.875
				c-0.938,0-2.693,0.083-3.412,0.305c-0.229,0.074-0.789,0.629-1.09,0.927c-0.82,0.814-1.945,1.928-3.217,1.222
				c-0.847-0.472-3.224-3.33-5.069-5.643L41.652,45.494z"/>
		</g>
	</g>
	<g i:knockout="Off">
		<g i:knockout="Off">
			<path fill="#D90000" d="M52.337,47.742c0.031-0.001,3.259-0.159,5.873-1.254c0.962-0.403,1.65-1.485,1.886-2.968
				c0.412-2.58-0.56-6.382-3.659-9.063c-0.433-0.373-1.329-1.148-2.471-1.024c-1.122,0.122-2.383,1.084-3.649,2.781l-2.004-1.494
				c1.717-2.3,3.528-3.57,5.385-3.772c2.223-0.242,3.787,1.11,4.375,1.619c3.365,2.91,5.131,7.365,4.494,11.348
				c-0.375,2.358-1.613,4.137-3.391,4.881c-3.034,1.269-6.579,1.438-6.728,1.445L52.337,47.742z"/>
		</g>
	</g>
	<g i:knockout="Off">
		<g i:knockout="Off">
			<path fill="#D90000" d="M46.845,45.613c0.493-0.763,1.667-3.15,1.179-4.991c-0.24-0.904-0.854-1.601-1.873-2.128l1.146-2.221
				c1.663,0.861,2.721,2.112,3.146,3.718c0.868,3.298-1.404,6.837-1.502,6.985L46.845,45.613z"/>
		</g>
	</g>
</g>
</svg>
