<?xml version="1.0" encoding="utf-8"?>
<!-- Generator: Adobe Illustrator 12.0.0, SVG Export Plug-In . SVG Version: 6.00 Build 51448)  -->
<!DOCTYPE svg PUBLIC "-//W3C//DTD SVG 1.1//EN" "http://www.w3.org/Graphics/SVG/1.1/DTD/svg11.dtd" [
	<!ENTITY ns_flows "http://ns.adobe.com/Flows/1.0/">
	<!ENTITY ns_extend "http://ns.adobe.com/Extensibility/1.0/">
	<!ENTITY ns_ai "http://ns.adobe.com/AdobeIllustrator/10.0/">
	<!ENTITY ns_graphs "http://ns.adobe.com/Graphs/1.0/">
	<!ENTITY ns_vars "http://ns.adobe.com/Variables/1.0/">
	<!ENTITY ns_imrep "http://ns.adobe.com/ImageReplacement/1.0/">
	<!ENTITY ns_sfw "http://ns.adobe.com/SaveForWeb/1.0/">
	<!ENTITY ns_custom "http://ns.adobe.com/GenericCustomNamespace/1.0/">
	<!ENTITY ns_adobe_xpath "http://ns.adobe.com/XPath/1.0/">
	<!ENTITY ns_svg "http://www.w3.org/2000/svg">
	<!ENTITY ns_xlink "http://www.w3.org/1999/xlink">
]>
<svg  version="1.1"
	 xmlns:x="&ns_extend;" xmlns:i="&ns_ai;" xmlns:graph="&ns_graphs;" i:viewOrigin="-0.3193 135.7061" i:rulerOrigin="0 0" i:pageBounds="0 136 85 0"
	 xmlns="&ns_svg;" xmlns:xlink="&ns_xlink;" xmlns:a="http://ns.adobe.com/AdobeSVGViewerExtensions/3.0/"
	 width="85.678" height="136.025" viewBox="0 0 85.678 136.025" overflow="visible" enable-background="new 0 0 85.678 136.025"
	 xml:space="preserve">
<metadata>
	<variableSets  xmlns="http://ns.adobe.com/Variables/1.0/">
		<variableSet  varSetName="binding1" locked="none">
			<variables></variables>
			<v:sampleDataSets  xmlns:v="http://ns.adobe.com/Variables/1.0/" xmlns="http://ns.adobe.com/GenericCustomNamespace/1.0/">
				</v:sampleDataSets>
		</variableSet>
	</variableSets>
</metadata>
<g id="图层_1" i:knockout="Off" i:layer="yes" i:dimmedPercent="50" i:rgbTrio="#4F008000FFFF">
	<g i:knockout="Off">
		<path fill="#333333" d="M2.274,99.465v24.962c0,5.149,3.353,9.325,7.481,9.325h68.118c4.133,0,7.484-4.176,7.484-9.325h-0.002
			V9.216c0-4.344-3.352-7.869-7.482-7.869H9.756c-4.131,0-7.481,3.525-7.481,7.869H2.272v90.228
			C2.272,99.45,2.274,99.458,2.274,99.465z"/>
		
			<linearGradient id="XMLID_3_" gradientUnits="userSpaceOnUse" x1="-22.9907" y1="22.7183" x2="-22.9907" y2="148.2847" gradientTransform="matrix(1 0 0 -1 64.8535 158.4238)">
			<stop  offset="0.0899" style="stop-color:#2089B9"/>
			<stop  offset="0.0985" style="stop-color:#4FA3C2"/>
			<stop  offset="0.1071" style="stop-color:#77B9CA"/>
			<stop  offset="0.1138" style="stop-color:#8FC7CF"/>
			<stop  offset="0.118" style="stop-color:#98CCD1"/>
			<stop  offset="0.1341" style="stop-color:#9ECFD3"/>
			<stop  offset="0.156" style="stop-color:#AFD6D9"/>
			<stop  offset="0.1809" style="stop-color:#CBE1E3"/>
			<stop  offset="0.1966" style="stop-color:#E1EAEB"/>
			<a:midPointStop  offset="0.0899" style="stop-color:#2089B9"/>
			<a:midPointStop  offset="0.5" style="stop-color:#2089B9"/>
			<a:midPointStop  offset="0.0985" style="stop-color:#4FA3C2"/>
			<a:midPointStop  offset="0.5" style="stop-color:#4FA3C2"/>
			<a:midPointStop  offset="0.1071" style="stop-color:#77B9CA"/>
			<a:midPointStop  offset="0.5" style="stop-color:#77B9CA"/>
			<a:midPointStop  offset="0.1138" style="stop-color:#8FC7CF"/>
			<a:midPointStop  offset="0.5" style="stop-color:#8FC7CF"/>
			<a:midPointStop  offset="0.118" style="stop-color:#98CCD1"/>
			<a:midPointStop  offset="0.5" style="stop-color:#98CCD1"/>
			<a:midPointStop  offset="0.1341" style="stop-color:#9ECFD3"/>
			<a:midPointStop  offset="0.5" style="stop-color:#9ECFD3"/>
			<a:midPointStop  offset="0.156" style="stop-color:#AFD6D9"/>
			<a:midPointStop  offset="0.5" style="stop-color:#AFD6D9"/>
			<a:midPointStop  offset="0.1809" style="stop-color:#CBE1E3"/>
			<a:midPointStop  offset="0.5" style="stop-color:#CBE1E3"/>
			<a:midPointStop  offset="0.1966" style="stop-color:#E1EAEB"/>
		</linearGradient>
		<path fill="url(#XMLID_3_)" d="M83.405,126.381c0,5.15-3.352,9.325-7.48,9.325H7.804c-4.131,0-7.482-4.177-7.482-9.325V19.465
			c0-5.148,3.354-9.326,7.482-9.326h68.117c4.133,0,7.482,4.176,7.482,9.326v106.916H83.405z"/>
		<path fill="none" stroke="#333333" stroke-width="0.977" d="M83.405,126.381c0,5.15-3.352,9.325-7.48,9.325H7.804
			c-4.131,0-7.482-4.177-7.482-9.325V19.465c0-5.148,3.354-9.326,7.482-9.326h68.117c4.133,0,7.482,4.176,7.482,9.326v106.916
			H83.405z"/>
		<path fill="#FFFFFF" d="M0.32,11.17c0-4.344,3.354-7.869,7.482-7.869h68.118c4.133,0,7.482,3.523,7.482,7.869v90.229
			c0,4.346-3.352,7.869-7.482,7.869H7.802c-4.131,0-7.482-3.523-7.482-7.87L0.32,11.17L0.32,11.17z"/>
		
			<linearGradient id="XMLID_4_" gradientUnits="userSpaceOnUse" x1="3.7021" y1="54.9395" x2="85.8467" y2="54.9395" gradientTransform="matrix(-1 0 0 1 86.6367 1.3447)">
			<stop  offset="0" style="stop-color:#A2D8E0"/>
			<stop  offset="0.0899" style="stop-color:#1878AD"/>
			<stop  offset="0.2135" style="stop-color:#194D91"/>
			<stop  offset="0.6404" style="stop-color:#2B90BD"/>
			<stop  offset="0.9438" style="stop-color:#82CBDE"/>
			<stop  offset="1" style="stop-color:#1A478D"/>
			<a:midPointStop  offset="0" style="stop-color:#A2D8E0"/>
			<a:midPointStop  offset="0.5" style="stop-color:#A2D8E0"/>
			<a:midPointStop  offset="0.0899" style="stop-color:#1878AD"/>
			<a:midPointStop  offset="0.5" style="stop-color:#1878AD"/>
			<a:midPointStop  offset="0.2135" style="stop-color:#194D91"/>
			<a:midPointStop  offset="0.5" style="stop-color:#194D91"/>
			<a:midPointStop  offset="0.6404" style="stop-color:#2B90BD"/>
			<a:midPointStop  offset="0.5" style="stop-color:#2B90BD"/>
			<a:midPointStop  offset="0.9438" style="stop-color:#82CBDE"/>
			<a:midPointStop  offset="0.5" style="stop-color:#82CBDE"/>
			<a:midPointStop  offset="1" style="stop-color:#1A478D"/>
		</linearGradient>
		<path i:isolated="yes" i:knockout="Off" opacity="0.1" fill="url(#XMLID_4_)" enable-background="new    " d="M0.79,11.17
			c0-4.344,3.313-7.869,7.397-7.869h67.347c4.086,0,7.4,3.523,7.4,7.869v90.229c0,4.346-3.314,7.869-7.4,7.869H8.188
			c-4.084,0-7.397-3.523-7.397-7.87V11.17L0.79,11.17z"/>
		<path fill="none" stroke="#4D4D4D" stroke-width="0.977" d="M0.32,101.419v24.962c0,5.148,3.353,9.325,7.482,9.325h68.12
			c4.131,0,7.48-4.175,7.48-9.325V11.171c0-4.346-3.352-7.869-7.482-7.869H7.803c-4.13,0-7.482,3.525-7.482,7.869l-0.001,90.228
			C0.319,101.404,0.32,101.411,0.32,101.419z"/>
	</g>
	<path fill="#1D8F38" d="M58.601,49.699c0.338,10.018,0.979,27.508,1.478,32.088c0.629,5.793,9.506,6.938,9.596,6.95l-0.541,0.069
		c-0.182,0.074-0.286,0.188-0.309,0.227c0.381-0.602,0.892-4.393-0.682-7.173c-0.99-1.758-2.773-2.312-4.209-2.757
		c-1.111-0.345-2.07-0.643-2.343-1.592c-0.223-0.775-1.823-19.619-2.758-30.781l2.191-0.184c1.172,13.983,2.514,29.465,2.682,30.36
		c-0.049-0.167-0.145-0.266-0.176-0.288c0.135,0.098,0.666,0.263,1.056,0.384c1.614,0.501,4.051,1.257,5.473,3.773
		c1.688,2.983,1.548,7.01,0.923,8.79c-0.237,0.679-0.575,1.099-1.028,1.279l-0.262,0.105l-0.279-0.034
		c-0.438-0.052-10.705-1.365-11.521-8.896c-0.505-4.649-1.147-22.203-1.487-32.25L58.601,49.699z"/>
	<path fill="#1D8F38" d="M60.899,49.875c0.039,0.025,4.071,2.617,5.469,3.316c0.66,0.33,1.711,0.353,2.205,0.048
		c0.162-0.099,0.162-0.17,0.162-0.238c0-1.013-1.301-2.568-2.42-2.568c-1.949,0-6.494-2.112-7.367-3.424l1.818-1.234
		c0.473,0.588,4.102,2.459,5.549,2.459c2.442,0,4.617,2.666,4.617,4.768c0,0.88-0.428,1.63-1.204,2.109
		c-1.151,0.712-2.979,0.733-4.347,0.048c-1.502-0.751-5.507-3.325-5.677-3.434L60.899,49.875z"/>
	<polygon fill="#B3D495" points="41.814,52.727 41.813,52.727 41.813,52.726 	"/>
	<g i:knockout="Off">
		<path fill="#24258D" d="M37.86,92.305c-2.123-0.808-4.396-1.11-6.821-0.91c-4.145,0.202-7.985,0.202-11.523,0
			c-1.92-0.102-3.184-0.102-3.79,0c-0.707,0-1.365,0.104-1.971,0.305c-2.628,0.606-3.942-0.557-3.942-3.486
			c0.708-4.043,1.062-8.238,1.062-12.584c0.102-1.617,0.759-2.779,1.972-3.487c1.313-0.605,2.576-0.403,3.789,0.606
			c0.709,0.506,3.285,0.86,7.732,1.062c5.66,0,9.098-0.2,10.311-0.604c1.213-1.011,2.324-1.415,3.335-1.213
			c1.011,0.403,1.517,1.313,1.517,2.729c0.102,4.75,0.506,9.501,1.214,14.252C41.047,91.699,40.086,92.811,37.86,92.305z
			 M31.043,88.061c0,0.404,0.201,0.607,0.604,0.607c0.708,0,1.617,0,2.729,0c1.717-0.102,2.627-0.81,2.729-2.123
			c-0.203-2.628-0.304-4.396-0.304-5.307c0.101-0.506-0.202-0.656-0.909-0.455C32.354,81.391,30.737,83.816,31.043,88.061z
			 M25.279,81.693c0.507,1.109,0.455,3.082-0.151,5.91c-0.304,0.81,0.102,1.162,1.213,1.062c0.91,0,1.365-0.304,1.365-0.91
			c0-3.437,0.605-5.762,1.818-6.975c1.213-1.414,3.387-2.122,6.52-2.122c0.305,0,0.455-0.305,0.455-0.909
			c-0.201-0.709-0.606-1.113-1.213-1.213c-5.861,0-12.027,0-18.496,0c-1.314-0.103-2.021,0.303-2.123,1.213
			c-0.102,0.404-0.201,1.516-0.304,3.335c1.617-1.819,3.438-2.729,5.458-2.729C22.651,78.459,24.471,79.57,25.279,81.693z
			 M14.059,84.726c-0.101,0.202-0.152,0.657-0.152,1.364c-0.1,0.606-0.15,1.062-0.15,1.365c0.101,0.707,0.606,1.111,1.517,1.213
			c1.618,0,3.387,0,5.307,0c0.809,0.1,1.363-0.506,1.668-1.82c0.403-1.516,0.303-2.628-0.305-3.335
			c-2.021-2.123-4.295-2.427-6.821-0.909C14.515,82.805,14.161,83.513,14.059,84.726z"/>
	</g>
	<path fill="#1D8F38" d="M58.858,56.273c-0.144,0.203-3.539,4.967-8.281,4.12l-0.905-0.163v-0.921c0-0.443,0.047-4.396,1.692-6.539
		c1.609-2.091,5.336-3.569,5.756-3.73l0.791,2.053c-0.981,0.379-3.758,1.662-4.803,3.019c-1.011,1.315-1.236,4.199-1.238,5.198
		l-0.905-1.083c3.354,0.598,6.065-3.18,6.092-3.218l-0.001,0.002L58.858,56.273z"/>
	<path fill="#1D8F38" d="M44.938,45.812c0.012,0.503,0.258,12.377-3.02,16.875c-3.479,4.772-10.267,3.369-10.555,3.307l-0.738-0.16
		l-0.115-0.748c-0.367-2.381-0.707-6.527,1.133-7.539c0.636-0.35,1.489-0.499,2.477-0.673c1.685-0.296,3.595-0.631,4.49-1.938
		c1.334-1.944,1.224-7.808,1.187-9.735c-0.006-0.306-0.01-0.549-0.01-0.73v-2.304h2.198v2.304c0,0.16,0.005,0.393,0.011,0.688
		c0.08,4.201-0.043,8.795-1.57,11.021c-1.418,2.069-4.024,2.526-5.926,2.86c-0.728,0.128-1.48,0.26-1.795,0.434
		c0.041-0.023,0.06-0.044,0.061-0.044c-0.397,0.458-0.436,2.995-0.08,5.321l-0.856-0.909c0.056,0.013,5.684,1.155,8.313-2.451
		c2.357-3.234,2.674-12.304,2.597-15.526l0,0L44.938,45.812z"/>
	<path fill="#1D8F38" d="M41.067,46.578c-2.991-0.098-6.044,0.443-6.402,1.136c-0.816,1.573-0.475,3.599-0.471,3.617l-0.821-0.872
		c0.492,0.119,1.986,0.367,2.96,0.084c1.062-0.311,2.89-1.813,3.79-2.686h-0.001l1.532,1.578c-0.277,0.27-2.771,2.656-4.706,3.219
		c-1.714,0.5-3.859,0-4.1-0.059l-0.692-0.17l-0.127-0.702c-0.02-0.112-0.484-2.772,0.683-5.022c1.231-2.377,6.764-2.378,8.43-2.322
		L41.067,46.578z"/>
	<path fill="#1D8F38" d="M44.569,49.92c0.756,0.982,2.354,2.666,3.424,3.007c0.103,0.033,0.148,0.032,0.148,0.032
		c-0.062,0.002-0.17,0.068-0.197,0.125c0.114-0.222,0.008-1.102-0.437-1.675c-0.647-0.832-2.954-2.449-4.256-3.272l0,0l1.176-1.859
		c0.378,0.239,3.722,2.375,4.816,3.782c0.886,1.138,1.33,3.096,0.506,4.275c-0.524,0.75-1.432,1.007-2.43,0.688
		c-2.067-0.661-4.255-3.446-4.498-3.761L44.569,49.92z"/>
	<path fill="#1D8F38" d="M44.325,27.857c-1.979-4.417-5.323-11.721-5.871-12.513l1.809-1.252c0.827,1.192,5.202,10.927,6.07,12.866
		L44.325,27.857z"/>
	<path fill="#1D8F38" d="M40.603,29.652c-0.134-0.304-3.274-7.518-3.213-13.684l2.199,0.021c-0.058,5.686,2.996,12.707,3.027,12.777
		l0,0L40.603,29.652z"/>
	<path fill="#1D8F38" d="M48.485,28.117c-0.029-0.093-3.164-9.274-8.873-14.412l1.472-1.635c6.145,5.531,9.354,14.949,9.486,15.347
		L48.485,28.117z"/>
	<path fill="#1D8F38" d="M51.819,18.186c3.016,2.684,11.258,9.901,13.153,11.038c1.509,0.904,4.006,1.505,5.57,0.945
		c0.673-0.241,1.115-0.677,1.348-1.331c1.086-3.039,1.198-6.919-0.375-7.627l-0.128-0.058c-2.295-1.033-2.709-1.219-4.064,0.562
		c-1.996,2.618-3.516,3.545-3.683,3.643l-0.661,0.387l-0.593-0.489c-0.11-0.091-11.047-9.118-14.803-11.701
		c-3.633-2.499-6.168-3.331-6.191-3.339l1.332-0.584c-0.04,0.085-3.992,8.583-5.899,12.281c-2.292,4.442-8.487,5.306-11.029,4.505
		c-0.693-0.22-1.713,0.285-2.318,1.149c-0.215,0.305-0.662,1.082-0.194,1.692c1.419,1.856,5.913,4.112,7.838,3.062
		c1.856-1.013,3.604-3.166,5.054-6.225c1.079-2.277,2.023-4.053,2.062-4.127l1.941,1.035c-0.01,0.017-0.961,1.806-2.017,4.033
		c-1.675,3.532-3.688,5.959-5.987,7.215c-3.254,1.774-8.848-1.312-10.641-3.657c-0.924-1.207-0.869-2.853,0.143-4.293
		c0.967-1.378,2.875-2.586,4.781-1.983c1.748,0.55,6.735-0.169,8.412-3.417c1.887-3.657,5.819-12.114,5.858-12.199l0.408-0.878
		l0.924,0.294c0.114,0.036,2.842,0.92,6.77,3.622c3.836,2.637,14.506,11.444,14.957,11.818l-1.262-0.099
		c0.014-0.008,1.314-0.807,3.047-3.079c2.416-3.172,4.41-2.274,6.719-1.234l0.128,0.058c3.317,1.492,2.741,7.021,1.545,10.373
		c-0.457,1.277-1.384,2.198-2.679,2.662c-2.285,0.817-5.474,0.051-7.442-1.13c-2.461-1.475-13.037-10.882-13.484-11.282
		L51.819,18.186z"/>
	<path fill="#1D8F38" d="M52.344,26.676c-0.064-0.119-6.586-11.942-11.684-15.17l1.178-1.859
		c5.575,3.532,12.159,15.465,12.438,15.972L52.344,26.676z"/>
	<g i:knockout="Off">
		<path fill="#D90000" d="M49.227,29.744c0,0-0.094-0.039-0.099-0.042l-0.084-0.056c-0.115-0.074-2.823-1.806-5.93-0.503
			c-1.186,0.497-0.477,2.552-0.469,2.573l-0.002-0.005l-2.068,0.75c-0.505-1.394-0.801-4.305,1.689-5.348
			c4.216-1.769,7.843,0.597,7.995,0.699L49.227,29.744z"/>
	</g>
	<g i:knockout="Off">
		<path fill="#D90000" d="M46.601,31.827c-0.405-0.026-1.006,0.09-1.562,0.797c-1.092,1.394-1.839,5.191-1.118,7.473
			c0.762,2.416,2.563,3.231,3.755,3.77c0.188,0.085,0.365,0.165,0.521,0.243c1.15,0.575,2.539-0.17,4.01-0.958
			c0.605-0.325,1.619-0.87,1.949-0.86c-0.002,0-0.009,0-0.022-0.003c0.599,0.109,1.164-0.127,1.555-0.648
			c1.126-1.501,0.822-6.332-0.016-8.006c-0.982-1.97-2.785-2.957-2.86-2.998l-0.606-0.326l-0.56,0.403
			C51.632,30.723,49.721,32.036,46.601,31.827z M51.766,32.574l-0.005-0.003c0.013,0.007,1.275,0.716,1.941,2.047
			c0.612,1.223,0.67,5.032,0.22,5.706c0.063-0.093,0.312-0.252,0.604-0.199c-0.994-0.181-2.091,0.407-3.359,1.089
			c-0.646,0.345-1.728,0.925-2.078,0.898c0,0,0.037,0.003,0.092,0.03c-0.192-0.096-0.399-0.189-0.598-0.279
			c-1.08-0.489-2.098-0.949-2.564-2.428c-0.542-1.718,0.236-5.014,0.798-5.503c-0.031,0.028-0.164,0.104-0.357,0.091
			c3.951,0.264,6.375-1.453,6.479-1.526L51.766,32.574z"/>
	</g>
	<g i:knockout="Off">
		<path fill="#D90000" d="M44.616,35.088c-0.129-0.15-3.256-3.638-7.567-1.534c-2.297,1.122-2.062,3.146-1.854,3.964
			c0.475,1.861,2.318,3.779,4.803,3.67l-0.359,0.077c0.937-0.375,2.955-0.628,3.894,1.094c0.25,0.456,0.391,0.924,0.516,1.335
			c0.293,0.967,0.486,1.605,1.896,2.118c1.102,0.401,1.573-0.052,2.383-0.955c0.385-0.429,0.781-0.873,1.312-1.12
			c1.349-0.626,2.169,0.49,2.564,1.026c0.351,0.475,0.713,0.966,1.385,1.26c0.971,0.425,1.898-0.167,2.755-1.76l1.938,1.043
			c-1.433,2.659-3.463,3.655-5.574,2.732c-1.211-0.531-1.85-1.397-2.273-1.97c-0.106-0.146-0.256-0.347-0.317-0.399
			c0.102,0.084,0.334,0.117,0.453,0.062c-0.123,0.058-0.412,0.379-0.603,0.593c-0.776,0.868-2.223,2.483-4.774,1.556
			c-2.444-0.89-2.908-2.427-3.25-3.549c-0.107-0.356-0.199-0.661-0.341-0.919c-0.233-0.428-1.144-0.105-1.145-0.104l-0.174,0.069
			l-0.188,0.008c-3.684,0.163-6.326-2.554-7.031-5.325c-0.699-2.747,0.458-5.231,3.021-6.482c4.684-2.287,8.718,0.354,10.196,2.071
			L44.616,35.088z"/>
	</g>
	<g i:knockout="Off">
		<path fill="#D90000" d="M58.835,46.729l-0.361-4.348c0,0-0.091-1.1-0.09-1.1l1.103-0.088c1.266-0.1,3.963-0.721,4.203-1.993
			c0.241-1.264-0.221-3.658-1.388-5.319c-0.403-0.577-1.063-1.292-1.905-1.427c-2.352-0.376-3.18,0.068-3.128,0.032l-1.537,1.149
			l-0.215-1.908c-0.274-2.44-1.133-4.42-1.547-4.42c-1.6,0-3.002,1.154-3.121,1.755c-0.137,0.684,0.138,2.112,0.343,2.851v-0.001
			l-2.119,0.59c-0.07-0.247-0.664-2.453-0.381-3.871c0.37-1.843,2.885-3.522,5.278-3.522c2.808,0,3.566,4.88,3.732,6.376
			l-1.752-0.76c0.312-0.234,1.582-0.957,4.791-0.442c1.268,0.201,2.43,1.009,3.359,2.334c1.383,1.968,2.135,4.975,1.748,6.996
			c-0.618,3.253-5.627,3.73-6.193,3.774l1.012-1.188l0.359,4.348L58.835,46.729z"/>
	</g>
	<g i:knockout="Off">
		
			<rect x="53.05" y="44.328" transform="matrix(-0.0323 -0.9995 0.9995 -0.0323 13.8087 104.2264)" fill="#D90000" width="8.623" height="2.2"/>
	</g>
	<circle fill="#D90000" cx="52.388" cy="36.895" r="1.43"/>
	<circle fill="#D90000" cx="49.656" cy="35.9" r="1.429"/>
	<circle fill="#D90000" cx="50.586" cy="39.503" r="1.429"/>
	<circle fill="#D90000" cx="47.543" cy="38.509" r="1.429"/>
</g>
</svg>
