<?xml version="1.0" encoding="utf-8"?>
<!-- Generator: Adobe Illustrator 12.0.0, SVG Export Plug-In . SVG Version: 6.00 Build 51448)  -->
<!DOCTYPE svg PUBLIC "-//W3C//DTD SVG 1.1//EN" "http://www.w3.org/Graphics/SVG/1.1/DTD/svg11.dtd" [
	<!ENTITY ns_flows "http://ns.adobe.com/Flows/1.0/">
	<!ENTITY ns_extend "http://ns.adobe.com/Extensibility/1.0/">
	<!ENTITY ns_ai "http://ns.adobe.com/AdobeIllustrator/10.0/">
	<!ENTITY ns_graphs "http://ns.adobe.com/Graphs/1.0/">
	<!ENTITY ns_vars "http://ns.adobe.com/Variables/1.0/">
	<!ENTITY ns_imrep "http://ns.adobe.com/ImageReplacement/1.0/">
	<!ENTITY ns_sfw "http://ns.adobe.com/SaveForWeb/1.0/">
	<!ENTITY ns_custom "http://ns.adobe.com/GenericCustomNamespace/1.0/">
	<!ENTITY ns_adobe_xpath "http://ns.adobe.com/XPath/1.0/">
	<!ENTITY ns_svg "http://www.w3.org/2000/svg">
	<!ENTITY ns_xlink "http://www.w3.org/1999/xlink">
]>
<svg  version="1.1"
	 xmlns:x="&ns_extend;" xmlns:i="&ns_ai;" xmlns:graph="&ns_graphs;" i:viewOrigin="-0.3193 135.7061" i:rulerOrigin="0 0" i:pageBounds="0 136 85 0"
	 xmlns="&ns_svg;" xmlns:xlink="&ns_xlink;" xmlns:a="http://ns.adobe.com/AdobeSVGViewerExtensions/3.0/"
	 width="85.678" height="136.025" viewBox="0 0 85.678 136.025" overflow="visible" enable-background="new 0 0 85.678 136.025"
	 xml:space="preserve">
<metadata>
	<variableSets  xmlns="http://ns.adobe.com/Variables/1.0/">
		<variableSet  varSetName="binding1" locked="none">
			<variables></variables>
			<v:sampleDataSets  xmlns:v="http://ns.adobe.com/Variables/1.0/" xmlns="http://ns.adobe.com/GenericCustomNamespace/1.0/">
				</v:sampleDataSets>
		</variableSet>
	</variableSets>
</metadata>
<g id="图层_1" i:knockout="Off" i:layer="yes" i:dimmedPercent="50" i:rgbTrio="#4F008000FFFF">
	<g i:knockout="Off">
		<path fill="#333333" d="M2.274,99.465v24.962c0,5.149,3.353,9.325,7.481,9.325h68.118c4.133,0,7.484-4.176,7.484-9.325h-0.002
			V9.216c0-4.344-3.352-7.869-7.482-7.869H9.756c-4.131,0-7.481,3.525-7.481,7.869H2.272v90.228
			C2.272,99.45,2.274,99.458,2.274,99.465z"/>
		
			<linearGradient id="XMLID_3_" gradientUnits="userSpaceOnUse" x1="-22.9907" y1="22.7183" x2="-22.9907" y2="148.2847" gradientTransform="matrix(1 0 0 -1 64.8535 158.4238)">
			<stop  offset="0.0899" style="stop-color:#2089B9"/>
			<stop  offset="0.0985" style="stop-color:#4FA3C2"/>
			<stop  offset="0.1071" style="stop-color:#77B9CA"/>
			<stop  offset="0.1138" style="stop-color:#8FC7CF"/>
			<stop  offset="0.118" style="stop-color:#98CCD1"/>
			<stop  offset="0.1341" style="stop-color:#9ECFD3"/>
			<stop  offset="0.156" style="stop-color:#AFD6D9"/>
			<stop  offset="0.1809" style="stop-color:#CBE1E3"/>
			<stop  offset="0.1966" style="stop-color:#E1EAEB"/>
			<a:midPointStop  offset="0.0899" style="stop-color:#2089B9"/>
			<a:midPointStop  offset="0.5" style="stop-color:#2089B9"/>
			<a:midPointStop  offset="0.0985" style="stop-color:#4FA3C2"/>
			<a:midPointStop  offset="0.5" style="stop-color:#4FA3C2"/>
			<a:midPointStop  offset="0.1071" style="stop-color:#77B9CA"/>
			<a:midPointStop  offset="0.5" style="stop-color:#77B9CA"/>
			<a:midPointStop  offset="0.1138" style="stop-color:#8FC7CF"/>
			<a:midPointStop  offset="0.5" style="stop-color:#8FC7CF"/>
			<a:midPointStop  offset="0.118" style="stop-color:#98CCD1"/>
			<a:midPointStop  offset="0.5" style="stop-color:#98CCD1"/>
			<a:midPointStop  offset="0.1341" style="stop-color:#9ECFD3"/>
			<a:midPointStop  offset="0.5" style="stop-color:#9ECFD3"/>
			<a:midPointStop  offset="0.156" style="stop-color:#AFD6D9"/>
			<a:midPointStop  offset="0.5" style="stop-color:#AFD6D9"/>
			<a:midPointStop  offset="0.1809" style="stop-color:#CBE1E3"/>
			<a:midPointStop  offset="0.5" style="stop-color:#CBE1E3"/>
			<a:midPointStop  offset="0.1966" style="stop-color:#E1EAEB"/>
		</linearGradient>
		<path fill="url(#XMLID_3_)" d="M83.405,126.381c0,5.15-3.352,9.325-7.48,9.325H7.804c-4.131,0-7.482-4.177-7.482-9.325V19.465
			c0-5.148,3.354-9.326,7.482-9.326h68.117c4.133,0,7.482,4.176,7.482,9.326v106.916H83.405z"/>
		<path fill="none" stroke="#333333" stroke-width="0.977" d="M83.405,126.381c0,5.15-3.352,9.325-7.48,9.325H7.804
			c-4.131,0-7.482-4.177-7.482-9.325V19.465c0-5.148,3.354-9.326,7.482-9.326h68.117c4.133,0,7.482,4.176,7.482,9.326v106.916
			H83.405z"/>
		<path fill="#FFFFFF" d="M0.32,11.17c0-4.344,3.354-7.869,7.482-7.869h68.118c4.133,0,7.482,3.523,7.482,7.869v90.229
			c0,4.346-3.352,7.869-7.482,7.869H7.802c-4.131,0-7.482-3.523-7.482-7.87L0.32,11.17L0.32,11.17z"/>
		
			<linearGradient id="XMLID_4_" gradientUnits="userSpaceOnUse" x1="3.7021" y1="54.9395" x2="85.8467" y2="54.9395" gradientTransform="matrix(-1 0 0 1 86.6367 1.3447)">
			<stop  offset="0" style="stop-color:#A2D8E0"/>
			<stop  offset="0.0899" style="stop-color:#1878AD"/>
			<stop  offset="0.2135" style="stop-color:#194D91"/>
			<stop  offset="0.6404" style="stop-color:#2B90BD"/>
			<stop  offset="0.9438" style="stop-color:#82CBDE"/>
			<stop  offset="1" style="stop-color:#1A478D"/>
			<a:midPointStop  offset="0" style="stop-color:#A2D8E0"/>
			<a:midPointStop  offset="0.5" style="stop-color:#A2D8E0"/>
			<a:midPointStop  offset="0.0899" style="stop-color:#1878AD"/>
			<a:midPointStop  offset="0.5" style="stop-color:#1878AD"/>
			<a:midPointStop  offset="0.2135" style="stop-color:#194D91"/>
			<a:midPointStop  offset="0.5" style="stop-color:#194D91"/>
			<a:midPointStop  offset="0.6404" style="stop-color:#2B90BD"/>
			<a:midPointStop  offset="0.5" style="stop-color:#2B90BD"/>
			<a:midPointStop  offset="0.9438" style="stop-color:#82CBDE"/>
			<a:midPointStop  offset="0.5" style="stop-color:#82CBDE"/>
			<a:midPointStop  offset="1" style="stop-color:#1A478D"/>
		</linearGradient>
		<path i:isolated="yes" i:knockout="Off" opacity="0.1" fill="url(#XMLID_4_)" enable-background="new    " d="M0.79,11.17
			c0-4.344,3.313-7.869,7.397-7.869h67.347c4.086,0,7.4,3.523,7.4,7.869v90.229c0,4.346-3.314,7.869-7.4,7.869H8.188
			c-4.084,0-7.397-3.523-7.397-7.87V11.17L0.79,11.17z"/>
		<path fill="none" stroke="#4D4D4D" stroke-width="0.977" d="M0.32,101.419v24.962c0,5.148,3.353,9.325,7.482,9.325h68.12
			c4.131,0,7.48-4.175,7.48-9.325V11.171c0-4.346-3.352-7.869-7.482-7.869H7.803c-4.13,0-7.482,3.525-7.482,7.869l-0.001,90.228
			C0.319,101.404,0.32,101.411,0.32,101.419z"/>
	</g>
	<path fill="#D90000" d="M60.221,73.663c0.19-2.195-0.621-3.246-2.435-3.15c-1.431,0-2.147-0.382-2.147-1.145
		c0-0.763,0.573-1.146,1.721-1.146h11.312c1.24,0,1.861,0.382,1.861,1.146c0.096,0.668-0.668,1.049-2.291,1.145
		c-1.146,0.098-1.861,0.334-2.148,0.717s-0.43,1.194-0.43,2.436V88.27c0,1.24,0.143,2.006,0.43,2.291
		c0.288,0.286,1.099,0.432,2.435,0.432h1.146c1.146,0,1.717,0.334,1.717,1.002s-0.668,1.098-2.004,1.289
		c-1.719,0.188-3.53,0.81-5.44,1.859c-1.049,0.572-1.812,0.859-2.291,0.859c-1.05,0-1.527-0.716-1.434-2.148V73.663z"/>
	<path fill="#1D8F38" d="M42.402,94.733c-4.012-3.445-5.297-14.04-5.297-14.04s1.39,0.669,2.006,0.978
		c0.617,0.309,3.085,1.028,3.702-1.543c0.617-2.572-1.232-4.783-2.417-5.297c-1.183-0.515-1.901,0.411-1.901,1.028
		c0,0.615,1.131,1.183,1.489,1.542c0.361,0.36,1.646,1.902,0.566,2.264c-1.08,0.359-3.188-1.132-3.188-1.132
		s-0.257-0.566,0.516-3.602c0.771-3.032,3.6-9.154,3.6-9.154c0.411,0.977,2.365,3.188,3.55,3.908
		c1.182,0.722,4.524,0.517,4.885-2.417c0.36-2.932-1.234-4.68-3.086-5.503c-1.853-0.823-2.828,0.257-2.879,0.926
		c-0.052,0.669,0.564,0.915,1.142,0.987c0.575,0.072,1.091,0.381,1.737,1.029c0.647,0.648,1.15,3.816-0.287,3.383
		c-1.44-0.432-3.601-4.463-3.601-4.463c2.666-3.672,3.312-10.584,3.312-10.584c1.152,1.367,4.32,3.311,6.553,1.943
		c2.232-1.367,2.088-4.679,0.433-6.408c-1.654-1.728-5.398-0.577-5.832-0.432c-0.433,0.144-0.646,2.16,0,2.232
		c0.648,0.072,2.018,0.143,3.385-0.504c1.369-0.649,2.593,3.168-0.217,3.527c-2.807,0.361-3.814-2.16-3.814-2.16
		c0-1.008-0.575-3.527-1.297-3.672c-0.719-0.144-1.656,0.216-1.799,1.152c-0.145,0.936-0.36,5.473-0.36,5.473
		c-1.944-3.385-6.408-1.297-7.344,0.504c-0.936,1.799-1.009,4.824,0.72,5.976c1.727,1.151,3.672,0.575,3.815-0.505
		c0.145-1.079-0.864-1.439-1.871-1.439c-1.008,0-1.944-1.943-0.648-3.24c1.297-1.294,5.185-0.719,4.969,0.937
		c-0.217,1.655-2.232,6.407-3.385,8.712c-1.152,2.303-3.744,6.984-3.744,6.984s-0.936,0.287-1.584,0.863
		c-0.646,0.574-1.871,1.511-2.375,0.574c-0.504-0.935-0.721-2.95,0.576-3.742c1.295-0.792,3.239,0.217,3.455-0.792
		c0.217-1.008-0.648-1.584-1.8-1.584s-3.889,1.224-4.464,3.744c-0.576,2.521,1.225,4.536,2.663,4.536
		c1.439,0,3.527-1.872,3.527-1.872l-1.08,2.521c0,0-3.312,1.727-4.104,2.951c-0.792,1.224-0.433,2.088,0.863,1.942
		c1.297-0.144,3.145-3.097,3.145-3.097s-0.522,7.207,0.943,10.562c2.257,5.177,6.567,7.678,6.567,7.678
		C43.071,95.948,42.403,94.731,42.402,94.733z"/>
	<path fill="#1D8F38" d="M49.562,57.652c-0.862-0.287-2.304,1.657-2.375,2.376c-0.071,0.719,0.862,1.08,1.8,1.44
		c0.936,0.359,3.168,1.223,3.312,0.072C52.442,60.388,50.426,57.939,49.562,57.652z"/>
	<path fill="#1D8F38" d="M43.739,71.021c-0.824-0.563-2.521-0.308-2.726,0.979s1.491,3.343,2.16,3.96
		c0.668,0.617,1.545,1.142,2.058,0.566C46.465,75.138,44.562,71.589,43.739,71.021z"/>
	<path fill="#1D8F38" d="M38.185,61.867c-0.977-0.154-5.297,1.235-5.399,1.852c-0.104,0.617,0.463,2.11,1.594,2.006
		c1.132-0.102,4.166-2.263,4.629-2.828C39.471,62.331,39.162,62.022,38.185,61.867z"/>
	<path fill="#1D8F38" d="M59.135,33.888c0.504,0.29-0.504,1.512-1.584,0.936c-1.08-0.576-1.367-3.095-0.646-3.814
		c0.721-0.719,1.873-0.647,1.873-0.647c1.079,0.935,2.303,1.294,2.303,1.294l5.041,5.978c0,0,0.863-1.297,0.863-1.944
		c0-0.649-0.72-1.442-1.728-2.088c-1.01-0.649-1.369-2.018-1.369-2.808c0-0.793-1.584-1.439-2.305-1.439
		c-0.719,0-2.377-0.865-2.664-1.225c-0.288-0.36-2.09-1.512-3.672-2.52c-1.584-1.008-4.104-4.752-4.104-4.752
		s-1.438-3.095-2.445-4.32c-1.009-1.225-5.041-2.305-6.554-2.305c-1.511,0-3.814,0.648-3.814,0.648s-1.945-1.152-2.809-1.584
		c-0.864-0.432-5.112-0.287-5.112-0.287S19.752,6.745,19.319,6.89c-0.433,0.145-2.017,1.874-1.872,2.52
		c0.146,0.648,1.44,1.512,1.729,1.369c0.287-0.144,1.223-0.361,1.871-0.072c0.647,0.287,2.16,1.08,4.248,2.375
		c2.088,1.297,4.104,3.385,4.104,3.385l0.865,3.527l-0.289,1.729c-0.576,0.721-3.744,2.953-4.752,2.953
		c-1.008,0-2.592-3.025-0.791-3.816c1.799-0.793,4.248,0.215,4.248,0.215l1.151-0.504c0,0-2.161-2.951-5.186-2.879
		c-3.022,0.072-3.814,4.031-3.239,6.047c0.575,2.015,2.881,3.529,4.753,2.953c1.871-0.576,3.814-3.096,3.814-3.096l-0.359,1.727
		l1.584-0.143c0,0,1.729-2.521,1.943-3.312c0.216-0.793-0.36-1.873-0.936-2.953s-0.217-1.943-0.217-1.943s1.801,2.306,2.593,2.809
		c0.792,0.503,1.584,0.791,2.808,1.439c1.225,0.649,3.601,2.809,3.601,2.809l1.584-1.152c0,0-0.576-1.008-1.44-2.088
		c-0.864-1.08-4.032-2.377-5.184-2.953c-1.152-0.574-3.456-2.879-3.456-2.879s1.655,0.504,2.88,0.863
		c1.225,0.362,4.104,1.585,5.04,2.305c0.936,0.72,3.814,4.824,3.814,4.824s1.802-0.866,1.802-1.225c0-0.359-1.369-2.016-2.307-2.664
		c-0.935-0.649-2.229-2.52-2.229-2.52s2.374,0.072,3.528,0.648c1.151,0.576,4.752,6.191,6.768,8.062
		c2.016,1.873,4.68,3.744,4.68,3.744s-2.088,0.793-2.446,2.591c-0.359,1.801,0.286,3.674,1.297,4.682
		c1.008,1.008,2.734,1.656,3.6,1.728c0.863,0.072,2.304-1.584,2.736-2.521c0.432-0.935-0.287-2.304-1.44-3.023
		c-1.15-0.721-2.021,0.299-2.021,0.299S58.633,33.604,59.135,33.888z"/>
	<path fill="#1D8F38" d="M67.923,27.194c1.08,0,0.506,1.367,0.217,3.096c-0.286,1.727-0.071,3.526,0.218,4.606
		c0.286,1.081,2.592,2.665,4.248,2.089c1.655-0.576,3.023-2.807,2.879-3.817c-0.145-1.007-1.871-1.511-1.871-2.23
		c0-0.719,0.862-1.007,1.584-1.655c0.719-0.649,1.295-1.44,0.576-2.016c-0.722-0.576-1.584,0-2.593,0.719
		c-1.01,0.721-2.231,1.584-1.873,2.952c0.359,1.367,1.513,1.439,1.584,2.375c0.072,0.936-0.145,1.945-1.729,1.225
		c-1.584-0.72-1.008-3.095-1.008-3.815c0-0.721,0.935-3.6,0.359-4.68c-0.574-1.08-2.159-2.088-4.104-0.793
		c-1.944,1.297-2.231,4.825-2.018,5.976c0.217,1.153,1.729,1.729,2.231,0.936c0.504-0.791,0-1.151-0.145-2.015
		C66.337,29.284,66.843,27.196,67.923,27.194z"/>
	<path fill="#1D8F38" d="M57.698,25.251c0.646-0.574,3.24-1.799,5.11-0.719c0.781,0.451,1.943,2.088-0.215,2.736
		c-2.161,0.647-4.178-0.361-4.178-0.361S57.049,25.827,57.698,25.251z"/>
	<path fill="#1D8F38" d="M53.952,21.796c0.576-0.432,2.377-0.287,2.881-1.225c0.504-0.935-0.575-2.303-1.297-2.447
		c-0.721-0.144-2.088,1.367-2.879,2.016c-0.793,0.649-1.729,0-1.873-0.576c-0.145-0.576,1.584-2.736,3.601-3.455
		c2.016-0.721,3.744,0.863,4.608,2.16c0.865,1.295,0.791,3.24-0.36,3.959c-1.152,0.721-4.681,0.793-4.681,0.793
		C52.946,23.021,53.376,22.228,53.952,21.796z"/>
	<path fill="#1D8F38" d="M26.088,30.794c-0.647-0.287-1.224,0-2.231,0.935c-1.007,0.935-2.305,2.232-2.305,2.232
		s-0.432-1.512-0.72-2.881c-0.288-1.366-2.231-3.023-4.319-2.878c-2.088,0.145-3.672,4.175-2.809,4.896
		c0.862,0.719,2.448,0.143,2.448,0.143s-0.937-0.863-0.36-2.16c0.577-1.294,2.016-0.503,2.52-0.07
		c0.504,0.431,0.721,2.447,0.721,2.447c0.577,0.576,1.729,2.448,1.729,2.448c0.215,3.312,3.816,4.608,4.176,4.824
		c0.359,0.217,3.023-0.504,3.023-2.736c0-2.231-0.433-3.672-1.225-3.815c-0.448-0.082-1.296,0.07-1.728,0.215
		c-0.433,0.145,0.504,1.225,1.079,2.377c0.577,1.151-1.224,1.512-2.231,1.151c-1.008-0.359-1.801-2.448-1.297-3.024
		s1.656-0.863,2.377-1.08c0.72-0.214,2.017-1.439,2.017-1.439S26.737,31.082,26.088,30.794z"/>
	<path fill="#1D8F38" d="M18.385,35.764c-0.576-0.289,0.072-0.937-0.287-1.441c-0.359-0.504-1.152-0.36-2.377-0.215
		c-1.222,0.143-0.503,0.647-1.439,0.719c-0.936,0.072-2.95-1.151-3.6-1.727c-0.649-0.576-1.44-0.145-1.512,1.08
		c-0.072,1.222,2.088,1.944,3.744,2.159c1.653,0.217,3.813,0.217,3.813,0.217s-0.358,0.935-0.791,1.656
		c-0.432,0.719,0.936,1.943,2.088,1.943c1.153,0,1.225-2.232,1.225-2.232S19.546,36.345,18.385,35.764z"/>
	<path fill="#1D8F38" d="M23.642,27.915c-0.504-0.071-2.592-1.151-3.383-0.432c-0.793,0.721,0.287,1.512,1.943,2.016
		c1.655,0.504,2.663,0.072,2.663,0.072S24.145,27.987,23.642,27.915z"/>
	<path fill="#D90000" d="M28.656,36.769c0,0.475,0.046,0.925,0.104,1.336c0.181,1.254,0.996,2.976,2.738,4.044
		c1.02,0.624,2.69,1.165,5.012,0.643c1.175,3.128,3.049,5.142,5.203,5.343c3.365,0.314,5.037-1.693,6.633-5.222
		c0.156-0.025,0.334-0.053,0.334-0.053l2.996-0.524c1.519-0.343,2.76-1.525,3.243-3.087c0.147-0.474,0.218-0.96,0.218-1.445
		c0-1.304-0.518-2.604-1.497-3.657c-0.876-0.943-1.659-1.588-2.365-1.996c0.479-1.462,0.864-2.905,0.864-4.081
		c0-0.105-0.002-0.21-0.01-0.312c-0.19-3.026-2.213-5.291-5.029-5.637c-1.765-0.217-3.806,0.447-6.057,1.908
		c-4.062-2.729-7.054-1.768-8.505-0.883c-1.036,0.632-1.837,1.968-2.088,3.486c-0.06,0.352-0.088,0.705-0.088,1.059
		c0,1.304,0.5,2.58,1.252,3.782C29.299,33.172,28.656,35.115,28.656,36.769z M33.606,32.715l1.128-0.654l-0.836-1.002
		c-1.416-1.698-1.408-3.276-1.276-4.067c0.166-1.008,0.667-1.725,1.062-1.967c1.288-0.785,3.494-1.216,6.689,1.188l0.641,0.482
		l0.655-0.463c2.052-1.448,3.789-2.096,5.162-1.928c1.76,0.215,2.978,1.625,3.103,3.592c0.071,1.094-0.529,2.98-1.062,4.501
		l-0.455,1.307l1.375,0.15c0.246,0.027,1.074,0.537,2.238,1.791c0.812,0.874,1.1,1.951,0.789,2.954
		c-0.255,0.824-0.861,1.419-1.625,1.591l-2.854,0.497l-1.503,0.237L46.6,41.482c-1.887,4.395-3.027,4.617-4.682,4.463
		c-1.076-0.101-2.689-1.411-3.693-4.771l-0.326-1.094l-1.082,0.367c-1.655,0.564-3.059,0.506-4.168-0.174
		c-1.024-0.628-1.598-1.699-1.711-2.482C30.693,36.101,30.85,34.314,33.606,32.715z"/>
	<path fill="#D90000" d="M34.862,37.826c0.773,1.187,2.493,1.486,3.548,1.583c0.499,0.844,1.402,2.129,2.648,2.466l0.229,3.08
		l2.193-0.164l-0.255-3.41c0.804-0.643,1.333-1.67,1.642-2.388c0.791-0.176,1.949-0.524,2.729-1.246l2.59,1.063l0.838-2.035
		l-2.631-1.081c-0.146-1.25-1.195-2.334-1.918-2.969c0.022-0.26,0.042-0.555,0.042-0.875c0-0.629-0.075-1.331-0.321-1.95
		l1.909-2.402l-1.722-1.369l-1.797,2.256c-1.265-0.344-2.721,0.359-3.588,0.871c-0.737-0.315-1.856-0.694-2.893-0.59L36.5,26.414
		l-1.79,1.279l1.521,2.127c-0.316,0.543-0.434,1.19-0.434,1.827c0,0.67,0.112,1.256,0.222,1.742
		c-0.472,0.535-1.099,1.344-1.386,2.24l-2.288,0.043l0.041,2.199L34.862,37.826z M41.16,31.747l0.511-0.326
		c1.848-1.177,2.363-0.915,2.369-0.911c0.002,0.002,0.461,0.356,0.188,2.53l-0.075,0.602l0.469,0.385
		c1.69,1.393,1.602,1.965,1.6,1.971c-0.001,0.005-0.196,0.551-2.35,0.963l-0.594,0.114l-0.222,0.562
		c-0.802,2.038-1.374,2.131-1.38,2.131c-0.006,0-0.584-0.018-1.642-1.937l-0.293-0.53l-0.604-0.037
		c-2.186-0.132-2.451-0.648-2.454-0.653c-0.002-0.005-0.162-0.561,1.336-2.159l0.414-0.443l-0.152-0.586
		c-0.549-2.121-0.141-2.532-0.137-2.535c0.004-0.003,0.484-0.327,2.467,0.602L41.16,31.747z"/>
	<path fill="#D90000" d="M24.984,54.432c2.263,0,4.102-1.826,4.102-4.07c0-2.244-1.839-4.07-4.102-4.07c-2.26,0-4.1,1.826-4.1,4.07
		C20.885,52.606,22.725,54.433,24.984,54.432z M24.983,48.492c1.048,0,1.9,0.839,1.9,1.87c0,1.031-0.852,1.869-1.9,1.869
		c-1.046,0-1.898-0.838-1.898-1.869C23.085,49.331,23.938,48.492,24.983,48.492z"/>
	<path fill="#D90000" d="M62.366,49.212c2.26,0,4.101-1.893,4.101-4.22c0-2.327-1.841-4.221-4.101-4.221
		c-2.262,0-4.102,1.894-4.102,4.221C58.266,47.319,60.104,49.212,62.366,49.212z M62.366,42.971c1.045,0,1.898,0.907,1.898,2.021
		c0,1.114-0.853,2.02-1.898,2.02c-1.049,0-1.901-0.907-1.901-2.02C60.465,43.878,61.317,42.972,62.366,42.971z"/>
	<path fill="#D90000" d="M30.722,30.246c0,0-0.939,0.412-1.703,0.529c-0.763,0.116-1.584,0.997-1.584,0.997l-0.938-2.935
		c0,0,1.35-0.94,1.761-1.76c0.411-0.823,0.938-1.938,0.938-1.938l1.646-0.529C30.84,24.61,29.725,27.839,30.722,30.246z"/>
</g>
</svg>
