<?xml version="1.0" encoding="utf-8"?>
<!-- Generator: Adobe Illustrator 12.0.0, SVG Export Plug-In . SVG Version: 6.00 Build 51448)  -->
<!DOCTYPE svg PUBLIC "-//W3C//DTD SVG 1.1//EN" "http://www.w3.org/Graphics/SVG/1.1/DTD/svg11.dtd" [
	<!ENTITY ns_flows "http://ns.adobe.com/Flows/1.0/">
	<!ENTITY ns_extend "http://ns.adobe.com/Extensibility/1.0/">
	<!ENTITY ns_ai "http://ns.adobe.com/AdobeIllustrator/10.0/">
	<!ENTITY ns_graphs "http://ns.adobe.com/Graphs/1.0/">
	<!ENTITY ns_vars "http://ns.adobe.com/Variables/1.0/">
	<!ENTITY ns_imrep "http://ns.adobe.com/ImageReplacement/1.0/">
	<!ENTITY ns_sfw "http://ns.adobe.com/SaveForWeb/1.0/">
	<!ENTITY ns_custom "http://ns.adobe.com/GenericCustomNamespace/1.0/">
	<!ENTITY ns_adobe_xpath "http://ns.adobe.com/XPath/1.0/">
	<!ENTITY ns_svg "http://www.w3.org/2000/svg">
	<!ENTITY ns_xlink "http://www.w3.org/1999/xlink">
]>
<svg  version="1.1"
	 xmlns:x="&ns_extend;" xmlns:i="&ns_ai;" xmlns:graph="&ns_graphs;" i:viewOrigin="-0.3193 135.7061" i:rulerOrigin="0 0" i:pageBounds="0 136 85 0"
	 xmlns="&ns_svg;" xmlns:xlink="&ns_xlink;" xmlns:a="http://ns.adobe.com/AdobeSVGViewerExtensions/3.0/"
	 width="85.678" height="136.025" viewBox="0 0 85.678 136.025" overflow="visible" enable-background="new 0 0 85.678 136.025"
	 xml:space="preserve">
<metadata>
	<variableSets  xmlns="http://ns.adobe.com/Variables/1.0/">
		<variableSet  varSetName="binding1" locked="none">
			<variables></variables>
			<v:sampleDataSets  xmlns:v="http://ns.adobe.com/Variables/1.0/" xmlns="http://ns.adobe.com/GenericCustomNamespace/1.0/">
				</v:sampleDataSets>
		</variableSet>
	</variableSets>
</metadata>
<g id="图层_1" i:knockout="Off" i:layer="yes" i:dimmedPercent="50" i:rgbTrio="#4F008000FFFF">
	<g i:knockout="Off">
		<path fill="#333333" d="M2.274,99.465v24.962c0,5.149,3.353,9.325,7.481,9.325h68.118c4.133,0,7.484-4.176,7.484-9.325h-0.002
			V9.216c0-4.344-3.352-7.869-7.482-7.869H9.756c-4.131,0-7.481,3.525-7.481,7.869H2.272v90.228
			C2.272,99.45,2.274,99.458,2.274,99.465z"/>
		
			<linearGradient id="XMLID_3_" gradientUnits="userSpaceOnUse" x1="-22.9907" y1="22.7183" x2="-22.9907" y2="148.2847" gradientTransform="matrix(1 0 0 -1 64.8535 158.4238)">
			<stop  offset="0.0899" style="stop-color:#2089B9"/>
			<stop  offset="0.0985" style="stop-color:#4FA3C2"/>
			<stop  offset="0.1071" style="stop-color:#77B9CA"/>
			<stop  offset="0.1138" style="stop-color:#8FC7CF"/>
			<stop  offset="0.118" style="stop-color:#98CCD1"/>
			<stop  offset="0.1341" style="stop-color:#9ECFD3"/>
			<stop  offset="0.156" style="stop-color:#AFD6D9"/>
			<stop  offset="0.1809" style="stop-color:#CBE1E3"/>
			<stop  offset="0.1966" style="stop-color:#E1EAEB"/>
			<a:midPointStop  offset="0.0899" style="stop-color:#2089B9"/>
			<a:midPointStop  offset="0.5" style="stop-color:#2089B9"/>
			<a:midPointStop  offset="0.0985" style="stop-color:#4FA3C2"/>
			<a:midPointStop  offset="0.5" style="stop-color:#4FA3C2"/>
			<a:midPointStop  offset="0.1071" style="stop-color:#77B9CA"/>
			<a:midPointStop  offset="0.5" style="stop-color:#77B9CA"/>
			<a:midPointStop  offset="0.1138" style="stop-color:#8FC7CF"/>
			<a:midPointStop  offset="0.5" style="stop-color:#8FC7CF"/>
			<a:midPointStop  offset="0.118" style="stop-color:#98CCD1"/>
			<a:midPointStop  offset="0.5" style="stop-color:#98CCD1"/>
			<a:midPointStop  offset="0.1341" style="stop-color:#9ECFD3"/>
			<a:midPointStop  offset="0.5" style="stop-color:#9ECFD3"/>
			<a:midPointStop  offset="0.156" style="stop-color:#AFD6D9"/>
			<a:midPointStop  offset="0.5" style="stop-color:#AFD6D9"/>
			<a:midPointStop  offset="0.1809" style="stop-color:#CBE1E3"/>
			<a:midPointStop  offset="0.5" style="stop-color:#CBE1E3"/>
			<a:midPointStop  offset="0.1966" style="stop-color:#E1EAEB"/>
		</linearGradient>
		<path fill="url(#XMLID_3_)" d="M83.405,126.381c0,5.15-3.352,9.325-7.48,9.325H7.804c-4.131,0-7.482-4.177-7.482-9.325V19.465
			c0-5.148,3.354-9.326,7.482-9.326h68.117c4.133,0,7.482,4.176,7.482,9.326v106.916H83.405z"/>
		<path fill="none" stroke="#333333" stroke-width="0.977" d="M83.405,126.381c0,5.15-3.352,9.325-7.48,9.325H7.804
			c-4.131,0-7.482-4.177-7.482-9.325V19.465c0-5.148,3.354-9.326,7.482-9.326h68.117c4.133,0,7.482,4.176,7.482,9.326v106.916
			H83.405z"/>
		<path fill="#FFFFFF" d="M0.32,11.17c0-4.344,3.354-7.869,7.482-7.869h68.118c4.133,0,7.482,3.523,7.482,7.869v90.229
			c0,4.346-3.352,7.869-7.482,7.869H7.802c-4.131,0-7.482-3.523-7.482-7.87L0.32,11.17L0.32,11.17z"/>
		
			<linearGradient id="XMLID_4_" gradientUnits="userSpaceOnUse" x1="3.7021" y1="54.9395" x2="85.8467" y2="54.9395" gradientTransform="matrix(-1 0 0 1 86.6367 1.3447)">
			<stop  offset="0" style="stop-color:#A2D8E0"/>
			<stop  offset="0.0899" style="stop-color:#1878AD"/>
			<stop  offset="0.2135" style="stop-color:#194D91"/>
			<stop  offset="0.6404" style="stop-color:#2B90BD"/>
			<stop  offset="0.9438" style="stop-color:#82CBDE"/>
			<stop  offset="1" style="stop-color:#1A478D"/>
			<a:midPointStop  offset="0" style="stop-color:#A2D8E0"/>
			<a:midPointStop  offset="0.5" style="stop-color:#A2D8E0"/>
			<a:midPointStop  offset="0.0899" style="stop-color:#1878AD"/>
			<a:midPointStop  offset="0.5" style="stop-color:#1878AD"/>
			<a:midPointStop  offset="0.2135" style="stop-color:#194D91"/>
			<a:midPointStop  offset="0.5" style="stop-color:#194D91"/>
			<a:midPointStop  offset="0.6404" style="stop-color:#2B90BD"/>
			<a:midPointStop  offset="0.5" style="stop-color:#2B90BD"/>
			<a:midPointStop  offset="0.9438" style="stop-color:#82CBDE"/>
			<a:midPointStop  offset="0.5" style="stop-color:#82CBDE"/>
			<a:midPointStop  offset="1" style="stop-color:#1A478D"/>
		</linearGradient>
		<path i:isolated="yes" i:knockout="Off" opacity="0.1" fill="url(#XMLID_4_)" enable-background="new    " d="M0.79,11.17
			c0-4.344,3.313-7.869,7.397-7.869h67.347c4.086,0,7.4,3.523,7.4,7.869v90.229c0,4.346-3.314,7.869-7.4,7.869H8.188
			c-4.084,0-7.397-3.523-7.397-7.87V11.17L0.79,11.17z"/>
		<path fill="none" stroke="#4D4D4D" stroke-width="0.977" d="M0.32,101.419v24.962c0,5.148,3.353,9.325,7.482,9.325h68.12
			c4.131,0,7.48-4.175,7.48-9.325V11.171c0-4.346-3.352-7.869-7.482-7.869H7.803c-4.13,0-7.482,3.525-7.482,7.869l-0.001,90.228
			C0.319,101.404,0.32,101.411,0.32,101.419z"/>
	</g>
	<path fill="#D90000" d="M68.038,72.305h-7.445c-1.146,0-2.34,0.524-3.58,1.574c-0.668,0.572-1.192,0.859-1.574,0.859
		c-0.478-0.097-0.764-0.383-0.858-0.859c0-0.191,0.096-0.476,0.285-0.859c0.383-0.952,0.67-1.957,0.858-3.006
		c0.191-1.051,0.812-1.576,1.861-1.576h15.178c1.052,0,1.576,0.382,1.576,1.146c0,1.718-2.102,4.678-6.301,8.877
		c-4.297,3.819-6.777,7.446-7.445,10.883c0.189,2.673,1.574,4.105,4.152,4.295c2.768-0.381,4.295-1.67,4.582-3.863
		c0-0.479-0.191-0.955-0.573-1.434c-0.286-0.478-0.431-0.907-0.431-1.289c0.097-0.955,0.908-1.479,2.436-1.575
		c1.812,0.096,2.769,1.146,2.863,3.149c-0.572,4.391-3.818,6.778-9.736,7.16c-5.537-0.191-8.496-2.482-8.878-6.873
		c0.479-3.818,2.77-7.207,6.873-10.166C64.935,76.075,66.987,73.927,68.038,72.305L68.038,72.305z"/>
	<path fill="#1D8F38" d="M45.399,95.509c0-0.781-1.921-1.037-3.3-2.76c-5.76-7.2-6.54-17.16-4.8-24.36
		c1.74-7.2,5.46-13.439,6.181-16.74c0.721-3.3,1.561-7.38,1.561-7.38s0.092,8.295,3.813,11.547
		c5.331,4.66,10.804,3.444,11.245,3.033c0.841-0.779,0.182-1.08,0.182-1.08s-5.466,0.101-9.488-3.892
		c-2.184-2.168-3.529-9.376-3.592-9.608c-0.182-0.66-1.021-1.02-1.021-1.02s-0.359-0.78,0-1.5c0.36-0.72,0.301-1.92,0.301-1.92
		l0.479,0.72c0,0,1.593,7.402,3.468,10.209c2.717,4.065,5.922,4.685,7.095,4.791c1.979,0.179,1.619-1.26,1.619-1.26
		s-4.093-1.217-6.833-5.002c-2.464-3.405-3.605-9.391-3.605-9.818c0-0.9-1.5-1.26-1.5-1.26c0.479-7.62-1.74-23.341-1.74-23.341
		l-2.039-2.279c0,0,2.008,10.557,1.816,18.959c-0.193,8.475-2.592,14.808-3.736,18.121c-2.28,6.6-10.802,21.84-8.28,30.96
		c3.855,13.952,9.972,16.021,11.34,16.021C45.04,96.649,45.399,96.29,45.399,95.509z"/>
	<path fill="#1D8F38" d="M41.411,47.679c5.886-16.881,1.648-34.551,1.648-34.551l-1.439,0.9c0,0,4.398,17.473-3.181,32.351
		c-5.476,10.748-16.633,10.133-17.699,10.04c-2.069-0.18-1.62,0.54-1.62,0.54s5.363,2.622,10.096,0.669
		c5.772-2.382,10.063-8.859,10.063-8.859s-1.509,3.332-3.317,5.227c-2.925,3.064-6.778,5.277-7.392,5.304
		c-1.979,0.089-2.069,0.9-2.069,0.9S36.016,63.148,41.411,47.679z"/>
	<path fill="#1D8F38" d="M71.862,49.761c-4.949,2.34-10.183,0.471-12.512-0.72c-7.738-3.96-9.63-23.671-9.63-23.671
		s0.822,1.451,1.935,2.662c1.379,1.502,3.105,2.828,3.105,2.828l1.438-1.801c0,0-3.354-2.459-5.078-6.184
		c-2.146-4.634-2.752-10.736-2.752-10.736l-6.118-4.68c0,0-1.373,2.664-2.31,4.338c-1.192,2.139-2.731,4.213-2.731,4.213
		l2.431,0.629c0,0,1.026-1.84,2.064-3.703c0.561-1.008,1.445-2.596,1.445-2.596l2.879,3.51c0,0,1.965,20.383,3.149,24.84
		c3.42,12.87,10.261,15.301,14.222,15.12c3.959-0.18,8.729-1.35,9.898-2.97C73.391,49.67,71.86,49.76,71.862,49.761z"/>
	<path fill="#1D8F38" d="M11.737,42.108c0,0,4.32,10.981,12.691,10.71c2.186-0.07,10.315-2.833,14.381-13.396
		C39.86,36.689,40.68,28.31,40.68,28.31l-2.861,2.002l-0.821-1.805l3.729-2.738l0.172-9.49l0.812-0.721
		c0,0,3.33,24.931-7.381,35.551c-2.802,2.778-14.851,10.08-21.959-3.96C10.843,44.132,11.737,42.108,11.737,42.108z"/>
	<path fill="#D90000" d="M54.481,39.875c1.488,0,1.958-1.338,2.104-2.066c0.062-0.311,0.437-0.656,0.782-0.886
		c1.34,0.434,3.484,0.625,4.94,0.197c0.978-0.287,1.656-1.288,1.865-2.743c0.179-1.244-0.008-2.953-1.123-3.67
		c-0.608-0.39-1.245-0.523-1.812-0.578c0.078-0.412,0.149-0.877,0.231-1.447l0.296-1.748c0.348-1.385-0.236-2.893-0.73-3.59
		c0,0-0.354-1.608-1.021-1.973c-0.668-0.364-1.37,0.265-1.604,1.154c-0.119,0.447-0.155,1.164,0.351,2.025l0.604,0.916
		c0.373,0.528,0.373,0.528,0.271,0.934c-0.001,0-0.34,1.971-0.34,1.971c-0.058,0.391-0.136,0.939-0.218,1.375
		c-1.01-0.269-2.234-0.343-2.526-0.357l-0.597-0.521l-1.359,1.861c0,0,0.729,0.666,1.396,1.906c0.071,0.15,0.025,1.045,0,1.365
		c-0.028,0.326-0.062,0.766-0.008,1.207c-0.595,0.426-1.718,0.845-1.92,1.866c-0.055,0.267-0.787,1.262-0.664,1.92
		C53.512,39.595,54.483,39.875,54.481,39.875z M58.911,32.008c0.478,0.238,1.006,0.255,1.518,0.273
		c0.519,0.015,1.056,0.033,1.437,0.279c0.053,0.068,0.172,0.441,0.172,0.98c0,0.115-0.006,0.24-0.02,0.369
		c-0.066,0.68-0.285,1.055-0.376,1.121c-0.888,0.256-2.507,0.117-3.491-0.182c0-0.016-0.004-0.021-0.004-0.039
		c0-0.186,0.021-0.437,0.036-0.625c0.023-0.27,0.048-0.553,0.048-0.84c0-0.471-0.064-0.95-0.304-1.393
		c-0.041-0.074-0.043-0.141-0.073-0.215C58.288,31.807,58.692,31.896,58.911,32.008z"/>
	<path fill="#D90000" d="M29.101,35.528c0,0,1.846,0.467,2.313,0.431c0.268,2.8,1.509,4.465,1.935,4.951
		c0.426,0.486,1.127,0.145,1.686-0.287c0.646-0.501,0.735-1.59,0.735-1.59c-1.1-2.277-1.583-1.818-2.453-3.423
		c0.887-0.549,1.536-1.307,1.78-2.137c0.201-0.685,1.361-1.945,2.121-2.621l0.845-0.754l-1.142-1.736
		c-0.146-0.152-1.082-0.606-2.047-1.131c-0.467-0.254-1.058-0.55-1.708-0.775c-0.042-0.547-0.071-1.086-0.071-1.561
		c0-0.726,0.234-1.469,0.331-1.699c2.295-1.656,2.033-2.707,1.181-3.256c-0.851-0.547-2.041-0.28-2.855,1.82
		c-0.128,0.328-1.054,0.855-0.824,4.361c-1.754,0.157-4.816,1.375-5.438,4.1C24.694,33.699,29.101,35.528,29.101,35.528z
		 M27.623,30.755c0.459-1.838,3.021-2.451,3.669-2.451c0.954,0,2.139,0.646,2.527,0.859c0.286,0.154,0.703,0.506,1.098,0.869
		c-0.719,0.742-1.637,1.818-1.932,2.82c-0.082,0.279-0.42,0.697-0.988,1c-0.51,0.273-1.063,0.367-1.443,0.248
		C29.621,33.805,27.195,32.465,27.623,30.755z"/>
</g>
</svg>
