<?xml version="1.0" encoding="utf-8"?>
<!-- Generator: Adobe Illustrator 12.0.0, SVG Export Plug-In . SVG Version: 6.00 Build 51448)  -->
<!DOCTYPE svg PUBLIC "-//W3C//DTD SVG 1.1//EN" "http://www.w3.org/Graphics/SVG/1.1/DTD/svg11.dtd" [
	<!ENTITY ns_flows "http://ns.adobe.com/Flows/1.0/">
	<!ENTITY ns_extend "http://ns.adobe.com/Extensibility/1.0/">
	<!ENTITY ns_ai "http://ns.adobe.com/AdobeIllustrator/10.0/">
	<!ENTITY ns_graphs "http://ns.adobe.com/Graphs/1.0/">
	<!ENTITY ns_vars "http://ns.adobe.com/Variables/1.0/">
	<!ENTITY ns_imrep "http://ns.adobe.com/ImageReplacement/1.0/">
	<!ENTITY ns_sfw "http://ns.adobe.com/SaveForWeb/1.0/">
	<!ENTITY ns_custom "http://ns.adobe.com/GenericCustomNamespace/1.0/">
	<!ENTITY ns_adobe_xpath "http://ns.adobe.com/XPath/1.0/">
	<!ENTITY ns_svg "http://www.w3.org/2000/svg">
	<!ENTITY ns_xlink "http://www.w3.org/1999/xlink">
]>
<svg  version="1.1"
	 xmlns:x="&ns_extend;" xmlns:i="&ns_ai;" xmlns:graph="&ns_graphs;" i:viewOrigin="-0.3193 135.7061" i:rulerOrigin="0 0" i:pageBounds="0 136 85 0"
	 xmlns="&ns_svg;" xmlns:xlink="&ns_xlink;" xmlns:a="http://ns.adobe.com/AdobeSVGViewerExtensions/3.0/"
	 width="85.678" height="136.025" viewBox="0 0 85.678 136.025" overflow="visible" enable-background="new 0 0 85.678 136.025"
	 xml:space="preserve">
<metadata>
	<variableSets  xmlns="http://ns.adobe.com/Variables/1.0/">
		<variableSet  varSetName="binding1" locked="none">
			<variables></variables>
			<v:sampleDataSets  xmlns:v="http://ns.adobe.com/Variables/1.0/" xmlns="http://ns.adobe.com/GenericCustomNamespace/1.0/">
				</v:sampleDataSets>
		</variableSet>
	</variableSets>
</metadata>
<g id="图层_1" i:knockout="Off" i:layer="yes" i:dimmedPercent="50" i:rgbTrio="#4F008000FFFF">
	<g i:knockout="Off">
		<path fill="#333333" d="M2.274,99.465v24.962c0,5.149,3.353,9.325,7.481,9.325h68.118c4.133,0,7.484-4.176,7.484-9.325h-0.002
			V9.216c0-4.344-3.352-7.869-7.482-7.869H9.756c-4.131,0-7.481,3.525-7.481,7.869H2.272v90.228
			C2.272,99.45,2.274,99.458,2.274,99.465z"/>
		
			<linearGradient id="XMLID_3_" gradientUnits="userSpaceOnUse" x1="-22.9907" y1="22.7183" x2="-22.9907" y2="148.2847" gradientTransform="matrix(1 0 0 -1 64.8535 158.4238)">
			<stop  offset="0.0899" style="stop-color:#2089B9"/>
			<stop  offset="0.0985" style="stop-color:#4FA3C2"/>
			<stop  offset="0.1071" style="stop-color:#77B9CA"/>
			<stop  offset="0.1138" style="stop-color:#8FC7CF"/>
			<stop  offset="0.118" style="stop-color:#98CCD1"/>
			<stop  offset="0.1341" style="stop-color:#9ECFD3"/>
			<stop  offset="0.156" style="stop-color:#AFD6D9"/>
			<stop  offset="0.1809" style="stop-color:#CBE1E3"/>
			<stop  offset="0.1966" style="stop-color:#E1EAEB"/>
			<a:midPointStop  offset="0.0899" style="stop-color:#2089B9"/>
			<a:midPointStop  offset="0.5" style="stop-color:#2089B9"/>
			<a:midPointStop  offset="0.0985" style="stop-color:#4FA3C2"/>
			<a:midPointStop  offset="0.5" style="stop-color:#4FA3C2"/>
			<a:midPointStop  offset="0.1071" style="stop-color:#77B9CA"/>
			<a:midPointStop  offset="0.5" style="stop-color:#77B9CA"/>
			<a:midPointStop  offset="0.1138" style="stop-color:#8FC7CF"/>
			<a:midPointStop  offset="0.5" style="stop-color:#8FC7CF"/>
			<a:midPointStop  offset="0.118" style="stop-color:#98CCD1"/>
			<a:midPointStop  offset="0.5" style="stop-color:#98CCD1"/>
			<a:midPointStop  offset="0.1341" style="stop-color:#9ECFD3"/>
			<a:midPointStop  offset="0.5" style="stop-color:#9ECFD3"/>
			<a:midPointStop  offset="0.156" style="stop-color:#AFD6D9"/>
			<a:midPointStop  offset="0.5" style="stop-color:#AFD6D9"/>
			<a:midPointStop  offset="0.1809" style="stop-color:#CBE1E3"/>
			<a:midPointStop  offset="0.5" style="stop-color:#CBE1E3"/>
			<a:midPointStop  offset="0.1966" style="stop-color:#E1EAEB"/>
		</linearGradient>
		<path fill="url(#XMLID_3_)" d="M83.405,126.381c0,5.15-3.352,9.325-7.48,9.325H7.804c-4.131,0-7.482-4.177-7.482-9.325V19.465
			c0-5.148,3.354-9.326,7.482-9.326h68.117c4.133,0,7.482,4.176,7.482,9.326v106.916H83.405z"/>
		<path fill="none" stroke="#333333" stroke-width="0.977" d="M83.405,126.381c0,5.15-3.352,9.325-7.48,9.325H7.804
			c-4.131,0-7.482-4.177-7.482-9.325V19.465c0-5.148,3.354-9.326,7.482-9.326h68.117c4.133,0,7.482,4.176,7.482,9.326v106.916
			H83.405z"/>
		<path fill="#FFFFFF" d="M0.32,11.17c0-4.344,3.354-7.869,7.482-7.869h68.118c4.133,0,7.482,3.523,7.482,7.869v90.229
			c0,4.346-3.352,7.869-7.482,7.869H7.802c-4.131,0-7.482-3.523-7.482-7.87L0.32,11.17L0.32,11.17z"/>
		
			<linearGradient id="XMLID_4_" gradientUnits="userSpaceOnUse" x1="3.7021" y1="54.9395" x2="85.8467" y2="54.9395" gradientTransform="matrix(-1 0 0 1 86.6367 1.3447)">
			<stop  offset="0" style="stop-color:#A2D8E0"/>
			<stop  offset="0.0899" style="stop-color:#1878AD"/>
			<stop  offset="0.2135" style="stop-color:#194D91"/>
			<stop  offset="0.6404" style="stop-color:#2B90BD"/>
			<stop  offset="0.9438" style="stop-color:#82CBDE"/>
			<stop  offset="1" style="stop-color:#1A478D"/>
			<a:midPointStop  offset="0" style="stop-color:#A2D8E0"/>
			<a:midPointStop  offset="0.5" style="stop-color:#A2D8E0"/>
			<a:midPointStop  offset="0.0899" style="stop-color:#1878AD"/>
			<a:midPointStop  offset="0.5" style="stop-color:#1878AD"/>
			<a:midPointStop  offset="0.2135" style="stop-color:#194D91"/>
			<a:midPointStop  offset="0.5" style="stop-color:#194D91"/>
			<a:midPointStop  offset="0.6404" style="stop-color:#2B90BD"/>
			<a:midPointStop  offset="0.5" style="stop-color:#2B90BD"/>
			<a:midPointStop  offset="0.9438" style="stop-color:#82CBDE"/>
			<a:midPointStop  offset="0.5" style="stop-color:#82CBDE"/>
			<a:midPointStop  offset="1" style="stop-color:#1A478D"/>
		</linearGradient>
		<path i:isolated="yes" i:knockout="Off" opacity="0.1" fill="url(#XMLID_4_)" enable-background="new    " d="M0.79,11.17
			c0-4.344,3.313-7.869,7.397-7.869h67.347c4.086,0,7.4,3.523,7.4,7.869v90.229c0,4.346-3.314,7.869-7.4,7.869H8.188
			c-4.084,0-7.397-3.523-7.397-7.87V11.17L0.79,11.17z"/>
		<path fill="none" stroke="#4D4D4D" stroke-width="0.977" d="M0.32,101.419v24.962c0,5.148,3.353,9.325,7.482,9.325h68.12
			c4.131,0,7.48-4.175,7.48-9.325V11.171c0-4.346-3.352-7.869-7.482-7.869H7.803c-4.13,0-7.482,3.525-7.482,7.869l-0.001,90.228
			C0.319,101.404,0.32,101.411,0.32,101.419z"/>
	</g>
	<path fill="#24258D" d="M41.058,96.804c0,0-4.801-1.92-5.641-9.959c-0.84-8.041,1.801-31.32,1.801-31.32s-1.08,0-0.24-2.4
		c0.531-1.52,0.84-2.28,0.84-4.68s0.602-7.32,0.602-7.32s-1.32-0.6-0.24-3s0.961-4.56,0.961-4.56s-0.96-0.96-0.479-2.28
		c0.48-1.32,0.721-3.96,0.721-3.96s-1.202-0.6-0.721-2.76c0.48-2.16,0.6-8.04,0.6-8.04s-1.199-1.8-1.199-3.601
		c0-1.8,1.92-3.72,3.602-3c1.679,0.721,2.879,1.441,2.279,3.841c-0.602,2.4-1.681,7.32-1.681,8.76s1.319,1.44,1.319,2.52
		s-1.438,1.801-1.438,3.12c0,1.321-0.601,7.441-0.601,8.521s1.441,1.8,0.841,2.88c-0.603,1.08-1.681,1.559-1.681,2.16
		c0,0.6-0.479,9-0.479,9.84s1.199,1.201,0.84,2.64c-0.358,1.44-1.08,2.16-1.08,3.24s-2.639,22.319-1.438,30
		c0.81,5.179,1.8,7.08,2.761,7.92C42.264,96.206,41.904,96.806,41.058,96.804z"/>
	<path fill="#1D8F38" d="M65.665,52.886c0,0-0.241,2.399-1.68,3.12c-1.441,0.719-2.762,1.199-2.762,2.039s1.319,3.961,4.08,3
		c2.762-0.958,2.641-2.639,2.16-3.479c-0.479-0.841-1.201-4.92-1.201-4.92L65.665,52.886z"/>
	<path fill="#1D8F38" d="M59.544,51.806c-0.239,2.04-3.961,3.84-7.439,4.56c-3.479,0.721-5.039,0.121-3.959-1.439
		c1.079-1.561,3.479-3.841,6.118-4.561C56.905,49.646,59.784,49.767,59.544,51.806z"/>
	<path fill="#1D8F38" d="M73.225,45.807c-1.079,1.199-5.881,3.96-7.681,4.199c-1.801,0.24-3-1.2-2.04-2.64
		c0.961-1.44,7.321-3.12,8.642-3.12C73.465,44.246,74.305,44.606,73.225,45.807z"/>
	<path fill="#1D8F38" d="M59.905,48.687c0,0-0.36,0.84-3.722-0.36c-3.358-1.2-9.84-7.92-9.959-8.76
		c-0.12-0.84,2.761,0.48,4.319,0.96c1.56,0.479,7.319,4.2,7.319,4.2S59.424,48.687,59.905,48.687z"/>
	<path fill="#1D8F38" d="M63.146,46.045c-0.36,1.08-0.963,2.16-2.521,2.16s-2.159-3.839-2.159-5.399c0-1.56,1.438-14.64,3.118-15.48
		c1.681-0.84,2.521,6.96,2.521,9.96S63.504,44.966,63.146,46.045z"/>
	<path fill="#1D8F38" d="M57.864,42.806c0,0-6.479-6.24-6.959-9c0,0-2.881-0.721-1.92-3.96c0,0-1.201-4.922-1.32-5.521
		c-0.12-0.599-2.401-1.799-1.68-4.439c0.719-2.641-0.361-4.441-0.361-6.841s1.801-6,3.842-5.76c2.039,0.241,1.439,4.92,1.318,7.68
		c-0.119,2.761-0.719,4.08-0.719,4.08s1.777,0.522,1.438,1.92c-0.539,2.221,0.12,6.96,0.12,6.96s0.72,0.36,1.8,1.32
		s0.239,2.641,0.239,3.601c0,0.96,4.427,7.56,4.427,7.56S58.823,42.762,57.864,42.806z"/>
	<path fill="#1D8F38" d="M66.085,21.086c-0.779,0.96-6,1.801-10.08-1.26c-4.08-3.06-5.557-8.869-4.381-11.46
		c0.9-1.979,4.381-0.36,4.861,1.5c0.479,1.86-0.748,4.705,0.777,6.66c2.405,3.079,5.28,3.6,6.36,3.6S66.864,20.126,66.085,21.086z"
		/>
	<path fill="#1D8F38" d="M22.944,66.087c0,0-2.158,1.199-1.921,3.359c0.24,2.16,2.881,3.12,4.32,2.04
		C26.784,70.406,28.465,65.966,22.944,66.087z"/>
	<path fill="#1D8F38" d="M20.305,62.007c-0.721,1.68-4.44,2.159-6.961,2.76c-2.52,0.599-3.72,0-2.16-1.561
		c1.561-1.56,5.041-4.44,7.201-4.56C20.544,58.526,21.023,60.326,20.305,62.007z"/>
	<path fill="#1D8F38" d="M18.862,57.206c-0.118,1.08-2.64,1.68-4.078,0.96c-1.44-0.72-4.92-5.88-4.44-7.2
		C10.823,49.646,18.983,56.126,18.862,57.206z"/>
	<path fill="#1D8F38" d="M20.424,57.326c0,0-2.279-0.601-2.4-3.84c-0.119-3.241,1.08-16.201,2.281-17.521
		c1.199-1.319,2.64,1.921,2.879,5.641c0.24,3.72,0.961,6.6,0.24,9c0,0-1.191,2.811-1.984,4.584
		C20.819,56.578,20.582,56.958,20.424,57.326z"/>
	<path fill="#1D8F38" d="M21.744,58.406c-1.68-0.146-1.08-1.441,0.96-4.681c2.04-3.239,4.8-6.839,5.88-6.959
		c1.08-0.12,1.92,1.081,1.2,2.52C28.333,52.188,25.195,58.704,21.744,58.406z"/>
	<path fill="#1D8F38" d="M34.586,55.885c0,0-3.6,3.481-8.16,4.801c-4.562,1.321-4.562,0.241-4.562-0.48
		c0-0.72,2.64-2.279,6.239-3.96C31.704,54.566,34.823,52.767,34.586,55.885z"/>
	<path fill="#1D8F38" d="M25.467,49.047c0,0-1.441,1.08-1.441-0.6c0-1.68,4.921-9,4.803-9.96c-0.12-0.96-0.962-3.12,0.118-4.08
		c1.079-0.96,2.159-5.64,2.159-6.84c0-1.2-0.241-3.12,0.48-4.08c0.721-0.96,0-1.8,0-3.24s-0.361-5.64,0.358-7.8
		c0.722-2.16,5.399-3.24,5.159-0.24c-0.239,3-1.56,11.04-1.92,12.36c-0.359,1.32,0.961,1.56,0,3c-0.959,1.439-1.799,4.8-2.039,6.12
		c-0.24,1.319,0.359,2.519-0.84,4.08C31.104,39.326,27.744,46.887,25.467,49.047z"/>
	<path fill="#1D8F38" d="M29.901,11.966c0,0-3,0-3.12,2.28c-0.119,2.28-1.559,7.44-3.479,9.96c-1.92,2.52-4.44,1.8-5.16,3.12
		c-0.721,1.321,1.92,1.8,4.92,0.6c3-1.199,5.521-3.96,6.722-7.92C30.985,16.046,31.944,11.966,29.901,11.966z"/>
	<path fill="#D90000" d="M60.911,83.188c-4.295-0.952-6.539-3.243-6.729-6.871c0.19-5.157,3.678-7.831,10.453-8.021
		c6.016,0.287,9.116,2.098,9.309,5.441c0,1.524-0.812,2.291-2.436,2.291c-1.526,0.096-2.243-0.525-2.146-1.861
		c-0.287-2.673-1.72-4.01-4.297-4.01c-3.437,0.096-5.201,2.1-5.298,6.014c-0.095,3.818,2.339,5.68,7.304,5.585
		c1.146,0,1.719,0.381,1.719,1.146c0.19,0.764-0.524,1.146-2.147,1.146c-3.915,0-5.822,1.766-5.729,5.298
		c0.097,2.863,1.434,4.342,4.011,4.439c2.004-0.193,3.055-1.003,3.149-2.438c0-0.286-0.047-0.62-0.145-1.003
		c-0.095-0.381-0.144-0.716-0.144-1.002c0.189-0.858,0.955-1.336,2.291-1.432c1.719,0.096,2.578,0.856,2.578,2.291
		c-0.479,3.533-3.438,5.44-8.879,5.728c-5.441-0.381-8.306-2.625-8.592-6.729c0.098-2.96,2.005-4.917,5.729-5.871L60.911,83.188
		L60.911,83.188z"/>
</g>
</svg>
