<?xml version="1.0" encoding="utf-8"?>
<!-- Generator: Adobe Illustrator 12.0.0, SVG Export Plug-In . SVG Version: 6.00 Build 51448)  -->
<!DOCTYPE svg PUBLIC "-//W3C//DTD SVG 1.1//EN" "http://www.w3.org/Graphics/SVG/1.1/DTD/svg11.dtd" [
	<!ENTITY ns_flows "http://ns.adobe.com/Flows/1.0/">
	<!ENTITY ns_extend "http://ns.adobe.com/Extensibility/1.0/">
	<!ENTITY ns_ai "http://ns.adobe.com/AdobeIllustrator/10.0/">
	<!ENTITY ns_graphs "http://ns.adobe.com/Graphs/1.0/">
	<!ENTITY ns_vars "http://ns.adobe.com/Variables/1.0/">
	<!ENTITY ns_imrep "http://ns.adobe.com/ImageReplacement/1.0/">
	<!ENTITY ns_sfw "http://ns.adobe.com/SaveForWeb/1.0/">
	<!ENTITY ns_custom "http://ns.adobe.com/GenericCustomNamespace/1.0/">
	<!ENTITY ns_adobe_xpath "http://ns.adobe.com/XPath/1.0/">
	<!ENTITY ns_svg "http://www.w3.org/2000/svg">
	<!ENTITY ns_xlink "http://www.w3.org/1999/xlink">
]>
<svg  version="1.1"
	 xmlns:x="&ns_extend;" xmlns:i="&ns_ai;" xmlns:graph="&ns_graphs;" i:viewOrigin="-0.3193 135.7061" i:rulerOrigin="0 0" i:pageBounds="0 136 85 0"
	 xmlns="&ns_svg;" xmlns:xlink="&ns_xlink;" xmlns:a="http://ns.adobe.com/AdobeSVGViewerExtensions/3.0/"
	 width="85.678" height="136.025" viewBox="0 0 85.678 136.025" overflow="visible" enable-background="new 0 0 85.678 136.025"
	 xml:space="preserve">
<metadata>
	<variableSets  xmlns="http://ns.adobe.com/Variables/1.0/">
		<variableSet  varSetName="binding1" locked="none">
			<variables></variables>
			<v:sampleDataSets  xmlns:v="http://ns.adobe.com/Variables/1.0/" xmlns="http://ns.adobe.com/GenericCustomNamespace/1.0/">
				</v:sampleDataSets>
		</variableSet>
	</variableSets>
</metadata>
<g id="图层_1" i:knockout="Off" i:layer="yes" i:dimmedPercent="50" i:rgbTrio="#4F008000FFFF">
	<g i:knockout="Off">
		<path fill="#333333" d="M2.274,99.465v24.962c0,5.149,3.353,9.325,7.481,9.325h68.118c4.133,0,7.484-4.176,7.484-9.325h-0.002
			V9.216c0-4.344-3.352-7.869-7.482-7.869H9.756c-4.131,0-7.481,3.525-7.481,7.869H2.272v90.228
			C2.272,99.45,2.274,99.458,2.274,99.465z"/>
		
			<linearGradient id="XMLID_3_" gradientUnits="userSpaceOnUse" x1="-22.9907" y1="22.7183" x2="-22.9907" y2="148.2847" gradientTransform="matrix(1 0 0 -1 64.8535 158.4238)">
			<stop  offset="0.0899" style="stop-color:#2089B9"/>
			<stop  offset="0.0985" style="stop-color:#4FA3C2"/>
			<stop  offset="0.1071" style="stop-color:#77B9CA"/>
			<stop  offset="0.1138" style="stop-color:#8FC7CF"/>
			<stop  offset="0.118" style="stop-color:#98CCD1"/>
			<stop  offset="0.1341" style="stop-color:#9ECFD3"/>
			<stop  offset="0.156" style="stop-color:#AFD6D9"/>
			<stop  offset="0.1809" style="stop-color:#CBE1E3"/>
			<stop  offset="0.1966" style="stop-color:#E1EAEB"/>
			<a:midPointStop  offset="0.0899" style="stop-color:#2089B9"/>
			<a:midPointStop  offset="0.5" style="stop-color:#2089B9"/>
			<a:midPointStop  offset="0.0985" style="stop-color:#4FA3C2"/>
			<a:midPointStop  offset="0.5" style="stop-color:#4FA3C2"/>
			<a:midPointStop  offset="0.1071" style="stop-color:#77B9CA"/>
			<a:midPointStop  offset="0.5" style="stop-color:#77B9CA"/>
			<a:midPointStop  offset="0.1138" style="stop-color:#8FC7CF"/>
			<a:midPointStop  offset="0.5" style="stop-color:#8FC7CF"/>
			<a:midPointStop  offset="0.118" style="stop-color:#98CCD1"/>
			<a:midPointStop  offset="0.5" style="stop-color:#98CCD1"/>
			<a:midPointStop  offset="0.1341" style="stop-color:#9ECFD3"/>
			<a:midPointStop  offset="0.5" style="stop-color:#9ECFD3"/>
			<a:midPointStop  offset="0.156" style="stop-color:#AFD6D9"/>
			<a:midPointStop  offset="0.5" style="stop-color:#AFD6D9"/>
			<a:midPointStop  offset="0.1809" style="stop-color:#CBE1E3"/>
			<a:midPointStop  offset="0.5" style="stop-color:#CBE1E3"/>
			<a:midPointStop  offset="0.1966" style="stop-color:#E1EAEB"/>
		</linearGradient>
		<path fill="url(#XMLID_3_)" d="M83.405,126.381c0,5.15-3.352,9.325-7.48,9.325H7.804c-4.131,0-7.482-4.177-7.482-9.325V19.465
			c0-5.148,3.354-9.326,7.482-9.326h68.117c4.133,0,7.482,4.176,7.482,9.326v106.916H83.405z"/>
		<path fill="none" stroke="#333333" stroke-width="0.977" d="M83.405,126.381c0,5.15-3.352,9.325-7.48,9.325H7.804
			c-4.131,0-7.482-4.177-7.482-9.325V19.465c0-5.148,3.354-9.326,7.482-9.326h68.117c4.133,0,7.482,4.176,7.482,9.326v106.916
			H83.405z"/>
		<path fill="#FFFFFF" d="M0.32,11.17c0-4.344,3.354-7.869,7.482-7.869h68.118c4.133,0,7.482,3.523,7.482,7.869v90.229
			c0,4.346-3.352,7.869-7.482,7.869H7.802c-4.131,0-7.482-3.523-7.482-7.87L0.32,11.17L0.32,11.17z"/>
		
			<linearGradient id="XMLID_4_" gradientUnits="userSpaceOnUse" x1="3.7021" y1="54.9395" x2="85.8467" y2="54.9395" gradientTransform="matrix(-1 0 0 1 86.6367 1.3447)">
			<stop  offset="0" style="stop-color:#A2D8E0"/>
			<stop  offset="0.0899" style="stop-color:#1878AD"/>
			<stop  offset="0.2135" style="stop-color:#194D91"/>
			<stop  offset="0.6404" style="stop-color:#2B90BD"/>
			<stop  offset="0.9438" style="stop-color:#82CBDE"/>
			<stop  offset="1" style="stop-color:#1A478D"/>
			<a:midPointStop  offset="0" style="stop-color:#A2D8E0"/>
			<a:midPointStop  offset="0.5" style="stop-color:#A2D8E0"/>
			<a:midPointStop  offset="0.0899" style="stop-color:#1878AD"/>
			<a:midPointStop  offset="0.5" style="stop-color:#1878AD"/>
			<a:midPointStop  offset="0.2135" style="stop-color:#194D91"/>
			<a:midPointStop  offset="0.5" style="stop-color:#194D91"/>
			<a:midPointStop  offset="0.6404" style="stop-color:#2B90BD"/>
			<a:midPointStop  offset="0.5" style="stop-color:#2B90BD"/>
			<a:midPointStop  offset="0.9438" style="stop-color:#82CBDE"/>
			<a:midPointStop  offset="0.5" style="stop-color:#82CBDE"/>
			<a:midPointStop  offset="1" style="stop-color:#1A478D"/>
		</linearGradient>
		<path i:isolated="yes" i:knockout="Off" opacity="0.1" fill="url(#XMLID_4_)" enable-background="new    " d="M0.79,11.17
			c0-4.344,3.313-7.869,7.397-7.869h67.347c4.086,0,7.4,3.523,7.4,7.869v90.229c0,4.346-3.314,7.869-7.4,7.869H8.188
			c-4.084,0-7.397-3.523-7.397-7.87V11.17L0.79,11.17z"/>
		<path fill="none" stroke="#4D4D4D" stroke-width="0.977" d="M0.32,101.419v24.962c0,5.148,3.353,9.325,7.482,9.325h68.12
			c4.131,0,7.48-4.175,7.48-9.325V11.171c0-4.346-3.352-7.869-7.482-7.869H7.803c-4.13,0-7.482,3.525-7.482,7.869l-0.001,90.228
			C0.319,101.404,0.32,101.411,0.32,101.419z"/>
	</g>
	<path fill="#35A034" d="M37.509,89.74c-0.959,3-2.16,3.479-3.48,2.521c-1.318-0.96,2.283-6,2.643-14.521
		c0.357-8.521-0.723-16.92-1.562-19.08c-0.84-2.16-1.678-6.599-1.318-8.16c0.359-1.56,1.68-2.159,2.398-1.919
		c0.723,0.239,1.92,1.559,1.92,3.12c0,1.56-1.08,5.28-0.119,7.68c0.959,2.4,1.488,8.568,1.488,11.447
		c0,2.881,0.312,10.873-0.289,13.752C38.589,87.461,38.47,86.74,37.509,89.74z"/>
	<path fill="#35A034" d="M36.116,79.615c0,0-2.733,2.951-4.463,3.812c-1.729,0.864-3.096,1.368-2.881,0.071
		c0.215-1.294,2.305-1.655,3.025-3.023c0.719-1.364,2.303-4.968,3.311-4.968C36.115,75.509,36.55,77.021,36.116,79.615z"/>
	<path fill="#35A034" d="M46.485,79.828c-1.513-0.938-3.672-1.945-5.545-4.395c-1.871-2.447-0.358-4.822,1.08-5.472
		c1.44-0.646,2.52,1.943,2.52,3.168c0,1.227-0.358,3.025,1.152,3.603c1.512,0.573,2.52,1.439,2.448,2.088
		S47.997,80.765,46.485,79.828z"/>
	<path fill="#35A034" d="M35.468,63.269c0,0-0.217,2.017-0.072,3.168c0.145,1.152-1.8,3.958-3.814,4.032
		c-2.016,0.072-6.191,0.288-6.191,0.288s3.816-1.438,4.391-2.736C30.356,66.725,32.876,62.836,35.468,63.269z"/>
	<path fill="#35A034" d="M49.511,66.149c0,0-3.6-0.648-5.688-2.232c-2.089-1.584-3.744-1.512-4.609-2.375
		c-0.865-0.865-0.938-3.889-0.938-5.185s1.225-2.808,1.945-2.376c0.719,0.431,1.872,1.656,2.52,2.232
		c0.647,0.576,1.08,3.744,2.231,5.256c1.15,1.511,3.959,3.095,5.111,3.24C51.237,64.853,50.661,66.148,49.511,66.149z"/>
	<path fill="#35A034" d="M33.163,51.245c0,0,0.504,2.592-0.219,4.177c-0.717,1.584-2.59,1.655-5.109,2.448
		c-2.521,0.791-3.891,1.727-5.761,1.151c-1.872-0.575-1.728-1.655-0.647-1.655c1.081,0,2.953,0.36,3.889-1.297
		c0.938-1.657,3.744-3.6,5.473-4.392S33.163,51.245,33.163,51.245z"/>
	<path fill="#35A034" d="M28.479,41.164c0,0-0.289,4.752-1.439,6.912c-1.15,2.16-3.742,2.376-5.615,1.728
		c-1.871-0.648-3.168-0.288-4.607-0.648c-1.439-0.359-2.592-2.088-1.297-2.088c1.297,0,3.168,0.792,4.682,0.792
		c1.514,0,2.447-0.144,2.594-1.296c0.143-1.151,0.504-3.095,1.727-3.527c1.227-0.432,2.307-1.297,2.307-1.944
		C26.829,40.444,28.124,40.517,28.479,41.164z"/>
	<path fill="#35A034" d="M61.151,57.581c0,0-2.281,1.202-4.803-0.239c-2.521-1.441-5.4-2.521-5.521-4.56
		c-0.121-2.041-0.48-2.881-0.6-4.801c-0.121-1.92,1.559-1.92,2.159-1.56c0.601,0.359-0.121,1.92,0.959,2.04s2.761,1.439,3.121,3.359
		c0.359,1.92,0.359,3.121,2.039,3.601C60.188,55.9,62.589,56.5,61.151,57.581z"/>
	<path fill="#35A034" d="M73.507,31.661c0,0-0.359,1.679-5.881,1.439c-5.52-0.24-8.52-3.24-9.238-5.4
		c-0.721-2.159-0.84-6-1.319-7.079c0,0-1.08,0.839-1.08,2.399c0,1.561-1.801,3.96-1.801,3.96l-2.279-0.84c0,0,1.68-5.04,1.32-5.64
		c-0.361-0.601,1.106-3.508,1.946-4.707c0,0-0.983,0.223-1.584,0.942c-0.6,0.721-2.645,2.444-5.043,4.244
		c-2.399,1.8-3.961,2.76-3.961,2.76l-2.039-2.04c0,0,2.039-1.079,3.119-1.92c1.08-0.84-1.68-0.239-3.24,0.721
		c-1.562,0.96-5.279,3.359-6.959,3.359c-1.681,0-4.201,0.36-5.16,1.2c-0.961,0.84-1.68,2.161-4.201,1.561
		c-2.518-0.6-7.92-3.36-10.08-4.2c-2.158-0.84-4.797-2.641-5.398-3.84c-0.602-1.201,0.24-1.561,0.961-1.561
		c0.721,0,4.199,3.12,6,3.96c1.801,0.84,3.241,1.32,4.561,1.08c1.322-0.24,3.84-1.08,5.641-0.84c1.799,0.241,3.238,0.72,4.318,0.72
		c1.08,0,1.201-1.92,3.24-2.04c2.042-0.12,2.521-0.12,2.521-0.12s1.801-0.96,3.119-0.72c1.32,0.24,2.879-1.2,2.879-1.2
		s-2.76,0.84-5.76-0.12s-5.848-3.288-7.287-4.008c-1.439-0.72-2.07-3.912-0.752-4.032c1.32-0.119,2.879,3.481,4.32,3.961
		c1.439,0.479,2.16,0.96,4.08,0.359c1.92-0.599,3-0.84,4.318-0.24c1.321,0.601,2.521,1.561,4.682,1.561
		c2.158,0,3.84-0.719,5.279-2.4c1.438-1.68,1.199-2.04,1.08-2.64c-0.123-0.6-1.801-2.4-1.562-3.36c0.24-0.96,1.438-0.96,2.041-0.24
		c0.602,0.721,0.959,0.6,1.682,0.12c0.719-0.479,2.879-0.479,3.959-0.239c1.08,0.239,2.881,0.239,2.881,0.239
		s-0.961,1.44-1.562,2.52c-0.6,1.08-1.68,3.24-1.68,5.04c0,1.8,0,3.599,0,4.68s0.961,3.96,1.801,4.561
		c0.84,0.599,4.199,2.639,4.318,4.439c0.121,1.8,0.601,2.88,2.041,2.88c1.439,0,4.92,0,4.92,0L73.507,31.661z"/>
	<path fill="#D90000" d="M24.493,36.348c1.01,2.477,3.215,3.424,4.51,3.778c-0.047,1.403,0.34,3.106,1.248,4.186
		c0.693,0.828,1.609,1.222,2.648,1.163c0.359,1.741,1.197,3.586,1.24,3.679l1.818-0.832c-0.248-0.541-0.814-1.947-1.079-3.162
		c0.731,1.73,2.146,4.354,4.028,4.464c0.881,0.052,6.758-0.221,8.301-2.315c1.576,0.244,2.93-0.02,4.027-0.801
		c1.481-1.057,2.053-2.772,2.266-3.76c0.494-0.072,1.013-0.17,1.609-0.318c2.586-0.647,4.551-2.069,5.256-3.804
		c0.363-0.899,0.572-2.338-0.508-4.077c-1.668-2.689-5.058-3.911-6.74-4.369c0.101-0.829,0.095-1.998-0.481-2.993
		c-0.472-0.814-1.248-1.365-2.247-1.596c-2.11-0.487-3.712-0.349-4.573-0.197c-1.104-1.313-2.304-2.022-3.646-2.159
		c-1.555-0.158-3.166,0.475-4.908,1.914c-0.078-0.035-0.154-0.074-0.234-0.098c-0.982-0.307-2.884-0.663-4.596,0.399
		c-1.195,0.742-2.013,2.011-2.445,3.771c-1.247,0.06-2.518,0.562-3.621,1.506C24.519,32.309,23.767,34.567,24.493,36.348z
		 M31.09,39.476c0.062-0.241,0.2-0.405,0.44-0.532c0.632-0.334,1.789-0.297,2.896,0.08c0.238,0.252,0.685,1.167,0.958,1.729
		c0.21,0.431,0.406,0.828,0.597,1.182c-0.6,0.563-1.73,1.428-3.146,1.551c-0.433,0.037-0.755-0.105-1.056-0.459
		C31.021,42.122,30.862,40.32,31.09,39.476z M40.361,32.041c0.369,0.041,2.434,0.825,4.14,1.554
		c0.162,0.127,1.225,0.965,1.678,1.323c0.097,1.05,0.163,2.179,0.163,3.036c0,0.619-0.033,1.094-0.104,1.285
		c-0.229,0.316-1.852,1.31-3.502,2.126c-0.364,0.015-4.175,0.181-4.626,0.202c-0.252-0.314-0.664-1.15-0.928-1.689
		c-0.541-1.114-0.945-1.875-1.418-2.324c-0.028-0.252-0.053-0.589-0.053-0.984c0-0.381,0.025-0.797,0.104-1.18
		c0.129-0.629,0.504-1.198,0.686-1.445C38.044,33.064,39.917,32.112,40.361,32.041z M45.581,46.207
		c0.002-0.012-0.004-0.029-0.004-0.041c-0.489,0.759-4.552,1.58-6.554,1.462c-0.566-0.033-1.674-1.698-2.44-3.591
		c0.276-0.207,0.507-0.404,0.708-0.59c0.172,0.078,0.354,0.132,0.557,0.132l5.409-0.233l0.177-0.09
		c0.135-0.065,0.284-0.141,0.434-0.215c0.828,1.021,1.727,2.406,1.713,3.125c0.006-0.008,0.016-0.016,0.021-0.025
		C45.597,46.147,45.586,46.173,45.581,46.207z M50.067,44.885c-0.662,0.469-1.549,0.598-2.611,0.426
		c-0.311-1.166-1.139-2.396-1.799-3.24c0.652-0.386,1.271-0.799,1.729-1.201c1.648,1.117,2.839,1.711,4.046,1.899
		C51.231,43.449,50.841,44.339,50.067,44.885z M51.632,41.829v-0.004V41.829z M58.161,35.605c0.52,0.833,0.635,1.578,0.354,2.271
		c-0.449,1.11-1.977,2.136-3.889,2.613c-2.586,0.646-3.403,0.615-6.344-1.42c0.129-1.185,0.026-2.893-0.09-4.188l3.985-2.876
		C53.331,32.281,56.712,33.269,58.161,35.605z M49.94,27.54c0.465,0.106,0.771,0.313,0.967,0.648
		c0.446,0.774,0.211,2.063,0.092,2.454l-3.807,2.528l-1.043-0.824c0.565-1.121,1.342-3.163,0.76-5.073
		C47.64,27.224,48.677,27.248,49.94,27.54z M41.968,25.224c0.932,0.094,1.811,0.726,2.686,1.93c0.946,1.303,0.244,3.206-0.261,4.227
		c-1.206-0.497-2.63-1.043-3.518-1.247c-0.371-0.913-1.096-2.499-2.047-3.679C40.004,25.551,41.058,25.131,41.968,25.224z
		 M33.487,27.148c1.074-0.666,2.417-0.354,2.945-0.19c0.663,0.209,1.684,1.844,2.418,3.521c-0.889,0.38-1.977,0.957-2.975,1.519
		l-3.184-2.121c-0.23-0.138-0.469-0.252-0.711-0.347C32.288,28.393,32.786,27.584,33.487,27.148z M27.667,32.245
		c1.014-0.868,2.585-1.503,3.957-0.679c-0.029-0.017,1.737,1.16,2.824,1.885c-0.232,0.418-0.47,0.945-0.592,1.539
		c-0.107,0.529-0.144,1.086-0.144,1.587c0,0.075,0.002,0.148,0.003,0.22c-1.184-0.18-2.291-0.058-3.119,0.379
		c-0.471,0.249-0.831,0.6-1.094,1.019c-0.91-0.248-2.469-0.908-3.158-2.6C25.948,34.627,26.493,33.25,27.667,32.245z"/>
	<g i:knockout="Off">
		<circle fill="#D90000" cx="43.796" cy="37.564" r="1.683"/>
		<circle fill="#D90000" cx="41.418" cy="34.771" r="1.683"/>
		<circle fill="#D90000" cx="40.509" cy="39.487" r="1.683"/>
		<circle fill="#D90000" cx="38.069" cy="36.716" r="1.683"/>
	</g>
	<path fill="#D90000" d="M59.993,71.794c0-0.861-0.478-1.432-1.432-1.719c-0.669-0.097-1.003-0.379-1.003-0.858
		c-0.095-0.669,0.478-1.003,1.72-1.003h6.729c1.241,0,1.815,0.334,1.719,1.003c0,0.479-0.334,0.761-1.002,0.858
		c-0.857,0.287-1.289,0.858-1.289,1.719v3.438H74.6c1.434-0.099,2.102,0.334,2.006,1.286c-1.621,6.59-5.49,12.791-11.6,18.614
		c-0.668,0.668-1.526,0.955-2.577,0.859c-1.718,0.094-2.528-0.813-2.436-2.724V77.806h-2.862c-1.146,0-1.72-0.43-1.72-1.288
		c0-0.955,0.524-1.385,1.576-1.289h3.006V71.794z M65.437,91.554c3.913-4.771,6.636-9.354,8.161-13.746h-8.161V91.554z"/>
</g>
</svg>
