<?xml version="1.0" encoding="utf-8"?>
<!-- Generator: Adobe Illustrator 12.0.0, SVG Export Plug-In . SVG Version: 6.00 Build 51448)  -->
<!DOCTYPE svg PUBLIC "-//W3C//DTD SVG 1.1//EN" "http://www.w3.org/Graphics/SVG/1.1/DTD/svg11.dtd" [
	<!ENTITY ns_flows "http://ns.adobe.com/Flows/1.0/">
	<!ENTITY ns_extend "http://ns.adobe.com/Extensibility/1.0/">
	<!ENTITY ns_ai "http://ns.adobe.com/AdobeIllustrator/10.0/">
	<!ENTITY ns_graphs "http://ns.adobe.com/Graphs/1.0/">
	<!ENTITY ns_vars "http://ns.adobe.com/Variables/1.0/">
	<!ENTITY ns_imrep "http://ns.adobe.com/ImageReplacement/1.0/">
	<!ENTITY ns_sfw "http://ns.adobe.com/SaveForWeb/1.0/">
	<!ENTITY ns_custom "http://ns.adobe.com/GenericCustomNamespace/1.0/">
	<!ENTITY ns_adobe_xpath "http://ns.adobe.com/XPath/1.0/">
	<!ENTITY ns_svg "http://www.w3.org/2000/svg">
	<!ENTITY ns_xlink "http://www.w3.org/1999/xlink">
]>
<svg  version="1.1"
	 xmlns:x="&ns_extend;" xmlns:i="&ns_ai;" xmlns:graph="&ns_graphs;" i:viewOrigin="-0.3193 135.7061" i:rulerOrigin="0 0" i:pageBounds="0 136 85 0"
	 xmlns="&ns_svg;" xmlns:xlink="&ns_xlink;" xmlns:a="http://ns.adobe.com/AdobeSVGViewerExtensions/3.0/"
	 width="85.678" height="136.025" viewBox="0 0 85.678 136.025" overflow="visible" enable-background="new 0 0 85.678 136.025"
	 xml:space="preserve">
<metadata>
	<variableSets  xmlns="http://ns.adobe.com/Variables/1.0/">
		<variableSet  varSetName="binding1" locked="none">
			<variables></variables>
			<v:sampleDataSets  xmlns:v="http://ns.adobe.com/Variables/1.0/" xmlns="http://ns.adobe.com/GenericCustomNamespace/1.0/">
				</v:sampleDataSets>
		</variableSet>
	</variableSets>
</metadata>
<g id="图层_1" i:knockout="Off" i:layer="yes" i:dimmedPercent="50" i:rgbTrio="#4F008000FFFF">
	<g i:knockout="Off">
		<path fill="#333333" d="M2.274,99.465v24.962c0,5.149,3.353,9.325,7.481,9.325h68.118c4.133,0,7.484-4.176,7.484-9.325h-0.002
			V9.216c0-4.344-3.352-7.869-7.482-7.869H9.756c-4.131,0-7.481,3.525-7.481,7.869H2.272v90.228
			C2.272,99.45,2.274,99.458,2.274,99.465z"/>
		
			<linearGradient id="XMLID_3_" gradientUnits="userSpaceOnUse" x1="-22.9907" y1="22.7183" x2="-22.9907" y2="148.2847" gradientTransform="matrix(1 0 0 -1 64.8535 158.4238)">
			<stop  offset="0.0899" style="stop-color:#2089B9"/>
			<stop  offset="0.0985" style="stop-color:#4FA3C2"/>
			<stop  offset="0.1071" style="stop-color:#77B9CA"/>
			<stop  offset="0.1138" style="stop-color:#8FC7CF"/>
			<stop  offset="0.118" style="stop-color:#98CCD1"/>
			<stop  offset="0.1341" style="stop-color:#9ECFD3"/>
			<stop  offset="0.156" style="stop-color:#AFD6D9"/>
			<stop  offset="0.1809" style="stop-color:#CBE1E3"/>
			<stop  offset="0.1966" style="stop-color:#E1EAEB"/>
			<a:midPointStop  offset="0.0899" style="stop-color:#2089B9"/>
			<a:midPointStop  offset="0.5" style="stop-color:#2089B9"/>
			<a:midPointStop  offset="0.0985" style="stop-color:#4FA3C2"/>
			<a:midPointStop  offset="0.5" style="stop-color:#4FA3C2"/>
			<a:midPointStop  offset="0.1071" style="stop-color:#77B9CA"/>
			<a:midPointStop  offset="0.5" style="stop-color:#77B9CA"/>
			<a:midPointStop  offset="0.1138" style="stop-color:#8FC7CF"/>
			<a:midPointStop  offset="0.5" style="stop-color:#8FC7CF"/>
			<a:midPointStop  offset="0.118" style="stop-color:#98CCD1"/>
			<a:midPointStop  offset="0.5" style="stop-color:#98CCD1"/>
			<a:midPointStop  offset="0.1341" style="stop-color:#9ECFD3"/>
			<a:midPointStop  offset="0.5" style="stop-color:#9ECFD3"/>
			<a:midPointStop  offset="0.156" style="stop-color:#AFD6D9"/>
			<a:midPointStop  offset="0.5" style="stop-color:#AFD6D9"/>
			<a:midPointStop  offset="0.1809" style="stop-color:#CBE1E3"/>
			<a:midPointStop  offset="0.5" style="stop-color:#CBE1E3"/>
			<a:midPointStop  offset="0.1966" style="stop-color:#E1EAEB"/>
		</linearGradient>
		<path fill="url(#XMLID_3_)" d="M83.405,126.381c0,5.15-3.352,9.325-7.48,9.325H7.804c-4.131,0-7.482-4.177-7.482-9.325V19.465
			c0-5.148,3.354-9.326,7.482-9.326h68.117c4.133,0,7.482,4.176,7.482,9.326v106.916H83.405z"/>
		<path fill="none" stroke="#333333" stroke-width="0.977" d="M83.405,126.381c0,5.15-3.352,9.325-7.48,9.325H7.804
			c-4.131,0-7.482-4.177-7.482-9.325V19.465c0-5.148,3.354-9.326,7.482-9.326h68.117c4.133,0,7.482,4.176,7.482,9.326v106.916
			H83.405z"/>
		<path fill="#FFFFFF" d="M0.32,11.17c0-4.344,3.354-7.869,7.482-7.869h68.118c4.133,0,7.482,3.523,7.482,7.869v90.229
			c0,4.346-3.352,7.869-7.482,7.869H7.802c-4.131,0-7.482-3.523-7.482-7.87L0.32,11.17L0.32,11.17z"/>
		
			<linearGradient id="XMLID_4_" gradientUnits="userSpaceOnUse" x1="3.7021" y1="54.9395" x2="85.8467" y2="54.9395" gradientTransform="matrix(-1 0 0 1 86.6367 1.3447)">
			<stop  offset="0" style="stop-color:#A2D8E0"/>
			<stop  offset="0.0899" style="stop-color:#1878AD"/>
			<stop  offset="0.2135" style="stop-color:#194D91"/>
			<stop  offset="0.6404" style="stop-color:#2B90BD"/>
			<stop  offset="0.9438" style="stop-color:#82CBDE"/>
			<stop  offset="1" style="stop-color:#1A478D"/>
			<a:midPointStop  offset="0" style="stop-color:#A2D8E0"/>
			<a:midPointStop  offset="0.5" style="stop-color:#A2D8E0"/>
			<a:midPointStop  offset="0.0899" style="stop-color:#1878AD"/>
			<a:midPointStop  offset="0.5" style="stop-color:#1878AD"/>
			<a:midPointStop  offset="0.2135" style="stop-color:#194D91"/>
			<a:midPointStop  offset="0.5" style="stop-color:#194D91"/>
			<a:midPointStop  offset="0.6404" style="stop-color:#2B90BD"/>
			<a:midPointStop  offset="0.5" style="stop-color:#2B90BD"/>
			<a:midPointStop  offset="0.9438" style="stop-color:#82CBDE"/>
			<a:midPointStop  offset="0.5" style="stop-color:#82CBDE"/>
			<a:midPointStop  offset="1" style="stop-color:#1A478D"/>
		</linearGradient>
		<path i:isolated="yes" i:knockout="Off" opacity="0.1" fill="url(#XMLID_4_)" enable-background="new    " d="M0.79,11.17
			c0-4.344,3.313-7.869,7.397-7.869h67.347c4.086,0,7.4,3.523,7.4,7.869v90.229c0,4.346-3.314,7.869-7.4,7.869H8.188
			c-4.084,0-7.397-3.523-7.397-7.87V11.17L0.79,11.17z"/>
		<path fill="none" stroke="#4D4D4D" stroke-width="0.977" d="M0.32,101.419v24.962c0,5.148,3.353,9.325,7.482,9.325h68.12
			c4.131,0,7.48-4.175,7.48-9.325V11.171c0-4.346-3.352-7.869-7.482-7.869H7.803c-4.13,0-7.482,3.525-7.482,7.869l-0.001,90.228
			C0.319,101.404,0.32,101.411,0.32,101.419z"/>
	</g>
	<path fill="#333333" d="M40.104,86.599c-5.376,0-11.924-0.139-19.645-0.414c-1.103-0.139-1.379-0.827-0.827-2.067
		c1.792-3.584,5.101-4.894,9.926-3.929c5.929,1.517,11.856,2.273,17.784,2.273c6.065-0.137,11.306-1.033,15.715-2.688
		c1.104-0.414,2-0.347,2.689,0.206c0.688,0.826,0.758,1.724,0.206,2.688c-0.827,1.379-1.86,2.344-3.103,2.895
		c-1.24,0.689-2.273,0.828-3.103,0.414c-0.826-0.551-2.067-0.688-3.722-0.414C50.789,86.116,45.481,86.46,40.104,86.599z"/>
	<path fill="#D90000" d="M41.655,61.771c-0.791,0-1.502-0.08-2.133-0.236c-0.633,0-1.264-0.238-1.896-0.711
		c-0.789-0.158-1.264-0.475-1.422-0.949c-0.314-0.158-0.553-0.473-0.711-0.947c-0.156-0.158-0.236-0.395-0.236-0.711l0.236-0.711
		c0.158-0.316,0.396-0.711,0.711-1.184c0.158-0.475,0.396-0.949,0.711-1.422c0.158-0.316,0.238-0.711,0.238-1.186l-0.949,0.238
		c-0.631,0.314-0.789,0.395-0.473,0.236c-0.316,0.158-0.711,0.236-1.186,0.236c-0.473,0.316-0.947,0.475-1.422,0.475
		c-0.473,0.158-0.867,0.236-1.184,0.236s-0.633-0.078-0.949-0.236c-0.156,0-0.395-0.158-0.709-0.475
		c-0.316-0.158-0.553-0.316-0.711-0.473l-0.238-0.238c-0.631-0.316-1.184-0.789-1.658-1.422v-0.473h0.475
		c0.158,0,0.869-0.08,2.133-0.237c1.105,0,2.053-0.158,2.842-0.473c0.791,0,1.66-0.158,2.607-0.475c0.316,0,0.711,0,1.184,0
		c0.633-0.158,1.186-0.236,1.658-0.236l0.475-0.475c0.316-0.158,0.711-0.631,1.186-1.422c0.158-0.158,0.395-0.395,0.711-0.711
		c0.314-0.473,0.553-0.789,0.711-0.947c0.473-0.475,0.867-1.027,1.184-1.658h-0.236h-0.475c-0.314,0.158-0.631,0.236-0.947,0.236
		c-0.789,0.316-1.816,0.475-3.08,0.475c-1.264,0.158-2.211,0.236-2.844,0.236c-0.631,0-1.184-0.078-1.658-0.236
		c-0.158,0-0.553-0.158-1.186-0.475c-0.156-0.158-0.314-0.316-0.473-0.473c-0.791-0.475-1.264-0.949-1.422-1.422
		c-0.316-0.475-0.553-0.949-0.711-1.422c-0.158-0.316-0.236-0.711-0.236-1.186l0.711-0.947c0.473-0.475,0.947-1.186,1.42-2.133
		c0.475-0.631,0.949-1.422,1.422-2.369c0.475-0.631,0.869-1.342,1.186-2.133c0.316-0.631,1.105-1.58,2.369-2.844h0.475l1.42,1.422
		l0.475-0.236c0.316,0,0.633-0.158,0.947-0.475c0.158,0,0.396-0.078,0.711-0.236c0.316-0.158,0.553-0.236,0.711-0.236
		c0.633,0,1.027-0.158,1.186-0.475c0.158,0,0.316-0.475,0.473-1.422c0-0.789,0.08-1.5,0.238-2.133l-0.949,0.238
		c-0.631,0.314-1.736,0.553-3.316,0.711c-1.58,0.473-3.08,0.711-4.502,0.711c-1.425,0.16-2.689,0.24-3.794,0.24
		c-0.473,0-1.105,0.078-1.895,0.236h-0.238c-0.314,0.158-0.711,0.238-1.184,0.238c-0.475,0-0.947-0.08-1.422-0.238
		c-0.158,0-0.553-0.158-1.186-0.473c-0.156-0.158-0.314-0.316-0.473-0.475c-0.791-0.475-1.264-0.947-1.422-1.422
		c-0.158-0.158-0.316-0.316-0.475-0.473c0-0.316-0.078-0.555-0.236-0.711c-0.158-0.158-0.236-0.475-0.236-0.949l0.236-0.236
		c0.158,0,0.395-0.395,0.711-1.186c0.316-0.473,0.631-1.342,0.947-2.605c0-0.316,0.158-0.789,0.475-1.422
		c0.316-0.789,0.473-1.342,0.473-1.658c0.316-0.947,0.711-1.896,1.186-2.844c0.475-0.789,0.947-1.5,1.422-2.133
		c0.158-0.156,0.316-0.395,0.473-0.711c0.158-0.314,0.553-0.867,1.186-1.658c0.316-0.314,0.633-0.711,0.947-1.184
		c0.316-0.316,0.553-0.553,0.711-0.711c0.158-0.158,0.395-0.395,0.711-0.711l0.475-0.238C32.099,6.88,32.572,6.8,33.363,6.8
		l0.711,0.947c0.158,0.316,0.395,0.633,0.709,0.949c0.316,0.316,0.555,0.631,0.711,0.947c0.158,0.316,0.396,0.633,0.711,0.947
		c0.316,0.316,0.553,0.633,0.711,0.947c0.475,0.633,1.027,1.186,1.658,1.66h-0.709c-0.475,0-1.264,0-2.371,0
		c-1.105-0.158-1.895-0.238-2.369-0.238c-0.473,0-0.867,0.08-1.184,0.238h-0.238c-0.314,0.156-0.553,0.314-0.711,0.473
		c-0.314,0.475-0.395,0.553-0.236,0.238c-0.158,0.314-0.395,0.947-0.711,1.895c0,0.158-0.078,0.553-0.236,1.186
		c-0.316,0.947-0.553,1.736-0.711,2.369c-0.316,1.422-0.553,2.605-0.711,3.553c-0.158,0.949-0.236,1.738-0.236,2.371l0.473,0.473
		h2.133c1.422,0,2.764-0.078,4.027-0.236c0.791,0,2.055-0.238,3.791-0.711l-0.473-0.475c-0.316-0.316-0.791-0.711-1.422-1.184
		c-0.633-0.475-1.186-1.027-1.658-1.658c-0.316-0.316-0.553-0.711-0.711-1.186c0,0.316-0.078,0.158-0.236-0.475
		c-0.158-0.473-0.238-0.947-0.238-1.42c0-0.316,0.08-0.713,0.238-1.186l0.236-0.236c0.158-0.316,0.316-0.553,0.473-0.711h0.238
		c0.158,0,0.236,0.078,0.236,0.236c0.158,0,0.316,0,0.475,0l0.236,0.236c0.316,0.316,0.711,0.791,1.186,1.422l1.42-0.236
		c0.949,0,1.896-0.158,2.844-0.475c0.949,0,2.055-0.314,3.318-0.947c1.264-0.475,2.369-0.947,3.315-1.422
		c0.316-0.158,0.633-0.316,0.947-0.473c0.316-0.158,0.633-0.316,0.947-0.475h0.237c0.158-0.158,0.316-0.236,0.474-0.236h0.237
		c0.315,0.156,0.554,0.236,0.711,0.236c0.474,0.316,0.868,0.553,1.185,0.711c0.158,0.158,0.237,0.395,0.237,0.711
		c0.157,0.158,0.314,0.314,0.474,0.473c0.158,0.475,0.236,0.869,0.236,1.186l-0.474,0.475l-0.711-0.238
		c-0.157,0-0.395-0.078-0.711-0.236h-0.236c-0.157,0-0.315,0.078-0.475,0.236c-0.315,0.158-0.553,0.238-0.711,0.238
		c-0.631,0.473-1.184,0.789-1.658,0.947c-0.475,0.473-0.789,0.711-0.946,0.711c-0.158,0.158-0.238,0.314-0.238,0.473l-0.236,0.238
		c-0.158,0.158-0.235,1.105-0.235,2.842l0.711-0.236c0.473,0,1.104-0.236,1.895-0.711c0.316-0.158,0.791-0.316,1.422-0.473
		c0.632-0.316,1.105-0.555,1.422-0.711c0.158-0.158,0.475-0.316,0.947-0.475c1.105-0.316,2.133-0.711,3.08-1.186l-0.474-1.42
		c-0.315-0.949-0.554-1.896-0.711-2.844c-0.157-0.475-0.237-1.58-0.237-3.318l0.475-0.473v-0.947l0.711,0.947
		c0.158,0.158,0.396,0.395,0.711,0.711c0.158,0.473,0.315,0.789,0.474,0.947c0.158,0.316,0.396,0.553,0.711,0.711
		c0.158,0.473,0.237,0.869,0.237,1.186c0,0.473,0.078,0.947,0.236,1.42c0,0.158,0.079,0.316,0.236,0.475
		c0.158,0.475,0.315,0.869,0.475,1.186h0.236c0.158,0,0.396-0.08,0.711-0.238c0.158,0,0.475-0.236,0.947-0.711h0.237
		c0.158,0,0.236,0.08,0.236,0.238c0.158,0,0.316,0,0.474,0l0.237,0.236c0.316,0.316,0.711,0.789,1.186,1.422v0.947l-0.475,0.475
		l-0.475-0.475h-0.475h-0.474c-0.316,0.158-0.553,0.236-0.711,0.236c-0.158,0.158-0.395,0.316-0.711,0.475
		c-0.158,0-0.315,0.078-0.474,0.236v0.949c0,0.789-0.079,1.262-0.237,1.42c-0.158,0.475-0.474,0.791-0.947,0.949
		c-0.158,0.158-0.632,0.473-1.422,0.947c-0.315,0-0.553,0.078-0.711,0.236c-0.947,0.475-1.816,0.947-2.605,1.422
		c-0.633,0.475-1.501,1.027-2.606,1.658l0.475,0.238c0.158,0.314,0.396,0.473,0.711,0.473c0.158,0.158,0.396,0.475,0.711,0.949
		c0,0.156,0.078,0.314,0.236,0.473s0.396,0.633,0.711,1.422c0,0.316,0.158,0.789,0.475,1.422c0.315,0.631,0.474,1.105,0.474,1.422
		c0.158,0.631,0.396,1.342,0.711,2.133l0.237,0.236c0.157,0.473,0.396,0.947,0.711,1.422c0.157,0.473,0.236,0.867,0.236,1.184
		c0,0.475-0.079,0.791-0.236,0.949l-0.237,0.236c0,0.316-0.158,0.553-0.474,0.711h-0.475l-0.947-0.947L54.45,40.68
		c-0.157,0.158-0.553,0.473-1.185,0.947c-0.157,0-0.315,0.078-0.475,0.236c-0.632,0.633-1.422,1.105-2.369,1.422v0.475l0.475,0.711
		c0.157,0.473,0.474,1.342,0.947,2.605h0.236c0.158,0,0.633-0.236,1.422-0.711c0.316-0.158,0.633-0.314,0.947-0.473
		c0.475-0.316,0.869-0.553,1.186-0.711c0.475-0.158,0.947-0.475,1.422-0.947h0.236c0.158,0,0.236,0.078,0.236,0.236
		c0.158,0,0.315,0,0.475,0l0.474,0.236c0.316,0.316,0.555,0.553,0.712,0.711c0.474,0.475,0.79,0.947,0.947,1.422
		c0.158,0.475,0.236,1.027,0.236,1.658l-0.474,0.475L58.95,48.74c-0.315,0-0.711-0.08-1.185-0.238h-0.237h-0.474
		c-0.475,0.158-0.868,0.238-1.186,0.238c-0.789,0.314-1.422,0.473-1.896,0.473c-0.475,0.316-1.026,0.553-1.658,0.711v1.658
		c0,1.106,0.078,1.896,0.236,2.37c0.158,0.473,0.396,0.947,0.711,1.422c0.158,0.473,0.631,1.025,1.421,1.658v0.473h-0.947
		c-0.631,0-1.185-0.078-1.658-0.236c-0.473,0-0.868-0.158-1.186-0.475c-0.314,0-0.71-0.314-1.185-0.947
		c-0.473-0.475-0.869-1.027-1.184-1.658c-0.158-0.316-0.476-1.264-0.949-2.843h-0.236h-0.236c-0.315,0.158-0.633,0.236-0.948,0.236
		c-0.631,0.315-1.42,0.474-2.369,0.474c-0.314,0.158-0.711,0.236-1.184,0.236l-0.475,0.238c-0.158,0.158-0.236,0.314-0.236,0.473
		c-0.158,0.158-0.236,0.316-0.236,0.475c-0.316,0.475-0.553,1.184-0.711,2.133c0,0.314-0.08,0.631-0.238,0.947
		c-0.158,0.316-0.236,0.631-0.236,0.947c0,0.475,0.078,0.791,0.236,0.949c0.158,0.156,0.238,0.395,0.238,0.711
		c0.158,0.156,0.314,0.314,0.473,0.473c0.158,0.475,0.633,1.027,1.422,1.658v0.475H41.655z M46.63,29.074h0.236
		c0.158,0,0.633-0.238,1.422-0.711c0.158-0.158,0.633-0.396,1.422-0.711c0.633-0.316,1.187-0.633,1.658-0.949
		c0.475-0.158,1.027-0.395,1.659-0.709c0.79-0.475,1.422-0.791,1.896-0.949c0.632-0.158,0.79-0.236,0.475-0.236
		c0.947-0.316,1.501-0.475,1.658-0.475l0.711-0.473c0.315-0.158,0.712-0.475,1.185-0.949v-0.473l-0.947-0.947h-0.236
		c-0.157,0-0.396,0.078-0.711,0.236c-0.315,0.158-0.553,0.236-0.711,0.236c-0.315,0.316-0.946,0.553-1.896,0.711
		c0.475,0,0.315,0.078-0.474,0.236c-0.315,0.158-0.947,0.396-1.896,0.711c-0.315,0.158-0.631,0.316-0.947,0.475
		c-0.315,0.159-0.711,0.316-1.186,0.475c-1.105,0.473-2.053,0.867-2.842,1.184L46.63,29.074z M49.237,41.631
		c0.473,0,0.946-0.158,1.42-0.473c0.158,0,0.396,0,0.711,0c0.315-0.158,0.553-0.238,0.711-0.238c0.475,0.158,1.027,0,1.658-0.473
		l0.237-0.475c0.158-0.158,0.236-0.395,0.236-0.711l-0.236-0.947c-0.157-0.158-0.237-0.316-0.237-0.475
		c0-0.316-0.078-0.553-0.236-0.711s-0.236-0.395-0.236-0.711c-0.157-0.316-0.236-0.553-0.236-0.711
		c-0.158-0.473-0.237-1.105-0.237-1.895c0-0.791-0.158-1.738-0.474-2.844H52.08c-0.158,0-0.315,0.078-0.474,0.236h-0.237
		c-0.315,0.316-0.631,0.475-0.947,0.475c0,0.158-0.158,0.316-0.475,0.475c-0.314,0-0.474,0.078-0.474,0.236
		c0,0.158-0.157,0.395-0.475,0.711c-0.314,0.158-0.473,0.316-0.473,0.475c-0.316,0.473-0.791,1.025-1.422,1.658h1.184
		c0.316,0,0.633,0.078,0.949,0.236c0.473,0,0.867,0,1.184,0c0.947,0.316,1.737,0.553,2.369,0.711v0.475l-0.711,0.473
		c-0.473,0.475-1.105,0.789-1.896,0.947c-0.791,0.475-1.422,0.711-1.896,0.711c-0.473,0.316-1.025,0.553-1.658,0.711v0.475
		l0.476,0.475c0.157,0.156,0.395,0.395,0.711,0.711c0.315,0.314,0.553,0.551,0.711,0.709L49.237,41.631z M42.839,51.346h0.475
		c0.158,0,0.631-0.08,1.422-0.236c0.631,0,1.184-0.158,1.657-0.475c0.474,0,0.789-0.158,0.947-0.475
		c0.158,0,0.236-0.078,0.236-0.236c0,0.158,0.08,0,0.238-0.475c0.157-0.158,0.235-0.314,0.235-0.473
		c0.158-0.316,0.236-0.553,0.236-0.711c0.158-0.475,0.396-0.947,0.711-1.422c0.158-0.475,0.396-1.027,0.711-1.658
		c0.158-0.316,0.236-0.949,0.236-1.896l-1.185,0.475c-0.789,0.473-1.422,0.711-1.896,0.711c-0.474,0.316-0.867,0.553-1.185,0.711
		c-0.315,0.473-0.711,0.947-1.186,1.422c-0.473,0.789-0.867,1.422-1.184,1.895c-0.158,0.316-0.316,0.711-0.475,1.186
		c-0.158,0.473-0.316,0.867-0.475,1.184L42.839,51.346z M35.731,43.764h0.711c0.473,0,1.105-0.08,1.895-0.236
		c0.791,0,1.58-0.158,2.369-0.475c0.475,0,1.264-0.158,2.369-0.475c-0.156,0,0.08-0.078,0.711-0.236l-0.473-0.236
		c-0.316,0-0.553-0.158-0.711-0.475c-0.158,0-0.316-0.158-0.475-0.473c0-0.316-0.078-0.555-0.236-0.711h-0.947l-0.711-0.475
		c-0.475-0.158-0.869-0.475-1.186-0.947v-0.949l0.236-0.236c0.158,0,0.396-0.158,0.711-0.473c0.316,0,0.711-0.158,1.186-0.475
		c0.475,0,0.789-0.158,0.947-0.475c0.158,0,0.316-0.395,0.475-1.184c0-0.475,0.078-0.949,0.236-1.422H40.47l-0.475-0.475
		c-0.156-0.158-0.395-0.316-0.711-0.473c-0.314-0.158-0.553-0.316-0.711-0.475v1.186c0,0.947-0.078,1.5-0.236,1.658
		c-0.314,0.473-0.553,0.947-0.711,1.422c-0.314,0.789-0.711,1.658-1.184,2.605c-0.158,0.475-0.316,1.027-0.475,1.658
		c-0.316,0.475-0.475,0.789-0.475,0.947c-0.156,0.791-0.236,1.264-0.236,1.422L35.731,43.764z M41.181,24.572
		c0.631,0,1.342-0.238,2.133-0.711l0.473-3.791l-1.422,0.236c-0.631,0.158-1.895,0.236-3.791,0.236v0.238
		c0,0.314,0.158,0.711,0.475,1.184c0.158,0.633,0.475,1.58,0.947,2.844L41.181,24.572z"/>
</g>
</svg>
