<?xml version="1.0" encoding="utf-8"?>
<!-- Generator: Adobe Illustrator 12.0.0, SVG Export Plug-In . SVG Version: 6.00 Build 51448)  -->
<!DOCTYPE svg PUBLIC "-//W3C//DTD SVG 1.1//EN" "http://www.w3.org/Graphics/SVG/1.1/DTD/svg11.dtd" [
	<!ENTITY ns_flows "http://ns.adobe.com/Flows/1.0/">
	<!ENTITY ns_extend "http://ns.adobe.com/Extensibility/1.0/">
	<!ENTITY ns_ai "http://ns.adobe.com/AdobeIllustrator/10.0/">
	<!ENTITY ns_graphs "http://ns.adobe.com/Graphs/1.0/">
	<!ENTITY ns_vars "http://ns.adobe.com/Variables/1.0/">
	<!ENTITY ns_imrep "http://ns.adobe.com/ImageReplacement/1.0/">
	<!ENTITY ns_sfw "http://ns.adobe.com/SaveForWeb/1.0/">
	<!ENTITY ns_custom "http://ns.adobe.com/GenericCustomNamespace/1.0/">
	<!ENTITY ns_adobe_xpath "http://ns.adobe.com/XPath/1.0/">
	<!ENTITY ns_svg "http://www.w3.org/2000/svg">
	<!ENTITY ns_xlink "http://www.w3.org/1999/xlink">
]>
<svg  version="1.1"
	 xmlns:x="&ns_extend;" xmlns:i="&ns_ai;" xmlns:graph="&ns_graphs;" i:viewOrigin="-0.3193 135.7061" i:rulerOrigin="0 0" i:pageBounds="0 136 85 0"
	 xmlns="&ns_svg;" xmlns:xlink="&ns_xlink;" xmlns:a="http://ns.adobe.com/AdobeSVGViewerExtensions/3.0/"
	 width="85.678" height="136.025" viewBox="0 0 85.678 136.025" overflow="visible" enable-background="new 0 0 85.678 136.025"
	 xml:space="preserve">
<metadata>
	<variableSets  xmlns="http://ns.adobe.com/Variables/1.0/">
		<variableSet  varSetName="binding1" locked="none">
			<variables></variables>
			<v:sampleDataSets  xmlns:v="http://ns.adobe.com/Variables/1.0/" xmlns="http://ns.adobe.com/GenericCustomNamespace/1.0/">
				</v:sampleDataSets>
		</variableSet>
	</variableSets>
</metadata>
<g id="图层_1" i:knockout="Off" i:layer="yes" i:dimmedPercent="50" i:rgbTrio="#4F008000FFFF">
	<g i:knockout="Off">
		<path fill="#333333" d="M2.274,99.465v24.962c0,5.149,3.353,9.325,7.481,9.325h68.118c4.133,0,7.484-4.176,7.484-9.325h-0.002
			V9.216c0-4.344-3.352-7.869-7.482-7.869H9.756c-4.131,0-7.481,3.525-7.481,7.869H2.272v90.228
			C2.272,99.45,2.274,99.458,2.274,99.465z"/>
		
			<linearGradient id="XMLID_3_" gradientUnits="userSpaceOnUse" x1="-22.9907" y1="22.7183" x2="-22.9907" y2="148.2847" gradientTransform="matrix(1 0 0 -1 64.8535 158.4238)">
			<stop  offset="0.0899" style="stop-color:#2089B9"/>
			<stop  offset="0.0985" style="stop-color:#4FA3C2"/>
			<stop  offset="0.1071" style="stop-color:#77B9CA"/>
			<stop  offset="0.1138" style="stop-color:#8FC7CF"/>
			<stop  offset="0.118" style="stop-color:#98CCD1"/>
			<stop  offset="0.1341" style="stop-color:#9ECFD3"/>
			<stop  offset="0.156" style="stop-color:#AFD6D9"/>
			<stop  offset="0.1809" style="stop-color:#CBE1E3"/>
			<stop  offset="0.1966" style="stop-color:#E1EAEB"/>
			<a:midPointStop  offset="0.0899" style="stop-color:#2089B9"/>
			<a:midPointStop  offset="0.5" style="stop-color:#2089B9"/>
			<a:midPointStop  offset="0.0985" style="stop-color:#4FA3C2"/>
			<a:midPointStop  offset="0.5" style="stop-color:#4FA3C2"/>
			<a:midPointStop  offset="0.1071" style="stop-color:#77B9CA"/>
			<a:midPointStop  offset="0.5" style="stop-color:#77B9CA"/>
			<a:midPointStop  offset="0.1138" style="stop-color:#8FC7CF"/>
			<a:midPointStop  offset="0.5" style="stop-color:#8FC7CF"/>
			<a:midPointStop  offset="0.118" style="stop-color:#98CCD1"/>
			<a:midPointStop  offset="0.5" style="stop-color:#98CCD1"/>
			<a:midPointStop  offset="0.1341" style="stop-color:#9ECFD3"/>
			<a:midPointStop  offset="0.5" style="stop-color:#9ECFD3"/>
			<a:midPointStop  offset="0.156" style="stop-color:#AFD6D9"/>
			<a:midPointStop  offset="0.5" style="stop-color:#AFD6D9"/>
			<a:midPointStop  offset="0.1809" style="stop-color:#CBE1E3"/>
			<a:midPointStop  offset="0.5" style="stop-color:#CBE1E3"/>
			<a:midPointStop  offset="0.1966" style="stop-color:#E1EAEB"/>
		</linearGradient>
		<path fill="url(#XMLID_3_)" d="M83.405,126.381c0,5.15-3.352,9.325-7.48,9.325H7.804c-4.131,0-7.482-4.177-7.482-9.325V19.465
			c0-5.148,3.354-9.326,7.482-9.326h68.117c4.133,0,7.482,4.176,7.482,9.326v106.916H83.405z"/>
		<path fill="none" stroke="#333333" stroke-width="0.977" d="M83.405,126.381c0,5.15-3.352,9.325-7.48,9.325H7.804
			c-4.131,0-7.482-4.177-7.482-9.325V19.465c0-5.148,3.354-9.326,7.482-9.326h68.117c4.133,0,7.482,4.176,7.482,9.326v106.916
			H83.405z"/>
		<path fill="#FFFFFF" d="M0.32,11.17c0-4.344,3.354-7.869,7.482-7.869h68.118c4.133,0,7.482,3.523,7.482,7.869v90.229
			c0,4.346-3.352,7.869-7.482,7.869H7.802c-4.131,0-7.482-3.523-7.482-7.87L0.32,11.17L0.32,11.17z"/>
		
			<linearGradient id="XMLID_4_" gradientUnits="userSpaceOnUse" x1="3.7021" y1="54.9395" x2="85.8467" y2="54.9395" gradientTransform="matrix(-1 0 0 1 86.6367 1.3447)">
			<stop  offset="0" style="stop-color:#A2D8E0"/>
			<stop  offset="0.0899" style="stop-color:#1878AD"/>
			<stop  offset="0.2135" style="stop-color:#194D91"/>
			<stop  offset="0.6404" style="stop-color:#2B90BD"/>
			<stop  offset="0.9438" style="stop-color:#82CBDE"/>
			<stop  offset="1" style="stop-color:#1A478D"/>
			<a:midPointStop  offset="0" style="stop-color:#A2D8E0"/>
			<a:midPointStop  offset="0.5" style="stop-color:#A2D8E0"/>
			<a:midPointStop  offset="0.0899" style="stop-color:#1878AD"/>
			<a:midPointStop  offset="0.5" style="stop-color:#1878AD"/>
			<a:midPointStop  offset="0.2135" style="stop-color:#194D91"/>
			<a:midPointStop  offset="0.5" style="stop-color:#194D91"/>
			<a:midPointStop  offset="0.6404" style="stop-color:#2B90BD"/>
			<a:midPointStop  offset="0.5" style="stop-color:#2B90BD"/>
			<a:midPointStop  offset="0.9438" style="stop-color:#82CBDE"/>
			<a:midPointStop  offset="0.5" style="stop-color:#82CBDE"/>
			<a:midPointStop  offset="1" style="stop-color:#1A478D"/>
		</linearGradient>
		<path i:isolated="yes" i:knockout="Off" opacity="0.1" fill="url(#XMLID_4_)" enable-background="new    " d="M0.79,11.17
			c0-4.344,3.313-7.869,7.397-7.869h67.347c4.086,0,7.4,3.523,7.4,7.869v90.229c0,4.346-3.314,7.869-7.4,7.869H8.188
			c-4.084,0-7.397-3.523-7.397-7.87V11.17L0.79,11.17z"/>
		<path fill="none" stroke="#4D4D4D" stroke-width="0.977" d="M0.32,101.419v24.962c0,5.148,3.353,9.325,7.482,9.325h68.12
			c4.131,0,7.48-4.175,7.48-9.325V11.171c0-4.346-3.352-7.869-7.482-7.869H7.803c-4.13,0-7.482,3.525-7.482,7.869l-0.001,90.228
			C0.319,101.404,0.32,101.411,0.32,101.419z"/>
	</g>
	<path fill="#333333" d="M61.661,76.888c-0.689-0.273-1.24-0.414-1.654-0.414c-1.379,0-3.377,0.069-5.998,0.207
		c-2.619,0.14-4.617,0.207-5.996,0.207c-8.133,0-14.06,0-17.783,0c-4.136,0-6.755-0.067-7.856-0.207c-0.14,0-0.482,0-1.035,0
		c-1.655-0.138-2.688-0.138-3.103,0c-1.239-0.138-1.104-1.379,0.414-3.723c2.068-3.446,4.824-4.412,8.271-2.896
		c3.033,1.24,6.549,1.999,10.545,2.275c2.068,0.275,4.412,0.413,7.031,0.413c2.619,0.138,6.135,0.138,10.547,0
		c3.859-0.276,6.548-0.759,8.064-1.448c1.516-0.688,1.652-0.758,0.41-0.206c1.243-0.552,2.276-0.827,3.104-0.827
		c1.654,0.14,2.066,1.241,1.24,3.311c-2.068,2.895-3.998,4.065-5.791,3.516C61.661,76.956,61.522,76.888,61.661,76.888z
		 M61.247,95.085c-0.551,0.551-1.24,0.965-2.068,1.24c-1.102,0.273-1.999,0.345-2.688,0.207c-0.551-0.14-1.172-0.207-1.861-0.207
		c-0.965,0-2.344,0.067-4.135,0.207c-1.793,0.138-3.172,0.207-4.137,0.207c-6.064,0-11.582-0.141-16.544-0.414
		c-2.344-0.415-3.445-1.379-3.309-2.896c0.139-0.965,1.034-1.586,2.688-1.859c5.931,0.414,12.616,0.621,20.06,0.621
		c3.172,0,6.205-0.276,9.101-0.828c0.688-0.275,1.516-0.413,2.479-0.413C63.04,91.225,63.177,92.604,61.247,95.085z M45.739,86.604
		c-2.342,0.14-4.686,0.14-7.029,0c-2.482,0-4.344-0.139-5.584-0.412c-2.205-0.138-3.31-0.619-3.31-1.447
		c0-1.104,0.689-1.792,2.068-2.067c14.199,0,22.401-0.413,24.606-1.241c1.24-0.274,2.067,0,2.479,0.828
		c0.414,0.827,0.14,1.725-0.826,2.688c-1.379,1.379-2.758,1.929-4.137,1.654C53.872,86.192,51.114,86.192,45.739,86.604z"/>
	<path fill="#D90000" d="M42.837,61.779h-1.188c-0.791,0-1.502-0.08-2.133-0.236c-0.632,0-1.263-0.238-1.896-0.711
		c-0.789-0.158-1.263-0.474-1.42-0.949c-0.316-0.158-0.554-0.472-0.712-0.947c-0.157-0.158-0.237-0.395-0.237-0.711l0.237-0.711
		c0.158-0.317,0.396-0.711,0.712-1.184c0.157-0.475,0.395-0.949,0.711-1.422c0.157-0.317,0.235-0.711,0.235-1.186L36.2,53.96
		c-0.634,0.314-0.791,0.394-0.476,0.236c-0.316,0.158-0.711,0.236-1.186,0.236c-0.474,0.317-0.947,0.475-1.42,0.475
		c-0.476,0.158-0.87,0.236-1.187,0.236c-0.315,0-0.631-0.078-0.947-0.236c-0.157,0-0.395-0.159-0.711-0.475
		c-0.315-0.159-0.553-0.317-0.711-0.473l-0.235-0.238c-0.634-0.317-1.186-0.789-1.66-1.422v-0.473h0.475
		c0.158,0,0.869-0.08,2.133-0.237c1.106,0,2.054-0.159,2.845-0.473c0.789,0,1.657-0.159,2.604-0.475c0.317,0,0.711,0,1.187,0
		c0.631-0.158,1.183-0.236,1.657-0.236l0.474-0.475c0.316-0.158,0.711-0.631,1.186-1.422c0.158-0.158,0.396-0.395,0.711-0.711
		c0.316-0.472,0.554-0.789,0.711-0.947c0.474-0.474,0.87-1.027,1.185-1.658h-0.236h-0.475c-0.314,0.158-0.631,0.236-0.947,0.236
		c-0.789,0.317-1.816,0.475-3.08,0.475c-1.264,0.158-2.211,0.236-2.844,0.236c-0.631,0-1.184-0.078-1.658-0.236
		c-0.159,0-0.553-0.159-1.184-0.475c-0.159-0.159-0.317-0.317-0.476-0.473c-0.789-0.475-1.264-0.949-1.422-1.422
		c-0.316-0.475-0.553-0.949-0.711-1.422c-0.158-0.317-0.236-0.711-0.236-1.186l0.711-0.947c0.474-0.475,0.947-1.186,1.423-2.133
		c0.473-0.631,0.946-1.422,1.422-2.369c0.473-0.631,0.867-1.342,1.184-2.133c0.316-0.631,1.105-1.58,2.369-2.844h0.475l1.422,1.422
		l0.474-0.236c0.315,0,0.633-0.159,0.949-0.475c0.157,0,0.395-0.078,0.711-0.236c0.313-0.158,0.553-0.236,0.709-0.236
		c0.633,0,1.028-0.159,1.186-0.475c0.159,0,0.317-0.475,0.475-1.422c0-0.789,0.078-1.5,0.236-2.133l-0.947,0.238
		c-0.632,0.315-1.738,0.553-3.318,0.711c-1.578,0.473-3.08,0.711-4.502,0.711c-1.42,0.156-2.685,0.236-3.791,0.236
		c-0.474,0-1.106,0.078-1.896,0.236h-0.235c-0.317,0.158-0.711,0.238-1.187,0.238c-0.473,0-0.947-0.08-1.422-0.238
		c-0.159,0-0.553-0.159-1.184-0.473c-0.159-0.159-0.317-0.317-0.476-0.475c-0.789-0.475-1.264-0.947-1.422-1.422
		c-0.159-0.159-0.316-0.317-0.475-0.473c0-0.316-0.078-0.555-0.236-0.711c-0.158-0.158-0.236-0.474-0.236-0.949l0.236-0.236
		c0.158,0,0.396-0.395,0.711-1.186c0.316-0.472,0.633-1.341,0.947-2.605c0-0.317,0.159-0.789,0.475-1.422
		c0.317-0.789,0.476-1.342,0.476-1.658c0.314-0.948,0.711-1.897,1.184-2.844c0.475-0.789,0.949-1.5,1.422-2.133
		c0.159-0.156,0.317-0.395,0.476-0.711c0.158-0.314,0.553-0.867,1.184-1.658c0.316-0.315,0.633-0.711,0.947-1.184
		c0.315-0.316,0.555-0.553,0.711-0.711c0.158-0.158,0.396-0.395,0.711-0.711L31.94,7.04c0.158-0.156,0.633-0.236,1.422-0.236
		l0.711,0.947c0.158,0.316,0.396,0.633,0.712,0.949c0.315,0.316,0.553,0.631,0.711,0.947c0.157,0.316,0.395,0.633,0.711,0.947
		c0.314,0.316,0.553,0.633,0.711,0.947c0.472,0.633,1.024,1.185,1.657,1.66h-0.711c-0.474,0-1.264,0-2.368,0
		c-1.105-0.158-1.896-0.238-2.369-0.238c-0.476,0-0.87,0.08-1.187,0.238h-0.235c-0.316,0.157-0.554,0.315-0.711,0.473
		c-0.316,0.474-0.395,0.552-0.238,0.238c-0.156,0.315-0.396,0.948-0.711,1.895c0,0.159-0.078,0.553-0.236,1.186
		c-0.314,0.947-0.553,1.736-0.711,2.369c-0.315,1.422-0.553,2.606-0.711,3.553c-0.158,0.949-0.236,1.738-0.236,2.371l0.476,0.473
		h2.131c1.422,0,2.765-0.078,4.029-0.236c0.788,0,2.053-0.238,3.791-0.711l-0.476-0.475c-0.316-0.317-0.789-0.711-1.422-1.184
		c-0.631-0.474-1.183-1.027-1.658-1.658c-0.315-0.317-0.553-0.711-0.711-1.186c0,0.316-0.078,0.158-0.236-0.475
		c-0.157-0.473-0.237-0.947-0.237-1.42c0-0.317,0.08-0.713,0.237-1.186l0.236-0.236c0.159-0.316,0.317-0.553,0.476-0.711h0.235
		c0.158,0,0.236,0.078,0.236,0.236c0.159,0,0.316,0,0.475,0l0.236,0.236c0.317,0.317,0.711,0.791,1.186,1.422l1.423-0.236
		c0.946,0,1.895-0.159,2.842-0.475c0.949,0,2.054-0.314,3.317-0.947c1.264-0.475,2.369-0.947,3.315-1.422
		c0.316-0.159,0.633-0.317,0.947-0.473c0.316-0.159,0.633-0.317,0.949-0.475h0.234c0.159-0.158,0.317-0.236,0.477-0.236h0.235
		c0.315,0.156,0.554,0.236,0.711,0.236c0.476,0.316,0.869,0.553,1.187,0.711c0.158,0.158,0.236,0.395,0.236,0.711
		c0.158,0.159,0.315,0.315,0.475,0.473c0.158,0.475,0.236,0.87,0.236,1.186l-0.477,0.475l-0.711-0.238
		c-0.155,0-0.396-0.078-0.711-0.236h-0.235c-0.159,0-0.315,0.078-0.474,0.236c-0.316,0.158-0.556,0.238-0.713,0.238
		c-0.632,0.472-1.183,0.789-1.658,0.947c-0.472,0.473-0.789,0.711-0.945,0.711c-0.158,0.159-0.236,0.315-0.236,0.473l-0.238,0.238
		c-0.158,0.158-0.235,1.106-0.235,2.842l0.711-0.236c0.475,0,1.105-0.236,1.896-0.711c0.317-0.159,0.79-0.317,1.424-0.473
		c0.631-0.316,1.106-0.555,1.42-0.711c0.158-0.159,0.475-0.317,0.949-0.475c1.104-0.317,2.133-0.711,3.079-1.186l-0.475-1.42
		c-0.316-0.949-0.554-1.897-0.711-2.844c-0.158-0.474-0.236-1.58-0.236-3.318l0.474-0.473V10.12l0.711,0.947
		c0.158,0.158,0.397,0.395,0.711,0.711c0.159,0.472,0.317,0.789,0.477,0.947c0.158,0.316,0.395,0.553,0.711,0.711
		c0.158,0.473,0.235,0.87,0.235,1.186c0,0.473,0.079,0.947,0.237,1.42c0,0.159,0.078,0.317,0.235,0.475
		c0.16,0.475,0.317,0.87,0.474,1.186h0.237c0.158,0,0.396-0.08,0.711-0.238c0.158,0,0.473-0.236,0.947-0.711h0.235
		c0.158,0,0.238,0.08,0.238,0.238c0.156,0,0.314,0,0.473,0l0.236,0.236c0.316,0.317,0.711,0.789,1.187,1.422v0.947l-0.476,0.475
		l-0.475-0.475h-0.475h-0.473c-0.315,0.158-0.554,0.236-0.712,0.236c-0.157,0.159-0.395,0.317-0.711,0.475
		c-0.158,0-0.316,0.078-0.475,0.236v0.949c0,0.789-0.078,1.262-0.236,1.42c-0.157,0.474-0.474,0.791-0.946,0.949
		c-0.158,0.158-0.634,0.472-1.423,0.947c-0.315,0-0.553,0.078-0.711,0.236c-0.946,0.475-1.815,0.947-2.606,1.422
		c-0.63,0.474-1.5,1.027-2.604,1.658l0.473,0.238c0.158,0.315,0.396,0.473,0.711,0.473c0.158,0.158,0.396,0.474,0.711,0.949
		c0,0.157,0.08,0.315,0.238,0.473c0.158,0.158,0.396,0.633,0.711,1.422c0,0.317,0.158,0.789,0.474,1.422
		c0.316,0.631,0.475,1.106,0.475,1.422c0.158,0.631,0.396,1.342,0.711,2.133l0.236,0.236c0.157,0.473,0.396,0.947,0.711,1.422
		c0.158,0.473,0.235,0.868,0.235,1.184c0,0.474-0.077,0.791-0.235,0.949l-0.236,0.236c0,0.316-0.158,0.553-0.475,0.711h-0.476
		l-0.946-0.947l-0.236,0.236c-0.158,0.158-0.553,0.472-1.187,0.947c-0.155,0-0.313,0.078-0.473,0.236
		c-0.633,0.633-1.422,1.106-2.371,1.422v0.475l0.476,0.711c0.157,0.472,0.475,1.341,0.946,2.605h0.238
		c0.158,0,0.631-0.236,1.422-0.711c0.316-0.159,0.631-0.315,0.947-0.473c0.475-0.316,0.869-0.553,1.184-0.711
		c0.476-0.158,0.949-0.474,1.422-0.947h0.238c0.158,0,0.236,0.078,0.236,0.236c0.158,0,0.315,0,0.475,0l0.474,0.236
		c0.315,0.316,0.553,0.553,0.711,0.711c0.475,0.475,0.791,0.947,0.946,1.422c0.158,0.474,0.238,1.027,0.238,1.658L59.9,48.976
		l-0.95-0.236c-0.317,0-0.711-0.08-1.188-0.238h-0.234h-0.477c-0.474,0.158-0.868,0.238-1.185,0.238
		c-0.791,0.315-1.42,0.473-1.896,0.473c-0.472,0.316-1.023,0.553-1.656,0.711v1.658c0,1.106,0.078,1.895,0.234,2.37
		c0.158,0.473,0.397,0.947,0.711,1.422c0.158,0.472,0.633,1.025,1.422,1.658v0.473h-0.945c-0.635,0-1.187-0.078-1.658-0.236
		c-0.477,0-0.87-0.159-1.188-0.475c-0.316,0-0.711-0.314-1.187-0.947c-0.473-0.474-0.867-1.027-1.184-1.658
		c-0.158-0.317-0.475-1.264-0.947-2.843h-0.237H47.1c-0.314,0.158-0.631,0.236-0.945,0.236c-0.633,0.316-1.422,0.474-2.369,0.474
		c-0.317,0.158-0.711,0.236-1.187,0.236l-0.475,0.238c-0.156,0.159-0.236,0.315-0.236,0.473c-0.158,0.159-0.236,0.317-0.236,0.475
		c-0.315,0.475-0.553,1.184-0.711,2.133c0,0.314-0.078,0.631-0.235,0.947c-0.158,0.316-0.238,0.631-0.238,0.947
		c0,0.474,0.08,0.791,0.238,0.949c0.157,0.156,0.235,0.395,0.235,0.711c0.159,0.157,0.317,0.315,0.474,0.473
		c0.157,0.474,0.633,1.027,1.422,1.658v0.475L42.837,61.779L42.837,61.779z M46.63,29.074h0.238c0.158,0,0.631-0.238,1.422-0.711
		c0.158-0.158,0.631-0.397,1.42-0.711c0.633-0.316,1.186-0.633,1.66-0.949c0.474-0.158,1.027-0.395,1.658-0.709
		c0.791-0.474,1.42-0.791,1.896-0.949c0.631-0.158,0.789-0.236,0.475-0.236c0.947-0.317,1.502-0.475,1.656-0.475l0.711-0.473
		c0.317-0.158,0.711-0.474,1.188-0.949v-0.473l-0.947-0.947h-0.238c-0.157,0-0.395,0.078-0.711,0.236
		c-0.313,0.158-0.553,0.236-0.711,0.236c-0.313,0.316-0.946,0.553-1.895,0.711c0.474,0,0.314,0.078-0.477,0.236
		c-0.314,0.158-0.947,0.397-1.896,0.711c-0.315,0.159-0.633,0.317-0.946,0.475c-0.316,0.159-0.713,0.317-1.187,0.475
		c-1.105,0.473-2.056,0.868-2.845,1.184L46.63,29.074z M49.235,41.631c0.473,0,0.945-0.159,1.422-0.473c0.158,0,0.395,0,0.711,0
		c0.314-0.158,0.553-0.238,0.711-0.238c0.472,0.158,1.024,0,1.658-0.473l0.234-0.475c0.158-0.158,0.238-0.395,0.238-0.711
		l-0.238-0.947c-0.156-0.159-0.234-0.317-0.234-0.475c0-0.316-0.078-0.553-0.236-0.711s-0.238-0.395-0.238-0.711
		c-0.155-0.316-0.235-0.553-0.235-0.711c-0.158-0.473-0.236-1.106-0.236-1.895c0-0.791-0.158-1.739-0.475-2.844H52.08
		c-0.158,0-0.316,0.078-0.475,0.236h-0.236c-0.315,0.317-0.633,0.475-0.948,0.475c0,0.159-0.157,0.317-0.474,0.475
		c-0.316,0-0.476,0.078-0.476,0.236c0,0.158-0.157,0.395-0.475,0.711c-0.315,0.159-0.473,0.317-0.473,0.475
		c-0.318,0.472-0.791,1.025-1.424,1.658h1.188c0.312,0,0.631,0.078,0.947,0.236c0.473,0,0.869,0,1.184,0
		c0.949,0.316,1.738,0.553,2.371,0.711v0.475l-0.711,0.473c-0.475,0.474-1.105,0.789-1.896,0.947
		c-0.79,0.475-1.422,0.711-1.895,0.711c-0.475,0.316-1.027,0.553-1.66,0.711v0.475l0.476,0.475c0.157,0.156,0.395,0.395,0.711,0.711
		c0.315,0.314,0.553,0.551,0.711,0.709L49.235,41.631z M42.841,51.344h0.475c0.158,0,0.632-0.08,1.421-0.236
		c0.631,0,1.186-0.159,1.658-0.475c0.475,0,0.788-0.159,0.946-0.475c0.158,0,0.238-0.078,0.238-0.236c0,0.158,0.078,0,0.236-0.475
		c0.156-0.159,0.234-0.315,0.234-0.473c0.158-0.316,0.237-0.553,0.237-0.711c0.158-0.475,0.396-0.947,0.709-1.422
		c0.158-0.474,0.398-1.027,0.712-1.658c0.157-0.316,0.237-0.949,0.237-1.896l-1.187,0.475c-0.79,0.473-1.422,0.711-1.895,0.711
		c-0.477,0.316-0.871,0.553-1.188,0.711c-0.316,0.473-0.711,0.947-1.185,1.422c-0.476,0.79-0.869,1.422-1.186,1.895
		c-0.159,0.317-0.317,0.711-0.475,1.186c-0.157,0.473-0.315,0.868-0.473,1.184L42.841,51.344z M35.73,43.767h0.711
		c0.476,0,1.106-0.08,1.896-0.236c0.791,0,1.58-0.159,2.371-0.475c0.473,0,1.264-0.159,2.369-0.475
		c-0.158,0,0.078-0.078,0.711-0.236l-0.476-0.236c-0.316,0-0.553-0.159-0.711-0.475c-0.159,0-0.316-0.159-0.475-0.473
		c0-0.316-0.078-0.555-0.236-0.711h-0.947l-0.711-0.475c-0.475-0.158-0.87-0.474-1.186-0.947v-0.949l0.238-0.236
		c0.157,0,0.395-0.159,0.711-0.473c0.314,0,0.711-0.159,1.184-0.475c0.474,0,0.791-0.159,0.947-0.475
		c0.159,0,0.317-0.395,0.475-1.184c0-0.475,0.08-0.949,0.236-1.422h-2.369l-0.473-0.475c-0.158-0.159-0.396-0.317-0.711-0.473
		c-0.316-0.159-0.554-0.317-0.711-0.475v1.186c0,0.947-0.08,1.5-0.238,1.658c-0.315,0.473-0.553,0.947-0.711,1.422
		c-0.315,0.789-0.709,1.658-1.185,2.605c-0.158,0.474-0.316,1.027-0.475,1.658c-0.315,0.474-0.473,0.789-0.473,0.947
		c-0.158,0.791-0.238,1.264-0.238,1.422L35.73,43.767z M41.178,24.572c0.633,0,1.344-0.238,2.133-0.711l0.476-3.791l-1.422,0.237
		c-0.633,0.158-1.896,0.236-3.792,0.236v0.238c0,0.315,0.159,0.711,0.474,1.184c0.158,0.633,0.474,1.58,0.949,2.844L41.178,24.572z"
		/>
</g>
</svg>
