<?xml version="1.0" encoding="utf-8"?>
<!-- Generator: Adobe Illustrator 12.0.0, SVG Export Plug-In . SVG Version: 6.00 Build 51448)  -->
<!DOCTYPE svg PUBLIC "-//W3C//DTD SVG 1.1//EN" "http://www.w3.org/Graphics/SVG/1.1/DTD/svg11.dtd" [
	<!ENTITY ns_flows "http://ns.adobe.com/Flows/1.0/">
	<!ENTITY ns_extend "http://ns.adobe.com/Extensibility/1.0/">
	<!ENTITY ns_ai "http://ns.adobe.com/AdobeIllustrator/10.0/">
	<!ENTITY ns_graphs "http://ns.adobe.com/Graphs/1.0/">
	<!ENTITY ns_vars "http://ns.adobe.com/Variables/1.0/">
	<!ENTITY ns_imrep "http://ns.adobe.com/ImageReplacement/1.0/">
	<!ENTITY ns_sfw "http://ns.adobe.com/SaveForWeb/1.0/">
	<!ENTITY ns_custom "http://ns.adobe.com/GenericCustomNamespace/1.0/">
	<!ENTITY ns_adobe_xpath "http://ns.adobe.com/XPath/1.0/">
	<!ENTITY ns_svg "http://www.w3.org/2000/svg">
	<!ENTITY ns_xlink "http://www.w3.org/1999/xlink">
]>
<svg  version="1.1"
	 xmlns:x="&ns_extend;" xmlns:i="&ns_ai;" xmlns:graph="&ns_graphs;" i:viewOrigin="-0.3193 135.7061" i:rulerOrigin="0 0" i:pageBounds="0 136 85 0"
	 xmlns="&ns_svg;" xmlns:xlink="&ns_xlink;" xmlns:a="http://ns.adobe.com/AdobeSVGViewerExtensions/3.0/"
	 width="85.678" height="136.025" viewBox="0 0 85.678 136.025" overflow="visible" enable-background="new 0 0 85.678 136.025"
	 xml:space="preserve">
<metadata>
	<variableSets  xmlns="http://ns.adobe.com/Variables/1.0/">
		<variableSet  varSetName="binding1" locked="none">
			<variables></variables>
			<v:sampleDataSets  xmlns:v="http://ns.adobe.com/Variables/1.0/" xmlns="http://ns.adobe.com/GenericCustomNamespace/1.0/">
				</v:sampleDataSets>
		</variableSet>
	</variableSets>
</metadata>
<g id="图层_1" i:knockout="Off" i:layer="yes" i:dimmedPercent="50" i:rgbTrio="#4F008000FFFF">
	<g i:knockout="Off">
		<path fill="#333333" d="M2.274,99.465v24.962c0,5.149,3.353,9.325,7.481,9.325h68.118c4.133,0,7.484-4.176,7.484-9.325h-0.002
			V9.216c0-4.344-3.352-7.869-7.482-7.869H9.756c-4.131,0-7.481,3.525-7.481,7.869H2.272v90.228
			C2.272,99.45,2.274,99.458,2.274,99.465z"/>
		
			<linearGradient id="XMLID_3_" gradientUnits="userSpaceOnUse" x1="-22.9907" y1="22.7183" x2="-22.9907" y2="148.2847" gradientTransform="matrix(1 0 0 -1 64.8535 158.4238)">
			<stop  offset="0.0899" style="stop-color:#2089B9"/>
			<stop  offset="0.0985" style="stop-color:#4FA3C2"/>
			<stop  offset="0.1071" style="stop-color:#77B9CA"/>
			<stop  offset="0.1138" style="stop-color:#8FC7CF"/>
			<stop  offset="0.118" style="stop-color:#98CCD1"/>
			<stop  offset="0.1341" style="stop-color:#9ECFD3"/>
			<stop  offset="0.156" style="stop-color:#AFD6D9"/>
			<stop  offset="0.1809" style="stop-color:#CBE1E3"/>
			<stop  offset="0.1966" style="stop-color:#E1EAEB"/>
			<a:midPointStop  offset="0.0899" style="stop-color:#2089B9"/>
			<a:midPointStop  offset="0.5" style="stop-color:#2089B9"/>
			<a:midPointStop  offset="0.0985" style="stop-color:#4FA3C2"/>
			<a:midPointStop  offset="0.5" style="stop-color:#4FA3C2"/>
			<a:midPointStop  offset="0.1071" style="stop-color:#77B9CA"/>
			<a:midPointStop  offset="0.5" style="stop-color:#77B9CA"/>
			<a:midPointStop  offset="0.1138" style="stop-color:#8FC7CF"/>
			<a:midPointStop  offset="0.5" style="stop-color:#8FC7CF"/>
			<a:midPointStop  offset="0.118" style="stop-color:#98CCD1"/>
			<a:midPointStop  offset="0.5" style="stop-color:#98CCD1"/>
			<a:midPointStop  offset="0.1341" style="stop-color:#9ECFD3"/>
			<a:midPointStop  offset="0.5" style="stop-color:#9ECFD3"/>
			<a:midPointStop  offset="0.156" style="stop-color:#AFD6D9"/>
			<a:midPointStop  offset="0.5" style="stop-color:#AFD6D9"/>
			<a:midPointStop  offset="0.1809" style="stop-color:#CBE1E3"/>
			<a:midPointStop  offset="0.5" style="stop-color:#CBE1E3"/>
			<a:midPointStop  offset="0.1966" style="stop-color:#E1EAEB"/>
		</linearGradient>
		<path fill="url(#XMLID_3_)" d="M83.405,126.381c0,5.15-3.352,9.325-7.48,9.325H7.804c-4.131,0-7.482-4.177-7.482-9.325V19.465
			c0-5.148,3.354-9.326,7.482-9.326h68.117c4.133,0,7.482,4.176,7.482,9.326v106.916H83.405z"/>
		<path fill="none" stroke="#333333" stroke-width="0.977" d="M83.405,126.381c0,5.15-3.352,9.325-7.48,9.325H7.804
			c-4.131,0-7.482-4.177-7.482-9.325V19.465c0-5.148,3.354-9.326,7.482-9.326h68.117c4.133,0,7.482,4.176,7.482,9.326v106.916
			H83.405z"/>
		<path fill="#FFFFFF" d="M0.32,11.17c0-4.344,3.354-7.869,7.482-7.869h68.118c4.133,0,7.482,3.523,7.482,7.869v90.229
			c0,4.346-3.352,7.869-7.482,7.869H7.802c-4.131,0-7.482-3.523-7.482-7.87L0.32,11.17L0.32,11.17z"/>
		
			<linearGradient id="XMLID_4_" gradientUnits="userSpaceOnUse" x1="3.7021" y1="54.9395" x2="85.8467" y2="54.9395" gradientTransform="matrix(-1 0 0 1 86.6367 1.3447)">
			<stop  offset="0" style="stop-color:#A2D8E0"/>
			<stop  offset="0.0899" style="stop-color:#1878AD"/>
			<stop  offset="0.2135" style="stop-color:#194D91"/>
			<stop  offset="0.6404" style="stop-color:#2B90BD"/>
			<stop  offset="0.9438" style="stop-color:#82CBDE"/>
			<stop  offset="1" style="stop-color:#1A478D"/>
			<a:midPointStop  offset="0" style="stop-color:#A2D8E0"/>
			<a:midPointStop  offset="0.5" style="stop-color:#A2D8E0"/>
			<a:midPointStop  offset="0.0899" style="stop-color:#1878AD"/>
			<a:midPointStop  offset="0.5" style="stop-color:#1878AD"/>
			<a:midPointStop  offset="0.2135" style="stop-color:#194D91"/>
			<a:midPointStop  offset="0.5" style="stop-color:#194D91"/>
			<a:midPointStop  offset="0.6404" style="stop-color:#2B90BD"/>
			<a:midPointStop  offset="0.5" style="stop-color:#2B90BD"/>
			<a:midPointStop  offset="0.9438" style="stop-color:#82CBDE"/>
			<a:midPointStop  offset="0.5" style="stop-color:#82CBDE"/>
			<a:midPointStop  offset="1" style="stop-color:#1A478D"/>
		</linearGradient>
		<path i:isolated="yes" i:knockout="Off" opacity="0.1" fill="url(#XMLID_4_)" enable-background="new    " d="M0.79,11.17
			c0-4.344,3.313-7.869,7.397-7.869h67.347c4.086,0,7.4,3.523,7.4,7.869v90.229c0,4.346-3.314,7.869-7.4,7.869H8.188
			c-4.084,0-7.397-3.523-7.397-7.87V11.17L0.79,11.17z"/>
		<path fill="none" stroke="#4D4D4D" stroke-width="0.977" d="M0.32,101.419v24.962c0,5.148,3.353,9.325,7.482,9.325h68.12
			c4.131,0,7.48-4.175,7.48-9.325V11.171c0-4.346-3.352-7.869-7.482-7.869H7.803c-4.13,0-7.482,3.525-7.482,7.869l-0.001,90.228
			C0.319,101.404,0.32,101.411,0.32,101.419z"/>
	</g>
	<path fill="#333333" d="M47.855,89.79c-0.825,0.136-1.171,0.757-1.032,1.861c0.139,0.55,0.207,1.238,0.207,2.066
		c0,0.826,0.066,1.517,0.207,2.066c0.274,1.652-0.551,2.48-2.48,2.48c-3.033-0.139-4.551-1.241-4.551-3.309c0-1.104,0-2.207,0-3.31
		c0.139-1.241-0.344-1.794-1.447-1.653c-1.103,0-4.135-0.07-9.098-0.207c-5.652-0.14-9.168-0.207-10.548-0.207
		c-1.653-0.138-2.204-0.828-1.653-2.068c1.793-3.998,4.62-5.237,8.479-3.721c4.549,1.654,11.442,2.479,20.678,2.479
		c5.929-0.138,11.926-0.964,17.99-2.479c1.654-0.553,2.826-0.484,3.516,0.205c0.554,0.829,0.347,1.862-0.618,3.104
		c-0.689,0.826-1.793,1.517-3.31,2.066c-1.519,0.414-2.689,0.482-3.517,0.207c-0.828-0.275-2-0.414-3.516-0.414
		C53.991,89.099,50.89,89.374,47.855,89.79z M50.546,80.688c-0.551,1.381-1.655,1.726-3.309,1.035
		c-2.205-0.965-2.553-2.551-1.035-4.756c3.723-4.412,8.824-6.963,15.303-7.65c0.828-0.139,1.312,0.066,1.447,0.619
		c0.139,0.553-0.138,1.033-0.826,1.447C55.646,73.728,51.786,76.829,50.546,80.688z M38.967,76.553c0.965,1.654,0.965,3.24,0,4.756
		c-1.791,1.24-3.17,1.104-4.135-0.414c-1.931-4.135-5.517-7.582-10.754-10.338c-1.102-0.688-1.587-1.379-1.447-2.068
		c0.274-0.689,1.033-0.828,2.274-0.414C30.833,70.419,35.521,73.245,38.967,76.553z"/>
	<path fill="#D90000" d="M42.837,60.273h-1.188c-0.791,0-1.502-0.08-2.133-0.238c-0.632,0-1.263-0.236-1.896-0.711
		c-0.789-0.158-1.265-0.472-1.423-0.947c-0.314-0.158-0.553-0.474-0.711-0.947c-0.155-0.158-0.235-0.395-0.235-0.711l0.235-0.711
		c0.158-0.317,0.397-0.711,0.711-1.184c0.158-0.475,0.397-0.949,0.712-1.422c0.157-0.317,0.237-0.711,0.237-1.186l-0.949,0.236
		c-0.631,0.316-0.788,0.396-0.473,0.238c-0.316,0.158-0.711,0.236-1.186,0.236c-0.474,0.317-0.947,0.475-1.422,0.475
		c-0.474,0.156-0.868,0.236-1.185,0.236c-0.315,0-0.633-0.08-0.949-0.236c-0.155,0-0.395-0.159-0.709-0.475
		c-0.315-0.159-0.553-0.317-0.711-0.475l-0.237-0.236c-0.632-0.317-1.184-0.79-1.658-1.423v-0.473h0.475
		c0.158,0,0.869-0.08,2.133-0.236c1.106,0,2.054-0.159,2.843-0.475c0.791,0,1.659-0.159,2.606-0.475c0.317,0,0.711,0,1.185,0
		c0.633-0.158,1.185-0.236,1.657-0.236l0.476-0.475c0.316-0.158,0.711-0.631,1.186-1.422c0.158-0.158,0.396-0.395,0.711-0.709
		c0.315-0.474,0.554-0.791,0.711-0.949c0.474-0.472,0.868-1.025,1.184-1.658h-0.236h-0.475c-0.314,0.158-0.631,0.236-0.947,0.236
		c-0.789,0.317-1.816,0.475-3.08,0.475c-1.264,0.158-2.211,0.236-2.844,0.236c-0.631,0-1.184-0.078-1.658-0.236
		c-0.159,0-0.553-0.159-1.186-0.475c-0.157-0.159-0.315-0.315-0.474-0.473c-0.791-0.475-1.264-0.949-1.422-1.422
		c-0.316-0.475-0.553-0.947-0.711-1.422c-0.158-0.317-0.236-0.711-0.236-1.186l0.711-0.947c0.474-0.473,0.947-1.184,1.42-2.133
		c0.476-0.631,0.949-1.422,1.423-2.369c0.475-0.631,0.869-1.342,1.186-2.133c0.316-0.631,1.105-1.578,2.369-2.842h0.475l1.42,1.422
		l0.476-0.238c0.315,0,0.633-0.159,0.947-0.473c0.157,0,0.396-0.08,0.711-0.238c0.315-0.158,0.553-0.236,0.711-0.236
		c0.633,0,1.028-0.159,1.186-0.475c0.159,0,0.317-0.473,0.473-1.42c0-0.791,0.08-1.502,0.238-2.133l-0.949,0.236
		c-0.63,0.316-1.736,0.553-3.316,0.711c-1.58,0.473-3.08,0.711-4.502,0.711c-1.422,0.158-2.687,0.236-3.791,0.236
		c-0.474,0-1.106,0.08-1.896,0.238H28.62c-0.315,0.156-0.711,0.236-1.185,0.236c-0.475,0-0.947-0.08-1.422-0.236
		c-0.159,0-0.553-0.159-1.186-0.475c-0.157-0.159-0.315-0.317-0.474-0.475c-0.791-0.473-1.264-0.947-1.422-1.422
		c-0.159-0.159-0.317-0.315-0.475-0.473c0-0.316-0.078-0.553-0.236-0.711c-0.158-0.158-0.236-0.474-0.236-0.947l0.236-0.238
		c0.158,0,0.395-0.395,0.711-1.184c0.316-0.474,0.631-1.343,0.947-2.607c0-0.317,0.159-0.789,0.475-1.422
		c0.317-0.789,0.474-1.342,0.474-1.658c0.316-0.948,0.711-1.895,1.186-2.844c0.475-0.789,0.947-1.5,1.422-2.131
		c0.159-0.158,0.317-0.395,0.474-0.711c0.158-0.316,0.553-0.869,1.186-1.66c0.316-0.315,0.633-0.709,0.947-1.184
		c0.315-0.316,0.553-0.553,0.711-0.711c0.158-0.158,0.395-0.395,0.711-0.711l0.475-0.236c0.158-0.158,0.631-0.238,1.422-0.238
		l0.711,0.949c0.158,0.316,0.396,0.631,0.709,0.947c0.316,0.316,0.556,0.633,0.711,0.947c0.158,0.316,0.397,0.633,0.712,0.947
		c0.315,0.316,0.553,0.633,0.711,0.949c0.474,0.631,1.026,1.183,1.657,1.658h-0.709c-0.475,0-1.264,0-2.371,0
		c-1.104-0.158-1.894-0.236-2.368-0.236s-0.868,0.078-1.185,0.236h-0.237c-0.315,0.159-0.554,0.317-0.712,0.475
		c-0.313,0.472-0.394,0.55-0.235,0.236c-0.158,0.315-0.396,0.948-0.711,1.895c0,0.159-0.078,0.553-0.236,1.186
		c-0.316,0.947-0.553,1.738-0.711,2.369c-0.316,1.422-0.553,2.606-0.711,3.555c-0.158,0.947-0.236,1.736-0.236,2.369l0.474,0.473
		h2.133c1.422,0,2.763-0.078,4.026-0.236c0.791,0,2.056-0.236,3.791-0.711L38.1,22.831c-0.317-0.317-0.791-0.711-1.422-1.186
		c-0.633-0.474-1.185-1.027-1.658-1.658c-0.315-0.317-0.553-0.711-0.711-1.186c0,0.316-0.078,0.158-0.236-0.473
		c-0.157-0.475-0.237-0.949-0.237-1.422c0-0.317,0.08-0.711,0.237-1.186l0.236-0.236c0.159-0.316,0.317-0.553,0.473-0.711h0.238
		c0.158,0,0.236,0.078,0.236,0.236c0.159,0,0.316,0,0.475,0l0.236,0.238c0.317,0.315,0.711,0.789,1.186,1.42l1.42-0.236
		c0.949,0,1.897-0.159,2.845-0.473c0.949,0,2.054-0.316,3.318-0.949c1.262-0.473,2.368-0.947,3.314-1.422
		c0.315-0.159,0.633-0.315,0.946-0.473c0.316-0.159,0.634-0.317,0.947-0.475h0.237c0.159-0.158,0.316-0.236,0.474-0.236h0.235
		c0.316,0.158,0.556,0.236,0.711,0.236c0.476,0.316,0.87,0.553,1.187,0.711c0.158,0.158,0.236,0.395,0.236,0.711
		c0.158,0.159,0.316,0.317,0.475,0.475c0.158,0.473,0.236,0.868,0.236,1.184l-0.474,0.475l-0.711-0.236
		c-0.158,0-0.395-0.08-0.711-0.238h-0.238c-0.155,0-0.313,0.08-0.473,0.238c-0.315,0.156-0.553,0.236-0.711,0.236
		c-0.631,0.472-1.184,0.789-1.658,0.947c-0.475,0.475-0.789,0.711-0.946,0.711c-0.158,0.159-0.238,0.317-0.238,0.475l-0.235,0.236
		c-0.158,0.158-0.235,1.106-0.235,2.844l0.712-0.238c0.473,0,1.104-0.236,1.895-0.711c0.316-0.159,0.791-0.315,1.422-0.473
		c0.631-0.316,1.105-0.553,1.422-0.711c0.158-0.159,0.474-0.317,0.947-0.475c1.104-0.317,2.133-0.711,3.08-1.184l-0.476-1.422
		c-0.315-0.949-0.554-1.897-0.711-2.844c-0.155-0.474-0.235-1.58-0.235-3.316l0.475-0.475V8.612l0.711,0.947
		c0.158,0.158,0.396,0.395,0.711,0.711c0.159,0.474,0.314,0.789,0.474,0.947c0.158,0.316,0.396,0.553,0.711,0.711
		c0.158,0.475,0.235,0.87,0.235,1.186c0,0.473,0.08,0.947,0.238,1.422c0,0.157,0.078,0.315,0.236,0.473
		c0.158,0.475,0.315,0.87,0.475,1.186h0.236c0.158,0,0.395-0.08,0.711-0.236c0.158,0,0.474-0.238,0.947-0.711h0.236
		c0.158,0,0.235,0.078,0.235,0.236c0.16,0,0.318,0,0.474,0l0.238,0.236c0.317,0.317,0.711,0.791,1.185,1.422v0.947l-0.474,0.475
		l-0.476-0.475h-0.476h-0.473c-0.316,0.158-0.553,0.238-0.711,0.238c-0.158,0.157-0.396,0.315-0.711,0.473
		c-0.159,0-0.317,0.08-0.477,0.238v0.947c0,0.789-0.076,1.264-0.234,1.422c-0.158,0.472-0.476,0.789-0.947,0.947
		c-0.158,0.158-0.633,0.474-1.422,0.947c-0.316,0-0.553,0.08-0.711,0.238c-0.947,0.473-1.816,0.947-2.605,1.42
		c-0.632,0.474-1.502,1.027-2.606,1.66l0.476,0.236c0.157,0.317,0.396,0.475,0.711,0.475c0.158,0.156,0.396,0.472,0.711,0.947
		c0,0.159,0.078,0.315,0.235,0.473c0.158,0.158,0.396,0.633,0.712,1.422c0,0.317,0.159,0.791,0.473,1.422
		c0.317,0.633,0.477,1.106,0.477,1.422c0.158,0.633,0.395,1.342,0.711,2.133l0.235,0.236c0.157,0.475,0.396,0.947,0.712,1.422
		c0.156,0.475,0.236,0.87,0.236,1.186c0,0.472-0.08,0.789-0.236,0.947l-0.236,0.236c0,0.316-0.159,0.553-0.476,0.711h-0.474
		l-0.949-0.947l-0.234,0.236c-0.16,0.158-0.554,0.474-1.186,0.947c-0.158,0-0.316,0.08-0.476,0.238
		c-0.633,0.631-1.422,1.106-2.368,1.422v0.473l0.473,0.711c0.158,0.474,0.475,1.343,0.949,2.607h0.235
		c0.158,0,0.634-0.238,1.422-0.711c0.316-0.159,0.634-0.317,0.947-0.475c0.476-0.316,0.871-0.553,1.187-0.711
		c0.474-0.158,0.946-0.474,1.422-0.947h0.235c0.158,0,0.236,0.078,0.236,0.236c0.158,0,0.316,0,0.475,0l0.474,0.236
		c0.315,0.316,0.557,0.553,0.711,0.711c0.475,0.475,0.791,0.949,0.949,1.422c0.157,0.474,0.235,1.027,0.235,1.658l-0.475,0.475
		l-0.947-0.236c-0.316,0-0.711-0.08-1.185-0.238h-0.237h-0.474c-0.475,0.158-0.87,0.238-1.186,0.238
		c-0.791,0.315-1.422,0.473-1.896,0.473c-0.474,0.316-1.025,0.553-1.66,0.711v1.66c0,1.105,0.08,1.895,0.238,2.368
		c0.157,0.475,0.396,0.949,0.711,1.422c0.158,0.474,0.631,1.027,1.42,1.658v0.475h-0.945c-0.633,0-1.185-0.078-1.658-0.236
		c-0.475,0-0.871-0.159-1.188-0.475c-0.314,0-0.709-0.316-1.185-0.947c-0.473-0.474-0.869-1.027-1.184-1.658
		c-0.158-0.317-0.475-1.265-0.949-2.845h-0.235H47.1c-0.314,0.158-0.633,0.238-0.947,0.238c-0.632,0.315-1.42,0.473-2.369,0.473
		c-0.315,0.158-0.711,0.236-1.185,0.236l-0.475,0.238c-0.158,0.159-0.236,0.315-0.236,0.473c-0.158,0.159-0.236,0.318-0.236,0.476
		c-0.315,0.473-0.553,1.184-0.711,2.133c0,0.314-0.08,0.631-0.237,0.947c-0.158,0.314-0.236,0.631-0.236,0.947
		c0,0.474,0.078,0.789,0.236,0.947c0.157,0.158,0.237,0.395,0.237,0.711c0.159,0.159,0.315,0.317,0.474,0.475
		c0.157,0.472,0.633,1.027,1.422,1.658v0.475L42.837,60.273L42.837,60.273z M46.628,27.566h0.236c0.157,0,0.633-0.238,1.422-0.711
		c0.158-0.158,0.633-0.395,1.422-0.711c0.633-0.316,1.185-0.633,1.658-0.947c0.474-0.158,1.025-0.397,1.658-0.711
		c0.79-0.474,1.42-0.791,1.896-0.947c0.631-0.158,0.788-0.238,0.473-0.238c0.949-0.317,1.503-0.473,1.66-0.473l0.711-0.475
		c0.315-0.158,0.711-0.474,1.186-0.947v-0.475l-0.947-0.947h-0.236c-0.157,0-0.396,0.078-0.711,0.236
		c-0.315,0.158-0.553,0.236-0.711,0.236c-0.315,0.316-0.946,0.553-1.896,0.711c0.475,0,0.315,0.08-0.474,0.238
		c-0.315,0.158-0.948,0.395-1.896,0.711c-0.315,0.157-0.629,0.314-0.946,0.473c-0.316,0.159-0.711,0.317-1.187,0.475
		c-1.105,0.473-2.054,0.87-2.842,1.184L46.628,27.566z M49.235,40.122c0.473,0,0.945-0.159,1.42-0.473c0.157,0,0.395,0,0.711,0
		c0.314-0.158,0.553-0.238,0.711-0.238c0.474,0.158,1.026,0,1.658-0.473l0.236-0.475c0.158-0.158,0.235-0.395,0.235-0.711
		l-0.235-0.947c-0.157-0.159-0.236-0.317-0.236-0.475c0-0.315-0.078-0.553-0.236-0.711c-0.158-0.158-0.236-0.395-0.236-0.709
		c-0.157-0.316-0.237-0.555-0.237-0.711c-0.158-0.474-0.236-1.107-0.236-1.896c0-0.789-0.158-1.739-0.475-2.844h-0.236
		c-0.158,0-0.316,0.08-0.475,0.238h-0.236c-0.315,0.315-0.631,0.473-0.946,0.473c0,0.159-0.159,0.317-0.476,0.475
		c-0.314,0-0.474,0.078-0.474,0.236c0,0.158-0.158,0.395-0.475,0.711c-0.315,0.159-0.473,0.317-0.473,0.475
		c-0.318,0.472-0.791,1.025-1.424,1.658h1.186c0.314,0,0.633,0.078,0.949,0.236c0.473,0,0.866,0,1.184,0
		c0.947,0.316,1.736,0.553,2.369,0.711v0.475l-0.711,0.473c-0.474,0.474-1.106,0.791-1.896,0.949
		c-0.791,0.473-1.421,0.711-1.896,0.711c-0.473,0.315-1.025,0.553-1.658,0.711v0.473l0.475,0.475
		c0.158,0.158,0.396,0.395,0.712,0.711c0.315,0.315,0.553,0.553,0.711,0.711L49.235,40.122z M42.841,49.837h0.475
		c0.158,0,0.63-0.078,1.421-0.236c0.631,0,1.184-0.159,1.658-0.475c0.473,0,0.788-0.159,0.946-0.473c0.158,0,0.236-0.08,0.236-0.238
		c0,0.158,0.08,0,0.238-0.473c0.156-0.159,0.234-0.317,0.234-0.475c0.158-0.316,0.235-0.553,0.235-0.711
		c0.158-0.475,0.396-0.947,0.711-1.422c0.158-0.472,0.396-1.025,0.712-1.658c0.157-0.317,0.235-0.948,0.235-1.895l-1.185,0.473
		c-0.789,0.475-1.421,0.711-1.896,0.711c-0.474,0.316-0.867,0.553-1.185,0.711c-0.315,0.475-0.711,0.947-1.186,1.422
		c-0.473,0.79-0.868,1.422-1.185,1.895c-0.159,0.317-0.316,0.711-0.475,1.186c-0.159,0.475-0.317,0.87-0.475,1.186L42.841,49.837z
		 M35.73,42.259h0.711c0.474,0,1.106-0.078,1.896-0.236c0.791,0,1.58-0.159,2.369-0.475c0.474,0,1.264-0.159,2.369-0.473
		c-0.156,0,0.08-0.08,0.711-0.238l-0.474-0.236c-0.316,0-0.553-0.159-0.711-0.475c-0.159,0-0.316-0.159-0.475-0.473
		c0-0.316-0.078-0.553-0.236-0.711h-0.947l-0.711-0.475c-0.475-0.158-0.87-0.474-1.186-0.947v-0.947l0.235-0.238
		c0.158,0,0.397-0.159,0.712-0.473c0.316,0,0.711-0.159,1.186-0.475c0.474,0,0.789-0.159,0.947-0.473
		c0.159,0,0.317-0.397,0.475-1.186c0-0.475,0.078-0.947,0.236-1.422h-2.369l-0.475-0.475c-0.156-0.159-0.396-0.315-0.712-0.473
		c-0.314-0.159-0.553-0.317-0.711-0.475v1.186c0,0.947-0.077,1.5-0.235,1.658c-0.315,0.473-0.554,0.947-0.711,1.422
		c-0.315,0.789-0.711,1.658-1.185,2.605c-0.159,0.474-0.316,1.027-0.475,1.658c-0.317,0.474-0.476,0.791-0.476,0.949
		c-0.155,0.789-0.235,1.264-0.235,1.422L35.73,42.259z M41.178,23.065c0.631,0,1.342-0.238,2.133-0.711l0.474-3.791l-1.422,0.236
		c-0.631,0.158-1.895,0.238-3.792,0.238v0.236c0,0.317,0.159,0.711,0.476,1.184c0.158,0.633,0.474,1.58,0.947,2.844L41.178,23.065z"
		/>
</g>
</svg>
