<?xml version="1.0" encoding="utf-8"?>
<!-- Generator: Adobe Illustrator 12.0.0, SVG Export Plug-In . SVG Version: 6.00 Build 51448)  -->
<!DOCTYPE svg PUBLIC "-//W3C//DTD SVG 1.1//EN" "http://www.w3.org/Graphics/SVG/1.1/DTD/svg11.dtd" [
	<!ENTITY ns_flows "http://ns.adobe.com/Flows/1.0/">
	<!ENTITY ns_extend "http://ns.adobe.com/Extensibility/1.0/">
	<!ENTITY ns_ai "http://ns.adobe.com/AdobeIllustrator/10.0/">
	<!ENTITY ns_graphs "http://ns.adobe.com/Graphs/1.0/">
	<!ENTITY ns_vars "http://ns.adobe.com/Variables/1.0/">
	<!ENTITY ns_imrep "http://ns.adobe.com/ImageReplacement/1.0/">
	<!ENTITY ns_sfw "http://ns.adobe.com/SaveForWeb/1.0/">
	<!ENTITY ns_custom "http://ns.adobe.com/GenericCustomNamespace/1.0/">
	<!ENTITY ns_adobe_xpath "http://ns.adobe.com/XPath/1.0/">
	<!ENTITY ns_svg "http://www.w3.org/2000/svg">
	<!ENTITY ns_xlink "http://www.w3.org/1999/xlink">
]>
<svg  version="1.1"
	 xmlns:x="&ns_extend;" xmlns:i="&ns_ai;" xmlns:graph="&ns_graphs;" i:viewOrigin="-0.3193 135.7061" i:rulerOrigin="0 0" i:pageBounds="0 136 85 0"
	 xmlns="&ns_svg;" xmlns:xlink="&ns_xlink;" xmlns:a="http://ns.adobe.com/AdobeSVGViewerExtensions/3.0/"
	 width="85.678" height="136.025" viewBox="0 0 85.678 136.025" overflow="visible" enable-background="new 0 0 85.678 136.025"
	 xml:space="preserve">
<metadata>
	<variableSets  xmlns="http://ns.adobe.com/Variables/1.0/">
		<variableSet  varSetName="binding1" locked="none">
			<variables></variables>
			<v:sampleDataSets  xmlns:v="http://ns.adobe.com/Variables/1.0/" xmlns="http://ns.adobe.com/GenericCustomNamespace/1.0/">
				</v:sampleDataSets>
		</variableSet>
	</variableSets>
</metadata>
<g id="图层_1" i:knockout="Off" i:layer="yes" i:dimmedPercent="50" i:rgbTrio="#4F008000FFFF">
	<g i:knockout="Off">
		<path fill="#333333" d="M2.274,99.465v24.962c0,5.149,3.353,9.325,7.481,9.325h68.118c4.133,0,7.484-4.176,7.484-9.325h-0.002
			V9.216c0-4.344-3.352-7.869-7.482-7.869H9.756c-4.131,0-7.481,3.525-7.481,7.869H2.272v90.228
			C2.272,99.45,2.274,99.458,2.274,99.465z"/>
		
			<linearGradient id="XMLID_3_" gradientUnits="userSpaceOnUse" x1="-22.9907" y1="22.7183" x2="-22.9907" y2="148.2847" gradientTransform="matrix(1 0 0 -1 64.8535 158.4238)">
			<stop  offset="0.0899" style="stop-color:#2089B9"/>
			<stop  offset="0.0985" style="stop-color:#4FA3C2"/>
			<stop  offset="0.1071" style="stop-color:#77B9CA"/>
			<stop  offset="0.1138" style="stop-color:#8FC7CF"/>
			<stop  offset="0.118" style="stop-color:#98CCD1"/>
			<stop  offset="0.1341" style="stop-color:#9ECFD3"/>
			<stop  offset="0.156" style="stop-color:#AFD6D9"/>
			<stop  offset="0.1809" style="stop-color:#CBE1E3"/>
			<stop  offset="0.1966" style="stop-color:#E1EAEB"/>
			<a:midPointStop  offset="0.0899" style="stop-color:#2089B9"/>
			<a:midPointStop  offset="0.5" style="stop-color:#2089B9"/>
			<a:midPointStop  offset="0.0985" style="stop-color:#4FA3C2"/>
			<a:midPointStop  offset="0.5" style="stop-color:#4FA3C2"/>
			<a:midPointStop  offset="0.1071" style="stop-color:#77B9CA"/>
			<a:midPointStop  offset="0.5" style="stop-color:#77B9CA"/>
			<a:midPointStop  offset="0.1138" style="stop-color:#8FC7CF"/>
			<a:midPointStop  offset="0.5" style="stop-color:#8FC7CF"/>
			<a:midPointStop  offset="0.118" style="stop-color:#98CCD1"/>
			<a:midPointStop  offset="0.5" style="stop-color:#98CCD1"/>
			<a:midPointStop  offset="0.1341" style="stop-color:#9ECFD3"/>
			<a:midPointStop  offset="0.5" style="stop-color:#9ECFD3"/>
			<a:midPointStop  offset="0.156" style="stop-color:#AFD6D9"/>
			<a:midPointStop  offset="0.5" style="stop-color:#AFD6D9"/>
			<a:midPointStop  offset="0.1809" style="stop-color:#CBE1E3"/>
			<a:midPointStop  offset="0.5" style="stop-color:#CBE1E3"/>
			<a:midPointStop  offset="0.1966" style="stop-color:#E1EAEB"/>
		</linearGradient>
		<path fill="url(#XMLID_3_)" d="M83.405,126.381c0,5.15-3.352,9.325-7.48,9.325H7.804c-4.131,0-7.482-4.177-7.482-9.325V19.465
			c0-5.148,3.354-9.326,7.482-9.326h68.117c4.133,0,7.482,4.176,7.482,9.326v106.916H83.405z"/>
		<path fill="none" stroke="#333333" stroke-width="0.977" d="M83.405,126.381c0,5.15-3.352,9.325-7.48,9.325H7.804
			c-4.131,0-7.482-4.177-7.482-9.325V19.465c0-5.148,3.354-9.326,7.482-9.326h68.117c4.133,0,7.482,4.176,7.482,9.326v106.916
			H83.405z"/>
		<path fill="#FFFFFF" d="M0.32,11.17c0-4.344,3.354-7.869,7.482-7.869h68.118c4.133,0,7.482,3.523,7.482,7.869v90.229
			c0,4.346-3.352,7.869-7.482,7.869H7.802c-4.131,0-7.482-3.523-7.482-7.87L0.32,11.17L0.32,11.17z"/>
		
			<linearGradient id="XMLID_4_" gradientUnits="userSpaceOnUse" x1="3.7021" y1="54.9395" x2="85.8467" y2="54.9395" gradientTransform="matrix(-1 0 0 1 86.6367 1.3447)">
			<stop  offset="0" style="stop-color:#A2D8E0"/>
			<stop  offset="0.0899" style="stop-color:#1878AD"/>
			<stop  offset="0.2135" style="stop-color:#194D91"/>
			<stop  offset="0.6404" style="stop-color:#2B90BD"/>
			<stop  offset="0.9438" style="stop-color:#82CBDE"/>
			<stop  offset="1" style="stop-color:#1A478D"/>
			<a:midPointStop  offset="0" style="stop-color:#A2D8E0"/>
			<a:midPointStop  offset="0.5" style="stop-color:#A2D8E0"/>
			<a:midPointStop  offset="0.0899" style="stop-color:#1878AD"/>
			<a:midPointStop  offset="0.5" style="stop-color:#1878AD"/>
			<a:midPointStop  offset="0.2135" style="stop-color:#194D91"/>
			<a:midPointStop  offset="0.5" style="stop-color:#194D91"/>
			<a:midPointStop  offset="0.6404" style="stop-color:#2B90BD"/>
			<a:midPointStop  offset="0.5" style="stop-color:#2B90BD"/>
			<a:midPointStop  offset="0.9438" style="stop-color:#82CBDE"/>
			<a:midPointStop  offset="0.5" style="stop-color:#82CBDE"/>
			<a:midPointStop  offset="1" style="stop-color:#1A478D"/>
		</linearGradient>
		<path i:isolated="yes" i:knockout="Off" opacity="0.1" fill="url(#XMLID_4_)" enable-background="new    " d="M0.79,11.17
			c0-4.344,3.313-7.869,7.397-7.869h67.347c4.086,0,7.4,3.523,7.4,7.869v90.229c0,4.346-3.314,7.869-7.4,7.869H8.188
			c-4.084,0-7.397-3.523-7.397-7.87V11.17L0.79,11.17z"/>
		<path fill="none" stroke="#4D4D4D" stroke-width="0.977" d="M0.32,101.419v24.962c0,5.148,3.353,9.325,7.482,9.325h68.12
			c4.131,0,7.48-4.175,7.48-9.325V11.171c0-4.346-3.352-7.869-7.482-7.869H7.803c-4.13,0-7.482,3.525-7.482,7.869l-0.001,90.228
			C0.319,101.404,0.32,101.411,0.32,101.419z"/>
	</g>
	<path fill="#333333" d="M49.589,97.083c0,1.378-0.965,1.929-2.895,1.654c-1.654-0.555-2.48-1.52-2.48-2.896
		c0.275-2.207-0.07-3.171-1.035-2.896c-1.791,0-3.309,0.273-4.549,0.826c-1.655,0.553-2.963,0.413-3.931-0.412
		c-0.965-0.967-1.032-2.069-0.204-3.311c3.584-4.687,4.202-8.685,1.858-11.994c-2.756-3.444-8.34-4.205-16.748-2.272
		c-0.828,0.138-1.379,0.067-1.653-0.206c-0.14-0.14-0.14-0.555,0-1.241c1.654-4.825,4.756-7.169,9.305-7.03
		c6.892,0.827,11.304,3.86,13.233,9.098c0.414,1.516,0.414,5.515,0,11.992c-0.139,0.689,0.414,1.104,1.654,1.24
		c1.929,0.141,2.757-0.414,2.479-1.652c-0.137-6.344,2.344-11.58,7.445-15.717c6.342-4.272,11.373-4.826,15.096-1.652
		c0.552,0.551,0.759,0.965,0.619,1.238c-0.135,0.413-0.619,0.689-1.446,0.827c-11.854,1.519-17.716,6.616-17.576,15.304
		c-0.273,2.344,3.033,2.067,9.927-0.826c1.24-0.555,2.138-0.621,2.688-0.207c0.414,0.551,0.346,1.448-0.207,2.688
		c-1.377,2.483-3.17,3.448-5.375,2.896c-0.276-0.14-1.379-0.069-3.309,0.206c-0.689,0.139-1.24,0.207-1.654,0.207
		C49.729,92.533,49.313,93.912,49.589,97.083z"/>
	<path fill="#D90000" d="M42.974,59.158H41.79c-0.791,0-1.502-0.08-2.134-0.238c-0.632,0-1.263-0.236-1.896-0.711
		c-0.789-0.158-1.262-0.472-1.42-0.947c-0.316-0.158-0.553-0.474-0.711-0.947c-0.158-0.158-0.238-0.395-0.238-0.711l0.238-0.711
		c0.158-0.317,0.395-0.711,0.711-1.184c0.158-0.475,0.395-0.949,0.711-1.422c0.158-0.317,0.236-0.712,0.236-1.187l-0.948,0.245
		c-0.633,0.314-0.791,0.395-0.476,0.236c-0.316,0.159-0.711,0.237-1.186,0.237c-0.473,0.317-0.947,0.475-1.42,0.475
		c-0.475,0.156-0.87,0.236-1.187,0.236c-0.315,0-0.631-0.08-0.946-0.236c-0.158,0-0.396-0.159-0.711-0.475
		c-0.316-0.16-0.554-0.318-0.711-0.474l-0.236-0.238c-0.633-0.317-1.186-0.789-1.66-1.422v-0.473h0.475
		c0.158,0,0.869-0.08,2.134-0.236c1.105,0,2.053-0.159,2.844-0.475c0.789,0,1.658-0.159,2.604-0.475c0.317,0,0.712,0,1.187,0
		c0.631-0.158,1.183-0.236,1.658-0.236l0.473-0.475c0.317-0.158,0.711-0.631,1.187-1.422c0.157-0.158,0.395-0.395,0.711-0.709
		c0.315-0.474,0.553-0.791,0.711-0.949c0.473-0.472,0.87-1.025,1.184-1.658h-0.236h-0.477c-0.314,0.158-0.631,0.236-0.947,0.236
		c-0.789,0.317-1.815,0.475-3.08,0.475c-1.264,0.158-2.211,0.236-2.844,0.236c-0.631,0-1.183-0.078-1.658-0.236
		c-0.159,0-0.553-0.159-1.184-0.475c-0.159-0.159-0.317-0.315-0.476-0.473c-0.788-0.475-1.264-0.949-1.422-1.422
		c-0.315-0.475-0.553-0.947-0.711-1.422c-0.158-0.317-0.235-0.711-0.235-1.186l0.711-0.947c0.473-0.473,0.946-1.184,1.422-2.133
		c0.473-0.631,0.947-1.422,1.422-2.369c0.473-0.631,0.868-1.342,1.184-2.133c0.316-0.631,1.105-1.578,2.369-2.842h0.476l1.422,1.422
		l0.473-0.238c0.316,0,0.633-0.159,0.949-0.473c0.158,0,0.395-0.08,0.711-0.238c0.313-0.158,0.553-0.236,0.709-0.236
		c0.633,0,1.028-0.159,1.186-0.475c0.159,0,0.317-0.473,0.475-1.42c0-0.791,0.078-1.502,0.236-2.133L42.5,24.33
		c-0.631,0.316-1.738,0.553-3.318,0.711c-1.578,0.473-3.08,0.711-4.502,0.711c-1.42,0.158-2.684,0.236-3.791,0.236
		c-0.473,0-1.105,0.08-1.895,0.238h-0.236c-0.317,0.156-0.711,0.236-1.187,0.236c-0.473,0-0.946-0.08-1.422-0.236
		c-0.158,0-0.553-0.159-1.184-0.475c-0.159-0.159-0.317-0.317-0.475-0.475c-0.789-0.473-1.265-0.947-1.423-1.422
		c-0.158-0.159-0.316-0.315-0.475-0.473c0-0.316-0.078-0.553-0.236-0.711c-0.157-0.158-0.235-0.474-0.235-0.947l0.235-0.238
		c0.158,0,0.396-0.395,0.711-1.184c0.316-0.474,0.634-1.343,0.947-2.607c0-0.317,0.159-0.789,0.476-1.422
		c0.316-0.789,0.475-1.342,0.475-1.658c0.314-0.948,0.711-1.895,1.184-2.844c0.476-0.789,0.949-1.5,1.422-2.131
		c0.159-0.158,0.316-0.395,0.476-0.711c0.159-0.316,0.553-0.869,1.184-1.66c0.316-0.315,0.633-0.709,0.947-1.184
		c0.316-0.316,0.555-0.553,0.711-0.711c0.158-0.158,0.397-0.395,0.711-0.711l0.476-0.236c0.157-0.158,0.633-0.238,1.422-0.238
		l0.711,0.949c0.157,0.316,0.395,0.631,0.711,0.947c0.315,0.316,0.553,0.633,0.711,0.947c0.158,0.316,0.395,0.633,0.711,0.947
		c0.314,0.316,0.553,0.633,0.711,0.949c0.472,0.631,1.025,1.183,1.658,1.658H38c-0.475,0-1.265,0-2.369,0
		c-1.105-0.158-1.896-0.236-2.369-0.236c-0.475,0-0.87,0.078-1.186,0.236H31.84c-0.316,0.159-0.553,0.317-0.711,0.475
		c-0.316,0.472-0.395,0.55-0.238,0.236c-0.156,0.315-0.395,0.948-0.711,1.895c0,0.159-0.078,0.553-0.236,1.186
		c-0.314,0.947-0.553,1.738-0.711,2.369c-0.314,1.422-0.553,2.606-0.711,3.555c-0.158,0.947-0.235,1.736-0.235,2.369l0.475,0.473
		h2.131c1.422,0,2.765-0.078,4.029-0.236c0.789,0,2.053-0.236,3.791-0.711l-0.476-0.473c-0.316-0.317-0.789-0.711-1.422-1.186
		c-0.631-0.474-1.183-1.027-1.658-1.658c-0.315-0.317-0.553-0.711-0.711-1.186c0,0.316-0.077,0.158-0.235-0.473
		c-0.158-0.475-0.238-0.949-0.238-1.422c0-0.317,0.08-0.711,0.238-1.186l0.235-0.236c0.159-0.316,0.317-0.553,0.476-0.711h0.235
		c0.158,0,0.236,0.078,0.236,0.236c0.159,0,0.317,0,0.476,0l0.235,0.238c0.317,0.315,0.711,0.789,1.187,1.42l1.422-0.236
		c0.947,0,1.895-0.159,2.842-0.473c0.949,0,2.055-0.316,3.318-0.949c1.263-0.473,2.369-0.947,3.315-1.422
		c0.315-0.159,0.634-0.315,0.946-0.473c0.315-0.159,0.633-0.317,0.948-0.475h0.236c0.159-0.158,0.316-0.236,0.476-0.236h0.235
		c0.315,0.158,0.553,0.236,0.711,0.236c0.476,0.316,0.871,0.553,1.187,0.711c0.158,0.158,0.235,0.395,0.235,0.711
		c0.16,0.159,0.317,0.317,0.476,0.475c0.158,0.473,0.235,0.868,0.235,1.184l-0.475,0.475l-0.711-0.236
		c-0.156,0-0.396-0.08-0.712-0.238h-0.235c-0.16,0-0.315,0.08-0.475,0.238c-0.316,0.156-0.555,0.236-0.713,0.236
		c-0.631,0.472-1.183,0.789-1.657,0.947c-0.473,0.475-0.788,0.711-0.946,0.711c-0.158,0.159-0.236,0.317-0.236,0.475l-0.238,0.236
		c-0.157,0.158-0.235,1.106-0.235,2.844l0.711-0.238c0.476,0,1.105-0.236,1.896-0.711c0.317-0.159,0.791-0.315,1.425-0.473
		c0.632-0.316,1.105-0.553,1.42-0.711c0.157-0.159,0.474-0.317,0.948-0.475c1.104-0.317,2.134-0.711,3.08-1.184l-0.476-1.422
		c-0.315-0.949-0.553-1.897-0.711-2.844c-0.158-0.474-0.235-1.58-0.235-3.316l0.474-0.475V7.504l0.711,0.947
		c0.157,0.158,0.396,0.395,0.712,0.711c0.157,0.474,0.315,0.789,0.475,0.947c0.158,0.316,0.396,0.553,0.711,0.711
		c0.158,0.475,0.236,0.87,0.236,1.186c0,0.473,0.08,0.947,0.237,1.422c0,0.157,0.077,0.315,0.235,0.473
		c0.159,0.475,0.317,0.87,0.474,1.186H59.8c0.157,0,0.396-0.08,0.711-0.236c0.157,0,0.473-0.238,0.946-0.711h0.236
		c0.157,0,0.237,0.078,0.237,0.236c0.159,0,0.314,0,0.474,0l0.237,0.236c0.314,0.317,0.712,0.791,1.185,1.422v0.947l-0.476,0.475
		l-0.473-0.475h-0.475H61.93c-0.314,0.158-0.553,0.238-0.711,0.238c-0.157,0.157-0.396,0.315-0.711,0.473
		c-0.159,0-0.316,0.08-0.476,0.238v0.947c0,0.789-0.078,1.264-0.235,1.422c-0.158,0.472-0.474,0.789-0.947,0.947
		c-0.156,0.158-0.633,0.474-1.422,0.947c-0.314,0-0.554,0.08-0.711,0.238c-0.946,0.473-1.814,0.947-2.605,1.42
		c-0.631,0.474-1.5,1.027-2.605,1.66l0.474,0.236c0.157,0.317,0.396,0.475,0.711,0.475c0.157,0.156,0.396,0.472,0.711,0.947
		c0,0.159,0.08,0.315,0.237,0.473c0.158,0.158,0.396,0.633,0.711,1.422c0,0.317,0.159,0.791,0.474,1.422
		c0.316,0.633,0.476,1.106,0.476,1.422c0.157,0.633,0.396,1.342,0.711,2.133l0.235,0.236c0.158,0.475,0.396,0.947,0.711,1.422
		c0.158,0.475,0.236,0.87,0.236,1.186c0,0.472-0.078,0.789-0.236,0.947l-0.235,0.236c0,0.316-0.158,0.553-0.476,0.711h-0.475
		l-0.947-0.947l-0.235,0.236c-0.159,0.158-0.554,0.474-1.187,0.947c-0.156,0-0.314,0.08-0.474,0.238
		c-0.633,0.631-1.422,1.106-2.371,1.422v0.473l0.476,0.711c0.158,0.474,0.475,1.343,0.947,2.607h0.237
		c0.158,0,0.631-0.238,1.422-0.711c0.316-0.159,0.632-0.317,0.947-0.475c0.475-0.316,0.869-0.553,1.185-0.711
		c0.475-0.158,0.948-0.474,1.422-0.947h0.237c0.158,0,0.236,0.078,0.236,0.236c0.158,0,0.316,0,0.475,0l0.474,0.236
		c0.315,0.316,0.553,0.553,0.711,0.711c0.475,0.475,0.791,0.949,0.947,1.422c0.157,0.474,0.237,1.027,0.237,1.658l-0.475,0.475
		l-0.947-0.236c-0.316,0-0.711-0.08-1.186-0.238h-0.236H57.19c-0.474,0.158-0.868,0.238-1.185,0.238
		c-0.791,0.315-1.421,0.473-1.896,0.473c-0.474,0.316-1.025,0.553-1.658,0.711v1.66c0,1.105,0.08,1.894,0.235,2.369
		c0.157,0.474,0.396,0.948,0.712,1.421c0.156,0.474,0.633,1.027,1.422,1.658v0.475h-0.947c-0.633,0-1.186-0.078-1.658-0.236
		c-0.475,0-0.87-0.159-1.186-0.475c-0.317,0-0.711-0.316-1.188-0.947c-0.474-0.474-0.868-1.027-1.185-1.659
		c-0.158-0.317-0.475-1.264-0.946-2.844h-0.238h-0.234c-0.316,0.158-0.631,0.238-0.947,0.238c-0.633,0.315-1.422,0.473-2.369,0.473
		c-0.316,0.158-0.711,0.236-1.186,0.236l-0.475,0.238c-0.156,0.159-0.236,0.315-0.236,0.473c-0.157,0.159-0.235,0.317-0.235,0.475
		c-0.316,0.475-0.554,1.185-0.711,2.134c0,0.314-0.078,0.631-0.236,0.947c-0.158,0.314-0.238,0.631-0.238,0.947
		c0,0.474,0.08,0.789,0.238,0.947c0.158,0.158,0.236,0.395,0.236,0.711c0.158,0.159,0.316,0.317,0.473,0.475
		c0.158,0.472,0.633,1.027,1.422,1.658L42.974,59.158L42.974,59.158z M46.767,26.459h0.238c0.158,0,0.631-0.238,1.422-0.711
		c0.158-0.158,0.631-0.395,1.42-0.711c0.634-0.316,1.187-0.633,1.66-0.947c0.475-0.158,1.027-0.397,1.658-0.711
		c0.791-0.474,1.421-0.791,1.896-0.947c0.633-0.158,0.789-0.238,0.475-0.238c0.949-0.317,1.502-0.473,1.658-0.473l0.711-0.475
		c0.315-0.158,0.711-0.474,1.186-0.947v-0.475l-0.947-0.947h-0.237c-0.158,0-0.396,0.078-0.711,0.236
		c-0.314,0.158-0.554,0.236-0.711,0.236c-0.314,0.316-0.947,0.553-1.896,0.711c0.475,0,0.316,0.08-0.475,0.238
		c-0.315,0.158-0.949,0.395-1.896,0.711c-0.314,0.157-0.634,0.315-0.946,0.473c-0.317,0.159-0.714,0.317-1.188,0.475
		c-1.104,0.473-2.055,0.87-2.844,1.184L46.767,26.459z M49.37,39.015c0.474,0,0.947-0.159,1.422-0.473c0.158,0,0.396,0,0.712,0
		c0.315-0.158,0.553-0.238,0.711-0.238c0.473,0.158,1.024,0,1.657-0.473l0.236-0.475c0.157-0.158,0.237-0.395,0.237-0.711
		l-0.237-0.947c-0.158-0.159-0.236-0.317-0.236-0.475c0-0.315-0.077-0.553-0.235-0.711c-0.157-0.158-0.236-0.395-0.236-0.709
		c-0.156-0.316-0.236-0.555-0.236-0.711c-0.158-0.474-0.236-1.107-0.236-1.896s-0.159-1.739-0.475-2.844h-0.236
		c-0.159,0-0.315,0.08-0.475,0.238h-0.236c-0.315,0.315-0.633,0.473-0.949,0.473c0,0.159-0.155,0.317-0.473,0.475
		c-0.317,0-0.475,0.078-0.475,0.236c0,0.158-0.16,0.395-0.477,0.711c-0.314,0.159-0.474,0.317-0.474,0.475
		c-0.316,0.472-0.791,1.025-1.422,1.658h1.187c0.313,0,0.631,0.078,0.946,0.236c0.474,0,0.871,0,1.185,0
		c0.949,0.316,1.737,0.553,2.371,0.711v0.475l-0.711,0.473c-0.474,0.474-1.104,0.791-1.896,0.949
		c-0.791,0.473-1.423,0.711-1.896,0.711c-0.474,0.315-1.026,0.553-1.66,0.711v0.473l0.477,0.475
		c0.157,0.158,0.395,0.395,0.711,0.711c0.314,0.315,0.553,0.553,0.711,0.711L49.37,39.015z M42.978,48.73h0.475
		c0.158,0,0.634-0.078,1.422-0.236c0.632,0,1.187-0.159,1.658-0.475c0.475,0,0.789-0.159,0.947-0.473
		c0.157,0,0.237-0.08,0.237-0.238c0,0.158,0.078,0,0.236-0.473c0.158-0.159,0.236-0.317,0.236-0.475
		c0.156-0.316,0.236-0.553,0.236-0.711c0.158-0.475,0.396-0.947,0.709-1.422c0.158-0.472,0.397-1.025,0.711-1.658
		c0.158-0.317,0.238-0.948,0.238-1.895l-1.187,0.473c-0.789,0.475-1.423,0.711-1.896,0.711c-0.475,0.316-0.87,0.553-1.186,0.711
		c-0.318,0.475-0.711,0.947-1.186,1.422c-0.476,0.79-0.87,1.422-1.187,1.895c-0.159,0.317-0.316,0.711-0.475,1.186
		c-0.157,0.475-0.315,0.87-0.473,1.186L42.978,48.73z M35.868,41.152h0.711c0.475,0,1.105-0.078,1.895-0.236
		c0.791,0,1.58-0.159,2.371-0.475c0.473,0,1.264-0.159,2.369-0.473c-0.158,0,0.078-0.08,0.711-0.238l-0.475-0.236
		c-0.316,0-0.554-0.159-0.711-0.475c-0.159,0-0.317-0.159-0.475-0.473c0-0.316-0.078-0.553-0.236-0.711h-0.946L40.37,37.36
		c-0.476-0.158-0.87-0.474-1.187-0.947v-0.947l0.238-0.238c0.158,0,0.395-0.159,0.711-0.473c0.314,0,0.711-0.159,1.184-0.475
		c0.475,0,0.791-0.159,0.947-0.473c0.159,0,0.317-0.397,0.475-1.186c0-0.475,0.08-0.947,0.236-1.422h-2.369l-0.473-0.475
		c-0.158-0.159-0.396-0.314-0.711-0.473c-0.316-0.159-0.553-0.317-0.711-0.475v1.186c0,0.947-0.08,1.5-0.238,1.658
		c-0.315,0.473-0.553,0.947-0.711,1.422c-0.315,0.789-0.709,1.658-1.184,2.605c-0.159,0.474-0.317,1.027-0.476,1.658
		c-0.314,0.474-0.473,0.791-0.473,0.949c-0.158,0.789-0.238,1.264-0.238,1.422L35.868,41.152z M41.314,21.958
		c0.633,0,1.344-0.238,2.134-0.711l0.475-3.791L42.5,17.692c-0.632,0.158-1.896,0.238-3.791,0.238v0.235
		c0,0.317,0.159,0.711,0.473,1.184c0.158,0.633,0.474,1.58,0.949,2.844L41.314,21.958z"/>
</g>
</svg>
