<?xml version="1.0" encoding="utf-8"?>
<!-- Generator: Adobe Illustrator 12.0.0, SVG Export Plug-In . SVG Version: 6.00 Build 51448)  -->
<!DOCTYPE svg PUBLIC "-//W3C//DTD SVG 1.1//EN" "http://www.w3.org/Graphics/SVG/1.1/DTD/svg11.dtd" [
	<!ENTITY ns_flows "http://ns.adobe.com/Flows/1.0/">
	<!ENTITY ns_extend "http://ns.adobe.com/Extensibility/1.0/">
	<!ENTITY ns_ai "http://ns.adobe.com/AdobeIllustrator/10.0/">
	<!ENTITY ns_graphs "http://ns.adobe.com/Graphs/1.0/">
	<!ENTITY ns_vars "http://ns.adobe.com/Variables/1.0/">
	<!ENTITY ns_imrep "http://ns.adobe.com/ImageReplacement/1.0/">
	<!ENTITY ns_sfw "http://ns.adobe.com/SaveForWeb/1.0/">
	<!ENTITY ns_custom "http://ns.adobe.com/GenericCustomNamespace/1.0/">
	<!ENTITY ns_adobe_xpath "http://ns.adobe.com/XPath/1.0/">
	<!ENTITY ns_svg "http://www.w3.org/2000/svg">
	<!ENTITY ns_xlink "http://www.w3.org/1999/xlink">
]>
<svg  version="1.1"
	 xmlns:x="&ns_extend;" xmlns:i="&ns_ai;" xmlns:graph="&ns_graphs;" i:viewOrigin="-0.3193 135.7061" i:rulerOrigin="0 0" i:pageBounds="0 136 85 0"
	 xmlns="&ns_svg;" xmlns:xlink="&ns_xlink;" xmlns:a="http://ns.adobe.com/AdobeSVGViewerExtensions/3.0/"
	 width="85.678" height="136.025" viewBox="0 0 85.678 136.025" overflow="visible" enable-background="new 0 0 85.678 136.025"
	 xml:space="preserve">
<metadata>
	<variableSets  xmlns="http://ns.adobe.com/Variables/1.0/">
		<variableSet  varSetName="binding1" locked="none">
			<variables></variables>
			<v:sampleDataSets  xmlns:v="http://ns.adobe.com/Variables/1.0/" xmlns="http://ns.adobe.com/GenericCustomNamespace/1.0/">
				</v:sampleDataSets>
		</variableSet>
	</variableSets>
</metadata>
<g id="图层_1" i:knockout="Off" i:layer="yes" i:dimmedPercent="50" i:rgbTrio="#4F008000FFFF">
	<g i:knockout="Off">
		<path fill="#333333" d="M2.274,99.465v24.962c0,5.149,3.353,9.325,7.481,9.325h68.118c4.133,0,7.484-4.176,7.484-9.325h-0.002
			V9.216c0-4.344-3.352-7.869-7.482-7.869H9.756c-4.131,0-7.481,3.525-7.481,7.869H2.272v90.228
			C2.272,99.45,2.274,99.458,2.274,99.465z"/>
		
			<linearGradient id="XMLID_3_" gradientUnits="userSpaceOnUse" x1="-22.9907" y1="22.7183" x2="-22.9907" y2="148.2847" gradientTransform="matrix(1 0 0 -1 64.8535 158.4238)">
			<stop  offset="0.0899" style="stop-color:#2089B9"/>
			<stop  offset="0.0985" style="stop-color:#4FA3C2"/>
			<stop  offset="0.1071" style="stop-color:#77B9CA"/>
			<stop  offset="0.1138" style="stop-color:#8FC7CF"/>
			<stop  offset="0.118" style="stop-color:#98CCD1"/>
			<stop  offset="0.1341" style="stop-color:#9ECFD3"/>
			<stop  offset="0.156" style="stop-color:#AFD6D9"/>
			<stop  offset="0.1809" style="stop-color:#CBE1E3"/>
			<stop  offset="0.1966" style="stop-color:#E1EAEB"/>
			<a:midPointStop  offset="0.0899" style="stop-color:#2089B9"/>
			<a:midPointStop  offset="0.5" style="stop-color:#2089B9"/>
			<a:midPointStop  offset="0.0985" style="stop-color:#4FA3C2"/>
			<a:midPointStop  offset="0.5" style="stop-color:#4FA3C2"/>
			<a:midPointStop  offset="0.1071" style="stop-color:#77B9CA"/>
			<a:midPointStop  offset="0.5" style="stop-color:#77B9CA"/>
			<a:midPointStop  offset="0.1138" style="stop-color:#8FC7CF"/>
			<a:midPointStop  offset="0.5" style="stop-color:#8FC7CF"/>
			<a:midPointStop  offset="0.118" style="stop-color:#98CCD1"/>
			<a:midPointStop  offset="0.5" style="stop-color:#98CCD1"/>
			<a:midPointStop  offset="0.1341" style="stop-color:#9ECFD3"/>
			<a:midPointStop  offset="0.5" style="stop-color:#9ECFD3"/>
			<a:midPointStop  offset="0.156" style="stop-color:#AFD6D9"/>
			<a:midPointStop  offset="0.5" style="stop-color:#AFD6D9"/>
			<a:midPointStop  offset="0.1809" style="stop-color:#CBE1E3"/>
			<a:midPointStop  offset="0.5" style="stop-color:#CBE1E3"/>
			<a:midPointStop  offset="0.1966" style="stop-color:#E1EAEB"/>
		</linearGradient>
		<path fill="url(#XMLID_3_)" d="M83.405,126.381c0,5.15-3.352,9.325-7.48,9.325H7.804c-4.131,0-7.482-4.177-7.482-9.325V19.465
			c0-5.148,3.354-9.326,7.482-9.326h68.117c4.133,0,7.482,4.176,7.482,9.326v106.916H83.405z"/>
		<path fill="none" stroke="#333333" stroke-width="0.977" d="M83.405,126.381c0,5.15-3.352,9.325-7.48,9.325H7.804
			c-4.131,0-7.482-4.177-7.482-9.325V19.465c0-5.148,3.354-9.326,7.482-9.326h68.117c4.133,0,7.482,4.176,7.482,9.326v106.916
			H83.405z"/>
		<path fill="#FFFFFF" d="M0.32,11.17c0-4.344,3.354-7.869,7.482-7.869h68.118c4.133,0,7.482,3.523,7.482,7.869v90.229
			c0,4.346-3.352,7.869-7.482,7.869H7.802c-4.131,0-7.482-3.523-7.482-7.87L0.32,11.17L0.32,11.17z"/>
		
			<linearGradient id="XMLID_4_" gradientUnits="userSpaceOnUse" x1="3.7021" y1="54.9395" x2="85.8467" y2="54.9395" gradientTransform="matrix(-1 0 0 1 86.6367 1.3447)">
			<stop  offset="0" style="stop-color:#A2D8E0"/>
			<stop  offset="0.0899" style="stop-color:#1878AD"/>
			<stop  offset="0.2135" style="stop-color:#194D91"/>
			<stop  offset="0.6404" style="stop-color:#2B90BD"/>
			<stop  offset="0.9438" style="stop-color:#82CBDE"/>
			<stop  offset="1" style="stop-color:#1A478D"/>
			<a:midPointStop  offset="0" style="stop-color:#A2D8E0"/>
			<a:midPointStop  offset="0.5" style="stop-color:#A2D8E0"/>
			<a:midPointStop  offset="0.0899" style="stop-color:#1878AD"/>
			<a:midPointStop  offset="0.5" style="stop-color:#1878AD"/>
			<a:midPointStop  offset="0.2135" style="stop-color:#194D91"/>
			<a:midPointStop  offset="0.5" style="stop-color:#194D91"/>
			<a:midPointStop  offset="0.6404" style="stop-color:#2B90BD"/>
			<a:midPointStop  offset="0.5" style="stop-color:#2B90BD"/>
			<a:midPointStop  offset="0.9438" style="stop-color:#82CBDE"/>
			<a:midPointStop  offset="0.5" style="stop-color:#82CBDE"/>
			<a:midPointStop  offset="1" style="stop-color:#1A478D"/>
		</linearGradient>
		<path i:isolated="yes" i:knockout="Off" opacity="0.1" fill="url(#XMLID_4_)" enable-background="new    " d="M0.79,11.17
			c0-4.344,3.313-7.869,7.397-7.869h67.347c4.086,0,7.4,3.523,7.4,7.869v90.229c0,4.346-3.314,7.869-7.4,7.869H8.188
			c-4.084,0-7.397-3.523-7.397-7.87V11.17L0.79,11.17z"/>
		<path fill="none" stroke="#4D4D4D" stroke-width="0.977" d="M0.32,101.419v24.962c0,5.148,3.353,9.325,7.482,9.325h68.12
			c4.131,0,7.48-4.175,7.48-9.325V11.171c0-4.346-3.352-7.869-7.482-7.869H7.803c-4.13,0-7.482,3.525-7.482,7.869l-0.001,90.228
			C0.319,101.404,0.32,101.411,0.32,101.419z"/>
	</g>
	<circle fill="#FFFFFF" cx="56.462" cy="75.007" r="12.756"/>
	<circle fill="#FFFFFF" cx="43.09" cy="51.271" r="12.756"/>
	<circle fill="#FFFFFF" cx="29.215" cy="26.864" r="12.756"/>
	<path fill="#1D8F38" d="M56.463,87.763c7.043,0,12.756-5.711,12.756-12.758c0-7.043-5.713-12.756-12.756-12.756
		c-7.046,0-12.757,5.713-12.757,12.756C43.706,82.052,49.417,87.763,56.463,87.763z M56.463,66.437c4.729,0,8.569,3.833,8.569,8.568
		s-3.84,8.57-8.569,8.57c-4.73,0-8.566-3.838-8.566-8.57C47.896,70.271,51.73,66.437,56.463,66.437z M56.463,81.179
		c3.409,0,6.173-2.762,6.173-6.172s-2.764-6.174-6.173-6.174c-3.408,0-6.173,2.764-6.173,6.174S53.055,81.179,56.463,81.179z
		 M56.463,71.044c2.19,0,3.963,1.773,3.963,3.963c0,2.19-1.772,3.963-3.963,3.963c-2.188,0-3.964-1.771-3.964-3.963
		C52.499,72.817,54.276,71.044,56.463,71.044z M56.463,76.716c0.942,0,1.707-0.764,1.707-1.709c0-0.943-0.765-1.707-1.707-1.707
		c-0.941,0-1.707,0.764-1.707,1.707C54.756,75.952,55.521,76.716,56.463,76.716z"/>
	<path fill="#1D8F38" d="M29.215,39.62c7.045,0,12.756-5.711,12.756-12.758c0-7.045-5.711-12.756-12.756-12.756
		c-7.045,0-12.756,5.711-12.756,12.756C16.459,33.909,22.17,39.62,29.215,39.62z M29.215,18.294c4.733,0,8.57,3.836,8.57,8.568
		c0,4.734-3.837,8.57-8.57,8.57c-4.732,0-8.568-3.836-8.568-8.57C20.646,22.13,24.482,18.294,29.215,18.294z M29.215,33.036
		c3.41,0,6.174-2.764,6.174-6.172c0-3.41-2.764-6.174-6.174-6.174c-3.408,0-6.172,2.764-6.172,6.174
		C23.043,30.272,25.807,33.036,29.215,33.036z M29.215,22.899c2.189,0,3.965,1.777,3.965,3.965c0,2.19-1.776,3.963-3.965,3.963
		s-3.963-1.774-3.963-3.963C25.252,24.677,27.027,22.899,29.215,22.899z M29.215,28.573c0.942,0,1.709-0.766,1.709-1.709
		c0-0.943-0.767-1.707-1.709-1.707c-0.941,0-1.707,0.764-1.707,1.707C27.508,27.808,28.273,28.573,29.215,28.573z"/>
	<path fill="#D90000" d="M43.09,64.027c7.043,0,12.756-5.713,12.756-12.758S50.133,38.513,43.09,38.513
		c-7.045,0-12.756,5.711-12.756,12.756C30.334,58.313,36.045,64.026,43.09,64.027z M43.09,42.701c4.729,0,8.567,3.836,8.567,8.568
		s-3.838,8.568-8.567,8.568c-4.732,0-8.568-3.836-8.568-8.568C34.521,46.536,38.357,42.7,43.09,42.701z M43.09,57.443
		c3.409,0,6.174-2.764,6.174-6.174c0-3.408-2.765-6.172-6.174-6.172c-3.408,0-6.172,2.764-6.172,6.172
		C36.918,54.679,39.682,57.442,43.09,57.443z M43.09,47.306c2.19,0,3.963,1.775,3.963,3.963c0,2.19-1.772,3.965-3.963,3.965
		c-2.189,0-3.963-1.776-3.963-3.965C39.127,49.081,40.902,47.306,43.09,47.306z M43.09,52.978c0.942,0,1.707-0.764,1.707-1.709
		c0-0.941-0.765-1.707-1.707-1.707c-0.943,0-1.707,0.766-1.707,1.707C41.383,52.214,42.146,52.978,43.09,52.978z"/>
	<path fill="#224899" d="M29.215,39.62c7.043,0,12.756-5.711,12.756-12.756c0-7.045-5.713-12.758-12.756-12.758
		c-7.045,0-12.756,5.713-12.756,12.758C16.459,33.909,22.17,39.62,29.215,39.62z M29.215,18.296c4.729,0,8.567,3.836,8.567,8.568
		c0,4.732-3.838,8.568-8.567,8.568c-4.732,0-8.568-3.836-8.568-8.568C20.646,22.132,24.482,18.296,29.215,18.296z M29.215,33.038
		c3.41,0,6.174-2.764,6.174-6.174c0-3.41-2.764-6.172-6.174-6.172c-3.408,0-6.172,2.762-6.172,6.172
		C23.043,30.274,25.807,33.038,29.215,33.038z M29.215,22.901c2.189,0,3.963,1.775,3.963,3.963c0,2.19-1.774,3.963-3.963,3.963
		s-3.963-1.774-3.963-3.963C25.252,24.677,27.027,22.901,29.215,22.901z M29.215,28.573c0.942,0,1.707-0.764,1.707-1.709
		c0-0.943-0.765-1.707-1.707-1.707c-0.943,0-1.707,0.764-1.707,1.707C27.508,27.81,28.271,28.573,29.215,28.573z"/>
</g>
</svg>
