<?xml version="1.0" encoding="utf-8"?>
<!-- Generator: Adobe Illustrator 12.0.0, SVG Export Plug-In . SVG Version: 6.00 Build 51448)  -->
<!DOCTYPE svg PUBLIC "-//W3C//DTD SVG 1.1//EN" "http://www.w3.org/Graphics/SVG/1.1/DTD/svg11.dtd" [
	<!ENTITY ns_flows "http://ns.adobe.com/Flows/1.0/">
	<!ENTITY ns_extend "http://ns.adobe.com/Extensibility/1.0/">
	<!ENTITY ns_ai "http://ns.adobe.com/AdobeIllustrator/10.0/">
	<!ENTITY ns_graphs "http://ns.adobe.com/Graphs/1.0/">
	<!ENTITY ns_vars "http://ns.adobe.com/Variables/1.0/">
	<!ENTITY ns_imrep "http://ns.adobe.com/ImageReplacement/1.0/">
	<!ENTITY ns_sfw "http://ns.adobe.com/SaveForWeb/1.0/">
	<!ENTITY ns_custom "http://ns.adobe.com/GenericCustomNamespace/1.0/">
	<!ENTITY ns_adobe_xpath "http://ns.adobe.com/XPath/1.0/">
	<!ENTITY ns_svg "http://www.w3.org/2000/svg">
	<!ENTITY ns_xlink "http://www.w3.org/1999/xlink">
]>
<svg  version="1.1"
	 xmlns:x="&ns_extend;" xmlns:i="&ns_ai;" xmlns:graph="&ns_graphs;" i:viewOrigin="-0.3193 135.7061" i:rulerOrigin="0 0" i:pageBounds="0 136 85 0"
	 xmlns="&ns_svg;" xmlns:xlink="&ns_xlink;" xmlns:a="http://ns.adobe.com/AdobeSVGViewerExtensions/3.0/"
	 width="85.678" height="136.025" viewBox="0 0 85.678 136.025" overflow="visible" enable-background="new 0 0 85.678 136.025"
	 xml:space="preserve">
<metadata>
	<variableSets  xmlns="http://ns.adobe.com/Variables/1.0/">
		<variableSet  varSetName="binding1" locked="none">
			<variables></variables>
			<v:sampleDataSets  xmlns:v="http://ns.adobe.com/Variables/1.0/" xmlns="http://ns.adobe.com/GenericCustomNamespace/1.0/">
				</v:sampleDataSets>
		</variableSet>
	</variableSets>
</metadata>
<g id="图层_1" i:knockout="Off" i:layer="yes" i:dimmedPercent="50" i:rgbTrio="#4F008000FFFF">
	<g i:knockout="Off">
		<path fill="#333333" d="M2.274,99.465v24.962c0,5.149,3.353,9.325,7.481,9.325h68.118c4.133,0,7.484-4.176,7.484-9.325h-0.002
			V9.216c0-4.344-3.352-7.869-7.482-7.869H9.756c-4.131,0-7.481,3.525-7.481,7.869H2.272v90.228
			C2.272,99.45,2.274,99.458,2.274,99.465z"/>
		
			<linearGradient id="XMLID_3_" gradientUnits="userSpaceOnUse" x1="-22.9907" y1="22.7183" x2="-22.9907" y2="148.2847" gradientTransform="matrix(1 0 0 -1 64.8535 158.4238)">
			<stop  offset="0.0899" style="stop-color:#2089B9"/>
			<stop  offset="0.0985" style="stop-color:#4FA3C2"/>
			<stop  offset="0.1071" style="stop-color:#77B9CA"/>
			<stop  offset="0.1138" style="stop-color:#8FC7CF"/>
			<stop  offset="0.118" style="stop-color:#98CCD1"/>
			<stop  offset="0.1341" style="stop-color:#9ECFD3"/>
			<stop  offset="0.156" style="stop-color:#AFD6D9"/>
			<stop  offset="0.1809" style="stop-color:#CBE1E3"/>
			<stop  offset="0.1966" style="stop-color:#E1EAEB"/>
			<a:midPointStop  offset="0.0899" style="stop-color:#2089B9"/>
			<a:midPointStop  offset="0.5" style="stop-color:#2089B9"/>
			<a:midPointStop  offset="0.0985" style="stop-color:#4FA3C2"/>
			<a:midPointStop  offset="0.5" style="stop-color:#4FA3C2"/>
			<a:midPointStop  offset="0.1071" style="stop-color:#77B9CA"/>
			<a:midPointStop  offset="0.5" style="stop-color:#77B9CA"/>
			<a:midPointStop  offset="0.1138" style="stop-color:#8FC7CF"/>
			<a:midPointStop  offset="0.5" style="stop-color:#8FC7CF"/>
			<a:midPointStop  offset="0.118" style="stop-color:#98CCD1"/>
			<a:midPointStop  offset="0.5" style="stop-color:#98CCD1"/>
			<a:midPointStop  offset="0.1341" style="stop-color:#9ECFD3"/>
			<a:midPointStop  offset="0.5" style="stop-color:#9ECFD3"/>
			<a:midPointStop  offset="0.156" style="stop-color:#AFD6D9"/>
			<a:midPointStop  offset="0.5" style="stop-color:#AFD6D9"/>
			<a:midPointStop  offset="0.1809" style="stop-color:#CBE1E3"/>
			<a:midPointStop  offset="0.5" style="stop-color:#CBE1E3"/>
			<a:midPointStop  offset="0.1966" style="stop-color:#E1EAEB"/>
		</linearGradient>
		<path fill="url(#XMLID_3_)" d="M83.405,126.381c0,5.15-3.352,9.325-7.48,9.325H7.804c-4.131,0-7.482-4.177-7.482-9.325V19.465
			c0-5.148,3.354-9.326,7.482-9.326h68.117c4.133,0,7.482,4.176,7.482,9.326v106.916H83.405z"/>
		<path fill="none" stroke="#333333" stroke-width="0.977" d="M83.405,126.381c0,5.15-3.352,9.325-7.48,9.325H7.804
			c-4.131,0-7.482-4.177-7.482-9.325V19.465c0-5.148,3.354-9.326,7.482-9.326h68.117c4.133,0,7.482,4.176,7.482,9.326v106.916
			H83.405z"/>
		<path fill="#FFFFFF" d="M0.32,11.17c0-4.344,3.354-7.869,7.482-7.869h68.118c4.133,0,7.482,3.523,7.482,7.869v90.229
			c0,4.346-3.352,7.869-7.482,7.869H7.802c-4.131,0-7.482-3.523-7.482-7.87L0.32,11.17L0.32,11.17z"/>
		
			<linearGradient id="XMLID_4_" gradientUnits="userSpaceOnUse" x1="3.7021" y1="54.9395" x2="85.8467" y2="54.9395" gradientTransform="matrix(-1 0 0 1 86.6367 1.3447)">
			<stop  offset="0" style="stop-color:#A2D8E0"/>
			<stop  offset="0.0899" style="stop-color:#1878AD"/>
			<stop  offset="0.2135" style="stop-color:#194D91"/>
			<stop  offset="0.6404" style="stop-color:#2B90BD"/>
			<stop  offset="0.9438" style="stop-color:#82CBDE"/>
			<stop  offset="1" style="stop-color:#1A478D"/>
			<a:midPointStop  offset="0" style="stop-color:#A2D8E0"/>
			<a:midPointStop  offset="0.5" style="stop-color:#A2D8E0"/>
			<a:midPointStop  offset="0.0899" style="stop-color:#1878AD"/>
			<a:midPointStop  offset="0.5" style="stop-color:#1878AD"/>
			<a:midPointStop  offset="0.2135" style="stop-color:#194D91"/>
			<a:midPointStop  offset="0.5" style="stop-color:#194D91"/>
			<a:midPointStop  offset="0.6404" style="stop-color:#2B90BD"/>
			<a:midPointStop  offset="0.5" style="stop-color:#2B90BD"/>
			<a:midPointStop  offset="0.9438" style="stop-color:#82CBDE"/>
			<a:midPointStop  offset="0.5" style="stop-color:#82CBDE"/>
			<a:midPointStop  offset="1" style="stop-color:#1A478D"/>
		</linearGradient>
		<path i:isolated="yes" i:knockout="Off" opacity="0.1" fill="url(#XMLID_4_)" enable-background="new    " d="M0.79,11.17
			c0-4.344,3.313-7.869,7.397-7.869h67.347c4.086,0,7.4,3.523,7.4,7.869v90.229c0,4.346-3.314,7.869-7.4,7.869H8.188
			c-4.084,0-7.397-3.523-7.397-7.87V11.17L0.79,11.17z"/>
		<path fill="none" stroke="#4D4D4D" stroke-width="0.977" d="M0.32,101.419v24.962c0,5.148,3.353,9.325,7.482,9.325h68.12
			c4.131,0,7.48-4.175,7.48-9.325V11.171c0-4.346-3.352-7.869-7.482-7.869H7.803c-4.13,0-7.482,3.525-7.482,7.869l-0.001,90.228
			C0.319,101.404,0.32,101.411,0.32,101.419z"/>
	</g>
	<circle fill="#FFFFFF" cx="61.938" cy="80.911" r="10.771"/>
	<circle fill="#FFFFFF" cx="43.02" cy="72.759" r="10.771"/>
	<circle fill="#FFFFFF" cx="23.74" cy="65.981" r="10.771"/>
	<circle fill="#FFFFFF" cx="54.004" cy="41.753" r="10.771"/>
	<circle fill="#FFFFFF" cx="32.395" cy="41.753" r="10.771"/>
	<circle fill="#FFFFFF" cx="54.004" cy="20.958" r="10.771"/>
	<circle fill="#FFFFFF" cx="32.395" cy="20.958" r="10.771"/>
	<path fill="#D90000" d="M54.005,52.524c5.949,0,10.771-4.822,10.771-10.771s-4.824-10.771-10.771-10.771
		c-5.948,0-10.772,4.822-10.772,10.771S48.056,52.524,54.005,52.524z M54.005,34.517c3.996,0,7.234,3.24,7.234,7.236
		s-3.238,7.236-7.234,7.236s-7.234-3.24-7.234-7.236S50.009,34.517,54.005,34.517z M54.005,46.968c2.878,0,5.212-2.334,5.212-5.215
		c0-2.879-2.334-5.213-5.212-5.213c-2.881,0-5.215,2.334-5.215,5.213C48.79,44.634,51.124,46.968,54.005,46.968z M54.005,38.407
		c1.847,0,3.347,1.498,3.347,3.346c0,1.85-1.5,3.348-3.347,3.348c-1.85,0-3.348-1.498-3.348-3.348
		C50.657,39.905,52.157,38.407,54.005,38.407z M54.005,43.198c0.796,0,1.441-0.646,1.441-1.445c0-0.796-0.646-1.441-1.441-1.441
		c-0.797,0-1.44,0.644-1.44,1.441C52.563,42.552,53.208,43.198,54.005,43.198z"/>
	<path fill="#D90000" d="M32.395,52.524c5.949,0,10.771-4.822,10.771-10.771s-4.823-10.771-10.771-10.771
		c-5.948,0-10.771,4.822-10.771,10.771S26.445,52.524,32.395,52.524z M32.395,34.517c3.996,0,7.235,3.24,7.235,7.236
		s-3.239,7.236-7.235,7.236s-7.234-3.24-7.234-7.236S28.398,34.517,32.395,34.517z M32.396,46.968c2.878,0,5.212-2.334,5.212-5.215
		c0-2.879-2.334-5.213-5.212-5.213c-2.88,0-5.214,2.334-5.214,5.213C27.182,44.634,29.516,46.968,32.396,46.968z M32.396,38.407
		c1.848,0,3.348,1.498,3.348,3.346c0,1.85-1.5,3.348-3.348,3.348c-1.849,0-3.347-1.498-3.347-3.348
		C29.049,39.905,30.547,38.407,32.396,38.407z M32.395,43.198c0.796,0,1.442-0.646,1.442-1.445c0-0.796-0.646-1.441-1.442-1.441
		s-1.44,0.644-1.44,1.441C30.954,42.552,31.599,43.198,32.395,43.198z"/>
	<path fill="#D90000" d="M54.005,31.729c5.949,0,10.771-4.822,10.771-10.771c0-5.949-4.824-10.771-10.771-10.771
		c-5.948,0-10.772,4.822-10.772,10.771C43.233,26.907,48.056,31.729,54.005,31.729z M54.005,13.722c3.996,0,7.234,3.238,7.234,7.236
		c0,3.996-3.238,7.236-7.234,7.236s-7.234-3.24-7.234-7.236C46.771,16.96,50.009,13.722,54.005,13.722z M54.005,26.171
		c2.878,0,5.212-2.334,5.212-5.213s-2.334-5.213-5.212-5.213c-2.881,0-5.215,2.334-5.215,5.213S51.124,26.171,54.005,26.171z
		 M54.005,17.612c1.847,0,3.347,1.498,3.347,3.346s-1.5,3.348-3.347,3.348c-1.85,0-3.348-1.5-3.348-3.348
		S52.157,17.612,54.005,17.612z M54.005,22.401c0.796,0,1.441-0.644,1.441-1.443c0-0.796-0.646-1.441-1.441-1.441
		c-0.797,0-1.44,0.644-1.44,1.441C52.563,21.757,53.208,22.401,54.005,22.401z"/>
	<path fill="#D90000" d="M32.395,31.729c5.949,0,10.771-4.822,10.771-10.771c0-5.949-4.823-10.771-10.771-10.771
		c-5.948,0-10.771,4.822-10.771,10.771C21.623,26.907,26.445,31.729,32.395,31.729z M32.395,13.722c3.996,0,7.235,3.238,7.235,7.236
		c0,3.996-3.239,7.236-7.235,7.236s-7.234-3.24-7.234-7.236C25.16,16.96,28.398,13.722,32.395,13.722z M32.396,26.171
		c2.878,0,5.212-2.334,5.212-5.213s-2.334-5.213-5.212-5.213c-2.88,0-5.214,2.334-5.214,5.213S29.516,26.171,32.396,26.171z
		 M32.396,17.612c1.848,0,3.348,1.498,3.348,3.346s-1.5,3.348-3.348,3.348c-1.849,0-3.347-1.5-3.347-3.348
		S30.547,17.612,32.396,17.612z M32.395,22.401c0.796,0,1.442-0.644,1.442-1.443c0-0.796-0.646-1.441-1.442-1.441
		s-1.44,0.644-1.44,1.441C30.954,21.757,31.599,22.401,32.395,22.401z"/>
	<path fill="#1D8F38" d="M58.301,91.045c5.598,2.008,11.763-0.9,13.772-6.5c2.006-5.597-0.902-11.763-6.5-13.771
		c-5.598-2.01-11.765,0.898-13.773,6.496C49.79,82.872,52.704,89.038,58.301,91.045z M55.13,78.466
		c1.35-3.76,5.49-5.715,9.251-4.365c3.759,1.352,5.714,5.492,4.364,9.252c-1.35,3.762-5.49,5.719-9.252,4.367
		C55.733,86.37,53.78,82.226,55.13,78.466z M60.179,85.816c2.708,0.97,5.689-0.438,6.663-3.146c0.973-2.711-0.435-5.693-3.144-6.666
		c-2.711-0.973-5.694,0.437-6.668,3.146C56.06,81.858,57.467,84.843,60.179,85.816z M58.786,79.781
		c0.627-1.739,2.541-2.645,4.279-2.02c1.739,0.623,2.646,2.539,2.021,4.279c-0.624,1.739-2.54,2.643-4.279,2.018
		C59.068,83.434,58.163,81.519,58.786,79.781z M61.45,82.269c0.748,0.27,1.574-0.119,1.842-0.869
		c0.271-0.748-0.118-1.574-0.869-1.846c-0.748-0.268-1.574,0.121-1.844,0.871C60.312,81.173,60.7,81.999,61.45,82.269z"/>
	<path fill="#1D8F38" d="M39.383,82.895c5.598,2.01,11.763-0.898,13.772-6.5c2.01-5.597-0.899-11.763-6.498-13.771
		c-5.597-2.008-11.766,0.9-13.773,6.498C30.874,74.72,33.785,80.886,39.383,82.895z M36.212,70.315
		c1.351-3.76,5.492-5.715,9.253-4.365c3.759,1.348,5.713,5.49,4.364,9.252c-1.349,3.76-5.492,5.715-9.251,4.365
		C36.817,78.22,34.863,74.075,36.212,70.315z M41.263,77.663c2.706,0.972,5.689-0.438,6.661-3.145
		c0.973-2.711-0.435-5.693-3.144-6.666c-2.711-0.972-5.692,0.436-6.666,3.145C37.144,73.708,38.551,76.692,41.263,77.663z
		 M39.871,71.63c0.624-1.741,2.54-2.643,4.278-2.02c1.737,0.623,2.643,2.539,2.018,4.277c-0.621,1.739-2.539,2.645-4.276,2.021
		C40.149,75.284,39.246,73.368,39.871,71.63z M42.534,74.116c0.748,0.27,1.575-0.121,1.842-0.869c0.27-0.75-0.12-1.574-0.869-1.844
		c-0.75-0.271-1.574,0.121-1.845,0.867C41.395,73.021,41.782,73.849,42.534,74.116z"/>
	<path fill="#1D8F38" d="M20.104,76.118c5.598,2.008,11.762-0.9,13.772-6.5c2.01-5.597-0.901-11.763-6.497-13.773
		c-5.6-2.008-11.767,0.9-13.774,6.498C11.595,67.942,14.507,74.11,20.104,76.118z M16.933,63.538c1.35-3.76,5.49-5.715,9.253-4.365
		c3.759,1.35,5.713,5.49,4.364,9.252c-1.351,3.76-5.492,5.715-9.253,4.367C17.538,71.442,15.582,67.298,16.933,63.538z
		 M21.979,70.888c2.709,0.972,5.693-0.438,6.664-3.145c0.973-2.711-0.435-5.695-3.143-6.666c-2.711-0.972-5.695,0.436-6.666,3.145
		C17.863,66.931,19.271,69.915,21.979,70.888z M20.592,64.853c0.624-1.741,2.538-2.643,4.279-2.02
		c1.737,0.625,2.643,2.539,2.018,4.279c-0.622,1.739-2.54,2.645-4.279,2.02C20.871,68.507,19.969,66.591,20.592,64.853z
		 M23.253,67.341c0.75,0.268,1.576-0.123,1.845-0.871c0.268-0.75-0.121-1.574-0.87-1.844c-0.75-0.27-1.576,0.121-1.845,0.871
		C22.115,66.245,22.504,67.071,23.253,67.341z"/>
</g>
</svg>
