<?xml version="1.0" encoding="utf-8"?>
<!-- Generator: Adobe Illustrator 12.0.0, SVG Export Plug-In . SVG Version: 6.00 Build 51448)  -->
<!DOCTYPE svg PUBLIC "-//W3C//DTD SVG 1.1//EN" "http://www.w3.org/Graphics/SVG/1.1/DTD/svg11.dtd" [
	<!ENTITY ns_flows "http://ns.adobe.com/Flows/1.0/">
	<!ENTITY ns_extend "http://ns.adobe.com/Extensibility/1.0/">
	<!ENTITY ns_ai "http://ns.adobe.com/AdobeIllustrator/10.0/">
	<!ENTITY ns_graphs "http://ns.adobe.com/Graphs/1.0/">
	<!ENTITY ns_vars "http://ns.adobe.com/Variables/1.0/">
	<!ENTITY ns_imrep "http://ns.adobe.com/ImageReplacement/1.0/">
	<!ENTITY ns_sfw "http://ns.adobe.com/SaveForWeb/1.0/">
	<!ENTITY ns_custom "http://ns.adobe.com/GenericCustomNamespace/1.0/">
	<!ENTITY ns_adobe_xpath "http://ns.adobe.com/XPath/1.0/">
	<!ENTITY ns_svg "http://www.w3.org/2000/svg">
	<!ENTITY ns_xlink "http://www.w3.org/1999/xlink">
]>
<svg  version="1.1"
	 xmlns:x="&ns_extend;" xmlns:i="&ns_ai;" xmlns:graph="&ns_graphs;" i:viewOrigin="-0.3193 135.7061" i:rulerOrigin="0 0" i:pageBounds="0 136 85 0"
	 xmlns="&ns_svg;" xmlns:xlink="&ns_xlink;" xmlns:a="http://ns.adobe.com/AdobeSVGViewerExtensions/3.0/"
	 width="85.678" height="136.025" viewBox="0 0 85.678 136.025" overflow="visible" enable-background="new 0 0 85.678 136.025"
	 xml:space="preserve">
<metadata>
	<variableSets  xmlns="http://ns.adobe.com/Variables/1.0/">
		<variableSet  varSetName="binding1" locked="none">
			<variables></variables>
			<v:sampleDataSets  xmlns:v="http://ns.adobe.com/Variables/1.0/" xmlns="http://ns.adobe.com/GenericCustomNamespace/1.0/">
				</v:sampleDataSets>
		</variableSet>
	</variableSets>
</metadata>
<g id="图层_1" i:knockout="Off" i:layer="yes" i:dimmedPercent="50" i:rgbTrio="#4F008000FFFF">
	<g i:knockout="Off">
		<path fill="#333333" d="M2.274,99.465v24.962c0,5.149,3.353,9.325,7.481,9.325h68.118c4.133,0,7.484-4.176,7.484-9.325h-0.002
			V9.216c0-4.344-3.352-7.869-7.482-7.869H9.756c-4.131,0-7.481,3.525-7.481,7.869H2.272v90.228
			C2.272,99.45,2.274,99.458,2.274,99.465z"/>
		
			<linearGradient id="XMLID_3_" gradientUnits="userSpaceOnUse" x1="-22.9907" y1="22.7183" x2="-22.9907" y2="148.2847" gradientTransform="matrix(1 0 0 -1 64.8535 158.4238)">
			<stop  offset="0.0899" style="stop-color:#2089B9"/>
			<stop  offset="0.0985" style="stop-color:#4FA3C2"/>
			<stop  offset="0.1071" style="stop-color:#77B9CA"/>
			<stop  offset="0.1138" style="stop-color:#8FC7CF"/>
			<stop  offset="0.118" style="stop-color:#98CCD1"/>
			<stop  offset="0.1341" style="stop-color:#9ECFD3"/>
			<stop  offset="0.156" style="stop-color:#AFD6D9"/>
			<stop  offset="0.1809" style="stop-color:#CBE1E3"/>
			<stop  offset="0.1966" style="stop-color:#E1EAEB"/>
			<a:midPointStop  offset="0.0899" style="stop-color:#2089B9"/>
			<a:midPointStop  offset="0.5" style="stop-color:#2089B9"/>
			<a:midPointStop  offset="0.0985" style="stop-color:#4FA3C2"/>
			<a:midPointStop  offset="0.5" style="stop-color:#4FA3C2"/>
			<a:midPointStop  offset="0.1071" style="stop-color:#77B9CA"/>
			<a:midPointStop  offset="0.5" style="stop-color:#77B9CA"/>
			<a:midPointStop  offset="0.1138" style="stop-color:#8FC7CF"/>
			<a:midPointStop  offset="0.5" style="stop-color:#8FC7CF"/>
			<a:midPointStop  offset="0.118" style="stop-color:#98CCD1"/>
			<a:midPointStop  offset="0.5" style="stop-color:#98CCD1"/>
			<a:midPointStop  offset="0.1341" style="stop-color:#9ECFD3"/>
			<a:midPointStop  offset="0.5" style="stop-color:#9ECFD3"/>
			<a:midPointStop  offset="0.156" style="stop-color:#AFD6D9"/>
			<a:midPointStop  offset="0.5" style="stop-color:#AFD6D9"/>
			<a:midPointStop  offset="0.1809" style="stop-color:#CBE1E3"/>
			<a:midPointStop  offset="0.5" style="stop-color:#CBE1E3"/>
			<a:midPointStop  offset="0.1966" style="stop-color:#E1EAEB"/>
		</linearGradient>
		<path fill="url(#XMLID_3_)" d="M83.405,126.381c0,5.15-3.352,9.325-7.48,9.325H7.804c-4.131,0-7.482-4.177-7.482-9.325V19.465
			c0-5.148,3.354-9.326,7.482-9.326h68.117c4.133,0,7.482,4.176,7.482,9.326v106.916H83.405z"/>
		<path fill="none" stroke="#333333" stroke-width="0.977" d="M83.405,126.381c0,5.15-3.352,9.325-7.48,9.325H7.804
			c-4.131,0-7.482-4.177-7.482-9.325V19.465c0-5.148,3.354-9.326,7.482-9.326h68.117c4.133,0,7.482,4.176,7.482,9.326v106.916
			H83.405z"/>
		<path fill="#FFFFFF" d="M0.32,11.17c0-4.344,3.354-7.869,7.482-7.869h68.118c4.133,0,7.482,3.523,7.482,7.869v90.229
			c0,4.346-3.352,7.869-7.482,7.869H7.802c-4.131,0-7.482-3.523-7.482-7.87L0.32,11.17L0.32,11.17z"/>
		
			<linearGradient id="XMLID_4_" gradientUnits="userSpaceOnUse" x1="3.7021" y1="54.9395" x2="85.8467" y2="54.9395" gradientTransform="matrix(-1 0 0 1 86.6367 1.3447)">
			<stop  offset="0" style="stop-color:#A2D8E0"/>
			<stop  offset="0.0899" style="stop-color:#1878AD"/>
			<stop  offset="0.2135" style="stop-color:#194D91"/>
			<stop  offset="0.6404" style="stop-color:#2B90BD"/>
			<stop  offset="0.9438" style="stop-color:#82CBDE"/>
			<stop  offset="1" style="stop-color:#1A478D"/>
			<a:midPointStop  offset="0" style="stop-color:#A2D8E0"/>
			<a:midPointStop  offset="0.5" style="stop-color:#A2D8E0"/>
			<a:midPointStop  offset="0.0899" style="stop-color:#1878AD"/>
			<a:midPointStop  offset="0.5" style="stop-color:#1878AD"/>
			<a:midPointStop  offset="0.2135" style="stop-color:#194D91"/>
			<a:midPointStop  offset="0.5" style="stop-color:#194D91"/>
			<a:midPointStop  offset="0.6404" style="stop-color:#2B90BD"/>
			<a:midPointStop  offset="0.5" style="stop-color:#2B90BD"/>
			<a:midPointStop  offset="0.9438" style="stop-color:#82CBDE"/>
			<a:midPointStop  offset="0.5" style="stop-color:#82CBDE"/>
			<a:midPointStop  offset="1" style="stop-color:#1A478D"/>
		</linearGradient>
		<path i:isolated="yes" i:knockout="Off" opacity="0.1" fill="url(#XMLID_4_)" enable-background="new    " d="M0.79,11.17
			c0-4.344,3.313-7.869,7.397-7.869h67.347c4.086,0,7.4,3.523,7.4,7.869v90.229c0,4.346-3.314,7.869-7.4,7.869H8.188
			c-4.084,0-7.397-3.523-7.397-7.87V11.17L0.79,11.17z"/>
		<path fill="none" stroke="#4D4D4D" stroke-width="0.977" d="M0.32,101.419v24.962c0,5.148,3.353,9.325,7.482,9.325h68.12
			c4.131,0,7.48-4.175,7.48-9.325V11.171c0-4.346-3.352-7.869-7.482-7.869H7.803c-4.13,0-7.482,3.525-7.482,7.869l-0.001,90.228
			C0.319,101.404,0.32,101.411,0.32,101.419z"/>
	</g>
	<circle fill="#FFFFFF" cx="31.673" cy="79.72" r="10.771"/>
	<circle fill="#FFFFFF" cx="54.005" cy="79.72" r="10.771"/>
	<circle fill="#FFFFFF" cx="31.673" cy="60.53" r="10.771"/>
	<circle fill="#FFFFFF" cx="54.005" cy="60.53" r="10.771"/>
	<circle fill="#FFFFFF" cx="31.673" cy="41.339" r="10.771"/>
	<circle fill="#FFFFFF" cx="54.005" cy="41.339" r="10.771"/>
	<circle fill="#FFFFFF" cx="31.673" cy="22.147" r="10.771"/>
	<circle fill="#FFFFFF" cx="54.005" cy="22.147" r="10.771"/>
	<path fill="#224899" d="M42.444,79.722c0-5.948-4.822-10.772-10.771-10.772c-5.949,0-10.771,4.823-10.771,10.772
		s4.822,10.773,10.771,10.773C37.622,90.495,42.444,85.671,42.444,79.722z M38.909,79.722c0,3.996-3.24,7.236-7.236,7.236
		c-3.996,0-7.236-3.24-7.236-7.236c0-3.998,3.24-7.235,7.236-7.235C35.669,72.486,38.909,75.724,38.909,79.722z M36.884,79.722
		c0-2.879-2.334-5.213-5.211-5.213c-2.881,0-5.215,2.334-5.215,5.213s2.334,5.213,5.215,5.213
		C34.55,84.935,36.884,82.601,36.884,79.722z M35.019,79.722c0,1.849-1.498,3.349-3.346,3.349c-1.85,0-3.348-1.5-3.348-3.349
		c0-1.848,1.498-3.346,3.348-3.346C33.521,76.376,35.019,77.874,35.019,79.722z M33.114,79.722c0-0.797-0.645-1.44-1.441-1.44
		c-0.796,0-1.443,0.645-1.443,1.44s0.646,1.443,1.443,1.443C32.47,81.165,33.114,80.519,33.114,79.722z"/>
	<path fill="#224899" d="M64.776,79.722c0-5.948-4.824-10.771-10.771-10.771c-5.949,0-10.771,4.822-10.771,10.771
		c0,5.949,4.822,10.771,10.771,10.771C59.952,90.493,64.776,85.671,64.776,79.722z M61.239,79.722c0,3.996-3.238,7.236-7.234,7.236
		s-7.236-3.24-7.236-7.236s3.24-7.235,7.236-7.235S61.239,75.726,61.239,79.722z M59.218,79.722c0-2.879-2.334-5.213-5.213-5.213
		s-5.213,2.334-5.213,5.213s2.334,5.213,5.213,5.213S59.218,82.601,59.218,79.722z M57.351,79.722c0,1.849-1.497,3.349-3.346,3.349
		c-1.848,0-3.348-1.5-3.348-3.349c0-1.848,1.5-3.346,3.348-3.346C55.854,76.376,57.351,77.874,57.351,79.722z M55.446,79.722
		c0-0.797-0.646-1.44-1.441-1.44s-1.44,0.645-1.44,1.44s0.645,1.443,1.44,1.443S55.446,80.519,55.446,79.722z"/>
	<path fill="#224899" d="M42.444,60.53c0-5.949-4.822-10.773-10.771-10.773c-5.949,0-10.772,4.824-10.772,10.773
		c0,5.949,4.822,10.773,10.771,10.773C37.621,71.303,42.444,66.479,42.444,60.53z M38.909,60.53c0,3.996-3.24,7.236-7.236,7.236
		c-3.996,0-7.236-3.24-7.236-7.236c0-3.998,3.24-7.236,7.236-7.236C35.669,53.294,38.909,56.532,38.909,60.53z M36.884,60.53
		c0-2.879-2.334-5.213-5.211-5.213c-2.881,0-5.215,2.334-5.215,5.213c0,2.879,2.334,5.213,5.215,5.213
		C34.55,65.743,36.884,63.409,36.884,60.53z M35.019,60.53c0,1.848-1.498,3.348-3.346,3.348c-1.85,0-3.348-1.5-3.348-3.348
		c0-1.848,1.498-3.346,3.348-3.346C33.521,57.185,35.019,58.683,35.019,60.53z M33.114,60.53c0-0.797-0.645-1.441-1.441-1.441
		c-0.796,0-1.443,0.645-1.443,1.441c0,0.796,0.646,1.443,1.443,1.443C32.47,61.973,33.114,61.327,33.114,60.53z"/>
	<path fill="#224899" d="M64.776,60.53c0-5.949-4.824-10.771-10.771-10.771c-5.949,0-10.771,4.822-10.771,10.771
		c0,5.949,4.822,10.771,10.771,10.771C59.952,71.302,64.776,66.479,64.776,60.53z M61.239,60.53c0,3.996-3.238,7.236-7.234,7.236
		s-7.236-3.24-7.236-7.236c0-3.996,3.24-7.236,7.236-7.236S61.239,56.534,61.239,60.53z M59.218,60.53
		c0-2.879-2.334-5.213-5.213-5.213s-5.213,2.334-5.213,5.213c0,2.879,2.334,5.213,5.213,5.213S59.218,63.409,59.218,60.53z
		 M57.351,60.53c0,1.848-1.497,3.348-3.346,3.348c-1.848,0-3.348-1.5-3.348-3.348c0-1.848,1.5-3.346,3.348-3.346
		C55.854,57.184,57.351,58.683,57.351,60.53z M55.446,60.53c0-0.797-0.646-1.441-1.441-1.441s-1.44,0.645-1.44,1.441
		c0,0.796,0.645,1.443,1.44,1.443S55.446,61.327,55.446,60.53z"/>
	<path fill="#224899" d="M42.444,41.339c0-5.949-4.822-10.773-10.771-10.773c-5.949,0-10.772,4.824-10.772,10.773
		c0,5.949,4.822,10.773,10.771,10.773C37.621,52.112,42.444,47.288,42.444,41.339z M38.909,41.339c0,3.996-3.24,7.236-7.236,7.236
		c-3.996,0-7.236-3.24-7.236-7.236s3.24-7.236,7.236-7.236C35.669,34.103,38.909,37.343,38.909,41.339z M36.884,41.339
		c0-2.879-2.334-5.213-5.211-5.213c-2.881,0-5.215,2.334-5.215,5.213s2.334,5.213,5.215,5.213
		C34.55,46.552,36.884,44.218,36.884,41.339z M35.019,41.339c0,1.85-1.498,3.348-3.346,3.348c-1.85,0-3.348-1.498-3.348-3.348
		c0-1.848,1.498-3.346,3.348-3.346C33.521,37.993,35.019,39.491,35.019,41.339z M33.114,41.339c0-0.797-0.645-1.441-1.441-1.441
		c-0.796,0-1.443,0.645-1.443,1.441c0,0.799,0.646,1.443,1.443,1.443C32.47,42.782,33.114,42.138,33.114,41.339z"/>
	<path fill="#224899" d="M64.776,41.339c0-5.949-4.824-10.771-10.771-10.771c-5.949,0-10.771,4.822-10.771,10.771
		c0,5.949,4.822,10.771,10.771,10.771C59.952,52.11,64.776,47.288,64.776,41.339z M61.239,41.339c0,3.996-3.238,7.236-7.234,7.236
		s-7.236-3.24-7.236-7.236s3.24-7.236,7.236-7.236S61.239,37.343,61.239,41.339z M59.218,41.339c0-2.879-2.334-5.213-5.213-5.213
		s-5.213,2.334-5.213,5.213s2.334,5.213,5.213,5.213S59.218,44.218,59.218,41.339z M57.351,41.339c0,1.848-1.497,3.348-3.346,3.348
		c-1.848,0-3.348-1.5-3.348-3.348s1.5-3.346,3.348-3.346C55.854,37.993,57.351,39.491,57.351,41.339z M55.446,41.339
		c0-0.797-0.646-1.441-1.441-1.441s-1.44,0.645-1.44,1.441c0,0.799,0.645,1.443,1.44,1.443S55.446,42.138,55.446,41.339z"/>
	<path fill="#224899" d="M42.444,22.147c0-5.949-4.822-10.773-10.771-10.773c-5.949,0-10.771,4.824-10.771,10.773
		S25.724,32.92,31.673,32.92C37.622,32.92,42.444,28.097,42.444,22.147z M38.909,22.147c0,3.996-3.24,7.236-7.236,7.236
		c-3.996,0-7.236-3.24-7.236-7.236s3.24-7.236,7.236-7.236C35.669,14.911,38.909,18.151,38.909,22.147z M36.884,22.147
		c0-2.879-2.334-5.213-5.211-5.213c-2.881,0-5.215,2.334-5.215,5.213s2.334,5.213,5.215,5.213
		C34.55,27.36,36.884,25.026,36.884,22.147z M35.019,22.147c0,1.85-1.498,3.348-3.346,3.348c-1.85,0-3.348-1.498-3.348-3.348
		c0-1.848,1.498-3.346,3.348-3.346C33.521,18.802,35.019,20.3,35.019,22.147z M33.114,22.147c0-0.797-0.645-1.441-1.441-1.441
		c-0.796,0-1.443,0.645-1.443,1.441c0,0.799,0.646,1.443,1.443,1.443C32.47,23.59,33.114,22.946,33.114,22.147z"/>
	<path fill="#224899" d="M64.776,22.147c0-5.949-4.824-10.771-10.771-10.771c-5.949,0-10.771,4.822-10.771,10.771
		s4.822,10.771,10.771,10.771C59.952,32.919,64.776,28.097,64.776,22.147z M61.239,22.147c0,3.996-3.238,7.236-7.234,7.236
		s-7.236-3.24-7.236-7.236s3.24-7.236,7.236-7.236S61.239,18.151,61.239,22.147z M59.218,22.147c0-2.879-2.334-5.213-5.213-5.213
		s-5.213,2.334-5.213,5.213s2.334,5.213,5.213,5.213S59.218,25.026,59.218,22.147z M57.351,22.147c0,1.848-1.497,3.348-3.346,3.348
		c-1.848,0-3.348-1.5-3.348-3.348s1.5-3.346,3.348-3.346C55.854,18.801,57.351,20.3,57.351,22.147z M55.446,22.147
		c0-0.797-0.646-1.441-1.441-1.441s-1.44,0.645-1.44,1.441c0,0.799,0.645,1.443,1.44,1.443S55.446,22.946,55.446,22.147z"/>
</g>
</svg>
