<?xml version="1.0" encoding="utf-8"?>
<!-- Generator: Adobe Illustrator 12.0.0, SVG Export Plug-In . SVG Version: 6.00 Build 51448)  -->
<!DOCTYPE svg PUBLIC "-//W3C//DTD SVG 1.1//EN" "http://www.w3.org/Graphics/SVG/1.1/DTD/svg11.dtd" [
	<!ENTITY ns_flows "http://ns.adobe.com/Flows/1.0/">
	<!ENTITY ns_extend "http://ns.adobe.com/Extensibility/1.0/">
	<!ENTITY ns_ai "http://ns.adobe.com/AdobeIllustrator/10.0/">
	<!ENTITY ns_graphs "http://ns.adobe.com/Graphs/1.0/">
	<!ENTITY ns_vars "http://ns.adobe.com/Variables/1.0/">
	<!ENTITY ns_imrep "http://ns.adobe.com/ImageReplacement/1.0/">
	<!ENTITY ns_sfw "http://ns.adobe.com/SaveForWeb/1.0/">
	<!ENTITY ns_custom "http://ns.adobe.com/GenericCustomNamespace/1.0/">
	<!ENTITY ns_adobe_xpath "http://ns.adobe.com/XPath/1.0/">
	<!ENTITY ns_svg "http://www.w3.org/2000/svg">
	<!ENTITY ns_xlink "http://www.w3.org/1999/xlink">
]>
<svg  version="1.1"
	 xmlns:x="&ns_extend;" xmlns:i="&ns_ai;" xmlns:graph="&ns_graphs;" i:viewOrigin="-0.3193 135.7061" i:rulerOrigin="0 0" i:pageBounds="0 136 85 0"
	 xmlns="&ns_svg;" xmlns:xlink="&ns_xlink;" xmlns:a="http://ns.adobe.com/AdobeSVGViewerExtensions/3.0/"
	 width="85.678" height="136.025" viewBox="0 0 85.678 136.025" overflow="visible" enable-background="new 0 0 85.678 136.025"
	 xml:space="preserve">
<metadata>
	<variableSets  xmlns="http://ns.adobe.com/Variables/1.0/">
		<variableSet  varSetName="binding1" locked="none">
			<variables></variables>
			<v:sampleDataSets  xmlns:v="http://ns.adobe.com/Variables/1.0/" xmlns="http://ns.adobe.com/GenericCustomNamespace/1.0/">
				</v:sampleDataSets>
		</variableSet>
	</variableSets>
</metadata>
<g id="图层_1" i:knockout="Off" i:layer="yes" i:dimmedPercent="50" i:rgbTrio="#4F008000FFFF">
	<g i:knockout="Off">
		<path fill="#333333" d="M2.274,99.465v24.962c0,5.149,3.353,9.325,7.481,9.325h68.118c4.133,0,7.484-4.176,7.484-9.325h-0.002
			V9.216c0-4.344-3.352-7.869-7.482-7.869H9.756c-4.131,0-7.481,3.525-7.481,7.869H2.272v90.228
			C2.272,99.45,2.274,99.458,2.274,99.465z"/>
		
			<linearGradient id="XMLID_3_" gradientUnits="userSpaceOnUse" x1="-22.9907" y1="22.7183" x2="-22.9907" y2="148.2847" gradientTransform="matrix(1 0 0 -1 64.8535 158.4238)">
			<stop  offset="0.0899" style="stop-color:#2089B9"/>
			<stop  offset="0.0985" style="stop-color:#4FA3C2"/>
			<stop  offset="0.1071" style="stop-color:#77B9CA"/>
			<stop  offset="0.1138" style="stop-color:#8FC7CF"/>
			<stop  offset="0.118" style="stop-color:#98CCD1"/>
			<stop  offset="0.1341" style="stop-color:#9ECFD3"/>
			<stop  offset="0.156" style="stop-color:#AFD6D9"/>
			<stop  offset="0.1809" style="stop-color:#CBE1E3"/>
			<stop  offset="0.1966" style="stop-color:#E1EAEB"/>
			<a:midPointStop  offset="0.0899" style="stop-color:#2089B9"/>
			<a:midPointStop  offset="0.5" style="stop-color:#2089B9"/>
			<a:midPointStop  offset="0.0985" style="stop-color:#4FA3C2"/>
			<a:midPointStop  offset="0.5" style="stop-color:#4FA3C2"/>
			<a:midPointStop  offset="0.1071" style="stop-color:#77B9CA"/>
			<a:midPointStop  offset="0.5" style="stop-color:#77B9CA"/>
			<a:midPointStop  offset="0.1138" style="stop-color:#8FC7CF"/>
			<a:midPointStop  offset="0.5" style="stop-color:#8FC7CF"/>
			<a:midPointStop  offset="0.118" style="stop-color:#98CCD1"/>
			<a:midPointStop  offset="0.5" style="stop-color:#98CCD1"/>
			<a:midPointStop  offset="0.1341" style="stop-color:#9ECFD3"/>
			<a:midPointStop  offset="0.5" style="stop-color:#9ECFD3"/>
			<a:midPointStop  offset="0.156" style="stop-color:#AFD6D9"/>
			<a:midPointStop  offset="0.5" style="stop-color:#AFD6D9"/>
			<a:midPointStop  offset="0.1809" style="stop-color:#CBE1E3"/>
			<a:midPointStop  offset="0.5" style="stop-color:#CBE1E3"/>
			<a:midPointStop  offset="0.1966" style="stop-color:#E1EAEB"/>
		</linearGradient>
		<path fill="url(#XMLID_3_)" d="M83.405,126.381c0,5.15-3.352,9.325-7.48,9.325H7.804c-4.131,0-7.482-4.177-7.482-9.325V19.465
			c0-5.148,3.354-9.326,7.482-9.326h68.117c4.133,0,7.482,4.176,7.482,9.326v106.916H83.405z"/>
		<path fill="none" stroke="#333333" stroke-width="0.977" d="M83.405,126.381c0,5.15-3.352,9.325-7.48,9.325H7.804
			c-4.131,0-7.482-4.177-7.482-9.325V19.465c0-5.148,3.354-9.326,7.482-9.326h68.117c4.133,0,7.482,4.176,7.482,9.326v106.916
			H83.405z"/>
		<path fill="#FFFFFF" d="M0.32,11.17c0-4.344,3.354-7.869,7.482-7.869h68.118c4.133,0,7.482,3.523,7.482,7.869v90.229
			c0,4.346-3.352,7.869-7.482,7.869H7.802c-4.131,0-7.482-3.523-7.482-7.87L0.32,11.17L0.32,11.17z"/>
		
			<linearGradient id="XMLID_4_" gradientUnits="userSpaceOnUse" x1="3.7021" y1="54.9395" x2="85.8467" y2="54.9395" gradientTransform="matrix(-1 0 0 1 86.6367 1.3447)">
			<stop  offset="0" style="stop-color:#A2D8E0"/>
			<stop  offset="0.0899" style="stop-color:#1878AD"/>
			<stop  offset="0.2135" style="stop-color:#194D91"/>
			<stop  offset="0.6404" style="stop-color:#2B90BD"/>
			<stop  offset="0.9438" style="stop-color:#82CBDE"/>
			<stop  offset="1" style="stop-color:#1A478D"/>
			<a:midPointStop  offset="0" style="stop-color:#A2D8E0"/>
			<a:midPointStop  offset="0.5" style="stop-color:#A2D8E0"/>
			<a:midPointStop  offset="0.0899" style="stop-color:#1878AD"/>
			<a:midPointStop  offset="0.5" style="stop-color:#1878AD"/>
			<a:midPointStop  offset="0.2135" style="stop-color:#194D91"/>
			<a:midPointStop  offset="0.5" style="stop-color:#194D91"/>
			<a:midPointStop  offset="0.6404" style="stop-color:#2B90BD"/>
			<a:midPointStop  offset="0.5" style="stop-color:#2B90BD"/>
			<a:midPointStop  offset="0.9438" style="stop-color:#82CBDE"/>
			<a:midPointStop  offset="0.5" style="stop-color:#82CBDE"/>
			<a:midPointStop  offset="1" style="stop-color:#1A478D"/>
		</linearGradient>
		<path i:isolated="yes" i:knockout="Off" opacity="0.1" fill="url(#XMLID_4_)" enable-background="new    " d="M0.79,11.17
			c0-4.344,3.313-7.869,7.397-7.869h67.347c4.086,0,7.4,3.523,7.4,7.869v90.229c0,4.346-3.314,7.869-7.4,7.869H8.188
			c-4.084,0-7.397-3.523-7.397-7.87V11.17L0.79,11.17z"/>
		<path fill="none" stroke="#4D4D4D" stroke-width="0.977" d="M0.32,101.419v24.962c0,5.148,3.353,9.325,7.482,9.325h68.12
			c4.131,0,7.48-4.175,7.48-9.325V11.171c0-4.346-3.352-7.869-7.482-7.869H7.803c-4.13,0-7.482,3.525-7.482,7.869l-0.001,90.228
			C0.319,101.404,0.32,101.411,0.32,101.419z"/>
	</g>
	<circle fill="#FFFFFF" cx="63.402" cy="21.794" r="10.771"/>
	<circle fill="#FFFFFF" cx="42.777" cy="21.794" r="10.771"/>
	<circle fill="#FFFFFF" cx="22.276" cy="21.794" r="10.771"/>
	<circle fill="#FFFFFF" cx="63.401" cy="50.243" r="10.771"/>
	<circle fill="#FFFFFF" cx="42.777" cy="50.243" r="10.771"/>
	<circle fill="#FFFFFF" cx="22.276" cy="50.243" r="10.771"/>
	<circle fill="#FFFFFF" cx="63.401" cy="80.071" r="10.771"/>
	<circle fill="#FFFFFF" cx="42.777" cy="80.071" r="10.771"/>
	<circle fill="#FFFFFF" cx="22.276" cy="80.071" r="10.771"/>
	<path fill="#224899" d="M52.63,21.795c0,5.947,4.822,10.771,10.771,10.771c5.947,0,10.771-4.824,10.771-10.771
		c0-5.95-4.822-10.772-10.771-10.772C57.452,11.023,52.63,15.845,52.63,21.795z M56.165,21.795c0-3.998,3.24-7.237,7.236-7.237
		c3.995,0,7.234,3.239,7.234,7.237c0,3.996-3.239,7.234-7.234,7.234C59.405,29.03,56.165,25.792,56.165,21.795z M58.189,21.793
		c0,2.879,2.335,5.213,5.212,5.213c2.881,0,5.215-2.334,5.215-5.213s-2.334-5.213-5.214-5.213
		C60.524,16.581,58.189,18.915,58.189,21.793z M60.055,21.793c0-1.848,1.499-3.346,3.349-3.346c1.849,0,3.347,1.498,3.347,3.346
		c0,1.849-1.498,3.349-3.348,3.349C61.554,25.141,60.055,23.641,60.055,21.793z M61.958,21.793c0,0.797,0.646,1.441,1.443,1.441
		c0.795,0,1.44-0.646,1.44-1.441s-0.646-1.442-1.44-1.442C62.604,20.351,61.958,20.997,61.958,21.793z"/>
	<path fill="#224899" d="M32.005,21.795c0,5.947,4.822,10.771,10.771,10.771s10.772-4.824,10.772-10.771
		c0-5.95-4.822-10.772-10.771-10.772S32.005,15.845,32.005,21.795z M35.54,21.795c0-3.998,3.239-7.237,7.236-7.237
		c3.997,0,7.236,3.239,7.236,7.237c0,3.996-3.239,7.234-7.236,7.234C38.779,29.03,35.54,25.792,35.54,21.795z M37.564,21.793
		c0,2.879,2.334,5.213,5.212,5.213c2.88,0,5.214-2.334,5.214-5.213s-2.334-5.213-5.214-5.213
		C39.898,16.581,37.564,18.915,37.564,21.793z M39.43,21.793c0-1.848,1.499-3.346,3.347-3.346c1.85,0,3.347,1.498,3.347,3.346
		c0,1.849-1.497,3.349-3.347,3.349C40.929,25.141,39.43,23.641,39.43,21.793z M41.334,21.793c0,0.797,0.646,1.441,1.442,1.441
		c0.796,0,1.442-0.646,1.442-1.441s-0.646-1.442-1.442-1.442C41.98,20.351,41.334,20.997,41.334,21.793z"/>
	<path fill="#224899" d="M11.505,21.795c0,5.947,4.822,10.771,10.771,10.771c5.949,0,10.772-4.824,10.772-10.771
		c0-5.95-4.822-10.772-10.771-10.772C16.328,11.023,11.505,15.845,11.505,21.795z M15.04,21.795c0-3.998,3.239-7.237,7.235-7.237
		s7.236,3.239,7.236,7.237c0,3.996-3.24,7.234-7.236,7.234S15.04,25.792,15.04,21.795z M17.064,21.793
		c0,2.879,2.334,5.213,5.212,5.213c2.88,0,5.214-2.334,5.214-5.213s-2.334-5.213-5.214-5.213
		C19.398,16.581,17.064,18.915,17.064,21.793z M18.93,21.793c0-1.848,1.499-3.346,3.347-3.346c1.851,0,3.348,1.498,3.348,3.346
		c0,1.849-1.497,3.349-3.348,3.349C20.429,25.141,18.93,23.641,18.93,21.793z M20.834,21.793c0,0.797,0.646,1.441,1.441,1.441
		s1.442-0.646,1.442-1.441s-0.646-1.442-1.442-1.442S20.834,20.997,20.834,21.793z"/>
	<path fill="#D90000" d="M52.63,50.243c0,5.951,4.822,10.773,10.771,10.773c5.947,0,10.771-4.822,10.771-10.773
		c0-5.949-4.822-10.773-10.771-10.773C57.452,39.47,52.63,44.294,52.63,50.243z M56.165,50.243c0-3.996,3.24-7.236,7.236-7.236
		c3.995,0,7.234,3.24,7.234,7.236c0,3.998-3.239,7.238-7.234,7.238C59.405,57.481,56.165,54.241,56.165,50.243z M58.189,50.243
		c0,2.879,2.335,5.213,5.212,5.213c2.881,0,5.215-2.334,5.215-5.213c0-2.879-2.334-5.213-5.215-5.213
		C60.524,45.03,58.189,47.364,58.189,50.243z M60.055,50.243c0-1.85,1.499-3.348,3.348-3.348c1.85,0,3.348,1.498,3.348,3.348
		c0,1.85-1.498,3.346-3.348,3.346C61.554,53.589,60.055,52.093,60.055,50.243z M61.958,50.243c0,0.795,0.646,1.441,1.443,1.441
		c0.795,0,1.44-0.646,1.44-1.441c0-0.799-0.646-1.443-1.44-1.443C62.604,48.8,61.958,49.444,61.958,50.243z"/>
	<path fill="#D90000" d="M32.005,50.243c0,5.951,4.822,10.773,10.771,10.773s10.772-4.822,10.772-10.773
		c0-5.949-4.822-10.773-10.771-10.773S32.005,44.294,32.005,50.243z M35.54,50.243c0-3.996,3.239-7.236,7.236-7.236
		c3.997,0,7.236,3.24,7.236,7.236c0,3.998-3.239,7.238-7.236,7.238C38.779,57.481,35.54,54.241,35.54,50.243z M37.564,50.243
		c0,2.879,2.334,5.213,5.212,5.213c2.88,0,5.214-2.334,5.214-5.213c0-2.879-2.334-5.213-5.214-5.213
		C39.898,45.03,37.564,47.364,37.564,50.243z M39.43,50.243c0-1.85,1.499-3.348,3.347-3.348c1.849,0,3.347,1.498,3.347,3.348
		c0,1.85-1.498,3.346-3.347,3.346C40.929,53.589,39.43,52.093,39.43,50.243z M41.334,50.243c0,0.795,0.646,1.441,1.442,1.441
		c0.795,0,1.442-0.646,1.442-1.441c0-0.799-0.646-1.443-1.442-1.443C41.979,48.8,41.334,49.444,41.334,50.243z"/>
	<path fill="#D90000" d="M11.505,50.243c0,5.951,4.822,10.773,10.771,10.773c5.949,0,10.772-4.822,10.772-10.773
		c0-5.949-4.822-10.773-10.771-10.773C16.328,39.47,11.505,44.294,11.505,50.243z M15.04,50.243c0-3.996,3.239-7.236,7.235-7.236
		s7.236,3.24,7.236,7.236c0,3.998-3.24,7.238-7.236,7.238S15.04,54.241,15.04,50.243z M17.064,50.243
		c0,2.879,2.334,5.213,5.212,5.213c2.88,0,5.214-2.334,5.214-5.213c0-2.879-2.334-5.213-5.214-5.213
		C19.398,45.03,17.064,47.364,17.064,50.243z M18.93,50.243c0-1.85,1.499-3.348,3.347-3.348c1.851,0,3.348,1.498,3.348,3.348
		c0,1.85-1.497,3.346-3.348,3.346C20.429,53.589,18.93,52.093,18.93,50.243z M20.834,50.243c0,0.795,0.646,1.441,1.441,1.441
		s1.442-0.646,1.442-1.441c0-0.799-0.646-1.443-1.442-1.443S20.834,49.444,20.834,50.243z"/>
	<path fill="#1D8F38" d="M52.63,80.073c0,5.948,4.821,10.771,10.771,10.771c5.949,0,10.771-4.821,10.771-10.771
		c0-5.951-4.822-10.773-10.771-10.773C57.452,69.3,52.63,74.122,52.63,80.073z M56.165,80.073c0-3.996,3.24-7.238,7.236-7.238
		c3.995,0,7.234,3.242,7.234,7.238s-3.239,7.234-7.235,7.234S56.165,84.069,56.165,80.073z M58.189,80.071
		c0,2.879,2.335,5.213,5.212,5.213c2.881,0,5.215-2.334,5.215-5.213s-2.334-5.213-5.215-5.213
		C60.524,74.858,58.189,77.192,58.189,80.071z M60.055,80.071c0-1.85,1.499-3.35,3.348-3.35c1.85,0,3.348,1.5,3.348,3.35
		s-1.498,3.346-3.348,3.346C61.554,83.417,60.055,81.921,60.055,80.071z M61.958,80.071c0,0.797,0.646,1.439,1.443,1.439
		c0.795,0,1.44-0.646,1.44-1.439c0-0.797-0.646-1.443-1.44-1.443C62.604,78.628,61.958,79.274,61.958,80.071z"/>
	<path fill="#1D8F38" d="M32.005,80.072c0,5.948,4.822,10.771,10.771,10.771s10.772-4.821,10.772-10.771
		c0-5.951-4.822-10.773-10.771-10.773S32.005,74.121,32.005,80.072z M35.54,80.072c0-3.996,3.239-7.237,7.236-7.237
		c3.997,0,7.236,3.242,7.236,7.238s-3.239,7.234-7.236,7.234C38.779,87.309,35.54,84.068,35.54,80.072z M37.564,80.07
		c0,2.879,2.334,5.213,5.212,5.214c2.879,0,5.213-2.334,5.213-5.213s-2.333-5.213-5.213-5.213
		C39.898,74.857,37.564,77.191,37.564,80.07z M39.43,80.07c0-1.849,1.499-3.349,3.347-3.349c1.849,0,3.346,1.5,3.346,3.35
		s-1.497,3.346-3.346,3.346C40.929,83.416,39.43,81.921,39.43,80.07z M41.334,80.07c0,0.797,0.646,1.44,1.442,1.44
		c0.795,0,1.442-0.646,1.442-1.439c0-0.797-0.646-1.443-1.442-1.443C41.979,78.628,41.334,79.273,41.334,80.07z"/>
	<path fill="#1D8F38" d="M11.505,80.072c0,5.948,4.822,10.771,10.771,10.771c5.949,0,10.772-4.822,10.772-10.771
		c0-5.951-4.822-10.772-10.771-10.772C16.328,69.3,11.505,74.121,11.505,80.072z M15.04,80.072c0-3.996,3.239-7.237,7.235-7.237
		s7.236,3.241,7.236,7.237s-3.24,7.235-7.236,7.235S15.04,84.068,15.04,80.072z M17.064,80.07c0,2.879,2.334,5.213,5.212,5.213
		c2.88,0,5.214-2.334,5.214-5.213s-2.334-5.213-5.214-5.213C19.398,74.857,17.064,77.191,17.064,80.07z M18.93,80.07
		c0-1.849,1.499-3.349,3.347-3.349c1.851,0,3.348,1.5,3.348,3.349c0,1.851-1.497,3.346-3.348,3.346
		C20.429,83.416,18.93,81.921,18.93,80.07z M20.834,80.07c0,0.797,0.646,1.44,1.441,1.44s1.442-0.646,1.442-1.44
		s-0.646-1.442-1.442-1.442S20.834,79.273,20.834,80.07z"/>
</g>
</svg>
