<?xml version="1.0" encoding="utf-8"?>
<!-- Generator: Adobe Illustrator 12.0.0, SVG Export Plug-In . SVG Version: 6.00 Build 51448)  -->
<!DOCTYPE svg PUBLIC "-//W3C//DTD SVG 1.1//EN" "http://www.w3.org/Graphics/SVG/1.1/DTD/svg11.dtd" [
	<!ENTITY ns_flows "http://ns.adobe.com/Flows/1.0/">
	<!ENTITY ns_extend "http://ns.adobe.com/Extensibility/1.0/">
	<!ENTITY ns_ai "http://ns.adobe.com/AdobeIllustrator/10.0/">
	<!ENTITY ns_graphs "http://ns.adobe.com/Graphs/1.0/">
	<!ENTITY ns_vars "http://ns.adobe.com/Variables/1.0/">
	<!ENTITY ns_imrep "http://ns.adobe.com/ImageReplacement/1.0/">
	<!ENTITY ns_sfw "http://ns.adobe.com/SaveForWeb/1.0/">
	<!ENTITY ns_custom "http://ns.adobe.com/GenericCustomNamespace/1.0/">
	<!ENTITY ns_adobe_xpath "http://ns.adobe.com/XPath/1.0/">
	<!ENTITY ns_svg "http://www.w3.org/2000/svg">
	<!ENTITY ns_xlink "http://www.w3.org/1999/xlink">
]>
<svg  version="1.1"
	 xmlns:x="&ns_extend;" xmlns:i="&ns_ai;" xmlns:graph="&ns_graphs;" i:viewOrigin="-0.3193 135.7061" i:rulerOrigin="0 0" i:pageBounds="0 136 85 0"
	 xmlns="&ns_svg;" xmlns:xlink="&ns_xlink;" xmlns:a="http://ns.adobe.com/AdobeSVGViewerExtensions/3.0/"
	 width="85.678" height="136.025" viewBox="0 0 85.678 136.025" overflow="visible" enable-background="new 0 0 85.678 136.025"
	 xml:space="preserve">
<metadata>
	<variableSets  xmlns="http://ns.adobe.com/Variables/1.0/">
		<variableSet  varSetName="binding1" locked="none">
			<variables></variables>
			<v:sampleDataSets  xmlns:v="http://ns.adobe.com/Variables/1.0/" xmlns="http://ns.adobe.com/GenericCustomNamespace/1.0/">
				</v:sampleDataSets>
		</variableSet>
	</variableSets>
</metadata>
<g id="图层_1" i:knockout="Off" i:layer="yes" i:dimmedPercent="50" i:rgbTrio="#4F008000FFFF">
	<g i:knockout="Off">
		<path fill="#333333" d="M2.274,99.465v24.962c0,5.149,3.353,9.325,7.481,9.325h68.118c4.133,0,7.484-4.176,7.484-9.325h-0.002
			V9.216c0-4.344-3.352-7.869-7.482-7.869H9.756c-4.131,0-7.481,3.525-7.481,7.869H2.272v90.228
			C2.272,99.45,2.274,99.458,2.274,99.465z"/>
		
			<linearGradient id="XMLID_3_" gradientUnits="userSpaceOnUse" x1="-22.9907" y1="22.7183" x2="-22.9907" y2="148.2847" gradientTransform="matrix(1 0 0 -1 64.8535 158.4238)">
			<stop  offset="0.0899" style="stop-color:#2089B9"/>
			<stop  offset="0.0985" style="stop-color:#4FA3C2"/>
			<stop  offset="0.1071" style="stop-color:#77B9CA"/>
			<stop  offset="0.1138" style="stop-color:#8FC7CF"/>
			<stop  offset="0.118" style="stop-color:#98CCD1"/>
			<stop  offset="0.1341" style="stop-color:#9ECFD3"/>
			<stop  offset="0.156" style="stop-color:#AFD6D9"/>
			<stop  offset="0.1809" style="stop-color:#CBE1E3"/>
			<stop  offset="0.1966" style="stop-color:#E1EAEB"/>
			<a:midPointStop  offset="0.0899" style="stop-color:#2089B9"/>
			<a:midPointStop  offset="0.5" style="stop-color:#2089B9"/>
			<a:midPointStop  offset="0.0985" style="stop-color:#4FA3C2"/>
			<a:midPointStop  offset="0.5" style="stop-color:#4FA3C2"/>
			<a:midPointStop  offset="0.1071" style="stop-color:#77B9CA"/>
			<a:midPointStop  offset="0.5" style="stop-color:#77B9CA"/>
			<a:midPointStop  offset="0.1138" style="stop-color:#8FC7CF"/>
			<a:midPointStop  offset="0.5" style="stop-color:#8FC7CF"/>
			<a:midPointStop  offset="0.118" style="stop-color:#98CCD1"/>
			<a:midPointStop  offset="0.5" style="stop-color:#98CCD1"/>
			<a:midPointStop  offset="0.1341" style="stop-color:#9ECFD3"/>
			<a:midPointStop  offset="0.5" style="stop-color:#9ECFD3"/>
			<a:midPointStop  offset="0.156" style="stop-color:#AFD6D9"/>
			<a:midPointStop  offset="0.5" style="stop-color:#AFD6D9"/>
			<a:midPointStop  offset="0.1809" style="stop-color:#CBE1E3"/>
			<a:midPointStop  offset="0.5" style="stop-color:#CBE1E3"/>
			<a:midPointStop  offset="0.1966" style="stop-color:#E1EAEB"/>
		</linearGradient>
		<path fill="url(#XMLID_3_)" d="M83.405,126.381c0,5.15-3.352,9.325-7.48,9.325H7.804c-4.131,0-7.482-4.177-7.482-9.325V19.465
			c0-5.148,3.354-9.326,7.482-9.326h68.117c4.133,0,7.482,4.176,7.482,9.326v106.916H83.405z"/>
		<path fill="none" stroke="#333333" stroke-width="0.977" d="M83.405,126.381c0,5.15-3.352,9.325-7.48,9.325H7.804
			c-4.131,0-7.482-4.177-7.482-9.325V19.465c0-5.148,3.354-9.326,7.482-9.326h68.117c4.133,0,7.482,4.176,7.482,9.326v106.916
			H83.405z"/>
		<path fill="#FFFFFF" d="M0.32,11.17c0-4.344,3.354-7.869,7.482-7.869h68.118c4.133,0,7.482,3.523,7.482,7.869v90.229
			c0,4.346-3.352,7.869-7.482,7.869H7.802c-4.131,0-7.482-3.523-7.482-7.87L0.32,11.17L0.32,11.17z"/>
		
			<linearGradient id="XMLID_4_" gradientUnits="userSpaceOnUse" x1="3.7021" y1="54.9395" x2="85.8467" y2="54.9395" gradientTransform="matrix(-1 0 0 1 86.6367 1.3447)">
			<stop  offset="0" style="stop-color:#A2D8E0"/>
			<stop  offset="0.0899" style="stop-color:#1878AD"/>
			<stop  offset="0.2135" style="stop-color:#194D91"/>
			<stop  offset="0.6404" style="stop-color:#2B90BD"/>
			<stop  offset="0.9438" style="stop-color:#82CBDE"/>
			<stop  offset="1" style="stop-color:#1A478D"/>
			<a:midPointStop  offset="0" style="stop-color:#A2D8E0"/>
			<a:midPointStop  offset="0.5" style="stop-color:#A2D8E0"/>
			<a:midPointStop  offset="0.0899" style="stop-color:#1878AD"/>
			<a:midPointStop  offset="0.5" style="stop-color:#1878AD"/>
			<a:midPointStop  offset="0.2135" style="stop-color:#194D91"/>
			<a:midPointStop  offset="0.5" style="stop-color:#194D91"/>
			<a:midPointStop  offset="0.6404" style="stop-color:#2B90BD"/>
			<a:midPointStop  offset="0.5" style="stop-color:#2B90BD"/>
			<a:midPointStop  offset="0.9438" style="stop-color:#82CBDE"/>
			<a:midPointStop  offset="0.5" style="stop-color:#82CBDE"/>
			<a:midPointStop  offset="1" style="stop-color:#1A478D"/>
		</linearGradient>
		<path i:isolated="yes" i:knockout="Off" opacity="0.1" fill="url(#XMLID_4_)" enable-background="new    " d="M0.79,11.17
			c0-4.344,3.313-7.869,7.397-7.869h67.347c4.086,0,7.4,3.523,7.4,7.869v90.229c0,4.346-3.314,7.869-7.4,7.869H8.188
			c-4.084,0-7.397-3.523-7.397-7.87V11.17L0.79,11.17z"/>
		<path fill="none" stroke="#4D4D4D" stroke-width="0.977" d="M0.32,101.419v24.962c0,5.148,3.353,9.325,7.482,9.325h68.12
			c4.131,0,7.48-4.175,7.48-9.325V11.171c0-4.346-3.352-7.869-7.482-7.869H7.803c-4.13,0-7.482,3.525-7.482,7.869l-0.001,90.228
			C0.319,101.404,0.32,101.411,0.32,101.419z"/>
	</g>
	<path fill="#24258D" d="M43.729,61.7l-0.81-0.451c0.179,2.339,1.08,11.07,2.068,11.521c0.989,0.45,1.979-0.359,1.979-0.359
		C46.247,68.271,43.729,61.7,43.729,61.7z"/>
	<path fill="#24258D" d="M46.968,61.428c-0.54-1.978-1.17-1.619-1.17-1.619s-0.45,2.881,0.271,7.381c0.721,4.5,1.711,4.77,2.25,4.77
		c0.541,0,0.449-1.08,0.449-1.08S47.508,63.409,46.968,61.428z"/>
	<path fill="#24258D" d="M50.208,60.979c0-1.349-1.08-2.97-1.53-1.98c-0.449,0.99-0.181,7.65,0,9.451
		c0.182,1.799,1.127,3.188,1.53,2.969C51.198,70.88,50.208,62.328,50.208,60.979z"/>
	<path fill="#24258D" d="M53.089,62.689c-0.18-1.621-1.08-5.13-1.53-4.23c-0.447,0.901-0.09,11.25-0.09,12.061
		s0.089,1.979,0.899,1.979c0.81,0,0.99-1.17,0.99-1.17C53.448,70.249,53.268,64.31,53.089,62.689z"/>
	<path fill="#24258D" d="M54.169,59.27c0,0.809-1.352,11.068-0.631,12.42c0.72,1.35,1.979-0.451,1.979-0.451
		C56.417,61.069,54.167,58.46,54.169,59.27z"/>
	<path fill="#24258D" d="M57.317,63.14c-0.539,1.709-1.529,9.27-1.439,10.08c0.09,0.812,1.529,0.891,1.71-0.631
		C58.218,67.28,57.858,61.429,57.317,63.14z"/>
	<path fill="#24258D" d="M55.157,82.399c1.711-3.24-0.449-5.762-1.529-6.119c-1.08-0.361-4.547-0.809-4.95,3.33
		C48.173,84.794,53.983,84.624,55.157,82.399z M51.018,78.89c0.899-0.898,3.24-0.447,2.79,1.893c-0.192,1.007-1.35,1.259-2.25,0.896
		C50.657,81.319,50.118,79.79,51.018,78.89z"/>
	<path fill="#24258D" d="M28.421,65.838c-11.646,1.281-15.701,4.268-15.772,4.332c-1.08,0.96-0.779,2.148-0.779,2.148
		s2.985-1.342,6.402-2.113c2.478-0.561,6.053-0.262,6.053-0.262l6.731,5.039l-3.275,1.941c0,0-1.079,0.79-1.308,2.146
		c-0.538,3.214,0.083,4.541-0.337,5.438c-0.42,0.9-3.588,3.697-4.188,4.416c-0.304,0.365-0.269,2.283-0.87,3.793
		c-0.589,1.471-1.817,2.541-1.817,2.541L16.43,97.6c0,0,4.02,0.205,4.68,0.084c0.66-0.117,1.801-1.5,2.58-3.236
		c0.78-1.74,1.043-4.369,1.645-5.088c0.6-0.723,1.98-1.576,3.229-2.381c1.506-0.969,3.047-2.035,3.047-2.035
		s2.102-0.486,3.605-1.826c1.295-1.154,2.441-2.711,2.441-2.711s1.654-0.412,2.509-0.822c1.22-0.586,1.806-1.229,2.124-1.193
		c0.54,0.062,0.233,2.992,1.826,5.867c1.383,2.5,3.91,4.213,3.91,4.213s1.85,0.812,3.534-0.234c0.898-0.561,0.195-2.059,0.195-2.059
		s-7.057-0.326-8.292-12.791c-0.599-6.042-5.544-8.604-5.544-8.604s6.171-6.882,9.479-7.861c2.641-0.779,5.856-0.047,8.977,1.332
		c3.119,1.38,3.721,9.168,2.341,13.068c-0.608,1.723-0.021,3.102-2.001,7.873c-1.979,4.769,1.285,6.623,1.285,6.623
		s1.552,0.185,2.186-0.139c0.601-0.307,0.351-1.348,0.351-1.348s-1.92-1.413-1.92-2.449s2.065-5.301,2.951-11.184
		c1.604-10.68-2.215-12.924-2.215-12.924s1.229-1.273,1.508-2.443c0.5-2.082,0.186-4.615,0.186-4.615s5.714-0.449,8.318,2.264
		c3.291,3.429,2.409,10.48,3.562,10.48c1.151,0,1.631-9.309-1.009-12.168c-5.185-5.615-11.303-3.744-11.303-3.744
		s5.467-8.963,4.623-15.697c-1.303-10.371-6.711-14.543-6.711-14.543s-1.783-0.035-1.08,1.008
		c7.416,11.016,3.383,17.641,3.383,17.641s-4.307,1.988-6.157,4.82c-1.587,2.43-1.401,5.979-1.401,5.979s-6.12-5.543-10.008-6.191
		c-4.73-0.789-11.448,2.232-11.448,2.232s0.433,1.152,1.369,1.152c0.935,0,8.134-0.721,10.367-0.145
		c2.232,0.576,7.849,6.912,7.849,6.912l0.071,2.879c0,0-2.252-0.08-4.01,0.43c-1.646,0.479-2.688,1.014-2.688,1.014
		s-6.525-3.033-13.979-11.24c-6.519-7.178-13.325-19.084-15.608-27.119c-0.551-1.936-2.108-1.41-1.99-0.465
		c1.908,15.35,11.457,28.848,12.846,32.145c1.387,3.295,9.781,17.369,9.781,17.369S31.726,65.478,28.421,65.838z M58.163,56.48
		c0,0-1.08-0.863-2.088-1.08c0,0-0.36-2.737,0.646-3.6c0,0,1.514-0.432,2.521-0.289C59.243,51.511,59.243,54.968,58.163,56.48z
		 M56.939,42.728c1.151-1.512,4.896-4.248,4.896-4.248s-1.728,6.48-4.032,8.785c0,0-1.438-0.073-2.231,0.359
		C55.571,47.624,55.788,44.239,56.939,42.728z M53.052,51.296c0,0,1.296-0.217,1.872,0.072c0,0-0.937,2.016-0.792,3.168
		c0,0-0.288-0.432-1.151-0.432C52.979,54.104,53.34,51.728,53.052,51.296z M31.669,67.712l4.176,4.607l-0.936,0.432l-4.753-4.68
		L31.669,67.712z M25.764,68.576l2.088-0.432l5.977,5.328l-0.944,0.629c0,0-0.776-0.688-1.483-1.252
		C28.821,70.788,25.765,68.575,25.764,68.576z M31.438,83.075c-0.694,0.317-3.059-0.113-3.246-2.232
		c-0.138-1.572,4.151-4.588,4.151-4.588l3.547,3.162C35.891,79.417,32.332,82.665,31.438,83.075z M41.749,76.819
		c0,0-1.079,0.489-1.945,0.77c-1.087,0.347-1.892,0.982-1.892,0.982l-0.688-0.996c0,0,0.453-0.488,1.421-0.963
		c1.207-0.594,2.983-1.197,2.983-1.197L41.749,76.819z M41.269,73.544c0,0-2.246,0.91-3.846,1.867
		c-1.248,0.745-1.459,1.229-1.459,1.229l-1.224-1.039c0.505-0.646,5.804-3.791,5.804-3.791L41.269,73.544z M28.069,47.34
		l5.279,2.059c0,0,1.008,1.488,3.455,2.664c0,0-3.408-0.623-4.992-0.623l0.793,1.008c0,0,5.543,1.08,9,3.455c0,0-0.36,0.359-1.801,0
		c-1.441-0.359-7.128-2.375-7.128-2.375l0.864,1.727c0,0,1.447,0.502,3.965,1.354c1.65,0.56,4.171,1.455,4.171,1.455l-1.8,1.152
		l-4.824-2.232v1.152l3.936,2.424l-1.799,2.039C37.188,62.599,29.39,50.101,28.069,47.34z M38.005,67.927
		c0.792,0.217,2.28,2.604,2.28,2.604l-2.714,1.287l-3.761-4.393C33.811,67.425,37.212,67.712,38.005,67.927z"/>
	<path fill="#1D8F38" d="M33.181,43.952c0.935,0,8.134-0.721,10.367-0.145c2.232,0.576,7.849,6.912,7.849,6.912
		c0.504-0.289,1.655,0.576,1.655,0.576s1.296-0.217,1.872,0.072l1.8,0.432c0,0,1.152-0.504,2.16-0.359v1.295
		c1.08,0.072,2.208,1.084,2.208,1.084c0.038-0.455,0.051-0.897,0.05-1.299c-0.003-1.035-0.098-1.801-0.098-1.801
		s5.714-0.449,8.318,2.264c3.291,3.429,2.409,10.48,3.562,10.48c1.151,0,1.631-9.309-1.009-12.168
		c-5.185-5.615-11.303-3.744-11.303-3.744s5.467-8.963,4.623-15.697c-1.303-10.371-6.711-14.543-6.711-14.543
		s-1.783-0.035-1.08,1.008c7.416,11.016,3.383,17.641,3.383,17.641s-4.307,1.988-6.157,4.82c-1.587,2.43-1.402,5.979-1.402,5.979
		s-6.119-5.543-10.007-6.191C38.53,39.779,31.812,42.8,31.812,42.8S32.244,43.952,33.181,43.952z M56.939,42.728
		c1.151-1.512,4.896-4.248,4.896-4.248s-1.728,6.48-4.032,8.785c0,0-1.438-0.073-2.231,0.359
		C55.571,47.624,55.788,44.239,56.939,42.728z"/>
	<path fill="#D90000" d="M36.978,96.079c0,0,1.905-1.322,3.596-2.32C42.389,92.688,44,91.942,44,91.942l9.125-0.021l-0.217-2.592
		l-4.318-0.674c0,0,1.814,0.309,2.857-0.537c0.819-0.662,0.291-1.939,0.291-1.939s2.81-0.809,3.961-0.809
		c1.15,0,3.779,2.34,3.779,2.34l-1.457-1.927c0,0,1.145,0.143,1.906-0.164c0.877-0.355,0.596-1.312,0.596-1.312
		s2.027,2.614,3.842,4.518c2.295,2.411,2.207,4.016,2.207,4.016s-1.86,0.041-4.059-1.176c-3.385-1.871-6.923-2.459-6.923-2.459
		s2.32,3.654,2.896,4.445c0.576,0.793-0.176,3.346-1.896,4.219c-1.002,0.51-3.505-0.439-3.505-0.439s-5.253-1.969-6.624-2.088
		C43.944,95.126,36.978,96.079,36.978,96.079z"/>
	<path fill="#D90000" d="M15.184,16.683c2.283,8.035,9.089,19.941,15.608,27.119l-4.754,4.561
		C24.649,45.066,15.1,31.568,13.192,16.218C13.073,15.272,14.632,14.747,15.184,16.683z"/>
	<path fill="#D90000" d="M27.779,76.927l3.275-1.941l1.288,1.271c0,0-4.289,3.016-4.151,4.588c0.187,2.119,2.552,2.55,3.246,2.232
		c0.894-0.41,4.452-3.658,4.452-3.658l1.766,0.99c0,0-1.146,1.557-2.441,2.711c-1.503,1.34-3.605,1.826-3.605,1.826
		s-1.541,1.066-3.047,2.037c-1.248,0.803-2.628,1.656-3.229,2.379c-0.602,0.719-0.865,3.348-1.645,5.088
		c-0.779,1.736-1.92,3.119-2.58,3.236c-0.66,0.121-4.68-0.084-4.68-0.084l2.831-2.342c0,0,1.229-1.068,1.817-2.541
		c0.601-1.51,0.566-3.428,0.87-3.793c0.601-0.719,3.769-3.516,4.188-4.416c0.42-0.896-0.201-2.224,0.337-5.438
		C26.699,77.716,27.78,76.927,27.779,76.927z"/>
</g>
</svg>
