<?xml version="1.0" encoding="utf-8"?>
<!-- Generator: Adobe Illustrator 12.0.0, SVG Export Plug-In . SVG Version: 6.00 Build 51448)  -->
<!DOCTYPE svg PUBLIC "-//W3C//DTD SVG 1.1//EN" "http://www.w3.org/Graphics/SVG/1.1/DTD/svg11.dtd" [
	<!ENTITY ns_flows "http://ns.adobe.com/Flows/1.0/">
	<!ENTITY ns_extend "http://ns.adobe.com/Extensibility/1.0/">
	<!ENTITY ns_ai "http://ns.adobe.com/AdobeIllustrator/10.0/">
	<!ENTITY ns_graphs "http://ns.adobe.com/Graphs/1.0/">
	<!ENTITY ns_vars "http://ns.adobe.com/Variables/1.0/">
	<!ENTITY ns_imrep "http://ns.adobe.com/ImageReplacement/1.0/">
	<!ENTITY ns_sfw "http://ns.adobe.com/SaveForWeb/1.0/">
	<!ENTITY ns_custom "http://ns.adobe.com/GenericCustomNamespace/1.0/">
	<!ENTITY ns_adobe_xpath "http://ns.adobe.com/XPath/1.0/">
	<!ENTITY ns_svg "http://www.w3.org/2000/svg">
	<!ENTITY ns_xlink "http://www.w3.org/1999/xlink">
]>
<svg  version="1.1"
	 xmlns:x="&ns_extend;" xmlns:i="&ns_ai;" xmlns:graph="&ns_graphs;" i:viewOrigin="-0.3193 135.7061" i:rulerOrigin="0 0" i:pageBounds="0 136 85 0"
	 xmlns="&ns_svg;" xmlns:xlink="&ns_xlink;" xmlns:a="http://ns.adobe.com/AdobeSVGViewerExtensions/3.0/"
	 width="85.678" height="136.025" viewBox="0 0 85.678 136.025" overflow="visible" enable-background="new 0 0 85.678 136.025"
	 xml:space="preserve">
<metadata>
	<variableSets  xmlns="http://ns.adobe.com/Variables/1.0/">
		<variableSet  varSetName="binding1" locked="none">
			<variables></variables>
			<v:sampleDataSets  xmlns:v="http://ns.adobe.com/Variables/1.0/" xmlns="http://ns.adobe.com/GenericCustomNamespace/1.0/">
				</v:sampleDataSets>
		</variableSet>
	</variableSets>
</metadata>
<g id="图层_1" i:knockout="Off" i:layer="yes" i:dimmedPercent="50" i:rgbTrio="#4F008000FFFF">
	<g i:knockout="Off">
		<path fill="#333333" d="M2.274,99.465v24.962c0,5.149,3.353,9.325,7.481,9.325h68.118c4.133,0,7.484-4.176,7.484-9.325h-0.002
			V9.216c0-4.344-3.352-7.869-7.482-7.869H9.756c-4.131,0-7.481,3.525-7.481,7.869H2.272v90.228
			C2.272,99.45,2.274,99.458,2.274,99.465z"/>
		
			<linearGradient id="XMLID_3_" gradientUnits="userSpaceOnUse" x1="-22.9907" y1="22.7183" x2="-22.9907" y2="148.2847" gradientTransform="matrix(1 0 0 -1 64.8535 158.4238)">
			<stop  offset="0.0899" style="stop-color:#2089B9"/>
			<stop  offset="0.0985" style="stop-color:#4FA3C2"/>
			<stop  offset="0.1071" style="stop-color:#77B9CA"/>
			<stop  offset="0.1138" style="stop-color:#8FC7CF"/>
			<stop  offset="0.118" style="stop-color:#98CCD1"/>
			<stop  offset="0.1341" style="stop-color:#9ECFD3"/>
			<stop  offset="0.156" style="stop-color:#AFD6D9"/>
			<stop  offset="0.1809" style="stop-color:#CBE1E3"/>
			<stop  offset="0.1966" style="stop-color:#E1EAEB"/>
			<a:midPointStop  offset="0.0899" style="stop-color:#2089B9"/>
			<a:midPointStop  offset="0.5" style="stop-color:#2089B9"/>
			<a:midPointStop  offset="0.0985" style="stop-color:#4FA3C2"/>
			<a:midPointStop  offset="0.5" style="stop-color:#4FA3C2"/>
			<a:midPointStop  offset="0.1071" style="stop-color:#77B9CA"/>
			<a:midPointStop  offset="0.5" style="stop-color:#77B9CA"/>
			<a:midPointStop  offset="0.1138" style="stop-color:#8FC7CF"/>
			<a:midPointStop  offset="0.5" style="stop-color:#8FC7CF"/>
			<a:midPointStop  offset="0.118" style="stop-color:#98CCD1"/>
			<a:midPointStop  offset="0.5" style="stop-color:#98CCD1"/>
			<a:midPointStop  offset="0.1341" style="stop-color:#9ECFD3"/>
			<a:midPointStop  offset="0.5" style="stop-color:#9ECFD3"/>
			<a:midPointStop  offset="0.156" style="stop-color:#AFD6D9"/>
			<a:midPointStop  offset="0.5" style="stop-color:#AFD6D9"/>
			<a:midPointStop  offset="0.1809" style="stop-color:#CBE1E3"/>
			<a:midPointStop  offset="0.5" style="stop-color:#CBE1E3"/>
			<a:midPointStop  offset="0.1966" style="stop-color:#E1EAEB"/>
		</linearGradient>
		<path fill="url(#XMLID_3_)" d="M83.405,126.381c0,5.15-3.352,9.325-7.48,9.325H7.804c-4.131,0-7.482-4.177-7.482-9.325V19.465
			c0-5.148,3.354-9.326,7.482-9.326h68.117c4.133,0,7.482,4.176,7.482,9.326v106.916H83.405z"/>
		<path fill="none" stroke="#333333" stroke-width="0.977" d="M83.405,126.381c0,5.15-3.352,9.325-7.48,9.325H7.804
			c-4.131,0-7.482-4.177-7.482-9.325V19.465c0-5.148,3.354-9.326,7.482-9.326h68.117c4.133,0,7.482,4.176,7.482,9.326v106.916
			H83.405z"/>
		<path fill="#FFFFFF" d="M0.32,11.17c0-4.344,3.354-7.869,7.482-7.869h68.118c4.133,0,7.482,3.523,7.482,7.869v90.229
			c0,4.346-3.352,7.869-7.482,7.869H7.802c-4.131,0-7.482-3.523-7.482-7.87L0.32,11.17L0.32,11.17z"/>
		
			<linearGradient id="XMLID_4_" gradientUnits="userSpaceOnUse" x1="3.7021" y1="54.9395" x2="85.8467" y2="54.9395" gradientTransform="matrix(-1 0 0 1 86.6367 1.3447)">
			<stop  offset="0" style="stop-color:#A2D8E0"/>
			<stop  offset="0.0899" style="stop-color:#1878AD"/>
			<stop  offset="0.2135" style="stop-color:#194D91"/>
			<stop  offset="0.6404" style="stop-color:#2B90BD"/>
			<stop  offset="0.9438" style="stop-color:#82CBDE"/>
			<stop  offset="1" style="stop-color:#1A478D"/>
			<a:midPointStop  offset="0" style="stop-color:#A2D8E0"/>
			<a:midPointStop  offset="0.5" style="stop-color:#A2D8E0"/>
			<a:midPointStop  offset="0.0899" style="stop-color:#1878AD"/>
			<a:midPointStop  offset="0.5" style="stop-color:#1878AD"/>
			<a:midPointStop  offset="0.2135" style="stop-color:#194D91"/>
			<a:midPointStop  offset="0.5" style="stop-color:#194D91"/>
			<a:midPointStop  offset="0.6404" style="stop-color:#2B90BD"/>
			<a:midPointStop  offset="0.5" style="stop-color:#2B90BD"/>
			<a:midPointStop  offset="0.9438" style="stop-color:#82CBDE"/>
			<a:midPointStop  offset="0.5" style="stop-color:#82CBDE"/>
			<a:midPointStop  offset="1" style="stop-color:#1A478D"/>
		</linearGradient>
		<path i:isolated="yes" i:knockout="Off" opacity="0.1" fill="url(#XMLID_4_)" enable-background="new    " d="M0.79,11.17
			c0-4.344,3.313-7.869,7.397-7.869h67.347c4.086,0,7.4,3.523,7.4,7.869v90.229c0,4.346-3.314,7.869-7.4,7.869H8.188
			c-4.084,0-7.397-3.523-7.397-7.87V11.17L0.79,11.17z"/>
		<path fill="none" stroke="#4D4D4D" stroke-width="0.977" d="M0.32,101.419v24.962c0,5.148,3.353,9.325,7.482,9.325h68.12
			c4.131,0,7.48-4.175,7.48-9.325V11.171c0-4.346-3.352-7.869-7.482-7.869H7.803c-4.13,0-7.482,3.525-7.482,7.869l-0.001,90.228
			C0.319,101.404,0.32,101.411,0.32,101.419z"/>
	</g>
	<path fill="#1D8F38" d="M23.478,57.165l-0.303-0.006c-5.881,0.842-6.24,9-4.92,11.881c1.318,2.879,0.24,3.959-0.361,6.6
		c-0.6,2.642,1.08,7.439,1.08,9.48c0,2.039-2.068,4.631-1.08,9.479c0.533,2.609,2.531,5,5.359,4.922
		c2.271-0.062,4.539-1.077,5.332-4.967c0.99-4.848-1.08-7.438-1.08-9.479c0-2.041,1.68-6.84,1.08-9.48
		c-0.6-2.64-1.68-3.721-0.359-6.6C29.546,66.114,29.358,58.005,23.478,57.165z M23.665,95.394l-0.852,0.045
		c0,0-2.639-0.118-2.279-3.6c0.359-3.479,2.004-4.262,1.199-8.397c-0.822-4.23-0.84-6.361-0.119-9.841
		c0.721-3.479,0.119-4.682-0.48-6.84c-1.293-4.656,0.584-6.533,1.924-6.602c2.062-0.104,3.145,3.697,2.287,6.557
		c-0.643,2.146-1.199,3.359-0.48,6.84c0.721,3.479,0.703,5.609-0.119,9.84c-0.805,4.138,0.84,4.921,1.199,8.398
		C26.306,95.274,23.665,95.394,23.665,95.394z"/>
	<path fill="#1D8F38" d="M43.058,57.165l-0.305-0.006c-5.879,0.842-6.238,9-4.92,11.881c1.32,2.879,0.24,3.959-0.359,6.6
		c-0.599,2.642,1.08,7.439,1.08,9.48c0,2.039-2.068,4.631-1.08,9.479c0.533,2.609,2.529,5,5.357,4.922
		c2.273-0.062,4.541-1.077,5.334-4.967c0.99-4.848-1.08-7.438-1.08-9.479c0-2.041,1.68-6.84,1.08-9.48
		c-0.6-2.64-1.68-3.721-0.359-6.6C49.126,66.114,48.938,58.005,43.058,57.165z M43.245,95.394l-0.852,0.045
		c0,0-2.641-0.118-2.279-3.6c0.359-3.479,2.004-4.262,1.199-8.397c-0.822-4.23-0.84-6.361-0.119-9.841
		c0.719-3.479,0.119-4.682-0.48-6.84c-1.293-4.656,0.582-6.533,1.924-6.602c2.062-0.104,3.145,3.697,2.287,6.557
		c-0.645,2.146-1.199,3.359-0.479,6.84c0.721,3.479,0.703,5.609-0.119,9.84c-0.805,4.138,0.84,4.921,1.199,8.398
		C45.886,95.274,43.245,95.394,43.245,95.394z"/>
	<path fill="#1D8F38" d="M62.638,57.165l-0.305-0.006c-5.879,0.842-6.238,9-4.92,11.881c1.32,2.879,0.24,3.959-0.359,6.6
		c-0.599,2.642,1.08,7.439,1.08,9.48c0,2.039-2.067,4.631-1.08,9.479c0.533,2.609,2.529,5,5.357,4.922
		c2.271-0.062,4.541-1.077,5.334-4.967c0.99-4.848-1.08-7.438-1.08-9.479c0-2.041,1.68-6.84,1.08-9.48
		c-0.6-2.64-1.682-3.721-0.359-6.6C68.706,66.114,68.519,58.005,62.638,57.165z M62.825,95.394l-0.853,0.045
		c0,0-2.641-0.118-2.278-3.6c0.358-3.479,2.004-4.262,1.198-8.397c-0.821-4.23-0.84-6.361-0.118-9.841
		c0.719-3.479,0.118-4.682-0.48-6.84c-1.293-4.656,0.582-6.533,1.924-6.602c2.062-0.104,3.144,3.697,2.285,6.557
		c-0.643,2.146-1.197,3.359-0.479,6.84c0.719,3.479,0.7,5.609-0.119,9.84c-0.806,4.138,0.838,4.921,1.197,8.398
		C65.464,95.274,62.825,95.394,62.825,95.394z"/>
	<path fill="#1D8F38" d="M23.478,10.69l-0.303-0.004c-5.881,0.84-6.24,9-4.92,11.879c1.318,2.881,0.24,3.961-0.361,6.6
		c-0.6,2.641,1.08,7.441,1.08,9.48s-2.068,4.633-1.08,9.48c0.533,2.607,2.531,5,5.359,4.922c2.271-0.062,4.539-1.078,5.332-4.967
		c0.99-4.848-1.08-7.441-1.08-9.48c0-2.041,1.68-6.84,1.08-9.48c-0.6-2.639-1.68-3.719-0.359-6.6
		C29.546,19.642,29.358,11.53,23.478,10.69z M23.665,48.921l-0.852,0.045c0,0-2.639-0.121-2.279-3.6
		c0.359-3.48,2.004-4.264,1.199-8.4c-0.822-4.23-0.84-6.359-0.119-9.84c0.721-3.481,0.119-4.68-0.48-6.84
		c-1.293-4.654,0.584-6.533,1.924-6.6c2.062-0.105,3.145,3.695,2.287,6.555c-0.643,2.146-1.199,3.359-0.48,6.84
		c0.721,3.48,0.703,5.609-0.119,9.84c-0.805,4.137,0.84,4.92,1.199,8.4C26.306,48.8,23.665,48.921,23.665,48.921z"/>
	<path fill="#1D8F38" d="M43.058,10.69l-0.305-0.004c-5.879,0.84-6.238,9-4.92,11.879c1.32,2.881,0.24,3.961-0.359,6.6
		c-0.6,2.641,1.08,7.441,1.08,9.48s-2.068,4.633-1.08,9.48c0.533,2.607,2.529,5,5.357,4.922c2.273-0.062,4.541-1.078,5.334-4.967
		c0.99-4.848-1.08-7.441-1.08-9.48c0-2.041,1.68-6.84,1.08-9.48c-0.6-2.639-1.68-3.719-0.359-6.6
		C49.126,19.642,48.938,11.53,43.058,10.69z M43.245,48.921l-0.852,0.045c0,0-2.641-0.121-2.279-3.6
		c0.359-3.48,2.004-4.264,1.199-8.4c-0.822-4.23-0.84-6.359-0.119-9.84c0.719-3.48,0.119-4.68-0.48-6.84
		c-1.293-4.654,0.582-6.533,1.924-6.6c2.062-0.105,3.145,3.695,2.287,6.555c-0.645,2.146-1.199,3.359-0.479,6.84
		c0.721,3.48,0.703,5.609-0.119,9.84c-0.805,4.137,0.84,4.92,1.199,8.4C45.886,48.8,43.245,48.921,43.245,48.921z"/>
	<path fill="#1D8F38" d="M62.638,10.69l-0.305-0.004c-5.879,0.84-6.238,9-4.92,11.879c1.32,2.881,0.24,3.961-0.359,6.6
		c-0.6,2.641,1.08,7.441,1.08,9.48s-2.067,4.633-1.08,9.48c0.533,2.607,2.529,5,5.357,4.922c2.271-0.062,4.541-1.078,5.334-4.967
		c0.99-4.848-1.08-7.441-1.08-9.48c0-2.041,1.68-6.84,1.08-9.48c-0.6-2.639-1.682-3.719-0.359-6.6
		C68.706,19.642,68.519,11.53,62.638,10.69z M62.825,48.921l-0.853,0.045c0,0-2.641-0.121-2.278-3.6
		c0.358-3.48,2.004-4.264,1.198-8.4c-0.821-4.23-0.84-6.359-0.118-9.84c0.719-3.48,0.118-4.68-0.48-6.84
		c-1.293-4.654,0.582-6.533,1.924-6.6c2.062-0.105,3.144,3.695,2.285,6.555c-0.643,2.146-1.197,3.359-0.479,6.84
		c0.718,3.481,0.7,5.609-0.119,9.84c-0.806,4.137,0.838,4.92,1.197,8.4C65.464,48.8,62.825,48.921,62.825,48.921z"/>
</g>
</svg>
