<?xml version="1.0" encoding="utf-8"?>
<!-- Generator: Adobe Illustrator 12.0.0, SVG Export Plug-In . SVG Version: 6.00 Build 51448)  -->
<!DOCTYPE svg PUBLIC "-//W3C//DTD SVG 1.1//EN" "http://www.w3.org/Graphics/SVG/1.1/DTD/svg11.dtd" [
	<!ENTITY ns_flows "http://ns.adobe.com/Flows/1.0/">
	<!ENTITY ns_extend "http://ns.adobe.com/Extensibility/1.0/">
	<!ENTITY ns_ai "http://ns.adobe.com/AdobeIllustrator/10.0/">
	<!ENTITY ns_graphs "http://ns.adobe.com/Graphs/1.0/">
	<!ENTITY ns_vars "http://ns.adobe.com/Variables/1.0/">
	<!ENTITY ns_imrep "http://ns.adobe.com/ImageReplacement/1.0/">
	<!ENTITY ns_sfw "http://ns.adobe.com/SaveForWeb/1.0/">
	<!ENTITY ns_custom "http://ns.adobe.com/GenericCustomNamespace/1.0/">
	<!ENTITY ns_adobe_xpath "http://ns.adobe.com/XPath/1.0/">
	<!ENTITY ns_svg "http://www.w3.org/2000/svg">
	<!ENTITY ns_xlink "http://www.w3.org/1999/xlink">
]>
<svg  version="1.1"
	 xmlns:x="&ns_extend;" xmlns:i="&ns_ai;" xmlns:graph="&ns_graphs;" i:viewOrigin="-0.3193 135.7061" i:rulerOrigin="0 0" i:pageBounds="0 136 85 0"
	 xmlns="&ns_svg;" xmlns:xlink="&ns_xlink;" xmlns:a="http://ns.adobe.com/AdobeSVGViewerExtensions/3.0/"
	 width="85.678" height="136.025" viewBox="0 0 85.678 136.025" overflow="visible" enable-background="new 0 0 85.678 136.025"
	 xml:space="preserve">
<metadata>
	<variableSets  xmlns="http://ns.adobe.com/Variables/1.0/">
		<variableSet  varSetName="binding1" locked="none">
			<variables></variables>
			<v:sampleDataSets  xmlns:v="http://ns.adobe.com/Variables/1.0/" xmlns="http://ns.adobe.com/GenericCustomNamespace/1.0/">
				</v:sampleDataSets>
		</variableSet>
	</variableSets>
</metadata>
<g id="图层_1" i:knockout="Off" i:layer="yes" i:dimmedPercent="50" i:rgbTrio="#4F008000FFFF">
	<g i:knockout="Off">
		<path fill="#333333" d="M2.274,99.465v24.962c0,5.149,3.353,9.325,7.481,9.325h68.118c4.133,0,7.484-4.176,7.484-9.325h-0.002
			V9.216c0-4.344-3.352-7.869-7.482-7.869H9.756c-4.131,0-7.481,3.525-7.481,7.869H2.272v90.228
			C2.272,99.45,2.274,99.458,2.274,99.465z"/>
		
			<linearGradient id="XMLID_3_" gradientUnits="userSpaceOnUse" x1="-22.9907" y1="22.7183" x2="-22.9907" y2="148.2847" gradientTransform="matrix(1 0 0 -1 64.8535 158.4238)">
			<stop  offset="0.0899" style="stop-color:#2089B9"/>
			<stop  offset="0.0985" style="stop-color:#4FA3C2"/>
			<stop  offset="0.1071" style="stop-color:#77B9CA"/>
			<stop  offset="0.1138" style="stop-color:#8FC7CF"/>
			<stop  offset="0.118" style="stop-color:#98CCD1"/>
			<stop  offset="0.1341" style="stop-color:#9ECFD3"/>
			<stop  offset="0.156" style="stop-color:#AFD6D9"/>
			<stop  offset="0.1809" style="stop-color:#CBE1E3"/>
			<stop  offset="0.1966" style="stop-color:#E1EAEB"/>
			<a:midPointStop  offset="0.0899" style="stop-color:#2089B9"/>
			<a:midPointStop  offset="0.5" style="stop-color:#2089B9"/>
			<a:midPointStop  offset="0.0985" style="stop-color:#4FA3C2"/>
			<a:midPointStop  offset="0.5" style="stop-color:#4FA3C2"/>
			<a:midPointStop  offset="0.1071" style="stop-color:#77B9CA"/>
			<a:midPointStop  offset="0.5" style="stop-color:#77B9CA"/>
			<a:midPointStop  offset="0.1138" style="stop-color:#8FC7CF"/>
			<a:midPointStop  offset="0.5" style="stop-color:#8FC7CF"/>
			<a:midPointStop  offset="0.118" style="stop-color:#98CCD1"/>
			<a:midPointStop  offset="0.5" style="stop-color:#98CCD1"/>
			<a:midPointStop  offset="0.1341" style="stop-color:#9ECFD3"/>
			<a:midPointStop  offset="0.5" style="stop-color:#9ECFD3"/>
			<a:midPointStop  offset="0.156" style="stop-color:#AFD6D9"/>
			<a:midPointStop  offset="0.5" style="stop-color:#AFD6D9"/>
			<a:midPointStop  offset="0.1809" style="stop-color:#CBE1E3"/>
			<a:midPointStop  offset="0.5" style="stop-color:#CBE1E3"/>
			<a:midPointStop  offset="0.1966" style="stop-color:#E1EAEB"/>
		</linearGradient>
		<path fill="url(#XMLID_3_)" d="M83.405,126.381c0,5.15-3.352,9.325-7.48,9.325H7.804c-4.131,0-7.482-4.177-7.482-9.325V19.465
			c0-5.148,3.354-9.326,7.482-9.326h68.117c4.133,0,7.482,4.176,7.482,9.326v106.916H83.405z"/>
		<path fill="none" stroke="#333333" stroke-width="0.977" d="M83.405,126.381c0,5.15-3.352,9.325-7.48,9.325H7.804
			c-4.131,0-7.482-4.177-7.482-9.325V19.465c0-5.148,3.354-9.326,7.482-9.326h68.117c4.133,0,7.482,4.176,7.482,9.326v106.916
			H83.405z"/>
		<path fill="#FFFFFF" d="M0.32,11.17c0-4.344,3.354-7.869,7.482-7.869h68.118c4.133,0,7.482,3.523,7.482,7.869v90.229
			c0,4.346-3.352,7.869-7.482,7.869H7.802c-4.131,0-7.482-3.523-7.482-7.87L0.32,11.17L0.32,11.17z"/>
		
			<linearGradient id="XMLID_4_" gradientUnits="userSpaceOnUse" x1="3.7021" y1="54.9395" x2="85.8467" y2="54.9395" gradientTransform="matrix(-1 0 0 1 86.6367 1.3447)">
			<stop  offset="0" style="stop-color:#A2D8E0"/>
			<stop  offset="0.0899" style="stop-color:#1878AD"/>
			<stop  offset="0.2135" style="stop-color:#194D91"/>
			<stop  offset="0.6404" style="stop-color:#2B90BD"/>
			<stop  offset="0.9438" style="stop-color:#82CBDE"/>
			<stop  offset="1" style="stop-color:#1A478D"/>
			<a:midPointStop  offset="0" style="stop-color:#A2D8E0"/>
			<a:midPointStop  offset="0.5" style="stop-color:#A2D8E0"/>
			<a:midPointStop  offset="0.0899" style="stop-color:#1878AD"/>
			<a:midPointStop  offset="0.5" style="stop-color:#1878AD"/>
			<a:midPointStop  offset="0.2135" style="stop-color:#194D91"/>
			<a:midPointStop  offset="0.5" style="stop-color:#194D91"/>
			<a:midPointStop  offset="0.6404" style="stop-color:#2B90BD"/>
			<a:midPointStop  offset="0.5" style="stop-color:#2B90BD"/>
			<a:midPointStop  offset="0.9438" style="stop-color:#82CBDE"/>
			<a:midPointStop  offset="0.5" style="stop-color:#82CBDE"/>
			<a:midPointStop  offset="1" style="stop-color:#1A478D"/>
		</linearGradient>
		<path i:isolated="yes" i:knockout="Off" opacity="0.1" fill="url(#XMLID_4_)" enable-background="new    " d="M0.79,11.17
			c0-4.344,3.313-7.869,7.397-7.869h67.347c4.086,0,7.4,3.523,7.4,7.869v90.229c0,4.346-3.314,7.869-7.4,7.869H8.188
			c-4.084,0-7.397-3.523-7.397-7.87V11.17L0.79,11.17z"/>
		<path fill="none" stroke="#4D4D4D" stroke-width="0.977" d="M0.32,101.419v24.962c0,5.148,3.353,9.325,7.482,9.325h68.12
			c4.131,0,7.48-4.175,7.48-9.325V11.171c0-4.346-3.352-7.869-7.482-7.869H7.803c-4.13,0-7.482,3.525-7.482,7.869l-0.001,90.228
			C0.319,101.404,0.32,101.411,0.32,101.419z"/>
	</g>
	<path fill="#1D8F38" d="M23.29,41.641l-0.273-0.003c-5.305,0.554-5.629,5.929-4.439,7.827c1.191,1.896,0.217,2.608-0.324,4.348
		c-0.541,1.738,0.975,4.901,0.975,6.245c0,1.344-1.867,3.052-0.975,6.245c0.48,1.719,2.283,3.295,4.834,3.242
		c2.051-0.041,4.096-0.709,4.812-3.271c0.893-3.193-0.975-4.901-0.975-6.246c0-1.344,1.516-4.506,0.975-6.244
		c-0.541-1.74-1.516-2.451-0.324-4.349C28.765,47.537,28.597,42.193,23.29,41.641z M23.46,66.826l-0.768,0.03
		c0,0-2.383-0.079-2.057-2.372c0.324-2.292,1.807-2.808,1.082-5.533c-0.742-2.787-0.758-4.189-0.107-6.482
		c0.648-2.293,0.107-3.084-0.434-4.506c-1.168-3.067,0.525-4.305,1.734-4.349c1.861-0.069,2.838,2.435,2.064,4.318
		c-0.58,1.415-1.082,2.214-0.434,4.507c0.65,2.292,0.635,3.695-0.107,6.482c-0.727,2.726,0.758,3.24,1.082,5.533
		C25.843,66.748,23.46,66.826,23.46,66.826z"/>
	<path fill="#1D8F38" d="M23.29,11.665l-0.273-0.003c-5.305,0.554-5.629,5.929-4.439,7.827c1.191,1.896,0.217,2.608-0.324,4.348
		c-0.541,1.74,0.975,4.901,0.975,6.245c0,1.344-1.867,3.052-0.975,6.246c0.48,1.719,2.283,3.293,4.834,3.242
		c2.051-0.041,4.096-0.711,4.812-3.272c0.893-3.194-0.975-4.901-0.975-6.245c0-1.344,1.516-4.506,0.975-6.246
		c-0.541-1.738-1.516-2.45-0.324-4.348C28.765,17.562,28.597,12.218,23.29,11.665z M23.46,36.852l-0.768,0.029
		c0,0-2.383-0.079-2.057-2.371c0.324-2.293,1.807-2.809,1.082-5.534c-0.742-2.787-0.758-4.19-0.107-6.483
		c0.648-2.292,0.107-3.083-0.434-4.505c-1.168-3.067,0.525-4.305,1.734-4.349c1.861-0.069,2.838,2.435,2.064,4.318
		c-0.58,1.415-1.082,2.213-0.434,4.506c0.65,2.293,0.635,3.695-0.107,6.482c-0.727,2.727,0.758,3.242,1.082,5.534
		C25.843,36.771,23.46,36.852,23.46,36.852z"/>
	<path fill="#D90000" d="M43.132,71.616l-0.273-0.003c-5.307,0.554-5.631,5.93-4.439,7.825c1.189,1.897,0.217,2.609-0.326,4.35
		c-0.541,1.739,0.975,4.9,0.975,6.245c0,1.344-1.865,3.052-0.975,6.246c0.482,1.719,2.283,3.293,4.836,3.241
		c2.051-0.041,4.096-0.711,4.811-3.271c0.895-3.194-0.974-4.901-0.974-6.245s1.517-4.506,0.974-6.246
		c-0.541-1.738-1.517-2.45-0.324-4.348C48.609,77.512,48.438,72.17,43.132,71.616z M43.302,96.803l-0.77,0.029
		c0,0-2.381-0.079-2.057-2.371c0.324-2.293,1.809-2.809,1.082-5.534c-0.742-2.787-0.758-4.189-0.107-6.482
		c0.65-2.292,0.107-3.082-0.434-4.507c-1.166-3.065,0.525-4.303,1.736-4.348c1.861-0.068,2.838,2.436,2.064,4.318
		c-0.582,1.414-1.082,2.213-0.435,4.506c0.65,2.293,0.633,3.695-0.106,6.481c-0.728,2.728,0.758,3.242,1.082,5.534
		C45.681,96.722,43.302,96.803,43.302,96.803z"/>
	<path fill="#224899" d="M43.132,41.641l-0.273-0.003c-5.307,0.554-5.631,5.929-4.439,7.827c1.189,1.896,0.217,2.608-0.326,4.348
		c-0.541,1.738,0.975,4.901,0.975,6.245c0,1.344-1.865,3.052-0.975,6.245c0.482,1.719,2.283,3.295,4.836,3.242
		c2.051-0.041,4.096-0.709,4.811-3.271c0.895-3.193-0.974-4.901-0.974-6.246c0-1.344,1.517-4.506,0.974-6.244
		c-0.541-1.74-1.517-2.451-0.324-4.349S48.438,42.193,43.132,41.641z M43.302,66.826l-0.77,0.03c0,0-2.381-0.079-2.057-2.372
		c0.324-2.292,1.809-2.808,1.082-5.533c-0.742-2.787-0.758-4.189-0.107-6.482c0.651-2.293,0.107-3.084-0.434-4.506
		c-1.166-3.067,0.525-4.305,1.736-4.349c1.861-0.069,2.838,2.435,2.064,4.318c-0.582,1.415-1.082,2.214-0.435,4.507
		c0.65,2.292,0.633,3.695-0.106,6.482c-0.728,2.726,0.758,3.24,1.082,5.533C45.681,66.747,43.302,66.826,43.302,66.826z"/>
	<path fill="#224899" d="M43.132,11.665l-0.273-0.003c-5.307,0.554-5.631,5.929-4.439,7.827c1.189,1.896,0.217,2.608-0.326,4.348
		c-0.541,1.739,0.975,4.901,0.975,6.245c0,1.344-1.865,3.052-0.975,6.246c0.482,1.719,2.283,3.293,4.836,3.242
		c2.051-0.041,4.096-0.711,4.811-3.272c0.895-3.194-0.974-4.901-0.974-6.245c0-1.344,1.517-4.506,0.974-6.246
		c-0.541-1.738-1.517-2.45-0.324-4.348S48.438,12.218,43.132,11.665z M43.302,36.852l-0.77,0.029c0,0-2.381-0.079-2.057-2.371
		c0.324-2.293,1.809-2.809,1.082-5.534c-0.742-2.787-0.758-4.19-0.107-6.483c0.65-2.292,0.107-3.083-0.434-4.505
		c-1.166-3.067,0.525-4.305,1.736-4.349c1.861-0.069,2.838,2.435,2.064,4.318c-0.582,1.415-1.082,2.213-0.435,4.506
		c0.65,2.293,0.633,3.695-0.106,6.482c-0.728,2.727,0.758,3.242,1.082,5.534C45.681,36.771,43.302,36.852,43.302,36.852z"/>
	<path fill="#1D8F38" d="M62.782,41.641l-0.275-0.003c-5.305,0.554-5.629,5.929-4.438,7.827c1.19,1.896,0.217,2.608-0.324,4.348
		c-0.541,1.738,0.975,4.901,0.975,6.245c0,1.344-1.867,3.052-0.975,6.245c0.479,1.719,2.283,3.295,4.834,3.242
		c2.051-0.041,4.096-0.709,4.812-3.271c0.894-3.193-0.975-4.901-0.975-6.246c0-1.344,1.516-4.506,0.975-6.244
		c-0.541-1.74-1.516-2.451-0.323-4.349C68.258,47.537,68.087,42.193,62.782,41.641z M62.95,66.826l-0.769,0.03
		c0,0-2.383-0.079-2.057-2.372c0.324-2.292,1.809-2.808,1.082-5.533c-0.742-2.787-0.758-4.189-0.107-6.482
		c0.648-2.293,0.107-3.084-0.434-4.506c-1.166-3.067,0.525-4.305,1.736-4.349c1.86-0.069,2.836,2.435,2.062,4.318
		c-0.58,1.415-1.082,2.214-0.434,4.507c0.649,2.292,0.635,3.695-0.107,6.482c-0.725,2.726,0.758,3.24,1.082,5.533
		C65.333,66.748,62.95,66.826,62.95,66.826z"/>
	<path fill="#1D8F38" d="M62.782,11.665l-0.275-0.003c-5.305,0.554-5.629,5.929-4.438,7.827c1.19,1.896,0.217,2.608-0.324,4.348
		c-0.541,1.74,0.975,4.901,0.975,6.245c0,1.344-1.867,3.052-0.975,6.246c0.479,1.719,2.283,3.293,4.834,3.242
		c2.051-0.041,4.096-0.711,4.812-3.272c0.894-3.194-0.975-4.901-0.975-6.245c0-1.344,1.516-4.506,0.975-6.246
		c-0.541-1.738-1.516-2.45-0.323-4.348C68.258,17.561,68.087,12.218,62.782,11.665z M62.95,36.852l-0.769,0.029
		c0,0-2.383-0.079-2.057-2.371c0.324-2.293,1.809-2.809,1.082-5.534c-0.742-2.787-0.758-4.19-0.107-6.483
		c0.648-2.292,0.107-3.083-0.434-4.505c-1.166-3.067,0.525-4.305,1.736-4.349c1.86-0.069,2.836,2.435,2.062,4.318
		c-0.58,1.415-1.082,2.213-0.434,4.506c0.649,2.293,0.635,3.695-0.107,6.482c-0.725,2.727,0.758,3.242,1.082,5.534
		C65.333,36.771,62.95,36.852,62.95,36.852z"/>
</g>
</svg>
