<?xml version="1.0" encoding="utf-8"?>
<!-- Generator: Adobe Illustrator 12.0.0, SVG Export Plug-In . SVG Version: 6.00 Build 51448)  -->
<!DOCTYPE svg PUBLIC "-//W3C//DTD SVG 1.1//EN" "http://www.w3.org/Graphics/SVG/1.1/DTD/svg11.dtd" [
	<!ENTITY ns_flows "http://ns.adobe.com/Flows/1.0/">
	<!ENTITY ns_extend "http://ns.adobe.com/Extensibility/1.0/">
	<!ENTITY ns_ai "http://ns.adobe.com/AdobeIllustrator/10.0/">
	<!ENTITY ns_graphs "http://ns.adobe.com/Graphs/1.0/">
	<!ENTITY ns_vars "http://ns.adobe.com/Variables/1.0/">
	<!ENTITY ns_imrep "http://ns.adobe.com/ImageReplacement/1.0/">
	<!ENTITY ns_sfw "http://ns.adobe.com/SaveForWeb/1.0/">
	<!ENTITY ns_custom "http://ns.adobe.com/GenericCustomNamespace/1.0/">
	<!ENTITY ns_adobe_xpath "http://ns.adobe.com/XPath/1.0/">
	<!ENTITY ns_svg "http://www.w3.org/2000/svg">
	<!ENTITY ns_xlink "http://www.w3.org/1999/xlink">
]>
<svg  version="1.1"
	 xmlns:x="&ns_extend;" xmlns:i="&ns_ai;" xmlns:graph="&ns_graphs;" i:viewOrigin="-0.3193 135.7061" i:rulerOrigin="0 0" i:pageBounds="0 136 85 0"
	 xmlns="&ns_svg;" xmlns:xlink="&ns_xlink;" xmlns:a="http://ns.adobe.com/AdobeSVGViewerExtensions/3.0/"
	 width="85.678" height="136.025" viewBox="0 0 85.678 136.025" overflow="visible" enable-background="new 0 0 85.678 136.025"
	 xml:space="preserve">
<metadata>
	<variableSets  xmlns="http://ns.adobe.com/Variables/1.0/">
		<variableSet  varSetName="binding1" locked="none">
			<variables></variables>
			<v:sampleDataSets  xmlns:v="http://ns.adobe.com/Variables/1.0/" xmlns="http://ns.adobe.com/GenericCustomNamespace/1.0/">
				</v:sampleDataSets>
		</variableSet>
	</variableSets>
</metadata>
<g id="图层_1" i:knockout="Off" i:layer="yes" i:dimmedPercent="50" i:rgbTrio="#4F008000FFFF">
	<g i:knockout="Off">
		<path fill="#333333" d="M2.274,99.465v24.962c0,5.149,3.353,9.325,7.481,9.325h68.118c4.133,0,7.484-4.176,7.484-9.325h-0.002
			V9.216c0-4.344-3.352-7.869-7.482-7.869H9.756c-4.131,0-7.481,3.525-7.481,7.869H2.272v90.228
			C2.272,99.45,2.274,99.458,2.274,99.465z"/>
		
			<linearGradient id="XMLID_3_" gradientUnits="userSpaceOnUse" x1="-22.9907" y1="22.7183" x2="-22.9907" y2="148.2847" gradientTransform="matrix(1 0 0 -1 64.8535 158.4238)">
			<stop  offset="0.0899" style="stop-color:#2089B9"/>
			<stop  offset="0.0985" style="stop-color:#4FA3C2"/>
			<stop  offset="0.1071" style="stop-color:#77B9CA"/>
			<stop  offset="0.1138" style="stop-color:#8FC7CF"/>
			<stop  offset="0.118" style="stop-color:#98CCD1"/>
			<stop  offset="0.1341" style="stop-color:#9ECFD3"/>
			<stop  offset="0.156" style="stop-color:#AFD6D9"/>
			<stop  offset="0.1809" style="stop-color:#CBE1E3"/>
			<stop  offset="0.1966" style="stop-color:#E1EAEB"/>
			<a:midPointStop  offset="0.0899" style="stop-color:#2089B9"/>
			<a:midPointStop  offset="0.5" style="stop-color:#2089B9"/>
			<a:midPointStop  offset="0.0985" style="stop-color:#4FA3C2"/>
			<a:midPointStop  offset="0.5" style="stop-color:#4FA3C2"/>
			<a:midPointStop  offset="0.1071" style="stop-color:#77B9CA"/>
			<a:midPointStop  offset="0.5" style="stop-color:#77B9CA"/>
			<a:midPointStop  offset="0.1138" style="stop-color:#8FC7CF"/>
			<a:midPointStop  offset="0.5" style="stop-color:#8FC7CF"/>
			<a:midPointStop  offset="0.118" style="stop-color:#98CCD1"/>
			<a:midPointStop  offset="0.5" style="stop-color:#98CCD1"/>
			<a:midPointStop  offset="0.1341" style="stop-color:#9ECFD3"/>
			<a:midPointStop  offset="0.5" style="stop-color:#9ECFD3"/>
			<a:midPointStop  offset="0.156" style="stop-color:#AFD6D9"/>
			<a:midPointStop  offset="0.5" style="stop-color:#AFD6D9"/>
			<a:midPointStop  offset="0.1809" style="stop-color:#CBE1E3"/>
			<a:midPointStop  offset="0.5" style="stop-color:#CBE1E3"/>
			<a:midPointStop  offset="0.1966" style="stop-color:#E1EAEB"/>
		</linearGradient>
		<path fill="url(#XMLID_3_)" d="M83.405,126.381c0,5.15-3.352,9.325-7.48,9.325H7.804c-4.131,0-7.482-4.177-7.482-9.325V19.465
			c0-5.148,3.354-9.326,7.482-9.326h68.117c4.133,0,7.482,4.176,7.482,9.326v106.916H83.405z"/>
		<path fill="none" stroke="#333333" stroke-width="0.977" d="M83.405,126.381c0,5.15-3.352,9.325-7.48,9.325H7.804
			c-4.131,0-7.482-4.177-7.482-9.325V19.465c0-5.148,3.354-9.326,7.482-9.326h68.117c4.133,0,7.482,4.176,7.482,9.326v106.916
			H83.405z"/>
		<path fill="#FFFFFF" d="M0.32,11.17c0-4.344,3.354-7.869,7.482-7.869h68.118c4.133,0,7.482,3.523,7.482,7.869v90.229
			c0,4.346-3.352,7.869-7.482,7.869H7.802c-4.131,0-7.482-3.523-7.482-7.87L0.32,11.17L0.32,11.17z"/>
		
			<linearGradient id="XMLID_4_" gradientUnits="userSpaceOnUse" x1="3.7021" y1="54.9395" x2="85.8467" y2="54.9395" gradientTransform="matrix(-1 0 0 1 86.6367 1.3447)">
			<stop  offset="0" style="stop-color:#A2D8E0"/>
			<stop  offset="0.0899" style="stop-color:#1878AD"/>
			<stop  offset="0.2135" style="stop-color:#194D91"/>
			<stop  offset="0.6404" style="stop-color:#2B90BD"/>
			<stop  offset="0.9438" style="stop-color:#82CBDE"/>
			<stop  offset="1" style="stop-color:#1A478D"/>
			<a:midPointStop  offset="0" style="stop-color:#A2D8E0"/>
			<a:midPointStop  offset="0.5" style="stop-color:#A2D8E0"/>
			<a:midPointStop  offset="0.0899" style="stop-color:#1878AD"/>
			<a:midPointStop  offset="0.5" style="stop-color:#1878AD"/>
			<a:midPointStop  offset="0.2135" style="stop-color:#194D91"/>
			<a:midPointStop  offset="0.5" style="stop-color:#194D91"/>
			<a:midPointStop  offset="0.6404" style="stop-color:#2B90BD"/>
			<a:midPointStop  offset="0.5" style="stop-color:#2B90BD"/>
			<a:midPointStop  offset="0.9438" style="stop-color:#82CBDE"/>
			<a:midPointStop  offset="0.5" style="stop-color:#82CBDE"/>
			<a:midPointStop  offset="1" style="stop-color:#1A478D"/>
		</linearGradient>
		<path i:isolated="yes" i:knockout="Off" opacity="0.1" fill="url(#XMLID_4_)" enable-background="new    " d="M0.79,11.17
			c0-4.344,3.313-7.869,7.397-7.869h67.347c4.086,0,7.4,3.523,7.4,7.869v90.229c0,4.346-3.314,7.869-7.4,7.869H8.188
			c-4.084,0-7.397-3.523-7.397-7.87V11.17L0.79,11.17z"/>
		<path fill="none" stroke="#4D4D4D" stroke-width="0.977" d="M0.32,101.419v24.962c0,5.148,3.353,9.325,7.482,9.325h68.12
			c4.131,0,7.48-4.175,7.48-9.325V11.171c0-4.346-3.352-7.869-7.482-7.869H7.803c-4.13,0-7.482,3.525-7.482,7.869l-0.001,90.228
			C0.319,101.404,0.32,101.411,0.32,101.419z"/>
	</g>
	<path fill="#1D8F38" d="M23.942,70.113l-0.274-0.004c-5.305,0.555-5.629,5.93-4.439,7.825c1.191,1.898,0.217,2.609-0.324,4.351
		c-0.541,1.737,0.975,4.899,0.975,6.244c0,1.344-1.867,3.053-0.975,6.246c0.48,1.719,2.283,3.293,4.834,3.241
		c2.051-0.041,4.096-0.711,4.812-3.271c0.893-3.195-0.975-4.902-0.975-6.246s1.516-4.506,0.975-6.246
		c-0.541-1.738-1.516-2.449-0.324-4.348C29.417,76.01,29.248,70.666,23.942,70.113z M24.111,95.299l-0.768,0.029
		c0,0-2.383-0.078-2.057-2.371c0.324-2.293,1.808-2.809,1.082-5.533c-0.742-2.787-0.758-4.19-0.107-6.483
		c0.648-2.291,0.107-3.082-0.434-4.507c-1.167-3.065,0.525-4.303,1.735-4.348c1.861-0.068,2.837,2.436,2.063,4.318
		c-0.58,1.414-1.082,2.213-0.434,4.506c0.65,2.293,0.635,3.694-0.107,6.481c-0.726,2.728,0.758,3.242,1.082,5.535
		C26.494,95.219,24.111,95.299,24.111,95.299z"/>
	<path fill="#1D8F38" d="M23.942,40.138l-0.274-0.004c-5.305,0.555-5.629,5.929-4.439,7.827c1.191,1.896,0.217,2.609-0.324,4.348
		c-0.541,1.739,0.975,4.902,0.975,6.246c0,1.344-1.867,3.051-0.975,6.244c0.48,1.719,2.283,3.295,4.834,3.242
		c2.051-0.041,4.096-0.709,4.812-3.271c0.893-3.193-0.975-4.9-0.975-6.246c0-1.344,1.516-4.506,0.975-6.244
		c-0.541-1.74-1.516-2.451-0.324-4.348C29.417,46.033,29.248,40.69,23.942,40.138z M24.111,65.322l-0.768,0.031
		c0,0-2.383-0.08-2.057-2.373c0.324-2.291,1.808-2.807,1.082-5.533c-0.742-2.787-0.758-4.189-0.107-6.482
		c0.648-2.293,0.107-3.084-0.434-4.506c-1.167-3.066,0.525-4.305,1.735-4.348c1.861-0.07,2.837,2.434,2.063,4.318
		c-0.58,1.414-1.082,2.213-0.434,4.506c0.65,2.293,0.635,3.695-0.107,6.482c-0.726,2.727,0.758,3.24,1.082,5.533
		C26.494,65.244,24.111,65.322,24.111,65.322z"/>
	<path fill="#1D8F38" d="M23.942,10.161l-0.274-0.002c-5.305,0.553-5.629,5.928-4.439,7.826c1.191,1.896,0.217,2.609-0.324,4.348
		c-0.541,1.74,0.975,4.902,0.975,6.246c0,1.344-1.867,3.051-0.975,6.246c0.48,1.719,2.283,3.293,4.834,3.242
		c2.051-0.041,4.096-0.711,4.812-3.273c0.893-3.193-0.975-4.9-0.975-6.244c0-1.344,1.516-4.506,0.975-6.246
		c-0.541-1.738-1.516-2.451-0.324-4.348C29.417,16.058,29.248,10.714,23.942,10.161z M24.111,35.349l-0.768,0.029
		c0,0-2.383-0.08-2.057-2.371c0.324-2.293,1.808-2.809,1.082-5.535c-0.742-2.787-0.758-4.189-0.107-6.482
		c0.648-2.293,0.107-3.084-0.434-4.506c-1.167-3.066,0.525-4.305,1.735-4.348c1.861-0.07,2.837,2.434,2.063,4.318
		c-0.58,1.414-1.082,2.213-0.434,4.506c0.65,2.293,0.635,3.695-0.107,6.482c-0.726,2.727,0.758,3.242,1.082,5.533
		C26.494,35.269,24.111,35.349,24.111,35.349z"/>
	<path fill="#D90000" d="M42.784,70.113l-0.274-0.004c-5.306,0.555-5.63,5.93-4.439,7.825c1.19,1.898,0.217,2.609-0.325,4.351
		c-0.541,1.737,0.975,4.899,0.975,6.244c0,1.344-1.866,3.053-0.975,6.246c0.481,1.719,2.283,3.293,4.835,3.241
		c2.051-0.041,4.096-0.711,4.812-3.271c0.895-3.195-0.974-4.902-0.974-6.246s1.516-4.506,0.974-6.246
		c-0.541-1.738-1.516-2.449-0.323-4.348C48.259,76.01,48.089,70.666,42.784,70.113z M42.953,95.299l-0.769,0.029
		c0,0-2.382-0.078-2.057-2.371c0.324-2.293,1.809-2.809,1.082-5.533c-0.742-2.787-0.758-4.19-0.107-6.483
		c0.649-2.291,0.107-3.082-0.434-4.507c-1.166-3.065,0.525-4.303,1.736-4.348c1.861-0.068,2.837,2.436,2.063,4.318
		c-0.581,1.414-1.082,2.213-0.434,4.506c0.649,2.293,0.634,3.694-0.107,6.481c-0.726,2.728,0.758,3.242,1.082,5.535
		C45.335,95.219,42.953,95.299,42.953,95.299z"/>
	<path fill="#D90000" d="M42.784,40.138l-0.274-0.004c-5.306,0.555-5.63,5.929-4.439,7.827c1.19,1.896,0.217,2.609-0.325,4.348
		c-0.541,1.738,0.975,4.902,0.975,6.246c0,1.344-1.866,3.051-0.975,6.244c0.481,1.719,2.283,3.295,4.835,3.242
		c2.051-0.041,4.096-0.709,4.812-3.271c0.895-3.193-0.974-4.9-0.974-6.246c0-1.344,1.516-4.506,0.974-6.244
		c-0.541-1.74-1.516-2.451-0.323-4.348C48.259,46.033,48.089,40.69,42.784,40.138z M42.953,65.322l-0.769,0.031
		c0,0-2.382-0.08-2.057-2.373c0.324-2.291,1.809-2.807,1.082-5.533c-0.742-2.787-0.758-4.189-0.107-6.482
		c0.649-2.293,0.107-3.084-0.434-4.506c-1.166-3.066,0.525-4.305,1.736-4.348c1.861-0.07,2.837,2.434,2.063,4.318
		c-0.581,1.414-1.082,2.213-0.434,4.506c0.649,2.293,0.634,3.695-0.107,6.482c-0.726,2.727,0.758,3.24,1.082,5.533
		C45.335,65.244,42.953,65.322,42.953,65.322z"/>
	<path fill="#D90000" d="M42.784,10.161l-0.274-0.002c-5.306,0.553-5.63,5.928-4.439,7.826c1.19,1.896,0.217,2.609-0.325,4.348
		c-0.541,1.74,0.975,4.902,0.975,6.246c0,1.344-1.866,3.051-0.975,6.246c0.481,1.719,2.283,3.293,4.835,3.242
		c2.051-0.041,4.096-0.711,4.812-3.273c0.895-3.193-0.974-4.9-0.974-6.244c0-1.344,1.516-4.506,0.974-6.246
		c-0.541-1.738-1.516-2.451-0.323-4.348C48.259,16.058,48.089,10.714,42.784,10.161z M42.953,35.349l-0.769,0.029
		c0,0-2.382-0.08-2.057-2.371c0.324-2.293,1.809-2.809,1.082-5.535c-0.742-2.787-0.758-4.189-0.107-6.482
		c0.649-2.293,0.107-3.084-0.434-4.506c-1.166-3.066,0.525-4.305,1.736-4.348c1.861-0.07,2.837,2.434,2.063,4.318
		c-0.581,1.414-1.082,2.213-0.434,4.506c0.649,2.293,0.634,3.695-0.107,6.482c-0.726,2.727,0.758,3.242,1.082,5.533
		C45.335,35.269,42.953,35.349,42.953,35.349z"/>
	<path fill="#1D8F38" d="M62.131,70.113l-0.274-0.004c-5.306,0.555-5.63,5.93-4.439,7.825c1.191,1.898,0.217,2.609-0.324,4.351
		c-0.541,1.737,0.976,4.899,0.976,6.244c0,1.344-1.867,3.053-0.976,6.246c0.48,1.719,2.283,3.293,4.834,3.241
		c2.052-0.041,4.097-0.711,4.812-3.271c0.893-3.195-0.976-4.902-0.976-6.246s1.517-4.506,0.976-6.246
		c-0.541-1.738-1.517-2.449-0.324-4.348C67.605,76.01,67.437,70.666,62.131,70.113z M62.299,95.299l-0.768,0.029
		c0,0-2.383-0.078-2.058-2.371c0.324-2.293,1.81-2.809,1.082-5.533c-0.741-2.787-0.758-4.19-0.106-6.483
		c0.647-2.291,0.106-3.082-0.435-4.507c-1.166-3.065,0.525-4.303,1.736-4.348c1.861-0.068,2.836,2.436,2.062,4.318
		c-0.58,1.414-1.082,2.213-0.435,4.506c0.65,2.293,0.635,3.694-0.106,6.481c-0.726,2.728,0.758,3.242,1.082,5.535
		C64.682,95.219,62.299,95.299,62.299,95.299z"/>
	<path fill="#1D8F38" d="M62.131,40.138l-0.274-0.004c-5.306,0.555-5.63,5.929-4.439,7.827c1.191,1.896,0.217,2.609-0.324,4.348
		c-0.541,1.739,0.976,4.902,0.976,6.246c0,1.344-1.867,3.051-0.976,6.244c0.48,1.719,2.283,3.295,4.834,3.242
		c2.052-0.041,4.097-0.709,4.812-3.271c0.893-3.193-0.976-4.9-0.976-6.246c0-1.344,1.517-4.506,0.976-6.244
		c-0.541-1.74-1.517-2.451-0.324-4.348C67.605,46.033,67.437,40.69,62.131,40.138z M62.299,65.322l-0.768,0.031
		c0,0-2.383-0.08-2.058-2.373c0.324-2.291,1.81-2.807,1.082-5.533c-0.741-2.787-0.758-4.189-0.106-6.482
		c0.647-2.293,0.106-3.084-0.435-4.506c-1.166-3.066,0.525-4.305,1.736-4.348c1.861-0.07,2.836,2.434,2.062,4.318
		c-0.58,1.414-1.082,2.213-0.435,4.506c0.65,2.293,0.635,3.695-0.106,6.482c-0.726,2.727,0.758,3.24,1.082,5.533
		C64.682,65.244,62.299,65.322,62.299,65.322z"/>
	<path fill="#1D8F38" d="M62.131,10.161l-0.274-0.002c-5.306,0.553-5.63,5.928-4.439,7.826c1.191,1.896,0.217,2.609-0.324,4.348
		c-0.541,1.74,0.976,4.902,0.976,6.246c0,1.344-1.867,3.051-0.976,6.246c0.48,1.719,2.283,3.293,4.834,3.242
		c2.052-0.041,4.097-0.711,4.812-3.273c0.893-3.193-0.976-4.9-0.976-6.244c0-1.344,1.517-4.506,0.976-6.246
		c-0.541-1.738-1.517-2.451-0.324-4.348C67.605,16.058,67.437,10.714,62.131,10.161z M62.299,35.349l-0.768,0.029
		c0,0-2.383-0.08-2.058-2.371c0.324-2.293,1.81-2.809,1.082-5.535c-0.741-2.787-0.758-4.189-0.106-6.482
		c0.647-2.293,0.106-3.084-0.435-4.506c-1.166-3.066,0.525-4.305,1.736-4.348c1.861-0.07,2.836,2.434,2.062,4.318
		c-0.58,1.414-1.082,2.213-0.435,4.506c0.65,2.293,0.635,3.695-0.106,6.482c-0.726,2.727,0.758,3.242,1.082,5.533
		C64.682,35.269,62.299,35.349,62.299,35.349z"/>
</g>
</svg>
