<?xml version="1.0" encoding="utf-8"?>
<!-- Generator: Adobe Illustrator 12.0.0, SVG Export Plug-In . SVG Version: 6.00 Build 51448)  -->
<!DOCTYPE svg PUBLIC "-//W3C//DTD SVG 1.1//EN" "http://www.w3.org/Graphics/SVG/1.1/DTD/svg11.dtd" [
	<!ENTITY ns_flows "http://ns.adobe.com/Flows/1.0/">
	<!ENTITY ns_extend "http://ns.adobe.com/Extensibility/1.0/">
	<!ENTITY ns_ai "http://ns.adobe.com/AdobeIllustrator/10.0/">
	<!ENTITY ns_graphs "http://ns.adobe.com/Graphs/1.0/">
	<!ENTITY ns_vars "http://ns.adobe.com/Variables/1.0/">
	<!ENTITY ns_imrep "http://ns.adobe.com/ImageReplacement/1.0/">
	<!ENTITY ns_sfw "http://ns.adobe.com/SaveForWeb/1.0/">
	<!ENTITY ns_custom "http://ns.adobe.com/GenericCustomNamespace/1.0/">
	<!ENTITY ns_adobe_xpath "http://ns.adobe.com/XPath/1.0/">
	<!ENTITY ns_svg "http://www.w3.org/2000/svg">
	<!ENTITY ns_xlink "http://www.w3.org/1999/xlink">
]>
<svg  version="1.1"
	 xmlns:x="&ns_extend;" xmlns:i="&ns_ai;" xmlns:graph="&ns_graphs;" i:viewOrigin="-0.3208 113.645" i:rulerOrigin="0 0" i:pageBounds="0 113 108 0"
	 xmlns="&ns_svg;" xmlns:xlink="&ns_xlink;" xmlns:a="http://ns.adobe.com/AdobeSVGViewerExtensions/3.0/"
	 width="109.1" height="113.832" viewBox="0 0 109.1 113.832" overflow="visible" enable-background="new 0 0 109.1 113.832"
	 xml:space="preserve">
<metadata>
	<variableSets  xmlns="&ns_vars;">
		<variableSet  varSetName="binding1" locked="none">
			<variables></variables>
			<v:sampleDataSets  xmlns="&ns_custom;" xmlns:v="&ns_vars;"></v:sampleDataSets>
		</variableSet>
	</variableSets>
</metadata>
<g id="图层_1" i:layer="yes" i:dimmedPercent="50" i:rgbTrio="#4F008000FFFF">
	<g>
		
			<linearGradient id="XMLID_3_" gradientUnits="userSpaceOnUse" x1="935.4341" y1="81.0015" x2="1020.2271" y2="81.0015" gradientTransform="matrix(0 -1 1 0 -26.8223 1049.0791)">
			<stop  offset="0.1348" style="stop-color:#1889BC"/>
			<stop  offset="0.2247" style="stop-color:#C4E9F2"/>
			<a:midPointStop  offset="0.1348" style="stop-color:#1889BC"/>
			<a:midPointStop  offset="0.5" style="stop-color:#1889BC"/>
			<a:midPointStop  offset="0.2247" style="stop-color:#C4E9F2"/>
		</linearGradient>
		<path i:knockout="Off" fill="url(#XMLID_3_)" stroke="#000000" stroke-width="0.3739" d="M100.036,28.852
			c4.418,0,8.002,3.42,8.002,7.638v69.518c0,4.218-3.584,7.638-8.002,7.638H8.321c-4.418,0-8-3.42-8-7.638V36.49
			c0-4.218,3.582-7.638,8-7.638H100.036z"/>
		<path i:knockout="Off" fill="#FFFFFF" stroke="#000000" stroke-width="0.6414" d="M8.376,85.36c-4.448,0-8.056-3.43-8.056-7.66
			V7.98c0-4.23,3.607-7.659,8.056-7.659h92.347c4.449,0,8.055,3.429,8.055,7.659V77.7c0,4.23-3.605,7.66-8.055,7.66H8.376z"/>
		
			<linearGradient id="XMLID_4_" gradientUnits="userSpaceOnUse" x1="-229.9092" y1="-254.2622" x2="-144.8701" y2="-254.2622" gradientTransform="matrix(0 1 -1 0 -199.7119 230.23)">
			<stop  offset="0" style="stop-color:#A3DDEA"/>
			<stop  offset="0.0899" style="stop-color:#0678B3"/>
			<stop  offset="0.2135" style="stop-color:#094C91"/>
			<stop  offset="0.6404" style="stop-color:#2890C0"/>
			<stop  offset="0.8034" style="stop-color:#82D0E3"/>
			<stop  offset="1" style="stop-color:#09468C"/>
			<a:midPointStop  offset="0" style="stop-color:#A3DDEA"/>
			<a:midPointStop  offset="0.5" style="stop-color:#A3DDEA"/>
			<a:midPointStop  offset="0.0899" style="stop-color:#0678B3"/>
			<a:midPointStop  offset="0.5" style="stop-color:#0678B3"/>
			<a:midPointStop  offset="0.2135" style="stop-color:#094C91"/>
			<a:midPointStop  offset="0.5" style="stop-color:#094C91"/>
			<a:midPointStop  offset="0.6404" style="stop-color:#2890C0"/>
			<a:midPointStop  offset="0.5" style="stop-color:#2890C0"/>
			<a:midPointStop  offset="0.8034" style="stop-color:#82D0E3"/>
			<a:midPointStop  offset="0.5" style="stop-color:#82D0E3"/>
			<a:midPointStop  offset="1" style="stop-color:#09468C"/>
		</linearGradient>
		<path i:knockout="Off" opacity="0.1" fill="url(#XMLID_4_)" stroke="#000000" stroke-width="0.6414" d="M8.376,85.36
			c-4.448,0-8.056-3.43-8.056-7.66V7.98c0-4.23,3.607-7.659,8.056-7.659h92.349c4.447,0,8.055,3.429,8.055,7.659V77.7
			c0,4.23-3.607,7.66-8.055,7.66H8.376z"/>
		<path i:knockout="Off" fill="#24258D" d="M74.346,43.71c0,1.168-0.168,2.086-0.5,2.756c0,0.668-0.168,1.252-0.504,1.754
			c0,0.5-0.25,1.002-0.75,1.504c-0.334,0.666-0.836,1.252-1.504,1.752h-1.002l-0.25-0.5c0-0.168-0.084-0.418-0.252-0.752
			c-0.166-0.334-0.25-0.584-0.25-0.752c0-0.668-0.252-1.504-0.752-2.506c-0.168-1.002-0.502-1.838-1.002-2.506
			c-0.168-0.5-0.668-1.502-1.502-3.006l-1.254-0.502c-0.67-0.166-1.672-0.5-3.008-1.002l0.752,1.002
			c0.334,0.502,0.418,0.668,0.252,0.502c0.332,0.668,0.75,1.168,1.252,1.504v0.5c0.166,0.334,0,0.836-0.502,1.504
			c-0.334,0.668-0.75,1.252-1.252,1.754c-0.502,0.5-1.086,0.836-1.754,1.002c-0.168,0.168-0.502,0.25-1.002,0.25
			c-0.336,0.168-0.584,0.252-0.752,0.252l0.25,2.254c0,1.336,0,2.256,0,2.758c0,0.5-0.082,1.252-0.25,2.254
			c0,1.002-0.252,1.922-0.752,2.758c-0.166,0.834-0.502,1.586-1.002,2.254c-0.168,0.334-0.418,0.836-0.752,1.504
			c-0.168,0.166-0.334,0.334-0.502,0.5c-0.501,0.668-0.834,1.086-1.001,1.254c0,0.334-0.419,0.584-1.254,0.752
			c-0.501,0.334-0.918,0.5-1.252,0.5l-1.003-0.25c-0.335-0.166-1.003-0.502-2.005-1.002c-0.667-0.502-1.502-0.836-2.505-1.002
			c-0.334-0.168-0.919-0.252-1.754-0.252c-0.669-0.166-1.253-0.25-1.754-0.25s-1.087-0.084-1.754-0.25
			c-1.003,0-1.67-0.084-2.005-0.25c-1.003-0.168-2.256-0.418-3.758-0.754c-0.835-0.166-2.089-0.5-3.759-1.002
			c-0.502-0.166-0.837-0.332-1.003-0.5l-0.501,0.5l-1.253-1.002c-0.333-0.334-0.752-0.668-1.254-1.002
			c-0.333-0.334-0.583-0.584-0.751-0.752c-0.5-0.502-1.003-1.086-1.502-1.754c-0.168-0.168-0.336-0.418-0.503-0.752
			c-0.5-0.668-0.918-1.252-1.253-1.754l0.251-0.25l0.251-0.25c0.502-0.336,0.918-0.67,1.254-1.004
			c0.667-0.668,1.418-1.252,2.253-1.752c0.335-0.168,0.753-0.586,1.254-1.254c0.334-0.334,0.586-0.584,0.751-0.752
			c0.67-0.836,1.086-1.504,1.253-2.004c0.168-0.502,0.503-0.92,1.003-1.254c0.501-0.166,1.42-0.5,2.758-1.002l-0.252,0.252
			c0,0.332-0.251,0.834-0.751,1.502c-0.335,0.836-0.753,1.67-1.254,2.506c-0.334,0.334-0.585,1.004-0.751,2.006
			c0-0.502-0.084-0.336-0.25,0.5c0,0.166,0,0.5,0,1.002c-0.168,0.668-0.252,1.254-0.252,1.754L32,53.482
			c0.501,0.334,0.835,0.584,1.003,0.752c0.165,0.166,0.417,0.25,0.751,0.25c0.167,0,0.333,0.084,0.501,0.25
			c0.501,0.334,1.253,0.584,2.255,0.752c1.169,0.334,2.004,0.586,2.507,0.752c0.835,0.166,1.335,0.25,1.502,0.25
			c0.5,0,1.087,0.084,1.754,0.252c0.334,0.166,0.919,0.25,1.756,0.25c0.667,0.168,1.167,0.25,1.502,0.25
			c0.5,0,1.169,0.084,2.004,0.252c0.835,0,1.42,0.082,1.754,0.25c1.338,0.166,2.34,0.25,3.008,0.25c0.835,0,1.92-0.334,3.257-1.002
			v-0.25v-0.502c0.168-0.502,0.334-1.002,0.502-1.504c0.5-1.168,0.584-2.506,0.25-4.008c0-0.502-0.084-1.17-0.25-2.004
			c0-0.67,0-1.17,0-1.504h-0.252c0-0.168-0.501-0.502-1.503-1.002c-0.334-0.168-0.752-0.504-1.251-1.004
			c-0.336-0.334-0.67-0.584-1.003-0.752l-0.502,1.004c-0.167,0.834-0.502,1.336-1.002,1.502c-0.168,0.334-0.502,0.586-1.003,0.752
			c-0.167,0.168-0.835,0.25-2.005,0.25l-1.253-1.252c-0.835-1.002-1.921-1.922-3.256-2.756v2.004l-0.502,0.502
			c-0.335,0.334-0.752,0.668-1.253,1.002c-0.5,0.334-1.003,0.584-1.503,0.752c-0.335,0.166-0.919,0.25-1.754,0.25l-0.501-1.002
			l0.501-1.002l-1.002-1.504V44.46c0-0.5-0.168-1.336-0.502-2.506l-1.502,0.502l-0.503-0.25c-0.167-0.168-0.502-0.252-1.002-0.252
			c-0.335-0.166-0.668-0.25-1.002-0.25c-0.835-0.166-1.586-0.418-2.256-0.752c-0.835-0.334-1.921-0.5-3.258-0.5l-1.503-1.004
			l1.003-1.502l1.002-0.25c0.167,0,0.418-0.084,0.752-0.252c0.501,0,0.835-0.084,1.002-0.25c0.502-0.168,1.002-0.25,1.504-0.25
			c0.334,0,0.668-0.084,1.003-0.252c0.5-0.334,1.253-0.25,2.255,0.252l-0.502-1.504c-0.167-0.502-0.167-0.668,0-0.502
			c-0.335-0.834-0.5-1.67-0.5-2.506l0.5-0.5c0.5-0.168,1.086-0.418,1.753-0.752c1.003-0.168,1.588-0.25,1.756-0.25l1.502,1.002
			v1.002l0.252,0.252c0.333,0.166,0.5,0.582,0.5,1.252c0.167,0.666,0.586,1.336,1.253,2.004h2.005l-0.251-0.502
			c0-0.334-0.251-0.918-0.751-1.752c-0.335-0.67-0.501-1.588-0.501-2.758l-0.502-0.5l1.505-0.502l1.002,0.502l0.5-0.502l0.751,0.252
			c0.669,0.332,1.422,0.918,2.257,1.752l1.001-0.5c0.168,0,0.417-0.084,0.752-0.25c0.335-0.168,0.586-0.252,0.753-0.252h0.752
			l-0.252-1.002c-0.167-0.668-0.501-1.42-1.002-2.254c-0.168-0.836-0.418-1.506-0.751-2.006c0-0.502-0.252-0.918-0.752-1.252
			c-0.167-0.168-0.669-0.418-1.504-0.752c-0.167-0.168-0.419-0.252-0.751-0.252c-0.503,0-0.835-0.082-1.003-0.25
			c-0.501-0.166-1.002-0.166-1.504,0c-0.335,0.168-0.751,0.25-1.252,0.25c-0.334,0-0.837-0.166-1.504-0.5l-2.004,0.25
			c-0.335,0-0.919,0.084-1.754,0.25c-0.835,0-1.421,0.084-1.754,0.252c-0.669,0.166-1.504,0.25-2.507,0.25l-1.002-1.002v-0.502
			l1.002-1.002c1.17-0.668,2.005-1.17,2.507-1.504c0.835-0.166,1.503-0.416,2.004-0.75c0.669-0.168,1.252-0.252,1.754-0.252
			c0.501,0,1.254,0.084,2.257,0.252c1.001,0.166,1.92,0.25,2.755,0.25c1.002,0,1.754-0.084,2.255-0.25
			c0.835-0.168,1.754-0.42,2.757-0.752c0.333,0,0.667-0.084,1.002-0.25c0.5-0.168,1.086-0.252,1.754-0.252l0.502,0.502
			c0.5,0.332,0.751,0.75,0.751,1.252c0.167,0.5,0.251,0.918,0.251,1.252c0,0.502-0.335,1.338-1.002,2.506v-2.506l-1.253,0.502
			c-0.67,0.168-1.338,0.502-2.005,1.002l1.002,0.502c0.5,0.334,1.003,0.75,1.502,1.252c0.668,0.668,1.087,1.42,1.254,2.256
			l0.502,0.25c0.5,0.334,0.835,0.584,1.003,0.752c0.499,0.168,0.917,0.836,1.251,2.004h0.251c0.168,0,0.667,0.168,1.504,0.502v0.252
			c0,0.166,0,0.5,0,1.002l0.25,0.5c0.166,0.334,0.5,0.584,1.002,0.752c0.502,0.334,1.754,0.668,3.76,1.002v-0.75
			c0-0.168,0-0.42,0-0.754c0.166-0.5,0.248-0.918,0.248-1.252c0.168-0.668,0.252-1.588,0.252-2.756l0.502-0.502
			c0.5-0.334,0.834-0.752,1.002-1.252c0.166-0.168,0.416-0.418,0.752-0.752c0.168-0.336,0.332-0.586,0.5-0.752
			c0.502-0.502,1.42-1.086,2.758-1.754v1.002c0,0.334,0.082,0.918,0.25,1.754c0.166,0.334,0.25,0.668,0.25,1.002
			c0.334,0.836,0.502,2.256,0.502,4.26l0.752,1.002c0,0.168,0.084,0.334,0.25,0.502c0.5,0.668,0.834,1.336,1.002,2.004l2.254,0.252
			c1.506,0.166,3.176,0.25,5.012,0.25c2.172,0,3.926-0.168,5.262-0.502l-0.5-1.502l0.5-1.004h0.502l0.752,0.754
			c0.668,0.498,1.002,0.916,1.002,1.252c0.168,0.334,0.252,0.584,0.252,0.752c0,0.166-0.084,0.5-0.252,1.002
			c0,0.5-0.25,1.086-0.752,1.754c-0.166,0.334-0.416,0.834-0.752,1.502c-0.168,0.168-0.332,0.334-0.5,0.502
			c-0.502,0.668-1.002,1.252-1.504,1.754s-1.002,0.836-1.504,1.004c-0.502,0.166-0.834,0.25-1.002,0.25l-1.504-0.502
			c-0.668-0.334-1.586-0.502-2.756-0.502L74.346,43.71z M54.3,40.953c0-0.334-0.251-0.918-0.752-1.754
			c-0.334-0.836-0.751-1.92-1.252-3.258l-0.501-0.25c-0.334-0.334-1.253-0.25-2.756,0.25l0.5,1.254
			c0.501,0.836,0.668,1.586,0.502,2.254l1.003,0.502c0.667,0.334,1.252,0.586,1.753,0.752c0.168,0,0.334,0.084,0.501,0.25
			c0.502,0.168,0.918,0.334,1.253,0.502L54.3,40.953z M61.067,43.458v-0.5c0-0.168-0.084-0.67-0.252-1.504
			c0-0.336-0.082-0.836-0.25-1.504c0.168,0.334,0.084,0.166-0.252-0.502l-1.252-0.5c-0.334,0-1.084-0.252-2.256-0.752l0.252,0.752
			v0.5c0.166,0.502,0.25,0.92,0.25,1.254c0.334,0.836,0.502,1.586,0.502,2.256L61.067,43.458z"/>
	</g>
</g>
</svg>
