<?xml version="1.0" encoding="utf-8"?>
<!-- Generator: Adobe Illustrator 12.0.0, SVG Export Plug-In . SVG Version: 6.00 Build 51448)  -->
<!DOCTYPE svg PUBLIC "-//W3C//DTD SVG 1.1//EN" "http://www.w3.org/Graphics/SVG/1.1/DTD/svg11.dtd" [
	<!ENTITY ns_flows "http://ns.adobe.com/Flows/1.0/">
	<!ENTITY ns_extend "http://ns.adobe.com/Extensibility/1.0/">
	<!ENTITY ns_ai "http://ns.adobe.com/AdobeIllustrator/10.0/">
	<!ENTITY ns_graphs "http://ns.adobe.com/Graphs/1.0/">
	<!ENTITY ns_vars "http://ns.adobe.com/Variables/1.0/">
	<!ENTITY ns_imrep "http://ns.adobe.com/ImageReplacement/1.0/">
	<!ENTITY ns_sfw "http://ns.adobe.com/SaveForWeb/1.0/">
	<!ENTITY ns_custom "http://ns.adobe.com/GenericCustomNamespace/1.0/">
	<!ENTITY ns_adobe_xpath "http://ns.adobe.com/XPath/1.0/">
	<!ENTITY ns_svg "http://www.w3.org/2000/svg">
	<!ENTITY ns_xlink "http://www.w3.org/1999/xlink">
]>
<svg  version="1.1"
	 xmlns:x="&ns_extend;" xmlns:i="&ns_ai;" xmlns:graph="&ns_graphs;" i:viewOrigin="-0.3208 113.645" i:rulerOrigin="0 0" i:pageBounds="0 113 108 0"
	 xmlns="&ns_svg;" xmlns:xlink="&ns_xlink;" xmlns:a="http://ns.adobe.com/AdobeSVGViewerExtensions/3.0/"
	 width="109.1" height="113.832" viewBox="0 0 109.1 113.832" overflow="visible" enable-background="new 0 0 109.1 113.832"
	 xml:space="preserve">
<metadata>
	<variableSets  xmlns="&ns_vars;">
		<variableSet  varSetName="binding1" locked="none">
			<variables></variables>
			<v:sampleDataSets  xmlns="&ns_custom;" xmlns:v="&ns_vars;"></v:sampleDataSets>
		</variableSet>
	</variableSets>
</metadata>
<g id="图层_1" i:layer="yes" i:dimmedPercent="50" i:rgbTrio="#4F008000FFFF">
	<g>
		
			<linearGradient id="XMLID_3_" gradientUnits="userSpaceOnUse" x1="935.4341" y1="81.0015" x2="1020.2271" y2="81.0015" gradientTransform="matrix(0 -1 1 0 -26.8223 1049.0791)">
			<stop  offset="0.1348" style="stop-color:#1889BC"/>
			<stop  offset="0.2247" style="stop-color:#C4E9F2"/>
			<a:midPointStop  offset="0.1348" style="stop-color:#1889BC"/>
			<a:midPointStop  offset="0.5" style="stop-color:#1889BC"/>
			<a:midPointStop  offset="0.2247" style="stop-color:#C4E9F2"/>
		</linearGradient>
		<path i:knockout="Off" fill="url(#XMLID_3_)" stroke="#000000" stroke-width="0.3739" d="M100.036,28.852
			c4.418,0,8.002,3.42,8.002,7.638v69.518c0,4.218-3.584,7.638-8.002,7.638H8.321c-4.418,0-8-3.42-8-7.638V36.49
			c0-4.218,3.582-7.638,8-7.638H100.036z"/>
		<path i:knockout="Off" fill="#FFFFFF" stroke="#000000" stroke-width="0.6414" d="M8.377,85.36c-4.449,0-8.057-3.43-8.057-7.66
			V7.98c0-4.23,3.607-7.659,8.057-7.659h92.348c4.447,0,8.055,3.429,8.055,7.659V77.7c0,4.23-3.607,7.66-8.055,7.66H8.377z"/>
		
			<linearGradient id="XMLID_4_" gradientUnits="userSpaceOnUse" x1="-229.9092" y1="-254.2622" x2="-144.8701" y2="-254.2622" gradientTransform="matrix(0 1 -1 0 -199.7119 230.23)">
			<stop  offset="0" style="stop-color:#A3DDEA"/>
			<stop  offset="0.0899" style="stop-color:#0678B3"/>
			<stop  offset="0.2135" style="stop-color:#094C91"/>
			<stop  offset="0.6404" style="stop-color:#2890C0"/>
			<stop  offset="0.8034" style="stop-color:#82D0E3"/>
			<stop  offset="1" style="stop-color:#09468C"/>
			<a:midPointStop  offset="0" style="stop-color:#A3DDEA"/>
			<a:midPointStop  offset="0.5" style="stop-color:#A3DDEA"/>
			<a:midPointStop  offset="0.0899" style="stop-color:#0678B3"/>
			<a:midPointStop  offset="0.5" style="stop-color:#0678B3"/>
			<a:midPointStop  offset="0.2135" style="stop-color:#094C91"/>
			<a:midPointStop  offset="0.5" style="stop-color:#094C91"/>
			<a:midPointStop  offset="0.6404" style="stop-color:#2890C0"/>
			<a:midPointStop  offset="0.5" style="stop-color:#2890C0"/>
			<a:midPointStop  offset="0.8034" style="stop-color:#82D0E3"/>
			<a:midPointStop  offset="0.5" style="stop-color:#82D0E3"/>
			<a:midPointStop  offset="1" style="stop-color:#09468C"/>
		</linearGradient>
		<path i:knockout="Off" opacity="0.1" fill="url(#XMLID_4_)" stroke="#000000" stroke-width="0.6414" d="M8.377,85.36
			c-4.449,0-8.057-3.43-8.057-7.66V7.98c0-4.23,3.607-7.659,8.057-7.659h92.348c4.447,0,8.055,3.429,8.055,7.659V77.7
			c0,4.23-3.607,7.66-8.055,7.66H8.377z"/>
		<path i:knockout="Off" fill="#24258D" d="M71.999,52.214c0-0.191-0.096-0.383-0.285-0.574c-0.191-0.191-0.287-0.383-0.287-0.572
			c0-0.191-0.096-0.67-0.287-1.434c0.191,0.381,0.096,0.189-0.287-0.574c0-0.383-0.383-1.146-1.146-2.293
			c-0.383-0.572-0.668-0.955-0.859-1.146l0.574-1.146l-0.574-0.572l-1.719,1.719v1.721l-1.721,1.719l0.574,0.574l-2.293,2.293
			h-3.154l0.287,1.434c0,0.955,0,1.527,0,1.719c0.191,0.191,0,0.668-0.572,1.434l0.285,0.572c0.191,0.383,0.287,0.67,0.287,0.861
			c0.191,0.381,0,0.955-0.572,1.719c-0.191,0.955-0.574,1.719-1.146,2.293c-0.191,0.191-0.383,0.572-0.574,1.146
			c-0.383,0.383-0.668,0.668-0.859,0.859c-0.383,0.574-1.242,1.529-2.58,2.867h-1.146l-0.572-0.574
			c-0.191-0.383-0.861-0.764-2.008-1.146c-0.191,0-0.572-0.191-1.146-0.572c-0.764-0.191-1.338-0.383-1.719-0.574
			c-0.383,0-0.766-0.191-1.146-0.572c-0.574-0.383-1.051-0.574-1.434-0.574c-0.574-0.383-1.529-0.764-2.865-1.146
			c-1.146-0.383-2.293-0.859-3.439-1.432c-1.146-0.574-2.293-1.244-3.439-2.008s-2.104-1.434-2.867-2.006
			c-0.574-0.574-1.146-1.051-1.719-1.434c-0.191-0.191-0.479-0.764-0.861-1.719c0-0.766-0.287-1.529-0.859-2.293l0.859-0.287
			c0.191-0.191,0.574-0.287,1.146-0.287c0.383,0,0.67-0.096,0.861-0.285c0.955-0.383,2.291-0.861,4.012-1.434v-2.006
			c0-1.338-0.096-2.58-0.287-3.727c0-1.146-0.191-2.197-0.572-3.152c0-0.383-0.096-1.242-0.287-2.58
			c0.191,0.955,0.096,0.668-0.287-0.859c0-1.338-0.287-2.58-0.859-3.727c-0.191-1.146-0.574-2.197-1.146-3.152
			c-0.383-0.766-0.572-1.625-0.572-2.58c0-0.383,0.094-0.766,0.285-1.146v-0.574c0.383-0.383,0.859-0.859,1.434-1.432
			c0.191-0.191,0.477-0.479,0.859-0.861c0.574-0.191,0.955-0.381,1.146-0.572c0.191,0,0.383-0.096,0.574-0.287
			s0.764-0.479,1.719-0.859c1.146-0.191,2.006-0.479,2.58-0.859c0.383-0.191,0.859-0.287,1.434-0.287
			c0.381,0,0.764-0.096,1.146-0.287c1.146-0.191,2.102-0.479,2.865-0.859c0.574-0.191,1.338-0.479,2.293-0.859
			c-0.383,0.189-0.287,0.094,0.287-0.287c0.955-0.191,2.006-0.479,3.152-0.859c1.529-0.191,2.676-0.098,3.439,0.285
			c1.146,0.383,2.102,0.859,2.867,1.434c0.955,0.383,1.814,1.242,2.58,2.58l-1.146-0.859c-0.574-0.574-1.338-0.957-2.293-1.146
			c-0.574-0.191-1.148-0.287-1.721-0.287l-0.859,0.572c-0.191,0-0.479,0.191-0.859,0.574c-0.574,0.381-1.053,0.668-1.434,0.859
			c-1.146,0.764-2.197,1.625-3.152,2.58l0.859,0.287c0.764,0.189,0.955,0.285,0.572,0.285c0.383,0,0.859,0.287,1.434,0.861
			c0.955,0.572,1.529,1.336,1.721,2.293c0.381,0.381,0.668,1.146,0.859,2.293c0-0.574,0.096-0.383,0.287,0.572
			c0.572,0.764,0.859,1.434,0.859,2.006l0.859-0.285c0.191-0.191,0.477-0.287,0.859-0.287s0.67-0.096,0.861-0.287
			c0.189,0,0.477-0.096,0.859-0.287c0.381,0,0.668-0.096,0.859-0.285c0.383-0.191,0.955-0.287,1.721-0.287l0.285,0.572
			c0.191,0.191,0.287,0.574,0.287,1.146l-0.572,0.574l-0.287,0.572c-0.383,0.383-0.67,0.67-0.859,0.861
			c-0.191,0.572-1.148,1.432-2.867,2.578l0.574,0.287c0.572,0.383,1.24,0.668,2.006,0.859c1.146,0.383,1.814,0.67,2.006,0.861
			c0.572,0.381,1.529,1.051,2.867,2.006h0.572v-0.287c0-0.191-0.096-0.574-0.287-1.146c0-0.191,0-0.479,0-0.859
			c-0.191-0.383-0.285-0.766-0.285-1.146l1.146-1.721L66.84,34.73c0-0.191-0.096-0.479-0.287-0.859
			c-0.191-0.383-0.287-0.67-0.287-0.861c0-0.764-0.287-1.623-0.859-2.578c-0.191-0.766-0.479-1.625-0.859-2.58
			c0-0.766-0.191-1.434-0.574-2.006c0-0.191,0-0.383,0-0.574c-0.191-0.383-0.285-0.668-0.285-0.859l0.859,1.146
			c0.191,0.381,0.572,0.859,1.146,1.434c0.381,0.381,0.668,0.764,0.859,1.146c0.955,0.764,1.529,1.814,1.721,3.152l0.572-0.574
			c0.191,0,0.477-0.191,0.859-0.572c0.191-0.383,0.383-0.574,0.574-0.574c0.572-0.383,1.338-0.859,2.293-1.432
			c1.146-0.574,1.814-0.861,2.006-0.861l0.287,2.293c0.381,1.529,0.572,2.771,0.572,3.727c0.383,0.955,0.574,1.91,0.574,2.867
			c0.381,0.955,0.668,2.006,0.859,3.152c0.383,0.572,0.668,1.434,0.859,2.58c0-0.574,0.096-0.383,0.287,0.572
			c0.572,0.955,0.859,1.719,0.859,2.293c0.191,0.572,0.287,0.955,0.287,1.146c0.191,0.191,0,0.668-0.572,1.434
			c-0.191,0.764-0.574,1.527-1.146,2.293c-0.383,0.955-0.861,1.527-1.434,1.719c-0.574,0.383-1.146,0.67-1.721,0.861
			c-0.383,0.189-1.051,0.285-2.006,0.285L71.999,52.214z M49.93,25.558h-0.287l-1.146-0.287c-0.191-0.191-0.574-0.287-1.146-0.287
			c-0.383-0.191-0.766-0.285-1.146-0.285c-0.955-0.191-1.721-0.191-2.293,0c-0.574,0.381-1.146,0.381-1.721,0
			c-0.383-0.383-1.623-0.287-3.725,0.285l0.285,1.721c0.383,1.146,0.479,1.432,0.287,0.859c0.191,0.572,0.287,1.146,0.287,1.721
			c0.381,0.572,0.859,1.623,1.434,3.152l1.719-0.287c1.146-0.191,2.006-0.287,2.58-0.287c0.572,0,1.434,0.096,2.58,0.287
			c1.146,0.383,1.91,0.383,2.293,0c0-0.191-0.096-0.67-0.287-1.434c0-0.572-0.287-1.146-0.859-1.719L49.93,25.558z M54.229,41.896
			c0-0.574-0.191-0.957-0.574-1.146l-0.285-0.574c-0.191-0.574-0.479-1.242-0.861-2.006l-1.432-0.287
			c-0.191-0.191-0.574-0.287-1.146-0.287c-0.574-0.191-0.957-0.285-1.146-0.285c-0.191-0.191-0.766-0.287-1.721-0.287
			c-0.764-0.191-1.338-0.287-1.719-0.287c-0.957-0.191-2.391-0.287-4.301-0.287l0.287,0.861c0,0.189,0,0.381,0,0.572
			c0.191,0.764,0.287,1.434,0.287,2.006h0.572c0.191,0,0.574,0.096,1.146,0.287c0.191,0.191,0.574,0.287,1.146,0.287
			c0.574,0.191,0.955,0.287,1.146,0.287c0.383,0,0.859,0.094,1.434,0.285c0.572,0,1.051,0.096,1.434,0.287
			c0.381,0,0.859,0.096,1.434,0.287c0.572,0,0.955,0.096,1.146,0.287c0.381,0.189,0.955,0.285,1.719,0.285
			c0.572,0.191,1.051,0.287,1.434,0.287V41.896z M64.834,40.75c-0.191-0.574-0.766-1.053-1.721-1.434
			c-0.574-0.383-0.67-0.479-0.287-0.287c-0.383-0.191-1.146-0.479-2.293-0.859c-0.764-0.383-0.955-0.479-0.572-0.287
			c-0.383-0.191-0.861-0.287-1.434-0.287l-1.146,1.146l0.287,0.574c0.191,0.191,0.572,1.527,1.146,4.012h0.572
			c0.383,0,0.859,0.096,1.434,0.287l1.434,0.287c0.191,0,0.572-0.096,1.146-0.287c0.191,0,0.381-0.096,0.572-0.287
			c0.383,0,0.574-0.096,0.574-0.285c0.381-0.191,0.668-0.67,0.859-1.434L64.834,40.75z M57.094,53.933l-0.285-0.572
			c0-0.191-0.096-0.479-0.287-0.861c0-0.764-0.191-1.434-0.574-2.006l-0.859-0.572c-0.191,0-0.574-0.191-1.146-0.574
			c-0.764-0.191-1.434-0.383-2.006-0.572c-1.146-0.574-2.484-1.053-4.014-1.434c-1.338-0.383-2.865-0.861-4.586-1.434l-0.859,0.859
			l1.146,1.146v0.287c0,0.383-0.191,1.051-0.572,2.006l-0.861,0.574c-0.191,0-0.381,0.096-0.572,0.287
			c-0.574,0.381-1.051,0.668-1.434,0.859l1.146,0.859c0.955,0.572,1.719,1.051,2.293,1.434c0.764,0.381,1.434,0.668,2.006,0.859
			c0.574,0.383,1.434,0.668,2.58,0.859c0.383,0,1.051,0.191,2.006,0.574c0.764,0.381,1.338,0.572,1.721,0.572
			c1.338,0.383,2.293,0.67,2.865,0.861c0.191,0,0.383,0.094,0.574,0.285c0.572,0.191,1.051,0.383,1.434,0.574l0.572-1.146
			l-1.146-1.721l0.287-0.285c0.381-0.191,0.668-0.67,0.859-1.434L57.094,53.933z"/>
	</g>
</g>
</svg>
