<?xml version="1.0" encoding="utf-8"?>
<!-- Generator: Adobe Illustrator 12.0.0, SVG Export Plug-In . SVG Version: 6.00 Build 51448)  -->
<!DOCTYPE svg PUBLIC "-//W3C//DTD SVG 1.1//EN" "http://www.w3.org/Graphics/SVG/1.1/DTD/svg11.dtd" [
	<!ENTITY ns_flows "http://ns.adobe.com/Flows/1.0/">
	<!ENTITY ns_extend "http://ns.adobe.com/Extensibility/1.0/">
	<!ENTITY ns_ai "http://ns.adobe.com/AdobeIllustrator/10.0/">
	<!ENTITY ns_graphs "http://ns.adobe.com/Graphs/1.0/">
	<!ENTITY ns_vars "http://ns.adobe.com/Variables/1.0/">
	<!ENTITY ns_imrep "http://ns.adobe.com/ImageReplacement/1.0/">
	<!ENTITY ns_sfw "http://ns.adobe.com/SaveForWeb/1.0/">
	<!ENTITY ns_custom "http://ns.adobe.com/GenericCustomNamespace/1.0/">
	<!ENTITY ns_adobe_xpath "http://ns.adobe.com/XPath/1.0/">
	<!ENTITY ns_svg "http://www.w3.org/2000/svg">
	<!ENTITY ns_xlink "http://www.w3.org/1999/xlink">
]>
<svg  version="1.1"
	 xmlns:x="&ns_extend;" xmlns:i="&ns_ai;" xmlns:graph="&ns_graphs;" i:viewOrigin="-0.3208 113.645" i:rulerOrigin="0 0" i:pageBounds="0 113 108 0"
	 xmlns="&ns_svg;" xmlns:xlink="&ns_xlink;" xmlns:a="http://ns.adobe.com/AdobeSVGViewerExtensions/3.0/"
	 width="109.1" height="113.832" viewBox="0 0 109.1 113.832" overflow="visible" enable-background="new 0 0 109.1 113.832"
	 xml:space="preserve">
<metadata>
	<variableSets  xmlns="&ns_vars;">
		<variableSet  varSetName="binding1" locked="none">
			<variables></variables>
			<v:sampleDataSets  xmlns="&ns_custom;" xmlns:v="&ns_vars;"></v:sampleDataSets>
		</variableSet>
	</variableSets>
</metadata>
<g id="图层_1" i:layer="yes" i:dimmedPercent="50" i:rgbTrio="#4F008000FFFF">
	<g>
		
			<linearGradient id="XMLID_3_" gradientUnits="userSpaceOnUse" x1="935.4341" y1="81.0015" x2="1020.2271" y2="81.0015" gradientTransform="matrix(0 -1 1 0 -26.8223 1049.0791)">
			<stop  offset="0.1348" style="stop-color:#1889BC"/>
			<stop  offset="0.2247" style="stop-color:#C4E9F2"/>
			<a:midPointStop  offset="0.1348" style="stop-color:#1889BC"/>
			<a:midPointStop  offset="0.5" style="stop-color:#1889BC"/>
			<a:midPointStop  offset="0.2247" style="stop-color:#C4E9F2"/>
		</linearGradient>
		<path i:knockout="Off" fill="url(#XMLID_3_)" stroke="#000000" stroke-width="0.3739" d="M100.037,28.852
			c4.418,0,8.001,3.42,8.001,7.638v69.518c0,4.218-3.583,7.638-8.001,7.638H8.321c-4.418,0-8-3.42-8-7.638V36.49
			c0-4.218,3.582-7.638,8-7.638H100.037z"/>
		<path i:knockout="Off" fill="#FFFFFF" stroke="#000000" stroke-width="0.6414" d="M8.377,85.36c-4.449,0-8.057-3.43-8.057-7.66
			V7.98c0-4.23,3.607-7.659,8.057-7.659h92.348c4.447,0,8.055,3.429,8.055,7.659V77.7c0,4.23-3.607,7.66-8.055,7.66H8.377z"/>
		
			<linearGradient id="XMLID_4_" gradientUnits="userSpaceOnUse" x1="-229.9092" y1="-254.2622" x2="-144.8701" y2="-254.2622" gradientTransform="matrix(0 1 -1 0 -199.7119 230.23)">
			<stop  offset="0" style="stop-color:#A3DDEA"/>
			<stop  offset="0.0899" style="stop-color:#0678B3"/>
			<stop  offset="0.2135" style="stop-color:#094C91"/>
			<stop  offset="0.6404" style="stop-color:#2890C0"/>
			<stop  offset="0.8034" style="stop-color:#82D0E3"/>
			<stop  offset="1" style="stop-color:#09468C"/>
			<a:midPointStop  offset="0" style="stop-color:#A3DDEA"/>
			<a:midPointStop  offset="0.5" style="stop-color:#A3DDEA"/>
			<a:midPointStop  offset="0.0899" style="stop-color:#0678B3"/>
			<a:midPointStop  offset="0.5" style="stop-color:#0678B3"/>
			<a:midPointStop  offset="0.2135" style="stop-color:#094C91"/>
			<a:midPointStop  offset="0.5" style="stop-color:#094C91"/>
			<a:midPointStop  offset="0.6404" style="stop-color:#2890C0"/>
			<a:midPointStop  offset="0.5" style="stop-color:#2890C0"/>
			<a:midPointStop  offset="0.8034" style="stop-color:#82D0E3"/>
			<a:midPointStop  offset="0.5" style="stop-color:#82D0E3"/>
			<a:midPointStop  offset="1" style="stop-color:#09468C"/>
		</linearGradient>
		<path i:knockout="Off" opacity="0.1" fill="url(#XMLID_4_)" stroke="#000000" stroke-width="0.6414" d="M8.377,85.36
			c-4.449,0-8.057-3.43-8.057-7.66V7.98c0-4.23,3.607-7.659,8.057-7.659h92.348c4.448,0,8.055,3.429,8.055,7.659V77.7
			c0,4.23-3.606,7.66-8.055,7.66H8.377z"/>
		<path i:knockout="Off" fill="#1D8F38" d="M87.388,43.268c0,1.043-0.104,1.877-0.312,2.502c0,0.625-0.209,1.042-0.625,1.251
			c0,0.417-0.418,0.729-1.252,0.938c-0.625,0.417-1.25,0.729-1.875,0.938c-0.418,0.208-1.148,0.312-2.189,0.312l-0.312-0.312
			c0-0.209-0.209-0.521-0.627-0.938c0-0.209-0.104-0.626-0.312-1.251c-0.209-0.417-0.312-0.834-0.312-1.251
			c0-1.251-0.209-2.189-0.625-2.814c0-0.418-0.314-0.938-0.939-1.563l-0.625,1.251c-0.209,0.416-0.625,1.146-1.25,2.188
			c-0.627,0.625-1.043,1.146-1.252,1.564v0.625l1.252,1.563c0.416,0.417,0.832,0.938,1.25,1.564c0.416,0.416,0.73,0.729,0.939,0.938
			c0.207,0.209,0.52,0.521,0.938,0.938l0.625,0.312c0.209,0.209,1.043,0.313,2.502,0.313l0.625,0.625v0.312
			c0,0.417-0.104,0.729-0.312,0.938c0,0.417-0.312,0.938-0.938,1.563c-0.209,0.625-0.627,1.146-1.252,1.564
			c-0.416,0.416-0.938,0.729-1.562,0.938c-0.418,0.209-0.939,0.313-1.564,0.313l-0.312-0.313c0-0.209-0.104-0.521-0.312-0.938
			c0.209,0.416,0,0.208-0.625-0.626c-0.209-0.834-0.627-1.772-1.252-2.814v-0.312c-0.418-1.46-1.043-2.92-1.877-4.379l-0.625,0.626
			c-0.418,0.416-0.938,1.042-1.562,1.876c-0.627,1.042-1.252,1.98-1.877,2.814c-0.627,1.043-1.252,2.189-1.877,3.44
			c-0.209,0.417-0.521,1.146-0.938,2.189c-0.209,0.834-0.418,1.459-0.627,1.876c-0.209,1.668-0.521,2.919-0.938,3.753
			c0,1.043-0.312,2.189-0.938,3.44c-0.418,1.251-0.939,2.397-1.564,3.44c-0.834,1.459-1.564,2.397-2.189,2.814h-0.625l-0.312-0.625
			l-0.312-0.938c0-0.626-0.105-1.252-0.312-1.877c0-0.625,0-1.354,0-2.188c-0.209-0.834-0.314-1.564-0.314-2.189
			c0-0.626,0.105-1.355,0.314-2.189c0-0.834,0-1.46,0-1.876c0.416-1.252,0.729-2.398,0.938-3.44
			c0.209-0.418,0.521-1.043,0.938-1.877c0.209-0.209,0.312-0.417,0.312-0.625c0.625-0.626,1.252-1.46,1.877-2.502
			c0.209-0.209,0.625-0.626,1.252-1.251c0.625-0.834,1.25-1.564,1.875-2.189h-0.938c-0.625,0-1.355-0.104-2.189-0.312
			c-0.209-0.209-0.521-0.312-0.938-0.312c-0.418,0-0.73-0.104-0.939-0.313s-0.416-0.312-0.625-0.312
			c-0.418-0.209-0.73-0.312-0.938-0.312c-0.418-0.209-0.939-0.312-1.564-0.312l-0.625,0.625l0.312,0.938
			c0.209,0.625,0.312,1.042,0.312,1.251c0,0.416-0.104,0.729-0.312,0.938c0,0.416-0.312,0.833-0.938,1.251
			c-0.209,0.416-0.627,0.729-1.252,0.938c0,0.209-0.625,0.313-1.877,0.313l-0.312-0.313l-0.312-0.625
			c0-0.209-0.104-0.521-0.312-0.938c0-0.834-0.209-1.46-0.625-1.876c0-0.418-0.314-0.939-0.939-1.564
			c-0.209-0.209-0.521-0.626-0.938-1.251c-0.625-0.834-1.146-1.563-1.564-2.188v0.938c0,0.625-0.104,1.146-0.312,1.564
			c0,0.416-0.312,0.833-0.938,1.251c-0.209,0.416-0.627,0.729-1.252,0.938c-0.416,0.209-0.938,0.313-1.562,0.313
			c-0.418,0-0.939-0.104-1.564-0.313c-0.209-0.209-0.834-0.521-1.877-0.938c-0.625-0.209-1.459-0.522-2.502-0.938
			c-0.625-0.209-1.25-0.312-1.875-0.312l-0.627,1.251c-0.209,0.416-0.521,1.042-0.938,1.876c-0.209,0.625-0.418,1.042-0.625,1.251
			c-0.627,1.251-1.252,2.502-1.877,3.753s-1.252,2.397-1.877,3.44c-0.625,1.042-1.25,1.876-1.875,2.502
			c-0.418,0.625-0.834,1.042-1.252,1.251c-0.625,0.208-1.25,0.312-1.877,0.312c-0.625,0-1.25-0.104-1.877-0.312
			c-0.207,0-0.312-0.104-0.312-0.312c-0.416,0-0.832-0.209-1.25-0.626V63.91c0-0.209,0.104-0.521,0.312-0.938
			c0.209-0.209,0.834-1.146,1.877-2.814c0.416-0.626,1.146-1.564,2.189-2.814c0.416-0.626,0.729-1.043,0.938-1.251
			c0.834-1.252,1.564-2.503,2.189-3.753c0.416-0.626,0.938-1.355,1.564-2.189c0.207-0.626,0.416-1.043,0.625-1.251
			c0.625-0.834,0.938-1.564,0.938-2.189l-0.312-0.312L31.72,45.77c-0.418-0.209-0.73-0.521-0.938-0.938
			c-0.209-0.418-0.418-0.835-0.627-1.251c-0.416-0.418-0.729-0.835-0.938-1.251c-0.209-0.834-0.521-1.772-0.938-2.815
			c0-0.417,0-0.938,0-1.563c-0.209-0.626-0.314-1.147-0.314-1.563c0-0.418,0.105-0.938,0.314-1.563c0-0.418,0-0.73,0-0.938
			c0-0.209,0.104-0.417,0.312-0.626c0.207-0.209,0.312-0.417,0.312-0.625c0.207-0.209,0.416-0.312,0.625-0.312
			c0.209-0.209,0.416-0.313,0.625-0.313c0.625-0.209,1.146-0.312,1.564-0.312l-0.312,0.626c0,0.416-0.209,0.938-0.625,1.563
			c0,0.208,0,0.521,0,0.938c-0.209,0.416-0.314,0.729-0.314,0.938s0.105,0.521,0.314,0.938c0,0.417,0,0.729,0,0.938
			c0.416,0.625,0.729,1.251,0.938,1.876c0.209,0.209,0.521,0.521,0.938,0.938l0.312,0.626c0.209,0,0.418,0.208,0.627,0.625
			c0.625,0.417,1.25,0.834,1.875,1.251l0.627-0.625c0.625-0.209,1.041-0.835,1.25-1.877c0.625-0.834,0.939-1.564,0.939-2.189
			c0.207-0.625,0.312-1.251,0.312-1.876c0-0.834-0.209-1.772-0.627-2.814l-1.875-0.626v-0.625l-0.312-0.313
			c0-0.209-0.627-0.521-1.877-0.938c-0.209,0-0.627-0.209-1.252-0.626c-0.834-0.209-1.459-0.417-1.875-0.625
			c-0.418-0.209-1.043-0.522-1.877-0.938c-0.627-0.209-1.043-0.417-1.252-0.626c0-0.209-0.312-0.521-0.938-0.938
			c-0.416-0.418-0.73-0.73-0.939-0.938c-0.207-0.209-0.52-0.521-0.938-0.938l-0.312-0.625c-0.209-0.209-0.312-0.522-0.312-0.938
			c0-0.209,0.104-0.521,0.312-0.938l0.312-0.625c0.418-0.418,0.73-0.73,0.938-0.938c0.209-0.209,0.523-0.521,0.939-0.938
			l0.625-0.312c0.209-0.209,0.416-0.312,0.625-0.312c0.418-0.209,0.73-0.313,0.939-0.313c1.25-0.209,2.189-0.312,2.814-0.312
			c1.043,0,2.084,0.208,3.127,0.626l-0.938,0.312c-0.209,0.208-0.418,0.312-0.625,0.312c-0.418,0-0.73,0.104-0.939,0.312
			c-0.418,0.417-1.043,0.938-1.877,1.564v0.625l0.314,0.626v0.625l0.312,0.312c0,0.209,0.312,0.521,0.938,0.938
			c0.209,0,0.416,0.104,0.625,0.312s0.834,0.521,1.877,0.938c1.25,0.417,2.084,0.729,2.502,0.938l1.252,0.312
			c0.207,0.208,0.729,0,1.562-0.625v-0.626l-0.625-0.938c-0.418-0.625-0.939-1.459-1.564-2.502
			c-0.209-0.417-0.521-1.042-0.938-1.876c-0.209-0.209-0.312-0.417-0.312-0.626s0-0.521,0-0.938
			c-0.209-0.418-0.312-0.835-0.312-1.251l0.625-0.626h0.625c0.416,0,1.25,0.208,2.502,0.626v-0.626h0.625l0.627,0.626
			c0.625,0.416,1.041,0.938,1.25,1.563c0.625,0.625,0.939,1.146,0.939,1.563l0.312,0.626c0.416,0.416,0.729,0.729,0.938,0.938
			c0.834,0.834,1.771,1.563,2.814,2.189h0.625v-0.312c0-0.209-0.104-0.626-0.312-1.251c0-0.626-0.209-1.147-0.625-1.563
			c0-0.418-0.209-0.835-0.625-1.251V20.75c-0.209-0.417-0.312-0.729-0.312-0.938l0.625-0.626h0.625c0.625,0,1.146,0.104,1.564,0.312
			c0.625,0.417,1.146,0.729,1.562,0.938c0.625,0.417,0.939,0.834,0.939,1.251c0.416,0.417,0.729,0.938,0.938,1.563
			c0.209,0.209,0.521,0.521,0.939,0.938c0.207,0.417,0.416,0.729,0.625,0.938c0.625,0.625,1.25,1.146,1.877,1.563
			c0.625,0.208,1.354,0.625,2.188,1.251v-0.938c0-0.209,0.105-0.521,0.314-0.938v-0.626c0.416-0.209,0.729-0.626,0.938-1.251
			l-0.312-0.312c0-0.209-0.627-0.626-1.877-1.251c-0.209-0.209-0.625-0.417-1.25-0.626c-0.834-0.625-1.564-1.146-2.189-1.563
			c-0.418-0.417-0.939-0.834-1.564-1.251c-0.834-0.417-1.459-0.834-1.877-1.251c-0.416-0.417-0.938-0.834-1.562-1.251
			c-0.418-0.417-0.73-0.729-0.939-0.938s-0.416-0.521-0.625-0.938c-0.418-0.418-0.73-0.73-0.938-0.938
			c-0.209-0.626-0.521-1.147-0.939-1.563c0-0.209-0.104-0.626-0.312-1.251c0.209,0.625,0,0.208-0.625-1.251h0.625V8.554l0.625-0.626
			h0.627l0.625,0.626v0.625l0.312,0.626v0.625c0.209,0,0.416,0.208,0.625,0.626c0,0.416,0.104,0.625,0.312,0.625
			c0.625,0.417,1.252,0.938,1.877,1.563c0.209,0.209,0.521,0.521,0.939,0.938c0.625,0.208,1.041,0.417,1.25,0.626
			c0.625,0.416,1.459,0.938,2.502,1.563c1.25,0.625,2.502,1.355,3.754,2.189c0.834,0.625,2.814,1.667,5.941,3.127V20.75
			c0-0.209,0.104-0.521,0.312-0.938c0-0.418,0-0.73,0-0.938c0.416-0.626,0.729-1.147,0.938-1.563c0.209,0,0.521-0.209,0.939-0.626
			c0.207-0.417,0.416-0.625,0.625-0.625c0.625-0.209,1.25-0.522,1.877-0.938c0.625-0.209,1.146-0.312,1.562-0.312l0.627,0.625v1.563
			c0,1.043-0.105,1.772-0.312,2.189v0.626L70.5,20.438v0.626c0.209,0.416,0.314,0.729,0.314,0.938
			c0.416,0.625,0.729,1.251,0.938,1.877c0.625,0.625,1.041,1.042,1.25,1.251c0.209,0.208,0.521,0.312,0.939,0.312
			c0.625,0.208,1.146,0.417,1.562,0.626l0.627-0.626v-0.938c0-0.209,0.104-0.521,0.312-0.938V22.94
			c0.207-0.209,0.416-0.521,0.625-0.938s0.416-0.729,0.625-0.938c0.209-0.209,0.521-0.522,0.939-0.938
			c0.416-0.418,0.625-0.73,0.625-0.938h0.625l0.312,0.312c0.418,0.417,0.627,1.043,0.627,1.877c0.416,1.042,0.625,1.876,0.625,2.502
			c0.416,0.625,0.729,1.355,0.938,2.189c0.209,0.208,0.416,0.521,0.625,0.938s0.418,0.729,0.627,0.938v0.626
			c0,0.416-0.105,0.833-0.312,1.251c0,0.416-0.521,0.938-1.564,1.563c-0.625,0.625-1.668,1.355-3.127,2.189l0.312,0.625
			c0.207,0.208,0.312,1.042,0.312,2.502l0.625,0.626c0.625,0.416,1.252,1.146,1.877,2.188c0.209,0.209,0.625,0.626,1.25,1.251
			c0.625,0.834,1.252,1.563,1.877,2.189h0.625l1.252-1.251h0.625V43.268z M76.13,31.384c-0.209-0.209-0.834-0.521-1.877-0.938
			c-0.209,0-0.521-0.209-0.938-0.625c-0.834-0.418-1.461-0.73-1.877-0.938c-0.834-0.626-2.086-1.252-3.754-1.877
			c-1.25-0.625-2.502-1.146-3.752-1.563c-0.834-0.417-1.043-0.521-0.625-0.312c-0.418-0.209-0.939-0.312-1.564-0.312v0.625v0.626
			c0.209,0.416,0.312,0.729,0.312,0.938c0.416,0.625,0.729,1.251,0.938,1.877c0.625,0.625,0.939,1.146,0.939,1.563
			c0.207,0.417,0.312,0.834,0.312,1.251s-0.105,0.834-0.312,1.251c0,0.417-0.418,0.938-1.252,1.563
			c-0.416,0.625-0.938,1.042-1.562,1.251c-0.209,0.209-0.627,0.313-1.252,0.313l-5.629-5.63h-0.625l-0.627,0.938
			c-0.209,0.625-0.625,1.042-1.25,1.251c-0.209,0.208-1.043,0.312-2.502,0.312l-0.312-0.312c0-0.209-0.314-0.626-0.939-1.251
			c0.209-0.209-1.25-1.772-4.377-4.691v0.938c0,0.625-0.105,1.251-0.312,1.876c0,0.625-0.314,1.146-0.939,1.564
			c-0.418,0.416-0.938,0.729-1.562,0.938c-0.209,0-0.523,0.104-0.939,0.313c-0.625,0.208-1.252,0.416-1.877,0.625l0.939,0.626
			c0.834,0.416,1.25,0.833,1.25,1.251c0.209,0,0.312,1.251,0.312,3.753h0.627v-1.251l0.625-0.626
			c0.625-0.209,1.041-0.521,1.25-0.938c0.625-0.209,1.043-0.312,1.252-0.312l0.312,0.938c0.416,0.625,0.729,1.355,0.938,2.189
			c0.209,0.416,0.521,0.833,0.939,1.251c0.207,0.416,0.416,0.833,0.625,1.251c0.209,0.416,0.625,0.833,1.252,1.251
			c0.416,0.416,0.729,0.833,0.938,1.251c1.043,0.834,2.084,2.085,3.127,3.753l0.312-0.626C53.091,46.5,53.3,46.187,53.3,45.77
			c0.207-0.209,0.416-0.312,0.625-0.312l0.312-0.312c0.625-0.209,1.041-0.312,1.25-0.312c0.625,0,1.459,0.104,2.502,0.312
			c1.252,0.208,2.086,0.312,2.502,0.312l0.627-0.625v-2.502l-0.627-0.626h-1.25c-0.625,0-1.771-0.104-3.439-0.312
			c-0.418,0-1.043-0.104-1.877-0.312c-0.627,0-1.148-0.104-1.564-0.313c-0.625-0.209-1.564-0.521-2.814-0.938
			c-0.418-0.209-1.043-0.626-1.877-1.251c-0.416-0.209-0.729-0.418-0.938-0.626v-0.625l0.312-0.313
			c0.209-0.209,0.416-0.312,0.625-0.312l0.312-0.312c0.209-0.209,0.521-0.312,0.939-0.312c0.416,0,0.729-0.104,0.938-0.313
			c1.043-0.209,1.668-0.312,1.877-0.312c0.625,0,1.041,0.104,1.25,0.312c0.625,0.417,1.355,0.729,2.189,0.938
			c1.252,0.417,2.189,0.729,2.814,0.938c1.043,0.208,1.668,0.312,1.877,0.312c0.625,0,1.252-0.104,1.877-0.312
			c0.834-0.209,1.668-0.312,2.502-0.312l-0.312,0.625c0,0.417-0.314,1.043-0.939,1.877l0.314,0.625
			c0.416,0.417,0.729,0.938,0.938,1.563c0.625,0.625,1.041,1.251,1.25,1.877c0.209,0.208,0.418,0.521,0.627,0.938
			c0.416,0.416,0.832,0.833,1.25,1.251l-0.312,0.625v0.312c-0.209,0.834-0.312,1.772-0.312,2.815l0.938-0.938
			c1.043-0.834,2.189-2.189,3.441-4.065L70.5,42.956c-0.209-1.251-0.521-2.293-0.938-3.127c0-0.418-0.104-0.835-0.312-1.251
			c0-0.209,0-0.418,0-0.626l3.127,5.004l0.312-0.312c0.209-0.209,0.418-0.521,0.627-0.938c0.207-0.417,0.416-0.729,0.625-0.938
			c0.625-1.043,1.146-2.085,1.562-3.127c0.625-1.043,0.939-2.085,0.939-3.128c0.207-0.834,0.312-1.772,0.312-2.814L76.13,31.384z
			 M45.48,46.396c0.209-0.209,0-0.729-0.625-1.563c-0.209-0.418-0.521-1.043-0.938-1.877c-0.209-0.209-0.418-0.417-0.625-0.625
			c-0.209-0.418-0.627-1.147-1.252-2.189c0.209,0.416-0.104-0.104-0.938-1.563h-0.627l-0.312,1.251c0,1.042-0.312,1.98-0.938,2.814
			c-0.418,0.834-0.521,1.042-0.312,0.625c-0.209,0.417-0.312,0.938-0.312,1.564l1.562,0.625c1.252,0.417,2.189,0.729,2.814,0.938
			c0.834,0.208,1.668,0.312,2.502,0.312V46.396z"/>
	</g>
</g>
</svg>
