<?xml version="1.0" encoding="utf-8"?>
<!-- Generator: Adobe Illustrator 12.0.0, SVG Export Plug-In . SVG Version: 6.00 Build 51448)  -->
<!DOCTYPE svg PUBLIC "-//W3C//DTD SVG 1.1//EN" "http://www.w3.org/Graphics/SVG/1.1/DTD/svg11.dtd" [
	<!ENTITY ns_flows "http://ns.adobe.com/Flows/1.0/">
	<!ENTITY ns_extend "http://ns.adobe.com/Extensibility/1.0/">
	<!ENTITY ns_ai "http://ns.adobe.com/AdobeIllustrator/10.0/">
	<!ENTITY ns_graphs "http://ns.adobe.com/Graphs/1.0/">
	<!ENTITY ns_vars "http://ns.adobe.com/Variables/1.0/">
	<!ENTITY ns_imrep "http://ns.adobe.com/ImageReplacement/1.0/">
	<!ENTITY ns_sfw "http://ns.adobe.com/SaveForWeb/1.0/">
	<!ENTITY ns_custom "http://ns.adobe.com/GenericCustomNamespace/1.0/">
	<!ENTITY ns_adobe_xpath "http://ns.adobe.com/XPath/1.0/">
	<!ENTITY ns_svg "http://www.w3.org/2000/svg">
	<!ENTITY ns_xlink "http://www.w3.org/1999/xlink">
]>
<svg  version="1.1"
	 xmlns:x="&ns_extend;" xmlns:i="&ns_ai;" xmlns:graph="&ns_graphs;" i:viewOrigin="-0.3208 113.645" i:rulerOrigin="0 0" i:pageBounds="0 113 108 0"
	 xmlns="&ns_svg;" xmlns:xlink="&ns_xlink;" xmlns:a="http://ns.adobe.com/AdobeSVGViewerExtensions/3.0/"
	 width="109.1" height="113.832" viewBox="0 0 109.1 113.832" overflow="visible" enable-background="new 0 0 109.1 113.832"
	 xml:space="preserve">
<metadata>
	<variableSets  xmlns="&ns_vars;">
		<variableSet  varSetName="binding1" locked="none">
			<variables></variables>
			<v:sampleDataSets  xmlns="&ns_custom;" xmlns:v="&ns_vars;"></v:sampleDataSets>
		</variableSet>
	</variableSets>
</metadata>
<g id="图层_1" i:layer="yes" i:dimmedPercent="50" i:rgbTrio="#4F008000FFFF">
	<g>
		
			<linearGradient id="XMLID_3_" gradientUnits="userSpaceOnUse" x1="935.4341" y1="81.0015" x2="1020.2271" y2="81.0015" gradientTransform="matrix(0 -1 1 0 -26.8223 1049.0791)">
			<stop  offset="0.1348" style="stop-color:#1889BC"/>
			<stop  offset="0.2247" style="stop-color:#C4E9F2"/>
			<a:midPointStop  offset="0.1348" style="stop-color:#1889BC"/>
			<a:midPointStop  offset="0.5" style="stop-color:#1889BC"/>
			<a:midPointStop  offset="0.2247" style="stop-color:#C4E9F2"/>
		</linearGradient>
		<path i:knockout="Off" fill="url(#XMLID_3_)" stroke="#000000" stroke-width="0.3739" d="M100.037,28.852
			c4.418,0,8.001,3.42,8.001,7.638v69.518c0,4.218-3.583,7.638-8.001,7.638H8.321c-4.418,0-8-3.42-8-7.638V36.49
			c0-4.218,3.582-7.638,8-7.638H100.037z"/>
		<path i:knockout="Off" fill="#FFFFFF" stroke="#000000" stroke-width="0.6414" d="M8.377,85.36c-4.448,0-8.056-3.43-8.056-7.66
			V7.98c0-4.23,3.608-7.659,8.056-7.659h92.348c4.447,0,8.055,3.429,8.055,7.659V77.7c0,4.23-3.607,7.66-8.055,7.66H8.377z"/>
		
			<linearGradient id="XMLID_4_" gradientUnits="userSpaceOnUse" x1="-229.9092" y1="-254.2622" x2="-144.8701" y2="-254.2622" gradientTransform="matrix(0 1 -1 0 -199.7119 230.23)">
			<stop  offset="0" style="stop-color:#A3DDEA"/>
			<stop  offset="0.0899" style="stop-color:#0678B3"/>
			<stop  offset="0.2135" style="stop-color:#094C91"/>
			<stop  offset="0.6404" style="stop-color:#2890C0"/>
			<stop  offset="0.8034" style="stop-color:#82D0E3"/>
			<stop  offset="1" style="stop-color:#09468C"/>
			<a:midPointStop  offset="0" style="stop-color:#A3DDEA"/>
			<a:midPointStop  offset="0.5" style="stop-color:#A3DDEA"/>
			<a:midPointStop  offset="0.0899" style="stop-color:#0678B3"/>
			<a:midPointStop  offset="0.5" style="stop-color:#0678B3"/>
			<a:midPointStop  offset="0.2135" style="stop-color:#094C91"/>
			<a:midPointStop  offset="0.5" style="stop-color:#094C91"/>
			<a:midPointStop  offset="0.6404" style="stop-color:#2890C0"/>
			<a:midPointStop  offset="0.5" style="stop-color:#2890C0"/>
			<a:midPointStop  offset="0.8034" style="stop-color:#82D0E3"/>
			<a:midPointStop  offset="0.5" style="stop-color:#82D0E3"/>
			<a:midPointStop  offset="1" style="stop-color:#09468C"/>
		</linearGradient>
		<path i:knockout="Off" opacity="0.1" fill="url(#XMLID_4_)" stroke="#000000" stroke-width="0.6414" d="M8.377,85.36
			c-4.448,0-8.056-3.43-8.056-7.66V7.98c0-4.23,3.608-7.659,8.056-7.659h92.348c4.448,0,8.055,3.429,8.055,7.659V77.7
			c0,4.23-3.606,7.66-8.055,7.66H8.377z"/>
		<g i:knockout="Off">
			<g>
				<path i:knockout="Off" fill="#24258D" d="M87.208,61.615c0,3.941-0.102,8.742-0.303,14.402
					c-0.102,0.809-0.607,1.012-1.517,0.607c-2.628-1.314-3.589-3.74-2.881-7.277c1.112-4.348,1.668-8.693,1.668-13.039
					c-0.102-4.447-0.759-8.288-1.972-11.522c-0.303-0.809-0.252-1.466,0.152-1.972c0.606-0.505,1.264-0.555,1.971-0.15
					c1.011,0.605,1.719,1.363,2.123,2.273c0.505,0.91,0.605,1.668,0.303,2.274c-0.404,0.606-0.506,1.517-0.303,2.729
					C86.855,53.781,87.107,57.672,87.208,61.615z"/>
			</g>
		</g>
		<path i:knockout="Off" fill="none" d="M77.551,34.724c1.514-0.215,2.693-1.059,3.508-1.869c-3.355,0.19-6.471,0.097-9.371-0.112
			C73.778,34.312,75.744,34.98,77.551,34.724z"/>
		<path i:knockout="Off" fill="none" d="M79.956,24.996c-0.963-0.59-1.95-0.632-2.888-0.354l1.394,1.424
			c-0.162,0.158-2.932,2.852-5.76,4.742c0.357,0.022,0.721,0.041,1.084,0.059C77.299,29.673,79.264,26.384,79.956,24.996z"/>
		<path i:knockout="Off" fill="none" d="M82.861,30.69c-0.071-1.016-0.354-2.792-1.396-4.257c-0.668,1.227-1.874,3.053-3.738,4.523
			c1.219-0.006,2.464-0.039,3.748-0.124C81.952,30.801,82.408,30.748,82.861,30.69z"/>
		<path i:knockout="Off" fill="none" d="M67.336,37.187c0.807,0.983,1.41,1.89,1.938,2.819c-0.164-1.26-0.784-2.953-1.68-3.914
			c-0.914-0.98-1.711-1.06-2.619-1.288C65.77,35.469,66.598,36.288,67.336,37.187z"/>
		<path i:knockout="Off" fill="none" d="M61.813,21.806c0.195-0.457,0.33-0.905,0.438-1.348c-0.405-0.356-0.847-0.609-1.251-0.785
			c-1.035-0.449-2.166-0.552-3.107-0.435l1.449,1.283c-0.09,0.103-2.006,2.344-1.092,4.761
			C59.833,24.431,61.155,23.342,61.813,21.806z"/>
		<path i:knockout="Off" fill="none" d="M63.629,23.137c-0.016-0.126-0.047-0.236-0.07-0.354c-0.91,1.966-2.573,3.307-4.464,4.31
			c0.728,0.028,1.572-0.098,2.361-0.439C62.384,26.251,63.901,25.26,63.629,23.137z"/>
		<path i:knockout="Off" fill="none" d="M65.969,42.411l0.388-3.425l-0.669-0.992l-1.252-1.229c0,0-0.195,2.981-0.145,4.01
			c0.052,1.028-1.021,0.807-1.021,0.807l0.059-5.663c0,0-0.498-0.261-1.176-0.688c-0.651,1.352-1.548,4.274,0.855,7.278
			c1.383,1.729,2.838,2.203,4.018,2.203c0.771,0,1.401-0.2,1.837-0.386c-0.204-0.925-1.026-3.049-1.591-4.108
			c-0.209-0.395-0.41,2.913-0.41,2.913L65.969,42.411z"/>
		<path i:knockout="Off" fill="none" d="M25.254,17.933l1.805-0.862c0.021,0.044,1.998,4.065,5.266,4.789
			c0.053-0.19,0.104-0.38,0.146-0.567c-0.631-3.218-5.398-5.527-5.447-5.551l0.855-1.807c0.166,0.078,2.865,1.38,4.777,3.578
			c-0.1-0.529-0.252-1.036-0.502-1.494c-0.809-1.481-2.254-2.469-3.814-3.139c-1.363,1.108-3.855,3.556-3.994,5.693
			c-0.133,2.104,2.893,3.739,4.699,4.716l1.266,0.725c0.398,0.266,0.721,0.521,0.99,0.761c0.145-0.338,0.277-0.676,0.404-1.014
			C27.604,22.735,25.358,18.148,25.254,17.933z"/>
		<path i:knockout="Off" fill="none" d="M34.264,55.029c-0.609-0.43-1.203-0.595-1.652-0.48c1.533,1.36,2.887,3.821,1.734,7.464
			l-1.906-0.604c1.076-3.401-0.658-5.091-1.648-5.745c-0.434,0.401-0.846,0.882-1.146,1.489c-0.598,1.202-0.652,2.536-0.166,3.965
			c0.969,2.848,4.949,3.463,6.459,3.598c0.314-0.723,0.832-2.271,0.773-4.783C36.663,57.7,35.446,55.861,34.264,55.029z"/>
		<path i:knockout="Off" fill="#35A034" d="M25.985,45.232c1.068-1.674,2.402-3.238,3.479-4.399c-0.164-0.817-0.26-1.699-0.246-2.64
			c-1.607,1.584-5.176,5.379-6.52,9.062L21.7,49.99l2.469-1.544c0.041-0.026,3.783-2.337,7.238-2.894
			c-0.328-0.503-0.682-1.121-1.01-1.84C28.811,44.052,27.254,44.648,25.985,45.232z"/>
		<path i:knockout="Off" fill="#35A034" d="M37.383,66.298c0.1-0.15,1.424-2.252,1.328-6.411c-0.059-2.577-1.354-5.126-3.297-6.494
			c-1.182-0.832-2.428-1.092-3.508-0.731c-0.482,0.16-1.023,0.423-1.566,0.787c-2.225,0.389-4.578-0.256-5.988-0.772
			c2.156-2.155,4.92-4.171,8.334-5.398c-0.057-0.112-0.09-0.178-0.09-0.178s-0.52-0.534-1.15-1.491
			c-9.742,3.778-14.209,13.182-15.037,15.113c-0.193,0.102-0.584,0.308-1.145,0.603c0.027-0.109,0.086-0.354,0.092-0.377
			C16.5,58.211,25.79,38.322,28.571,33.891c2.918-4.651,8.35-13.31,5.34-18.829c-3.105-5.692-8.08-5.774-10.596-4.967
			c-1.617,0.519-1.543,1.405-1.543,1.405c0.039,0.001,2.072,0.04,4.385,0.637c-1.496,1.384-3.645,3.788-3.807,6.31
			c-0.215,3.382,3.516,5.398,5.746,6.603l1.105,0.629c0.639,0.426,1.002,0.787,1.205,1.029c-1.184,2.373-2.559,4.572-3.531,6.121
			c-2.971,4.734-12.404,25.02-13.396,27.419L13.45,60.32c0,0-0.943,1.379-1.268,2.715c-0.252,1.046,0.1,2.12,0.1,2.12l4.668-2.457
			l2.057,2.419l1.414-1.414l-2.062-2.434c0.531-1.164,1.994-4.059,4.531-7.016c1.045,0.442,3.088,1.176,5.371,1.299
			c-0.146,0.225-0.283,0.462-0.406,0.712c-0.83,1.673-0.924,3.574-0.268,5.498c1.188,3.488,5.141,4.538,7.375,4.856
			c-1.666,2.472-5,4.035-5.037,4.049c0,0,0.287,0.65,1.066,0.785C32.563,71.724,35.616,70.205,37.383,66.298z M30.311,24.014
			l-1.266-0.725c-1.807-0.977-4.832-2.611-4.699-4.716c0.139-2.138,2.631-4.585,3.994-5.693c1.561,0.67,3.006,1.657,3.814,3.139
			c0.25,0.458,0.402,0.965,0.502,1.494c-1.912-2.198-4.611-3.5-4.777-3.578l-0.855,1.807c0.049,0.023,4.816,2.333,5.447,5.551
			c-0.043,0.188-0.094,0.377-0.146,0.567c-3.268-0.724-5.244-4.745-5.266-4.789l-1.805,0.862c0.104,0.215,2.35,4.802,6.451,5.828
			c-0.127,0.338-0.26,0.676-0.404,1.014C31.032,24.535,30.709,24.28,30.311,24.014z M29.479,61.118
			c-0.486-1.429-0.432-2.763,0.166-3.965c0.301-0.607,0.713-1.088,1.146-1.489c0.99,0.654,2.725,2.344,1.648,5.745l1.906,0.604
			c1.152-3.643-0.201-6.104-1.734-7.464c0.449-0.114,1.043,0.051,1.652,0.48c1.182,0.832,2.398,2.671,2.447,4.903
			c0.059,2.512-0.459,4.061-0.773,4.783C34.428,64.581,30.448,63.965,29.479,61.118z"/>
		<path i:knockout="Off" fill="#35A034" d="M60.389,34.273c-1.07,2.168-1.772,5.948,1.059,9.485
			c2.547,3.185,5.599,3.264,7.634,2.621c-0.055,3.654-2.505,5.835-2.936,6.188c0,0,0.839,0.509,1.989-0.13
			c1.504-0.837,3.369-3.253,2.855-7.461c0.225-0.982,1.326-6.559-1.729-9.836c-2.765-2.968-6.145-2.6-7.334-2.351
			c-1.057-0.537-2.114-0.933-3.143-1.211c2.162,0.1,4.4,0.337,6.759,0.588c0.899,0.096,1.831,0.192,2.778,0.286
			c3.307,3.245,6.514,4.685,9.531,4.247c3.328-0.481,5.263-3.018,5.945-4.066c4.117-0.666,7.444-1.804,9.531-4.749
			c6.662-9.404,2.244-12.892,2.244-12.892c0.006,0.065,0.273,6.055-3.7,10.665c-1.787,2.073-4.003,3.974-7.032,4.683
			c-0.148-1.742-0.795-5.152-3.432-7.076c-2.927-2.137-5.957-1.2-9.967,3.844c0,0,2.412-1.5,5.605-2.462
			c-1.43,1.398-5.564,5.077-8.031,5.866c-1.119-0.107-2.209-0.222-3.262-0.334c-3.27-0.348-6.314-0.664-9.273-0.643
			c0.551,1.457,1.05,3,1.06,3.808C58.465,33.546,59.423,33.841,60.389,34.273z M67.272,40.218c0.564,1.06,1.387,3.184,1.591,4.108
			c-0.436,0.186-1.065,0.386-1.837,0.386c-1.18,0-2.635-0.474-4.018-2.203c-2.403-3.004-1.507-5.927-0.855-7.278
			c0.678,0.427,1.176,0.688,1.176,0.688l-0.059,5.663c0,0,1.073,0.222,1.021-0.807c-0.051-1.028,0.145-4.01,0.145-4.01l1.252,1.229
			l0.669,0.992l-0.388,3.425l0.893,0.721C66.862,43.131,67.063,39.824,67.272,40.218z M67.594,36.092
			c0.896,0.961,1.516,2.654,1.68,3.914c-0.527-0.93-1.131-1.836-1.938-2.819c-0.738-0.899-1.566-1.718-2.361-2.383
			C65.883,35.033,66.68,35.112,67.594,36.092z M81.059,32.855c-0.814,0.811-1.994,1.654-3.508,1.869
			c-1.808,0.256-3.773-0.412-5.863-1.981C74.588,32.952,77.704,33.045,81.059,32.855z M72.702,30.807
			c2.828-1.891,5.598-4.584,5.76-4.742l-1.394-1.424c0.938-0.277,1.925-0.235,2.888,0.354c-0.691,1.389-2.656,4.678-6.17,5.87
			C73.422,30.848,73.059,30.83,72.702,30.807z M81.465,26.433c1.041,1.465,1.324,3.241,1.396,4.257
			c-0.453,0.058-0.909,0.111-1.386,0.143c-1.284,0.085-2.529,0.118-3.748,0.124C79.591,29.486,80.797,27.66,81.465,26.433z"/>
		<path i:knockout="Off" fill="#35A034" d="M56.39,28.296c1.481,1.08,4.005,0.995,5.86,0.191c2.42-1.047,3.437-3.262,3.124-5.724
			c-0.147-1.157-0.321-2.063-0.968-2.918c0.557-4.145-1.403-6.746-2.65-7.828c-1.476-1.28-2.337-0.626-2.337-0.626
			c0.151,0.15,2.911,2.956,3.063,6.794c-0.219-0.124-0.445-0.243-0.685-0.347c-2.255-0.98-5.061-0.85-6.671,0.31
			c-2.787,2.006-1.758,5.884-1.697,6.783c0.061,0.9,1.926,0.238,1.865-0.842s-0.369-3.332,1-4.318
			c0.352-0.252,0.884-0.436,1.504-0.523c-0.357,0.421-2.784,3.468-1.369,6.884c-0.381,0.156-0.77,0.299-1.156,0.441
			c0.174,0.4,0.459,1.066,0.773,1.848C56.163,28.378,56.276,28.34,56.39,28.296z M59.342,20.522l-1.449-1.283
			c0.941-0.117,2.072-0.015,3.107,0.435c0.404,0.176,0.846,0.429,1.251,0.785c-0.108,0.442-0.243,0.891-0.438,1.348
			c-0.658,1.536-1.98,2.625-3.562,3.477C57.336,22.866,59.252,20.625,59.342,20.522z M63.559,22.783
			c0.023,0.118,0.055,0.229,0.07,0.354c0.271,2.123-1.245,3.114-2.173,3.516c-0.789,0.342-1.634,0.468-2.361,0.439
			C60.986,26.089,62.649,24.749,63.559,22.783z"/>
		<path i:knockout="Off" fill="#35A034" d="M57.099,48.359c0.762,0.111,1.351,0.613,1.749,1.516c0.495,1.121,0.62,2.048,0.365,2.683
			c-0.729-1.293-1.699-2.389-2.596-3.392c-0.051-0.057-0.099-0.111-0.148-0.168c-0.457,0.515-0.862,1.123-1.035,1.847
			c1.161,1.306,2.299,2.675,2.729,4.363c0.196,0.771,0.133,1.525-0.082,2.243c-0.369-0.009-1.109-0.143-2.201-0.868
			c-0.377,0.405-0.942,0.959-1.552,1.356c1.124,0.828,2.069,1.226,2.815,1.399c-1.312,1.9-3.367,4.304-3.4,4.324
			c0,0,3.236-0.257,4.999-2.926c0.776-1.174,2.036-3.372,1.358-6.023c-0.005-0.021-0.013-0.04-0.018-0.061
			c0.336-0.277,0.695-0.676,0.948-1.254c0.515-1.18,0.396-2.637-0.354-4.333c-0.479-1.084-1.207-1.861-2.093-2.306
			c-0.147,0.231-0.288,0.438-0.405,0.579C57.954,47.611,57.54,47.949,57.099,48.359z"/>
		<path i:knockout="Off" fill="none" d="M39.782,47.718c0.342,0.824,0.135,1.788-0.619,2.866c-0.494,0.704-0.525,1.517-0.096,2.414
			c0.896,1.869,3.527,3.515,5.863,3.668c1.158,0.076,2.762-0.175,3.824-1.804c2.916-4.465,0.529-7.563-0.639-8.696
			c-1.176,0.74-2.58,1.222-4.008,1.305c-2.535,0.147-4.691-1.012-5.916-3.179c-1.287-2.279-1.553-4.773-0.748-7.024
			c0.643-1.798,1.889-3.168,3.418-3.761c0.979-0.379,1.959-0.564,2.914-0.564c2.336,0,4.516,1.111,6.148,3.217
			c0.049,0.058,0.34,0.429,0.648,1.035c-0.049-1.172,0.309-3.22,1.777-4.159c-0.654,0.062-1.197,0.15-1.574,0.226
			c-1.652,0.331-2.65,0.53-3.338-0.095c-0.25-0.225-0.531-0.642-0.461-1.346c0.133-1.321,1.008-2.212,2.291-2.928
			c-0.68-1.464-2.615-4.883-5.941-5.064c-2.035-0.111-3.75,0.65-4.701,2.09c-1.018,1.539-0.99,3.664,0.074,5.831l0.607,1.235
			l-1.363,0.195c-2.289,0.327-5.889,2.454-6.35,5.979c-0.463,3.547,2.953,6.343,4.58,6.625
			C37.745,46.058,39.266,46.481,39.782,47.718z"/>
		<path i:knockout="Off" fill="none" d="M53.389,40.901c-0.184,1.081-0.045,1.991,0.426,2.499c0.582,0.629,1.615,0.643,2.38,0.543
			c1.325-0.173,1.559-1.408,1.598-1.931c0.073-0.985-0.343-2.145-1.167-2.381c-0.215-0.061-0.426-0.088-0.631-0.088
			C54.74,39.543,53.739,40.517,53.389,40.901z"/>
		<path i:knockout="Off" fill="none" d="M41.584,35.373c-0.973,0.377-1.816,1.337-2.258,2.569c-0.352,0.981-0.74,2.984,0.607,5.366
			c1.086,1.922,2.805,2.239,4.059,2.166c2.105-0.122,4.279-1.463,4.947-3.052c1.178-2.793-0.5-4.92-0.572-5.009l-0.016-0.021
			C46.594,35.124,44.129,34.387,41.584,35.373z"/>
		<path i:knockout="Off" fill="none" d="M31.407,45.552c0.014,0.021,0.025,0.037,0.039,0.057c0.082-0.031,0.158-0.071,0.242-0.103
			C31.594,45.519,31.5,45.538,31.407,45.552z"/>
		<g i:knockout="Off">
			<g i:knockout="Off">
				<circle i:knockout="Off" fill="#D90000" cx="47.055" cy="39.972" r="1.422"/>
				<circle i:knockout="Off" fill="#D90000" cx="44.536" cy="37.453" r="1.422"/>
				<circle i:knockout="Off" fill="#D90000" cx="41.655" cy="39.972" r="1.422"/>
				<circle i:knockout="Off" fill="#D90000" cx="44.536" cy="42.493" r="1.422"/>
			</g>
			<path i:knockout="Off" fill="#D90000" d="M32.686,47.278c0.365-0.131,0.73-0.261,1.109-0.373
				c0.719,0.448,1.428,0.745,2.037,0.851c1.799,0.312,2.062,0.639,2.102,0.731c0.027,0.062,0.004,0.357-0.41,0.95
				c-0.912,1.303-1.004,2.875-0.26,4.427c1.215,2.533,4.455,4.597,7.535,4.799c2.389,0.157,4.389-0.805,5.631-2.706
				c3.549-5.438,0.807-9.417-0.775-11.059c0.48-0.519,0.873-1.089,1.129-1.699c1.096-2.599,0.412-4.777-0.207-5.997l1.994-0.083
				c0-0.024-0.07-2.395,1.354-2.567c0.786-0.096,1.512,0.143,2.044,0.669c0.489,0.485,0.741,1.142,0.673,1.755
				c-0.016,0.135-0.062,0.54-0.412,0.579c-2.641-0.156-4.498,2.193-4.584,2.306l-0.141,0.181l-0.047,0.224
				c-0.326,1.547-0.154,2.907,0.469,3.923c-0.031,1.459,0.453,2.686,1.176,3.791c-0.377,0.446-0.611,0.943-0.639,1.437l-0.076,0.83
				c-0.213,2.029-0.607,5.807,1.92,7.68c0.008,0.005,0.014,0.009,0.021,0.015c0.609-0.397,1.175-0.951,1.552-1.356
				c-0.123-0.082-0.248-0.167-0.382-0.266c-1.61-1.193-1.304-4.117-1.121-5.864l0.065-0.729c0.227,0.261,0.455,0.519,0.685,0.774
				c0.103,0.114,0.205,0.229,0.308,0.346c0.173-0.724,0.578-1.332,1.035-1.847c-0.164-0.184-0.328-0.369-0.486-0.549
				c0.141-0.041,0.287-0.074,0.44-0.095c0.239-0.031,0.464-0.026,0.676,0.005c0.44-0.41,0.854-0.748,1.079-1.02
				c0.117-0.141,0.258-0.348,0.405-0.579c-0.782-0.394-1.687-0.528-2.659-0.352c-0.426,0.077-0.832,0.214-1.211,0.387
				c-0.199-0.314-0.363-0.636-0.494-0.964c0.602,0.152,1.334,0.212,2.234,0.095c1.873-0.245,3.182-1.723,3.334-3.766
				c0.104-1.395-0.393-2.964-1.494-3.857c0.163-0.3,0.285-0.663,0.335-1.106c0.136-1.216-0.333-2.486-1.253-3.397
				c-0.254-0.251-0.535-0.464-0.836-0.644c0.328,0.051,0.664,0.114,1.003,0.188c-0.01-0.808-0.509-2.351-1.06-3.808
				c-1.52,0.011-3.016,0.104-4.508,0.34c0.631-0.247,1.316-0.489,2.029-0.732c0.658-0.225,1.349-0.465,2.043-0.723
				c-0.314-0.781-0.6-1.447-0.773-1.848c-0.643,0.236-1.285,0.463-1.914,0.678c-0.793,0.271-1.559,0.532-2.27,0.809
				c-0.834-1.814-3.219-5.986-7.654-6.229c-2.723-0.148-5.146,0.967-6.479,2.983c-1.225,1.851-1.344,4.227-0.482,6.653
				c-2.516,0.758-5.508,2.821-6.551,6.045c-0.129,0.119-0.381,0.357-0.707,0.68c-0.014,0.94,0.082,1.822,0.246,2.64
				c0.047-0.05,0.1-0.11,0.145-0.158c0.133,1.083,0.506,2.088,1.029,2.98c-0.08,0.016-0.16,0.04-0.24,0.058
				c0.328,0.719,0.682,1.337,1.01,1.84c0.094-0.015,0.188-0.033,0.281-0.046c-0.084,0.031-0.16,0.071-0.242,0.103
				c0.631,0.957,1.15,1.491,1.15,1.491S32.629,47.166,32.686,47.278z M56.625,39.631c0.824,0.236,1.24,1.396,1.167,2.381
				c-0.039,0.522-0.272,1.758-1.598,1.931c-0.765,0.1-1.798,0.086-2.38-0.543c-0.471-0.508-0.609-1.418-0.426-2.499
				c0.35-0.384,1.351-1.357,2.605-1.357C56.2,39.543,56.411,39.571,56.625,39.631z M48.352,37.393l0.016,0.021
				c0.072,0.089,1.75,2.216,0.572,5.009c-0.668,1.589-2.842,2.93-4.947,3.052c-1.254,0.073-2.973-0.244-4.059-2.166
				c-1.348-2.382-0.959-4.385-0.607-5.366c0.441-1.232,1.285-2.192,2.258-2.569C44.129,34.387,46.594,35.124,48.352,37.393z
				 M31.594,39.16c0.461-3.525,4.061-5.652,6.35-5.979l1.363-0.195L38.7,31.75c-1.064-2.167-1.092-4.292-0.074-5.831
				c0.951-1.439,2.666-2.201,4.701-2.09c3.326,0.182,5.262,3.601,5.941,5.064c-1.283,0.716-2.158,1.606-2.291,2.928
				c-0.07,0.704,0.211,1.121,0.461,1.346c0.688,0.625,1.686,0.426,3.338,0.095c0.377-0.075,0.92-0.163,1.574-0.226
				c-1.469,0.939-1.826,2.987-1.777,4.159c-0.309-0.606-0.6-0.978-0.648-1.035c-1.633-2.105-3.812-3.217-6.148-3.217
				c-0.955,0-1.936,0.186-2.914,0.564c-1.529,0.593-2.775,1.963-3.418,3.761c-0.805,2.251-0.539,4.745,0.748,7.024
				c1.225,2.167,3.381,3.326,5.916,3.179c1.428-0.083,2.832-0.564,4.008-1.305c1.168,1.133,3.555,4.231,0.639,8.696
				c-1.062,1.629-2.666,1.88-3.824,1.804c-2.336-0.153-4.967-1.799-5.863-3.668c-0.43-0.897-0.398-1.71,0.096-2.414
				c0.754-1.078,0.961-2.042,0.619-2.866c-0.516-1.237-2.037-1.66-3.607-1.934C34.547,45.502,31.131,42.707,31.594,39.16z"/>
		</g>
	</g>
</g>
</svg>
