<?xml version="1.0" encoding="utf-8"?>
<!-- Generator: Adobe Illustrator 12.0.0, SVG Export Plug-In . SVG Version: 6.00 Build 51448)  -->
<!DOCTYPE svg PUBLIC "-//W3C//DTD SVG 1.1//EN" "http://www.w3.org/Graphics/SVG/1.1/DTD/svg11.dtd" [
	<!ENTITY ns_flows "http://ns.adobe.com/Flows/1.0/">
	<!ENTITY ns_extend "http://ns.adobe.com/Extensibility/1.0/">
	<!ENTITY ns_ai "http://ns.adobe.com/AdobeIllustrator/10.0/">
	<!ENTITY ns_graphs "http://ns.adobe.com/Graphs/1.0/">
	<!ENTITY ns_vars "http://ns.adobe.com/Variables/1.0/">
	<!ENTITY ns_imrep "http://ns.adobe.com/ImageReplacement/1.0/">
	<!ENTITY ns_sfw "http://ns.adobe.com/SaveForWeb/1.0/">
	<!ENTITY ns_custom "http://ns.adobe.com/GenericCustomNamespace/1.0/">
	<!ENTITY ns_adobe_xpath "http://ns.adobe.com/XPath/1.0/">
	<!ENTITY ns_svg "http://www.w3.org/2000/svg">
	<!ENTITY ns_xlink "http://www.w3.org/1999/xlink">
]>
<svg  version="1.1"
	 xmlns:x="&ns_extend;" xmlns:i="&ns_ai;" xmlns:graph="&ns_graphs;" i:viewOrigin="-0.3208 113.645" i:rulerOrigin="0 0" i:pageBounds="0 113 108 0"
	 xmlns="&ns_svg;" xmlns:xlink="&ns_xlink;" xmlns:a="http://ns.adobe.com/AdobeSVGViewerExtensions/3.0/"
	 width="109.1" height="113.832" viewBox="0 0 109.1 113.832" overflow="visible" enable-background="new 0 0 109.1 113.832"
	 xml:space="preserve">
<metadata>
	<variableSets  xmlns="&ns_vars;">
		<variableSet  varSetName="binding1" locked="none">
			<variables></variables>
			<v:sampleDataSets  xmlns="&ns_custom;" xmlns:v="&ns_vars;"></v:sampleDataSets>
		</variableSet>
	</variableSets>
</metadata>
<g id="图层_1" i:layer="yes" i:dimmedPercent="50" i:rgbTrio="#4F008000FFFF">
	<g>
		
			<linearGradient id="XMLID_3_" gradientUnits="userSpaceOnUse" x1="935.4341" y1="81.0015" x2="1020.2271" y2="81.0015" gradientTransform="matrix(0 -1 1 0 -26.8223 1049.0791)">
			<stop  offset="0.1348" style="stop-color:#1889BC"/>
			<stop  offset="0.2247" style="stop-color:#C4E9F2"/>
			<a:midPointStop  offset="0.1348" style="stop-color:#1889BC"/>
			<a:midPointStop  offset="0.5" style="stop-color:#1889BC"/>
			<a:midPointStop  offset="0.2247" style="stop-color:#C4E9F2"/>
		</linearGradient>
		<path i:knockout="Off" fill="url(#XMLID_3_)" stroke="#000000" stroke-width="0.3739" d="M100.037,28.852
			c4.418,0,8.001,3.42,8.001,7.638v69.518c0,4.218-3.583,7.638-8.001,7.638H8.321c-4.418,0-8-3.42-8-7.638V36.49
			c0-4.218,3.582-7.638,8-7.638H100.037z"/>
		<path i:knockout="Off" fill="#FFFFFF" stroke="#000000" stroke-width="0.6414" d="M8.377,85.36c-4.449,0-8.057-3.43-8.057-7.66
			V7.98c0-4.23,3.607-7.659,8.057-7.659h92.348c4.447,0,8.055,3.429,8.055,7.659V77.7c0,4.23-3.607,7.66-8.055,7.66H8.377z"/>
		
			<linearGradient id="XMLID_4_" gradientUnits="userSpaceOnUse" x1="-229.9092" y1="-254.2622" x2="-144.8701" y2="-254.2622" gradientTransform="matrix(0 1 -1 0 -199.7119 230.23)">
			<stop  offset="0" style="stop-color:#A3DDEA"/>
			<stop  offset="0.0899" style="stop-color:#0678B3"/>
			<stop  offset="0.2135" style="stop-color:#094C91"/>
			<stop  offset="0.6404" style="stop-color:#2890C0"/>
			<stop  offset="0.8034" style="stop-color:#82D0E3"/>
			<stop  offset="1" style="stop-color:#09468C"/>
			<a:midPointStop  offset="0" style="stop-color:#A3DDEA"/>
			<a:midPointStop  offset="0.5" style="stop-color:#A3DDEA"/>
			<a:midPointStop  offset="0.0899" style="stop-color:#0678B3"/>
			<a:midPointStop  offset="0.5" style="stop-color:#0678B3"/>
			<a:midPointStop  offset="0.2135" style="stop-color:#094C91"/>
			<a:midPointStop  offset="0.5" style="stop-color:#094C91"/>
			<a:midPointStop  offset="0.6404" style="stop-color:#2890C0"/>
			<a:midPointStop  offset="0.5" style="stop-color:#2890C0"/>
			<a:midPointStop  offset="0.8034" style="stop-color:#82D0E3"/>
			<a:midPointStop  offset="0.5" style="stop-color:#82D0E3"/>
			<a:midPointStop  offset="1" style="stop-color:#09468C"/>
		</linearGradient>
		<path i:knockout="Off" opacity="0.1" fill="url(#XMLID_4_)" stroke="#000000" stroke-width="0.6414" d="M8.377,85.36
			c-4.449,0-8.057-3.43-8.057-7.66V7.98c0-4.23,3.607-7.659,8.057-7.659h92.348c4.448,0,8.055,3.429,8.055,7.659V77.7
			c0,4.23-3.606,7.66-8.055,7.66H8.377z"/>
		<g i:knockout="Off">
			<path i:knockout="Off" fill-rule="evenodd" clip-rule="evenodd" fill="#1D8F38" d="M54.196,29.236
				c10.049-0.339,27.601-0.983,32.252-1.488c7.531-0.817,8.844-11.084,8.896-11.521l0.034-0.279l-0.105-0.262
				c-0.182-0.454-0.602-0.791-1.281-1.029c-1.78-0.625-5.805-0.764-8.79,0.922c-2.516,1.422-3.272,3.859-3.773,5.473
				c-0.121,0.389-0.286,0.92-0.384,1.056c0.024-0.032,0.121-0.128,0.288-0.176c-0.895,0.167-16.377,1.51-30.36,2.681l0.184,2.191
				c11.162-0.934,30.004-2.535,30.781-2.757c0.949-0.271,1.247-1.231,1.592-2.343c0.445-1.434,0.999-3.217,2.755-4.209
				c2.782-1.572,6.573-1.062,7.173-0.68c-0.038-0.023-0.151-0.127-0.225-0.309l-0.071-0.541c-0.011,0.089-1.157,8.967-6.95,9.595
				c-4.58,0.498-22.07,1.14-32.088,1.477L54.196,29.236z"/>
		</g>
		<g i:knockout="Off">
			<path i:knockout="Off" fill-rule="evenodd" clip-rule="evenodd" fill="#1D8F38" d="M56.15,25.93
				c0.109-0.17,2.683-4.174,3.434-5.676c0.685-1.367,0.664-3.195-0.048-4.346c-0.479-0.777-1.229-1.205-2.109-1.205
				c-2.102,0-4.768,2.175-4.768,4.619c0,1.447-1.871,5.076-2.459,5.547l1.234,1.82c1.312-0.874,3.424-5.418,3.424-7.367
				c0-1.121,1.555-2.42,2.568-2.42c0.068,0,0.139,0,0.238,0.162c0.305,0.494,0.282,1.545-0.048,2.205
				c-0.699,1.396-3.291,5.429-3.316,5.469L56.15,25.93z"/>
		</g>
		<polygon i:knockout="Off" fill="#B3D495" points="57.151,43.824 57.152,43.824 57.152,43.823 		"/>
		<g i:knockout="Off">
			<g>
				<path i:knockout="Off" fill="#24258D" d="M96.732,47.774c-0.809,2.123-1.112,4.396-0.91,6.822c0.202,4.145,0.202,7.985,0,11.523
					c-0.102,1.92-0.102,3.184,0,3.79c0,0.707,0.102,1.364,0.303,1.971c0.607,2.628-0.556,3.942-3.486,3.942
					c-4.043-0.708-8.238-1.062-12.584-1.062c-1.617-0.102-2.779-0.759-3.487-1.972c-0.606-1.313-0.404-2.576,0.606-3.789
					c0.506-0.709,0.859-3.285,1.062-7.732c0-5.66-0.202-9.098-0.606-10.311c-1.011-1.213-1.415-2.324-1.213-3.335
					c0.404-1.011,1.314-1.517,2.729-1.517c4.75-0.101,9.501-0.505,14.252-1.213C96.125,44.59,97.236,45.551,96.732,47.774z
					 M92.486,54.596c0.404,0,0.607-0.201,0.607-0.605c0-0.708,0-1.617,0-2.729c-0.102-1.718-0.81-2.628-2.123-2.729
					c-2.628,0.203-4.396,0.304-5.307,0.304c-0.506-0.101-0.656,0.202-0.455,0.909C85.816,53.283,88.242,54.9,92.486,54.596z
					 M86.119,60.358c1.111-0.506,3.082-0.455,5.912,0.152c0.809,0.303,1.162-0.102,1.062-1.213c0-0.91-0.304-1.365-0.91-1.365
					c-3.437,0-5.762-0.606-6.975-1.819c-1.414-1.213-2.122-3.386-2.122-6.519c0-0.305-0.304-0.455-0.909-0.455
					c-0.709,0.201-1.113,0.605-1.213,1.213c0,5.861,0,12.027,0,18.496c-0.102,1.314,0.303,2.021,1.213,2.123
					c0.404,0.101,1.516,0.201,3.335,0.303c-1.819-1.617-2.729-3.437-2.729-5.458C82.884,62.986,83.996,61.167,86.119,60.358z
					 M89.151,71.577c0.202,0.102,0.657,0.152,1.364,0.152c0.606,0.101,1.061,0.151,1.365,0.151c0.707-0.101,1.111-0.606,1.213-1.517
					c0-1.617,0-3.386,0-5.306c0.1-0.809-0.506-1.364-1.82-1.668c-1.516-0.404-2.628-0.304-3.335,0.304
					c-2.123,2.021-2.427,4.295-0.909,6.822C87.23,71.123,87.938,71.476,89.151,71.577z"/>
			</g>
		</g>
		<g i:knockout="Off">
			<path i:knockout="Off" fill-rule="evenodd" clip-rule="evenodd" fill="#1D8F38" d="M59.436,28.582l-0.002-0.001
				c0.038,0.026,3.816,2.739,3.218,6.092l1.083-0.906c-0.999-0.002-3.883-0.228-5.198-1.238c-1.357-1.045-2.64-3.821-3.019-4.803
				l-2.053,0.791c0.161,0.42,1.639,4.146,3.73,5.756c2.143,1.646,6.096,1.693,6.539,1.693h0.921l0.162-0.906
				c0.847-4.742-3.917-8.138-4.12-8.28L59.436,28.582z"/>
		</g>
		<g i:knockout="Off">
			<path i:knockout="Off" fill-rule="evenodd" clip-rule="evenodd" fill="#1D8F38" d="M50.291,42.896L50.291,42.896
				c3.222-0.077,12.292,0.24,15.526,2.597c3.606,2.63,2.464,8.258,2.451,8.314l0.909-0.857c-2.326,0.356-4.863,0.318-5.321-0.08
				c0,0,0.021,0.02,0.044,0.061c-0.174-0.315-0.306-1.068-0.434-1.795c-0.334-1.902-0.791-4.508-2.86-5.926
				c-2.226-1.527-6.82-1.65-11.021-1.57c-0.295,0.005-0.528,0.01-0.688,0.01h-2.304v2.199h2.304c0.181,0,0.424-0.004,0.73-0.01
				c1.927-0.037,7.791-0.148,9.735,1.186c1.307,0.896,1.642,2.806,1.938,4.491c0.174,0.987,0.323,1.84,0.673,2.476
				c1.012,1.84,5.158,1.5,7.539,1.133l0.748-0.115l0.16-0.739c0.062-0.288,1.465-7.075-3.307-10.554
				c-4.498-3.277-16.372-3.031-16.875-3.019L50.291,42.896z"/>
		</g>
		<g i:knockout="Off">
			<path i:knockout="Off" fill-rule="evenodd" clip-rule="evenodd" fill="#1D8F38" d="M48.804,44.496
				c-0.056,1.666-0.055,7.198,2.322,8.43c2.25,1.167,4.91,0.702,5.022,0.682l0.702-0.127l0.17-0.692
				c0.059-0.24,0.559-2.386,0.059-4.1c-0.563-1.935-2.949-4.428-3.219-4.706l-1.578,1.533v-0.001c0.873,0.9,2.375,2.727,2.686,3.79
				c0.283,0.973,0.035,2.467-0.084,2.96l0.872-0.822c-0.018,0.004-2.044,0.346-3.617-0.47c-0.693-0.359-1.234-3.411-1.136-6.403
				L48.804,44.496z"/>
		</g>
		<g i:knockout="Off">
			<path i:knockout="Off" fill-rule="evenodd" clip-rule="evenodd" fill="#1D8F38" d="M55.687,42.813
				c0.315-0.242,3.1-2.43,3.761-4.498c0.319-0.997,0.062-1.905-0.688-2.43c-1.179-0.823-3.137-0.379-4.275,0.506
				c-1.407,1.096-3.543,4.439-3.782,4.817l1.859,1.176l0,0c0.823-1.302,2.44-3.608,3.272-4.256c0.573-0.444,1.453-0.551,1.675-0.435
				c-0.057-0.029-0.123-0.136-0.125-0.199c0,0,0.001,0.047-0.032,0.15c-0.341,1.068-2.025,2.668-3.007,3.424L55.687,42.813z"/>
		</g>
		<g i:knockout="Off">
			<path i:knockout="Off" fill-rule="evenodd" clip-rule="evenodd" fill="#1D8F38" d="M31.383,39.304
				c-1.939,0.868-11.674,5.243-12.866,6.07l1.252,1.809c0.792-0.548,8.096-3.892,12.513-5.871L31.383,39.304z"/>
			<path i:knockout="Off" fill-rule="evenodd" clip-rule="evenodd" fill="#1D8F38" d="M33.191,43.022L33.191,43.022
				c-0.07,0.031-7.091,3.084-12.777,3.027l-0.021,2.199c6.166,0.062,13.38-3.079,13.684-3.213L33.191,43.022z"/>
		</g>
		<g i:knockout="Off">
			<path i:knockout="Off" fill-rule="evenodd" clip-rule="evenodd" fill="#1D8F38" d="M31.842,35.066
				c-0.398,0.134-9.816,3.343-15.347,9.487l1.635,1.471c5.138-5.707,14.319-8.842,14.412-8.872L31.842,35.066z"/>
		</g>
		<g i:knockout="Off">
			<path i:knockout="Off" fill-rule="evenodd" clip-rule="evenodd" fill="#1D8F38" d="M24.253,35.28
				c0.4-0.449,9.807-11.025,11.282-13.486c1.181-1.969,1.947-5.158,1.13-7.442c-0.464-1.296-1.385-2.222-2.662-2.679
				c-3.352-1.197-8.881-1.773-10.373,1.545l-0.058,0.127c-1.04,2.309-1.938,4.304,1.234,6.719c2.272,1.732,3.071,3.033,3.079,3.047
				l0.099-1.262c-0.374,0.452-9.181,11.121-11.818,14.957c-2.702,3.929-3.586,6.656-3.622,6.77l-0.294,0.924l0.878,0.408
				c0.085,0.039,8.542,3.972,12.199,5.859c3.248,1.676,3.967,6.664,3.417,8.412c-0.603,1.906,0.605,3.814,1.983,4.781
				c1.44,1.012,3.086,1.066,4.293,0.143c2.345-1.793,5.431-7.387,3.657-10.641c-1.256-2.299-3.683-4.313-7.215-5.987
				c-2.227-1.056-4.016-2.007-4.033-2.017l-1.035,1.941c0.074,0.039,1.85,0.984,4.127,2.063c3.059,1.45,5.212,3.197,6.225,5.054
				c1.05,1.924-1.206,6.419-3.062,7.838c-0.61,0.467-1.387,0.02-1.692-0.195c-0.864-0.605-1.369-1.625-1.149-2.318
				c0.801-2.542-0.063-8.737-4.505-11.029c-3.698-1.908-12.196-5.86-12.281-5.9l0.584,1.332c0.008-0.023,0.84-2.558,3.339-6.191
				c2.583-3.756,11.61-14.692,11.701-14.803l0.489-0.592l-0.387-0.662c-0.098-0.167-1.025-1.686-3.643-3.682
				c-1.781-1.356-1.595-1.77-0.562-4.065l0.058-0.128c0.708-1.573,4.588-1.461,7.627-0.375c0.654,0.233,1.09,0.675,1.331,1.348
				c0.56,1.565-0.041,4.062-0.945,5.57c-1.137,1.896-8.354,10.139-11.038,13.154L24.253,35.28z"/>
		</g>
		<g i:knockout="Off">
			<path i:knockout="Off" fill-rule="evenodd" clip-rule="evenodd" fill="#1D8F38" d="M30.044,31.364
				c-0.507,0.277-12.44,6.861-15.972,12.436l1.859,1.178c3.228-5.098,15.051-11.619,15.17-11.684L30.044,31.364z"/>
		</g>
		<g i:knockout="Off">
			<g i:knockout="Off">
				<path i:knockout="Off" fill-rule="evenodd" clip-rule="evenodd" fill="#D90000" d="M32.238,35.378
					c-0.102,0.152-2.468,3.779-0.699,7.995c1.043,2.49,3.954,2.194,5.348,1.689l-0.75-2.068l0.005-0.002
					c-0.021,0.008-2.076,0.717-2.573-0.469c-1.303-3.107,0.429-5.815,0.503-5.93l0.056-0.084c0.003-0.005,0.042-0.099,0.042-0.099
					L32.238,35.378z"/>
			</g>
			<g i:knockout="Off">
				<path i:knockout="Off" fill-rule="evenodd" clip-rule="evenodd" fill="#D90000" d="M36.253,39.037
					c-0.026,0.405,0.09,1.006,0.797,1.562c1.394,1.093,5.19,1.84,7.473,1.119c2.415-0.762,3.23-2.562,3.77-3.755
					c0.085-0.188,0.165-0.365,0.243-0.521c0.575-1.151-0.17-2.54-0.958-4.01c-0.325-0.606-0.87-1.62-0.86-1.949
					c0,0.001,0,0.009-0.003,0.022c0.108-0.598-0.128-1.164-0.648-1.554c-1.501-1.126-6.332-0.823-8.006,0.015
					c-1.97,0.983-2.957,2.785-2.998,2.861l-0.326,0.607l0.403,0.559C35.148,34.005,36.461,35.917,36.253,39.037z M37,33.87
					l-0.003,0.005c0.007-0.013,0.716-1.276,2.047-1.942c1.223-0.611,5.032-0.669,5.706-0.219c-0.093-0.062-0.252-0.311-0.199-0.602
					c-0.181,0.993,0.407,2.09,1.089,3.359c0.346,0.646,0.926,1.728,0.898,2.078c0,0,0.003-0.037,0.03-0.092
					c-0.097,0.193-0.189,0.399-0.279,0.598c-0.488,1.079-0.949,2.098-2.428,2.564c-1.718,0.542-5.014-0.236-5.503-0.797
					c0.027,0.031,0.104,0.165,0.091,0.358c0.264-3.95-1.453-6.376-1.526-6.478L37,33.87z"/>
			</g>
			<g i:knockout="Off">
				<path i:knockout="Off" fill-rule="evenodd" clip-rule="evenodd" fill="#D90000" d="M38.075,39.354
					c-1.717,1.479-4.358,5.513-2.071,10.197c1.251,2.562,3.735,3.719,6.482,3.02c2.771-0.705,5.488-3.347,5.325-7.031l-0.008-0.187
					l-0.069-0.174c-0.001-0.001-0.324-0.911,0.104-1.145c0.258-0.141,0.563-0.233,0.919-0.341c1.122-0.34,2.659-0.805,3.549-3.249
					c0.927-2.552-0.688-3.998-1.556-4.775c-0.214-0.19-0.535-0.479-0.593-0.601c0.055,0.119,0.022,0.351-0.062,0.452
					c0.052-0.062,0.253-0.21,0.399-0.318c0.573-0.423,1.439-1.062,1.97-2.274c0.923-2.11-0.073-4.142-2.732-5.573l-1.043,1.938
					c1.593,0.856,2.185,1.784,1.76,2.755c-0.294,0.672-0.785,1.034-1.26,1.385c-0.536,0.395-1.652,1.217-1.026,2.564
					c0.247,0.531,0.691,0.928,1.12,1.312c0.903,0.809,1.356,1.282,0.955,2.384c-0.513,1.409-1.151,1.603-2.118,1.896
					c-0.411,0.125-0.879,0.266-1.335,0.516c-1.722,0.938-1.469,2.957-1.094,3.893l-0.077-0.359c0.109,2.484-1.809,4.328-3.67,4.802
					c-0.818,0.208-2.842,0.444-3.964-1.853c-2.104-4.312,1.384-7.438,1.534-7.568L38.075,39.354z"/>
			</g>
			<g i:knockout="Off">
				<path i:knockout="Off" fill-rule="evenodd" clip-rule="evenodd" fill="#D90000" d="M50.972,24.612l-4.348,0.359l1.188,1.012
					c-0.044-0.568-0.521-5.576-3.774-6.195c-2.021-0.385-5.028,0.366-6.996,1.748c-1.325,0.931-2.133,2.093-2.334,3.36
					c-0.515,3.209,0.208,4.479,0.442,4.792l0.76-1.752c-1.496,0.166-6.376,0.926-6.376,3.732c0,2.394,1.679,4.909,3.522,5.279
					c1.418,0.283,3.624-0.311,3.871-0.38l-0.59-2.119l0.001-0.001c-0.739,0.205-2.167,0.479-2.851,0.342
					c-0.601-0.119-1.755-1.521-1.755-3.121c0-0.414,1.98-1.272,4.42-1.547l1.908-0.214l-1.149-1.538
					c0.036,0.052-0.408-0.776-0.032-3.127c0.135-0.842,0.85-1.502,1.427-1.906c1.661-1.167,4.055-1.629,5.319-1.387
					c1.272,0.241,1.893,2.937,1.993,4.204l0.088,1.101c0,0.001,1.1-0.09,1.1-0.09l4.348-0.361L50.972,24.612z"/>
			</g>
			<g i:knockout="Off">
				
					<rect x="45.538" y="27.175" i:knockout="Off" transform="matrix(-0.9995 0.0322 -0.0322 -0.9995 100.5829 54.9318)" fill-rule="evenodd" clip-rule="evenodd" fill="#D90000" width="8.623" height="2.2"/>
			</g>
		</g>
		<circle i:knockout="Off" fill-rule="evenodd" clip-rule="evenodd" fill="#D90000" cx="41.32" cy="33.25" r="1.429"/>
		<circle i:knockout="Off" fill-rule="evenodd" clip-rule="evenodd" fill="#D90000" cx="40.326" cy="35.982" r="1.429"/>
		<circle i:knockout="Off" fill-rule="evenodd" clip-rule="evenodd" fill="#D90000" cx="43.928" cy="35.05" r="1.429"/>
		<circle i:knockout="Off" fill-rule="evenodd" clip-rule="evenodd" fill="#D90000" cx="42.934" cy="38.093" r="1.429"/>
	</g>
</g>
</svg>
