<?xml version="1.0" encoding="utf-8"?>
<!-- Generator: Adobe Illustrator 12.0.0, SVG Export Plug-In . SVG Version: 6.00 Build 51448)  -->
<!DOCTYPE svg PUBLIC "-//W3C//DTD SVG 1.1//EN" "http://www.w3.org/Graphics/SVG/1.1/DTD/svg11.dtd" [
	<!ENTITY ns_flows "http://ns.adobe.com/Flows/1.0/">
	<!ENTITY ns_extend "http://ns.adobe.com/Extensibility/1.0/">
	<!ENTITY ns_ai "http://ns.adobe.com/AdobeIllustrator/10.0/">
	<!ENTITY ns_graphs "http://ns.adobe.com/Graphs/1.0/">
	<!ENTITY ns_vars "http://ns.adobe.com/Variables/1.0/">
	<!ENTITY ns_imrep "http://ns.adobe.com/ImageReplacement/1.0/">
	<!ENTITY ns_sfw "http://ns.adobe.com/SaveForWeb/1.0/">
	<!ENTITY ns_custom "http://ns.adobe.com/GenericCustomNamespace/1.0/">
	<!ENTITY ns_adobe_xpath "http://ns.adobe.com/XPath/1.0/">
	<!ENTITY ns_svg "http://www.w3.org/2000/svg">
	<!ENTITY ns_xlink "http://www.w3.org/1999/xlink">
]>
<svg  version="1.1"
	 xmlns:x="&ns_extend;" xmlns:i="&ns_ai;" xmlns:graph="&ns_graphs;" i:viewOrigin="-0.3208 113.645" i:rulerOrigin="0 0" i:pageBounds="0 113 108 0"
	 xmlns="&ns_svg;" xmlns:xlink="&ns_xlink;" xmlns:a="http://ns.adobe.com/AdobeSVGViewerExtensions/3.0/"
	 width="109.1" height="113.832" viewBox="0 0 109.1 113.832" overflow="visible" enable-background="new 0 0 109.1 113.832"
	 xml:space="preserve">
<metadata>
	<variableSets  xmlns="&ns_vars;">
		<variableSet  varSetName="binding1" locked="none">
			<variables></variables>
			<v:sampleDataSets  xmlns="&ns_custom;" xmlns:v="&ns_vars;"></v:sampleDataSets>
		</variableSet>
	</variableSets>
</metadata>
<g id="图层_1" i:layer="yes" i:dimmedPercent="50" i:rgbTrio="#4F008000FFFF">
	<g>
		
			<linearGradient id="XMLID_3_" gradientUnits="userSpaceOnUse" x1="935.4341" y1="81.0015" x2="1020.2271" y2="81.0015" gradientTransform="matrix(0 -1 1 0 -26.8223 1049.0791)">
			<stop  offset="0.1348" style="stop-color:#1889BC"/>
			<stop  offset="0.2247" style="stop-color:#C4E9F2"/>
			<a:midPointStop  offset="0.1348" style="stop-color:#1889BC"/>
			<a:midPointStop  offset="0.5" style="stop-color:#1889BC"/>
			<a:midPointStop  offset="0.2247" style="stop-color:#C4E9F2"/>
		</linearGradient>
		<path i:knockout="Off" fill="url(#XMLID_3_)" stroke="#000000" stroke-width="0.3739" d="M100.038,28.852c4.418,0,8,3.42,8,7.638
			v69.518c0,4.218-3.582,7.638-8,7.638H8.321c-4.418,0-8-3.42-8-7.638V36.49c0-4.218,3.582-7.638,8-7.638H100.038z"/>
		<path i:knockout="Off" fill="#FFFFFF" stroke="#000000" stroke-width="0.6414" d="M8.377,85.36c-4.449,0-8.057-3.43-8.057-7.66
			V7.98c0-4.23,3.607-7.659,8.057-7.659h92.348c4.447,0,8.055,3.429,8.055,7.659V77.7c0,4.23-3.607,7.66-8.055,7.66H8.377z"/>
		
			<linearGradient id="XMLID_4_" gradientUnits="userSpaceOnUse" x1="-229.9092" y1="-254.2622" x2="-144.8701" y2="-254.2622" gradientTransform="matrix(0 1 -1 0 -199.7119 230.23)">
			<stop  offset="0" style="stop-color:#A3DDEA"/>
			<stop  offset="0.0899" style="stop-color:#0678B3"/>
			<stop  offset="0.2135" style="stop-color:#094C91"/>
			<stop  offset="0.6404" style="stop-color:#2890C0"/>
			<stop  offset="0.8034" style="stop-color:#82D0E3"/>
			<stop  offset="1" style="stop-color:#09468C"/>
			<a:midPointStop  offset="0" style="stop-color:#A3DDEA"/>
			<a:midPointStop  offset="0.5" style="stop-color:#A3DDEA"/>
			<a:midPointStop  offset="0.0899" style="stop-color:#0678B3"/>
			<a:midPointStop  offset="0.5" style="stop-color:#0678B3"/>
			<a:midPointStop  offset="0.2135" style="stop-color:#094C91"/>
			<a:midPointStop  offset="0.5" style="stop-color:#094C91"/>
			<a:midPointStop  offset="0.6404" style="stop-color:#2890C0"/>
			<a:midPointStop  offset="0.5" style="stop-color:#2890C0"/>
			<a:midPointStop  offset="0.8034" style="stop-color:#82D0E3"/>
			<a:midPointStop  offset="0.5" style="stop-color:#82D0E3"/>
			<a:midPointStop  offset="1" style="stop-color:#09468C"/>
		</linearGradient>
		<path i:knockout="Off" opacity="0.1" fill="url(#XMLID_4_)" stroke="#000000" stroke-width="0.6414" d="M8.377,85.36
			c-4.449,0-8.057-3.43-8.057-7.66V7.98c0-4.23,3.607-7.659,8.057-7.659h92.348c4.449,0,8.055,3.429,8.055,7.659V77.7
			c0,4.23-3.605,7.66-8.055,7.66H8.377z"/>
		<g i:knockout="Off">
			<path i:knockout="Off" fill="#D90000" d="M76.565,25.691c-2.195-0.191-3.246,0.62-3.15,2.434c0,1.432-0.381,2.148-1.145,2.148
				s-1.146-0.573-1.146-1.719V17.241c0-1.24,0.383-1.861,1.146-1.861c0.668-0.096,1.049,0.668,1.145,2.291
				c0.096,1.146,0.334,1.861,0.717,2.148c0.381,0.287,1.193,0.43,2.434,0.43H91.17c1.24,0,2.004-0.143,2.291-0.43
				c0.286-0.287,0.43-1.098,0.43-2.434v-1.146c0-1.145,0.334-1.717,1.002-1.717s1.098,0.668,1.289,2.004
				c0.19,1.719,0.811,3.531,1.861,5.441c0.572,1.049,0.859,1.812,0.859,2.291c0,1.05-0.717,1.527-2.148,1.433H76.565z"/>
		</g>
		<g>
			<path i:knockout="Off" fill="#1D8F38" d="M99.312,43.767c0,0-2.501,4.311-7.678,6.568c-3.355,1.465-10.562,0.943-10.562,0.943
				s2.953,1.848,3.097,3.144s-0.72,1.656-1.944,0.864c-1.224-0.792-2.951-4.104-2.951-4.104l-2.521-1.08
				c0,0,1.872,2.088,1.872,3.527s-2.016,3.24-4.536,2.664s-3.744-3.312-3.744-4.464s0.576-2.017,1.584-1.8
				c1.009,0.216,0,2.16,0.792,3.455c0.792,1.297,2.809,1.08,3.744,0.576s0-1.728-0.576-2.375c-0.576-0.648-0.863-1.584-0.863-1.584
				s-4.681-2.592-6.984-3.744c-2.305-1.152-7.057-3.168-8.712-3.385c-1.656-0.216-2.231,3.672-0.937,4.969
				c1.297,1.296,3.24,0.359,3.24-0.648s0.36-2.016,1.439-1.872c1.08,0.144,1.656,2.089,0.505,3.816
				c-1.152,1.728-4.177,1.655-5.976,0.72c-1.801-0.936-3.889-5.4-0.504-7.344c0,0-4.537-0.217-5.473-0.36s-1.296-1.08-1.152-1.8
				c0.145-0.721,2.664-1.296,3.672-1.296c0,0,2.521-1.009,2.16-3.815c-0.359-2.809-4.176-1.585-3.527-0.217
				c0.647,1.368,0.576,2.736,0.504,3.385c-0.072,0.647-2.088,0.432-2.232,0c-0.145-0.433-1.296-4.177,0.432-5.832
				c1.729-1.656,5.041-1.801,6.408,0.432c1.368,2.232-0.576,5.4-1.943,6.552c0,0,6.912,0.647,10.584,3.312c0,0,4.031-2.16,4.463-3.6
				c0.433-1.439-2.735-0.936-3.383-0.288c-0.648,0.647-0.957,1.163-1.029,1.738c-0.072,0.576-0.318,1.193-0.987,1.142
				c-0.669-0.051-1.749-1.028-0.926-2.88c0.823-1.851,2.571-3.446,5.503-3.085c2.932,0.359,3.137,3.702,2.417,4.885
				c-0.72,1.184-2.931,3.138-3.908,3.549c0,0,6.12,2.828,9.154,3.6s3.6,0.515,3.6,0.515s1.491-2.108,1.132-3.188
				c-0.36-1.08-1.902,0.205-2.264,0.566c-0.359,0.359-0.925,1.49-1.542,1.49s-1.543-0.719-1.028-1.902
				c0.514-1.184,2.725-3.034,5.297-2.417c2.571,0.617,1.852,3.085,1.543,3.702s-0.978,2.006-0.978,2.006s10.595-1.285,14.04-5.297
				C97.632,43.509,98.849,42.841,99.312,43.767z"/>
			<path i:knockout="Off" fill="#1D8F38" d="M64.441,33.615c1.151,0.144,0.287,2.376-0.072,3.312
				c-0.36,0.936-0.721,1.871-1.44,1.799s-2.663-1.512-2.376-2.375C60.84,35.486,63.289,33.47,64.441,33.615z"/>
			<path i:knockout="Off" fill="#1D8F38" d="M79.427,40.681c0.576,0.512,0.051,1.389-0.566,2.057
				c-0.617,0.669-2.674,2.365-3.96,2.16s-1.543-1.902-0.978-2.726C74.49,41.349,78.039,39.447,79.427,40.681z"/>
			<path i:knockout="Off" fill="#1D8F38" d="M65.798,46.904c0.565,0.463,2.726,3.497,2.828,4.629
				c0.104,1.131-1.389,1.697-2.006,1.594c-0.617-0.103-2.006-4.423-1.852-5.4C64.923,46.75,65.232,46.441,65.798,46.904z"/>
			<path i:knockout="Off" fill="#1D8F38" d="M35.651,27.718c0,0-1.02-0.871-0.299-2.023c0.719-1.153,2.088-1.872,3.023-1.44
				c0.937,0.432,2.593,1.872,2.521,2.736s-0.72,2.592-1.728,3.6c-1.008,1.009-2.881,1.656-4.682,1.296
				c-1.798-0.359-2.591-2.447-2.591-2.447s-1.871,2.664-3.744,4.68c-1.871,2.016-7.486,5.615-8.062,6.768s-0.648,3.528-0.648,3.528
				s1.871-1.296,2.52-2.231c0.648-0.937,2.305-2.305,2.664-2.305s1.225,1.801,1.225,1.801s-4.104,2.879-4.824,3.815
				s-1.943,3.815-2.305,5.04c-0.359,1.224-0.863,2.88-0.863,2.88s2.305-2.304,2.879-3.456c0.576-1.152,1.873-4.32,2.953-5.184
				c1.08-0.864,2.088-1.44,2.088-1.44l1.152,1.584c0,0-2.16,2.376-2.809,3.601c-0.648,1.224-0.936,2.016-1.439,2.808
				s-2.809,2.592-2.809,2.592s0.863,0.36,1.943-0.216s2.16-1.152,2.953-0.936c0.791,0.215,3.312,1.943,3.312,1.943l0.143,1.584
				l-1.727-0.359c0,0,2.52,1.943,3.096,3.815s-0.938,4.177-2.953,4.752c-2.016,0.576-5.975-0.216-6.047-3.239
				c-0.072-3.024,2.879-5.185,2.879-5.185l0.504,1.151c0,0-1.008,2.449-0.215,4.248c0.791,1.801,3.816,0.217,3.816-0.791
				s-2.232-4.176-2.953-4.752l-1.729-0.289l-3.527,0.865c0,0-2.088,2.016-3.385,4.104c-1.295,2.088-2.088,3.6-2.375,4.248
				c-0.289,0.648-0.072,1.584,0.072,1.871c0.143,0.289-0.721,1.584-1.369,1.729c-0.646,0.145-2.375-1.439-2.52-1.872
				c-0.145-0.432,6.121-11.088,6.121-11.088s-0.145-4.248,0.287-5.112c0.432-0.863,1.584-2.808,1.584-2.808
				s-0.648-2.304-0.648-3.815c0-1.513,1.08-5.545,2.305-6.553s4.32-2.447,4.32-2.447s3.744-2.521,4.752-4.104s2.16-3.384,2.52-3.672
				s1.225-1.945,1.225-2.664c0-0.721,0.646-2.305,1.439-2.305c0.79,0,2.159-0.359,2.808-1.369c0.646-1.008,1.439-1.727,2.088-1.727
				c0.647,0,1.944,0.863,1.944,0.863l-5.978,5.041c0,0-0.359,1.224-1.294,2.304c0,0-0.072,1.152,0.647,1.872
				c0.719,0.72,3.238,0.433,3.814-0.647s-0.646-2.088-0.936-1.584C36.504,27.279,35.651,27.718,35.651,27.718z"/>
			<path i:knockout="Off" fill="#1D8F38" d="M33.048,19.43c0.864-0.145,1.224-0.648,2.015-0.145
				c0.793,0.504,0.217,2.016-0.936,2.232c-1.151,0.215-4.679-0.072-5.976-2.016c-1.295-1.945-0.287-3.529,0.793-4.105
				c1.08-0.574,3.959,0.361,4.68,0.361c0.72,0,3.095,0.576,3.815-1.008s-0.289-1.801-1.225-1.729s-1.008,1.225-2.375,1.584
				c-1.368,0.359-2.231-0.863-2.952-1.873c-0.719-1.008-1.295-1.871-0.719-2.592c0.576-0.719,1.367-0.143,2.016,0.576
				c0.648,0.721,0.936,1.584,1.655,1.584c0.719,0,1.223-1.727,2.23-1.871c1.01-0.145,3.241,1.223,3.817,2.879
				s-1.008,3.961-2.089,4.248c-1.08,0.289-2.879,0.504-4.606,0.217c-1.729-0.289-3.096-0.863-3.096,0.217
				C30.097,19.069,32.185,19.575,33.048,19.43z"/>
			<path i:knockout="Off" fill="#1D8F38" d="M29.808,27.495c0,0,1.008-2.017,0.361-4.178c-0.648-2.158-2.285-0.996-2.736-0.215
				c-1.08,1.871,0.145,4.464,0.719,5.112C28.728,28.863,29.808,27.495,29.808,27.495z"/>
			<path i:knockout="Off" fill="#1D8F38" d="M25.921,31.958c0,0-0.072-3.527-0.793-4.68c-0.719-1.152-2.664-1.225-3.959-0.36
				c-1.297,0.864-2.881,2.593-2.16,4.608c0.719,2.016,2.879,3.744,3.455,3.6s1.225-1.08,0.576-1.872s-2.16-2.159-2.016-2.88
				s1.512-1.8,2.447-1.296c0.938,0.504,0.793,2.304,1.225,2.88S25.921,32.966,25.921,31.958z"/>
			<path i:knockout="Off" fill="#1D8F38" d="M35.28,58.958c0,0,1.225,1.296,1.439,2.016c0.217,0.721,0.504,1.873,1.08,2.377
				s2.665-0.289,3.024-1.297c0.361-1.008,0-2.808-1.151-2.231c-1.152,0.575-2.232,1.512-2.377,1.079
				c-0.145-0.432-0.297-1.279-0.215-1.728c0.143-0.792,1.584-1.224,3.815-1.224c2.232,0,2.953,2.664,2.736,3.023
				c-0.216,0.36-1.512,3.961-4.824,4.176c0,0-1.872,1.152-2.448,1.729c0,0-2.016,0.217-2.447,0.721
				c-0.433,0.504-1.224,1.943,0.07,2.52c1.297,0.576,2.16-0.361,2.16-0.361s0.576,1.586-0.143,2.449
				c-0.721,0.863-4.751-0.721-4.896-2.809s1.512-4.031,2.878-4.319c1.369-0.288,2.881-0.72,2.881-0.72s-1.297-1.297-2.232-2.305
				c-0.935-1.008-1.222-1.584-0.935-2.231C33.983,59.174,35.28,58.958,35.28,58.958z"/>
			<path i:knockout="Off" fill="#1D8F38" d="M40.824,66.663c0,0,2.232,0.071,2.232,1.224s-1.224,2.52-1.943,2.088
				c-0.721-0.432-1.656-0.791-1.656-0.791s0,2.16-0.217,3.814c-0.215,1.656-0.937,3.816-2.159,3.744
				c-1.225-0.072-1.656-0.863-1.08-1.512s1.799-2.664,1.727-3.6s-0.576-0.217-0.719-1.439c-0.145-1.225-0.289-2.018,0.215-2.377
				s1.152,0.289,1.441-0.287C39.246,66.366,40.824,66.663,40.824,66.663z"/>
			<path i:knockout="Off" fill="#1D8F38" d="M32.472,61.046c0,0,0.432,1.008-0.072,2.664s-1.295,2.736-2.016,1.943
				c-0.719-0.791,0.361-2.879,0.432-3.383C30.888,61.767,32.472,61.046,32.472,61.046z"/>
		</g>
		<path i:knockout="Off" fill="#D90000" d="M39.67,57.255c0.475,0,0.925-0.045,1.336-0.104c1.254-0.182,2.976-0.996,4.044-2.738
			c0.624-1.02,1.165-2.69,0.643-5.012c3.128-1.175,5.142-3.049,5.343-5.203c0.314-3.366-1.692-5.037-5.222-6.633
			c-0.024-0.156-0.053-0.334-0.053-0.334l-0.524-2.996c-0.343-1.518-1.525-2.76-3.087-3.243c-0.475-0.146-0.96-0.218-1.445-0.218
			c-1.305,0-2.604,0.519-3.657,1.497c-0.943,0.876-1.588,1.66-1.996,2.366c-1.462-0.48-2.905-0.865-4.081-0.865
			c-0.105,0-0.211,0.002-0.312,0.01c-3.025,0.191-5.291,2.213-5.637,5.029c-0.217,1.765,0.447,3.806,1.908,6.057
			c-2.729,4.061-1.768,7.053-0.883,8.505c0.633,1.036,1.969,1.837,3.486,2.088c0.352,0.059,0.705,0.087,1.059,0.087
			c1.305,0,2.58-0.5,3.782-1.252C36.073,56.613,38.016,57.255,39.67,57.255z M35.616,52.305l-0.654-1.128l-1.002,0.836
			c-1.698,1.416-3.276,1.408-4.067,1.277c-1.008-0.166-1.725-0.668-1.967-1.062c-0.785-1.288-1.217-3.494,1.188-6.689l0.482-0.641
			l-0.463-0.655c-1.447-2.052-2.096-3.789-1.928-5.163c0.215-1.759,1.625-2.977,3.592-3.102c1.094-0.07,2.979,0.531,4.501,1.063
			l1.307,0.456l0.15-1.375c0.027-0.247,0.537-1.074,1.791-2.239c0.874-0.812,1.951-1.099,2.954-0.789
			c0.824,0.255,1.419,0.862,1.591,1.625l0.497,2.853l0.237,1.503l0.558,0.237c4.395,1.887,4.617,3.027,4.463,4.682
			c-0.101,1.076-1.41,2.689-4.771,3.693l-1.094,0.326l0.367,1.082c0.564,1.656,0.506,3.059-0.174,4.168
			c-0.629,1.025-1.699,1.598-2.482,1.711C39.001,55.218,37.215,55.062,35.616,52.305z"/>
		<path i:knockout="Off" fill="#D90000" d="M40.726,51.049c1.188-0.772,1.486-2.493,1.583-3.547
			c0.844-0.499,2.129-1.403,2.466-2.649l3.08-0.229l-0.164-2.194l-3.41,0.255c-0.643-0.804-1.67-1.333-2.388-1.642
			c-0.176-0.789-0.524-1.947-1.246-2.729l1.063-2.59l-2.035-0.836l-1.081,2.629c-1.25,0.145-2.334,1.197-2.969,1.918
			c-0.26-0.023-0.555-0.042-0.875-0.042c-0.629,0-1.331,0.077-1.95,0.323l-2.402-1.91l-1.369,1.721l2.256,1.797
			c-0.344,1.265,0.359,2.721,0.871,3.588c-0.314,0.736-0.693,1.855-0.59,2.892l-2.252,1.608l1.279,1.79l2.127-1.521
			c0.543,0.316,1.19,0.434,1.827,0.434c0.67,0,1.256-0.111,1.742-0.222c0.535,0.472,1.344,1.099,2.24,1.386l0.043,2.288l2.199-0.041
			L40.726,51.049z M34.649,44.752l-0.326-0.511c-1.177-1.848-0.915-2.364-0.911-2.369c0.002-0.004,0.356-0.462,2.53-0.189
			l0.602,0.076l0.385-0.469c1.393-1.69,1.965-1.602,1.971-1.6c0.005,0.001,0.551,0.197,0.963,2.349l0.114,0.595l0.563,0.222
			c2.038,0.802,2.131,1.374,2.131,1.38s-0.018,0.584-1.937,1.642l-0.53,0.292l-0.037,0.604c-0.133,2.187-0.648,2.451-0.653,2.454
			c-0.005,0.002-0.562,0.162-2.159-1.336l-0.443-0.414l-0.586,0.152c-2.121,0.549-2.531,0.141-2.535,0.137s-0.327-0.483,0.602-2.467
			L34.649,44.752z"/>
		<path i:knockout="Off" fill="#D90000" d="M57.333,60.927c0-2.262-1.826-4.101-4.07-4.101s-4.07,1.839-4.07,4.101
			c0,2.26,1.826,4.1,4.07,4.1S57.333,63.187,57.333,60.927z M51.393,60.927c0-1.049,0.839-1.9,1.87-1.9s1.869,0.852,1.869,1.9
			c0,1.047-0.838,1.899-1.869,1.899S51.393,61.974,51.393,60.927z"/>
		<path i:knockout="Off" fill="#D90000" d="M52.113,23.545c0-2.26-1.893-4.1-4.22-4.1s-4.221,1.84-4.221,4.1
			c0,2.262,1.894,4.101,4.221,4.101S52.113,25.807,52.113,23.545z M45.873,23.545c0-1.047,0.906-1.9,2.021-1.9
			c1.113,0,2.02,0.854,2.02,1.9c0,1.049-0.906,1.901-2.02,1.901C46.779,25.447,45.873,24.594,45.873,23.545z"/>
		<path i:knockout="Off" fill-rule="evenodd" clip-rule="evenodd" fill="#D90000" d="M33.146,55.189c0,0,0.412,0.939,0.529,1.703
			c0.116,0.763,0.997,1.584,0.997,1.584l-2.935,0.939c0,0-0.939-1.35-1.76-1.761c-0.822-0.411-1.938-0.938-1.938-0.938l-0.529-1.645
			C27.511,55.072,30.74,56.187,33.146,55.189z"/>
	</g>
</g>
</svg>
