<?xml version="1.0" encoding="utf-8"?>
<!-- Generator: Adobe Illustrator 12.0.0, SVG Export Plug-In . SVG Version: 6.00 Build 51448)  -->
<!DOCTYPE svg PUBLIC "-//W3C//DTD SVG 1.1//EN" "http://www.w3.org/Graphics/SVG/1.1/DTD/svg11.dtd" [
	<!ENTITY ns_flows "http://ns.adobe.com/Flows/1.0/">
	<!ENTITY ns_extend "http://ns.adobe.com/Extensibility/1.0/">
	<!ENTITY ns_ai "http://ns.adobe.com/AdobeIllustrator/10.0/">
	<!ENTITY ns_graphs "http://ns.adobe.com/Graphs/1.0/">
	<!ENTITY ns_vars "http://ns.adobe.com/Variables/1.0/">
	<!ENTITY ns_imrep "http://ns.adobe.com/ImageReplacement/1.0/">
	<!ENTITY ns_sfw "http://ns.adobe.com/SaveForWeb/1.0/">
	<!ENTITY ns_custom "http://ns.adobe.com/GenericCustomNamespace/1.0/">
	<!ENTITY ns_adobe_xpath "http://ns.adobe.com/XPath/1.0/">
	<!ENTITY ns_svg "http://www.w3.org/2000/svg">
	<!ENTITY ns_xlink "http://www.w3.org/1999/xlink">
]>
<svg  version="1.1"
	 xmlns:x="&ns_extend;" xmlns:i="&ns_ai;" xmlns:graph="&ns_graphs;" i:viewOrigin="-0.3208 113.645" i:rulerOrigin="0 0" i:pageBounds="0 113 108 0"
	 xmlns="&ns_svg;" xmlns:xlink="&ns_xlink;" xmlns:a="http://ns.adobe.com/AdobeSVGViewerExtensions/3.0/"
	 width="109.1" height="113.832" viewBox="0 0 109.1 113.832" overflow="visible" enable-background="new 0 0 109.1 113.832"
	 xml:space="preserve">
<metadata>
	<variableSets  xmlns="&ns_vars;">
		<variableSet  varSetName="binding1" locked="none">
			<variables></variables>
			<v:sampleDataSets  xmlns="&ns_custom;" xmlns:v="&ns_vars;"></v:sampleDataSets>
		</variableSet>
	</variableSets>
</metadata>
<g id="图层_1" i:layer="yes" i:dimmedPercent="50" i:rgbTrio="#4F008000FFFF">
	<g>
		
			<linearGradient id="XMLID_3_" gradientUnits="userSpaceOnUse" x1="935.4341" y1="81.0015" x2="1020.2271" y2="81.0015" gradientTransform="matrix(0 -1 1 0 -26.8223 1049.0791)">
			<stop  offset="0.1348" style="stop-color:#1889BC"/>
			<stop  offset="0.2247" style="stop-color:#C4E9F2"/>
			<a:midPointStop  offset="0.1348" style="stop-color:#1889BC"/>
			<a:midPointStop  offset="0.5" style="stop-color:#1889BC"/>
			<a:midPointStop  offset="0.2247" style="stop-color:#C4E9F2"/>
		</linearGradient>
		<path i:knockout="Off" fill="url(#XMLID_3_)" stroke="#000000" stroke-width="0.3739" d="M100.037,28.852
			c4.418,0,8.001,3.42,8.001,7.638v69.518c0,4.218-3.583,7.638-8.001,7.638H8.321c-4.418,0-8-3.42-8-7.638V36.49
			c0-4.218,3.582-7.638,8-7.638H100.037z"/>
		<path i:knockout="Off" fill="#FFFFFF" stroke="#000000" stroke-width="0.6414" d="M8.377,85.36c-4.449,0-8.057-3.43-8.057-7.66
			V7.98c0-4.23,3.607-7.659,8.057-7.659h92.348c4.447,0,8.055,3.429,8.055,7.659V77.7c0,4.23-3.607,7.66-8.055,7.66H8.377z"/>
		
			<linearGradient id="XMLID_4_" gradientUnits="userSpaceOnUse" x1="-229.9092" y1="-254.2622" x2="-144.8701" y2="-254.2622" gradientTransform="matrix(0 1 -1 0 -199.7119 230.23)">
			<stop  offset="0" style="stop-color:#A3DDEA"/>
			<stop  offset="0.0899" style="stop-color:#0678B3"/>
			<stop  offset="0.2135" style="stop-color:#094C91"/>
			<stop  offset="0.6404" style="stop-color:#2890C0"/>
			<stop  offset="0.8034" style="stop-color:#82D0E3"/>
			<stop  offset="1" style="stop-color:#09468C"/>
			<a:midPointStop  offset="0" style="stop-color:#A3DDEA"/>
			<a:midPointStop  offset="0.5" style="stop-color:#A3DDEA"/>
			<a:midPointStop  offset="0.0899" style="stop-color:#0678B3"/>
			<a:midPointStop  offset="0.5" style="stop-color:#0678B3"/>
			<a:midPointStop  offset="0.2135" style="stop-color:#094C91"/>
			<a:midPointStop  offset="0.5" style="stop-color:#094C91"/>
			<a:midPointStop  offset="0.6404" style="stop-color:#2890C0"/>
			<a:midPointStop  offset="0.5" style="stop-color:#2890C0"/>
			<a:midPointStop  offset="0.8034" style="stop-color:#82D0E3"/>
			<a:midPointStop  offset="0.5" style="stop-color:#82D0E3"/>
			<a:midPointStop  offset="1" style="stop-color:#09468C"/>
		</linearGradient>
		<path i:knockout="Off" opacity="0.1" fill="url(#XMLID_4_)" stroke="#000000" stroke-width="0.6414" d="M8.377,85.36
			c-4.449,0-8.057-3.43-8.057-7.66V7.98c0-4.23,3.607-7.659,8.057-7.659h92.348c4.448,0,8.055,3.429,8.055,7.659V77.7
			c0,4.23-3.606,7.66-8.055,7.66H8.377z"/>
		<g i:knockout="Off">
			<path i:knockout="Off" fill="#D90000" d="M74.8,25.592c0,1.146,0.524,2.34,1.574,3.58c0.572,0.668,0.859,1.193,0.859,1.575
				c-0.096,0.478-0.382,0.764-0.859,0.859c-0.191,0-0.477-0.096-0.859-0.286c-0.954-0.383-1.957-0.669-3.006-0.859
				c-1.051-0.191-1.576-0.812-1.576-1.861V13.422c0-1.051,0.383-1.576,1.146-1.576c1.718,0,4.678,2.101,8.877,6.301
				c3.818,4.296,7.446,6.777,10.883,7.445c2.673-0.19,4.104-1.574,4.295-4.152c-0.381-2.768-1.67-4.295-3.865-4.582
				c-0.479,0-0.955,0.191-1.432,0.573c-0.479,0.286-0.907,0.43-1.289,0.43c-0.955-0.096-1.48-0.907-1.575-2.435
				c0.095-1.813,1.146-2.768,3.149-2.863c4.392,0.572,6.778,3.818,7.16,9.736c-0.191,5.537-2.482,8.496-6.873,8.878
				c-3.818-0.478-7.207-2.769-10.166-6.873c-2.674-3.055-4.821-5.107-6.443-6.157V25.592z"/>
		</g>
		<g>
			<path i:knockout="Off" fill="#1D8F38" d="M99.145,41.625c0,1.368-2.068,7.485-16.02,11.34c-9.12,2.521-24.36-6-30.96-8.28
				c-3.313-1.145-9.646-3.543-18.121-3.736c-8.402-0.192-18.959,1.816-18.959,1.816l2.279-2.039c0,0,15.721-2.221,23.341-1.74
				c0,0,0.36-1.5,1.26-1.5c0.427,0,6.413-1.143,9.818-3.607c3.785-2.74,5.002-6.833,5.002-6.833s1.439-0.36,1.26,1.62
				c-0.106,1.172-0.726,4.377-4.791,7.094c-2.807,1.875-10.209,3.467-10.209,3.467l-0.72,0.479c0,0,1.2-0.06,1.92,0.3s1.5,0,1.5,0
				s0.36-0.84,1.02-1.02c0.232-0.063,7.44-1.408,9.608-3.592c3.993-4.023,3.892-9.488,3.892-9.488s0.301-0.66,1.08,0.18
				c0.411,0.442,1.627,5.914-3.033,11.246c-3.252,3.722-11.547,3.814-11.547,3.814s4.08,0.84,7.38,1.56
				c3.301,0.72,9.54,4.44,16.74,6.18c7.2,1.74,17.16,0.96,24.36-4.8c1.723-1.379,1.979-3.3,2.76-3.3S99.145,41.145,99.145,41.625z"
				/>
			<path i:knockout="Off" fill="#1D8F38" d="M62.696,59.684c0,0-0.811-0.09-0.9-2.07c-0.027-0.613-2.24-4.466-5.304-7.391
				c-1.895-1.809-5.227-3.318-5.227-3.318s6.477,4.291,8.859,10.064c1.953,4.733-0.669,10.097-0.669,10.097s-0.72,0.449-0.54-1.621
				c0.093-1.066,0.708-12.224-10.04-17.7c-14.878-7.58-32.351-3.18-32.351-3.18l-0.9-1.44c0,0,17.67-4.237,34.551,1.649
				C65.644,50.169,62.696,59.684,62.696,59.684z"/>
			<path i:knockout="Off" fill="#1D8F38" d="M53.335,12.884c1.62,1.171,2.79,5.94,2.97,9.9c0.181,3.96-2.25,10.8-15.12,14.22
				c-4.457,1.185-24.84,3.15-24.84,3.15l-3.51,2.88c0,0,1.588,0.884,2.596,1.445c1.863,1.038,3.703,2.064,3.703,2.064l-0.629,2.431
				c0,0-2.074-1.539-4.213-2.732c-1.674-0.936-4.338-2.309-4.338-2.309l4.68-6.119c0,0,6.102-0.607,10.736-2.752
				c3.725-1.724,6.184-5.078,6.184-5.078l1.801,1.439c0,0-1.326,1.728-2.828,3.107c-1.211,1.111-2.662,1.933-2.662,1.933
				s19.711-1.89,23.671-9.63c1.191-2.329,3.06-7.561,0.72-12.51C52.255,14.325,52.166,12.794,53.335,12.884z"/>
		</g>
		<g i:knockout="Off">
			<path i:knockout="Off" fill-rule="evenodd" clip-rule="evenodd" fill="#1D8F38" d="M44.605,74.447c0,0,10.98-4.32,10.71-12.691
				c-0.07-2.187-2.833-10.315-13.396-14.382c-2.733-1.051-11.112-1.871-11.112-1.871l2.002,2.861l-1.805,0.822l-2.738-3.729
				l-9.49-0.172l-0.721-0.811c0,0,24.931-3.33,35.551,7.381c2.778,2.801,10.08,14.851-3.96,21.96
				C46.627,75.343,44.605,74.447,44.605,74.447z"/>
		</g>
		<path i:knockout="Off" fill="#D90000" d="M42.371,31.703c0-1.488-1.339-1.958-2.066-2.104c-0.311-0.062-0.655-0.437-0.886-0.783
			c0.435-1.34,0.625-3.485,0.197-4.941c-0.287-0.977-1.288-1.656-2.743-1.865c-1.244-0.179-2.953,0.008-3.67,1.123
			c-0.391,0.609-0.523,1.245-0.578,1.813c-0.412-0.078-0.877-0.151-1.447-0.233l-1.748-0.296c-1.385-0.347-2.893,0.238-3.59,0.732
			c0,0-1.607,0.352-1.973,1.021c-0.363,0.669,0.266,1.37,1.154,1.606c0.447,0.119,1.164,0.155,2.025-0.351l0.916-0.602
			c0.527-0.374,0.527-0.374,0.934-0.273c0,0.001,1.971,0.34,1.971,0.34c0.391,0.057,0.939,0.135,1.375,0.217
			c-0.27,1.012-0.344,2.235-0.357,2.527l-0.521,0.597l1.861,1.359c0,0,0.666-0.728,1.906-1.396c0.15-0.072,1.045-0.027,1.365,0
			c0.326,0.027,0.766,0.061,1.207,0.008c0.426,0.593,0.846,1.716,1.866,1.919c0.267,0.054,1.262,0.788,1.92,0.664
			C42.09,32.673,42.371,31.703,42.371,31.703z M34.501,27.274c0.238-0.478,0.256-1.006,0.273-1.518
			c0.016-0.518,0.033-1.054,0.279-1.435c0.068-0.054,0.441-0.173,0.98-0.173c0.115,0,0.24,0.006,0.369,0.019
			c0.68,0.068,1.055,0.286,1.121,0.376c0.256,0.889,0.117,2.507-0.182,3.492c-0.016,0.001-0.021,0.004-0.039,0.004
			c-0.186,0-0.438-0.021-0.625-0.037c-0.27-0.022-0.553-0.047-0.84-0.047c-0.471,0-0.949,0.064-1.393,0.303
			c-0.074,0.041-0.141,0.043-0.215,0.074C34.302,27.896,34.392,27.494,34.501,27.274z"/>
		<path i:knockout="Off" fill="#D90000" d="M38.023,57.084c0,0,0.467-1.847,0.431-2.313c2.8-0.268,4.465-1.509,4.951-1.935
			s0.145-1.127-0.287-1.685c-0.501-0.646-1.59-0.736-1.59-0.736c-2.277,1.101-1.817,1.583-3.423,2.453
			c-0.549-0.887-1.307-1.536-2.137-1.78c-0.686-0.201-1.945-1.361-2.621-2.121l-0.754-0.845l-1.736,1.142
			c-0.152,0.146-0.605,1.082-1.131,2.047c-0.254,0.466-0.551,1.057-0.775,1.708c-0.547,0.042-1.086,0.071-1.561,0.071
			c-0.727,0-1.469-0.234-1.699-0.331c-1.656-2.295-2.707-2.032-3.256-1.181c-0.547,0.852-0.279,2.041,1.82,2.856
			c0.328,0.128,0.855,1.053,4.361,0.824c0.156,1.754,1.375,4.815,4.1,5.438C36.195,61.492,38.023,57.084,38.023,57.084z
			 M33.25,58.562c-1.838-0.459-2.451-3.021-2.451-3.669c0-0.954,0.646-2.14,0.859-2.528c0.154-0.286,0.506-0.703,0.869-1.097
			c0.742,0.718,1.818,1.636,2.82,1.931c0.279,0.082,0.697,0.42,1,0.989c0.273,0.51,0.367,1.063,0.248,1.443
			C36.3,56.564,34.96,58.99,33.25,58.562z"/>
	</g>
</g>
</svg>
