<?xml version="1.0" encoding="utf-8"?>
<!-- Generator: Adobe Illustrator 12.0.0, SVG Export Plug-In . SVG Version: 6.00 Build 51448)  -->
<!DOCTYPE svg PUBLIC "-//W3C//DTD SVG 1.1//EN" "http://www.w3.org/Graphics/SVG/1.1/DTD/svg11.dtd" [
	<!ENTITY ns_flows "http://ns.adobe.com/Flows/1.0/">
	<!ENTITY ns_extend "http://ns.adobe.com/Extensibility/1.0/">
	<!ENTITY ns_ai "http://ns.adobe.com/AdobeIllustrator/10.0/">
	<!ENTITY ns_graphs "http://ns.adobe.com/Graphs/1.0/">
	<!ENTITY ns_vars "http://ns.adobe.com/Variables/1.0/">
	<!ENTITY ns_imrep "http://ns.adobe.com/ImageReplacement/1.0/">
	<!ENTITY ns_sfw "http://ns.adobe.com/SaveForWeb/1.0/">
	<!ENTITY ns_custom "http://ns.adobe.com/GenericCustomNamespace/1.0/">
	<!ENTITY ns_adobe_xpath "http://ns.adobe.com/XPath/1.0/">
	<!ENTITY ns_svg "http://www.w3.org/2000/svg">
	<!ENTITY ns_xlink "http://www.w3.org/1999/xlink">
]>
<svg  version="1.1"
	 xmlns:x="&ns_extend;" xmlns:i="&ns_ai;" xmlns:graph="&ns_graphs;" i:viewOrigin="-0.3208 113.645" i:rulerOrigin="0 0" i:pageBounds="0 113 108 0"
	 xmlns="&ns_svg;" xmlns:xlink="&ns_xlink;" xmlns:a="http://ns.adobe.com/AdobeSVGViewerExtensions/3.0/"
	 width="109.1" height="113.832" viewBox="0 0 109.1 113.832" overflow="visible" enable-background="new 0 0 109.1 113.832"
	 xml:space="preserve">
<metadata>
	<variableSets  xmlns="http://ns.adobe.com/Variables/1.0/">
		<variableSet  locked="none" varSetName="binding1">
			<variables></variables>
			<v:sampleDataSets  xmlns:v="http://ns.adobe.com/Variables/1.0/" xmlns="http://ns.adobe.com/GenericCustomNamespace/1.0/">
				</v:sampleDataSets>
		</variableSet>
	</variableSets>
</metadata>
<g id="图层_1" i:knockout="Off" i:layer="yes" i:dimmedPercent="50" i:rgbTrio="#4F008000FFFF">
	
		<linearGradient id="XMLID_7_" gradientUnits="userSpaceOnUse" x1="935.7534" y1="32.644" x2="1020.5474" y2="32.644" gradientTransform="matrix(0 -1 -1 0 86.8232 1049.3994)">
		<stop  offset="0.1348" style="stop-color:#1889BC"/>
		<stop  offset="0.2247" style="stop-color:#C4E9F2"/>
		<a:midPointStop  offset="0.1348" style="stop-color:#1889BC"/>
		<a:midPointStop  offset="0.5" style="stop-color:#1889BC"/>
		<a:midPointStop  offset="0.2247" style="stop-color:#C4E9F2"/>
	</linearGradient>
	<path fill="url(#XMLID_7_)" stroke="#000000" stroke-width="0.3739" d="M100.037,28.852c4.418,0,8.001,3.42,8.001,7.638v69.518
		c0,4.218-3.583,7.638-8.001,7.638H8.321c-4.418,0-8-3.42-8-7.638V36.49c0-4.218,3.582-7.638,8-7.638H100.037z"/>
	<path fill="#FFFFFF" stroke="#000000" stroke-width="0.6414" d="M8.377,85.36c-4.449,0-8.057-3.43-8.057-7.66V7.98
		c0-4.23,3.607-7.659,8.057-7.659h92.348c4.447,0,8.055,3.429,8.055,7.659V77.7c0,4.23-3.606,7.66-8.055,7.66H8.377z"/>
	
		<linearGradient id="XMLID_8_" gradientUnits="userSpaceOnUse" x1="-229.5884" y1="367.9067" x2="-144.5493" y2="367.9067" gradientTransform="matrix(0 1 1 0 -313.3574 229.9092)">
		<stop  offset="0" style="stop-color:#A3DDEA"/>
		<stop  offset="0.0899" style="stop-color:#0678B3"/>
		<stop  offset="0.2135" style="stop-color:#094C91"/>
		<stop  offset="0.6404" style="stop-color:#2890C0"/>
		<stop  offset="0.8034" style="stop-color:#82D0E3"/>
		<stop  offset="1" style="stop-color:#09468C"/>
		<a:midPointStop  offset="0" style="stop-color:#A3DDEA"/>
		<a:midPointStop  offset="0.5" style="stop-color:#A3DDEA"/>
		<a:midPointStop  offset="0.0899" style="stop-color:#0678B3"/>
		<a:midPointStop  offset="0.5" style="stop-color:#0678B3"/>
		<a:midPointStop  offset="0.2135" style="stop-color:#094C91"/>
		<a:midPointStop  offset="0.5" style="stop-color:#094C91"/>
		<a:midPointStop  offset="0.6404" style="stop-color:#2890C0"/>
		<a:midPointStop  offset="0.5" style="stop-color:#2890C0"/>
		<a:midPointStop  offset="0.8034" style="stop-color:#82D0E3"/>
		<a:midPointStop  offset="0.5" style="stop-color:#82D0E3"/>
		<a:midPointStop  offset="1" style="stop-color:#09468C"/>
	</linearGradient>
	
		<path i:isolated="yes" i:knockout="Off" opacity="0.1" fill="url(#XMLID_8_)" stroke="#000000" stroke-width="0.6414" enable-background="new    " d="
		M8.377,85.36c-4.449,0-8.057-3.43-8.057-7.66V7.98c0-4.23,3.607-7.659,8.057-7.659h92.348c4.448,0,8.055,3.429,8.055,7.659V77.7
		c0,4.23-3.605,7.66-8.055,7.66H8.377z"/>
	<g i:knockout="Off">
		<path fill="#24258D" d="M99.316,45.668c0,0-1.92,4.801-9.959,5.641c-8.041,0.84-31.32-1.801-31.32-1.801s0,1.08-2.399,0.24
			c-1.52-0.531-2.279-0.84-4.68-0.84s-7.32-0.6-7.32-0.6s-0.6,1.32-3,0.24c-2.399-1.08-4.56-0.961-4.56-0.961s-0.96,0.961-2.28,0.48
			c-1.32-0.481-3.96-0.721-3.96-0.721s-0.6,1.201-2.76,0.721c-2.16-0.48-8.04-0.6-8.04-0.6s-1.8,1.199-3.601,1.199
			c-1.8,0-3.72-1.92-3-3.6c0.721-1.68,1.44-2.88,3.841-2.28c2.399,0.601,7.319,1.681,8.76,1.681c1.439,0,1.439-1.32,2.52-1.32
			s1.801,1.439,3.12,1.439c1.32,0,7.44,0.601,8.521,0.601c1.081,0,1.8-1.44,2.88-0.841c1.08,0.601,1.56,1.681,2.16,1.681
			c0.6,0,9,0.479,9.84,0.479c0.84,0,1.2-1.199,2.64-0.84c1.439,0.36,2.16,1.08,3.239,1.08c1.08,0,22.32,2.641,30,1.44
			c5.18-0.81,7.08-1.8,7.921-2.761C98.716,44.469,99.316,44.829,99.316,45.668z"/>
	</g>
	<path fill="#1D8F38" d="M55.397,21.069c0,0,2.399,0.24,3.12,1.68c0.719,1.44,1.199,2.76,2.039,2.76s3.961-1.319,3-4.08
		c-0.959-2.76-2.641-2.64-3.479-2.16c-0.841,0.48-4.919,1.201-4.919,1.201L55.397,21.069z"/>
	<path fill="#1D8F38" d="M54.317,27.189c2.04,0.239,3.84,3.96,4.561,7.44c0.721,3.479,0.119,5.039-1.439,3.959
		c-1.561-1.08-3.841-3.479-4.561-6.119C52.157,29.829,52.277,26.949,54.317,27.189z"/>
	<path fill="#1D8F38" d="M48.317,13.508c1.199,1.08,3.96,5.881,4.199,7.681c0.24,1.8-1.199,3-2.64,2.04
		c-1.44-0.961-3.12-7.32-3.12-8.641C46.756,13.267,47.117,12.428,48.317,13.508z"/>
	<path fill="#1D8F38" d="M51.197,26.829c0,0,0.84,0.36-0.36,3.721c-1.2,3.359-7.92,9.84-8.76,9.959
		c-0.84,0.121,0.479-2.76,0.96-4.319c0.479-1.56,4.2-7.32,4.2-7.32S51.197,27.309,51.197,26.829z"/>
	<path fill="#1D8F38" d="M48.556,23.588c1.08,0.36,2.16,0.961,2.16,2.521s-3.84,2.159-5.399,2.159
		c-1.561,0-14.641-1.439-15.48-3.119c-0.839-1.68,6.96-2.52,9.96-2.52S47.476,23.229,48.556,23.588z"/>
	<path fill="#1D8F38" d="M45.317,28.869c0,0-6.24,6.479-9,6.96c0,0-0.721,2.881-3.96,1.92c0,0-4.921,1.2-5.521,1.32
		c-0.6,0.12-1.8,2.4-4.439,1.68c-2.641-0.72-4.44,0.36-6.841,0.36c-2.399,0-6-1.8-5.76-3.841c0.24-2.039,4.92-1.439,7.68-1.319
		c2.761,0.12,4.08,0.72,4.08,0.72s0.521-1.779,1.92-1.439c2.221,0.539,6.96-0.12,6.96-0.12s0.36-0.72,1.32-1.8
		s2.641-0.24,3.601-0.24s7.56-4.426,7.56-4.426S45.272,27.909,45.317,28.869z"/>
	<path fill="#1D8F38" d="M23.596,20.649c0.96,0.779,1.801,6-1.26,10.08c-3.06,4.08-8.869,5.557-11.46,4.38
		c-1.979-0.899-0.36-4.38,1.5-4.86s4.705,0.748,6.66-0.779c3.079-2.405,3.6-5.28,3.6-6.36S22.636,19.869,23.596,20.649z"/>
	<path fill="#1D8F38" d="M68.597,63.789c0,0,1.199,2.16,3.358,1.923c2.16-0.24,3.12-2.882,2.04-4.32
		C72.917,59.949,68.476,58.268,68.597,63.789z"/>
	<path fill="#1D8F38" d="M64.517,66.429c1.68,0.721,2.159,4.438,2.76,6.961c0.601,2.52,0,3.719-1.561,2.16
		c-1.561-1.562-4.439-5.041-4.561-7.201S62.836,65.71,64.517,66.429z"/>
	<path fill="#1D8F38" d="M59.716,67.869c1.08,0.121,1.68,2.642,0.96,4.08c-0.721,1.441-5.88,4.92-7.2,4.441
		C52.157,75.91,58.636,67.75,59.716,67.869z"/>
	<path fill="#1D8F38" d="M59.836,66.31c0,0-0.602,2.279-3.841,2.4c-3.24,0.118-16.2-1.08-17.521-2.281
		c-1.319-1.199,1.921-2.642,5.641-2.879c3.72-0.24,6.6-0.961,9-0.24c0,0,2.811,1.191,4.583,1.984
		C59.088,65.914,59.468,66.152,59.836,66.31z"/>
	<path fill="#1D8F38" d="M60.917,64.99c-0.146,1.679-1.44,1.08-4.682-0.961c-3.239-2.039-6.839-4.8-6.959-5.88
		c-0.12-1.08,1.08-1.92,2.52-1.2C54.699,58.4,61.214,61.539,60.917,64.99z"/>
	<path fill="#1D8F38" d="M58.396,52.149c0,0,3.48,3.6,4.801,8.16c1.32,4.56,0.24,4.56-0.479,4.56c-0.721,0-2.279-2.639-3.96-6.238
		C57.077,55.029,55.277,51.909,58.396,52.149z"/>
	<path fill="#1D8F38" d="M51.556,61.269c0,0,1.08,1.441-0.6,1.441s-9-4.923-9.96-4.803s-3.12,0.96-4.08-0.12
		c-0.96-1.079-5.64-2.159-6.84-2.159c-1.2,0-3.12,0.239-4.08-0.48c-0.96-0.721-1.8,0-3.24,0c-1.439,0-5.64,0.359-7.8-0.36
		c-2.16-0.719-3.24-5.399-0.24-5.159c3,0.239,11.04,1.56,12.36,1.92c1.32,0.359,1.56-0.961,3,0c1.439,0.959,4.8,1.799,6.12,2.039
		c1.319,0.24,2.52-0.359,4.08,0.84C41.836,55.629,49.397,58.989,51.556,61.269z"/>
	<path fill="#1D8F38" d="M14.476,56.829c0,0,0,3,2.28,3.12c2.28,0.12,7.44,1.562,9.96,3.48c2.521,1.92,1.8,4.438,3.12,5.16
		c1.32,0.721,1.8-1.92,0.6-4.92c-1.199-3.001-3.96-5.521-7.92-6.721C18.556,55.748,14.476,54.789,14.476,56.829z"/>
	<g i:knockout="Off">
		<path fill="#D90000" d="M86.678,24.549c-0.955,4.295-3.246,6.538-6.873,6.729c-5.156-0.191-7.828-3.676-8.021-10.453
			c0.287-6.014,2.101-9.116,5.441-9.308c1.527,0,2.291,0.812,2.291,2.435c0.096,1.527-0.525,2.243-1.861,2.147
			c-2.673,0.287-4.01,1.719-4.01,4.297c0.096,3.436,2.1,5.201,6.014,5.297c3.818,0.096,5.681-2.338,5.585-7.303
			c0-1.145,0.383-1.718,1.146-1.718c0.764-0.19,1.146,0.524,1.146,2.147c0,3.914,1.767,5.823,5.299,5.729
			c2.862-0.096,4.344-1.433,4.438-4.01c-0.191-2.005-1.003-3.055-2.435-3.15c-0.286,0-0.62,0.048-1.003,0.144
			c-0.382,0.095-0.717,0.144-1.002,0.144c-0.859-0.191-1.337-0.955-1.433-2.291c0.096-1.719,0.859-2.578,2.291-2.578
			c3.531,0.478,5.441,3.437,5.729,8.878c-0.383,5.44-2.626,8.305-6.729,8.591c-2.96-0.096-4.917-2.004-5.871-5.727H86.678z"/>
	</g>
</g>
</svg>
