<?xml version="1.0" encoding="utf-8"?>
<!-- Generator: Adobe Illustrator 12.0.0, SVG Export Plug-In . SVG Version: 6.00 Build 51448)  -->
<!DOCTYPE svg PUBLIC "-//W3C//DTD SVG 1.1//EN" "http://www.w3.org/Graphics/SVG/1.1/DTD/svg11.dtd" [
	<!ENTITY ns_flows "http://ns.adobe.com/Flows/1.0/">
	<!ENTITY ns_extend "http://ns.adobe.com/Extensibility/1.0/">
	<!ENTITY ns_ai "http://ns.adobe.com/AdobeIllustrator/10.0/">
	<!ENTITY ns_graphs "http://ns.adobe.com/Graphs/1.0/">
	<!ENTITY ns_vars "http://ns.adobe.com/Variables/1.0/">
	<!ENTITY ns_imrep "http://ns.adobe.com/ImageReplacement/1.0/">
	<!ENTITY ns_sfw "http://ns.adobe.com/SaveForWeb/1.0/">
	<!ENTITY ns_custom "http://ns.adobe.com/GenericCustomNamespace/1.0/">
	<!ENTITY ns_adobe_xpath "http://ns.adobe.com/XPath/1.0/">
	<!ENTITY ns_svg "http://www.w3.org/2000/svg">
	<!ENTITY ns_xlink "http://www.w3.org/1999/xlink">
]>
<svg  version="1.1"
	 xmlns:x="&ns_extend;" xmlns:i="&ns_ai;" xmlns:graph="&ns_graphs;" i:viewOrigin="-0.3208 113.645" i:rulerOrigin="0 0" i:pageBounds="0 113 108 0"
	 xmlns="&ns_svg;" xmlns:xlink="&ns_xlink;" xmlns:a="http://ns.adobe.com/AdobeSVGViewerExtensions/3.0/"
	 width="109.1" height="113.832" viewBox="0 0 109.1 113.832" overflow="visible" enable-background="new 0 0 109.1 113.832"
	 xml:space="preserve">
<metadata>
	<variableSets  xmlns="http://ns.adobe.com/Variables/1.0/">
		<variableSet  locked="none" varSetName="binding1">
			<variables></variables>
			<v:sampleDataSets  xmlns:v="http://ns.adobe.com/Variables/1.0/" xmlns="http://ns.adobe.com/GenericCustomNamespace/1.0/">
				</v:sampleDataSets>
		</variableSet>
	</variableSets>
</metadata>
<g id="图层_1" i:knockout="Off" i:layer="yes" i:dimmedPercent="50" i:rgbTrio="#4F008000FFFF">
	
		<linearGradient id="XMLID_3_" gradientUnits="userSpaceOnUse" x1="935.7534" y1="32.644" x2="1020.5474" y2="32.644" gradientTransform="matrix(0 -1 -1 0 86.8232 1049.3994)">
		<stop  offset="0.1348" style="stop-color:#1889BC"/>
		<stop  offset="0.2247" style="stop-color:#C4E9F2"/>
		<a:midPointStop  offset="0.1348" style="stop-color:#1889BC"/>
		<a:midPointStop  offset="0.5" style="stop-color:#1889BC"/>
		<a:midPointStop  offset="0.2247" style="stop-color:#C4E9F2"/>
	</linearGradient>
	<path fill="url(#XMLID_3_)" stroke="#000000" stroke-width="0.3739" d="M100.038,28.852c4.418,0,8,3.42,8,7.638v69.518
		c0,4.218-3.582,7.638-8,7.638H8.321c-4.418,0-8-3.42-8-7.638V36.49c0-4.218,3.582-7.638,8-7.638H100.038z"/>
	<path fill="#FFFFFF" stroke="#000000" stroke-width="0.6414" d="M8.377,85.36c-4.449,0-8.057-3.43-8.057-7.66V7.98
		c0-4.23,3.607-7.659,8.057-7.659h92.348c4.447,0,8.055,3.429,8.055,7.659V77.7c0,4.23-3.606,7.66-8.055,7.66H8.377z"/>
	
		<linearGradient id="XMLID_4_" gradientUnits="userSpaceOnUse" x1="-229.5884" y1="367.9067" x2="-144.5493" y2="367.9067" gradientTransform="matrix(0 1 1 0 -313.3574 229.9092)">
		<stop  offset="0" style="stop-color:#A3DDEA"/>
		<stop  offset="0.0899" style="stop-color:#0678B3"/>
		<stop  offset="0.2135" style="stop-color:#094C91"/>
		<stop  offset="0.6404" style="stop-color:#2890C0"/>
		<stop  offset="0.8034" style="stop-color:#82D0E3"/>
		<stop  offset="1" style="stop-color:#09468C"/>
		<a:midPointStop  offset="0" style="stop-color:#A3DDEA"/>
		<a:midPointStop  offset="0.5" style="stop-color:#A3DDEA"/>
		<a:midPointStop  offset="0.0899" style="stop-color:#0678B3"/>
		<a:midPointStop  offset="0.5" style="stop-color:#0678B3"/>
		<a:midPointStop  offset="0.2135" style="stop-color:#094C91"/>
		<a:midPointStop  offset="0.5" style="stop-color:#094C91"/>
		<a:midPointStop  offset="0.6404" style="stop-color:#2890C0"/>
		<a:midPointStop  offset="0.5" style="stop-color:#2890C0"/>
		<a:midPointStop  offset="0.8034" style="stop-color:#82D0E3"/>
		<a:midPointStop  offset="0.5" style="stop-color:#82D0E3"/>
		<a:midPointStop  offset="1" style="stop-color:#09468C"/>
	</linearGradient>
	
		<path i:isolated="yes" i:knockout="Off" opacity="0.1" fill="url(#XMLID_4_)" stroke="#000000" stroke-width="0.6414" enable-background="new    " d="
		M8.377,85.36c-4.449,0-8.057-3.43-8.057-7.66V7.98c0-4.23,3.607-7.659,8.057-7.659h92.348c4.449,0,8.055,3.429,8.055,7.659V77.7
		c0,4.23-3.604,7.66-8.055,7.66H8.377z"/>
	<g i:knockout="Off">
		<path fill="#35A034" d="M93.231,47.952c3,0.959,3.48,2.16,2.521,3.48c-0.959,1.32-6-2.281-14.521-2.641
			c-8.52-0.359-16.92,0.721-19.08,1.561s-6.6,1.68-8.16,1.32c-1.56-0.361-2.159-1.682-1.919-2.4c0.239-0.721,1.56-1.92,3.12-1.92
			c1.561,0,5.279,1.08,7.68,0.119c2.4-0.959,8.568-1.488,11.447-1.488c2.881,0,10.873-0.311,13.752,0.289
			C90.952,46.872,90.231,46.991,93.231,47.952z"/>
		<path fill="#35A034" d="M83.104,49.344c0,0,2.951,2.734,3.815,4.463c0.863,1.729,1.367,3.096,0.07,2.881
			c-1.295-0.217-1.654-2.305-3.022-3.025C82.6,52.944,79,51.36,79,50.352S80.511,48.911,83.104,49.344z"/>
		<path fill="#35A034" d="M83.319,38.975c-0.936,1.512-1.942,3.672-4.392,5.545c-2.448,1.871-4.823,0.359-5.473-1.08
			c-0.648-1.439,1.943-2.52,3.168-2.52s3.023,0.359,3.601-1.152c0.577-1.511,1.439-2.52,2.088-2.449
			C82.959,37.391,84.255,37.463,83.319,38.975z"/>
		<path fill="#35A034" d="M66.759,49.991c0,0,2.017,0.217,3.168,0.072c1.151-0.143,3.96,1.801,4.032,3.816
			c0.071,2.015,0.287,6.191,0.287,6.191s-1.439-3.814-2.735-4.391C70.215,55.102,66.327,52.584,66.759,49.991z"/>
		<path fill="#35A034" d="M69.639,35.952c0,0-0.648,3.6-2.232,5.688s-1.512,3.744-2.375,4.609c-0.863,0.863-3.889,0.936-5.185,0.936
			s-2.809-1.225-2.376-1.945c0.432-0.719,1.656-1.871,2.231-2.52c0.576-0.649,3.744-1.08,5.257-2.232
			c1.512-1.15,3.096-3.959,3.239-5.111C68.343,34.223,69.639,34.799,69.639,35.952z"/>
		<path fill="#35A034" d="M54.735,52.295c0,0,2.592-0.504,4.177,0.217c1.584,0.719,1.655,2.592,2.448,5.111
			c0.791,2.52,1.729,3.888,1.151,5.759c-0.575,1.873-1.655,1.729-1.655,0.647s0.359-2.952-1.297-3.888
			c-1.656-0.937-3.6-3.744-4.392-5.471C54.375,52.944,54.735,52.295,54.735,52.295z"/>
		<path fill="#35A034" d="M44.656,56.975c0,0,4.752,0.289,6.912,1.441c2.159,1.149,2.376,3.74,1.728,5.613
			c-0.648,1.871-0.288,3.168-0.648,4.607c-0.359,1.438-2.088,2.592-2.088,1.297c0-1.297,0.792-3.168,0.792-4.68
			c0-1.515-0.144-2.449-1.296-2.595c-1.151-0.143-3.096-0.504-3.527-1.726c-0.433-1.225-1.297-2.305-1.944-2.305
			C43.935,58.631,44.007,57.336,44.656,56.975z"/>
		<path fill="#35A034" d="M61.071,24.311c0,0,1.201,2.281-0.239,4.801c-1.439,2.52-2.521,5.4-4.56,5.52
			c-2.041,0.121-2.881,0.48-4.801,0.6c-1.92,0.121-1.92-1.559-1.56-2.16c0.359-0.6,1.92,0.121,2.04-0.959
			c0.12-1.08,1.439-2.76,3.359-3.121c1.92-0.359,3.12-0.359,3.601-2.039C59.391,25.272,59.991,22.872,61.071,24.311z"/>
		<path fill="#35A034" d="M35.152,11.952c0,0,1.68,0.359,1.439,5.881c-0.24,5.52-3.24,8.52-5.4,9.238
			c-2.159,0.721-6,0.84-7.079,1.32c0,0,0.84,1.08,2.399,1.08c1.561,0,3.96,1.801,3.96,1.801l-0.84,2.279c0,0-5.04-1.68-5.64-1.32
			c-0.601,0.361-3.508-1.107-4.707-1.947c0,0,0.224,0.984,0.942,1.584c0.721,0.6,2.444,2.645,4.244,5.043
			c1.8,2.4,2.76,3.961,2.76,3.961l-2.04,2.039c0,0-1.079-2.039-1.92-3.119c-0.84-1.08-0.239,1.68,0.721,3.24
			c0.96,1.56,3.359,5.279,3.359,6.959c0,1.682,0.36,4.201,1.2,5.16c0.84,0.961,2.16,1.682,1.561,4.201
			c-0.601,2.519-3.36,7.919-4.2,10.079c-0.84,2.16-2.641,4.799-3.84,5.399c-1.2,0.601-1.561-0.239-1.561-0.961
			c0-0.721,3.12-4.198,3.96-6c0.84-1.801,1.32-3.239,1.08-4.561c-0.24-1.321-1.08-3.839-0.84-5.638c0.24-1.801,0.72-3.24,0.72-4.32
			s-1.92-1.201-2.04-3.24c-0.12-2.041-0.12-2.52-0.12-2.52s-0.96-1.801-0.72-3.121c0.24-1.32-1.2-2.879-1.2-2.879
			s0.84,2.76-0.12,5.76s-3.288,5.848-4.008,7.287c-0.72,1.441-3.912,2.072-4.032,0.752c-0.119-1.32,3.48-2.879,3.961-4.32
			c0.479-1.439,0.96-2.16,0.359-4.08c-0.6-1.92-0.84-3-0.24-4.318c0.601-1.32,1.561-2.521,1.561-4.682c0-2.158-0.72-3.84-2.4-5.279
			c-1.68-1.439-2.04-1.199-2.64-1.08c-0.601,0.121-2.4,1.801-3.36,1.561c-0.96-0.24-0.96-1.439-0.24-2.041
			c0.721-0.6,0.601-0.959,0.12-1.68c-0.479-0.719-0.479-2.879-0.239-3.959c0.239-1.08,0.239-2.881,0.239-2.881
			s1.44,0.961,2.521,1.561s3.24,1.68,5.04,1.68c1.8,0,3.6,0,4.68,0c1.08,0,3.96-0.961,4.561-1.801c0.6-0.84,2.64-4.199,4.439-4.318
			c1.8-0.121,2.88-0.602,2.88-2.041s0-4.92,0-4.92L35.152,11.952z"/>
	</g>
	<g i:knockout="Off">
		<path fill="#D90000" d="M39.839,60.968c2.478-1.009,3.425-3.214,3.778-4.509c1.402,0.047,3.105-0.34,4.186-1.248
			c0.828-0.695,1.222-1.611,1.163-2.65c1.741-0.359,3.586-1.197,3.679-1.24l-0.832-1.818c-0.541,0.248-1.947,0.814-3.162,1.079
			c1.729-0.733,4.354-2.147,4.464-4.03c0.052-0.879-0.222-6.757-2.315-8.3c0.244-1.577-0.02-2.931-0.801-4.027
			c-1.057-1.482-2.771-2.054-3.76-2.267c-0.072-0.494-0.17-1.013-0.318-1.608c-0.646-2.587-2.068-4.552-3.804-5.256
			c-0.899-0.364-2.338-0.573-4.077,0.507c-2.689,1.669-3.911,5.058-4.369,6.74c-0.829-0.1-1.998-0.094-2.993,0.482
			c-0.813,0.471-1.364,1.248-1.596,2.247c-0.487,2.112-0.35,3.712-0.197,4.575c-1.313,1.104-2.022,2.303-2.159,3.646
			c-0.158,1.555,0.475,3.166,1.914,4.908c-0.034,0.078-0.073,0.154-0.098,0.234c-0.307,0.982-0.662,2.884,0.399,4.596
			c0.741,1.195,2.011,2.015,3.771,2.445c0.06,1.247,0.562,2.52,1.506,3.621C35.799,60.942,38.058,61.693,39.839,60.968z
			 M42.968,54.373c-0.241-0.063-0.405-0.2-0.532-0.442c-0.334-0.632-0.297-1.789,0.08-2.896c0.252-0.238,1.166-0.685,1.729-0.958
			c0.431-0.21,0.827-0.404,1.182-0.597c0.562,0.602,1.428,1.732,1.551,3.147c0.037,0.431-0.104,0.755-0.459,1.054
			C45.613,54.44,43.811,54.598,42.968,54.373z M35.533,45.096c0.041-0.367,0.825-2.432,1.554-4.139
			c0.127-0.162,0.965-1.224,1.323-1.677c1.05-0.096,2.179-0.163,3.036-0.163c0.619,0,1.094,0.032,1.285,0.104
			c0.316,0.228,1.31,1.851,2.126,3.503c0.016,0.364,0.182,4.175,0.202,4.626c-0.314,0.252-1.15,0.664-1.689,0.928
			c-1.114,0.541-1.875,0.945-2.324,1.418c-0.252,0.026-0.59,0.053-0.984,0.053c-0.381,0-0.797-0.025-1.18-0.104
			c-0.629-0.129-1.198-0.504-1.445-0.684C36.555,47.417,35.603,45.543,35.533,45.096z M49.698,39.876
			c-0.012-0.001-0.029,0.005-0.041,0.005c0.759,0.488,1.58,4.551,1.462,6.553c-0.033,0.568-1.698,1.676-3.591,2.442
			c-0.207-0.278-0.404-0.507-0.59-0.708c0.078-0.172,0.132-0.354,0.132-0.557l-0.233-5.409l-0.09-0.177
			c-0.064-0.134-0.141-0.283-0.215-0.432c1.021-0.828,2.406-1.727,3.125-1.713c-0.009-0.006-0.017-0.016-0.025-0.021
			C49.638,39.864,49.664,39.875,49.698,39.876z M48.375,35.393c0.469,0.662,0.598,1.547,0.426,2.611
			c-1.166,0.31-2.396,1.139-3.24,1.799c-0.386-0.653-0.799-1.271-1.201-1.729c1.117-1.648,1.711-2.839,1.899-4.046
			C46.94,34.229,47.83,34.62,48.375,35.393z M45.32,33.829h-0.004H45.32z M39.094,27.299c0.834-0.519,1.578-0.634,2.271-0.353
			c1.11,0.45,2.137,1.976,2.613,3.888c0.646,2.586,0.615,3.403-1.42,6.344c-1.185-0.129-2.893-0.027-4.188,0.09l-2.876-3.986
			C35.772,32.129,36.759,28.749,39.094,27.299z M31.031,35.52c0.106-0.465,0.313-0.772,0.648-0.967
			c0.774-0.447,2.063-0.211,2.454-0.092l2.528,3.806l-0.824,1.044c-1.121-0.566-3.163-1.343-5.073-0.76
			C30.714,37.821,30.739,36.784,31.031,35.52z M28.715,43.493c0.094-0.932,0.726-1.811,1.93-2.686
			c1.303-0.947,3.205-0.244,4.227,0.26c-0.497,1.205-1.043,2.631-1.247,3.518c-0.913,0.371-2.499,1.094-3.679,2.047
			C29.042,45.457,28.622,44.403,28.715,43.493z M30.64,51.975c-0.666-1.074-0.354-2.417-0.19-2.945
			c0.208-0.663,1.844-1.684,3.521-2.418c0.38,0.889,0.956,1.977,1.519,2.975l-2.121,3.182c-0.138,0.23-0.252,0.469-0.347,0.711
			C31.883,53.172,31.075,52.674,30.64,51.975z M35.736,57.795c-0.868-1.014-1.503-2.585-0.679-3.958
			c-0.018,0.027,1.16-1.739,1.885-2.826c0.418,0.232,0.945,0.47,1.539,0.592c0.529,0.107,1.086,0.144,1.587,0.144
			c0.075,0,0.147-0.002,0.22-0.003c-0.18,1.184-0.058,2.291,0.379,3.119c0.249,0.471,0.6,0.831,1.019,1.094
			c-0.248,0.91-0.907,2.469-2.6,3.158C38.118,59.51,36.741,58.967,35.736,57.795z"/>
		<g i:knockout="Off">
			<circle fill="#D90000" cx="41.055" cy="41.664" r="1.683"/>
			<circle fill="#D90000" cx="38.262" cy="44.042" r="1.683"/>
			<circle fill="#D90000" cx="42.978" cy="44.952" r="1.683"/>
			<circle fill="#D90000" cx="40.207" cy="47.392" r="1.683"/>
		</g>
	</g>
	<g i:knockout="Off">
		<path fill="#D90000" d="M74.304,26.739c-0.859,0-1.433,0.477-1.719,1.432c-0.097,0.668-0.382,1.002-0.858,1.002
			c-0.669,0.096-1.003-0.477-1.003-1.719v-6.729c0-1.242,0.334-1.814,1.003-1.719c0.478,0,0.763,0.334,0.858,1.002
			c0.286,0.859,0.858,1.289,1.719,1.289h3.437v-9.164c-0.096-1.432,0.334-2.101,1.289-2.005c6.587,1.622,12.791,5.489,18.614,11.599
			c0.668,0.668,0.955,1.527,0.859,2.577c0.096,1.718-0.812,2.529-2.722,2.435H80.318v2.863c0,1.146-0.43,1.719-1.288,1.719
			c-0.955,0-1.385-0.525-1.289-1.576v-3.006H74.304z M94.064,21.297c-4.773-3.914-9.354-6.635-13.746-8.162v8.162H94.064z"/>
	</g>
</g>
</svg>
