<?xml version="1.0" encoding="utf-8"?>
<!-- Generator: Adobe Illustrator 12.0.0, SVG Export Plug-In . SVG Version: 6.00 Build 51448)  -->
<!DOCTYPE svg PUBLIC "-//W3C//DTD SVG 1.1//EN" "http://www.w3.org/Graphics/SVG/1.1/DTD/svg11.dtd" [
	<!ENTITY ns_flows "http://ns.adobe.com/Flows/1.0/">
	<!ENTITY ns_extend "http://ns.adobe.com/Extensibility/1.0/">
	<!ENTITY ns_ai "http://ns.adobe.com/AdobeIllustrator/10.0/">
	<!ENTITY ns_graphs "http://ns.adobe.com/Graphs/1.0/">
	<!ENTITY ns_vars "http://ns.adobe.com/Variables/1.0/">
	<!ENTITY ns_imrep "http://ns.adobe.com/ImageReplacement/1.0/">
	<!ENTITY ns_sfw "http://ns.adobe.com/SaveForWeb/1.0/">
	<!ENTITY ns_custom "http://ns.adobe.com/GenericCustomNamespace/1.0/">
	<!ENTITY ns_adobe_xpath "http://ns.adobe.com/XPath/1.0/">
	<!ENTITY ns_svg "http://www.w3.org/2000/svg">
	<!ENTITY ns_xlink "http://www.w3.org/1999/xlink">
]>
<svg  version="1.1"
	 xmlns:x="&ns_extend;" xmlns:i="&ns_ai;" xmlns:graph="&ns_graphs;" i:viewOrigin="-0.3208 113.645" i:rulerOrigin="0 0" i:pageBounds="0 113 108 0"
	 xmlns="&ns_svg;" xmlns:xlink="&ns_xlink;" xmlns:a="http://ns.adobe.com/AdobeSVGViewerExtensions/3.0/"
	 width="109.1" height="113.832" viewBox="0 0 109.1 113.832" overflow="visible" enable-background="new 0 0 109.1 113.832"
	 xml:space="preserve">
<metadata>
	<variableSets  xmlns="&ns_vars;">
		<variableSet  varSetName="binding1" locked="none">
			<variables></variables>
			<v:sampleDataSets  xmlns="&ns_custom;" xmlns:v="&ns_vars;"></v:sampleDataSets>
		</variableSet>
	</variableSets>
</metadata>
<g id="图层_1" i:layer="yes" i:dimmedPercent="50" i:rgbTrio="#4F008000FFFF">
	<g>
		
			<linearGradient id="XMLID_3_" gradientUnits="userSpaceOnUse" x1="935.4341" y1="81.0015" x2="1020.2271" y2="81.0015" gradientTransform="matrix(0 -1 1 0 -26.8223 1049.0791)">
			<stop  offset="0.1348" style="stop-color:#1889BC"/>
			<stop  offset="0.2247" style="stop-color:#C4E9F2"/>
			<a:midPointStop  offset="0.1348" style="stop-color:#1889BC"/>
			<a:midPointStop  offset="0.5" style="stop-color:#1889BC"/>
			<a:midPointStop  offset="0.2247" style="stop-color:#C4E9F2"/>
		</linearGradient>
		<path i:knockout="Off" fill="url(#XMLID_3_)" stroke="#000000" stroke-width="0.3739" d="M100.038,28.852c4.418,0,8,3.42,8,7.638
			v69.518c0,4.218-3.582,7.638-8,7.638H8.321c-4.418,0-8-3.42-8-7.638V36.49c0-4.218,3.582-7.638,8-7.638H100.038z"/>
		<path i:knockout="Off" fill="#FFFFFF" stroke="#000000" stroke-width="0.6414" d="M8.377,85.36c-4.449,0-8.057-3.43-8.057-7.66
			V7.98c0-4.23,3.607-7.659,8.057-7.659h92.348c4.447,0,8.055,3.429,8.055,7.659V77.7c0,4.23-3.607,7.66-8.055,7.66H8.377z"/>
		
			<linearGradient id="XMLID_4_" gradientUnits="userSpaceOnUse" x1="-229.9092" y1="-254.2622" x2="-144.8701" y2="-254.2622" gradientTransform="matrix(0 1 -1 0 -199.7119 230.23)">
			<stop  offset="0" style="stop-color:#A3DDEA"/>
			<stop  offset="0.0899" style="stop-color:#0678B3"/>
			<stop  offset="0.2135" style="stop-color:#094C91"/>
			<stop  offset="0.6404" style="stop-color:#2890C0"/>
			<stop  offset="0.8034" style="stop-color:#82D0E3"/>
			<stop  offset="1" style="stop-color:#09468C"/>
			<a:midPointStop  offset="0" style="stop-color:#A3DDEA"/>
			<a:midPointStop  offset="0.5" style="stop-color:#A3DDEA"/>
			<a:midPointStop  offset="0.0899" style="stop-color:#0678B3"/>
			<a:midPointStop  offset="0.5" style="stop-color:#0678B3"/>
			<a:midPointStop  offset="0.2135" style="stop-color:#094C91"/>
			<a:midPointStop  offset="0.5" style="stop-color:#094C91"/>
			<a:midPointStop  offset="0.6404" style="stop-color:#2890C0"/>
			<a:midPointStop  offset="0.5" style="stop-color:#2890C0"/>
			<a:midPointStop  offset="0.8034" style="stop-color:#82D0E3"/>
			<a:midPointStop  offset="0.5" style="stop-color:#82D0E3"/>
			<a:midPointStop  offset="1" style="stop-color:#09468C"/>
		</linearGradient>
		<path i:knockout="Off" opacity="0.1" fill="url(#XMLID_4_)" stroke="#000000" stroke-width="0.6414" d="M8.377,85.36
			c-4.449,0-8.057-3.43-8.057-7.66V7.98c0-4.23,3.607-7.659,8.057-7.659h92.348c4.449,0,8.055,3.429,8.055,7.659V77.7
			c0,4.23-3.605,7.66-8.055,7.66H8.377z"/>
		<g>
			<path i:knockout="Off" fill="#333333" d="M96.124,41.242c0-3.309-0.275-6.617-0.828-9.928c-0.551-2.205-0.551-3.584,0-4.135
				c0.414-1.104,1.654-0.553,3.723,1.654c1.24,1.654,1.516,3.447,0.828,5.377c-0.277,0.826-0.414,1.723-0.414,2.688
				c0,6.895,0,14.27,0,22.127c0,0.828-0.414,1.654-1.24,2.482c-1.242,0.826-1.932,0.688-2.068-0.414c0-3.447,0-7.445,0-11.994
				c0-0.414-0.139-0.689-0.414-0.826c-0.275-0.139-0.621-0.277-1.033-0.414c-1.242-0.275-2.826-0.828-4.756-1.654
				c-0.277,0.137-0.414,0.414-0.414,0.826c0,1.518,0,3.172,0,4.963c0,0.414,0.068,0.76,0.207,1.035
				c0.412,0.689,0.344,1.584-0.207,2.688c-0.689,1.654-2.414,2.137-5.17,1.447c-3.447-0.414-5.309-0.619-5.584-0.619
				c-0.551,0-0.826,0.137-0.826,0.412c0,0.828-0.07,1.93-0.207,3.309c0,3.584-0.139,6.48-0.414,8.686
				c0.139,0.828-0.207,1.172-1.033,1.035c-2.896-0.277-4.826-1.725-5.791-4.344c-0.551-1.24-0.551-2.688,0-4.342
				c2.068-6.893,3.172-13.027,3.309-18.404c0.139-5.377,0.068-9.236-0.207-11.582c-0.275-2.344-0.895-5.1-1.859-8.27
				c-0.553-1.654-0.553-2.758,0-3.309c0.688-0.553,1.652-0.553,2.895,0c2.48,1.791,3.516,3.721,3.102,5.789
				c-0.139,0.551-0.207,1.24-0.207,2.068c0,2.48,0.139,4.688,0.414,6.617c0,0.689,0.414,1.24,1.24,1.654
				c0.414,0.275,0.965,0.619,1.654,1.033c1.516,0.828,2.48,1.311,2.895,1.447c1.379,0.689,2.344,0.689,2.896,0
				c0-1.24-0.277-2.48-0.828-3.721c-0.551-1.654-0.551-3.035,0-4.137c0.828-0.828,1.93-0.414,3.309,1.24
				c1.24,1.793,1.586,3.104,1.033,3.93C89.713,35.933,89.643,37.38,89.92,40c0,0.553,0.137,0.828,0.412,0.828
				c2.068,0.826,3.723,1.24,4.963,1.24C95.848,42.068,96.124,41.792,96.124,41.242z M79.167,51.994
				c0.689,0.139,1.516,0.277,2.482,0.414c0.688,0,1.791,0,3.309,0c1.102,0,1.654-0.551,1.654-1.654c0-2.068,0-3.723,0-4.963
				c0-0.414-0.139-0.689-0.414-0.826c-2.344-1.104-4.688-2.275-7.031-3.516c-0.414-0.277-0.758-0.346-1.033-0.207
				c-0.139,0.137-0.207,0.482-0.207,1.033c0,2.758,0,5.445,0,8.064C78.063,51.304,78.477,51.857,79.167,51.994z"/>
		</g>
		<path i:knockout="Off" fill="#D90000" d="M63.858,45.853c0,0.791-0.08,1.502-0.236,2.133c0,0.633-0.238,1.264-0.711,1.896
			c-0.158,0.789-0.475,1.262-0.949,1.42c-0.158,0.316-0.473,0.553-0.947,0.711c-0.158,0.158-0.395,0.238-0.711,0.238l-0.711-0.238
			c-0.316-0.158-0.711-0.395-1.184-0.711c-0.475-0.158-0.949-0.395-1.422-0.711c-0.316-0.158-0.711-0.236-1.186-0.236l0.238,0.947
			c0.314,0.633,0.395,0.791,0.236,0.475c0.158,0.316,0.236,0.711,0.236,1.186c0.316,0.473,0.475,0.947,0.475,1.42
			c0.158,0.475,0.236,0.869,0.236,1.186s-0.078,0.631-0.236,0.947c0,0.158-0.158,0.395-0.475,0.711
			c-0.158,0.316-0.316,0.553-0.473,0.711l-0.238,0.236c-0.316,0.633-0.789,1.186-1.422,1.66h-0.473v-0.475
			c0-0.158-0.08-0.869-0.238-2.133c0-1.105-0.158-2.053-0.473-2.844c0-0.789-0.158-1.658-0.475-2.605c0-0.316,0-0.711,0-1.186
			c-0.158-0.631-0.236-1.184-0.236-1.658L52.01,48.46c-0.158-0.316-0.631-0.711-1.422-1.186c-0.158-0.158-0.395-0.395-0.711-0.711
			c-0.473-0.316-0.789-0.553-0.947-0.711c-0.475-0.473-1.027-0.869-1.658-1.184v0.236v0.475c0.158,0.314,0.236,0.631,0.236,0.947
			c0.316,0.789,0.475,1.816,0.475,3.08c0.158,1.264,0.236,2.211,0.236,2.844c0,0.631-0.078,1.184-0.236,1.658
			c0,0.158-0.158,0.553-0.475,1.184c-0.158,0.158-0.316,0.316-0.473,0.475c-0.475,0.789-0.949,1.264-1.422,1.422
			c-0.475,0.316-0.949,0.553-1.422,0.711c-0.316,0.158-0.711,0.236-1.186,0.236l-0.947-0.711c-0.475-0.473-1.186-0.947-2.133-1.422
			c-0.631-0.473-1.422-0.947-2.369-1.422c-0.631-0.473-1.342-0.867-2.133-1.184c-0.631-0.316-1.58-1.105-2.844-2.369v-0.475
			l1.422-1.422l-0.236-0.473c0-0.316-0.158-0.633-0.475-0.949c0-0.158-0.078-0.395-0.236-0.711
			c-0.158-0.314-0.236-0.553-0.236-0.709c0-0.633-0.158-1.027-0.475-1.186c0-0.158-0.475-0.316-1.422-0.475
			c-0.789,0-1.5-0.078-2.133-0.236l0.238,0.947c0.314,0.633,0.553,1.738,0.711,3.318c0.473,1.578,0.711,3.08,0.711,4.502
			c0.156,1.42,0.236,2.684,0.236,3.791c0,0.473,0.078,1.105,0.236,1.895v0.236c0.158,0.316,0.238,0.711,0.238,1.186
			c0,0.473-0.08,0.947-0.238,1.422c0,0.158-0.158,0.553-0.473,1.184c-0.158,0.158-0.316,0.316-0.475,0.475
			c-0.475,0.789-0.947,1.264-1.422,1.422c-0.158,0.158-0.316,0.316-0.473,0.475c-0.316,0-0.555,0.078-0.711,0.236
			c-0.158,0.158-0.475,0.236-0.949,0.236l-0.236-0.236c0-0.158-0.395-0.395-1.186-0.711c-0.473-0.316-1.342-0.633-2.605-0.947
			c-0.316,0-0.789-0.158-1.422-0.475c-0.789-0.316-1.342-0.475-1.658-0.475c-0.947-0.314-1.896-0.711-2.844-1.184
			c-0.789-0.475-1.5-0.949-2.133-1.422c-0.156-0.158-0.395-0.316-0.711-0.475c-0.314-0.158-0.867-0.553-1.658-1.184
			c-0.314-0.316-0.711-0.633-1.184-0.947c-0.316-0.316-0.553-0.555-0.711-0.711c-0.158-0.158-0.395-0.396-0.711-0.711l-0.238-0.475
			c-0.156-0.158-0.236-0.633-0.236-1.422l0.947-0.711c0.316-0.158,0.633-0.395,0.949-0.711s0.631-0.553,0.947-0.711
			s0.633-0.395,0.947-0.711c0.316-0.314,0.633-0.553,0.947-0.711c0.633-0.473,1.186-1.025,1.66-1.658v0.711c0,0.475,0,1.264,0,2.369
			c-0.158,1.105-0.238,1.896-0.238,2.369c0,0.475,0.08,0.869,0.238,1.186v0.236c0.156,0.316,0.314,0.553,0.473,0.711
			c0.475,0.316,0.553,0.395,0.238,0.238c0.314,0.156,0.947,0.395,1.895,0.711c0.158,0,0.553,0.078,1.186,0.236
			c0.947,0.314,1.736,0.553,2.369,0.711c1.422,0.314,2.605,0.553,3.553,0.711c0.949,0.158,1.738,0.236,2.371,0.236l0.473-0.475
			v-2.131c0-1.422-0.078-2.766-0.236-4.029c0-0.789-0.238-2.053-0.711-3.791l-0.475,0.475c-0.316,0.316-0.711,0.789-1.184,1.422
			c-0.475,0.631-1.027,1.184-1.658,1.658c-0.316,0.316-0.711,0.553-1.186,0.711c0.316,0,0.158,0.078-0.475,0.236
			c-0.473,0.158-0.947,0.238-1.42,0.238c-0.316,0-0.713-0.08-1.186-0.238l-0.236-0.236c-0.316-0.158-0.553-0.316-0.711-0.475v-0.236
			c0-0.158,0.078-0.236,0.236-0.236c0-0.158,0-0.316,0-0.475l0.236-0.236c0.316-0.316,0.791-0.711,1.422-1.186l-0.236-1.422
			c0-0.947-0.158-1.895-0.475-2.842c0-0.949-0.314-2.055-0.947-3.318c-0.475-1.264-0.947-2.369-1.422-3.316
			c-0.158-0.316-0.316-0.633-0.473-0.947c-0.158-0.316-0.316-0.633-0.475-0.949v-0.236c-0.158-0.158-0.236-0.316-0.236-0.475v-0.236
			c0.156-0.316,0.236-0.553,0.236-0.711c0.316-0.475,0.553-0.869,0.711-1.186c0.158-0.158,0.395-0.236,0.711-0.236
			c0.158-0.158,0.314-0.316,0.473-0.475c0.475-0.158,0.869-0.236,1.186-0.236l0.475,0.475l-0.238,0.711
			c0,0.156-0.078,0.395-0.236,0.711v0.236c0,0.158,0.078,0.314,0.236,0.473c0.158,0.316,0.238,0.555,0.238,0.713
			c0.473,0.631,0.789,1.184,0.947,1.658c0.473,0.473,0.711,0.789,0.711,0.947c0.158,0.158,0.314,0.236,0.473,0.236l0.238,0.238
			c0.158,0.158,1.105,0.236,2.842,0.236l-0.236-0.711c0-0.475-0.236-1.105-0.711-1.895c-0.158-0.316-0.316-0.791-0.473-1.424
			c-0.316-0.631-0.555-1.105-0.711-1.42c-0.158-0.158-0.316-0.475-0.475-0.949c-0.316-1.105-0.711-2.133-1.186-3.08l-1.42,0.475
			c-0.949,0.316-1.896,0.553-2.844,0.711c-0.475,0.158-1.58,0.236-3.318,0.236l-0.473-0.473h-0.947l0.947-0.711
			c0.158-0.158,0.395-0.396,0.711-0.711c0.473-0.158,0.789-0.316,0.947-0.475c0.316-0.158,0.553-0.395,0.711-0.711
			c0.473-0.158,0.869-0.236,1.186-0.236c0.473,0,0.947-0.08,1.42-0.238c0.158,0,0.316-0.078,0.475-0.236
			c0.475-0.158,0.869-0.316,1.186-0.473v-0.238c0-0.158-0.08-0.395-0.238-0.711c0-0.158-0.236-0.475-0.711-0.947v-0.238
			c0-0.158,0.08-0.236,0.238-0.236c0-0.158,0-0.316,0-0.473l0.236-0.238c0.316-0.314,0.789-0.711,1.422-1.184h0.947l0.475,0.475
			l-0.475,0.473v0.475v0.473c0.158,0.316,0.236,0.553,0.236,0.711c0.158,0.158,0.316,0.395,0.475,0.711
			c0,0.158,0.078,0.316,0.236,0.475h0.949c0.789,0,1.262,0.078,1.42,0.236c0.475,0.158,0.791,0.475,0.949,0.947
			c0.158,0.158,0.473,0.633,0.947,1.422c0,0.316,0.078,0.553,0.236,0.711c0.475,0.947,0.947,1.816,1.422,2.607
			c0.475,0.631,1.027,1.5,1.658,2.605l0.238-0.473c0.314-0.158,0.473-0.396,0.473-0.711c0.158-0.158,0.475-0.396,0.949-0.711
			c0.156,0,0.314-0.08,0.473-0.238s0.633-0.395,1.422-0.711c0.316,0,0.789-0.158,1.422-0.473c0.631-0.316,1.105-0.475,1.422-0.475
			c0.631-0.158,1.342-0.395,2.133-0.711l0.236-0.236c0.473-0.158,0.947-0.395,1.422-0.711c0.473-0.158,0.867-0.236,1.184-0.236
			c0.475,0,0.791,0.078,0.949,0.236l0.236,0.236c0.316,0,0.553,0.158,0.711,0.475v0.475l-0.947,0.947l0.236,0.236
			c0.158,0.158,0.473,0.553,0.947,1.186c0,0.156,0.078,0.314,0.236,0.473c0.633,0.633,1.105,1.422,1.422,2.371h0.475l0.711-0.475
			c0.473-0.158,1.342-0.475,2.605-0.947v-0.238c0-0.158-0.236-0.631-0.711-1.422c-0.158-0.316-0.314-0.631-0.473-0.947
			c-0.316-0.475-0.553-0.869-0.711-1.184c-0.158-0.475-0.475-0.949-0.947-1.422v-0.238c0-0.158,0.078-0.236,0.236-0.236
			c0-0.158,0-0.316,0-0.475l0.236-0.473c0.316-0.316,0.553-0.553,0.711-0.711c0.475-0.475,0.947-0.791,1.422-0.947
			c0.475-0.158,1.027-0.238,1.658-0.238l0.475,0.475l-0.236,0.947c0,0.316-0.08,0.711-0.238,1.186v0.236v0.475
			c0.158,0.473,0.238,0.867,0.238,1.184c0.314,0.791,0.473,1.422,0.473,1.896c0.316,0.473,0.553,1.025,0.711,1.658h1.658
			c1.107,0,1.896-0.08,2.371-0.236c0.473-0.158,0.947-0.396,1.422-0.711c0.473-0.158,1.025-0.633,1.658-1.422h0.473v0.947
			c0,0.633-0.078,1.186-0.236,1.658c0,0.475-0.158,0.869-0.475,1.186c0,0.316-0.314,0.711-0.947,1.186
			c-0.475,0.473-1.027,0.867-1.658,1.184c-0.316,0.158-1.264,0.475-2.844,0.947v0.238v0.236c0.158,0.316,0.236,0.631,0.236,0.947
			c0.316,0.633,0.475,1.422,0.475,2.369c0.158,0.316,0.236,0.711,0.236,1.186l0.238,0.475c0.158,0.156,0.314,0.236,0.473,0.236
			c0.158,0.158,0.316,0.236,0.475,0.236c0.475,0.316,1.184,0.553,2.133,0.711c0.314,0,0.631,0.078,0.947,0.236
			s0.631,0.238,0.947,0.238c0.475,0,0.791-0.08,0.949-0.238c0.156-0.158,0.395-0.236,0.711-0.236
			c0.156-0.158,0.314-0.316,0.473-0.473c0.475-0.158,1.027-0.633,1.658-1.422h0.475V45.853z M31.161,40.878V40.64
			c0-0.158-0.238-0.631-0.711-1.422c-0.158-0.158-0.396-0.631-0.711-1.42c-0.316-0.633-0.633-1.186-0.949-1.66
			c-0.158-0.475-0.395-1.027-0.709-1.658c-0.475-0.791-0.791-1.422-0.949-1.896c-0.158-0.631-0.236-0.789-0.236-0.473
			c-0.316-0.949-0.475-1.502-0.475-1.658l-0.473-0.711c-0.158-0.316-0.475-0.711-0.949-1.186h-0.473l-0.947,0.947v0.238
			c0,0.158,0.078,0.395,0.236,0.711c0.158,0.314,0.236,0.553,0.236,0.711c0.316,0.314,0.553,0.947,0.711,1.895
			c0-0.475,0.078-0.316,0.236,0.475c0.158,0.314,0.396,0.947,0.711,1.895c0.158,0.316,0.316,0.633,0.475,0.947
			c0.158,0.316,0.316,0.713,0.475,1.186c0.473,1.105,0.867,2.055,1.184,2.844L31.161,40.878z M43.717,38.271
			c0-0.473-0.158-0.947-0.473-1.422c0-0.158,0-0.395,0-0.711c-0.158-0.316-0.238-0.553-0.238-0.711c0.158-0.473,0-1.025-0.473-1.658
			l-0.475-0.236c-0.158-0.158-0.395-0.238-0.711-0.238l-0.947,0.238c-0.158,0.158-0.316,0.236-0.475,0.236
			c-0.316,0-0.553,0.078-0.711,0.236s-0.395,0.238-0.711,0.238c-0.316,0.156-0.553,0.236-0.711,0.236
			c-0.473,0.158-1.105,0.236-1.895,0.236c-0.791,0-1.738,0.158-2.844,0.475v0.236c0,0.158,0.078,0.316,0.236,0.475v0.236
			c0.316,0.316,0.475,0.633,0.475,0.949c0.158,0,0.316,0.156,0.475,0.473c0,0.316,0.078,0.475,0.236,0.475s0.395,0.158,0.711,0.475
			c0.158,0.314,0.316,0.473,0.475,0.473c0.473,0.316,1.025,0.791,1.658,1.422v-1.186c0-0.314,0.078-0.631,0.236-0.947
			c0-0.473,0-0.869,0-1.184c0.316-0.949,0.553-1.738,0.711-2.371h0.475l0.473,0.711c0.475,0.475,0.789,1.105,0.947,1.896
			c0.475,0.789,0.711,1.422,0.711,1.895c0.316,0.475,0.553,1.027,0.711,1.66h0.475l0.475-0.475c0.156-0.158,0.395-0.395,0.711-0.711
			c0.314-0.316,0.551-0.553,0.709-0.711L43.717,38.271z M53.432,44.669v-0.475c0-0.158-0.08-0.633-0.236-1.422
			c0-0.631-0.158-1.186-0.475-1.658c0-0.475-0.158-0.789-0.475-0.947c0-0.158-0.078-0.238-0.236-0.238c0.158,0,0-0.078-0.475-0.236
			c-0.158-0.158-0.314-0.236-0.473-0.236c-0.316-0.158-0.553-0.238-0.711-0.238c-0.475-0.158-0.947-0.395-1.422-0.709
			c-0.475-0.158-1.027-0.396-1.658-0.711c-0.316-0.158-0.949-0.238-1.896-0.238l0.475,1.186c0.473,0.789,0.711,1.422,0.711,1.895
			c0.316,0.475,0.553,0.869,0.711,1.186c0.473,0.316,0.947,0.711,1.422,1.184c0.789,0.475,1.422,0.869,1.895,1.186
			c0.316,0.158,0.711,0.316,1.186,0.475c0.473,0.156,0.867,0.314,1.184,0.473L53.432,44.669z M45.85,51.777v-0.711
			c0-0.475-0.08-1.105-0.236-1.895c0-0.791-0.158-1.58-0.475-2.371c0-0.473-0.158-1.264-0.475-2.369
			c0,0.158-0.078-0.078-0.236-0.711l-0.236,0.475c0,0.316-0.158,0.553-0.475,0.711c0,0.158-0.158,0.316-0.473,0.475
			c-0.316,0-0.555,0.078-0.711,0.236v0.947l-0.475,0.711c-0.158,0.475-0.475,0.869-0.947,1.186h-0.949l-0.236-0.238
			c0-0.158-0.158-0.395-0.473-0.711c0-0.314-0.158-0.711-0.475-1.184c0-0.475-0.158-0.791-0.475-0.947
			c0-0.158-0.395-0.316-1.184-0.475c-0.475,0-0.949-0.08-1.422-0.236v2.369l-0.475,0.473c-0.158,0.158-0.316,0.395-0.473,0.711
			c-0.158,0.316-0.316,0.553-0.475,0.711h1.186c0.947,0,1.5,0.08,1.658,0.238c0.473,0.314,0.947,0.553,1.422,0.711
			c0.789,0.314,1.658,0.709,2.605,1.184c0.475,0.158,1.027,0.316,1.658,0.475c0.475,0.314,0.789,0.473,0.947,0.473
			c0.791,0.158,1.264,0.238,1.422,0.238L45.85,51.777z M26.659,46.328c0-0.633-0.238-1.344-0.711-2.133l-3.791-0.475l0.236,1.422
			c0.158,0.633,0.236,1.896,0.236,3.791h0.238c0.314,0,0.711-0.158,1.184-0.473c0.633-0.158,1.58-0.475,2.844-0.949L26.659,46.328z"
			/>
	</g>
</g>
</svg>
