<?xml version="1.0" encoding="utf-8"?>
<!-- Generator: Adobe Illustrator 12.0.0, SVG Export Plug-In . SVG Version: 6.00 Build 51448)  -->
<!DOCTYPE svg PUBLIC "-//W3C//DTD SVG 1.1//EN" "http://www.w3.org/Graphics/SVG/1.1/DTD/svg11.dtd" [
	<!ENTITY ns_flows "http://ns.adobe.com/Flows/1.0/">
	<!ENTITY ns_extend "http://ns.adobe.com/Extensibility/1.0/">
	<!ENTITY ns_ai "http://ns.adobe.com/AdobeIllustrator/10.0/">
	<!ENTITY ns_graphs "http://ns.adobe.com/Graphs/1.0/">
	<!ENTITY ns_vars "http://ns.adobe.com/Variables/1.0/">
	<!ENTITY ns_imrep "http://ns.adobe.com/ImageReplacement/1.0/">
	<!ENTITY ns_sfw "http://ns.adobe.com/SaveForWeb/1.0/">
	<!ENTITY ns_custom "http://ns.adobe.com/GenericCustomNamespace/1.0/">
	<!ENTITY ns_adobe_xpath "http://ns.adobe.com/XPath/1.0/">
	<!ENTITY ns_svg "http://www.w3.org/2000/svg">
	<!ENTITY ns_xlink "http://www.w3.org/1999/xlink">
]>
<svg  version="1.1"
	 xmlns:x="&ns_extend;" xmlns:i="&ns_ai;" xmlns:graph="&ns_graphs;" i:viewOrigin="-0.3208 113.645" i:rulerOrigin="0 0" i:pageBounds="0 113 108 0"
	 xmlns="&ns_svg;" xmlns:xlink="&ns_xlink;" xmlns:a="http://ns.adobe.com/AdobeSVGViewerExtensions/3.0/"
	 width="109.1" height="113.832" viewBox="0 0 109.1 113.832" overflow="visible" enable-background="new 0 0 109.1 113.832"
	 xml:space="preserve">
<metadata>
	<variableSets  xmlns="&ns_vars;">
		<variableSet  varSetName="binding1" locked="none">
			<variables></variables>
			<v:sampleDataSets  xmlns="&ns_custom;" xmlns:v="&ns_vars;"></v:sampleDataSets>
		</variableSet>
	</variableSets>
</metadata>
<g id="图层_1" i:layer="yes" i:dimmedPercent="50" i:rgbTrio="#4F008000FFFF">
	<g>
		
			<linearGradient id="XMLID_3_" gradientUnits="userSpaceOnUse" x1="935.4341" y1="81.0015" x2="1020.2271" y2="81.0015" gradientTransform="matrix(0 -1 1 0 -26.8223 1049.0791)">
			<stop  offset="0.1348" style="stop-color:#1889BC"/>
			<stop  offset="0.2247" style="stop-color:#C4E9F2"/>
			<a:midPointStop  offset="0.1348" style="stop-color:#1889BC"/>
			<a:midPointStop  offset="0.5" style="stop-color:#1889BC"/>
			<a:midPointStop  offset="0.2247" style="stop-color:#C4E9F2"/>
		</linearGradient>
		<path i:knockout="Off" fill="url(#XMLID_3_)" stroke="#000000" stroke-width="0.3739" d="M100.038,28.852c4.418,0,8,3.42,8,7.638
			v69.518c0,4.218-3.582,7.638-8,7.638H8.321c-4.418,0-8-3.42-8-7.638V36.49c0-4.218,3.582-7.638,8-7.638H100.038z"/>
		<path i:knockout="Off" fill="#FFFFFF" stroke="#000000" stroke-width="0.6414" d="M8.377,85.36c-4.449,0-8.057-3.43-8.057-7.66
			V7.98c0-4.23,3.607-7.659,8.057-7.659h92.348c4.447,0,8.055,3.429,8.055,7.659V77.7c0,4.23-3.607,7.66-8.055,7.66H8.377z"/>
		
			<linearGradient id="XMLID_4_" gradientUnits="userSpaceOnUse" x1="-229.9092" y1="-254.2622" x2="-144.8701" y2="-254.2622" gradientTransform="matrix(0 1 -1 0 -199.7119 230.23)">
			<stop  offset="0" style="stop-color:#A3DDEA"/>
			<stop  offset="0.0899" style="stop-color:#0678B3"/>
			<stop  offset="0.2135" style="stop-color:#094C91"/>
			<stop  offset="0.6404" style="stop-color:#2890C0"/>
			<stop  offset="0.8034" style="stop-color:#82D0E3"/>
			<stop  offset="1" style="stop-color:#09468C"/>
			<a:midPointStop  offset="0" style="stop-color:#A3DDEA"/>
			<a:midPointStop  offset="0.5" style="stop-color:#A3DDEA"/>
			<a:midPointStop  offset="0.0899" style="stop-color:#0678B3"/>
			<a:midPointStop  offset="0.5" style="stop-color:#0678B3"/>
			<a:midPointStop  offset="0.2135" style="stop-color:#094C91"/>
			<a:midPointStop  offset="0.5" style="stop-color:#094C91"/>
			<a:midPointStop  offset="0.6404" style="stop-color:#2890C0"/>
			<a:midPointStop  offset="0.5" style="stop-color:#2890C0"/>
			<a:midPointStop  offset="0.8034" style="stop-color:#82D0E3"/>
			<a:midPointStop  offset="0.5" style="stop-color:#82D0E3"/>
			<a:midPointStop  offset="1" style="stop-color:#09468C"/>
		</linearGradient>
		<path i:knockout="Off" opacity="0.1" fill="url(#XMLID_4_)" stroke="#000000" stroke-width="0.6414" d="M8.377,85.36
			c-4.449,0-8.057-3.43-8.057-7.66V7.98c0-4.23,3.607-7.659,8.057-7.659h92.348c4.449,0,8.055,3.429,8.055,7.659V77.7
			c0,4.23-3.605,7.66-8.055,7.66H8.377z"/>
		<g>
			<path i:knockout="Off" fill="#333333" d="M90.213,35.794c0,0.828,0.689,1.379,2.068,1.654c2.066,0.553,4.135,1.242,6.203,2.068
				c2.48,0.965,3.377,2.412,2.688,4.344c-0.414,2.066-1.998,2.412-4.756,1.033c-1.379-0.553-2.826-1.104-4.342-1.654
				c-0.689-0.275-1.035,0.275-1.035,1.654c0.139,3.584,0.275,6.893,0.414,9.926c0,1.516,0,3.24,0,5.17c0,1.654,0,4.617,0,8.891
				c0,1.104-0.689,1.242-2.068,0.414c-3.723-1.516-4.963-4.688-3.721-9.512c0.688-3.172,1.102-5.791,1.24-7.857
				c0.137-2.068,0.068-4.826-0.207-8.271c-0.139-0.828-0.621-1.242-1.447-1.242c-3.861,0-6.41,0.621-7.652,1.861
				c-1.24,1.24-1.859,3.791-1.859,7.652c0,4.273,1.17,7.65,3.514,10.133c0.414,0.412,0.482,0.895,0.207,1.447
				c-0.137,0.412-0.551,0.551-1.24,0.412c-3.309-0.137-5.584-1.033-6.824-2.688c-1.24-1.516-1.861-4.342-1.861-8.479
				c0.139-5.238,1.24-9.236,3.309-11.994c2.068-2.895,6.135-4.273,12.201-4.135c0.551,0.137,0.826-0.207,0.826-1.033
				c0-2.758-1.033-6.756-3.102-11.994c-0.826-1.93-0.758-3.24,0.207-3.93c1.24-0.689,2.619-0.344,4.137,1.035
				c1.791,1.654,2.48,3.309,2.066,4.963c-0.275,0.551-0.344,1.17-0.205,1.859C89.11,28.351,89.524,31.107,90.213,35.794z"/>
		</g>
		<path i:knockout="Off" fill="#D90000" d="M62.676,45.759c0,0.791-0.08,1.502-0.238,2.133c0,0.633-0.236,1.264-0.711,1.896
			c-0.158,0.789-0.473,1.264-0.947,1.422c-0.158,0.314-0.475,0.553-0.947,0.711c-0.158,0.156-0.395,0.236-0.711,0.236l-0.711-0.236
			c-0.316-0.158-0.711-0.396-1.184-0.711c-0.475-0.158-0.949-0.396-1.422-0.711c-0.316-0.158-0.711-0.238-1.186-0.238l0.236,0.949
			c0.316,0.631,0.396,0.789,0.238,0.473c0.158,0.316,0.236,0.711,0.236,1.186c0.316,0.473,0.475,0.947,0.475,1.422
			c0.156,0.473,0.236,0.867,0.236,1.184s-0.08,0.633-0.236,0.949c0,0.156-0.158,0.395-0.475,0.709
			c-0.158,0.316-0.316,0.553-0.475,0.711l-0.236,0.238c-0.316,0.631-0.79,1.184-1.423,1.658h-0.473v-0.475
			c0-0.158-0.08-0.869-0.236-2.133c0-1.105-0.158-2.053-0.475-2.842c0-0.791-0.158-1.66-0.475-2.607c0-0.316,0-0.711,0-1.184
			c-0.158-0.633-0.236-1.186-0.236-1.658l-0.475-0.475c-0.158-0.316-0.631-0.711-1.422-1.186c-0.158-0.158-0.395-0.395-0.709-0.711
			c-0.475-0.314-0.791-0.553-0.949-0.711c-0.473-0.473-1.025-0.867-1.658-1.184v0.236v0.475c0.158,0.314,0.236,0.631,0.236,0.947
			c0.316,0.789,0.475,1.816,0.475,3.08c0.158,1.264,0.236,2.211,0.236,2.844c0,0.631-0.078,1.184-0.236,1.658
			c0,0.158-0.158,0.553-0.475,1.186c-0.158,0.156-0.314,0.314-0.473,0.473c-0.475,0.791-0.949,1.264-1.422,1.422
			c-0.475,0.316-0.947,0.553-1.422,0.711c-0.316,0.158-0.711,0.236-1.186,0.236l-0.947-0.711c-0.473-0.473-1.184-0.947-2.133-1.42
			c-0.631-0.475-1.422-0.949-2.369-1.422c-0.631-0.475-1.342-0.869-2.133-1.186C33.611,52.789,32.664,52,31.4,50.736v-0.475
			l1.422-1.42l-0.238-0.475c0-0.316-0.158-0.633-0.473-0.947c0-0.158-0.08-0.396-0.238-0.711c-0.158-0.316-0.236-0.553-0.236-0.711
			c0-0.633-0.158-1.027-0.475-1.186c0-0.158-0.473-0.316-1.42-0.473c-0.791,0-1.502-0.08-2.133-0.238l0.236,0.949
			c0.316,0.631,0.553,1.736,0.711,3.316c0.473,1.58,0.711,3.08,0.711,4.502c0.158,1.422,0.236,2.686,0.236,3.791
			c0,0.473,0.08,1.105,0.238,1.895v0.238c0.156,0.314,0.236,0.711,0.236,1.184c0,0.475-0.08,0.947-0.236,1.422
			c0,0.158-0.158,0.553-0.475,1.186c-0.158,0.156-0.316,0.314-0.475,0.473c-0.473,0.791-0.947,1.264-1.422,1.422
			c-0.158,0.158-0.314,0.316-0.473,0.475c-0.316,0-0.553,0.078-0.711,0.236s-0.475,0.236-0.947,0.236l-0.238-0.236
			c0-0.158-0.395-0.395-1.184-0.711c-0.475-0.316-1.344-0.631-2.607-0.947c-0.316,0-0.789-0.158-1.422-0.475
			C19,62.74,18.447,62.583,18.13,62.583c-0.947-0.316-1.895-0.711-2.844-1.186c-0.789-0.475-1.5-0.947-2.131-1.422
			c-0.158-0.158-0.395-0.316-0.711-0.473c-0.316-0.158-0.869-0.553-1.66-1.186c-0.314-0.316-0.709-0.633-1.184-0.947
			c-0.316-0.316-0.553-0.553-0.711-0.711s-0.395-0.395-0.711-0.711l-0.236-0.475c-0.158-0.158-0.238-0.631-0.238-1.422l0.949-0.711
			c0.316-0.158,0.631-0.395,0.947-0.709c0.316-0.316,0.633-0.555,0.947-0.711c0.316-0.158,0.633-0.396,0.947-0.711
			c0.316-0.316,0.633-0.553,0.949-0.711c0.631-0.475,1.184-1.027,1.658-1.658v0.709c0,0.475,0,1.264,0,2.371
			c-0.158,1.105-0.236,1.895-0.236,2.369c0,0.473,0.078,0.867,0.236,1.184v0.238c0.158,0.314,0.316,0.553,0.475,0.711
			c0.473,0.314,0.551,0.395,0.236,0.236c0.314,0.158,0.947,0.395,1.895,0.711c0.158,0,0.553,0.078,1.186,0.236
			c0.947,0.316,1.738,0.553,2.369,0.711c1.422,0.316,2.605,0.553,3.555,0.711c0.947,0.158,1.736,0.236,2.369,0.236l0.473-0.473
			V56.66c0-1.422-0.078-2.764-0.236-4.027c0-0.791-0.236-2.055-0.711-3.791l-0.473,0.473c-0.316,0.316-0.711,0.791-1.186,1.422
			c-0.475,0.633-1.027,1.186-1.658,1.658c-0.316,0.316-0.711,0.553-1.186,0.711c0.316,0,0.158,0.078-0.473,0.236
			c-0.475,0.158-0.949,0.238-1.422,0.238c-0.316,0-0.711-0.08-1.186-0.238l-0.236-0.236c-0.316-0.158-0.553-0.316-0.711-0.473
			v-0.238c0-0.158,0.078-0.236,0.236-0.236c0-0.158,0-0.316,0-0.475l0.238-0.236c0.314-0.316,0.789-0.711,1.42-1.186l-0.236-1.42
			c0-0.949-0.158-1.896-0.473-2.844c0-0.949-0.316-2.055-0.949-3.318c-0.473-1.264-0.947-2.369-1.422-3.316
			c-0.158-0.316-0.314-0.633-0.473-0.947c-0.158-0.316-0.316-0.633-0.475-0.947V37.23c-0.158-0.158-0.236-0.316-0.236-0.473v-0.238
			c0.158-0.316,0.236-0.553,0.236-0.711c0.316-0.473,0.553-0.869,0.711-1.184c0.158-0.158,0.395-0.238,0.711-0.238
			c0.158-0.158,0.316-0.314,0.475-0.473c0.473-0.158,0.867-0.236,1.184-0.236l0.475,0.473l-0.236,0.711
			c0,0.158-0.08,0.395-0.238,0.711v0.236c0,0.158,0.08,0.316,0.238,0.475c0.156,0.316,0.236,0.553,0.236,0.711
			c0.473,0.631,0.789,1.184,0.947,1.658c0.475,0.475,0.711,0.789,0.711,0.947c0.158,0.158,0.316,0.238,0.475,0.238l0.236,0.236
			c0.158,0.158,1.105,0.236,2.844,0.236l-0.238-0.711c0-0.473-0.236-1.105-0.711-1.895c-0.158-0.316-0.314-0.791-0.473-1.422
			c-0.316-0.633-0.553-1.105-0.711-1.422c-0.158-0.158-0.316-0.475-0.475-0.947c-0.316-1.105-0.711-2.133-1.184-3.08l-1.422,0.473
			c-0.949,0.316-1.896,0.553-2.844,0.711c-0.475,0.158-1.58,0.238-3.316,0.238l-0.475-0.475h-0.947l0.947-0.711
			c0.158-0.158,0.395-0.395,0.711-0.711c0.475-0.158,0.789-0.316,0.947-0.473c0.316-0.158,0.553-0.396,0.711-0.711
			c0.475-0.158,0.869-0.238,1.186-0.238c0.473,0,0.947-0.078,1.422-0.236c0.156,0,0.314-0.08,0.473-0.236
			c0.475-0.158,0.869-0.316,1.186-0.475v-0.236c0-0.158-0.08-0.396-0.236-0.711c0-0.158-0.238-0.475-0.711-0.947v-0.238
			c0-0.158,0.078-0.236,0.236-0.236c0-0.158,0-0.316,0-0.475l0.236-0.236c0.316-0.316,0.791-0.711,1.422-1.186H20.5l0.475,0.475
			L20.5,24.673v0.473v0.475c0.158,0.316,0.238,0.553,0.238,0.711c0.156,0.158,0.314,0.395,0.473,0.711
			c0,0.158,0.08,0.314,0.238,0.473h0.947c0.789,0,1.264,0.08,1.422,0.238c0.473,0.158,0.789,0.473,0.947,0.947
			c0.158,0.158,0.475,0.631,0.947,1.422c0,0.314,0.08,0.553,0.238,0.711c0.473,0.947,0.947,1.816,1.42,2.605
			c0.475,0.633,1.027,1.5,1.66,2.607l0.236-0.475c0.316-0.158,0.475-0.395,0.475-0.711c0.156-0.158,0.473-0.395,0.947-0.711
			c0.158,0,0.314-0.078,0.473-0.236s0.633-0.395,1.422-0.711c0.316,0,0.791-0.158,1.422-0.475c0.633-0.316,1.105-0.473,1.422-0.473
			c0.633-0.158,1.342-0.396,2.133-0.711l0.236-0.238c0.475-0.158,0.947-0.395,1.422-0.711c0.475-0.158,0.869-0.236,1.186-0.236
			c0.473,0,0.789,0.078,0.947,0.236l0.236,0.238c0.316,0,0.553,0.158,0.711,0.473v0.475l-0.947,0.947l0.236,0.238
			c0.158,0.156,0.475,0.553,0.947,1.184c0,0.158,0.08,0.316,0.238,0.475c0.631,0.631,1.105,1.422,1.422,2.369h0.473l0.711-0.475
			c0.475-0.158,1.344-0.473,2.607-0.947v-0.236c0-0.158-0.238-0.633-0.711-1.422c-0.158-0.316-0.316-0.633-0.475-0.947
			c-0.316-0.475-0.553-0.869-0.711-1.186c-0.158-0.475-0.475-0.947-0.947-1.422v-0.236c0-0.158,0.078-0.236,0.236-0.236
			c0-0.158,0-0.316,0-0.475l0.236-0.475c0.316-0.316,0.553-0.553,0.711-0.711c0.475-0.473,0.949-0.789,1.422-0.947
			c0.475-0.158,1.027-0.236,1.658-0.236l0.475,0.473l-0.236,0.949c0,0.314-0.08,0.711-0.238,1.184v0.238v0.473
			c0.158,0.475,0.238,0.869,0.238,1.186c0.314,0.789,0.473,1.422,0.473,1.895c0.316,0.475,0.553,1.027,0.711,1.658h1.66
			c1.105,0,1.896-0.078,2.368-0.236c0.475-0.158,0.949-0.395,1.422-0.711c0.475-0.158,1.027-0.631,1.658-1.422h0.475v0.949
			c0,0.631-0.078,1.184-0.236,1.658c0,0.473-0.158,0.867-0.475,1.184c0,0.316-0.316,0.711-0.947,1.186
			c-0.475,0.473-1.027,0.869-1.658,1.184c-0.316,0.158-1.265,0.475-2.845,0.949v0.236v0.236c0.158,0.316,0.238,0.633,0.238,0.949
			c0.314,0.631,0.473,1.42,0.473,2.369c0.158,0.314,0.236,0.711,0.236,1.184l0.238,0.475c0.158,0.158,0.314,0.236,0.473,0.236
			c0.158,0.158,0.317,0.236,0.476,0.236c0.473,0.316,1.184,0.553,2.133,0.711c0.314,0,0.631,0.08,0.947,0.238
			c0.314,0.158,0.631,0.236,0.947,0.236c0.475,0,0.789-0.078,0.947-0.236s0.395-0.238,0.711-0.238
			c0.158-0.158,0.316-0.314,0.475-0.473c0.473-0.158,1.027-0.633,1.658-1.422h0.475V45.759z M29.978,40.785v-0.236
			c0-0.158-0.238-0.633-0.711-1.422c-0.158-0.158-0.395-0.633-0.711-1.422c-0.316-0.633-0.633-1.186-0.947-1.658
			c-0.158-0.475-0.396-1.027-0.711-1.66c-0.475-0.789-0.791-1.422-0.947-1.895c-0.158-0.633-0.238-0.791-0.238-0.475
			c-0.316-0.947-0.473-1.5-0.473-1.658l-0.475-0.711c-0.158-0.316-0.475-0.711-0.947-1.184h-0.475l-0.947,0.947v0.236
			c0,0.158,0.078,0.395,0.236,0.711s0.236,0.553,0.236,0.711c0.316,0.316,0.553,0.947,0.711,1.896c0-0.475,0.08-0.316,0.238,0.473
			c0.158,0.316,0.395,0.947,0.711,1.896c0.156,0.314,0.314,0.631,0.473,0.947s0.316,0.711,0.475,1.186
			c0.473,1.105,0.869,2.053,1.184,2.842L29.978,40.785z M42.535,38.177c0-0.473-0.158-0.947-0.473-1.42c0-0.158,0-0.396,0-0.711
			c-0.158-0.316-0.238-0.553-0.238-0.711c0.158-0.475,0-1.027-0.473-1.658l-0.475-0.238c-0.158-0.158-0.395-0.236-0.711-0.236
			l-0.947,0.236c-0.158,0.158-0.316,0.238-0.475,0.238c-0.314,0-0.553,0.078-0.711,0.236s-0.395,0.236-0.709,0.236
			c-0.316,0.158-0.555,0.236-0.711,0.236c-0.475,0.158-1.107,0.238-1.896,0.238s-1.738,0.158-2.844,0.473v0.238
			c0,0.158,0.08,0.314,0.238,0.473v0.238c0.314,0.314,0.473,0.631,0.473,0.947c0.158,0,0.316,0.158,0.475,0.475
			c0,0.314,0.078,0.473,0.236,0.473s0.395,0.158,0.711,0.475c0.158,0.314,0.316,0.473,0.475,0.473
			c0.473,0.316,1.025,0.791,1.658,1.422v-1.184c0-0.316,0.078-0.633,0.236-0.949c0-0.473,0-0.867,0-1.184
			c0.316-0.947,0.553-1.738,0.711-2.369h0.475l0.473,0.711c0.475,0.473,0.791,1.105,0.949,1.895
			c0.473,0.791,0.711,1.422,0.711,1.896c0.314,0.473,0.553,1.025,0.711,1.658h0.473l0.475-0.475
			c0.158-0.158,0.395-0.395,0.711-0.711c0.314-0.316,0.553-0.553,0.711-0.711L42.535,38.177z M52.25,44.576v-0.475
			c0-0.158-0.078-0.631-0.236-1.422c0-0.631-0.158-1.184-0.475-1.658c0-0.473-0.158-0.789-0.473-0.947
			c0-0.158-0.08-0.236-0.238-0.236c0.158,0,0-0.08-0.473-0.238c-0.158-0.158-0.316-0.236-0.475-0.236
			c-0.316-0.158-0.553-0.236-0.711-0.236c-0.475-0.158-0.947-0.396-1.422-0.711c-0.473-0.158-1.025-0.396-1.658-0.711
			c-0.316-0.158-0.947-0.236-1.895-0.236l0.473,1.184c0.475,0.789,0.711,1.422,0.711,1.896c0.316,0.473,0.553,0.867,0.711,1.184
			c0.475,0.316,0.947,0.711,1.422,1.186c0.789,0.473,1.422,0.867,1.895,1.184c0.316,0.158,0.711,0.316,1.186,0.475
			s0.869,0.316,1.186,0.475L52.25,44.576z M44.667,51.683v-0.711c0-0.473-0.078-1.105-0.236-1.895c0-0.791-0.158-1.58-0.475-2.369
			c0-0.475-0.158-1.264-0.473-2.369c0,0.156-0.08-0.08-0.238-0.711l-0.236,0.473c0,0.316-0.158,0.553-0.475,0.711
			c0,0.158-0.158,0.316-0.473,0.475c-0.316,0-0.553,0.078-0.711,0.236v0.947l-0.475,0.711c-0.158,0.475-0.475,0.869-0.947,1.186
			h-0.947l-0.238-0.236c0-0.158-0.158-0.396-0.473-0.711c0-0.316-0.158-0.711-0.475-1.186c0-0.475-0.158-0.789-0.473-0.947
			c0-0.158-0.396-0.316-1.186-0.475c-0.475,0-0.947-0.078-1.422-0.236v2.369l-0.475,0.475c-0.158,0.156-0.314,0.395-0.473,0.711
			c-0.158,0.314-0.316,0.553-0.475,0.711h1.186c0.947,0,1.5,0.078,1.658,0.236c0.473,0.314,0.947,0.553,1.422,0.711
			c0.789,0.314,1.658,0.711,2.605,1.184c0.475,0.158,1.027,0.316,1.658,0.475c0.475,0.316,0.791,0.475,0.949,0.475
			c0.789,0.156,1.264,0.236,1.422,0.236L44.667,51.683z M25.476,46.234c0-0.631-0.238-1.342-0.711-2.133l-3.791-0.473l0.236,1.422
			c0.158,0.631,0.238,1.895,0.238,3.791h0.236c0.316,0,0.711-0.158,1.184-0.475c0.633-0.158,1.58-0.475,2.844-0.947L25.476,46.234z"
			/>
	</g>
</g>
</svg>
