<?xml version="1.0" encoding="utf-8"?>
<!-- Generator: Adobe Illustrator 12.0.0, SVG Export Plug-In . SVG Version: 6.00 Build 51448)  -->
<!DOCTYPE svg PUBLIC "-//W3C//DTD SVG 1.1//EN" "http://www.w3.org/Graphics/SVG/1.1/DTD/svg11.dtd" [
	<!ENTITY ns_flows "http://ns.adobe.com/Flows/1.0/">
	<!ENTITY ns_extend "http://ns.adobe.com/Extensibility/1.0/">
	<!ENTITY ns_ai "http://ns.adobe.com/AdobeIllustrator/10.0/">
	<!ENTITY ns_graphs "http://ns.adobe.com/Graphs/1.0/">
	<!ENTITY ns_vars "http://ns.adobe.com/Variables/1.0/">
	<!ENTITY ns_imrep "http://ns.adobe.com/ImageReplacement/1.0/">
	<!ENTITY ns_sfw "http://ns.adobe.com/SaveForWeb/1.0/">
	<!ENTITY ns_custom "http://ns.adobe.com/GenericCustomNamespace/1.0/">
	<!ENTITY ns_adobe_xpath "http://ns.adobe.com/XPath/1.0/">
	<!ENTITY ns_svg "http://www.w3.org/2000/svg">
	<!ENTITY ns_xlink "http://www.w3.org/1999/xlink">
]>
<svg  version="1.1"
	 xmlns:x="&ns_extend;" xmlns:i="&ns_ai;" xmlns:graph="&ns_graphs;" i:viewOrigin="-0.3208 113.645" i:rulerOrigin="0 0" i:pageBounds="0 113 108 0"
	 xmlns="&ns_svg;" xmlns:xlink="&ns_xlink;" xmlns:a="http://ns.adobe.com/AdobeSVGViewerExtensions/3.0/"
	 width="109.1" height="113.832" viewBox="0 0 109.1 113.832" overflow="visible" enable-background="new 0 0 109.1 113.832"
	 xml:space="preserve">
<metadata>
	<variableSets  xmlns="&ns_vars;">
		<variableSet  varSetName="binding1" locked="none">
			<variables></variables>
			<v:sampleDataSets  xmlns="&ns_custom;" xmlns:v="&ns_vars;"></v:sampleDataSets>
		</variableSet>
	</variableSets>
</metadata>
<g id="图层_1" i:layer="yes" i:dimmedPercent="50" i:rgbTrio="#4F008000FFFF">
	<g>
		
			<linearGradient id="XMLID_3_" gradientUnits="userSpaceOnUse" x1="935.4341" y1="81.0015" x2="1020.2271" y2="81.0015" gradientTransform="matrix(0 -1 1 0 -26.8223 1049.0791)">
			<stop  offset="0.1348" style="stop-color:#1889BC"/>
			<stop  offset="0.2247" style="stop-color:#C4E9F2"/>
			<a:midPointStop  offset="0.1348" style="stop-color:#1889BC"/>
			<a:midPointStop  offset="0.5" style="stop-color:#1889BC"/>
			<a:midPointStop  offset="0.2247" style="stop-color:#C4E9F2"/>
		</linearGradient>
		<path i:knockout="Off" fill="url(#XMLID_3_)" stroke="#000000" stroke-width="0.3739" d="M100.037,28.852
			c4.418,0,8.001,3.42,8.001,7.638v69.518c0,4.218-3.583,7.638-8.001,7.638H8.321c-4.418,0-8-3.42-8-7.638V36.49
			c0-4.218,3.582-7.638,8-7.638H100.037z"/>
		<path i:knockout="Off" fill="#FFFFFF" stroke="#000000" stroke-width="0.6414" d="M8.377,85.36c-4.449,0-8.057-3.43-8.057-7.66
			V7.98c0-4.23,3.607-7.659,8.057-7.659h92.348c4.447,0,8.055,3.429,8.055,7.659V77.7c0,4.23-3.607,7.66-8.055,7.66H8.377z"/>
		
			<linearGradient id="XMLID_4_" gradientUnits="userSpaceOnUse" x1="-229.9092" y1="-254.2622" x2="-144.8701" y2="-254.2622" gradientTransform="matrix(0 1 -1 0 -199.7119 230.23)">
			<stop  offset="0" style="stop-color:#A3DDEA"/>
			<stop  offset="0.0899" style="stop-color:#0678B3"/>
			<stop  offset="0.2135" style="stop-color:#094C91"/>
			<stop  offset="0.6404" style="stop-color:#2890C0"/>
			<stop  offset="0.8034" style="stop-color:#82D0E3"/>
			<stop  offset="1" style="stop-color:#09468C"/>
			<a:midPointStop  offset="0" style="stop-color:#A3DDEA"/>
			<a:midPointStop  offset="0.5" style="stop-color:#A3DDEA"/>
			<a:midPointStop  offset="0.0899" style="stop-color:#0678B3"/>
			<a:midPointStop  offset="0.5" style="stop-color:#0678B3"/>
			<a:midPointStop  offset="0.2135" style="stop-color:#094C91"/>
			<a:midPointStop  offset="0.5" style="stop-color:#094C91"/>
			<a:midPointStop  offset="0.6404" style="stop-color:#2890C0"/>
			<a:midPointStop  offset="0.5" style="stop-color:#2890C0"/>
			<a:midPointStop  offset="0.8034" style="stop-color:#82D0E3"/>
			<a:midPointStop  offset="0.5" style="stop-color:#82D0E3"/>
			<a:midPointStop  offset="1" style="stop-color:#09468C"/>
		</linearGradient>
		<path i:knockout="Off" opacity="0.1" fill="url(#XMLID_4_)" stroke="#000000" stroke-width="0.6414" d="M8.377,85.36
			c-4.449,0-8.057-3.43-8.057-7.66V7.98c0-4.23,3.607-7.659,8.057-7.659h92.348c4.448,0,8.055,3.429,8.055,7.659V77.7
			c0,4.23-3.606,7.66-8.055,7.66H8.377z"/>
		<g>
			<circle i:knockout="Off" fill="#FFFFFF" cx="84.276" cy="29.266" r="10.771"/>
			<path i:knockout="Off" fill="#1D8F38" d="M95.047,29.266c0-5.947-4.822-10.771-10.771-10.771s-10.771,4.824-10.771,10.771
				c0,5.949,4.822,10.771,10.771,10.771S95.047,35.215,95.047,29.266z M77.04,29.266c0-3.998,3.24-7.236,7.236-7.236
				s7.236,3.238,7.236,7.236c0,3.996-3.24,7.234-7.236,7.234S77.04,33.262,77.04,29.266z M89.489,29.266
				c0-2.879-2.334-5.213-5.213-5.213s-5.213,2.334-5.213,5.213s2.334,5.211,5.213,5.211S89.489,32.145,89.489,29.266z M80.93,29.266
				c0-1.85,1.498-3.348,3.346-3.348s3.348,1.498,3.348,3.348c0,1.848-1.5,3.346-3.348,3.346S80.93,31.114,80.93,29.266z
				 M85.719,29.266c0-0.797-0.646-1.443-1.443-1.443s-1.441,0.646-1.441,1.443s0.645,1.441,1.441,1.441S85.719,30.063,85.719,29.266
				z"/>
		</g>
		<g>
			<circle i:knockout="Off" fill="#FFFFFF" cx="84.276" cy="52.043" r="10.771"/>
			<path i:knockout="Off" fill="#1D8F38" d="M95.049,52.043c0-5.947-4.824-10.771-10.773-10.771s-10.773,4.824-10.773,10.771
				c0,5.949,4.824,10.771,10.773,10.771S95.049,57.993,95.049,52.043z M77.04,52.043c0-3.996,3.24-7.236,7.236-7.236
				s7.236,3.24,7.236,7.236s-3.24,7.234-7.236,7.234S77.04,56.04,77.04,52.043z M89.489,52.043c0-2.879-2.334-5.213-5.213-5.213
				s-5.213,2.334-5.213,5.213s2.334,5.211,5.213,5.211S89.489,54.922,89.489,52.043z M80.93,52.043c0-1.848,1.498-3.346,3.346-3.346
				s3.348,1.498,3.348,3.346c0,1.85-1.5,3.348-3.348,3.348S80.93,53.893,80.93,52.043z M85.719,52.043
				c0-0.795-0.646-1.443-1.443-1.443s-1.441,0.648-1.441,1.443c0,0.797,0.645,1.443,1.441,1.443S85.719,52.84,85.719,52.043z"/>
		</g>
		<g>
			<circle i:knockout="Off" fill="#FFFFFF" cx="46.799" cy="29.266" r="10.771"/>
			<path i:knockout="Off" fill="#D90000" d="M57.575,29.266c0-5.947-4.824-10.771-10.773-10.771s-10.773,4.824-10.773,10.771
				c0,5.949,4.824,10.771,10.773,10.771S57.575,35.215,57.575,29.266z M39.565,29.266c0-3.998,3.24-7.236,7.236-7.236
				c3.994,0,7.236,3.238,7.236,7.236c0,3.996-3.242,7.234-7.236,7.234C42.805,36.5,39.565,33.262,39.565,29.266z M52.014,29.266
				c0-2.879-2.334-5.213-5.213-5.213s-5.213,2.334-5.213,5.213s2.334,5.211,5.213,5.211S52.014,32.145,52.014,29.266z
				 M43.454,29.266c0-1.85,1.5-3.348,3.348-3.348s3.346,1.498,3.346,3.348c0,1.848-1.498,3.346-3.346,3.346
				S43.454,31.114,43.454,29.266z M48.245,29.266c0-0.797-0.646-1.443-1.443-1.443s-1.441,0.646-1.441,1.443
				s0.645,1.441,1.441,1.441S48.245,30.063,48.245,29.266z"/>
		</g>
		<g>
			<circle i:knockout="Off" fill="#FFFFFF" cx="46.799" cy="52.043" r="10.771"/>
			<path i:knockout="Off" fill="#D90000" d="M57.575,52.043c0-5.947-4.824-10.771-10.773-10.771s-10.773,4.824-10.773,10.771
				c0,5.949,4.824,10.771,10.773,10.771S57.575,57.993,57.575,52.043z M39.565,52.043c0-3.996,3.238-7.236,7.236-7.236
				c3.996,0,7.236,3.24,7.236,7.236s-3.24,7.234-7.236,7.234C42.803,59.278,39.565,56.04,39.565,52.043z M52.014,52.043
				c0-2.879-2.334-5.213-5.213-5.213s-5.213,2.334-5.213,5.213s2.334,5.211,5.213,5.211S52.014,54.922,52.014,52.043z
				 M43.454,52.043c0-1.848,1.5-3.346,3.348-3.346s3.346,1.498,3.346,3.346c0,1.85-1.498,3.348-3.346,3.348
				S43.454,53.893,43.454,52.043z M48.245,52.043c0-0.795-0.646-1.443-1.443-1.443s-1.441,0.648-1.441,1.443
				c0,0.797,0.645,1.443,1.441,1.443S48.245,52.84,48.245,52.043z"/>
		</g>
		<g>
			<circle i:knockout="Off" fill="#FFFFFF" cx="24.823" cy="29.266" r="10.771"/>
			<path i:knockout="Off" fill="#D90000" d="M35.596,29.266c0-5.947-4.824-10.771-10.773-10.771
				c-5.947,0-10.771,4.824-10.771,10.771c0,5.949,4.824,10.771,10.771,10.771C30.772,40.038,35.596,35.215,35.596,29.266z
				 M17.588,29.266c0-3.998,3.238-7.236,7.234-7.236s7.236,3.238,7.236,7.236c0,3.996-3.24,7.234-7.236,7.234
				S17.588,33.262,17.588,29.266z M30.038,29.266c0-2.879-2.334-5.213-5.213-5.213s-5.213,2.334-5.213,5.213
				s2.334,5.211,5.213,5.211S30.038,32.145,30.038,29.266z M21.477,29.266c0-1.85,1.5-3.348,3.348-3.348s3.346,1.498,3.346,3.348
				c0,1.848-1.498,3.346-3.346,3.346S21.477,31.114,21.477,29.266z M26.268,29.266c0-0.797-0.646-1.443-1.443-1.443
				s-1.443,0.646-1.443,1.443s0.646,1.441,1.443,1.441S26.268,30.063,26.268,29.266z"/>
		</g>
		<g>
			<circle i:knockout="Off" fill="#FFFFFF" cx="24.823" cy="52.043" r="10.771"/>
			<path i:knockout="Off" fill="#D90000" d="M35.596,52.043c0-5.947-4.824-10.771-10.773-10.771
				c-5.947,0-10.771,4.824-10.771,10.771c0,5.949,4.824,10.771,10.771,10.771C30.772,62.815,35.596,57.993,35.596,52.043z
				 M17.588,52.043c0-3.996,3.238-7.236,7.234-7.236c3.998,0,7.236,3.24,7.236,7.236s-3.238,7.234-7.236,7.234
				C20.827,59.278,17.588,56.04,17.588,52.043z M30.038,52.043c0-2.879-2.334-5.213-5.213-5.213s-5.213,2.334-5.213,5.213
				s2.334,5.211,5.213,5.211S30.038,54.922,30.038,52.043z M21.477,52.043c0-1.848,1.5-3.346,3.348-3.346s3.346,1.498,3.346,3.346
				c0,1.85-1.498,3.348-3.346,3.348S21.477,53.893,21.477,52.043z M26.268,52.043c0-0.795-0.646-1.443-1.443-1.443
				s-1.443,0.648-1.443,1.443c0,0.797,0.646,1.443,1.443,1.443S26.268,52.84,26.268,52.043z"/>
		</g>
	</g>
</g>
</svg>
