<?xml version="1.0" encoding="utf-8"?>
<!-- Generator: Adobe Illustrator 12.0.0, SVG Export Plug-In . SVG Version: 6.00 Build 51448)  -->
<!DOCTYPE svg PUBLIC "-//W3C//DTD SVG 1.1//EN" "http://www.w3.org/Graphics/SVG/1.1/DTD/svg11.dtd" [
	<!ENTITY ns_flows "http://ns.adobe.com/Flows/1.0/">
	<!ENTITY ns_extend "http://ns.adobe.com/Extensibility/1.0/">
	<!ENTITY ns_ai "http://ns.adobe.com/AdobeIllustrator/10.0/">
	<!ENTITY ns_graphs "http://ns.adobe.com/Graphs/1.0/">
	<!ENTITY ns_vars "http://ns.adobe.com/Variables/1.0/">
	<!ENTITY ns_imrep "http://ns.adobe.com/ImageReplacement/1.0/">
	<!ENTITY ns_sfw "http://ns.adobe.com/SaveForWeb/1.0/">
	<!ENTITY ns_custom "http://ns.adobe.com/GenericCustomNamespace/1.0/">
	<!ENTITY ns_adobe_xpath "http://ns.adobe.com/XPath/1.0/">
	<!ENTITY ns_svg "http://www.w3.org/2000/svg">
	<!ENTITY ns_xlink "http://www.w3.org/1999/xlink">
]>
<svg  version="1.1"
	 xmlns:x="&ns_extend;" xmlns:i="&ns_ai;" xmlns:graph="&ns_graphs;" i:viewOrigin="-0.3208 113.645" i:rulerOrigin="0 0" i:pageBounds="0 113 108 0"
	 xmlns="&ns_svg;" xmlns:xlink="&ns_xlink;" xmlns:a="http://ns.adobe.com/AdobeSVGViewerExtensions/3.0/"
	 width="109.1" height="113.832" viewBox="0 0 109.1 113.832" overflow="visible" enable-background="new 0 0 109.1 113.832"
	 xml:space="preserve">
<metadata>
	<variableSets  xmlns="&ns_vars;">
		<variableSet  varSetName="binding1" locked="none">
			<variables></variables>
			<v:sampleDataSets  xmlns="&ns_custom;" xmlns:v="&ns_vars;"></v:sampleDataSets>
		</variableSet>
	</variableSets>
</metadata>
<g id="图层_1" i:layer="yes" i:dimmedPercent="50" i:rgbTrio="#4F008000FFFF">
	<g>
		
			<linearGradient id="XMLID_3_" gradientUnits="userSpaceOnUse" x1="935.4341" y1="81.0015" x2="1020.2271" y2="81.0015" gradientTransform="matrix(0 -1 1 0 -26.8223 1049.0791)">
			<stop  offset="0.1348" style="stop-color:#1889BC"/>
			<stop  offset="0.2247" style="stop-color:#C4E9F2"/>
			<a:midPointStop  offset="0.1348" style="stop-color:#1889BC"/>
			<a:midPointStop  offset="0.5" style="stop-color:#1889BC"/>
			<a:midPointStop  offset="0.2247" style="stop-color:#C4E9F2"/>
		</linearGradient>
		<path i:knockout="Off" fill="url(#XMLID_3_)" stroke="#000000" stroke-width="0.3739" d="M100.038,28.852c4.418,0,8,3.42,8,7.638
			v69.518c0,4.218-3.582,7.638-8,7.638H8.321c-4.418,0-8-3.42-8-7.638V36.49c0-4.218,3.582-7.638,8-7.638H100.038z"/>
		<path i:knockout="Off" fill="#FFFFFF" stroke="#000000" stroke-width="0.6414" d="M8.377,85.36c-4.449,0-8.057-3.43-8.057-7.66
			V7.98c0-4.23,3.607-7.659,8.057-7.659h92.348c4.447,0,8.055,3.429,8.055,7.659V77.7c0,4.23-3.607,7.66-8.055,7.66H8.377z"/>
		
			<linearGradient id="XMLID_4_" gradientUnits="userSpaceOnUse" x1="-229.9092" y1="-254.2622" x2="-144.8701" y2="-254.2622" gradientTransform="matrix(0 1 -1 0 -199.7119 230.23)">
			<stop  offset="0" style="stop-color:#A3DDEA"/>
			<stop  offset="0.0899" style="stop-color:#0678B3"/>
			<stop  offset="0.2135" style="stop-color:#094C91"/>
			<stop  offset="0.6404" style="stop-color:#2890C0"/>
			<stop  offset="0.8034" style="stop-color:#82D0E3"/>
			<stop  offset="1" style="stop-color:#09468C"/>
			<a:midPointStop  offset="0" style="stop-color:#A3DDEA"/>
			<a:midPointStop  offset="0.5" style="stop-color:#A3DDEA"/>
			<a:midPointStop  offset="0.0899" style="stop-color:#0678B3"/>
			<a:midPointStop  offset="0.5" style="stop-color:#0678B3"/>
			<a:midPointStop  offset="0.2135" style="stop-color:#094C91"/>
			<a:midPointStop  offset="0.5" style="stop-color:#094C91"/>
			<a:midPointStop  offset="0.6404" style="stop-color:#2890C0"/>
			<a:midPointStop  offset="0.5" style="stop-color:#2890C0"/>
			<a:midPointStop  offset="0.8034" style="stop-color:#82D0E3"/>
			<a:midPointStop  offset="0.5" style="stop-color:#82D0E3"/>
			<a:midPointStop  offset="1" style="stop-color:#09468C"/>
		</linearGradient>
		<path i:knockout="Off" opacity="0.1" fill="url(#XMLID_4_)" stroke="#000000" stroke-width="0.6414" d="M8.377,85.36
			c-4.449,0-8.057-3.43-8.057-7.66V7.98c0-4.23,3.607-7.659,8.057-7.659h92.348c4.449,0,8.055,3.429,8.055,7.659V77.7
			c0,4.23-3.605,7.66-8.055,7.66H8.377z"/>
		<circle i:knockout="Off" fill="#FFFFFF" cx="84.526" cy="21.556" r="10.771"/>
		<circle i:knockout="Off" fill="#FFFFFF" cx="76.375" cy="40.474" r="10.771"/>
		<circle i:knockout="Off" fill="#FFFFFF" cx="69.596" cy="59.753" r="10.771"/>
		<circle i:knockout="Off" fill="#FFFFFF" cx="45.368" cy="29.49" r="10.771"/>
		<circle i:knockout="Off" fill="#FFFFFF" cx="45.368" cy="51.099" r="10.771"/>
		<circle i:knockout="Off" fill="#FFFFFF" cx="24.573" cy="29.49" r="10.771"/>
		<circle i:knockout="Off" fill="#FFFFFF" cx="24.573" cy="51.099" r="10.771"/>
		<path i:knockout="Off" fill="#D90000" d="M56.141,29.488c0-5.947-4.824-10.77-10.773-10.77s-10.771,4.822-10.771,10.77
			c0,5.949,4.822,10.773,10.771,10.773S56.141,35.437,56.141,29.488z M38.131,29.488c0-3.996,3.24-7.234,7.236-7.234
			s7.236,3.238,7.236,7.234s-3.24,7.236-7.236,7.236S38.131,33.484,38.131,29.488z M50.583,29.488c0-2.877-2.334-5.211-5.215-5.211
			c-2.879,0-5.213,2.334-5.213,5.211c0,2.881,2.334,5.215,5.213,5.215C48.249,34.703,50.583,32.369,50.583,29.488z M42.022,29.488
			c0-1.846,1.498-3.346,3.346-3.346c1.85,0,3.348,1.5,3.348,3.346c0,1.85-1.498,3.348-3.348,3.348
			C43.52,32.835,42.022,31.337,42.022,29.488z M46.813,29.488c0-0.797-0.646-1.441-1.445-1.441c-0.797,0-1.441,0.645-1.441,1.441
			s0.645,1.441,1.441,1.441C46.167,30.929,46.813,30.285,46.813,29.488z"/>
		<path i:knockout="Off" fill="#D90000" d="M56.141,51.097c0-5.947-4.824-10.77-10.773-10.77s-10.771,4.822-10.771,10.77
			c0,5.949,4.822,10.773,10.771,10.773S56.141,57.046,56.141,51.097z M38.131,51.097c0-3.996,3.24-7.234,7.236-7.234
			s7.236,3.238,7.236,7.234s-3.24,7.236-7.236,7.236S38.131,55.093,38.131,51.097z M50.583,51.097c0-2.877-2.334-5.211-5.215-5.211
			c-2.879,0-5.213,2.334-5.213,5.211c0,2.881,2.334,5.215,5.213,5.215C48.249,56.312,50.583,53.978,50.583,51.097z M42.022,51.097
			c0-1.846,1.498-3.346,3.346-3.346c1.85,0,3.348,1.5,3.348,3.346c0,1.85-1.498,3.348-3.348,3.348
			C43.52,54.445,42.022,52.947,42.022,51.097z M46.813,51.097c0-0.797-0.646-1.441-1.445-1.441c-0.797,0-1.441,0.645-1.441,1.441
			s0.645,1.441,1.441,1.441C46.167,52.539,46.813,51.894,46.813,51.097z"/>
		<path i:knockout="Off" fill="#D90000" d="M35.344,29.488c0-5.947-4.822-10.77-10.771-10.77s-10.771,4.822-10.771,10.77
			c0,5.949,4.822,10.773,10.771,10.773S35.344,35.437,35.344,29.488z M17.336,29.488c0-3.996,3.238-7.234,7.236-7.234
			c3.996,0,7.236,3.238,7.236,7.234s-3.24,7.236-7.236,7.236C20.575,36.724,17.336,33.484,17.336,29.488z M29.786,29.488
			c0-2.877-2.334-5.211-5.213-5.211s-5.213,2.334-5.213,5.211c0,2.881,2.334,5.215,5.213,5.215S29.786,32.369,29.786,29.488z
			 M21.227,29.488c0-1.846,1.498-3.346,3.346-3.346s3.348,1.5,3.348,3.346c0,1.85-1.5,3.348-3.348,3.348
			S21.227,31.337,21.227,29.488z M26.016,29.488c0-0.797-0.645-1.441-1.443-1.441c-0.797,0-1.441,0.645-1.441,1.441
			s0.645,1.441,1.441,1.441C25.372,30.929,26.016,30.285,26.016,29.488z"/>
		<path i:knockout="Off" fill="#D90000" d="M35.344,51.097c0-5.947-4.822-10.77-10.771-10.77s-10.771,4.822-10.771,10.77
			c0,5.949,4.822,10.773,10.771,10.773S35.344,57.046,35.344,51.097z M17.336,51.097c0-3.996,3.238-7.234,7.236-7.234
			c3.996,0,7.236,3.238,7.236,7.234s-3.24,7.236-7.236,7.236C20.575,58.333,17.336,55.093,17.336,51.097z M29.786,51.097
			c0-2.877-2.334-5.211-5.213-5.211s-5.213,2.334-5.213,5.211c0,2.881,2.334,5.215,5.213,5.215S29.786,53.978,29.786,51.097z
			 M21.227,51.097c0-1.846,1.498-3.346,3.346-3.346s3.348,1.5,3.348,3.346c0,1.85-1.5,3.348-3.348,3.348
			S21.227,52.947,21.227,51.097z M26.016,51.097c0-0.797-0.645-1.441-1.443-1.441c-0.797,0-1.441,0.645-1.441,1.441
			s0.645,1.441,1.441,1.441C25.372,52.539,26.016,51.894,26.016,51.097z"/>
		<path i:knockout="Off" fill="#1D8F38" d="M94.661,25.193c2.01-5.598-0.9-11.764-6.5-13.773c-5.598-2.006-11.764,0.902-13.771,6.5
			s0.9,11.764,6.498,13.773C86.487,33.703,92.653,30.789,94.661,25.193z M82.081,28.363c-3.76-1.348-5.713-5.49-4.365-9.25
			c1.35-3.76,5.492-5.715,9.252-4.365s5.717,5.49,4.367,9.252C89.985,27.759,85.84,29.712,82.081,28.363z M89.43,23.316
			c0.971-2.709-0.438-5.691-3.145-6.664c-2.709-0.973-5.693,0.436-6.664,3.145c-0.975,2.709,0.434,5.693,3.145,6.666
			C85.473,27.433,88.458,26.027,89.43,23.316z M83.395,24.707c-1.738-0.627-2.643-2.541-2.018-4.279
			c0.623-1.74,2.539-2.645,4.279-2.02c1.738,0.623,2.643,2.539,2.018,4.279C87.051,24.425,85.135,25.33,83.395,24.707z
			 M85.883,22.042c0.268-0.748-0.121-1.574-0.869-1.842c-0.75-0.27-1.576,0.119-1.844,0.869c-0.27,0.748,0.119,1.574,0.869,1.844
			C84.79,23.181,85.614,22.792,85.883,22.042z"/>
		<path i:knockout="Off" fill="#1D8F38" d="M86.51,44.111c2.008-5.598-0.9-11.764-6.5-13.773c-5.598-2.01-11.764,0.9-13.771,6.498
			c-2.01,5.598,0.898,11.766,6.496,13.773C78.334,52.619,84.502,49.708,86.51,44.111z M73.93,47.281
			c-3.76-1.35-5.715-5.492-4.365-9.252s5.492-5.713,9.252-4.365s5.715,5.492,4.365,9.252C81.834,46.675,77.69,48.63,73.93,47.281z
			 M81.278,42.232c0.973-2.707-0.436-5.691-3.143-6.662c-2.711-0.973-5.695,0.436-6.666,3.143c-0.973,2.711,0.436,5.693,3.146,6.666
			C77.323,46.349,80.307,44.943,81.278,42.232z M75.245,43.623c-1.74-0.625-2.643-2.541-2.02-4.279
			c0.625-1.738,2.541-2.643,4.279-2.018c1.738,0.621,2.643,2.539,2.02,4.277C78.901,43.343,76.983,44.248,75.245,43.623z
			 M77.731,40.958c0.27-0.748-0.119-1.574-0.869-1.842s-1.574,0.121-1.844,0.869c-0.268,0.75,0.121,1.574,0.871,1.846
			C76.637,42.099,77.463,41.71,77.731,40.958z"/>
		<path i:knockout="Off" fill="#1D8F38" d="M79.733,63.39c2.01-5.598-0.9-11.764-6.5-13.773c-5.598-2.01-11.764,0.902-13.771,6.498
			c-2.01,5.6,0.9,11.766,6.496,13.773C71.557,71.898,77.725,68.988,79.733,63.39z M67.153,66.56c-3.76-1.35-5.715-5.49-4.365-9.252
			c1.35-3.76,5.492-5.713,9.252-4.365c3.76,1.35,5.715,5.492,4.367,9.254C75.057,65.955,70.915,67.912,67.153,66.56z M74.502,61.513
			c0.973-2.709-0.436-5.693-3.145-6.664c-2.711-0.973-5.695,0.436-6.666,3.143c-0.973,2.711,0.436,5.695,3.146,6.666
			C70.545,65.63,73.53,64.222,74.502,61.513z M68.467,62.902c-1.74-0.625-2.643-2.539-2.018-4.279
			c0.623-1.738,2.539-2.643,4.277-2.018c1.738,0.621,2.645,2.539,2.02,4.279C72.124,62.623,70.206,63.525,68.467,62.902z
			 M70.956,60.24c0.268-0.75-0.121-1.576-0.871-1.844s-1.574,0.121-1.844,0.869c-0.27,0.75,0.121,1.576,0.871,1.846
			C69.86,61.378,70.686,60.99,70.956,60.24z"/>
	</g>
</g>
</svg>
