<?xml version="1.0" encoding="utf-8"?>
<!-- Generator: Adobe Illustrator 12.0.0, SVG Export Plug-In . SVG Version: 6.00 Build 51448)  -->
<!DOCTYPE svg PUBLIC "-//W3C//DTD SVG 1.1//EN" "http://www.w3.org/Graphics/SVG/1.1/DTD/svg11.dtd" [
	<!ENTITY ns_flows "http://ns.adobe.com/Flows/1.0/">
	<!ENTITY ns_extend "http://ns.adobe.com/Extensibility/1.0/">
	<!ENTITY ns_ai "http://ns.adobe.com/AdobeIllustrator/10.0/">
	<!ENTITY ns_graphs "http://ns.adobe.com/Graphs/1.0/">
	<!ENTITY ns_vars "http://ns.adobe.com/Variables/1.0/">
	<!ENTITY ns_imrep "http://ns.adobe.com/ImageReplacement/1.0/">
	<!ENTITY ns_sfw "http://ns.adobe.com/SaveForWeb/1.0/">
	<!ENTITY ns_custom "http://ns.adobe.com/GenericCustomNamespace/1.0/">
	<!ENTITY ns_adobe_xpath "http://ns.adobe.com/XPath/1.0/">
	<!ENTITY ns_svg "http://www.w3.org/2000/svg">
	<!ENTITY ns_xlink "http://www.w3.org/1999/xlink">
]>
<svg  version="1.1"
	 xmlns:x="&ns_extend;" xmlns:i="&ns_ai;" xmlns:graph="&ns_graphs;" i:viewOrigin="-0.3208 113.645" i:rulerOrigin="0 0" i:pageBounds="0 113 108 0"
	 xmlns="&ns_svg;" xmlns:xlink="&ns_xlink;" xmlns:a="http://ns.adobe.com/AdobeSVGViewerExtensions/3.0/"
	 width="109.1" height="113.832" viewBox="0 0 109.1 113.832" overflow="visible" enable-background="new 0 0 109.1 113.832"
	 xml:space="preserve">
<metadata>
	<variableSets  xmlns="&ns_vars;">
		<variableSet  varSetName="binding1" locked="none">
			<variables></variables>
			<v:sampleDataSets  xmlns="&ns_custom;" xmlns:v="&ns_vars;"></v:sampleDataSets>
		</variableSet>
	</variableSets>
</metadata>
<g id="图层_1" i:layer="yes" i:dimmedPercent="50" i:rgbTrio="#4F008000FFFF">
	<g>
		
			<linearGradient id="XMLID_3_" gradientUnits="userSpaceOnUse" x1="935.4341" y1="81.0015" x2="1020.2271" y2="81.0015" gradientTransform="matrix(0 -1 1 0 -26.8223 1049.0791)">
			<stop  offset="0.1348" style="stop-color:#1889BC"/>
			<stop  offset="0.2247" style="stop-color:#C4E9F2"/>
			<a:midPointStop  offset="0.1348" style="stop-color:#1889BC"/>
			<a:midPointStop  offset="0.5" style="stop-color:#1889BC"/>
			<a:midPointStop  offset="0.2247" style="stop-color:#C4E9F2"/>
		</linearGradient>
		<path i:knockout="Off" fill="url(#XMLID_3_)" stroke="#000000" stroke-width="0.3739" d="M100.037,28.852
			c4.418,0,8.001,3.42,8.001,7.638v69.518c0,4.218-3.583,7.638-8.001,7.638H8.321c-4.418,0-8-3.42-8-7.638V36.49
			c0-4.218,3.582-7.638,8-7.638H100.037z"/>
		<path i:knockout="Off" fill="#FFFFFF" stroke="#000000" stroke-width="0.6414" d="M8.377,85.36c-4.449,0-8.057-3.43-8.057-7.66
			V7.98c0-4.23,3.607-7.659,8.057-7.659h92.348c4.447,0,8.055,3.429,8.055,7.659V77.7c0,4.23-3.607,7.66-8.055,7.66H8.377z"/>
		
			<linearGradient id="XMLID_4_" gradientUnits="userSpaceOnUse" x1="-229.9092" y1="-254.2622" x2="-144.8701" y2="-254.2622" gradientTransform="matrix(0 1 -1 0 -199.7119 230.23)">
			<stop  offset="0" style="stop-color:#A3DDEA"/>
			<stop  offset="0.0899" style="stop-color:#0678B3"/>
			<stop  offset="0.2135" style="stop-color:#094C91"/>
			<stop  offset="0.6404" style="stop-color:#2890C0"/>
			<stop  offset="0.8034" style="stop-color:#82D0E3"/>
			<stop  offset="1" style="stop-color:#09468C"/>
			<a:midPointStop  offset="0" style="stop-color:#A3DDEA"/>
			<a:midPointStop  offset="0.5" style="stop-color:#A3DDEA"/>
			<a:midPointStop  offset="0.0899" style="stop-color:#0678B3"/>
			<a:midPointStop  offset="0.5" style="stop-color:#0678B3"/>
			<a:midPointStop  offset="0.2135" style="stop-color:#094C91"/>
			<a:midPointStop  offset="0.5" style="stop-color:#094C91"/>
			<a:midPointStop  offset="0.6404" style="stop-color:#2890C0"/>
			<a:midPointStop  offset="0.5" style="stop-color:#2890C0"/>
			<a:midPointStop  offset="0.8034" style="stop-color:#82D0E3"/>
			<a:midPointStop  offset="0.5" style="stop-color:#82D0E3"/>
			<a:midPointStop  offset="1" style="stop-color:#09468C"/>
		</linearGradient>
		<path i:knockout="Off" opacity="0.1" fill="url(#XMLID_4_)" stroke="#000000" stroke-width="0.6414" d="M8.377,85.36
			c-4.449,0-8.057-3.43-8.057-7.66V7.98c0-4.23,3.607-7.659,8.057-7.659h92.348c4.448,0,8.055,3.429,8.055,7.659V77.7
			c0,4.23-3.606,7.66-8.055,7.66H8.377z"/>
		<circle i:knockout="Off" fill="#FFFFFF" cx="83.337" cy="29.489" r="10.771"/>
		<circle i:knockout="Off" fill="#FFFFFF" cx="83.337" cy="51.821" r="10.771"/>
		<circle i:knockout="Off" fill="#FFFFFF" cx="64.146" cy="29.489" r="10.771"/>
		<circle i:knockout="Off" fill="#FFFFFF" cx="64.146" cy="51.821" r="10.771"/>
		<circle i:knockout="Off" fill="#FFFFFF" cx="44.955" cy="29.489" r="10.771"/>
		<circle i:knockout="Off" fill="#FFFFFF" cx="44.955" cy="51.821" r="10.771"/>
		<circle i:knockout="Off" fill="#FFFFFF" cx="25.763" cy="29.489" r="10.771"/>
		<circle i:knockout="Off" fill="#FFFFFF" cx="25.763" cy="51.821" r="10.771"/>
		<path i:knockout="Off" fill="#224899" d="M94.111,29.489c0-5.949-4.824-10.771-10.773-10.771S72.564,23.54,72.564,29.489
			S77.388,40.26,83.337,40.26S94.111,35.438,94.111,29.489z M76.101,29.489c0-3.996,3.24-7.236,7.236-7.236s7.236,3.24,7.236,7.236
			s-3.24,7.236-7.236,7.236S76.101,33.485,76.101,29.489z M88.55,29.489c0-2.881-2.334-5.215-5.213-5.215s-5.213,2.334-5.213,5.215
			c0,2.877,2.334,5.211,5.213,5.211S88.55,32.366,88.55,29.489z M79.992,29.489c0-1.85,1.498-3.348,3.346-3.348
			c1.85,0,3.348,1.498,3.348,3.348c0,1.848-1.498,3.346-3.348,3.346C81.49,32.834,79.992,31.336,79.992,29.489z M84.781,29.489
			c0-0.797-0.645-1.443-1.443-1.443c-0.795,0-1.441,0.646-1.441,1.443s0.646,1.441,1.441,1.441
			C84.136,30.93,84.781,30.286,84.781,29.489z"/>
		<path i:knockout="Off" fill="#224899" d="M94.109,51.821c0-5.949-4.822-10.771-10.771-10.771s-10.771,4.822-10.771,10.771
			c0,5.947,4.822,10.771,10.771,10.771S94.109,57.768,94.109,51.821z M76.101,51.821c0-3.996,3.24-7.236,7.236-7.236
			s7.236,3.24,7.236,7.236s-3.24,7.234-7.236,7.234S76.101,55.817,76.101,51.821z M88.55,51.821c0-2.879-2.334-5.213-5.213-5.213
			s-5.211,2.334-5.211,5.213s2.332,5.213,5.211,5.213S88.55,54.7,88.55,51.821z M79.992,51.821c0-1.848,1.498-3.348,3.346-3.348
			c1.85,0,3.348,1.5,3.348,3.348s-1.498,3.346-3.348,3.346C81.49,55.167,79.992,53.668,79.992,51.821z M84.781,51.821
			c0-0.797-0.645-1.441-1.443-1.441c-0.795,0-1.441,0.645-1.441,1.441s0.646,1.441,1.441,1.441
			C84.136,53.262,84.781,52.618,84.781,51.821z"/>
		<path i:knockout="Off" fill="#224899" d="M74.919,29.489c0-5.949-4.824-10.771-10.773-10.771S53.373,23.54,53.373,29.489
			S58.197,40.26,64.146,40.26S74.919,35.438,74.919,29.489z M56.91,29.489c0-3.996,3.24-7.236,7.236-7.236s7.236,3.24,7.236,7.236
			s-3.24,7.236-7.236,7.236S56.91,33.485,56.91,29.489z M69.359,29.489c0-2.881-2.334-5.215-5.213-5.215s-5.213,2.334-5.213,5.215
			c0,2.877,2.334,5.211,5.213,5.211S69.359,32.366,69.359,29.489z M60.8,29.489c0-1.85,1.498-3.348,3.346-3.348
			c1.85,0,3.348,1.498,3.348,3.348c0,1.848-1.498,3.346-3.348,3.346C62.298,32.834,60.8,31.336,60.8,29.489z M65.589,29.489
			c0-0.797-0.645-1.443-1.443-1.443c-0.795,0-1.441,0.646-1.441,1.443s0.646,1.441,1.441,1.441
			C64.945,30.93,65.589,30.286,65.589,29.489z"/>
		<path i:knockout="Off" fill="#224899" d="M74.917,51.821c0-5.949-4.822-10.771-10.771-10.771s-10.771,4.822-10.771,10.771
			c0,5.947,4.822,10.771,10.771,10.771S74.917,57.768,74.917,51.821z M56.91,51.821c0-3.996,3.24-7.236,7.236-7.236
			s7.236,3.24,7.236,7.236s-3.24,7.234-7.236,7.234S56.91,55.817,56.91,51.821z M69.359,51.821c0-2.879-2.334-5.213-5.213-5.213
			s-5.211,2.334-5.211,5.213s2.332,5.213,5.211,5.213S69.359,54.7,69.359,51.821z M60.8,51.821c0-1.848,1.498-3.348,3.346-3.348
			c1.85,0,3.348,1.5,3.348,3.348s-1.498,3.346-3.348,3.346C62.298,55.167,60.8,53.668,60.8,51.821z M65.589,51.821
			c0-0.797-0.645-1.441-1.443-1.441c-0.795,0-1.441,0.645-1.441,1.441s0.646,1.441,1.441,1.441
			C64.945,53.262,65.589,52.618,65.589,51.821z"/>
		<path i:knockout="Off" fill="#224899" d="M55.728,29.489c0-5.949-4.824-10.771-10.773-10.771S34.181,23.54,34.181,29.489
			S39.005,40.26,44.955,40.26S55.728,35.438,55.728,29.489z M37.718,29.489c0-3.996,3.24-7.236,7.236-7.236s7.236,3.24,7.236,7.236
			s-3.24,7.236-7.236,7.236S37.718,33.485,37.718,29.489z M50.167,29.489c0-2.881-2.334-5.215-5.213-5.215s-5.213,2.334-5.213,5.215
			c0,2.877,2.334,5.211,5.213,5.211S50.167,32.366,50.167,29.489z M41.609,29.489c0-1.85,1.498-3.348,3.346-3.348
			c1.85,0,3.348,1.498,3.348,3.348c0,1.848-1.498,3.346-3.348,3.346C43.107,32.834,41.609,31.336,41.609,29.489z M46.398,29.489
			c0-0.797-0.645-1.443-1.443-1.443c-0.797,0-1.441,0.646-1.441,1.443s0.645,1.441,1.441,1.441
			C45.753,30.93,46.398,30.286,46.398,29.489z"/>
		<path i:knockout="Off" fill="#224899" d="M55.726,51.821c0-5.949-4.822-10.771-10.771-10.771s-10.771,4.822-10.771,10.771
			c0,5.947,4.822,10.771,10.771,10.771S55.726,57.768,55.726,51.821z M37.718,51.821c0-3.996,3.24-7.236,7.236-7.236
			s7.236,3.24,7.236,7.236s-3.24,7.234-7.236,7.234S37.718,55.817,37.718,51.821z M50.167,51.821c0-2.879-2.334-5.213-5.213-5.213
			s-5.213,2.334-5.213,5.213s2.334,5.213,5.213,5.213S50.167,54.7,50.167,51.821z M41.609,51.821c0-1.848,1.498-3.348,3.346-3.348
			s3.348,1.5,3.348,3.348s-1.5,3.346-3.348,3.346S41.609,53.668,41.609,51.821z M46.398,51.821c0-0.797-0.645-1.441-1.443-1.441
			c-0.797,0-1.441,0.645-1.441,1.441s0.645,1.441,1.441,1.441C45.753,53.262,46.398,52.618,46.398,51.821z"/>
		<path i:knockout="Off" fill="#224899" d="M36.537,29.489c0-5.949-4.824-10.771-10.773-10.771S14.99,23.54,14.99,29.489
			S19.814,40.26,25.763,40.26S36.537,35.438,36.537,29.489z M18.527,29.489c0-3.996,3.24-7.236,7.236-7.236S33,25.493,33,29.489
			s-3.24,7.236-7.236,7.236S18.527,33.485,18.527,29.489z M30.976,29.489c0-2.881-2.334-5.215-5.213-5.215s-5.213,2.334-5.213,5.215
			c0,2.877,2.334,5.211,5.213,5.211S30.976,32.366,30.976,29.489z M22.417,29.489c0-1.85,1.498-3.348,3.346-3.348
			c1.85,0,3.348,1.498,3.348,3.348c0,1.848-1.498,3.346-3.348,3.346C23.916,32.834,22.417,31.336,22.417,29.489z M27.207,29.489
			c0-0.797-0.645-1.443-1.443-1.443c-0.797,0-1.441,0.646-1.441,1.443s0.645,1.441,1.441,1.441
			C26.562,30.93,27.207,30.286,27.207,29.489z"/>
		<path i:knockout="Off" fill="#224899" d="M36.535,51.821c0-5.949-4.822-10.771-10.771-10.771s-10.771,4.822-10.771,10.771
			c0,5.947,4.822,10.771,10.771,10.771S36.535,57.768,36.535,51.821z M18.527,51.821c0-3.996,3.24-7.236,7.236-7.236
			S33,47.825,33,51.821s-3.24,7.234-7.236,7.234S18.527,55.817,18.527,51.821z M30.976,51.821c0-2.879-2.334-5.213-5.213-5.213
			s-5.213,2.334-5.213,5.213s2.334,5.213,5.213,5.213S30.976,54.7,30.976,51.821z M22.417,51.821c0-1.848,1.498-3.348,3.346-3.348
			s3.348,1.5,3.348,3.348s-1.5,3.346-3.348,3.346S22.417,53.668,22.417,51.821z M27.207,51.821c0-0.797-0.645-1.441-1.443-1.441
			c-0.797,0-1.441,0.645-1.441,1.441s0.645,1.441,1.441,1.441C26.562,53.262,27.207,52.618,27.207,51.821z"/>
	</g>
</g>
</svg>
