<?xml version="1.0" encoding="utf-8"?>
<!-- Generator: Adobe Illustrator 12.0.0, SVG Export Plug-In . SVG Version: 6.00 Build 51448)  -->
<!DOCTYPE svg PUBLIC "-//W3C//DTD SVG 1.1//EN" "http://www.w3.org/Graphics/SVG/1.1/DTD/svg11.dtd" [
	<!ENTITY ns_flows "http://ns.adobe.com/Flows/1.0/">
	<!ENTITY ns_extend "http://ns.adobe.com/Extensibility/1.0/">
	<!ENTITY ns_ai "http://ns.adobe.com/AdobeIllustrator/10.0/">
	<!ENTITY ns_graphs "http://ns.adobe.com/Graphs/1.0/">
	<!ENTITY ns_vars "http://ns.adobe.com/Variables/1.0/">
	<!ENTITY ns_imrep "http://ns.adobe.com/ImageReplacement/1.0/">
	<!ENTITY ns_sfw "http://ns.adobe.com/SaveForWeb/1.0/">
	<!ENTITY ns_custom "http://ns.adobe.com/GenericCustomNamespace/1.0/">
	<!ENTITY ns_adobe_xpath "http://ns.adobe.com/XPath/1.0/">
	<!ENTITY ns_svg "http://www.w3.org/2000/svg">
	<!ENTITY ns_xlink "http://www.w3.org/1999/xlink">
]>
<svg  version="1.1"
	 xmlns:x="&ns_extend;" xmlns:i="&ns_ai;" xmlns:graph="&ns_graphs;" i:viewOrigin="-0.3208 113.645" i:rulerOrigin="0 0" i:pageBounds="0 113 108 0"
	 xmlns="&ns_svg;" xmlns:xlink="&ns_xlink;" xmlns:a="http://ns.adobe.com/AdobeSVGViewerExtensions/3.0/"
	 width="109.1" height="113.832" viewBox="0 0 109.1 113.832" overflow="visible" enable-background="new 0 0 109.1 113.832"
	 xml:space="preserve">
<metadata>
	<variableSets  xmlns="http://ns.adobe.com/Variables/1.0/">
		<variableSet  locked="none" varSetName="binding1">
			<variables></variables>
			<v:sampleDataSets  xmlns:v="http://ns.adobe.com/Variables/1.0/" xmlns="http://ns.adobe.com/GenericCustomNamespace/1.0/">
				</v:sampleDataSets>
		</variableSet>
	</variableSets>
</metadata>
<g id="图层_1" i:knockout="Off" i:layer="yes" i:dimmedPercent="50" i:rgbTrio="#4F008000FFFF">
	<g i:knockout="Off">
		
			<linearGradient id="XMLID_135_" gradientUnits="userSpaceOnUse" x1="935.7534" y1="32.644" x2="1020.5474" y2="32.644" gradientTransform="matrix(4.489659e-11 -1 1 4.489659e-11 22.2764 1049.3994)">
			<stop  offset="0.1348" style="stop-color:#1889BC"/>
			<stop  offset="0.2247" style="stop-color:#C4E9F2"/>
			<a:midPointStop  offset="0.1348" style="stop-color:#1889BC"/>
			<a:midPointStop  offset="0.5" style="stop-color:#1889BC"/>
			<a:midPointStop  offset="0.2247" style="stop-color:#C4E9F2"/>
		</linearGradient>
		<path fill="url(#XMLID_135_)" stroke="#000000" stroke-width="0.3739" d="M100.779,28.852c4.418,0,8,3.42,8,7.638v69.518
			c0,4.218-3.582,7.638-8,7.638H9.063c-4.418,0-8.001-3.42-8.001-7.638V36.49c0-4.218,3.583-7.638,8.001-7.638H100.779z"/>
		<path fill="#FFFFFF" stroke="#000000" stroke-width="0.6414" d="M8.375,85.36c-4.448,0-8.055-3.43-8.055-7.66V7.98
			c0-4.23,3.607-7.659,8.055-7.659h92.349c4.449,0,8.057,3.429,8.057,7.659V77.7c0,4.23-3.608,7.66-8.057,7.66H8.375z"/>
		
			<linearGradient id="XMLID_136_" gradientUnits="userSpaceOnUse" x1="-229.5884" y1="367.9067" x2="-144.5493" y2="367.9067" gradientTransform="matrix(-4.489659e-11 1 -1 -4.489659e-11 422.4561 229.9092)">
			<stop  offset="0" style="stop-color:#A3DDEA"/>
			<stop  offset="0.0899" style="stop-color:#0678B3"/>
			<stop  offset="0.2135" style="stop-color:#094C91"/>
			<stop  offset="0.6404" style="stop-color:#2890C0"/>
			<stop  offset="0.8034" style="stop-color:#82D0E3"/>
			<stop  offset="1" style="stop-color:#09468C"/>
			<a:midPointStop  offset="0" style="stop-color:#A3DDEA"/>
			<a:midPointStop  offset="0.5" style="stop-color:#A3DDEA"/>
			<a:midPointStop  offset="0.0899" style="stop-color:#0678B3"/>
			<a:midPointStop  offset="0.5" style="stop-color:#0678B3"/>
			<a:midPointStop  offset="0.2135" style="stop-color:#094C91"/>
			<a:midPointStop  offset="0.5" style="stop-color:#094C91"/>
			<a:midPointStop  offset="0.6404" style="stop-color:#2890C0"/>
			<a:midPointStop  offset="0.5" style="stop-color:#2890C0"/>
			<a:midPointStop  offset="0.8034" style="stop-color:#82D0E3"/>
			<a:midPointStop  offset="0.5" style="stop-color:#82D0E3"/>
			<a:midPointStop  offset="1" style="stop-color:#09468C"/>
		</linearGradient>
		
			<path i:isolated="yes" i:knockout="Off" opacity="0.1" fill="url(#XMLID_136_)" stroke="#000000" stroke-width="0.6414" enable-background="new    " d="
			M8.375,85.36c-4.449,0-8.055-3.43-8.055-7.66V7.98c0-4.23,3.606-7.659,8.055-7.659h92.349c4.449,0,8.057,3.429,8.057,7.659V77.7
			c0,4.23-3.608,7.66-8.057,7.66H8.375z"/>
		<circle fill="#FFFFFF" cx="25.41" cy="20.092" r="10.771"/>
		<circle fill="#FFFFFF" cx="25.41" cy="40.717" r="10.771"/>
		<circle fill="#FFFFFF" cx="25.41" cy="61.217" r="10.771"/>
		<circle fill="#FFFFFF" cx="53.862" cy="20.092" r="10.771"/>
		<circle fill="#FFFFFF" cx="53.862" cy="40.717" r="10.771"/>
		<circle fill="#FFFFFF" cx="53.862" cy="61.217" r="10.771"/>
		<circle fill="#FFFFFF" cx="83.689" cy="20.092" r="10.771"/>
		<circle fill="#FFFFFF" cx="83.689" cy="40.717" r="10.771"/>
		<circle fill="#FFFFFF" cx="83.689" cy="61.217" r="10.771"/>
		<path fill="#224899" d="M25.413,30.863c5.949,0,10.773-4.822,10.773-10.771c0-5.949-4.824-10.771-10.773-10.771
			s-10.773,4.822-10.773,10.771C14.639,26.042,19.463,30.863,25.413,30.863z M25.413,27.328c-3.996,0-7.236-3.24-7.236-7.236
			c0-3.996,3.24-7.236,7.236-7.236c3.998,0,7.236,3.24,7.236,7.236C32.649,24.088,29.411,27.329,25.413,27.328z M25.413,25.303
			c2.879,0,5.213-2.334,5.213-5.211c0-2.881-2.334-5.215-5.213-5.215S20.2,17.211,20.2,20.092
			C20.2,22.969,22.534,25.303,25.413,25.303z M25.413,23.438c-1.848,0-3.348-1.498-3.348-3.346c0-1.85,1.5-3.348,3.348-3.348
			s3.346,1.498,3.346,3.348C28.758,21.94,27.26,23.438,25.413,23.438z M25.413,21.533c0.796,0,1.441-0.644,1.441-1.441
			c0-0.797-0.645-1.443-1.441-1.443s-1.443,0.646-1.443,1.443C23.969,20.889,24.617,21.533,25.413,21.533z"/>
		<path fill="#224899" d="M25.413,51.488c5.949,0,10.773-4.822,10.773-10.771c0-5.949-4.824-10.771-10.773-10.771
			s-10.773,4.822-10.773,10.771C14.639,46.667,19.463,51.488,25.413,51.488z M25.413,47.953c-3.996,0-7.236-3.24-7.236-7.236
			c0-3.996,3.24-7.236,7.236-7.236c3.998,0,7.236,3.24,7.236,7.236C32.649,44.713,29.411,47.954,25.413,47.953z M25.413,45.928
			c2.879,0,5.213-2.334,5.213-5.211c0-2.881-2.334-5.215-5.213-5.215S20.2,37.836,20.2,40.717
			C20.2,43.594,22.534,45.928,25.413,45.928z M25.413,44.063c-1.848,0-3.348-1.498-3.348-3.346c0-1.85,1.5-3.348,3.348-3.348
			s3.346,1.498,3.346,3.348C28.758,42.565,27.26,44.063,25.413,44.063z M25.413,42.158c0.796,0,1.441-0.644,1.441-1.441
			c0-0.797-0.645-1.443-1.441-1.443s-1.443,0.646-1.443,1.443C23.969,41.514,24.617,42.158,25.413,42.158z"/>
		<path fill="#224899" d="M25.413,71.988c5.949,0,10.773-4.821,10.773-10.771s-4.824-10.771-10.773-10.771
			s-10.773,4.822-10.773,10.771C14.639,67.167,19.463,71.988,25.413,71.988z M25.413,68.453c-3.996,0-7.236-3.239-7.236-7.235
			s3.24-7.236,7.236-7.236c3.998,0,7.236,3.24,7.236,7.236S29.411,68.454,25.413,68.453z M25.413,66.428
			c2.879,0,5.213-2.334,5.213-5.211c0-2.881-2.334-5.215-5.213-5.215S20.2,58.336,20.2,61.217
			C20.2,64.094,22.534,66.428,25.413,66.428z M25.413,64.563c-1.848,0-3.348-1.498-3.348-3.346c0-1.851,1.5-3.349,3.348-3.349
			s3.346,1.498,3.346,3.349C28.758,63.065,27.26,64.563,25.413,64.563z M25.413,62.658c0.796,0,1.441-0.644,1.441-1.44
			s-0.645-1.443-1.441-1.443s-1.443,0.646-1.443,1.443S24.617,62.658,25.413,62.658z"/>
		<path fill="#D90000" d="M53.862,30.863c5.949,0,10.771-4.822,10.771-10.771c0-5.949-4.822-10.771-10.771-10.771
			s-10.773,4.822-10.773,10.771C43.088,26.042,47.913,30.863,53.862,30.863z M53.863,27.328c-3.996,0-7.236-3.24-7.236-7.236
			c0-3.996,3.24-7.236,7.236-7.236c3.995,0,7.235,3.24,7.235,7.236C61.098,24.088,57.858,27.328,53.863,27.328z M53.859,25.303
			c2.881,0,5.215-2.334,5.215-5.211c0-2.881-2.334-5.215-5.215-5.215c-2.878,0-5.212,2.334-5.212,5.215
			C48.647,22.969,50.981,25.303,53.859,25.303z M53.859,23.438c-1.848,0-3.346-1.498-3.346-3.346c0-1.85,1.498-3.348,3.346-3.348
			c1.85,0,3.348,1.498,3.348,3.348C57.208,21.94,55.709,23.438,53.859,23.438z M53.859,21.533c0.797,0,1.443-0.644,1.443-1.441
			c0-0.797-0.647-1.443-1.443-1.443c-0.795,0-1.441,0.646-1.441,1.443C52.418,20.889,53.063,21.533,53.859,21.533z"/>
		<path fill="#D90000" d="M53.862,51.488c5.949,0,10.771-4.822,10.771-10.771c0-5.949-4.822-10.771-10.771-10.771
			s-10.773,4.822-10.773,10.771C43.088,46.667,47.913,51.488,53.862,51.488z M53.863,47.953c-3.996,0-7.236-3.24-7.236-7.236
			c0-3.996,3.24-7.236,7.236-7.236c3.995,0,7.235,3.24,7.235,7.236C61.098,44.713,57.858,47.953,53.863,47.953z M53.859,45.928
			c2.881,0,5.215-2.334,5.215-5.211c0-2.881-2.334-5.215-5.215-5.215c-2.878,0-5.212,2.334-5.212,5.215
			C48.647,43.594,50.981,45.928,53.859,45.928z M53.859,44.063c-1.848,0-3.346-1.498-3.346-3.346c0-1.85,1.498-3.348,3.346-3.348
			c1.85,0,3.348,1.498,3.348,3.348C57.208,42.565,55.709,44.063,53.859,44.063z M53.859,42.158c0.797,0,1.443-0.644,1.443-1.441
			c0-0.797-0.647-1.443-1.443-1.443c-0.795,0-1.441,0.646-1.441,1.443C52.418,41.514,53.063,42.158,53.859,42.158z"/>
		<path fill="#D90000" d="M53.862,71.988c5.949,0,10.771-4.821,10.771-10.771s-4.822-10.771-10.771-10.771
			s-10.773,4.822-10.773,10.771C43.088,67.167,47.913,71.988,53.862,71.988z M53.863,68.453c-3.996,0-7.236-3.239-7.236-7.235
			s3.24-7.236,7.236-7.236c3.995,0,7.235,3.24,7.235,7.236S57.858,68.453,53.863,68.453z M53.859,66.428
			c2.881,0,5.215-2.334,5.215-5.211c0-2.881-2.334-5.215-5.215-5.215c-2.878,0-5.212,2.334-5.212,5.215
			C48.647,64.094,50.981,66.428,53.859,66.428z M53.859,64.563c-1.848,0-3.346-1.498-3.346-3.346c0-1.851,1.498-3.349,3.346-3.349
			c1.85,0,3.348,1.498,3.348,3.349C57.208,63.065,55.709,64.563,53.859,64.563z M53.859,62.658c0.797,0,1.443-0.644,1.443-1.44
			s-0.647-1.443-1.443-1.443c-0.795,0-1.441,0.646-1.441,1.443S53.063,62.658,53.859,62.658z"/>
		<path fill="#1D8F38" d="M83.69,30.864c5.949,0,10.771-4.823,10.771-10.772c0-5.949-4.821-10.771-10.771-10.771
			c-5.951,0-10.773,4.822-10.773,10.771C72.917,26.042,77.739,30.864,83.69,30.864z M83.69,27.328c-3.995,0-7.237-3.24-7.237-7.236
			c0-3.996,3.242-7.236,7.237-7.236c3.996,0,7.236,3.24,7.236,7.236C90.926,24.088,87.686,27.328,83.69,27.328z M83.688,25.303
			c2.881,0,5.215-2.334,5.215-5.211c0-2.881-2.334-5.215-5.215-5.215c-2.877,0-5.211,2.334-5.211,5.215
			C78.477,22.969,80.811,25.303,83.688,25.303z M83.688,23.438c-1.848,0-3.346-1.498-3.346-3.346c0-1.85,1.498-3.348,3.346-3.348
			c1.85,0,3.348,1.498,3.348,3.348C87.036,21.94,85.538,23.438,83.688,23.438z M83.688,21.533c0.797,0,1.442-0.644,1.442-1.441
			c0-0.797-0.647-1.443-1.442-1.443c-0.797,0-1.441,0.646-1.441,1.443C82.247,20.889,82.891,21.533,83.688,21.533z"/>
		<path fill="#1D8F38" d="M83.69,51.489c5.949,0,10.771-4.823,10.771-10.772c0-5.949-4.821-10.771-10.771-10.771
			c-5.951,0-10.773,4.822-10.773,10.771C72.917,46.667,77.739,51.489,83.69,51.489z M83.69,47.953c-3.995,0-7.237-3.24-7.237-7.236
			c0-3.996,3.242-7.236,7.237-7.236c3.996,0,7.236,3.24,7.236,7.236C90.926,44.713,87.686,47.953,83.69,47.953z M83.688,45.928
			c2.881,0,5.215-2.334,5.215-5.211c0-2.881-2.334-5.215-5.215-5.215c-2.877,0-5.211,2.334-5.211,5.215
			C78.477,43.594,80.811,45.928,83.688,45.928z M83.688,44.063c-1.848,0-3.346-1.498-3.346-3.346c0-1.85,1.498-3.348,3.346-3.348
			c1.85,0,3.348,1.498,3.348,3.348C87.036,42.565,85.538,44.063,83.688,44.063z M83.688,42.158c0.797,0,1.442-0.644,1.442-1.441
			c0-0.797-0.647-1.443-1.442-1.443c-0.797,0-1.441,0.646-1.441,1.443C82.247,41.514,82.891,42.158,83.688,42.158z"/>
		<path fill="#1D8F38" d="M83.69,71.989c5.949,0,10.771-4.822,10.771-10.771S89.639,50.446,83.69,50.446
			c-5.951,0-10.773,4.822-10.773,10.771C72.917,67.167,77.739,71.989,83.69,71.989z M83.69,68.453c-3.995,0-7.237-3.239-7.237-7.235
			s3.242-7.236,7.237-7.236c3.996,0,7.236,3.24,7.236,7.236S87.686,68.453,83.69,68.453z M83.688,66.428
			c2.881,0,5.215-2.334,5.215-5.211c0-2.881-2.334-5.215-5.215-5.215c-2.877,0-5.211,2.334-5.211,5.215
			C78.477,64.094,80.811,66.428,83.688,66.428z M83.688,64.563c-1.848,0-3.346-1.498-3.346-3.346c0-1.851,1.498-3.349,3.346-3.349
			c1.85,0,3.348,1.498,3.348,3.349C87.036,63.065,85.538,64.563,83.688,64.563z M83.688,62.658c0.797,0,1.442-0.644,1.442-1.44
			s-0.647-1.443-1.442-1.443c-0.797,0-1.441,0.646-1.441,1.443S82.891,62.658,83.688,62.658z"/>
	</g>
</g>
</svg>
