<?xml version="1.0" encoding="utf-8"?>
<!-- Generator: Adobe Illustrator 12.0.0, SVG Export Plug-In . SVG Version: 6.00 Build 51448)  -->
<!DOCTYPE svg PUBLIC "-//W3C//DTD SVG 1.1//EN" "http://www.w3.org/Graphics/SVG/1.1/DTD/svg11.dtd" [
	<!ENTITY ns_flows "http://ns.adobe.com/Flows/1.0/">
	<!ENTITY ns_extend "http://ns.adobe.com/Extensibility/1.0/">
	<!ENTITY ns_ai "http://ns.adobe.com/AdobeIllustrator/10.0/">
	<!ENTITY ns_graphs "http://ns.adobe.com/Graphs/1.0/">
	<!ENTITY ns_vars "http://ns.adobe.com/Variables/1.0/">
	<!ENTITY ns_imrep "http://ns.adobe.com/ImageReplacement/1.0/">
	<!ENTITY ns_sfw "http://ns.adobe.com/SaveForWeb/1.0/">
	<!ENTITY ns_custom "http://ns.adobe.com/GenericCustomNamespace/1.0/">
	<!ENTITY ns_adobe_xpath "http://ns.adobe.com/XPath/1.0/">
	<!ENTITY ns_svg "http://www.w3.org/2000/svg">
	<!ENTITY ns_xlink "http://www.w3.org/1999/xlink">
]>
<svg  version="1.1"
	 xmlns:x="&ns_extend;" xmlns:i="&ns_ai;" xmlns:graph="&ns_graphs;" i:viewOrigin="-0.3208 113.645" i:rulerOrigin="0 0" i:pageBounds="0 113 108 0"
	 xmlns="&ns_svg;" xmlns:xlink="&ns_xlink;" xmlns:a="http://ns.adobe.com/AdobeSVGViewerExtensions/3.0/"
	 width="109.1" height="113.832" viewBox="0 0 109.1 113.832" overflow="visible" enable-background="new 0 0 109.1 113.832"
	 xml:space="preserve">
<metadata>
	<variableSets  xmlns="&ns_vars;">
		<variableSet  varSetName="binding1" locked="none">
			<variables></variables>
			<v:sampleDataSets  xmlns="&ns_custom;" xmlns:v="&ns_vars;"></v:sampleDataSets>
		</variableSet>
	</variableSets>
</metadata>
<g id="图层_1" i:layer="yes" i:dimmedPercent="50" i:rgbTrio="#4F008000FFFF">
	<g>
		
			<linearGradient id="XMLID_3_" gradientUnits="userSpaceOnUse" x1="935.4341" y1="81.0015" x2="1020.2271" y2="81.0015" gradientTransform="matrix(0 -1 1 0 -26.8223 1049.0791)">
			<stop  offset="0.1348" style="stop-color:#1889BC"/>
			<stop  offset="0.2247" style="stop-color:#C4E9F2"/>
			<a:midPointStop  offset="0.1348" style="stop-color:#1889BC"/>
			<a:midPointStop  offset="0.5" style="stop-color:#1889BC"/>
			<a:midPointStop  offset="0.2247" style="stop-color:#C4E9F2"/>
		</linearGradient>
		<path i:knockout="Off" fill="url(#XMLID_3_)" stroke="#000000" stroke-width="0.3739" d="M100.038,28.852c4.418,0,8,3.42,8,7.638
			v69.518c0,4.218-3.582,7.638-8,7.638H8.321c-4.418,0-8-3.42-8-7.638V36.49c0-4.218,3.582-7.638,8-7.638H100.038z"/>
		<path i:knockout="Off" fill="#FFFFFF" stroke="#000000" stroke-width="0.6414" d="M8.377,85.36c-4.449,0-8.057-3.43-8.057-7.66
			V7.98c0-4.23,3.607-7.659,8.057-7.659h92.348c4.447,0,8.055,3.429,8.055,7.659V77.7c0,4.23-3.607,7.66-8.055,7.66H8.377z"/>
		
			<linearGradient id="XMLID_4_" gradientUnits="userSpaceOnUse" x1="-229.9092" y1="-254.2622" x2="-144.8701" y2="-254.2622" gradientTransform="matrix(0 1 -1 0 -199.7119 230.23)">
			<stop  offset="0" style="stop-color:#A3DDEA"/>
			<stop  offset="0.0899" style="stop-color:#0678B3"/>
			<stop  offset="0.2135" style="stop-color:#094C91"/>
			<stop  offset="0.6404" style="stop-color:#2890C0"/>
			<stop  offset="0.8034" style="stop-color:#82D0E3"/>
			<stop  offset="1" style="stop-color:#09468C"/>
			<a:midPointStop  offset="0" style="stop-color:#A3DDEA"/>
			<a:midPointStop  offset="0.5" style="stop-color:#A3DDEA"/>
			<a:midPointStop  offset="0.0899" style="stop-color:#0678B3"/>
			<a:midPointStop  offset="0.5" style="stop-color:#0678B3"/>
			<a:midPointStop  offset="0.2135" style="stop-color:#094C91"/>
			<a:midPointStop  offset="0.5" style="stop-color:#094C91"/>
			<a:midPointStop  offset="0.6404" style="stop-color:#2890C0"/>
			<a:midPointStop  offset="0.5" style="stop-color:#2890C0"/>
			<a:midPointStop  offset="0.8034" style="stop-color:#82D0E3"/>
			<a:midPointStop  offset="0.5" style="stop-color:#82D0E3"/>
			<a:midPointStop  offset="1" style="stop-color:#09468C"/>
		</linearGradient>
		<path i:knockout="Off" opacity="0.1" fill="url(#XMLID_4_)" stroke="#000000" stroke-width="0.6414" d="M8.377,85.36
			c-4.449,0-8.057-3.43-8.057-7.66V7.98c0-4.23,3.607-7.659,8.057-7.659h92.348c4.449,0,8.055,3.429,8.055,7.659V77.7
			c0,4.23-3.605,7.66-8.055,7.66H8.377z"/>
		<g i:knockout="Off">
			<path i:knockout="Off" fill="#1D8F38" d="M48.392,26.619c1.897-1.191,2.608-0.217,4.349,0.324c1.738,0.541,4.9-0.975,6.244-0.975
				c1.345,0,3.053,1.867,6.246,0.975c2.562-0.717,3.23-2.762,3.271-4.812c0.053-2.551-1.523-4.354-3.242-4.834
				c-3.193-0.893-4.901,0.975-6.245,0.975s-4.507-1.516-6.245-0.975c-1.739,0.541-2.451,1.516-4.348,0.324
				c-1.898-1.189-7.273-0.865-7.827,4.439l0.003,0.273C41.151,27.64,46.495,27.808,48.392,26.619z M63.413,24.56
				c-2.293-0.324-2.808-1.809-5.533-1.082c-2.787,0.742-4.19,0.758-6.482,0.107c-2.293-0.648-3.092-0.146-4.507,0.434
				c-1.884,0.773-4.388-0.203-4.318-2.064c0.044-1.209,1.281-2.902,4.349-1.734c1.422,0.541,2.213,1.082,4.506,0.434
				c2.293-0.65,3.695-0.635,6.482,0.107c2.726,0.725,3.241-0.758,5.533-1.082c2.293-0.326,2.372,2.057,2.372,2.057l-0.03,0.768
				C65.784,22.503,65.706,24.886,63.413,24.56z"/>
		</g>
		<g i:knockout="Off">
			<path i:knockout="Off" fill="#1D8F38" d="M18.417,26.619c1.897-1.191,2.609-0.217,4.348,0.324
				c1.74,0.541,4.902-0.975,6.246-0.975s3.051,1.867,6.245,0.975c2.562-0.717,3.231-2.762,3.272-4.812
				c0.051-2.551-1.523-4.354-3.242-4.834c-3.194-0.893-4.902,0.975-6.246,0.975s-4.506-1.516-6.245-0.975s-2.451,1.516-4.348,0.324
				c-1.898-1.189-7.273-0.865-7.827,4.439l0.003,0.273C11.175,27.64,16.519,27.808,18.417,26.619z M33.437,24.56
				c-2.292-0.324-2.808-1.809-5.534-1.082c-2.787,0.742-4.189,0.758-6.482,0.107c-2.293-0.648-3.091-0.146-4.506,0.434
				c-1.884,0.773-4.388-0.203-4.318-2.064c0.044-1.209,1.281-2.902,4.349-1.734c1.422,0.541,2.213,1.082,4.505,0.434
				c2.293-0.65,3.696-0.635,6.483,0.107c2.726,0.725,3.241-0.758,5.534-1.082c2.292-0.326,2.371,2.057,2.371,2.057l-0.029,0.768
				C35.809,22.503,35.729,24.886,33.437,24.56z"/>
		</g>
		<g i:knockout="Off">
			<path i:knockout="Off" fill="#D90000" d="M78.368,46.458c1.897-1.191,2.609-0.217,4.348,0.324
				c1.74,0.543,4.902-0.973,6.246-0.973s3.051,1.867,6.245,0.973c2.562-0.715,3.231-2.76,3.272-4.811
				c0.051-2.553-1.523-4.354-3.242-4.836c-3.194-0.891-4.902,0.975-6.246,0.975s-4.506-1.516-6.245-0.975
				c-1.739,0.543-2.451,1.516-4.349,0.326c-1.896-1.191-7.272-0.867-7.826,4.439l0.003,0.273
				C71.127,47.48,76.47,47.65,78.368,46.458z M93.388,44.402c-2.292-0.324-2.808-1.809-5.534-1.082
				c-2.787,0.74-4.189,0.758-6.482,0.107c-2.293-0.648-3.092-0.148-4.506,0.434c-1.884,0.773-4.387-0.203-4.318-2.064
				c0.045-1.211,1.281-2.902,4.348-1.736c1.424,0.541,2.214,1.084,4.506,0.434c2.293-0.65,3.696-0.635,6.483,0.107
				c2.726,0.727,3.241-0.758,5.534-1.082c2.292-0.324,2.371,2.057,2.371,2.057l-0.029,0.77C95.76,42.345,95.68,44.726,93.388,44.402
				z"/>
		</g>
		<g i:knockout="Off">
			<path i:knockout="Off" fill="#224899" d="M48.392,46.458c1.897-1.191,2.608-0.217,4.349,0.324c1.738,0.543,4.9-0.973,6.244-0.973
				c1.345,0,3.053,1.867,6.246,0.973c2.562-0.715,3.23-2.76,3.271-4.811c0.053-2.553-1.523-4.354-3.242-4.836
				c-3.193-0.891-4.901,0.975-6.245,0.975s-4.507-1.516-6.245-0.975c-1.739,0.543-2.451,1.516-4.348,0.326
				c-1.898-1.191-7.273-0.867-7.827,4.439l0.003,0.273C41.151,47.48,46.495,47.65,48.392,46.458z M63.413,44.402
				c-2.293-0.324-2.808-1.809-5.533-1.082c-2.787,0.74-4.19,0.758-6.482,0.107c-2.293-0.648-3.092-0.148-4.507,0.434
				c-1.884,0.773-4.388-0.203-4.318-2.064c0.044-1.211,1.281-2.902,4.349-1.736c1.422,0.541,2.213,1.084,4.506,0.434
				s3.695-0.635,6.482,0.107c2.726,0.727,3.241-0.758,5.533-1.082c2.293-0.324,2.372,2.057,2.372,2.057l-0.03,0.77
				C65.784,42.345,65.706,44.726,63.413,44.402z"/>
		</g>
		<g i:knockout="Off">
			<path i:knockout="Off" fill="#224899" d="M18.417,46.458c1.897-1.191,2.609-0.217,4.348,0.324
				c1.74,0.543,4.902-0.973,6.246-0.973s3.051,1.867,6.245,0.973c2.562-0.715,3.231-2.76,3.272-4.811
				c0.051-2.553-1.523-4.354-3.242-4.836c-3.194-0.891-4.902,0.975-6.246,0.975s-4.506-1.516-6.245-0.975
				c-1.739,0.543-2.451,1.516-4.348,0.326c-1.898-1.191-7.273-0.867-7.827,4.439l0.003,0.273
				C11.175,47.48,16.519,47.65,18.417,46.458z M33.437,44.402c-2.292-0.324-2.808-1.809-5.534-1.082
				c-2.787,0.74-4.189,0.758-6.482,0.107c-2.293-0.648-3.091-0.148-4.506,0.434c-1.884,0.773-4.388-0.203-4.318-2.064
				c0.044-1.211,1.281-2.902,4.349-1.736c1.422,0.541,2.213,1.084,4.505,0.434c2.293-0.65,3.696-0.635,6.483,0.107
				c2.726,0.727,3.241-0.758,5.534-1.082c2.292-0.324,2.371,2.057,2.371,2.057l-0.029,0.77
				C35.809,42.345,35.729,44.726,33.437,44.402z"/>
		</g>
		<g i:knockout="Off">
			<path i:knockout="Off" fill="#1D8F38" d="M48.392,66.109c1.897-1.191,2.608-0.217,4.349,0.324c1.738,0.541,4.9-0.975,6.244-0.975
				c1.345,0,3.053,1.867,6.246,0.975c2.562-0.717,3.23-2.762,3.271-4.812c0.053-2.551-1.523-4.354-3.242-4.834
				c-3.193-0.893-4.901,0.975-6.245,0.975s-4.507-1.516-6.245-0.975c-1.739,0.541-2.451,1.516-4.348,0.324
				c-1.898-1.189-7.273-0.865-7.827,4.439l0.003,0.275C41.151,67.13,46.495,67.3,48.392,66.109z M63.413,64.05
				c-2.293-0.324-2.808-1.807-5.533-1.082c-2.787,0.742-4.19,0.758-6.482,0.107c-2.293-0.648-3.092-0.146-4.507,0.434
				c-1.884,0.773-4.388-0.201-4.318-2.062c0.044-1.211,1.281-2.902,4.349-1.736c1.422,0.541,2.213,1.082,4.506,0.434
				c2.293-0.65,3.695-0.635,6.482,0.107c2.726,0.727,3.241-0.758,5.533-1.082c2.293-0.326,2.372,2.057,2.372,2.057l-0.03,0.768
				C65.784,61.994,65.706,64.376,63.413,64.05z"/>
		</g>
		<g i:knockout="Off">
			<path i:knockout="Off" fill="#1D8F38" d="M18.417,66.109c1.897-1.191,2.609-0.217,4.348,0.324
				c1.74,0.541,4.902-0.975,6.246-0.975s3.051,1.867,6.245,0.975c2.562-0.717,3.231-2.762,3.272-4.812
				c0.051-2.551-1.523-4.354-3.242-4.834c-3.194-0.893-4.902,0.975-6.246,0.975s-4.506-1.516-6.245-0.975s-2.451,1.516-4.348,0.324
				c-1.898-1.189-7.273-0.865-7.827,4.439l0.003,0.275C11.175,67.13,16.519,67.3,18.417,66.109z M33.437,64.05
				c-2.292-0.324-2.808-1.807-5.534-1.082c-2.787,0.742-4.189,0.758-6.482,0.107c-2.293-0.648-3.091-0.146-4.506,0.434
				c-1.884,0.773-4.388-0.201-4.318-2.062c0.044-1.211,1.281-2.902,4.349-1.736c1.422,0.541,2.213,1.082,4.505,0.434
				c2.293-0.65,3.696-0.635,6.483,0.107c2.726,0.727,3.241-0.758,5.534-1.082c2.292-0.326,2.371,2.057,2.371,2.057l-0.029,0.768
				C35.809,61.994,35.729,64.376,33.437,64.05z"/>
		</g>
	</g>
</g>
</svg>
