<?xml version="1.0" encoding="utf-8"?>
<!-- Generator: Adobe Illustrator 12.0.0, SVG Export Plug-In . SVG Version: 6.00 Build 51448)  -->
<!DOCTYPE svg PUBLIC "-//W3C//DTD SVG 1.1//EN" "http://www.w3.org/Graphics/SVG/1.1/DTD/svg11.dtd" [
	<!ENTITY ns_flows "http://ns.adobe.com/Flows/1.0/">
	<!ENTITY ns_extend "http://ns.adobe.com/Extensibility/1.0/">
	<!ENTITY ns_ai "http://ns.adobe.com/AdobeIllustrator/10.0/">
	<!ENTITY ns_graphs "http://ns.adobe.com/Graphs/1.0/">
	<!ENTITY ns_vars "http://ns.adobe.com/Variables/1.0/">
	<!ENTITY ns_imrep "http://ns.adobe.com/ImageReplacement/1.0/">
	<!ENTITY ns_sfw "http://ns.adobe.com/SaveForWeb/1.0/">
	<!ENTITY ns_custom "http://ns.adobe.com/GenericCustomNamespace/1.0/">
	<!ENTITY ns_adobe_xpath "http://ns.adobe.com/XPath/1.0/">
	<!ENTITY ns_svg "http://www.w3.org/2000/svg">
	<!ENTITY ns_xlink "http://www.w3.org/1999/xlink">
]>
<svg  version="1.1"
	 xmlns:x="&ns_extend;" xmlns:i="&ns_ai;" xmlns:graph="&ns_graphs;" i:viewOrigin="-0.3208 113.645" i:rulerOrigin="0 0" i:pageBounds="0 113 108 0"
	 xmlns="&ns_svg;" xmlns:xlink="&ns_xlink;" xmlns:a="http://ns.adobe.com/AdobeSVGViewerExtensions/3.0/"
	 width="109.1" height="113.832" viewBox="0 0 109.1 113.832" overflow="visible" enable-background="new 0 0 109.1 113.832"
	 xml:space="preserve">
<metadata>
	<variableSets  xmlns="&ns_vars;">
		<variableSet  varSetName="binding1" locked="none">
			<variables></variables>
			<v:sampleDataSets  xmlns="&ns_custom;" xmlns:v="&ns_vars;"></v:sampleDataSets>
		</variableSet>
	</variableSets>
</metadata>
<g id="图层_1" i:layer="yes" i:dimmedPercent="50" i:rgbTrio="#4F008000FFFF">
	<g>
		
			<linearGradient id="XMLID_3_" gradientUnits="userSpaceOnUse" x1="935.4341" y1="81.0015" x2="1020.2271" y2="81.0015" gradientTransform="matrix(0 -1 1 0 -26.8223 1049.0791)">
			<stop  offset="0.1348" style="stop-color:#1889BC"/>
			<stop  offset="0.2247" style="stop-color:#C4E9F2"/>
			<a:midPointStop  offset="0.1348" style="stop-color:#1889BC"/>
			<a:midPointStop  offset="0.5" style="stop-color:#1889BC"/>
			<a:midPointStop  offset="0.2247" style="stop-color:#C4E9F2"/>
		</linearGradient>
		<path i:knockout="Off" fill="url(#XMLID_3_)" stroke="#000000" stroke-width="0.3739" d="M100.037,28.852
			c4.418,0,8.001,3.42,8.001,7.638v69.518c0,4.218-3.583,7.638-8.001,7.638H8.321c-4.418,0-8-3.42-8-7.638V36.49
			c0-4.218,3.582-7.638,8-7.638H100.037z"/>
		<path i:knockout="Off" fill="#FFFFFF" stroke="#000000" stroke-width="0.6414" d="M8.377,85.36c-4.449,0-8.057-3.43-8.057-7.66
			V7.98c0-4.23,3.607-7.659,8.057-7.659h92.348c4.447,0,8.055,3.429,8.055,7.659V77.7c0,4.23-3.607,7.66-8.055,7.66H8.377z"/>
		
			<linearGradient id="XMLID_4_" gradientUnits="userSpaceOnUse" x1="-229.9092" y1="-254.2622" x2="-144.8701" y2="-254.2622" gradientTransform="matrix(0 1 -1 0 -199.7119 230.23)">
			<stop  offset="0" style="stop-color:#A3DDEA"/>
			<stop  offset="0.0899" style="stop-color:#0678B3"/>
			<stop  offset="0.2135" style="stop-color:#094C91"/>
			<stop  offset="0.6404" style="stop-color:#2890C0"/>
			<stop  offset="0.8034" style="stop-color:#82D0E3"/>
			<stop  offset="1" style="stop-color:#09468C"/>
			<a:midPointStop  offset="0" style="stop-color:#A3DDEA"/>
			<a:midPointStop  offset="0.5" style="stop-color:#A3DDEA"/>
			<a:midPointStop  offset="0.0899" style="stop-color:#0678B3"/>
			<a:midPointStop  offset="0.5" style="stop-color:#0678B3"/>
			<a:midPointStop  offset="0.2135" style="stop-color:#094C91"/>
			<a:midPointStop  offset="0.5" style="stop-color:#094C91"/>
			<a:midPointStop  offset="0.6404" style="stop-color:#2890C0"/>
			<a:midPointStop  offset="0.5" style="stop-color:#2890C0"/>
			<a:midPointStop  offset="0.8034" style="stop-color:#82D0E3"/>
			<a:midPointStop  offset="0.5" style="stop-color:#82D0E3"/>
			<a:midPointStop  offset="1" style="stop-color:#09468C"/>
		</linearGradient>
		<path i:knockout="Off" opacity="0.1" fill="url(#XMLID_4_)" stroke="#000000" stroke-width="0.6414" d="M8.377,85.36
			c-4.449,0-8.057-3.43-8.057-7.66V7.98c0-4.23,3.607-7.659,8.057-7.659h92.348c4.448,0,8.055,3.429,8.055,7.659V77.7
			c0,4.23-3.606,7.66-8.055,7.66H8.377z"/>
		<g i:knockout="Off">
			<path i:knockout="Off" fill="#1D8F38" d="M78.367,27.27c1.898-1.191,2.609-0.217,4.348,0.324c1.74,0.541,4.902-0.975,6.246-0.975
				s3.051,1.867,6.246,0.975c2.561-0.717,3.23-2.762,3.271-4.812c0.051-2.551-1.523-4.354-3.242-4.834
				c-3.193-0.893-4.902,0.975-6.246,0.975s-4.506-1.516-6.244-0.975c-1.74,0.541-2.451,1.516-4.35,0.324
				c-1.896-1.189-7.271-0.865-7.826,4.439l0.004,0.273C71.126,28.292,76.47,28.459,78.367,27.27z M93.388,25.211
				c-2.293-0.324-2.809-1.809-5.535-1.082c-2.787,0.742-4.189,0.758-6.482,0.107c-2.293-0.648-3.092-0.146-4.506,0.434
				c-1.883,0.773-4.387-0.203-4.318-2.064c0.045-1.209,1.281-2.902,4.348-1.734c1.424,0.541,2.215,1.082,4.506,0.434
				c2.293-0.65,3.697-0.635,6.484,0.107c2.725,0.725,3.24-0.758,5.533-1.082c2.293-0.326,2.371,2.057,2.371,2.057l-0.029,0.768
				C95.759,23.155,95.679,25.538,93.388,25.211z"/>
		</g>
		<g i:knockout="Off">
			<path i:knockout="Off" fill="#1D8F38" d="M48.392,27.27c1.896-1.191,2.607-0.217,4.348,0.324c1.738,0.541,4.9-0.975,6.244-0.975
				c1.346,0,3.053,1.867,6.246,0.975c2.562-0.717,3.23-2.762,3.271-4.812c0.053-2.551-1.523-4.354-3.242-4.834
				c-3.193-0.893-4.9,0.975-6.244,0.975s-4.508-1.516-6.246-0.975s-2.451,1.516-4.348,0.324c-1.898-1.189-7.272-0.865-7.827,4.439
				l0.004,0.273C41.151,28.292,46.494,28.459,48.392,27.27z M63.412,25.211c-2.293-0.324-2.807-1.809-5.533-1.082
				c-2.787,0.742-4.189,0.758-6.482,0.107c-2.293-0.648-3.092-0.146-4.506,0.434c-1.885,0.773-4.389-0.203-4.318-2.064
				c0.043-1.209,1.281-2.902,4.348-1.734c1.422,0.541,2.213,1.082,4.506,0.434c2.293-0.65,3.695-0.635,6.482,0.107
				c2.727,0.725,3.242-0.758,5.533-1.082c2.293-0.326,2.373,2.057,2.373,2.057l-0.031,0.768
				C65.783,23.155,65.705,25.538,63.412,25.211z"/>
		</g>
		<g i:knockout="Off">
			<path i:knockout="Off" fill="#1D8F38" d="M18.417,27.27c1.896-1.191,2.609-0.217,4.348,0.324c1.74,0.541,4.902-0.975,6.246-0.975
				s3.051,1.867,6.244,0.975c2.562-0.717,3.232-2.762,3.273-4.812c0.051-2.551-1.523-4.354-3.242-4.834
				c-3.195-0.893-4.902,0.975-6.246,0.975s-4.506-1.516-6.246-0.975c-1.738,0.541-2.451,1.516-4.348,0.324
				c-1.898-1.189-7.273-0.865-7.826,4.439l0.002,0.273C11.174,28.292,16.518,28.459,18.417,27.27z M33.436,25.211
				c-2.291-0.324-2.807-1.809-5.533-1.082c-2.787,0.742-4.189,0.758-6.482,0.107c-2.293-0.648-3.092-0.146-4.506,0.434
				c-1.885,0.773-4.389-0.203-4.318-2.064c0.043-1.209,1.281-2.902,4.348-1.734c1.422,0.541,2.213,1.082,4.506,0.434
				c2.293-0.65,3.695-0.635,6.482,0.107c2.727,0.725,3.242-0.758,5.535-1.082c2.291-0.326,2.371,2.057,2.371,2.057l-0.029,0.768
				C35.809,23.155,35.729,25.538,33.436,25.211z"/>
		</g>
		<g i:knockout="Off">
			<path i:knockout="Off" fill="#D90000" d="M78.367,46.11c1.898-1.191,2.609-0.217,4.348,0.324c1.74,0.543,4.902-0.973,6.246-0.973
				s3.051,1.867,6.246,0.973c2.561-0.715,3.23-2.76,3.271-4.811c0.051-2.553-1.523-4.354-3.242-4.836
				c-3.193-0.891-4.902,0.975-6.246,0.975s-4.506-1.516-6.244-0.975c-1.74,0.543-2.451,1.516-4.35,0.326
				c-1.896-1.191-7.271-0.867-7.826,4.439l0.004,0.273C71.126,47.131,76.47,47.301,78.367,46.11z M93.388,44.053
				c-2.293-0.324-2.809-1.809-5.535-1.082c-2.787,0.74-4.189,0.758-6.482,0.107c-2.293-0.648-3.092-0.148-4.506,0.434
				c-1.883,0.773-4.387-0.203-4.318-2.064c0.045-1.211,1.281-2.902,4.348-1.736c1.424,0.541,2.215,1.084,4.506,0.434
				c2.293-0.65,3.697-0.635,6.484,0.107c2.725,0.727,3.24-0.758,5.533-1.082s2.371,2.057,2.371,2.057l-0.029,0.77
				C95.759,41.997,95.679,44.377,93.388,44.053z"/>
		</g>
		<g i:knockout="Off">
			<path i:knockout="Off" fill="#D90000" d="M48.392,46.11c1.896-1.191,2.607-0.217,4.348,0.324c1.738,0.543,4.9-0.973,6.244-0.973
				c1.346,0,3.053,1.867,6.246,0.973c2.562-0.715,3.23-2.76,3.271-4.811c0.053-2.553-1.523-4.354-3.242-4.836
				c-3.193-0.891-4.9,0.975-6.244,0.975s-4.508-1.516-6.246-0.975c-1.738,0.543-2.451,1.516-4.348,0.326
				c-1.898-1.191-7.272-0.867-7.827,4.439l0.004,0.273C41.151,47.131,46.494,47.301,48.392,46.11z M63.412,44.053
				c-2.293-0.324-2.807-1.809-5.533-1.082c-2.787,0.74-4.189,0.758-6.482,0.107c-2.293-0.648-3.092-0.148-4.506,0.434
				c-1.885,0.773-4.389-0.203-4.318-2.064c0.043-1.211,1.281-2.902,4.348-1.736c1.422,0.541,2.213,1.084,4.506,0.434
				s3.695-0.635,6.482,0.107c2.727,0.727,3.242-0.758,5.533-1.082c2.293-0.324,2.373,2.057,2.373,2.057l-0.031,0.77
				C65.783,41.997,65.705,44.377,63.412,44.053z"/>
		</g>
		<g i:knockout="Off">
			<path i:knockout="Off" fill="#D90000" d="M18.417,46.11c1.896-1.191,2.609-0.217,4.348,0.324c1.74,0.543,4.902-0.973,6.246-0.973
				s3.051,1.867,6.244,0.973c2.562-0.715,3.232-2.76,3.273-4.811c0.051-2.553-1.523-4.354-3.242-4.836
				c-3.195-0.891-4.902,0.975-6.246,0.975s-4.506-1.516-6.246-0.975c-1.738,0.543-2.451,1.516-4.348,0.326
				c-1.898-1.191-7.273-0.867-7.826,4.439l0.002,0.273C11.174,47.131,16.518,47.301,18.417,46.11z M33.436,44.053
				c-2.291-0.324-2.807-1.809-5.533-1.082c-2.787,0.74-4.189,0.758-6.482,0.107c-2.293-0.648-3.092-0.148-4.506,0.434
				c-1.885,0.773-4.389-0.203-4.318-2.064c0.043-1.211,1.281-2.902,4.348-1.736c1.422,0.541,2.213,1.084,4.506,0.434
				s3.695-0.635,6.482,0.107c2.727,0.727,3.242-0.758,5.535-1.082c2.291-0.324,2.371,2.057,2.371,2.057l-0.029,0.77
				C35.809,41.997,35.729,44.377,33.436,44.053z"/>
		</g>
		<g i:knockout="Off">
			<path i:knockout="Off" fill="#1D8F38" d="M78.367,65.458c1.898-1.191,2.609-0.217,4.348,0.324
				c1.74,0.541,4.902-0.975,6.246-0.975s3.051,1.867,6.246,0.975c2.561-0.717,3.23-2.762,3.271-4.812
				c0.051-2.551-1.523-4.354-3.242-4.834c-3.193-0.893-4.902,0.975-6.246,0.975s-4.506-1.516-6.244-0.975
				c-1.74,0.541-2.451,1.516-4.35,0.324c-1.896-1.189-7.271-0.865-7.826,4.439l0.004,0.275
				C71.126,66.479,76.47,66.649,78.367,65.458z M93.388,63.399c-2.293-0.324-2.809-1.807-5.535-1.082
				c-2.787,0.742-4.189,0.758-6.482,0.107c-2.293-0.648-3.092-0.146-4.506,0.434c-1.883,0.773-4.387-0.201-4.318-2.062
				c0.045-1.211,1.281-2.902,4.348-1.736c1.424,0.541,2.215,1.082,4.506,0.434c2.293-0.65,3.697-0.635,6.484,0.107
				c2.725,0.727,3.24-0.758,5.533-1.082c2.293-0.326,2.371,2.057,2.371,2.057l-0.029,0.768
				C95.759,61.342,95.679,63.725,93.388,63.399z"/>
		</g>
		<g i:knockout="Off">
			<path i:knockout="Off" fill="#1D8F38" d="M48.392,65.458c1.896-1.191,2.607-0.217,4.348,0.324c1.738,0.541,4.9-0.975,6.244-0.975
				c1.346,0,3.053,1.867,6.246,0.975c2.562-0.717,3.23-2.762,3.271-4.812c0.053-2.551-1.523-4.354-3.242-4.834
				c-3.193-0.893-4.9,0.975-6.244,0.975s-4.508-1.516-6.246-0.975s-2.451,1.516-4.348,0.324c-1.898-1.189-7.272-0.865-7.827,4.439
				l0.004,0.275C41.151,66.479,46.494,66.649,48.392,65.458z M63.412,63.399c-2.293-0.324-2.807-1.807-5.533-1.082
				c-2.787,0.742-4.189,0.758-6.482,0.107c-2.293-0.648-3.092-0.146-4.506,0.434c-1.885,0.773-4.389-0.201-4.318-2.062
				c0.043-1.211,1.281-2.902,4.348-1.736c1.422,0.541,2.213,1.082,4.506,0.434c2.293-0.65,3.695-0.635,6.482,0.107
				c2.727,0.727,3.242-0.758,5.533-1.082c2.293-0.326,2.373,2.057,2.373,2.057l-0.031,0.768
				C65.783,61.342,65.705,63.725,63.412,63.399z"/>
		</g>
		<g i:knockout="Off">
			<path i:knockout="Off" fill="#1D8F38" d="M18.417,65.458c1.896-1.191,2.609-0.217,4.348,0.324
				c1.74,0.541,4.902-0.975,6.246-0.975s3.051,1.867,6.244,0.975c2.562-0.717,3.232-2.762,3.273-4.812
				c0.051-2.551-1.523-4.354-3.242-4.834c-3.195-0.893-4.902,0.975-6.246,0.975s-4.506-1.516-6.246-0.975
				c-1.738,0.541-2.451,1.516-4.348,0.324c-1.898-1.189-7.273-0.865-7.826,4.439l0.002,0.275
				C11.174,66.479,16.518,66.649,18.417,65.458z M33.436,63.399c-2.291-0.324-2.807-1.807-5.533-1.082
				c-2.787,0.742-4.189,0.758-6.482,0.107c-2.293-0.648-3.092-0.146-4.506,0.434c-1.885,0.773-4.389-0.201-4.318-2.062
				c0.043-1.211,1.281-2.902,4.348-1.736c1.422,0.541,2.213,1.082,4.506,0.434c2.293-0.65,3.695-0.635,6.482,0.107
				c2.727,0.727,3.242-0.758,5.535-1.082c2.291-0.326,2.371,2.057,2.371,2.057l-0.029,0.768
				C35.809,61.342,35.729,63.725,33.436,63.399z"/>
		</g>
	</g>
</g>
</svg>
