<?xml version="1.0" encoding="utf-8"?>
<!-- Generator: Adobe Illustrator 12.0.0, SVG Export Plug-In . SVG Version: 6.00 Build 51448)  -->
<!DOCTYPE svg PUBLIC "-//W3C//DTD SVG 1.1//EN" "http://www.w3.org/Graphics/SVG/1.1/DTD/svg11.dtd" [
	<!ENTITY ns_flows "http://ns.adobe.com/Flows/1.0/">
	<!ENTITY ns_extend "http://ns.adobe.com/Extensibility/1.0/">
	<!ENTITY ns_ai "http://ns.adobe.com/AdobeIllustrator/10.0/">
	<!ENTITY ns_graphs "http://ns.adobe.com/Graphs/1.0/">
	<!ENTITY ns_vars "http://ns.adobe.com/Variables/1.0/">
	<!ENTITY ns_imrep "http://ns.adobe.com/ImageReplacement/1.0/">
	<!ENTITY ns_sfw "http://ns.adobe.com/SaveForWeb/1.0/">
	<!ENTITY ns_custom "http://ns.adobe.com/GenericCustomNamespace/1.0/">
	<!ENTITY ns_adobe_xpath "http://ns.adobe.com/XPath/1.0/">
	<!ENTITY ns_svg "http://www.w3.org/2000/svg">
	<!ENTITY ns_xlink "http://www.w3.org/1999/xlink">
]>
<svg  version="1.1"
	 xmlns:x="&ns_extend;" xmlns:i="&ns_ai;" xmlns:graph="&ns_graphs;" i:viewOrigin="-0.3193 135.7061" i:rulerOrigin="0 0" i:pageBounds="0 136 85 0"
	 xmlns="&ns_svg;" xmlns:xlink="&ns_xlink;" xmlns:a="http://ns.adobe.com/AdobeSVGViewerExtensions/3.0/"
	 width="85.678" height="136.025" viewBox="0 0 85.678 136.025" overflow="visible" enable-background="new 0 0 85.678 136.025"
	 xml:space="preserve">
<metadata>
	<variableSets  xmlns="http://ns.adobe.com/Variables/1.0/">
		<variableSet  varSetName="binding1" locked="none">
			<variables></variables>
			<v:sampleDataSets  xmlns="http://ns.adobe.com/GenericCustomNamespace/1.0/" xmlns:v="http://ns.adobe.com/Variables/1.0/">
				</v:sampleDataSets>
		</variableSet>
	</variableSets>
</metadata>
<g id="图层_1" i:knockout="Off" i:layer="yes" i:dimmedPercent="50" i:rgbTrio="#4F008000FFFF">
	<g i:knockout="Off">
		<path fill="#333333" d="M2.274,99.465v24.962c0,5.149,3.353,9.325,7.481,9.325h68.118c4.133,0,7.484-4.176,7.484-9.325h-0.002
			V9.216c0-4.344-3.353-7.869-7.482-7.869H9.756c-4.131,0-7.481,3.525-7.481,7.869H2.272v90.229
			C2.272,99.45,2.274,99.458,2.274,99.465z"/>
		
			<linearGradient id="XMLID_3_" gradientUnits="userSpaceOnUse" x1="-22.6704" y1="112.9883" x2="-22.6704" y2="-12.5781" gradientTransform="matrix(1 0 0 1 64.5342 22.7178)">
			<stop  offset="0.0899" style="stop-color:#2089B9"/>
			<stop  offset="0.0985" style="stop-color:#4FA3C2"/>
			<stop  offset="0.1071" style="stop-color:#77B9CA"/>
			<stop  offset="0.1138" style="stop-color:#8FC7CF"/>
			<stop  offset="0.118" style="stop-color:#98CCD1"/>
			<stop  offset="0.1341" style="stop-color:#9ECFD3"/>
			<stop  offset="0.156" style="stop-color:#AFD6D9"/>
			<stop  offset="0.1809" style="stop-color:#CBE1E3"/>
			<stop  offset="0.1966" style="stop-color:#E1EAEB"/>
			<a:midPointStop  offset="0.0899" style="stop-color:#2089B9"/>
			<a:midPointStop  offset="0.5" style="stop-color:#2089B9"/>
			<a:midPointStop  offset="0.0985" style="stop-color:#4FA3C2"/>
			<a:midPointStop  offset="0.5" style="stop-color:#4FA3C2"/>
			<a:midPointStop  offset="0.1071" style="stop-color:#77B9CA"/>
			<a:midPointStop  offset="0.5" style="stop-color:#77B9CA"/>
			<a:midPointStop  offset="0.1138" style="stop-color:#8FC7CF"/>
			<a:midPointStop  offset="0.5" style="stop-color:#8FC7CF"/>
			<a:midPointStop  offset="0.118" style="stop-color:#98CCD1"/>
			<a:midPointStop  offset="0.5" style="stop-color:#98CCD1"/>
			<a:midPointStop  offset="0.1341" style="stop-color:#9ECFD3"/>
			<a:midPointStop  offset="0.5" style="stop-color:#9ECFD3"/>
			<a:midPointStop  offset="0.156" style="stop-color:#AFD6D9"/>
			<a:midPointStop  offset="0.5" style="stop-color:#AFD6D9"/>
			<a:midPointStop  offset="0.1809" style="stop-color:#CBE1E3"/>
			<a:midPointStop  offset="0.5" style="stop-color:#CBE1E3"/>
			<a:midPointStop  offset="0.1966" style="stop-color:#E1EAEB"/>
		</linearGradient>
		<path fill="url(#XMLID_3_)" d="M83.405,126.381c0,5.15-3.353,9.325-7.48,9.325H7.804c-4.131,0-7.482-4.177-7.482-9.325V19.465
			c0-5.148,3.354-9.326,7.482-9.326h68.117c4.133,0,7.482,4.176,7.482,9.326v106.916H83.405z"/>
		<path fill="none" stroke="#333333" stroke-width="0.977" d="M83.405,126.381c0,5.15-3.353,9.325-7.48,9.325H7.804
			c-4.131,0-7.482-4.177-7.482-9.325V19.465c0-5.148,3.354-9.326,7.482-9.326h68.117c4.133,0,7.482,4.176,7.482,9.326v106.916
			H83.405z"/>
		<path fill="#FFFFFF" d="M0.32,11.17c0-4.344,3.354-7.869,7.482-7.869H75.92c4.133,0,7.482,3.523,7.482,7.869v90.229
			c0,4.346-3.353,7.868-7.482,7.868H7.802c-4.131,0-7.482-3.522-7.482-7.87V11.17L0.32,11.17z"/>
		
			<linearGradient id="XMLID_4_" gradientUnits="userSpaceOnUse" x1="4.0215" y1="80.7666" x2="86.165" y2="80.7666" gradientTransform="matrix(-1 0 0 -1 86.9551 137.0508)">
			<stop  offset="0" style="stop-color:#A2D8E0"/>
			<stop  offset="0.0899" style="stop-color:#1878AD"/>
			<stop  offset="0.2135" style="stop-color:#194D91"/>
			<stop  offset="0.6404" style="stop-color:#2B90BD"/>
			<stop  offset="0.9438" style="stop-color:#82CBDE"/>
			<stop  offset="1" style="stop-color:#1A478D"/>
			<a:midPointStop  offset="0" style="stop-color:#A2D8E0"/>
			<a:midPointStop  offset="0.5" style="stop-color:#A2D8E0"/>
			<a:midPointStop  offset="0.0899" style="stop-color:#1878AD"/>
			<a:midPointStop  offset="0.5" style="stop-color:#1878AD"/>
			<a:midPointStop  offset="0.2135" style="stop-color:#194D91"/>
			<a:midPointStop  offset="0.5" style="stop-color:#194D91"/>
			<a:midPointStop  offset="0.6404" style="stop-color:#2B90BD"/>
			<a:midPointStop  offset="0.5" style="stop-color:#2B90BD"/>
			<a:midPointStop  offset="0.9438" style="stop-color:#82CBDE"/>
			<a:midPointStop  offset="0.5" style="stop-color:#82CBDE"/>
			<a:midPointStop  offset="1" style="stop-color:#1A478D"/>
		</linearGradient>
		<path i:isolated="yes" i:knockout="Off" opacity="0.1" fill="url(#XMLID_4_)" enable-background="new    " d="M0.79,11.17
			c0-4.344,3.313-7.869,7.397-7.869h67.347c4.086,0,7.399,3.523,7.399,7.869v90.229c0,4.346-3.313,7.868-7.399,7.868H8.188
			c-4.084,0-7.397-3.522-7.397-7.87L0.79,11.17L0.79,11.17z"/>
		<path fill="none" stroke="#4D4D4D" stroke-width="0.977" d="M0.32,101.419v24.962c0,5.148,3.353,9.325,7.482,9.325h68.12
			c4.131,0,7.48-4.175,7.48-9.325V11.171c0-4.346-3.353-7.869-7.482-7.869H7.803c-4.13,0-7.482,3.525-7.482,7.869L0.32,101.399
			C0.319,101.404,0.32,101.411,0.32,101.419z"/>
	</g>
	<g i:knockout="Off">
		<path fill="#24258D" d="M45.412,22.993c0.189,0.383,0.286,1.051,0.286,2.006l1.146-0.287c0.955-0.191,1.528-0.287,1.721-0.287
			c0.382,0,0.764,0.096,1.146,0.287c0.382,0,0.859,0.287,1.434,0.859c0.572,0.191,0.955,0.574,1.146,1.146
			c0.19,0.191,0.286,0.574,0.286,1.146L52.29,28.15c-0.191,0-0.574,0.287-1.146,0.859c-0.19,0-0.479,0.191-0.859,0.574
			c-0.766,0.383-1.338,0.668-1.72,0.859c-0.384,0.191-0.86,0.383-1.434,0.574c-1.146,0.572-2.198,1.051-3.152,1.432l-0.573,3.439
			l1.434-0.572c0.955-0.572,1.91-0.859,2.866-0.859c0.955-0.191,1.91-0.287,2.866-0.287c0.955,0,1.91,0.096,2.866,0.287
			c0.382,0,0.858,0.096,1.433,0.285h0.573c0.382,0,0.858,0.096,1.434,0.287c0.572,0,1.146,0.287,1.72,0.859
			c0.572,0.191,1.241,0.766,2.007,1.721c0.764,0.574,1.241,1.146,1.434,1.719c0.189,0,0.286,0.957,0.286,2.867l-0.859,0.859
			c-0.574,0.574-1.146,1.434-1.72,2.58c-0.574,1.146-1.243,2.389-2.007,3.727c-0.383,0.572-0.86,1.242-1.434,2.006
			c-0.19,0.574-0.383,0.955-0.572,1.146c-0.191,0.191-0.479,0.479-0.86,0.859c-0.383,0.574-0.765,1.051-1.146,1.434
			c-0.765,0.574-1.434,1.146-2.006,1.719c-0.573,0.191-1.146,0.479-1.72,0.861c-0.191,0-0.383,0-0.573,0
			c-0.383,0.191-0.669,0.285-0.859,0.285l-0.286-0.285c0-0.191-0.097-0.383-0.287-0.574c-0.191-0.381-0.382-0.668-0.573-0.859
			l-0.573-0.287c-0.383-0.191-0.859-0.287-1.433-0.287c-0.574-0.189-1.243,0.002-2.007,0.574l-0.286,0.572
			c-0.191-0.189-0.287,0.957-0.287,3.439l1.146,0.287c0.382,0,1.051,0.191,2.007,0.574c0.382,0.191,0.764,0.381,1.146,0.572
			c1.337,0.574,2.675,1.242,4.014,2.006c1.527,0.574,2.961,1.338,4.299,2.293c1.527,0.574,2.865,1.148,4.013,1.721
			c1.146,0.191,1.337,0.287,0.573,0.287c0.764,0,1.91,0.287,3.438,0.859c1.528,0.191,2.962,0.574,4.301,1.146
			c0.764,0.191,1.813,0.574,3.151,1.146c0.382,0.191,0.669,0.287,0.86,0.287c1.337,0.572,2.196,1.052,2.579,1.433v0.574
			l-0.286,0.286c-0.191,0-0.86,0.287-2.007,0.859c-1.146,0.191-2.293,0.479-3.439,0.859c-0.383,0-0.956,0-1.72,0
			c-0.955,0.19-1.72,0.287-2.293,0.287s-1.242-0.097-2.006-0.287c-0.766,0-1.242,0-1.435,0c-0.765-0.191-1.624-0.572-2.579-1.146
			c-0.765-0.572-1.625-1.146-2.58-1.719c-0.383-0.191-0.859-0.574-1.433-1.146c-0.574-0.573-1.052-0.955-1.434-1.146
			c-1.146-1.146-2.197-2.006-3.152-2.58c-0.383-0.383-1.052-0.859-2.007-1.434c-0.383-0.191-0.669-0.381-0.859-0.572
			c-0.956-0.764-2.198-1.434-3.727-2.008l-0.573,0.574v5.732c0,2.484,0,4.203,0,5.158c0,1.146-0.096,1.815-0.286,2.008
			c0,0.381-0.096,0.859-0.287,1.434c0,0.381-0.096,0.859-0.286,1.433c0,0.19-0.096,0.479-0.287,0.86
			c0,0.189-0.096,0.382-0.286,0.572c-0.191,0.383-0.479,0.859-0.86,1.435c-0.191,0.571-0.573,1.051-1.146,1.434h-0.573l-0.286-0.574
			c-0.191,0-0.287-0.19-0.287-0.572c-0.191-0.383-0.382-0.573-0.573-0.573c-0.383-0.384-0.765-0.859-1.146-1.435
			c-0.191-0.571-0.765-1.338-1.72-2.293c-0.383-0.383-0.765-0.858-1.146-1.432c-0.383-0.191-0.669-0.383-0.859-0.574
			c-0.574-0.955-1.052-1.719-1.434-2.293c-0.191-0.764-0.478-1.434-0.859-2.006c-0.191-0.574-0.287-1.051-0.287-1.435L28.791,72
			c-0.956,0.574-1.625,1.146-2.007,1.719c-0.191,0.191-0.765,0.957-1.72,2.293h-0.573l-0.573-0.571v-0.859
			c0-0.574,0.096-1.051,0.287-1.434c0.19-0.384,0.668-1.339,1.433-2.867v1.146l0.86-0.858c0.19-0.191,0.477-0.478,0.859-0.859
			c0.382-0.572,0.764-1.051,1.146-1.434c0.191-0.381,0.478-0.764,0.86-1.146c0.382-0.381,0.668-0.764,0.859-1.146
			c0.382-0.572,0.859-1.338,1.434-2.293c0.382-0.572,1.051-1.623,2.006-3.152c-0.383,0.383-0.191,0,0.573-1.146l-0.859,0.287
			c-0.191,0-0.479,0-0.86,0c-0.383,0.191-0.765,0.285-1.146,0.285l-0.859-0.572c-0.574-0.572-1.243-1.146-2.007-1.721
			c-0.765-0.955-1.434-1.814-2.006-2.578c-0.191-0.191-0.383-0.574-0.573-1.146c-0.191-0.383-0.479-0.955-0.86-1.721
			c-0.191-0.381-0.286-0.955-0.286-1.719c-0.191-0.574-0.383-1.051-0.573-1.434c-0.191-1.146-0.287-2.197-0.287-3.152
			c0-1.146,0.096-2.102,0.287-2.867c0.382-1.146,0.668-2.006,0.859-2.58c0.382-0.955,0.764-1.527,1.146-1.719
			c0.382-0.572,0.859-0.859,1.434-0.859c0.572-0.383,1.146-0.67,1.72-0.861c0.19-0.189,0.668-0.572,1.433-1.146
			c-0.383,0.191-0.191,0.098,0.573-0.285c0.191-0.191,0.382-0.383,0.573-0.574c0.382-0.191,0.955-0.477,1.72-0.859l-0.286-0.287
			c-0.191-0.381-0.574-0.572-1.146-0.572c-0.574-0.383-1.147-0.67-1.72-0.861c-0.191-0.189-0.479-0.381-0.86-0.572
			c-0.383-0.383-0.765-0.764-1.146-1.146v-0.574l0.287-0.285c0.19-0.383,0.859-0.574,2.006-0.574
			c1.146-0.381,2.293-0.668,3.439-0.859c0.955-0.572,2.102-0.955,3.439-1.146l0.287-0.574c0.19-0.572,0.286-1.049,0.286-1.432
			c0-0.574-0.096-1.146-0.286-1.721c-0.191-0.572-0.479-1.146-0.86-1.719c-0.191-0.574-0.573-1.051-1.146-1.434V19.84l0.287-0.285
			c0.19-0.383,0.572-0.574,1.146-0.574c0.572-0.191,0.955-0.287,1.146-0.287c0.19,0,0.668,0.096,1.433,0.287
			c0.382,0,0.955,0.287,1.72,0.859c0.191,0.191,0.382,0.287,0.573,0.287c1.146,0.766,2.102,1.434,2.866,2.006L45.412,22.993z
			 M38.246,34.743H37.96c-0.191,0-0.67,0.096-1.434,0.287c-0.765,0-1.624,0.287-2.579,0.859c-1.146,0.383-2.198,0.957-3.153,1.721
			h-0.286c-0.191,0-1.052,0.383-2.58,1.146l-0.286,0.572c-0.191,0-0.287,0.957-0.287,2.867l0.573-0.287
			c0.191-0.191,0.765-0.477,1.72-0.859c-0.765,0.383-0.478,0.287,0.86-0.287c0.382-0.191,0.955-0.477,1.72-0.859
			c0.764-0.191,1.337-0.383,1.72-0.574c0.382-0.189,1.241-0.572,2.579-1.146c0.764-0.189,1.337-0.381,1.72-0.572L38.246,34.743
			L38.246,34.743z M37.673,42.196l-0.859,0.287c-0.574,0-1.338,0.191-2.293,0.572c-0.383,0-0.86,0-1.434,0
			c-0.573,0.191-1.051,0.287-1.433,0.287c-0.765,0-1.625,0.096-2.58,0.287c-0.573,0-1.146,0.287-1.72,0.859v1.146
			c0,0.574,0.096,1.434,0.287,2.58c0.382,0.955,0.668,2.006,0.859,3.152c0.382,1.146,0.669,2.006,0.86,2.58
			c0,0.191,0.095,0.285,0.286,0.285c0,0.383,0.19,0.766,0.573,1.146h0.573h0.573c0.382-0.189,0.669-0.285,0.86-0.285
			c0.572-0.191,1.241-0.574,2.006-1.146c0.955-0.574,1.528-1.051,1.72-1.434c0.382-0.572,0.669-0.955,0.86-1.146
			c0.19-0.572,0.286-0.955,0.286-1.146l-2.006-0.287c-0.383,0-0.86-0.096-1.434-0.287c-0.383-0.189-0.86-0.285-1.433-0.285
			c-0.191-0.191-0.383-0.383-0.573-0.574c-0.383,0-0.669-0.096-0.86-0.287v-0.572l1.146-0.574c0.382-0.189,0.859-0.477,1.434-0.859
			c0.382-0.191,0.764-0.381,1.146-0.572c0.955-0.764,2.196-1.434,3.726-2.008v-1.146L37.673,42.196z M36.526,62.833l-0.573,0.859
			c-0.191,0.191-0.478,0.574-0.859,1.146c-0.383,0.383-0.669,0.766-0.86,1.146c-0.573,0.574-1.338,1.529-2.293,2.867
			c0.191-0.19,0,0.097-0.573,0.859v0.287l0.287,1.146c0.19,0.572,0.572,1.146,1.146,1.72c0.19,0.19,0.477,0.383,0.859,0.573
			c0.382,0.384,0.669,0.668,0.86,0.859c0.572,0.191,1.05,0.479,1.433,0.859h0.573c0.382,0.19,0.764,0.287,1.146,0.287l0.573-0.574
			v-3.152c0-2.483-0.191-5.062-0.573-7.738L36.526,62.833z M53.15,37.897c-0.384-0.191-1.146-0.287-2.293-0.287
			c-1.147,0-2.197,0.096-3.152,0.287c-0.765,0-1.625,0.287-2.58,0.859c-0.573,0.191-1.146,0.574-1.72,1.146v2.865h1.434
			c0.955,0,1.719,0.096,2.293,0.287c0.572-0.191,1.241,0.287,2.006,1.434v0.572l-1.433,1.434c-0.765,0.955-1.625,1.721-2.58,2.293
			c-0.765,0.383-1.242,0.861-1.433,1.434c-0.191,0.191-0.287,0.574-0.287,1.146l0.859,0.287c0.572,0,1.146,0.191,1.721,0.572
			c0.571,0,1.24,0.287,2.006,0.859l0.287-0.572c0.189-0.572,0.571-1.146,1.146-1.721c0.572-0.764,1.146-1.719,1.72-2.865
			c0.572-1.338,1.051-2.58,1.434-3.727c0.382-1.527,0.669-2.674,0.86-3.439c0.189-0.764,0.285-1.623,0.285-2.58L53.15,37.897z"/>
	</g>
</g>
</svg>
