<?xml version="1.0" encoding="utf-8"?>
<!-- Generator: Adobe Illustrator 12.0.0, SVG Export Plug-In . SVG Version: 6.00 Build 51448)  -->
<!DOCTYPE svg PUBLIC "-//W3C//DTD SVG 1.1//EN" "http://www.w3.org/Graphics/SVG/1.1/DTD/svg11.dtd" [
	<!ENTITY ns_flows "http://ns.adobe.com/Flows/1.0/">
	<!ENTITY ns_extend "http://ns.adobe.com/Extensibility/1.0/">
	<!ENTITY ns_ai "http://ns.adobe.com/AdobeIllustrator/10.0/">
	<!ENTITY ns_graphs "http://ns.adobe.com/Graphs/1.0/">
	<!ENTITY ns_vars "http://ns.adobe.com/Variables/1.0/">
	<!ENTITY ns_imrep "http://ns.adobe.com/ImageReplacement/1.0/">
	<!ENTITY ns_sfw "http://ns.adobe.com/SaveForWeb/1.0/">
	<!ENTITY ns_custom "http://ns.adobe.com/GenericCustomNamespace/1.0/">
	<!ENTITY ns_adobe_xpath "http://ns.adobe.com/XPath/1.0/">
	<!ENTITY ns_svg "http://www.w3.org/2000/svg">
	<!ENTITY ns_xlink "http://www.w3.org/1999/xlink">
]>
<svg  version="1.1"
	 xmlns:x="&ns_extend;" xmlns:i="&ns_ai;" xmlns:graph="&ns_graphs;" i:viewOrigin="-0.3193 135.7061" i:rulerOrigin="0 0" i:pageBounds="0 136 85 0"
	 xmlns="&ns_svg;" xmlns:xlink="&ns_xlink;" xmlns:a="http://ns.adobe.com/AdobeSVGViewerExtensions/3.0/"
	 width="85.678" height="136.025" viewBox="0 0 85.678 136.025" overflow="visible" enable-background="new 0 0 85.678 136.025"
	 xml:space="preserve">
<metadata>
	<variableSets  xmlns="http://ns.adobe.com/Variables/1.0/">
		<variableSet  varSetName="binding1" locked="none">
			<variables></variables>
			<v:sampleDataSets  xmlns="http://ns.adobe.com/GenericCustomNamespace/1.0/" xmlns:v="http://ns.adobe.com/Variables/1.0/">
				</v:sampleDataSets>
		</variableSet>
	</variableSets>
</metadata>
<g id="图层_1" i:knockout="Off" i:layer="yes" i:dimmedPercent="50" i:rgbTrio="#4F008000FFFF">
	<g i:knockout="Off">
		<path fill="#333333" d="M2.274,99.465v24.962c0,5.149,3.353,9.325,7.481,9.325h68.118c4.133,0,7.484-4.176,7.484-9.325h-0.002
			V9.216c0-4.344-3.353-7.869-7.482-7.869H9.756c-4.131,0-7.481,3.525-7.481,7.869H2.272v90.229
			C2.272,99.45,2.274,99.458,2.274,99.465z"/>
		
			<linearGradient id="XMLID_3_" gradientUnits="userSpaceOnUse" x1="-22.6704" y1="112.9883" x2="-22.6704" y2="-12.5781" gradientTransform="matrix(1 0 0 1 64.5342 22.7178)">
			<stop  offset="0.0899" style="stop-color:#2089B9"/>
			<stop  offset="0.0985" style="stop-color:#4FA3C2"/>
			<stop  offset="0.1071" style="stop-color:#77B9CA"/>
			<stop  offset="0.1138" style="stop-color:#8FC7CF"/>
			<stop  offset="0.118" style="stop-color:#98CCD1"/>
			<stop  offset="0.1341" style="stop-color:#9ECFD3"/>
			<stop  offset="0.156" style="stop-color:#AFD6D9"/>
			<stop  offset="0.1809" style="stop-color:#CBE1E3"/>
			<stop  offset="0.1966" style="stop-color:#E1EAEB"/>
			<a:midPointStop  offset="0.0899" style="stop-color:#2089B9"/>
			<a:midPointStop  offset="0.5" style="stop-color:#2089B9"/>
			<a:midPointStop  offset="0.0985" style="stop-color:#4FA3C2"/>
			<a:midPointStop  offset="0.5" style="stop-color:#4FA3C2"/>
			<a:midPointStop  offset="0.1071" style="stop-color:#77B9CA"/>
			<a:midPointStop  offset="0.5" style="stop-color:#77B9CA"/>
			<a:midPointStop  offset="0.1138" style="stop-color:#8FC7CF"/>
			<a:midPointStop  offset="0.5" style="stop-color:#8FC7CF"/>
			<a:midPointStop  offset="0.118" style="stop-color:#98CCD1"/>
			<a:midPointStop  offset="0.5" style="stop-color:#98CCD1"/>
			<a:midPointStop  offset="0.1341" style="stop-color:#9ECFD3"/>
			<a:midPointStop  offset="0.5" style="stop-color:#9ECFD3"/>
			<a:midPointStop  offset="0.156" style="stop-color:#AFD6D9"/>
			<a:midPointStop  offset="0.5" style="stop-color:#AFD6D9"/>
			<a:midPointStop  offset="0.1809" style="stop-color:#CBE1E3"/>
			<a:midPointStop  offset="0.5" style="stop-color:#CBE1E3"/>
			<a:midPointStop  offset="0.1966" style="stop-color:#E1EAEB"/>
		</linearGradient>
		<path fill="url(#XMLID_3_)" d="M83.405,126.381c0,5.15-3.353,9.325-7.48,9.325H7.804c-4.131,0-7.482-4.177-7.482-9.325V19.465
			c0-5.148,3.354-9.326,7.482-9.326h68.117c4.133,0,7.482,4.176,7.482,9.326v106.916H83.405z"/>
		<path fill="none" stroke="#333333" stroke-width="0.977" d="M83.405,126.381c0,5.15-3.353,9.325-7.48,9.325H7.804
			c-4.131,0-7.482-4.177-7.482-9.325V19.465c0-5.148,3.354-9.326,7.482-9.326h68.117c4.133,0,7.482,4.176,7.482,9.326v106.916
			H83.405z"/>
		<path fill="#FFFFFF" d="M0.32,11.17c0-4.344,3.354-7.869,7.482-7.869H75.92c4.133,0,7.482,3.523,7.482,7.869v90.229
			c0,4.346-3.353,7.868-7.482,7.868H7.802c-4.131,0-7.482-3.522-7.482-7.87V11.17L0.32,11.17z"/>
		
			<linearGradient id="XMLID_4_" gradientUnits="userSpaceOnUse" x1="4.0215" y1="80.7666" x2="86.165" y2="80.7666" gradientTransform="matrix(-1 0 0 -1 86.9551 137.0508)">
			<stop  offset="0" style="stop-color:#A2D8E0"/>
			<stop  offset="0.0899" style="stop-color:#1878AD"/>
			<stop  offset="0.2135" style="stop-color:#194D91"/>
			<stop  offset="0.6404" style="stop-color:#2B90BD"/>
			<stop  offset="0.9438" style="stop-color:#82CBDE"/>
			<stop  offset="1" style="stop-color:#1A478D"/>
			<a:midPointStop  offset="0" style="stop-color:#A2D8E0"/>
			<a:midPointStop  offset="0.5" style="stop-color:#A2D8E0"/>
			<a:midPointStop  offset="0.0899" style="stop-color:#1878AD"/>
			<a:midPointStop  offset="0.5" style="stop-color:#1878AD"/>
			<a:midPointStop  offset="0.2135" style="stop-color:#194D91"/>
			<a:midPointStop  offset="0.5" style="stop-color:#194D91"/>
			<a:midPointStop  offset="0.6404" style="stop-color:#2B90BD"/>
			<a:midPointStop  offset="0.5" style="stop-color:#2B90BD"/>
			<a:midPointStop  offset="0.9438" style="stop-color:#82CBDE"/>
			<a:midPointStop  offset="0.5" style="stop-color:#82CBDE"/>
			<a:midPointStop  offset="1" style="stop-color:#1A478D"/>
		</linearGradient>
		<path i:isolated="yes" i:knockout="Off" opacity="0.1" fill="url(#XMLID_4_)" enable-background="new    " d="M0.79,11.17
			c0-4.344,3.313-7.869,7.397-7.869h67.347c4.086,0,7.399,3.523,7.399,7.869v90.229c0,4.346-3.313,7.868-7.399,7.868H8.188
			c-4.084,0-7.397-3.522-7.397-7.87L0.79,11.17L0.79,11.17z"/>
		<path fill="none" stroke="#4D4D4D" stroke-width="0.977" d="M0.32,101.419v24.962c0,5.148,3.353,9.325,7.482,9.325h68.12
			c4.131,0,7.48-4.175,7.48-9.325V11.171c0-4.346-3.353-7.869-7.482-7.869H7.803c-4.13,0-7.482,3.525-7.482,7.869L0.32,101.399
			C0.319,101.404,0.32,101.411,0.32,101.419z"/>
	</g>
	<g i:knockout="Off">
		<path fill="#24258D" d="M48.687,23.71c1.146,0.572,2.196,1.146,3.152,1.719c0.382,0.191,0.955,0.479,1.72,0.859
			c0.19,0.191,0.383,0.287,0.573,0.287s0.478,0,0.859,0c0.382,0.191,0.764,0.287,1.146,0.287l1.146,1.719v0.574l1.146,1.146
			l-1.146,1.719v1.434c0,0.955-0.096,2.293-0.286,4.014c0,0.383-0.096,0.955-0.287,1.719c-0.191,1.338-0.382,2.58-0.573,3.727
			l1.146,2.293l0.573-1.721l0.859-0.572c0.572-0.572,1.337-0.859,2.293-0.859c0.955-0.383,1.72-0.67,2.293-0.861
			c0.572-0.572,1.146-0.859,1.721-0.859c0.571-0.191,0.954-0.287,1.146-0.287c0.382,0,1.051,0.191,2.006,0.574l0.573,0.859
			c0.382,0.574,0.669,1.242,0.86,2.006c0.189,0.574,0.285,1.148,0.285,1.721c0.191,0.191,0,0.955-0.572,2.293l-0.859,0.572
			c-0.19,0-0.383,0.096-0.573,0.287c-0.19,0-0.765,0.287-1.72,0.859c-0.956,0.383-2.007,0.861-3.153,1.434
			c-0.19,0.191-0.572,0.383-1.146,0.574c-0.383,0-0.956,0.287-1.72,0.859c-0.766,0.191-1.721,0.764-2.866,1.719H56.71l-1.72-1.146
			l-0.286,0.861c-0.191,0.191-0.287,0.572-0.287,1.146c-0.191,0.383-0.286,0.764-0.286,1.146c-0.19,0.383-0.287,0.859-0.287,1.432
			c-0.19,0.574-0.286,1.053-0.286,1.434c-0.19,0.955-0.286,1.721-0.286,2.293c0,0.574,0.096,1.242,0.286,2.006
			c0.19,0.574,0.286,0.766,0.286,0.574c0,0.191,0.286,0.67,0.86,1.434c0.382,0.383,1.433,0.955,3.152,1.719
			c-0.191-0.191,0.19-0.096,1.146,0.287l0.86-0.287c0.571-0.381,1.241-0.668,2.006-0.859c0.382-0.383,1.91-0.955,4.586-1.721
			l0.573,1.146l0.572-1.146l1.146,0.574c0.955,0.191,1.528,0.479,1.72,0.859c0.382,0,1.528,0.861,3.439,2.58l0.287,1.146
			c0.189,0.574,0.286,1.146,0.286,1.719c0,0.191-0.191,0.766-0.573,1.721c0.19-0.383,0,0-0.573,1.146l-0.859,0.287
			c-0.573,0-1.528,0.287-2.865,0.858c-1.338,0.191-2.391,0.287-3.153,0.287c-0.765-0.383-1.72-0.383-2.866,0
			c-1.146,0-2.007,0-2.579,0c-0.574-0.19-1.146-0.287-1.72-0.287c-0.191,0-0.479,0-0.86,0c-0.955-0.19-1.72-0.287-2.293-0.287
			c-0.383,0-0.859-0.096-1.433-0.286c-0.574-0.189-1.052-0.285-1.434-0.285c-0.191-0.383-0.766-0.67-1.721-0.861
			c-0.765-0.572-1.338-1.145-1.72-1.719c0-0.383-0.191-0.859-0.573-1.435c-0.383-0.381-0.573-0.764-0.573-1.146
			c-0.19-1.146-0.478-2.102-0.858-2.865c-0.191-1.146-0.287-2.102-0.287-2.867c0-1.146,0.096-2.102,0.287-2.865
			c0.189-0.383,0.286-1.051,0.286-2.008c0.19-0.764,0.287-1.336,0.287-1.719c0.189-1.719,0.285-2.676,0.285-2.867
			c0-0.572-0.19-1.527-0.572-2.865l-0.859,0.859c-0.191,0.191-0.765,0.67-1.72,1.434c0.572-0.383,0.286-0.191-0.86,0.572
			c-0.955,0.383-3.631,2.867-8.025,7.453l-0.286,2.006c-0.191,0.383-0.287,1.051-0.287,2.006c-0.191,0.957-0.286,1.625-0.286,2.008
			c-0.191,0.383-0.287,0.955-0.287,1.719c0,0.766-0.096,1.338-0.286,1.721c0,0.191-0.096,0.572-0.287,1.146
			c0,0.571-0.096,0.955-0.286,1.146c-0.383,0.572-0.86,1.623-1.434,3.152l-0.573-0.574c0-0.188-0.191-0.477-0.573-0.859
			c-0.573-0.764-1.146-1.622-1.72-2.579l-1.72,1.146l-0.286,0.861c-0.191,0.383-0.67,1.146-1.434,2.293
			c-0.955,1.146-2.293,2.293-4.013,3.438H22.03c-0.574-0.19-1.243-0.287-2.007-0.287l-0.286-0.286
			c-0.191-0.191-0.574-0.859-1.146-2.007c-0.191-0.383-0.479-1.051-0.86-2.006c-0.191-0.383-0.286-0.67-0.286-0.86
			c-0.191-0.955-0.287-1.527-0.287-1.72c0-0.571,0.19-1.146,0.573-1.721c0.382-0.955,0.669-1.719,0.86-2.293
			c0.382-0.955,0.668-2.006,0.859-3.152c0.191-0.572,0.478-1.434,0.86-2.58c0.19-0.381,0.286-0.668,0.286-0.859
			c0.191-0.572,0.573-1.434,1.146-2.58c0.191-0.381,0.382-0.764,0.573-1.146l-0.859-0.285c-0.574-0.191-1.243-0.574-2.007-1.146
			c-0.765-0.574-1.242-1.146-1.433-1.721c-0.191-0.191-0.287-0.572-0.287-1.146c-0.191-0.381-0.382-0.668-0.573-0.859
			c0-0.191-0.191-0.572-0.573-1.146c-0.383-0.955-0.765-1.91-1.146-2.867h0.86c0.19,0,0.477,0,0.859,0
			c0.764-0.189,1.433-0.285,2.007-0.285c1.528-0.191,2.675-0.287,3.439-0.287c0.382,0,0.859-0.096,1.433-0.287
			c0.382,0,0.669,0,0.86,0c0.19-0.191,1.241-0.287,3.152-0.287l0.86-0.572c0.572-0.572,1.241-0.955,2.006-1.146l-0.286-0.574
			c-0.191-0.572-0.287-0.955-0.287-1.146c0-0.189-0.096-0.764-0.286-1.719c0.19,0.574,0.095,0.287-0.287-0.859
			c-0.191-0.574-0.382-1.338-0.573-2.293c-0.383-0.574-0.573-1.051-0.573-1.434c-0.191-0.955-0.573-2.484-1.146-4.586l0.86,0.287
			c0.19,0,0.477,0.096,0.859,0.285h0.573c0.382,0,1.051,0.096,2.007,0.287c0.764-0.191,2.006,0.67,3.726,2.58h0.573l0.86,1.146
			c0.572,0.574,0.955,1.338,1.146,2.293c0.19,0.191,0.286,0.574,0.286,1.146c0.191,0.574,0.287,0.955,0.287,1.146
			c0.19,0.574,0.286,1.242,0.286,2.006c0,0.574-0.096,1.434-0.286,2.58c0,0.383-0.096,0.859-0.287,1.434
			c0,0.572-0.096,1.051-0.286,1.432c-0.191,0.191-0.287,0.67-0.287,1.434c-0.191,0.574-0.286,1.051-0.286,1.434
			c-0.191,0.574-0.287,1.529-0.287,2.865c-0.191,0.957-0.286,1.721-0.286,2.293l0.859-0.859c0.382-0.191,1.146-0.859,2.293-2.006
			c0.955-0.764,1.72-1.434,2.293-2.006c0.764-0.764,1.815-1.721,3.153-2.867c1.527-1.527,2.771-2.77,3.726-3.727l0.287-4.299
			c0.19-2.865,0.286-4.777,0.286-5.732c0-1.146-0.096-2.293-0.286-3.439c0-0.381-0.096-0.859-0.287-1.434
			c0-0.381-0.096-0.859-0.286-1.432c-0.19-0.574-0.479-1.146-0.859-1.721c-0.191-0.191-0.286-0.572-0.286-1.146
			c-0.191-0.381-0.383-0.668-0.573-0.859c0-0.191-0.096-0.477-0.287-0.859c-0.19-0.764-0.382-1.434-0.573-2.008l0.573-1.146
			L48.687,23.71z M28.336,56.958c-0.574,0.572-1.243,1.146-2.007,1.719c-0.765,0.383-1.624,1.146-2.579,2.293
			c-0.956,0.955-1.625,1.721-2.007,2.293c0,0.191-0.191,0.479-0.573,0.859c-0.383,0.383-0.573,0.67-0.573,0.861
			c-0.383,0.572-0.478,0.668-0.286,0.285c-0.191,0.383-0.479,1.146-0.86,2.293c-0.191,0.574-0.191,0.766,0,0.574
			c-0.383,0.955-0.573,1.91-0.573,2.865l1.434-0.572c0.382-0.19,0.955-0.477,1.72-0.858c0.572-0.191,1.05-0.384,1.433-0.574
			c0.191-0.191,0.478-0.381,0.86-0.572c0.572-0.383,1.146-0.574,1.72-0.574c0.764-0.381,2.006-1.432,3.726-3.152l0.287-1.721
			c0.19-1.146,0.286-2.197,0.286-3.152c0-0.955-0.383-2.197-1.146-3.727L28.336,56.958z"/>
	</g>
</g>
</svg>
