<?xml version="1.0" encoding="utf-8"?>
<!-- Generator: Adobe Illustrator 12.0.0, SVG Export Plug-In . SVG Version: 6.00 Build 51448)  -->
<!DOCTYPE svg PUBLIC "-//W3C//DTD SVG 1.1//EN" "http://www.w3.org/Graphics/SVG/1.1/DTD/svg11.dtd" [
	<!ENTITY ns_flows "http://ns.adobe.com/Flows/1.0/">
	<!ENTITY ns_extend "http://ns.adobe.com/Extensibility/1.0/">
	<!ENTITY ns_ai "http://ns.adobe.com/AdobeIllustrator/10.0/">
	<!ENTITY ns_graphs "http://ns.adobe.com/Graphs/1.0/">
	<!ENTITY ns_vars "http://ns.adobe.com/Variables/1.0/">
	<!ENTITY ns_imrep "http://ns.adobe.com/ImageReplacement/1.0/">
	<!ENTITY ns_sfw "http://ns.adobe.com/SaveForWeb/1.0/">
	<!ENTITY ns_custom "http://ns.adobe.com/GenericCustomNamespace/1.0/">
	<!ENTITY ns_adobe_xpath "http://ns.adobe.com/XPath/1.0/">
	<!ENTITY ns_svg "http://www.w3.org/2000/svg">
	<!ENTITY ns_xlink "http://www.w3.org/1999/xlink">
]>
<svg  version="1.1"
	 xmlns:x="&ns_extend;" xmlns:i="&ns_ai;" xmlns:graph="&ns_graphs;" i:viewOrigin="-0.3193 135.7061" i:rulerOrigin="0 0" i:pageBounds="0 136 85 0"
	 xmlns="&ns_svg;" xmlns:xlink="&ns_xlink;" xmlns:a="http://ns.adobe.com/AdobeSVGViewerExtensions/3.0/"
	 width="85.678" height="136.025" viewBox="0 0 85.678 136.025" overflow="visible" enable-background="new 0 0 85.678 136.025"
	 xml:space="preserve">
<metadata>
	<variableSets  xmlns="http://ns.adobe.com/Variables/1.0/">
		<variableSet  varSetName="binding1" locked="none">
			<variables></variables>
			<v:sampleDataSets  xmlns="http://ns.adobe.com/GenericCustomNamespace/1.0/" xmlns:v="http://ns.adobe.com/Variables/1.0/">
				</v:sampleDataSets>
		</variableSet>
	</variableSets>
</metadata>
<g id="图层_1" i:knockout="Off" i:layer="yes" i:dimmedPercent="50" i:rgbTrio="#4F008000FFFF">
	<g i:knockout="Off">
		<path fill="#333333" d="M2.274,99.465v24.962c0,5.149,3.353,9.325,7.481,9.325h68.118c4.133,0,7.484-4.176,7.484-9.325h-0.002
			V9.216c0-4.344-3.353-7.869-7.482-7.869H9.756c-4.131,0-7.481,3.525-7.481,7.869H2.272v90.229
			C2.272,99.45,2.274,99.458,2.274,99.465z"/>
		
			<linearGradient id="XMLID_3_" gradientUnits="userSpaceOnUse" x1="-22.6704" y1="112.9883" x2="-22.6704" y2="-12.5781" gradientTransform="matrix(1 0 0 1 64.5342 22.7178)">
			<stop  offset="0.0899" style="stop-color:#2089B9"/>
			<stop  offset="0.0985" style="stop-color:#4FA3C2"/>
			<stop  offset="0.1071" style="stop-color:#77B9CA"/>
			<stop  offset="0.1138" style="stop-color:#8FC7CF"/>
			<stop  offset="0.118" style="stop-color:#98CCD1"/>
			<stop  offset="0.1341" style="stop-color:#9ECFD3"/>
			<stop  offset="0.156" style="stop-color:#AFD6D9"/>
			<stop  offset="0.1809" style="stop-color:#CBE1E3"/>
			<stop  offset="0.1966" style="stop-color:#E1EAEB"/>
			<a:midPointStop  offset="0.0899" style="stop-color:#2089B9"/>
			<a:midPointStop  offset="0.5" style="stop-color:#2089B9"/>
			<a:midPointStop  offset="0.0985" style="stop-color:#4FA3C2"/>
			<a:midPointStop  offset="0.5" style="stop-color:#4FA3C2"/>
			<a:midPointStop  offset="0.1071" style="stop-color:#77B9CA"/>
			<a:midPointStop  offset="0.5" style="stop-color:#77B9CA"/>
			<a:midPointStop  offset="0.1138" style="stop-color:#8FC7CF"/>
			<a:midPointStop  offset="0.5" style="stop-color:#8FC7CF"/>
			<a:midPointStop  offset="0.118" style="stop-color:#98CCD1"/>
			<a:midPointStop  offset="0.5" style="stop-color:#98CCD1"/>
			<a:midPointStop  offset="0.1341" style="stop-color:#9ECFD3"/>
			<a:midPointStop  offset="0.5" style="stop-color:#9ECFD3"/>
			<a:midPointStop  offset="0.156" style="stop-color:#AFD6D9"/>
			<a:midPointStop  offset="0.5" style="stop-color:#AFD6D9"/>
			<a:midPointStop  offset="0.1809" style="stop-color:#CBE1E3"/>
			<a:midPointStop  offset="0.5" style="stop-color:#CBE1E3"/>
			<a:midPointStop  offset="0.1966" style="stop-color:#E1EAEB"/>
		</linearGradient>
		<path fill="url(#XMLID_3_)" d="M83.405,126.381c0,5.15-3.353,9.325-7.48,9.325H7.804c-4.131,0-7.482-4.177-7.482-9.325V19.465
			c0-5.148,3.354-9.326,7.482-9.326h68.117c4.133,0,7.482,4.176,7.482,9.326v106.916H83.405z"/>
		<path fill="none" stroke="#333333" stroke-width="0.977" d="M83.405,126.381c0,5.15-3.353,9.325-7.48,9.325H7.804
			c-4.131,0-7.482-4.177-7.482-9.325V19.465c0-5.148,3.354-9.326,7.482-9.326h68.117c4.133,0,7.482,4.176,7.482,9.326v106.916
			H83.405z"/>
		<path fill="#FFFFFF" d="M0.32,11.17c0-4.344,3.354-7.869,7.482-7.869H75.92c4.133,0,7.482,3.523,7.482,7.869v90.229
			c0,4.346-3.353,7.868-7.482,7.868H7.802c-4.131,0-7.482-3.522-7.482-7.87V11.17L0.32,11.17z"/>
		
			<linearGradient id="XMLID_4_" gradientUnits="userSpaceOnUse" x1="4.0215" y1="80.7666" x2="86.165" y2="80.7666" gradientTransform="matrix(-1 0 0 -1 86.9551 137.0508)">
			<stop  offset="0" style="stop-color:#A2D8E0"/>
			<stop  offset="0.0899" style="stop-color:#1878AD"/>
			<stop  offset="0.2135" style="stop-color:#194D91"/>
			<stop  offset="0.6404" style="stop-color:#2B90BD"/>
			<stop  offset="0.9438" style="stop-color:#82CBDE"/>
			<stop  offset="1" style="stop-color:#1A478D"/>
			<a:midPointStop  offset="0" style="stop-color:#A2D8E0"/>
			<a:midPointStop  offset="0.5" style="stop-color:#A2D8E0"/>
			<a:midPointStop  offset="0.0899" style="stop-color:#1878AD"/>
			<a:midPointStop  offset="0.5" style="stop-color:#1878AD"/>
			<a:midPointStop  offset="0.2135" style="stop-color:#194D91"/>
			<a:midPointStop  offset="0.5" style="stop-color:#194D91"/>
			<a:midPointStop  offset="0.6404" style="stop-color:#2B90BD"/>
			<a:midPointStop  offset="0.5" style="stop-color:#2B90BD"/>
			<a:midPointStop  offset="0.9438" style="stop-color:#82CBDE"/>
			<a:midPointStop  offset="0.5" style="stop-color:#82CBDE"/>
			<a:midPointStop  offset="1" style="stop-color:#1A478D"/>
		</linearGradient>
		<path i:isolated="yes" i:knockout="Off" opacity="0.1" fill="url(#XMLID_4_)" enable-background="new    " d="M0.79,11.17
			c0-4.344,3.313-7.869,7.397-7.869h67.347c4.086,0,7.399,3.523,7.399,7.869v90.229c0,4.346-3.313,7.868-7.399,7.868H8.188
			c-4.084,0-7.397-3.522-7.397-7.87L0.79,11.17L0.79,11.17z"/>
		<path fill="none" stroke="#4D4D4D" stroke-width="0.977" d="M0.32,101.419v24.962c0,5.148,3.353,9.325,7.482,9.325h68.12
			c4.131,0,7.48-4.175,7.48-9.325V11.171c0-4.346-3.353-7.869-7.482-7.869H7.803c-4.13,0-7.482,3.525-7.482,7.869L0.32,101.399
			C0.319,101.404,0.32,101.411,0.32,101.419z"/>
	</g>
	<g i:knockout="Off">
		<path fill="#D90000" d="M42.46,13.838l1.875-1.25l-0.625,0.625l0.312,0.312c0.209,0,0.521,0.105,0.938,0.312
			c-0.418-0.207-0.209,0.002,0.625,0.627c0.834,0.209,1.562,0.625,2.189,1.25c0.625,0.209,1.354,0.627,2.188,1.252l0.312,1.25
			c0.207,0.625,0.312,1.252,0.312,1.877c0,0.209-0.104,0.521-0.312,0.938c-0.209,0.418-0.312,0.73-0.312,0.939
			c-0.209,0.416-0.627,1.668-1.252,3.752l1.252,0.625l-1.252,2.502l1.877-0.312c1.25-0.416,1.459-0.521,0.625-0.312
			c0.834-0.209,1.668-0.312,2.502-0.312c1.043-0.209,2.293-0.312,3.754-0.312c0.625,0,1.459-0.104,2.502-0.312
			c0.416,0,0.729,0,0.938,0c0.209-0.209,0.521-0.418,0.938-0.627c0.209,0,0.418-0.104,0.627-0.312l0.625,0.627l0.625,0.312
			c0.416,0.416,0.729,0.729,0.938,0.938c0.625,0.418,1.459,0.939,2.502,1.564c0.209,0.209,0.521,0.416,0.939,0.625
			c0.834,0.418,1.354,0.73,1.562,0.938c0.625,0.209,1.043,0.627,1.252,1.252c0.209,0.209,0.312,0.416,0.312,0.625
			c0.209,0.418,0.312,0.73,0.312,0.938c0.209,0.418,0.312,0.939,0.312,1.564l-1.25,1.564c-0.834,1.043-1.773,1.877-2.814,2.502
			c-0.834,0.625-2.086,1.668-3.754,3.127c-0.418,0.418-1.043,1.043-1.877,1.877c-0.625,0.625-1.146,1.043-1.562,1.25
			c-1.252,0.834-2.293,1.564-3.127,2.189l0.625,0.938c0,0.209,0.207,0.523,0.625,0.939c0.416,0.625,0.834,1.252,1.252,1.877
			l-0.313,0.625c-0.209,0.209-0.521,0.625-0.938,1.25c0.416-0.625,0.209-0.207-0.625,1.252h-0.312h-0.627
			c-0.625-0.209-1.25-0.416-1.875-0.625c-1.461-0.625-2.504-0.834-3.129-0.627c-0.834,0-1.771,0.209-2.814,0.627l-0.312,1.25
			c-0.209,0.209-0.312,0.834-0.312,1.877c-0.209,1.043-0.312,1.771-0.312,2.189c-0.209,0.625-0.312,1.877-0.312,3.752
			c-0.209,1.461-0.312,2.607-0.312,3.441s-0.105,2.084-0.312,3.752c0,1.668-0.104,2.814-0.313,3.439
			c-0.209,0.627-0.312,1.563-0.312,2.815c0,1.25-0.104,2.189-0.312,2.814c0,0.416-0.104,1.146-0.312,2.188
			c0,1.25-0.104,2.084-0.312,2.502c0,0.416-0.105,0.938-0.312,1.562c0,0.625-0.104,1.146-0.312,1.563
			c0,0.209-0.105,0.416-0.312,0.625c0,0.834-0.209,1.459-0.627,1.877l-0.625-1.252c-0.209-0.834-0.521-2.293-0.938-4.377
			c0-0.418-0.105-1.043-0.312-1.877c0-0.834-0.105-1.563-0.314-2.188c-0.209-0.418-0.312-1.459-0.312-3.127s0-3.127,0-4.379
			c0-1.25-0.104-2.605-0.312-4.066c-0.209-1.459-0.312-3.127-0.312-5.004c0-1.25,0-3.752,0-7.506l-0.938,0.312
			c-0.627,0-1.461,0.209-2.502,0.627c-0.418,0-0.836,0.104-1.252,0.312h-0.625h-0.312c-0.418-0.209-0.73-0.312-0.939-0.312
			c-0.625-0.418-1.771-1.146-3.439-2.189v2.502c0,1.459-0.104,2.502-0.312,3.127l-0.312,0.312c-0.209,0.418-0.418,0.73-0.625,0.939
			l-2.512-2.5c-0.418-0.418-0.939-1.043-1.564-1.877c-0.625-0.625-1.146-1.252-1.564-1.877c0-0.416-0.209-0.938-0.625-1.564
			c-0.418-0.416-0.625-0.832-0.625-1.25c-0.209-1.25-0.521-2.502-0.939-3.754c-0.209-0.625-0.312-1.459-0.312-2.502
			c0-0.834-0.104-1.562-0.312-2.188c0-0.418-0.104-1.043-0.312-1.877c0-0.625-0.104-1.252-0.312-1.877
			c0-0.209-0.105-0.521-0.312-0.938c0-0.625-0.105-1.043-0.312-1.252c-0.209-0.625-0.312-1.771-0.312-3.439l0.938,0.625
			c0.625,0.209,1.25,0.834,1.877,1.877c0.207,0.209,0.52,0.521,0.938,0.938c0.416,0.627,0.729,1.043,0.938,1.252
			c0.834,0.625,1.564,1.771,2.189,3.439l0.312-1.25c0.209-1.043,1.043-2.189,2.502-3.441c1.668-1.459,2.92-2.502,3.754-3.127
			c1.043-0.625,1.98-1.146,2.814-1.564c1.043-0.625,1.668-0.938,1.877-0.938c0.416-0.416,0.938-0.625,1.562-0.625
			c0.625-0.418,1.146-0.73,1.564-0.939c0.209-0.207,0.416-0.52,0.625-0.938c0-0.209,0.104-0.416,0.312-0.625
			c0.209-0.625,0.314-1.564,0.314-2.814c0-1.459,0.104-2.502,0.312-3.129c0.207-0.834,0.312-1.562,0.312-2.189
			c0-0.625-0.105-1.25-0.312-1.875c0-0.209-0.105-0.418-0.312-0.627c-0.209-0.625-0.418-1.145-0.627-1.562l-0.312,1.25
			c-0.209,0.209-0.312,0.73-0.312,1.564c-0.209,0.834-0.312,1.459-0.312,1.877c-0.209,0.625-0.312,1.355-0.312,2.189
			c0,0.625,0,2.084,0,4.377l-0.312-2.502c-0.209-1.875-0.312-3.543-0.312-5.004c0-1.875,0.207-3.334,0.625-4.377l-0.625-1.252
			l0.312-0.625c0-0.416,0.938-1.25,2.814-2.502L42.46,13.838z M41.833,38.857l-0.938,0.312c-0.625,0-1.564,0.314-2.814,0.939
			c-1.461,0.418-3.336,1.043-5.629,1.877l-0.627,0.938c-0.209,0.625-0.521,1.355-0.938,2.189c-0.209,0.209-0.312,0.625-0.312,1.25
			c-0.209,0.627-0.312,1.148-0.312,1.564c-0.209,0.834-0.312,1.564-0.312,2.189c0,0.418,0.207,1.043,0.625,1.877l1.877-1.252h1.25
			v-1.25h2.502c1.459,0,3.336-0.418,5.629-1.252L41.833,38.857L41.833,38.857z M58.097,30.727l-0.625,1.252l-3.754,0.625
			l-0.625-0.625l-0.312,0.312c-0.209,0-0.418,0.104-0.627,0.312s-0.416,0.312-0.625,0.312c-0.418,0-1.355,0.521-2.814,1.564v2.502
			c0,1.668-0.104,2.814-0.312,3.439s-0.209,1.355,0,2.189c0,0.209,0.104,0.521,0.312,0.938c0.209,0.834,0.416,1.564,0.625,2.189
			l1.564-1.25c0.209-0.209,0.625-0.627,1.25-1.252c0.834-0.625,1.563-1.25,2.188-1.877l-0.625-0.625l0.938-0.625
			c0.209-0.209,0.521-0.521,0.938-0.939l0.625-0.312c0.209-0.207,0.416-0.52,0.625-0.938c0.209-0.416,0.418-0.729,0.627-0.938
			l1.25-0.627l-0.625-1.25l0.938-0.939c0.416-0.416,0.938-1.354,1.563-2.814L58.097,30.727z"/>
	</g>
</g>
</svg>
