<?xml version="1.0" encoding="utf-8"?>
<!-- Generator: Adobe Illustrator 12.0.0, SVG Export Plug-In . SVG Version: 6.00 Build 51448)  -->
<!DOCTYPE svg PUBLIC "-//W3C//DTD SVG 1.1//EN" "http://www.w3.org/Graphics/SVG/1.1/DTD/svg11.dtd" [
	<!ENTITY ns_flows "http://ns.adobe.com/Flows/1.0/">
	<!ENTITY ns_extend "http://ns.adobe.com/Extensibility/1.0/">
	<!ENTITY ns_ai "http://ns.adobe.com/AdobeIllustrator/10.0/">
	<!ENTITY ns_graphs "http://ns.adobe.com/Graphs/1.0/">
	<!ENTITY ns_vars "http://ns.adobe.com/Variables/1.0/">
	<!ENTITY ns_imrep "http://ns.adobe.com/ImageReplacement/1.0/">
	<!ENTITY ns_sfw "http://ns.adobe.com/SaveForWeb/1.0/">
	<!ENTITY ns_custom "http://ns.adobe.com/GenericCustomNamespace/1.0/">
	<!ENTITY ns_adobe_xpath "http://ns.adobe.com/XPath/1.0/">
	<!ENTITY ns_svg "http://www.w3.org/2000/svg">
	<!ENTITY ns_xlink "http://www.w3.org/1999/xlink">
]>
<svg  version="1.1"
	 xmlns:x="&ns_extend;" xmlns:i="&ns_ai;" xmlns:graph="&ns_graphs;" i:viewOrigin="-0.3193 135.7061" i:rulerOrigin="0 0" i:pageBounds="0 136 85 0"
	 xmlns="&ns_svg;" xmlns:xlink="&ns_xlink;" xmlns:a="http://ns.adobe.com/AdobeSVGViewerExtensions/3.0/"
	 width="85.678" height="136.025" viewBox="0 0 85.678 136.025" overflow="visible" enable-background="new 0 0 85.678 136.025"
	 xml:space="preserve">
<metadata>
	<variableSets  xmlns="http://ns.adobe.com/Variables/1.0/">
		<variableSet  varSetName="binding1" locked="none">
			<variables></variables>
			<v:sampleDataSets  xmlns="http://ns.adobe.com/GenericCustomNamespace/1.0/" xmlns:v="http://ns.adobe.com/Variables/1.0/">
				</v:sampleDataSets>
		</variableSet>
	</variableSets>
</metadata>
<g id="图层_1" i:knockout="Off" i:layer="yes" i:dimmedPercent="50" i:rgbTrio="#4F008000FFFF">
	<g i:knockout="Off">
		<path fill="#333333" d="M2.274,99.465v24.962c0,5.149,3.353,9.325,7.481,9.325h68.118c4.133,0,7.484-4.176,7.484-9.325h-0.002
			V9.216c0-4.344-3.353-7.869-7.482-7.869H9.756c-4.131,0-7.481,3.525-7.481,7.869H2.272v90.229
			C2.272,99.45,2.274,99.458,2.274,99.465z"/>
		
			<linearGradient id="XMLID_3_" gradientUnits="userSpaceOnUse" x1="-22.6704" y1="112.9883" x2="-22.6704" y2="-12.5781" gradientTransform="matrix(1 0 0 1 64.5342 22.7178)">
			<stop  offset="0.0899" style="stop-color:#2089B9"/>
			<stop  offset="0.0985" style="stop-color:#4FA3C2"/>
			<stop  offset="0.1071" style="stop-color:#77B9CA"/>
			<stop  offset="0.1138" style="stop-color:#8FC7CF"/>
			<stop  offset="0.118" style="stop-color:#98CCD1"/>
			<stop  offset="0.1341" style="stop-color:#9ECFD3"/>
			<stop  offset="0.156" style="stop-color:#AFD6D9"/>
			<stop  offset="0.1809" style="stop-color:#CBE1E3"/>
			<stop  offset="0.1966" style="stop-color:#E1EAEB"/>
			<a:midPointStop  offset="0.0899" style="stop-color:#2089B9"/>
			<a:midPointStop  offset="0.5" style="stop-color:#2089B9"/>
			<a:midPointStop  offset="0.0985" style="stop-color:#4FA3C2"/>
			<a:midPointStop  offset="0.5" style="stop-color:#4FA3C2"/>
			<a:midPointStop  offset="0.1071" style="stop-color:#77B9CA"/>
			<a:midPointStop  offset="0.5" style="stop-color:#77B9CA"/>
			<a:midPointStop  offset="0.1138" style="stop-color:#8FC7CF"/>
			<a:midPointStop  offset="0.5" style="stop-color:#8FC7CF"/>
			<a:midPointStop  offset="0.118" style="stop-color:#98CCD1"/>
			<a:midPointStop  offset="0.5" style="stop-color:#98CCD1"/>
			<a:midPointStop  offset="0.1341" style="stop-color:#9ECFD3"/>
			<a:midPointStop  offset="0.5" style="stop-color:#9ECFD3"/>
			<a:midPointStop  offset="0.156" style="stop-color:#AFD6D9"/>
			<a:midPointStop  offset="0.5" style="stop-color:#AFD6D9"/>
			<a:midPointStop  offset="0.1809" style="stop-color:#CBE1E3"/>
			<a:midPointStop  offset="0.5" style="stop-color:#CBE1E3"/>
			<a:midPointStop  offset="0.1966" style="stop-color:#E1EAEB"/>
		</linearGradient>
		<path fill="url(#XMLID_3_)" d="M83.405,126.381c0,5.15-3.353,9.325-7.48,9.325H7.804c-4.131,0-7.482-4.177-7.482-9.325V19.465
			c0-5.148,3.354-9.326,7.482-9.326h68.117c4.133,0,7.482,4.176,7.482,9.326v106.916H83.405z"/>
		<path fill="none" stroke="#333333" stroke-width="0.977" d="M83.405,126.381c0,5.15-3.353,9.325-7.48,9.325H7.804
			c-4.131,0-7.482-4.177-7.482-9.325V19.465c0-5.148,3.354-9.326,7.482-9.326h68.117c4.133,0,7.482,4.176,7.482,9.326v106.916
			H83.405z"/>
		<path fill="#FFFFFF" d="M0.32,11.17c0-4.344,3.354-7.869,7.482-7.869H75.92c4.133,0,7.482,3.523,7.482,7.869v90.229
			c0,4.346-3.353,7.868-7.482,7.868H7.802c-4.131,0-7.482-3.522-7.482-7.87V11.17L0.32,11.17z"/>
		
			<linearGradient id="XMLID_4_" gradientUnits="userSpaceOnUse" x1="4.0215" y1="80.7666" x2="86.165" y2="80.7666" gradientTransform="matrix(-1 0 0 -1 86.9551 137.0508)">
			<stop  offset="0" style="stop-color:#A2D8E0"/>
			<stop  offset="0.0899" style="stop-color:#1878AD"/>
			<stop  offset="0.2135" style="stop-color:#194D91"/>
			<stop  offset="0.6404" style="stop-color:#2B90BD"/>
			<stop  offset="0.9438" style="stop-color:#82CBDE"/>
			<stop  offset="1" style="stop-color:#1A478D"/>
			<a:midPointStop  offset="0" style="stop-color:#A2D8E0"/>
			<a:midPointStop  offset="0.5" style="stop-color:#A2D8E0"/>
			<a:midPointStop  offset="0.0899" style="stop-color:#1878AD"/>
			<a:midPointStop  offset="0.5" style="stop-color:#1878AD"/>
			<a:midPointStop  offset="0.2135" style="stop-color:#194D91"/>
			<a:midPointStop  offset="0.5" style="stop-color:#194D91"/>
			<a:midPointStop  offset="0.6404" style="stop-color:#2B90BD"/>
			<a:midPointStop  offset="0.5" style="stop-color:#2B90BD"/>
			<a:midPointStop  offset="0.9438" style="stop-color:#82CBDE"/>
			<a:midPointStop  offset="0.5" style="stop-color:#82CBDE"/>
			<a:midPointStop  offset="1" style="stop-color:#1A478D"/>
		</linearGradient>
		<path i:isolated="yes" i:knockout="Off" opacity="0.1" fill="url(#XMLID_4_)" enable-background="new    " d="M0.79,11.17
			c0-4.344,3.313-7.869,7.397-7.869h67.347c4.086,0,7.399,3.523,7.399,7.869v90.229c0,4.346-3.313,7.868-7.399,7.868H8.188
			c-4.084,0-7.397-3.522-7.397-7.87L0.79,11.17L0.79,11.17z"/>
		<path fill="none" stroke="#4D4D4D" stroke-width="0.977" d="M0.32,101.419v24.962c0,5.148,3.353,9.325,7.482,9.325h68.12
			c4.131,0,7.48-4.175,7.48-9.325V11.171c0-4.346-3.353-7.869-7.482-7.869H7.803c-4.13,0-7.482,3.525-7.482,7.869L0.32,101.399
			C0.319,101.404,0.32,101.411,0.32,101.419z"/>
	</g>
	<g i:knockout="Off">
		<g i:knockout="Off">
			<path fill="#24258D" d="M60.976,18.28c3.941,0,8.742,0.102,14.402,0.303c0.81,0.102,1.012,0.607,0.607,1.517
				c-1.314,2.628-3.74,3.589-7.277,2.881c-4.348-1.112-8.693-1.668-13.039-1.668c-4.447,0.102-8.288,0.759-11.521,1.972
				c-0.81,0.303-1.466,0.252-1.973-0.152c-0.505-0.606-0.555-1.264-0.15-1.971c0.605-1.011,1.363-1.719,2.273-2.123
				c0.91-0.505,1.668-0.605,2.274-0.303c0.605,0.404,1.517,0.506,2.729,0.303C53.142,18.634,57.033,18.382,60.976,18.28z"/>
		</g>
		<path i:knockout="Off" fill="none" d="M34.085,27.938c-0.215-1.514-1.059-2.693-1.869-3.508c0.19,3.355,0.097,6.471-0.112,9.371
			C33.673,31.711,34.341,29.745,34.085,27.938z"/>
		<path i:knockout="Off" fill="none" d="M24.356,25.533c-0.59,0.963-0.632,1.95-0.354,2.888l1.424-1.394
			c0.158,0.162,2.852,2.932,4.742,5.76c0.022-0.357,0.041-0.721,0.059-1.084C29.034,28.189,25.745,26.225,24.356,25.533z"/>
		<path i:knockout="Off" fill="none" d="M30.051,22.628c-1.016,0.071-2.792,0.354-4.257,1.396c1.227,0.668,3.053,1.874,4.523,3.738
			c-0.006-1.219-0.039-2.464-0.124-3.748C30.162,23.537,30.108,23.081,30.051,22.628z"/>
		<path i:knockout="Off" fill="none" d="M36.548,38.152c0.983-0.807,1.89-1.41,2.819-1.938c-1.26,0.164-2.953,0.784-3.914,1.68
			c-0.98,0.914-1.06,1.711-1.288,2.619C34.83,39.719,35.648,38.891,36.548,38.152z"/>
		<path i:knockout="Off" fill="none" d="M21.167,43.676c-0.457-0.195-0.905-0.33-1.348-0.438c-0.356,0.405-0.609,0.847-0.785,1.251
			c-0.449,1.035-0.552,2.166-0.435,3.107l1.283-1.449c0.103,0.09,2.344,2.006,4.761,1.092
			C23.792,45.656,22.703,44.334,21.167,43.676z"/>
		<path i:knockout="Off" fill="none" d="M22.498,41.859c-0.126,0.016-0.236,0.047-0.354,0.07c1.966,0.91,3.307,2.573,4.31,4.464
			c0.028-0.728-0.098-1.572-0.439-2.361C25.612,43.104,24.621,41.588,22.498,41.859z"/>
		<path i:knockout="Off" fill="none" d="M41.771,39.52l-3.425-0.388l-0.992,0.669l-1.229,1.252c0,0,2.981,0.195,4.01,0.145
			c1.028-0.052,0.807,1.021,0.807,1.021l-5.663-0.059c0,0-0.261,0.498-0.688,1.176c1.352,0.651,4.274,1.548,7.278-0.855
			c1.729-1.383,2.203-2.838,2.203-4.018c0-0.771-0.2-1.401-0.387-1.837c-0.924,0.204-3.048,1.026-4.107,1.591
			c-0.395,0.209,2.913,0.41,2.913,0.41L41.771,39.52z"/>
		<path i:knockout="Off" fill="none" d="M17.294,80.234l-0.862-1.806c0.044-0.021,4.065-1.998,4.789-5.266
			c-0.19-0.053-0.38-0.104-0.567-0.146c-3.218,0.631-5.527,5.398-5.551,5.447l-1.807-0.854c0.078-0.166,1.38-2.865,3.578-4.777
			c-0.529,0.1-1.036,0.252-1.494,0.502c-1.481,0.809-2.469,2.254-3.139,3.813c1.108,1.363,3.556,3.855,5.693,3.994
			c2.104,0.134,3.739-2.893,4.716-4.698l0.725-1.267c0.266-0.397,0.521-0.721,0.761-0.99c-0.338-0.145-0.676-0.276-1.014-0.403
			C22.096,77.885,17.509,80.131,17.294,80.234z"/>
		<path i:knockout="Off" fill="none" d="M54.39,71.225c-0.43,0.609-0.595,1.203-0.479,1.652c1.36-1.533,3.821-2.887,7.464-1.734
			l-0.604,1.906c-3.401-1.076-5.092,0.658-5.745,1.648c0.4,0.434,0.882,0.846,1.488,1.146c1.202,0.599,2.536,0.652,3.966,0.166
			c2.848-0.969,3.463-4.949,3.598-6.459c-0.723-0.313-2.271-0.832-4.783-0.772C57.062,68.826,55.222,70.043,54.39,71.225z"/>
		<path fill="#35A034" d="M44.593,79.504c-1.674-1.068-3.238-2.402-4.399-3.479c-0.817,0.163-1.699,0.26-2.64,0.245
			c1.584,1.607,5.379,5.177,9.062,6.521l2.733,0.998l-1.544-2.469c-0.025-0.041-2.337-3.783-2.894-7.238
			c-0.503,0.328-1.121,0.682-1.84,1.01C43.413,76.678,44.009,78.234,44.593,79.504z"/>
		<path fill="#35A034" d="M65.659,68.105c-0.15-0.1-2.252-1.424-6.411-1.328c-2.577,0.059-5.126,1.354-6.494,3.297
			c-0.832,1.182-1.092,2.428-0.73,3.508c0.159,0.481,0.423,1.022,0.786,1.566c0.39,2.225-0.256,4.577-0.771,5.987
			c-2.155-2.156-4.171-4.92-5.398-8.334c-0.111,0.058-0.178,0.09-0.178,0.09s-0.534,0.521-1.491,1.15
			c3.778,9.742,13.183,14.209,15.113,15.037c0.102,0.192,0.308,0.584,0.604,1.145c-0.109-0.026-0.354-0.086-0.378-0.092
			c-2.735-1.145-22.625-10.434-27.057-13.215c-4.651-2.918-13.31-8.35-18.829-5.34c-5.692,3.104-5.774,8.08-4.967,10.596
			c0.519,1.617,1.405,1.543,1.405,1.543c0.001-0.039,0.04-2.072,0.637-4.385c1.384,1.496,3.788,3.645,6.31,3.807
			c3.382,0.215,5.398-3.516,6.603-5.746l0.629-1.104c0.426-0.64,0.787-1.002,1.029-1.205c2.373,1.184,4.572,2.559,6.121,3.531
			c4.734,2.971,25.02,12.403,27.419,13.396l0.071,0.029c0,0,1.38,0.942,2.716,1.268c1.046,0.252,2.119-0.1,2.119-0.1l-2.457-4.668
			l2.42-2.058l-1.414-1.413l-2.435,2.062c-1.164-0.531-4.059-1.994-7.016-4.531c0.441-1.045,1.176-3.088,1.299-5.371
			c0.225,0.146,0.462,0.283,0.712,0.406c1.673,0.83,3.574,0.924,5.498,0.269c3.488-1.188,4.538-5.142,4.856-7.375
			c2.472,1.666,4.034,5,4.049,5.036c0,0,0.649-0.286,0.785-1.065C71.085,72.926,69.565,69.873,65.659,68.105z M23.375,75.178
			l-0.725,1.267c-0.977,1.807-2.611,4.832-4.716,4.698c-2.138-0.139-4.585-2.631-5.693-3.993c0.67-1.562,1.657-3.007,3.139-3.814
			c0.458-0.25,0.965-0.402,1.494-0.502c-2.198,1.912-3.5,4.611-3.578,4.777l1.807,0.854c0.023-0.049,2.333-4.815,5.551-5.447
			c0.188,0.043,0.377,0.095,0.567,0.146c-0.724,3.268-4.745,5.244-4.789,5.266l0.862,1.806c0.215-0.104,4.802-2.351,5.828-6.451
			c0.338,0.127,0.676,0.26,1.014,0.403C23.896,74.457,23.641,74.779,23.375,75.178z M60.479,76.01
			c-1.43,0.486-2.764,0.433-3.966-0.166c-0.606-0.301-1.088-0.713-1.488-1.146c0.653-0.99,2.344-2.726,5.745-1.648l0.604-1.906
			c-3.643-1.151-6.104,0.201-7.464,1.734c-0.114-0.449,0.051-1.043,0.479-1.652c0.832-1.182,2.672-2.397,4.903-2.446
			c2.512-0.06,4.062,0.459,4.783,0.772C63.941,71.061,63.326,75.041,60.479,76.01z"/>
		<path fill="#35A034" d="M33.634,45.1c2.168,1.07,5.948,1.772,9.485-1.059c3.185-2.547,3.264-5.599,2.621-7.634
			c3.653,0.055,5.835,2.505,6.188,2.936c0,0,0.51-0.839-0.13-1.989c-0.837-1.504-3.253-3.369-7.461-2.855
			c-0.981-0.225-6.559-1.326-9.836,1.729c-2.968,2.765-2.6,6.145-2.351,7.334c-0.537,1.057-0.933,2.114-1.211,3.143
			c0.1-2.162,0.337-4.4,0.588-6.759c0.096-0.899,0.192-1.831,0.286-2.778c3.245-3.307,4.685-6.514,4.247-9.531
			c-0.481-3.328-3.018-5.263-4.066-5.945c-0.666-4.117-1.804-7.444-4.749-9.531c-9.404-6.662-12.892-2.244-12.892-2.244
			c0.065-0.006,6.055-0.273,10.665,3.7c2.073,1.787,3.974,4.003,4.683,7.032c-1.742,0.148-5.152,0.795-7.076,3.432
			c-2.137,2.927-1.2,5.957,3.844,9.967c0,0-1.5-2.412-2.462-5.605c1.398,1.43,5.077,5.564,5.866,8.031
			c-0.107,1.119-0.222,2.209-0.334,3.262c-0.348,3.27-0.664,6.314-0.643,9.273c1.457-0.551,3-1.05,3.808-1.06
			C32.907,47.023,33.202,46.065,33.634,45.1z M39.579,38.217c1.06-0.564,3.184-1.387,4.108-1.591
			c0.186,0.436,0.386,1.065,0.386,1.837c0,1.18-0.475,2.635-2.203,4.018c-3.004,2.403-5.927,1.507-7.278,0.855
			c0.427-0.678,0.688-1.176,0.688-1.176l5.663,0.059c0,0,0.222-1.073-0.807-1.021c-1.028,0.051-4.01-0.145-4.01-0.145l1.229-1.252
			l0.992-0.669l3.425,0.388l0.721-0.893C42.492,38.627,39.185,38.426,39.579,38.217z M35.453,37.895
			c0.961-0.896,2.654-1.516,3.914-1.68c-0.93,0.527-1.836,1.131-2.819,1.938c-0.899,0.738-1.718,1.566-2.383,2.361
			C34.394,39.605,34.473,38.809,35.453,37.895z M32.216,24.43c0.811,0.814,1.654,1.994,1.869,3.508
			c0.256,1.808-0.412,3.773-1.981,5.863C32.312,30.9,32.406,27.785,32.216,24.43z M30.168,32.787
			c-1.891-2.828-4.584-5.598-4.742-5.76l-1.424,1.394c-0.277-0.938-0.235-1.925,0.354-2.888c1.389,0.691,4.678,2.656,5.87,6.17
			C30.209,32.066,30.19,32.43,30.168,32.787z M25.794,24.023c1.465-1.041,3.241-1.324,4.257-1.396
			c0.058,0.453,0.111,0.909,0.143,1.386c0.085,1.284,0.118,2.529,0.124,3.748C28.847,25.897,27.021,24.691,25.794,24.023z"/>
		<path fill="#35A034" d="M27.657,49.099c1.08-1.481,0.995-4.005,0.191-5.86c-1.047-2.42-3.262-3.437-5.724-3.124
			c-1.157,0.147-2.063,0.321-2.918,0.968c-4.145-0.557-6.746,1.403-7.828,2.65c-1.28,1.476-0.626,2.337-0.626,2.337
			c0.15-0.151,2.956-2.911,6.794-3.063c-0.124,0.219-0.243,0.445-0.347,0.685c-0.98,2.255-0.85,5.061,0.31,6.671
			c2.006,2.787,5.884,1.758,6.783,1.697c0.9-0.061,0.238-1.926-0.842-1.865s-3.332,0.369-4.318-1
			c-0.252-0.352-0.436-0.884-0.523-1.504c0.421,0.357,3.468,2.784,6.884,1.369c0.156,0.381,0.299,0.77,0.441,1.156
			c0.4-0.174,1.066-0.459,1.848-0.773C27.739,49.326,27.701,49.213,27.657,49.099z M19.883,46.146l-1.283,1.45
			c-0.117-0.941-0.015-2.072,0.435-3.107c0.176-0.404,0.429-0.846,0.785-1.251c0.442,0.108,0.891,0.243,1.348,0.438
			c1.536,0.658,2.625,1.98,3.477,3.562C22.227,48.152,19.985,46.236,19.883,46.146z M22.144,41.93
			c0.118-0.023,0.229-0.055,0.354-0.07c2.123-0.271,3.114,1.245,3.516,2.173c0.342,0.789,0.468,1.634,0.439,2.361
			C25.45,44.503,24.109,42.84,22.144,41.93z"/>
		<path fill="#35A034" d="M47.72,48.39c0.111-0.762,0.613-1.351,1.517-1.749c1.121-0.495,2.048-0.62,2.683-0.365
			c-1.293,0.729-2.389,1.699-3.392,2.596c-0.058,0.051-0.111,0.099-0.168,0.148c0.515,0.457,1.123,0.862,1.847,1.035
			c1.306-1.161,2.675-2.299,4.363-2.729c0.771-0.196,1.524-0.133,2.243,0.082c-0.01,0.369-0.144,1.109-0.868,2.201
			c0.404,0.377,0.959,0.942,1.355,1.552c0.828-1.124,1.227-2.069,1.399-2.815c1.899,1.312,4.304,3.367,4.324,3.4
			c0,0-0.258-3.236-2.927-4.999c-1.174-0.776-3.372-2.036-6.022-1.358c-0.021,0.005-0.04,0.013-0.062,0.018
			c-0.276-0.336-0.676-0.695-1.254-0.948c-1.18-0.515-2.637-0.396-4.333,0.354c-1.084,0.479-1.86,1.207-2.306,2.093
			c0.23,0.147,0.438,0.288,0.579,0.405C46.972,47.535,47.31,47.949,47.72,48.39z"/>
		<path i:knockout="Off" fill="none" d="M47.079,65.707c0.824-0.342,1.788-0.135,2.866,0.619c0.704,0.494,1.517,0.525,2.414,0.096
			c1.869-0.896,3.515-3.527,3.668-5.863c0.076-1.158-0.176-2.762-1.805-3.824c-4.465-2.916-7.562-0.529-8.695,0.639
			c0.739,1.176,1.222,2.58,1.305,4.008c0.147,2.535-1.012,4.691-3.179,5.916c-2.279,1.287-4.773,1.553-7.024,0.748
			c-1.798-0.643-3.168-1.889-3.761-3.418c-0.379-0.979-0.564-1.959-0.564-2.914c0-2.336,1.111-4.516,3.217-6.148
			c0.058-0.049,0.429-0.34,1.035-0.648c-1.172,0.049-3.22-0.309-4.159-1.777c0.062,0.654,0.15,1.197,0.226,1.574
			c0.331,1.652,0.53,2.65-0.095,3.338c-0.225,0.25-0.642,0.531-1.346,0.461c-1.321-0.133-2.212-1.008-2.928-2.291
			c-1.464,0.68-4.883,2.615-5.064,5.941c-0.111,2.035,0.65,3.75,2.09,4.701c1.539,1.018,3.664,0.99,5.831-0.074l1.235-0.607
			l0.195,1.363c0.327,2.289,2.454,5.889,5.979,6.35c3.547,0.464,6.343-2.952,6.625-4.579C45.419,67.744,45.842,66.223,47.079,65.707
			z"/>
		<path i:knockout="Off" fill="none" d="M40.262,52.1c1.081,0.184,1.991,0.045,2.499-0.426c0.628-0.582,0.643-1.615,0.543-2.38
			c-0.173-1.325-1.408-1.559-1.931-1.598c-0.985-0.073-2.145,0.343-2.381,1.167c-0.061,0.215-0.088,0.426-0.088,0.631
			C38.904,50.749,39.878,51.75,40.262,52.1z"/>
		<path i:knockout="Off" fill="none" d="M34.733,63.904c0.377,0.973,1.337,1.816,2.569,2.258c0.981,0.352,2.984,0.74,5.366-0.607
			c1.922-1.086,2.239-2.805,2.166-4.059c-0.122-2.105-1.463-4.279-3.052-4.947c-2.793-1.178-4.92,0.5-5.009,0.572l-0.021,0.016
			C34.484,58.895,33.748,61.359,34.733,63.904z"/>
		<path i:knockout="Off" fill="none" d="M44.913,74.082c0.021-0.014,0.037-0.025,0.057-0.039c-0.03-0.082-0.07-0.158-0.103-0.242
			C44.88,73.895,44.898,73.988,44.913,74.082z"/>
		<g i:knockout="Off">
			<circle fill="#D90000" cx="39.333" cy="58.434" r="1.422"/>
			<circle fill="#D90000" cx="36.813" cy="60.953" r="1.422"/>
			<circle fill="#D90000" cx="39.333" cy="63.834" r="1.422"/>
			<circle fill="#D90000" cx="41.854" cy="60.953" r="1.422"/>
		</g>
		<path fill="#D90000" d="M46.639,72.803c-0.131-0.365-0.261-0.729-0.373-1.108c0.448-0.72,0.745-1.429,0.852-2.037
			c0.312-1.799,0.639-2.062,0.73-2.102c0.062-0.027,0.357-0.004,0.95,0.41c1.303,0.912,2.875,1.004,4.427,0.26
			c2.533-1.215,4.598-4.455,4.8-7.535c0.156-2.389-0.806-4.389-2.706-5.631c-5.438-3.549-9.417-0.807-11.06,0.775
			c-0.519-0.48-1.089-0.873-1.699-1.129c-2.599-1.096-4.777-0.412-5.997,0.207l-0.083-1.994c-0.024,0-2.395,0.07-2.567-1.354
			c-0.096-0.786,0.143-1.512,0.669-2.044c0.485-0.489,1.142-0.741,1.755-0.673c0.135,0.016,0.54,0.062,0.579,0.412
			c-0.156,2.641,2.193,4.498,2.306,4.584l0.181,0.141l0.224,0.047c1.547,0.326,2.907,0.154,3.923-0.469
			c1.459,0.031,2.687-0.453,3.791-1.176c0.446,0.377,0.943,0.611,1.438,0.639l0.83,0.076c2.028,0.213,5.807,0.607,7.68-1.92
			c0.005-0.008,0.009-0.014,0.015-0.021c-0.396-0.609-0.951-1.175-1.355-1.552c-0.082,0.123-0.167,0.248-0.267,0.382
			c-1.192,1.61-4.116,1.304-5.863,1.121l-0.729-0.065c0.261-0.227,0.52-0.455,0.774-0.685c0.113-0.103,0.229-0.205,0.346-0.308
			c-0.724-0.173-1.332-0.578-1.847-1.035c-0.185,0.164-0.369,0.328-0.549,0.486c-0.041-0.141-0.074-0.287-0.096-0.44
			c-0.031-0.239-0.025-0.464,0.005-0.676c-0.409-0.44-0.748-0.854-1.02-1.079c-0.142-0.117-0.348-0.258-0.579-0.405
			c-0.394,0.782-0.528,1.687-0.352,2.659c0.076,0.426,0.214,0.832,0.387,1.211c-0.314,0.199-0.636,0.363-0.964,0.494
			c0.151-0.602,0.212-1.334,0.095-2.234c-0.245-1.873-1.723-3.182-3.766-3.334c-1.395-0.104-2.964,0.393-3.857,1.494
			c-0.3-0.163-0.663-0.285-1.106-0.335c-1.216-0.136-2.486,0.333-3.397,1.253c-0.251,0.254-0.464,0.535-0.644,0.836
			c0.051-0.328,0.114-0.664,0.188-1.003c-0.808,0.01-2.351,0.509-3.808,1.06c0.011,1.52,0.104,3.016,0.34,4.508
			c-0.247-0.631-0.489-1.316-0.732-2.029c-0.225-0.658-0.465-1.349-0.723-2.043c-0.781,0.314-1.447,0.6-1.848,0.773
			c0.236,0.643,0.463,1.285,0.678,1.914c0.271,0.793,0.532,1.559,0.809,2.27c-1.814,0.834-5.986,3.219-6.229,7.654
			c-0.148,2.723,0.967,5.146,2.983,6.479c1.851,1.225,4.227,1.344,6.653,0.482c0.758,2.517,2.821,5.508,6.045,6.552
			c0.119,0.129,0.357,0.381,0.68,0.706c0.94,0.015,1.822-0.081,2.64-0.245c-0.05-0.048-0.11-0.101-0.158-0.146
			c1.083-0.133,2.088-0.506,2.98-1.029c0.016,0.08,0.04,0.16,0.058,0.24c0.719-0.328,1.337-0.682,1.84-1.01
			c-0.015-0.094-0.033-0.188-0.046-0.281c0.031,0.084,0.071,0.16,0.103,0.242c0.957-0.631,1.491-1.15,1.491-1.15
			S46.526,72.859,46.639,72.803z M38.992,48.863c0.236-0.824,1.396-1.24,2.381-1.167c0.522,0.039,1.758,0.272,1.931,1.598
			c0.1,0.765,0.085,1.798-0.543,2.38c-0.508,0.471-1.418,0.609-2.499,0.426c-0.384-0.35-1.357-1.351-1.357-2.605
			C38.904,49.289,38.932,49.078,38.992,48.863z M36.754,57.137l0.021-0.016c0.089-0.072,2.216-1.75,5.009-0.572
			c1.589,0.668,2.93,2.842,3.052,4.947c0.073,1.254-0.244,2.973-2.166,4.059c-2.382,1.348-4.385,0.959-5.366,0.607
			c-1.232-0.441-2.192-1.285-2.569-2.258C33.748,61.359,34.484,58.895,36.754,57.137z M38.521,73.895
			c-3.525-0.461-5.652-4.061-5.979-6.35l-0.195-1.363l-1.235,0.607c-2.167,1.064-4.292,1.092-5.831,0.074
			c-1.439-0.951-2.201-2.666-2.09-4.701c0.182-3.326,3.601-5.262,5.064-5.941c0.716,1.283,1.606,2.158,2.928,2.291
			c0.704,0.07,1.121-0.211,1.346-0.461c0.625-0.688,0.426-1.686,0.095-3.338c-0.075-0.377-0.163-0.92-0.226-1.574
			c0.939,1.469,2.987,1.826,4.159,1.777c-0.606,0.309-0.978,0.6-1.035,0.648c-2.105,1.633-3.217,3.812-3.217,6.148
			c0,0.955,0.186,1.936,0.564,2.914c0.593,1.529,1.963,2.775,3.761,3.418c2.251,0.805,4.745,0.539,7.024-0.748
			c2.167-1.225,3.326-3.381,3.179-5.916c-0.083-1.428-0.564-2.832-1.305-4.008c1.133-1.168,4.23-3.555,8.695-0.639
			c1.63,1.062,1.881,2.666,1.805,3.824c-0.153,2.336-1.799,4.967-3.668,5.863c-0.897,0.43-1.71,0.398-2.414-0.096
			c-1.078-0.754-2.042-0.961-2.866-0.619c-1.237,0.516-1.66,2.037-1.934,3.606C44.863,70.941,42.067,74.357,38.521,73.895z"/>
	</g>
</g>
</svg>
