<?xml version="1.0" encoding="utf-8"?>
<!-- Generator: Adobe Illustrator 12.0.0, SVG Export Plug-In . SVG Version: 6.00 Build 51448)  -->
<!DOCTYPE svg PUBLIC "-//W3C//DTD SVG 1.1//EN" "http://www.w3.org/Graphics/SVG/1.1/DTD/svg11.dtd" [
	<!ENTITY ns_flows "http://ns.adobe.com/Flows/1.0/">
	<!ENTITY ns_extend "http://ns.adobe.com/Extensibility/1.0/">
	<!ENTITY ns_ai "http://ns.adobe.com/AdobeIllustrator/10.0/">
	<!ENTITY ns_graphs "http://ns.adobe.com/Graphs/1.0/">
	<!ENTITY ns_vars "http://ns.adobe.com/Variables/1.0/">
	<!ENTITY ns_imrep "http://ns.adobe.com/ImageReplacement/1.0/">
	<!ENTITY ns_sfw "http://ns.adobe.com/SaveForWeb/1.0/">
	<!ENTITY ns_custom "http://ns.adobe.com/GenericCustomNamespace/1.0/">
	<!ENTITY ns_adobe_xpath "http://ns.adobe.com/XPath/1.0/">
	<!ENTITY ns_svg "http://www.w3.org/2000/svg">
	<!ENTITY ns_xlink "http://www.w3.org/1999/xlink">
]>
<svg  version="1.1"
	 xmlns:x="&ns_extend;" xmlns:i="&ns_ai;" xmlns:graph="&ns_graphs;" i:viewOrigin="-0.3193 135.7061" i:rulerOrigin="0 0" i:pageBounds="0 136 85 0"
	 xmlns="&ns_svg;" xmlns:xlink="&ns_xlink;" xmlns:a="http://ns.adobe.com/AdobeSVGViewerExtensions/3.0/"
	 width="85.678" height="136.025" viewBox="0 0 85.678 136.025" overflow="visible" enable-background="new 0 0 85.678 136.025"
	 xml:space="preserve">
<metadata>
	<variableSets  xmlns="http://ns.adobe.com/Variables/1.0/">
		<variableSet  varSetName="binding1" locked="none">
			<variables></variables>
			<v:sampleDataSets  xmlns="http://ns.adobe.com/GenericCustomNamespace/1.0/" xmlns:v="http://ns.adobe.com/Variables/1.0/">
				</v:sampleDataSets>
		</variableSet>
	</variableSets>
</metadata>
<g id="图层_1" i:knockout="Off" i:layer="yes" i:dimmedPercent="50" i:rgbTrio="#4F008000FFFF">
	<g i:knockout="Off">
		<path fill="#333333" d="M2.274,99.465v24.962c0,5.149,3.353,9.325,7.481,9.325h68.118c4.133,0,7.484-4.176,7.484-9.325h-0.002
			V9.216c0-4.344-3.353-7.869-7.482-7.869H9.756c-4.131,0-7.481,3.525-7.481,7.869H2.272v90.229
			C2.272,99.45,2.274,99.458,2.274,99.465z"/>
		
			<linearGradient id="XMLID_3_" gradientUnits="userSpaceOnUse" x1="-22.6704" y1="112.9883" x2="-22.6704" y2="-12.5781" gradientTransform="matrix(1 0 0 1 64.5342 22.7178)">
			<stop  offset="0.0899" style="stop-color:#2089B9"/>
			<stop  offset="0.0985" style="stop-color:#4FA3C2"/>
			<stop  offset="0.1071" style="stop-color:#77B9CA"/>
			<stop  offset="0.1138" style="stop-color:#8FC7CF"/>
			<stop  offset="0.118" style="stop-color:#98CCD1"/>
			<stop  offset="0.1341" style="stop-color:#9ECFD3"/>
			<stop  offset="0.156" style="stop-color:#AFD6D9"/>
			<stop  offset="0.1809" style="stop-color:#CBE1E3"/>
			<stop  offset="0.1966" style="stop-color:#E1EAEB"/>
			<a:midPointStop  offset="0.0899" style="stop-color:#2089B9"/>
			<a:midPointStop  offset="0.5" style="stop-color:#2089B9"/>
			<a:midPointStop  offset="0.0985" style="stop-color:#4FA3C2"/>
			<a:midPointStop  offset="0.5" style="stop-color:#4FA3C2"/>
			<a:midPointStop  offset="0.1071" style="stop-color:#77B9CA"/>
			<a:midPointStop  offset="0.5" style="stop-color:#77B9CA"/>
			<a:midPointStop  offset="0.1138" style="stop-color:#8FC7CF"/>
			<a:midPointStop  offset="0.5" style="stop-color:#8FC7CF"/>
			<a:midPointStop  offset="0.118" style="stop-color:#98CCD1"/>
			<a:midPointStop  offset="0.5" style="stop-color:#98CCD1"/>
			<a:midPointStop  offset="0.1341" style="stop-color:#9ECFD3"/>
			<a:midPointStop  offset="0.5" style="stop-color:#9ECFD3"/>
			<a:midPointStop  offset="0.156" style="stop-color:#AFD6D9"/>
			<a:midPointStop  offset="0.5" style="stop-color:#AFD6D9"/>
			<a:midPointStop  offset="0.1809" style="stop-color:#CBE1E3"/>
			<a:midPointStop  offset="0.5" style="stop-color:#CBE1E3"/>
			<a:midPointStop  offset="0.1966" style="stop-color:#E1EAEB"/>
		</linearGradient>
		<path fill="url(#XMLID_3_)" d="M83.405,126.381c0,5.15-3.353,9.325-7.48,9.325H7.804c-4.131,0-7.482-4.177-7.482-9.325V19.465
			c0-5.148,3.354-9.326,7.482-9.326h68.117c4.133,0,7.482,4.176,7.482,9.326v106.916H83.405z"/>
		<path fill="none" stroke="#333333" stroke-width="0.977" d="M83.405,126.381c0,5.15-3.353,9.325-7.48,9.325H7.804
			c-4.131,0-7.482-4.177-7.482-9.325V19.465c0-5.148,3.354-9.326,7.482-9.326h68.117c4.133,0,7.482,4.176,7.482,9.326v106.916
			H83.405z"/>
		<path fill="#FFFFFF" d="M0.32,11.17c0-4.344,3.354-7.869,7.482-7.869H75.92c4.133,0,7.482,3.523,7.482,7.869v90.229
			c0,4.346-3.353,7.868-7.482,7.868H7.802c-4.131,0-7.482-3.522-7.482-7.87V11.17L0.32,11.17z"/>
		
			<linearGradient id="XMLID_4_" gradientUnits="userSpaceOnUse" x1="4.0215" y1="80.7666" x2="86.165" y2="80.7666" gradientTransform="matrix(-1 0 0 -1 86.9551 137.0508)">
			<stop  offset="0" style="stop-color:#A2D8E0"/>
			<stop  offset="0.0899" style="stop-color:#1878AD"/>
			<stop  offset="0.2135" style="stop-color:#194D91"/>
			<stop  offset="0.6404" style="stop-color:#2B90BD"/>
			<stop  offset="0.9438" style="stop-color:#82CBDE"/>
			<stop  offset="1" style="stop-color:#1A478D"/>
			<a:midPointStop  offset="0" style="stop-color:#A2D8E0"/>
			<a:midPointStop  offset="0.5" style="stop-color:#A2D8E0"/>
			<a:midPointStop  offset="0.0899" style="stop-color:#1878AD"/>
			<a:midPointStop  offset="0.5" style="stop-color:#1878AD"/>
			<a:midPointStop  offset="0.2135" style="stop-color:#194D91"/>
			<a:midPointStop  offset="0.5" style="stop-color:#194D91"/>
			<a:midPointStop  offset="0.6404" style="stop-color:#2B90BD"/>
			<a:midPointStop  offset="0.5" style="stop-color:#2B90BD"/>
			<a:midPointStop  offset="0.9438" style="stop-color:#82CBDE"/>
			<a:midPointStop  offset="0.5" style="stop-color:#82CBDE"/>
			<a:midPointStop  offset="1" style="stop-color:#1A478D"/>
		</linearGradient>
		<path i:isolated="yes" i:knockout="Off" opacity="0.1" fill="url(#XMLID_4_)" enable-background="new    " d="M0.79,11.17
			c0-4.344,3.313-7.869,7.397-7.869h67.347c4.086,0,7.399,3.523,7.399,7.869v90.229c0,4.346-3.313,7.868-7.399,7.868H8.188
			c-4.084,0-7.397-3.522-7.397-7.87L0.79,11.17L0.79,11.17z"/>
		<path fill="none" stroke="#4D4D4D" stroke-width="0.977" d="M0.32,101.419v24.962c0,5.148,3.353,9.325,7.482,9.325h68.12
			c4.131,0,7.48-4.175,7.48-9.325V11.171c0-4.346-3.353-7.869-7.482-7.869H7.803c-4.13,0-7.482,3.525-7.482,7.869L0.32,101.399
			C0.319,101.404,0.32,101.411,0.32,101.419z"/>
	</g>
	<g i:knockout="Off">
		<g i:knockout="Off">
			<path fill="#24258D" d="M41.895,25.204c0.505-0.404,1.364-0.606,2.577-0.606c1.92,0.102,3.941-0.051,6.064-0.455
				c3.94-0.606,11.674-0.707,23.197-0.303c0.907,0,1.615,0,2.122,0c1.312,0.102,1.667,0.707,1.062,1.818
				c-0.91,2.021-2.021,3.285-3.336,3.791c-1.314,0.404-3.234,0.152-5.762-0.758c-2.932-1.213-6.367-1.921-10.31-2.123
				c-2.629-0.101-5.004,0.051-7.126,0.455c-2.224,0.404-5.003,1.213-8.339,2.426c-0.91,0.303-1.566,0.252-1.971-0.152
				c-0.304-0.404-0.253-1.01,0.151-1.818C40.833,26.266,41.389,25.508,41.895,25.204z M70.245,13.833
				c-0.102,0.506-0.555,0.81-1.363,0.909c-1.012,0.102-3.488,0.203-7.43,0.304c-1.92,0.102-3.336,0.151-4.245,0.151
				c-4.245-0.101-7.632,0.152-10.157,0.758c-0.91,0.102-1.618,0.001-2.123-0.303c-0.403-0.303-0.354-0.758,0.151-1.364
				c0.708-0.909,1.312-1.466,1.819-1.668c0.506-0.202,1.264-0.253,2.273-0.151c2.324,0.303,5.255,0.303,8.794,0
				c2.426-0.202,4.347-0.303,5.761-0.303c1.415-0.102,3.284-0.051,5.609,0.15C70.044,12.52,70.347,13.024,70.245,13.833z"/>
		</g>
		<path fill="#1D8F38" d="M34.819,13.961c0,0,4.59-4.092,8.809-5.436c3.865-1.232,6.984-0.537,6.984-0.537L50.101,9.15
			c0,0-12.26,0.527-20.1,14.596c-2.473,4.436-4.314,10.699-5.219,16.889c-1.09,7.471-0.348,14.895-0.348,14.895l-1.527,0.586
			c0,0-1.422-6.666-0.354-14.674c1.498-11.211,3.496-10.85,3.848-19.184c0.352-8.336-10.307-11.367-10.307-11.367
			s1.387-1.035,4.166-0.391c1.832,0.424,4.994,2.537,4.994,2.537s0.635-1.086,2.279-1.613c1.229-0.393,3.592-0.266,3.592-0.266
			l-0.715,1.219c0,0-1.174,0.303-2.307,0.908c-0.678,0.363-1.557,1.16-1.557,1.16s1.447,2.312,1.854,4.816
			c0.27,1.664-0.094,3.4-0.094,3.4l4.85-7.23c0,0-0.254-0.637-0.629-1.012c-0.631-0.635-1.52-1.148-1.52-1.148
			s0.084-0.49,0.33-0.953C32.151,10.793,34.819,13.961,34.819,13.961z"/>
		<path fill="#1D8F38" d="M8.524,43.658c0,0,1.223-1.512,1.943-1.727c0,0,4.166-1.582,9.037,4.23
			c2.311,2.754,3.275,10.816,3.275,10.816l-1.297,0.576C21.483,57.555,19.468,40.994,8.524,43.658z"/>
		<path fill="#1D8F38" d="M40.817,35.846c0,0-6.787,1.029-11.691,7.244c-2.826,3.58-3.26,11.855-3.26,11.855l-0.32,3.303
			l-0.754-3.023c0,0-2.098-18.609,15.467-20.148L40.817,35.846z"/>
		<path fill="#1D8F38" d="M6.524,71.629c-0.045,0.451,6.809,0.066,14.484,4.072c6.121,3.192,12.896,9.506,12.896,9.506
			s-5.365-1.01-9.211-0.031c-3.34,0.853-3.412,3.084-3.412,3.084l1.824,0.637c0,0,2.516-4.268,11.66-1.852
			c6.523,1.723,9.838,6.736,9.838,6.736s2.342,0.739,3.407-0.103c0.523-0.412,0.806-0.785,0.785-2.176
			c-0.027-2.213-0.713-4.906,0.82-7.102c1.979-2.834,9.762,0.368,10.842,0.85s0.953-1.588-0.889-2.428
			c-2.761-1.263-8.119-1.707-8.119-1.707s4.432-4.322,10.492-3.304c6.06,1.02,8.336,5.56,8.336,5.56s1.619-0.318,0.953-1.76
			c-0.966-2.086-4.859-5.304-8.16-5.906c-5.277-0.965-10.111,1.375-12.965,3.83c-2.843,2.447-3.48,5.33-3.48,5.33l-2.986-6.81
			l-1.986,0.207l4.193,9.451c0,0-0.618-0.75-1.881-3.062c-1.354-2.48-2.756-5.771-2.756-5.771l-1.484,0.125l0.605,2.375
			l-1.004-2.209l-1.736,1.058c0,0,2.469,3.063,4.461,5.715c2,2.66,2.766,3.873,2.766,3.873s-1.814-1.353-3.959-3.968
			c-3.057-3.729-6.014-8.092-6.014-8.092l-2.48,1.185l4.297,5.659c0,0-9.072-8.954-17.264-12.645
			C11.21,68.271,6.569,71.18,6.524,71.629z"/>
		<path fill="#1D8F38" d="M57.003,59.811c0,0,0.027-1.967-0.367-4.289c-0.412-2.441-1.246-5.262-1.33-5.963
			c-0.146-1.223,1.07-2.904,1.267-2.172c0.096,0.359,0.553,2.133,0.828,3.748c0.287,1.688,0.396,3.211,0.547,3.188
			c1.074-0.18,0.194-4.975-0.295-6.488c-0.488-1.516,1.139-3.547,1.772-3.84c0.635-0.295,1.697-0.303,1.697,0.381
			c0,0.686-1.904,1.65-1.807,3.115c0.098,1.467,0.928,3.801,0.928,3.801l-0.24,2.279c0,0,2.16-0.545,2.668-3.539
			c0.723-4.262-1.451-6.438-1.451-6.438s1.056-1.113,2.058-0.215c0.575,0.516,1.235,2.42,1.407,3.732
			c0.226,1.734-0.219,4.117-0.651,4.951c-1.285,2.469-4.66,3.521-4.904,4.547c-0.244,1.027-0.445,3.922-0.445,3.922L57.003,59.811z"
			/>
		<path fill="#1D8F38" d="M58.118,62.93c0,0,2.106-2.502,4.524-1.834c2.416,0.67,5.023,4.234,5.023,4.234s0.035,0.518-0.344,0.99
			c-0.392,0.488-0.943,0.211-0.943,0.211s-3.395-3.566-4.68-3.463c-1.285,0.102-1.971,1.627-2.795,1.781
			C58.083,65.004,58.118,62.93,58.118,62.93z"/>
		<path fill="#D90000" d="M39.599,70.049c0,0,5.557-3.965,5.126-10.709c-0.438-6.893-6.171-9.49-6.686-9.49
			s-2.773,2.021-3.766,6.455c-0.496,2.215-0.053,6.277,1.416,9.404C37.45,69.457,39.599,70.049,39.599,70.049z M38.245,52.703
			c0.771,0,3.506,2.305,4.072,5.832c0.746,4.654-1.904,8.777-2.625,8.83c-0.721,0.051-2.752-2.828-3.275-6.268
			C35.694,56.344,37.474,52.703,38.245,52.703z M46.241,68.037c2.795-2.912,3.02-8.969,2.074-11.842
			c-0.623-1.896-1.554-2.1-2.365-1.762c-0.642,0.264-0.701,0.736-0.701,0.736l0.955,1.4c0,0,1.205,3.73-0.094,7.51
			c-0.672,1.953-2.771,3.855-4.269,5.346c-1.4,1.396-2.105,2.193-2.125,2.574c-0.039,0.787,2.004,6.4,2.004,6.4l1.958-0.271
			c0,0-1.753-5.217-1.676-5.729C42.085,71.891,43.446,70.951,46.241,68.037z M57.175,65.691c0.051-1.441,1.543-5.332,1.543-5.332
			l-1.783-0.652c0,0-0.895,2.074-1.407,3.912c-0.472,1.688-0.562,2.844-0.101,3.307c0.463,0.461,2.229,2.828,0.787,5.193
			c-1.438,2.365-4.686,2.264-5.76,2.108c-2.828-0.411-3.959-1.51-3.855-2.383c0.103-0.875,5.125-4.955,5.125-4.955
			s0.65-6.977,0.65-7.748s-1.953-0.703-1.852-0.086c0.104,0.617-0.273,5.279-0.841,6.719c-0.563,1.441-5.356,4.973-5.52,6.172
			c-0.467,3.473,6.053,4.646,9.035,4.594c2.981-0.051,6.301-4.215,6.137-6.855C59.181,67.217,57.124,67.131,57.175,65.691z
			 M53.026,56.469c0.901,2.506-0.668,9.924-0.668,9.924s0.504,0.41,1.018,0.461c0.531,0.053,1.072-0.254,1.072-0.254
			s1.43-5.818,0.979-9.652c-0.826-7.014-7.303-8.947-8.436-9.309c-1.131-0.359-1.853,1.115-1.39,1.527
			C46.065,49.576,51.175,51.324,53.026,56.469z M36.896,69.445c0,0-2.092-1.988-3.121-4.767c-1.027-2.777-1.525-9-0.6-10.131
			c0.926-1.133-0.395-2.299-1.422-1.938c-2.137,0.748-1.945,6.65-0.826,10.846c1.492,5.604,5.291,7.666,5.83,8.318
			c0.541,0.651,2.967,7.354,2.967,7.354l1.439-0.24c0,0-1.783-5.846-2.143-7.028C38.661,70.68,36.896,69.445,36.896,69.445z
			 M31.864,68.121c-2.174-1.75-3.764-5.633-3.75-8.191c0.012-2.383,1.199-3.869,1.199-5.309c0-1.459-1.223-1.105-1.816-0.748
			c-1.168,0.705-2.129,5.551-1.123,9.508c1.35,5.311,5.039,7.5,5.039,7.5s1.449,1.432,2.814,3.424
			c1.822,2.664,3.426,5.951,3.426,5.951l1.725-0.969c0,0-1.439-3.316-3.27-6.152C34.718,70.979,32.892,68.949,31.864,68.121z
			 M30.981,71.688c-0.9-0.358-3.084,0.777-5.658-0.147c-2.25-0.812-5.918-4.072-3.75-6.27c1.125-1.143,2.105-1.348,2.77-1.52
			c2.449-0.633,0.074-8.254,0.074-8.254l-1.527,0.576c0,0,0.547,3.537,0.486,4.82c-0.051,1.104-0.639,1.238-0.916,1.316
			c-0.275,0.078-4.248,2.053-4.26,4.941c-0.008,2.234,2.645,5.042,5.258,6.238c2.902,1.326,5.32,0.771,5.928,1.084
			c0.607,0.316,3.002,4.482,3.002,4.482l2.471-1.174c0,0-1.629-1.826-2.16-3.314C32.419,73.688,32.468,72.285,30.981,71.688z"/>
	</g>
</g>
</svg>
