<?xml version="1.0" encoding="utf-8"?>
<!-- Generator: Adobe Illustrator 12.0.0, SVG Export Plug-In . SVG Version: 6.00 Build 51448)  -->
<!DOCTYPE svg PUBLIC "-//W3C//DTD SVG 1.1//EN" "http://www.w3.org/Graphics/SVG/1.1/DTD/svg11.dtd" [
	<!ENTITY ns_flows "http://ns.adobe.com/Flows/1.0/">
	<!ENTITY ns_extend "http://ns.adobe.com/Extensibility/1.0/">
	<!ENTITY ns_ai "http://ns.adobe.com/AdobeIllustrator/10.0/">
	<!ENTITY ns_graphs "http://ns.adobe.com/Graphs/1.0/">
	<!ENTITY ns_vars "http://ns.adobe.com/Variables/1.0/">
	<!ENTITY ns_imrep "http://ns.adobe.com/ImageReplacement/1.0/">
	<!ENTITY ns_sfw "http://ns.adobe.com/SaveForWeb/1.0/">
	<!ENTITY ns_custom "http://ns.adobe.com/GenericCustomNamespace/1.0/">
	<!ENTITY ns_adobe_xpath "http://ns.adobe.com/XPath/1.0/">
	<!ENTITY ns_svg "http://www.w3.org/2000/svg">
	<!ENTITY ns_xlink "http://www.w3.org/1999/xlink">
]>
<svg  version="1.1"
	 xmlns:x="&ns_extend;" xmlns:i="&ns_ai;" xmlns:graph="&ns_graphs;" i:viewOrigin="-0.3193 135.7061" i:rulerOrigin="0 0" i:pageBounds="0 136 85 0"
	 xmlns="&ns_svg;" xmlns:xlink="&ns_xlink;" xmlns:a="http://ns.adobe.com/AdobeSVGViewerExtensions/3.0/"
	 width="85.678" height="136.025" viewBox="0 0 85.678 136.025" overflow="visible" enable-background="new 0 0 85.678 136.025"
	 xml:space="preserve">
<metadata>
	<variableSets  xmlns="http://ns.adobe.com/Variables/1.0/">
		<variableSet  varSetName="binding1" locked="none">
			<variables></variables>
			<v:sampleDataSets  xmlns="http://ns.adobe.com/GenericCustomNamespace/1.0/" xmlns:v="http://ns.adobe.com/Variables/1.0/">
				</v:sampleDataSets>
		</variableSet>
	</variableSets>
</metadata>
<g id="图层_1" i:knockout="Off" i:layer="yes" i:dimmedPercent="50" i:rgbTrio="#4F008000FFFF">
	<g i:knockout="Off">
		<path fill="#333333" d="M2.274,99.465v24.962c0,5.149,3.353,9.325,7.481,9.325h68.118c4.133,0,7.484-4.176,7.484-9.325h-0.002
			V9.216c0-4.344-3.353-7.869-7.482-7.869H9.756c-4.131,0-7.481,3.525-7.481,7.869H2.272v90.229
			C2.272,99.45,2.274,99.458,2.274,99.465z"/>
		
			<linearGradient id="XMLID_3_" gradientUnits="userSpaceOnUse" x1="-22.6704" y1="112.9883" x2="-22.6704" y2="-12.5781" gradientTransform="matrix(1 0 0 1 64.5342 22.7178)">
			<stop  offset="0.0899" style="stop-color:#2089B9"/>
			<stop  offset="0.0985" style="stop-color:#4FA3C2"/>
			<stop  offset="0.1071" style="stop-color:#77B9CA"/>
			<stop  offset="0.1138" style="stop-color:#8FC7CF"/>
			<stop  offset="0.118" style="stop-color:#98CCD1"/>
			<stop  offset="0.1341" style="stop-color:#9ECFD3"/>
			<stop  offset="0.156" style="stop-color:#AFD6D9"/>
			<stop  offset="0.1809" style="stop-color:#CBE1E3"/>
			<stop  offset="0.1966" style="stop-color:#E1EAEB"/>
			<a:midPointStop  offset="0.0899" style="stop-color:#2089B9"/>
			<a:midPointStop  offset="0.5" style="stop-color:#2089B9"/>
			<a:midPointStop  offset="0.0985" style="stop-color:#4FA3C2"/>
			<a:midPointStop  offset="0.5" style="stop-color:#4FA3C2"/>
			<a:midPointStop  offset="0.1071" style="stop-color:#77B9CA"/>
			<a:midPointStop  offset="0.5" style="stop-color:#77B9CA"/>
			<a:midPointStop  offset="0.1138" style="stop-color:#8FC7CF"/>
			<a:midPointStop  offset="0.5" style="stop-color:#8FC7CF"/>
			<a:midPointStop  offset="0.118" style="stop-color:#98CCD1"/>
			<a:midPointStop  offset="0.5" style="stop-color:#98CCD1"/>
			<a:midPointStop  offset="0.1341" style="stop-color:#9ECFD3"/>
			<a:midPointStop  offset="0.5" style="stop-color:#9ECFD3"/>
			<a:midPointStop  offset="0.156" style="stop-color:#AFD6D9"/>
			<a:midPointStop  offset="0.5" style="stop-color:#AFD6D9"/>
			<a:midPointStop  offset="0.1809" style="stop-color:#CBE1E3"/>
			<a:midPointStop  offset="0.5" style="stop-color:#CBE1E3"/>
			<a:midPointStop  offset="0.1966" style="stop-color:#E1EAEB"/>
		</linearGradient>
		<path fill="url(#XMLID_3_)" d="M83.405,126.381c0,5.15-3.353,9.325-7.48,9.325H7.804c-4.131,0-7.482-4.177-7.482-9.325V19.465
			c0-5.148,3.354-9.326,7.482-9.326h68.117c4.133,0,7.482,4.176,7.482,9.326v106.916H83.405z"/>
		<path fill="none" stroke="#333333" stroke-width="0.977" d="M83.405,126.381c0,5.15-3.353,9.325-7.48,9.325H7.804
			c-4.131,0-7.482-4.177-7.482-9.325V19.465c0-5.148,3.354-9.326,7.482-9.326h68.117c4.133,0,7.482,4.176,7.482,9.326v106.916
			H83.405z"/>
		<path fill="#FFFFFF" d="M0.32,11.17c0-4.344,3.354-7.869,7.482-7.869H75.92c4.133,0,7.482,3.523,7.482,7.869v90.229
			c0,4.346-3.353,7.868-7.482,7.868H7.802c-4.131,0-7.482-3.522-7.482-7.87V11.17L0.32,11.17z"/>
		
			<linearGradient id="XMLID_4_" gradientUnits="userSpaceOnUse" x1="4.0215" y1="80.7666" x2="86.165" y2="80.7666" gradientTransform="matrix(-1 0 0 -1 86.9551 137.0508)">
			<stop  offset="0" style="stop-color:#A2D8E0"/>
			<stop  offset="0.0899" style="stop-color:#1878AD"/>
			<stop  offset="0.2135" style="stop-color:#194D91"/>
			<stop  offset="0.6404" style="stop-color:#2B90BD"/>
			<stop  offset="0.9438" style="stop-color:#82CBDE"/>
			<stop  offset="1" style="stop-color:#1A478D"/>
			<a:midPointStop  offset="0" style="stop-color:#A2D8E0"/>
			<a:midPointStop  offset="0.5" style="stop-color:#A2D8E0"/>
			<a:midPointStop  offset="0.0899" style="stop-color:#1878AD"/>
			<a:midPointStop  offset="0.5" style="stop-color:#1878AD"/>
			<a:midPointStop  offset="0.2135" style="stop-color:#194D91"/>
			<a:midPointStop  offset="0.5" style="stop-color:#194D91"/>
			<a:midPointStop  offset="0.6404" style="stop-color:#2B90BD"/>
			<a:midPointStop  offset="0.5" style="stop-color:#2B90BD"/>
			<a:midPointStop  offset="0.9438" style="stop-color:#82CBDE"/>
			<a:midPointStop  offset="0.5" style="stop-color:#82CBDE"/>
			<a:midPointStop  offset="1" style="stop-color:#1A478D"/>
		</linearGradient>
		<path i:isolated="yes" i:knockout="Off" opacity="0.1" fill="url(#XMLID_4_)" enable-background="new    " d="M0.79,11.17
			c0-4.344,3.313-7.869,7.397-7.869h67.347c4.086,0,7.399,3.523,7.399,7.869v90.229c0,4.346-3.313,7.868-7.399,7.868H8.188
			c-4.084,0-7.397-3.522-7.397-7.87L0.79,11.17L0.79,11.17z"/>
		<path fill="none" stroke="#4D4D4D" stroke-width="0.977" d="M0.32,101.419v24.962c0,5.148,3.353,9.325,7.482,9.325h68.12
			c4.131,0,7.48-4.175,7.48-9.325V11.171c0-4.346-3.353-7.869-7.482-7.869H7.803c-4.13,0-7.482,3.525-7.482,7.869L0.32,101.399
			C0.319,101.404,0.32,101.411,0.32,101.419z"/>
	</g>
	<g i:knockout="Off">
		<path fill="#D90000" d="M25.085,30.688c1.146,0,2.34-0.524,3.58-1.574c0.668-0.572,1.193-0.859,1.575-0.859
			c0.478,0.096,0.764,0.382,0.859,0.859c0,0.191-0.096,0.477-0.286,0.859c-0.383,0.954-0.669,1.957-0.859,3.006
			c-0.191,1.051-0.812,1.576-1.861,1.576H12.915c-1.051,0-1.576-0.383-1.576-1.146c0-1.718,2.101-4.678,6.301-8.877
			c4.296-3.818,6.777-7.446,7.445-10.883c-0.19-2.673-1.574-4.104-4.152-4.295c-2.768,0.381-4.295,1.67-4.582,3.865
			c0,0.479,0.191,0.955,0.573,1.432c0.286,0.479,0.43,0.907,0.43,1.289c-0.096,0.955-0.907,1.48-2.435,1.575
			c-1.813-0.095-2.768-1.146-2.863-3.149c0.572-4.392,3.818-6.778,9.736-7.16c5.537,0.191,8.496,2.482,8.878,6.873
			c-0.478,3.818-2.769,7.207-6.873,10.166c-3.055,2.674-5.107,4.821-6.157,6.443H25.085z"/>
		<path fill="#1D8F38" d="M41.117,6.343c1.368,0,7.484,2.068,11.34,16.02c2.521,9.12-6,24.36-8.28,30.96
			c-1.145,3.313-3.542,9.646-3.736,18.122c-0.192,8.401,1.816,18.959,1.816,18.959l-2.039-2.279c0,0-2.221-15.721-1.74-23.341
			c0,0-1.5-0.36-1.5-1.26c0-0.427-1.143-6.413-3.607-9.818c-2.74-3.785-6.833-5.002-6.833-5.002s-0.36-1.439,1.62-1.26
			c1.172,0.106,4.377,0.726,7.094,4.791c1.875,2.807,3.467,10.209,3.467,10.209l0.479,0.72c0,0-0.06-1.2,0.3-1.92
			c0.36-0.72,0-1.5,0-1.5s-0.84-0.36-1.02-1.02c-0.063-0.232-1.408-7.44-3.592-9.608c-4.023-3.993-9.488-3.892-9.488-3.892
			s-0.66-0.301,0.18-1.08c0.442-0.411,5.914-1.627,11.246,3.033c3.722,3.252,3.814,11.547,3.814,11.547s0.84-4.08,1.56-7.38
			c0.72-3.301,4.439-9.54,6.18-16.74c1.74-7.2,0.96-17.16-4.8-24.36c-1.379-1.723-3.3-1.979-3.3-2.76
			C40.278,6.702,40.638,6.343,41.117,6.343z"/>
		<path fill="#1D8F38" d="M59.177,42.792c0,0-0.09,0.811-2.069,0.9c-0.613,0.027-4.467,2.24-7.392,5.304
			c-1.809,1.895-3.317,5.227-3.317,5.227s4.291-6.477,10.063-8.859c4.732-1.953,10.096,0.669,10.096,0.669s0.449,0.72-1.62,0.54
			c-1.066-0.093-12.224-0.708-17.699,10.04c-7.58,14.878-3.181,32.351-3.181,32.351l-1.439,0.9c0,0-4.237-17.67,1.648-34.551
			C49.662,39.844,59.177,42.792,59.177,42.792z"/>
		<path fill="#1D8F38" d="M12.377,52.152c1.171-1.62,5.94-2.79,9.9-2.97c3.96-0.181,10.8,2.25,14.22,15.12
			c1.185,4.457,3.15,24.84,3.15,24.84l2.88,3.511c0,0,0.884-1.589,1.445-2.597c1.038-1.862,2.064-3.703,2.064-3.703l2.431,0.63
			c0,0-1.539,2.073-2.731,4.213c-0.937,1.674-2.31,4.338-2.31,4.338l-6.119-4.681c0,0-0.607-6.102-2.752-10.735
			c-1.724-3.726-5.078-6.185-5.078-6.185l1.439-1.801c0,0,1.728,1.326,3.107,2.828c1.111,1.211,1.933,2.662,1.933,2.662
			s-1.89-19.711-9.63-23.671c-2.329-1.191-7.561-3.06-12.51-0.72C13.817,53.232,12.287,53.322,12.377,52.152z"/>
		<path fill="#1D8F38" d="M73.938,60.883c0,0-4.32-10.98-12.691-10.71c-2.186,0.07-10.314,2.833-14.381,13.396
			c-1.051,2.733-1.871,11.112-1.871,11.112l2.861-2.002l0.821,1.806l-3.729,2.737l-0.172,9.49l-0.812,0.721
			c0,0-3.33-24.931,7.381-35.551c2.802-2.778,14.851-10.08,21.959,3.96C74.835,58.86,73.938,60.883,73.938,60.883z"/>
		<path fill="#D90000" d="M31.195,63.117c-1.488,0-1.958,1.339-2.104,2.066c-0.062,0.311-0.437,0.655-0.783,0.886
			c-1.34-0.435-3.485-0.625-4.941-0.197c-0.977,0.287-1.656,1.288-1.865,2.743c-0.179,1.245,0.008,2.954,1.123,3.67
			c0.609,0.391,1.245,0.522,1.813,0.578c-0.078,0.412-0.151,0.877-0.233,1.446l-0.296,1.748c-0.347,1.386,0.238,2.894,0.732,3.591
			c0,0,0.352,1.606,1.021,1.973c0.669,0.363,1.37-0.267,1.606-1.154c0.119-0.447,0.155-1.164-0.351-2.024l-0.602-0.916
			c-0.374-0.527-0.374-0.527-0.273-0.935c0.001,0,0.34-1.971,0.34-1.971c0.057-0.392,0.135-0.939,0.217-1.375
			c1.012,0.27,2.235,0.344,2.527,0.356l0.597,0.521l1.359-1.861c0,0-0.728-0.666-1.396-1.905c-0.072-0.15-0.027-1.046,0-1.365
			c0.027-0.326,0.061-0.766,0.008-1.207c0.593-0.426,1.716-0.846,1.919-1.866c0.054-0.267,0.788-1.262,0.664-1.92
			C32.166,63.397,31.195,63.117,31.195,63.117z M26.767,70.986c-0.478-0.238-1.006-0.257-1.518-0.273
			c-0.518-0.016-1.054-0.033-1.435-0.279c-0.054-0.067-0.173-0.44-0.173-0.979c0-0.115,0.006-0.24,0.019-0.369
			c0.068-0.68,0.286-1.055,0.376-1.121c0.889-0.256,2.507-0.117,3.492,0.182c0.001,0.016,0.004,0.021,0.004,0.039
			c0,0.186-0.021,0.438-0.037,0.625c-0.022,0.271-0.047,0.554-0.047,0.841c0,0.471,0.064,0.948,0.303,1.393
			c0.041,0.074,0.043,0.141,0.074,0.215C27.389,71.186,26.986,71.096,26.767,70.986z"/>
		<path fill="#D90000" d="M56.577,67.465c0,0-1.847-0.467-2.313-0.431c-0.268-2.8-1.509-4.465-1.935-4.951s-1.127-0.145-1.686,0.287
			c-0.646,0.501-0.735,1.59-0.735,1.59c1.101,2.277,1.583,1.817,2.453,3.423c-0.888,0.549-1.536,1.307-1.78,2.137
			c-0.201,0.687-1.361,1.945-2.121,2.621l-0.845,0.754l1.142,1.736c0.146,0.152,1.082,0.605,2.047,1.131
			c0.467,0.254,1.058,0.551,1.708,0.775c0.042,0.547,0.071,1.086,0.071,1.561c0,0.728-0.234,1.47-0.331,1.699
			c-2.295,1.656-2.032,2.707-1.181,3.256c0.852,0.547,2.041,0.279,2.855-1.819c0.128-0.328,1.054-0.855,0.824-4.361
			c1.754-0.156,4.815-1.375,5.438-4.101C60.983,69.293,56.577,67.465,56.577,67.465z M58.055,72.238
			c-0.459,1.838-3.021,2.45-3.669,2.45c-0.954,0-2.14-0.646-2.527-0.858c-0.286-0.154-0.703-0.506-1.098-0.869
			c0.719-0.742,1.637-1.818,1.932-2.82c0.082-0.278,0.42-0.696,0.988-1c0.511-0.272,1.063-0.366,1.443-0.248
			C56.057,69.188,58.482,70.527,58.055,72.238z"/>
	</g>
</g>
</svg>
