<?xml version="1.0" encoding="utf-8"?>
<!-- Generator: Adobe Illustrator 12.0.0, SVG Export Plug-In . SVG Version: 6.00 Build 51448)  -->
<!DOCTYPE svg PUBLIC "-//W3C//DTD SVG 1.1//EN" "http://www.w3.org/Graphics/SVG/1.1/DTD/svg11.dtd" [
	<!ENTITY ns_flows "http://ns.adobe.com/Flows/1.0/">
	<!ENTITY ns_extend "http://ns.adobe.com/Extensibility/1.0/">
	<!ENTITY ns_ai "http://ns.adobe.com/AdobeIllustrator/10.0/">
	<!ENTITY ns_graphs "http://ns.adobe.com/Graphs/1.0/">
	<!ENTITY ns_vars "http://ns.adobe.com/Variables/1.0/">
	<!ENTITY ns_imrep "http://ns.adobe.com/ImageReplacement/1.0/">
	<!ENTITY ns_sfw "http://ns.adobe.com/SaveForWeb/1.0/">
	<!ENTITY ns_custom "http://ns.adobe.com/GenericCustomNamespace/1.0/">
	<!ENTITY ns_adobe_xpath "http://ns.adobe.com/XPath/1.0/">
	<!ENTITY ns_svg "http://www.w3.org/2000/svg">
	<!ENTITY ns_xlink "http://www.w3.org/1999/xlink">
]>
<svg  version="1.1"
	 xmlns:x="&ns_extend;" xmlns:i="&ns_ai;" xmlns:graph="&ns_graphs;" i:viewOrigin="-0.3193 135.7061" i:rulerOrigin="0 0" i:pageBounds="0 136 85 0"
	 xmlns="&ns_svg;" xmlns:xlink="&ns_xlink;" xmlns:a="http://ns.adobe.com/AdobeSVGViewerExtensions/3.0/"
	 width="85.678" height="136.025" viewBox="0 0 85.678 136.025" overflow="visible" enable-background="new 0 0 85.678 136.025"
	 xml:space="preserve">
<metadata>
	<variableSets  xmlns="http://ns.adobe.com/Variables/1.0/">
		<variableSet  varSetName="binding1" locked="none">
			<variables></variables>
			<v:sampleDataSets  xmlns="http://ns.adobe.com/GenericCustomNamespace/1.0/" xmlns:v="http://ns.adobe.com/Variables/1.0/">
				</v:sampleDataSets>
		</variableSet>
	</variableSets>
</metadata>
<g id="图层_1" i:knockout="Off" i:layer="yes" i:dimmedPercent="50" i:rgbTrio="#4F008000FFFF">
	<g i:knockout="Off">
		<path fill="#333333" d="M2.274,99.465v24.962c0,5.149,3.353,9.325,7.481,9.325h68.118c4.133,0,7.484-4.176,7.484-9.325h-0.002
			V9.216c0-4.344-3.353-7.869-7.482-7.869H9.756c-4.131,0-7.481,3.525-7.481,7.869H2.272v90.229
			C2.272,99.45,2.274,99.458,2.274,99.465z"/>
		
			<linearGradient id="XMLID_3_" gradientUnits="userSpaceOnUse" x1="-22.6704" y1="112.9883" x2="-22.6704" y2="-12.5781" gradientTransform="matrix(1 0 0 1 64.5342 22.7178)">
			<stop  offset="0.0899" style="stop-color:#2089B9"/>
			<stop  offset="0.0985" style="stop-color:#4FA3C2"/>
			<stop  offset="0.1071" style="stop-color:#77B9CA"/>
			<stop  offset="0.1138" style="stop-color:#8FC7CF"/>
			<stop  offset="0.118" style="stop-color:#98CCD1"/>
			<stop  offset="0.1341" style="stop-color:#9ECFD3"/>
			<stop  offset="0.156" style="stop-color:#AFD6D9"/>
			<stop  offset="0.1809" style="stop-color:#CBE1E3"/>
			<stop  offset="0.1966" style="stop-color:#E1EAEB"/>
			<a:midPointStop  offset="0.0899" style="stop-color:#2089B9"/>
			<a:midPointStop  offset="0.5" style="stop-color:#2089B9"/>
			<a:midPointStop  offset="0.0985" style="stop-color:#4FA3C2"/>
			<a:midPointStop  offset="0.5" style="stop-color:#4FA3C2"/>
			<a:midPointStop  offset="0.1071" style="stop-color:#77B9CA"/>
			<a:midPointStop  offset="0.5" style="stop-color:#77B9CA"/>
			<a:midPointStop  offset="0.1138" style="stop-color:#8FC7CF"/>
			<a:midPointStop  offset="0.5" style="stop-color:#8FC7CF"/>
			<a:midPointStop  offset="0.118" style="stop-color:#98CCD1"/>
			<a:midPointStop  offset="0.5" style="stop-color:#98CCD1"/>
			<a:midPointStop  offset="0.1341" style="stop-color:#9ECFD3"/>
			<a:midPointStop  offset="0.5" style="stop-color:#9ECFD3"/>
			<a:midPointStop  offset="0.156" style="stop-color:#AFD6D9"/>
			<a:midPointStop  offset="0.5" style="stop-color:#AFD6D9"/>
			<a:midPointStop  offset="0.1809" style="stop-color:#CBE1E3"/>
			<a:midPointStop  offset="0.5" style="stop-color:#CBE1E3"/>
			<a:midPointStop  offset="0.1966" style="stop-color:#E1EAEB"/>
		</linearGradient>
		<path fill="url(#XMLID_3_)" d="M83.405,126.381c0,5.15-3.353,9.325-7.48,9.325H7.804c-4.131,0-7.482-4.177-7.482-9.325V19.465
			c0-5.148,3.354-9.326,7.482-9.326h68.117c4.133,0,7.482,4.176,7.482,9.326v106.916H83.405z"/>
		<path fill="none" stroke="#333333" stroke-width="0.977" d="M83.405,126.381c0,5.15-3.353,9.325-7.48,9.325H7.804
			c-4.131,0-7.482-4.177-7.482-9.325V19.465c0-5.148,3.354-9.326,7.482-9.326h68.117c4.133,0,7.482,4.176,7.482,9.326v106.916
			H83.405z"/>
		<path fill="#FFFFFF" d="M0.32,11.17c0-4.344,3.354-7.869,7.482-7.869H75.92c4.133,0,7.482,3.523,7.482,7.869v90.229
			c0,4.346-3.353,7.868-7.482,7.868H7.802c-4.131,0-7.482-3.522-7.482-7.87V11.17L0.32,11.17z"/>
		
			<linearGradient id="XMLID_4_" gradientUnits="userSpaceOnUse" x1="4.0215" y1="80.7666" x2="86.165" y2="80.7666" gradientTransform="matrix(-1 0 0 -1 86.9551 137.0508)">
			<stop  offset="0" style="stop-color:#A2D8E0"/>
			<stop  offset="0.0899" style="stop-color:#1878AD"/>
			<stop  offset="0.2135" style="stop-color:#194D91"/>
			<stop  offset="0.6404" style="stop-color:#2B90BD"/>
			<stop  offset="0.9438" style="stop-color:#82CBDE"/>
			<stop  offset="1" style="stop-color:#1A478D"/>
			<a:midPointStop  offset="0" style="stop-color:#A2D8E0"/>
			<a:midPointStop  offset="0.5" style="stop-color:#A2D8E0"/>
			<a:midPointStop  offset="0.0899" style="stop-color:#1878AD"/>
			<a:midPointStop  offset="0.5" style="stop-color:#1878AD"/>
			<a:midPointStop  offset="0.2135" style="stop-color:#194D91"/>
			<a:midPointStop  offset="0.5" style="stop-color:#194D91"/>
			<a:midPointStop  offset="0.6404" style="stop-color:#2B90BD"/>
			<a:midPointStop  offset="0.5" style="stop-color:#2B90BD"/>
			<a:midPointStop  offset="0.9438" style="stop-color:#82CBDE"/>
			<a:midPointStop  offset="0.5" style="stop-color:#82CBDE"/>
			<a:midPointStop  offset="1" style="stop-color:#1A478D"/>
		</linearGradient>
		<path i:isolated="yes" i:knockout="Off" opacity="0.1" fill="url(#XMLID_4_)" enable-background="new    " d="M0.79,11.17
			c0-4.344,3.313-7.869,7.397-7.869h67.347c4.086,0,7.399,3.523,7.399,7.869v90.229c0,4.346-3.313,7.868-7.399,7.868H8.188
			c-4.084,0-7.397-3.522-7.397-7.87L0.79,11.17L0.79,11.17z"/>
		<path fill="none" stroke="#4D4D4D" stroke-width="0.977" d="M0.32,101.419v24.962c0,5.148,3.353,9.325,7.482,9.325h68.12
			c4.131,0,7.48-4.175,7.48-9.325V11.171c0-4.346-3.353-7.869-7.482-7.869H7.803c-4.13,0-7.482,3.525-7.482,7.869L0.32,101.399
			C0.319,101.404,0.32,101.411,0.32,101.419z"/>
	</g>
	<path fill="#24258D" d="M44.613,6.187c0,0,4.801,1.92,5.641,9.959c0.84,8.041-1.801,31.32-1.801,31.32s1.08,0,0.24,2.4
		c-0.531,1.52-0.84,2.279-0.84,4.68s-0.602,7.32-0.602,7.32s1.32,0.6,0.24,3c-1.08,2.399-0.961,4.56-0.961,4.56
		s0.961,0.96,0.479,2.28c-0.479,1.32-0.721,3.96-0.721,3.96s1.201,0.6,0.721,2.76c-0.479,2.16-0.6,8.04-0.6,8.04
		s1.199,1.8,1.199,3.603c0,1.8-1.92,3.72-3.602,3c-1.68-0.723-2.88-1.44-2.28-3.843c0.601-2.397,1.681-7.317,1.681-8.76
		c0-1.438-1.32-1.438-1.32-2.52s1.439-1.803,1.439-3.12c0-1.32,0.601-7.44,0.601-8.521c0-1.081-1.44-1.8-0.841-2.88
		c0.601-1.08,1.681-1.56,1.681-2.16c0-0.6,0.479-9,0.479-9.84c0-0.84-1.199-1.2-0.84-2.64c0.358-1.44,1.08-2.16,1.08-3.24
		s2.641-22.32,1.438-30c-0.81-5.179-1.8-7.08-2.761-7.92C43.414,6.786,43.773,6.187,44.613,6.187z"/>
	<path fill="#1D8F38" d="M20.014,50.105c0,0,0.24-2.399,1.68-3.12c1.44-0.719,2.76-1.199,2.76-2.039c0-0.84-1.319-3.961-4.08-3
		c-2.76,0.959-2.64,2.64-2.16,3.479c0.48,0.841,1.201,4.92,1.201,4.92L20.014,50.105z"/>
	<path fill="#1D8F38" d="M26.134,51.186c0.239-2.04,3.96-3.84,7.44-4.56c3.479-0.721,5.039-0.12,3.959,1.439
		c-1.08,1.561-3.479,3.841-6.119,4.561C28.773,53.346,25.894,53.226,26.134,51.186z"/>
	<path fill="#1D8F38" d="M12.453,57.186c1.08-1.199,5.881-3.96,7.681-4.199c1.8-0.24,3,1.199,2.04,2.64
		c-0.961,1.44-7.32,3.12-8.641,3.12C12.212,58.747,11.373,58.386,12.453,57.186z"/>
	<path fill="#1D8F38" d="M25.773,54.306c0,0,0.36-0.84,3.721,0.36c3.359,1.2,9.84,7.92,9.959,8.76c0.121,0.84-2.76-0.479-4.319-0.96
		c-1.56-0.479-7.32-4.2-7.32-4.2S26.254,54.306,25.773,54.306z"/>
	<path fill="#1D8F38" d="M22.533,56.946c0.36-1.08,0.961-2.16,2.521-2.16s2.159,3.84,2.159,5.399c0,1.561-1.439,14.641-3.119,15.48
		c-1.68,0.839-2.52-6.96-2.52-9.96S22.174,58.026,22.533,56.946z"/>
	<path fill="#1D8F38" d="M27.813,60.186c0,0,6.479,6.24,6.96,9c0,0,2.881,0.723,1.92,3.96c0,0,1.2,4.923,1.32,5.521
		c0.12,0.6,2.4,1.8,1.68,4.439c-0.72,2.641,0.36,4.438,0.36,6.841c0,2.397-1.8,6-3.841,5.76c-2.039-0.24-1.439-4.92-1.319-7.68
		c0.12-2.763,0.72-4.08,0.72-4.08s-1.779-0.521-1.439-1.92c0.539-2.223-0.12-6.96-0.12-6.96s-0.72-0.36-1.8-1.32
		s-0.24-2.641-0.24-3.603c0-0.96-4.426-7.56-4.426-7.56S26.854,60.23,27.813,60.186z"/>
	<path fill="#1D8F38" d="M19.594,81.906c0.779-0.96,6-1.803,10.08,1.26c4.08,3.06,5.557,8.869,4.38,11.46
		c-0.899,1.979-4.38,0.36-4.86-1.5s0.748-4.705-0.779-6.66c-2.405-3.079-5.28-3.6-6.36-3.6S18.813,82.866,19.594,81.906z"/>
	<path fill="#1D8F38" d="M62.733,36.905c0,0,2.158-1.199,1.921-3.359c-0.24-2.16-2.881-3.12-4.32-2.04
		C58.894,32.586,57.213,37.026,62.733,36.905z"/>
	<path fill="#1D8F38" d="M65.373,40.985c0.721-1.68,4.44-2.159,6.961-2.76c2.521-0.6,3.72,0,2.16,1.561
		c-1.562,1.56-5.041,4.439-7.201,4.56C65.134,44.466,64.654,42.666,65.373,40.985z"/>
	<path fill="#1D8F38" d="M66.813,45.786c0.118-1.08,2.64-1.68,4.078-0.96c1.44,0.72,4.922,5.88,4.44,7.2
		C74.854,53.346,66.693,46.866,66.813,45.786z"/>
	<path fill="#1D8F38" d="M65.254,45.666c0,0,2.279,0.601,2.4,3.84c0.119,3.24-1.08,16.2-2.281,17.521
		c-1.199,1.319-2.64-1.921-2.879-5.641c-0.24-3.72-0.961-6.6-0.24-9c0,0,1.191-2.811,1.984-4.584
		C64.858,46.414,65.096,46.034,65.254,45.666z"/>
	<path fill="#1D8F38" d="M63.934,44.586c1.68,0.146,1.08,1.44-0.96,4.681c-2.04,3.239-4.8,6.839-5.88,6.959
		c-1.08,0.12-1.92-1.08-1.2-2.52C57.345,50.804,60.482,44.288,63.934,44.586z"/>
	<path fill="#1D8F38" d="M51.094,47.106c0,0,3.602-3.48,8.16-4.801c4.562-1.32,4.562-0.24,4.562,0.48c0,0.72-2.642,2.279-6.239,3.96
		C53.974,48.426,50.854,50.226,51.094,47.106z"/>
	<path fill="#1D8F38" d="M60.213,53.946c0,0,1.441-1.08,1.441,0.6s-4.921,9-4.801,9.96c0.118,0.96,0.96,3.12-0.12,4.08
		c-1.079,0.96-2.159,5.64-2.159,6.84s0.239,3.12-0.48,4.08c-0.721,0.96,0,1.8,0,3.24c0,1.438,0.359,5.64-0.358,7.8
		c-0.721,2.16-5.399,3.24-5.159,0.24c0.239-3,1.56-11.04,1.92-12.36c0.359-1.32-0.961-1.56,0-3c0.959-1.438,1.799-4.8,2.039-6.12
		c0.24-1.319-0.359-2.52,0.84-4.08S57.934,56.105,60.213,53.946z"/>
	<path fill="#1D8F38" d="M55.773,91.026c0,0,3,0,3.118-2.28c0.12-2.28,1.562-7.44,3.479-9.96c1.92-2.521,4.44-1.8,5.16-3.12
		c0.721-1.32-1.92-1.8-4.92-0.6c-3,1.197-5.521,3.96-6.722,7.92C54.692,86.946,53.733,91.026,55.773,91.026z"/>
	<path fill="#D90000" d="M24.767,19.805c4.295,0.955,6.538,3.246,6.729,6.873c-0.191,5.156-3.676,7.828-10.453,8.02
		c-6.014-0.287-9.116-2.1-9.308-5.441c0-1.527,0.812-2.291,2.435-2.291c1.527-0.096,2.243,0.525,2.147,1.861
		c0.287,2.673,1.719,4.01,4.297,4.01c3.436-0.096,5.201-2.1,5.297-6.014c0.096-3.818-2.338-5.68-7.303-5.585
		c-1.145,0-1.718-0.382-1.718-1.146c-0.19-0.764,0.524-1.146,2.147-1.146c3.914,0,5.823-1.766,5.729-5.298
		c-0.096-2.863-1.433-4.344-4.01-4.439c-2.005,0.191-3.055,1.003-3.15,2.435c0,0.286,0.048,0.62,0.144,1.003
		c0.095,0.381,0.144,0.716,0.144,1.002c-0.191,0.859-0.955,1.336-2.291,1.432c-1.719-0.096-2.578-0.859-2.578-2.291
		c0.478-3.531,3.437-5.441,8.878-5.728c5.44,0.382,8.305,2.626,8.591,6.729c-0.096,2.96-2.004,4.917-5.727,5.871V19.805z"/>
</g>
</svg>
