<?xml version="1.0" encoding="utf-8"?>
<!-- Generator: Adobe Illustrator 12.0.0, SVG Export Plug-In . SVG Version: 6.00 Build 51448)  -->
<!DOCTYPE svg PUBLIC "-//W3C//DTD SVG 1.1//EN" "http://www.w3.org/Graphics/SVG/1.1/DTD/svg11.dtd" [
	<!ENTITY ns_flows "http://ns.adobe.com/Flows/1.0/">
	<!ENTITY ns_extend "http://ns.adobe.com/Extensibility/1.0/">
	<!ENTITY ns_ai "http://ns.adobe.com/AdobeIllustrator/10.0/">
	<!ENTITY ns_graphs "http://ns.adobe.com/Graphs/1.0/">
	<!ENTITY ns_vars "http://ns.adobe.com/Variables/1.0/">
	<!ENTITY ns_imrep "http://ns.adobe.com/ImageReplacement/1.0/">
	<!ENTITY ns_sfw "http://ns.adobe.com/SaveForWeb/1.0/">
	<!ENTITY ns_custom "http://ns.adobe.com/GenericCustomNamespace/1.0/">
	<!ENTITY ns_adobe_xpath "http://ns.adobe.com/XPath/1.0/">
	<!ENTITY ns_svg "http://www.w3.org/2000/svg">
	<!ENTITY ns_xlink "http://www.w3.org/1999/xlink">
]>
<svg  version="1.1"
	 xmlns:x="&ns_extend;" xmlns:i="&ns_ai;" xmlns:graph="&ns_graphs;" i:viewOrigin="-0.3193 135.7061" i:rulerOrigin="0 0" i:pageBounds="0 136 85 0"
	 xmlns="&ns_svg;" xmlns:xlink="&ns_xlink;" xmlns:a="http://ns.adobe.com/AdobeSVGViewerExtensions/3.0/"
	 width="85.678" height="136.025" viewBox="0 0 85.678 136.025" overflow="visible" enable-background="new 0 0 85.678 136.025"
	 xml:space="preserve">
<metadata>
	<variableSets  xmlns="http://ns.adobe.com/Variables/1.0/">
		<variableSet  varSetName="binding1" locked="none">
			<variables></variables>
			<v:sampleDataSets  xmlns="http://ns.adobe.com/GenericCustomNamespace/1.0/" xmlns:v="http://ns.adobe.com/Variables/1.0/">
				</v:sampleDataSets>
		</variableSet>
	</variableSets>
</metadata>
<g id="图层_1" i:knockout="Off" i:layer="yes" i:dimmedPercent="50" i:rgbTrio="#4F008000FFFF">
	<g i:knockout="Off">
		<path fill="#333333" d="M2.274,99.465v24.962c0,5.149,3.353,9.325,7.481,9.325h68.118c4.133,0,7.484-4.176,7.484-9.325h-0.002
			V9.216c0-4.344-3.353-7.869-7.482-7.869H9.756c-4.131,0-7.481,3.525-7.481,7.869H2.272v90.229
			C2.272,99.45,2.274,99.458,2.274,99.465z"/>
		
			<linearGradient id="XMLID_3_" gradientUnits="userSpaceOnUse" x1="-22.6704" y1="112.9883" x2="-22.6704" y2="-12.5781" gradientTransform="matrix(1 0 0 1 64.5342 22.7178)">
			<stop  offset="0.0899" style="stop-color:#2089B9"/>
			<stop  offset="0.0985" style="stop-color:#4FA3C2"/>
			<stop  offset="0.1071" style="stop-color:#77B9CA"/>
			<stop  offset="0.1138" style="stop-color:#8FC7CF"/>
			<stop  offset="0.118" style="stop-color:#98CCD1"/>
			<stop  offset="0.1341" style="stop-color:#9ECFD3"/>
			<stop  offset="0.156" style="stop-color:#AFD6D9"/>
			<stop  offset="0.1809" style="stop-color:#CBE1E3"/>
			<stop  offset="0.1966" style="stop-color:#E1EAEB"/>
			<a:midPointStop  offset="0.0899" style="stop-color:#2089B9"/>
			<a:midPointStop  offset="0.5" style="stop-color:#2089B9"/>
			<a:midPointStop  offset="0.0985" style="stop-color:#4FA3C2"/>
			<a:midPointStop  offset="0.5" style="stop-color:#4FA3C2"/>
			<a:midPointStop  offset="0.1071" style="stop-color:#77B9CA"/>
			<a:midPointStop  offset="0.5" style="stop-color:#77B9CA"/>
			<a:midPointStop  offset="0.1138" style="stop-color:#8FC7CF"/>
			<a:midPointStop  offset="0.5" style="stop-color:#8FC7CF"/>
			<a:midPointStop  offset="0.118" style="stop-color:#98CCD1"/>
			<a:midPointStop  offset="0.5" style="stop-color:#98CCD1"/>
			<a:midPointStop  offset="0.1341" style="stop-color:#9ECFD3"/>
			<a:midPointStop  offset="0.5" style="stop-color:#9ECFD3"/>
			<a:midPointStop  offset="0.156" style="stop-color:#AFD6D9"/>
			<a:midPointStop  offset="0.5" style="stop-color:#AFD6D9"/>
			<a:midPointStop  offset="0.1809" style="stop-color:#CBE1E3"/>
			<a:midPointStop  offset="0.5" style="stop-color:#CBE1E3"/>
			<a:midPointStop  offset="0.1966" style="stop-color:#E1EAEB"/>
		</linearGradient>
		<path fill="url(#XMLID_3_)" d="M83.405,126.381c0,5.15-3.353,9.325-7.48,9.325H7.804c-4.131,0-7.482-4.177-7.482-9.325V19.465
			c0-5.148,3.354-9.326,7.482-9.326h68.117c4.133,0,7.482,4.176,7.482,9.326v106.916H83.405z"/>
		<path fill="none" stroke="#333333" stroke-width="0.977" d="M83.405,126.381c0,5.15-3.353,9.325-7.48,9.325H7.804
			c-4.131,0-7.482-4.177-7.482-9.325V19.465c0-5.148,3.354-9.326,7.482-9.326h68.117c4.133,0,7.482,4.176,7.482,9.326v106.916
			H83.405z"/>
		<path fill="#FFFFFF" d="M0.32,11.17c0-4.344,3.354-7.869,7.482-7.869H75.92c4.133,0,7.482,3.523,7.482,7.869v90.229
			c0,4.346-3.353,7.868-7.482,7.868H7.802c-4.131,0-7.482-3.522-7.482-7.87V11.17L0.32,11.17z"/>
		
			<linearGradient id="XMLID_4_" gradientUnits="userSpaceOnUse" x1="4.0215" y1="80.7666" x2="86.165" y2="80.7666" gradientTransform="matrix(-1 0 0 -1 86.9551 137.0508)">
			<stop  offset="0" style="stop-color:#A2D8E0"/>
			<stop  offset="0.0899" style="stop-color:#1878AD"/>
			<stop  offset="0.2135" style="stop-color:#194D91"/>
			<stop  offset="0.6404" style="stop-color:#2B90BD"/>
			<stop  offset="0.9438" style="stop-color:#82CBDE"/>
			<stop  offset="1" style="stop-color:#1A478D"/>
			<a:midPointStop  offset="0" style="stop-color:#A2D8E0"/>
			<a:midPointStop  offset="0.5" style="stop-color:#A2D8E0"/>
			<a:midPointStop  offset="0.0899" style="stop-color:#1878AD"/>
			<a:midPointStop  offset="0.5" style="stop-color:#1878AD"/>
			<a:midPointStop  offset="0.2135" style="stop-color:#194D91"/>
			<a:midPointStop  offset="0.5" style="stop-color:#194D91"/>
			<a:midPointStop  offset="0.6404" style="stop-color:#2B90BD"/>
			<a:midPointStop  offset="0.5" style="stop-color:#2B90BD"/>
			<a:midPointStop  offset="0.9438" style="stop-color:#82CBDE"/>
			<a:midPointStop  offset="0.5" style="stop-color:#82CBDE"/>
			<a:midPointStop  offset="1" style="stop-color:#1A478D"/>
		</linearGradient>
		<path i:isolated="yes" i:knockout="Off" opacity="0.1" fill="url(#XMLID_4_)" enable-background="new    " d="M0.79,11.17
			c0-4.344,3.313-7.869,7.397-7.869h67.347c4.086,0,7.399,3.523,7.399,7.869v90.229c0,4.346-3.313,7.868-7.399,7.868H8.188
			c-4.084,0-7.397-3.522-7.397-7.87L0.79,11.17L0.79,11.17z"/>
		<path fill="none" stroke="#4D4D4D" stroke-width="0.977" d="M0.32,101.419v24.962c0,5.148,3.353,9.325,7.482,9.325h68.12
			c4.131,0,7.48-4.175,7.48-9.325V11.171c0-4.346-3.353-7.869-7.482-7.869H7.803c-4.13,0-7.482,3.525-7.482,7.869L0.32,101.399
			C0.319,101.404,0.32,101.411,0.32,101.419z"/>
	</g>
	<g i:knockout="Off">
		<g i:knockout="Off">
			<path fill="#333333" d="M25.712,12.214c2.895,1.104,5.998,1.518,9.307,1.242c5.652-0.275,10.891-0.275,15.715,0
				c2.619,0.137,4.344,0.137,5.17,0c0.965,0,1.86-0.139,2.688-0.414c3.584-0.828,5.377,0.758,5.377,4.756
				c-0.965,5.516-1.446,11.236-1.446,17.164c-0.14,2.205-1.033,3.791-2.688,4.756c-1.793,0.826-3.516,0.551-5.17-0.828
				c-0.965-0.689-4.48-1.172-10.547-1.447c-7.721,0-12.406,0.275-14.061,0.828c-1.654,1.379-3.172,1.93-4.551,1.654
				c-1.379-0.553-2.066-1.793-2.066-3.723c-0.139-6.479-0.689-12.959-1.654-19.438C21.37,13.042,22.679,11.526,25.712,12.214z
				 M35.019,18.005c0-0.551-0.277-0.828-0.828-0.828c-0.965,0-2.205,0-3.723,0c-2.344,0.139-3.584,1.104-3.721,2.896
				c0.275,3.584,0.412,5.996,0.412,7.236c-0.137,0.689,0.277,0.896,1.242,0.621C33.226,27.103,35.431,23.794,35.019,18.005z
				 M42.876,26.69c-0.689-1.518-0.621-4.205,0.207-8.064c0.412-1.104-0.139-1.586-1.654-1.449c-1.242,0-1.861,0.414-1.861,1.242
				c0,4.688-0.828,7.857-2.482,9.512c-1.654,1.93-4.617,2.895-8.891,2.895c-0.414,0-0.621,0.414-0.621,1.24
				c0.275,0.967,0.828,1.518,1.654,1.654c7.996,0,16.404,0,25.229,0c1.791,0.139,2.758-0.412,2.895-1.654
				c0.14-0.551,0.275-2.066,0.414-4.549c-2.207,2.482-4.688,3.723-7.444,3.723C46.46,31.101,43.979,29.585,42.876,26.69z
				 M58.179,22.554c0.138-0.275,0.207-0.896,0.207-1.861c0.138-0.826,0.205-1.447,0.205-1.861c-0.137-0.965-0.826-1.516-2.065-1.654
				c-2.207,0-4.619,0-7.238,0c-1.104-0.137-1.861,0.689-2.275,2.482c-0.551,2.068-0.412,3.584,0.414,4.549
				c2.758,2.896,5.859,3.309,9.308,1.24C57.558,25.173,58.04,24.208,58.179,22.554z"/>
		</g>
		<path fill="#D90000" d="M44.022,47.401c0.791,0,1.502,0.08,2.133,0.236c0.633,0,1.264,0.238,1.896,0.711
			c0.789,0.158,1.265,0.475,1.422,0.949c0.314,0.158,0.554,0.473,0.711,0.947c0.156,0.158,0.236,0.395,0.236,0.711l-0.236,0.711
			c-0.157,0.316-0.396,0.711-0.711,1.184c-0.157,0.475-0.396,0.949-0.711,1.422c-0.157,0.316-0.237,0.711-0.237,1.186l0.948-0.238
			c0.632-0.314,0.789-0.395,0.474-0.236c0.315-0.158,0.711-0.236,1.186-0.236c0.474-0.316,0.947-0.475,1.422-0.475
			c0.474-0.158,0.867-0.236,1.185-0.236c0.316,0,0.633,0.078,0.949,0.236c0.155,0,0.395,0.158,0.709,0.475
			c0.315,0.158,0.553,0.316,0.711,0.473l0.237,0.238c0.631,0.316,1.185,0.789,1.658,1.422v0.473h-0.475
			c-0.158,0-0.869,0.08-2.133,0.237c-1.105,0-2.054,0.158-2.843,0.473c-0.791,0-1.66,0.158-2.606,0.475c-0.316,0-0.711,0-1.185,0
			c-0.633,0.158-1.186,0.236-1.657,0.236l-0.476,0.475c-0.315,0.158-0.711,0.631-1.186,1.422c-0.158,0.158-0.396,0.395-0.711,0.711
			c-0.314,0.473-0.554,0.789-0.711,0.947c-0.474,0.475-0.868,1.027-1.185,1.658h0.236h0.475c0.314-0.158,0.631-0.236,0.947-0.236
			c0.789-0.316,1.816-0.475,3.08-0.475c1.264-0.158,2.211-0.236,2.844-0.236c0.631,0,1.185,0.078,1.658,0.236
			c0.158,0,0.553,0.158,1.186,0.475c0.156,0.158,0.314,0.316,0.474,0.473c0.791,0.475,1.264,0.949,1.422,1.422
			c0.315,0.475,0.553,0.949,0.711,1.422c0.158,0.316,0.236,0.711,0.236,1.186l-0.711,0.947c-0.474,0.475-0.947,1.186-1.421,2.133
			c-0.475,0.631-0.948,1.422-1.422,2.369c-0.475,0.631-0.869,1.342-1.186,2.133c-0.316,0.631-1.105,1.58-2.369,2.844h-0.475
			l-1.42-1.422l-0.476,0.236c-0.315,0-0.633,0.158-0.947,0.475c-0.157,0-0.396,0.078-0.711,0.236s-0.553,0.236-0.711,0.236
			c-0.633,0-1.027,0.157-1.186,0.475c-0.158,0-0.316,0.475-0.473,1.422c0,0.789-0.08,1.5-0.238,2.133l0.949-0.237
			c0.631-0.314,1.736-0.554,3.316-0.711c1.58-0.474,3.08-0.712,4.502-0.712c1.422-0.155,2.687-0.235,3.791-0.235
			c0.473,0,1.105-0.078,1.896-0.236h0.237c0.314-0.158,0.711-0.238,1.185-0.238c0.475,0,0.946,0.08,1.422,0.238
			c0.158,0,0.553,0.158,1.186,0.473c0.156,0.158,0.314,0.316,0.474,0.476c0.791,0.475,1.264,0.947,1.422,1.422
			c0.158,0.158,0.315,0.316,0.475,0.473c0,0.316,0.078,0.556,0.236,0.711c0.158,0.158,0.236,0.476,0.236,0.949l-0.236,0.236
			c-0.158,0-0.396,0.395-0.711,1.186c-0.316,0.474-0.631,1.343-0.947,2.605c0,0.315-0.158,0.789-0.475,1.422
			c-0.316,0.789-0.474,1.342-0.474,1.658c-0.315,0.946-0.711,1.896-1.186,2.844c-0.476,0.789-0.947,1.5-1.422,2.133
			c-0.158,0.156-0.316,0.396-0.474,0.711c-0.157,0.314-0.553,0.867-1.186,1.658c-0.316,0.314-0.633,0.711-0.947,1.184
			c-0.315,0.316-0.553,0.554-0.711,0.712c-0.158,0.157-0.395,0.395-0.711,0.711l-0.475,0.237c-0.158,0.156-0.631,0.236-1.422,0.236
			l-0.712-0.947c-0.157-0.315-0.395-0.633-0.709-0.949c-0.315-0.315-0.555-0.631-0.711-0.946c-0.157-0.316-0.396-0.633-0.711-0.947
			c-0.315-0.316-0.553-0.633-0.711-0.947c-0.475-0.633-1.026-1.186-1.658-1.66h0.709c0.476,0,1.265,0,2.371,0
			c1.105,0.158,1.896,0.238,2.369,0.238s0.867-0.08,1.185-0.238h0.237c0.314-0.155,0.554-0.313,0.711-0.473
			c0.314-0.475,0.396-0.553,0.236-0.238c0.158-0.313,0.396-0.946,0.711-1.895c0-0.158,0.078-0.553,0.236-1.187
			c0.315-0.946,0.553-1.735,0.711-2.368c0.315-1.423,0.553-2.605,0.711-3.554s0.236-1.737,0.236-2.371l-0.474-0.473h-2.133
			c-1.422,0-2.764,0.078-4.027,0.236c-0.791,0-2.055,0.237-3.791,0.711l0.474,0.475c0.315,0.316,0.791,0.711,1.422,1.185
			c0.633,0.475,1.186,1.026,1.658,1.657c0.315,0.316,0.553,0.711,0.711,1.187c0-0.316,0.078-0.158,0.235,0.475
			c0.158,0.474,0.238,0.947,0.238,1.42c0,0.316-0.08,0.713-0.238,1.187l-0.235,0.235c-0.158,0.316-0.316,0.554-0.474,0.712h-0.237
			c-0.158,0-0.236-0.078-0.236-0.236c-0.158,0-0.316,0-0.475,0L49.71,92.42c-0.316-0.316-0.711-0.791-1.186-1.422l-1.42,0.236
			c-0.949,0-1.896,0.157-2.845,0.475c-0.949,0-2.055,0.314-3.318,0.947c-1.264,0.475-2.369,0.946-3.316,1.422
			c-0.316,0.158-0.633,0.315-0.947,0.473c-0.316,0.158-0.633,0.316-0.947,0.476h-0.238c-0.158,0.157-0.316,0.235-0.473,0.235h-0.236
			c-0.316-0.156-0.555-0.235-0.711-0.235c-0.475-0.316-0.869-0.554-1.186-0.711c-0.158-0.158-0.236-0.396-0.236-0.712
			c-0.158-0.157-0.316-0.313-0.475-0.473c-0.158-0.475-0.236-0.869-0.236-1.186l0.473-0.476l0.711,0.238
			c0.158,0,0.395,0.078,0.711,0.236h0.238c0.156,0,0.314-0.078,0.473-0.236c0.316-0.158,0.553-0.238,0.711-0.238
			c0.631-0.473,1.184-0.789,1.658-0.946c0.475-0.474,0.789-0.712,0.947-0.712c0.158-0.157,0.238-0.313,0.238-0.473l0.236-0.238
			c0.158-0.157,0.236-1.104,0.236-2.842l-0.711,0.236c-0.473,0-1.105,0.236-1.895,0.711c-0.316,0.158-0.791,0.315-1.422,0.473
			c-0.631,0.316-1.105,0.556-1.422,0.711c-0.158,0.158-0.473,0.316-0.947,0.476c-1.105,0.315-2.133,0.711-3.08,1.186l0.475,1.42
			c0.314,0.949,0.553,1.896,0.711,2.845c0.156,0.475,0.236,1.579,0.236,3.317l-0.475,0.473v0.947l-0.711-0.947
			c-0.158-0.157-0.395-0.395-0.711-0.711c-0.158-0.473-0.314-0.789-0.473-0.946c-0.158-0.316-0.396-0.554-0.711-0.711
			c-0.158-0.474-0.236-0.869-0.236-1.187c0-0.473-0.08-0.947-0.238-1.42c0-0.158-0.078-0.315-0.236-0.475
			c-0.158-0.476-0.316-0.869-0.475-1.187h-0.236c-0.158,0-0.395,0.08-0.711,0.238c-0.158,0-0.475,0.236-0.947,0.711H24.12
			c-0.158,0-0.236-0.08-0.236-0.238c-0.158,0-0.316,0-0.473,0l-0.238-0.235c-0.316-0.316-0.711-0.789-1.184-1.422v-0.947
			l0.473-0.476l0.475,0.476h0.475h0.473c0.316-0.158,0.553-0.236,0.711-0.236c0.158-0.158,0.395-0.315,0.711-0.475
			c0.158,0,0.316-0.078,0.475-0.236V87.68c0-0.789,0.078-1.262,0.236-1.42c0.158-0.475,0.475-0.791,0.947-0.949
			c0.158-0.157,0.633-0.473,1.422-0.946c0.316,0,0.553-0.078,0.711-0.236c0.947-0.475,1.816-0.947,2.605-1.422
			c0.633-0.475,1.502-1.027,2.607-1.658l-0.475-0.238c-0.158-0.313-0.395-0.473-0.711-0.473c-0.158-0.158-0.395-0.475-0.711-0.949
			c0-0.155-0.078-0.313-0.236-0.473c-0.158-0.159-0.395-0.633-0.711-1.422c0-0.316-0.158-0.789-0.473-1.422
			c-0.316-0.631-0.475-1.105-0.475-1.422c-0.158-0.632-0.395-1.343-0.711-2.134l-0.236-0.235c-0.158-0.474-0.396-0.947-0.711-1.422
			c-0.158-0.474-0.238-0.867-0.238-1.185c0-0.475,0.08-0.791,0.238-0.949l0.236-0.236c0-0.316,0.158-0.553,0.475-0.711h0.473
			l0.949,0.947l0.236-0.236c0.158-0.158,0.553-0.473,1.184-0.947c0.158,0,0.316-0.078,0.475-0.236
			c0.633-0.633,1.422-1.105,2.369-1.422v-0.475l-0.473-0.711c-0.158-0.473-0.475-1.342-0.949-2.605h-0.236
			c-0.158,0-0.633,0.236-1.422,0.711c-0.316,0.158-0.633,0.314-0.947,0.473c-0.475,0.316-0.869,0.553-1.186,0.711
			c-0.473,0.158-0.947,0.475-1.422,0.947h-0.236c-0.158,0-0.236-0.078-0.236-0.236c-0.158,0-0.316,0-0.475,0l-0.473-0.236
			c-0.316-0.316-0.555-0.553-0.711-0.711c-0.475-0.475-0.791-0.947-0.949-1.422s-0.236-1.027-0.236-1.658l0.475-0.475l0.947,0.236
			c0.316,0,0.711,0.08,1.184,0.238h0.238h0.473c0.475-0.158,0.869-0.238,1.186-0.238c0.789-0.314,1.422-0.473,1.895-0.473
			c0.475-0.316,1.027-0.553,1.66-0.711V57.59c0-1.106-0.08-1.896-0.238-2.37c-0.158-0.473-0.395-0.947-0.711-1.422
			c-0.158-0.473-0.631-1.025-1.42-1.658v-0.473h0.947c0.631,0,1.184,0.078,1.658,0.236c0.473,0,0.869,0.158,1.186,0.475
			c0.314,0,0.709,0.314,1.184,0.947c0.473,0.475,0.869,1.027,1.184,1.658c0.158,0.316,0.475,1.264,0.949,2.843h0.236h0.236
			c0.316-0.158,0.633-0.236,0.949-0.236c0.631-0.315,1.42-0.474,2.369-0.474c0.314-0.158,0.711-0.236,1.184-0.236l0.475-0.238
			c0.158-0.158,0.236-0.314,0.236-0.473c0.158-0.158,0.236-0.316,0.236-0.475c0.315-0.475,0.553-1.184,0.711-2.133
			c0-0.314,0.08-0.631,0.237-0.947c0.158-0.316,0.236-0.631,0.236-0.947c0-0.475-0.078-0.791-0.236-0.949
			c-0.157-0.156-0.237-0.395-0.237-0.711c-0.158-0.156-0.314-0.314-0.474-0.473c-0.157-0.475-0.633-1.027-1.422-1.658v-0.475H44.022
			z M39.048,80.098h-0.236c-0.158,0-0.633,0.238-1.422,0.711c-0.158,0.158-0.633,0.396-1.422,0.711
			c-0.633,0.316-1.186,0.634-1.658,0.949c-0.475,0.158-1.027,0.396-1.658,0.709c-0.791,0.476-1.422,0.791-1.896,0.949
			c-0.631,0.158-0.789,0.236-0.473,0.236c-0.949,0.315-1.502,0.475-1.66,0.475l-0.711,0.473c-0.314,0.158-0.711,0.476-1.184,0.949
			v0.474l0.947,0.946h0.236c0.158,0,0.396-0.078,0.711-0.235c0.316-0.158,0.553-0.236,0.711-0.236
			c0.316-0.316,0.947-0.553,1.896-0.711c-0.475,0-0.316-0.078,0.473-0.236c0.316-0.158,0.949-0.396,1.896-0.711
			c0.316-0.158,0.631-0.315,0.947-0.475s0.711-0.316,1.186-0.476c1.105-0.473,2.053-0.866,2.842-1.184L39.048,80.098z M36.44,67.541
			c-0.473,0-0.947,0.158-1.42,0.473c-0.158,0-0.395,0-0.711,0c-0.316,0.158-0.553,0.238-0.711,0.238
			c-0.475-0.158-1.027,0-1.658,0.473L31.702,69.2c-0.158,0.158-0.236,0.395-0.236,0.711l0.236,0.947
			c0.158,0.157,0.238,0.315,0.238,0.475c0,0.316,0.078,0.553,0.236,0.711c0.158,0.158,0.236,0.395,0.236,0.711
			c0.158,0.316,0.238,0.553,0.238,0.711c0.158,0.473,0.236,1.105,0.236,1.896c0,0.791,0.158,1.737,0.475,2.844h0.236
			c0.158,0,0.316-0.078,0.475-0.236h0.236c0.316-0.315,0.631-0.475,0.947-0.475c0-0.158,0.158-0.316,0.475-0.476
			c0.314,0,0.473-0.077,0.473-0.235s0.158-0.396,0.475-0.711c0.314-0.158,0.473-0.316,0.473-0.476
			c0.316-0.473,0.791-1.024,1.422-1.658H37.39c-0.316,0-0.633-0.077-0.949-0.235c-0.473,0-0.867,0-1.184,0
			c-0.947-0.316-1.736-0.553-2.369-0.711v-0.476l0.711-0.473c0.473-0.475,1.105-0.789,1.895-0.947
			c0.791-0.475,1.422-0.711,1.896-0.711c0.473-0.315,1.025-0.553,1.658-0.711V69.2l-0.475-0.476
			c-0.158-0.156-0.395-0.395-0.711-0.71c-0.316-0.314-0.553-0.551-0.711-0.709L36.44,67.541z M42.839,57.826h-0.475
			c-0.158,0-0.631,0.08-1.422,0.236c-0.631,0-1.184,0.158-1.658,0.475c-0.473,0-0.789,0.158-0.947,0.475
			c-0.158,0-0.236,0.078-0.236,0.236c0-0.158-0.08,0-0.238,0.475c-0.158,0.158-0.236,0.314-0.236,0.473
			c-0.158,0.316-0.236,0.553-0.236,0.711c-0.158,0.475-0.396,0.947-0.711,1.422c-0.158,0.475-0.396,1.027-0.711,1.658
			c-0.158,0.316-0.236,0.949-0.236,1.896l1.184-0.475c0.789-0.473,1.422-0.711,1.896-0.711c0.473-0.316,0.867-0.553,1.184-0.711
			c0.316-0.473,0.711-0.947,1.186-1.422c0.473-0.789,0.867-1.422,1.184-1.895c0.158-0.316,0.316-0.711,0.475-1.186
			c0.158-0.473,0.316-0.867,0.475-1.184L42.839,57.826z M49.946,65.408h-0.711c-0.474,0-1.105,0.08-1.896,0.236
			c-0.791,0-1.58,0.158-2.369,0.475c-0.475,0-1.264,0.158-2.369,0.475c0.156,0-0.08,0.078-0.711,0.236l0.473,0.236
			c0.316,0,0.553,0.158,0.711,0.475c0.158,0,0.315,0.158,0.475,0.473c0,0.316,0.078,0.555,0.236,0.71h0.947l0.711,0.476
			c0.475,0.158,0.869,0.475,1.186,0.946v0.949l-0.236,0.236c-0.157,0-0.396,0.158-0.711,0.473c-0.315,0-0.711,0.158-1.186,0.476
			c-0.475,0-0.789,0.157-0.947,0.475c-0.158,0-0.316,0.396-0.475,1.184c0,0.476-0.078,0.949-0.236,1.423h2.369l0.475,0.475
			c0.156,0.158,0.396,0.316,0.711,0.473c0.314,0.158,0.554,0.316,0.712,0.476v-1.187c0-0.946,0.077-1.5,0.235-1.658
			c0.314-0.473,0.553-0.946,0.711-1.422c0.314-0.789,0.711-1.657,1.185-2.604c0.157-0.476,0.315-1.027,0.475-1.658
			c0.316-0.475,0.475-0.789,0.475-0.947c0.156-0.791,0.236-1.264,0.236-1.422L49.946,65.408z M44.497,84.6
			c-0.631,0-1.342,0.238-2.133,0.711l-0.473,3.791l1.422-0.235c0.631-0.158,1.895-0.236,3.792-0.236v-0.238
			c0-0.313-0.158-0.711-0.476-1.184c-0.158-0.633-0.475-1.58-0.947-2.844L44.497,84.6z"/>
	</g>
</g>
</svg>
