<?xml version="1.0" encoding="utf-8"?>
<!-- Generator: Adobe Illustrator 12.0.0, SVG Export Plug-In . SVG Version: 6.00 Build 51448)  -->
<!DOCTYPE svg PUBLIC "-//W3C//DTD SVG 1.1//EN" "http://www.w3.org/Graphics/SVG/1.1/DTD/svg11.dtd" [
	<!ENTITY ns_flows "http://ns.adobe.com/Flows/1.0/">
	<!ENTITY ns_extend "http://ns.adobe.com/Extensibility/1.0/">
	<!ENTITY ns_ai "http://ns.adobe.com/AdobeIllustrator/10.0/">
	<!ENTITY ns_graphs "http://ns.adobe.com/Graphs/1.0/">
	<!ENTITY ns_vars "http://ns.adobe.com/Variables/1.0/">
	<!ENTITY ns_imrep "http://ns.adobe.com/ImageReplacement/1.0/">
	<!ENTITY ns_sfw "http://ns.adobe.com/SaveForWeb/1.0/">
	<!ENTITY ns_custom "http://ns.adobe.com/GenericCustomNamespace/1.0/">
	<!ENTITY ns_adobe_xpath "http://ns.adobe.com/XPath/1.0/">
	<!ENTITY ns_svg "http://www.w3.org/2000/svg">
	<!ENTITY ns_xlink "http://www.w3.org/1999/xlink">
]>
<svg  version="1.1"
	 xmlns:x="&ns_extend;" xmlns:i="&ns_ai;" xmlns:graph="&ns_graphs;" i:viewOrigin="-0.3193 135.7061" i:rulerOrigin="0 0" i:pageBounds="0 136 85 0"
	 xmlns="&ns_svg;" xmlns:xlink="&ns_xlink;" xmlns:a="http://ns.adobe.com/AdobeSVGViewerExtensions/3.0/"
	 width="85.678" height="136.025" viewBox="0 0 85.678 136.025" overflow="visible" enable-background="new 0 0 85.678 136.025"
	 xml:space="preserve">
<metadata>
	<variableSets  xmlns="http://ns.adobe.com/Variables/1.0/">
		<variableSet  varSetName="binding1" locked="none">
			<variables></variables>
			<v:sampleDataSets  xmlns="http://ns.adobe.com/GenericCustomNamespace/1.0/" xmlns:v="http://ns.adobe.com/Variables/1.0/">
				</v:sampleDataSets>
		</variableSet>
	</variableSets>
</metadata>
<g id="图层_1" i:knockout="Off" i:layer="yes" i:dimmedPercent="50" i:rgbTrio="#4F008000FFFF">
	<g i:knockout="Off">
		<path fill="#333333" d="M2.274,99.465v24.962c0,5.149,3.353,9.325,7.481,9.325h68.118c4.133,0,7.484-4.176,7.484-9.325h-0.002
			V9.216c0-4.344-3.353-7.869-7.482-7.869H9.756c-4.131,0-7.481,3.525-7.481,7.869H2.272v90.229
			C2.272,99.45,2.274,99.458,2.274,99.465z"/>
		
			<linearGradient id="XMLID_3_" gradientUnits="userSpaceOnUse" x1="-22.6704" y1="112.9883" x2="-22.6704" y2="-12.5781" gradientTransform="matrix(1 0 0 1 64.5342 22.7178)">
			<stop  offset="0.0899" style="stop-color:#2089B9"/>
			<stop  offset="0.0985" style="stop-color:#4FA3C2"/>
			<stop  offset="0.1071" style="stop-color:#77B9CA"/>
			<stop  offset="0.1138" style="stop-color:#8FC7CF"/>
			<stop  offset="0.118" style="stop-color:#98CCD1"/>
			<stop  offset="0.1341" style="stop-color:#9ECFD3"/>
			<stop  offset="0.156" style="stop-color:#AFD6D9"/>
			<stop  offset="0.1809" style="stop-color:#CBE1E3"/>
			<stop  offset="0.1966" style="stop-color:#E1EAEB"/>
			<a:midPointStop  offset="0.0899" style="stop-color:#2089B9"/>
			<a:midPointStop  offset="0.5" style="stop-color:#2089B9"/>
			<a:midPointStop  offset="0.0985" style="stop-color:#4FA3C2"/>
			<a:midPointStop  offset="0.5" style="stop-color:#4FA3C2"/>
			<a:midPointStop  offset="0.1071" style="stop-color:#77B9CA"/>
			<a:midPointStop  offset="0.5" style="stop-color:#77B9CA"/>
			<a:midPointStop  offset="0.1138" style="stop-color:#8FC7CF"/>
			<a:midPointStop  offset="0.5" style="stop-color:#8FC7CF"/>
			<a:midPointStop  offset="0.118" style="stop-color:#98CCD1"/>
			<a:midPointStop  offset="0.5" style="stop-color:#98CCD1"/>
			<a:midPointStop  offset="0.1341" style="stop-color:#9ECFD3"/>
			<a:midPointStop  offset="0.5" style="stop-color:#9ECFD3"/>
			<a:midPointStop  offset="0.156" style="stop-color:#AFD6D9"/>
			<a:midPointStop  offset="0.5" style="stop-color:#AFD6D9"/>
			<a:midPointStop  offset="0.1809" style="stop-color:#CBE1E3"/>
			<a:midPointStop  offset="0.5" style="stop-color:#CBE1E3"/>
			<a:midPointStop  offset="0.1966" style="stop-color:#E1EAEB"/>
		</linearGradient>
		<path fill="url(#XMLID_3_)" d="M83.405,126.381c0,5.15-3.353,9.325-7.48,9.325H7.804c-4.131,0-7.482-4.177-7.482-9.325V19.465
			c0-5.148,3.354-9.326,7.482-9.326h68.117c4.133,0,7.482,4.176,7.482,9.326v106.916H83.405z"/>
		<path fill="none" stroke="#333333" stroke-width="0.977" d="M83.405,126.381c0,5.15-3.353,9.325-7.48,9.325H7.804
			c-4.131,0-7.482-4.177-7.482-9.325V19.465c0-5.148,3.354-9.326,7.482-9.326h68.117c4.133,0,7.482,4.176,7.482,9.326v106.916
			H83.405z"/>
		<path fill="#FFFFFF" d="M0.32,11.17c0-4.344,3.354-7.869,7.482-7.869H75.92c4.133,0,7.482,3.523,7.482,7.869v90.229
			c0,4.346-3.353,7.868-7.482,7.868H7.802c-4.131,0-7.482-3.522-7.482-7.87V11.17L0.32,11.17z"/>
		
			<linearGradient id="XMLID_4_" gradientUnits="userSpaceOnUse" x1="4.0215" y1="80.7666" x2="86.165" y2="80.7666" gradientTransform="matrix(-1 0 0 -1 86.9551 137.0508)">
			<stop  offset="0" style="stop-color:#A2D8E0"/>
			<stop  offset="0.0899" style="stop-color:#1878AD"/>
			<stop  offset="0.2135" style="stop-color:#194D91"/>
			<stop  offset="0.6404" style="stop-color:#2B90BD"/>
			<stop  offset="0.9438" style="stop-color:#82CBDE"/>
			<stop  offset="1" style="stop-color:#1A478D"/>
			<a:midPointStop  offset="0" style="stop-color:#A2D8E0"/>
			<a:midPointStop  offset="0.5" style="stop-color:#A2D8E0"/>
			<a:midPointStop  offset="0.0899" style="stop-color:#1878AD"/>
			<a:midPointStop  offset="0.5" style="stop-color:#1878AD"/>
			<a:midPointStop  offset="0.2135" style="stop-color:#194D91"/>
			<a:midPointStop  offset="0.5" style="stop-color:#194D91"/>
			<a:midPointStop  offset="0.6404" style="stop-color:#2B90BD"/>
			<a:midPointStop  offset="0.5" style="stop-color:#2B90BD"/>
			<a:midPointStop  offset="0.9438" style="stop-color:#82CBDE"/>
			<a:midPointStop  offset="0.5" style="stop-color:#82CBDE"/>
			<a:midPointStop  offset="1" style="stop-color:#1A478D"/>
		</linearGradient>
		<path i:isolated="yes" i:knockout="Off" opacity="0.1" fill="url(#XMLID_4_)" enable-background="new    " d="M0.79,11.17
			c0-4.344,3.313-7.869,7.397-7.869h67.347c4.086,0,7.399,3.523,7.399,7.869v90.229c0,4.346-3.313,7.868-7.399,7.868H8.188
			c-4.084,0-7.397-3.522-7.397-7.87L0.79,11.17L0.79,11.17z"/>
		<path fill="none" stroke="#4D4D4D" stroke-width="0.977" d="M0.32,101.419v24.962c0,5.148,3.353,9.325,7.482,9.325h68.12
			c4.131,0,7.48-4.175,7.48-9.325V11.171c0-4.346-3.353-7.869-7.482-7.869H7.803c-4.13,0-7.482,3.525-7.482,7.869L0.32,101.399
			C0.319,101.404,0.32,101.411,0.32,101.419z"/>
	</g>
	<g i:knockout="Off">
		<g i:knockout="Off">
			<path fill="#333333" d="M39.413,15.136c-3.309,0-6.617,0.275-9.928,0.828c-2.205,0.551-3.584,0.551-4.135,0
				c-1.104-0.414-0.553-1.654,1.654-3.723c1.654-1.24,3.447-1.516,5.377-0.828c0.826,0.277,1.723,0.414,2.688,0.414
				c6.895,0,14.27,0,22.127,0c0.828,0,1.653,0.414,2.481,1.24c0.826,1.242,0.688,1.932-0.414,2.068c-3.446,0-7.444,0-11.993,0
				c-0.414,0-0.689,0.139-0.826,0.414c-0.14,0.275-0.277,0.621-0.414,1.033c-0.275,1.242-0.828,2.826-1.654,4.756
				c0.137,0.277,0.414,0.414,0.826,0.414c1.518,0,3.172,0,4.963,0c0.414,0,0.76-0.068,1.035-0.207
				c0.688-0.412,1.584-0.344,2.688,0.207c1.654,0.689,2.138,2.414,1.447,5.17c-0.414,3.447-0.619,5.309-0.619,5.584
				c0,0.551,0.138,0.826,0.412,0.826c0.828,0,1.93,0.07,3.31,0.207c3.584,0,6.479,0.139,8.686,0.414
				c0.828-0.139,1.172,0.207,1.035,1.033c-0.277,2.896-1.726,4.826-4.344,5.791c-1.24,0.551-2.688,0.551-4.343,0
				c-6.893-2.068-13.026-3.172-18.404-3.309c-5.377-0.139-9.236-0.068-11.582,0.207c-2.344,0.275-5.1,0.895-8.27,1.859
				c-1.654,0.553-2.758,0.553-3.309,0c-0.553-0.688-0.553-1.652,0-2.895c1.791-2.48,3.721-3.516,5.789-3.102
				c0.551,0.139,1.24,0.207,2.068,0.207c2.48,0,4.688-0.139,6.617-0.414c0.689,0,1.24-0.414,1.654-1.24
				c0.275-0.414,0.619-0.965,1.033-1.654c0.828-1.516,1.311-2.48,1.447-2.895c0.689-1.379,0.689-2.344,0-2.896
				c-1.24,0-2.48,0.277-3.721,0.828c-1.654,0.551-3.035,0.551-4.137,0c-0.828-0.828-0.414-1.93,1.24-3.309
				c1.793-1.24,3.104-1.586,3.93-1.033c0.275,0.412,1.723,0.482,4.342,0.205c0.553,0,0.828-0.137,0.828-0.412
				c0.826-2.068,1.24-3.723,1.24-4.963C40.239,15.411,39.964,15.136,39.413,15.136z M50.165,32.093
				c0.139-0.689,0.277-1.516,0.414-2.482c0-0.688,0-1.791,0-3.309c0-1.102-0.551-1.654-1.654-1.654c-2.067,0-3.723,0-4.963,0
				c-0.414,0-0.689,0.139-0.826,0.414c-1.104,2.344-2.275,4.688-3.516,7.031c-0.277,0.414-0.346,0.758-0.207,1.033
				c0.137,0.139,0.482,0.207,1.033,0.207c2.758,0,5.445,0,8.064,0C49.476,33.196,50.028,32.782,50.165,32.093z"/>
		</g>
		<path fill="#D90000" d="M44.024,47.401c0.791,0,1.502,0.08,2.133,0.236c0.633,0,1.264,0.238,1.896,0.711
			c0.789,0.158,1.263,0.475,1.42,0.949c0.316,0.158,0.554,0.473,0.711,0.947c0.158,0.158,0.238,0.395,0.238,0.711l-0.238,0.711
			c-0.157,0.316-0.395,0.711-0.711,1.184c-0.157,0.475-0.395,0.949-0.711,1.422c-0.157,0.316-0.235,0.711-0.235,1.186l0.946-0.238
			c0.634-0.314,0.791-0.395,0.476-0.236c0.315-0.158,0.711-0.236,1.186-0.236c0.474-0.316,0.947-0.475,1.42-0.475
			c0.476-0.158,0.869-0.236,1.187-0.236c0.316,0,0.631,0.078,0.947,0.236c0.157,0,0.395,0.158,0.711,0.475
			c0.315,0.158,0.553,0.316,0.711,0.473l0.235,0.238c0.633,0.316,1.187,0.789,1.66,1.422v0.473H57.53
			c-0.158,0-0.869,0.08-2.133,0.237c-1.105,0-2.054,0.158-2.845,0.473c-0.789,0-1.657,0.158-2.604,0.475c-0.316,0-0.711,0-1.187,0
			c-0.631,0.158-1.184,0.236-1.657,0.236l-0.474,0.475c-0.315,0.158-0.711,0.631-1.186,1.422c-0.158,0.158-0.396,0.395-0.711,0.711
			c-0.316,0.473-0.554,0.789-0.711,0.947c-0.474,0.475-0.87,1.027-1.185,1.658h0.236h0.475c0.314-0.158,0.631-0.236,0.947-0.236
			c0.789-0.316,1.816-0.475,3.08-0.475c1.264-0.158,2.211-0.236,2.844-0.236c0.631,0,1.185,0.078,1.658,0.236
			c0.158,0,0.553,0.158,1.184,0.475c0.158,0.158,0.316,0.316,0.476,0.473c0.789,0.475,1.264,0.949,1.422,1.422
			c0.315,0.475,0.553,0.949,0.711,1.422c0.158,0.316,0.236,0.711,0.236,1.186l-0.711,0.947c-0.474,0.475-0.947,1.186-1.423,2.133
			c-0.473,0.631-0.946,1.422-1.422,2.369c-0.473,0.631-0.867,1.342-1.184,2.133c-0.316,0.631-1.105,1.58-2.369,2.844h-0.475
			l-1.423-1.422l-0.473,0.236c-0.315,0-0.633,0.158-0.949,0.475c-0.157,0-0.395,0.078-0.711,0.236
			c-0.313,0.158-0.553,0.236-0.709,0.236c-0.633,0-1.027,0.157-1.186,0.475c-0.158,0-0.316,0.475-0.475,1.422
			c0,0.789-0.078,1.5-0.236,2.133l0.947-0.237c0.633-0.314,1.738-0.554,3.318-0.711c1.578-0.474,3.08-0.712,4.502-0.712
			c1.42-0.155,2.685-0.235,3.791-0.235c0.473,0,1.105-0.078,1.896-0.236h0.235c0.316-0.158,0.711-0.238,1.187-0.238
			c0.473,0,0.946,0.08,1.422,0.238c0.158,0,0.553,0.158,1.184,0.473c0.158,0.158,0.316,0.316,0.476,0.476
			c0.789,0.475,1.264,0.947,1.422,1.422c0.158,0.158,0.315,0.316,0.475,0.473c0,0.316,0.078,0.556,0.236,0.711
			c0.158,0.158,0.236,0.476,0.236,0.949l-0.236,0.236c-0.158,0-0.396,0.395-0.711,1.186c-0.316,0.474-0.633,1.343-0.947,2.605
			c0,0.315-0.158,0.789-0.475,1.422c-0.316,0.789-0.476,1.342-0.476,1.658c-0.313,0.946-0.711,1.896-1.184,2.844
			c-0.476,0.789-0.949,1.5-1.422,2.133c-0.158,0.156-0.316,0.396-0.476,0.711c-0.157,0.314-0.553,0.867-1.184,1.658
			c-0.316,0.314-0.633,0.711-0.947,1.184c-0.315,0.316-0.555,0.554-0.711,0.712c-0.158,0.157-0.396,0.395-0.711,0.711l-0.475,0.237
			c-0.158,0.156-0.634,0.236-1.422,0.236l-0.712-0.947c-0.157-0.315-0.395-0.633-0.711-0.949c-0.315-0.315-0.553-0.631-0.711-0.946
			c-0.157-0.316-0.395-0.633-0.711-0.947c-0.313-0.316-0.553-0.633-0.711-0.947c-0.473-0.633-1.024-1.186-1.658-1.66h0.712
			c0.475,0,1.264,0,2.368,0c1.105,0.158,1.896,0.238,2.369,0.238c0.476,0,0.869-0.08,1.187-0.238h0.235
			c0.316-0.155,0.554-0.313,0.711-0.473c0.316-0.475,0.396-0.553,0.238-0.238c0.156-0.313,0.396-0.946,0.711-1.895
			c0-0.158,0.078-0.553,0.236-1.187c0.313-0.946,0.553-1.735,0.711-2.368c0.313-1.423,0.553-2.605,0.711-3.554
			s0.236-1.737,0.236-2.371l-0.476-0.473h-2.131c-1.422,0-2.766,0.078-4.029,0.236c-0.789,0-2.053,0.237-3.791,0.711l0.476,0.475
			c0.315,0.316,0.789,0.711,1.422,1.185c0.631,0.475,1.184,1.026,1.658,1.657c0.315,0.316,0.553,0.711,0.711,1.187
			c0-0.316,0.078-0.158,0.235,0.475c0.158,0.474,0.238,0.947,0.238,1.42c0,0.316-0.08,0.713-0.238,1.187l-0.235,0.235
			c-0.158,0.316-0.316,0.554-0.476,0.712h-0.235c-0.158,0-0.236-0.078-0.236-0.236c-0.158,0-0.316,0-0.475,0l-0.236-0.236
			c-0.316-0.315-0.711-0.791-1.186-1.422l-1.423,0.236c-0.946,0-1.895,0.158-2.842,0.475c-0.949,0-2.055,0.314-3.318,0.947
			c-1.264,0.475-2.369,0.947-3.316,1.422c-0.316,0.158-0.633,0.316-0.947,0.473c-0.316,0.158-0.633,0.316-0.949,0.476h-0.236
			c-0.158,0.157-0.316,0.235-0.475,0.235H34.78c-0.316-0.155-0.553-0.235-0.711-0.235c-0.475-0.316-0.869-0.554-1.186-0.711
			c-0.158-0.158-0.236-0.396-0.236-0.711c-0.158-0.158-0.316-0.314-0.475-0.474c-0.158-0.475-0.236-0.869-0.236-1.186l0.475-0.476
			l0.711,0.238c0.156,0,0.395,0.078,0.711,0.236h0.236c0.158,0,0.314-0.078,0.473-0.236c0.316-0.158,0.555-0.238,0.713-0.238
			c0.631-0.473,1.184-0.789,1.658-0.946c0.473-0.474,0.789-0.711,0.947-0.711c0.158-0.158,0.236-0.314,0.236-0.474l0.238-0.237
			c0.158-0.158,0.236-1.105,0.236-2.843l-0.711,0.236c-0.475,0-1.105,0.236-1.895,0.711c-0.316,0.158-0.791,0.316-1.424,0.473
			c-0.631,0.316-1.105,0.556-1.42,0.711c-0.158,0.158-0.475,0.316-0.949,0.476c-1.105,0.315-2.133,0.711-3.08,1.186l0.475,1.42
			c0.316,0.949,0.553,1.896,0.711,2.845c0.158,0.475,0.236,1.58,0.236,3.317l-0.473,0.474v0.946l-0.711-0.946
			c-0.158-0.158-0.396-0.396-0.711-0.711c-0.158-0.474-0.316-0.789-0.475-0.947c-0.158-0.316-0.395-0.553-0.711-0.711
			c-0.158-0.474-0.236-0.869-0.236-1.187c0-0.473-0.08-0.946-0.238-1.42c0-0.158-0.078-0.315-0.236-0.475
			c-0.158-0.476-0.316-0.869-0.473-1.187h-0.238c-0.158,0-0.395,0.08-0.711,0.238c-0.158,0-0.475,0.236-0.947,0.711H24.12
			c-0.158,0-0.236-0.08-0.236-0.238c-0.158,0-0.316,0-0.473,0l-0.238-0.235c-0.314-0.316-0.711-0.789-1.184-1.422v-0.947
			l0.475-0.475l0.473,0.475h0.475h0.473c0.316-0.158,0.553-0.236,0.711-0.236c0.158-0.158,0.395-0.315,0.711-0.475
			c0.158,0,0.316-0.078,0.475-0.236V87.68c0-0.789,0.078-1.262,0.236-1.42c0.158-0.475,0.475-0.791,0.947-0.949
			c0.158-0.157,0.633-0.473,1.422-0.946c0.316,0,0.553-0.078,0.711-0.236c0.947-0.475,1.816-0.947,2.607-1.422
			c0.631-0.475,1.5-1.027,2.605-1.658l-0.473-0.238c-0.158-0.313-0.396-0.473-0.711-0.473c-0.158-0.158-0.396-0.475-0.711-0.949
			c0-0.155-0.08-0.313-0.238-0.473c-0.158-0.159-0.395-0.633-0.711-1.422c0-0.316-0.158-0.789-0.473-1.422
			c-0.316-0.631-0.475-1.105-0.475-1.422c-0.158-0.632-0.395-1.343-0.711-2.134l-0.236-0.235c-0.158-0.474-0.395-0.947-0.711-1.422
			c-0.158-0.474-0.236-0.867-0.236-1.185c0-0.475,0.078-0.791,0.236-0.949l0.236-0.236c0-0.316,0.158-0.553,0.475-0.711h0.475
			l0.947,0.947l0.236-0.236c0.158-0.158,0.553-0.473,1.186-0.947c0.156,0,0.314-0.078,0.473-0.236
			c0.633-0.633,1.422-1.105,2.371-1.422v-0.475l-0.475-0.711c-0.158-0.473-0.475-1.342-0.947-2.605h-0.238
			c-0.158,0-0.631,0.236-1.422,0.711c-0.316,0.158-0.631,0.314-0.947,0.473c-0.475,0.316-0.869,0.553-1.184,0.711
			c-0.475,0.158-0.949,0.475-1.422,0.947h-0.238c-0.158,0-0.236-0.078-0.236-0.236c-0.158,0-0.316,0-0.475,0l-0.473-0.236
			c-0.316-0.316-0.553-0.553-0.711-0.711c-0.475-0.475-0.791-0.947-0.947-1.422c-0.158-0.475-0.238-1.027-0.238-1.658l0.475-0.475
			l0.947,0.236c0.316,0,0.711,0.08,1.186,0.238h0.236h0.475c0.473-0.158,0.867-0.238,1.184-0.238
			c0.791-0.314,1.422-0.473,1.896-0.473c0.473-0.316,1.025-0.553,1.658-0.711V57.59c0-1.106-0.08-1.896-0.236-2.37
			c-0.158-0.473-0.396-0.947-0.711-1.422c-0.158-0.473-0.633-1.025-1.422-1.658v-0.473h0.947c0.633,0,1.186,0.078,1.658,0.236
			c0.475,0,0.869,0.158,1.186,0.475c0.316,0,0.711,0.314,1.186,0.947c0.473,0.475,0.867,1.027,1.184,1.658
			c0.158,0.316,0.475,1.264,0.947,2.843h0.238h0.236c0.316-0.158,0.631-0.236,0.947-0.236c0.633-0.315,1.422-0.474,2.369-0.474
			c0.316-0.158,0.711-0.236,1.186-0.236l0.475-0.238c0.156-0.158,0.236-0.314,0.236-0.473c0.158-0.158,0.236-0.316,0.236-0.475
			c0.315-0.475,0.553-1.184,0.711-2.133c0-0.314,0.078-0.631,0.235-0.947c0.158-0.316,0.238-0.631,0.238-0.947
			c0-0.475-0.08-0.791-0.238-0.949c-0.157-0.156-0.235-0.395-0.235-0.711c-0.158-0.156-0.316-0.314-0.474-0.473
			c-0.157-0.475-0.633-1.027-1.422-1.658v-0.475H44.024z M39.05,80.098h-0.238c-0.158,0-0.631,0.238-1.422,0.711
			c-0.158,0.158-0.631,0.396-1.42,0.711c-0.633,0.316-1.186,0.634-1.66,0.949c-0.475,0.158-1.027,0.396-1.658,0.709
			c-0.791,0.476-1.422,0.791-1.896,0.949c-0.631,0.158-0.789,0.236-0.473,0.236c-0.949,0.315-1.502,0.475-1.658,0.475l-0.711,0.473
			c-0.316,0.158-0.711,0.476-1.186,0.949v0.474l0.947,0.946h0.238c0.158,0,0.395-0.078,0.711-0.235
			c0.314-0.158,0.553-0.236,0.711-0.236c0.314-0.316,0.947-0.553,1.895-0.711c-0.475,0-0.316-0.078,0.475-0.236
			c0.314-0.158,0.947-0.396,1.895-0.711c0.316-0.158,0.633-0.315,0.947-0.475c0.316-0.158,0.713-0.316,1.186-0.476
			c1.105-0.473,2.055-0.866,2.844-1.184L39.05,80.098z M36.442,67.541c-0.473,0-0.947,0.158-1.422,0.473c-0.158,0-0.395,0-0.711,0
			c-0.316,0.158-0.553,0.238-0.711,0.238c-0.473-0.158-1.025,0-1.658,0.473L31.704,69.2c-0.158,0.158-0.238,0.395-0.238,0.711
			l0.238,0.947c0.158,0.157,0.236,0.315,0.236,0.475c0,0.316,0.078,0.553,0.236,0.711c0.158,0.158,0.238,0.395,0.238,0.711
			c0.156,0.316,0.236,0.553,0.236,0.711c0.158,0.473,0.236,1.105,0.236,1.896c0,0.791,0.158,1.737,0.475,2.844h0.236
			c0.158,0,0.316-0.078,0.475-0.236h0.236c0.316-0.315,0.633-0.475,0.949-0.475c0-0.158,0.156-0.316,0.473-0.476
			c0.316,0,0.475-0.077,0.475-0.235s0.158-0.396,0.475-0.711c0.314-0.158,0.473-0.316,0.473-0.476
			c0.316-0.473,0.791-1.024,1.422-1.658H37.39c-0.314,0-0.631-0.077-0.947-0.235c-0.473,0-0.869,0-1.184,0
			c-0.949-0.316-1.738-0.553-2.371-0.711v-0.476l0.711-0.473c0.475-0.475,1.105-0.789,1.896-0.947
			c0.789-0.475,1.422-0.711,1.895-0.711c0.475-0.315,1.027-0.553,1.66-0.711V69.2l-0.475-0.476c-0.158-0.156-0.395-0.395-0.711-0.71
			c-0.316-0.314-0.553-0.551-0.711-0.709L36.442,67.541z M42.841,57.826h-0.475c-0.158,0-0.633,0.08-1.422,0.236
			c-0.631,0-1.186,0.158-1.658,0.475c-0.475,0-0.789,0.158-0.947,0.475c-0.158,0-0.238,0.078-0.238,0.236
			c0-0.158-0.078,0-0.236,0.475c-0.158,0.158-0.236,0.314-0.236,0.473c-0.158,0.316-0.238,0.553-0.238,0.711
			c-0.158,0.475-0.395,0.947-0.709,1.422c-0.158,0.475-0.396,1.027-0.711,1.658c-0.158,0.316-0.238,0.949-0.238,1.896l1.186-0.475
			c0.789-0.473,1.422-0.711,1.895-0.711c0.475-0.316,0.869-0.553,1.186-0.711c0.316-0.473,0.711-0.947,1.184-1.422
			c0.475-0.789,0.869-1.422,1.186-1.895c0.158-0.316,0.316-0.711,0.475-1.186c0.156-0.473,0.314-0.867,0.473-1.184L42.841,57.826z
			 M49.948,65.408h-0.711c-0.476,0-1.105,0.08-1.896,0.236c-0.791,0-1.58,0.158-2.371,0.475c-0.473,0-1.264,0.158-2.369,0.475
			c0.158,0-0.078,0.078-0.711,0.236l0.475,0.236c0.316,0,0.553,0.158,0.711,0.475c0.158,0,0.315,0.158,0.475,0.473
			c0,0.316,0.078,0.555,0.236,0.71h0.947l0.711,0.476c0.475,0.158,0.869,0.475,1.186,0.946v0.949l-0.238,0.236
			c-0.157,0-0.395,0.158-0.711,0.473c-0.313,0-0.711,0.158-1.184,0.476c-0.475,0-0.791,0.157-0.947,0.475
			c-0.158,0-0.316,0.396-0.475,1.184c0,0.476-0.08,0.949-0.236,1.423h2.369l0.473,0.475c0.158,0.158,0.396,0.316,0.711,0.473
			c0.316,0.158,0.554,0.316,0.712,0.476v-1.187c0-0.946,0.079-1.5,0.237-1.658c0.314-0.473,0.554-0.946,0.711-1.422
			c0.314-0.789,0.709-1.657,1.185-2.604c0.158-0.476,0.315-1.027,0.475-1.658c0.314-0.475,0.473-0.789,0.473-0.947
			c0.158-0.791,0.238-1.264,0.238-1.422L49.948,65.408z M44.499,84.6c-0.633,0-1.344,0.238-2.133,0.711l-0.475,3.791l1.422-0.235
			c0.633-0.158,1.896-0.236,3.792-0.236v-0.238c0-0.313-0.158-0.711-0.474-1.184c-0.158-0.633-0.475-1.58-0.949-2.844L44.499,84.6z"
			/>
	</g>
</g>
</svg>
