<?xml version="1.0" encoding="utf-8"?>
<!-- Generator: Adobe Illustrator 12.0.0, SVG Export Plug-In . SVG Version: 6.00 Build 51448)  -->
<!DOCTYPE svg PUBLIC "-//W3C//DTD SVG 1.1//EN" "http://www.w3.org/Graphics/SVG/1.1/DTD/svg11.dtd" [
	<!ENTITY ns_flows "http://ns.adobe.com/Flows/1.0/">
	<!ENTITY ns_extend "http://ns.adobe.com/Extensibility/1.0/">
	<!ENTITY ns_ai "http://ns.adobe.com/AdobeIllustrator/10.0/">
	<!ENTITY ns_graphs "http://ns.adobe.com/Graphs/1.0/">
	<!ENTITY ns_vars "http://ns.adobe.com/Variables/1.0/">
	<!ENTITY ns_imrep "http://ns.adobe.com/ImageReplacement/1.0/">
	<!ENTITY ns_sfw "http://ns.adobe.com/SaveForWeb/1.0/">
	<!ENTITY ns_custom "http://ns.adobe.com/GenericCustomNamespace/1.0/">
	<!ENTITY ns_adobe_xpath "http://ns.adobe.com/XPath/1.0/">
	<!ENTITY ns_svg "http://www.w3.org/2000/svg">
	<!ENTITY ns_xlink "http://www.w3.org/1999/xlink">
]>
<svg  version="1.1"
	 xmlns:x="&ns_extend;" xmlns:i="&ns_ai;" xmlns:graph="&ns_graphs;" i:viewOrigin="-0.3193 135.7061" i:rulerOrigin="0 0" i:pageBounds="0 136 85 0"
	 xmlns="&ns_svg;" xmlns:xlink="&ns_xlink;" xmlns:a="http://ns.adobe.com/AdobeSVGViewerExtensions/3.0/"
	 width="85.678" height="136.025" viewBox="0 0 85.678 136.025" overflow="visible" enable-background="new 0 0 85.678 136.025"
	 xml:space="preserve">
<metadata>
	<variableSets  xmlns="http://ns.adobe.com/Variables/1.0/">
		<variableSet  varSetName="binding1" locked="none">
			<variables></variables>
			<v:sampleDataSets  xmlns="http://ns.adobe.com/GenericCustomNamespace/1.0/" xmlns:v="http://ns.adobe.com/Variables/1.0/">
				</v:sampleDataSets>
		</variableSet>
	</variableSets>
</metadata>
<g id="图层_1" i:knockout="Off" i:layer="yes" i:dimmedPercent="50" i:rgbTrio="#4F008000FFFF">
	<g i:knockout="Off">
		<path fill="#333333" d="M2.274,99.465v24.962c0,5.149,3.353,9.325,7.481,9.325h68.118c4.133,0,7.484-4.176,7.484-9.325h-0.002
			V9.216c0-4.344-3.353-7.869-7.482-7.869H9.756c-4.131,0-7.481,3.525-7.481,7.869H2.272v90.229
			C2.272,99.45,2.274,99.458,2.274,99.465z"/>
		
			<linearGradient id="XMLID_3_" gradientUnits="userSpaceOnUse" x1="-22.6704" y1="112.9883" x2="-22.6704" y2="-12.5781" gradientTransform="matrix(1 0 0 1 64.5342 22.7178)">
			<stop  offset="0.0899" style="stop-color:#2089B9"/>
			<stop  offset="0.0985" style="stop-color:#4FA3C2"/>
			<stop  offset="0.1071" style="stop-color:#77B9CA"/>
			<stop  offset="0.1138" style="stop-color:#8FC7CF"/>
			<stop  offset="0.118" style="stop-color:#98CCD1"/>
			<stop  offset="0.1341" style="stop-color:#9ECFD3"/>
			<stop  offset="0.156" style="stop-color:#AFD6D9"/>
			<stop  offset="0.1809" style="stop-color:#CBE1E3"/>
			<stop  offset="0.1966" style="stop-color:#E1EAEB"/>
			<a:midPointStop  offset="0.0899" style="stop-color:#2089B9"/>
			<a:midPointStop  offset="0.5" style="stop-color:#2089B9"/>
			<a:midPointStop  offset="0.0985" style="stop-color:#4FA3C2"/>
			<a:midPointStop  offset="0.5" style="stop-color:#4FA3C2"/>
			<a:midPointStop  offset="0.1071" style="stop-color:#77B9CA"/>
			<a:midPointStop  offset="0.5" style="stop-color:#77B9CA"/>
			<a:midPointStop  offset="0.1138" style="stop-color:#8FC7CF"/>
			<a:midPointStop  offset="0.5" style="stop-color:#8FC7CF"/>
			<a:midPointStop  offset="0.118" style="stop-color:#98CCD1"/>
			<a:midPointStop  offset="0.5" style="stop-color:#98CCD1"/>
			<a:midPointStop  offset="0.1341" style="stop-color:#9ECFD3"/>
			<a:midPointStop  offset="0.5" style="stop-color:#9ECFD3"/>
			<a:midPointStop  offset="0.156" style="stop-color:#AFD6D9"/>
			<a:midPointStop  offset="0.5" style="stop-color:#AFD6D9"/>
			<a:midPointStop  offset="0.1809" style="stop-color:#CBE1E3"/>
			<a:midPointStop  offset="0.5" style="stop-color:#CBE1E3"/>
			<a:midPointStop  offset="0.1966" style="stop-color:#E1EAEB"/>
		</linearGradient>
		<path fill="url(#XMLID_3_)" d="M83.405,126.381c0,5.15-3.353,9.325-7.48,9.325H7.804c-4.131,0-7.482-4.177-7.482-9.325V19.465
			c0-5.148,3.354-9.326,7.482-9.326h68.117c4.133,0,7.482,4.176,7.482,9.326v106.916H83.405z"/>
		<path fill="none" stroke="#333333" stroke-width="0.977" d="M83.405,126.381c0,5.15-3.353,9.325-7.48,9.325H7.804
			c-4.131,0-7.482-4.177-7.482-9.325V19.465c0-5.148,3.354-9.326,7.482-9.326h68.117c4.133,0,7.482,4.176,7.482,9.326v106.916
			H83.405z"/>
		<path fill="#FFFFFF" d="M0.32,11.17c0-4.344,3.354-7.869,7.482-7.869H75.92c4.133,0,7.482,3.523,7.482,7.869v90.229
			c0,4.346-3.353,7.868-7.482,7.868H7.802c-4.131,0-7.482-3.522-7.482-7.87V11.17L0.32,11.17z"/>
		
			<linearGradient id="XMLID_4_" gradientUnits="userSpaceOnUse" x1="4.0215" y1="80.7666" x2="86.165" y2="80.7666" gradientTransform="matrix(-1 0 0 -1 86.9551 137.0508)">
			<stop  offset="0" style="stop-color:#A2D8E0"/>
			<stop  offset="0.0899" style="stop-color:#1878AD"/>
			<stop  offset="0.2135" style="stop-color:#194D91"/>
			<stop  offset="0.6404" style="stop-color:#2B90BD"/>
			<stop  offset="0.9438" style="stop-color:#82CBDE"/>
			<stop  offset="1" style="stop-color:#1A478D"/>
			<a:midPointStop  offset="0" style="stop-color:#A2D8E0"/>
			<a:midPointStop  offset="0.5" style="stop-color:#A2D8E0"/>
			<a:midPointStop  offset="0.0899" style="stop-color:#1878AD"/>
			<a:midPointStop  offset="0.5" style="stop-color:#1878AD"/>
			<a:midPointStop  offset="0.2135" style="stop-color:#194D91"/>
			<a:midPointStop  offset="0.5" style="stop-color:#194D91"/>
			<a:midPointStop  offset="0.6404" style="stop-color:#2B90BD"/>
			<a:midPointStop  offset="0.5" style="stop-color:#2B90BD"/>
			<a:midPointStop  offset="0.9438" style="stop-color:#82CBDE"/>
			<a:midPointStop  offset="0.5" style="stop-color:#82CBDE"/>
			<a:midPointStop  offset="1" style="stop-color:#1A478D"/>
		</linearGradient>
		<path i:isolated="yes" i:knockout="Off" opacity="0.1" fill="url(#XMLID_4_)" enable-background="new    " d="M0.79,11.17
			c0-4.344,3.313-7.869,7.397-7.869h67.347c4.086,0,7.399,3.523,7.399,7.869v90.229c0,4.346-3.313,7.868-7.399,7.868H8.188
			c-4.084,0-7.397-3.522-7.397-7.87L0.79,11.17L0.79,11.17z"/>
		<path fill="none" stroke="#4D4D4D" stroke-width="0.977" d="M0.32,101.419v24.962c0,5.148,3.353,9.325,7.482,9.325h68.12
			c4.131,0,7.48-4.175,7.48-9.325V11.171c0-4.346-3.353-7.869-7.482-7.869H7.803c-4.13,0-7.482,3.525-7.482,7.869L0.32,101.399
			C0.319,101.404,0.32,101.411,0.32,101.419z"/>
	</g>
	<g i:knockout="Off">
		<g i:knockout="Off">
			<path fill="#333333" d="M35.011,18.526c1.24-0.965,2.137-1.24,2.689-0.826c0.551,0.689,0.551,1.723,0,3.102
				c-3.723,5.789-8.135,9.926-13.234,12.406c-2.758,0.828-4.826,0.414-6.205-1.24c-0.965-1.516-1.102-2.619-0.412-3.309
				C23.913,26.729,29.634,23.353,35.011,18.526z M58.378,35.69c-0.688-0.414-1.654-1.518-2.895-3.309
				c-3.445-4.688-7.236-9.1-11.373-13.234c-0.965-1.104-1.033-2.068-0.207-2.896c0.965-0.826,2-0.688,3.102,0.414
				c6.066,6.342,12.959,10.754,20.68,13.234c0.689,0.139,0.759,0.689,0.207,1.654c-1.379,3.172-3.723,4.826-7.03,4.963
				C59.896,36.517,59.067,36.241,58.378,35.69z"/>
		</g>
		<path fill="#D90000" d="M44.022,48.907c0.791,0,1.502,0.08,2.133,0.238c0.633,0,1.264,0.236,1.896,0.711
			c0.789,0.158,1.263,0.473,1.42,0.947c0.316,0.158,0.554,0.475,0.711,0.947c0.158,0.158,0.238,0.395,0.238,0.711l-0.238,0.711
			c-0.157,0.316-0.395,0.711-0.711,1.184c-0.157,0.475-0.395,0.949-0.711,1.422c-0.158,0.316-0.235,0.711-0.235,1.186l0.946-0.236
			c0.634-0.316,0.791-0.396,0.476-0.238c0.315-0.158,0.711-0.236,1.186-0.236c0.474-0.316,0.947-0.475,1.42-0.475
			c0.476-0.156,0.869-0.236,1.187-0.236c0.316,0,0.631,0.08,0.946,0.236c0.158,0,0.396,0.158,0.712,0.475
			c0.315,0.158,0.553,0.316,0.711,0.475l0.235,0.236c0.633,0.316,1.187,0.79,1.66,1.423v0.473h-0.475
			c-0.158,0-0.869,0.08-2.133,0.236c-1.105,0-2.054,0.158-2.845,0.475c-0.789,0-1.658,0.158-2.604,0.475c-0.316,0-0.711,0-1.187,0
			c-0.631,0.158-1.184,0.236-1.658,0.236l-0.473,0.475c-0.315,0.158-0.711,0.631-1.186,1.422c-0.158,0.158-0.396,0.395-0.711,0.709
			c-0.316,0.475-0.554,0.791-0.711,0.949c-0.474,0.473-0.87,1.025-1.185,1.658h0.236h0.475c0.314-0.158,0.631-0.236,0.947-0.236
			c0.789-0.316,1.815-0.475,3.08-0.475c1.264-0.158,2.211-0.236,2.844-0.236c0.631,0,1.184,0.078,1.658,0.236
			c0.158,0,0.553,0.158,1.184,0.475c0.158,0.158,0.316,0.314,0.476,0.473c0.789,0.475,1.264,0.949,1.422,1.422
			c0.315,0.475,0.553,0.947,0.711,1.422c0.158,0.315,0.236,0.711,0.236,1.186l-0.712,0.947c-0.473,0.473-0.946,1.184-1.422,2.133
			c-0.473,0.631-0.946,1.422-1.422,2.369c-0.473,0.631-0.867,1.342-1.184,2.133c-0.316,0.631-1.105,1.578-2.369,2.842h-0.475
			L47.1,78.765L46.63,79c-0.315,0-0.633,0.158-0.949,0.473c-0.157,0-0.395,0.08-0.711,0.238c-0.313,0.158-0.553,0.236-0.709,0.236
			c-0.633,0-1.027,0.157-1.186,0.475c-0.158,0-0.316,0.473-0.475,1.42c0,0.791-0.078,1.502-0.236,2.133l0.947-0.235
			c0.633-0.316,1.738-0.554,3.318-0.711c1.578-0.474,3.08-0.711,4.502-0.711c1.42-0.158,2.685-0.236,3.791-0.236
			c0.474,0,1.105-0.08,1.896-0.238h0.235c0.316-0.156,0.711-0.235,1.187-0.235c0.473,0,0.947,0.079,1.422,0.235
			c0.158,0,0.553,0.158,1.184,0.476c0.158,0.157,0.316,0.315,0.476,0.475c0.789,0.473,1.264,0.947,1.422,1.422
			c0.158,0.158,0.315,0.314,0.475,0.473c0,0.316,0.078,0.554,0.236,0.712c0.158,0.157,0.236,0.475,0.236,0.946l-0.236,0.238
			c-0.158,0-0.396,0.395-0.711,1.184c-0.316,0.476-0.633,1.345-0.947,2.607c0,0.316-0.158,0.789-0.475,1.422
			c-0.316,0.789-0.476,1.342-0.476,1.658c-0.313,0.947-0.711,1.895-1.184,2.844c-0.475,0.789-0.949,1.5-1.422,2.131
			c-0.158,0.158-0.316,0.396-0.476,0.711c-0.158,0.316-0.553,0.869-1.184,1.66c-0.316,0.314-0.633,0.709-0.947,1.185
			c-0.315,0.315-0.555,0.553-0.711,0.711c-0.158,0.157-0.396,0.395-0.711,0.711l-0.475,0.235c-0.158,0.158-0.633,0.238-1.422,0.238
			l-0.711-0.949c-0.158-0.315-0.396-0.631-0.712-0.946c-0.315-0.316-0.553-0.634-0.711-0.947c-0.157-0.316-0.395-0.633-0.711-0.947
			c-0.313-0.315-0.553-0.633-0.711-0.949c-0.473-0.631-1.024-1.184-1.658-1.657h0.712c0.475,0,1.264,0,2.368,0
			c1.105,0.157,1.896,0.235,2.369,0.235c0.476,0,0.869-0.078,1.187-0.235h0.235c0.316-0.158,0.554-0.316,0.711-0.476
			c0.316-0.473,0.396-0.551,0.238-0.236c0.156-0.313,0.396-0.946,0.711-1.895c0-0.158,0.078-0.553,0.236-1.186
			c0.313-0.947,0.553-1.738,0.711-2.369c0.313-1.422,0.553-2.605,0.711-3.556c0.158-0.946,0.236-1.735,0.236-2.368l-0.476-0.474
			H54.92c-1.422,0-2.766,0.078-4.029,0.236c-0.789,0-2.053,0.235-3.791,0.711l0.476,0.473c0.315,0.316,0.789,0.711,1.422,1.187
			c0.631,0.475,1.184,1.026,1.658,1.658c0.315,0.315,0.553,0.711,0.711,1.186c0-0.316,0.078-0.158,0.235,0.473
			c0.158,0.476,0.238,0.949,0.238,1.422c0,0.316-0.08,0.711-0.238,1.187l-0.235,0.236c-0.158,0.315-0.316,0.553-0.476,0.711h-0.235
			c-0.158,0-0.236-0.078-0.236-0.236c-0.158,0-0.315,0-0.475,0l-0.236-0.238c-0.316-0.313-0.711-0.789-1.186-1.42L47.1,92.746
			c-0.946,0-1.895,0.158-2.842,0.473c-0.949,0-2.055,0.316-3.318,0.949c-1.264,0.473-2.369,0.947-3.316,1.422
			c-0.316,0.158-0.633,0.314-0.947,0.473c-0.316,0.158-0.633,0.316-0.949,0.476h-0.236c-0.158,0.158-0.316,0.236-0.475,0.236h-0.236
			c-0.316-0.158-0.553-0.236-0.711-0.236c-0.475-0.316-0.869-0.553-1.186-0.711c-0.158-0.158-0.236-0.396-0.236-0.711
			c-0.158-0.158-0.316-0.316-0.475-0.476c-0.158-0.473-0.236-0.866-0.236-1.184l0.475-0.476l0.711,0.236
			c0.156,0,0.395,0.08,0.711,0.238h0.236c0.158,0,0.314-0.08,0.473-0.238c0.316-0.156,0.555-0.236,0.713-0.236
			c0.631-0.473,1.184-0.788,1.658-0.946c0.473-0.476,0.789-0.711,0.947-0.711c0.158-0.158,0.236-0.316,0.236-0.476l0.238-0.235
			c0.158-0.158,0.236-1.105,0.236-2.845l-0.711,0.238c-0.475,0-1.105,0.236-1.895,0.711c-0.316,0.158-0.791,0.314-1.424,0.474
			c-0.631,0.315-1.105,0.553-1.42,0.711c-0.158,0.157-0.475,0.315-0.949,0.475c-1.105,0.316-2.133,0.711-3.08,1.184l0.475,1.423
			c0.316,0.948,0.553,1.896,0.711,2.844c0.158,0.475,0.236,1.58,0.236,3.315l-0.473,0.476v0.946l-0.711-0.946
			c-0.158-0.158-0.396-0.396-0.711-0.711c-0.158-0.476-0.316-0.789-0.475-0.947c-0.158-0.316-0.395-0.553-0.711-0.711
			c-0.158-0.475-0.236-0.869-0.236-1.187c0-0.473-0.08-0.946-0.238-1.422c0-0.155-0.078-0.313-0.236-0.473
			c-0.158-0.475-0.316-0.869-0.473-1.186h-0.238c-0.158,0-0.395,0.079-0.711,0.235c-0.158,0-0.473,0.238-0.947,0.711H24.12
			c-0.158,0-0.238-0.078-0.238-0.235c-0.158,0-0.314,0-0.473,0l-0.238-0.236c-0.314-0.316-0.711-0.791-1.184-1.422v-0.947
			l0.475-0.475l0.473,0.475h0.475h0.473c0.316-0.158,0.553-0.238,0.711-0.238c0.158-0.155,0.395-0.313,0.711-0.473
			c0.158,0,0.316-0.08,0.475-0.238v-0.946c0-0.789,0.078-1.265,0.236-1.423c0.158-0.473,0.475-0.789,0.947-0.946
			c0.158-0.158,0.633-0.476,1.422-0.947c0.316,0,0.553-0.08,0.711-0.238c0.947-0.473,1.816-0.946,2.607-1.42
			c0.631-0.475,1.5-1.026,2.605-1.66l-0.473-0.235c-0.158-0.316-0.396-0.476-0.711-0.476c-0.158-0.155-0.396-0.473-0.711-0.946
			c0-0.158-0.08-0.314-0.238-0.474c-0.158-0.159-0.395-0.638-0.711-1.427c0-0.316-0.158-0.791-0.473-1.422
			c-0.316-0.633-0.475-1.105-0.475-1.422c-0.158-0.633-0.395-1.343-0.711-2.133l-0.236-0.236c-0.158-0.476-0.395-0.947-0.711-1.422
			c-0.158-0.476-0.236-0.869-0.236-1.187c0-0.473,0.078-0.789,0.236-0.946l0.236-0.236c0-0.316,0.158-0.553,0.475-0.711h0.475
			l0.947,0.947l0.236-0.236c0.158-0.158,0.553-0.476,1.186-0.947c0.156,0,0.314-0.08,0.473-0.238
			c0.633-0.63,1.422-1.104,2.371-1.421v-0.473l-0.475-0.711c-0.158-0.475-0.475-1.344-0.947-2.607h-0.238
			c-0.158,0-0.631,0.238-1.422,0.711c-0.316,0.158-0.631,0.316-0.947,0.475c-0.475,0.316-0.869,0.553-1.184,0.711
			c-0.475,0.158-0.949,0.475-1.422,0.947h-0.238c-0.158,0-0.236-0.078-0.236-0.236c-0.158,0-0.316,0-0.475,0L27.2,65.969
			c-0.316-0.316-0.553-0.553-0.711-0.711c-0.475-0.475-0.791-0.949-0.947-1.422c-0.158-0.475-0.238-1.027-0.238-1.658l0.475-0.475
			l0.947,0.236c0.316,0,0.711,0.08,1.186,0.238h0.236h0.475c0.473-0.158,0.867-0.238,1.184-0.238
			c0.791-0.314,1.422-0.473,1.896-0.473c0.473-0.316,1.025-0.553,1.658-0.711v-1.66c0-1.105-0.08-1.896-0.236-2.368
			c-0.158-0.475-0.396-0.949-0.711-1.422c-0.158-0.475-0.633-1.027-1.422-1.658v-0.475h0.947c0.633,0,1.186,0.078,1.658,0.236
			c0.475,0,0.869,0.158,1.186,0.475c0.316,0,0.711,0.316,1.186,0.947c0.473,0.475,0.867,1.027,1.184,1.658
			c0.158,0.316,0.475,1.265,0.947,2.845h0.238h0.236c0.316-0.158,0.631-0.238,0.947-0.238c0.633-0.314,1.422-0.473,2.369-0.473
			c0.316-0.158,0.711-0.236,1.186-0.236l0.475-0.238c0.156-0.158,0.236-0.314,0.236-0.473c0.158-0.158,0.236-0.317,0.236-0.476
			c0.315-0.473,0.553-1.184,0.711-2.133c0-0.314,0.078-0.631,0.235-0.947c0.158-0.314,0.238-0.631,0.238-0.947
			c0-0.475-0.08-0.789-0.238-0.947c-0.157-0.158-0.235-0.395-0.235-0.711c-0.158-0.158-0.316-0.316-0.474-0.475
			c-0.158-0.473-0.633-1.027-1.422-1.658v-0.475L44.022,48.907L44.022,48.907z M39.048,81.604H38.81
			c-0.158,0-0.631,0.238-1.422,0.712c-0.158,0.157-0.631,0.395-1.42,0.711c-0.633,0.315-1.186,0.633-1.66,0.946
			c-0.475,0.158-1.027,0.396-1.658,0.711c-0.791,0.476-1.422,0.791-1.896,0.947c-0.631,0.158-0.789,0.238-0.473,0.238
			c-0.949,0.315-1.502,0.473-1.658,0.473l-0.711,0.476c-0.316,0.157-0.711,0.475-1.186,0.946v0.476l0.947,0.946h0.238
			c0.158,0,0.395-0.077,0.711-0.235c0.314-0.158,0.553-0.236,0.711-0.236c0.314-0.315,0.947-0.553,1.895-0.711
			c-0.475,0-0.316-0.08,0.475-0.238c0.314-0.157,0.947-0.395,1.895-0.711c0.316-0.155,0.633-0.313,0.947-0.473
			c0.316-0.158,0.713-0.316,1.186-0.475c1.105-0.474,2.055-0.869,2.844-1.185L39.048,81.604z M36.44,69.049
			c-0.473,0-0.947,0.158-1.422,0.473c-0.158,0-0.395,0-0.711,0c-0.316,0.158-0.553,0.238-0.711,0.238
			c-0.473-0.158-1.025,0-1.658,0.474l-0.236,0.475c-0.158,0.158-0.238,0.395-0.238,0.711l0.238,0.947
			c0.158,0.158,0.236,0.315,0.236,0.475c0,0.314,0.078,0.553,0.236,0.711c0.158,0.158,0.238,0.396,0.238,0.709
			c0.156,0.316,0.236,0.556,0.236,0.711c0.158,0.476,0.236,1.107,0.236,1.896s0.158,1.737,0.475,2.844h0.236
			c0.158,0,0.316-0.08,0.475-0.238h0.236C34.624,79.158,34.94,79,35.257,79c0-0.158,0.156-0.316,0.473-0.475
			c0.316,0,0.475-0.078,0.475-0.236s0.158-0.396,0.475-0.711c0.314-0.158,0.473-0.316,0.473-0.476
			c0.316-0.473,0.791-1.024,1.422-1.657h-1.186c-0.314,0-0.631-0.078-0.947-0.236c-0.473,0-0.869,0-1.184,0
			c-0.949-0.316-1.738-0.553-2.371-0.711v-0.475l0.711-0.474c0.475-0.475,1.105-0.791,1.896-0.949
			c0.789-0.473,1.422-0.711,1.895-0.711c0.475-0.313,1.027-0.553,1.66-0.711v-0.473l-0.475-0.475
			c-0.158-0.158-0.395-0.396-0.711-0.712c-0.316-0.313-0.553-0.553-0.711-0.711L36.44,69.049z M42.839,59.334h-0.475
			c-0.158,0-0.633,0.078-1.422,0.236c-0.631,0-1.186,0.158-1.658,0.475c-0.475,0-0.789,0.158-0.947,0.473
			c-0.158,0-0.238,0.08-0.238,0.238c0-0.158-0.078,0-0.236,0.473c-0.158,0.158-0.236,0.316-0.236,0.475
			c-0.158,0.316-0.238,0.553-0.238,0.711c-0.158,0.475-0.395,0.947-0.709,1.422c-0.158,0.473-0.396,1.025-0.711,1.658
			c-0.158,0.316-0.238,0.947-0.238,1.895l1.186-0.473c0.789-0.475,1.422-0.711,1.895-0.711c0.475-0.316,0.869-0.553,1.186-0.711
			c0.316-0.475,0.711-0.947,1.184-1.422c0.475-0.789,0.869-1.422,1.186-1.895c0.158-0.316,0.316-0.711,0.475-1.186
			c0.156-0.475,0.314-0.869,0.473-1.186L42.839,59.334z M49.946,66.916h-0.711c-0.476,0-1.105,0.078-1.896,0.236
			c-0.791,0-1.58,0.158-2.371,0.475c-0.473,0-1.264,0.158-2.369,0.473c0.158,0-0.078,0.08-0.711,0.238l0.475,0.236
			c0.316,0,0.553,0.159,0.711,0.475c0.158,0,0.315,0.158,0.475,0.473c0,0.316,0.078,0.554,0.236,0.712h0.947l0.711,0.475
			c0.475,0.158,0.869,0.475,1.186,0.947v0.946l-0.238,0.238c-0.157,0-0.395,0.158-0.711,0.473c-0.313,0-0.711,0.158-1.184,0.476
			c-0.475,0-0.791,0.158-0.947,0.473c-0.158,0-0.316,0.396-0.475,1.187c0,0.475-0.08,0.946-0.236,1.422h2.369l0.473,0.475
			c0.158,0.158,0.396,0.314,0.711,0.474c0.316,0.158,0.554,0.315,0.712,0.475v-1.187c0-0.946,0.079-1.5,0.237-1.657
			c0.314-0.474,0.553-0.947,0.711-1.422c0.314-0.789,0.709-1.658,1.185-2.605c0.157-0.475,0.315-1.027,0.475-1.658
			c0.314-0.475,0.473-0.791,0.473-0.949c0.158-0.789,0.238-1.264,0.238-1.421L49.946,66.916z M44.497,86.107
			c-0.633,0-1.344,0.237-2.133,0.711l-0.475,3.791l1.422-0.236c0.633-0.158,1.896-0.238,3.791-0.238v-0.235
			c0-0.316-0.157-0.712-0.473-1.185c-0.158-0.633-0.475-1.58-0.949-2.844L44.497,86.107z"/>
	</g>
</g>
</svg>
