<?xml version="1.0" encoding="utf-8"?>
<!-- Generator: Adobe Illustrator 12.0.0, SVG Export Plug-In . SVG Version: 6.00 Build 51448)  -->
<!DOCTYPE svg PUBLIC "-//W3C//DTD SVG 1.1//EN" "http://www.w3.org/Graphics/SVG/1.1/DTD/svg11.dtd" [
	<!ENTITY ns_flows "http://ns.adobe.com/Flows/1.0/">
	<!ENTITY ns_extend "http://ns.adobe.com/Extensibility/1.0/">
	<!ENTITY ns_ai "http://ns.adobe.com/AdobeIllustrator/10.0/">
	<!ENTITY ns_graphs "http://ns.adobe.com/Graphs/1.0/">
	<!ENTITY ns_vars "http://ns.adobe.com/Variables/1.0/">
	<!ENTITY ns_imrep "http://ns.adobe.com/ImageReplacement/1.0/">
	<!ENTITY ns_sfw "http://ns.adobe.com/SaveForWeb/1.0/">
	<!ENTITY ns_custom "http://ns.adobe.com/GenericCustomNamespace/1.0/">
	<!ENTITY ns_adobe_xpath "http://ns.adobe.com/XPath/1.0/">
	<!ENTITY ns_svg "http://www.w3.org/2000/svg">
	<!ENTITY ns_xlink "http://www.w3.org/1999/xlink">
]>
<svg  version="1.1"
	 xmlns:x="&ns_extend;" xmlns:i="&ns_ai;" xmlns:graph="&ns_graphs;" i:viewOrigin="-0.3193 135.7061" i:rulerOrigin="0 0" i:pageBounds="0 136 85 0"
	 xmlns="&ns_svg;" xmlns:xlink="&ns_xlink;" xmlns:a="http://ns.adobe.com/AdobeSVGViewerExtensions/3.0/"
	 width="85.678" height="136.025" viewBox="0 0 85.678 136.025" overflow="visible" enable-background="new 0 0 85.678 136.025"
	 xml:space="preserve">
<metadata>
	<variableSets  xmlns="http://ns.adobe.com/Variables/1.0/">
		<variableSet  varSetName="binding1" locked="none">
			<variables></variables>
			<v:sampleDataSets  xmlns="http://ns.adobe.com/GenericCustomNamespace/1.0/" xmlns:v="http://ns.adobe.com/Variables/1.0/">
				</v:sampleDataSets>
		</variableSet>
	</variableSets>
</metadata>
<g id="图层_1" i:knockout="Off" i:layer="yes" i:dimmedPercent="50" i:rgbTrio="#4F008000FFFF">
	<g i:knockout="Off">
		<path fill="#333333" d="M2.274,99.465v24.962c0,5.149,3.353,9.325,7.481,9.325h68.118c4.133,0,7.484-4.176,7.484-9.325h-0.002
			V9.216c0-4.344-3.353-7.869-7.482-7.869H9.756c-4.131,0-7.481,3.525-7.481,7.869H2.272v90.229
			C2.272,99.45,2.274,99.458,2.274,99.465z"/>
		
			<linearGradient id="XMLID_3_" gradientUnits="userSpaceOnUse" x1="-22.6704" y1="112.9883" x2="-22.6704" y2="-12.5781" gradientTransform="matrix(1 0 0 1 64.5342 22.7178)">
			<stop  offset="0.0899" style="stop-color:#2089B9"/>
			<stop  offset="0.0985" style="stop-color:#4FA3C2"/>
			<stop  offset="0.1071" style="stop-color:#77B9CA"/>
			<stop  offset="0.1138" style="stop-color:#8FC7CF"/>
			<stop  offset="0.118" style="stop-color:#98CCD1"/>
			<stop  offset="0.1341" style="stop-color:#9ECFD3"/>
			<stop  offset="0.156" style="stop-color:#AFD6D9"/>
			<stop  offset="0.1809" style="stop-color:#CBE1E3"/>
			<stop  offset="0.1966" style="stop-color:#E1EAEB"/>
			<a:midPointStop  offset="0.0899" style="stop-color:#2089B9"/>
			<a:midPointStop  offset="0.5" style="stop-color:#2089B9"/>
			<a:midPointStop  offset="0.0985" style="stop-color:#4FA3C2"/>
			<a:midPointStop  offset="0.5" style="stop-color:#4FA3C2"/>
			<a:midPointStop  offset="0.1071" style="stop-color:#77B9CA"/>
			<a:midPointStop  offset="0.5" style="stop-color:#77B9CA"/>
			<a:midPointStop  offset="0.1138" style="stop-color:#8FC7CF"/>
			<a:midPointStop  offset="0.5" style="stop-color:#8FC7CF"/>
			<a:midPointStop  offset="0.118" style="stop-color:#98CCD1"/>
			<a:midPointStop  offset="0.5" style="stop-color:#98CCD1"/>
			<a:midPointStop  offset="0.1341" style="stop-color:#9ECFD3"/>
			<a:midPointStop  offset="0.5" style="stop-color:#9ECFD3"/>
			<a:midPointStop  offset="0.156" style="stop-color:#AFD6D9"/>
			<a:midPointStop  offset="0.5" style="stop-color:#AFD6D9"/>
			<a:midPointStop  offset="0.1809" style="stop-color:#CBE1E3"/>
			<a:midPointStop  offset="0.5" style="stop-color:#CBE1E3"/>
			<a:midPointStop  offset="0.1966" style="stop-color:#E1EAEB"/>
		</linearGradient>
		<path fill="url(#XMLID_3_)" d="M83.405,126.381c0,5.15-3.353,9.325-7.48,9.325H7.804c-4.131,0-7.482-4.177-7.482-9.325V19.465
			c0-5.148,3.354-9.326,7.482-9.326h68.117c4.133,0,7.482,4.176,7.482,9.326v106.916H83.405z"/>
		<path fill="none" stroke="#333333" stroke-width="0.977" d="M83.405,126.381c0,5.15-3.353,9.325-7.48,9.325H7.804
			c-4.131,0-7.482-4.177-7.482-9.325V19.465c0-5.148,3.354-9.326,7.482-9.326h68.117c4.133,0,7.482,4.176,7.482,9.326v106.916
			H83.405z"/>
		<path fill="#FFFFFF" d="M0.32,11.17c0-4.344,3.354-7.869,7.482-7.869H75.92c4.133,0,7.482,3.523,7.482,7.869v90.229
			c0,4.346-3.353,7.868-7.482,7.868H7.802c-4.131,0-7.482-3.522-7.482-7.87V11.17L0.32,11.17z"/>
		
			<linearGradient id="XMLID_4_" gradientUnits="userSpaceOnUse" x1="4.0215" y1="80.7666" x2="86.165" y2="80.7666" gradientTransform="matrix(-1 0 0 -1 86.9551 137.0508)">
			<stop  offset="0" style="stop-color:#A2D8E0"/>
			<stop  offset="0.0899" style="stop-color:#1878AD"/>
			<stop  offset="0.2135" style="stop-color:#194D91"/>
			<stop  offset="0.6404" style="stop-color:#2B90BD"/>
			<stop  offset="0.9438" style="stop-color:#82CBDE"/>
			<stop  offset="1" style="stop-color:#1A478D"/>
			<a:midPointStop  offset="0" style="stop-color:#A2D8E0"/>
			<a:midPointStop  offset="0.5" style="stop-color:#A2D8E0"/>
			<a:midPointStop  offset="0.0899" style="stop-color:#1878AD"/>
			<a:midPointStop  offset="0.5" style="stop-color:#1878AD"/>
			<a:midPointStop  offset="0.2135" style="stop-color:#194D91"/>
			<a:midPointStop  offset="0.5" style="stop-color:#194D91"/>
			<a:midPointStop  offset="0.6404" style="stop-color:#2B90BD"/>
			<a:midPointStop  offset="0.5" style="stop-color:#2B90BD"/>
			<a:midPointStop  offset="0.9438" style="stop-color:#82CBDE"/>
			<a:midPointStop  offset="0.5" style="stop-color:#82CBDE"/>
			<a:midPointStop  offset="1" style="stop-color:#1A478D"/>
		</linearGradient>
		<path i:isolated="yes" i:knockout="Off" opacity="0.1" fill="url(#XMLID_4_)" enable-background="new    " d="M0.79,11.17
			c0-4.344,3.313-7.869,7.397-7.869h67.347c4.086,0,7.399,3.523,7.399,7.869v90.229c0,4.346-3.313,7.868-7.399,7.868H8.188
			c-4.084,0-7.397-3.522-7.397-7.87L0.79,11.17L0.79,11.17z"/>
		<path fill="none" stroke="#4D4D4D" stroke-width="0.977" d="M0.32,101.419v24.962c0,5.148,3.353,9.325,7.482,9.325h68.12
			c4.131,0,7.48-4.175,7.48-9.325V11.171c0-4.346-3.353-7.869-7.482-7.869H7.803c-4.13,0-7.482,3.525-7.482,7.869L0.32,101.399
			C0.319,101.404,0.32,101.411,0.32,101.419z"/>
	</g>
	<circle fill="#FFFFFF" cx="43.097" cy="50.935" r="28.346"/>
	<g i:knockout="Off">
		<path fill="#D90000" d="M42.14,59.306c-3.977-0.447-7.111-3.658-7.446-7.669h7.446V59.306z"/>
		<path fill="#D90000" d="M44.053,59.306c3.979-0.447,7.111-3.658,7.446-7.669h-7.446V59.306z"/>
	</g>
	<g i:knockout="Off">
		<g i:knockout="Off">
			<path fill="#204499" d="M43.096,22.588c-15.654,0-28.345,12.691-28.345,28.346c0,15.656,12.69,28.348,28.345,28.348
				c15.656,0,28.348-12.692,28.348-28.348C71.443,35.28,58.752,22.588,43.096,22.588z M43.096,76.661
				c-14.207,0-25.725-11.517-25.725-25.725c0-14.209,11.518-25.727,25.725-25.727c14.208,0,25.726,11.518,25.726,25.727
				C68.821,65.144,57.305,76.661,43.096,76.661z"/>
		</g>
		<g i:knockout="Off">
			<path fill="#D90000" d="M43.095,38.912c-6.64,0-12.023,5.382-12.023,12.021c0,6.641,5.384,12.022,12.023,12.022
				s12.022-5.382,12.022-12.022C55.117,44.293,49.733,38.912,43.095,38.912z M43.095,61.31c-5.732,0-10.378-4.646-10.378-10.378
				c0-5.731,4.646-10.378,10.378-10.378c5.73,0,10.376,4.646,10.376,10.378C53.472,56.665,48.825,61.31,43.095,61.31z"/>
		</g>
		<g i:knockout="Off">
			<path fill="#D90000" d="M42.14,42.555c-3.977,0.447-7.111,3.658-7.446,7.668h7.446V42.555z"/>
			<path fill="#D90000" d="M44.053,42.555c3.979,0.447,7.111,3.658,7.446,7.668h-7.446V42.555z"/>
		</g>
		<g i:knockout="Off">
			<g i:knockout="Off">
				<path fill="#189045" d="M43.095,38.095c7.078,0,12.837,5.759,12.837,12.837c0,7.081-5.76,12.84-12.837,12.84
					c-7.079,0-12.839-5.759-12.839-12.84C30.256,43.854,36.016,38.095,43.095,38.095z M28.188,50.932
					c0,8.221,6.687,14.907,14.906,14.907S58,59.153,58,50.932c0-8.218-6.687-14.904-14.905-14.904
					C34.875,36.028,28.188,42.714,28.188,50.932z"/>
			</g>
			<g i:knockout="Off">
				<g i:knockout="Off">
					<path fill="#189045" d="M44.128,37.061v-6.794l-0.854,1.019c0.188-0.035,1.853-0.369,2.589-1.9
						c0.393-0.816,0.667-0.98,0.67-0.982c0,0-0.062,0.035-0.171,0.037c0.288,0.038,2.238,0.607,2.712,0.812
						c-0.328-0.143-0.444-0.425-0.458-0.511c0.01,0.062,0.01,0.249,0.011,0.388c0.003,0.88,0.008,2.707,1.878,3.576l-0.521-1.334
						l-2.629,6.345l1.908,0.792l2.63-6.345l0.382-0.917l-0.899-0.417c-0.584-0.271-0.679-0.724-0.682-1.706
						c-0.002-0.566-0.004-1.426-0.801-1.77c-0.437-0.188-2.946-1.001-3.598-0.979c-0.861,0.026-1.635,0.737-2.297,2.115
						c-0.285,0.594-1.088,0.761-1.096,0.761l-0.832,0.167c-0.012,0.002-0.012,0.85-0.012,0.85v6.794L44.128,37.061L44.128,37.061z"
						/>
				</g>
				<g i:knockout="Off">
					<path fill="#189045" d="M49.265,38.508l2.614-6.305l-1.174,0.615c0.187,0.04,1.854,0.359,3.115-0.778
						c0.673-0.607,0.988-0.655,0.993-0.655c-0.001,0-0.068,0.01-0.173-0.03c0.25,0.144,1.842,1.41,2.203,1.779
						c-0.23-0.234-0.246-0.514-0.232-0.592c-0.011,0.064-0.076,0.255-0.124,0.396c-0.289,0.836-0.887,2.574,0.487,4.058l0.027-1.433
						l-4.831,4.83l1.463,1.462l4.83-4.83l0.704-0.705l-0.677-0.729c-0.497-0.536-0.343-1.132-0.05-1.979
						c0.191-0.562,0.458-1.331-0.121-1.923c-0.334-0.34-2.35-2.043-2.957-2.27c-0.811-0.304-1.794,0.063-2.93,1.086
						c-0.488,0.441-1.294,0.292-1.303,0.29l-0.829-0.161c-0.012-0.002-0.334,0.778-0.334,0.778l-2.613,6.304L49.265,38.508z"/>
				</g>
			</g>
			<g i:knockout="Off">
				<g i:knockout="Off">
					<path fill="#189045" d="M53.635,41.855l4.804-4.804l-1.322,0.117c0.155,0.108,1.57,1.048,3.172,0.486
						c0.854-0.3,1.167-0.223,1.17-0.221c0,0-0.066-0.02-0.146-0.094c0.177,0.229,1.153,2.012,1.345,2.49
						c-0.132-0.333-0.016-0.613,0.037-0.685c-0.037,0.05-0.17,0.185-0.269,0.282c-0.62,0.623-1.909,1.92-1.2,3.856l0.574-1.311
						l-6.345,2.627l0.792,1.91l6.345-2.627l0.915-0.378l-0.341-0.933c-0.221-0.604,0.032-0.991,0.727-1.687
						c0.399-0.403,1.006-1.013,0.687-1.818c-0.176-0.441-1.378-2.791-1.852-3.237c-0.63-0.59-1.68-0.634-3.12-0.129
						c-0.622,0.22-1.309-0.23-1.315-0.236l-0.705-0.471c-0.01-0.006-0.609,0.594-0.609,0.594l-4.803,4.804L53.635,41.855z"/>
				</g>
				<g i:knockout="Off">
					<path fill="#189045" d="M56.245,46.511l6.304-2.609l-1.264-0.396c0.104,0.159,1.057,1.565,2.753,1.652
						c0.904,0.048,1.162,0.236,1.165,0.238c-0.001,0-0.055-0.043-0.102-0.143c0.077,0.28,0.306,2.3,0.3,2.813
						c0.004-0.327,0.189-0.534,0.255-0.581c-0.055,0.039-0.235,0.127-0.369,0.192c-0.794,0.389-2.447,1.193-2.522,3.215l1.033-0.995
						h-6.832v2.067h6.832h0.995l0.037-0.993c0.027-0.73,0.558-1.042,1.364-1.436c0.534-0.262,1.265-0.617,1.273-1.447
						c0.005-0.471-0.215-3.099-0.484-3.692c-0.358-0.788-1.313-1.225-2.841-1.303c-0.657-0.035-1.121-0.712-1.126-0.717l-0.473-0.7
						c-0.006-0.009-0.785,0.313-0.785,0.313l-6.307,2.609L56.245,46.511z"/>
				</g>
			</g>
			<g i:knockout="Off">
				<g i:knockout="Off">
					<path fill="#189045" d="M56.966,51.966h6.794l-1.019-0.854c0.033,0.188,0.37,1.853,1.899,2.589
						c0.816,0.394,0.98,0.668,0.981,0.67c0,0-0.032-0.06-0.036-0.169c-0.04,0.317-0.626,2.281-0.812,2.711
						c0.143-0.328,0.424-0.443,0.51-0.459c-0.062,0.01-0.25,0.012-0.388,0.012c-0.881,0.002-2.708,0.008-3.576,1.877l1.333-0.521
						l-6.342-2.629l-0.793,1.91l6.344,2.629l0.916,0.38l0.417-0.898c0.271-0.583,0.725-0.679,1.707-0.681
						c0.565-0.002,1.426-0.004,1.771-0.801c0.153-0.357,1.001-2.923,0.979-3.596c-0.027-0.864-0.739-1.637-2.115-2.298
						c-0.595-0.286-0.761-1.09-0.762-1.098l-0.166-0.831c-0.003-0.012-0.852-0.012-0.852-0.012h-6.794v2.069H56.966z"/>
				</g>
				<g i:knockout="Off">
					<path fill="#189045" d="M55.521,57.104l6.303,2.613l-0.614-1.172c-0.04,0.187-0.36,1.853,0.777,3.114
						c0.605,0.673,0.654,0.988,0.654,0.992c0-0.002-0.009-0.069,0.03-0.174c-0.145,0.254-1.411,1.843-1.779,2.204
						c0.234-0.23,0.515-0.244,0.593-0.232c-0.065-0.01-0.256-0.076-0.396-0.125c-0.836-0.286-2.575-0.886-4.059,0.49l1.435,0.027
						l-4.83-4.831l-1.463,1.462l4.831,4.831l0.704,0.703l0.73-0.677c0.533-0.495,1.13-0.342,1.978-0.05
						c0.562,0.192,1.331,0.458,1.924-0.121c0.338-0.33,2.041-2.346,2.271-2.957c0.302-0.807-0.062-1.792-1.087-2.928
						c-0.442-0.49-0.291-1.295-0.29-1.303l0.16-0.828c0.003-0.012-0.777-0.337-0.777-0.337l-6.302-2.613L55.521,57.104z"/>
				</g>
			</g>
			<g i:knockout="Off">
				<g i:knockout="Off">
					<path fill="#189045" d="M52.172,61.473l4.803,4.802l-0.115-1.321c-0.108,0.155-1.047,1.571-0.486,3.174
						c0.3,0.856,0.223,1.165,0.222,1.168c0,0,0.019-0.063,0.095-0.146c-0.255,0.196-2.057,1.17-2.491,1.344
						c0.333-0.133,0.613-0.017,0.686,0.037c-0.052-0.037-0.186-0.17-0.284-0.269c-0.621-0.621-1.919-1.911-3.854-1.201l1.311,0.576
						l-2.625-6.344l-1.909,0.789l2.626,6.344l0.379,0.918l0.931-0.34c0.603-0.223,0.991,0.031,1.688,0.723
						c0.401,0.4,1.012,1.007,1.816,0.688c0.362-0.146,2.776-1.359,3.237-1.852c0.59-0.628,0.634-1.681,0.129-3.121
						c-0.219-0.623,0.23-1.309,0.236-1.316l0.471-0.705c0.006-0.01-0.594-0.609-0.594-0.609l-4.804-4.802L52.172,61.473z"/>
				</g>
				<g i:knockout="Off">
					<path fill="#189045" d="M47.518,64.083l2.607,6.305l0.396-1.264c-0.16,0.104-1.564,1.059-1.651,2.752
						c-0.046,0.904-0.236,1.16-0.238,1.164c0.001-0.002,0.042-0.053,0.146-0.1c-0.285,0.077-2.303,0.307-2.815,0.301
						c0.327,0.004,0.534,0.188,0.58,0.256c-0.038-0.055-0.126-0.236-0.191-0.369c-0.388-0.797-1.192-2.449-3.214-2.523l0.995,1.031
						v-6.831h-2.067v6.831v0.996l0.995,0.039c0.729,0.025,1.041,0.557,1.434,1.361c0.262,0.535,0.618,1.266,1.447,1.274
						c0.471,0.006,3.099-0.215,3.693-0.485c0.785-0.357,1.226-1.312,1.302-2.84c0.034-0.656,0.711-1.121,0.718-1.125l0.697-0.474
						c0.011-0.006-0.312-0.787-0.312-0.787l-2.607-6.303L47.518,64.083z"/>
				</g>
			</g>
			<g i:knockout="Off">
				<g i:knockout="Off">
					<path fill="#189045" d="M42.061,64.805v6.792l0.854-1.02c-0.188,0.035-1.853,0.371-2.589,1.899
						c-0.393,0.816-0.668,0.982-0.67,0.984c0.001-0.002,0.06-0.035,0.173-0.039c-0.321-0.041-2.284-0.627-2.716-0.811
						c0.33,0.143,0.445,0.422,0.46,0.512c-0.01-0.062-0.011-0.252-0.012-0.391c-0.002-0.88-0.007-2.707-1.877-3.574l0.521,1.334
						l2.628-6.345l-1.909-0.791l-2.629,6.345l-0.381,0.914l0.9,0.418c0.582,0.27,0.678,0.723,0.68,1.705
						c0.002,0.567,0.004,1.426,0.801,1.771c0.357,0.154,2.925,1.002,3.598,0.98c0.859-0.027,1.633-0.738,2.297-2.115
						c0.286-0.596,1.088-0.762,1.097-0.764l0.831-0.168c0.012-0.002,0.012-0.849,0.012-0.849v-6.793h-2.069V64.805z"/>
				</g>
				<g i:knockout="Off">
					<path fill="#189045" d="M36.923,63.359l-2.613,6.302l1.172-0.615c-0.186-0.039-1.853-0.357-3.114,0.781
						c-0.671,0.604-0.987,0.651-0.99,0.651c0,0,0.068-0.008,0.173,0.031c-0.256-0.145-1.845-1.41-2.205-1.776
						c0.23,0.233,0.244,0.51,0.232,0.592c0.009-0.066,0.075-0.258,0.124-0.398c0.288-0.835,0.887-2.575-0.488-4.056l-0.027,1.434
						l4.831-4.831l-1.463-1.462l-4.83,4.831l-0.704,0.703l0.677,0.729c0.497,0.534,0.342,1.132,0.05,1.979
						c-0.192,0.562-0.458,1.331,0.12,1.924c0.333,0.338,2.349,2.041,2.959,2.269c0.805,0.305,1.791-0.062,2.927-1.084
						c0.49-0.443,1.297-0.293,1.305-0.293l0.828,0.161c0.012,0.003,0.334-0.778,0.334-0.778l2.613-6.302L36.923,63.359z"/>
				</g>
			</g>
			<g i:knockout="Off">
				<g i:knockout="Off">
					<path fill="#189045" d="M32.554,60.011l-4.803,4.802l1.322-0.115c-0.155-0.109-1.571-1.047-3.173-0.486
						c-0.855,0.3-1.166,0.222-1.169,0.222c0,0,0.066,0.019,0.149,0.096c-0.199-0.258-1.174-2.058-1.347-2.494
						c0.132,0.334,0.015,0.613-0.037,0.686c0.037-0.05,0.17-0.184,0.268-0.282c0.62-0.624,1.909-1.921,1.2-3.856l-0.575,1.311
						l6.345-2.627l-0.791-1.909l-6.345,2.626l-0.916,0.379l0.341,0.932c0.221,0.604-0.032,0.992-0.726,1.688
						c-0.399,0.401-1.005,1.011-0.686,1.817c0.144,0.361,1.359,2.774,1.853,3.236c0.624,0.59,1.674,0.634,3.118,0.128
						c0.624-0.217,1.31,0.232,1.316,0.236l0.705,0.471c0.01,0.006,0.608-0.594,0.608-0.594l4.804-4.802L32.554,60.011z"/>
				</g>
				<g i:knockout="Off">
					<path fill="#189045" d="M29.943,55.356l-6.304,2.609l1.264,0.394c-0.104-0.159-1.058-1.564-2.753-1.652
						c-0.903-0.046-1.161-0.234-1.164-0.236c0.001,0,0.056,0.042,0.101,0.142c-0.078-0.282-0.307-2.3-0.301-2.814
						c-0.004,0.328-0.19,0.534-0.256,0.582c0.054-0.038,0.236-0.129,0.369-0.192c0.796-0.388,2.448-1.194,2.523-3.214l-1.032,0.993
						h6.832v-2.067H22.39h-0.995l-0.038,0.995c-0.027,0.729-0.558,1.041-1.363,1.434c-0.534,0.261-1.266,0.618-1.275,1.446
						c-0.006,0.473,0.215,3.104,0.487,3.695c0.356,0.786,1.311,1.224,2.839,1.303c0.658,0.032,1.122,0.711,1.128,0.717l0.472,0.699
						c0.007,0.01,0.785-0.313,0.785-0.313l6.305-2.609L29.943,55.356z"/>
				</g>
			</g>
			<g i:knockout="Off">
				<g i:knockout="Off">
					<path fill="#189045" d="M29.223,49.899h-6.794l1.019,0.853c-0.033-0.188-0.371-1.852-1.9-2.588
						c-0.816-0.392-0.98-0.667-0.981-0.669c0,0,0.033,0.06,0.036,0.173c0.04-0.322,0.626-2.284,0.811-2.715
						c-0.142,0.329-0.423,0.444-0.51,0.457c0.061-0.009,0.251-0.009,0.389-0.009c0.879-0.004,2.708-0.008,3.575-1.88l-1.333,0.521
						l6.344,2.63l0.791-1.91l-6.344-2.63l-0.915-0.381l-0.418,0.901c-0.271,0.582-0.724,0.677-1.706,0.68
						c-0.567,0-1.426,0.004-1.771,0.8c-0.153,0.357-1,2.925-0.978,3.599c0.023,0.857,0.735,1.632,2.113,2.297
						c0.596,0.286,0.763,1.089,0.764,1.097l0.166,0.83c0.002,0.012,0.85,0.012,0.85,0.012h6.794v-2.068H29.223z"/>
				</g>
				<g i:knockout="Off">
					<path fill="#189045" d="M30.668,44.762l-6.303-2.615l0.615,1.175c0.039-0.187,0.357-1.854-0.779-3.115
						c-0.606-0.672-0.654-0.989-0.654-0.991c0,0,0.008,0.067-0.03,0.171c0.146-0.256,1.41-1.845,1.777-2.202
						c-0.233,0.229-0.513,0.244-0.591,0.23c0.065,0.012,0.256,0.077,0.396,0.125c0.836,0.288,2.575,0.886,4.058-0.488l-1.435-0.026
						l4.831,4.83l1.463-1.462l-4.832-4.83l-0.703-0.704l-0.73,0.677c-0.535,0.496-1.131,0.342-1.979,0.05
						c-0.562-0.194-1.331-0.459-1.924,0.121c-0.326,0.319-2.044,2.355-2.27,2.955c-0.301,0.808,0.063,1.793,1.086,2.929
						c0.443,0.492,0.293,1.297,0.292,1.305l-0.161,0.828c-0.002,0.012,0.778,0.334,0.778,0.334l6.303,2.615L30.668,44.762z"/>
				</g>
			</g>
			<g i:knockout="Off">
				<g i:knockout="Off">
					<path fill="#189045" d="M34.017,40.393l-4.803-4.804l0.117,1.322c0.108-0.156,1.045-1.57,0.485-3.173
						c-0.299-0.854-0.223-1.164-0.223-1.168c0,0-0.018,0.067-0.096,0.15c0.232-0.181,2.015-1.157,2.494-1.35
						c-0.334,0.133-0.613,0.016-0.687-0.036c0.053,0.036,0.187,0.171,0.285,0.269c0.622,0.619,1.919,1.908,3.854,1.199l-1.311-0.574
						l2.626,6.345l1.91-0.792l-2.627-6.345l-0.378-0.914l-0.932,0.34c-0.603,0.221-0.991-0.033-1.687-0.725
						c-0.402-0.401-1.012-1.007-1.818-0.688c-0.442,0.177-2.792,1.379-3.236,1.852c-0.59,0.625-0.634,1.676-0.129,3.121
						c0.219,0.622-0.231,1.309-0.236,1.316l-0.469,0.703c-0.007,0.01,0.592,0.608,0.592,0.608l4.803,4.804L34.017,40.393z"/>
				</g>
				<g i:knockout="Off">
					<path fill="#189045" d="M38.671,37.782l-2.609-6.305l-0.394,1.265c0.159-0.104,1.564-1.057,1.652-2.753
						c0.046-0.903,0.236-1.161,0.238-1.165c-0.001,0.002-0.042,0.056-0.144,0.101c0.284-0.077,2.301-0.306,2.812-0.298
						c-0.325-0.004-0.532-0.19-0.579-0.256c0.038,0.054,0.127,0.236,0.191,0.369c0.388,0.793,1.194,2.447,3.215,2.522l-0.994-1.033
						v6.832h2.067v-6.832v-0.996l-0.995-0.036c-0.729-0.027-1.042-0.558-1.434-1.364c-0.262-0.534-0.619-1.267-1.447-1.274
						c-0.455-0.005-3.11,0.22-3.694,0.484c-0.785,0.359-1.224,1.314-1.303,2.84c-0.033,0.659-0.71,1.124-0.717,1.128l-0.699,0.473
						c-0.01,0.006,0.312,0.786,0.312,0.786l2.609,6.305L38.671,37.782z"/>
				</g>
			</g>
		</g>
	</g>
</g>
</svg>
