<?xml version="1.0" encoding="utf-8"?>
<!-- Generator: Adobe Illustrator 12.0.0, SVG Export Plug-In . SVG Version: 6.00 Build 51448)  -->
<!DOCTYPE svg PUBLIC "-//W3C//DTD SVG 1.1//EN" "http://www.w3.org/Graphics/SVG/1.1/DTD/svg11.dtd" [
	<!ENTITY ns_flows "http://ns.adobe.com/Flows/1.0/">
	<!ENTITY ns_extend "http://ns.adobe.com/Extensibility/1.0/">
	<!ENTITY ns_ai "http://ns.adobe.com/AdobeIllustrator/10.0/">
	<!ENTITY ns_graphs "http://ns.adobe.com/Graphs/1.0/">
	<!ENTITY ns_vars "http://ns.adobe.com/Variables/1.0/">
	<!ENTITY ns_imrep "http://ns.adobe.com/ImageReplacement/1.0/">
	<!ENTITY ns_sfw "http://ns.adobe.com/SaveForWeb/1.0/">
	<!ENTITY ns_custom "http://ns.adobe.com/GenericCustomNamespace/1.0/">
	<!ENTITY ns_adobe_xpath "http://ns.adobe.com/XPath/1.0/">
	<!ENTITY ns_svg "http://www.w3.org/2000/svg">
	<!ENTITY ns_xlink "http://www.w3.org/1999/xlink">
]>
<svg  version="1.1"
	 xmlns:x="&ns_extend;" xmlns:i="&ns_ai;" xmlns:graph="&ns_graphs;" i:viewOrigin="-0.3193 135.7061" i:rulerOrigin="0 0" i:pageBounds="0 136 85 0"
	 xmlns="&ns_svg;" xmlns:xlink="&ns_xlink;" xmlns:a="http://ns.adobe.com/AdobeSVGViewerExtensions/3.0/"
	 width="85.678" height="136.025" viewBox="0 0 85.678 136.025" overflow="visible" enable-background="new 0 0 85.678 136.025"
	 xml:space="preserve">
<metadata>
	<variableSets  xmlns="http://ns.adobe.com/Variables/1.0/">
		<variableSet  varSetName="binding1" locked="none">
			<variables></variables>
			<v:sampleDataSets  xmlns="http://ns.adobe.com/GenericCustomNamespace/1.0/" xmlns:v="http://ns.adobe.com/Variables/1.0/">
				</v:sampleDataSets>
		</variableSet>
	</variableSets>
</metadata>
<g id="图层_1" i:knockout="Off" i:layer="yes" i:dimmedPercent="50" i:rgbTrio="#4F008000FFFF">
	<g i:knockout="Off">
		<path fill="#333333" d="M2.274,99.465v24.962c0,5.149,3.353,9.325,7.481,9.325h68.118c4.133,0,7.484-4.176,7.484-9.325h-0.002
			V9.216c0-4.344-3.353-7.869-7.482-7.869H9.756c-4.131,0-7.481,3.525-7.481,7.869H2.272v90.229
			C2.272,99.45,2.274,99.458,2.274,99.465z"/>
		
			<linearGradient id="XMLID_3_" gradientUnits="userSpaceOnUse" x1="-22.6704" y1="112.9883" x2="-22.6704" y2="-12.5781" gradientTransform="matrix(1 0 0 1 64.5342 22.7178)">
			<stop  offset="0.0899" style="stop-color:#2089B9"/>
			<stop  offset="0.0985" style="stop-color:#4FA3C2"/>
			<stop  offset="0.1071" style="stop-color:#77B9CA"/>
			<stop  offset="0.1138" style="stop-color:#8FC7CF"/>
			<stop  offset="0.118" style="stop-color:#98CCD1"/>
			<stop  offset="0.1341" style="stop-color:#9ECFD3"/>
			<stop  offset="0.156" style="stop-color:#AFD6D9"/>
			<stop  offset="0.1809" style="stop-color:#CBE1E3"/>
			<stop  offset="0.1966" style="stop-color:#E1EAEB"/>
			<a:midPointStop  offset="0.0899" style="stop-color:#2089B9"/>
			<a:midPointStop  offset="0.5" style="stop-color:#2089B9"/>
			<a:midPointStop  offset="0.0985" style="stop-color:#4FA3C2"/>
			<a:midPointStop  offset="0.5" style="stop-color:#4FA3C2"/>
			<a:midPointStop  offset="0.1071" style="stop-color:#77B9CA"/>
			<a:midPointStop  offset="0.5" style="stop-color:#77B9CA"/>
			<a:midPointStop  offset="0.1138" style="stop-color:#8FC7CF"/>
			<a:midPointStop  offset="0.5" style="stop-color:#8FC7CF"/>
			<a:midPointStop  offset="0.118" style="stop-color:#98CCD1"/>
			<a:midPointStop  offset="0.5" style="stop-color:#98CCD1"/>
			<a:midPointStop  offset="0.1341" style="stop-color:#9ECFD3"/>
			<a:midPointStop  offset="0.5" style="stop-color:#9ECFD3"/>
			<a:midPointStop  offset="0.156" style="stop-color:#AFD6D9"/>
			<a:midPointStop  offset="0.5" style="stop-color:#AFD6D9"/>
			<a:midPointStop  offset="0.1809" style="stop-color:#CBE1E3"/>
			<a:midPointStop  offset="0.5" style="stop-color:#CBE1E3"/>
			<a:midPointStop  offset="0.1966" style="stop-color:#E1EAEB"/>
		</linearGradient>
		<path fill="url(#XMLID_3_)" d="M83.405,126.381c0,5.15-3.353,9.325-7.48,9.325H7.804c-4.131,0-7.482-4.177-7.482-9.325V19.465
			c0-5.148,3.354-9.326,7.482-9.326h68.117c4.133,0,7.482,4.176,7.482,9.326v106.916H83.405z"/>
		<path fill="none" stroke="#333333" stroke-width="0.977" d="M83.405,126.381c0,5.15-3.353,9.325-7.48,9.325H7.804
			c-4.131,0-7.482-4.177-7.482-9.325V19.465c0-5.148,3.354-9.326,7.482-9.326h68.117c4.133,0,7.482,4.176,7.482,9.326v106.916
			H83.405z"/>
		<path fill="#FFFFFF" d="M0.32,11.17c0-4.344,3.354-7.869,7.482-7.869H75.92c4.133,0,7.482,3.523,7.482,7.869v90.229
			c0,4.346-3.353,7.868-7.482,7.868H7.802c-4.131,0-7.482-3.522-7.482-7.87V11.17L0.32,11.17z"/>
		
			<linearGradient id="XMLID_4_" gradientUnits="userSpaceOnUse" x1="4.0215" y1="80.7666" x2="86.165" y2="80.7666" gradientTransform="matrix(-1 0 0 -1 86.9551 137.0508)">
			<stop  offset="0" style="stop-color:#A2D8E0"/>
			<stop  offset="0.0899" style="stop-color:#1878AD"/>
			<stop  offset="0.2135" style="stop-color:#194D91"/>
			<stop  offset="0.6404" style="stop-color:#2B90BD"/>
			<stop  offset="0.9438" style="stop-color:#82CBDE"/>
			<stop  offset="1" style="stop-color:#1A478D"/>
			<a:midPointStop  offset="0" style="stop-color:#A2D8E0"/>
			<a:midPointStop  offset="0.5" style="stop-color:#A2D8E0"/>
			<a:midPointStop  offset="0.0899" style="stop-color:#1878AD"/>
			<a:midPointStop  offset="0.5" style="stop-color:#1878AD"/>
			<a:midPointStop  offset="0.2135" style="stop-color:#194D91"/>
			<a:midPointStop  offset="0.5" style="stop-color:#194D91"/>
			<a:midPointStop  offset="0.6404" style="stop-color:#2B90BD"/>
			<a:midPointStop  offset="0.5" style="stop-color:#2B90BD"/>
			<a:midPointStop  offset="0.9438" style="stop-color:#82CBDE"/>
			<a:midPointStop  offset="0.5" style="stop-color:#82CBDE"/>
			<a:midPointStop  offset="1" style="stop-color:#1A478D"/>
		</linearGradient>
		<path i:isolated="yes" i:knockout="Off" opacity="0.1" fill="url(#XMLID_4_)" enable-background="new    " d="M0.79,11.17
			c0-4.344,3.313-7.869,7.397-7.869h67.347c4.086,0,7.399,3.523,7.399,7.869v90.229c0,4.346-3.313,7.868-7.399,7.868H8.188
			c-4.084,0-7.397-3.522-7.397-7.87L0.79,11.17L0.79,11.17z"/>
		<path fill="none" stroke="#4D4D4D" stroke-width="0.977" d="M0.32,101.419v24.962c0,5.148,3.353,9.325,7.482,9.325h68.12
			c4.131,0,7.48-4.175,7.48-9.325V11.171c0-4.346-3.353-7.869-7.482-7.869H7.803c-4.13,0-7.482,3.525-7.482,7.869L0.32,101.399
			C0.319,101.404,0.32,101.411,0.32,101.419z"/>
	</g>
	<g i:knockout="Off">
		<circle fill="#FFFFFF" cx="29.215" cy="26.863" r="12.756"/>
		<circle fill="#FFFFFF" cx="42.588" cy="50.599" r="12.756"/>
		<circle fill="#FFFFFF" cx="56.463" cy="75.005" r="12.756"/>
		<path fill="#1D8F38" d="M29.215,14.107c-7.043,0-12.756,5.711-12.756,12.757c0,7.044,5.713,12.757,12.756,12.757
			c7.045,0,12.756-5.713,12.756-12.757C41.971,19.818,36.26,14.107,29.215,14.107z M29.215,35.432c-4.73,0-8.569-3.836-8.569-8.568
			c0-4.732,3.839-8.569,8.569-8.569c4.732,0,8.568,3.837,8.568,8.569C37.783,31.596,33.947,35.432,29.215,35.432z M29.215,20.69
			c-3.41,0-6.173,2.763-6.173,6.173c0,3.41,2.763,6.173,6.173,6.173c3.408,0,6.172-2.763,6.172-6.173
			C35.387,23.453,32.623,20.69,29.215,20.69z M29.215,30.826c-2.189,0-3.963-1.774-3.963-3.963s1.773-3.963,3.963-3.963
			c2.188,0,3.963,1.773,3.963,3.963C33.178,29.051,31.402,30.826,29.215,30.826z M29.215,25.154c-0.943,0-1.707,0.764-1.707,1.709
			c0,0.943,0.764,1.707,1.707,1.707c0.943,0,1.707-0.764,1.707-1.707C30.922,25.917,30.158,25.154,29.215,25.154z"/>
		<path fill="#1D8F38" d="M56.463,62.25c-7.045,0-12.756,5.711-12.756,12.757c0,7.045,5.711,12.756,12.756,12.756
			s12.756-5.711,12.756-12.756C69.219,67.96,63.508,62.25,56.463,62.25z M56.463,83.575c-4.731,0-8.57-3.836-8.57-8.568
			c0-4.734,3.839-8.57,8.57-8.57c4.732,0,8.568,3.833,8.568,8.57C65.031,79.739,61.195,83.575,56.463,83.575z M56.463,68.833
			c-3.41,0-6.174,2.764-6.174,6.172c0,3.41,2.764,6.174,6.174,6.174c3.408,0,6.172-2.764,6.172-6.174
			C62.635,71.597,59.871,68.833,56.463,68.833z M56.463,78.97c-2.188,0-3.965-1.774-3.965-3.965c0-2.188,1.775-3.963,3.965-3.963
			c2.188,0,3.963,1.773,3.963,3.963C60.426,77.192,58.65,78.97,56.463,78.97z M56.463,73.296c-0.94,0-1.709,0.766-1.709,1.709
			s0.769,1.707,1.709,1.707c0.941,0,1.707-0.764,1.707-1.707S57.404,73.296,56.463,73.296z"/>
		<path fill="#D90000" d="M42.588,37.843c-7.043,0-12.756,5.713-12.756,12.758s5.713,12.756,12.756,12.756
			c7.045,0,12.756-5.711,12.756-12.756S49.633,37.843,42.588,37.843z M42.588,59.169c-4.73,0-8.568-3.836-8.568-8.568
			s3.838-8.569,8.568-8.569c4.732,0,8.568,3.837,8.568,8.569S47.32,59.169,42.588,59.169z M42.588,44.427
			c-3.41,0-6.174,2.764-6.174,6.174c0,3.408,2.764,6.172,6.174,6.172c3.408,0,6.172-2.764,6.172-6.172
			C48.76,47.191,45.996,44.427,42.588,44.427z M42.588,54.564c-2.189,0-3.963-1.775-3.963-3.963c0-2.189,1.773-3.965,3.963-3.965
			c2.188,0,3.963,1.775,3.963,3.965C46.551,52.789,44.775,54.564,42.588,54.564z M42.588,48.892c-0.943,0-1.707,0.764-1.707,1.709
			c0,0.941,0.764,1.707,1.707,1.707c0.943,0,1.707-0.766,1.707-1.707C44.295,49.656,43.531,48.892,42.588,48.892z"/>
		<path fill="#224899" d="M56.463,62.25c-7.043,0-12.756,5.711-12.756,12.755c0,7.045,5.713,12.758,12.756,12.758
			c7.045,0,12.756-5.713,12.756-12.758S63.508,62.25,56.463,62.25z M56.463,83.573c-4.729,0-8.565-3.836-8.565-8.568
			s3.838-8.568,8.565-8.568c4.732,0,8.568,3.833,8.568,8.568S61.195,83.573,56.463,83.573z M56.463,68.831
			c-3.41,0-6.174,2.764-6.174,6.174s2.764,6.172,6.174,6.172c3.408,0,6.172-2.762,6.172-6.172S59.871,68.831,56.463,68.831z
			 M56.463,78.968c-2.188,0-3.963-1.772-3.963-3.963c0-2.188,1.773-3.963,3.963-3.963c2.188,0,3.963,1.773,3.963,3.963
			C60.426,77.192,58.65,78.968,56.463,78.968z M56.463,73.296c-0.94,0-1.707,0.764-1.707,1.709c0,0.943,0.767,1.707,1.707,1.707
			c0.943,0,1.707-0.764,1.707-1.707C58.17,74.06,57.406,73.296,56.463,73.296z"/>
	</g>
</g>
</svg>
