<?xml version="1.0" encoding="utf-8"?>
<!-- Generator: Adobe Illustrator 12.0.0, SVG Export Plug-In . SVG Version: 6.00 Build 51448)  -->
<!DOCTYPE svg PUBLIC "-//W3C//DTD SVG 1.1//EN" "http://www.w3.org/Graphics/SVG/1.1/DTD/svg11.dtd" [
	<!ENTITY ns_flows "http://ns.adobe.com/Flows/1.0/">
	<!ENTITY ns_extend "http://ns.adobe.com/Extensibility/1.0/">
	<!ENTITY ns_ai "http://ns.adobe.com/AdobeIllustrator/10.0/">
	<!ENTITY ns_graphs "http://ns.adobe.com/Graphs/1.0/">
	<!ENTITY ns_vars "http://ns.adobe.com/Variables/1.0/">
	<!ENTITY ns_imrep "http://ns.adobe.com/ImageReplacement/1.0/">
	<!ENTITY ns_sfw "http://ns.adobe.com/SaveForWeb/1.0/">
	<!ENTITY ns_custom "http://ns.adobe.com/GenericCustomNamespace/1.0/">
	<!ENTITY ns_adobe_xpath "http://ns.adobe.com/XPath/1.0/">
	<!ENTITY ns_svg "http://www.w3.org/2000/svg">
	<!ENTITY ns_xlink "http://www.w3.org/1999/xlink">
]>
<svg  version="1.1"
	 xmlns:x="&ns_extend;" xmlns:i="&ns_ai;" xmlns:graph="&ns_graphs;" i:viewOrigin="-0.3193 135.7061" i:rulerOrigin="0 0" i:pageBounds="0 136 85 0"
	 xmlns="&ns_svg;" xmlns:xlink="&ns_xlink;" xmlns:a="http://ns.adobe.com/AdobeSVGViewerExtensions/3.0/"
	 width="85.678" height="136.025" viewBox="0 0 85.678 136.025" overflow="visible" enable-background="new 0 0 85.678 136.025"
	 xml:space="preserve">
<metadata>
	<variableSets  xmlns="http://ns.adobe.com/Variables/1.0/">
		<variableSet  varSetName="binding1" locked="none">
			<variables></variables>
			<v:sampleDataSets  xmlns="http://ns.adobe.com/GenericCustomNamespace/1.0/" xmlns:v="http://ns.adobe.com/Variables/1.0/">
				</v:sampleDataSets>
		</variableSet>
	</variableSets>
</metadata>
<g id="图层_1" i:knockout="Off" i:layer="yes" i:dimmedPercent="50" i:rgbTrio="#4F008000FFFF">
	<g i:knockout="Off">
		<path fill="#333333" d="M2.274,99.465v24.962c0,5.149,3.353,9.325,7.481,9.325h68.118c4.133,0,7.484-4.176,7.484-9.325h-0.002
			V9.216c0-4.344-3.353-7.869-7.482-7.869H9.756c-4.131,0-7.481,3.525-7.481,7.869H2.272v90.229
			C2.272,99.45,2.274,99.458,2.274,99.465z"/>
		
			<linearGradient id="XMLID_3_" gradientUnits="userSpaceOnUse" x1="-22.6704" y1="112.9883" x2="-22.6704" y2="-12.5781" gradientTransform="matrix(1 0 0 1 64.5342 22.7178)">
			<stop  offset="0.0899" style="stop-color:#2089B9"/>
			<stop  offset="0.0985" style="stop-color:#4FA3C2"/>
			<stop  offset="0.1071" style="stop-color:#77B9CA"/>
			<stop  offset="0.1138" style="stop-color:#8FC7CF"/>
			<stop  offset="0.118" style="stop-color:#98CCD1"/>
			<stop  offset="0.1341" style="stop-color:#9ECFD3"/>
			<stop  offset="0.156" style="stop-color:#AFD6D9"/>
			<stop  offset="0.1809" style="stop-color:#CBE1E3"/>
			<stop  offset="0.1966" style="stop-color:#E1EAEB"/>
			<a:midPointStop  offset="0.0899" style="stop-color:#2089B9"/>
			<a:midPointStop  offset="0.5" style="stop-color:#2089B9"/>
			<a:midPointStop  offset="0.0985" style="stop-color:#4FA3C2"/>
			<a:midPointStop  offset="0.5" style="stop-color:#4FA3C2"/>
			<a:midPointStop  offset="0.1071" style="stop-color:#77B9CA"/>
			<a:midPointStop  offset="0.5" style="stop-color:#77B9CA"/>
			<a:midPointStop  offset="0.1138" style="stop-color:#8FC7CF"/>
			<a:midPointStop  offset="0.5" style="stop-color:#8FC7CF"/>
			<a:midPointStop  offset="0.118" style="stop-color:#98CCD1"/>
			<a:midPointStop  offset="0.5" style="stop-color:#98CCD1"/>
			<a:midPointStop  offset="0.1341" style="stop-color:#9ECFD3"/>
			<a:midPointStop  offset="0.5" style="stop-color:#9ECFD3"/>
			<a:midPointStop  offset="0.156" style="stop-color:#AFD6D9"/>
			<a:midPointStop  offset="0.5" style="stop-color:#AFD6D9"/>
			<a:midPointStop  offset="0.1809" style="stop-color:#CBE1E3"/>
			<a:midPointStop  offset="0.5" style="stop-color:#CBE1E3"/>
			<a:midPointStop  offset="0.1966" style="stop-color:#E1EAEB"/>
		</linearGradient>
		<path fill="url(#XMLID_3_)" d="M83.405,126.381c0,5.15-3.353,9.325-7.48,9.325H7.804c-4.131,0-7.482-4.177-7.482-9.325V19.465
			c0-5.148,3.354-9.326,7.482-9.326h68.117c4.133,0,7.482,4.176,7.482,9.326v106.916H83.405z"/>
		<path fill="none" stroke="#333333" stroke-width="0.977" d="M83.405,126.381c0,5.15-3.353,9.325-7.48,9.325H7.804
			c-4.131,0-7.482-4.177-7.482-9.325V19.465c0-5.148,3.354-9.326,7.482-9.326h68.117c4.133,0,7.482,4.176,7.482,9.326v106.916
			H83.405z"/>
		<path fill="#FFFFFF" d="M0.32,11.17c0-4.344,3.354-7.869,7.482-7.869H75.92c4.133,0,7.482,3.523,7.482,7.869v90.229
			c0,4.346-3.353,7.868-7.482,7.868H7.802c-4.131,0-7.482-3.522-7.482-7.87V11.17L0.32,11.17z"/>
		
			<linearGradient id="XMLID_4_" gradientUnits="userSpaceOnUse" x1="4.0215" y1="80.7666" x2="86.165" y2="80.7666" gradientTransform="matrix(-1 0 0 -1 86.9551 137.0508)">
			<stop  offset="0" style="stop-color:#A2D8E0"/>
			<stop  offset="0.0899" style="stop-color:#1878AD"/>
			<stop  offset="0.2135" style="stop-color:#194D91"/>
			<stop  offset="0.6404" style="stop-color:#2B90BD"/>
			<stop  offset="0.9438" style="stop-color:#82CBDE"/>
			<stop  offset="1" style="stop-color:#1A478D"/>
			<a:midPointStop  offset="0" style="stop-color:#A2D8E0"/>
			<a:midPointStop  offset="0.5" style="stop-color:#A2D8E0"/>
			<a:midPointStop  offset="0.0899" style="stop-color:#1878AD"/>
			<a:midPointStop  offset="0.5" style="stop-color:#1878AD"/>
			<a:midPointStop  offset="0.2135" style="stop-color:#194D91"/>
			<a:midPointStop  offset="0.5" style="stop-color:#194D91"/>
			<a:midPointStop  offset="0.6404" style="stop-color:#2B90BD"/>
			<a:midPointStop  offset="0.5" style="stop-color:#2B90BD"/>
			<a:midPointStop  offset="0.9438" style="stop-color:#82CBDE"/>
			<a:midPointStop  offset="0.5" style="stop-color:#82CBDE"/>
			<a:midPointStop  offset="1" style="stop-color:#1A478D"/>
		</linearGradient>
		<path i:isolated="yes" i:knockout="Off" opacity="0.1" fill="url(#XMLID_4_)" enable-background="new    " d="M0.79,11.17
			c0-4.344,3.313-7.869,7.397-7.869h67.347c4.086,0,7.399,3.523,7.399,7.869v90.229c0,4.346-3.313,7.868-7.399,7.868H8.188
			c-4.084,0-7.397-3.522-7.397-7.87L0.79,11.17L0.79,11.17z"/>
		<path fill="none" stroke="#4D4D4D" stroke-width="0.977" d="M0.32,101.419v24.962c0,5.148,3.353,9.325,7.482,9.325h68.12
			c4.131,0,7.48-4.175,7.48-9.325V11.171c0-4.346-3.353-7.869-7.482-7.869H7.803c-4.13,0-7.482,3.525-7.482,7.869L0.32,101.399
			C0.319,101.404,0.32,101.411,0.32,101.419z"/>
	</g>
	<circle fill="#FFFFFF" cx="29.247" cy="27.017" r="10.771"/>
	<circle fill="#FFFFFF" cx="56.431" cy="27.017" r="10.771"/>
	<circle fill="#FFFFFF" cx="29.247" cy="74.851" r="10.771"/>
	<circle fill="#FFFFFF" cx="56.431" cy="74.851" r="10.771"/>
	<path fill="#224899" d="M56.431,16.246c-5.946,0-10.771,4.822-10.771,10.773c0,5.948,4.824,10.771,10.771,10.771
		c5.949,0,10.771-4.823,10.771-10.771C67.202,21.068,62.38,16.246,56.431,16.246z M56.431,34.254c-3.998,0-7.235-3.239-7.235-7.235
		c0-3.997,3.237-7.237,7.235-7.237c3.996,0,7.234,3.24,7.234,7.237C63.665,31.015,60.427,34.254,56.431,34.254z M56.431,21.804
		c-2.879,0-5.213,2.334-5.213,5.213c0,2.88,2.334,5.213,5.213,5.213s5.211-2.333,5.211-5.213
		C61.642,24.138,59.31,21.804,56.431,21.804z M56.431,30.365c-1.85,0-3.348-1.5-3.348-3.348c0-1.848,1.498-3.346,3.348-3.346
		c1.849,0,3.347,1.498,3.347,3.346C59.777,28.865,58.278,30.365,56.431,30.365z M56.431,25.575c-0.797,0-1.442,0.646-1.442,1.442
		s0.646,1.442,1.442,1.442c0.798,0,1.441-0.646,1.441-1.442S57.229,25.575,56.431,25.575z"/>
	<path fill="#224899" d="M29.247,64.08c-5.947,0-10.771,4.824-10.771,10.772c0,5.947,4.824,10.771,10.771,10.771
		c5.949,0,10.771-4.824,10.771-10.771C40.019,68.903,35.196,64.08,29.247,64.08z M29.247,82.087c-3.998,0-7.236-3.238-7.236-7.234
		c0-3.998,3.238-7.235,7.236-7.235c3.996,0,7.234,3.237,7.234,7.235C36.481,78.849,33.243,82.087,29.247,82.087z M29.247,69.638
		c-2.879,0-5.213,2.334-5.213,5.213s2.334,5.213,5.213,5.213s5.211-2.334,5.211-5.213S32.126,69.638,29.247,69.638z M29.247,78.198
		c-1.85,0-3.348-1.5-3.348-3.349c0-1.848,1.498-3.346,3.348-3.346c1.848,0,3.346,1.498,3.346,3.346
		C32.593,76.698,31.095,78.198,29.247,78.198z M29.247,73.407c-0.797,0-1.443,0.646-1.443,1.442s0.646,1.443,1.443,1.443
		s1.441-0.646,1.441-1.443S30.044,73.407,29.247,73.407z"/>
	<path fill="#1D8F38" d="M29.247,16.246c-5.947,0-10.771,4.822-10.771,10.773c0,5.948,4.824,10.771,10.771,10.771
		c5.949,0,10.771-4.823,10.771-10.771C40.019,21.068,35.196,16.246,29.247,16.246z M29.247,34.254c-3.998,0-7.236-3.239-7.236-7.235
		c0-3.997,3.238-7.237,7.236-7.237c3.996,0,7.234,3.24,7.234,7.237C36.481,31.015,33.243,34.254,29.247,34.254z M29.247,21.804
		c-2.879,0-5.213,2.334-5.213,5.213c0,2.88,2.334,5.213,5.213,5.213s5.211-2.333,5.211-5.213
		C34.458,24.138,32.126,21.804,29.247,21.804z M29.247,30.365c-1.85,0-3.348-1.5-3.348-3.348c0-1.848,1.498-3.346,3.348-3.346
		c1.848,0,3.346,1.498,3.346,3.346C32.593,28.865,31.095,30.365,29.247,30.365z M29.247,25.575c-0.797,0-1.443,0.646-1.443,1.442
		s0.646,1.442,1.443,1.442s1.441-0.646,1.441-1.442S30.044,25.575,29.247,25.575z"/>
	<path fill="#1D8F38" d="M56.431,64.08c-5.946,0-10.771,4.824-10.771,10.772c0,5.947,4.824,10.771,10.771,10.771
		c5.949,0,10.771-4.824,10.771-10.771C67.202,68.903,62.38,64.08,56.431,64.08z M56.431,82.087c-3.998,0-7.235-3.238-7.235-7.234
		c0-3.998,3.237-7.235,7.235-7.235c3.996,0,7.234,3.237,7.234,7.235C63.665,78.849,60.427,82.087,56.431,82.087z M56.431,69.638
		c-2.879,0-5.213,2.334-5.213,5.213s2.334,5.213,5.213,5.213s5.211-2.334,5.211-5.213S59.31,69.638,56.431,69.638z M56.431,78.198
		c-1.85,0-3.348-1.5-3.348-3.349c0-1.848,1.498-3.346,3.348-3.346c1.849,0,3.347,1.498,3.347,3.346
		C59.777,76.698,58.278,78.198,56.431,78.198z M56.431,73.407c-0.797,0-1.442,0.646-1.442,1.442s0.646,1.443,1.442,1.443
		c0.798,0,1.441-0.646,1.441-1.443S57.229,73.407,56.431,73.407z"/>
</g>
</svg>
