<?xml version="1.0" encoding="utf-8"?>
<!-- Generator: Adobe Illustrator 12.0.0, SVG Export Plug-In . SVG Version: 6.00 Build 51448)  -->
<!DOCTYPE svg PUBLIC "-//W3C//DTD SVG 1.1//EN" "http://www.w3.org/Graphics/SVG/1.1/DTD/svg11.dtd" [
	<!ENTITY ns_flows "http://ns.adobe.com/Flows/1.0/">
	<!ENTITY ns_extend "http://ns.adobe.com/Extensibility/1.0/">
	<!ENTITY ns_ai "http://ns.adobe.com/AdobeIllustrator/10.0/">
	<!ENTITY ns_graphs "http://ns.adobe.com/Graphs/1.0/">
	<!ENTITY ns_vars "http://ns.adobe.com/Variables/1.0/">
	<!ENTITY ns_imrep "http://ns.adobe.com/ImageReplacement/1.0/">
	<!ENTITY ns_sfw "http://ns.adobe.com/SaveForWeb/1.0/">
	<!ENTITY ns_custom "http://ns.adobe.com/GenericCustomNamespace/1.0/">
	<!ENTITY ns_adobe_xpath "http://ns.adobe.com/XPath/1.0/">
	<!ENTITY ns_svg "http://www.w3.org/2000/svg">
	<!ENTITY ns_xlink "http://www.w3.org/1999/xlink">
]>
<svg  version="1.1"
	 xmlns:x="&ns_extend;" xmlns:i="&ns_ai;" xmlns:graph="&ns_graphs;" i:viewOrigin="-0.3193 135.7061" i:rulerOrigin="0 0" i:pageBounds="0 136 85 0"
	 xmlns="&ns_svg;" xmlns:xlink="&ns_xlink;" xmlns:a="http://ns.adobe.com/AdobeSVGViewerExtensions/3.0/"
	 width="85.678" height="136.025" viewBox="0 0 85.678 136.025" overflow="visible" enable-background="new 0 0 85.678 136.025"
	 xml:space="preserve">
<metadata>
	<variableSets  xmlns="http://ns.adobe.com/Variables/1.0/">
		<variableSet  varSetName="binding1" locked="none">
			<variables></variables>
			<v:sampleDataSets  xmlns="http://ns.adobe.com/GenericCustomNamespace/1.0/" xmlns:v="http://ns.adobe.com/Variables/1.0/">
				</v:sampleDataSets>
		</variableSet>
	</variableSets>
</metadata>
<g id="图层_1" i:knockout="Off" i:layer="yes" i:dimmedPercent="50" i:rgbTrio="#4F008000FFFF">
	<g i:knockout="Off">
		<path fill="#333333" d="M2.274,99.465v24.962c0,5.149,3.353,9.325,7.481,9.325h68.118c4.133,0,7.484-4.176,7.484-9.325h-0.002
			V9.216c0-4.344-3.353-7.869-7.482-7.869H9.756c-4.131,0-7.481,3.525-7.481,7.869H2.272v90.229
			C2.272,99.45,2.274,99.458,2.274,99.465z"/>
		
			<linearGradient id="XMLID_3_" gradientUnits="userSpaceOnUse" x1="-22.6704" y1="112.9883" x2="-22.6704" y2="-12.5781" gradientTransform="matrix(1 0 0 1 64.5342 22.7178)">
			<stop  offset="0.0899" style="stop-color:#2089B9"/>
			<stop  offset="0.0985" style="stop-color:#4FA3C2"/>
			<stop  offset="0.1071" style="stop-color:#77B9CA"/>
			<stop  offset="0.1138" style="stop-color:#8FC7CF"/>
			<stop  offset="0.118" style="stop-color:#98CCD1"/>
			<stop  offset="0.1341" style="stop-color:#9ECFD3"/>
			<stop  offset="0.156" style="stop-color:#AFD6D9"/>
			<stop  offset="0.1809" style="stop-color:#CBE1E3"/>
			<stop  offset="0.1966" style="stop-color:#E1EAEB"/>
			<a:midPointStop  offset="0.0899" style="stop-color:#2089B9"/>
			<a:midPointStop  offset="0.5" style="stop-color:#2089B9"/>
			<a:midPointStop  offset="0.0985" style="stop-color:#4FA3C2"/>
			<a:midPointStop  offset="0.5" style="stop-color:#4FA3C2"/>
			<a:midPointStop  offset="0.1071" style="stop-color:#77B9CA"/>
			<a:midPointStop  offset="0.5" style="stop-color:#77B9CA"/>
			<a:midPointStop  offset="0.1138" style="stop-color:#8FC7CF"/>
			<a:midPointStop  offset="0.5" style="stop-color:#8FC7CF"/>
			<a:midPointStop  offset="0.118" style="stop-color:#98CCD1"/>
			<a:midPointStop  offset="0.5" style="stop-color:#98CCD1"/>
			<a:midPointStop  offset="0.1341" style="stop-color:#9ECFD3"/>
			<a:midPointStop  offset="0.5" style="stop-color:#9ECFD3"/>
			<a:midPointStop  offset="0.156" style="stop-color:#AFD6D9"/>
			<a:midPointStop  offset="0.5" style="stop-color:#AFD6D9"/>
			<a:midPointStop  offset="0.1809" style="stop-color:#CBE1E3"/>
			<a:midPointStop  offset="0.5" style="stop-color:#CBE1E3"/>
			<a:midPointStop  offset="0.1966" style="stop-color:#E1EAEB"/>
		</linearGradient>
		<path fill="url(#XMLID_3_)" d="M83.405,126.381c0,5.15-3.353,9.325-7.48,9.325H7.804c-4.131,0-7.482-4.177-7.482-9.325V19.465
			c0-5.148,3.354-9.326,7.482-9.326h68.117c4.133,0,7.482,4.176,7.482,9.326v106.916H83.405z"/>
		<path fill="none" stroke="#333333" stroke-width="0.977" d="M83.405,126.381c0,5.15-3.353,9.325-7.48,9.325H7.804
			c-4.131,0-7.482-4.177-7.482-9.325V19.465c0-5.148,3.354-9.326,7.482-9.326h68.117c4.133,0,7.482,4.176,7.482,9.326v106.916
			H83.405z"/>
		<path fill="#FFFFFF" d="M0.32,11.17c0-4.344,3.354-7.869,7.482-7.869H75.92c4.133,0,7.482,3.523,7.482,7.869v90.229
			c0,4.346-3.353,7.868-7.482,7.868H7.802c-4.131,0-7.482-3.522-7.482-7.87V11.17L0.32,11.17z"/>
		
			<linearGradient id="XMLID_4_" gradientUnits="userSpaceOnUse" x1="4.0215" y1="80.7666" x2="86.165" y2="80.7666" gradientTransform="matrix(-1 0 0 -1 86.9551 137.0508)">
			<stop  offset="0" style="stop-color:#A2D8E0"/>
			<stop  offset="0.0899" style="stop-color:#1878AD"/>
			<stop  offset="0.2135" style="stop-color:#194D91"/>
			<stop  offset="0.6404" style="stop-color:#2B90BD"/>
			<stop  offset="0.9438" style="stop-color:#82CBDE"/>
			<stop  offset="1" style="stop-color:#1A478D"/>
			<a:midPointStop  offset="0" style="stop-color:#A2D8E0"/>
			<a:midPointStop  offset="0.5" style="stop-color:#A2D8E0"/>
			<a:midPointStop  offset="0.0899" style="stop-color:#1878AD"/>
			<a:midPointStop  offset="0.5" style="stop-color:#1878AD"/>
			<a:midPointStop  offset="0.2135" style="stop-color:#194D91"/>
			<a:midPointStop  offset="0.5" style="stop-color:#194D91"/>
			<a:midPointStop  offset="0.6404" style="stop-color:#2B90BD"/>
			<a:midPointStop  offset="0.5" style="stop-color:#2B90BD"/>
			<a:midPointStop  offset="0.9438" style="stop-color:#82CBDE"/>
			<a:midPointStop  offset="0.5" style="stop-color:#82CBDE"/>
			<a:midPointStop  offset="1" style="stop-color:#1A478D"/>
		</linearGradient>
		<path i:isolated="yes" i:knockout="Off" opacity="0.1" fill="url(#XMLID_4_)" enable-background="new    " d="M0.79,11.17
			c0-4.344,3.313-7.869,7.397-7.869h67.347c4.086,0,7.399,3.523,7.399,7.869v90.229c0,4.346-3.313,7.868-7.399,7.868H8.188
			c-4.084,0-7.397-3.522-7.397-7.87L0.79,11.17L0.79,11.17z"/>
		<path fill="none" stroke="#4D4D4D" stroke-width="0.977" d="M0.32,101.419v24.962c0,5.148,3.353,9.325,7.482,9.325h68.12
			c4.131,0,7.48-4.175,7.48-9.325V11.171c0-4.346-3.353-7.869-7.482-7.869H7.803c-4.13,0-7.482,3.525-7.482,7.869L0.32,101.399
			C0.319,101.404,0.32,101.411,0.32,101.419z"/>
	</g>
	<g i:knockout="Off">
		<g i:knockout="Off">
			<circle fill="#FFFFFF" cx="31.45" cy="21.208" r="10.771"/>
			<path fill="#1D8F38" d="M31.45,10.437c-5.947,0-10.771,4.822-10.771,10.772c0,5.948,4.824,10.771,10.771,10.771
				c5.949,0,10.771-4.823,10.771-10.771C42.222,15.259,37.399,10.437,31.45,10.437z M31.45,28.445c-3.998,0-7.236-3.239-7.236-7.235
				c0-3.997,3.238-7.236,7.236-7.236c3.996,0,7.234,3.239,7.234,7.236C38.685,25.206,35.446,28.445,31.45,28.445z M31.45,15.996
				c-2.879,0-5.213,2.334-5.213,5.213s2.334,5.213,5.213,5.213c2.879,0,5.211-2.334,5.211-5.213S34.329,15.996,31.45,15.996z
				 M31.45,24.555c-1.85,0-3.348-1.499-3.348-3.347s1.498-3.347,3.348-3.347c1.848,0,3.346,1.499,3.346,3.347
				S33.298,24.555,31.45,24.555z M31.45,19.765c-0.797,0-1.443,0.646-1.443,1.443s0.646,1.441,1.443,1.441
				c0.797,0,1.441-0.645,1.441-1.441S32.247,19.765,31.45,19.765z"/>
		</g>
		<g i:knockout="Off">
			<circle fill="#FFFFFF" cx="54.229" cy="21.208" r="10.771"/>
			<path fill="#1D8F38" d="M54.229,10.436c-5.947,0-10.771,4.823-10.771,10.773c0,5.948,4.824,10.772,10.771,10.772
				c5.948,0,10.771-4.824,10.771-10.772C64.999,15.259,60.177,10.436,54.229,10.436z M54.229,28.445
				c-3.996,0-7.236-3.239-7.236-7.235c0-3.997,3.24-7.237,7.236-7.237c3.995,0,7.233,3.24,7.233,7.237
				C61.462,25.206,58.224,28.445,54.229,28.445z M54.229,15.996c-2.88,0-5.214,2.334-5.214,5.213s2.334,5.213,5.214,5.213
				c2.879,0,5.211-2.334,5.211-5.213S57.106,15.996,54.229,15.996z M54.229,24.555c-1.849,0-3.347-1.499-3.347-3.347
				s1.498-3.347,3.347-3.347c1.85,0,3.348,1.499,3.348,3.347S56.077,24.555,54.229,24.555z M54.229,19.765
				c-0.796,0-1.443,0.646-1.443,1.443s0.647,1.441,1.443,1.441c0.797,0,1.442-0.645,1.442-1.441S55.024,19.765,54.229,19.765z"/>
		</g>
		<g i:knockout="Off">
			<circle fill="#FFFFFF" cx="31.45" cy="58.685" r="10.771"/>
			<path fill="#D90000" d="M31.45,47.91c-5.947,0-10.771,4.824-10.771,10.773c0,5.949,4.824,10.773,10.771,10.773
				c5.949,0,10.771-4.824,10.771-10.773C42.221,52.734,37.399,47.91,31.45,47.91z M31.45,65.919c-3.998,0-7.236-3.24-7.236-7.236
				c0-3.994,3.238-7.236,7.236-7.236c3.996,0,7.234,3.242,7.234,7.236C38.685,62.679,35.446,65.919,31.45,65.919z M31.45,53.47
				c-2.879,0-5.213,2.334-5.213,5.213c0,2.879,2.334,5.213,5.213,5.213c2.879,0,5.211-2.334,5.211-5.213
				C36.661,55.804,34.329,53.47,31.45,53.47z M31.45,62.031c-1.85,0-3.348-1.5-3.348-3.348c0-1.848,1.498-3.346,3.348-3.346
				c1.848,0,3.346,1.498,3.346,3.346C34.796,60.531,33.298,62.031,31.45,62.031z M31.45,57.24c-0.797,0-1.443,0.646-1.443,1.443
				c0,0.797,0.646,1.441,1.443,1.441c0.797,0,1.441-0.645,1.441-1.441C32.891,57.887,32.247,57.24,31.45,57.24z"/>
		</g>
		<g i:knockout="Off">
			<circle fill="#FFFFFF" cx="54.229" cy="58.685" r="10.771"/>
			<path fill="#D90000" d="M54.229,47.91c-5.947,0-10.771,4.824-10.771,10.773c0,5.949,4.824,10.773,10.771,10.773
				c5.948,0,10.771-4.824,10.771-10.773C64.999,52.734,60.177,47.91,54.229,47.91z M54.229,65.919c-3.996,0-7.236-3.238-7.236-7.236
				c0-3.996,3.24-7.236,7.236-7.236c3.995,0,7.233,3.24,7.233,7.236C61.462,62.681,58.224,65.919,54.229,65.919z M54.229,53.47
				c-2.88,0-5.214,2.334-5.214,5.213c0,2.879,2.334,5.213,5.214,5.213c2.879,0,5.211-2.334,5.211-5.213
				C59.439,55.804,57.106,53.47,54.229,53.47z M54.229,62.031c-1.849,0-3.347-1.5-3.347-3.348c0-1.848,1.498-3.346,3.347-3.346
				c1.85,0,3.348,1.498,3.348,3.346C57.576,60.531,56.077,62.031,54.229,62.031z M54.229,57.24c-0.796,0-1.443,0.646-1.443,1.443
				c0,0.797,0.647,1.441,1.443,1.441c0.797,0,1.442-0.645,1.442-1.441C55.671,57.887,55.024,57.24,54.229,57.24z"/>
		</g>
		<g i:knockout="Off">
			<circle fill="#FFFFFF" cx="31.45" cy="80.661" r="10.771"/>
			<path fill="#D90000" d="M31.45,69.888c-5.947,0-10.771,4.824-10.771,10.773c0,5.947,4.824,10.771,10.771,10.771
				c5.949,0,10.771-4.823,10.771-10.771C42.222,74.712,37.399,69.888,31.45,69.888z M31.45,87.896c-3.998,0-7.236-3.237-7.236-7.233
				s3.238-7.236,7.236-7.236c3.996,0,7.234,3.24,7.234,7.236S35.446,87.896,31.45,87.896z M31.45,75.446
				c-2.879,0-5.213,2.334-5.213,5.213s2.334,5.213,5.213,5.213c2.879,0,5.211-2.334,5.211-5.213S34.329,75.446,31.45,75.446z
				 M31.45,84.007c-1.85,0-3.348-1.5-3.348-3.348c0-1.849,1.498-3.347,3.348-3.347c1.848,0,3.346,1.498,3.346,3.347
				C34.796,82.507,33.298,84.007,31.45,84.007z M31.45,79.216c-0.797,0-1.443,0.646-1.443,1.443s0.646,1.442,1.443,1.442
				c0.797,0,1.441-0.646,1.441-1.442S32.247,79.216,31.45,79.216z"/>
		</g>
		<g i:knockout="Off">
			<circle fill="#FFFFFF" cx="54.229" cy="80.661" r="10.771"/>
			<path fill="#D90000" d="M54.229,69.888c-5.947,0-10.771,4.824-10.771,10.773c0,5.947,4.824,10.771,10.771,10.771
				c5.948,0,10.771-4.823,10.771-10.771C64.999,74.712,60.177,69.888,54.229,69.888z M54.229,87.896
				c-3.996,0-7.236-3.237-7.236-7.233c0-3.998,3.24-7.236,7.236-7.236c3.995,0,7.233,3.238,7.233,7.236
				C61.462,84.657,58.224,87.896,54.229,87.896z M54.229,75.446c-2.88,0-5.214,2.334-5.214,5.213s2.334,5.213,5.214,5.213
				c2.879,0,5.211-2.334,5.211-5.213S57.106,75.446,54.229,75.446z M54.229,84.007c-1.849,0-3.347-1.5-3.347-3.348
				c0-1.849,1.498-3.347,3.347-3.347c1.85,0,3.348,1.498,3.348,3.347C57.576,82.507,56.077,84.007,54.229,84.007z M54.229,79.216
				c-0.796,0-1.443,0.646-1.443,1.443s0.647,1.442,1.443,1.442c0.797,0,1.442-0.646,1.442-1.442S55.024,79.216,54.229,79.216z"/>
		</g>
	</g>
</g>
</svg>
