<?xml version="1.0" encoding="utf-8"?>
<!-- Generator: Adobe Illustrator 12.0.0, SVG Export Plug-In . SVG Version: 6.00 Build 51448)  -->
<!DOCTYPE svg PUBLIC "-//W3C//DTD SVG 1.1//EN" "http://www.w3.org/Graphics/SVG/1.1/DTD/svg11.dtd" [
	<!ENTITY ns_flows "http://ns.adobe.com/Flows/1.0/">
	<!ENTITY ns_extend "http://ns.adobe.com/Extensibility/1.0/">
	<!ENTITY ns_ai "http://ns.adobe.com/AdobeIllustrator/10.0/">
	<!ENTITY ns_graphs "http://ns.adobe.com/Graphs/1.0/">
	<!ENTITY ns_vars "http://ns.adobe.com/Variables/1.0/">
	<!ENTITY ns_imrep "http://ns.adobe.com/ImageReplacement/1.0/">
	<!ENTITY ns_sfw "http://ns.adobe.com/SaveForWeb/1.0/">
	<!ENTITY ns_custom "http://ns.adobe.com/GenericCustomNamespace/1.0/">
	<!ENTITY ns_adobe_xpath "http://ns.adobe.com/XPath/1.0/">
	<!ENTITY ns_svg "http://www.w3.org/2000/svg">
	<!ENTITY ns_xlink "http://www.w3.org/1999/xlink">
]>
<svg  version="1.1"
	 xmlns:x="&ns_extend;" xmlns:i="&ns_ai;" xmlns:graph="&ns_graphs;" i:viewOrigin="-0.3193 135.7061" i:rulerOrigin="0 0" i:pageBounds="0 136 85 0"
	 xmlns="&ns_svg;" xmlns:xlink="&ns_xlink;" xmlns:a="http://ns.adobe.com/AdobeSVGViewerExtensions/3.0/"
	 width="85.678" height="136.025" viewBox="0 0 85.678 136.025" overflow="visible" enable-background="new 0 0 85.678 136.025"
	 xml:space="preserve">
<metadata>
	<variableSets  xmlns="http://ns.adobe.com/Variables/1.0/">
		<variableSet  varSetName="binding1" locked="none">
			<variables></variables>
			<v:sampleDataSets  xmlns="http://ns.adobe.com/GenericCustomNamespace/1.0/" xmlns:v="http://ns.adobe.com/Variables/1.0/">
				</v:sampleDataSets>
		</variableSet>
	</variableSets>
</metadata>
<g id="图层_1" i:knockout="Off" i:layer="yes" i:dimmedPercent="50" i:rgbTrio="#4F008000FFFF">
	<g i:knockout="Off">
		<path fill="#333333" d="M2.274,99.465v24.962c0,5.149,3.353,9.325,7.481,9.325h68.118c4.133,0,7.484-4.176,7.484-9.325h-0.002
			V9.216c0-4.344-3.353-7.869-7.482-7.869H9.756c-4.131,0-7.481,3.525-7.481,7.869H2.272v90.229
			C2.272,99.45,2.274,99.458,2.274,99.465z"/>
		
			<linearGradient id="XMLID_3_" gradientUnits="userSpaceOnUse" x1="-22.6704" y1="112.9883" x2="-22.6704" y2="-12.5781" gradientTransform="matrix(1 0 0 1 64.5342 22.7178)">
			<stop  offset="0.0899" style="stop-color:#2089B9"/>
			<stop  offset="0.0985" style="stop-color:#4FA3C2"/>
			<stop  offset="0.1071" style="stop-color:#77B9CA"/>
			<stop  offset="0.1138" style="stop-color:#8FC7CF"/>
			<stop  offset="0.118" style="stop-color:#98CCD1"/>
			<stop  offset="0.1341" style="stop-color:#9ECFD3"/>
			<stop  offset="0.156" style="stop-color:#AFD6D9"/>
			<stop  offset="0.1809" style="stop-color:#CBE1E3"/>
			<stop  offset="0.1966" style="stop-color:#E1EAEB"/>
			<a:midPointStop  offset="0.0899" style="stop-color:#2089B9"/>
			<a:midPointStop  offset="0.5" style="stop-color:#2089B9"/>
			<a:midPointStop  offset="0.0985" style="stop-color:#4FA3C2"/>
			<a:midPointStop  offset="0.5" style="stop-color:#4FA3C2"/>
			<a:midPointStop  offset="0.1071" style="stop-color:#77B9CA"/>
			<a:midPointStop  offset="0.5" style="stop-color:#77B9CA"/>
			<a:midPointStop  offset="0.1138" style="stop-color:#8FC7CF"/>
			<a:midPointStop  offset="0.5" style="stop-color:#8FC7CF"/>
			<a:midPointStop  offset="0.118" style="stop-color:#98CCD1"/>
			<a:midPointStop  offset="0.5" style="stop-color:#98CCD1"/>
			<a:midPointStop  offset="0.1341" style="stop-color:#9ECFD3"/>
			<a:midPointStop  offset="0.5" style="stop-color:#9ECFD3"/>
			<a:midPointStop  offset="0.156" style="stop-color:#AFD6D9"/>
			<a:midPointStop  offset="0.5" style="stop-color:#AFD6D9"/>
			<a:midPointStop  offset="0.1809" style="stop-color:#CBE1E3"/>
			<a:midPointStop  offset="0.5" style="stop-color:#CBE1E3"/>
			<a:midPointStop  offset="0.1966" style="stop-color:#E1EAEB"/>
		</linearGradient>
		<path fill="url(#XMLID_3_)" d="M83.405,126.381c0,5.15-3.353,9.325-7.48,9.325H7.804c-4.131,0-7.482-4.177-7.482-9.325V19.465
			c0-5.148,3.354-9.326,7.482-9.326h68.117c4.133,0,7.482,4.176,7.482,9.326v106.916H83.405z"/>
		<path fill="none" stroke="#333333" stroke-width="0.977" d="M83.405,126.381c0,5.15-3.353,9.325-7.48,9.325H7.804
			c-4.131,0-7.482-4.177-7.482-9.325V19.465c0-5.148,3.354-9.326,7.482-9.326h68.117c4.133,0,7.482,4.176,7.482,9.326v106.916
			H83.405z"/>
		<path fill="#FFFFFF" d="M0.32,11.17c0-4.344,3.354-7.869,7.482-7.869H75.92c4.133,0,7.482,3.523,7.482,7.869v90.229
			c0,4.346-3.353,7.868-7.482,7.868H7.802c-4.131,0-7.482-3.522-7.482-7.87V11.17L0.32,11.17z"/>
		
			<linearGradient id="XMLID_4_" gradientUnits="userSpaceOnUse" x1="4.0215" y1="80.7666" x2="86.165" y2="80.7666" gradientTransform="matrix(-1 0 0 -1 86.9551 137.0508)">
			<stop  offset="0" style="stop-color:#A2D8E0"/>
			<stop  offset="0.0899" style="stop-color:#1878AD"/>
			<stop  offset="0.2135" style="stop-color:#194D91"/>
			<stop  offset="0.6404" style="stop-color:#2B90BD"/>
			<stop  offset="0.9438" style="stop-color:#82CBDE"/>
			<stop  offset="1" style="stop-color:#1A478D"/>
			<a:midPointStop  offset="0" style="stop-color:#A2D8E0"/>
			<a:midPointStop  offset="0.5" style="stop-color:#A2D8E0"/>
			<a:midPointStop  offset="0.0899" style="stop-color:#1878AD"/>
			<a:midPointStop  offset="0.5" style="stop-color:#1878AD"/>
			<a:midPointStop  offset="0.2135" style="stop-color:#194D91"/>
			<a:midPointStop  offset="0.5" style="stop-color:#194D91"/>
			<a:midPointStop  offset="0.6404" style="stop-color:#2B90BD"/>
			<a:midPointStop  offset="0.5" style="stop-color:#2B90BD"/>
			<a:midPointStop  offset="0.9438" style="stop-color:#82CBDE"/>
			<a:midPointStop  offset="0.5" style="stop-color:#82CBDE"/>
			<a:midPointStop  offset="1" style="stop-color:#1A478D"/>
		</linearGradient>
		<path i:isolated="yes" i:knockout="Off" opacity="0.1" fill="url(#XMLID_4_)" enable-background="new    " d="M0.79,11.17
			c0-4.344,3.313-7.869,7.397-7.869h67.347c4.086,0,7.399,3.523,7.399,7.869v90.229c0,4.346-3.313,7.868-7.399,7.868H8.188
			c-4.084,0-7.397-3.522-7.397-7.87L0.79,11.17L0.79,11.17z"/>
		<path fill="none" stroke="#4D4D4D" stroke-width="0.977" d="M0.32,101.419v24.962c0,5.148,3.353,9.325,7.482,9.325h68.12
			c4.131,0,7.48-4.175,7.48-9.325V11.171c0-4.346-3.353-7.869-7.482-7.869H7.803c-4.13,0-7.482,3.525-7.482,7.869L0.32,101.399
			C0.319,101.404,0.32,101.411,0.32,101.419z"/>
	</g>
	<circle fill="#FFFFFF" cx="23.741" cy="20.958" r="10.771"/>
	<circle fill="#FFFFFF" cx="42.658" cy="29.11" r="10.771"/>
	<circle fill="#FFFFFF" cx="61.938" cy="35.888" r="10.771"/>
	<circle fill="#FFFFFF" cx="31.674" cy="60.117" r="10.771"/>
	<circle fill="#FFFFFF" cx="53.283" cy="60.117" r="10.771"/>
	<circle fill="#FFFFFF" cx="31.674" cy="80.911" r="10.771"/>
	<circle fill="#FFFFFF" cx="53.283" cy="80.911" r="10.771"/>
	<path fill="#D90000" d="M31.673,49.344c-5.948,0-10.771,4.823-10.771,10.772c0,5.949,4.822,10.771,10.771,10.771
		c5.949,0,10.772-4.822,10.772-10.771C42.445,54.167,37.621,49.344,31.673,49.344z M31.673,67.353c-3.996,0-7.235-3.24-7.235-7.236
		c0-3.996,3.239-7.236,7.235-7.236c3.996,0,7.235,3.24,7.235,7.236C38.908,64.113,35.669,67.353,31.673,67.353z M31.673,54.902
		c-2.878,0-5.212,2.334-5.212,5.215c0,2.879,2.334,5.213,5.212,5.213c2.88,0,5.214-2.334,5.214-5.213
		C36.887,57.236,34.553,54.902,31.673,54.902z M31.673,63.462c-1.847,0-3.347-1.498-3.347-3.346c0-1.85,1.5-3.348,3.347-3.348
		c1.849,0,3.347,1.498,3.347,3.348C35.02,61.964,33.521,63.462,31.673,63.462z M31.673,58.671c-0.797,0-1.442,0.646-1.442,1.445
		c0,0.797,0.646,1.441,1.442,1.441c0.796,0,1.441-0.645,1.441-1.441C33.114,59.318,32.47,58.671,31.673,58.671z"/>
	<path fill="#D90000" d="M53.282,49.344c-5.948,0-10.771,4.823-10.771,10.772c0,5.949,4.822,10.771,10.771,10.771
		s10.771-4.822,10.771-10.771C64.054,54.167,59.23,49.344,53.282,49.344z M53.282,67.353c-3.996,0-7.235-3.24-7.235-7.236
		c0-3.996,3.239-7.236,7.235-7.236s7.234,3.24,7.234,7.236C60.517,64.113,57.278,67.353,53.282,67.353z M53.282,54.902
		c-2.878,0-5.212,2.334-5.212,5.215c0,2.879,2.334,5.213,5.212,5.213c2.88,0,5.214-2.334,5.214-5.213
		C58.496,57.236,56.162,54.902,53.282,54.902z M53.282,63.462c-1.848,0-3.348-1.498-3.348-3.346c0-1.85,1.5-3.348,3.348-3.348
		c1.849,0,3.347,1.498,3.347,3.348C56.629,61.964,55.131,63.462,53.282,63.462z M53.282,58.671c-0.797,0-1.442,0.646-1.442,1.445
		c0,0.797,0.646,1.441,1.442,1.441s1.44-0.645,1.44-1.441C54.724,59.318,54.079,58.671,53.282,58.671z"/>
	<path fill="#D90000" d="M31.673,70.14c-5.948,0-10.771,4.822-10.771,10.771s4.822,10.771,10.771,10.771
		c5.949,0,10.772-4.821,10.772-10.771S37.621,70.14,31.673,70.14z M31.673,88.146c-3.996,0-7.235-3.237-7.235-7.235
		c0-3.996,3.239-7.236,7.235-7.236c3.996,0,7.235,3.24,7.235,7.236C38.908,84.909,35.669,88.146,31.673,88.146z M31.673,75.698
		c-2.878,0-5.212,2.334-5.212,5.213s2.334,5.213,5.212,5.213c2.88,0,5.214-2.334,5.214-5.213S34.553,75.698,31.673,75.698z
		 M31.673,84.257c-1.847,0-3.347-1.498-3.347-3.346c0-1.849,1.5-3.349,3.347-3.349c1.849,0,3.347,1.5,3.347,3.349
		C35.02,82.759,33.521,84.257,31.673,84.257z M31.673,79.468c-0.797,0-1.442,0.646-1.442,1.443c0,0.797,0.646,1.44,1.442,1.44
		c0.796,0,1.441-0.645,1.441-1.44C33.114,80.112,32.47,79.468,31.673,79.468z"/>
	<path fill="#D90000" d="M53.282,70.14c-5.948,0-10.771,4.822-10.771,10.771s4.822,10.771,10.771,10.771s10.771-4.821,10.771-10.771
		S59.23,70.14,53.282,70.14z M53.282,88.146c-3.996,0-7.235-3.237-7.235-7.235c0-3.996,3.239-7.236,7.235-7.236
		s7.234,3.24,7.234,7.236C60.518,84.909,57.278,88.146,53.282,88.146z M53.282,75.698c-2.878,0-5.212,2.334-5.212,5.213
		s2.334,5.213,5.212,5.213c2.88,0,5.214-2.334,5.214-5.213S56.162,75.698,53.282,75.698z M53.282,84.257
		c-1.848,0-3.348-1.498-3.348-3.346c0-1.849,1.5-3.349,3.348-3.349c1.849,0,3.347,1.5,3.347,3.349
		C56.629,82.759,55.131,84.257,53.282,84.257z M53.282,79.468c-0.797,0-1.442,0.646-1.442,1.443c0,0.797,0.646,1.44,1.442,1.44
		s1.44-0.645,1.44-1.44C54.724,80.112,54.079,79.468,53.282,79.468z"/>
	<path fill="#1D8F38" d="M27.377,10.824c-5.598-2.009-11.763,0.9-13.772,6.5c-2.007,5.598,0.902,11.764,6.499,13.771
		c5.598,2.008,11.765-0.9,13.774-6.498C35.887,18.998,32.974,12.832,27.377,10.824z M30.548,23.404
		c-1.349,3.76-5.49,5.714-9.251,4.365c-3.759-1.35-5.714-5.492-4.364-9.252c1.349-3.76,5.49-5.717,9.251-4.367
		C29.945,15.5,31.897,19.644,30.548,23.404z M25.5,16.054c-2.708-0.971-5.69,0.438-6.663,3.145c-0.973,2.71,0.435,5.693,3.144,6.665
		c2.71,0.974,5.694-0.435,6.667-3.146C29.618,20.011,28.211,17.027,25.5,16.054z M26.891,22.089
		c-0.626,1.738-2.54,2.643-4.279,2.018c-1.739-0.623-2.645-2.539-2.02-4.279c0.624-1.738,2.54-2.643,4.279-2.018
		C26.61,18.434,27.514,20.35,26.891,22.089z M24.228,19.601c-0.748-0.268-1.574,0.121-1.843,0.87
		c-0.27,0.749,0.119,1.575,0.87,1.844c0.748,0.269,1.574-0.12,1.843-0.87C25.365,20.696,24.977,19.871,24.228,19.601z"/>
	<path fill="#1D8F38" d="M46.295,18.974c-5.598-2.008-11.763,0.9-13.772,6.5c-2.01,5.598,0.899,11.764,6.497,13.772
		c5.598,2.008,11.767-0.899,13.774-6.497C54.804,27.15,51.893,20.983,46.295,18.974z M49.466,31.554
		c-1.351,3.76-5.492,5.715-9.253,4.365c-3.759-1.349-5.713-5.491-4.364-9.252c1.348-3.76,5.492-5.715,9.25-4.365
		C48.86,23.65,50.814,27.794,49.466,31.554z M44.416,24.207c-2.706-0.973-5.69,0.436-6.661,3.143
		c-0.973,2.711,0.435,5.695,3.143,6.666c2.711,0.973,5.693-0.436,6.667-3.146C48.534,28.162,47.127,25.177,44.416,24.207z
		 M45.807,30.24c-0.624,1.74-2.54,2.643-4.279,2.02c-1.737-0.624-2.643-2.54-2.018-4.279c0.622-1.738,2.54-2.643,4.277-2.02
		C45.528,26.584,46.432,28.501,45.807,30.24z M43.144,27.753c-0.748-0.27-1.574,0.12-1.843,0.869
		c-0.268,0.75,0.121,1.574,0.87,1.844c0.75,0.269,1.574-0.121,1.845-0.87C44.283,28.847,43.896,28.021,43.144,27.753z"/>
	<path fill="#1D8F38" d="M65.574,25.751c-5.599-2.009-11.764,0.9-13.772,6.5c-2.01,5.598,0.901,11.764,6.497,13.772
		c5.601,2.009,11.768-0.9,13.774-6.497C74.083,33.927,71.172,27.759,65.574,25.751z M68.745,38.332
		c-1.35,3.76-5.49,5.715-9.253,4.365c-3.759-1.35-5.713-5.491-4.364-9.252c1.351-3.76,5.492-5.715,9.253-4.367
		C68.14,30.427,70.096,34.571,68.745,38.332z M63.698,30.982c-2.709-0.972-5.693,0.437-6.664,3.145
		c-0.975,2.711,0.435,5.695,3.143,6.666c2.711,0.973,5.695-0.436,6.666-3.146C67.814,34.939,66.406,31.955,63.698,30.982z
		 M65.086,37.017c-0.624,1.74-2.538,2.643-4.279,2.019c-1.736-0.624-2.643-2.539-2.018-4.278c0.622-1.738,2.54-2.645,4.279-2.02
		C64.808,33.362,65.709,35.279,65.086,37.017z M62.425,34.529c-0.75-0.268-1.576,0.122-1.845,0.871
		c-0.268,0.75,0.121,1.574,0.87,1.844c0.75,0.27,1.576-0.121,1.845-0.871C63.562,35.625,63.174,34.798,62.425,34.529z"/>
</g>
</svg>
