<?xml version="1.0" encoding="utf-8"?>
<!-- Generator: Adobe Illustrator 12.0.0, SVG Export Plug-In . SVG Version: 6.00 Build 51448)  -->
<!DOCTYPE svg PUBLIC "-//W3C//DTD SVG 1.1//EN" "http://www.w3.org/Graphics/SVG/1.1/DTD/svg11.dtd" [
	<!ENTITY ns_flows "http://ns.adobe.com/Flows/1.0/">
	<!ENTITY ns_extend "http://ns.adobe.com/Extensibility/1.0/">
	<!ENTITY ns_ai "http://ns.adobe.com/AdobeIllustrator/10.0/">
	<!ENTITY ns_graphs "http://ns.adobe.com/Graphs/1.0/">
	<!ENTITY ns_vars "http://ns.adobe.com/Variables/1.0/">
	<!ENTITY ns_imrep "http://ns.adobe.com/ImageReplacement/1.0/">
	<!ENTITY ns_sfw "http://ns.adobe.com/SaveForWeb/1.0/">
	<!ENTITY ns_custom "http://ns.adobe.com/GenericCustomNamespace/1.0/">
	<!ENTITY ns_adobe_xpath "http://ns.adobe.com/XPath/1.0/">
	<!ENTITY ns_svg "http://www.w3.org/2000/svg">
	<!ENTITY ns_xlink "http://www.w3.org/1999/xlink">
]>
<svg  version="1.1"
	 xmlns:x="&ns_extend;" xmlns:i="&ns_ai;" xmlns:graph="&ns_graphs;" i:viewOrigin="-0.3193 135.7061" i:rulerOrigin="0 0" i:pageBounds="0 136 85 0"
	 xmlns="&ns_svg;" xmlns:xlink="&ns_xlink;" xmlns:a="http://ns.adobe.com/AdobeSVGViewerExtensions/3.0/"
	 width="85.678" height="136.025" viewBox="0 0 85.678 136.025" overflow="visible" enable-background="new 0 0 85.678 136.025"
	 xml:space="preserve">
<metadata>
	<variableSets  xmlns="http://ns.adobe.com/Variables/1.0/">
		<variableSet  varSetName="binding1" locked="none">
			<variables></variables>
			<v:sampleDataSets  xmlns="http://ns.adobe.com/GenericCustomNamespace/1.0/" xmlns:v="http://ns.adobe.com/Variables/1.0/">
				</v:sampleDataSets>
		</variableSet>
	</variableSets>
</metadata>
<g id="图层_1" i:knockout="Off" i:layer="yes" i:dimmedPercent="50" i:rgbTrio="#4F008000FFFF">
	<g i:knockout="Off">
		<path fill="#333333" d="M2.274,99.465v24.962c0,5.149,3.353,9.325,7.481,9.325h68.118c4.133,0,7.484-4.176,7.484-9.325h-0.002
			V9.216c0-4.344-3.353-7.869-7.482-7.869H9.756c-4.131,0-7.481,3.525-7.481,7.869H2.272v90.229
			C2.272,99.45,2.274,99.458,2.274,99.465z"/>
		
			<linearGradient id="XMLID_3_" gradientUnits="userSpaceOnUse" x1="-22.6704" y1="112.9883" x2="-22.6704" y2="-12.5781" gradientTransform="matrix(1 0 0 1 64.5342 22.7178)">
			<stop  offset="0.0899" style="stop-color:#2089B9"/>
			<stop  offset="0.0985" style="stop-color:#4FA3C2"/>
			<stop  offset="0.1071" style="stop-color:#77B9CA"/>
			<stop  offset="0.1138" style="stop-color:#8FC7CF"/>
			<stop  offset="0.118" style="stop-color:#98CCD1"/>
			<stop  offset="0.1341" style="stop-color:#9ECFD3"/>
			<stop  offset="0.156" style="stop-color:#AFD6D9"/>
			<stop  offset="0.1809" style="stop-color:#CBE1E3"/>
			<stop  offset="0.1966" style="stop-color:#E1EAEB"/>
			<a:midPointStop  offset="0.0899" style="stop-color:#2089B9"/>
			<a:midPointStop  offset="0.5" style="stop-color:#2089B9"/>
			<a:midPointStop  offset="0.0985" style="stop-color:#4FA3C2"/>
			<a:midPointStop  offset="0.5" style="stop-color:#4FA3C2"/>
			<a:midPointStop  offset="0.1071" style="stop-color:#77B9CA"/>
			<a:midPointStop  offset="0.5" style="stop-color:#77B9CA"/>
			<a:midPointStop  offset="0.1138" style="stop-color:#8FC7CF"/>
			<a:midPointStop  offset="0.5" style="stop-color:#8FC7CF"/>
			<a:midPointStop  offset="0.118" style="stop-color:#98CCD1"/>
			<a:midPointStop  offset="0.5" style="stop-color:#98CCD1"/>
			<a:midPointStop  offset="0.1341" style="stop-color:#9ECFD3"/>
			<a:midPointStop  offset="0.5" style="stop-color:#9ECFD3"/>
			<a:midPointStop  offset="0.156" style="stop-color:#AFD6D9"/>
			<a:midPointStop  offset="0.5" style="stop-color:#AFD6D9"/>
			<a:midPointStop  offset="0.1809" style="stop-color:#CBE1E3"/>
			<a:midPointStop  offset="0.5" style="stop-color:#CBE1E3"/>
			<a:midPointStop  offset="0.1966" style="stop-color:#E1EAEB"/>
		</linearGradient>
		<path fill="url(#XMLID_3_)" d="M83.405,126.381c0,5.15-3.353,9.325-7.48,9.325H7.804c-4.131,0-7.482-4.177-7.482-9.325V19.465
			c0-5.148,3.354-9.326,7.482-9.326h68.117c4.133,0,7.482,4.176,7.482,9.326v106.916H83.405z"/>
		<path fill="none" stroke="#333333" stroke-width="0.977" d="M83.405,126.381c0,5.15-3.353,9.325-7.48,9.325H7.804
			c-4.131,0-7.482-4.177-7.482-9.325V19.465c0-5.148,3.354-9.326,7.482-9.326h68.117c4.133,0,7.482,4.176,7.482,9.326v106.916
			H83.405z"/>
		<path fill="#FFFFFF" d="M0.32,11.17c0-4.344,3.354-7.869,7.482-7.869H75.92c4.133,0,7.482,3.523,7.482,7.869v90.229
			c0,4.346-3.353,7.868-7.482,7.868H7.802c-4.131,0-7.482-3.522-7.482-7.87V11.17L0.32,11.17z"/>
		
			<linearGradient id="XMLID_4_" gradientUnits="userSpaceOnUse" x1="4.0215" y1="80.7666" x2="86.165" y2="80.7666" gradientTransform="matrix(-1 0 0 -1 86.9551 137.0508)">
			<stop  offset="0" style="stop-color:#A2D8E0"/>
			<stop  offset="0.0899" style="stop-color:#1878AD"/>
			<stop  offset="0.2135" style="stop-color:#194D91"/>
			<stop  offset="0.6404" style="stop-color:#2B90BD"/>
			<stop  offset="0.9438" style="stop-color:#82CBDE"/>
			<stop  offset="1" style="stop-color:#1A478D"/>
			<a:midPointStop  offset="0" style="stop-color:#A2D8E0"/>
			<a:midPointStop  offset="0.5" style="stop-color:#A2D8E0"/>
			<a:midPointStop  offset="0.0899" style="stop-color:#1878AD"/>
			<a:midPointStop  offset="0.5" style="stop-color:#1878AD"/>
			<a:midPointStop  offset="0.2135" style="stop-color:#194D91"/>
			<a:midPointStop  offset="0.5" style="stop-color:#194D91"/>
			<a:midPointStop  offset="0.6404" style="stop-color:#2B90BD"/>
			<a:midPointStop  offset="0.5" style="stop-color:#2B90BD"/>
			<a:midPointStop  offset="0.9438" style="stop-color:#82CBDE"/>
			<a:midPointStop  offset="0.5" style="stop-color:#82CBDE"/>
			<a:midPointStop  offset="1" style="stop-color:#1A478D"/>
		</linearGradient>
		<path i:isolated="yes" i:knockout="Off" opacity="0.1" fill="url(#XMLID_4_)" enable-background="new    " d="M0.79,11.17
			c0-4.344,3.313-7.869,7.397-7.869h67.347c4.086,0,7.399,3.523,7.399,7.869v90.229c0,4.346-3.313,7.868-7.399,7.868H8.188
			c-4.084,0-7.397-3.522-7.397-7.87L0.79,11.17L0.79,11.17z"/>
		<path fill="none" stroke="#4D4D4D" stroke-width="0.977" d="M0.32,101.419v24.962c0,5.148,3.353,9.325,7.482,9.325h68.12
			c4.131,0,7.48-4.175,7.48-9.325V11.171c0-4.346-3.353-7.869-7.482-7.869H7.803c-4.13,0-7.482,3.525-7.482,7.869L0.32,101.399
			C0.319,101.404,0.32,101.411,0.32,101.419z"/>
	</g>
	<g i:knockout="Off">
		<circle fill="#FFFFFF" cx="31.673" cy="22.149" r="10.771"/>
		<circle fill="#FFFFFF" cx="54.005" cy="22.149" r="10.771"/>
		<circle fill="#FFFFFF" cx="31.673" cy="41.339" r="10.771"/>
		<circle fill="#FFFFFF" cx="54.005" cy="41.339" r="10.771"/>
		<circle fill="#FFFFFF" cx="31.673" cy="60.531" r="10.771"/>
		<circle fill="#FFFFFF" cx="54.005" cy="60.531" r="10.771"/>
		<circle fill="#FFFFFF" cx="31.673" cy="79.722" r="10.771"/>
		<circle fill="#FFFFFF" cx="54.005" cy="79.722" r="10.771"/>
		<path fill="#224899" d="M31.673,11.375c-5.949,0-10.771,4.824-10.771,10.773s4.822,10.773,10.771,10.773
			c5.949,0,10.771-4.824,10.771-10.773S37.622,11.375,31.673,11.375z M31.673,29.384c-3.996,0-7.236-3.239-7.236-7.236
			c0-3.996,3.24-7.236,7.236-7.236c3.996,0,7.236,3.24,7.236,7.236C38.909,26.145,35.669,29.384,31.673,29.384z M31.673,16.935
			c-2.881,0-5.215,2.334-5.215,5.213s2.334,5.213,5.215,5.213c2.877,0,5.211-2.334,5.211-5.213S34.55,16.935,31.673,16.935z
			 M31.673,25.494c-1.85,0-3.348-1.498-3.348-3.346c0-1.849,1.498-3.348,3.348-3.348c1.848,0,3.346,1.499,3.346,3.348
			C35.019,23.996,33.521,25.494,31.673,25.494z M31.673,20.705c-0.797,0-1.443,0.646-1.443,1.443c0,0.796,0.646,1.441,1.443,1.441
			c0.797,0,1.441-0.646,1.441-1.441C33.114,21.35,32.47,20.705,31.673,20.705z"/>
		<path fill="#224899" d="M54.005,11.376c-5.949,0-10.771,4.822-10.771,10.771s4.822,10.771,10.771,10.771
			c5.947,0,10.771-4.822,10.771-10.771S59.952,11.376,54.005,11.376z M54.005,29.384c-3.996,0-7.236-3.24-7.236-7.236
			s3.24-7.236,7.236-7.236s7.234,3.24,7.234,7.236S58.001,29.384,54.005,29.384z M54.005,16.935c-2.879,0-5.213,2.334-5.213,5.213
			s2.334,5.212,5.213,5.212s5.213-2.333,5.213-5.212S56.884,16.935,54.005,16.935z M54.005,25.494c-1.848,0-3.348-1.498-3.348-3.346
			c0-1.849,1.5-3.348,3.348-3.348c1.849,0,3.346,1.499,3.346,3.348C57.351,23.996,55.854,25.494,54.005,25.494z M54.005,20.705
			c-0.797,0-1.44,0.646-1.44,1.443c0,0.796,0.645,1.441,1.44,1.441s1.441-0.646,1.441-1.441
			C55.446,21.35,54.802,20.705,54.005,20.705z"/>
		<path fill="#224899" d="M31.673,30.566c-5.949,0-10.771,4.824-10.771,10.773c0,5.949,4.822,10.773,10.771,10.773
			c5.949,0,10.771-4.824,10.771-10.773C42.444,35.39,37.622,30.566,31.673,30.566z M31.673,48.576c-3.996,0-7.236-3.239-7.236-7.236
			c0-3.996,3.24-7.236,7.236-7.236c3.996,0,7.236,3.24,7.236,7.236S35.669,48.576,31.673,48.576z M31.673,36.126
			c-2.881,0-5.215,2.334-5.215,5.213s2.334,5.213,5.215,5.213c2.877,0,5.211-2.334,5.211-5.213S34.55,36.126,31.673,36.126z
			 M31.673,44.685c-1.85,0-3.348-1.498-3.348-3.346c0-1.849,1.498-3.348,3.348-3.348c1.848,0,3.346,1.499,3.346,3.348
			C35.019,43.187,33.521,44.685,31.673,44.685z M31.673,39.896c-0.797,0-1.443,0.646-1.443,1.443c0,0.796,0.646,1.441,1.443,1.441
			c0.797,0,1.441-0.646,1.441-1.441C33.114,40.542,32.47,39.896,31.673,39.896z"/>
		<path fill="#224899" d="M54.005,30.568c-5.949,0-10.771,4.822-10.771,10.771c0,5.949,4.822,10.771,10.771,10.771
			c5.947,0,10.771-4.822,10.771-10.771C64.776,35.39,59.952,30.568,54.005,30.568z M54.005,48.576c-3.996,0-7.236-3.24-7.236-7.236
			s3.24-7.236,7.236-7.236s7.234,3.24,7.234,7.236S58.001,48.576,54.005,48.576z M54.005,36.126c-2.879,0-5.213,2.334-5.213,5.213
			s2.334,5.212,5.213,5.212s5.213-2.333,5.213-5.212S56.884,36.126,54.005,36.126z M54.005,44.685c-1.848,0-3.348-1.498-3.348-3.346
			c0-1.849,1.5-3.348,3.348-3.348c1.849,0,3.346,1.499,3.346,3.348C57.351,43.187,55.854,44.685,54.005,44.685z M54.005,39.896
			c-0.797,0-1.44,0.646-1.44,1.443c0,0.796,0.645,1.441,1.44,1.441s1.441-0.646,1.441-1.441
			C55.446,40.542,54.802,39.896,54.005,39.896z"/>
		<path fill="#224899" d="M31.673,49.757c-5.949,0-10.771,4.824-10.771,10.773c0,5.949,4.822,10.773,10.771,10.773
			c5.949,0,10.771-4.824,10.771-10.773C42.444,54.581,37.622,49.757,31.673,49.757z M31.673,67.767c-3.996,0-7.236-3.24-7.236-7.236
			c0-3.996,3.24-7.236,7.236-7.236c3.996,0,7.236,3.24,7.236,7.236C38.909,64.527,35.669,67.767,31.673,67.767z M31.673,55.318
			c-2.881,0-5.215,2.334-5.215,5.213c0,2.879,2.334,5.213,5.215,5.213c2.877,0,5.211-2.334,5.211-5.213
			C36.884,57.652,34.55,55.318,31.673,55.318z M31.673,63.876c-1.85,0-3.348-1.498-3.348-3.346c0-1.85,1.498-3.348,3.348-3.348
			c1.848,0,3.346,1.498,3.346,3.348C35.019,62.378,33.521,63.876,31.673,63.876z M31.673,59.087c-0.797,0-1.443,0.645-1.443,1.443
			c0,0.797,0.646,1.441,1.443,1.441c0.797,0,1.441-0.645,1.441-1.441C33.114,59.732,32.47,59.087,31.673,59.087z"/>
		<path fill="#224899" d="M54.005,49.759c-5.949,0-10.771,4.822-10.771,10.771c0,5.949,4.822,10.771,10.771,10.771
			c5.947,0,10.771-4.822,10.771-10.771C64.776,54.581,59.952,49.759,54.005,49.759z M54.005,67.767c-3.996,0-7.236-3.24-7.236-7.236
			c0-3.996,3.24-7.236,7.236-7.236s7.234,3.24,7.234,7.236C61.239,64.527,58.001,67.767,54.005,67.767z M54.005,55.318
			c-2.879,0-5.213,2.334-5.213,5.213c0,2.879,2.334,5.213,5.213,5.213s5.213-2.334,5.213-5.213
			C59.218,57.652,56.884,55.318,54.005,55.318z M54.005,63.876c-1.848,0-3.348-1.498-3.348-3.346c0-1.848,1.5-3.348,3.348-3.348
			c1.849,0,3.346,1.5,3.346,3.348C57.351,62.378,55.854,63.876,54.005,63.876z M54.005,59.087c-0.797,0-1.44,0.645-1.44,1.443
			c0,0.797,0.645,1.441,1.44,1.441s1.441-0.645,1.441-1.441C55.446,59.732,54.802,59.087,54.005,59.087z"/>
		<path fill="#224899" d="M31.673,68.948c-5.949,0-10.771,4.823-10.771,10.772s4.822,10.773,10.771,10.773
			c5.949,0,10.771-4.824,10.771-10.773S37.622,68.948,31.673,68.948z M31.673,86.958c-3.996,0-7.236-3.24-7.236-7.236
			s3.24-7.235,7.236-7.235c3.996,0,7.236,3.239,7.236,7.235S35.669,86.958,31.673,86.958z M31.673,74.509
			c-2.881,0-5.215,2.334-5.215,5.213s2.334,5.213,5.215,5.213c2.877,0,5.211-2.334,5.211-5.213S34.55,74.509,31.673,74.509z
			 M31.673,83.067c-1.85,0-3.348-1.498-3.348-3.347c0-1.85,1.498-3.348,3.348-3.348c1.848,0,3.346,1.498,3.346,3.348
			C35.019,81.569,33.521,83.067,31.673,83.067z M31.673,78.278c-0.797,0-1.443,0.645-1.443,1.442c0,0.797,0.646,1.441,1.443,1.441
			c0.797,0,1.441-0.646,1.441-1.441C33.114,78.923,32.47,78.278,31.673,78.278z"/>
		<path fill="#224899" d="M54.005,68.95c-5.949,0-10.771,4.821-10.771,10.771s4.822,10.771,10.771,10.771
			c5.947,0,10.771-4.822,10.771-10.771S59.952,68.95,54.005,68.95z M54.005,86.958c-3.996,0-7.236-3.24-7.236-7.236
			s3.24-7.235,7.236-7.235s7.234,3.239,7.234,7.235S58.001,86.958,54.005,86.958z M54.005,74.509c-2.879,0-5.213,2.334-5.213,5.213
			s2.334,5.213,5.213,5.213s5.213-2.334,5.213-5.213S56.884,74.509,54.005,74.509z M54.005,83.067c-1.848,0-3.348-1.498-3.348-3.347
			c0-1.848,1.5-3.348,3.348-3.348c1.849,0,3.346,1.5,3.346,3.348C57.351,81.569,55.854,83.067,54.005,83.067z M54.005,78.278
			c-0.797,0-1.44,0.645-1.44,1.442c0,0.797,0.645,1.441,1.44,1.441s1.441-0.646,1.441-1.441
			C55.446,78.923,54.802,78.278,54.005,78.278z"/>
	</g>
</g>
</svg>
