<?xml version="1.0" encoding="utf-8"?>
<!-- Generator: Adobe Illustrator 12.0.0, SVG Export Plug-In . SVG Version: 6.00 Build 51448)  -->
<!DOCTYPE svg PUBLIC "-//W3C//DTD SVG 1.1//EN" "http://www.w3.org/Graphics/SVG/1.1/DTD/svg11.dtd" [
	<!ENTITY ns_flows "http://ns.adobe.com/Flows/1.0/">
	<!ENTITY ns_extend "http://ns.adobe.com/Extensibility/1.0/">
	<!ENTITY ns_ai "http://ns.adobe.com/AdobeIllustrator/10.0/">
	<!ENTITY ns_graphs "http://ns.adobe.com/Graphs/1.0/">
	<!ENTITY ns_vars "http://ns.adobe.com/Variables/1.0/">
	<!ENTITY ns_imrep "http://ns.adobe.com/ImageReplacement/1.0/">
	<!ENTITY ns_sfw "http://ns.adobe.com/SaveForWeb/1.0/">
	<!ENTITY ns_custom "http://ns.adobe.com/GenericCustomNamespace/1.0/">
	<!ENTITY ns_adobe_xpath "http://ns.adobe.com/XPath/1.0/">
	<!ENTITY ns_svg "http://www.w3.org/2000/svg">
	<!ENTITY ns_xlink "http://www.w3.org/1999/xlink">
]>
<svg  version="1.1"
	 xmlns:x="&ns_extend;" xmlns:i="&ns_ai;" xmlns:graph="&ns_graphs;" i:viewOrigin="-0.3193 135.7061" i:rulerOrigin="0 0" i:pageBounds="0 136 85 0"
	 xmlns="&ns_svg;" xmlns:xlink="&ns_xlink;" xmlns:a="http://ns.adobe.com/AdobeSVGViewerExtensions/3.0/"
	 width="85.678" height="136.025" viewBox="0 0 85.678 136.025" overflow="visible" enable-background="new 0 0 85.678 136.025"
	 xml:space="preserve">
<metadata>
	<variableSets  xmlns="http://ns.adobe.com/Variables/1.0/">
		<variableSet  varSetName="binding1" locked="none">
			<variables></variables>
			<v:sampleDataSets  xmlns="http://ns.adobe.com/GenericCustomNamespace/1.0/" xmlns:v="http://ns.adobe.com/Variables/1.0/">
				</v:sampleDataSets>
		</variableSet>
	</variableSets>
</metadata>
<g id="图层_1" i:knockout="Off" i:layer="yes" i:dimmedPercent="50" i:rgbTrio="#4F008000FFFF">
	<g i:knockout="Off">
		<path fill="#333333" d="M2.274,99.465v24.962c0,5.149,3.353,9.325,7.481,9.325h68.118c4.133,0,7.484-4.176,7.484-9.325h-0.002
			V9.216c0-4.344-3.353-7.869-7.482-7.869H9.756c-4.131,0-7.481,3.525-7.481,7.869H2.272v90.229
			C2.272,99.45,2.274,99.458,2.274,99.465z"/>
		
			<linearGradient id="XMLID_3_" gradientUnits="userSpaceOnUse" x1="-22.6704" y1="112.9883" x2="-22.6704" y2="-12.5781" gradientTransform="matrix(1 0 0 1 64.5342 22.7178)">
			<stop  offset="0.0899" style="stop-color:#2089B9"/>
			<stop  offset="0.0985" style="stop-color:#4FA3C2"/>
			<stop  offset="0.1071" style="stop-color:#77B9CA"/>
			<stop  offset="0.1138" style="stop-color:#8FC7CF"/>
			<stop  offset="0.118" style="stop-color:#98CCD1"/>
			<stop  offset="0.1341" style="stop-color:#9ECFD3"/>
			<stop  offset="0.156" style="stop-color:#AFD6D9"/>
			<stop  offset="0.1809" style="stop-color:#CBE1E3"/>
			<stop  offset="0.1966" style="stop-color:#E1EAEB"/>
			<a:midPointStop  offset="0.0899" style="stop-color:#2089B9"/>
			<a:midPointStop  offset="0.5" style="stop-color:#2089B9"/>
			<a:midPointStop  offset="0.0985" style="stop-color:#4FA3C2"/>
			<a:midPointStop  offset="0.5" style="stop-color:#4FA3C2"/>
			<a:midPointStop  offset="0.1071" style="stop-color:#77B9CA"/>
			<a:midPointStop  offset="0.5" style="stop-color:#77B9CA"/>
			<a:midPointStop  offset="0.1138" style="stop-color:#8FC7CF"/>
			<a:midPointStop  offset="0.5" style="stop-color:#8FC7CF"/>
			<a:midPointStop  offset="0.118" style="stop-color:#98CCD1"/>
			<a:midPointStop  offset="0.5" style="stop-color:#98CCD1"/>
			<a:midPointStop  offset="0.1341" style="stop-color:#9ECFD3"/>
			<a:midPointStop  offset="0.5" style="stop-color:#9ECFD3"/>
			<a:midPointStop  offset="0.156" style="stop-color:#AFD6D9"/>
			<a:midPointStop  offset="0.5" style="stop-color:#AFD6D9"/>
			<a:midPointStop  offset="0.1809" style="stop-color:#CBE1E3"/>
			<a:midPointStop  offset="0.5" style="stop-color:#CBE1E3"/>
			<a:midPointStop  offset="0.1966" style="stop-color:#E1EAEB"/>
		</linearGradient>
		<path fill="url(#XMLID_3_)" d="M83.405,126.381c0,5.15-3.353,9.325-7.48,9.325H7.804c-4.131,0-7.482-4.177-7.482-9.325V19.465
			c0-5.148,3.354-9.326,7.482-9.326h68.117c4.133,0,7.482,4.176,7.482,9.326v106.916H83.405z"/>
		<path fill="none" stroke="#333333" stroke-width="0.977" d="M83.405,126.381c0,5.15-3.353,9.325-7.48,9.325H7.804
			c-4.131,0-7.482-4.177-7.482-9.325V19.465c0-5.148,3.354-9.326,7.482-9.326h68.117c4.133,0,7.482,4.176,7.482,9.326v106.916
			H83.405z"/>
		<path fill="#FFFFFF" d="M0.32,11.17c0-4.344,3.354-7.869,7.482-7.869H75.92c4.133,0,7.482,3.523,7.482,7.869v90.229
			c0,4.346-3.353,7.868-7.482,7.868H7.802c-4.131,0-7.482-3.522-7.482-7.87V11.17L0.32,11.17z"/>
		
			<linearGradient id="XMLID_4_" gradientUnits="userSpaceOnUse" x1="4.0215" y1="80.7666" x2="86.165" y2="80.7666" gradientTransform="matrix(-1 0 0 -1 86.9551 137.0508)">
			<stop  offset="0" style="stop-color:#A2D8E0"/>
			<stop  offset="0.0899" style="stop-color:#1878AD"/>
			<stop  offset="0.2135" style="stop-color:#194D91"/>
			<stop  offset="0.6404" style="stop-color:#2B90BD"/>
			<stop  offset="0.9438" style="stop-color:#82CBDE"/>
			<stop  offset="1" style="stop-color:#1A478D"/>
			<a:midPointStop  offset="0" style="stop-color:#A2D8E0"/>
			<a:midPointStop  offset="0.5" style="stop-color:#A2D8E0"/>
			<a:midPointStop  offset="0.0899" style="stop-color:#1878AD"/>
			<a:midPointStop  offset="0.5" style="stop-color:#1878AD"/>
			<a:midPointStop  offset="0.2135" style="stop-color:#194D91"/>
			<a:midPointStop  offset="0.5" style="stop-color:#194D91"/>
			<a:midPointStop  offset="0.6404" style="stop-color:#2B90BD"/>
			<a:midPointStop  offset="0.5" style="stop-color:#2B90BD"/>
			<a:midPointStop  offset="0.9438" style="stop-color:#82CBDE"/>
			<a:midPointStop  offset="0.5" style="stop-color:#82CBDE"/>
			<a:midPointStop  offset="1" style="stop-color:#1A478D"/>
		</linearGradient>
		<path i:isolated="yes" i:knockout="Off" opacity="0.1" fill="url(#XMLID_4_)" enable-background="new    " d="M0.79,11.17
			c0-4.344,3.313-7.869,7.397-7.869h67.347c4.086,0,7.399,3.523,7.399,7.869v90.229c0,4.346-3.313,7.868-7.399,7.868H8.188
			c-4.084,0-7.397-3.522-7.397-7.87L0.79,11.17L0.79,11.17z"/>
		<path fill="none" stroke="#4D4D4D" stroke-width="0.977" d="M0.32,101.419v24.962c0,5.148,3.353,9.325,7.482,9.325h68.12
			c4.131,0,7.48-4.175,7.48-9.325V11.171c0-4.346-3.353-7.869-7.482-7.869H7.803c-4.13,0-7.482,3.525-7.482,7.869L0.32,101.399
			C0.319,101.404,0.32,101.411,0.32,101.419z"/>
	</g>
	<g i:knockout="Off">
		<circle fill="#FFFFFF" cx="63.401" cy="80.075" r="10.771"/>
		<circle fill="#FFFFFF" cx="42.776" cy="80.075" r="10.771"/>
		<circle fill="#FFFFFF" cx="22.275" cy="80.075" r="10.771"/>
		<circle fill="#FFFFFF" cx="63.401" cy="51.624" r="10.771"/>
		<circle fill="#FFFFFF" cx="42.776" cy="51.624" r="10.771"/>
		<circle fill="#FFFFFF" cx="22.275" cy="51.624" r="10.771"/>
		<circle fill="#FFFFFF" cx="63.401" cy="21.797" r="10.771"/>
		<circle fill="#FFFFFF" cx="42.776" cy="21.797" r="10.771"/>
		<circle fill="#FFFFFF" cx="22.275" cy="21.797" r="10.771"/>
		<path fill="#224899" d="M63.4,90.846c5.948,0,10.771-4.822,10.771-10.771s-4.821-10.773-10.77-10.773
			c-5.949,0-10.771,4.823-10.771,10.772C52.629,86.021,57.45,90.846,63.4,90.846z M63.401,72.837c3.995,0,7.234,3.238,7.234,7.234
			c0,3.998-3.239,7.236-7.235,7.236s-7.235-3.238-7.235-7.236C56.165,76.075,59.405,72.837,63.401,72.837z M63.401,85.286
			c2.879,0,5.213-2.334,5.213-5.213s-2.334-5.213-5.213-5.213s-5.213,2.334-5.213,5.213S60.522,85.286,63.401,85.286z
			 M63.401,76.727c1.85,0,3.346,1.499,3.346,3.348s-1.496,3.348-3.346,3.348s-3.349-1.499-3.349-3.348
			C60.054,78.226,61.553,76.727,63.401,76.727z M63.401,81.517c0.797,0,1.44-0.646,1.44-1.442s-0.646-1.44-1.44-1.44
			c-0.797,0-1.443,0.646-1.443,1.44C61.958,80.87,62.604,81.517,63.401,81.517z"/>
		<path fill="#224899" d="M42.776,90.846c5.949,0,10.771-4.822,10.771-10.771s-4.822-10.772-10.771-10.772
			s-10.771,4.823-10.771,10.771C32.004,86.021,36.826,90.846,42.776,90.846z M42.776,72.837c3.997,0,7.236,3.238,7.236,7.234
			c0,3.998-3.239,7.236-7.236,7.236c-3.997,0-7.236-3.239-7.236-7.236S38.779,72.836,42.776,72.837z M42.776,85.286
			c2.879,0,5.213-2.334,5.213-5.213s-2.334-5.213-5.213-5.213c-2.878,0-5.212,2.334-5.212,5.213S39.897,85.286,42.776,85.286z
			 M42.776,76.727c1.849,0,3.346,1.499,3.346,3.348s-1.497,3.348-3.346,3.348c-1.848,0-3.347-1.499-3.347-3.348
			S40.928,76.727,42.776,76.727z M42.776,81.517c0.796,0,1.442-0.646,1.442-1.442s-0.646-1.44-1.442-1.44
			c-0.796,0-1.442,0.646-1.442,1.44S41.979,81.517,42.776,81.517z"/>
		<path fill="#224899" d="M22.275,90.846c5.949,0,10.771-4.822,10.771-10.772c0-5.948-4.822-10.771-10.771-10.771
			c-5.948,0-10.771,4.823-10.771,10.771S16.326,90.846,22.275,90.846z M22.275,72.836c3.996,0,7.236,3.238,7.236,7.235
			s-3.24,7.236-7.236,7.236s-7.235-3.239-7.235-7.236S18.279,72.836,22.275,72.836z M22.275,85.286c2.88,0,5.214-2.334,5.214-5.213
			s-2.334-5.213-5.214-5.213c-2.878,0-5.212,2.334-5.212,5.213S19.397,85.286,22.275,85.286z M22.275,76.727
			c1.851,0,3.348,1.499,3.348,3.348s-1.497,3.348-3.348,3.348c-1.848,0-3.347-1.499-3.347-3.348
			C18.929,78.226,20.428,76.727,22.275,76.727z M22.275,81.517c0.797,0,1.442-0.646,1.442-1.442s-0.646-1.44-1.442-1.44
			s-1.441,0.646-1.441,1.44S21.479,81.517,22.275,81.517z"/>
		<path fill="#D90000" d="M63.401,62.397c5.947,0,10.771-4.824,10.771-10.773c0-5.95-4.822-10.772-10.771-10.772
			c-5.949,0-10.771,4.822-10.771,10.772C52.629,57.574,57.45,62.397,63.401,62.397z M63.401,44.387c3.995,0,7.234,3.24,7.234,7.237
			c0,3.996-3.239,7.236-7.234,7.236c-3.996,0-7.236-3.24-7.236-7.236C56.163,47.626,59.405,44.387,63.401,44.387z M63.401,56.838
			c2.879,0,5.213-2.334,5.213-5.213c0-2.88-2.334-5.214-5.213-5.214s-5.213,2.334-5.213,5.214
			C58.188,54.504,60.522,56.838,63.401,56.838z M63.401,48.279c1.85,0,3.346,1.497,3.346,3.347c0,1.849-1.496,3.347-3.346,3.347
			s-3.349-1.498-3.349-3.347C60.054,49.776,61.553,48.279,63.401,48.279z M63.401,53.068c0.797,0,1.44-0.645,1.44-1.442
			c0-0.796-0.646-1.442-1.44-1.442c-0.797,0-1.443,0.646-1.443,1.442C61.958,52.423,62.604,53.068,63.401,53.068z"/>
		<path fill="#D90000" d="M42.776,62.397c5.949,0,10.771-4.824,10.771-10.773c0-5.95-4.822-10.772-10.771-10.772
			s-10.771,4.822-10.771,10.772C32.004,57.574,36.826,62.397,42.776,62.397z M42.776,44.387c3.997,0,7.236,3.24,7.236,7.237
			c0,3.996-3.239,7.236-7.236,7.236c-3.997,0-7.236-3.24-7.236-7.236C35.539,47.626,38.779,44.387,42.776,44.387z M42.776,56.838
			c2.879,0,5.213-2.334,5.213-5.213c0-2.88-2.334-5.214-5.213-5.214c-2.878,0-5.212,2.334-5.212,5.214
			C37.563,54.504,39.897,56.838,42.776,56.838z M42.776,48.279c1.85,0,3.346,1.497,3.346,3.347c0,1.849-1.496,3.347-3.346,3.347
			c-1.848,0-3.347-1.498-3.347-3.347C39.429,49.776,40.928,48.279,42.776,48.279z M42.776,53.068c0.797,0,1.442-0.645,1.442-1.442
			c0-0.796-0.646-1.442-1.442-1.442c-0.796,0-1.442,0.646-1.442,1.442C41.333,52.423,41.979,53.068,42.776,53.068z"/>
		<path fill="#D90000" d="M22.275,62.397c5.949,0,10.771-4.824,10.771-10.773c0-5.95-4.822-10.772-10.771-10.772
			c-5.948,0-10.771,4.822-10.771,10.772C11.504,57.574,16.326,62.397,22.275,62.397z M22.275,44.387c3.996,0,7.236,3.24,7.236,7.237
			c0,3.996-3.24,7.236-7.236,7.236s-7.235-3.24-7.235-7.236C15.039,47.626,18.279,44.387,22.275,44.387z M22.275,56.838
			c2.88,0,5.214-2.334,5.214-5.213c0-2.88-2.334-5.214-5.214-5.214c-2.878,0-5.212,2.334-5.212,5.214
			C17.063,54.504,19.397,56.838,22.275,56.838z M22.275,48.279c1.851,0,3.348,1.497,3.348,3.347c0,1.849-1.497,3.347-3.348,3.347
			c-1.848,0-3.347-1.498-3.347-3.347C18.929,49.776,20.428,48.279,22.275,48.279z M22.275,53.068c0.797,0,1.442-0.645,1.442-1.442
			c0-0.796-0.646-1.442-1.442-1.442s-1.441,0.646-1.441,1.442C20.833,52.423,21.479,53.068,22.275,53.068z"/>
		<path fill="#1D8F38" d="M63.401,32.568c5.947,0,10.771-4.822,10.771-10.773c0-5.949-4.822-10.771-10.771-10.771
			c-5.949,0-10.771,4.821-10.771,10.771C52.629,27.746,57.45,32.568,63.401,32.568z M63.401,14.558c3.995,0,7.234,3.239,7.234,7.235
			s-3.239,7.238-7.234,7.238c-3.996,0-7.236-3.242-7.236-7.238S59.405,14.558,63.401,14.558z M63.401,27.009
			c2.879,0,5.213-2.334,5.213-5.213s-2.334-5.213-5.213-5.213c-2.878,0-5.212,2.334-5.213,5.213
			C58.188,24.675,60.522,27.009,63.401,27.009z M63.401,18.451c1.85,0,3.346,1.496,3.346,3.346c0,1.849-1.496,3.349-3.346,3.349
			s-3.349-1.5-3.349-3.349C60.054,19.947,61.553,18.451,63.401,18.451z M63.401,23.24c0.797,0,1.44-0.646,1.44-1.443
			s-0.646-1.44-1.44-1.44c-0.797,0-1.443,0.645-1.443,1.44S62.604,23.24,63.401,23.24z"/>
		<path fill="#1D8F38" d="M42.776,32.568c5.949,0,10.771-4.822,10.771-10.773c0-5.949-4.822-10.771-10.771-10.771
			s-10.771,4.821-10.771,10.771C32.004,27.746,36.826,32.568,42.776,32.568z M42.776,14.558c3.997,0,7.236,3.239,7.236,7.235
			s-3.239,7.238-7.236,7.238c-3.997,0-7.236-3.242-7.236-7.238S38.779,14.558,42.776,14.558z M42.776,27.009
			c2.88,0,5.214-2.334,5.214-5.213s-2.334-5.213-5.214-5.213c-2.878,0-5.212,2.334-5.212,5.213S39.897,27.009,42.776,27.009z
			 M42.776,18.451c1.85,0,3.347,1.496,3.347,3.346c0,1.849-1.497,3.349-3.347,3.349c-1.848,0-3.347-1.5-3.347-3.349
			C39.429,19.947,40.928,18.451,42.776,18.451z M42.776,23.24c0.797,0,1.442-0.646,1.442-1.443s-0.646-1.44-1.442-1.44
			c-0.796,0-1.442,0.645-1.442,1.44S41.979,23.24,42.776,23.24z"/>
		<path fill="#1D8F38" d="M22.275,32.568c5.949,0,10.771-4.822,10.771-10.773c0-5.949-4.822-10.771-10.771-10.771
			c-5.948,0-10.771,4.821-10.771,10.771C11.504,27.746,16.326,32.568,22.275,32.568z M22.275,14.558
			c3.996,0,7.236,3.239,7.236,7.235s-3.24,7.238-7.236,7.238s-7.235-3.242-7.235-7.238S18.279,14.558,22.275,14.558z M22.275,27.009
			c2.88,0,5.214-2.334,5.214-5.213s-2.334-5.213-5.214-5.213c-2.878,0-5.212,2.334-5.212,5.213S19.397,27.009,22.275,27.009z
			 M22.275,18.451c1.851,0,3.348,1.496,3.348,3.346c0,1.849-1.497,3.349-3.348,3.349c-1.848,0-3.347-1.5-3.347-3.349
			C18.929,19.947,20.428,18.451,22.275,18.451z M22.275,23.24c0.797,0,1.442-0.646,1.442-1.443s-0.646-1.44-1.442-1.44
			s-1.441,0.645-1.441,1.44S21.479,23.24,22.275,23.24z"/>
	</g>
</g>
</svg>
