<?xml version="1.0" encoding="utf-8"?>
<!-- Generator: Adobe Illustrator 12.0.0, SVG Export Plug-In . SVG Version: 6.00 Build 51448)  -->
<!DOCTYPE svg PUBLIC "-//W3C//DTD SVG 1.1//EN" "http://www.w3.org/Graphics/SVG/1.1/DTD/svg11.dtd" [
	<!ENTITY ns_flows "http://ns.adobe.com/Flows/1.0/">
	<!ENTITY ns_extend "http://ns.adobe.com/Extensibility/1.0/">
	<!ENTITY ns_ai "http://ns.adobe.com/AdobeIllustrator/10.0/">
	<!ENTITY ns_graphs "http://ns.adobe.com/Graphs/1.0/">
	<!ENTITY ns_vars "http://ns.adobe.com/Variables/1.0/">
	<!ENTITY ns_imrep "http://ns.adobe.com/ImageReplacement/1.0/">
	<!ENTITY ns_sfw "http://ns.adobe.com/SaveForWeb/1.0/">
	<!ENTITY ns_custom "http://ns.adobe.com/GenericCustomNamespace/1.0/">
	<!ENTITY ns_adobe_xpath "http://ns.adobe.com/XPath/1.0/">
	<!ENTITY ns_svg "http://www.w3.org/2000/svg">
	<!ENTITY ns_xlink "http://www.w3.org/1999/xlink">
]>
<svg  version="1.1"
	 xmlns:x="&ns_extend;" xmlns:i="&ns_ai;" xmlns:graph="&ns_graphs;" i:viewOrigin="-0.3193 135.7061" i:rulerOrigin="0 0" i:pageBounds="0 136 85 0"
	 xmlns="&ns_svg;" xmlns:xlink="&ns_xlink;" xmlns:a="http://ns.adobe.com/AdobeSVGViewerExtensions/3.0/"
	 width="85.678" height="136.025" viewBox="0 0 85.678 136.025" overflow="visible" enable-background="new 0 0 85.678 136.025"
	 xml:space="preserve">
<metadata>
	<variableSets  xmlns="http://ns.adobe.com/Variables/1.0/">
		<variableSet  varSetName="binding1" locked="none">
			<variables></variables>
			<v:sampleDataSets  xmlns="http://ns.adobe.com/GenericCustomNamespace/1.0/" xmlns:v="http://ns.adobe.com/Variables/1.0/">
				</v:sampleDataSets>
		</variableSet>
	</variableSets>
</metadata>
<g id="图层_1" i:knockout="Off" i:layer="yes" i:dimmedPercent="50" i:rgbTrio="#4F008000FFFF">
	<g i:knockout="Off">
		<path fill="#333333" d="M2.274,99.465v24.962c0,5.149,3.353,9.325,7.481,9.325h68.118c4.133,0,7.484-4.176,7.484-9.325h-0.002
			V9.216c0-4.344-3.353-7.869-7.482-7.869H9.756c-4.131,0-7.481,3.525-7.481,7.869H2.272v90.229
			C2.272,99.45,2.274,99.458,2.274,99.465z"/>
		
			<linearGradient id="XMLID_3_" gradientUnits="userSpaceOnUse" x1="-22.6704" y1="112.9883" x2="-22.6704" y2="-12.5781" gradientTransform="matrix(1 0 0 1 64.5342 22.7178)">
			<stop  offset="0.0899" style="stop-color:#2089B9"/>
			<stop  offset="0.0985" style="stop-color:#4FA3C2"/>
			<stop  offset="0.1071" style="stop-color:#77B9CA"/>
			<stop  offset="0.1138" style="stop-color:#8FC7CF"/>
			<stop  offset="0.118" style="stop-color:#98CCD1"/>
			<stop  offset="0.1341" style="stop-color:#9ECFD3"/>
			<stop  offset="0.156" style="stop-color:#AFD6D9"/>
			<stop  offset="0.1809" style="stop-color:#CBE1E3"/>
			<stop  offset="0.1966" style="stop-color:#E1EAEB"/>
			<a:midPointStop  offset="0.0899" style="stop-color:#2089B9"/>
			<a:midPointStop  offset="0.5" style="stop-color:#2089B9"/>
			<a:midPointStop  offset="0.0985" style="stop-color:#4FA3C2"/>
			<a:midPointStop  offset="0.5" style="stop-color:#4FA3C2"/>
			<a:midPointStop  offset="0.1071" style="stop-color:#77B9CA"/>
			<a:midPointStop  offset="0.5" style="stop-color:#77B9CA"/>
			<a:midPointStop  offset="0.1138" style="stop-color:#8FC7CF"/>
			<a:midPointStop  offset="0.5" style="stop-color:#8FC7CF"/>
			<a:midPointStop  offset="0.118" style="stop-color:#98CCD1"/>
			<a:midPointStop  offset="0.5" style="stop-color:#98CCD1"/>
			<a:midPointStop  offset="0.1341" style="stop-color:#9ECFD3"/>
			<a:midPointStop  offset="0.5" style="stop-color:#9ECFD3"/>
			<a:midPointStop  offset="0.156" style="stop-color:#AFD6D9"/>
			<a:midPointStop  offset="0.5" style="stop-color:#AFD6D9"/>
			<a:midPointStop  offset="0.1809" style="stop-color:#CBE1E3"/>
			<a:midPointStop  offset="0.5" style="stop-color:#CBE1E3"/>
			<a:midPointStop  offset="0.1966" style="stop-color:#E1EAEB"/>
		</linearGradient>
		<path fill="url(#XMLID_3_)" d="M83.405,126.381c0,5.15-3.353,9.325-7.48,9.325H7.804c-4.131,0-7.482-4.177-7.482-9.325V19.465
			c0-5.148,3.354-9.326,7.482-9.326h68.117c4.133,0,7.482,4.176,7.482,9.326v106.916H83.405z"/>
		<path fill="none" stroke="#333333" stroke-width="0.977" d="M83.405,126.381c0,5.15-3.353,9.325-7.48,9.325H7.804
			c-4.131,0-7.482-4.177-7.482-9.325V19.465c0-5.148,3.354-9.326,7.482-9.326h68.117c4.133,0,7.482,4.176,7.482,9.326v106.916
			H83.405z"/>
		<path fill="#FFFFFF" d="M0.32,11.17c0-4.344,3.354-7.869,7.482-7.869H75.92c4.133,0,7.482,3.523,7.482,7.869v90.229
			c0,4.346-3.353,7.868-7.482,7.868H7.802c-4.131,0-7.482-3.522-7.482-7.87V11.17L0.32,11.17z"/>
		
			<linearGradient id="XMLID_4_" gradientUnits="userSpaceOnUse" x1="4.0215" y1="80.7666" x2="86.165" y2="80.7666" gradientTransform="matrix(-1 0 0 -1 86.9551 137.0508)">
			<stop  offset="0" style="stop-color:#A2D8E0"/>
			<stop  offset="0.0899" style="stop-color:#1878AD"/>
			<stop  offset="0.2135" style="stop-color:#194D91"/>
			<stop  offset="0.6404" style="stop-color:#2B90BD"/>
			<stop  offset="0.9438" style="stop-color:#82CBDE"/>
			<stop  offset="1" style="stop-color:#1A478D"/>
			<a:midPointStop  offset="0" style="stop-color:#A2D8E0"/>
			<a:midPointStop  offset="0.5" style="stop-color:#A2D8E0"/>
			<a:midPointStop  offset="0.0899" style="stop-color:#1878AD"/>
			<a:midPointStop  offset="0.5" style="stop-color:#1878AD"/>
			<a:midPointStop  offset="0.2135" style="stop-color:#194D91"/>
			<a:midPointStop  offset="0.5" style="stop-color:#194D91"/>
			<a:midPointStop  offset="0.6404" style="stop-color:#2B90BD"/>
			<a:midPointStop  offset="0.5" style="stop-color:#2B90BD"/>
			<a:midPointStop  offset="0.9438" style="stop-color:#82CBDE"/>
			<a:midPointStop  offset="0.5" style="stop-color:#82CBDE"/>
			<a:midPointStop  offset="1" style="stop-color:#1A478D"/>
		</linearGradient>
		<path i:isolated="yes" i:knockout="Off" opacity="0.1" fill="url(#XMLID_4_)" enable-background="new    " d="M0.79,11.17
			c0-4.344,3.313-7.869,7.397-7.869h67.347c4.086,0,7.399,3.523,7.399,7.869v90.229c0,4.346-3.313,7.868-7.399,7.868H8.188
			c-4.084,0-7.397-3.522-7.397-7.87L0.79,11.17L0.79,11.17z"/>
		<path fill="none" stroke="#4D4D4D" stroke-width="0.977" d="M0.32,101.419v24.962c0,5.148,3.353,9.325,7.482,9.325h68.12
			c4.131,0,7.48-4.175,7.48-9.325V11.171c0-4.346-3.353-7.869-7.482-7.869H7.803c-4.13,0-7.482,3.525-7.482,7.869L0.32,101.399
			C0.319,101.404,0.32,101.411,0.32,101.419z"/>
	</g>
	<g i:knockout="Off">
		<g i:knockout="Off">
			<path fill="#24258D" d="M38.71,34.292c0,0,0.99-0.811,1.98-0.36c0.989,0.45,1.89,9.181,2.069,11.521l-0.81-0.45
				C41.95,45.001,39.43,38.431,38.71,34.292z"/>
			<path fill="#24258D" d="M36.91,35.821c0,0-0.091-1.08,0.45-1.08c0.539,0,1.529,0.271,2.25,4.771c0.72,4.5,0.27,7.38,0.27,7.38
				s-0.63,0.36-1.17-1.619C38.17,43.292,36.91,35.821,36.91,35.821z"/>
			<path fill="#24258D" d="M35.47,35.282c0.403-0.221,1.35,1.17,1.53,2.97s0.45,8.46,0,9.45c-0.45,0.99-1.53-0.631-1.53-1.98
				C35.47,44.373,34.479,35.821,35.47,35.282z"/>
			<path fill="#24258D" d="M32.319,35.372c0,0,0.181-1.17,0.99-1.17c0.811,0,0.9,1.17,0.9,1.979c0,0.809,0.359,11.16-0.09,12.06
				c-0.45,0.9-1.35-2.609-1.53-4.229C32.41,42.391,32.229,36.452,32.319,35.372z"/>
			<path fill="#24258D" d="M30.16,35.461c0,0,1.26-1.801,1.979-0.45c0.721,1.351-0.63,11.61-0.63,12.42
				C31.509,48.241,29.261,45.631,30.16,35.461z"/>
			<path fill="#24258D" d="M28.09,34.112c0.181-1.52,1.62-1.44,1.71-0.631c0.09,0.811-0.9,8.371-1.439,10.08
				C27.819,45.272,27.46,39.421,28.09,34.112z"/>
		</g>
		<g i:knockout="Off">
			<path fill="#24258D" d="M30.521,24.301c-1.711,3.24,0.449,5.76,1.529,6.12c1.08,0.36,4.547,0.806,4.95-3.33
				C37.505,21.907,31.694,22.077,30.521,24.301z M34.66,27.811c-0.9,0.9-3.24,0.45-2.79-1.89c0.193-1.008,1.35-1.26,2.25-0.899
				C35.021,25.381,35.56,26.912,34.66,27.811z"/>
		</g>
		<g i:knockout="Off">
			<path fill="#24258D" d="M57.257,40.862c11.646-1.281,15.701-4.268,15.772-4.332c1.08-0.961,0.779-2.148,0.779-2.148
				s-2.985,1.34-6.402,2.113c-2.478,0.56-6.053,0.263-6.053,0.263l-6.731-5.04l3.275-1.943c0,0,1.079-0.789,1.308-2.145
				c0.538-3.215-0.083-4.54,0.337-5.439c0.42-0.9,3.588-3.696,4.188-4.416c0.304-0.365,0.27-2.283,0.87-3.792
				c0.589-1.472,1.817-2.541,1.817-2.541l2.831-2.343c0,0-4.02-0.205-4.68-0.084c-0.66,0.119-1.801,1.5-2.58,3.239
				c-0.779,1.74-1.043,4.368-1.645,5.088c-0.601,0.72-1.98,1.575-3.229,2.378c-1.506,0.969-3.047,2.038-3.047,2.038
				s-2.103,0.486-3.605,1.825c-1.295,1.155-2.441,2.711-2.441,2.711s-1.653,0.412-2.509,0.822c-1.22,0.586-1.806,1.229-2.124,1.193
				c-0.54-0.06-0.233-2.992-1.826-5.867c-1.383-2.499-3.91-4.213-3.91-4.213s-1.851-0.811-3.536,0.236
				c-0.899,0.559-0.195,2.057-0.195,2.057s7.057,0.326,8.292,12.791c0.599,6.041,5.544,8.604,5.544,8.604s-6.172,6.882-9.479,7.86
				c-2.641,0.779-5.856,0.047-8.977-1.332c-3.119-1.381-3.72-9.168-2.34-13.068c0.609-1.723,0.021-3.102,2.001-7.872
				s-1.286-6.624-1.286-6.624s-1.551-0.186-2.184,0.138c-0.6,0.307-0.351,1.347-0.351,1.347s1.921,1.414,1.921,2.449
				s-2.067,5.301-2.951,11.184c-1.605,10.68,2.214,12.924,2.214,12.924s-1.228,1.273-1.507,2.443
				c-0.5,2.082-0.186,4.615-0.186,4.615s-5.715,0.45-8.318-2.264c-3.291-3.43-2.409-10.48-3.562-10.48
				c-1.151,0-1.631,9.31,1.009,12.168c5.184,5.616,11.303,3.744,11.303,3.744s-5.468,8.963-4.623,15.698
				c1.301,10.371,6.711,14.543,6.711,14.543s1.783,0.035,1.08-1.008c-7.416-11.016-3.383-17.641-3.383-17.641
				s4.307-1.988,6.157-4.821c1.586-2.429,1.402-5.979,1.402-5.979s6.12,5.543,10.008,6.191c4.73,0.789,11.448-2.232,11.448-2.232
				s-0.434-1.152-1.369-1.152c-0.937,0-8.135,0.721-10.367,0.145c-2.232-0.576-7.848-6.912-7.848-6.912l-0.072-2.879
				c0,0,2.252,0.08,4.01-0.43c1.645-0.478,2.688-1.013,2.688-1.013s6.525,3.032,13.979,11.239
				c6.52,7.178,13.325,19.084,15.608,27.12c0.551,1.937,2.108,1.41,1.99,0.466C70.577,75.133,61.028,61.635,59.64,58.339
				c-1.388-3.296-9.781-17.37-9.781-17.37S53.952,41.224,57.257,40.862z M27.515,50.221c0,0,1.08,0.864,2.088,1.08
				c0,0,0.359,2.736-0.648,3.6c0,0-1.512,0.433-2.52,0.289C26.435,55.19,26.435,51.733,27.515,50.221z M28.737,63.973
				c-1.151,1.512-4.896,4.248-4.896,4.248s1.728-6.48,4.032-8.784c0,0,1.439,0.072,2.232-0.36
				C30.106,59.077,29.89,62.461,28.737,63.973z M32.626,55.405c0,0-1.296,0.217-1.872-0.071c0,0,0.937-2.017,0.792-3.168
				c0,0,0.288,0.432,1.152,0.432C32.698,52.597,32.338,54.973,32.626,55.405z M54.01,38.989l-4.176-4.607l0.937-0.432l4.752,4.68
				L54.01,38.989z M59.913,38.125l-2.088,0.432l-5.977-5.328l0.944-0.629c0,0,0.776,0.688,1.483,1.252
				C56.856,35.913,59.913,38.125,59.913,38.125z M54.239,23.625c0.694-0.318,3.06,0.113,3.246,2.233
				c0.138,1.572-4.151,4.587-4.151,4.587l-3.547-3.162C49.787,27.284,53.346,24.036,54.239,23.625z M43.93,29.881
				c0,0,1.079-0.49,1.945-0.769c1.087-0.349,1.892-0.983,1.892-0.983l0.688,0.996c0,0-0.453,0.488-1.421,0.963
				c-1.207,0.592-2.983,1.197-2.983,1.197L43.93,29.881z M44.409,33.157c0,0,2.246-0.91,3.846-1.866
				c1.248-0.745,1.459-1.229,1.459-1.229l1.224,1.039c-0.505,0.648-5.804,3.791-5.804,3.791L44.409,33.157z M57.608,59.36
				l-5.279-2.059c0,0-1.008-1.488-3.455-2.664c0,0,3.408,0.624,4.992,0.624l-0.793-1.008c0,0-5.543-1.08-9-3.456
				c0,0,0.359-0.359,1.801,0c1.439,0.359,7.128,2.376,7.128,2.376l-0.864-1.728c0,0-1.447-0.501-3.965-1.354
				c-1.65-0.56-4.171-1.455-4.171-1.455l1.8-1.152l4.824,2.232v-1.152L46.69,46.14l1.799-2.039
				C48.489,44.102,56.288,56.6,57.608,59.36z M47.674,38.774c-0.792-0.217-2.28-2.602-2.28-2.602l2.714-1.287l3.761,4.391
				C51.867,39.276,48.466,38.989,47.674,38.774z"/>
		</g>
		<g i:knockout="Off">
			<path fill="#1D8F38" d="M52.497,62.749c-0.936,0-8.135,0.721-10.367,0.145c-2.232-0.576-7.848-6.912-7.848-6.912
				c-0.504,0.289-1.656-0.576-1.656-0.576s-1.296,0.217-1.872-0.071l-1.8-0.433c0,0-1.152,0.504-2.16,0.36v-1.296
				c-1.08-0.072-2.208-1.084-2.208-1.084c-0.038,0.455-0.051,0.897-0.05,1.3c0.003,1.034,0.098,1.8,0.098,1.8
				s-5.715,0.45-8.318-2.264c-3.291-3.43-2.409-10.48-3.562-10.48c-1.151,0-1.631,9.31,1.009,12.168
				c5.184,5.616,11.303,3.744,11.303,3.744s-5.468,8.963-4.623,15.698c1.301,10.371,6.711,14.543,6.711,14.543
				s1.783,0.035,1.08-1.008c-7.416-11.016-3.383-17.641-3.383-17.641s4.307-1.988,6.157-4.821c1.586-2.429,1.402-5.979,1.402-5.979
				s6.12,5.543,10.008,6.191c4.73,0.789,11.448-2.232,11.448-2.232S53.434,62.749,52.497,62.749z M28.737,63.973
				c-1.151,1.512-4.896,4.248-4.896,4.248s1.728-6.48,4.032-8.784c0,0,1.439,0.072,2.232-0.36
				C30.106,59.077,29.89,62.461,28.737,63.973z"/>
		</g>
		<path fill="#D90000" d="M39.214,11.36c-1.371-0.118-6.624-2.088-6.624-2.088s-2.503-0.948-3.505-0.439
			c-1.719,0.873-2.471,3.427-1.895,4.219c0.576,0.792,2.897,4.446,2.897,4.446s-3.538-0.588-6.923-2.46
			c-2.197-1.216-4.057-1.176-4.057-1.176s-0.088,1.605,2.207,4.016c1.813,1.902,3.841,4.516,3.841,4.516s-0.282-0.957,0.595-1.312
			c0.763-0.308,1.907-0.164,1.907-0.164L26.2,18.991c0,0,2.628,2.341,3.779,2.341c1.152,0,3.961-0.81,3.961-0.81
			s-0.529-1.277,0.291-1.939c1.043-0.846,2.858-0.536,2.858-0.536l-4.319-0.675l-0.217-2.592l9.126-0.019
			c0,0,1.61-0.749,3.425-1.819c1.69-0.997,3.596-2.32,3.596-2.32S41.733,11.576,39.214,11.36z"/>
		<path fill="#D90000" d="M72.485,90.483C70.577,75.133,61.028,61.635,59.64,58.339l-4.754,4.56
			c6.52,7.178,13.325,19.084,15.608,27.12C71.046,91.954,72.604,91.429,72.485,90.483z"/>
		<path fill="#D90000" d="M59.205,27.629c0.538-3.215-0.083-4.54,0.337-5.439c0.42-0.9,3.588-3.696,4.188-4.416
			c0.304-0.365,0.27-2.283,0.87-3.792c0.589-1.472,1.817-2.541,1.817-2.541l2.831-2.343c0,0-4.02-0.205-4.68-0.084
			c-0.66,0.119-1.801,1.5-2.58,3.239c-0.779,1.74-1.043,4.368-1.645,5.088c-0.601,0.72-1.98,1.575-3.229,2.378
			c-1.506,0.969-3.047,2.038-3.047,2.038s-2.103,0.486-3.605,1.825c-1.295,1.155-2.441,2.711-2.441,2.711l1.766,0.99
			c0,0,3.559-3.248,4.452-3.658c0.694-0.318,3.06,0.113,3.246,2.233c0.138,1.572-4.151,4.587-4.151,4.587l1.288,1.271l3.275-1.943
			C57.897,29.774,58.979,28.985,59.205,27.629z"/>
	</g>
</g>
</svg>
