<?xml version="1.0" encoding="utf-8"?>
<!-- Generator: Adobe Illustrator 12.0.0, SVG Export Plug-In . SVG Version: 6.00 Build 51448)  -->
<!DOCTYPE svg PUBLIC "-//W3C//DTD SVG 1.1//EN" "http://www.w3.org/Graphics/SVG/1.1/DTD/svg11.dtd" [
	<!ENTITY ns_flows "http://ns.adobe.com/Flows/1.0/">
	<!ENTITY ns_extend "http://ns.adobe.com/Extensibility/1.0/">
	<!ENTITY ns_ai "http://ns.adobe.com/AdobeIllustrator/10.0/">
	<!ENTITY ns_graphs "http://ns.adobe.com/Graphs/1.0/">
	<!ENTITY ns_vars "http://ns.adobe.com/Variables/1.0/">
	<!ENTITY ns_imrep "http://ns.adobe.com/ImageReplacement/1.0/">
	<!ENTITY ns_sfw "http://ns.adobe.com/SaveForWeb/1.0/">
	<!ENTITY ns_custom "http://ns.adobe.com/GenericCustomNamespace/1.0/">
	<!ENTITY ns_adobe_xpath "http://ns.adobe.com/XPath/1.0/">
	<!ENTITY ns_svg "http://www.w3.org/2000/svg">
	<!ENTITY ns_xlink "http://www.w3.org/1999/xlink">
]>
<svg  version="1.1"
	 xmlns:x="&ns_extend;" xmlns:i="&ns_ai;" xmlns:graph="&ns_graphs;" i:viewOrigin="-0.3193 135.7061" i:rulerOrigin="0 0" i:pageBounds="0 136 85 0"
	 xmlns="&ns_svg;" xmlns:xlink="&ns_xlink;" xmlns:a="http://ns.adobe.com/AdobeSVGViewerExtensions/3.0/"
	 width="85.678" height="136.025" viewBox="0 0 85.678 136.025" overflow="visible" enable-background="new 0 0 85.678 136.025"
	 xml:space="preserve">
<metadata>
	<variableSets  xmlns="http://ns.adobe.com/Variables/1.0/">
		<variableSet  varSetName="binding1" locked="none">
			<variables></variables>
			<v:sampleDataSets  xmlns="http://ns.adobe.com/GenericCustomNamespace/1.0/" xmlns:v="http://ns.adobe.com/Variables/1.0/">
				</v:sampleDataSets>
		</variableSet>
	</variableSets>
</metadata>
<g id="图层_1" i:knockout="Off" i:layer="yes" i:dimmedPercent="50" i:rgbTrio="#4F008000FFFF">
	<g i:knockout="Off">
		<path fill="#333333" d="M2.274,99.465v24.962c0,5.149,3.353,9.325,7.481,9.325h68.118c4.133,0,7.484-4.176,7.484-9.325h-0.002
			V9.216c0-4.344-3.353-7.869-7.482-7.869H9.756c-4.131,0-7.481,3.525-7.481,7.869H2.272v90.229
			C2.272,99.45,2.274,99.458,2.274,99.465z"/>
		
			<linearGradient id="XMLID_3_" gradientUnits="userSpaceOnUse" x1="-22.6704" y1="112.9883" x2="-22.6704" y2="-12.5781" gradientTransform="matrix(1 0 0 1 64.5342 22.7178)">
			<stop  offset="0.0899" style="stop-color:#2089B9"/>
			<stop  offset="0.0985" style="stop-color:#4FA3C2"/>
			<stop  offset="0.1071" style="stop-color:#77B9CA"/>
			<stop  offset="0.1138" style="stop-color:#8FC7CF"/>
			<stop  offset="0.118" style="stop-color:#98CCD1"/>
			<stop  offset="0.1341" style="stop-color:#9ECFD3"/>
			<stop  offset="0.156" style="stop-color:#AFD6D9"/>
			<stop  offset="0.1809" style="stop-color:#CBE1E3"/>
			<stop  offset="0.1966" style="stop-color:#E1EAEB"/>
			<a:midPointStop  offset="0.0899" style="stop-color:#2089B9"/>
			<a:midPointStop  offset="0.5" style="stop-color:#2089B9"/>
			<a:midPointStop  offset="0.0985" style="stop-color:#4FA3C2"/>
			<a:midPointStop  offset="0.5" style="stop-color:#4FA3C2"/>
			<a:midPointStop  offset="0.1071" style="stop-color:#77B9CA"/>
			<a:midPointStop  offset="0.5" style="stop-color:#77B9CA"/>
			<a:midPointStop  offset="0.1138" style="stop-color:#8FC7CF"/>
			<a:midPointStop  offset="0.5" style="stop-color:#8FC7CF"/>
			<a:midPointStop  offset="0.118" style="stop-color:#98CCD1"/>
			<a:midPointStop  offset="0.5" style="stop-color:#98CCD1"/>
			<a:midPointStop  offset="0.1341" style="stop-color:#9ECFD3"/>
			<a:midPointStop  offset="0.5" style="stop-color:#9ECFD3"/>
			<a:midPointStop  offset="0.156" style="stop-color:#AFD6D9"/>
			<a:midPointStop  offset="0.5" style="stop-color:#AFD6D9"/>
			<a:midPointStop  offset="0.1809" style="stop-color:#CBE1E3"/>
			<a:midPointStop  offset="0.5" style="stop-color:#CBE1E3"/>
			<a:midPointStop  offset="0.1966" style="stop-color:#E1EAEB"/>
		</linearGradient>
		<path fill="url(#XMLID_3_)" d="M83.405,126.381c0,5.15-3.353,9.325-7.48,9.325H7.804c-4.131,0-7.482-4.177-7.482-9.325V19.465
			c0-5.148,3.354-9.326,7.482-9.326h68.117c4.133,0,7.482,4.176,7.482,9.326v106.916H83.405z"/>
		<path fill="none" stroke="#333333" stroke-width="0.977" d="M83.405,126.381c0,5.15-3.353,9.325-7.48,9.325H7.804
			c-4.131,0-7.482-4.177-7.482-9.325V19.465c0-5.148,3.354-9.326,7.482-9.326h68.117c4.133,0,7.482,4.176,7.482,9.326v106.916
			H83.405z"/>
		<path fill="#FFFFFF" d="M0.32,11.17c0-4.344,3.354-7.869,7.482-7.869H75.92c4.133,0,7.482,3.523,7.482,7.869v90.229
			c0,4.346-3.353,7.868-7.482,7.868H7.802c-4.131,0-7.482-3.522-7.482-7.87V11.17L0.32,11.17z"/>
		
			<linearGradient id="XMLID_4_" gradientUnits="userSpaceOnUse" x1="4.0215" y1="80.7666" x2="86.165" y2="80.7666" gradientTransform="matrix(-1 0 0 -1 86.9551 137.0508)">
			<stop  offset="0" style="stop-color:#A2D8E0"/>
			<stop  offset="0.0899" style="stop-color:#1878AD"/>
			<stop  offset="0.2135" style="stop-color:#194D91"/>
			<stop  offset="0.6404" style="stop-color:#2B90BD"/>
			<stop  offset="0.9438" style="stop-color:#82CBDE"/>
			<stop  offset="1" style="stop-color:#1A478D"/>
			<a:midPointStop  offset="0" style="stop-color:#A2D8E0"/>
			<a:midPointStop  offset="0.5" style="stop-color:#A2D8E0"/>
			<a:midPointStop  offset="0.0899" style="stop-color:#1878AD"/>
			<a:midPointStop  offset="0.5" style="stop-color:#1878AD"/>
			<a:midPointStop  offset="0.2135" style="stop-color:#194D91"/>
			<a:midPointStop  offset="0.5" style="stop-color:#194D91"/>
			<a:midPointStop  offset="0.6404" style="stop-color:#2B90BD"/>
			<a:midPointStop  offset="0.5" style="stop-color:#2B90BD"/>
			<a:midPointStop  offset="0.9438" style="stop-color:#82CBDE"/>
			<a:midPointStop  offset="0.5" style="stop-color:#82CBDE"/>
			<a:midPointStop  offset="1" style="stop-color:#1A478D"/>
		</linearGradient>
		<path i:isolated="yes" i:knockout="Off" opacity="0.1" fill="url(#XMLID_4_)" enable-background="new    " d="M0.79,11.17
			c0-4.344,3.313-7.869,7.397-7.869h67.347c4.086,0,7.399,3.523,7.399,7.869v90.229c0,4.346-3.313,7.868-7.399,7.868H8.188
			c-4.084,0-7.397-3.522-7.397-7.87L0.79,11.17L0.79,11.17z"/>
		<path fill="none" stroke="#4D4D4D" stroke-width="0.977" d="M0.32,101.419v24.962c0,5.148,3.353,9.325,7.482,9.325h68.12
			c4.131,0,7.48-4.175,7.48-9.325V11.171c0-4.346-3.353-7.869-7.482-7.869H7.803c-4.13,0-7.482,3.525-7.482,7.869L0.32,101.399
			C0.319,101.404,0.32,101.411,0.32,101.419z"/>
	</g>
	<g i:knockout="Off">
		<g i:knockout="Off">
			<path fill="#1D8F38" d="M28.226,40.714c-1.32-2.879-0.24-3.959,0.359-6.6c0.599-2.641-1.08-7.439-1.08-9.48
				c0-2.039,2.07-4.631,1.08-9.479c-0.793-3.889-3.061-4.904-5.332-4.967c-2.828-0.078-4.826,2.312-5.359,4.922
				c-0.988,4.848,1.08,7.439,1.08,9.479c0,2.041-1.68,6.84-1.08,9.48c0.602,2.641,1.68,3.721,0.361,6.6
				c-1.32,2.881-0.961,11.039,4.92,11.881l0.303-0.006C29.358,51.704,29.546,43.595,28.226,40.714z M25.944,17.915
				c-0.359,3.479-2.004,4.262-1.199,8.398c0.822,4.23,0.84,6.361,0.119,9.84c-0.719,3.48-0.162,4.693,0.48,6.84
				c0.857,2.859-0.225,6.66-2.287,6.557c-1.34-0.068-3.217-1.945-1.924-6.602c0.6-2.158,1.201-3.359,0.48-6.84
				c-0.721-3.479-0.703-5.609,0.119-9.84c0.805-4.137-0.84-4.92-1.199-8.398c-0.359-3.48,2.279-3.6,2.279-3.6l0.852,0.045
				C23.665,14.315,26.306,14.435,25.944,17.915z"/>
		</g>
		<g i:knockout="Off">
			<path fill="#1D8F38" d="M47.806,40.714c-1.319-2.879-0.239-3.959,0.359-6.6c0.599-2.641-1.08-7.439-1.08-9.48
				c0-2.039,2.07-4.631,1.08-9.479c-0.793-3.889-3.061-4.904-5.334-4.967c-2.828-0.078-4.824,2.312-5.357,4.922
				c-0.988,4.848,1.08,7.439,1.08,9.479c0,2.041-1.68,6.84-1.08,9.48s1.68,3.721,0.359,6.6c-1.318,2.881-0.959,11.039,4.92,11.881
				l0.305-0.006C48.938,51.704,49.126,43.595,47.806,40.714z M45.524,17.915c-0.359,3.479-2.004,4.262-1.199,8.398
				c0.822,4.23,0.84,6.361,0.119,9.84c-0.72,3.48-0.164,4.693,0.479,6.84c0.857,2.859-0.225,6.66-2.287,6.557
				c-1.342-0.068-3.217-1.945-1.924-6.602c0.6-2.158,1.199-3.359,0.48-6.84c-0.721-3.479-0.703-5.609,0.119-9.84
				c0.805-4.137-0.84-4.92-1.199-8.398c-0.361-3.48,2.279-3.6,2.279-3.6l0.852,0.045C43.245,14.315,45.886,14.435,45.524,17.915z"/>
		</g>
		<g i:knockout="Off">
			<path fill="#1D8F38" d="M67.386,40.714c-1.321-2.879-0.239-3.959,0.359-6.6c0.599-2.641-1.08-7.439-1.08-9.48
				c0-2.039,2.07-4.631,1.08-9.479c-0.793-3.889-3.062-4.904-5.334-4.967c-2.828-0.078-4.824,2.312-5.357,4.922
				c-0.987,4.848,1.08,7.439,1.08,9.479c0,2.041-1.68,6.84-1.08,9.48c0.601,2.64,1.681,3.721,0.359,6.6
				c-1.318,2.881-0.959,11.039,4.92,11.881l0.305-0.006C68.519,51.704,68.706,43.595,67.386,40.714z M65.104,17.915
				c-0.359,3.479-2.003,4.262-1.197,8.398c0.819,4.23,0.838,6.361,0.119,9.84c-0.72,3.48-0.164,4.693,0.479,6.84
				c0.857,2.859-0.225,6.66-2.285,6.557c-1.342-0.068-3.217-1.945-1.924-6.602c0.601-2.158,1.199-3.359,0.48-6.84
				c-0.722-3.479-0.703-5.609,0.118-9.84c0.806-4.137-0.84-4.92-1.198-8.398c-0.361-3.48,2.278-3.6,2.278-3.6l0.853,0.045
				C62.825,14.315,65.464,14.435,65.104,17.915z"/>
		</g>
		<g i:knockout="Off">
			<path fill="#1D8F38" d="M28.226,87.188c-1.32-2.881-0.24-3.961,0.359-6.6c0.6-2.641-1.08-7.438-1.08-9.479
				c0-2.039,2.07-4.633,1.08-9.48c-0.793-3.889-3.061-4.904-5.332-4.967c-2.828-0.078-4.826,2.314-5.359,4.922
				c-0.988,4.848,1.08,7.441,1.08,9.479c0,2.039-1.68,6.841-1.08,9.48c0.602,2.639,1.68,3.719,0.361,6.6
				c-1.32,2.879-0.961,11.039,4.92,11.879l0.303-0.004C29.358,98.179,29.546,90.067,28.226,87.188z M25.944,64.388
				c-0.359,3.48-2.004,4.264-1.199,8.4c0.822,4.229,0.84,6.358,0.119,9.84c-0.719,3.48-0.162,4.693,0.48,6.84
				c0.857,2.859-0.225,6.66-2.287,6.556c-1.34-0.066-3.217-1.945-1.924-6.601c0.6-2.16,1.201-3.359,0.48-6.84
				c-0.721-3.481-0.703-5.609,0.119-9.84c0.805-4.137-0.84-4.92-1.199-8.4c-0.359-3.479,2.279-3.6,2.279-3.6l0.852,0.045
				C23.665,60.788,26.306,60.909,25.944,64.388z"/>
		</g>
		<g i:knockout="Off">
			<path fill="#1D8F38" d="M47.806,87.188c-1.319-2.881-0.239-3.961,0.359-6.6c0.6-2.641-1.08-7.438-1.08-9.479
				c0-2.039,2.07-4.633,1.08-9.48c-0.793-3.889-3.061-4.904-5.334-4.967c-2.828-0.078-4.824,2.314-5.357,4.922
				c-0.988,4.848,1.08,7.441,1.08,9.479c0,2.039-1.68,6.841-1.08,9.48c0.6,2.639,1.68,3.719,0.359,6.6
				c-1.318,2.879-0.959,11.039,4.92,11.879l0.305-0.004C48.938,98.179,49.126,90.067,47.806,87.188z M45.524,64.388
				c-0.359,3.48-2.004,4.264-1.199,8.4c0.822,4.229,0.84,6.358,0.119,9.84c-0.72,3.48-0.164,4.693,0.479,6.84
				c0.857,2.859-0.225,6.66-2.287,6.556c-1.342-0.066-3.217-1.945-1.924-6.601c0.6-2.16,1.199-3.359,0.48-6.84
				c-0.721-3.48-0.703-5.609,0.119-9.84c0.805-4.137-0.84-4.92-1.199-8.4c-0.361-3.479,2.279-3.6,2.279-3.6l0.852,0.045
				C43.245,60.788,45.886,60.909,45.524,64.388z"/>
		</g>
		<g i:knockout="Off">
			<path fill="#1D8F38" d="M67.386,87.188c-1.321-2.881-0.239-3.961,0.359-6.6c0.6-2.641-1.08-7.438-1.08-9.479
				c0-2.039,2.07-4.633,1.08-9.48c-0.793-3.889-3.062-4.904-5.334-4.967c-2.828-0.078-4.824,2.314-5.357,4.922
				c-0.987,4.848,1.08,7.441,1.08,9.479c0,2.039-1.68,6.841-1.08,9.48c0.601,2.639,1.681,3.719,0.359,6.6
				c-1.318,2.879-0.959,11.039,4.92,11.879l0.305-0.004C68.519,98.179,68.706,90.067,67.386,87.188z M65.104,64.388
				c-0.359,3.48-2.003,4.264-1.197,8.4c0.819,4.229,0.838,6.358,0.119,9.84c-0.72,3.481-0.164,4.693,0.479,6.84
				c0.857,2.859-0.225,6.66-2.285,6.556c-1.342-0.066-3.217-1.945-1.924-6.601c0.601-2.16,1.199-3.359,0.48-6.84
				c-0.722-3.48-0.703-5.609,0.118-9.84c0.806-4.137-0.84-4.92-1.198-8.4c-0.361-3.479,2.278-3.6,2.278-3.6l0.853,0.045
				C62.825,60.788,65.464,60.909,65.104,64.388z"/>
		</g>
	</g>
</g>
</svg>
