<?xml version="1.0" encoding="utf-8"?>
<!-- Generator: Adobe Illustrator 12.0.0, SVG Export Plug-In . SVG Version: 6.00 Build 51448)  -->
<!DOCTYPE svg PUBLIC "-//W3C//DTD SVG 1.1//EN" "http://www.w3.org/Graphics/SVG/1.1/DTD/svg11.dtd" [
	<!ENTITY ns_flows "http://ns.adobe.com/Flows/1.0/">
	<!ENTITY ns_extend "http://ns.adobe.com/Extensibility/1.0/">
	<!ENTITY ns_ai "http://ns.adobe.com/AdobeIllustrator/10.0/">
	<!ENTITY ns_graphs "http://ns.adobe.com/Graphs/1.0/">
	<!ENTITY ns_vars "http://ns.adobe.com/Variables/1.0/">
	<!ENTITY ns_imrep "http://ns.adobe.com/ImageReplacement/1.0/">
	<!ENTITY ns_sfw "http://ns.adobe.com/SaveForWeb/1.0/">
	<!ENTITY ns_custom "http://ns.adobe.com/GenericCustomNamespace/1.0/">
	<!ENTITY ns_adobe_xpath "http://ns.adobe.com/XPath/1.0/">
	<!ENTITY ns_svg "http://www.w3.org/2000/svg">
	<!ENTITY ns_xlink "http://www.w3.org/1999/xlink">
]>
<svg  version="1.1"
	 xmlns:x="&ns_extend;" xmlns:i="&ns_ai;" xmlns:graph="&ns_graphs;" i:viewOrigin="-0.3193 135.7061" i:rulerOrigin="0 0" i:pageBounds="0 136 85 0"
	 xmlns="&ns_svg;" xmlns:xlink="&ns_xlink;" xmlns:a="http://ns.adobe.com/AdobeSVGViewerExtensions/3.0/"
	 width="85.678" height="136.025" viewBox="0 0 85.678 136.025" overflow="visible" enable-background="new 0 0 85.678 136.025"
	 xml:space="preserve">
<metadata>
	<variableSets  xmlns="http://ns.adobe.com/Variables/1.0/">
		<variableSet  varSetName="binding1" locked="none">
			<variables></variables>
			<v:sampleDataSets  xmlns="http://ns.adobe.com/GenericCustomNamespace/1.0/" xmlns:v="http://ns.adobe.com/Variables/1.0/">
				</v:sampleDataSets>
		</variableSet>
	</variableSets>
</metadata>
<g id="图层_1" i:knockout="Off" i:layer="yes" i:dimmedPercent="50" i:rgbTrio="#4F008000FFFF">
	<g i:knockout="Off">
		<path fill="#333333" d="M2.274,99.465v24.962c0,5.149,3.353,9.325,7.481,9.325h68.118c4.133,0,7.484-4.176,7.484-9.325h-0.002
			V9.216c0-4.344-3.353-7.869-7.482-7.869H9.756c-4.131,0-7.481,3.525-7.481,7.869H2.272v90.229
			C2.272,99.45,2.274,99.458,2.274,99.465z"/>
		
			<linearGradient id="XMLID_3_" gradientUnits="userSpaceOnUse" x1="-22.6704" y1="112.9883" x2="-22.6704" y2="-12.5781" gradientTransform="matrix(1 0 0 1 64.5342 22.7178)">
			<stop  offset="0.0899" style="stop-color:#2089B9"/>
			<stop  offset="0.0985" style="stop-color:#4FA3C2"/>
			<stop  offset="0.1071" style="stop-color:#77B9CA"/>
			<stop  offset="0.1138" style="stop-color:#8FC7CF"/>
			<stop  offset="0.118" style="stop-color:#98CCD1"/>
			<stop  offset="0.1341" style="stop-color:#9ECFD3"/>
			<stop  offset="0.156" style="stop-color:#AFD6D9"/>
			<stop  offset="0.1809" style="stop-color:#CBE1E3"/>
			<stop  offset="0.1966" style="stop-color:#E1EAEB"/>
			<a:midPointStop  offset="0.0899" style="stop-color:#2089B9"/>
			<a:midPointStop  offset="0.5" style="stop-color:#2089B9"/>
			<a:midPointStop  offset="0.0985" style="stop-color:#4FA3C2"/>
			<a:midPointStop  offset="0.5" style="stop-color:#4FA3C2"/>
			<a:midPointStop  offset="0.1071" style="stop-color:#77B9CA"/>
			<a:midPointStop  offset="0.5" style="stop-color:#77B9CA"/>
			<a:midPointStop  offset="0.1138" style="stop-color:#8FC7CF"/>
			<a:midPointStop  offset="0.5" style="stop-color:#8FC7CF"/>
			<a:midPointStop  offset="0.118" style="stop-color:#98CCD1"/>
			<a:midPointStop  offset="0.5" style="stop-color:#98CCD1"/>
			<a:midPointStop  offset="0.1341" style="stop-color:#9ECFD3"/>
			<a:midPointStop  offset="0.5" style="stop-color:#9ECFD3"/>
			<a:midPointStop  offset="0.156" style="stop-color:#AFD6D9"/>
			<a:midPointStop  offset="0.5" style="stop-color:#AFD6D9"/>
			<a:midPointStop  offset="0.1809" style="stop-color:#CBE1E3"/>
			<a:midPointStop  offset="0.5" style="stop-color:#CBE1E3"/>
			<a:midPointStop  offset="0.1966" style="stop-color:#E1EAEB"/>
		</linearGradient>
		<path fill="url(#XMLID_3_)" d="M83.405,126.381c0,5.15-3.353,9.325-7.48,9.325H7.804c-4.131,0-7.482-4.177-7.482-9.325V19.465
			c0-5.148,3.354-9.326,7.482-9.326h68.117c4.133,0,7.482,4.176,7.482,9.326v106.916H83.405z"/>
		<path fill="none" stroke="#333333" stroke-width="0.977" d="M83.405,126.381c0,5.15-3.353,9.325-7.48,9.325H7.804
			c-4.131,0-7.482-4.177-7.482-9.325V19.465c0-5.148,3.354-9.326,7.482-9.326h68.117c4.133,0,7.482,4.176,7.482,9.326v106.916
			H83.405z"/>
		<path fill="#FFFFFF" d="M0.32,11.17c0-4.344,3.354-7.869,7.482-7.869H75.92c4.133,0,7.482,3.523,7.482,7.869v90.229
			c0,4.346-3.353,7.868-7.482,7.868H7.802c-4.131,0-7.482-3.522-7.482-7.87V11.17L0.32,11.17z"/>
		
			<linearGradient id="XMLID_4_" gradientUnits="userSpaceOnUse" x1="4.0215" y1="80.7666" x2="86.165" y2="80.7666" gradientTransform="matrix(-1 0 0 -1 86.9551 137.0508)">
			<stop  offset="0" style="stop-color:#A2D8E0"/>
			<stop  offset="0.0899" style="stop-color:#1878AD"/>
			<stop  offset="0.2135" style="stop-color:#194D91"/>
			<stop  offset="0.6404" style="stop-color:#2B90BD"/>
			<stop  offset="0.9438" style="stop-color:#82CBDE"/>
			<stop  offset="1" style="stop-color:#1A478D"/>
			<a:midPointStop  offset="0" style="stop-color:#A2D8E0"/>
			<a:midPointStop  offset="0.5" style="stop-color:#A2D8E0"/>
			<a:midPointStop  offset="0.0899" style="stop-color:#1878AD"/>
			<a:midPointStop  offset="0.5" style="stop-color:#1878AD"/>
			<a:midPointStop  offset="0.2135" style="stop-color:#194D91"/>
			<a:midPointStop  offset="0.5" style="stop-color:#194D91"/>
			<a:midPointStop  offset="0.6404" style="stop-color:#2B90BD"/>
			<a:midPointStop  offset="0.5" style="stop-color:#2B90BD"/>
			<a:midPointStop  offset="0.9438" style="stop-color:#82CBDE"/>
			<a:midPointStop  offset="0.5" style="stop-color:#82CBDE"/>
			<a:midPointStop  offset="1" style="stop-color:#1A478D"/>
		</linearGradient>
		<path i:isolated="yes" i:knockout="Off" opacity="0.1" fill="url(#XMLID_4_)" enable-background="new    " d="M0.79,11.17
			c0-4.344,3.313-7.869,7.397-7.869h67.347c4.086,0,7.399,3.523,7.399,7.869v90.229c0,4.346-3.313,7.868-7.399,7.868H8.188
			c-4.084,0-7.397-3.522-7.397-7.87L0.79,11.17L0.79,11.17z"/>
		<path fill="none" stroke="#4D4D4D" stroke-width="0.977" d="M0.32,101.419v24.962c0,5.148,3.353,9.325,7.482,9.325h68.12
			c4.131,0,7.48-4.175,7.48-9.325V11.171c0-4.346-3.353-7.869-7.482-7.869H7.803c-4.13,0-7.482,3.525-7.482,7.869L0.32,101.399
			C0.319,101.404,0.32,101.411,0.32,101.419z"/>
	</g>
	<g i:knockout="Off">
		<g i:knockout="Off">
			<path fill="#1D8F38" d="M27.575,60.274c-1.191-1.897-0.217-2.608,0.324-4.349c0.541-1.738-0.975-4.9-0.975-6.244
				c0-1.345,1.867-3.053,0.975-6.246c-0.717-2.562-2.762-3.23-4.812-3.271c-2.551-0.053-4.354,1.523-4.834,3.242
				c-0.893,3.193,0.975,4.901,0.975,6.245c0,1.344-1.516,4.507-0.975,6.245c0.541,1.739,1.516,2.451,0.324,4.348
				c-1.189,1.898-0.865,7.273,4.439,7.827l0.273-0.003C28.597,67.516,28.765,62.172,27.575,60.274z M25.517,45.254
				c-0.324,2.293-1.809,2.808-1.082,5.533c0.742,2.787,0.758,4.19,0.107,6.482c-0.648,2.293-0.146,3.092,0.434,4.507
				c0.773,1.884-0.203,4.388-2.064,4.318c-1.209-0.044-2.902-1.281-1.734-4.349c0.541-1.422,1.082-2.213,0.434-4.506
				c-0.65-2.293-0.635-3.695,0.107-6.482c0.725-2.726-0.758-3.241-1.082-5.533c-0.326-2.293,2.057-2.372,2.057-2.372l0.768,0.03
				C23.46,42.883,25.843,42.961,25.517,45.254z"/>
		</g>
		<g i:knockout="Off">
			<path fill="#1D8F38" d="M27.575,90.25c-1.191-1.897-0.217-2.609,0.324-4.348c0.541-1.74-0.975-4.902-0.975-6.246
				c0-1.345,1.867-3.052,0.975-6.245c-0.717-2.562-2.762-3.231-4.812-3.272c-2.551-0.051-4.354,1.523-4.834,3.242
				c-0.893,3.194,0.975,4.902,0.975,6.246s-1.516,4.506-0.975,6.245s1.516,2.451,0.324,4.348c-1.189,1.898-0.865,7.273,4.439,7.827
				l0.273-0.003C28.597,97.491,28.765,92.146,27.575,90.25z M25.517,75.229c-0.324,2.292-1.809,2.809-1.082,5.534
				c0.742,2.787,0.758,4.189,0.107,6.482c-0.648,2.293-0.146,3.091,0.434,4.506c0.773,1.884-0.203,4.388-2.064,4.318
				c-1.209-0.044-2.902-1.281-1.734-4.35c0.541-1.422,1.082-2.213,0.434-4.505c-0.65-2.293-0.635-3.696,0.107-6.482
				c0.725-2.727-0.758-3.241-1.082-5.534c-0.326-2.292,2.057-2.371,2.057-2.371l0.768,0.028
				C23.46,72.857,25.843,72.938,25.517,75.229z"/>
		</g>
		<g i:knockout="Off">
			<path fill="#D90000" d="M47.415,30.299c-1.191-1.897-0.217-2.609,0.324-4.348c0.543-1.74-0.974-4.902-0.974-6.246
				c0-1.344,1.867-3.051,0.974-6.245c-0.715-2.562-2.76-3.231-4.811-3.272c-2.553-0.051-4.354,1.523-4.836,3.242
				c-0.891,3.194,0.975,4.902,0.975,6.246c0,1.344-1.516,4.506-0.975,6.245c0.543,1.739,1.516,2.451,0.326,4.349
				c-1.191,1.896-0.867,7.272,4.439,7.826l0.273-0.003C48.438,37.539,48.606,32.196,47.415,30.299z M45.358,15.278
				c-0.324,2.292-1.81,2.808-1.082,5.534c0.739,2.787,0.758,4.189,0.106,6.482c-0.647,2.293-0.147,3.092,0.435,4.506
				c0.772,1.884-0.203,4.387-2.064,4.318c-1.211-0.045-2.902-1.281-1.736-4.348c0.541-1.424,1.084-2.214,0.434-4.506
				c-0.65-2.293-0.635-3.696,0.107-6.483c0.727-2.726-0.758-3.241-1.082-5.534c-0.324-2.292,2.057-2.371,2.057-2.371l0.77,0.029
				C43.302,12.906,45.683,12.986,45.358,15.278z"/>
		</g>
		<g i:knockout="Off">
			<path fill="#224899" d="M47.415,60.274c-1.191-1.897-0.217-2.608,0.324-4.349c0.543-1.738-0.974-4.9-0.974-6.244
				c0-1.345,1.867-3.053,0.974-6.246c-0.715-2.562-2.76-3.23-4.811-3.271c-2.553-0.053-4.354,1.523-4.836,3.242
				c-0.891,3.193,0.975,4.901,0.975,6.245c0,1.344-1.516,4.507-0.975,6.245c0.543,1.739,1.516,2.451,0.326,4.348
				c-1.191,1.898-0.867,7.273,4.439,7.827l0.273-0.003C48.438,67.516,48.606,62.172,47.415,60.274z M45.358,45.254
				c-0.324,2.293-1.81,2.808-1.082,5.533c0.739,2.787,0.758,4.19,0.106,6.482c-0.647,2.293-0.147,3.092,0.435,4.507
				c0.772,1.884-0.203,4.388-2.064,4.318c-1.211-0.044-2.902-1.281-1.736-4.349c0.541-1.422,1.084-2.213,0.434-4.506
				s-0.635-3.695,0.107-6.482c0.727-2.726-0.758-3.241-1.082-5.533c-0.324-2.293,2.057-2.372,2.057-2.372l0.77,0.03
				C43.302,42.883,45.683,42.961,45.358,45.254z"/>
		</g>
		<g i:knockout="Off">
			<path fill="#224899" d="M47.415,90.25c-1.191-1.897-0.217-2.609,0.324-4.348c0.543-1.74-0.974-4.902-0.974-6.246
				c0-1.345,1.867-3.052,0.974-6.245c-0.715-2.562-2.76-3.231-4.811-3.272c-2.553-0.051-4.354,1.523-4.836,3.242
				c-0.891,3.194,0.975,4.902,0.975,6.246s-1.516,4.506-0.975,6.245c0.543,1.739,1.516,2.451,0.326,4.348
				c-1.191,1.898-0.867,7.273,4.439,7.827l0.273-0.003C48.438,97.491,48.606,92.146,47.415,90.25z M45.358,75.229
				c-0.324,2.292-1.81,2.809-1.082,5.534c0.739,2.787,0.758,4.189,0.106,6.482c-0.647,2.293-0.147,3.091,0.435,4.506
				c0.772,1.884-0.203,4.388-2.064,4.318c-1.211-0.044-2.902-1.281-1.736-4.35c0.541-1.422,1.084-2.213,0.434-4.505
				c-0.65-2.293-0.635-3.696,0.107-6.482c0.727-2.727-0.758-3.241-1.082-5.534c-0.324-2.292,2.057-2.371,2.057-2.371l0.77,0.028
				C43.302,72.857,45.683,72.938,45.358,75.229z"/>
		</g>
		<g i:knockout="Off">
			<path fill="#1D8F38" d="M67.065,60.274c-1.191-1.897-0.218-2.608,0.323-4.349c0.541-1.738-0.975-4.9-0.975-6.244
				c0-1.345,1.867-3.053,0.975-6.246c-0.717-2.562-2.762-3.23-4.812-3.271c-2.551-0.053-4.354,1.523-4.834,3.242
				c-0.894,3.193,0.975,4.901,0.975,6.245c0,1.344-1.516,4.507-0.975,6.245c0.541,1.739,1.516,2.451,0.324,4.348
				c-1.189,1.898-0.865,7.273,4.438,7.827l0.275-0.003C68.087,67.516,68.257,62.172,67.065,60.274z M65.007,45.254
				c-0.324,2.293-1.807,2.808-1.082,5.533c0.742,2.787,0.758,4.19,0.107,6.482c-0.648,2.293-0.146,3.092,0.434,4.507
				c0.773,1.884-0.201,4.388-2.062,4.318c-1.211-0.044-2.902-1.281-1.736-4.349c0.541-1.422,1.082-2.213,0.434-4.506
				c-0.649-2.293-0.635-3.695,0.107-6.482c0.728-2.726-0.758-3.241-1.082-5.533c-0.326-2.293,2.057-2.372,2.057-2.372l0.769,0.03
				C62.95,42.883,65.333,42.961,65.007,45.254z"/>
		</g>
		<g i:knockout="Off">
			<path fill="#1D8F38" d="M67.065,90.25c-1.191-1.897-0.218-2.609,0.323-4.348c0.541-1.74-0.975-4.902-0.975-6.246
				c0-1.345,1.867-3.052,0.975-6.245c-0.717-2.562-2.762-3.231-4.812-3.272c-2.551-0.051-4.354,1.523-4.834,3.242
				c-0.894,3.194,0.975,4.902,0.975,6.246s-1.516,4.506-0.975,6.245s1.516,2.451,0.324,4.348c-1.189,1.898-0.865,7.273,4.438,7.827
				l0.275-0.003C68.087,97.491,68.257,92.146,67.065,90.25z M65.007,75.229c-0.324,2.292-1.807,2.809-1.082,5.534
				c0.742,2.787,0.758,4.189,0.107,6.482c-0.648,2.293-0.146,3.091,0.434,4.506c0.773,1.884-0.201,4.388-2.062,4.318
				c-1.211-0.044-2.902-1.281-1.736-4.35c0.541-1.422,1.082-2.213,0.434-4.505c-0.649-2.293-0.635-3.696,0.107-6.482
				c0.728-2.727-0.758-3.241-1.082-5.534c-0.326-2.292,2.057-2.371,2.057-2.371l0.769,0.028
				C62.95,72.857,65.333,72.938,65.007,75.229z"/>
		</g>
	</g>
</g>
</svg>
