<?xml version="1.0" encoding="utf-8"?>
<!-- Generator: Adobe Illustrator 12.0.0, SVG Export Plug-In . SVG Version: 6.00 Build 51448)  -->
<!DOCTYPE svg PUBLIC "-//W3C//DTD SVG 1.1//EN" "http://www.w3.org/Graphics/SVG/1.1/DTD/svg11.dtd" [
	<!ENTITY ns_flows "http://ns.adobe.com/Flows/1.0/">
	<!ENTITY ns_extend "http://ns.adobe.com/Extensibility/1.0/">
	<!ENTITY ns_ai "http://ns.adobe.com/AdobeIllustrator/10.0/">
	<!ENTITY ns_graphs "http://ns.adobe.com/Graphs/1.0/">
	<!ENTITY ns_vars "http://ns.adobe.com/Variables/1.0/">
	<!ENTITY ns_imrep "http://ns.adobe.com/ImageReplacement/1.0/">
	<!ENTITY ns_sfw "http://ns.adobe.com/SaveForWeb/1.0/">
	<!ENTITY ns_custom "http://ns.adobe.com/GenericCustomNamespace/1.0/">
	<!ENTITY ns_adobe_xpath "http://ns.adobe.com/XPath/1.0/">
	<!ENTITY ns_svg "http://www.w3.org/2000/svg">
	<!ENTITY ns_xlink "http://www.w3.org/1999/xlink">
]>
<svg  version="1.1"
	 xmlns:x="&ns_extend;" xmlns:i="&ns_ai;" xmlns:graph="&ns_graphs;" i:viewOrigin="-0.3208 113.645" i:rulerOrigin="0 0" i:pageBounds="0 113 108 0"
	 xmlns="&ns_svg;" xmlns:xlink="&ns_xlink;" xmlns:a="http://ns.adobe.com/AdobeSVGViewerExtensions/3.0/"
	 width="109.1" height="113.832" viewBox="0 0 109.1 113.832" overflow="visible" enable-background="new 0 0 109.1 113.832"
	 xml:space="preserve">
<metadata>
	<variableSets  xmlns="&ns_vars;">
		<variableSet  varSetName="binding1" locked="none">
			<variables></variables>
			<v:sampleDataSets  xmlns="&ns_custom;" xmlns:v="&ns_vars;"></v:sampleDataSets>
		</variableSet>
	</variableSets>
</metadata>
<g id="图层_1" i:layer="yes" i:dimmedPercent="50" i:rgbTrio="#4F008000FFFF">
	<g>
		
			<linearGradient id="XMLID_3_" gradientUnits="userSpaceOnUse" x1="935.4341" y1="81.0015" x2="1020.2271" y2="81.0015" gradientTransform="matrix(0 -1 1 0 -26.8223 1049.0791)">
			<stop  offset="0.1348" style="stop-color:#1889BC"/>
			<stop  offset="0.2247" style="stop-color:#C4E9F2"/>
			<a:midPointStop  offset="0.1348" style="stop-color:#1889BC"/>
			<a:midPointStop  offset="0.5" style="stop-color:#1889BC"/>
			<a:midPointStop  offset="0.2247" style="stop-color:#C4E9F2"/>
		</linearGradient>
		<path i:knockout="Off" fill="url(#XMLID_3_)" stroke="#000000" stroke-width="0.3739" d="M100.037,28.852
			c4.418,0,8.001,3.42,8.001,7.638v69.518c0,4.218-3.583,7.638-8.001,7.638H8.321c-4.418,0-8-3.42-8-7.638V36.49
			c0-4.218,3.582-7.638,8-7.638H100.037z"/>
		<path i:knockout="Off" fill="#FFFFFF" stroke="#000000" stroke-width="0.6414" d="M8.377,85.36c-4.448,0-8.056-3.43-8.056-7.66
			V7.98c0-4.23,3.608-7.659,8.056-7.659h92.348c4.447,0,8.055,3.429,8.055,7.659V77.7c0,4.23-3.607,7.66-8.055,7.66H8.377z"/>
		
			<linearGradient id="XMLID_4_" gradientUnits="userSpaceOnUse" x1="-229.9092" y1="-254.2622" x2="-144.8701" y2="-254.2622" gradientTransform="matrix(0 1 -1 0 -199.7119 230.23)">
			<stop  offset="0" style="stop-color:#A3DDEA"/>
			<stop  offset="0.0899" style="stop-color:#0678B3"/>
			<stop  offset="0.2135" style="stop-color:#094C91"/>
			<stop  offset="0.6404" style="stop-color:#2890C0"/>
			<stop  offset="0.8034" style="stop-color:#82D0E3"/>
			<stop  offset="1" style="stop-color:#09468C"/>
			<a:midPointStop  offset="0" style="stop-color:#A3DDEA"/>
			<a:midPointStop  offset="0.5" style="stop-color:#A3DDEA"/>
			<a:midPointStop  offset="0.0899" style="stop-color:#0678B3"/>
			<a:midPointStop  offset="0.5" style="stop-color:#0678B3"/>
			<a:midPointStop  offset="0.2135" style="stop-color:#094C91"/>
			<a:midPointStop  offset="0.5" style="stop-color:#094C91"/>
			<a:midPointStop  offset="0.6404" style="stop-color:#2890C0"/>
			<a:midPointStop  offset="0.5" style="stop-color:#2890C0"/>
			<a:midPointStop  offset="0.8034" style="stop-color:#82D0E3"/>
			<a:midPointStop  offset="0.5" style="stop-color:#82D0E3"/>
			<a:midPointStop  offset="1" style="stop-color:#09468C"/>
		</linearGradient>
		<path i:knockout="Off" opacity="0.1" fill="url(#XMLID_4_)" stroke="#000000" stroke-width="0.6414" d="M8.377,85.36
			c-4.448,0-8.056-3.43-8.056-7.66V7.98c0-4.23,3.608-7.659,8.056-7.659h92.348c4.448,0,8.055,3.429,8.055,7.659V77.7
			c0,4.23-3.606,7.66-8.055,7.66H8.377z"/>
		<path i:knockout="Off" fill="#24258D" d="M26.176,45.43c0.383-0.19,1.051-0.286,2.006-0.286l-0.287-1.146
			c-0.191-0.955-0.287-1.528-0.287-1.72c0-0.382,0.096-0.764,0.287-1.146c0-0.382,0.287-0.859,0.859-1.434
			c0.191-0.572,0.574-0.955,1.146-1.146c0.191-0.19,0.574-0.286,1.146-0.286l0.287,0.286c0,0.191,0.287,0.574,0.859,1.146
			c0,0.191,0.191,0.479,0.574,0.86c0.383,0.765,0.668,1.338,0.859,1.72c0.191,0.383,0.383,0.86,0.574,1.433
			c0.572,1.146,1.051,2.198,1.432,3.153l3.439,0.573L38.5,46.003c-0.572-0.955-0.859-1.91-0.859-2.866
			c-0.191-0.955-0.287-1.91-0.287-2.866c0-0.955,0.096-1.91,0.287-2.866c0-0.382,0.096-0.859,0.285-1.433v-0.573
			c0-0.382,0.096-0.859,0.287-1.434c0-0.572,0.287-1.146,0.859-1.72c0.191-0.572,0.766-1.241,1.721-2.006
			c0.574-0.764,1.146-1.242,1.719-1.434c0-0.19,0.957-0.286,2.867-0.286l0.859,0.859c0.574,0.574,1.434,1.147,2.58,1.72
			c1.146,0.574,2.389,1.243,3.727,2.007c0.572,0.383,1.242,0.86,2.006,1.433c0.574,0.191,0.955,0.383,1.146,0.573
			c0.191,0.191,0.479,0.479,0.859,0.86c0.574,0.383,1.051,0.765,1.434,1.146c0.574,0.765,1.146,1.434,1.719,2.006
			c0.191,0.574,0.479,1.147,0.861,1.72c0,0.191,0,0.383,0,0.573c0.191,0.383,0.285,0.669,0.285,0.86l-0.285,0.286
			c-0.191,0-0.383,0.096-0.574,0.287c-0.381,0.191-0.668,0.382-0.859,0.573l-0.287,0.573c-0.191,0.383-0.287,0.86-0.287,1.433
			c-0.189,0.574,0.002,1.243,0.574,2.007l0.572,0.286c-0.189,0.191,0.957,0.287,3.439,0.287l0.287-1.146
			c0-0.382,0.191-1.051,0.574-2.007c0.191-0.382,0.381-0.764,0.572-1.146c0.574-1.337,1.242-2.675,2.006-4.013
			c0.574-1.528,1.338-2.961,2.293-4.299c0.574-1.528,1.148-2.866,1.721-4.013c0.191-1.146,0.287-1.337,0.287-0.573
			c0-0.764,0.287-1.91,0.859-3.439c0.191-1.528,0.574-2.962,1.146-4.3c0.191-0.764,0.574-1.814,1.146-3.152
			c0.191-0.382,0.287-0.669,0.287-0.86c0.572-1.337,1.051-2.196,1.432-2.579h0.574l0.287,0.286c0,0.191,0.287,0.86,0.859,2.007
			c0.191,1.146,0.479,2.293,0.859,3.439c0,0.383,0,0.956,0,1.72c0.191,0.955,0.287,1.72,0.287,2.293s-0.096,1.242-0.287,2.006
			c0,0.765,0,1.242,0,1.434c-0.191,0.765-0.572,1.624-1.146,2.579c-0.572,0.765-1.146,1.625-1.719,2.58
			c-0.191,0.383-0.574,0.86-1.146,1.433c-0.574,0.574-0.955,1.052-1.146,1.434c-1.146,1.146-2.006,2.197-2.58,3.152
			c-0.383,0.383-0.859,1.052-1.434,2.007c-0.191,0.383-0.381,0.669-0.572,0.859c-0.764,0.956-1.434,2.198-2.008,3.727l0.574,0.573
			h5.732c2.484,0,4.203,0,5.158,0c1.146,0,1.816,0.096,2.008,0.286c0.381,0,0.859,0.096,1.434,0.287
			c0.381,0,0.859,0.096,1.432,0.286c0.191,0,0.479,0.096,0.861,0.287c0.189,0,0.381,0.096,0.572,0.286
			c0.383,0.191,0.859,0.479,1.434,0.86c0.572,0.191,1.051,0.573,1.434,1.146v0.573l-0.574,0.286c0,0.191-0.191,0.287-0.572,0.287
			c-0.383,0.191-0.574,0.382-0.574,0.573c-0.383,0.383-0.859,0.765-1.434,1.146c-0.572,0.191-1.338,0.765-2.293,1.72
			c-0.383,0.383-0.859,0.765-1.432,1.146c-0.191,0.383-0.383,0.669-0.574,0.859c-0.955,0.574-1.719,1.052-2.293,1.434
			c-0.764,0.191-1.434,0.478-2.006,0.859c-0.574,0.191-1.051,0.287-1.434,0.287l1.146,1.433c0.574,0.956,1.146,1.625,1.719,2.007
			c0.191,0.191,0.957,0.765,2.293,1.72v0.573l-0.572,0.573h-0.859c-0.574,0-1.051-0.096-1.434-0.287
			c-0.383-0.19-1.338-0.668-2.867-1.433h1.146l-0.859-0.86c-0.191-0.19-0.477-0.477-0.859-0.859
			c-0.572-0.382-1.051-0.764-1.434-1.146c-0.381-0.191-0.764-0.478-1.146-0.86c-0.381-0.382-0.764-0.668-1.146-0.859
			c-0.572-0.382-1.338-0.859-2.293-1.434c-0.572-0.382-1.623-1.051-3.152-2.006c0.383,0.383,0,0.191-1.146-0.573l0.287,0.859
			c0,0.191,0,0.479,0,0.86c0.191,0.383,0.285,0.765,0.285,1.146l-0.572,0.859c-0.572,0.574-1.146,1.243-1.721,2.007
			c-0.955,0.765-1.814,1.434-2.578,2.006c-0.191,0.191-0.574,0.383-1.146,0.573c-0.383,0.191-0.955,0.479-1.721,0.86
			c-0.381,0.191-0.955,0.286-1.719,0.286c-0.574,0.191-1.051,0.383-1.434,0.573c-1.146,0.191-2.197,0.287-3.152,0.287
			c-1.146,0-2.102-0.096-2.867-0.287c-1.146-0.382-2.006-0.668-2.58-0.859c-0.955-0.382-1.527-0.764-1.719-1.146
			c-0.572-0.382-0.859-0.859-0.859-1.434c-0.383-0.572-0.67-1.146-0.861-1.72c-0.189-0.19-0.572-0.668-1.146-1.433
			c0.191,0.383,0.098,0.191-0.285-0.573c-0.191-0.191-0.383-0.382-0.574-0.573c-0.191-0.382-0.477-0.955-0.859-1.72l-0.287,0.286
			c-0.381,0.191-0.572,0.574-0.572,1.146c-0.383,0.574-0.67,1.147-0.861,1.72c-0.189,0.191-0.381,0.479-0.572,0.86
			c-0.383,0.383-0.764,0.765-1.146,1.146H33.34l-0.285-0.287c-0.383-0.19-0.574-0.859-0.574-2.006
			c-0.381-1.146-0.668-2.293-0.859-3.439c-0.572-0.955-0.955-2.102-1.146-3.439l-0.574-0.287c-0.572-0.19-1.049-0.286-1.432-0.286
			c-0.574,0-1.146,0.096-1.721,0.286c-0.572,0.191-1.146,0.479-1.719,0.86c-0.574,0.191-1.051,0.573-1.434,1.146h-0.574
			l-0.285-0.287c-0.383-0.19-0.574-0.572-0.574-1.146c-0.191-0.572-0.287-0.955-0.287-1.146c0-0.19,0.096-0.668,0.287-1.433
			c0-0.382,0.287-0.955,0.859-1.72c0.191-0.191,0.287-0.382,0.287-0.573c0.766-1.146,1.434-2.102,2.006-2.866L26.176,45.43z
			 M37.926,52.596v0.286c0,0.191,0.096,0.67,0.287,1.434c0,0.765,0.287,1.624,0.859,2.579c0.383,1.146,0.957,2.198,1.721,3.153
			v0.286c0,0.191,0.383,1.052,1.146,2.58l0.572,0.286c0,0.191,0.957,0.287,2.867,0.287l-0.287-0.573
			c-0.191-0.191-0.477-0.765-0.859-1.72c0.383,0.765,0.287,0.478-0.287-0.86c-0.191-0.382-0.477-0.955-0.859-1.72
			c-0.191-0.764-0.383-1.337-0.574-1.72c-0.189-0.382-0.572-1.241-1.146-2.579c-0.189-0.764-0.381-1.337-0.572-1.72H37.926z
			 M45.379,53.169l0.287,0.859c0,0.574,0.191,1.338,0.572,2.293c0,0.383,0,0.86,0,1.434c0.191,0.573,0.287,1.051,0.287,1.433
			c0,0.765,0.096,1.625,0.287,2.58c0,0.573,0.287,1.146,0.859,1.72h1.146c0.574,0,1.434-0.096,2.58-0.287
			c0.955-0.382,2.006-0.668,3.152-0.859c1.146-0.382,2.006-0.669,2.58-0.86c0.191,0,0.285-0.095,0.285-0.286
			c0.383,0,0.766-0.19,1.146-0.573v-0.573v-0.573c-0.189-0.382-0.285-0.669-0.285-0.86c-0.191-0.572-0.574-1.241-1.146-2.006
			c-0.574-0.955-1.051-1.528-1.434-1.72c-0.572-0.382-0.955-0.669-1.146-0.86c-0.572-0.19-0.955-0.286-1.146-0.286l-0.287,2.006
			c0,0.383-0.096,0.86-0.287,1.434c-0.189,0.383-0.285,0.86-0.285,1.433c-0.191,0.191-0.383,0.383-0.574,0.573
			c0,0.383-0.096,0.669-0.287,0.86h-0.572l-0.574-1.146c-0.189-0.382-0.477-0.859-0.859-1.434c-0.191-0.382-0.381-0.764-0.572-1.146
			c-0.764-0.955-1.434-2.196-2.008-3.726h-1.146L45.379,53.169z M66.016,54.316l0.859,0.573c0.191,0.191,0.574,0.478,1.146,0.859
			c0.383,0.383,0.766,0.669,1.146,0.86c0.574,0.573,1.529,1.338,2.867,2.293c-0.191-0.191,0.096,0,0.859,0.573h0.287l1.146-0.287
			c0.572-0.19,1.146-0.572,1.719-1.146c0.191-0.19,0.383-0.477,0.574-0.859c0.383-0.382,0.668-0.669,0.859-0.86
			c0.191-0.572,0.479-1.05,0.859-1.433v-0.573c0.191-0.382,0.287-0.764,0.287-1.146l-0.574-0.573h-3.152
			c-2.484,0-5.062,0.191-7.738,0.573L66.016,54.316z M41.081,37.692c-0.191,0.383-0.287,1.146-0.287,2.293s0.096,2.197,0.287,3.152
			c0,0.765,0.287,1.625,0.859,2.58c0.191,0.573,0.574,1.146,1.146,1.72h2.865v-1.434c0-0.955,0.096-1.719,0.287-2.293
			c-0.191-0.572,0.287-1.241,1.434-2.006h0.572l1.434,1.433c0.955,0.765,1.721,1.625,2.293,2.58
			c0.383,0.765,0.861,1.242,1.434,1.433c0.191,0.191,0.574,0.287,1.146,0.287l0.287-0.86c0-0.572,0.191-1.146,0.572-1.72
			c0-0.572,0.287-1.241,0.859-2.006l-0.572-0.287c-0.572-0.19-1.146-0.572-1.721-1.146c-0.764-0.572-1.719-1.146-2.865-1.72
			c-1.338-0.572-2.58-1.05-3.727-1.433c-1.527-0.382-2.674-0.669-3.439-0.86c-0.764-0.19-1.623-0.286-2.58-0.286L41.081,37.692z"/>
	</g>
</g>
</svg>
