<?xml version="1.0" encoding="utf-8"?>
<!-- Generator: Adobe Illustrator 12.0.0, SVG Export Plug-In . SVG Version: 6.00 Build 51448)  -->
<!DOCTYPE svg PUBLIC "-//W3C//DTD SVG 1.1//EN" "http://www.w3.org/Graphics/SVG/1.1/DTD/svg11.dtd" [
	<!ENTITY ns_flows "http://ns.adobe.com/Flows/1.0/">
	<!ENTITY ns_extend "http://ns.adobe.com/Extensibility/1.0/">
	<!ENTITY ns_ai "http://ns.adobe.com/AdobeIllustrator/10.0/">
	<!ENTITY ns_graphs "http://ns.adobe.com/Graphs/1.0/">
	<!ENTITY ns_vars "http://ns.adobe.com/Variables/1.0/">
	<!ENTITY ns_imrep "http://ns.adobe.com/ImageReplacement/1.0/">
	<!ENTITY ns_sfw "http://ns.adobe.com/SaveForWeb/1.0/">
	<!ENTITY ns_custom "http://ns.adobe.com/GenericCustomNamespace/1.0/">
	<!ENTITY ns_adobe_xpath "http://ns.adobe.com/XPath/1.0/">
	<!ENTITY ns_svg "http://www.w3.org/2000/svg">
	<!ENTITY ns_xlink "http://www.w3.org/1999/xlink">
]>
<svg  version="1.1"
	 xmlns:x="&ns_extend;" xmlns:i="&ns_ai;" xmlns:graph="&ns_graphs;" i:viewOrigin="-0.3208 113.645" i:rulerOrigin="0 0" i:pageBounds="0 113 108 0"
	 xmlns="&ns_svg;" xmlns:xlink="&ns_xlink;" xmlns:a="http://ns.adobe.com/AdobeSVGViewerExtensions/3.0/"
	 width="109.1" height="113.832" viewBox="0 0 109.1 113.832" overflow="visible" enable-background="new 0 0 109.1 113.832"
	 xml:space="preserve">
<metadata>
	<variableSets  xmlns="&ns_vars;">
		<variableSet  varSetName="binding1" locked="none">
			<variables></variables>
			<v:sampleDataSets  xmlns="&ns_custom;" xmlns:v="&ns_vars;"></v:sampleDataSets>
		</variableSet>
	</variableSets>
</metadata>
<g id="图层_1" i:layer="yes" i:dimmedPercent="50" i:rgbTrio="#4F008000FFFF">
	<g>
		
			<linearGradient id="XMLID_3_" gradientUnits="userSpaceOnUse" x1="935.4341" y1="81.0015" x2="1020.2271" y2="81.0015" gradientTransform="matrix(0 -1 1 0 -26.8223 1049.0791)">
			<stop  offset="0.1348" style="stop-color:#1889BC"/>
			<stop  offset="0.2247" style="stop-color:#C4E9F2"/>
			<a:midPointStop  offset="0.1348" style="stop-color:#1889BC"/>
			<a:midPointStop  offset="0.5" style="stop-color:#1889BC"/>
			<a:midPointStop  offset="0.2247" style="stop-color:#C4E9F2"/>
		</linearGradient>
		<path i:knockout="Off" fill="url(#XMLID_3_)" stroke="#000000" stroke-width="0.3739" d="M100.036,28.852
			c4.418,0,8.002,3.42,8.002,7.638v69.518c0,4.218-3.584,7.638-8.002,7.638H8.321c-4.418,0-8-3.42-8-7.638V36.49
			c0-4.218,3.582-7.638,8-7.638H100.036z"/>
		<path i:knockout="Off" fill="#FFFFFF" stroke="#000000" stroke-width="0.6414" d="M8.376,85.36c-4.448,0-8.056-3.43-8.056-7.66
			V7.98c0-4.23,3.607-7.659,8.056-7.659h92.347c4.449,0,8.055,3.429,8.055,7.659V77.7c0,4.23-3.605,7.66-8.055,7.66H8.376z"/>
		
			<linearGradient id="XMLID_4_" gradientUnits="userSpaceOnUse" x1="-229.9092" y1="-254.2622" x2="-144.8701" y2="-254.2622" gradientTransform="matrix(0 1 -1 0 -199.7119 230.23)">
			<stop  offset="0" style="stop-color:#A3DDEA"/>
			<stop  offset="0.0899" style="stop-color:#0678B3"/>
			<stop  offset="0.2135" style="stop-color:#094C91"/>
			<stop  offset="0.6404" style="stop-color:#2890C0"/>
			<stop  offset="0.8034" style="stop-color:#82D0E3"/>
			<stop  offset="1" style="stop-color:#09468C"/>
			<a:midPointStop  offset="0" style="stop-color:#A3DDEA"/>
			<a:midPointStop  offset="0.5" style="stop-color:#A3DDEA"/>
			<a:midPointStop  offset="0.0899" style="stop-color:#0678B3"/>
			<a:midPointStop  offset="0.5" style="stop-color:#0678B3"/>
			<a:midPointStop  offset="0.2135" style="stop-color:#094C91"/>
			<a:midPointStop  offset="0.5" style="stop-color:#094C91"/>
			<a:midPointStop  offset="0.6404" style="stop-color:#2890C0"/>
			<a:midPointStop  offset="0.5" style="stop-color:#2890C0"/>
			<a:midPointStop  offset="0.8034" style="stop-color:#82D0E3"/>
			<a:midPointStop  offset="0.5" style="stop-color:#82D0E3"/>
			<a:midPointStop  offset="1" style="stop-color:#09468C"/>
		</linearGradient>
		<path i:knockout="Off" opacity="0.1" fill="url(#XMLID_4_)" stroke="#000000" stroke-width="0.6414" d="M8.376,85.36
			c-4.448,0-8.056-3.43-8.056-7.66V7.98c0-4.23,3.607-7.659,8.056-7.659h92.349c4.447,0,8.055,3.429,8.055,7.659V77.7
			c0,4.23-3.607,7.66-8.055,7.66H8.376z"/>
		<path i:knockout="Off" fill="#24258D" d="M34.756,39.699c0-1.168,0.168-2.086,0.5-2.756c0-0.668,0.168-1.252,0.503-1.754
			c0-0.5,0.25-1.002,0.751-1.504c0.334-0.666,0.835-1.252,1.503-1.752h1.002l0.251,0.5c0,0.168,0.083,0.418,0.251,0.752
			c0.167,0.334,0.251,0.584,0.251,0.752c0,0.668,0.252,1.504,0.751,2.506c0.168,1.002,0.502,1.838,1.003,2.506
			c0.167,0.5,0.667,1.502,1.502,3.006l1.253,0.502c0.67,0.166,1.672,0.5,3.008,1.002l-0.751-1.002
			c-0.335-0.502-0.419-0.668-0.252-0.502c-0.333-0.668-0.751-1.168-1.253-1.504v-0.5c-0.165-0.334,0.001-0.836,0.502-1.504
			c0.334-0.668,0.751-1.252,1.253-1.754c0.501-0.5,1.086-0.836,1.754-1.002c0.167-0.168,0.502-0.25,1.002-0.25
			c0.335-0.168,0.584-0.252,0.751-0.252l-0.25-2.254c0-1.336,0-2.256,0-2.758c0-0.5,0.083-1.252,0.25-2.254
			c0-1.002,0.252-1.922,0.752-2.758c0.167-0.834,0.502-1.586,1.002-2.254c0.168-0.334,0.419-0.836,0.753-1.504
			c0.168-0.166,0.334-0.334,0.501-0.5c0.502-0.668,0.835-1.086,1.002-1.254c0-0.334,0.419-0.584,1.253-0.752
			c0.502-0.334,0.918-0.5,1.252-0.5l1.004,0.25c0.334,0.166,1.002,0.502,2.004,1.002c0.668,0.502,1.502,0.836,2.506,1.002
			c0.334,0.168,0.918,0.252,1.754,0.252c0.668,0.166,1.252,0.25,1.754,0.25c0.5,0,1.086,0.084,1.754,0.25
			c1.002,0,1.67,0.084,2.004,0.25c1.004,0.168,2.256,0.418,3.758,0.754c0.836,0.166,2.09,0.5,3.76,1.002
			c0.502,0.166,0.836,0.332,1.002,0.5l0.502-0.5l1.252,1.002c0.334,0.334,0.752,0.668,1.254,1.002
			c0.334,0.334,0.584,0.584,0.752,0.752c0.5,0.502,1.002,1.086,1.502,1.754c0.168,0.168,0.336,0.418,0.502,0.752
			c0.5,0.668,0.918,1.252,1.254,1.754l-0.252,0.25l-0.25,0.25c-0.502,0.336-0.918,0.67-1.254,1.004
			c-0.668,0.668-1.418,1.252-2.254,1.752c-0.334,0.168-0.752,0.586-1.254,1.254c-0.334,0.334-0.586,0.584-0.75,0.752
			c-0.67,0.836-1.086,1.504-1.254,2.004c-0.168,0.502-0.502,0.92-1.002,1.254c-0.502,0.166-1.42,0.5-2.758,1.002l0.252-0.252
			c0-0.332,0.25-0.834,0.75-1.502c0.336-0.836,0.754-1.67,1.254-2.506c0.334-0.334,0.586-1.004,0.752-2.006
			c0,0.502,0.084,0.336,0.25-0.5c0-0.166,0-0.5,0-1.002c0.168-0.668,0.252-1.254,0.252-1.754l-0.502-0.502
			c-0.502-0.334-0.836-0.584-1.004-0.752c-0.164-0.166-0.416-0.25-0.75-0.25c-0.168,0-0.334-0.084-0.502-0.25
			c-0.5-0.334-1.252-0.584-2.254-0.752c-1.17-0.334-2.004-0.586-2.508-0.752c-0.834-0.166-1.334-0.25-1.502-0.25
			c-0.5,0-1.086-0.084-1.754-0.252c-0.334-0.166-0.918-0.25-1.756-0.25c-0.666-0.168-1.166-0.25-1.502-0.25
			c-0.5,0-1.168-0.084-2.004-0.252c-0.834,0-1.42-0.082-1.754-0.25c-1.338-0.166-2.34-0.25-3.008-0.25
			c-0.834,0-1.919,0.334-3.257,1.002v0.25v0.502c-0.167,0.502-0.334,1.002-0.501,1.504c-0.501,1.168-0.584,2.506-0.25,4.008
			c0,0.502,0.084,1.17,0.25,2.004c0,0.67,0,1.17,0,1.504h0.251c0,0.168,0.502,0.502,1.504,1.002
			c0.334,0.168,0.751,0.504,1.251,1.004c0.336,0.334,0.67,0.584,1.002,0.752l0.502-1.004c0.168-0.834,0.502-1.336,1.002-1.502
			c0.168-0.334,0.502-0.586,1.004-0.752c0.166-0.168,0.834-0.25,2.004-0.25l1.254,1.252c0.834,1.002,1.92,1.922,3.256,2.756v-2.004
			l0.502-0.502c0.334-0.334,0.752-0.668,1.252-1.002s1.004-0.584,1.504-0.752c0.334-0.166,0.918-0.25,1.754-0.25l0.5,1.002
			l-0.5,1.002l1.002,1.504v0.502c0,0.5,0.168,1.336,0.502,2.506l1.502-0.502l0.502,0.25c0.168,0.168,0.502,0.252,1.002,0.252
			c0.336,0.166,0.668,0.25,1.002,0.25c0.836,0.166,1.586,0.418,2.256,0.752c0.836,0.334,1.922,0.5,3.258,0.5l1.504,1.004
			l-1.004,1.502l-1.002,0.25c-0.166,0-0.418,0.084-0.752,0.252c-0.5,0-0.834,0.084-1.002,0.25c-0.502,0.168-1.002,0.25-1.504,0.25
			c-0.334,0-0.668,0.084-1.002,0.252c-0.5,0.334-1.254,0.25-2.256-0.252l0.502,1.504c0.168,0.502,0.168,0.668,0,0.502
			c0.336,0.834,0.5,1.67,0.5,2.506l-0.5,0.5c-0.5,0.168-1.086,0.418-1.752,0.752c-1.004,0.168-1.588,0.25-1.756,0.25l-1.502-1.002
			v-1.002l-0.252-0.252c-0.334-0.166-0.5-0.582-0.5-1.252c-0.168-0.666-0.586-1.336-1.254-2.004h-2.004l0.25,0.502
			c0,0.334,0.252,0.918,0.752,1.752c0.334,0.67,0.5,1.588,0.5,2.758l0.502,0.5l-1.504,0.502l-1.002-0.502l-0.5,0.502l-0.752-0.252
			c-0.668-0.332-1.422-0.918-2.256-1.752l-1.002,0.5c-0.168,0-0.416,0.084-0.752,0.25c-0.334,0.168-0.586,0.252-0.752,0.252h-0.752
			l0.252,1.002c0.166,0.668,0.5,1.42,1.002,2.254c0.168,0.836,0.418,1.506,0.75,2.006c0,0.502,0.252,0.918,0.752,1.252
			c0.168,0.168,0.67,0.418,1.504,0.752c0.168,0.168,0.42,0.252,0.752,0.252c0.502,0,0.834,0.082,1.002,0.25
			c0.502,0.166,1.002,0.166,1.504,0c0.336-0.168,0.752-0.25,1.252-0.25c0.334,0,0.838,0.166,1.504,0.5l2.004-0.25
			c0.336,0,0.92-0.084,1.754-0.25c0.836,0,1.422-0.084,1.754-0.252c0.67-0.166,1.504-0.25,2.508-0.25l1.002,1.002v0.502L77.604,61.5
			c-1.17,0.668-2.006,1.17-2.508,1.504c-0.834,0.166-1.502,0.416-2.004,0.75c-0.668,0.168-1.252,0.252-1.754,0.252
			c-0.5,0-1.254-0.084-2.256-0.252c-1.002-0.166-1.92-0.25-2.756-0.25c-1.002,0-1.754,0.084-2.254,0.25
			c-0.836,0.168-1.754,0.42-2.758,0.752c-0.332,0-0.666,0.084-1.002,0.25c-0.5,0.168-1.086,0.252-1.754,0.252l-0.502-0.502
			c-0.5-0.332-0.75-0.75-0.75-1.252c-0.168-0.5-0.252-0.918-0.252-1.252c0-0.502,0.336-1.338,1.002-2.506v2.506l1.254-0.502
			c0.67-0.168,1.338-0.502,2.004-1.002l-1.002-0.502c-0.5-0.334-1.002-0.75-1.502-1.252c-0.668-0.668-1.086-1.42-1.254-2.256
			l-0.502-0.25c-0.5-0.334-0.834-0.584-1.002-0.752c-0.5-0.168-0.917-0.836-1.251-2.004h-0.251c-0.168,0-0.667-0.168-1.504-0.502
			v-0.252c0-0.166,0-0.5,0-1.002l-0.25-0.5c-0.167-0.334-0.501-0.584-1.002-0.752c-0.502-0.334-1.755-0.668-3.76-1.002v0.75
			c0,0.168,0,0.42,0,0.754c-0.166,0.5-0.249,0.918-0.249,1.252c-0.168,0.668-0.252,1.588-0.252,2.756l-0.501,0.502
			c-0.5,0.334-0.835,0.752-1.003,1.252c-0.166,0.168-0.416,0.418-0.751,0.752c-0.168,0.336-0.333,0.586-0.5,0.752
			c-0.503,0.502-1.421,1.086-2.758,1.754v-1.002c0-0.334-0.082-0.918-0.25-1.754c-0.166-0.334-0.25-0.668-0.25-1.002
			c-0.335-0.836-0.503-2.256-0.503-4.26l-0.751-1.002c0-0.168-0.084-0.334-0.25-0.502c-0.501-0.668-0.835-1.336-1.003-2.004
			l-2.254-0.252c-1.505-0.166-3.175-0.25-5.011-0.25c-2.173,0-3.927,0.168-5.263,0.502l0.5,1.502l-0.5,1.004h-0.502l-0.752-0.754
			c-0.668-0.498-1.002-0.916-1.002-1.252c-0.167-0.334-0.251-0.584-0.251-0.752c0-0.166,0.084-0.5,0.251-1.002
			c0-0.5,0.251-1.086,0.752-1.754c0.167-0.334,0.417-0.834,0.753-1.502c0.167-0.168,0.332-0.334,0.499-0.502
			c0.503-0.668,1.003-1.252,1.505-1.754c0.501-0.502,1.002-0.836,1.503-1.004c0.502-0.166,0.835-0.25,1.002-0.25l1.505,0.502
			c0.667,0.334,1.586,0.502,2.755,0.502L34.756,39.699z M54.802,42.457c0,0.334,0.251,0.918,0.751,1.754
			c0.334,0.836,0.752,1.92,1.252,3.258l0.502,0.25c0.334,0.334,1.252,0.25,2.756-0.25l-0.5-1.254
			c-0.502-0.836-0.668-1.586-0.502-2.254l-1.004-0.502c-0.666-0.334-1.252-0.586-1.752-0.752c-0.168,0-0.334-0.084-0.502-0.25
			c-0.501-0.168-0.917-0.334-1.252-0.502L54.802,42.457z M48.036,39.951v0.5c0,0.168,0.084,0.67,0.251,1.504
			c0,0.336,0.083,0.836,0.251,1.504c-0.168-0.334-0.084-0.166,0.251,0.502l1.252,0.5c0.334,0,1.085,0.252,2.256,0.752l-0.252-0.752
			v-0.5c-0.166-0.502-0.249-0.92-0.249-1.254c-0.334-0.836-0.502-1.586-0.502-2.256L48.036,39.951z"/>
	</g>
</g>
</svg>
