<?xml version="1.0" encoding="utf-8"?>
<!-- Generator: Adobe Illustrator 12.0.0, SVG Export Plug-In . SVG Version: 6.00 Build 51448)  -->
<!DOCTYPE svg PUBLIC "-//W3C//DTD SVG 1.1//EN" "http://www.w3.org/Graphics/SVG/1.1/DTD/svg11.dtd" [
	<!ENTITY ns_flows "http://ns.adobe.com/Flows/1.0/">
	<!ENTITY ns_extend "http://ns.adobe.com/Extensibility/1.0/">
	<!ENTITY ns_ai "http://ns.adobe.com/AdobeIllustrator/10.0/">
	<!ENTITY ns_graphs "http://ns.adobe.com/Graphs/1.0/">
	<!ENTITY ns_vars "http://ns.adobe.com/Variables/1.0/">
	<!ENTITY ns_imrep "http://ns.adobe.com/ImageReplacement/1.0/">
	<!ENTITY ns_sfw "http://ns.adobe.com/SaveForWeb/1.0/">
	<!ENTITY ns_custom "http://ns.adobe.com/GenericCustomNamespace/1.0/">
	<!ENTITY ns_adobe_xpath "http://ns.adobe.com/XPath/1.0/">
	<!ENTITY ns_svg "http://www.w3.org/2000/svg">
	<!ENTITY ns_xlink "http://www.w3.org/1999/xlink">
]>
<svg  version="1.1"
	 xmlns:x="&ns_extend;" xmlns:i="&ns_ai;" xmlns:graph="&ns_graphs;" i:viewOrigin="-0.3208 113.645" i:rulerOrigin="0 0" i:pageBounds="0 113 108 0"
	 xmlns="&ns_svg;" xmlns:xlink="&ns_xlink;" xmlns:a="http://ns.adobe.com/AdobeSVGViewerExtensions/3.0/"
	 width="109.1" height="113.832" viewBox="0 0 109.1 113.832" overflow="visible" enable-background="new 0 0 109.1 113.832"
	 xml:space="preserve">
<metadata>
	<variableSets  xmlns="&ns_vars;">
		<variableSet  varSetName="binding1" locked="none">
			<variables></variables>
			<v:sampleDataSets  xmlns="&ns_custom;" xmlns:v="&ns_vars;"></v:sampleDataSets>
		</variableSet>
	</variableSets>
</metadata>
<g id="图层_1" i:layer="yes" i:dimmedPercent="50" i:rgbTrio="#4F008000FFFF">
	<g>
		
			<linearGradient id="XMLID_3_" gradientUnits="userSpaceOnUse" x1="935.4341" y1="81.0015" x2="1020.2271" y2="81.0015" gradientTransform="matrix(0 -1 1 0 -26.8223 1049.0791)">
			<stop  offset="0.1348" style="stop-color:#1889BC"/>
			<stop  offset="0.2247" style="stop-color:#C4E9F2"/>
			<a:midPointStop  offset="0.1348" style="stop-color:#1889BC"/>
			<a:midPointStop  offset="0.5" style="stop-color:#1889BC"/>
			<a:midPointStop  offset="0.2247" style="stop-color:#C4E9F2"/>
		</linearGradient>
		<path i:knockout="Off" fill="url(#XMLID_3_)" stroke="#000000" stroke-width="0.3739" d="M100.037,28.852
			c4.418,0,8.001,3.42,8.001,7.638v69.518c0,4.218-3.583,7.638-8.001,7.638H8.321c-4.418,0-8-3.42-8-7.638V36.49
			c0-4.218,3.582-7.638,8-7.638H100.037z"/>
		<path i:knockout="Off" fill="#FFFFFF" stroke="#000000" stroke-width="0.6414" d="M8.377,85.36c-4.449,0-8.057-3.43-8.057-7.66
			V7.98c0-4.23,3.607-7.659,8.057-7.659h92.348c4.447,0,8.055,3.429,8.055,7.659V77.7c0,4.23-3.607,7.66-8.055,7.66H8.377z"/>
		
			<linearGradient id="XMLID_4_" gradientUnits="userSpaceOnUse" x1="-229.9092" y1="-254.2622" x2="-144.8701" y2="-254.2622" gradientTransform="matrix(0 1 -1 0 -199.7119 230.23)">
			<stop  offset="0" style="stop-color:#A3DDEA"/>
			<stop  offset="0.0899" style="stop-color:#0678B3"/>
			<stop  offset="0.2135" style="stop-color:#094C91"/>
			<stop  offset="0.6404" style="stop-color:#2890C0"/>
			<stop  offset="0.8034" style="stop-color:#82D0E3"/>
			<stop  offset="1" style="stop-color:#09468C"/>
			<a:midPointStop  offset="0" style="stop-color:#A3DDEA"/>
			<a:midPointStop  offset="0.5" style="stop-color:#A3DDEA"/>
			<a:midPointStop  offset="0.0899" style="stop-color:#0678B3"/>
			<a:midPointStop  offset="0.5" style="stop-color:#0678B3"/>
			<a:midPointStop  offset="0.2135" style="stop-color:#094C91"/>
			<a:midPointStop  offset="0.5" style="stop-color:#094C91"/>
			<a:midPointStop  offset="0.6404" style="stop-color:#2890C0"/>
			<a:midPointStop  offset="0.5" style="stop-color:#2890C0"/>
			<a:midPointStop  offset="0.8034" style="stop-color:#82D0E3"/>
			<a:midPointStop  offset="0.5" style="stop-color:#82D0E3"/>
			<a:midPointStop  offset="1" style="stop-color:#09468C"/>
		</linearGradient>
		<path i:knockout="Off" opacity="0.1" fill="url(#XMLID_4_)" stroke="#000000" stroke-width="0.6414" d="M8.377,85.36
			c-4.449,0-8.057-3.43-8.057-7.66V7.98c0-4.23,3.607-7.659,8.057-7.659h92.348c4.448,0,8.055,3.429,8.055,7.659V77.7
			c0,4.23-3.606,7.66-8.055,7.66H8.377z"/>
		<path i:knockout="Off" fill="#24258D" d="M26.892,37.978c0.572-1.146,1.146-2.197,1.719-3.152
			c0.191-0.383,0.479-0.955,0.859-1.721c0.191-0.189,0.287-0.381,0.287-0.572s0-0.477,0-0.859c0.191-0.383,0.287-0.764,0.287-1.146
			l1.719-1.146h0.574l1.146-1.146l1.719,1.146h1.434c0.955,0,2.293,0.096,4.014,0.285c0.383,0,0.955,0.096,1.719,0.287
			c1.338,0.191,2.58,0.383,3.727,0.574l2.293-1.146l-1.721-0.574l-0.572-0.859c-0.572-0.572-0.859-1.338-0.859-2.293
			c-0.383-0.955-0.67-1.719-0.861-2.293c-0.572-0.572-0.859-1.146-0.859-1.721c-0.191-0.572-0.287-0.955-0.287-1.146
			c0-0.381,0.191-1.051,0.574-2.006l0.859-0.572c0.574-0.383,1.242-0.67,2.006-0.861c0.574-0.189,1.148-0.285,1.721-0.285
			c0.191-0.191,0.955,0,2.293,0.572l0.572,0.859c0,0.191,0.096,0.383,0.287,0.574c0,0.191,0.287,0.764,0.859,1.719
			c0.383,0.957,0.861,2.008,1.434,3.154c0.191,0.191,0.383,0.572,0.574,1.146c0,0.383,0.287,0.955,0.859,1.719
			c0.191,0.766,0.764,1.721,1.719,2.867v0.572l-1.146,1.721l0.861,0.285c0.191,0.191,0.572,0.287,1.146,0.287
			c0.383,0.191,0.764,0.287,1.146,0.287c0.383,0.191,0.859,0.287,1.432,0.287c0.574,0.191,1.053,0.285,1.434,0.285
			c0.955,0.191,1.721,0.287,2.293,0.287c0.574,0,1.242-0.096,2.006-0.287c0.574-0.189,0.766-0.285,0.574-0.285
			c0.191,0,0.67-0.287,1.434-0.861c0.383-0.381,0.955-1.432,1.719-3.152c-0.191,0.191-0.096-0.191,0.287-1.146L69.884,26.8
			c-0.381-0.572-0.668-1.242-0.859-2.006c-0.383-0.383-0.955-1.91-1.721-4.586l1.146-0.574l-1.146-0.572l0.574-1.146
			c0.191-0.955,0.479-1.529,0.859-1.721c0-0.381,0.861-1.527,2.58-3.439l1.146-0.287c0.574-0.189,1.146-0.285,1.719-0.285
			c0.191,0,0.766,0.191,1.721,0.572c-0.383-0.191,0,0,1.146,0.574l0.287,0.859c0,0.574,0.287,1.529,0.859,2.865
			c0.191,1.338,0.287,2.391,0.287,3.154c-0.383,0.764-0.383,1.719,0,2.865c0,1.146,0,2.008,0,2.58
			c-0.191,0.574-0.287,1.146-0.287,1.719c0,0.191,0,0.479,0,0.861c-0.191,0.955-0.287,1.719-0.287,2.293
			c0,0.383-0.096,0.859-0.287,1.432c-0.189,0.574-0.285,1.053-0.285,1.434c-0.383,0.191-0.67,0.766-0.861,1.721
			c-0.572,0.764-1.145,1.338-1.719,1.719c-0.383,0-0.859,0.191-1.434,0.574c-0.381,0.383-0.764,0.572-1.146,0.572
			c-1.146,0.191-2.102,0.479-2.865,0.859c-1.146,0.191-2.102,0.287-2.867,0.287c-1.146,0-2.102-0.096-2.865-0.287
			c-0.383-0.189-1.051-0.285-2.008-0.285c-0.764-0.191-1.336-0.287-1.719-0.287c-1.719-0.191-2.676-0.287-2.867-0.287
			c-0.572,0-1.527,0.191-2.865,0.574l0.859,0.859c0.191,0.191,0.67,0.764,1.434,1.719c-0.383-0.572-0.191-0.285,0.572,0.861
			c0.383,0.955,2.867,3.631,7.453,8.025l2.006,0.285c0.383,0.191,1.051,0.287,2.006,0.287c0.957,0.191,1.625,0.287,2.008,0.287
			c0.383,0.191,0.955,0.287,1.719,0.287c0.766,0,1.338,0.096,1.721,0.285c0.191,0,0.572,0.096,1.146,0.287
			c0.572,0,0.955,0.096,1.146,0.287c0.572,0.383,1.623,0.859,3.152,1.434l-0.574,0.572c-0.189,0-0.477,0.191-0.859,0.574
			c-0.764,0.572-1.623,1.146-2.58,1.719l1.146,1.721l0.861,0.285c0.383,0.191,1.146,0.67,2.293,1.434
			c1.146,0.955,2.293,2.293,3.439,4.014v0.859c-0.191,0.574-0.287,1.242-0.287,2.006l-0.287,0.287
			c-0.191,0.191-0.859,0.574-2.006,1.146c-0.383,0.191-1.051,0.479-2.006,0.859c-0.383,0.191-0.67,0.287-0.861,0.287
			c-0.955,0.191-1.527,0.287-1.719,0.287c-0.572,0-1.146-0.191-1.721-0.574c-0.955-0.381-1.719-0.668-2.293-0.859
			c-0.955-0.383-2.006-0.668-3.152-0.859c-0.572-0.191-1.434-0.479-2.58-0.861c-0.381-0.189-0.668-0.285-0.859-0.285
			c-0.572-0.191-1.434-0.574-2.58-1.146c-0.381-0.191-0.764-0.383-1.146-0.574l-0.285,0.859c-0.191,0.574-0.574,1.244-1.146,2.008
			c-0.574,0.764-1.146,1.242-1.721,1.432c-0.191,0.191-0.572,0.287-1.146,0.287c-0.381,0.191-0.668,0.383-0.859,0.574
			c-0.191,0-0.572,0.191-1.146,0.572c-0.955,0.383-1.91,0.766-2.867,1.146v-0.859c0-0.191,0-0.477,0-0.859
			c-0.189-0.764-0.285-1.434-0.285-2.008c-0.191-1.527-0.287-2.674-0.287-3.439c0-0.381-0.096-0.859-0.287-1.432
			c0-0.383,0-0.67,0-0.861c-0.191-0.189-0.287-1.24-0.287-3.152l-0.572-0.859c-0.572-0.572-0.955-1.242-1.146-2.006l-0.574,0.285
			c-0.572,0.191-0.955,0.287-1.146,0.287c-0.189,0-0.764,0.096-1.719,0.287c0.574-0.191,0.287-0.096-0.859,0.287
			c-0.574,0.191-1.338,0.381-2.293,0.572c-0.574,0.383-1.051,0.574-1.434,0.574c-0.955,0.191-2.484,0.572-4.586,1.146l0.287-0.861
			c0-0.189,0.096-0.477,0.285-0.859v-0.572c0-0.383,0.096-1.051,0.287-2.008c-0.191-0.764,0.67-2.006,2.58-3.725v-0.574l1.146-0.859
			c0.574-0.572,1.338-0.955,2.293-1.146c0.191-0.191,0.574-0.287,1.146-0.287c0.574-0.191,0.955-0.287,1.146-0.287
			c0.574-0.189,1.242-0.285,2.006-0.285c0.574,0,1.434,0.096,2.58,0.285c0.383,0,0.859,0.096,1.434,0.287
			c0.572,0,1.051,0.096,1.432,0.287c0.191,0.191,0.67,0.287,1.434,0.287c0.574,0.191,1.051,0.285,1.434,0.285
			c0.574,0.191,1.529,0.287,2.865,0.287c0.957,0.191,1.721,0.287,2.293,0.287l-0.859-0.859c-0.191-0.383-0.859-1.146-2.006-2.293
			c-0.764-0.955-1.434-1.721-2.006-2.293c-0.764-0.764-1.721-1.816-2.867-3.154c-1.527-1.527-2.77-2.77-3.727-3.725l-4.299-0.287
			c-2.865-0.191-4.777-0.287-5.732-0.287c-1.146,0-2.293,0.096-3.439,0.287c-0.381,0-0.859,0.096-1.434,0.287
			c-0.381,0-0.859,0.096-1.432,0.285c-0.574,0.191-1.146,0.479-1.721,0.861c-0.191,0.191-0.572,0.285-1.146,0.285
			c-0.381,0.191-0.668,0.383-0.859,0.574c-0.191,0-0.477,0.096-0.859,0.287c-0.764,0.191-1.434,0.381-2.008,0.572l-1.146-0.572
			L26.892,37.978z M60.14,58.328c0.572,0.574,1.146,1.244,1.719,2.008c0.383,0.764,1.146,1.623,2.293,2.578
			c0.955,0.957,1.721,1.625,2.293,2.008c0.191,0,0.479,0.191,0.859,0.572c0.383,0.383,0.67,0.574,0.861,0.574
			c0.572,0.383,0.668,0.477,0.285,0.285c0.383,0.191,1.146,0.479,2.293,0.861c0.574,0.191,0.766,0.191,0.574,0
			c0.955,0.383,1.91,0.572,2.865,0.572l-0.572-1.434c-0.191-0.381-0.477-0.955-0.859-1.719c-0.191-0.572-0.383-1.051-0.574-1.434
			c-0.191-0.191-0.381-0.477-0.572-0.859c-0.383-0.572-0.574-1.146-0.574-1.721c-0.381-0.764-1.432-2.006-3.152-3.725l-1.721-0.287
			c-1.146-0.191-2.197-0.287-3.152-0.287s-2.197,0.383-3.727,1.146L60.14,58.328z"/>
	</g>
</g>
</svg>
