<?xml version="1.0" encoding="utf-8"?>
<!-- Generator: Adobe Illustrator 12.0.0, SVG Export Plug-In . SVG Version: 6.00 Build 51448)  -->
<!DOCTYPE svg PUBLIC "-//W3C//DTD SVG 1.1//EN" "http://www.w3.org/Graphics/SVG/1.1/DTD/svg11.dtd" [
	<!ENTITY ns_flows "http://ns.adobe.com/Flows/1.0/">
	<!ENTITY ns_extend "http://ns.adobe.com/Extensibility/1.0/">
	<!ENTITY ns_ai "http://ns.adobe.com/AdobeIllustrator/10.0/">
	<!ENTITY ns_graphs "http://ns.adobe.com/Graphs/1.0/">
	<!ENTITY ns_vars "http://ns.adobe.com/Variables/1.0/">
	<!ENTITY ns_imrep "http://ns.adobe.com/ImageReplacement/1.0/">
	<!ENTITY ns_sfw "http://ns.adobe.com/SaveForWeb/1.0/">
	<!ENTITY ns_custom "http://ns.adobe.com/GenericCustomNamespace/1.0/">
	<!ENTITY ns_adobe_xpath "http://ns.adobe.com/XPath/1.0/">
	<!ENTITY ns_svg "http://www.w3.org/2000/svg">
	<!ENTITY ns_xlink "http://www.w3.org/1999/xlink">
]>
<svg  version="1.1"
	 xmlns:x="&ns_extend;" xmlns:i="&ns_ai;" xmlns:graph="&ns_graphs;" i:viewOrigin="-0.3208 113.645" i:rulerOrigin="0 0" i:pageBounds="0 113 108 0"
	 xmlns="&ns_svg;" xmlns:xlink="&ns_xlink;" xmlns:a="http://ns.adobe.com/AdobeSVGViewerExtensions/3.0/"
	 width="109.1" height="113.832" viewBox="0 0 109.1 113.832" overflow="visible" enable-background="new 0 0 109.1 113.832"
	 xml:space="preserve">
<metadata>
	<variableSets  xmlns="&ns_vars;">
		<variableSet  varSetName="binding1" locked="none">
			<variables></variables>
			<v:sampleDataSets  xmlns="&ns_custom;" xmlns:v="&ns_vars;"></v:sampleDataSets>
		</variableSet>
	</variableSets>
</metadata>
<g id="图层_1" i:layer="yes" i:dimmedPercent="50" i:rgbTrio="#4F008000FFFF">
	<g>
		
			<linearGradient id="XMLID_3_" gradientUnits="userSpaceOnUse" x1="935.4341" y1="81.0015" x2="1020.2271" y2="81.0015" gradientTransform="matrix(0 -1 1 0 -26.8223 1049.0791)">
			<stop  offset="0.1348" style="stop-color:#1889BC"/>
			<stop  offset="0.2247" style="stop-color:#C4E9F2"/>
			<a:midPointStop  offset="0.1348" style="stop-color:#1889BC"/>
			<a:midPointStop  offset="0.5" style="stop-color:#1889BC"/>
			<a:midPointStop  offset="0.2247" style="stop-color:#C4E9F2"/>
		</linearGradient>
		<path i:knockout="Off" fill="url(#XMLID_3_)" stroke="#000000" stroke-width="0.3739" d="M100.038,28.852c4.418,0,8,3.42,8,7.638
			v69.518c0,4.218-3.582,7.638-8,7.638H8.321c-4.418,0-8-3.42-8-7.638V36.49c0-4.218,3.582-7.638,8-7.638H100.038z"/>
		<path i:knockout="Off" fill="#FFFFFF" stroke="#000000" stroke-width="0.6414" d="M8.377,85.36c-4.449,0-8.057-3.43-8.057-7.66
			V7.98c0-4.23,3.607-7.659,8.057-7.659h92.348c4.447,0,8.055,3.429,8.055,7.659V77.7c0,4.23-3.607,7.66-8.055,7.66H8.377z"/>
		
			<linearGradient id="XMLID_4_" gradientUnits="userSpaceOnUse" x1="-229.9092" y1="-254.2622" x2="-144.8701" y2="-254.2622" gradientTransform="matrix(0 1 -1 0 -199.7119 230.23)">
			<stop  offset="0" style="stop-color:#A3DDEA"/>
			<stop  offset="0.0899" style="stop-color:#0678B3"/>
			<stop  offset="0.2135" style="stop-color:#094C91"/>
			<stop  offset="0.6404" style="stop-color:#2890C0"/>
			<stop  offset="0.8034" style="stop-color:#82D0E3"/>
			<stop  offset="1" style="stop-color:#09468C"/>
			<a:midPointStop  offset="0" style="stop-color:#A3DDEA"/>
			<a:midPointStop  offset="0.5" style="stop-color:#A3DDEA"/>
			<a:midPointStop  offset="0.0899" style="stop-color:#0678B3"/>
			<a:midPointStop  offset="0.5" style="stop-color:#0678B3"/>
			<a:midPointStop  offset="0.2135" style="stop-color:#094C91"/>
			<a:midPointStop  offset="0.5" style="stop-color:#094C91"/>
			<a:midPointStop  offset="0.6404" style="stop-color:#2890C0"/>
			<a:midPointStop  offset="0.5" style="stop-color:#2890C0"/>
			<a:midPointStop  offset="0.8034" style="stop-color:#82D0E3"/>
			<a:midPointStop  offset="0.5" style="stop-color:#82D0E3"/>
			<a:midPointStop  offset="1" style="stop-color:#09468C"/>
		</linearGradient>
		<path i:knockout="Off" opacity="0.1" fill="url(#XMLID_4_)" stroke="#000000" stroke-width="0.6414" d="M8.377,85.36
			c-4.449,0-8.057-3.43-8.057-7.66V7.98c0-4.23,3.607-7.659,8.057-7.659h92.348c4.449,0,8.055,3.429,8.055,7.659V77.7
			c0,4.23-3.605,7.66-8.055,7.66H8.377z"/>
		<path i:knockout="Off" fill="#D90000" d="M17.02,45.144l-1.25-1.875l0.625,0.625l0.312-0.312c0-0.209,0.105-0.521,0.312-0.939
			c-0.207,0.418,0.002,0.209,0.627-0.625c0.209-0.834,0.625-1.562,1.25-2.189c0.209-0.625,0.627-1.355,1.252-2.189l1.25-0.312
			c0.625-0.207,1.252-0.312,1.877-0.312c0.209,0,0.521,0.105,0.938,0.312c0.418,0.209,0.73,0.312,0.939,0.312
			c0.416,0.209,1.668,0.627,3.752,1.252l0.625-1.252l2.502,1.252l-0.312-1.877c-0.416-1.25-0.521-1.459-0.312-0.625
			c-0.209-0.834-0.312-1.668-0.312-2.502c-0.209-1.043-0.312-2.293-0.312-3.754c0-0.625-0.104-1.459-0.312-2.502
			c0-0.416,0-0.729,0-0.938c-0.209-0.209-0.418-0.521-0.627-0.938c0-0.209-0.104-0.418-0.312-0.627l0.627-0.625l0.312-0.625
			c0.416-0.416,0.729-0.729,0.938-0.938c0.418-0.625,0.939-1.459,1.564-2.502c0.209-0.209,0.416-0.521,0.625-0.939
			c0.418-0.834,0.73-1.354,0.938-1.562c0.209-0.625,0.627-1.043,1.252-1.252c0.209-0.209,0.416-0.312,0.625-0.312
			c0.418-0.209,0.73-0.312,0.938-0.312c0.418-0.209,0.939-0.312,1.564-0.312l1.564,1.25c1.043,0.834,1.877,1.773,2.502,2.814
			c0.625,0.834,1.668,2.086,3.127,3.754c0.418,0.418,1.043,1.043,1.877,1.877c0.625,0.625,1.043,1.146,1.25,1.562
			c0.834,1.252,1.564,2.293,2.189,3.127l0.938-0.625c0.209,0,0.523-0.207,0.939-0.625c0.625-0.416,1.252-0.834,1.877-1.252
			l0.625,0.314c0.209,0.209,0.625,0.521,1.25,0.938c-0.625-0.416-0.207-0.209,1.252,0.625v0.312v0.627
			c-0.209,0.625-0.416,1.25-0.625,1.875c-0.625,1.461-0.834,2.504-0.627,3.129c0,0.834,0.209,1.771,0.627,2.814l1.25,0.312
			c0.209,0.209,0.834,0.312,1.877,0.312c1.043,0.209,1.771,0.312,2.189,0.312c0.625,0.209,1.877,0.312,3.752,0.312
			c1.461,0.209,2.607,0.312,3.441,0.312s2.084,0.105,3.752,0.312c1.668,0,2.814,0.105,3.439,0.314
			c0.627,0.209,1.564,0.312,2.816,0.312c1.25,0,2.189,0.104,2.814,0.312c0.416,0,1.146,0.104,2.189,0.312
			c1.25,0,2.084,0.104,2.502,0.312c0.416,0,0.938,0.105,1.562,0.312c0.625,0,1.146,0.105,1.564,0.312
			c0.209,0,0.416,0.105,0.625,0.312c0.834,0,1.459,0.209,1.877,0.627l-1.252,0.625c-0.834,0.209-2.293,0.521-4.377,0.938
			c-0.418,0-1.043,0.105-1.877,0.312c-0.834,0-1.564,0.105-2.189,0.314c-0.418,0.209-1.459,0.312-3.127,0.312s-3.127,0-4.379,0
			c-1.25,0-2.605,0.104-4.066,0.312c-1.459,0.209-3.127,0.312-5.004,0.312c-1.25,0-3.752,0-7.506,0l0.312,0.938
			c0,0.627,0.209,1.461,0.627,2.502c0,0.418,0.104,0.836,0.312,1.252v0.625v0.312c-0.209,0.418-0.312,0.73-0.312,0.939
			c-0.418,0.625-1.146,1.771-2.189,3.439h2.502c1.459,0,2.502,0.104,3.127,0.312l0.312,0.312c0.418,0.209,0.73,0.418,0.939,0.625
			l-2.502,2.502c-0.418,0.418-1.043,0.939-1.877,1.564c-0.625,0.625-1.252,1.146-1.877,1.564c-0.416,0-0.938,0.209-1.564,0.625
			c-0.416,0.418-0.832,0.625-1.25,0.625c-1.25,0.209-2.502,0.521-3.754,0.939c-0.625,0.209-1.459,0.312-2.502,0.312
			c-0.834,0-1.562,0.104-2.188,0.312c-0.418,0-1.043,0.104-1.877,0.312c-0.625,0-1.252,0.104-1.877,0.312
			c-0.209,0-0.521,0.105-0.938,0.312c-0.625,0-1.043,0.105-1.252,0.312c-0.625,0.209-1.771,0.312-3.439,0.312l0.625-0.938
			c0.209-0.625,0.834-1.25,1.877-1.877c0.209-0.207,0.521-0.52,0.938-0.938c0.627-0.416,1.043-0.729,1.252-0.938
			c0.625-0.834,1.771-1.564,3.439-2.189l-1.25-0.312c-1.043-0.209-2.189-1.043-3.441-2.502c-1.459-1.668-2.502-2.92-3.127-3.754
			c-0.625-1.043-1.146-1.98-1.564-2.814c-0.625-1.043-0.938-1.668-0.938-1.877c-0.416-0.416-0.625-0.938-0.625-1.562
			c-0.418-0.625-0.73-1.146-0.939-1.564c-0.207-0.209-0.52-0.416-0.938-0.625c-0.209,0-0.416-0.104-0.625-0.312
			c-0.625-0.209-1.564-0.314-2.814-0.314c-1.459,0-2.502-0.104-3.129-0.312c-0.834-0.207-1.562-0.312-2.189-0.312
			c-0.625,0-1.25,0.105-1.875,0.312c-0.209,0-0.418,0.105-0.627,0.312c-0.625,0.209-1.145,0.418-1.562,0.627l1.25,0.312
			c0.209,0.209,0.73,0.312,1.564,0.312c0.834,0.209,1.459,0.312,1.877,0.312c0.625,0.209,1.355,0.312,2.189,0.312
			c0.625,0,2.084,0,4.377,0l-2.502,0.312c-1.875,0.209-3.543,0.312-5.004,0.312c-1.875,0-3.334-0.207-4.377-0.625l-1.252,0.625
			l-0.625-0.312c-0.416,0-1.25-0.938-2.502-2.814L17.02,45.144z M42.04,45.771l0.312,0.938c0,0.625,0.314,1.564,0.939,2.814
			c0.418,1.461,1.043,3.336,1.877,5.629l0.938,0.627c0.625,0.209,1.355,0.521,2.189,0.938c0.209,0.209,0.625,0.312,1.25,0.312
			c0.627,0.209,1.148,0.312,1.564,0.312c0.834,0.209,1.564,0.312,2.189,0.312c0.418,0,1.043-0.207,1.877-0.625l-1.252-1.877v-1.25
			h-1.25V51.4c0-1.459-0.418-3.336-1.252-5.629H42.04z M33.909,29.507l1.252,0.625l0.625,3.754l-0.625,0.625l0.312,0.312
			c0,0.209,0.104,0.418,0.312,0.627s0.312,0.416,0.312,0.625c0,0.418,0.521,1.355,1.564,2.814h2.502
			c1.668,0,2.814,0.104,3.439,0.312s1.355,0.209,2.189,0c0.209,0,0.521-0.104,0.938-0.312c0.834-0.209,1.564-0.416,2.189-0.625
			l-1.25-1.564c-0.209-0.209-0.627-0.625-1.252-1.25c-0.625-0.834-1.25-1.564-1.877-2.189l-0.625,0.625l-0.625-0.938
			c-0.209-0.209-0.521-0.521-0.939-0.939l-0.312-0.625c-0.207-0.209-0.52-0.416-0.938-0.625c-0.416-0.209-0.729-0.418-0.938-0.627
			l-0.627-1.25l-1.25,0.625l-0.939-0.938c-0.416-0.416-1.354-0.938-2.814-1.564L33.909,29.507z"/>
	</g>
</g>
</svg>
