<?xml version="1.0" encoding="utf-8"?>
<!-- Generator: Adobe Illustrator 12.0.0, SVG Export Plug-In . SVG Version: 6.00 Build 51448)  -->
<!DOCTYPE svg PUBLIC "-//W3C//DTD SVG 1.1//EN" "http://www.w3.org/Graphics/SVG/1.1/DTD/svg11.dtd" [
	<!ENTITY ns_flows "http://ns.adobe.com/Flows/1.0/">
	<!ENTITY ns_extend "http://ns.adobe.com/Extensibility/1.0/">
	<!ENTITY ns_ai "http://ns.adobe.com/AdobeIllustrator/10.0/">
	<!ENTITY ns_graphs "http://ns.adobe.com/Graphs/1.0/">
	<!ENTITY ns_vars "http://ns.adobe.com/Variables/1.0/">
	<!ENTITY ns_imrep "http://ns.adobe.com/ImageReplacement/1.0/">
	<!ENTITY ns_sfw "http://ns.adobe.com/SaveForWeb/1.0/">
	<!ENTITY ns_custom "http://ns.adobe.com/GenericCustomNamespace/1.0/">
	<!ENTITY ns_adobe_xpath "http://ns.adobe.com/XPath/1.0/">
	<!ENTITY ns_svg "http://www.w3.org/2000/svg">
	<!ENTITY ns_xlink "http://www.w3.org/1999/xlink">
]>
<svg  version="1.1"
	 xmlns:x="&ns_extend;" xmlns:i="&ns_ai;" xmlns:graph="&ns_graphs;" i:viewOrigin="-0.3208 113.645" i:rulerOrigin="0 0" i:pageBounds="0 113 108 0"
	 xmlns="&ns_svg;" xmlns:xlink="&ns_xlink;" xmlns:a="http://ns.adobe.com/AdobeSVGViewerExtensions/3.0/"
	 width="109.1" height="113.832" viewBox="0 0 109.1 113.832" overflow="visible" enable-background="new 0 0 109.1 113.832"
	 xml:space="preserve">
<metadata>
	<variableSets  xmlns="&ns_vars;">
		<variableSet  varSetName="binding1" locked="none">
			<variables></variables>
			<v:sampleDataSets  xmlns="&ns_custom;" xmlns:v="&ns_vars;"></v:sampleDataSets>
		</variableSet>
	</variableSets>
</metadata>
<g id="图层_1" i:layer="yes" i:dimmedPercent="50" i:rgbTrio="#4F008000FFFF">
	<g>
		
			<linearGradient id="XMLID_3_" gradientUnits="userSpaceOnUse" x1="935.4341" y1="81.0015" x2="1020.2271" y2="81.0015" gradientTransform="matrix(0 -1 1 0 -26.8223 1049.0791)">
			<stop  offset="0.1348" style="stop-color:#1889BC"/>
			<stop  offset="0.2247" style="stop-color:#C4E9F2"/>
			<a:midPointStop  offset="0.1348" style="stop-color:#1889BC"/>
			<a:midPointStop  offset="0.5" style="stop-color:#1889BC"/>
			<a:midPointStop  offset="0.2247" style="stop-color:#C4E9F2"/>
		</linearGradient>
		<path i:knockout="Off" fill="url(#XMLID_3_)" stroke="#000000" stroke-width="0.3739" d="M100.036,28.852
			c4.418,0,8.002,3.42,8.002,7.638v69.518c0,4.218-3.584,7.638-8.002,7.638H8.321c-4.418,0-8-3.42-8-7.638V36.49
			c0-4.218,3.582-7.638,8-7.638H100.036z"/>
		<path i:knockout="Off" fill="#FFFFFF" stroke="#000000" stroke-width="0.6414" d="M8.376,85.36c-4.448,0-8.056-3.43-8.056-7.66
			V7.98c0-4.23,3.607-7.659,8.056-7.659h92.347c4.449,0,8.055,3.429,8.055,7.659V77.7c0,4.23-3.605,7.66-8.055,7.66H8.376z"/>
		
			<linearGradient id="XMLID_4_" gradientUnits="userSpaceOnUse" x1="-229.9092" y1="-254.2622" x2="-144.8701" y2="-254.2622" gradientTransform="matrix(0 1 -1 0 -199.7119 230.23)">
			<stop  offset="0" style="stop-color:#A3DDEA"/>
			<stop  offset="0.0899" style="stop-color:#0678B3"/>
			<stop  offset="0.2135" style="stop-color:#094C91"/>
			<stop  offset="0.6404" style="stop-color:#2890C0"/>
			<stop  offset="0.8034" style="stop-color:#82D0E3"/>
			<stop  offset="1" style="stop-color:#09468C"/>
			<a:midPointStop  offset="0" style="stop-color:#A3DDEA"/>
			<a:midPointStop  offset="0.5" style="stop-color:#A3DDEA"/>
			<a:midPointStop  offset="0.0899" style="stop-color:#0678B3"/>
			<a:midPointStop  offset="0.5" style="stop-color:#0678B3"/>
			<a:midPointStop  offset="0.2135" style="stop-color:#094C91"/>
			<a:midPointStop  offset="0.5" style="stop-color:#094C91"/>
			<a:midPointStop  offset="0.6404" style="stop-color:#2890C0"/>
			<a:midPointStop  offset="0.5" style="stop-color:#2890C0"/>
			<a:midPointStop  offset="0.8034" style="stop-color:#82D0E3"/>
			<a:midPointStop  offset="0.5" style="stop-color:#82D0E3"/>
			<a:midPointStop  offset="1" style="stop-color:#09468C"/>
		</linearGradient>
		<path i:knockout="Off" opacity="0.1" fill="url(#XMLID_4_)" stroke="#000000" stroke-width="0.6414" d="M8.376,85.36
			c-4.448,0-8.056-3.43-8.056-7.66V7.98c0-4.23,3.607-7.659,8.056-7.659h92.349c4.447,0,8.055,3.429,8.055,7.659V77.7
			c0,4.23-3.607,7.66-8.055,7.66H8.376z"/>
		<g i:knockout="Off">
			<g>
				<path i:knockout="Off" fill="#24258D" d="M28.817,43.247c-0.404-0.505-0.606-1.364-0.606-2.577
					c0.102-1.92-0.051-3.941-0.455-6.064c-0.606-3.941-0.707-11.674-0.303-23.197c0-0.908,0-1.616,0-2.122
					c0.102-1.313,0.707-1.667,1.818-1.062c2.021,0.91,3.285,2.021,3.791,3.336c0.404,1.314,0.152,3.234-0.758,5.762
					c-1.213,2.931-1.921,6.367-2.123,10.309c-0.101,2.629,0.051,5.004,0.455,7.126c0.404,2.224,1.213,5.003,2.426,8.339
					c0.303,0.91,0.252,1.566-0.152,1.971c-0.404,0.304-1.01,0.253-1.818-0.151C29.879,44.308,29.121,43.752,28.817,43.247z
					 M17.446,14.896c0.506,0.101,0.81,0.555,0.909,1.363c0.102,1.012,0.203,3.488,0.304,7.43c0.102,1.92,0.151,3.336,0.151,4.245
					c-0.101,4.245,0.152,7.632,0.758,10.157c0.102,0.91,0.001,1.618-0.303,2.123c-0.303,0.404-0.758,0.354-1.364-0.151
					c-0.909-0.708-1.466-1.313-1.668-1.819s-0.253-1.264-0.151-2.274c0.303-2.324,0.303-5.255,0-8.794
					c-0.202-2.426-0.303-4.346-0.303-5.761c-0.102-1.415-0.051-3.284,0.15-5.609C16.133,15.097,16.638,14.794,17.446,14.896z"/>
			</g>
		</g>
		<path i:knockout="Off" fill="#1D8F38" d="M17.574,50.322c0,0-4.092-4.59-5.436-8.809c-1.232-3.865-0.537-6.984-0.537-6.984
			l1.162,0.512c0,0,0.527,12.26,14.596,20.1c4.436,2.473,10.699,4.314,16.889,5.219c7.471,1.09,14.895,0.348,14.895,0.348
			l0.586,1.527c0,0-6.667,1.422-14.674,0.354c-11.211-1.498-10.85-3.496-19.184-3.848c-8.336-0.352-11.367,10.307-11.367,10.307
			s-1.035-1.387-0.391-4.166c0.424-1.832,2.537-4.994,2.537-4.994s-1.086-0.635-1.613-2.279c-0.393-1.229-0.266-3.592-0.266-3.592
			l1.219,0.715c0,0,0.303,1.174,0.908,2.307c0.363,0.678,1.16,1.557,1.16,1.557s2.312-1.447,4.816-1.854
			c1.664-0.27,3.4,0.094,3.4,0.094l-7.23-4.85c0,0-0.637,0.254-1.012,0.629c-0.635,0.631-1.148,1.52-1.148,1.52
			s-0.49-0.084-0.953-0.33C14.406,52.99,17.574,50.322,17.574,50.322z"/>
		<path i:knockout="Off" fill="#1D8F38" d="M47.271,76.617c0,0-1.512-1.223-1.727-1.943c0,0-1.582-4.166,4.23-9.037
			c2.754-2.311,10.817-3.275,10.817-3.275l0.576,1.297C61.168,63.658,44.607,65.673,47.271,76.617z"/>
		<path i:knockout="Off" fill="#1D8F38" d="M39.459,44.324c0,0,1.029,6.787,7.244,11.691c3.58,2.826,11.856,3.26,11.856,3.26
			l3.303,0.32l-3.023,0.754c0,0-18.61,2.098-20.149-15.467L39.459,44.324z"/>
		<path i:knockout="Off" fill="#1D8F38" d="M75.243,78.617c0.451,0.045,0.066-6.809,4.072-14.484
			c3.193-6.121,9.506-12.896,9.506-12.896s-1.01,5.365-0.031,9.211c0.852,3.34,3.084,3.412,3.084,3.412l0.637-1.824
			c0,0-4.268-2.516-1.852-11.66c1.723-6.523,6.736-9.838,6.736-9.838s0.74-2.342-0.102-3.408c-0.412-0.523-0.785-0.805-2.176-0.785
			c-2.213,0.027-4.906,0.713-7.102-0.82c-2.834-1.98,0.369-9.762,0.85-10.842s-1.588-0.953-2.428,0.889
			c-1.262,2.76-1.707,8.119-1.707,8.119s-4.322-4.432-3.303-10.492s5.559-8.336,5.559-8.336s-0.318-1.619-1.76-0.953
			c-2.086,0.965-5.303,4.859-5.906,8.16c-0.965,5.277,1.375,10.111,3.83,12.965c2.447,2.842,5.33,3.48,5.33,3.48L81.672,41.5
			l0.207,1.986l9.451-4.193c0,0-0.75,0.619-3.062,1.881c-2.48,1.354-5.77,2.756-5.77,2.756l0.125,1.484l2.375-0.605l-2.209,1.004
			l1.057,1.736c0,0,3.064-2.469,5.715-4.461c2.66-2,3.873-2.766,3.873-2.766s-1.352,1.814-3.967,3.959
			c-3.729,3.057-8.092,6.014-8.092,6.014l1.184,2.48l5.66-4.297c0,0-8.955,9.072-12.645,17.264
			C71.885,73.931,74.793,78.572,75.243,78.617z"/>
		<path i:knockout="Off" fill="#1D8F38" d="M63.424,28.138c0,0-1.967-0.027-4.289,0.367c-2.441,0.412-5.262,1.246-5.963,1.33
			c-1.223,0.146-2.904-1.07-2.172-1.266c0.359-0.096,2.133-0.553,3.748-0.828c1.688-0.287,3.211-0.396,3.188-0.547
			c-0.18-1.074-4.975-0.195-6.489,0.295c-1.516,0.488-3.547-1.139-3.84-1.773c-0.295-0.635-0.303-1.697,0.381-1.697
			c0.686,0,1.65,1.904,3.115,1.807c1.467-0.098,3.801-0.928,3.801-0.928l2.28,0.24c0,0-0.545-2.16-3.54-2.668
			c-4.262-0.723-6.438,1.451-6.438,1.451s-1.113-1.055-0.215-2.057c0.516-0.576,2.42-1.236,3.732-1.408
			c1.734-0.225,4.117,0.219,4.952,0.652c2.469,1.285,3.521,4.66,4.547,4.904c1.027,0.244,3.922,0.445,3.922,0.445L63.424,28.138z"/>
		<path i:knockout="Off" fill="#1D8F38" d="M66.543,27.023c0,0-2.502-2.107-1.834-4.525c0.67-2.416,4.234-5.023,4.234-5.023
			s0.518-0.035,0.99,0.344c0.488,0.391,0.211,0.943,0.211,0.943s-3.566,3.395-3.463,4.68c0.102,1.285,1.627,1.971,1.781,2.795
			C68.618,27.058,66.543,27.023,66.543,27.023z"/>
		<g i:knockout="Off">
			<path i:knockout="Off" fill="#D90000" d="M73.663,45.542c0,0-3.965-5.557-10.709-5.127c-6.893,0.438-9.491,6.172-9.491,6.686
				s2.022,2.773,6.456,3.766c2.215,0.496,6.277,0.053,9.404-1.416C73.071,47.691,73.663,45.542,73.663,45.542z M56.317,46.896
				c0-0.771,2.305-3.506,5.832-4.072c4.654-0.746,8.777,1.904,8.83,2.625c0.051,0.721-2.828,2.752-6.268,3.275
				C59.958,49.447,56.317,47.667,56.317,46.896z M71.651,38.9c-2.912-2.795-8.969-3.02-11.842-2.074
				c-1.896,0.623-2.1,1.553-1.762,2.365c0.264,0.641,0.736,0.701,0.736,0.701l1.4-0.955c0,0,3.73-1.205,7.51,0.094
				c1.953,0.672,3.855,2.771,5.346,4.268c1.395,1.4,2.193,2.105,2.574,2.125c0.787,0.039,6.4-2.004,6.4-2.004l-0.27-1.959
				c0,0-5.217,1.754-5.729,1.676C75.504,43.056,74.565,41.695,71.651,38.9z M69.305,27.966c-1.441-0.051-5.332-1.543-5.332-1.543
				l-0.652,1.783c0,0,2.074,0.895,3.912,1.408c1.688,0.471,2.844,0.562,3.307,0.1c0.461-0.463,2.828-2.229,5.193-0.787
				c2.365,1.439,2.264,4.686,2.109,5.76c-0.412,2.828-1.51,3.959-2.383,3.855c-0.875-0.102-4.955-5.125-4.955-5.125
				s-6.977-0.65-7.748-0.65s-0.703,1.953-0.086,1.852c0.617-0.104,5.279,0.273,6.719,0.84c1.441,0.564,4.973,5.357,6.172,5.52
				c3.473,0.467,4.646-6.053,4.594-9.035c-0.051-2.982-4.215-6.301-6.855-6.137C70.831,25.96,70.745,28.017,69.305,27.966z
				 M60.083,32.115c2.506-0.902,9.924,0.668,9.924,0.668s0.41-0.504,0.461-1.018c0.053-0.531-0.254-1.072-0.254-1.072
				s-5.818-1.43-9.652-0.979c-7.014,0.826-8.948,7.303-9.309,8.436c-0.359,1.131,1.115,1.852,1.527,1.389
				C53.189,39.076,54.938,33.966,60.083,32.115z M73.059,48.246c0,0-1.988,2.092-4.766,3.121c-2.777,1.027-9,1.525-10.131,0.6
				c-1.133-0.926-2.299,0.395-1.938,1.422c0.748,2.137,6.65,1.945,10.846,0.826c5.604-1.492,7.666-5.291,8.318-5.83
				c0.652-0.541,7.355-2.967,7.355-2.967l-0.24-1.439c0,0-5.846,1.783-7.029,2.143C74.293,46.48,73.059,48.246,73.059,48.246z
				 M71.735,53.277c-1.75,2.174-5.633,3.764-8.191,3.75c-2.383-0.012-3.869-1.199-5.309-1.199c-1.459,0-1.105,1.223-0.748,1.816
				c0.705,1.168,5.551,2.129,9.508,1.123c5.311-1.35,7.5-5.039,7.5-5.039s1.432-1.449,3.424-2.814
				c2.664-1.822,5.951-3.426,5.951-3.426l-0.969-1.725c0,0-3.316,1.439-6.152,3.27C74.592,50.423,72.563,52.25,71.735,53.277z
				 M75.303,54.16c-0.359,0.9,0.777,3.084-0.148,5.658c-0.811,2.25-4.072,5.918-6.27,3.75c-1.143-1.125-1.348-2.105-1.52-2.77
				c-0.633-2.449-8.254-0.074-8.254-0.074l0.576,1.527c0,0,3.537-0.547,4.82-0.486c1.104,0.051,1.238,0.639,1.316,0.916
				c0.078,0.275,2.053,4.248,4.941,4.26c2.234,0.008,5.041-2.645,6.238-5.258c1.326-2.902,0.77-5.32,1.084-5.928
				c0.316-0.607,4.482-3.002,4.482-3.002l-1.174-2.471c0,0-1.826,1.629-3.314,2.16C77.303,52.722,75.899,52.673,75.303,54.16z"/>
		</g>
	</g>
</g>
</svg>
