<?xml version="1.0" encoding="utf-8"?>
<!-- Generator: Adobe Illustrator 12.0.0, SVG Export Plug-In . SVG Version: 6.00 Build 51448)  -->
<!DOCTYPE svg PUBLIC "-//W3C//DTD SVG 1.1//EN" "http://www.w3.org/Graphics/SVG/1.1/DTD/svg11.dtd" [
	<!ENTITY ns_flows "http://ns.adobe.com/Flows/1.0/">
	<!ENTITY ns_extend "http://ns.adobe.com/Extensibility/1.0/">
	<!ENTITY ns_ai "http://ns.adobe.com/AdobeIllustrator/10.0/">
	<!ENTITY ns_graphs "http://ns.adobe.com/Graphs/1.0/">
	<!ENTITY ns_vars "http://ns.adobe.com/Variables/1.0/">
	<!ENTITY ns_imrep "http://ns.adobe.com/ImageReplacement/1.0/">
	<!ENTITY ns_sfw "http://ns.adobe.com/SaveForWeb/1.0/">
	<!ENTITY ns_custom "http://ns.adobe.com/GenericCustomNamespace/1.0/">
	<!ENTITY ns_adobe_xpath "http://ns.adobe.com/XPath/1.0/">
	<!ENTITY ns_svg "http://www.w3.org/2000/svg">
	<!ENTITY ns_xlink "http://www.w3.org/1999/xlink">
]>
<svg  version="1.1"
	 xmlns:x="&ns_extend;" xmlns:i="&ns_ai;" xmlns:graph="&ns_graphs;" i:viewOrigin="-0.3208 113.645" i:rulerOrigin="0 0" i:pageBounds="0 113 108 0"
	 xmlns="&ns_svg;" xmlns:xlink="&ns_xlink;" xmlns:a="http://ns.adobe.com/AdobeSVGViewerExtensions/3.0/"
	 width="109.1" height="113.832" viewBox="0 0 109.1 113.832" overflow="visible" enable-background="new 0 0 109.1 113.832"
	 xml:space="preserve">
<metadata>
	<variableSets  xmlns="&ns_vars;">
		<variableSet  varSetName="binding1" locked="none">
			<variables></variables>
			<v:sampleDataSets  xmlns="&ns_custom;" xmlns:v="&ns_vars;"></v:sampleDataSets>
		</variableSet>
	</variableSets>
</metadata>
<g id="图层_1" i:layer="yes" i:dimmedPercent="50" i:rgbTrio="#4F008000FFFF">
	<g>
		
			<linearGradient id="XMLID_3_" gradientUnits="userSpaceOnUse" x1="935.4341" y1="81.0015" x2="1020.2271" y2="81.0015" gradientTransform="matrix(0 -1 1 0 -26.8223 1049.0791)">
			<stop  offset="0.1348" style="stop-color:#1889BC"/>
			<stop  offset="0.2247" style="stop-color:#C4E9F2"/>
			<a:midPointStop  offset="0.1348" style="stop-color:#1889BC"/>
			<a:midPointStop  offset="0.5" style="stop-color:#1889BC"/>
			<a:midPointStop  offset="0.2247" style="stop-color:#C4E9F2"/>
		</linearGradient>
		<path i:knockout="Off" fill="url(#XMLID_3_)" stroke="#000000" stroke-width="0.3739" d="M100.036,28.852
			c4.418,0,8.002,3.42,8.002,7.638v69.518c0,4.218-3.584,7.638-8.002,7.638H8.321c-4.418,0-8-3.42-8-7.638V36.49
			c0-4.218,3.582-7.638,8-7.638H100.036z"/>
		<path i:knockout="Off" fill="#FFFFFF" stroke="#000000" stroke-width="0.6414" d="M8.377,85.36c-4.449,0-8.057-3.43-8.057-7.66
			V7.98c0-4.23,3.607-7.659,8.057-7.659h92.348c4.447,0,8.055,3.429,8.055,7.659V77.7c0,4.23-3.607,7.66-8.055,7.66H8.377z"/>
		
			<linearGradient id="XMLID_4_" gradientUnits="userSpaceOnUse" x1="-229.9092" y1="-254.2622" x2="-144.8701" y2="-254.2622" gradientTransform="matrix(0 1 -1 0 -199.7119 230.23)">
			<stop  offset="0" style="stop-color:#A3DDEA"/>
			<stop  offset="0.0899" style="stop-color:#0678B3"/>
			<stop  offset="0.2135" style="stop-color:#094C91"/>
			<stop  offset="0.6404" style="stop-color:#2890C0"/>
			<stop  offset="0.8034" style="stop-color:#82D0E3"/>
			<stop  offset="1" style="stop-color:#09468C"/>
			<a:midPointStop  offset="0" style="stop-color:#A3DDEA"/>
			<a:midPointStop  offset="0.5" style="stop-color:#A3DDEA"/>
			<a:midPointStop  offset="0.0899" style="stop-color:#0678B3"/>
			<a:midPointStop  offset="0.5" style="stop-color:#0678B3"/>
			<a:midPointStop  offset="0.2135" style="stop-color:#094C91"/>
			<a:midPointStop  offset="0.5" style="stop-color:#094C91"/>
			<a:midPointStop  offset="0.6404" style="stop-color:#2890C0"/>
			<a:midPointStop  offset="0.5" style="stop-color:#2890C0"/>
			<a:midPointStop  offset="0.8034" style="stop-color:#82D0E3"/>
			<a:midPointStop  offset="0.5" style="stop-color:#82D0E3"/>
			<a:midPointStop  offset="1" style="stop-color:#09468C"/>
		</linearGradient>
		<path i:knockout="Off" opacity="0.1" fill="url(#XMLID_4_)" stroke="#000000" stroke-width="0.6414" d="M8.377,85.36
			c-4.449,0-8.057-3.43-8.057-7.66V7.98c0-4.23,3.607-7.659,8.057-7.659h92.348c4.447,0,8.055,3.429,8.055,7.659V77.7
			c0,4.23-3.607,7.66-8.055,7.66H8.377z"/>
		<g i:knockout="Off">
			<g>
				<path i:knockout="Off" fill="#24258D" d="M29.013,42.928c0.201-0.505,0.303-0.909,0.303-1.213c0-1.011-0.051-2.476-0.152-4.397
					c-0.1-1.92-0.15-3.385-0.15-4.396c0-5.963,0-10.309,0-13.037c0-3.033,0.051-4.953,0.15-5.762c0-0.102,0-0.354,0-0.758
					c0.102-1.213,0.102-1.971,0-2.275c0.102-0.908,1.012-0.809,2.73,0.305c2.525,1.516,3.234,3.537,2.121,6.064
					c-0.908,2.223-1.465,4.801-1.668,7.73c-0.201,1.518-0.303,3.235-0.303,5.155c-0.1,1.921-0.1,4.498,0,7.732
					c0.203,2.83,0.557,4.802,1.062,5.913c0.504,1.111,0.555,1.213,0.15,0.303c0.404,0.91,0.607,1.668,0.607,2.274
					c-0.102,1.213-0.91,1.517-2.426,0.909c-2.123-1.516-2.982-2.931-2.578-4.244C28.962,42.928,29.013,42.828,29.013,42.928z
					 M15.671,42.625c-0.404-0.404-0.709-0.909-0.91-1.516c-0.203-0.809-0.252-1.465-0.152-1.971
					c0.102-0.404,0.152-0.859,0.152-1.365c0-0.707-0.051-1.718-0.152-3.031c-0.1-1.314-0.15-2.325-0.15-3.033
					c0-4.447,0.1-8.49,0.303-12.129c0.303-1.717,1.012-2.525,2.123-2.426c0.707,0.102,1.162,0.758,1.363,1.971
					c-0.303,4.348-0.455,9.249-0.455,14.707c0,2.324,0.203,4.549,0.607,6.671c0.201,0.505,0.303,1.112,0.303,1.819
					C18.501,43.939,17.49,44.041,15.671,42.625z M21.886,31.253c-0.1-1.717-0.1-3.436,0-5.154c0-1.818,0.102-3.184,0.305-4.094
					c0.1-1.617,0.453-2.426,1.061-2.426c0.809,0,1.314,0.506,1.516,1.518c0,10.41,0.303,16.424,0.91,18.041
					c0.201,0.91,0,1.516-0.607,1.818c-0.605,0.305-1.262,0.102-1.971-0.605c-1.01-1.012-1.414-2.021-1.213-3.033
					C22.191,37.218,22.191,35.197,21.886,31.253z"/>
			</g>
		</g>
		<g i:knockout="Off">
			<g i:knockout="Off">
				<path i:knockout="Off" fill="#1D8F38" d="M44.333,42.067c-3.01,3.125-2.816,5.771-2.41,7.094c0.693,2.255,2.9,3.974,5.762,4.487
					c0.361,0.064,0.697,0.096,1.016,0.1c0.188,0.29,0.361,0.558,0.525,0.809c-2.691-0.072-5.133-0.133-5.684-0.133
					c-0.348,0-0.775-0.125-1.229-0.259c-0.953-0.28-2.139-0.63-3.332,0.021c0.014-0.007,0.021-0.011,0.021-0.011
					c-0.422,0.162-2.262-0.048-3.742-0.217c-2.844-0.323-6.385-0.727-9.627-0.244c-10.209,1.52-12.381,9.611-12.301,13.684
					c0.051,2.631,1.201,2.064,1.201,2.064c0.016-0.121,1.221-9.3,7.93-12.678c1.008,1.664,3.867,5.684,7.918,5.518l0.648-0.019
					c2.564-0.062,5.727-0.155,7.379-6.058c0.67-0.002,1.16-0.082,1.531-0.284c0.443-0.241,0.975-0.104,1.809,0.142
					c0.568,0.167,0.977,0.791,1.613,0.791c0.992,0,8.781-0.24,12.297-0.142c-1.438,0.764-3.162,1.652-3.957,1.958
					c-0.994,0.382-5.924,2.559-5.314,7.887c0.566,4.961,3.367,6.85,5.053,7.016c0.93,0.091,1.295-0.881,1.295-0.881h0.002
					c-0.031-0.02-2.41-1.648-3.654-4.109c1.67,0.295,4.094,0.316,5.559-1.515c1.363-1.704,2.068-3.973,1.838-5.921
					c-0.098-0.834-0.377-1.563-0.785-2.192c1.594-0.831,3.107-1.664,3.219-1.726l-1.424-2.465c-0.234-0.008-2.879-0.082-5.812-0.162
					c-0.281-0.411-0.611-0.907-0.971-1.461c0.127-0.092,0.264-0.172,0.373-0.287c1.244-1.307,0.891-3.613,0.518-5.235
					c-0.637-2.756-3.674-4.833-5.086-5.668c0.834-1.67,2.648-2.698,2.674-2.712c0,0-0.547-0.749-1.367-0.832
					C46.726,38.316,45.201,39.784,44.333,42.067z M54.494,61.402c0.168,1.414-0.387,3.156-1.412,4.438
					c-0.641,0.799-1.738,0.959-2.752,0.896c1.506-1.08,3.648-2.99,4.152-5.395C54.486,61.363,54.492,61.38,54.494,61.402z
					 M48.339,65.662c0.043-3.371,3.375-4.832,4.082-5.104c0.045-0.018,0.1-0.042,0.15-0.062
					C52.414,62.892,49.498,64.941,48.339,65.662z M34.382,55.873c-0.354,0.766-0.834,1.293-1.473,1.568
					c-1.914,0.826-4.656-0.681-4.684-0.696l-0.988,1.738c0.145,0.083,3.613,2.024,6.465,0.794c1.012-0.436,1.795-1.201,2.354-2.268
					c-1.229,3.171-2.961,3.225-5.074,3.275l-0.682,0.02c-2.773,0.113-4.986-2.775-5.939-4.264c0.498-0.146,1.018-0.266,1.568-0.348
					C28.681,55.284,31.777,55.581,34.382,55.873z M43.835,48.574c-0.307-0.998-0.105-2.114,0.539-3.264
					c0.529,1.833,1.75,4.161,2.955,6.203C45.564,51.017,44.253,49.931,43.835,48.574z M49.648,48.089
					c0.537,2.325,0.236,3.117-0.002,3.387c-1.578-2.575-3.242-5.646-3.502-7.377C47.513,45.007,49.279,46.493,49.648,48.089z"/>
			</g>
			<path i:knockout="Off" fill="#1D8F38" d="M57.968,42.46l0.689-1.877h0.002c-0.193-0.07-2.578-0.989-4.967-3.104
				c0.461-1.573,1.291-5.623-1.047-9.022c-1.125-1.636-2.117-2.909-2.951-3.783c-0.133-0.14-0.26-0.267-0.379-0.381
				c1.123-2.202,3.457-2.54,3.592-2.558c0,0-1.705-0.789-2.934-0.466s-7.25,4.825-4.352,12.708c1.506,4.094,5.312,4.672,6.516,4.781
				C54.91,41.291,57.746,42.378,57.968,42.46z M50.998,29.59c1.443,2.099,1.328,4.591,1.035,6.191
				c-1.66-1.979-3.047-4.646-3.293-8.148c-0.027-0.373-0.023-0.717-0.006-1.044C49.273,27.216,50.017,28.166,50.998,29.59z
				 M47.46,33.19c-0.619-1.445-0.699-2.774-0.525-3.917c0.412,2.569,1.357,4.703,2.547,6.445
				C48.722,35.187,47.978,34.397,47.46,33.19z"/>
			<path i:knockout="Off" fill="#1D8F38" d="M71.822,29.035c0.768,3.201,4.115,5.144,7.018,5.992c3.184,0.932,5.93,0.604,6.41,0.527
				c-4.223,3.52-8.412,5.881-8.475,5.916l0.973,1.747c0.293-0.163,5.416-3.048,10.146-7.298
				c-5.035,5.85-12.535,10.812-12.621,10.869l1.098,1.672c0.266-0.174,4.393-2.908,8.621-6.745
				c-0.795,1.198-1.607,2.395-2.371,3.519c-1.135,1.672-2.207,3.25-3.08,4.609c-3.264,5.078-6.127,12.252-7.184,15.336
				c-0.836,2.435-0.523,5.18,0.834,7.344c1.174,1.873,3.008,3.088,5.031,3.334c4.021,0.486,9.004,0.022,9.215,0.002l-0.189-1.99
				c-0.041,0.004-3.359,0.312-6.648,0.17c1.051-2.082,2.463-5.969,0.207-8.819c-1.703-2.151-3.824-2.485-5.52-2.192
				c0.904-2.297,2.162-5.223,3.607-8.021c-0.24,1.837,0.023,3.898,1.016,5.389c1.57,2.355,4.023,2.4,5.633,1.965
				c1.779,1.335,2.773,1.702,3.74,1.727c1.529,0.038,2.479-0.877,2.479-0.877c-0.193-0.045-2.375-0.569-4.566-2.068
				c1.104-1.759,1.426-3.484,0.939-5.136c-1.031-3.509-5.357-5.232-5.541-5.304l-0.105-0.041l-0.109-0.018
				c-0.26-0.038-0.633-0.037-1.043,0.111c0.84-1.301,1.859-2.804,2.941-4.396c3.125-4.604,6.668-9.821,7.504-12.605
				c1.045-3.486,1.754-5.158,1.762-5.174l0.031-0.074l0.018-0.077l0.08-0.317l-0.123-0.302l-0.984-2.425l3.152,0.081l0.053-1.999
				l-4.682-0.12l-1.527-0.04l0.576,1.416c0,0,1.299,2.197,1.371,2.923c0.146,1.474-2.08,4.563-2.875,5.177
				c-0.793,0.613-4.859,1.962-9.064,0.201c-0.129-0.053-0.254-0.117-0.379-0.185c1.016-1.043,2.361-2.896,2.432-5.465
				c0.105-3.739-3.664-4.976-5.965-5.386c0.57-1.533,1.738-3.129,4.057-4.17c0,0-0.521-0.72-1.559-0.646
				C74.332,17.439,70.935,25.34,71.822,29.035z M74.884,71.46c-0.875-1.396-1.174-3.109-0.867-4.732
				c2.244,1.01,3.855,5.17,4.408,7.13c-0.002,0.001-0.002,0.004-0.004,0.006C76.996,73.677,75.742,72.828,74.884,71.46z
				 M79.238,66.46c1.053,1.33,0.875,3.137,0.389,4.689c-0.818-2.109-2.25-4.873-4.416-6.064
				C76.259,64.789,77.875,64.737,79.238,66.46z M81.574,59.285c-0.674-1.012-0.861-2.535-0.709-3.9
				c0.48,2.129,1.486,3.824,2.691,5.166C82.873,60.462,82.142,60.138,81.574,59.285z M86.216,56.574
				c0.297,1.014,0.092,2.119-0.592,3.293c-1.629-1.57-2.961-3.814-3.055-6.97C83.652,53.454,85.671,54.708,86.216,56.574z
				 M73.21,28.519c-0.184-0.502,0.068-1.096,0.113-1.603c0.412,0.628,0.779,1.913,0.811,2.796
				C73.826,29.322,73.501,29.308,73.21,28.519z M79.623,27.316c-0.057,2.043-1.225,3.508-2,4.261
				c-1.449-1.597-2.445-4.08-2.477-6.544c-0.004-0.324,0.012-0.696,0.055-1.096C76.919,24.226,79.685,25.042,79.623,27.316z"/>
		</g>
		<g i:knockout="Off">
			<g i:knockout="Off">
				<g i:knockout="Off">
					<path i:knockout="Off" fill="#D90000" d="M74.285,39.253V39.25c-0.006,0.042-0.66,4.176-3.523,5.014
						c-1.463,0.429-6.416,1.505-8.627-2.63c-0.811-1.518-0.777-3.41,0.092-5.064c0.865-1.65,2.385-2.713,4.166-2.914
						c1.684-0.19,4.096,0.112,5.814,1.534c1.232,1.02,1.928,2.479,2.068,4.338L74.285,39.253z M66.111,31.171
						c-2.619,0.297-4.842,1.84-6.1,4.236c-1.254,2.389-1.283,5.157-0.082,7.406c2.463,4.605,7.574,5.008,11.535,3.85
						c4.41-1.291,5.26-6.816,5.295-7.051l0.02-0.137l-0.012-0.137c-0.189-2.525-1.217-4.627-2.967-6.075
						C71.83,31.632,68.955,30.85,66.111,31.171z"/>
				</g>
			</g>
			<g i:knockout="Off">
				<g i:knockout="Off">
					
						<rect x="60.905" y="39.88" i:knockout="Off" transform="matrix(-0.9908 0.1354 -0.1354 -0.9908 141.1643 72.6601)" fill="#D90000" width="14.414" height="2.5"/>
				</g>
			</g>
			<g i:knockout="Off">
				<g i:knockout="Off">
					
						<rect x="60.226" y="36.24" i:knockout="Off" transform="matrix(-0.9861 0.1664 -0.1664 -0.9861 140.2486 63.2277)" fill="#D90000" width="14.499" height="2.5"/>
				</g>
			</g>
			<g i:knockout="Off">
				<g i:knockout="Off">
					<path i:knockout="Off" fill="#D90000" d="M59.552,38.887c-2.314,1.845-5.172,4.222-5.643,5.069
						c-0.707,1.271,0.408,2.395,1.221,3.215c0.299,0.301,0.854,0.861,0.928,1.091c0.221,0.719,0.305,2.474,0.305,3.412v0.875
						l0.822,0.3c0.445,0.161,10.939,3.885,14.746-2.904c0.689-1.228,0.779-3.818,0.791-4.584l-2.5-0.036v-0.001
						c-0.02,1.271-0.213,2.939-0.471,3.398c-2.77,4.939-11.623,1.809-11.713,1.776l0.824,1.175c0-0.286-0.012-2.836-0.416-4.147
						c-0.25-0.813-0.906-1.476-1.541-2.114c-0.266-0.27-0.67-0.676-0.748-0.84c0.041,0.085,0.08,0.344-0.062,0.6
						c0.328-0.459,2.867-2.616,5.016-4.329L59.552,38.887z"/>
				</g>
			</g>
			<g i:knockout="Off">
				<g i:knockout="Off">
					<path i:knockout="Off" fill="#D90000" d="M56.363,51.639c0.008,0.149,0.176,3.694,1.445,6.728
						c0.744,1.777,2.523,3.014,4.881,3.389c3.984,0.637,8.438-1.128,11.348-4.494c0.51-0.588,1.861-2.152,1.619-4.375
						c-0.201-1.855-1.471-3.667-3.771-5.384l-1.494,2.004c1.697,1.267,2.658,2.528,2.781,3.65c0.123,1.141-0.652,2.038-1.025,2.47
						c-2.68,3.1-6.482,4.072-9.062,3.66c-1.484-0.236-2.566-0.924-2.969-1.886c-1.094-2.614-1.252-5.841-1.254-5.873L56.363,51.639z
						"/>
				</g>
			</g>
			<g i:knockout="Off">
				<g i:knockout="Off">
					<path i:knockout="Off" fill="#D90000" d="M59.628,48.13c0.148,0.098,3.688,2.371,6.986,1.502
						c1.605-0.424,2.857-1.482,3.717-3.145l-2.221-1.148c-0.527,1.02-1.223,1.633-2.127,1.873c-1.842,0.49-4.229-0.684-4.992-1.177
						L59.628,48.13z"/>
				</g>
			</g>
		</g>
	</g>
</g>
</svg>
