<?xml version="1.0" encoding="utf-8"?>
<!-- Generator: Adobe Illustrator 12.0.0, SVG Export Plug-In . SVG Version: 6.00 Build 51448)  -->
<!DOCTYPE svg PUBLIC "-//W3C//DTD SVG 1.1//EN" "http://www.w3.org/Graphics/SVG/1.1/DTD/svg11.dtd" [
	<!ENTITY ns_flows "http://ns.adobe.com/Flows/1.0/">
	<!ENTITY ns_extend "http://ns.adobe.com/Extensibility/1.0/">
	<!ENTITY ns_ai "http://ns.adobe.com/AdobeIllustrator/10.0/">
	<!ENTITY ns_graphs "http://ns.adobe.com/Graphs/1.0/">
	<!ENTITY ns_vars "http://ns.adobe.com/Variables/1.0/">
	<!ENTITY ns_imrep "http://ns.adobe.com/ImageReplacement/1.0/">
	<!ENTITY ns_sfw "http://ns.adobe.com/SaveForWeb/1.0/">
	<!ENTITY ns_custom "http://ns.adobe.com/GenericCustomNamespace/1.0/">
	<!ENTITY ns_adobe_xpath "http://ns.adobe.com/XPath/1.0/">
	<!ENTITY ns_svg "http://www.w3.org/2000/svg">
	<!ENTITY ns_xlink "http://www.w3.org/1999/xlink">
]>
<svg  version="1.1"
	 xmlns:x="&ns_extend;" xmlns:i="&ns_ai;" xmlns:graph="&ns_graphs;" i:viewOrigin="-0.3208 113.645" i:rulerOrigin="0 0" i:pageBounds="0 113 108 0"
	 xmlns="&ns_svg;" xmlns:xlink="&ns_xlink;" xmlns:a="http://ns.adobe.com/AdobeSVGViewerExtensions/3.0/"
	 width="109.1" height="113.832" viewBox="0 0 109.1 113.832" overflow="visible" enable-background="new 0 0 109.1 113.832"
	 xml:space="preserve">
<metadata>
	<variableSets  xmlns="&ns_vars;">
		<variableSet  varSetName="binding1" locked="none">
			<variables></variables>
			<v:sampleDataSets  xmlns="&ns_custom;" xmlns:v="&ns_vars;"></v:sampleDataSets>
		</variableSet>
	</variableSets>
</metadata>
<g id="图层_1" i:layer="yes" i:dimmedPercent="50" i:rgbTrio="#4F008000FFFF">
	<g>
		
			<linearGradient id="XMLID_3_" gradientUnits="userSpaceOnUse" x1="935.4341" y1="81.0015" x2="1020.2271" y2="81.0015" gradientTransform="matrix(0 -1 1 0 -26.8223 1049.0791)">
			<stop  offset="0.1348" style="stop-color:#1889BC"/>
			<stop  offset="0.2247" style="stop-color:#C4E9F2"/>
			<a:midPointStop  offset="0.1348" style="stop-color:#1889BC"/>
			<a:midPointStop  offset="0.5" style="stop-color:#1889BC"/>
			<a:midPointStop  offset="0.2247" style="stop-color:#C4E9F2"/>
		</linearGradient>
		<path i:knockout="Off" fill="url(#XMLID_3_)" stroke="#000000" stroke-width="0.3739" d="M100.037,28.852
			c4.418,0,8.001,3.42,8.001,7.638v69.518c0,4.218-3.583,7.638-8.001,7.638H8.321c-4.418,0-8-3.42-8-7.638V36.49
			c0-4.218,3.582-7.638,8-7.638H100.037z"/>
		<path i:knockout="Off" fill="#FFFFFF" stroke="#000000" stroke-width="0.6414" d="M8.377,85.36c-4.449,0-8.057-3.43-8.057-7.66
			V7.98c0-4.23,3.607-7.659,8.057-7.659h92.348c4.447,0,8.055,3.429,8.055,7.659V77.7c0,4.23-3.607,7.66-8.055,7.66H8.377z"/>
		
			<linearGradient id="XMLID_4_" gradientUnits="userSpaceOnUse" x1="-229.9092" y1="-254.2622" x2="-144.8701" y2="-254.2622" gradientTransform="matrix(0 1 -1 0 -199.7119 230.23)">
			<stop  offset="0" style="stop-color:#A3DDEA"/>
			<stop  offset="0.0899" style="stop-color:#0678B3"/>
			<stop  offset="0.2135" style="stop-color:#094C91"/>
			<stop  offset="0.6404" style="stop-color:#2890C0"/>
			<stop  offset="0.8034" style="stop-color:#82D0E3"/>
			<stop  offset="1" style="stop-color:#09468C"/>
			<a:midPointStop  offset="0" style="stop-color:#A3DDEA"/>
			<a:midPointStop  offset="0.5" style="stop-color:#A3DDEA"/>
			<a:midPointStop  offset="0.0899" style="stop-color:#0678B3"/>
			<a:midPointStop  offset="0.5" style="stop-color:#0678B3"/>
			<a:midPointStop  offset="0.2135" style="stop-color:#094C91"/>
			<a:midPointStop  offset="0.5" style="stop-color:#094C91"/>
			<a:midPointStop  offset="0.6404" style="stop-color:#2890C0"/>
			<a:midPointStop  offset="0.5" style="stop-color:#2890C0"/>
			<a:midPointStop  offset="0.8034" style="stop-color:#82D0E3"/>
			<a:midPointStop  offset="0.5" style="stop-color:#82D0E3"/>
			<a:midPointStop  offset="1" style="stop-color:#09468C"/>
		</linearGradient>
		<path i:knockout="Off" opacity="0.1" fill="url(#XMLID_4_)" stroke="#000000" stroke-width="0.6414" d="M8.377,85.36
			c-4.449,0-8.057-3.43-8.057-7.66V7.98c0-4.23,3.607-7.659,8.057-7.659h92.348c4.448,0,8.055,3.429,8.055,7.659V77.7
			c0,4.23-3.606,7.66-8.055,7.66H8.377z"/>
		<g i:knockout="Off">
			<path i:knockout="Off" fill-rule="evenodd" clip-rule="evenodd" fill="#1D8F38" d="M54.904,57.318
				c-10.049,0.339-27.601,0.983-32.252,1.488c-7.531,0.817-8.844,11.084-8.896,11.521l-0.034,0.279l0.105,0.262
				c0.182,0.454,0.602,0.791,1.281,1.029c1.78,0.625,5.805,0.764,8.79-0.922c2.516-1.422,3.272-3.859,3.773-5.473
				c0.121-0.389,0.286-0.92,0.384-1.056c-0.024,0.032-0.121,0.128-0.288,0.176c0.895-0.167,16.377-1.51,30.36-2.681l-0.184-2.191
				c-11.162,0.934-30.003,2.535-30.781,2.757c-0.949,0.271-1.247,1.231-1.592,2.343c-0.445,1.434-0.999,3.217-2.755,4.209
				c-2.782,1.572-6.573,1.062-7.173,0.68c0.038,0.023,0.151,0.127,0.225,0.309l0.071,0.541c0.011-0.089,1.157-8.967,6.95-9.595
				c4.58-0.498,22.07-1.14,32.087-1.477L54.904,57.318z"/>
		</g>
		<g i:knockout="Off">
			<path i:knockout="Off" fill-rule="evenodd" clip-rule="evenodd" fill="#1D8F38" d="M52.95,60.624
				c-0.109,0.17-2.683,4.174-3.434,5.676c-0.685,1.367-0.664,3.195,0.048,4.346c0.479,0.777,1.229,1.205,2.109,1.205
				c2.102,0,4.767-2.175,4.767-4.619c0-1.447,1.871-5.076,2.459-5.547l-1.234-1.82c-1.311,0.874-3.423,5.418-3.423,7.367
				c0,1.121-1.555,2.42-2.568,2.42c-0.068,0-0.139,0-0.238-0.162c-0.305-0.494-0.282-1.545,0.048-2.205
				c0.699-1.396,3.291-5.429,3.316-5.469L52.95,60.624z"/>
		</g>
		<polygon i:knockout="Off" fill="#B3D495" points="51.949,42.73 51.948,42.73 51.948,42.731 		"/>
		<g i:knockout="Off">
			<g>
				<path i:knockout="Off" fill="#24258D" d="M12.368,38.78c0.809-2.123,1.112-4.396,0.91-6.822c-0.202-4.145-0.202-7.985,0-11.523
					c0.102-1.92,0.102-3.184,0-3.79c0-0.707-0.102-1.364-0.303-1.971c-0.607-2.628,0.556-3.942,3.486-3.942
					c4.043,0.708,8.238,1.062,12.584,1.062c1.617,0.102,2.779,0.759,3.487,1.972c0.606,1.313,0.404,2.576-0.606,3.789
					c-0.506,0.709-0.859,3.285-1.062,7.732c0,5.66,0.202,9.098,0.606,10.311c1.011,1.213,1.415,2.324,1.213,3.335
					c-0.404,1.011-1.314,1.517-2.729,1.517c-4.75,0.101-9.501,0.505-14.252,1.213C12.976,41.963,11.864,41.002,12.368,38.78z
					 M16.614,31.958c-0.404,0-0.607,0.201-0.607,0.605c0,0.708,0,1.617,0,2.729c0.102,1.718,0.81,2.628,2.123,2.729
					c2.628-0.203,4.396-0.304,5.307-0.304c0.506,0.101,0.656-0.202,0.455-0.909C23.284,33.271,20.858,31.654,16.614,31.958z
					 M22.981,26.196c-1.111,0.506-3.082,0.455-5.912-0.152c-0.809-0.303-1.162,0.102-1.062,1.213c0,0.91,0.304,1.365,0.91,1.365
					c3.437,0,5.762,0.606,6.975,1.819c1.414,1.213,2.122,3.386,2.122,6.519c0,0.305,0.304,0.455,0.909,0.455
					c0.709-0.201,1.113-0.605,1.213-1.213c0-5.861,0-12.027,0-18.496c0.102-1.314-0.303-2.021-1.213-2.123
					c-0.404-0.101-1.516-0.201-3.335-0.303c1.819,1.617,2.729,3.437,2.729,5.458C26.216,23.568,25.104,25.387,22.981,26.196z
					 M19.949,14.977c-0.202-0.102-0.657-0.152-1.364-0.152c-0.606-0.101-1.061-0.151-1.365-0.151
					c-0.707,0.101-1.111,0.606-1.213,1.517c0,1.617,0,3.386,0,5.306c-0.1,0.809,0.506,1.364,1.82,1.668
					c1.516,0.404,2.628,0.304,3.335-0.304c2.123-2.021,2.427-4.295,0.909-6.822C21.87,15.431,21.162,15.078,19.949,14.977z"/>
			</g>
		</g>
		<g i:knockout="Off">
			<path i:knockout="Off" fill-rule="evenodd" clip-rule="evenodd" fill="#1D8F38" d="M49.664,57.972l0.002,0.001
				c-0.038-0.026-3.816-2.739-3.218-6.092l-1.083,0.906c0.999,0.002,3.883,0.228,5.198,1.238c1.357,1.045,2.64,3.821,3.019,4.803
				l2.052-0.791c-0.16-0.42-1.638-4.146-3.73-5.756c-2.143-1.646-6.096-1.693-6.539-1.693h-0.921l-0.162,0.906
				c-0.847,4.742,3.917,8.138,4.12,8.28L49.664,57.972z"/>
		</g>
		<g i:knockout="Off">
			<path i:knockout="Off" fill-rule="evenodd" clip-rule="evenodd" fill="#1D8F38" d="M58.81,43.658L58.81,43.658
				c-3.223,0.077-12.292-0.24-15.527-2.597c-3.606-2.63-2.464-8.258-2.451-8.314l-0.909,0.857c2.326-0.356,4.863-0.318,5.321,0.08
				c0-0.001-0.021-0.02-0.044-0.061c0.174,0.315,0.306,1.068,0.434,1.795c0.334,1.902,0.791,4.508,2.86,5.926
				c2.226,1.527,6.82,1.65,11.021,1.57c0.295-0.005,0.529-0.01,0.689-0.01h2.303v-2.199h-2.303c-0.182,0-0.424,0.004-0.73,0.01
				c-1.928,0.037-7.792,0.148-9.736-1.186c-1.307-0.896-1.642-2.806-1.938-4.491c-0.174-0.987-0.323-1.84-0.673-2.476
				c-1.012-1.84-5.158-1.5-7.539-1.133l-0.748,0.115l-0.16,0.739c-0.062,0.288-1.465,7.075,3.307,10.554
				c4.498,3.277,16.372,3.031,16.875,3.019L58.81,43.658z"/>
		</g>
		<g i:knockout="Off">
			<path i:knockout="Off" fill-rule="evenodd" clip-rule="evenodd" fill="#1D8F38" d="M60.296,42.058
				c0.055-1.666,0.055-7.198-2.322-8.43c-2.25-1.167-4.911-0.702-5.023-0.682l-0.702,0.127l-0.17,0.692
				c-0.059,0.24-0.559,2.386-0.059,4.1c0.563,1.935,2.95,4.428,3.219,4.706l1.578-1.533v0.001c-0.873-0.9-2.375-2.727-2.686-3.79
				c-0.283-0.973-0.035-2.467,0.084-2.96l-0.872,0.822c0.018-0.004,2.044-0.346,3.617,0.47c0.693,0.359,1.234,3.411,1.137,6.403
				L60.296,42.058z"/>
		</g>
		<g i:knockout="Off">
			<path i:knockout="Off" fill-rule="evenodd" clip-rule="evenodd" fill="#1D8F38" d="M53.413,43.741
				c-0.315,0.242-3.1,2.43-3.761,4.498c-0.319,0.997-0.062,1.905,0.688,2.43c1.179,0.823,3.137,0.379,4.275-0.506
				c1.408-1.096,3.542-4.439,3.783-4.817l-1.859-1.176l0,0c-0.824,1.302-2.441,3.608-3.273,4.256
				c-0.573,0.444-1.453,0.551-1.675,0.435c0.057,0.029,0.123,0.136,0.125,0.199c0,0-0.001-0.047,0.032-0.15
				c0.341-1.068,2.025-2.668,3.007-3.424L53.413,43.741z"/>
		</g>
		<g i:knockout="Off">
			<path i:knockout="Off" fill-rule="evenodd" clip-rule="evenodd" fill="#1D8F38" d="M77.716,47.25
				c1.939-0.868,11.674-5.243,12.867-6.07l-1.252-1.809c-0.793,0.548-8.096,3.892-12.514,5.871L77.716,47.25z"/>
			<path i:knockout="Off" fill-rule="evenodd" clip-rule="evenodd" fill="#1D8F38" d="M75.91,43.532L75.91,43.532
				c0.07-0.031,7.09-3.084,12.777-3.027l0.021-2.199c-6.166-0.062-13.381,3.079-13.684,3.213L75.91,43.532z"/>
		</g>
		<g i:knockout="Off">
			<path i:knockout="Off" fill-rule="evenodd" clip-rule="evenodd" fill="#1D8F38" d="M77.257,51.488
				c0.398-0.134,9.816-3.343,15.348-9.487L90.97,40.53c-5.139,5.707-14.32,8.842-14.412,8.872L77.257,51.488z"/>
		</g>
		<g i:knockout="Off">
			<path i:knockout="Off" fill-rule="evenodd" clip-rule="evenodd" fill="#1D8F38" d="M84.847,51.274
				c-0.4,0.449-9.807,11.025-11.283,13.486c-1.18,1.969-1.947,5.158-1.129,7.442c0.463,1.296,1.385,2.222,2.662,2.679
				c3.352,1.197,8.881,1.773,10.373-1.545l0.057-0.127c1.041-2.309,1.939-4.304-1.234-6.719c-2.271-1.732-3.07-3.033-3.078-3.047
				l-0.1,1.262c0.375-0.452,9.182-11.121,11.818-14.957c2.703-3.929,3.586-6.656,3.623-6.77l0.293-0.924l-0.877-0.408
				c-0.086-0.039-8.543-3.972-12.199-5.859c-3.248-1.676-3.967-6.664-3.418-8.412c0.604-1.906-0.605-3.814-1.982-4.781
				c-1.441-1.012-3.086-1.066-4.293-0.143c-2.346,1.793-5.432,7.387-3.658,10.641c1.256,2.299,3.684,4.313,7.215,5.987
				c2.227,1.056,4.016,2.007,4.033,2.017l1.035-1.941c-0.074-0.039-1.85-0.984-4.127-2.063c-3.059-1.45-5.211-3.197-6.225-5.054
				c-1.049-1.924,1.207-6.419,3.062-7.838c0.611-0.467,1.387-0.02,1.693,0.195c0.863,0.605,1.369,1.625,1.148,2.318
				c-0.801,2.542,0.064,8.737,4.506,11.029c3.697,1.908,12.195,5.86,12.281,5.9l-0.584-1.332c-0.008,0.023-0.84,2.558-3.34,6.191
				c-2.582,3.756-11.609,14.692-11.701,14.803l-0.488,0.592l0.387,0.662c0.098,0.167,1.025,1.686,3.643,3.682
				c1.781,1.356,1.594,1.77,0.561,4.065l-0.057,0.128c-0.709,1.573-4.588,1.461-7.627,0.375c-0.654-0.233-1.09-0.675-1.332-1.348
				c-0.559-1.565,0.041-4.062,0.945-5.57c1.137-1.896,8.354-10.139,11.039-13.154L84.847,51.274z"/>
		</g>
		<g i:knockout="Off">
			<path i:knockout="Off" fill-rule="evenodd" clip-rule="evenodd" fill="#1D8F38" d="M79.056,55.19
				c0.506-0.277,12.439-6.861,15.971-12.436l-1.859-1.178c-3.227,5.098-15.051,11.619-15.17,11.684L79.056,55.19z"/>
		</g>
		<g i:knockout="Off">
			<g i:knockout="Off">
				<path i:knockout="Off" fill-rule="evenodd" clip-rule="evenodd" fill="#D90000" d="M76.863,51.175
					c0.102-0.152,2.467-3.779,0.699-7.995c-1.043-2.49-3.955-2.194-5.348-1.689l0.75,2.068l-0.006,0.002
					c0.021-0.008,2.076-0.717,2.574,0.469c1.303,3.107-0.43,5.815-0.504,5.93l-0.055,0.084c-0.004,0.005-0.043,0.099-0.043,0.099
					L76.863,51.175z"/>
			</g>
			<g i:knockout="Off">
				<path i:knockout="Off" fill-rule="evenodd" clip-rule="evenodd" fill="#D90000" d="M72.847,47.517
					c0.025-0.405-0.09-1.006-0.797-1.562c-1.395-1.093-5.191-1.84-7.473-1.119c-2.416,0.762-3.23,2.562-3.77,3.755
					c-0.086,0.188-0.166,0.365-0.244,0.521c-0.574,1.151,0.17,2.54,0.959,4.01c0.324,0.606,0.869,1.62,0.859,1.949
					c0-0.001,0-0.009,0.004-0.022c-0.109,0.598,0.127,1.164,0.648,1.554c1.5,1.126,6.332,0.823,8.006-0.015
					c1.969-0.983,2.957-2.785,2.998-2.861l0.326-0.607l-0.404-0.559C73.953,52.548,72.638,50.637,72.847,47.517z M72.101,52.684
					l0.002-0.005c-0.006,0.013-0.715,1.276-2.047,1.942c-1.223,0.611-5.031,0.669-5.705,0.219c0.092,0.062,0.252,0.311,0.199,0.602
					c0.18-0.993-0.408-2.09-1.09-3.359c-0.346-0.646-0.926-1.728-0.898-2.078c0,0-0.002,0.037-0.029,0.092
					c0.096-0.193,0.189-0.399,0.279-0.598c0.488-1.079,0.949-2.098,2.428-2.564c1.717-0.542,5.014,0.236,5.502,0.797
					c-0.027-0.031-0.104-0.165-0.09-0.358c-0.264,3.95,1.453,6.376,1.525,6.478L72.101,52.684z"/>
			</g>
			<g i:knockout="Off">
				<path i:knockout="Off" fill-rule="evenodd" clip-rule="evenodd" fill="#D90000" d="M71.025,47.2
					c1.717-1.479,4.359-5.513,2.072-10.197c-1.252-2.562-3.736-3.719-6.482-3.02c-2.771,0.705-5.488,3.347-5.326,7.031l0.008,0.187
					l0.07,0.174c0,0.001,0.324,0.911-0.105,1.145c-0.258,0.141-0.562,0.233-0.918,0.341c-1.123,0.34-2.66,0.805-3.549,3.249
					c-0.928,2.552,0.688,3.998,1.555,4.775c0.215,0.19,0.535,0.479,0.594,0.601c-0.055-0.119-0.023-0.351,0.062-0.452
					c-0.053,0.062-0.254,0.21-0.4,0.318c-0.572,0.423-1.439,1.062-1.969,2.274c-0.924,2.11,0.072,4.142,2.732,5.573l1.043-1.938
					c-1.594-0.856-2.186-1.784-1.76-2.755c0.293-0.672,0.785-1.034,1.26-1.385c0.535-0.395,1.652-1.217,1.025-2.564
					c-0.246-0.531-0.691-0.928-1.119-1.312c-0.904-0.809-1.357-1.282-0.955-2.384c0.512-1.409,1.15-1.603,2.117-1.896
					c0.412-0.125,0.879-0.266,1.336-0.516c1.721-0.938,1.469-2.957,1.094-3.893l0.076,0.359c-0.109-2.484,1.809-4.328,3.67-4.802
					c0.818-0.208,2.842-0.444,3.965,1.853c2.104,4.312-1.385,7.438-1.535,7.568L71.025,47.2z"/>
			</g>
			<g i:knockout="Off">
				<path i:knockout="Off" fill-rule="evenodd" clip-rule="evenodd" fill="#D90000" d="M58.128,61.942l4.348-0.359l-1.188-1.012
					c0.043,0.568,0.521,5.576,3.773,6.195c2.021,0.385,5.029-0.366,6.996-1.748c1.326-0.931,2.133-2.093,2.334-3.36
					c0.516-3.209-0.207-4.479-0.441-4.792l-0.76,1.752c1.496-0.166,6.375-0.926,6.375-3.732c0-2.394-1.678-4.909-3.521-5.279
					c-1.418-0.283-3.625,0.311-3.871,0.38l0.59,2.119l-0.002,0.001c0.74-0.205,2.168-0.479,2.852-0.342
					c0.6,0.119,1.754,1.521,1.754,3.121c0,0.414-1.98,1.272-4.42,1.547l-1.908,0.214l1.15,1.538
					c-0.037-0.052,0.408,0.776,0.031,3.127c-0.135,0.842-0.85,1.502-1.426,1.906c-1.662,1.167-4.055,1.629-5.32,1.387
					c-1.271-0.241-1.893-2.937-1.992-4.204l-0.088-1.101c0-0.001-1.1,0.09-1.1,0.09l-4.348,0.361L58.128,61.942z"/>
			</g>
			<g i:knockout="Off">
				
					<rect x="54.939" y="57.179" i:knockout="Off" transform="matrix(0.9995 -0.0322 0.0322 0.9995 -1.844 1.936)" fill-rule="evenodd" clip-rule="evenodd" fill="#D90000" width="8.622" height="2.2"/>
			</g>
		</g>
		<circle i:knockout="Off" fill-rule="evenodd" clip-rule="evenodd" fill="#D90000" cx="67.781" cy="53.304" r="1.429"/>
		<circle i:knockout="Off" fill-rule="evenodd" clip-rule="evenodd" fill="#D90000" cx="68.775" cy="50.572" r="1.429"/>
		<circle i:knockout="Off" fill-rule="evenodd" clip-rule="evenodd" fill="#D90000" cx="65.171" cy="51.503" r="1.429"/>
		<circle i:knockout="Off" fill-rule="evenodd" clip-rule="evenodd" fill="#D90000" cx="66.166" cy="48.46" r="1.429"/>
	</g>
</g>
</svg>
