<?xml version="1.0" encoding="utf-8"?>
<!-- Generator: Adobe Illustrator 12.0.0, SVG Export Plug-In . SVG Version: 6.00 Build 51448)  -->
<!DOCTYPE svg PUBLIC "-//W3C//DTD SVG 1.1//EN" "http://www.w3.org/Graphics/SVG/1.1/DTD/svg11.dtd" [
	<!ENTITY ns_flows "http://ns.adobe.com/Flows/1.0/">
	<!ENTITY ns_extend "http://ns.adobe.com/Extensibility/1.0/">
	<!ENTITY ns_ai "http://ns.adobe.com/AdobeIllustrator/10.0/">
	<!ENTITY ns_graphs "http://ns.adobe.com/Graphs/1.0/">
	<!ENTITY ns_vars "http://ns.adobe.com/Variables/1.0/">
	<!ENTITY ns_imrep "http://ns.adobe.com/ImageReplacement/1.0/">
	<!ENTITY ns_sfw "http://ns.adobe.com/SaveForWeb/1.0/">
	<!ENTITY ns_custom "http://ns.adobe.com/GenericCustomNamespace/1.0/">
	<!ENTITY ns_adobe_xpath "http://ns.adobe.com/XPath/1.0/">
	<!ENTITY ns_svg "http://www.w3.org/2000/svg">
	<!ENTITY ns_xlink "http://www.w3.org/1999/xlink">
]>
<svg  version="1.1"
	 xmlns:x="&ns_extend;" xmlns:i="&ns_ai;" xmlns:graph="&ns_graphs;" i:viewOrigin="-0.3208 113.645" i:rulerOrigin="0 0" i:pageBounds="0 113 108 0"
	 xmlns="&ns_svg;" xmlns:xlink="&ns_xlink;" xmlns:a="http://ns.adobe.com/AdobeSVGViewerExtensions/3.0/"
	 width="109.1" height="113.832" viewBox="0 0 109.1 113.832" overflow="visible" enable-background="new 0 0 109.1 113.832"
	 xml:space="preserve">
<metadata>
	<variableSets  xmlns="&ns_vars;">
		<variableSet  varSetName="binding1" locked="none">
			<variables></variables>
			<v:sampleDataSets  xmlns="&ns_custom;" xmlns:v="&ns_vars;"></v:sampleDataSets>
		</variableSet>
	</variableSets>
</metadata>
<g id="图层_1" i:layer="yes" i:dimmedPercent="50" i:rgbTrio="#4F008000FFFF">
	<g>
		
			<linearGradient id="XMLID_3_" gradientUnits="userSpaceOnUse" x1="935.4341" y1="81.0015" x2="1020.2271" y2="81.0015" gradientTransform="matrix(0 -1 1 0 -26.8223 1049.0791)">
			<stop  offset="0.1348" style="stop-color:#1889BC"/>
			<stop  offset="0.2247" style="stop-color:#C4E9F2"/>
			<a:midPointStop  offset="0.1348" style="stop-color:#1889BC"/>
			<a:midPointStop  offset="0.5" style="stop-color:#1889BC"/>
			<a:midPointStop  offset="0.2247" style="stop-color:#C4E9F2"/>
		</linearGradient>
		<path i:knockout="Off" fill="url(#XMLID_3_)" stroke="#000000" stroke-width="0.3739" d="M100.038,28.852c4.418,0,8,3.42,8,7.638
			v69.518c0,4.218-3.582,7.638-8,7.638H8.321c-4.418,0-8-3.42-8-7.638V36.49c0-4.218,3.582-7.638,8-7.638H100.038z"/>
		<path i:knockout="Off" fill="#FFFFFF" stroke="#000000" stroke-width="0.6414" d="M8.377,85.36c-4.449,0-8.057-3.43-8.057-7.66
			V7.98c0-4.23,3.607-7.659,8.057-7.659h92.348c4.447,0,8.055,3.429,8.055,7.659V77.7c0,4.23-3.607,7.66-8.055,7.66H8.377z"/>
		
			<linearGradient id="XMLID_4_" gradientUnits="userSpaceOnUse" x1="-229.9092" y1="-254.2622" x2="-144.8701" y2="-254.2622" gradientTransform="matrix(0 1 -1 0 -199.7119 230.23)">
			<stop  offset="0" style="stop-color:#A3DDEA"/>
			<stop  offset="0.0899" style="stop-color:#0678B3"/>
			<stop  offset="0.2135" style="stop-color:#094C91"/>
			<stop  offset="0.6404" style="stop-color:#2890C0"/>
			<stop  offset="0.8034" style="stop-color:#82D0E3"/>
			<stop  offset="1" style="stop-color:#09468C"/>
			<a:midPointStop  offset="0" style="stop-color:#A3DDEA"/>
			<a:midPointStop  offset="0.5" style="stop-color:#A3DDEA"/>
			<a:midPointStop  offset="0.0899" style="stop-color:#0678B3"/>
			<a:midPointStop  offset="0.5" style="stop-color:#0678B3"/>
			<a:midPointStop  offset="0.2135" style="stop-color:#094C91"/>
			<a:midPointStop  offset="0.5" style="stop-color:#094C91"/>
			<a:midPointStop  offset="0.6404" style="stop-color:#2890C0"/>
			<a:midPointStop  offset="0.5" style="stop-color:#2890C0"/>
			<a:midPointStop  offset="0.8034" style="stop-color:#82D0E3"/>
			<a:midPointStop  offset="0.5" style="stop-color:#82D0E3"/>
			<a:midPointStop  offset="1" style="stop-color:#09468C"/>
		</linearGradient>
		<path i:knockout="Off" opacity="0.1" fill="url(#XMLID_4_)" stroke="#000000" stroke-width="0.6414" d="M8.377,85.36
			c-4.449,0-8.057-3.43-8.057-7.66V7.98c0-4.23,3.607-7.659,8.057-7.659h92.348c4.449,0,8.055,3.429,8.055,7.659V77.7
			c0,4.23-3.605,7.66-8.055,7.66H8.377z"/>
		<g i:knockout="Off">
			<path i:knockout="Off" fill="#D90000" d="M32.537,60.864c2.195,0.191,3.246-0.62,3.15-2.434c0-1.432,0.381-2.148,1.145-2.148
				s1.146,0.573,1.146,1.719v11.313c0,1.24-0.383,1.861-1.146,1.861c-0.668,0.096-1.049-0.668-1.145-2.291
				c-0.096-1.146-0.334-1.861-0.717-2.148c-0.381-0.287-1.193-0.43-2.434-0.43H17.932c-1.24,0-2.004,0.143-2.291,0.43
				c-0.286,0.287-0.43,1.098-0.43,2.434v1.146c0,1.145-0.334,1.717-1.002,1.717s-1.098-0.668-1.289-2.004
				c-0.19-1.719-0.811-3.531-1.861-5.441c-0.572-1.049-0.859-1.812-0.859-2.291c0-1.05,0.717-1.527,2.148-1.433H32.537z"/>
		</g>
		<g>
			<path i:knockout="Off" fill="#1D8F38" d="M9.79,42.788c0,0,2.501-4.311,7.678-6.568c3.355-1.465,10.562-0.943,10.562-0.943
				s-2.953-1.848-3.097-3.144s0.72-1.656,1.944-0.864c1.224,0.792,2.951,4.104,2.951,4.104l2.521,1.08c0,0-1.872-2.088-1.872-3.527
				s2.016-3.24,4.536-2.664s3.744,3.312,3.744,4.464s-0.576,2.017-1.584,1.8c-1.009-0.216,0-2.16-0.792-3.455
				c-0.792-1.297-2.809-1.08-3.744-0.576s0,1.728,0.576,2.375c0.576,0.648,0.863,1.584,0.863,1.584s4.681,2.592,6.984,3.744
				c2.305,1.152,7.057,3.168,8.712,3.385c1.656,0.216,2.231-3.672,0.937-4.969c-1.297-1.296-3.24-0.359-3.24,0.648
				s-0.36,2.016-1.439,1.872c-1.08-0.144-1.656-2.089-0.505-3.816c1.152-1.728,4.177-1.655,5.976-0.72
				c1.801,0.936,3.888,5.4,0.504,7.344c0,0,4.537,0.217,5.472,0.36s1.297,1.08,1.152,1.8c-0.145,0.721-2.664,1.296-3.671,1.296
				c0,0-2.521,1.009-2.16,3.815c0.359,2.809,4.175,1.585,3.527,0.217c-0.646-1.368-0.576-2.736-0.504-3.385
				c0.072-0.647,2.088-0.432,2.232,0c0.145,0.433,1.297,4.177-0.432,5.832c-1.729,1.656-5.041,1.801-6.408-0.432
				c-1.368-2.232,0.576-5.4,1.943-6.552c0,0-6.912-0.647-10.584-3.312c0,0-4.031,2.16-4.463,3.6
				c-0.433,1.439,2.735,0.936,3.383,0.288c0.648-0.647,0.957-1.163,1.029-1.738c0.072-0.576,0.318-1.193,0.987-1.142
				c0.669,0.051,1.749,1.028,0.926,2.88c-0.823,1.851-2.571,3.446-5.503,3.085c-2.932-0.359-3.137-3.702-2.417-4.885
				c0.72-1.184,2.931-3.138,3.908-3.549c0,0-6.12-2.828-9.154-3.6s-3.6-0.515-3.6-0.515s-1.491,2.108-1.132,3.188
				c0.36,1.08,1.902-0.205,2.264-0.566c0.359-0.359,0.925-1.49,1.542-1.49s1.543,0.719,1.028,1.902
				c-0.514,1.184-2.725,3.034-5.297,2.417c-2.571-0.617-1.852-3.085-1.543-3.702s0.978-2.006,0.978-2.006s-10.595,1.285-14.04,5.297
				C11.47,43.045,10.253,43.713,9.79,42.788z"/>
			<path i:knockout="Off" fill="#1D8F38" d="M44.661,52.94c-1.151-0.144-0.287-2.376,0.072-3.312c0.36-0.936,0.721-1.871,1.44-1.799
				s2.663,1.512,2.376,2.375C48.262,51.069,45.813,53.084,44.661,52.94z"/>
			<path i:knockout="Off" fill="#1D8F38" d="M29.675,45.874c-0.576-0.512-0.051-1.389,0.566-2.057
				c0.617-0.669,2.674-2.365,3.96-2.16s1.543,1.902,0.978,2.726C34.612,45.206,31.063,47.108,29.675,45.874z"/>
			<path i:knockout="Off" fill="#1D8F38" d="M43.304,39.651c-0.565-0.463-2.726-3.497-2.828-4.629
				c-0.104-1.131,1.389-1.697,2.006-1.594c0.617,0.103,2.006,4.423,1.852,5.4C44.179,39.805,43.87,40.114,43.304,39.651z"/>
			<path i:knockout="Off" fill="#1D8F38" d="M73.452,58.836c0,0,1.02,0.871,0.299,2.023c-0.719,1.153-2.088,1.872-3.023,1.44
				c-0.938-0.432-2.594-1.872-2.521-2.736s0.721-2.592,1.729-3.6c1.008-1.009,2.881-1.656,4.682-1.296
				c1.797,0.359,2.59,2.447,2.59,2.447s1.871-2.664,3.744-4.68c1.871-2.016,7.486-5.615,8.062-6.768s0.648-3.528,0.648-3.528
				s-1.871,1.296-2.52,2.231c-0.648,0.937-2.305,2.305-2.664,2.305s-1.225-1.801-1.225-1.801s4.104-2.879,4.824-3.815
				s1.943-3.815,2.305-5.04c0.359-1.224,0.863-2.88,0.863-2.88s-2.305,2.304-2.879,3.456c-0.576,1.152-1.873,4.32-2.953,5.184
				c-1.08,0.864-2.088,1.44-2.088,1.44l-1.152-1.584c0,0,2.16-2.376,2.809-3.601c0.648-1.224,0.936-2.016,1.439-2.808
				s2.809-2.592,2.809-2.592s-0.863-0.36-1.943,0.216s-2.16,1.152-2.953,0.936c-0.791-0.215-3.312-1.943-3.312-1.943l-0.143-1.584
				l1.727,0.359c0,0-2.52-1.943-3.096-3.815s0.938-4.177,2.953-4.752c2.016-0.576,5.975,0.216,6.047,3.239
				c0.072,3.024-2.879,5.185-2.879,5.185l-0.504-1.151c0,0,1.008-2.449,0.215-4.248c-0.791-1.801-3.816-0.217-3.816,0.791
				s2.232,4.176,2.953,4.752l1.729,0.289l3.527-0.865c0,0,2.088-2.016,3.385-4.104c1.295-2.088,2.088-3.6,2.375-4.248
				c0.289-0.648,0.072-1.584-0.072-1.871c-0.143-0.289,0.721-1.584,1.369-1.729c0.646-0.145,2.375,1.439,2.52,1.872
				c0.145,0.432-6.121,11.088-6.121,11.088s0.145,4.248-0.287,5.112c-0.432,0.863-1.584,2.808-1.584,2.808s0.648,2.304,0.648,3.815
				c0,1.513-1.08,5.545-2.305,6.553s-4.32,2.447-4.32,2.447s-3.744,2.521-4.752,4.104s-2.16,3.384-2.52,3.672
				s-1.225,1.945-1.225,2.664c0,0.721-0.646,2.305-1.439,2.305c-0.789,0-2.158,0.359-2.807,1.369
				c-0.646,1.008-1.439,1.727-2.088,1.727s-1.945-0.863-1.945-0.863l5.979-5.041c0,0,0.359-1.224,1.293-2.304
				c0,0,0.072-1.152-0.646-1.872s-3.238-0.433-3.814,0.647s0.646,2.088,0.936,1.584C72.598,59.276,73.452,58.836,73.452,58.836z"/>
			<path i:knockout="Off" fill="#1D8F38" d="M76.053,67.125c-0.863,0.145-1.223,0.648-2.014,0.145
				c-0.793-0.504-0.217-2.016,0.936-2.232c1.15-0.215,4.678,0.072,5.975,2.016c1.295,1.945,0.287,3.529-0.793,4.105
				c-1.08,0.574-3.959-0.361-4.68-0.361c-0.719,0-3.094-0.576-3.814,1.008s0.289,1.801,1.225,1.729s1.008-1.225,2.375-1.584
				s2.23,0.863,2.951,1.873c0.719,1.008,1.295,1.871,0.719,2.592c-0.576,0.719-1.367,0.143-2.016-0.576
				c-0.648-0.721-0.936-1.584-1.654-1.584s-1.223,1.727-2.23,1.871c-1.01,0.145-3.242-1.223-3.818-2.879s1.008-3.961,2.09-4.248
				c1.08-0.289,2.879-0.504,4.605-0.217c1.729,0.289,3.096,0.863,3.096-0.217C79.004,67.486,76.917,66.98,76.053,67.125z"/>
			<path i:knockout="Off" fill="#1D8F38" d="M79.293,59.06c0,0-1.008,2.017-0.361,4.178c0.648,2.158,2.285,0.996,2.736,0.215
				c1.08-1.871-0.145-4.464-0.719-5.112C80.374,57.692,79.293,59.06,79.293,59.06z"/>
			<path i:knockout="Off" fill="#1D8F38" d="M83.18,54.596c0,0,0.072,3.527,0.793,4.68c0.719,1.152,2.664,1.225,3.959,0.36
				c1.297-0.864,2.881-2.593,2.16-4.608c-0.719-2.016-2.879-3.744-3.455-3.6s-1.225,1.08-0.576,1.872s2.16,2.159,2.016,2.88
				s-1.512,1.8-2.447,1.296c-0.938-0.504-0.793-2.304-1.225-2.88S83.18,53.588,83.18,54.596z"/>
			<path i:knockout="Off" fill="#1D8F38" d="M73.823,27.596c0,0-1.225-1.296-1.439-2.016c-0.217-0.721-0.504-1.873-1.08-2.377
				s-2.666,0.289-3.025,1.297c-0.361,1.008,0,2.808,1.152,2.231c1.152-0.575,2.232-1.512,2.377-1.079
				c0.145,0.432,0.297,1.279,0.215,1.728c-0.143,0.792-1.584,1.224-3.816,1.224s-2.953-2.664-2.736-3.023
				c0.217-0.36,1.512-3.961,4.824-4.176c0,0,1.873-1.152,2.449-1.729c0,0,2.016-0.217,2.447-0.721s1.223-1.943-0.07-2.52
				c-1.297-0.576-2.16,0.361-2.16,0.361s-0.576-1.586,0.143-2.449c0.721-0.863,4.75,0.721,4.895,2.809s-1.512,4.031-2.877,4.319
				c-1.369,0.288-2.881,0.72-2.881,0.72s1.297,1.297,2.232,2.305c0.934,1.008,1.221,1.584,0.934,2.231
				C75.12,27.38,73.823,27.596,73.823,27.596z"/>
			<path i:knockout="Off" fill="#1D8F38" d="M68.278,19.892c0,0-2.232-0.071-2.232-1.224s1.225-2.52,1.943-2.088
				c0.721,0.432,1.656,0.791,1.656,0.791s0-2.16,0.217-3.814c0.215-1.656,0.938-3.816,2.16-3.744
				c1.225,0.072,1.656,0.863,1.08,1.512s-1.799,2.664-1.727,3.6s0.576,0.217,0.719,1.439c0.145,1.225,0.289,2.018-0.215,2.377
				s-1.152-0.289-1.441,0.287C69.856,20.189,68.278,19.892,68.278,19.892z"/>
			<path i:knockout="Off" fill="#1D8F38" d="M76.629,25.508c0,0-0.432-1.008,0.072-2.664s1.295-2.736,2.016-1.943
				c0.719,0.791-0.361,2.879-0.432,3.383C78.213,24.788,76.629,25.508,76.629,25.508z"/>
		</g>
		<path i:knockout="Off" fill="#D90000" d="M69.432,29.299c-0.475,0-0.926,0.045-1.336,0.104c-1.254,0.182-2.977,0.996-4.045,2.738
			c-0.623,1.02-1.164,2.69-0.643,5.012c-3.127,1.175-5.141,3.049-5.342,5.203c-0.314,3.366,1.691,5.037,5.221,6.633
			c0.025,0.156,0.053,0.334,0.053,0.334l0.525,2.996c0.342,1.518,1.525,2.76,3.086,3.243c0.475,0.146,0.961,0.218,1.445,0.218
			c1.305,0,2.605-0.519,3.658-1.497c0.943-0.876,1.588-1.66,1.996-2.366c1.461,0.48,2.904,0.865,4.08,0.865
			c0.105,0,0.211-0.002,0.312-0.01c3.025-0.191,5.291-2.213,5.637-5.029c0.217-1.765-0.447-3.806-1.908-6.057
			c2.729-4.061,1.768-7.053,0.883-8.505c-0.633-1.036-1.969-1.837-3.486-2.088c-0.352-0.059-0.705-0.087-1.059-0.087
			c-1.305,0-2.58,0.5-3.781,1.252C73.03,29.942,71.086,29.299,69.432,29.299z M73.487,34.25l0.654,1.128l1.002-0.836
			c1.697-1.416,3.275-1.408,4.066-1.277c1.008,0.166,1.725,0.668,1.967,1.062c0.785,1.288,1.217,3.494-1.188,6.689l-0.482,0.641
			l0.463,0.655c1.447,2.052,2.096,3.789,1.928,5.163c-0.215,1.759-1.625,2.977-3.592,3.102c-1.094,0.07-2.979-0.531-4.5-1.063
			l-1.307-0.456l-0.15,1.375c-0.027,0.247-0.537,1.074-1.791,2.239c-0.875,0.812-1.951,1.099-2.955,0.789
			c-0.824-0.255-1.418-0.862-1.59-1.625l-0.498-2.853l-0.236-1.503l-0.559-0.237c-4.395-1.887-4.617-3.027-4.463-4.682
			c0.102-1.076,1.41-2.689,4.771-3.693l1.094-0.326l-0.367-1.082c-0.564-1.656-0.506-3.059,0.174-4.168
			c0.629-1.025,1.699-1.598,2.482-1.711C70.1,31.336,71.887,31.493,73.487,34.25z"/>
		<path i:knockout="Off" fill="#D90000" d="M68.375,35.505c-1.188,0.772-1.486,2.493-1.582,3.547
			c-0.844,0.499-2.129,1.403-2.467,2.649l-3.08,0.229l0.164,2.194l3.41-0.255c0.643,0.804,1.67,1.333,2.389,1.642
			c0.176,0.789,0.523,1.947,1.246,2.729l-1.064,2.59l2.035,0.836l1.082-2.629c1.25-0.145,2.334-1.197,2.969-1.918
			c0.26,0.023,0.555,0.042,0.875,0.042c0.629,0,1.33-0.077,1.949-0.323l2.402,1.91l1.369-1.721l-2.256-1.797
			c0.344-1.265-0.359-2.721-0.871-3.588c0.314-0.736,0.693-1.855,0.59-2.892l2.252-1.608l-1.279-1.79l-2.127,1.521
			c-0.543-0.316-1.189-0.434-1.826-0.434c-0.67,0-1.256,0.111-1.742,0.222c-0.535-0.472-1.344-1.099-2.24-1.386l-0.043-2.288
			l-2.199,0.041L68.375,35.505z M74.454,41.802l0.326,0.511c1.176,1.848,0.914,2.364,0.91,2.369
			c-0.002,0.004-0.355,0.462-2.529,0.189l-0.602-0.076l-0.385,0.469c-1.393,1.69-1.965,1.602-1.971,1.6
			c-0.006-0.001-0.551-0.197-0.963-2.349l-0.115-0.595l-0.562-0.222c-2.039-0.802-2.131-1.374-2.131-1.38s0.018-0.584,1.936-1.642
			l0.531-0.292l0.037-0.604c0.133-2.187,0.648-2.451,0.652-2.454c0.006-0.002,0.562-0.162,2.16,1.336l0.443,0.414l0.586-0.152
			c2.121-0.549,2.531-0.141,2.535-0.137s0.326,0.483-0.602,2.467L74.454,41.802z"/>
		<path i:knockout="Off" fill="#D90000" d="M51.769,25.627c0,2.262,1.826,4.101,4.07,4.101c2.244,0,4.07-1.839,4.07-4.101
			c0-2.26-1.826-4.1-4.07-4.1C53.595,21.528,51.769,23.368,51.769,25.627z M57.709,25.627c0,1.049-0.84,1.9-1.871,1.9
			c-1.031,0-1.869-0.852-1.869-1.9c0-1.047,0.838-1.899,1.869-1.899C56.87,23.728,57.709,24.581,57.709,25.627z"/>
		<path i:knockout="Off" fill="#D90000" d="M56.989,63.009c0,2.26,1.893,4.1,4.221,4.1c2.326,0,4.221-1.84,4.221-4.1
			c0-2.262-1.895-4.101-4.221-4.101C58.881,58.909,56.989,60.748,56.989,63.009z M63.229,63.009c0,1.047-0.906,1.9-2.02,1.9
			s-2.02-0.854-2.02-1.9c0-1.049,0.906-1.901,2.02-1.901S63.229,61.96,63.229,63.009z"/>
		<path i:knockout="Off" fill-rule="evenodd" clip-rule="evenodd" fill="#D90000" d="M75.956,31.366c0,0-0.412-0.939-0.529-1.703
			c-0.115-0.763-0.996-1.584-0.996-1.584l2.934-0.939c0,0,0.939,1.35,1.76,1.761c0.822,0.411,1.938,0.938,1.938,0.938l0.529,1.645
			C81.59,31.483,78.362,30.368,75.956,31.366z"/>
	</g>
</g>
</svg>
