<?xml version="1.0" encoding="utf-8"?>
<!-- Generator: Adobe Illustrator 12.0.0, SVG Export Plug-In . SVG Version: 6.00 Build 51448)  -->
<!DOCTYPE svg PUBLIC "-//W3C//DTD SVG 1.1//EN" "http://www.w3.org/Graphics/SVG/1.1/DTD/svg11.dtd" [
	<!ENTITY ns_flows "http://ns.adobe.com/Flows/1.0/">
	<!ENTITY ns_extend "http://ns.adobe.com/Extensibility/1.0/">
	<!ENTITY ns_ai "http://ns.adobe.com/AdobeIllustrator/10.0/">
	<!ENTITY ns_graphs "http://ns.adobe.com/Graphs/1.0/">
	<!ENTITY ns_vars "http://ns.adobe.com/Variables/1.0/">
	<!ENTITY ns_imrep "http://ns.adobe.com/ImageReplacement/1.0/">
	<!ENTITY ns_sfw "http://ns.adobe.com/SaveForWeb/1.0/">
	<!ENTITY ns_custom "http://ns.adobe.com/GenericCustomNamespace/1.0/">
	<!ENTITY ns_adobe_xpath "http://ns.adobe.com/XPath/1.0/">
	<!ENTITY ns_svg "http://www.w3.org/2000/svg">
	<!ENTITY ns_xlink "http://www.w3.org/1999/xlink">
]>
<svg  version="1.1"
	 xmlns:x="&ns_extend;" xmlns:i="&ns_ai;" xmlns:graph="&ns_graphs;" i:viewOrigin="-0.3208 113.645" i:rulerOrigin="0 0" i:pageBounds="0 113 108 0"
	 xmlns="&ns_svg;" xmlns:xlink="&ns_xlink;" xmlns:a="http://ns.adobe.com/AdobeSVGViewerExtensions/3.0/"
	 width="109.1" height="113.832" viewBox="0 0 109.1 113.832" overflow="visible" enable-background="new 0 0 109.1 113.832"
	 xml:space="preserve">
<metadata>
	<variableSets  xmlns="http://ns.adobe.com/Variables/1.0/">
		<variableSet  locked="none" varSetName="binding1">
			<variables></variables>
			<v:sampleDataSets  xmlns:v="http://ns.adobe.com/Variables/1.0/" xmlns="http://ns.adobe.com/GenericCustomNamespace/1.0/">
				</v:sampleDataSets>
		</variableSet>
	</variableSets>
</metadata>
<g id="图层_1" i:knockout="Off" i:layer="yes" i:dimmedPercent="50" i:rgbTrio="#4F008000FFFF">
	
		<linearGradient id="XMLID_7_" gradientUnits="userSpaceOnUse" x1="935.7534" y1="32.644" x2="1020.5474" y2="32.644" gradientTransform="matrix(0 -1 -1 0 86.8232 1049.3994)">
		<stop  offset="0.1348" style="stop-color:#1889BC"/>
		<stop  offset="0.2247" style="stop-color:#C4E9F2"/>
		<a:midPointStop  offset="0.1348" style="stop-color:#1889BC"/>
		<a:midPointStop  offset="0.5" style="stop-color:#1889BC"/>
		<a:midPointStop  offset="0.2247" style="stop-color:#C4E9F2"/>
	</linearGradient>
	<path fill="url(#XMLID_7_)" stroke="#000000" stroke-width="0.3739" d="M100.037,28.852c4.418,0,8.001,3.42,8.001,7.638v69.518
		c0,4.218-3.583,7.638-8.001,7.638H8.321c-4.418,0-8-3.42-8-7.638V36.49c0-4.218,3.582-7.638,8-7.638H100.037z"/>
	<path fill="#FFFFFF" stroke="#000000" stroke-width="0.6414" d="M8.377,85.36c-4.449,0-8.057-3.43-8.057-7.66V7.98
		c0-4.23,3.607-7.659,8.057-7.659h92.348c4.447,0,8.055,3.429,8.055,7.659V77.7c0,4.23-3.606,7.66-8.055,7.66H8.377z"/>
	
		<linearGradient id="XMLID_8_" gradientUnits="userSpaceOnUse" x1="-229.5884" y1="367.9067" x2="-144.5493" y2="367.9067" gradientTransform="matrix(0 1 1 0 -313.3574 229.9092)">
		<stop  offset="0" style="stop-color:#A3DDEA"/>
		<stop  offset="0.0899" style="stop-color:#0678B3"/>
		<stop  offset="0.2135" style="stop-color:#094C91"/>
		<stop  offset="0.6404" style="stop-color:#2890C0"/>
		<stop  offset="0.8034" style="stop-color:#82D0E3"/>
		<stop  offset="1" style="stop-color:#09468C"/>
		<a:midPointStop  offset="0" style="stop-color:#A3DDEA"/>
		<a:midPointStop  offset="0.5" style="stop-color:#A3DDEA"/>
		<a:midPointStop  offset="0.0899" style="stop-color:#0678B3"/>
		<a:midPointStop  offset="0.5" style="stop-color:#0678B3"/>
		<a:midPointStop  offset="0.2135" style="stop-color:#094C91"/>
		<a:midPointStop  offset="0.5" style="stop-color:#094C91"/>
		<a:midPointStop  offset="0.6404" style="stop-color:#2890C0"/>
		<a:midPointStop  offset="0.5" style="stop-color:#2890C0"/>
		<a:midPointStop  offset="0.8034" style="stop-color:#82D0E3"/>
		<a:midPointStop  offset="0.5" style="stop-color:#82D0E3"/>
		<a:midPointStop  offset="1" style="stop-color:#09468C"/>
	</linearGradient>
	
		<path i:isolated="yes" i:knockout="Off" opacity="0.1" fill="url(#XMLID_8_)" stroke="#000000" stroke-width="0.6414" enable-background="new    " d="
		M8.377,85.36c-4.449,0-8.057-3.43-8.057-7.66V7.98c0-4.23,3.607-7.659,8.057-7.659h92.348c4.448,0,8.055,3.429,8.055,7.659V77.7
		c0,4.23-3.605,7.66-8.055,7.66H8.377z"/>
	<g i:knockout="Off">
		<path fill="#24258D" d="M9.785,40.886c0,0,1.92-4.801,9.959-5.641c8.041-0.84,31.32,1.801,31.32,1.801s0-1.08,2.4-0.24
			c1.52,0.531,2.279,0.84,4.679,0.84s7.32,0.6,7.32,0.6s0.6-1.32,3-0.24c2.399,1.08,4.561,0.961,4.561,0.961s0.959-0.961,2.279-0.48
			c1.319,0.481,3.961,0.721,3.961,0.721s0.6-1.201,2.76-0.721s8.039,0.6,8.039,0.6s1.801-1.199,3.602-1.199c1.8,0,3.72,1.92,3,3.6
			c-0.721,1.68-1.44,2.88-3.842,2.28c-2.397-0.601-7.317-1.681-8.76-1.681c-1.439,0-1.439,1.32-2.52,1.32
			c-1.081,0-1.802-1.439-3.119-1.439c-1.32,0-7.441-0.601-8.521-0.601s-1.799,1.44-2.879,0.841c-1.08-0.601-1.561-1.681-2.16-1.681
			c-0.599,0-9-0.479-9.84-0.479s-1.2,1.199-2.64,0.84c-1.44-0.36-2.16-1.08-3.24-1.08s-22.32-2.641-30-1.44
			c-5.179,0.81-7.08,1.8-7.92,2.761C10.385,42.085,9.785,41.726,9.785,40.886z"/>
	</g>
	<path fill="#1D8F38" d="M53.704,65.486c0,0-2.399-0.24-3.12-1.68c-0.719-1.44-1.199-2.76-2.039-2.76s-3.961,1.318-3,4.08
		c0.959,2.76,2.64,2.64,3.479,2.159c0.841-0.479,4.92-1.2,4.92-1.2L53.704,65.486z"/>
	<path fill="#1D8F38" d="M54.784,59.366c-2.04-0.238-3.84-3.959-4.56-7.439c-0.721-3.479-0.12-5.039,1.439-3.959
		c1.561,1.08,3.841,3.479,4.56,6.119C56.945,56.726,56.824,59.606,54.784,59.366z"/>
	<path fill="#1D8F38" d="M60.785,73.046c-1.198-1.08-3.961-5.882-4.198-7.682c-0.24-1.8,1.198-3,2.639-2.04
		c1.44,0.961,3.121,7.32,3.121,8.642C62.346,73.287,61.984,74.126,60.785,73.046z"/>
	<path fill="#1D8F38" d="M57.904,59.726c0,0-0.84-0.36,0.361-3.721c1.199-3.359,7.92-9.84,8.76-9.959
		c0.84-0.121-0.479,2.76-0.961,4.319c-0.479,1.56-4.199,7.32-4.199,7.32S57.904,59.246,57.904,59.726z"/>
	<path fill="#1D8F38" d="M60.544,62.966c-1.08-0.36-2.16-0.961-2.16-2.521c0-1.56,3.84-2.159,5.399-2.159
		c1.561,0,14.642,1.439,15.48,3.119c0.839,1.681-6.961,2.521-9.961,2.521S61.625,63.326,60.544,62.966z"/>
	<path fill="#1D8F38" d="M63.785,57.686c0,0,6.24-6.479,9-6.96c0,0,0.722-2.881,3.959-1.92c0,0,4.922-1.2,5.521-1.32
		c0.599-0.12,1.799-2.4,4.438-1.68c2.642,0.72,4.439-0.36,6.841-0.36c2.4,0,6,1.8,5.76,3.841c-0.24,2.039-4.92,1.439-7.681,1.319
		c-2.76-0.12-4.079-0.72-4.079-0.72s-0.521,1.779-1.921,1.439c-2.221-0.539-6.959,0.12-6.959,0.12s-0.36,0.72-1.319,1.8
		c-0.961,1.08-2.642,0.24-3.603,0.24c-0.959,0-7.559,4.426-7.559,4.426S63.83,58.646,63.785,57.686z"/>
	<path fill="#1D8F38" d="M85.505,65.906c-0.961-0.778-1.802-6,1.26-10.08c3.059-4.08,8.869-5.557,11.459-4.38
		c1.979,0.899,0.361,4.38-1.5,4.86c-1.859,0.48-4.705-0.748-6.66,0.779c-3.078,2.405-3.6,5.28-3.6,6.36S86.464,66.686,85.505,65.906
		z"/>
	<path fill="#1D8F38" d="M40.504,22.766c0,0-1.199-2.16-3.359-1.922c-2.16,0.24-3.12,2.881-2.04,4.32
		C36.185,26.606,40.625,28.287,40.504,22.766z"/>
	<path fill="#1D8F38" d="M44.584,20.125c-1.68-0.721-2.159-4.439-2.76-6.961c-0.6-2.52,0-3.719,1.561-2.16
		c1.56,1.561,4.439,5.041,4.56,7.201C48.066,20.365,46.265,20.844,44.584,20.125z"/>
	<path fill="#1D8F38" d="M49.385,18.686c-1.08-0.121-1.68-2.641-0.96-4.08c0.72-1.441,5.88-4.92,7.201-4.441
		C56.945,10.645,50.465,18.805,49.385,18.686z"/>
	<path fill="#1D8F38" d="M49.265,20.245c0,0,0.601-2.279,3.84-2.4c3.241-0.119,16.2,1.08,17.521,2.281
		c1.319,1.199-1.921,2.641-5.642,2.879c-3.719,0.24-6.6,0.961-9,0.24c0,0-2.81-1.191-4.583-1.984
		C50.013,20.641,49.633,20.403,49.265,20.245z"/>
	<path fill="#1D8F38" d="M48.185,21.565c0.146-1.678,1.44-1.08,4.681,0.961c3.24,2.039,6.838,4.8,6.958,5.88
		c0.121,1.08-1.08,1.92-2.52,1.2C54.402,28.155,47.887,25.016,48.185,21.565z"/>
	<path fill="#1D8F38" d="M50.705,34.406c0,0-3.48-3.6-4.801-8.16c-1.32-4.56-0.24-4.56,0.48-4.56c0.72,0,2.279,2.639,3.96,6.239
		C52.024,31.526,53.824,34.646,50.705,34.406z"/>
	<path fill="#1D8F38" d="M57.544,25.286c0,0-1.08-1.441,0.6-1.441s9,4.922,9.961,4.802c0.959-0.12,3.119-0.96,4.08,0.12
		c0.959,1.079,5.639,2.159,6.84,2.159c1.199,0,3.119-0.239,4.08,0.48c0.959,0.721,1.799,0,3.24,0c1.438,0,5.639-0.359,7.799,0.36
		c2.16,0.719,3.24,5.399,0.24,5.159c-3-0.239-11.039-1.56-12.359-1.92c-1.32-0.359-1.561,0.961-3,0
		c-1.438-0.959-4.801-1.799-6.121-2.039c-1.317-0.24-2.52,0.359-4.08-0.84C67.265,30.925,59.705,27.566,57.544,25.286z"/>
	<path fill="#1D8F38" d="M94.625,29.726c0,0,0-3-2.279-3.12c-2.281-0.12-7.441-1.561-9.961-3.48
		c-2.521-1.919-1.799-4.439-3.119-5.16c-1.32-0.721-1.801,1.92-0.601,4.92c1.199,3.001,3.96,5.521,7.921,6.721
		C90.544,30.806,94.625,31.766,94.625,29.726z"/>
	<g i:knockout="Off">
		<path fill="#D90000" d="M22.421,62.005c0.955-4.295,3.246-6.54,6.873-6.73c5.156,0.191,7.828,3.676,8.02,10.453
			c-0.287,6.014-2.1,9.117-5.441,9.309c-1.527,0-2.291-0.812-2.291-2.436c-0.096-1.527,0.525-2.242,1.861-2.146
			c2.673-0.286,4.01-1.719,4.01-4.297c-0.096-3.436-2.1-5.201-6.014-5.297c-3.818-0.096-5.68,2.338-5.585,7.303
			c0,1.146-0.382,1.718-1.146,1.718c-0.764,0.19-1.146-0.523-1.146-2.146c0-3.914-1.766-5.824-5.298-5.729
			c-2.863,0.096-4.344,1.432-4.439,4.01c0.191,2.004,1.003,3.055,2.435,3.15c0.286,0,0.62-0.05,1.003-0.146
			c0.381-0.094,0.716-0.143,1.002-0.143c0.859,0.19,1.336,0.955,1.432,2.291c-0.096,1.719-0.859,2.577-2.291,2.577
			c-3.531-0.479-5.441-3.438-5.728-8.879c0.382-5.438,2.626-8.305,6.729-8.59c2.96,0.096,4.917,2.004,5.871,5.728H22.421
			L22.421,62.005z"/>
	</g>
</g>
</svg>
