<?xml version="1.0" encoding="utf-8"?>
<!-- Generator: Adobe Illustrator 12.0.0, SVG Export Plug-In . SVG Version: 6.00 Build 51448)  -->
<!DOCTYPE svg PUBLIC "-//W3C//DTD SVG 1.1//EN" "http://www.w3.org/Graphics/SVG/1.1/DTD/svg11.dtd" [
	<!ENTITY ns_flows "http://ns.adobe.com/Flows/1.0/">
	<!ENTITY ns_extend "http://ns.adobe.com/Extensibility/1.0/">
	<!ENTITY ns_ai "http://ns.adobe.com/AdobeIllustrator/10.0/">
	<!ENTITY ns_graphs "http://ns.adobe.com/Graphs/1.0/">
	<!ENTITY ns_vars "http://ns.adobe.com/Variables/1.0/">
	<!ENTITY ns_imrep "http://ns.adobe.com/ImageReplacement/1.0/">
	<!ENTITY ns_sfw "http://ns.adobe.com/SaveForWeb/1.0/">
	<!ENTITY ns_custom "http://ns.adobe.com/GenericCustomNamespace/1.0/">
	<!ENTITY ns_adobe_xpath "http://ns.adobe.com/XPath/1.0/">
	<!ENTITY ns_svg "http://www.w3.org/2000/svg">
	<!ENTITY ns_xlink "http://www.w3.org/1999/xlink">
]>
<svg  version="1.1"
	 xmlns:x="&ns_extend;" xmlns:i="&ns_ai;" xmlns:graph="&ns_graphs;" i:viewOrigin="-0.3208 113.645" i:rulerOrigin="0 0" i:pageBounds="0 113 108 0"
	 xmlns="&ns_svg;" xmlns:xlink="&ns_xlink;" xmlns:a="http://ns.adobe.com/AdobeSVGViewerExtensions/3.0/"
	 width="109.1" height="113.832" viewBox="0 0 109.1 113.832" overflow="visible" enable-background="new 0 0 109.1 113.832"
	 xml:space="preserve">
<metadata>
	<variableSets  xmlns="http://ns.adobe.com/Variables/1.0/">
		<variableSet  locked="none" varSetName="binding1">
			<variables></variables>
			<v:sampleDataSets  xmlns:v="http://ns.adobe.com/Variables/1.0/" xmlns="http://ns.adobe.com/GenericCustomNamespace/1.0/">
				</v:sampleDataSets>
		</variableSet>
	</variableSets>
</metadata>
<g id="图层_1" i:knockout="Off" i:layer="yes" i:dimmedPercent="50" i:rgbTrio="#4F008000FFFF">
	
		<linearGradient id="XMLID_3_" gradientUnits="userSpaceOnUse" x1="935.7534" y1="32.644" x2="1020.5474" y2="32.644" gradientTransform="matrix(0 -1 -1 0 86.8232 1049.3994)">
		<stop  offset="0.1348" style="stop-color:#1889BC"/>
		<stop  offset="0.2247" style="stop-color:#C4E9F2"/>
		<a:midPointStop  offset="0.1348" style="stop-color:#1889BC"/>
		<a:midPointStop  offset="0.5" style="stop-color:#1889BC"/>
		<a:midPointStop  offset="0.2247" style="stop-color:#C4E9F2"/>
	</linearGradient>
	<path fill="url(#XMLID_3_)" stroke="#000000" stroke-width="0.3739" d="M100.038,28.852c4.418,0,8,3.42,8,7.638v69.518
		c0,4.218-3.582,7.638-8,7.638H8.321c-4.418,0-8-3.42-8-7.638V36.49c0-4.218,3.582-7.638,8-7.638H100.038z"/>
	<path fill="#FFFFFF" stroke="#000000" stroke-width="0.6414" d="M8.377,85.36c-4.449,0-8.057-3.43-8.057-7.66V7.98
		c0-4.23,3.607-7.659,8.057-7.659h92.348c4.447,0,8.055,3.429,8.055,7.659V77.7c0,4.23-3.606,7.66-8.055,7.66H8.377z"/>
	
		<linearGradient id="XMLID_4_" gradientUnits="userSpaceOnUse" x1="-229.5884" y1="367.9067" x2="-144.5493" y2="367.9067" gradientTransform="matrix(0 1 1 0 -313.3574 229.9092)">
		<stop  offset="0" style="stop-color:#A3DDEA"/>
		<stop  offset="0.0899" style="stop-color:#0678B3"/>
		<stop  offset="0.2135" style="stop-color:#094C91"/>
		<stop  offset="0.6404" style="stop-color:#2890C0"/>
		<stop  offset="0.8034" style="stop-color:#82D0E3"/>
		<stop  offset="1" style="stop-color:#09468C"/>
		<a:midPointStop  offset="0" style="stop-color:#A3DDEA"/>
		<a:midPointStop  offset="0.5" style="stop-color:#A3DDEA"/>
		<a:midPointStop  offset="0.0899" style="stop-color:#0678B3"/>
		<a:midPointStop  offset="0.5" style="stop-color:#0678B3"/>
		<a:midPointStop  offset="0.2135" style="stop-color:#094C91"/>
		<a:midPointStop  offset="0.5" style="stop-color:#094C91"/>
		<a:midPointStop  offset="0.6404" style="stop-color:#2890C0"/>
		<a:midPointStop  offset="0.5" style="stop-color:#2890C0"/>
		<a:midPointStop  offset="0.8034" style="stop-color:#82D0E3"/>
		<a:midPointStop  offset="0.5" style="stop-color:#82D0E3"/>
		<a:midPointStop  offset="1" style="stop-color:#09468C"/>
	</linearGradient>
	
		<path i:isolated="yes" i:knockout="Off" opacity="0.1" fill="url(#XMLID_4_)" stroke="#000000" stroke-width="0.6414" enable-background="new    " d="
		M8.377,85.36c-4.449,0-8.057-3.43-8.057-7.66V7.98c0-4.23,3.607-7.659,8.057-7.659h92.348c4.449,0,8.055,3.429,8.055,7.659V77.7
		c0,4.23-3.604,7.66-8.055,7.66H8.377z"/>
	<g i:knockout="Off">
		<path fill="#35A034" d="M15.868,38.603c-3-0.959-3.48-2.16-2.521-3.48s6,2.281,14.521,2.641c8.52,0.359,16.92-0.721,19.08-1.561
			c2.16-0.84,6.6-1.68,8.16-1.32c1.562,0.361,2.16,1.682,1.92,2.4c-0.24,0.721-1.561,1.92-3.121,1.92s-5.279-1.08-7.68-0.119
			c-2.4,0.959-8.568,1.488-11.447,1.488c-2.881,0-10.873,0.311-13.752-0.289C18.147,39.683,18.868,39.564,15.868,38.603z"/>
		<path fill="#35A034" d="M25.995,37.21c0,0-2.951-2.734-3.815-4.463c-0.864-1.729-1.368-3.096-0.071-2.881
			c1.295,0.217,1.655,2.305,3.023,3.025c1.367,0.719,4.968,2.303,4.968,3.311C30.1,37.21,28.588,37.644,25.995,37.21z"/>
		<path fill="#35A034" d="M25.78,47.58c0.936-1.512,1.943-3.672,4.392-5.545c2.448-1.871,4.823-0.359,5.472,1.08
			s-1.943,2.52-3.168,2.52c-1.224,0-3.023-0.359-3.6,1.152c-0.577,1.511-1.44,2.52-2.088,2.449
			C26.14,49.164,24.844,49.091,25.78,47.58z"/>
		<path fill="#35A034" d="M42.34,36.564c0,0-2.017-0.217-3.168-0.072c-1.152,0.143-3.96-1.801-4.032-3.816
			c-0.072-2.015-0.288-6.191-0.288-6.191s1.44,3.814,2.736,4.391S42.772,33.97,42.34,36.564z"/>
		<path fill="#35A034" d="M39.46,50.603c0,0,0.648-3.6,2.232-5.688s1.512-3.744,2.375-4.609c0.864-0.863,3.889-0.936,5.185-0.936
			s2.808,1.225,2.376,1.945c-0.432,0.719-1.656,1.871-2.232,2.52s-3.744,1.08-5.256,2.232c-1.512,1.15-3.096,3.959-3.24,5.111
			C40.756,52.332,39.46,51.755,39.46,50.603z"/>
		<path fill="#35A034" d="M54.364,34.259c0,0-2.592,0.504-4.177-0.217c-1.584-0.719-1.655-2.592-2.448-5.111
			c-0.791-2.52-1.728-3.889-1.151-5.76c0.575-1.873,1.655-1.729,1.655-0.648s-0.359,2.953,1.297,3.889
			c1.656,0.936,3.6,3.744,4.392,5.471C54.724,33.611,54.364,34.259,54.364,34.259z"/>
		<path fill="#35A034" d="M64.444,29.58c0,0-4.752-0.289-6.912-1.441c-2.16-1.15-2.377-3.742-1.729-5.615
			c0.647-1.871,0.289-3.168,0.647-4.607c0.359-1.439,2.088-2.592,2.088-1.297c0,1.297-0.791,3.168-0.791,4.68
			c0,1.514,0.144,2.449,1.296,2.594c1.151,0.143,3.096,0.504,3.526,1.727c0.435,1.225,1.297,2.305,1.945,2.305
			C65.163,27.926,65.092,29.218,64.444,29.58z"/>
		<path fill="#35A034" d="M48.028,62.244c0,0-1.201-2.28,0.239-4.801c1.44-2.52,2.521-5.4,4.56-5.52c2.041-0.121,2.879-0.48,4.8-0.6
			c1.92-0.121,1.92,1.559,1.561,2.16c-0.359,0.6-1.92-0.121-2.041,0.959c-0.119,1.08-1.439,2.76-3.359,3.121
			c-1.92,0.359-3.12,0.359-3.601,2.039C49.708,61.283,49.108,63.683,48.028,62.244z"/>
		<path fill="#35A034" d="M73.948,74.603c0,0-1.68-0.359-1.438-5.881c0.239-5.521,3.239-8.521,5.399-9.238
			c2.158-0.721,6-0.841,7.078-1.321c0,0-0.84-1.08-2.397-1.08c-1.562,0-3.961-1.8-3.961-1.8l0.84-2.279c0,0,5.041,1.679,5.641,1.319
			c0.601-0.361,3.508,1.107,4.707,1.947c0,0-0.225-0.984-0.943-1.584c-0.721-0.6-2.442-2.645-4.243-5.043
			c-1.8-2.4-2.761-3.961-2.761-3.961l2.041-2.039c0,0,1.078,2.039,1.92,3.119c0.841,1.08,0.238-1.68-0.721-3.24
			c-0.961-1.561-3.359-5.279-3.359-6.959c0-1.682-0.36-4.201-1.2-5.16c-0.84-0.96-2.16-1.681-1.562-4.2
			c0.603-2.52,3.361-7.92,4.201-10.08s2.641-4.799,3.84-5.4c1.199-0.6,1.562,0.24,1.562,0.961c0,0.721-3.121,4.199-3.961,6
			c-0.841,1.801-1.32,3.24-1.08,4.561c0.239,1.321,1.08,3.839,0.84,5.638c-0.24,1.801-0.719,3.24-0.719,4.32s1.92,1.201,2.039,3.24
			c0.12,2.041,0.12,2.52,0.12,2.52s0.959,1.801,0.72,3.121c-0.24,1.32,1.2,2.879,1.2,2.879s-0.84-2.76,0.119-5.76
			c0.961-3,3.289-5.848,4.009-7.287c0.721-1.441,3.911-2.072,4.032-0.752c0.119,1.32-3.479,2.879-3.961,4.32
			c-0.479,1.439-0.961,2.16-0.358,4.08c0.6,1.92,0.84,3,0.239,4.318c-0.602,1.32-1.561,2.521-1.561,4.682
			c0,2.158,0.719,3.84,2.4,5.279c1.68,1.439,2.038,1.199,2.639,1.08c0.602-0.121,2.399-1.801,3.361-1.561
			c0.959,0.24,0.959,1.439,0.239,2.041c-0.721,0.6-0.602,0.959-0.121,1.68c0.48,0.719,0.48,2.879,0.24,3.959
			c-0.24,1.079-0.24,2.881-0.24,2.881s-1.438-0.961-2.52-1.562c-1.081-0.6-3.24-1.68-5.041-1.68c-1.799,0-3.6,0-4.68,0
			s-3.959,0.961-4.562,1.801c-0.6,0.84-2.639,4.2-4.438,4.319c-1.8,0.121-2.879,0.602-2.879,2.041c0,1.438,0,4.92,0,4.92
			L73.948,74.603z"/>
	</g>
	<g i:knockout="Off">
		<path fill="#D90000" d="M69.26,25.585c-2.479,1.01-3.426,3.215-3.779,4.51c-1.402-0.047-3.104,0.34-4.186,1.248
			c-0.828,0.695-1.222,1.611-1.162,2.65c-1.742,0.359-3.586,1.197-3.681,1.24l0.832,1.818c0.541-0.248,1.947-0.814,3.162-1.08
			c-1.729,0.734-4.354,2.148-4.463,4.031c-0.053,0.879,0.221,6.756,2.314,8.299c-0.244,1.578,0.02,2.932,0.801,4.027
			c1.057,1.482,2.771,2.055,3.76,2.268c0.072,0.494,0.17,1.012,0.318,1.607c0.646,2.588,2.067,4.553,3.805,5.256
			c0.898,0.364,2.338,0.573,4.076-0.507c2.688-1.67,3.912-5.059,4.369-6.74c0.83,0.1,1.998,0.094,2.994-0.482
			c0.812-0.471,1.362-1.248,1.596-2.248c0.486-2.112,0.35-3.712,0.197-4.575c1.312-1.104,2.021-2.303,2.157-3.646
			c0.158-1.555-0.475-3.166-1.914-4.908c0.035-0.078,0.074-0.154,0.099-0.234c0.307-0.982,0.662-2.884-0.398-4.596
			c-0.742-1.194-2.012-2.015-3.771-2.444c-0.06-1.248-0.562-2.52-1.506-3.621C73.299,25.613,71.042,24.861,69.26,25.585z
			 M66.131,32.181c0.239,0.064,0.403,0.201,0.53,0.443c0.334,0.631,0.298,1.789-0.08,2.896c-0.252,0.238-1.166,0.684-1.729,0.957
			c-0.43,0.211-0.826,0.404-1.182,0.598c-0.562-0.602-1.429-1.732-1.552-3.148c-0.037-0.43,0.105-0.754,0.459-1.053
			C63.487,32.115,65.288,31.957,66.131,32.181z M73.567,41.458c-0.041,0.367-0.826,2.432-1.555,4.139
			c-0.127,0.162-0.965,1.223-1.322,1.676c-1.051,0.096-2.18,0.164-3.037,0.164c-0.619,0-1.094-0.033-1.285-0.104
			c-0.315-0.229-1.309-1.852-2.125-3.504c-0.016-0.363-0.182-4.174-0.203-4.625c0.314-0.252,1.15-0.664,1.689-0.928
			c1.115-0.541,1.875-0.945,2.324-1.418c0.252-0.027,0.59-0.053,0.983-0.053c0.382,0,0.798,0.025,1.181,0.104
			c0.629,0.129,1.198,0.504,1.444,0.684C72.543,39.138,73.497,41.011,73.567,41.458z M59.401,46.677
			c0.012,0.002,0.029-0.004,0.041-0.004c-0.758-0.488-1.58-4.551-1.461-6.553c0.033-0.568,1.697-1.676,3.59-2.443
			c0.207,0.279,0.404,0.508,0.59,0.709c-0.078,0.172-0.131,0.354-0.131,0.557l0.232,5.408l0.09,0.178
			c0.063,0.133,0.141,0.283,0.215,0.432c-1.02,0.828-2.406,1.727-3.125,1.713c0.01,0.006,0.019,0.016,0.025,0.02
			C59.461,46.691,59.436,46.679,59.401,46.677z M60.723,51.162c-0.469-0.662-0.598-1.547-0.426-2.611
			c1.166-0.311,2.396-1.139,3.239-1.799c0.388,0.652,0.8,1.271,1.201,1.729c-1.117,1.648-1.711,2.838-1.897,4.045
			C62.159,52.326,61.27,51.935,60.723,51.162z M63.78,52.726h0.004H63.78z M70.004,59.255c-0.834,0.518-1.578,0.633-2.271,0.352
			c-1.109-0.449-2.137-1.975-2.613-3.887c-0.646-2.586-0.614-3.404,1.42-6.344c1.187,0.129,2.894,0.027,4.188-0.09l2.877,3.986
			C73.327,54.425,72.34,57.806,70.004,59.255z M78.069,51.035c-0.106,0.465-0.313,0.771-0.647,0.967
			c-0.775,0.447-2.064,0.211-2.455,0.092l-2.527-3.807l0.824-1.043c1.121,0.566,3.162,1.342,5.072,0.76
			C78.385,48.734,78.36,49.771,78.069,51.035z M80.383,43.061c-0.095,0.932-0.726,1.812-1.931,2.687
			c-1.303,0.947-3.205,0.244-4.227-0.26c0.498-1.205,1.043-2.631,1.248-3.518c0.912-0.371,2.498-1.094,3.678-2.047
			C80.057,41.097,80.477,42.151,80.383,43.061z M78.459,34.58c0.666,1.074,0.354,2.416,0.188,2.945
			c-0.207,0.662-1.844,1.684-3.52,2.418c-0.382-0.889-0.957-1.977-1.521-2.975l2.121-3.182c0.139-0.23,0.252-0.469,0.348-0.711
			C77.215,33.382,78.024,33.88,78.459,34.58z M73.364,28.759c0.867,1.014,1.502,2.584,0.679,3.957
			c0.018-0.027-1.16,1.738-1.886,2.826c-0.418-0.232-0.944-0.471-1.539-0.592c-0.528-0.107-1.086-0.145-1.586-0.145
			c-0.076,0-0.147,0.002-0.221,0.004c0.18-1.184,0.059-2.291-0.379-3.119c-0.248-0.471-0.601-0.832-1.019-1.094
			c0.248-0.91,0.906-2.469,2.601-3.158C70.981,27.044,72.358,27.587,73.364,28.759z"/>
		<g i:knockout="Off">
			<circle fill="#D90000" cx="68.043" cy="44.891" r="1.683"/>
			<circle fill="#D90000" cx="70.836" cy="42.512" r="1.683"/>
			<circle fill="#D90000" cx="66.122" cy="41.602" r="1.683"/>
			<circle fill="#D90000" cx="68.893" cy="39.163" r="1.683"/>
		</g>
	</g>
	<g i:knockout="Off">
		<path fill="#D90000" d="M34.797,59.816c0.859,0,1.432-0.477,1.719-1.432c0.096-0.668,0.381-1.002,0.858-1.002
			c0.669-0.096,1.003,0.477,1.003,1.719v6.729c0,1.242-0.334,1.814-1.003,1.72c-0.478,0-0.763-0.334-0.858-1.002
			c-0.287-0.859-0.859-1.289-1.719-1.289H31.36v9.164c0.096,1.432-0.334,2.101-1.289,2.005c-6.587-1.622-12.791-5.489-18.614-11.6
			c-0.668-0.668-0.955-1.526-0.859-2.576c-0.096-1.719,0.812-2.529,2.721-2.436h15.465v-2.863c0-1.146,0.43-1.719,1.288-1.719
			c0.955,0,1.385,0.525,1.289,1.576v3.006H34.797z M15.037,65.257c4.773,3.914,9.355,6.635,13.746,8.162v-8.162H15.037z"/>
	</g>
</g>
</svg>
