<?xml version="1.0" encoding="utf-8"?>
<!-- Generator: Adobe Illustrator 12.0.0, SVG Export Plug-In . SVG Version: 6.00 Build 51448)  -->
<!DOCTYPE svg PUBLIC "-//W3C//DTD SVG 1.1//EN" "http://www.w3.org/Graphics/SVG/1.1/DTD/svg11.dtd" [
	<!ENTITY ns_flows "http://ns.adobe.com/Flows/1.0/">
	<!ENTITY ns_extend "http://ns.adobe.com/Extensibility/1.0/">
	<!ENTITY ns_ai "http://ns.adobe.com/AdobeIllustrator/10.0/">
	<!ENTITY ns_graphs "http://ns.adobe.com/Graphs/1.0/">
	<!ENTITY ns_vars "http://ns.adobe.com/Variables/1.0/">
	<!ENTITY ns_imrep "http://ns.adobe.com/ImageReplacement/1.0/">
	<!ENTITY ns_sfw "http://ns.adobe.com/SaveForWeb/1.0/">
	<!ENTITY ns_custom "http://ns.adobe.com/GenericCustomNamespace/1.0/">
	<!ENTITY ns_adobe_xpath "http://ns.adobe.com/XPath/1.0/">
	<!ENTITY ns_svg "http://www.w3.org/2000/svg">
	<!ENTITY ns_xlink "http://www.w3.org/1999/xlink">
]>
<svg  version="1.1"
	 xmlns:x="&ns_extend;" xmlns:i="&ns_ai;" xmlns:graph="&ns_graphs;" i:viewOrigin="-0.3208 113.645" i:rulerOrigin="0 0" i:pageBounds="0 113 108 0"
	 xmlns="&ns_svg;" xmlns:xlink="&ns_xlink;" xmlns:a="http://ns.adobe.com/AdobeSVGViewerExtensions/3.0/"
	 width="109.1" height="113.832" viewBox="0 0 109.1 113.832" overflow="visible" enable-background="new 0 0 109.1 113.832"
	 xml:space="preserve">
<metadata>
	<variableSets  xmlns="&ns_vars;">
		<variableSet  varSetName="binding1" locked="none">
			<variables></variables>
			<v:sampleDataSets  xmlns="&ns_custom;" xmlns:v="&ns_vars;"></v:sampleDataSets>
		</variableSet>
	</variableSets>
</metadata>
<g id="图层_1" i:layer="yes" i:dimmedPercent="50" i:rgbTrio="#4F008000FFFF">
	<g>
		
			<linearGradient id="XMLID_3_" gradientUnits="userSpaceOnUse" x1="935.4341" y1="81.0015" x2="1020.2271" y2="81.0015" gradientTransform="matrix(0 -1 1 0 -26.8223 1049.0791)">
			<stop  offset="0.1348" style="stop-color:#1889BC"/>
			<stop  offset="0.2247" style="stop-color:#C4E9F2"/>
			<a:midPointStop  offset="0.1348" style="stop-color:#1889BC"/>
			<a:midPointStop  offset="0.5" style="stop-color:#1889BC"/>
			<a:midPointStop  offset="0.2247" style="stop-color:#C4E9F2"/>
		</linearGradient>
		<path i:knockout="Off" fill="url(#XMLID_3_)" stroke="#000000" stroke-width="0.3739" d="M100.036,28.852
			c4.418,0,8.002,3.42,8.002,7.638v69.518c0,4.218-3.584,7.638-8.002,7.638H8.321c-4.418,0-8-3.42-8-7.638V36.49
			c0-4.218,3.582-7.638,8-7.638H100.036z"/>
		<path i:knockout="Off" fill="#FFFFFF" stroke="#000000" stroke-width="0.6414" d="M8.376,85.36c-4.448,0-8.056-3.43-8.056-7.66
			V7.98c0-4.23,3.607-7.659,8.056-7.659h92.347c4.449,0,8.055,3.429,8.055,7.659V77.7c0,4.23-3.605,7.66-8.055,7.66H8.376z"/>
		
			<linearGradient id="XMLID_4_" gradientUnits="userSpaceOnUse" x1="-229.9092" y1="-254.2622" x2="-144.8701" y2="-254.2622" gradientTransform="matrix(0 1 -1 0 -199.7119 230.23)">
			<stop  offset="0" style="stop-color:#A3DDEA"/>
			<stop  offset="0.0899" style="stop-color:#0678B3"/>
			<stop  offset="0.2135" style="stop-color:#094C91"/>
			<stop  offset="0.6404" style="stop-color:#2890C0"/>
			<stop  offset="0.8034" style="stop-color:#82D0E3"/>
			<stop  offset="1" style="stop-color:#09468C"/>
			<a:midPointStop  offset="0" style="stop-color:#A3DDEA"/>
			<a:midPointStop  offset="0.5" style="stop-color:#A3DDEA"/>
			<a:midPointStop  offset="0.0899" style="stop-color:#0678B3"/>
			<a:midPointStop  offset="0.5" style="stop-color:#0678B3"/>
			<a:midPointStop  offset="0.2135" style="stop-color:#094C91"/>
			<a:midPointStop  offset="0.5" style="stop-color:#094C91"/>
			<a:midPointStop  offset="0.6404" style="stop-color:#2890C0"/>
			<a:midPointStop  offset="0.5" style="stop-color:#2890C0"/>
			<a:midPointStop  offset="0.8034" style="stop-color:#82D0E3"/>
			<a:midPointStop  offset="0.5" style="stop-color:#82D0E3"/>
			<a:midPointStop  offset="1" style="stop-color:#09468C"/>
		</linearGradient>
		<path i:knockout="Off" opacity="0.1" fill="url(#XMLID_4_)" stroke="#000000" stroke-width="0.6414" d="M8.376,85.36
			c-4.448,0-8.056-3.43-8.056-7.66V7.98c0-4.23,3.607-7.659,8.056-7.659h92.349c4.447,0,8.055,3.429,8.055,7.659V77.7
			c0,4.23-3.607,7.66-8.055,7.66H8.376z"/>
		<g>
			<path i:knockout="Off" fill="#333333" d="M28.299,67.48c-0.551-0.689-0.828-1.861-0.828-3.516
				c0.139-2.619-0.068-5.375-0.619-8.271c-0.828-5.375-0.965-15.922-0.414-31.639c0-1.24,0-2.205,0-2.895
				c0.139-1.791,0.965-2.273,2.48-1.447c2.758,1.24,4.48,2.758,5.17,4.549c0.553,1.793,0.207,4.412-1.033,7.859
				c-1.654,3.998-2.619,8.684-2.895,14.061c-0.139,3.584,0.068,6.824,0.619,9.719c0.553,3.033,1.654,6.824,3.309,11.373
				c0.414,1.242,0.346,2.137-0.207,2.689c-0.551,0.414-1.377,0.344-2.48-0.207C29.747,68.927,28.713,68.169,28.299,67.48z
				 M12.79,28.812c0.689,0.137,1.104,0.758,1.24,1.859c0.139,1.379,0.277,4.758,0.414,10.133c0.139,2.619,0.207,4.551,0.207,5.791
				c-0.137,5.789,0.207,10.408,1.033,13.854c0.139,1.242,0.002,2.207-0.412,2.896c-0.414,0.551-1.035,0.482-1.861-0.207
				c-1.24-0.965-2-1.793-2.275-2.482s-0.344-1.723-0.207-3.102c0.414-3.17,0.414-7.168,0-11.994
				c-0.275-3.309-0.412-5.928-0.412-7.857c-0.139-1.93-0.07-4.48,0.205-7.65C10.999,29.087,11.688,28.673,12.79,28.812z"/>
		</g>
		<path i:knockout="Off" fill="#D90000" d="M43.684,43.589c0-0.791,0.08-1.502,0.236-2.133c0-0.633,0.238-1.264,0.711-1.896
			c0.158-0.789,0.475-1.262,0.949-1.42c0.158-0.316,0.473-0.553,0.947-0.711c0.158-0.158,0.395-0.238,0.711-0.238l0.711,0.238
			c0.316,0.158,0.711,0.395,1.184,0.711c0.475,0.158,0.949,0.395,1.422,0.711c0.316,0.158,0.711,0.236,1.186,0.236l-0.238-0.947
			c-0.314-0.633-0.395-0.791-0.236-0.475c-0.158-0.316-0.236-0.711-0.236-1.186c-0.316-0.473-0.475-0.947-0.475-1.42
			c-0.158-0.475-0.236-0.869-0.236-1.186s0.078-0.631,0.236-0.947c0-0.158,0.158-0.395,0.475-0.711
			c0.158-0.316,0.316-0.553,0.473-0.711l0.238-0.236c0.316-0.633,0.789-1.186,1.422-1.66h0.473v0.475
			c0,0.158,0.08,0.869,0.237,2.133c0,1.105,0.158,2.053,0.473,2.844c0,0.789,0.158,1.658,0.475,2.605c0,0.316,0,0.711,0,1.186
			c0.158,0.631,0.236,1.184,0.236,1.658l0.474,0.473c0.158,0.316,0.631,0.711,1.422,1.186c0.158,0.158,0.395,0.395,0.711,0.711
			c0.473,0.316,0.789,0.553,0.947,0.711c0.475,0.473,1.027,0.869,1.658,1.184v-0.236v-0.475c-0.158-0.314-0.236-0.631-0.236-0.947
			c-0.316-0.789-0.475-1.816-0.475-3.08c-0.158-1.264-0.236-2.211-0.236-2.844c0-0.631,0.078-1.184,0.236-1.658
			c0-0.158,0.158-0.553,0.475-1.184c0.158-0.158,0.316-0.316,0.473-0.475c0.475-0.789,0.949-1.264,1.422-1.422
			c0.475-0.316,0.949-0.553,1.422-0.711c0.316-0.158,0.711-0.236,1.186-0.236l0.947,0.711c0.475,0.473,1.186,0.947,2.133,1.422
			c0.631,0.473,1.422,0.947,2.369,1.422c0.631,0.473,1.342,0.867,2.133,1.184c0.631,0.316,1.58,1.105,2.844,2.369v0.475
			l-1.422,1.422l0.236,0.473c0,0.316,0.158,0.633,0.475,0.949c0,0.158,0.078,0.395,0.236,0.711c0.158,0.314,0.236,0.553,0.236,0.709
			c0,0.633,0.158,1.027,0.475,1.186c0,0.158,0.475,0.316,1.422,0.475c0.789,0,1.5,0.078,2.133,0.236L78.512,44.3
			c-0.314-0.633-0.553-1.738-0.711-3.318c-0.473-1.578-0.711-3.08-0.711-4.502c-0.156-1.42-0.236-2.684-0.236-3.791
			c0-0.473-0.078-1.105-0.236-1.895v-0.236c-0.158-0.316-0.238-0.711-0.238-1.186c0-0.473,0.08-0.947,0.238-1.422
			c0-0.158,0.158-0.553,0.473-1.184c0.158-0.158,0.316-0.316,0.475-0.475c0.475-0.789,0.947-1.264,1.422-1.422
			c0.158-0.158,0.316-0.316,0.473-0.475c0.316,0,0.555-0.078,0.711-0.236c0.158-0.158,0.475-0.236,0.949-0.236l0.236,0.236
			c0,0.158,0.395,0.395,1.186,0.711c0.473,0.316,1.342,0.633,2.605,0.947c0.316,0,0.789,0.158,1.422,0.475
			c0.789,0.316,1.342,0.475,1.658,0.475c0.947,0.314,1.896,0.711,2.844,1.184c0.789,0.475,1.5,0.949,2.133,1.422
			c0.156,0.158,0.395,0.316,0.711,0.475c0.314,0.158,0.867,0.553,1.658,1.184c0.314,0.316,0.711,0.633,1.184,0.947
			c0.316,0.316,0.553,0.555,0.711,0.711c0.158,0.158,0.395,0.396,0.711,0.711l0.238,0.475c0.156,0.158,0.236,0.633,0.236,1.422
			l-0.947,0.711c-0.316,0.158-0.633,0.395-0.949,0.711s-0.631,0.553-0.947,0.711s-0.633,0.395-0.947,0.711
			c-0.316,0.314-0.633,0.553-0.947,0.711c-0.633,0.473-1.186,1.025-1.66,1.658v-0.711c0-0.475,0-1.264,0-2.369
			c0.158-1.105,0.238-1.896,0.238-2.369c0-0.475-0.08-0.869-0.238-1.186v-0.236c-0.156-0.316-0.314-0.553-0.473-0.711
			c-0.475-0.316-0.553-0.395-0.238-0.238c-0.314-0.156-0.947-0.395-1.895-0.711c-0.158,0-0.553-0.078-1.186-0.236
			c-0.947-0.314-1.736-0.553-2.369-0.711c-1.422-0.314-2.605-0.553-3.553-0.711c-0.949-0.158-1.738-0.236-2.371-0.236l-0.473,0.475
			v2.131c0,1.422,0.078,2.766,0.236,4.029c0,0.789,0.238,2.053,0.711,3.791l0.475-0.475c0.316-0.316,0.711-0.789,1.184-1.422
			c0.475-0.631,1.027-1.184,1.658-1.658c0.316-0.316,0.711-0.553,1.186-0.711c-0.316,0-0.158-0.078,0.475-0.236
			c0.473-0.158,0.947-0.238,1.42-0.238c0.316,0,0.713,0.08,1.186,0.238l0.236,0.236c0.316,0.158,0.553,0.316,0.711,0.475v0.236
			c0,0.158-0.078,0.236-0.236,0.236c0,0.158,0,0.316,0,0.475l-0.236,0.236c-0.316,0.316-0.791,0.711-1.422,1.186l0.236,1.422
			c0,0.947,0.158,1.895,0.475,2.842c0,0.949,0.314,2.055,0.947,3.318c0.475,1.264,0.947,2.369,1.422,3.316
			c0.158,0.316,0.316,0.633,0.473,0.947c0.158,0.316,0.316,0.633,0.475,0.949v0.236c0.158,0.158,0.236,0.316,0.236,0.475v0.236
			c-0.156,0.316-0.236,0.553-0.236,0.711c-0.316,0.475-0.553,0.869-0.711,1.186c-0.158,0.158-0.395,0.236-0.711,0.236
			c-0.158,0.158-0.314,0.316-0.473,0.475c-0.475,0.158-0.869,0.236-1.186,0.236l-0.475-0.475l0.238-0.711
			c0-0.156,0.078-0.395,0.236-0.711v-0.236c0-0.158-0.078-0.314-0.236-0.473c-0.158-0.316-0.238-0.555-0.238-0.713
			c-0.473-0.631-0.789-1.184-0.947-1.658c-0.473-0.473-0.711-0.789-0.711-0.947c-0.158-0.158-0.314-0.236-0.473-0.236l-0.238-0.238
			c-0.158-0.158-1.105-0.236-2.842-0.236l0.236,0.711c0,0.475,0.236,1.105,0.711,1.895c0.158,0.316,0.316,0.791,0.473,1.424
			c0.316,0.631,0.555,1.105,0.711,1.42c0.158,0.158,0.316,0.475,0.475,0.949c0.316,1.105,0.711,2.133,1.186,3.08l1.42-0.475
			c0.949-0.316,1.896-0.553,2.844-0.711c0.475-0.158,1.58-0.236,3.318-0.236l0.473,0.473h0.947l-0.947,0.711
			c-0.158,0.158-0.395,0.396-0.711,0.711c-0.473,0.158-0.789,0.316-0.947,0.475c-0.316,0.158-0.553,0.395-0.711,0.711
			c-0.473,0.158-0.869,0.236-1.186,0.236c-0.473,0-0.947,0.08-1.42,0.238c-0.158,0-0.316,0.078-0.475,0.236
			c-0.475,0.158-0.869,0.316-1.186,0.473v0.238c0,0.158,0.08,0.395,0.238,0.711c0,0.158,0.236,0.473,0.711,0.947v0.236
			c0,0.158-0.08,0.238-0.238,0.238c0,0.158,0,0.314,0,0.473l-0.236,0.238c-0.316,0.314-0.789,0.711-1.422,1.184h-0.947l-0.475-0.475
			l0.475-0.473v-0.475V63.73c-0.158-0.316-0.236-0.553-0.236-0.711c-0.158-0.158-0.316-0.395-0.475-0.711
			c0-0.158-0.078-0.316-0.236-0.475h-0.949c-0.789,0-1.262-0.078-1.42-0.236c-0.475-0.158-0.791-0.475-0.949-0.947
			c-0.158-0.158-0.473-0.633-0.947-1.422c0-0.316-0.078-0.553-0.236-0.711c-0.475-0.947-0.947-1.816-1.422-2.607
			c-0.475-0.631-1.027-1.5-1.658-2.605l-0.238,0.473c-0.314,0.158-0.473,0.396-0.473,0.711c-0.158,0.158-0.475,0.396-0.949,0.711
			c-0.156,0-0.314,0.08-0.473,0.238s-0.633,0.395-1.422,0.711c-0.316,0-0.789,0.158-1.422,0.473
			c-0.631,0.316-1.105,0.475-1.422,0.475c-0.631,0.158-1.342,0.395-2.133,0.711l-0.236,0.236c-0.473,0.158-0.947,0.395-1.422,0.711
			c-0.473,0.158-0.867,0.236-1.184,0.236c-0.475,0-0.791-0.078-0.949-0.236l-0.236-0.236c-0.316,0-0.553-0.158-0.711-0.475v-0.475
			l0.947-0.947l-0.236-0.236c-0.158-0.158-0.473-0.553-0.947-1.186c0-0.156-0.078-0.314-0.236-0.473
			c-0.633-0.633-1.105-1.422-1.422-2.371H61.69l-0.711,0.475c-0.473,0.158-1.342,0.475-2.605,0.947v0.238
			c0,0.158,0.236,0.631,0.711,1.422c0.158,0.316,0.314,0.631,0.473,0.947c0.316,0.475,0.553,0.869,0.711,1.184
			c0.158,0.475,0.475,0.949,0.947,1.422v0.238c0,0.158-0.078,0.236-0.236,0.236c0,0.158,0,0.316,0,0.475l-0.236,0.473
			c-0.316,0.316-0.553,0.553-0.711,0.711c-0.475,0.475-0.947,0.791-1.422,0.947c-0.475,0.158-1.027,0.238-1.658,0.238l-0.475-0.475
			l0.236-0.947c0-0.316,0.08-0.711,0.238-1.186v-0.236V58.99c-0.158-0.473-0.238-0.867-0.238-1.184
			c-0.314-0.791-0.473-1.422-0.473-1.896c-0.316-0.473-0.553-1.025-0.711-1.658h-1.657c-1.106,0-1.896,0.08-2.37,0.236
			c-0.473,0.158-0.947,0.396-1.422,0.711c-0.473,0.158-1.025,0.633-1.658,1.422H47.95v-0.947c0-0.633,0.078-1.186,0.236-1.658
			c0-0.475,0.158-0.869,0.475-1.186c0-0.316,0.314-0.711,0.947-1.186c0.475-0.473,1.027-0.867,1.658-1.184
			c0.316-0.158,1.264-0.475,2.843-0.947v-0.238v-0.236c-0.158-0.316-0.236-0.631-0.236-0.947c-0.315-0.633-0.474-1.422-0.474-2.369
			c-0.158-0.316-0.236-0.711-0.236-1.186l-0.238-0.475c-0.158-0.156-0.314-0.236-0.473-0.236c-0.158-0.158-0.316-0.236-0.475-0.236
			c-0.475-0.316-1.184-0.553-2.133-0.711c-0.314,0-0.631-0.078-0.947-0.236s-0.631-0.238-0.947-0.238
			c-0.475,0-0.791,0.08-0.949,0.238c-0.156,0.158-0.395,0.236-0.711,0.236c-0.156,0.158-0.314,0.316-0.473,0.473
			c-0.475,0.158-1.027,0.633-1.658,1.422h-0.475V43.589z M76.379,48.564v0.238c0,0.158,0.238,0.631,0.711,1.422
			c0.158,0.158,0.396,0.631,0.711,1.42c0.316,0.633,0.633,1.186,0.949,1.66c0.158,0.475,0.395,1.027,0.709,1.658
			c0.475,0.791,0.791,1.422,0.949,1.896c0.158,0.631,0.236,0.789,0.236,0.473c0.316,0.949,0.475,1.502,0.475,1.658l0.473,0.711
			c0.158,0.316,0.475,0.711,0.949,1.186h0.473l0.947-0.947v-0.238c0-0.158-0.078-0.395-0.236-0.711
			c-0.158-0.314-0.236-0.553-0.236-0.711c-0.316-0.314-0.553-0.947-0.711-1.895c0,0.475-0.078,0.316-0.236-0.475
			c-0.158-0.314-0.396-0.947-0.711-1.895c-0.158-0.316-0.316-0.633-0.475-0.947c-0.158-0.316-0.316-0.713-0.475-1.186
			c-0.473-1.105-0.867-2.055-1.184-2.844L76.379,48.564z M63.823,51.171c0,0.473,0.158,0.947,0.473,1.422c0,0.158,0,0.395,0,0.711
			c0.158,0.316,0.238,0.553,0.238,0.711c-0.158,0.473,0,1.025,0.473,1.658l0.475,0.236c0.158,0.158,0.395,0.238,0.711,0.238
			l0.947-0.238c0.158-0.158,0.316-0.236,0.475-0.236c0.316,0,0.553-0.078,0.711-0.236s0.395-0.238,0.711-0.238
			c0.316-0.156,0.553-0.236,0.711-0.236c0.473-0.158,1.105-0.236,1.895-0.236c0.791,0,1.738-0.158,2.844-0.475v-0.236
			c0-0.158-0.078-0.316-0.236-0.475v-0.236c-0.316-0.316-0.475-0.633-0.475-0.949c-0.158,0-0.316-0.156-0.475-0.473
			c0-0.316-0.078-0.475-0.236-0.475s-0.395-0.158-0.711-0.475c-0.158-0.314-0.316-0.473-0.475-0.473
			c-0.473-0.316-1.025-0.791-1.658-1.422v1.186c0,0.314-0.078,0.631-0.236,0.947c0,0.473,0,0.869,0,1.184
			c-0.316,0.949-0.553,1.738-0.711,2.371h-0.475l-0.473-0.711c-0.475-0.475-0.789-1.105-0.947-1.896
			c-0.475-0.789-0.711-1.422-0.711-1.895c-0.316-0.475-0.553-1.027-0.711-1.66h-0.475l-0.475,0.475
			c-0.156,0.158-0.395,0.395-0.711,0.711c-0.314,0.316-0.551,0.553-0.709,0.711L63.823,51.171z M54.109,44.773v0.475
			c0,0.158,0.08,0.633,0.236,1.422c0,0.631,0.158,1.186,0.475,1.658c0,0.475,0.158,0.789,0.474,0.947
			c0,0.158,0.078,0.238,0.236,0.238c-0.158,0,0,0.078,0.475,0.236c0.158,0.158,0.314,0.236,0.473,0.236
			c0.316,0.158,0.553,0.238,0.711,0.238c0.475,0.158,0.947,0.395,1.422,0.709c0.475,0.158,1.027,0.396,1.658,0.711
			c0.316,0.158,0.949,0.238,1.896,0.238l-0.475-1.186c-0.473-0.789-0.711-1.422-0.711-1.895c-0.316-0.475-0.553-0.869-0.711-1.186
			c-0.473-0.316-0.947-0.711-1.422-1.184c-0.789-0.475-1.422-0.869-1.895-1.186c-0.316-0.158-0.711-0.316-1.186-0.475
			c-0.472-0.156-0.866-0.314-1.183-0.473L54.109,44.773z M61.69,37.666v0.711c0,0.475,0.08,1.105,0.236,1.895
			c0,0.791,0.158,1.58,0.475,2.371c0,0.473,0.158,1.264,0.475,2.369c0-0.158,0.078,0.078,0.236,0.711l0.236-0.475
			c0-0.316,0.158-0.553,0.475-0.711c0-0.158,0.158-0.316,0.473-0.475c0.316,0,0.555-0.078,0.711-0.236v-0.947l0.475-0.711
			c0.158-0.475,0.475-0.869,0.947-1.186h0.949l0.236,0.238c0,0.158,0.158,0.395,0.473,0.711c0,0.314,0.158,0.711,0.475,1.184
			c0,0.475,0.158,0.791,0.475,0.947c0,0.158,0.395,0.316,1.184,0.475c0.475,0,0.949,0.08,1.422,0.236v-2.369l0.475-0.473
			c0.158-0.158,0.316-0.395,0.473-0.711c0.158-0.316,0.316-0.553,0.475-0.711h-1.186c-0.947,0-1.5-0.08-1.658-0.238
			c-0.473-0.314-0.947-0.553-1.422-0.711c-0.789-0.314-1.658-0.709-2.605-1.184c-0.475-0.158-1.027-0.316-1.658-0.475
			c-0.475-0.314-0.789-0.473-0.947-0.473c-0.791-0.158-1.264-0.238-1.422-0.238L61.69,37.666z M80.881,43.115
			c0,0.633,0.238,1.344,0.711,2.133l3.791,0.475L85.147,44.3c-0.158-0.633-0.236-1.896-0.236-3.791h-0.238
			c-0.314,0-0.711,0.158-1.184,0.473c-0.633,0.158-1.58,0.475-2.844,0.949L80.881,43.115z"/>
	</g>
</g>
</svg>
