<?xml version="1.0" encoding="utf-8"?>
<!-- Generator: Adobe Illustrator 12.0.0, SVG Export Plug-In . SVG Version: 6.00 Build 51448)  -->
<!DOCTYPE svg PUBLIC "-//W3C//DTD SVG 1.1//EN" "http://www.w3.org/Graphics/SVG/1.1/DTD/svg11.dtd" [
	<!ENTITY ns_flows "http://ns.adobe.com/Flows/1.0/">
	<!ENTITY ns_extend "http://ns.adobe.com/Extensibility/1.0/">
	<!ENTITY ns_ai "http://ns.adobe.com/AdobeIllustrator/10.0/">
	<!ENTITY ns_graphs "http://ns.adobe.com/Graphs/1.0/">
	<!ENTITY ns_vars "http://ns.adobe.com/Variables/1.0/">
	<!ENTITY ns_imrep "http://ns.adobe.com/ImageReplacement/1.0/">
	<!ENTITY ns_sfw "http://ns.adobe.com/SaveForWeb/1.0/">
	<!ENTITY ns_custom "http://ns.adobe.com/GenericCustomNamespace/1.0/">
	<!ENTITY ns_adobe_xpath "http://ns.adobe.com/XPath/1.0/">
	<!ENTITY ns_svg "http://www.w3.org/2000/svg">
	<!ENTITY ns_xlink "http://www.w3.org/1999/xlink">
]>
<svg  version="1.1"
	 xmlns:x="&ns_extend;" xmlns:i="&ns_ai;" xmlns:graph="&ns_graphs;" i:viewOrigin="-0.3208 113.645" i:rulerOrigin="0 0" i:pageBounds="0 113 108 0"
	 xmlns="&ns_svg;" xmlns:xlink="&ns_xlink;" xmlns:a="http://ns.adobe.com/AdobeSVGViewerExtensions/3.0/"
	 width="109.1" height="113.832" viewBox="0 0 109.1 113.832" overflow="visible" enable-background="new 0 0 109.1 113.832"
	 xml:space="preserve">
<metadata>
	<variableSets  xmlns="&ns_vars;">
		<variableSet  varSetName="binding1" locked="none">
			<variables></variables>
			<v:sampleDataSets  xmlns="&ns_custom;" xmlns:v="&ns_vars;"></v:sampleDataSets>
		</variableSet>
	</variableSets>
</metadata>
<g id="图层_1" i:layer="yes" i:dimmedPercent="50" i:rgbTrio="#4F008000FFFF">
	<g>
		
			<linearGradient id="XMLID_3_" gradientUnits="userSpaceOnUse" x1="935.4341" y1="81.0015" x2="1020.2271" y2="81.0015" gradientTransform="matrix(0 -1 1 0 -26.8223 1049.0791)">
			<stop  offset="0.1348" style="stop-color:#1889BC"/>
			<stop  offset="0.2247" style="stop-color:#C4E9F2"/>
			<a:midPointStop  offset="0.1348" style="stop-color:#1889BC"/>
			<a:midPointStop  offset="0.5" style="stop-color:#1889BC"/>
			<a:midPointStop  offset="0.2247" style="stop-color:#C4E9F2"/>
		</linearGradient>
		<path i:knockout="Off" fill="url(#XMLID_3_)" stroke="#000000" stroke-width="0.3739" d="M100.037,28.852
			c4.418,0,8.001,3.42,8.001,7.638v69.518c0,4.218-3.583,7.638-8.001,7.638H8.321c-4.418,0-8-3.42-8-7.638V36.49
			c0-4.218,3.582-7.638,8-7.638H100.037z"/>
		<path i:knockout="Off" fill="#FFFFFF" stroke="#000000" stroke-width="0.6414" d="M8.377,85.36c-4.449,0-8.057-3.43-8.057-7.66
			V7.98c0-4.23,3.607-7.659,8.057-7.659h92.348c4.447,0,8.055,3.429,8.055,7.659V77.7c0,4.23-3.607,7.66-8.055,7.66H8.377z"/>
		
			<linearGradient id="XMLID_4_" gradientUnits="userSpaceOnUse" x1="-229.9092" y1="-254.2622" x2="-144.8701" y2="-254.2622" gradientTransform="matrix(0 1 -1 0 -199.7119 230.23)">
			<stop  offset="0" style="stop-color:#A3DDEA"/>
			<stop  offset="0.0899" style="stop-color:#0678B3"/>
			<stop  offset="0.2135" style="stop-color:#094C91"/>
			<stop  offset="0.6404" style="stop-color:#2890C0"/>
			<stop  offset="0.8034" style="stop-color:#82D0E3"/>
			<stop  offset="1" style="stop-color:#09468C"/>
			<a:midPointStop  offset="0" style="stop-color:#A3DDEA"/>
			<a:midPointStop  offset="0.5" style="stop-color:#A3DDEA"/>
			<a:midPointStop  offset="0.0899" style="stop-color:#0678B3"/>
			<a:midPointStop  offset="0.5" style="stop-color:#0678B3"/>
			<a:midPointStop  offset="0.2135" style="stop-color:#094C91"/>
			<a:midPointStop  offset="0.5" style="stop-color:#094C91"/>
			<a:midPointStop  offset="0.6404" style="stop-color:#2890C0"/>
			<a:midPointStop  offset="0.5" style="stop-color:#2890C0"/>
			<a:midPointStop  offset="0.8034" style="stop-color:#82D0E3"/>
			<a:midPointStop  offset="0.5" style="stop-color:#82D0E3"/>
			<a:midPointStop  offset="1" style="stop-color:#09468C"/>
		</linearGradient>
		<path i:knockout="Off" opacity="0.1" fill="url(#XMLID_4_)" stroke="#000000" stroke-width="0.6414" d="M8.377,85.36
			c-4.449,0-8.057-3.43-8.057-7.66V7.98c0-4.23,3.607-7.659,8.057-7.659h92.348c4.448,0,8.055,3.429,8.055,7.659V77.7
			c0,4.23-3.606,7.66-8.055,7.66H8.377z"/>
		<g>
			<path i:knockout="Off" fill="#333333" d="M9.552,57.577c1.104-2.895,1.518-5.998,1.242-9.307c-0.275-5.652-0.275-10.891,0-15.715
				c0.137-2.619,0.137-4.344,0-5.17c0-0.965-0.139-1.861-0.414-2.688c-0.828-3.584,0.758-5.377,4.756-5.377
				c5.516,0.965,11.236,1.447,17.164,1.447c2.205,0.139,3.791,1.033,4.756,2.688c0.826,1.793,0.551,3.516-0.828,5.17
				c-0.689,0.965-1.172,4.48-1.447,10.547c0,7.721,0.275,12.406,0.828,14.061c1.379,1.654,1.93,3.172,1.654,4.551
				c-0.553,1.379-1.793,2.066-3.723,2.066c-6.479,0.139-12.959,0.689-19.438,1.654C10.38,61.918,8.864,60.61,9.552,57.577z
				 M15.343,48.27c-0.551,0-0.828,0.277-0.828,0.828c0,0.965,0,2.205,0,3.723c0.139,2.344,1.104,3.584,2.896,3.721
				c3.584-0.275,5.996-0.412,7.236-0.412c0.689,0.137,0.896-0.277,0.621-1.242C24.44,50.063,21.132,47.858,15.343,48.27z
				 M24.028,40.413c-1.518,0.689-4.205,0.621-8.064-0.207c-1.104-0.412-1.586,0.139-1.449,1.654c0,1.242,0.414,1.861,1.242,1.861
				c4.688,0,7.857,0.828,9.512,2.482c1.93,1.654,2.895,4.617,2.895,8.891c0,0.414,0.414,0.621,1.24,0.621
				c0.967-0.275,1.518-0.828,1.654-1.654c0-7.996,0-16.404,0-25.229c0.139-1.791-0.412-2.758-1.654-2.895
				c-0.551-0.139-2.066-0.275-4.549-0.414c2.482,2.207,3.723,4.688,3.723,7.445C28.438,36.829,26.923,39.311,24.028,40.413z
				 M19.892,25.11c-0.275-0.137-0.896-0.207-1.861-0.207c-0.826-0.137-1.447-0.205-1.861-0.205
				c-0.965,0.137-1.516,0.826-1.654,2.066c0,2.207,0,4.619,0,7.238c-0.137,1.104,0.689,1.861,2.482,2.275
				c2.068,0.551,3.584,0.412,4.549-0.414c2.896-2.758,3.309-5.859,1.24-9.307C22.511,25.731,21.546,25.249,19.892,25.11z"/>
		</g>
		<path i:knockout="Off" fill="#D90000" d="M44.739,39.266c0-0.791,0.08-1.502,0.236-2.133c0-0.633,0.238-1.264,0.711-1.896
			c0.158-0.789,0.475-1.264,0.949-1.422c0.158-0.314,0.473-0.553,0.947-0.711c0.158-0.156,0.395-0.236,0.711-0.236l0.711,0.236
			c0.316,0.158,0.711,0.396,1.184,0.711c0.475,0.158,0.949,0.396,1.422,0.711c0.316,0.158,0.711,0.238,1.186,0.238l-0.238-0.949
			c-0.314-0.631-0.395-0.789-0.236-0.473c-0.158-0.316-0.236-0.711-0.236-1.186c-0.316-0.473-0.475-0.947-0.475-1.422
			c-0.158-0.473-0.236-0.867-0.236-1.184s0.078-0.633,0.236-0.949c0-0.156,0.158-0.395,0.475-0.709
			c0.158-0.316,0.316-0.553,0.473-0.711l0.238-0.238c0.316-0.631,0.789-1.184,1.422-1.658h0.473v0.475
			c0,0.158,0.08,0.869,0.237,2.133c0,1.105,0.158,2.053,0.473,2.842c0,0.791,0.158,1.66,0.475,2.607c0,0.316,0,0.711,0,1.184
			c0.158,0.633,0.236,1.186,0.236,1.658l0.475,0.475c0.158,0.316,0.631,0.711,1.422,1.186c0.158,0.158,0.395,0.395,0.711,0.711
			c0.473,0.314,0.789,0.553,0.947,0.711c0.475,0.473,1.027,0.867,1.658,1.184v-0.236v-0.475c-0.158-0.314-0.236-0.631-0.236-0.947
			c-0.316-0.789-0.475-1.816-0.475-3.08c-0.158-1.264-0.236-2.211-0.236-2.844c0-0.631,0.078-1.184,0.236-1.658
			c0-0.158,0.158-0.553,0.475-1.186c0.158-0.156,0.316-0.314,0.473-0.473c0.475-0.791,0.949-1.264,1.422-1.422
			c0.475-0.316,0.949-0.553,1.422-0.711c0.316-0.158,0.711-0.236,1.186-0.236l0.947,0.711c0.475,0.473,1.186,0.947,2.133,1.42
			c0.631,0.475,1.422,0.949,2.369,1.422c0.631,0.475,1.342,0.869,2.133,1.186c0.631,0.316,1.58,1.105,2.844,2.369v0.475l-1.422,1.42
			l0.236,0.475c0,0.316,0.158,0.633,0.475,0.947c0,0.158,0.078,0.396,0.236,0.711c0.158,0.316,0.236,0.553,0.236,0.711
			c0,0.633,0.158,1.027,0.475,1.186c0,0.158,0.475,0.316,1.422,0.473c0.789,0,1.5,0.08,2.133,0.238l-0.238-0.949
			c-0.314-0.631-0.553-1.736-0.711-3.316c-0.473-1.58-0.711-3.08-0.711-4.502c-0.156-1.422-0.236-2.686-0.236-3.791
			c0-0.473-0.078-1.105-0.236-1.895v-0.238c-0.158-0.314-0.238-0.711-0.238-1.184c0-0.475,0.08-0.947,0.238-1.422
			c0-0.158,0.158-0.553,0.473-1.186c0.158-0.156,0.316-0.314,0.475-0.473c0.475-0.791,0.947-1.264,1.422-1.422
			c0.158-0.158,0.316-0.316,0.473-0.475c0.316,0,0.555-0.078,0.711-0.236c0.158-0.158,0.475-0.236,0.949-0.236l0.236,0.236
			c0,0.158,0.395,0.395,1.186,0.711c0.473,0.316,1.342,0.631,2.605,0.947c0.316,0,0.789,0.158,1.422,0.475
			c0.789,0.316,1.342,0.473,1.658,0.473c0.947,0.316,1.896,0.711,2.844,1.186c0.789,0.475,1.5,0.947,2.133,1.422
			c0.156,0.158,0.395,0.316,0.711,0.473c0.314,0.158,0.867,0.553,1.658,1.186c0.314,0.316,0.711,0.633,1.184,0.947
			c0.316,0.316,0.553,0.553,0.711,0.711s0.395,0.395,0.711,0.711l0.238,0.475c0.156,0.158,0.236,0.631,0.236,1.422l-0.947,0.711
			c-0.316,0.158-0.633,0.395-0.949,0.709c-0.316,0.316-0.631,0.555-0.947,0.711c-0.316,0.158-0.633,0.396-0.947,0.711
			c-0.316,0.316-0.633,0.553-0.947,0.711c-0.633,0.475-1.186,1.027-1.66,1.658v-0.709c0-0.475,0-1.264,0-2.371
			c0.158-1.105,0.238-1.895,0.238-2.369c0-0.473-0.08-0.867-0.238-1.184v-0.238c-0.156-0.314-0.314-0.553-0.473-0.711
			c-0.475-0.314-0.553-0.395-0.238-0.236c-0.314-0.158-0.947-0.395-1.895-0.711c-0.158,0-0.553-0.078-1.186-0.236
			c-0.947-0.316-1.736-0.553-2.369-0.711c-1.422-0.316-2.605-0.553-3.553-0.711c-0.949-0.158-1.738-0.236-2.371-0.236l-0.473,0.473
			v2.133c0,1.422,0.078,2.764,0.236,4.027c0,0.791,0.238,2.055,0.711,3.791l0.475-0.473c0.316-0.316,0.711-0.791,1.184-1.422
			c0.475-0.633,1.027-1.186,1.658-1.658c0.316-0.316,0.711-0.553,1.186-0.711c-0.316,0-0.158-0.078,0.475-0.236
			c0.473-0.158,0.947-0.238,1.42-0.238c0.316,0,0.713,0.08,1.186,0.238l0.236,0.236c0.316,0.158,0.553,0.316,0.711,0.473v0.238
			c0,0.158-0.078,0.236-0.236,0.236c0,0.158,0,0.316,0,0.475l-0.236,0.236c-0.316,0.316-0.791,0.711-1.422,1.186l0.236,1.42
			c0,0.949,0.158,1.896,0.475,2.844c0,0.949,0.314,2.055,0.947,3.318c0.475,1.264,0.947,2.369,1.422,3.316
			c0.158,0.316,0.316,0.633,0.473,0.947c0.158,0.316,0.316,0.633,0.475,0.947v0.238c0.158,0.158,0.236,0.316,0.236,0.473v0.236
			c-0.156,0.316-0.236,0.555-0.236,0.711c-0.316,0.475-0.553,0.869-0.711,1.186c-0.158,0.158-0.395,0.236-0.711,0.236
			c-0.158,0.158-0.314,0.316-0.473,0.475c-0.475,0.158-0.869,0.236-1.186,0.236l-0.475-0.473l0.238-0.711
			c0-0.158,0.078-0.395,0.236-0.711v-0.238c0-0.156-0.078-0.314-0.236-0.473c-0.158-0.316-0.238-0.553-0.238-0.711
			c-0.473-0.631-0.789-1.184-0.947-1.658c-0.473-0.475-0.711-0.789-0.711-0.947c-0.158-0.158-0.314-0.238-0.473-0.238l-0.238-0.236
			c-0.158-0.158-1.105-0.236-2.842-0.236l0.236,0.711c0,0.473,0.236,1.105,0.711,1.895c0.158,0.316,0.316,0.791,0.473,1.422
			c0.316,0.631,0.555,1.105,0.711,1.422c0.158,0.158,0.316,0.473,0.475,0.947c0.316,1.105,0.711,2.133,1.186,3.08l1.42-0.475
			c0.949-0.314,1.896-0.553,2.844-0.711c0.475-0.156,1.58-0.236,3.318-0.236l0.473,0.475h0.947l-0.947,0.711
			c-0.158,0.158-0.395,0.395-0.711,0.711c-0.473,0.158-0.789,0.314-0.947,0.473c-0.316,0.158-0.553,0.396-0.711,0.711
			c-0.473,0.158-0.869,0.236-1.186,0.236c-0.473,0-0.947,0.08-1.42,0.238c-0.158,0-0.316,0.078-0.475,0.236
			c-0.475,0.158-0.869,0.316-1.186,0.475v0.236c0,0.158,0.08,0.395,0.238,0.711c0,0.158,0.236,0.475,0.711,0.947v0.238
			c0,0.158-0.08,0.236-0.238,0.236c0,0.158,0,0.316,0,0.473l-0.236,0.238c-0.316,0.316-0.789,0.711-1.422,1.184h-0.947l-0.475-0.473
			l0.475-0.475v-0.475v-0.473c-0.158-0.316-0.236-0.553-0.236-0.711c-0.158-0.158-0.316-0.395-0.475-0.711
			c0-0.158-0.078-0.316-0.236-0.475h-0.949c-0.789,0-1.262-0.078-1.42-0.236c-0.475-0.158-0.791-0.475-0.949-0.947
			c-0.158-0.158-0.473-0.633-0.947-1.422c0-0.316-0.078-0.553-0.236-0.711c-0.475-0.947-0.947-1.816-1.422-2.605
			c-0.475-0.633-1.027-1.502-1.658-2.607l-0.238,0.475c-0.314,0.158-0.473,0.395-0.473,0.711c-0.158,0.158-0.475,0.395-0.949,0.711
			c-0.156,0-0.314,0.078-0.473,0.236s-0.633,0.395-1.422,0.711c-0.316,0-0.789,0.158-1.422,0.473
			c-0.631,0.316-1.105,0.475-1.422,0.475c-0.631,0.158-1.342,0.395-2.133,0.711l-0.236,0.236c-0.473,0.158-0.947,0.396-1.422,0.711
			c-0.473,0.158-0.867,0.238-1.184,0.238c-0.475,0-0.791-0.08-0.949-0.238l-0.236-0.236c-0.316,0-0.553-0.158-0.711-0.475v-0.473
			l0.947-0.949l-0.236-0.236c-0.158-0.158-0.473-0.553-0.947-1.184c0-0.158-0.078-0.316-0.236-0.475
			c-0.633-0.633-1.105-1.422-1.422-2.369h-0.475l-0.711,0.473c-0.473,0.158-1.342,0.475-2.605,0.949v0.236
			c0,0.158,0.236,0.633,0.711,1.422c0.158,0.316,0.314,0.633,0.473,0.947c0.316,0.475,0.553,0.869,0.711,1.186
			c0.158,0.473,0.475,0.947,0.947,1.422v0.236c0,0.158-0.078,0.236-0.236,0.236c0,0.158,0,0.316,0,0.475l-0.236,0.473
			c-0.316,0.316-0.553,0.555-0.711,0.711c-0.475,0.475-0.947,0.791-1.422,0.949s-1.027,0.236-1.658,0.236l-0.475-0.475l0.236-0.947
			c0-0.316,0.08-0.711,0.238-1.184v-0.238v-0.473c-0.158-0.475-0.238-0.869-0.238-1.186c-0.314-0.789-0.473-1.422-0.473-1.895
			c-0.316-0.475-0.553-1.027-0.711-1.66h-1.658c-1.106,0-1.895,0.08-2.37,0.238c-0.473,0.158-0.947,0.395-1.422,0.711
			c-0.473,0.158-1.025,0.631-1.658,1.42h-0.473v-0.947c0-0.631,0.078-1.184,0.236-1.658c0-0.473,0.158-0.869,0.475-1.186
			c0-0.314,0.314-0.709,0.947-1.184c0.475-0.473,1.027-0.869,1.658-1.184c0.316-0.158,1.264-0.475,2.842-0.949v-0.236v-0.236
			c-0.158-0.316-0.236-0.633-0.236-0.949c-0.315-0.631-0.473-1.42-0.473-2.369c-0.158-0.314-0.236-0.711-0.236-1.184l-0.238-0.475
			c-0.158-0.158-0.314-0.236-0.473-0.236c-0.158-0.158-0.316-0.236-0.475-0.236c-0.475-0.316-1.184-0.553-2.133-0.711
			c-0.314,0-0.631-0.08-0.947-0.238s-0.631-0.236-0.947-0.236c-0.475,0-0.791,0.078-0.949,0.236
			c-0.156,0.158-0.395,0.238-0.711,0.238c-0.156,0.158-0.314,0.314-0.473,0.473c-0.475,0.158-1.027,0.633-1.658,1.422h-0.475V39.266
			z M77.435,44.241v0.236c0,0.158,0.238,0.633,0.711,1.422c0.158,0.158,0.396,0.633,0.711,1.422
			c0.316,0.633,0.633,1.186,0.949,1.658c0.158,0.475,0.395,1.027,0.709,1.658c0.475,0.791,0.791,1.422,0.949,1.896
			c0.158,0.631,0.236,0.789,0.236,0.473c0.316,0.949,0.475,1.502,0.475,1.66l0.473,0.711c0.158,0.314,0.475,0.711,0.949,1.184h0.473
			l0.947-0.947v-0.236c0-0.158-0.078-0.396-0.236-0.711c-0.158-0.316-0.236-0.553-0.236-0.711c-0.316-0.316-0.553-0.947-0.711-1.896
			c0,0.475-0.078,0.316-0.236-0.473c-0.158-0.316-0.396-0.949-0.711-1.896c-0.158-0.316-0.316-0.631-0.475-0.947
			s-0.316-0.711-0.475-1.186c-0.473-1.105-0.867-2.053-1.184-2.842L77.435,44.241z M64.878,46.848c0,0.473,0.158,0.947,0.473,1.42
			c0,0.158,0,0.395,0,0.711c0.158,0.316,0.238,0.553,0.238,0.711c-0.158,0.475,0,1.027,0.473,1.658l0.475,0.238
			c0.158,0.158,0.395,0.236,0.711,0.236l0.947-0.236c0.158-0.158,0.316-0.238,0.475-0.238c0.316,0,0.553-0.078,0.711-0.236
			s0.395-0.236,0.711-0.236c0.316-0.158,0.553-0.238,0.711-0.238c0.473-0.158,1.105-0.236,1.895-0.236
			c0.791,0,1.738-0.158,2.844-0.475V49.69c0-0.158-0.078-0.316-0.236-0.475v-0.236c-0.316-0.316-0.475-0.631-0.475-0.947
			c-0.158,0-0.316-0.158-0.475-0.475c0-0.314-0.078-0.473-0.236-0.473s-0.395-0.158-0.711-0.475
			c-0.158-0.314-0.316-0.473-0.475-0.473c-0.473-0.316-1.025-0.791-1.658-1.422v1.184c0,0.316-0.078,0.633-0.236,0.949
			c0,0.473,0,0.867,0,1.184c-0.316,0.947-0.553,1.736-0.711,2.369h-0.475L69.38,49.69c-0.475-0.473-0.789-1.105-0.947-1.895
			c-0.475-0.791-0.711-1.422-0.711-1.896c-0.316-0.473-0.553-1.025-0.711-1.658h-0.475l-0.475,0.475
			c-0.156,0.158-0.395,0.395-0.711,0.711c-0.314,0.316-0.551,0.553-0.709,0.711L64.878,46.848z M55.164,40.45v0.475
			c0,0.158,0.08,0.631,0.236,1.422c0,0.631,0.158,1.184,0.475,1.658c0,0.473,0.158,0.789,0.475,0.947
			c0,0.158,0.078,0.236,0.236,0.236c-0.158,0,0,0.08,0.475,0.238c0.158,0.158,0.314,0.236,0.473,0.236
			c0.316,0.158,0.553,0.236,0.711,0.236c0.475,0.158,0.947,0.396,1.422,0.711c0.475,0.158,1.027,0.396,1.658,0.711
			c0.316,0.158,0.949,0.236,1.896,0.236l-0.475-1.184c-0.473-0.789-0.711-1.422-0.711-1.896c-0.316-0.473-0.553-0.867-0.711-1.184
			c-0.473-0.316-0.947-0.711-1.422-1.186c-0.789-0.473-1.422-0.867-1.895-1.184c-0.316-0.158-0.711-0.316-1.186-0.475
			c-0.473-0.158-0.867-0.316-1.184-0.475L55.164,40.45z M62.746,33.342v0.711c0,0.473,0.08,1.105,0.236,1.895
			c0,0.791,0.158,1.58,0.475,2.369c0,0.475,0.158,1.264,0.475,2.369c0-0.156,0.078,0.08,0.236,0.711l0.236-0.473
			c0-0.316,0.158-0.553,0.475-0.711c0-0.158,0.158-0.316,0.473-0.475c0.316,0,0.555-0.078,0.711-0.236v-0.947l0.475-0.711
			c0.158-0.475,0.475-0.869,0.947-1.186h0.949l0.236,0.236c0,0.158,0.158,0.396,0.473,0.711c0,0.316,0.158,0.711,0.475,1.186
			c0,0.475,0.158,0.789,0.475,0.947c0,0.158,0.395,0.316,1.184,0.475c0.475,0,0.949,0.078,1.422,0.236v-2.369l0.475-0.475
			c0.158-0.156,0.316-0.395,0.473-0.711c0.158-0.314,0.316-0.553,0.475-0.711h-1.186c-0.947,0-1.5-0.078-1.658-0.236
			c-0.473-0.314-0.947-0.553-1.422-0.711c-0.789-0.314-1.658-0.711-2.605-1.184c-0.475-0.158-1.027-0.316-1.658-0.475
			c-0.475-0.316-0.789-0.475-0.947-0.475c-0.791-0.156-1.264-0.236-1.422-0.236L62.746,33.342z M81.937,38.792
			c0,0.631,0.238,1.342,0.711,2.133l3.791,0.473l-0.236-1.422c-0.158-0.631-0.236-1.895-0.236-3.791h-0.238
			c-0.314,0-0.711,0.158-1.184,0.475c-0.633,0.158-1.58,0.475-2.844,0.947L81.937,38.792z"/>
	</g>
</g>
</svg>
