<?xml version="1.0" encoding="utf-8"?>
<!-- Generator: Adobe Illustrator 12.0.0, SVG Export Plug-In . SVG Version: 6.00 Build 51448)  -->
<!DOCTYPE svg PUBLIC "-//W3C//DTD SVG 1.1//EN" "http://www.w3.org/Graphics/SVG/1.1/DTD/svg11.dtd" [
	<!ENTITY ns_flows "http://ns.adobe.com/Flows/1.0/">
	<!ENTITY ns_extend "http://ns.adobe.com/Extensibility/1.0/">
	<!ENTITY ns_ai "http://ns.adobe.com/AdobeIllustrator/10.0/">
	<!ENTITY ns_graphs "http://ns.adobe.com/Graphs/1.0/">
	<!ENTITY ns_vars "http://ns.adobe.com/Variables/1.0/">
	<!ENTITY ns_imrep "http://ns.adobe.com/ImageReplacement/1.0/">
	<!ENTITY ns_sfw "http://ns.adobe.com/SaveForWeb/1.0/">
	<!ENTITY ns_custom "http://ns.adobe.com/GenericCustomNamespace/1.0/">
	<!ENTITY ns_adobe_xpath "http://ns.adobe.com/XPath/1.0/">
	<!ENTITY ns_svg "http://www.w3.org/2000/svg">
	<!ENTITY ns_xlink "http://www.w3.org/1999/xlink">
]>
<svg  version="1.1"
	 xmlns:x="&ns_extend;" xmlns:i="&ns_ai;" xmlns:graph="&ns_graphs;" i:viewOrigin="-0.3208 113.645" i:rulerOrigin="0 0" i:pageBounds="0 113 108 0"
	 xmlns="&ns_svg;" xmlns:xlink="&ns_xlink;" xmlns:a="http://ns.adobe.com/AdobeSVGViewerExtensions/3.0/"
	 width="109.1" height="113.832" viewBox="0 0 109.1 113.832" overflow="visible" enable-background="new 0 0 109.1 113.832"
	 xml:space="preserve">
<metadata>
	<variableSets  xmlns="&ns_vars;">
		<variableSet  varSetName="binding1" locked="none">
			<variables></variables>
			<v:sampleDataSets  xmlns="&ns_custom;" xmlns:v="&ns_vars;"></v:sampleDataSets>
		</variableSet>
	</variableSets>
</metadata>
<g id="图层_1" i:layer="yes" i:dimmedPercent="50" i:rgbTrio="#4F008000FFFF">
	<g>
		
			<linearGradient id="XMLID_3_" gradientUnits="userSpaceOnUse" x1="935.4341" y1="81.0015" x2="1020.2271" y2="81.0015" gradientTransform="matrix(0 -1 1 0 -26.8223 1049.0791)">
			<stop  offset="0.1348" style="stop-color:#1889BC"/>
			<stop  offset="0.2247" style="stop-color:#C4E9F2"/>
			<a:midPointStop  offset="0.1348" style="stop-color:#1889BC"/>
			<a:midPointStop  offset="0.5" style="stop-color:#1889BC"/>
			<a:midPointStop  offset="0.2247" style="stop-color:#C4E9F2"/>
		</linearGradient>
		<path i:knockout="Off" fill="url(#XMLID_3_)" stroke="#000000" stroke-width="0.3739" d="M100.037,28.852
			c4.418,0,8.001,3.42,8.001,7.638v69.518c0,4.218-3.583,7.638-8.001,7.638H8.321c-4.418,0-8-3.42-8-7.638V36.49
			c0-4.218,3.582-7.638,8-7.638H100.037z"/>
		<path i:knockout="Off" fill="#FFFFFF" stroke="#000000" stroke-width="0.6414" d="M8.377,85.36c-4.449,0-8.057-3.43-8.057-7.66
			V7.98c0-4.23,3.607-7.659,8.057-7.659h92.348c4.447,0,8.055,3.429,8.055,7.659V77.7c0,4.23-3.607,7.66-8.055,7.66H8.377z"/>
		
			<linearGradient id="XMLID_4_" gradientUnits="userSpaceOnUse" x1="-229.9092" y1="-254.2622" x2="-144.8701" y2="-254.2622" gradientTransform="matrix(0 1 -1 0 -199.7119 230.23)">
			<stop  offset="0" style="stop-color:#A3DDEA"/>
			<stop  offset="0.0899" style="stop-color:#0678B3"/>
			<stop  offset="0.2135" style="stop-color:#094C91"/>
			<stop  offset="0.6404" style="stop-color:#2890C0"/>
			<stop  offset="0.8034" style="stop-color:#82D0E3"/>
			<stop  offset="1" style="stop-color:#09468C"/>
			<a:midPointStop  offset="0" style="stop-color:#A3DDEA"/>
			<a:midPointStop  offset="0.5" style="stop-color:#A3DDEA"/>
			<a:midPointStop  offset="0.0899" style="stop-color:#0678B3"/>
			<a:midPointStop  offset="0.5" style="stop-color:#0678B3"/>
			<a:midPointStop  offset="0.2135" style="stop-color:#094C91"/>
			<a:midPointStop  offset="0.5" style="stop-color:#094C91"/>
			<a:midPointStop  offset="0.6404" style="stop-color:#2890C0"/>
			<a:midPointStop  offset="0.5" style="stop-color:#2890C0"/>
			<a:midPointStop  offset="0.8034" style="stop-color:#82D0E3"/>
			<a:midPointStop  offset="0.5" style="stop-color:#82D0E3"/>
			<a:midPointStop  offset="1" style="stop-color:#09468C"/>
		</linearGradient>
		<path i:knockout="Off" opacity="0.1" fill="url(#XMLID_4_)" stroke="#000000" stroke-width="0.6414" d="M8.377,85.36
			c-4.449,0-8.057-3.43-8.057-7.66V7.98c0-4.23,3.607-7.659,8.057-7.659h92.348c4.448,0,8.055,3.429,8.055,7.659V77.7
			c0,4.23-3.606,7.66-8.055,7.66H8.377z"/>
		<g>
			<path i:knockout="Off" fill="#333333" d="M13.277,52.57c-0.965-1.24-1.24-2.137-0.826-2.689c0.689-0.551,1.723-0.551,3.102,0
				c5.789,3.723,9.926,8.135,12.406,13.234c0.828,2.758,0.414,4.826-1.24,6.205c-1.516,0.965-2.619,1.102-3.309,0.412
				C21.48,63.667,18.104,57.947,13.277,52.57z M30.441,29.203c-0.414,0.689-1.518,1.654-3.309,2.895
				c-4.688,3.445-9.1,7.236-13.234,11.373c-1.104,0.965-2.068,1.033-2.896,0.207c-0.826-0.965-0.688-2,0.414-3.102
				c6.342-6.066,10.754-12.959,13.234-20.68c0.139-0.689,0.689-0.758,1.654-0.207c3.172,1.379,4.826,3.723,4.963,7.031
				C31.268,27.685,30.992,28.513,30.441,29.203z"/>
		</g>
		<path i:knockout="Off" fill="#D90000" d="M43.658,43.558c0-0.791,0.08-1.502,0.238-2.133c0-0.633,0.236-1.264,0.711-1.896
			c0.158-0.789,0.473-1.262,0.947-1.42c0.158-0.316,0.475-0.553,0.947-0.711c0.158-0.158,0.395-0.238,0.711-0.238l0.711,0.238
			c0.316,0.158,0.711,0.395,1.184,0.711c0.475,0.158,0.949,0.395,1.422,0.711c0.316,0.158,0.711,0.236,1.186,0.236l-0.236-0.947
			c-0.316-0.633-0.396-0.791-0.238-0.475c-0.158-0.316-0.236-0.711-0.236-1.186c-0.316-0.473-0.475-0.947-0.475-1.42
			c-0.156-0.475-0.236-0.869-0.236-1.186s0.08-0.631,0.236-0.947c0-0.158,0.158-0.395,0.475-0.711
			c0.158-0.316,0.316-0.553,0.475-0.711l0.236-0.236c0.316-0.633,0.79-1.186,1.423-1.66h0.473v0.475c0,0.158,0.08,0.869,0.236,2.133
			c0,1.105,0.158,2.053,0.475,2.844c0,0.789,0.158,1.658,0.475,2.605c0,0.316,0,0.711,0,1.186c0.158,0.631,0.236,1.184,0.236,1.658
			l0.475,0.473c0.158,0.316,0.631,0.711,1.422,1.186c0.158,0.158,0.395,0.395,0.709,0.711c0.475,0.316,0.791,0.553,0.949,0.711
			c0.473,0.473,1.025,0.869,1.658,1.184v-0.236v-0.475c-0.158-0.314-0.236-0.631-0.236-0.947c-0.316-0.789-0.475-1.816-0.475-3.08
			c-0.158-1.264-0.236-2.211-0.236-2.844c0-0.631,0.078-1.184,0.236-1.658c0-0.158,0.158-0.553,0.475-1.184
			c0.158-0.158,0.314-0.316,0.473-0.475c0.475-0.789,0.949-1.264,1.422-1.422c0.475-0.316,0.947-0.553,1.422-0.711
			c0.316-0.158,0.711-0.236,1.186-0.236l0.947,0.711c0.473,0.473,1.184,0.947,2.133,1.422c0.631,0.473,1.422,0.947,2.369,1.422
			c0.631,0.473,1.342,0.867,2.133,1.184c0.631,0.316,1.578,1.105,2.842,2.369v0.475l-1.422,1.422l0.238,0.473
			c0,0.316,0.158,0.633,0.473,0.949c0,0.158,0.08,0.395,0.238,0.711c0.158,0.314,0.236,0.553,0.236,0.709
			c0,0.633,0.158,1.027,0.475,1.186c0,0.158,0.473,0.316,1.42,0.475c0.791,0,1.502,0.078,2.133,0.236l-0.236-0.947
			c-0.316-0.633-0.553-1.738-0.711-3.318c-0.473-1.578-0.711-3.08-0.711-4.502c-0.158-1.42-0.236-2.684-0.236-3.791
			c0-0.473-0.08-1.105-0.238-1.895v-0.236c-0.156-0.316-0.236-0.711-0.236-1.186c0-0.473,0.08-0.947,0.236-1.422
			c0-0.158,0.158-0.553,0.475-1.184c0.158-0.158,0.316-0.316,0.475-0.475c0.473-0.789,0.947-1.264,1.422-1.422
			c0.158-0.158,0.314-0.316,0.473-0.475c0.316,0,0.553-0.078,0.711-0.236s0.475-0.236,0.947-0.236l0.238,0.236
			c0,0.158,0.395,0.395,1.184,0.711c0.475,0.316,1.344,0.633,2.607,0.947c0.316,0,0.789,0.158,1.422,0.475
			c0.789,0.316,1.342,0.475,1.658,0.475c0.947,0.314,1.895,0.711,2.844,1.184c0.789,0.475,1.5,0.949,2.131,1.422
			c0.158,0.158,0.395,0.316,0.711,0.475s0.869,0.553,1.66,1.184c0.314,0.316,0.709,0.633,1.184,0.947
			c0.316,0.316,0.553,0.555,0.711,0.711c0.158,0.158,0.395,0.396,0.711,0.711l0.236,0.475c0.158,0.158,0.238,0.633,0.238,1.422
			l-0.949,0.711c-0.316,0.158-0.631,0.395-0.947,0.711s-0.633,0.553-0.947,0.711c-0.316,0.158-0.633,0.395-0.947,0.711
			c-0.316,0.314-0.633,0.553-0.949,0.711c-0.631,0.473-1.184,1.025-1.658,1.658v-0.711c0-0.475,0-1.264,0-2.369
			c0.158-1.105,0.236-1.896,0.236-2.369c0-0.475-0.078-0.869-0.236-1.186v-0.236c-0.158-0.316-0.316-0.553-0.475-0.711
			c-0.473-0.316-0.551-0.395-0.236-0.238c-0.314-0.156-0.947-0.395-1.895-0.711c-0.158,0-0.553-0.078-1.186-0.236
			c-0.947-0.314-1.738-0.553-2.369-0.711c-1.422-0.314-2.605-0.553-3.555-0.711c-0.947-0.158-1.736-0.236-2.369-0.236l-0.473,0.475
			v2.131c0,1.422,0.078,2.766,0.236,4.029c0,0.789,0.236,2.053,0.711,3.791l0.473-0.475c0.316-0.316,0.711-0.789,1.186-1.422
			c0.475-0.631,1.027-1.184,1.658-1.658c0.316-0.316,0.711-0.553,1.186-0.711c-0.316,0-0.158-0.078,0.473-0.236
			c0.475-0.158,0.949-0.238,1.422-0.238c0.316,0,0.711,0.08,1.186,0.238l0.236,0.236c0.316,0.158,0.553,0.316,0.711,0.475v0.236
			c0,0.158-0.078,0.236-0.236,0.236c0,0.158,0,0.316,0,0.475l-0.238,0.236c-0.314,0.316-0.789,0.711-1.42,1.186l0.236,1.422
			c0,0.947,0.158,1.895,0.473,2.842c0,0.949,0.316,2.055,0.949,3.318c0.473,1.264,0.947,2.369,1.422,3.316
			c0.158,0.316,0.314,0.633,0.473,0.947c0.158,0.316,0.316,0.633,0.475,0.949v0.236c0.158,0.158,0.236,0.316,0.236,0.475v0.236
			c-0.158,0.316-0.236,0.553-0.236,0.711c-0.316,0.475-0.553,0.869-0.711,1.186c-0.158,0.158-0.395,0.236-0.711,0.236
			c-0.158,0.158-0.316,0.316-0.475,0.475c-0.473,0.158-0.867,0.236-1.184,0.236l-0.475-0.475l0.236-0.711
			c0-0.156,0.08-0.395,0.238-0.711v-0.236c0-0.158-0.08-0.314-0.238-0.473c-0.156-0.316-0.236-0.555-0.236-0.713
			c-0.473-0.631-0.789-1.184-0.947-1.658c-0.475-0.473-0.711-0.789-0.711-0.947c-0.158-0.158-0.316-0.236-0.475-0.236l-0.236-0.238
			c-0.158-0.158-1.105-0.236-2.844-0.236l0.238,0.711c0,0.475,0.236,1.105,0.711,1.895c0.158,0.316,0.314,0.791,0.473,1.424
			c0.316,0.631,0.553,1.105,0.711,1.42c0.158,0.158,0.316,0.475,0.475,0.949c0.316,1.105,0.711,2.133,1.184,3.08l1.422-0.475
			c0.949-0.316,1.896-0.553,2.844-0.711c0.475-0.158,1.58-0.236,3.316-0.236l0.475,0.473h0.947l-0.947,0.711
			c-0.158,0.158-0.395,0.396-0.711,0.711c-0.475,0.158-0.789,0.316-0.947,0.475c-0.316,0.158-0.553,0.395-0.711,0.711
			c-0.475,0.158-0.869,0.236-1.186,0.236c-0.473,0-0.947,0.08-1.422,0.238c-0.156,0-0.314,0.078-0.473,0.236
			c-0.475,0.158-0.869,0.316-1.186,0.473v0.238c0,0.158,0.08,0.395,0.236,0.711c0,0.158,0.238,0.473,0.711,0.947v0.236
			c0,0.158-0.078,0.238-0.236,0.238c0,0.158,0,0.314,0,0.473l-0.236,0.238c-0.316,0.314-0.791,0.711-1.422,1.184h-0.947
			l-0.475-0.475l0.475-0.473v-0.475v-0.473c-0.158-0.316-0.238-0.553-0.238-0.711c-0.156-0.158-0.314-0.395-0.473-0.711
			c0-0.158-0.08-0.316-0.238-0.475h-0.947c-0.789,0-1.264-0.078-1.422-0.236c-0.473-0.158-0.789-0.475-0.947-0.947
			c-0.158-0.158-0.475-0.633-0.947-1.422c0-0.316-0.08-0.553-0.238-0.711c-0.473-0.947-0.947-1.816-1.42-2.607
			c-0.475-0.631-1.027-1.5-1.66-2.605l-0.236,0.473c-0.316,0.158-0.475,0.396-0.475,0.711c-0.156,0.158-0.473,0.396-0.947,0.711
			c-0.158,0-0.314,0.08-0.473,0.238s-0.633,0.395-1.422,0.711c-0.316,0-0.791,0.158-1.422,0.473
			c-0.633,0.316-1.105,0.475-1.422,0.475c-0.633,0.158-1.342,0.395-2.133,0.711l-0.236,0.236c-0.475,0.158-0.947,0.395-1.422,0.711
			c-0.475,0.158-0.869,0.236-1.186,0.236c-0.473,0-0.789-0.078-0.947-0.236l-0.236-0.236c-0.316,0-0.553-0.158-0.711-0.475v-0.475
			l0.947-0.947l-0.236-0.236c-0.158-0.158-0.475-0.553-0.947-1.186c0-0.156-0.08-0.314-0.238-0.473
			c-0.631-0.633-1.105-1.422-1.422-2.371h-0.473l-0.711,0.475c-0.475,0.158-1.344,0.475-2.607,0.947v0.238
			c0,0.158,0.238,0.631,0.711,1.422c0.158,0.316,0.316,0.631,0.475,0.947c0.316,0.475,0.553,0.869,0.711,1.184
			c0.158,0.475,0.475,0.949,0.947,1.422v0.238c0,0.158-0.078,0.236-0.236,0.236c0,0.158,0,0.316,0,0.475L60.72,60.38
			c-0.316,0.316-0.553,0.553-0.711,0.711c-0.475,0.475-0.949,0.791-1.422,0.947c-0.475,0.158-1.027,0.238-1.658,0.238l-0.475-0.475
			l0.236-0.947c0-0.316,0.08-0.711,0.238-1.186v-0.236v-0.475c-0.158-0.473-0.238-0.867-0.238-1.184
			c-0.314-0.791-0.473-1.422-0.473-1.896c-0.316-0.473-0.553-1.025-0.711-1.658h-1.661c-1.105,0-1.896,0.08-2.368,0.236
			c-0.475,0.158-0.949,0.396-1.422,0.711c-0.475,0.158-1.027,0.633-1.658,1.422h-0.475v-0.947c0-0.633,0.078-1.186,0.236-1.658
			c0-0.475,0.158-0.869,0.475-1.186c0-0.316,0.316-0.711,0.947-1.186c0.475-0.473,1.027-0.867,1.658-1.184
			c0.316-0.158,1.265-0.475,2.845-0.947v-0.238v-0.236c-0.158-0.316-0.238-0.631-0.238-0.947c-0.314-0.633-0.473-1.422-0.473-2.369
			c-0.158-0.316-0.236-0.711-0.236-1.186l-0.238-0.475c-0.158-0.156-0.314-0.236-0.473-0.236c-0.158-0.158-0.317-0.236-0.476-0.236
			c-0.473-0.316-1.184-0.553-2.133-0.711c-0.314,0-0.631-0.078-0.947-0.236c-0.314-0.158-0.631-0.238-0.947-0.238
			c-0.475,0-0.789,0.08-0.947,0.238s-0.395,0.236-0.711,0.236c-0.158,0.158-0.316,0.316-0.475,0.473
			c-0.473,0.158-1.027,0.633-1.658,1.422h-0.475V43.558z M76.357,48.533v0.238c0,0.158,0.238,0.631,0.711,1.422
			c0.158,0.158,0.395,0.631,0.711,1.42c0.316,0.633,0.633,1.186,0.947,1.66c0.158,0.475,0.396,1.027,0.711,1.658
			c0.475,0.791,0.791,1.422,0.947,1.896c0.158,0.631,0.238,0.789,0.238,0.473c0.316,0.949,0.473,1.502,0.473,1.658l0.475,0.711
			c0.158,0.316,0.475,0.711,0.947,1.186h0.475l0.947-0.947v-0.238c0-0.158-0.078-0.395-0.236-0.711
			c-0.158-0.314-0.236-0.553-0.236-0.711c-0.316-0.314-0.553-0.947-0.711-1.895c0,0.475-0.08,0.316-0.238-0.475
			c-0.158-0.314-0.395-0.947-0.711-1.895c-0.156-0.316-0.314-0.633-0.473-0.947c-0.158-0.316-0.316-0.713-0.475-1.186
			c-0.473-1.105-0.869-2.055-1.184-2.844L76.357,48.533z M63.8,51.14c0,0.473,0.158,0.947,0.473,1.422c0,0.158,0,0.395,0,0.711
			c0.158,0.316,0.238,0.553,0.238,0.711c-0.158,0.473,0,1.025,0.473,1.658l0.475,0.236c0.158,0.158,0.395,0.238,0.711,0.238
			l0.947-0.238c0.158-0.158,0.316-0.236,0.475-0.236c0.314,0,0.553-0.078,0.711-0.236s0.395-0.238,0.709-0.238
			c0.316-0.156,0.555-0.236,0.711-0.236c0.475-0.158,1.107-0.236,1.896-0.236s1.738-0.158,2.844-0.475v-0.236
			c0-0.158-0.08-0.316-0.238-0.475v-0.236c-0.314-0.316-0.473-0.633-0.473-0.949c-0.158,0-0.316-0.156-0.475-0.473
			c0-0.316-0.078-0.475-0.236-0.475s-0.395-0.158-0.711-0.475c-0.158-0.314-0.316-0.473-0.475-0.473
			c-0.473-0.316-1.025-0.791-1.658-1.422v1.186c0,0.314-0.078,0.631-0.236,0.947c0,0.473,0,0.869,0,1.184
			c-0.316,0.949-0.553,1.738-0.711,2.371h-0.475l-0.473-0.711c-0.475-0.475-0.791-1.105-0.949-1.896
			c-0.473-0.789-0.711-1.422-0.711-1.895c-0.314-0.475-0.553-1.027-0.711-1.66h-0.473l-0.475,0.475
			c-0.158,0.158-0.395,0.395-0.711,0.711c-0.314,0.316-0.553,0.553-0.711,0.711L63.8,51.14z M54.085,44.742v0.475
			c0,0.158,0.078,0.633,0.236,1.422c0,0.631,0.158,1.186,0.475,1.658c0,0.475,0.158,0.789,0.473,0.947
			c0,0.158,0.08,0.238,0.239,0.238c-0.159,0,0,0.078,0.473,0.236c0.158,0.158,0.316,0.236,0.475,0.236
			c0.316,0.158,0.553,0.238,0.711,0.238c0.475,0.158,0.947,0.395,1.422,0.709c0.473,0.158,1.025,0.396,1.658,0.711
			c0.316,0.158,0.947,0.238,1.895,0.238l-0.473-1.186c-0.475-0.789-0.711-1.422-0.711-1.895c-0.316-0.475-0.553-0.869-0.711-1.186
			c-0.475-0.316-0.947-0.711-1.422-1.184c-0.789-0.475-1.422-0.869-1.895-1.186c-0.316-0.158-0.711-0.316-1.186-0.475
			c-0.475-0.156-0.87-0.314-1.186-0.473L54.085,44.742z M61.667,37.634v0.711c0,0.475,0.078,1.105,0.236,1.895
			c0,0.791,0.158,1.58,0.475,2.371c0,0.473,0.158,1.264,0.473,2.369c0-0.158,0.08,0.078,0.238,0.711l0.236-0.475
			c0-0.316,0.158-0.553,0.475-0.711c0-0.158,0.158-0.316,0.473-0.475c0.316,0,0.553-0.078,0.711-0.236v-0.947l0.475-0.711
			c0.158-0.475,0.475-0.869,0.947-1.186h0.947l0.238,0.238c0,0.158,0.158,0.395,0.473,0.711c0,0.314,0.158,0.711,0.475,1.184
			c0,0.475,0.158,0.791,0.473,0.947c0,0.158,0.396,0.316,1.186,0.475c0.475,0,0.947,0.08,1.422,0.236v-2.369l0.475-0.473
			c0.158-0.158,0.314-0.395,0.473-0.711s0.316-0.553,0.475-0.711h-1.186c-0.947,0-1.5-0.08-1.658-0.238
			c-0.473-0.314-0.947-0.553-1.422-0.711c-0.789-0.314-1.658-0.709-2.605-1.184c-0.475-0.158-1.027-0.316-1.658-0.475
			c-0.475-0.314-0.791-0.473-0.949-0.473c-0.789-0.158-1.264-0.238-1.422-0.238L61.667,37.634z M80.859,43.083
			c0,0.633,0.238,1.344,0.711,2.133l3.791,0.475l-0.236-1.422c-0.158-0.633-0.238-1.896-0.238-3.791H84.65
			c-0.316,0-0.711,0.158-1.184,0.473c-0.633,0.158-1.58,0.475-2.844,0.949L80.859,43.083z"/>
	</g>
</g>
</svg>
