<?xml version="1.0" encoding="utf-8"?>
<!-- Generator: Adobe Illustrator 12.0.0, SVG Export Plug-In . SVG Version: 6.00 Build 51448)  -->
<!DOCTYPE svg PUBLIC "-//W3C//DTD SVG 1.1//EN" "http://www.w3.org/Graphics/SVG/1.1/DTD/svg11.dtd" [
	<!ENTITY ns_flows "http://ns.adobe.com/Flows/1.0/">
	<!ENTITY ns_extend "http://ns.adobe.com/Extensibility/1.0/">
	<!ENTITY ns_ai "http://ns.adobe.com/AdobeIllustrator/10.0/">
	<!ENTITY ns_graphs "http://ns.adobe.com/Graphs/1.0/">
	<!ENTITY ns_vars "http://ns.adobe.com/Variables/1.0/">
	<!ENTITY ns_imrep "http://ns.adobe.com/ImageReplacement/1.0/">
	<!ENTITY ns_sfw "http://ns.adobe.com/SaveForWeb/1.0/">
	<!ENTITY ns_custom "http://ns.adobe.com/GenericCustomNamespace/1.0/">
	<!ENTITY ns_adobe_xpath "http://ns.adobe.com/XPath/1.0/">
	<!ENTITY ns_svg "http://www.w3.org/2000/svg">
	<!ENTITY ns_xlink "http://www.w3.org/1999/xlink">
]>
<svg  version="1.1"
	 xmlns:x="&ns_extend;" xmlns:i="&ns_ai;" xmlns:graph="&ns_graphs;" i:viewOrigin="-0.3208 113.645" i:rulerOrigin="0 0" i:pageBounds="0 113 108 0"
	 xmlns="&ns_svg;" xmlns:xlink="&ns_xlink;" xmlns:a="http://ns.adobe.com/AdobeSVGViewerExtensions/3.0/"
	 width="109.1" height="113.832" viewBox="0 0 109.1 113.832" overflow="visible" enable-background="new 0 0 109.1 113.832"
	 xml:space="preserve">
<metadata>
	<variableSets  xmlns="&ns_vars;">
		<variableSet  varSetName="binding1" locked="none">
			<variables></variables>
			<v:sampleDataSets  xmlns="&ns_custom;" xmlns:v="&ns_vars;"></v:sampleDataSets>
		</variableSet>
	</variableSets>
</metadata>
<g id="图层_1" i:layer="yes" i:dimmedPercent="50" i:rgbTrio="#4F008000FFFF">
	<g>
		
			<linearGradient id="XMLID_3_" gradientUnits="userSpaceOnUse" x1="935.4341" y1="81.0015" x2="1020.2271" y2="81.0015" gradientTransform="matrix(0 -1 1 0 -26.8223 1049.0791)">
			<stop  offset="0.1348" style="stop-color:#1889BC"/>
			<stop  offset="0.2247" style="stop-color:#C4E9F2"/>
			<a:midPointStop  offset="0.1348" style="stop-color:#1889BC"/>
			<a:midPointStop  offset="0.5" style="stop-color:#1889BC"/>
			<a:midPointStop  offset="0.2247" style="stop-color:#C4E9F2"/>
		</linearGradient>
		<path i:knockout="Off" fill="url(#XMLID_3_)" stroke="#000000" stroke-width="0.3739" d="M100.037,28.852
			c4.418,0,8.001,3.42,8.001,7.638v69.518c0,4.218-3.583,7.638-8.001,7.638H8.321c-4.418,0-8-3.42-8-7.638V36.49
			c0-4.218,3.582-7.638,8-7.638H100.037z"/>
		<path i:knockout="Off" fill="#FFFFFF" stroke="#000000" stroke-width="0.6414" d="M8.377,85.36c-4.448,0-8.056-3.43-8.056-7.66
			V7.98c0-4.23,3.608-7.659,8.056-7.659h92.348c4.447,0,8.055,3.429,8.055,7.659V77.7c0,4.23-3.607,7.66-8.055,7.66H8.377z"/>
		
			<linearGradient id="XMLID_4_" gradientUnits="userSpaceOnUse" x1="-229.9092" y1="-254.2622" x2="-144.8701" y2="-254.2622" gradientTransform="matrix(0 1 -1 0 -199.7119 230.23)">
			<stop  offset="0" style="stop-color:#A3DDEA"/>
			<stop  offset="0.0899" style="stop-color:#0678B3"/>
			<stop  offset="0.2135" style="stop-color:#094C91"/>
			<stop  offset="0.6404" style="stop-color:#2890C0"/>
			<stop  offset="0.8034" style="stop-color:#82D0E3"/>
			<stop  offset="1" style="stop-color:#09468C"/>
			<a:midPointStop  offset="0" style="stop-color:#A3DDEA"/>
			<a:midPointStop  offset="0.5" style="stop-color:#A3DDEA"/>
			<a:midPointStop  offset="0.0899" style="stop-color:#0678B3"/>
			<a:midPointStop  offset="0.5" style="stop-color:#0678B3"/>
			<a:midPointStop  offset="0.2135" style="stop-color:#094C91"/>
			<a:midPointStop  offset="0.5" style="stop-color:#094C91"/>
			<a:midPointStop  offset="0.6404" style="stop-color:#2890C0"/>
			<a:midPointStop  offset="0.5" style="stop-color:#2890C0"/>
			<a:midPointStop  offset="0.8034" style="stop-color:#82D0E3"/>
			<a:midPointStop  offset="0.5" style="stop-color:#82D0E3"/>
			<a:midPointStop  offset="1" style="stop-color:#09468C"/>
		</linearGradient>
		<path i:knockout="Off" opacity="0.1" fill="url(#XMLID_4_)" stroke="#000000" stroke-width="0.6414" d="M8.377,85.36
			c-4.448,0-8.056-3.43-8.056-7.66V7.98c0-4.23,3.608-7.659,8.056-7.659h92.348c4.448,0,8.055,3.429,8.055,7.659V77.7
			c0,4.23-3.606,7.66-8.055,7.66H8.377z"/>
		<circle i:knockout="Off" fill="#FFFFFF" cx="54.55" cy="40.654" r="28.346"/>
		<g>
			<g i:knockout="Off">
				<path i:knockout="Off" fill="#D90000" d="M46.179,39.697c0.447-3.977,3.658-7.111,7.67-7.446v7.446H46.179z"/>
				<path i:knockout="Off" fill="#D90000" d="M46.179,41.61c0.447,3.978,3.658,7.111,7.67,7.446V41.61H46.179z"/>
			</g>
			<g>
				<g i:knockout="Off">
					<path i:knockout="Off" fill="#204499" d="M82.898,40.653c0-15.654-12.691-28.345-28.346-28.345
						c-15.656,0-28.348,12.69-28.348,28.345C26.205,56.309,38.896,69,54.552,69C70.207,69,82.898,56.309,82.898,40.653z
						 M28.826,40.653c0-14.207,11.516-25.725,25.725-25.725s25.727,11.518,25.727,25.725c0,14.209-11.518,25.726-25.727,25.726
						S28.826,54.862,28.826,40.653z"/>
				</g>
				<g i:knockout="Off">
					<path i:knockout="Off" fill="#D90000" d="M66.574,40.652c0-6.64-5.381-12.023-12.02-12.023
						c-6.641,0-12.023,5.384-12.023,12.023c0,6.639,5.383,12.022,12.023,12.022C61.193,52.674,66.574,47.291,66.574,40.652z
						 M44.175,40.652c0-5.732,4.646-10.378,10.379-10.378c5.73,0,10.377,4.646,10.377,10.378c0,5.73-4.646,10.377-10.377,10.377
						C48.822,51.029,44.175,46.382,44.175,40.652z"/>
				</g>
				<g i:knockout="Off">
					<path i:knockout="Off" fill="#D90000" d="M62.931,39.697c-0.447-3.977-3.658-7.111-7.668-7.446v7.446H62.931z"/>
					<path i:knockout="Off" fill="#D90000" d="M62.931,41.61c-0.447,3.978-3.658,7.111-7.668,7.446V41.61H62.931z"/>
				</g>
				<g>
					<g i:knockout="Off">
						<path i:knockout="Off" fill="#189045" d="M67.39,40.652c0,7.078-5.758,12.838-12.836,12.838c-7.082,0-12.84-5.76-12.84-12.838
							c0-7.079,5.758-12.839,12.84-12.839C61.632,27.813,67.39,33.573,67.39,40.652z M54.554,25.746
							c-8.221,0-14.908,6.687-14.908,14.906c0,8.219,6.688,14.905,14.908,14.905c8.217,0,14.904-6.687,14.904-14.905
							C69.458,32.432,62.771,25.746,54.554,25.746z"/>
					</g>
					<g>
						<g i:knockout="Off">
							<path i:knockout="Off" fill="#189045" d="M68.425,41.685h6.793l-1.018-0.854c0.035,0.188,0.369,1.853,1.9,2.589
								c0.816,0.393,0.98,0.667,0.982,0.67c0,0-0.035-0.061-0.037-0.171c-0.039,0.288-0.607,2.239-0.812,2.712
								c0.143-0.328,0.424-0.444,0.51-0.458c-0.061,0.01-0.248,0.01-0.387,0.011c-0.881,0.003-2.707,0.008-3.576,1.878l1.334-0.521
								l-6.346-2.629l-0.791,1.909l6.344,2.63l0.918,0.381l0.416-0.899c0.271-0.584,0.725-0.679,1.707-0.682
								c0.566-0.002,1.426-0.004,1.77-0.8c0.188-0.437,1-2.947,0.979-3.598c-0.025-0.861-0.736-1.635-2.115-2.297
								c-0.594-0.285-0.76-1.088-0.76-1.096l-0.168-0.832c-0.002-0.012-0.85-0.012-0.85-0.012h-6.793V41.685z"/>
						</g>
						<g i:knockout="Off">
							<path i:knockout="Off" fill="#189045" d="M66.978,46.822l6.305,2.614l-0.615-1.174c-0.041,0.187-0.359,1.854,0.777,3.115
								c0.607,0.673,0.656,0.989,0.656,0.993c0-0.001-0.01-0.068,0.029-0.172c-0.143,0.25-1.41,1.841-1.779,2.203
								c0.234-0.231,0.514-0.246,0.592-0.233c-0.064-0.01-0.254-0.076-0.395-0.124c-0.836-0.289-2.574-0.886-4.059,0.488
								l1.434,0.027l-4.83-4.831l-1.463,1.463l4.83,4.83l0.705,0.704l0.729-0.677c0.537-0.497,1.133-0.343,1.98-0.05
								c0.562,0.192,1.33,0.458,1.922-0.121c0.34-0.334,2.043-2.349,2.27-2.957c0.305-0.81-0.062-1.794-1.086-2.929
								c-0.441-0.489-0.291-1.294-0.289-1.303l0.16-0.829c0.002-0.012-0.777-0.334-0.777-0.334l-6.305-2.614L66.978,46.822z"/>
						</g>
					</g>
					<g>
						<g i:knockout="Off">
							<path i:knockout="Off" fill="#189045" d="M63.63,51.192l4.805,4.803l-0.117-1.322c-0.109,0.155-1.049,1.57-0.486,3.172
								c0.299,0.855,0.223,1.167,0.221,1.17c0,0,0.02-0.066,0.094-0.147c-0.229,0.177-2.012,1.154-2.49,1.345
								c0.332-0.132,0.613-0.015,0.684,0.037c-0.049-0.037-0.184-0.17-0.281-0.268c-0.623-0.62-1.92-1.909-3.857-1.2l1.311,0.574
								l-2.627-6.345l-1.91,0.792l2.627,6.345l0.379,0.915l0.932-0.341c0.604-0.221,0.992,0.032,1.688,0.727
								c0.402,0.399,1.012,1.005,1.818,0.686c0.441-0.176,2.791-1.378,3.236-1.851c0.59-0.63,0.635-1.68,0.129-3.121
								c-0.219-0.622,0.23-1.308,0.236-1.315l0.471-0.705c0.006-0.01-0.594-0.609-0.594-0.609l-4.803-4.803L63.63,51.192z"/>
						</g>
						<g i:knockout="Off">
							<path i:knockout="Off" fill="#189045" d="M58.974,53.802l2.609,6.304l0.396-1.264c-0.16,0.104-1.566,1.057-1.652,2.753
								c-0.049,0.904-0.236,1.162-0.238,1.165c0-0.001,0.043-0.055,0.143-0.101c-0.281,0.077-2.301,0.305-2.814,0.299
								c0.328,0.004,0.535,0.19,0.582,0.255c-0.039-0.054-0.127-0.235-0.193-0.369c-0.389-0.794-1.193-2.447-3.215-2.522
								l0.996,1.033v-6.832h-2.068v6.832v0.995l0.994,0.037c0.73,0.027,1.041,0.558,1.436,1.364
								c0.262,0.534,0.617,1.265,1.447,1.274c0.471,0.005,3.098-0.215,3.691-0.485c0.789-0.358,1.225-1.313,1.303-2.84
								c0.035-0.658,0.713-1.122,0.717-1.126l0.701-0.473c0.008-0.006-0.314-0.785-0.314-0.785l-2.609-6.307L58.974,53.802z"/>
						</g>
					</g>
					<g>
						<g i:knockout="Off">
							<path i:knockout="Off" fill="#189045" d="M53.519,54.523v6.794l0.854-1.019c-0.188,0.033-1.852,0.37-2.588,1.9
								c-0.395,0.816-0.668,0.98-0.67,0.981c0,0,0.059-0.032,0.168-0.036c-0.316-0.04-2.281-0.626-2.711-0.812
								c0.328,0.143,0.443,0.424,0.459,0.51c-0.01-0.061-0.012-0.25-0.012-0.388c-0.002-0.88-0.008-2.708-1.877-3.576l0.521,1.333
								l2.629-6.342l-1.91-0.792l-2.629,6.343l-0.381,0.916l0.898,0.417c0.584,0.271,0.68,0.725,0.682,1.707
								c0.002,0.566,0.004,1.426,0.801,1.771c0.357,0.153,2.922,1.001,3.596,0.979c0.863-0.027,1.637-0.739,2.297-2.115
								c0.287-0.595,1.09-0.761,1.098-0.762l0.832-0.166c0.012-0.003,0.012-0.851,0.012-0.851v-6.794H53.519z"/>
						</g>
						<g i:knockout="Off">
							<path i:knockout="Off" fill="#189045" d="M48.382,53.078l-2.613,6.303l1.172-0.614c-0.188-0.04-1.854-0.36-3.115,0.777
								c-0.672,0.606-0.988,0.655-0.992,0.655c0.002,0,0.07-0.009,0.174,0.03c-0.254-0.145-1.842-1.411-2.203-1.779
								c0.23,0.234,0.244,0.514,0.232,0.592c0.01-0.065,0.076-0.256,0.125-0.396c0.285-0.836,0.885-2.575-0.49-4.059l-0.027,1.435
								l4.83-4.83l-1.461-1.463l-4.832,4.831l-0.703,0.704l0.678,0.73c0.494,0.534,0.342,1.13,0.049,1.978
								c-0.191,0.562-0.457,1.331,0.121,1.924c0.33,0.338,2.346,2.041,2.957,2.27c0.807,0.302,1.793-0.062,2.928-1.087
								c0.49-0.442,1.295-0.291,1.303-0.29l0.828,0.161c0.012,0.002,0.338-0.778,0.338-0.778l2.613-6.302L48.382,53.078z"/>
						</g>
					</g>
					<g>
						<g i:knockout="Off">
							<path i:knockout="Off" fill="#189045" d="M44.013,49.729l-4.803,4.803l1.322-0.116c-0.156-0.108-1.572-1.047-3.174-0.486
								c-0.855,0.3-1.166,0.223-1.168,0.222c0,0,0.064,0.018,0.145,0.094c-0.195-0.254-1.17-2.056-1.342-2.491
								c0.131,0.333,0.014,0.613-0.037,0.686c0.037-0.052,0.168-0.186,0.268-0.284c0.619-0.622,1.91-1.919,1.201-3.855l-0.578,1.311
								l6.346-2.625l-0.789-1.91l-6.346,2.626l-0.916,0.379l0.34,0.931c0.221,0.603-0.033,0.991-0.725,1.688
								c-0.4,0.402-1.004,1.012-0.686,1.817c0.145,0.362,1.357,2.776,1.85,3.237c0.629,0.59,1.68,0.634,3.121,0.129
								c0.623-0.219,1.309,0.231,1.316,0.236l0.705,0.471c0.01,0.006,0.609-0.594,0.609-0.594l4.801-4.803L44.013,49.729z"/>
						</g>
						<g i:knockout="Off">
							<path i:knockout="Off" fill="#189045" d="M41.404,45.075l-6.305,2.607l1.262,0.395c-0.102-0.16-1.057-1.564-2.752-1.651
								c-0.902-0.046-1.16-0.236-1.164-0.238c0.002,0.001,0.055,0.042,0.1,0.145c-0.076-0.285-0.305-2.302-0.299-2.815
								c-0.004,0.327-0.191,0.534-0.256,0.58c0.053-0.038,0.236-0.126,0.369-0.191c0.795-0.388,2.447-1.193,2.523-3.215
								l-1.033,0.995h6.832v-2.067h-6.832h-0.994l-0.039,0.995c-0.027,0.729-0.557,1.041-1.363,1.434
								c-0.533,0.262-1.266,0.618-1.275,1.447c-0.006,0.471,0.215,3.099,0.486,3.694c0.357,0.785,1.312,1.225,2.84,1.302
								c0.658,0.034,1.123,0.71,1.127,0.717l0.473,0.698c0.006,0.01,0.785-0.312,0.785-0.312l6.305-2.607L41.404,45.075z"/>
						</g>
					</g>
					<g>
						<g i:knockout="Off">
							<path i:knockout="Off" fill="#189045" d="M40.681,39.618h-6.793l1.018,0.854c-0.033-0.188-0.371-1.853-1.9-2.589
								c-0.816-0.393-0.98-0.668-0.982-0.67c0.002,0.001,0.033,0.06,0.037,0.173c0.041-0.321,0.627-2.284,0.812-2.716
								c-0.143,0.33-0.424,0.445-0.512,0.46c0.061-0.01,0.252-0.011,0.391-0.012c0.877-0.002,2.707-0.007,3.572-1.877l-1.332,0.521
								l6.344,2.628l0.791-1.909l-6.344-2.629l-0.914-0.381l-0.42,0.9c-0.27,0.582-0.723,0.678-1.703,0.68
								c-0.57,0.002-1.426,0.004-1.771,0.801c-0.154,0.357-1.002,2.925-0.98,3.598c0.027,0.859,0.738,1.633,2.115,2.297
								c0.596,0.286,0.762,1.088,0.764,1.097l0.166,0.831c0.002,0.012,0.85,0.012,0.85,0.012h6.793V39.618z"/>
						</g>
						<g i:knockout="Off">
							<path i:knockout="Off" fill="#189045" d="M42.126,34.48l-6.301-2.613l0.613,1.172c0.039-0.186,0.357-1.853-0.779-3.114
								c-0.605-0.671-0.652-0.987-0.652-0.99c0,0,0.006,0.068-0.031,0.173c0.145-0.256,1.41-1.845,1.777-2.205
								c-0.234,0.23-0.512,0.244-0.592,0.232c0.064,0.009,0.258,0.075,0.396,0.124c0.836,0.288,2.576,0.887,4.057-0.488
								l-1.434-0.027l4.832,4.831l1.461-1.463l-4.83-4.83l-0.703-0.704l-0.73,0.677c-0.533,0.497-1.131,0.342-1.979,0.05
								c-0.562-0.192-1.33-0.458-1.924,0.12c-0.338,0.333-2.043,2.349-2.27,2.959c-0.303,0.805,0.062,1.791,1.086,2.927
								c0.441,0.49,0.291,1.297,0.291,1.305l-0.16,0.828c-0.002,0.012,0.777,0.334,0.777,0.334l6.303,2.613L42.126,34.48z"/>
						</g>
					</g>
					<g>
						<g i:knockout="Off">
							<path i:knockout="Off" fill="#189045" d="M45.474,30.111l-4.801-4.803l0.115,1.322c0.109-0.155,1.047-1.571,0.486-3.173
								c-0.301-0.855-0.223-1.166-0.223-1.169c0,0-0.018,0.066-0.096,0.149c0.258-0.199,2.059-1.174,2.494-1.347
								c-0.334,0.132-0.613,0.015-0.686-0.037c0.051,0.037,0.184,0.17,0.283,0.268c0.623,0.62,1.92,1.909,3.855,1.2l-1.311-0.575
								l2.627,6.345l1.91-0.791l-2.627-6.345l-0.379-0.916l-0.932,0.341c-0.604,0.221-0.992-0.032-1.688-0.726
								c-0.4-0.399-1.01-1.005-1.816-0.686c-0.361,0.144-2.775,1.359-3.236,1.853c-0.59,0.624-0.635,1.674-0.129,3.118
								c0.217,0.624-0.232,1.31-0.236,1.316l-0.471,0.705c-0.006,0.01,0.594,0.608,0.594,0.608l4.803,4.804L45.474,30.111z"/>
						</g>
						<g i:knockout="Off">
							<path i:knockout="Off" fill="#189045" d="M50.13,27.5l-2.609-6.304l-0.395,1.264c0.16-0.104,1.564-1.058,1.652-2.753
								c0.047-0.903,0.234-1.161,0.236-1.164c0,0-0.041,0.056-0.141,0.101c0.281-0.078,2.299-0.307,2.814-0.301
								c-0.328-0.004-0.535-0.19-0.582-0.256c0.037,0.054,0.129,0.236,0.191,0.369c0.389,0.796,1.195,2.448,3.215,2.523
								l-0.994-1.032v6.832h2.068v-6.832v-0.995l-0.996-0.038c-0.729-0.027-1.041-0.558-1.434-1.363
								c-0.26-0.534-0.617-1.266-1.445-1.275c-0.473-0.006-3.104,0.215-3.695,0.487c-0.787,0.356-1.225,1.311-1.303,2.839
								c-0.033,0.658-0.711,1.122-0.717,1.128l-0.699,0.472c-0.01,0.007,0.312,0.785,0.312,0.785l2.609,6.305L50.13,27.5z"/>
						</g>
					</g>
					<g>
						<g i:knockout="Off">
							<path i:knockout="Off" fill="#189045" d="M55.587,26.78v-6.794l-0.854,1.019c0.189-0.033,1.852-0.371,2.588-1.9
								c0.393-0.816,0.668-0.98,0.67-0.981c0,0-0.061,0.033-0.174,0.036c0.322,0.04,2.285,0.626,2.715,0.811
								c-0.328-0.142-0.443-0.423-0.457-0.51c0.01,0.061,0.01,0.251,0.01,0.389c0.004,0.879,0.008,2.708,1.879,3.575l-0.521-1.333
								l-2.629,6.344l1.91,0.791l2.629-6.344l0.381-0.915l-0.9-0.418c-0.582-0.271-0.678-0.724-0.68-1.706
								c0-0.567-0.004-1.426-0.801-1.771c-0.357-0.153-2.924-1-3.598-0.978c-0.857,0.023-1.633,0.735-2.297,2.113
								c-0.287,0.596-1.09,0.763-1.098,0.764l-0.83,0.166c-0.012,0.002-0.012,0.85-0.012,0.85v6.794H55.587z"/>
						</g>
						<g i:knockout="Off">
							<path i:knockout="Off" fill="#189045" d="M60.724,28.225l2.615-6.303l-1.176,0.615c0.188,0.039,1.855,0.357,3.115-0.779
								c0.672-0.606,0.99-0.654,0.992-0.654c0,0-0.068,0.008-0.172-0.03c0.256,0.146,1.846,1.41,2.203,1.777
								c-0.229-0.233-0.244-0.513-0.23-0.591c-0.012,0.065-0.078,0.256-0.125,0.396c-0.289,0.836-0.887,2.575,0.488,4.058
								l0.025-1.435l-4.83,4.831l1.463,1.463l4.83-4.832l0.703-0.703l-0.676-0.73c-0.496-0.535-0.342-1.131-0.051-1.979
								c0.195-0.562,0.459-1.331-0.121-1.924c-0.318-0.326-2.355-2.044-2.955-2.27c-0.807-0.301-1.793,0.063-2.928,1.086
								c-0.492,0.443-1.297,0.293-1.305,0.292l-0.828-0.161c-0.012-0.002-0.334,0.778-0.334,0.778l-2.615,6.303L60.724,28.225z"/>
						</g>
					</g>
					<g>
						<g i:knockout="Off">
							<path i:knockout="Off" fill="#189045" d="M65.093,31.574l4.803-4.803l-1.322,0.117c0.156,0.108,1.57,1.045,3.174,0.485
								c0.854-0.299,1.164-0.223,1.168-0.223c0,0-0.068-0.018-0.15-0.096c0.18,0.232,1.156,2.015,1.35,2.494
								c-0.133-0.334-0.016-0.613,0.035-0.687c-0.035,0.053-0.17,0.187-0.268,0.285c-0.619,0.622-1.908,1.919-1.199,3.854
								l0.574-1.311l-6.346,2.626l0.793,1.91l6.344-2.627l0.914-0.378l-0.34-0.932c-0.221-0.603,0.033-0.991,0.725-1.687
								c0.402-0.402,1.008-1.012,0.688-1.818c-0.176-0.442-1.379-2.792-1.852-3.236c-0.625-0.59-1.676-0.634-3.121-0.129
								c-0.621,0.219-1.309-0.231-1.316-0.236l-0.703-0.469c-0.01-0.007-0.607,0.592-0.607,0.592l-4.805,4.803L65.093,31.574z"/>
						</g>
						<g i:knockout="Off">
							<path i:knockout="Off" fill="#189045" d="M67.705,36.228l6.305-2.609l-1.266-0.394c0.104,0.159,1.057,1.564,2.754,1.652
								c0.902,0.046,1.16,0.236,1.164,0.238c-0.002-0.001-0.055-0.042-0.1-0.144c0.076,0.284,0.305,2.301,0.297,2.812
								c0.004-0.325,0.191-0.532,0.256-0.579c-0.053,0.038-0.236,0.127-0.369,0.191c-0.793,0.388-2.447,1.194-2.521,3.215
								l1.033-0.994h-6.832v2.067h6.832h0.996l0.035-0.995c0.027-0.729,0.559-1.042,1.365-1.434
								c0.533-0.262,1.266-0.619,1.273-1.447c0.006-0.455-0.219-3.11-0.484-3.694c-0.359-0.785-1.314-1.224-2.84-1.303
								c-0.658-0.033-1.123-0.71-1.127-0.717l-0.473-0.699c-0.006-0.01-0.787,0.312-0.787,0.312l-6.305,2.609L67.705,36.228z"/>
						</g>
					</g>
				</g>
			</g>
		</g>
	</g>
</g>
</svg>
