<?xml version="1.0" encoding="utf-8"?>
<!-- Generator: Adobe Illustrator 12.0.0, SVG Export Plug-In . SVG Version: 6.00 Build 51448)  -->
<!DOCTYPE svg PUBLIC "-//W3C//DTD SVG 1.1//EN" "http://www.w3.org/Graphics/SVG/1.1/DTD/svg11.dtd" [
	<!ENTITY ns_flows "http://ns.adobe.com/Flows/1.0/">
	<!ENTITY ns_extend "http://ns.adobe.com/Extensibility/1.0/">
	<!ENTITY ns_ai "http://ns.adobe.com/AdobeIllustrator/10.0/">
	<!ENTITY ns_graphs "http://ns.adobe.com/Graphs/1.0/">
	<!ENTITY ns_vars "http://ns.adobe.com/Variables/1.0/">
	<!ENTITY ns_imrep "http://ns.adobe.com/ImageReplacement/1.0/">
	<!ENTITY ns_sfw "http://ns.adobe.com/SaveForWeb/1.0/">
	<!ENTITY ns_custom "http://ns.adobe.com/GenericCustomNamespace/1.0/">
	<!ENTITY ns_adobe_xpath "http://ns.adobe.com/XPath/1.0/">
	<!ENTITY ns_svg "http://www.w3.org/2000/svg">
	<!ENTITY ns_xlink "http://www.w3.org/1999/xlink">
]>
<svg  version="1.1"
	 xmlns:x="&ns_extend;" xmlns:i="&ns_ai;" xmlns:graph="&ns_graphs;" i:viewOrigin="-0.3208 113.645" i:rulerOrigin="0 0" i:pageBounds="0 113 108 0"
	 xmlns="&ns_svg;" xmlns:xlink="&ns_xlink;" xmlns:a="http://ns.adobe.com/AdobeSVGViewerExtensions/3.0/"
	 width="109.1" height="113.832" viewBox="0 0 109.1 113.832" overflow="visible" enable-background="new 0 0 109.1 113.832"
	 xml:space="preserve">
<metadata>
	<variableSets  xmlns="&ns_vars;">
		<variableSet  varSetName="binding1" locked="none">
			<variables></variables>
			<v:sampleDataSets  xmlns="&ns_custom;" xmlns:v="&ns_vars;"></v:sampleDataSets>
		</variableSet>
	</variableSets>
</metadata>
<g id="图层_1" i:layer="yes" i:dimmedPercent="50" i:rgbTrio="#4F008000FFFF">
	<g>
		
			<linearGradient id="XMLID_3_" gradientUnits="userSpaceOnUse" x1="935.4341" y1="81.0015" x2="1020.2271" y2="81.0015" gradientTransform="matrix(0 -1 1 0 -26.8223 1049.0791)">
			<stop  offset="0.1348" style="stop-color:#1889BC"/>
			<stop  offset="0.2247" style="stop-color:#C4E9F2"/>
			<a:midPointStop  offset="0.1348" style="stop-color:#1889BC"/>
			<a:midPointStop  offset="0.5" style="stop-color:#1889BC"/>
			<a:midPointStop  offset="0.2247" style="stop-color:#C4E9F2"/>
		</linearGradient>
		<path i:knockout="Off" fill="url(#XMLID_3_)" stroke="#000000" stroke-width="0.3739" d="M100.037,28.852
			c4.418,0,8.001,3.42,8.001,7.638v69.518c0,4.218-3.583,7.638-8.001,7.638H8.321c-4.418,0-8-3.42-8-7.638V36.49
			c0-4.218,3.582-7.638,8-7.638H100.037z"/>
		<path i:knockout="Off" fill="#FFFFFF" stroke="#000000" stroke-width="0.6414" d="M8.377,85.36c-4.449,0-8.057-3.43-8.057-7.66
			V7.98c0-4.23,3.607-7.659,8.057-7.659h92.348c4.447,0,8.055,3.429,8.055,7.659V77.7c0,4.23-3.607,7.66-8.055,7.66H8.377z"/>
		
			<linearGradient id="XMLID_4_" gradientUnits="userSpaceOnUse" x1="-229.9092" y1="-254.2622" x2="-144.8701" y2="-254.2622" gradientTransform="matrix(0 1 -1 0 -199.7119 230.23)">
			<stop  offset="0" style="stop-color:#A3DDEA"/>
			<stop  offset="0.0899" style="stop-color:#0678B3"/>
			<stop  offset="0.2135" style="stop-color:#094C91"/>
			<stop  offset="0.6404" style="stop-color:#2890C0"/>
			<stop  offset="0.8034" style="stop-color:#82D0E3"/>
			<stop  offset="1" style="stop-color:#09468C"/>
			<a:midPointStop  offset="0" style="stop-color:#A3DDEA"/>
			<a:midPointStop  offset="0.5" style="stop-color:#A3DDEA"/>
			<a:midPointStop  offset="0.0899" style="stop-color:#0678B3"/>
			<a:midPointStop  offset="0.5" style="stop-color:#0678B3"/>
			<a:midPointStop  offset="0.2135" style="stop-color:#094C91"/>
			<a:midPointStop  offset="0.5" style="stop-color:#094C91"/>
			<a:midPointStop  offset="0.6404" style="stop-color:#2890C0"/>
			<a:midPointStop  offset="0.5" style="stop-color:#2890C0"/>
			<a:midPointStop  offset="0.8034" style="stop-color:#82D0E3"/>
			<a:midPointStop  offset="0.5" style="stop-color:#82D0E3"/>
			<a:midPointStop  offset="1" style="stop-color:#09468C"/>
		</linearGradient>
		<path i:knockout="Off" opacity="0.1" fill="url(#XMLID_4_)" stroke="#000000" stroke-width="0.6414" d="M8.377,85.36
			c-4.449,0-8.057-3.43-8.057-7.66V7.98c0-4.23,3.607-7.659,8.057-7.659h92.348c4.448,0,8.055,3.429,8.055,7.659V77.7
			c0,4.23-3.606,7.66-8.055,7.66H8.377z"/>
		<g>
			<circle i:knockout="Off" fill="#FFFFFF" cx="24.825" cy="52.044" r="10.771"/>
			<path i:knockout="Off" fill="#1D8F38" d="M14.053,52.044c0,5.947,4.822,10.771,10.771,10.771s10.771-4.824,10.771-10.771
				c0-5.949-4.822-10.771-10.771-10.771S14.053,46.095,14.053,52.044z M32.061,52.044c0,3.998-3.24,7.236-7.236,7.236
				s-7.236-3.238-7.236-7.236c0-3.996,3.24-7.234,7.236-7.234S32.061,48.048,32.061,52.044z M19.612,52.044
				c0,2.879,2.334,5.213,5.213,5.213s5.213-2.334,5.213-5.213s-2.334-5.211-5.213-5.211S19.612,49.166,19.612,52.044z M28.17,52.044
				c0,1.85-1.498,3.348-3.346,3.348s-3.348-1.498-3.348-3.348c0-1.848,1.5-3.346,3.348-3.346S28.17,50.197,28.17,52.044z
				 M23.381,52.044c0,0.797,0.646,1.443,1.443,1.443s1.441-0.646,1.441-1.443s-0.645-1.441-1.441-1.441S23.381,51.248,23.381,52.044
				z"/>
		</g>
		<g>
			<circle i:knockout="Off" fill="#FFFFFF" cx="24.825" cy="29.267" r="10.771"/>
			<path i:knockout="Off" fill="#1D8F38" d="M14.051,29.267c0,5.947,4.824,10.771,10.773,10.771s10.773-4.824,10.773-10.771
				c0-5.949-4.824-10.771-10.773-10.771S14.051,23.318,14.051,29.267z M32.061,29.267c0,3.996-3.24,7.236-7.236,7.236
				s-7.236-3.24-7.236-7.236s3.24-7.234,7.236-7.234S32.061,25.271,32.061,29.267z M19.612,29.267c0,2.879,2.334,5.213,5.213,5.213
				s5.213-2.334,5.213-5.213s-2.334-5.211-5.213-5.211S19.612,26.388,19.612,29.267z M28.17,29.267c0,1.848-1.498,3.346-3.346,3.346
				s-3.348-1.498-3.348-3.346c0-1.85,1.5-3.348,3.348-3.348S28.17,27.417,28.17,29.267z M23.381,29.267
				c0,0.795,0.646,1.443,1.443,1.443s1.441-0.648,1.441-1.443c0-0.797-0.645-1.443-1.441-1.443S23.381,28.47,23.381,29.267z"/>
		</g>
		<g>
			<circle i:knockout="Off" fill="#FFFFFF" cx="62.301" cy="52.044" r="10.771"/>
			<path i:knockout="Off" fill="#D90000" d="M51.526,52.044c0,5.947,4.824,10.771,10.773,10.771s10.773-4.824,10.773-10.771
				c0-5.949-4.824-10.771-10.773-10.771S51.526,46.095,51.526,52.044z M69.536,52.044c0,3.998-3.24,7.236-7.236,7.236
				c-3.994,0-7.236-3.238-7.236-7.236c0-3.996,3.242-7.234,7.236-7.234C66.295,44.81,69.536,48.048,69.536,52.044z M57.086,52.044
				c0,2.879,2.334,5.213,5.213,5.213s5.213-2.334,5.213-5.213s-2.334-5.211-5.213-5.211S57.086,49.166,57.086,52.044z
				 M65.647,52.044c0,1.85-1.5,3.348-3.348,3.348s-3.346-1.498-3.346-3.348c0-1.848,1.498-3.346,3.346-3.346
				S65.647,50.197,65.647,52.044z M60.856,52.044c0,0.797,0.646,1.443,1.443,1.443s1.441-0.646,1.441-1.443
				s-0.645-1.441-1.441-1.441S60.856,51.248,60.856,52.044z"/>
		</g>
		<g>
			<circle i:knockout="Off" fill="#FFFFFF" cx="62.301" cy="29.267" r="10.771"/>
			<path i:knockout="Off" fill="#D90000" d="M51.526,29.267c0,5.947,4.824,10.771,10.773,10.771s10.773-4.824,10.773-10.771
				c0-5.949-4.824-10.771-10.773-10.771S51.526,23.318,51.526,29.267z M69.536,29.267c0,3.996-3.238,7.236-7.236,7.236
				c-3.996,0-7.236-3.24-7.236-7.236s3.24-7.234,7.236-7.234C66.297,22.033,69.536,25.271,69.536,29.267z M57.086,29.267
				c0,2.879,2.334,5.213,5.213,5.213s5.213-2.334,5.213-5.213s-2.334-5.211-5.213-5.211S57.086,26.388,57.086,29.267z
				 M65.647,29.267c0,1.848-1.5,3.346-3.348,3.346s-3.346-1.498-3.346-3.346c0-1.85,1.498-3.348,3.346-3.348
				S65.647,27.417,65.647,29.267z M60.856,29.267c0,0.795,0.646,1.443,1.443,1.443s1.441-0.648,1.441-1.443
				c0-0.797-0.645-1.443-1.441-1.443S60.856,28.47,60.856,29.267z"/>
		</g>
		<g>
			<circle i:knockout="Off" fill="#FFFFFF" cx="84.278" cy="52.044" r="10.771"/>
			<path i:knockout="Off" fill="#D90000" d="M73.504,52.044c0,5.947,4.824,10.771,10.773,10.771c5.947,0,10.771-4.824,10.771-10.771
				c0-5.949-4.824-10.771-10.771-10.771C78.329,41.273,73.504,46.095,73.504,52.044z M91.512,52.044
				c0,3.998-3.238,7.236-7.234,7.236s-7.236-3.238-7.236-7.236c0-3.996,3.24-7.234,7.236-7.234S91.512,48.048,91.512,52.044z
				 M79.063,52.044c0,2.879,2.334,5.213,5.213,5.213s5.213-2.334,5.213-5.213s-2.334-5.211-5.213-5.211S79.063,49.166,79.063,52.044
				z M87.624,52.044c0,1.85-1.5,3.348-3.348,3.348s-3.346-1.498-3.346-3.348c0-1.848,1.498-3.346,3.346-3.346
				S87.624,50.197,87.624,52.044z M82.833,52.044c0,0.797,0.646,1.443,1.443,1.443s1.443-0.646,1.443-1.443
				s-0.646-1.441-1.443-1.441S82.833,51.248,82.833,52.044z"/>
		</g>
		<g>
			<circle i:knockout="Off" fill="#FFFFFF" cx="84.278" cy="29.267" r="10.771"/>
			<path i:knockout="Off" fill="#D90000" d="M73.504,29.267c0,5.947,4.824,10.771,10.773,10.771c5.947,0,10.771-4.824,10.771-10.771
				c0-5.949-4.824-10.771-10.771-10.771C78.329,18.496,73.504,23.318,73.504,29.267z M91.512,29.267
				c0,3.996-3.238,7.236-7.234,7.236c-3.998,0-7.236-3.24-7.236-7.236s3.238-7.234,7.236-7.234
				C88.274,22.033,91.512,25.271,91.512,29.267z M79.063,29.267c0,2.879,2.334,5.213,5.213,5.213s5.213-2.334,5.213-5.213
				s-2.334-5.211-5.213-5.211S79.063,26.388,79.063,29.267z M87.624,29.267c0,1.848-1.5,3.346-3.348,3.346s-3.346-1.498-3.346-3.346
				c0-1.85,1.498-3.348,3.346-3.348S87.624,27.417,87.624,29.267z M82.833,29.267c0,0.795,0.646,1.443,1.443,1.443
				s1.443-0.648,1.443-1.443c0-0.797-0.646-1.443-1.443-1.443S82.833,28.47,82.833,29.267z"/>
		</g>
	</g>
</g>
</svg>
