<?xml version="1.0" encoding="utf-8"?>
<!-- Generator: Adobe Illustrator 12.0.0, SVG Export Plug-In . SVG Version: 6.00 Build 51448)  -->
<!DOCTYPE svg PUBLIC "-//W3C//DTD SVG 1.1//EN" "http://www.w3.org/Graphics/SVG/1.1/DTD/svg11.dtd" [
	<!ENTITY ns_flows "http://ns.adobe.com/Flows/1.0/">
	<!ENTITY ns_extend "http://ns.adobe.com/Extensibility/1.0/">
	<!ENTITY ns_ai "http://ns.adobe.com/AdobeIllustrator/10.0/">
	<!ENTITY ns_graphs "http://ns.adobe.com/Graphs/1.0/">
	<!ENTITY ns_vars "http://ns.adobe.com/Variables/1.0/">
	<!ENTITY ns_imrep "http://ns.adobe.com/ImageReplacement/1.0/">
	<!ENTITY ns_sfw "http://ns.adobe.com/SaveForWeb/1.0/">
	<!ENTITY ns_custom "http://ns.adobe.com/GenericCustomNamespace/1.0/">
	<!ENTITY ns_adobe_xpath "http://ns.adobe.com/XPath/1.0/">
	<!ENTITY ns_svg "http://www.w3.org/2000/svg">
	<!ENTITY ns_xlink "http://www.w3.org/1999/xlink">
]>
<svg  version="1.1"
	 xmlns:x="&ns_extend;" xmlns:i="&ns_ai;" xmlns:graph="&ns_graphs;" i:viewOrigin="-0.3208 113.645" i:rulerOrigin="0 0" i:pageBounds="0 113 108 0"
	 xmlns="&ns_svg;" xmlns:xlink="&ns_xlink;" xmlns:a="http://ns.adobe.com/AdobeSVGViewerExtensions/3.0/"
	 width="109.1" height="113.832" viewBox="0 0 109.1 113.832" overflow="visible" enable-background="new 0 0 109.1 113.832"
	 xml:space="preserve">
<metadata>
	<variableSets  xmlns="&ns_vars;">
		<variableSet  varSetName="binding1" locked="none">
			<variables></variables>
			<v:sampleDataSets  xmlns="&ns_custom;" xmlns:v="&ns_vars;"></v:sampleDataSets>
		</variableSet>
	</variableSets>
</metadata>
<g id="图层_1" i:layer="yes" i:dimmedPercent="50" i:rgbTrio="#4F008000FFFF">
	<g>
		
			<linearGradient id="XMLID_3_" gradientUnits="userSpaceOnUse" x1="935.4341" y1="81.0015" x2="1020.2271" y2="81.0015" gradientTransform="matrix(0 -1 1 0 -26.8223 1049.0791)">
			<stop  offset="0.1348" style="stop-color:#1889BC"/>
			<stop  offset="0.2247" style="stop-color:#C4E9F2"/>
			<a:midPointStop  offset="0.1348" style="stop-color:#1889BC"/>
			<a:midPointStop  offset="0.5" style="stop-color:#1889BC"/>
			<a:midPointStop  offset="0.2247" style="stop-color:#C4E9F2"/>
		</linearGradient>
		<path i:knockout="Off" fill="url(#XMLID_3_)" stroke="#000000" stroke-width="0.3739" d="M100.038,28.852c4.418,0,8,3.42,8,7.638
			v69.518c0,4.218-3.582,7.638-8,7.638H8.321c-4.418,0-8-3.42-8-7.638V36.49c0-4.218,3.582-7.638,8-7.638H100.038z"/>
		<path i:knockout="Off" fill="#FFFFFF" stroke="#000000" stroke-width="0.6414" d="M8.377,85.36c-4.449,0-8.057-3.43-8.057-7.66
			V7.98c0-4.23,3.607-7.659,8.057-7.659h92.348c4.447,0,8.055,3.429,8.055,7.659V77.7c0,4.23-3.607,7.66-8.055,7.66H8.377z"/>
		
			<linearGradient id="XMLID_4_" gradientUnits="userSpaceOnUse" x1="-229.9092" y1="-254.2622" x2="-144.8701" y2="-254.2622" gradientTransform="matrix(0 1 -1 0 -199.7119 230.23)">
			<stop  offset="0" style="stop-color:#A3DDEA"/>
			<stop  offset="0.0899" style="stop-color:#0678B3"/>
			<stop  offset="0.2135" style="stop-color:#094C91"/>
			<stop  offset="0.6404" style="stop-color:#2890C0"/>
			<stop  offset="0.8034" style="stop-color:#82D0E3"/>
			<stop  offset="1" style="stop-color:#09468C"/>
			<a:midPointStop  offset="0" style="stop-color:#A3DDEA"/>
			<a:midPointStop  offset="0.5" style="stop-color:#A3DDEA"/>
			<a:midPointStop  offset="0.0899" style="stop-color:#0678B3"/>
			<a:midPointStop  offset="0.5" style="stop-color:#0678B3"/>
			<a:midPointStop  offset="0.2135" style="stop-color:#094C91"/>
			<a:midPointStop  offset="0.5" style="stop-color:#094C91"/>
			<a:midPointStop  offset="0.6404" style="stop-color:#2890C0"/>
			<a:midPointStop  offset="0.5" style="stop-color:#2890C0"/>
			<a:midPointStop  offset="0.8034" style="stop-color:#82D0E3"/>
			<a:midPointStop  offset="0.5" style="stop-color:#82D0E3"/>
			<a:midPointStop  offset="1" style="stop-color:#09468C"/>
		</linearGradient>
		<path i:knockout="Off" opacity="0.1" fill="url(#XMLID_4_)" stroke="#000000" stroke-width="0.6414" d="M8.377,85.36
			c-4.449,0-8.057-3.43-8.057-7.66V7.98c0-4.23,3.607-7.659,8.057-7.659h92.348c4.449,0,8.055,3.429,8.055,7.659V77.7
			c0,4.23-3.605,7.66-8.055,7.66H8.377z"/>
		<circle i:knockout="Off" fill="#FFFFFF" cx="24.573" cy="59.754" r="10.771"/>
		<circle i:knockout="Off" fill="#FFFFFF" cx="32.723" cy="40.836" r="10.771"/>
		<circle i:knockout="Off" fill="#FFFFFF" cx="39.502" cy="21.557" r="10.771"/>
		<circle i:knockout="Off" fill="#FFFFFF" cx="63.731" cy="51.821" r="10.771"/>
		<circle i:knockout="Off" fill="#FFFFFF" cx="63.731" cy="30.211" r="10.771"/>
		<circle i:knockout="Off" fill="#FFFFFF" cx="84.526" cy="51.821" r="10.771"/>
		<circle i:knockout="Off" fill="#FFFFFF" cx="84.526" cy="30.211" r="10.771"/>
		<path i:knockout="Off" fill="#D90000" d="M52.958,51.823c0,5.947,4.824,10.77,10.773,10.77s10.771-4.822,10.771-10.77
			c0-5.949-4.822-10.773-10.771-10.773S52.958,45.874,52.958,51.823z M70.967,51.823c0,3.996-3.24,7.234-7.236,7.234
			s-7.236-3.238-7.236-7.234s3.24-7.236,7.236-7.236S70.967,47.827,70.967,51.823z M58.516,51.823c0,2.877,2.334,5.211,5.215,5.211
			c2.879,0,5.213-2.334,5.213-5.211c0-2.881-2.334-5.215-5.213-5.215C60.85,46.608,58.516,48.942,58.516,51.823z M67.077,51.823
			c0,1.846-1.498,3.346-3.346,3.346c-1.85,0-3.348-1.5-3.348-3.346c0-1.85,1.498-3.348,3.348-3.348
			C65.579,48.475,67.077,49.973,67.077,51.823z M62.286,51.823c0,0.797,0.646,1.441,1.445,1.441c0.797,0,1.441-0.645,1.441-1.441
			s-0.645-1.441-1.441-1.441C62.932,50.381,62.286,51.026,62.286,51.823z"/>
		<path i:knockout="Off" fill="#D90000" d="M52.958,30.213c0,5.947,4.824,10.77,10.773,10.77s10.771-4.822,10.771-10.77
			c0-5.949-4.822-10.773-10.771-10.773S52.958,24.264,52.958,30.213z M70.967,30.213c0,3.996-3.24,7.234-7.236,7.234
			s-7.236-3.238-7.236-7.234s3.24-7.236,7.236-7.236S70.967,26.217,70.967,30.213z M58.516,30.213c0,2.877,2.334,5.211,5.215,5.211
			c2.879,0,5.213-2.334,5.213-5.211c0-2.881-2.334-5.215-5.213-5.215C60.85,24.999,58.516,27.333,58.516,30.213z M67.077,30.213
			c0,1.846-1.498,3.346-3.346,3.346c-1.85,0-3.348-1.5-3.348-3.346c0-1.85,1.498-3.348,3.348-3.348
			C65.579,26.866,67.077,28.364,67.077,30.213z M62.286,30.213c0,0.797,0.646,1.441,1.445,1.441c0.797,0,1.441-0.645,1.441-1.441
			s-0.645-1.441-1.441-1.441C62.932,28.772,62.286,29.417,62.286,30.213z"/>
		<path i:knockout="Off" fill="#D90000" d="M73.754,51.823c0,5.947,4.822,10.77,10.771,10.77s10.771-4.822,10.771-10.77
			c0-5.949-4.822-10.773-10.771-10.773S73.754,45.874,73.754,51.823z M91.762,51.823c0,3.996-3.238,7.234-7.236,7.234
			c-3.996,0-7.236-3.238-7.236-7.234s3.24-7.236,7.236-7.236C88.524,44.586,91.762,47.827,91.762,51.823z M79.313,51.823
			c0,2.877,2.334,5.211,5.213,5.211s5.213-2.334,5.213-5.211c0-2.881-2.334-5.215-5.213-5.215S79.313,48.942,79.313,51.823z
			 M87.872,51.823c0,1.846-1.498,3.346-3.346,3.346s-3.348-1.5-3.348-3.346c0-1.85,1.5-3.348,3.348-3.348
			S87.872,49.973,87.872,51.823z M83.083,51.823c0,0.797,0.645,1.441,1.443,1.441c0.797,0,1.441-0.645,1.441-1.441
			s-0.645-1.441-1.441-1.441C83.727,50.381,83.083,51.026,83.083,51.823z"/>
		<path i:knockout="Off" fill="#D90000" d="M73.754,30.213c0,5.947,4.822,10.77,10.771,10.77s10.771-4.822,10.771-10.77
			c0-5.949-4.822-10.773-10.771-10.773S73.754,24.264,73.754,30.213z M91.762,30.213c0,3.996-3.238,7.234-7.236,7.234
			c-3.996,0-7.236-3.238-7.236-7.234s3.24-7.236,7.236-7.236C88.524,22.977,91.762,26.217,91.762,30.213z M79.313,30.213
			c0,2.877,2.334,5.211,5.213,5.211s5.213-2.334,5.213-5.211c0-2.881-2.334-5.215-5.213-5.215S79.313,27.333,79.313,30.213z
			 M87.872,30.213c0,1.846-1.498,3.346-3.346,3.346s-3.348-1.5-3.348-3.346c0-1.85,1.5-3.348,3.348-3.348
			S87.872,28.364,87.872,30.213z M83.083,30.213c0,0.797,0.645,1.441,1.443,1.441c0.797,0,1.441-0.645,1.441-1.441
			s-0.645-1.441-1.441-1.441C83.727,28.772,83.083,29.417,83.083,30.213z"/>
		<path i:knockout="Off" fill="#1D8F38" d="M14.438,56.118c-2.01,5.598,0.9,11.764,6.5,13.773c5.598,2.006,11.764-0.902,13.771-6.5
			s-0.9-11.764-6.498-13.773C22.612,47.608,16.446,50.522,14.438,56.118z M27.018,52.948c3.76,1.348,5.713,5.49,4.365,9.25
			c-1.35,3.76-5.492,5.715-9.252,4.365s-5.717-5.49-4.367-9.252C19.114,53.551,23.258,51.598,27.018,52.948z M19.668,57.995
			c-0.971,2.709,0.438,5.691,3.145,6.664c2.709,0.973,5.693-0.436,6.664-3.145c0.975-2.709-0.434-5.693-3.145-6.666
			C23.625,53.877,20.641,55.284,19.668,57.995z M25.704,56.604c1.738,0.627,2.643,2.541,2.018,4.279
			c-0.623,1.74-2.539,2.645-4.279,2.02c-1.738-0.623-2.643-2.539-2.018-4.279C22.047,56.885,23.963,55.981,25.704,56.604z
			 M23.215,59.268c-0.268,0.748,0.121,1.574,0.869,1.842c0.75,0.27,1.576-0.119,1.844-0.869c0.27-0.748-0.119-1.574-0.869-1.844
			C24.309,58.129,23.485,58.518,23.215,59.268z"/>
		<path i:knockout="Off" fill="#1D8F38" d="M22.588,37.2c-2.008,5.598,0.9,11.764,6.5,13.773c5.598,2.01,11.764-0.9,13.771-6.498
			c2.01-5.598-0.898-11.766-6.496-13.773C30.764,28.692,24.596,31.602,22.588,37.2z M35.168,34.03
			c3.76,1.35,5.715,5.492,4.365,9.252s-5.492,5.713-9.252,4.365s-5.715-5.492-4.365-9.252C27.264,34.635,31.409,32.68,35.168,34.03z
			 M27.821,39.079c-0.973,2.707,0.436,5.691,3.143,6.662c2.711,0.973,5.695-0.436,6.666-3.143c0.973-2.711-0.436-5.693-3.146-6.666
			C31.776,34.961,28.792,36.368,27.821,39.079z M33.854,37.688c1.74,0.625,2.643,2.541,2.02,4.279
			c-0.625,1.738-2.541,2.643-4.279,2.018c-1.738-0.621-2.643-2.539-2.02-4.277C30.198,37.967,32.116,37.063,33.854,37.688z
			 M31.368,40.352c-0.27,0.748,0.119,1.574,0.869,1.842s1.574-0.121,1.844-0.869c0.268-0.75-0.121-1.574-0.871-1.846
			C32.461,39.211,31.635,39.6,31.368,40.352z"/>
		<path i:knockout="Off" fill="#1D8F38" d="M29.366,17.92c-2.01,5.598,0.9,11.764,6.5,13.773c5.598,2.01,11.764-0.902,13.771-6.498
			c2.01-5.6-0.9-11.766-6.496-13.773C37.542,9.413,31.374,12.323,29.366,17.92z M41.946,14.75c3.76,1.35,5.715,5.49,4.365,9.252
			c-1.35,3.76-5.492,5.713-9.252,4.365c-3.76-1.35-5.715-5.492-4.367-9.254C34.042,15.356,38.184,13.399,41.946,14.75z
			 M34.596,19.797c-0.973,2.709,0.436,5.693,3.145,6.664c2.711,0.973,5.695-0.436,6.666-3.143c0.973-2.711-0.436-5.695-3.146-6.666
			C38.553,15.68,35.569,17.088,34.596,19.797z M40.631,18.409c1.74,0.625,2.643,2.539,2.018,4.279
			c-0.623,1.738-2.539,2.643-4.277,2.018c-1.738-0.621-2.645-2.539-2.02-4.279C36.975,18.688,38.893,17.786,40.631,18.409z
			 M38.143,21.071c-0.268,0.75,0.121,1.576,0.871,1.844s1.574-0.121,1.844-0.869c0.27-0.75-0.121-1.576-0.871-1.846
			C39.239,19.932,38.413,20.321,38.143,21.071z"/>
	</g>
</g>
</svg>
