<?xml version="1.0" encoding="utf-8"?>
<!-- Generator: Adobe Illustrator 12.0.0, SVG Export Plug-In . SVG Version: 6.00 Build 51448)  -->
<!DOCTYPE svg PUBLIC "-//W3C//DTD SVG 1.1//EN" "http://www.w3.org/Graphics/SVG/1.1/DTD/svg11.dtd" [
	<!ENTITY ns_flows "http://ns.adobe.com/Flows/1.0/">
	<!ENTITY ns_extend "http://ns.adobe.com/Extensibility/1.0/">
	<!ENTITY ns_ai "http://ns.adobe.com/AdobeIllustrator/10.0/">
	<!ENTITY ns_graphs "http://ns.adobe.com/Graphs/1.0/">
	<!ENTITY ns_vars "http://ns.adobe.com/Variables/1.0/">
	<!ENTITY ns_imrep "http://ns.adobe.com/ImageReplacement/1.0/">
	<!ENTITY ns_sfw "http://ns.adobe.com/SaveForWeb/1.0/">
	<!ENTITY ns_custom "http://ns.adobe.com/GenericCustomNamespace/1.0/">
	<!ENTITY ns_adobe_xpath "http://ns.adobe.com/XPath/1.0/">
	<!ENTITY ns_svg "http://www.w3.org/2000/svg">
	<!ENTITY ns_xlink "http://www.w3.org/1999/xlink">
]>
<svg  version="1.1"
	 xmlns:x="&ns_extend;" xmlns:i="&ns_ai;" xmlns:graph="&ns_graphs;" i:viewOrigin="-0.3208 113.645" i:rulerOrigin="0 0" i:pageBounds="0 113 108 0"
	 xmlns="&ns_svg;" xmlns:xlink="&ns_xlink;" xmlns:a="http://ns.adobe.com/AdobeSVGViewerExtensions/3.0/"
	 width="109.1" height="113.832" viewBox="0 0 109.1 113.832" overflow="visible" enable-background="new 0 0 109.1 113.832"
	 xml:space="preserve">
<metadata>
	<variableSets  xmlns="http://ns.adobe.com/Variables/1.0/">
		<variableSet  locked="none" varSetName="binding1">
			<variables></variables>
			<v:sampleDataSets  xmlns:v="http://ns.adobe.com/Variables/1.0/" xmlns="http://ns.adobe.com/GenericCustomNamespace/1.0/">
				</v:sampleDataSets>
		</variableSet>
	</variableSets>
</metadata>
<g id="图层_1" i:knockout="Off" i:layer="yes" i:dimmedPercent="50" i:rgbTrio="#4F008000FFFF">
	<g i:knockout="Off">
		
			<linearGradient id="XMLID_123_" gradientUnits="userSpaceOnUse" x1="935.7534" y1="32.644" x2="1020.5474" y2="32.644" gradientTransform="matrix(4.489659e-11 -1 1 4.489659e-11 22.2764 1049.3994)">
			<stop  offset="0.1348" style="stop-color:#1889BC"/>
			<stop  offset="0.2247" style="stop-color:#C4E9F2"/>
			<a:midPointStop  offset="0.1348" style="stop-color:#1889BC"/>
			<a:midPointStop  offset="0.5" style="stop-color:#1889BC"/>
			<a:midPointStop  offset="0.2247" style="stop-color:#C4E9F2"/>
		</linearGradient>
		<path fill="url(#XMLID_123_)" stroke="#000000" stroke-width="0.3739" d="M100.779,28.852c4.418,0,8,3.42,8,7.638v69.518
			c0,4.218-3.582,7.638-8,7.638H9.063c-4.418,0-8.001-3.42-8.001-7.638V36.49c0-4.218,3.583-7.638,8.001-7.638H100.779z"/>
		<path fill="#FFFFFF" stroke="#000000" stroke-width="0.6414" d="M8.375,85.36c-4.448,0-8.055-3.43-8.055-7.66V7.98
			c0-4.23,3.607-7.659,8.055-7.659h92.349c4.449,0,8.057,3.429,8.057,7.659V77.7c0,4.23-3.608,7.66-8.057,7.66H8.375z"/>
		
			<linearGradient id="XMLID_124_" gradientUnits="userSpaceOnUse" x1="-229.5884" y1="367.9067" x2="-144.5493" y2="367.9067" gradientTransform="matrix(-4.489659e-11 1 -1 -4.489659e-11 422.4561 229.9092)">
			<stop  offset="0" style="stop-color:#A3DDEA"/>
			<stop  offset="0.0899" style="stop-color:#0678B3"/>
			<stop  offset="0.2135" style="stop-color:#094C91"/>
			<stop  offset="0.6404" style="stop-color:#2890C0"/>
			<stop  offset="0.8034" style="stop-color:#82D0E3"/>
			<stop  offset="1" style="stop-color:#09468C"/>
			<a:midPointStop  offset="0" style="stop-color:#A3DDEA"/>
			<a:midPointStop  offset="0.5" style="stop-color:#A3DDEA"/>
			<a:midPointStop  offset="0.0899" style="stop-color:#0678B3"/>
			<a:midPointStop  offset="0.5" style="stop-color:#0678B3"/>
			<a:midPointStop  offset="0.2135" style="stop-color:#094C91"/>
			<a:midPointStop  offset="0.5" style="stop-color:#094C91"/>
			<a:midPointStop  offset="0.6404" style="stop-color:#2890C0"/>
			<a:midPointStop  offset="0.5" style="stop-color:#2890C0"/>
			<a:midPointStop  offset="0.8034" style="stop-color:#82D0E3"/>
			<a:midPointStop  offset="0.5" style="stop-color:#82D0E3"/>
			<a:midPointStop  offset="1" style="stop-color:#09468C"/>
		</linearGradient>
		
			<path i:isolated="yes" i:knockout="Off" opacity="0.1" fill="url(#XMLID_124_)" stroke="#000000" stroke-width="0.6414" enable-background="new    " d="
			M8.375,85.36c-4.449,0-8.055-3.43-8.055-7.66V7.98c0-4.23,3.606-7.659,8.055-7.659h92.349c4.449,0,8.057,3.429,8.057,7.659V77.7
			c0,4.23-3.608,7.66-8.057,7.66H8.375z"/>
		<circle fill="#FFFFFF" cx="83.689" cy="61.218" r="10.771"/>
		<circle fill="#FFFFFF" cx="83.689" cy="40.593" r="10.771"/>
		<circle fill="#FFFFFF" cx="83.689" cy="20.093" r="10.771"/>
		<circle fill="#FFFFFF" cx="55.239" cy="61.218" r="10.771"/>
		<circle fill="#FFFFFF" cx="55.239" cy="40.593" r="10.771"/>
		<circle fill="#FFFFFF" cx="55.239" cy="20.093" r="10.771"/>
		<circle fill="#FFFFFF" cx="25.41" cy="61.218" r="10.771"/>
		<circle fill="#FFFFFF" cx="25.41" cy="40.593" r="10.771"/>
		<circle fill="#FFFFFF" cx="25.41" cy="20.093" r="10.771"/>
		<path fill="#224899" d="M83.688,50.447c-5.948,0-10.772,4.822-10.772,10.771s4.824,10.771,10.772,10.771
			c5.949,0,10.773-4.821,10.773-10.771S89.637,50.447,83.688,50.447z M83.688,53.982c3.996,0,7.236,3.24,7.236,7.236
			s-3.24,7.235-7.236,7.235c-3.998,0-7.236-3.239-7.236-7.235S79.69,53.982,83.688,53.982z M83.688,56.007
			c-2.879,0-5.213,2.334-5.213,5.211c0,2.881,2.334,5.215,5.213,5.215s5.213-2.334,5.213-5.215
			C88.901,58.341,86.567,56.007,83.688,56.007z M83.688,57.872c1.849,0,3.349,1.498,3.349,3.347c0,1.85-1.5,3.348-3.349,3.348
			c-1.848,0-3.346-1.498-3.346-3.348C80.342,59.371,81.84,57.872,83.688,57.872z M83.688,59.777c-0.795,0-1.44,0.645-1.44,1.441
			s0.644,1.442,1.44,1.442c0.798,0,1.443-0.646,1.443-1.442S84.485,59.777,83.688,59.777z"/>
		<path fill="#224899" d="M83.688,29.822c-5.948,0-10.772,4.822-10.772,10.771c0,5.949,4.824,10.771,10.772,10.771
			c5.949,0,10.773-4.822,10.773-10.771C94.461,34.644,89.637,29.822,83.688,29.822z M83.688,33.357c3.996,0,7.236,3.24,7.236,7.236
			c0,3.996-3.24,7.236-7.236,7.236c-3.998,0-7.236-3.24-7.236-7.236C76.452,36.597,79.69,33.357,83.688,33.357z M83.688,35.382
			c-2.879,0-5.213,2.334-5.213,5.211c0,2.881,2.334,5.215,5.213,5.215s5.213-2.334,5.213-5.215
			C88.901,37.716,86.567,35.382,83.688,35.382z M83.688,37.247c1.849,0,3.349,1.498,3.349,3.346c0,1.85-1.5,3.348-3.349,3.348
			c-1.848,0-3.346-1.498-3.346-3.348C80.342,38.746,81.84,37.247,83.688,37.247z M83.688,39.152c-0.795,0-1.44,0.644-1.44,1.441
			c0,0.797,0.644,1.443,1.44,1.443c0.798,0,1.443-0.646,1.443-1.443C85.131,39.796,84.485,39.152,83.688,39.152z"/>
		<path fill="#224899" d="M83.688,9.322c-5.949,0-10.772,4.822-10.772,10.771c0,5.949,4.824,10.771,10.772,10.771
			c5.949,0,10.773-4.822,10.773-10.771C94.461,14.144,89.637,9.322,83.688,9.322z M83.688,12.857c3.996,0,7.236,3.24,7.236,7.236
			c0,3.996-3.24,7.236-7.236,7.236c-3.998,0-7.236-3.24-7.236-7.236C76.452,16.097,79.69,12.857,83.688,12.857z M83.688,14.882
			c-2.879,0-5.213,2.334-5.213,5.211c0,2.881,2.334,5.215,5.213,5.215s5.213-2.334,5.213-5.215
			C88.901,17.216,86.567,14.882,83.688,14.882z M83.688,16.747c1.849,0,3.349,1.498,3.349,3.346c0,1.85-1.5,3.348-3.349,3.348
			c-1.848,0-3.346-1.498-3.346-3.348C80.342,18.246,81.84,16.747,83.688,16.747z M83.688,18.652c-0.795,0-1.44,0.644-1.44,1.441
			c0,0.797,0.644,1.443,1.44,1.443c0.798,0,1.443-0.646,1.443-1.443C85.131,19.296,84.485,18.652,83.688,18.652z"/>
		<path fill="#D90000" d="M55.239,50.447c-5.949,0-10.771,4.822-10.771,10.771s4.822,10.771,10.771,10.771
			c5.948,0,10.772-4.821,10.772-10.771S61.188,50.447,55.239,50.447z M55.239,53.982c3.996,0,7.236,3.24,7.236,7.236
			s-3.24,7.235-7.236,7.235s-7.236-3.239-7.236-7.235S51.243,53.982,55.239,53.982z M55.241,56.007
			c-2.881,0-5.215,2.334-5.215,5.211c0,2.881,2.334,5.215,5.215,5.215c2.879,0,5.213-2.334,5.213-5.215
			C60.454,58.341,58.12,56.007,55.241,56.007z M55.241,57.872c1.848,0,3.346,1.498,3.346,3.347c0,1.85-1.498,3.348-3.346,3.348
			c-1.851,0-3.348-1.498-3.348-3.348C51.893,59.371,53.392,57.873,55.241,57.872z M55.242,59.777c-0.797,0-1.443,0.645-1.443,1.441
			s0.647,1.442,1.443,1.442s1.44-0.646,1.44-1.442S56.039,59.777,55.242,59.777z"/>
		<path fill="#D90000" d="M55.239,29.822c-5.949,0-10.771,4.822-10.771,10.771c0,5.949,4.822,10.771,10.771,10.771
			c5.948,0,10.772-4.822,10.772-10.771C66.012,34.644,61.188,29.822,55.239,29.822z M55.239,33.357c3.996,0,7.236,3.24,7.236,7.236
			c0,3.996-3.24,7.236-7.236,7.236s-7.236-3.24-7.236-7.236C48.002,36.597,51.243,33.357,55.239,33.357z M55.241,35.382
			c-2.881,0-5.215,2.334-5.215,5.211c0,2.881,2.334,5.215,5.215,5.215c2.879,0,5.213-2.334,5.213-5.215
			C60.454,37.716,58.12,35.382,55.241,35.382z M55.241,37.247c1.848,0,3.346,1.498,3.346,3.346c0,1.85-1.498,3.348-3.346,3.348
			c-1.851,0-3.348-1.498-3.348-3.348C51.893,38.746,53.392,37.248,55.241,37.247z M55.242,39.152c-0.797,0-1.443,0.644-1.443,1.441
			c0,0.797,0.647,1.443,1.443,1.443s1.44-0.646,1.44-1.443C56.682,39.796,56.039,39.152,55.242,39.152z"/>
		<path fill="#D90000" d="M55.239,9.322c-5.949,0-10.771,4.822-10.771,10.771c0,5.949,4.822,10.771,10.771,10.771
			c5.948,0,10.772-4.822,10.772-10.771C66.012,14.144,61.188,9.322,55.239,9.322z M55.239,12.857c3.996,0,7.236,3.24,7.236,7.236
			c0,3.996-3.24,7.236-7.236,7.236s-7.236-3.24-7.236-7.236C48.002,16.097,51.243,12.857,55.239,12.857z M55.241,14.882
			c-2.881,0-5.215,2.334-5.215,5.211c0,2.881,2.334,5.215,5.215,5.215c2.879,0,5.213-2.334,5.213-5.215
			C60.454,17.216,58.12,14.882,55.241,14.882z M55.241,16.747c1.848,0,3.346,1.498,3.346,3.346c0,1.85-1.498,3.348-3.346,3.348
			c-1.851,0-3.348-1.498-3.348-3.348C51.893,18.246,53.392,16.748,55.241,16.747z M55.242,18.652c-0.797,0-1.443,0.644-1.443,1.441
			c0,0.797,0.647,1.443,1.443,1.443s1.44-0.646,1.44-1.443C56.682,19.296,56.039,18.652,55.242,18.652z"/>
		<path fill="#1D8F38" d="M25.411,50.447c-5.949,0-10.771,4.822-10.771,10.771s4.822,10.771,10.771,10.771
			c5.951,0,10.773-4.821,10.773-10.771S31.362,50.447,25.411,50.447z M25.411,53.982c3.996,0,7.238,3.24,7.238,7.236
			s-3.242,7.235-7.238,7.235s-7.236-3.239-7.236-7.235S21.415,53.982,25.411,53.982z M25.413,56.007
			c-2.881,0-5.215,2.334-5.215,5.211c0,2.881,2.334,5.215,5.215,5.215c2.877,0,5.211-2.334,5.211-5.215
			C30.624,58.341,28.29,56.007,25.413,56.007z M25.413,57.872c1.848,0,3.346,1.498,3.346,3.347c0,1.85-1.498,3.348-3.346,3.348
			c-1.85,0-3.348-1.498-3.348-3.348C22.065,59.371,23.563,57.873,25.413,57.872z M25.413,59.777c-0.797,0-1.443,0.645-1.443,1.441
			s0.647,1.442,1.443,1.442s1.441-0.646,1.441-1.442S26.209,59.777,25.413,59.777z"/>
		<path fill="#1D8F38" d="M25.411,29.822c-5.949,0-10.771,4.822-10.771,10.771c0,5.949,4.822,10.771,10.771,10.771
			c5.951,0,10.773-4.822,10.773-10.771C36.184,34.644,31.362,29.822,25.411,29.822z M25.411,33.357c3.996,0,7.238,3.24,7.238,7.236
			c0,3.996-3.242,7.236-7.238,7.236s-7.236-3.24-7.236-7.236C18.174,36.597,21.415,33.357,25.411,33.357z M25.413,35.382
			c-2.881,0-5.215,2.334-5.215,5.211c0,2.881,2.334,5.215,5.215,5.215c2.877,0,5.211-2.334,5.211-5.215
			C30.624,37.716,28.29,35.382,25.413,35.382z M25.413,37.247c1.848,0,3.346,1.498,3.346,3.346c0,1.85-1.498,3.348-3.346,3.348
			c-1.85,0-3.348-1.498-3.348-3.348C22.065,38.746,23.563,37.248,25.413,37.247z M25.413,39.152c-0.797,0-1.443,0.644-1.443,1.441
			c0,0.797,0.647,1.443,1.443,1.443s1.441-0.646,1.441-1.443C26.854,39.796,26.209,39.152,25.413,39.152z"/>
		<path fill="#1D8F38" d="M25.411,9.322c-5.949,0-10.771,4.822-10.771,10.771c0,5.949,4.822,10.771,10.771,10.771
			c5.951,0,10.773-4.822,10.773-10.771C36.184,14.144,31.362,9.322,25.411,9.322z M25.411,12.857c3.996,0,7.238,3.24,7.238,7.236
			c0,3.996-3.242,7.236-7.238,7.236s-7.236-3.24-7.236-7.236C18.174,16.097,21.415,12.857,25.411,12.857z M25.413,14.882
			c-2.881,0-5.215,2.334-5.215,5.211c0,2.881,2.334,5.215,5.215,5.215c2.877,0,5.211-2.334,5.211-5.215
			C30.624,17.216,28.29,14.882,25.413,14.882z M25.413,16.747c1.848,0,3.346,1.498,3.346,3.346c0,1.85-1.498,3.348-3.346,3.348
			c-1.85,0-3.348-1.498-3.348-3.348C22.065,18.246,23.563,16.748,25.413,16.747z M25.413,18.652c-0.797,0-1.443,0.644-1.443,1.441
			c0,0.797,0.647,1.443,1.443,1.443s1.441-0.646,1.441-1.443C26.854,19.296,26.209,18.652,25.413,18.652z"/>
	</g>
</g>
</svg>
