<?xml version="1.0" encoding="utf-8"?>
<!-- Generator: Adobe Illustrator 12.0.0, SVG Export Plug-In . SVG Version: 6.00 Build 51448)  -->
<!DOCTYPE svg PUBLIC "-//W3C//DTD SVG 1.1//EN" "http://www.w3.org/Graphics/SVG/1.1/DTD/svg11.dtd" [
	<!ENTITY ns_flows "http://ns.adobe.com/Flows/1.0/">
	<!ENTITY ns_extend "http://ns.adobe.com/Extensibility/1.0/">
	<!ENTITY ns_ai "http://ns.adobe.com/AdobeIllustrator/10.0/">
	<!ENTITY ns_graphs "http://ns.adobe.com/Graphs/1.0/">
	<!ENTITY ns_vars "http://ns.adobe.com/Variables/1.0/">
	<!ENTITY ns_imrep "http://ns.adobe.com/ImageReplacement/1.0/">
	<!ENTITY ns_sfw "http://ns.adobe.com/SaveForWeb/1.0/">
	<!ENTITY ns_custom "http://ns.adobe.com/GenericCustomNamespace/1.0/">
	<!ENTITY ns_adobe_xpath "http://ns.adobe.com/XPath/1.0/">
	<!ENTITY ns_svg "http://www.w3.org/2000/svg">
	<!ENTITY ns_xlink "http://www.w3.org/1999/xlink">
]>
<svg  version="1.1"
	 xmlns:x="&ns_extend;" xmlns:i="&ns_ai;" xmlns:graph="&ns_graphs;" i:viewOrigin="-0.3208 113.645" i:rulerOrigin="0 0" i:pageBounds="0 113 108 0"
	 xmlns="&ns_svg;" xmlns:xlink="&ns_xlink;" xmlns:a="http://ns.adobe.com/AdobeSVGViewerExtensions/3.0/"
	 width="109.1" height="113.832" viewBox="0 0 109.1 113.832" overflow="visible" enable-background="new 0 0 109.1 113.832"
	 xml:space="preserve">
<metadata>
	<variableSets  xmlns="&ns_vars;">
		<variableSet  varSetName="binding1" locked="none">
			<variables></variables>
			<v:sampleDataSets  xmlns="&ns_custom;" xmlns:v="&ns_vars;"></v:sampleDataSets>
		</variableSet>
	</variableSets>
</metadata>
<g id="图层_1" i:layer="yes" i:dimmedPercent="50" i:rgbTrio="#4F008000FFFF">
	<g>
		
			<linearGradient id="XMLID_3_" gradientUnits="userSpaceOnUse" x1="935.4341" y1="81.0015" x2="1020.2271" y2="81.0015" gradientTransform="matrix(0 -1 1 0 -26.8223 1049.0791)">
			<stop  offset="0.1348" style="stop-color:#1889BC"/>
			<stop  offset="0.2247" style="stop-color:#C4E9F2"/>
			<a:midPointStop  offset="0.1348" style="stop-color:#1889BC"/>
			<a:midPointStop  offset="0.5" style="stop-color:#1889BC"/>
			<a:midPointStop  offset="0.2247" style="stop-color:#C4E9F2"/>
		</linearGradient>
		<path i:knockout="Off" fill="url(#XMLID_3_)" stroke="#000000" stroke-width="0.3739" d="M100.037,28.852
			c4.418,0,8.001,3.42,8.001,7.638v69.518c0,4.218-3.583,7.638-8.001,7.638H8.321c-4.418,0-8-3.42-8-7.638V36.49
			c0-4.218,3.582-7.638,8-7.638H100.037z"/>
		<path i:knockout="Off" fill="#FFFFFF" stroke="#000000" stroke-width="0.6414" d="M8.377,85.36c-4.448,0-8.056-3.43-8.056-7.66
			V7.98c0-4.23,3.608-7.659,8.056-7.659h92.348c4.447,0,8.055,3.429,8.055,7.659V77.7c0,4.23-3.607,7.66-8.055,7.66H8.377z"/>
		
			<linearGradient id="XMLID_4_" gradientUnits="userSpaceOnUse" x1="-229.9092" y1="-254.2622" x2="-144.8701" y2="-254.2622" gradientTransform="matrix(0 1 -1 0 -199.7119 230.23)">
			<stop  offset="0" style="stop-color:#A3DDEA"/>
			<stop  offset="0.0899" style="stop-color:#0678B3"/>
			<stop  offset="0.2135" style="stop-color:#094C91"/>
			<stop  offset="0.6404" style="stop-color:#2890C0"/>
			<stop  offset="0.8034" style="stop-color:#82D0E3"/>
			<stop  offset="1" style="stop-color:#09468C"/>
			<a:midPointStop  offset="0" style="stop-color:#A3DDEA"/>
			<a:midPointStop  offset="0.5" style="stop-color:#A3DDEA"/>
			<a:midPointStop  offset="0.0899" style="stop-color:#0678B3"/>
			<a:midPointStop  offset="0.5" style="stop-color:#0678B3"/>
			<a:midPointStop  offset="0.2135" style="stop-color:#094C91"/>
			<a:midPointStop  offset="0.5" style="stop-color:#094C91"/>
			<a:midPointStop  offset="0.6404" style="stop-color:#2890C0"/>
			<a:midPointStop  offset="0.5" style="stop-color:#2890C0"/>
			<a:midPointStop  offset="0.8034" style="stop-color:#82D0E3"/>
			<a:midPointStop  offset="0.5" style="stop-color:#82D0E3"/>
			<a:midPointStop  offset="1" style="stop-color:#09468C"/>
		</linearGradient>
		<path i:knockout="Off" opacity="0.1" fill="url(#XMLID_4_)" stroke="#000000" stroke-width="0.6414" d="M8.377,85.36
			c-4.448,0-8.056-3.43-8.056-7.66V7.98c0-4.23,3.608-7.659,8.056-7.659h92.348c4.448,0,8.055,3.429,8.055,7.659V77.7
			c0,4.23-3.606,7.66-8.055,7.66H8.377z"/>
		<g>
			<path i:knockout="Off" fill="#24258D" d="M38.836,46.011c0,0-0.811-0.99-0.361-1.98c0.451-0.989,9.182-1.89,11.521-2.069
				l-0.451,0.81C49.545,42.771,42.975,45.292,38.836,46.011z"/>
			<path i:knockout="Off" fill="#24258D" d="M40.366,47.811c0,0-1.08,0.091-1.08-0.45c0-0.539,0.27-1.529,4.77-2.25
				c4.5-0.72,7.381-0.27,7.381-0.27s0.359,0.63-1.619,1.17C47.836,46.551,40.366,47.811,40.366,47.811z"/>
			<path i:knockout="Off" fill="#24258D" d="M39.827,49.251c-0.221-0.403,1.17-1.35,2.969-1.53c1.801-0.18,8.461-0.45,9.451,0
				s-0.631,1.53-1.98,1.53S40.366,50.242,39.827,49.251z"/>
			<path i:knockout="Off" fill="#24258D" d="M39.917,52.402c0,0-1.17-0.181-1.17-0.99c0-0.811,1.17-0.9,1.979-0.9
				c0.811,0,11.16-0.359,12.061,0.09c0.9,0.45-2.609,1.35-4.23,1.53C46.936,52.311,40.997,52.492,39.917,52.402z"/>
			<path i:knockout="Off" fill="#24258D" d="M40.006,54.561c0,0-1.801-1.26-0.451-1.979c1.352-0.721,11.611,0.63,12.42,0.63
				C52.786,53.211,50.176,55.46,40.006,54.561z"/>
			<path i:knockout="Off" fill="#24258D" d="M38.657,56.631c-1.52-0.181-1.441-1.62-0.631-1.71s8.371,0.9,10.08,1.439
				C49.817,56.902,43.965,57.261,38.657,56.631z"/>
		</g>
		<g>
			<path i:knockout="Off" fill="#24258D" d="M28.846,54.201c3.24,1.711,5.76-0.449,6.119-1.529c0.361-1.08,0.807-4.547-3.33-4.95
				C26.452,47.216,26.622,53.027,28.846,54.201z M32.356,50.061c0.9,0.9,0.449,3.24-1.891,2.79c-1.008-0.193-1.26-1.35-0.898-2.25
				C29.926,49.701,31.456,49.162,32.356,50.061z"/>
		</g>
		<g i:knockout="Off">
			<path i:knockout="Off" fill="#24258D" d="M45.407,27.464c-1.281-11.646-4.268-15.701-4.332-15.772
				c-0.961-1.08-2.148-0.78-2.148-0.78s1.34,2.986,2.113,6.403c0.559,2.477,0.262,6.053,0.262,6.053l-5.039,6.731l-1.943-3.275
				c0,0-0.789-1.08-2.145-1.308c-3.215-0.538-4.541,0.083-5.439-0.337c-0.9-0.42-3.697-3.588-4.416-4.188
				c-0.365-0.304-2.283-0.27-3.793-0.871c-1.471-0.588-2.541-1.817-2.541-1.817l-2.342-2.831c0,0-0.205,4.02-0.084,4.68
				c0.119,0.66,1.5,1.8,3.238,2.58c1.74,0.779,4.369,1.043,5.088,1.644c0.721,0.601,1.576,1.981,2.379,3.229
				c0.969,1.506,2.037,3.047,2.037,3.047s0.486,2.102,1.826,3.605c1.154,1.295,2.711,2.442,2.711,2.442s0.412,1.653,0.822,2.508
				c0.586,1.22,1.229,1.806,1.193,2.124c-0.061,0.54-2.992,0.234-5.867,1.826c-2.5,1.383-4.213,3.91-4.213,3.91
				s-0.811,1.851,0.236,3.536c0.559,0.899,2.057,0.195,2.057,0.195s0.326-7.057,12.791-8.292c6.041-0.599,8.604-5.544,8.604-5.544
				s6.883,6.172,7.861,9.479c0.779,2.641,0.047,5.856-1.332,8.977c-1.381,3.119-9.168,3.72-13.068,2.34
				c-1.723-0.609-3.102-0.021-7.873-2.001c-4.77-1.979-6.623,1.286-6.623,1.286s-0.186,1.551,0.137,2.184
				c0.307,0.6,1.348,0.351,1.348,0.351s1.414-1.921,2.449-1.921s5.301,2.067,11.184,2.951c10.68,1.605,12.924-2.214,12.924-2.214
				s1.273,1.228,2.443,1.507c2.082,0.5,4.615,0.186,4.615,0.186s0.449,5.715-2.264,8.318c-3.43,3.291-10.48,2.409-10.48,3.562
				c0,1.151,9.309,1.631,12.168-1.009c5.615-5.184,3.744-11.303,3.744-11.303s8.963,5.468,15.697,4.623
				c10.371-1.301,14.543-6.711,14.543-6.711s0.035-1.783-1.008-1.08c-11.016,7.416-17.641,3.383-17.641,3.383
				s-1.988-4.307-4.82-6.157c-2.43-1.586-5.979-1.402-5.979-1.402s5.543-6.12,6.191-10.008c0.789-4.73-2.232-11.448-2.232-11.448
				s-1.152,0.433-1.152,1.369c0,0.936,0.721,8.135,0.145,10.367s-6.912,7.848-6.912,7.848l-2.879,0.072c0,0,0.08-2.252-0.43-4.01
				c-0.479-1.645-1.014-2.688-1.014-2.688s3.033-6.526,11.24-13.979c7.178-6.519,19.084-13.325,27.119-15.608
				c1.936-0.551,1.41-2.108,0.465-1.99c-15.35,1.908-28.848,11.457-32.145,12.845c-3.295,1.388-17.369,9.782-17.369,9.782
				S45.768,30.769,45.407,27.464z M54.766,57.207c0,0,0.863-1.08,1.08-2.088c0,0,2.736-0.359,3.6,0.648c0,0,0.432,1.512,0.289,2.52
				C59.735,58.287,56.278,58.287,54.766,57.207z M68.518,55.984c1.512,1.151,4.248,4.896,4.248,4.896s-6.48-1.728-8.785-4.032
				c0,0,0.072-1.439-0.359-2.232C63.622,54.615,67.006,54.832,68.518,55.984z M59.95,52.095c0,0,0.217,1.296-0.072,1.872
				c0,0-2.016-0.937-3.168-0.792c0,0,0.432-0.288,0.432-1.152C57.141,52.023,59.518,52.383,59.95,52.095z M43.534,30.711
				l-4.607,4.176l-0.432-0.936l4.68-4.752L43.534,30.711z M42.67,24.808l0.432,2.088l-5.328,5.976l-0.629-0.944
				c0,0,0.688-0.776,1.252-1.483C40.458,27.865,42.67,24.808,42.67,24.808z M28.17,30.482c-0.318-0.695,0.113-3.06,2.232-3.246
				c1.572-0.138,4.588,4.151,4.588,4.151l-3.162,3.547C31.829,34.934,28.581,31.375,28.17,30.482z M34.426,40.792
				c0,0-0.49-1.079-0.77-1.945c-0.348-1.087-0.982-1.892-0.982-1.892l0.996-0.688c0,0,0.488,0.453,0.963,1.421
				c0.592,1.207,1.197,2.983,1.197,2.983L34.426,40.792z M37.702,40.312c0,0-0.91-2.246-1.867-3.846
				c-0.744-1.248-1.229-1.459-1.229-1.459l1.039-1.223c0.648,0.504,3.791,5.803,3.791,5.803L37.702,40.312z M63.905,27.113
				l-2.059,5.279c0,0-1.488,1.008-2.664,3.455c0,0,0.623-3.408,0.623-4.992l-1.008,0.793c0,0-1.08,5.543-3.455,9
				c0,0-0.359-0.36,0-1.801c0.359-1.439,2.375-7.128,2.375-7.128l-1.727,0.864c0,0-0.502,1.448-1.354,3.965
				c-0.561,1.651-1.455,4.171-1.455,4.171l-1.152-1.8l2.232-4.824H53.11l-2.424,3.936l-2.039-1.799
				C48.647,36.232,61.145,28.433,63.905,27.113z M43.319,37.047c-0.217,0.792-2.602,2.28-2.602,2.28l-1.287-2.713l4.391-3.761
				C43.821,32.854,43.534,36.255,43.319,37.047z"/>
		</g>
		<g i:knockout="Off">
			<path i:knockout="Off" fill="#1D8F38" d="M67.293,32.224c0,0.936,0.721,8.135,0.145,10.367s-6.912,7.848-6.912,7.848
				c0.289,0.504-0.576,1.656-0.576,1.656s0.217,1.296-0.072,1.872l-0.432,1.8c0,0,0.504,1.152,0.359,2.16H58.51
				c-0.072,1.08-1.084,2.208-1.084,2.208c0.455,0.038,0.896,0.051,1.299,0.05c1.035-0.003,1.801-0.098,1.801-0.098
				s0.449,5.715-2.264,8.318c-3.43,3.291-10.48,2.409-10.48,3.562c0,1.151,9.309,1.631,12.168-1.009
				c5.615-5.184,3.744-11.303,3.744-11.303s8.963,5.468,15.697,4.623c10.371-1.301,14.543-6.711,14.543-6.711
				s0.035-1.783-1.008-1.08c-11.016,7.416-17.641,3.383-17.641,3.383s-1.988-4.307-4.82-6.157c-2.43-1.586-5.979-1.402-5.979-1.402
				s5.543-6.12,6.191-10.008c0.789-4.73-2.232-11.448-2.232-11.448S67.293,31.288,67.293,32.224z M68.518,55.984
				c1.512,1.151,4.248,4.896,4.248,4.896s-6.48-1.728-8.785-4.032c0,0,0.072-1.439-0.359-2.232
				C63.622,54.615,67.006,54.832,68.518,55.984z"/>
		</g>
		<path i:knockout="Off" fill="#D90000" d="M15.905,45.507c-0.119,1.371-2.088,6.624-2.088,6.624s-0.949,2.503-0.439,3.505
			c0.873,1.719,3.426,2.471,4.219,1.895c0.791-0.576,4.445-2.897,4.445-2.897s-0.588,3.538-2.459,6.923
			c-1.217,2.197-1.176,4.057-1.176,4.057s1.605,0.088,4.016-2.207c1.902-1.813,4.516-3.841,4.516-3.841s-0.957,0.282-1.312-0.595
			c-0.307-0.763-0.164-1.907-0.164-1.907l-1.926,1.458c0,0,2.34-2.628,2.34-3.779c0-1.152-0.809-3.961-0.809-3.961
			s-1.277,0.529-1.939-0.291c-0.846-1.043-0.537-2.858-0.537-2.858l-0.674,4.319l-2.592,0.217l-0.02-9.126
			c0,0-0.748-1.61-1.818-3.425c-0.998-1.691-2.32-3.596-2.32-3.596S16.12,42.988,15.905,45.507z"/>
		<path i:knockout="Off" fill="#D90000" d="M95.028,12.236c-15.35,1.908-28.848,11.457-32.145,12.845l4.561,4.754
			c7.178-6.519,19.084-13.325,27.119-15.608C96.499,13.675,95.973,12.118,95.028,12.236z"/>
		<path i:knockout="Off" fill="#D90000" d="M32.174,25.516c-3.215-0.538-4.541,0.083-5.439-0.337c-0.9-0.42-3.697-3.588-4.416-4.188
			c-0.365-0.304-2.283-0.27-3.793-0.871c-1.471-0.588-2.541-1.817-2.541-1.817l-2.342-2.831c0,0-0.205,4.02-0.084,4.68
			c0.119,0.66,1.5,1.8,3.238,2.58c1.74,0.779,4.369,1.043,5.088,1.644c0.721,0.601,1.576,1.981,2.379,3.229
			c0.969,1.506,2.037,3.047,2.037,3.047s0.486,2.102,1.826,3.605c1.154,1.295,2.711,2.442,2.711,2.442l0.99-1.766
			c0,0-3.248-3.559-3.658-4.452c-0.318-0.695,0.113-3.06,2.232-3.246c1.572-0.138,4.588,4.151,4.588,4.151l1.271-1.288l-1.943-3.275
			C34.319,26.824,33.53,25.744,32.174,25.516z"/>
	</g>
</g>
</svg>
