<?xml version="1.0" encoding="utf-8"?>
<!-- Generator: Adobe Illustrator 12.0.0, SVG Export Plug-In . SVG Version: 6.00 Build 51448)  -->
<!DOCTYPE svg PUBLIC "-//W3C//DTD SVG 1.1//EN" "http://www.w3.org/Graphics/SVG/1.1/DTD/svg11.dtd" [
	<!ENTITY ns_flows "http://ns.adobe.com/Flows/1.0/">
	<!ENTITY ns_extend "http://ns.adobe.com/Extensibility/1.0/">
	<!ENTITY ns_ai "http://ns.adobe.com/AdobeIllustrator/10.0/">
	<!ENTITY ns_graphs "http://ns.adobe.com/Graphs/1.0/">
	<!ENTITY ns_vars "http://ns.adobe.com/Variables/1.0/">
	<!ENTITY ns_imrep "http://ns.adobe.com/ImageReplacement/1.0/">
	<!ENTITY ns_sfw "http://ns.adobe.com/SaveForWeb/1.0/">
	<!ENTITY ns_custom "http://ns.adobe.com/GenericCustomNamespace/1.0/">
	<!ENTITY ns_adobe_xpath "http://ns.adobe.com/XPath/1.0/">
	<!ENTITY ns_svg "http://www.w3.org/2000/svg">
	<!ENTITY ns_xlink "http://www.w3.org/1999/xlink">
]>
<svg  version="1.1"
	 xmlns:x="&ns_extend;" xmlns:i="&ns_ai;" xmlns:graph="&ns_graphs;" i:viewOrigin="-0.3208 113.645" i:rulerOrigin="0 0" i:pageBounds="0 113 108 0"
	 xmlns="&ns_svg;" xmlns:xlink="&ns_xlink;" xmlns:a="http://ns.adobe.com/AdobeSVGViewerExtensions/3.0/"
	 width="109.1" height="113.832" viewBox="0 0 109.1 113.832" overflow="visible" enable-background="new 0 0 109.1 113.832"
	 xml:space="preserve">
<metadata>
	<variableSets  xmlns="&ns_vars;">
		<variableSet  varSetName="binding1" locked="none">
			<variables></variables>
			<v:sampleDataSets  xmlns="&ns_custom;" xmlns:v="&ns_vars;"></v:sampleDataSets>
		</variableSet>
	</variableSets>
</metadata>
<g id="图层_1" i:layer="yes" i:dimmedPercent="50" i:rgbTrio="#4F008000FFFF">
	<g>
		
			<linearGradient id="XMLID_3_" gradientUnits="userSpaceOnUse" x1="935.4341" y1="81.0015" x2="1020.2271" y2="81.0015" gradientTransform="matrix(0 -1 1 0 -26.8223 1049.0791)">
			<stop  offset="0.1348" style="stop-color:#1889BC"/>
			<stop  offset="0.2247" style="stop-color:#C4E9F2"/>
			<a:midPointStop  offset="0.1348" style="stop-color:#1889BC"/>
			<a:midPointStop  offset="0.5" style="stop-color:#1889BC"/>
			<a:midPointStop  offset="0.2247" style="stop-color:#C4E9F2"/>
		</linearGradient>
		<path i:knockout="Off" fill="url(#XMLID_3_)" stroke="#000000" stroke-width="0.3739" d="M100.037,28.852
			c4.418,0,8.001,3.42,8.001,7.638v69.518c0,4.218-3.583,7.638-8.001,7.638H8.321c-4.418,0-8-3.42-8-7.638V36.49
			c0-4.218,3.582-7.638,8-7.638H100.037z"/>
		<path i:knockout="Off" fill="#FFFFFF" stroke="#000000" stroke-width="0.6414" d="M8.377,85.36c-4.449,0-8.057-3.43-8.057-7.66
			V7.98c0-4.23,3.607-7.659,8.057-7.659h92.348c4.447,0,8.055,3.429,8.055,7.659V77.7c0,4.23-3.607,7.66-8.055,7.66H8.377z"/>
		
			<linearGradient id="XMLID_4_" gradientUnits="userSpaceOnUse" x1="-229.9092" y1="-254.2622" x2="-144.8701" y2="-254.2622" gradientTransform="matrix(0 1 -1 0 -199.7119 230.23)">
			<stop  offset="0" style="stop-color:#A3DDEA"/>
			<stop  offset="0.0899" style="stop-color:#0678B3"/>
			<stop  offset="0.2135" style="stop-color:#094C91"/>
			<stop  offset="0.6404" style="stop-color:#2890C0"/>
			<stop  offset="0.8034" style="stop-color:#82D0E3"/>
			<stop  offset="1" style="stop-color:#09468C"/>
			<a:midPointStop  offset="0" style="stop-color:#A3DDEA"/>
			<a:midPointStop  offset="0.5" style="stop-color:#A3DDEA"/>
			<a:midPointStop  offset="0.0899" style="stop-color:#0678B3"/>
			<a:midPointStop  offset="0.5" style="stop-color:#0678B3"/>
			<a:midPointStop  offset="0.2135" style="stop-color:#094C91"/>
			<a:midPointStop  offset="0.5" style="stop-color:#094C91"/>
			<a:midPointStop  offset="0.6404" style="stop-color:#2890C0"/>
			<a:midPointStop  offset="0.5" style="stop-color:#2890C0"/>
			<a:midPointStop  offset="0.8034" style="stop-color:#82D0E3"/>
			<a:midPointStop  offset="0.5" style="stop-color:#82D0E3"/>
			<a:midPointStop  offset="1" style="stop-color:#09468C"/>
		</linearGradient>
		<path i:knockout="Off" opacity="0.1" fill="url(#XMLID_4_)" stroke="#000000" stroke-width="0.6414" d="M8.377,85.36
			c-4.449,0-8.057-3.43-8.057-7.66V7.98c0-4.23,3.607-7.659,8.057-7.659h92.348c4.448,0,8.055,3.429,8.055,7.659V77.7
			c0,4.23-3.606,7.66-8.055,7.66H8.377z"/>
		<g i:knockout="Off">
			<path i:knockout="Off" fill="#1D8F38" d="M68.441,27.269c2.879-1.32,3.959-0.24,6.6,0.359s7.439-1.08,9.48-1.08
				c2.039,0,4.631,2.07,9.479,1.08c3.889-0.793,4.904-3.061,4.967-5.332c0.078-2.828-2.312-4.826-4.922-5.359
				c-4.848-0.988-7.439,1.08-9.479,1.08c-2.041,0-6.84-1.68-9.48-1.08c-2.641,0.602-3.721,1.68-6.6,0.361
				c-2.881-1.32-11.039-0.961-11.881,4.92l0.006,0.303C57.451,28.402,65.56,28.589,68.441,27.269z M91.24,24.988
				c-3.479-0.359-4.262-2.004-8.398-1.199c-4.23,0.822-6.361,0.84-9.84,0.119c-3.48-0.719-4.693-0.162-6.84,0.48
				c-2.859,0.857-6.66-0.225-6.557-2.287c0.068-1.34,1.945-3.217,6.602-1.924c2.158,0.6,3.359,1.201,6.84,0.48
				c3.479-0.721,5.609-0.703,9.84,0.119c4.137,0.805,4.92-0.84,8.398-1.199c3.48-0.359,3.6,2.279,3.6,2.279l-0.045,0.852
				C94.839,22.708,94.72,25.349,91.24,24.988z"/>
		</g>
		<g i:knockout="Off">
			<path i:knockout="Off" fill="#1D8F38" d="M68.441,46.849c2.879-1.32,3.959-0.24,6.6,0.359s7.439-1.08,9.48-1.08
				c2.039,0,4.631,2.07,9.479,1.08c3.889-0.793,4.904-3.061,4.967-5.334c0.078-2.828-2.312-4.824-4.922-5.357
				c-4.848-0.988-7.439,1.08-9.479,1.08c-2.041,0-6.84-1.68-9.48-1.08s-3.721,1.68-6.6,0.359c-2.881-1.318-11.039-0.959-11.881,4.92
				l0.006,0.305C57.451,47.982,65.56,48.169,68.441,46.849z M91.24,44.568c-3.479-0.359-4.262-2.004-8.398-1.199
				c-4.23,0.822-6.361,0.84-9.84,0.119c-3.48-0.719-4.693-0.164-6.84,0.48c-2.859,0.857-6.66-0.225-6.557-2.287
				c0.068-1.342,1.945-3.217,6.602-1.924c2.158,0.6,3.359,1.199,6.84,0.48c3.479-0.721,5.609-0.703,9.84,0.119
				c4.137,0.805,4.92-0.84,8.398-1.199c3.48-0.361,3.6,2.279,3.6,2.279l-0.045,0.852C94.839,42.289,94.72,44.929,91.24,44.568z"/>
		</g>
		<g i:knockout="Off">
			<path i:knockout="Off" fill="#1D8F38" d="M68.441,66.429c2.879-1.322,3.959-0.24,6.6,0.359s7.439-1.08,9.48-1.08
				c2.039,0,4.631,2.07,9.479,1.08c3.889-0.793,4.904-3.062,4.967-5.334c0.078-2.828-2.312-4.824-4.922-5.357
				c-4.848-0.988-7.439,1.08-9.479,1.08c-2.041,0-6.84-1.68-9.48-1.08s-3.721,1.68-6.6,0.359c-2.881-1.318-11.039-0.959-11.881,4.92
				l0.006,0.305C57.451,67.562,65.56,67.75,68.441,66.429z M91.24,64.146c-3.479-0.359-4.262-2.002-8.398-1.197
				c-4.23,0.82-6.361,0.838-9.84,0.119c-3.48-0.719-4.693-0.164-6.84,0.479c-2.859,0.857-6.66-0.225-6.557-2.285
				c0.068-1.342,1.945-3.217,6.602-1.924c2.158,0.6,3.359,1.199,6.84,0.48c3.479-0.721,5.609-0.703,9.84,0.119
				c4.137,0.805,4.92-0.84,8.398-1.199c3.48-0.361,3.6,2.279,3.6,2.279l-0.045,0.852C94.839,61.869,94.72,64.507,91.24,64.146z"/>
		</g>
		<g i:knockout="Off">
			<path i:knockout="Off" fill="#1D8F38" d="M21.966,27.269c2.881-1.32,3.961-0.24,6.6,0.359c2.641,0.6,7.439-1.08,9.48-1.08
				c2.039,0,4.633,2.07,9.48,1.08c3.889-0.793,4.904-3.061,4.967-5.332c0.078-2.828-2.314-4.826-4.922-5.359
				c-4.848-0.988-7.441,1.08-9.48,1.08s-6.84-1.68-9.48-1.08c-2.639,0.602-3.719,1.68-6.6,0.361
				c-2.879-1.32-11.039-0.961-11.879,4.92l0.004,0.303C10.976,28.402,19.087,28.589,21.966,27.269z M44.767,24.988
				c-3.48-0.359-4.264-2.004-8.4-1.199c-4.23,0.822-6.359,0.84-9.84,0.119c-3.48-0.719-4.693-0.162-6.84,0.48
				c-2.859,0.857-6.66-0.225-6.555-2.287c0.066-1.34,1.945-3.217,6.6-1.924c2.16,0.6,3.359,1.201,6.84,0.48s5.609-0.703,9.84,0.119
				c4.137,0.805,4.92-0.84,8.4-1.199c3.479-0.359,3.6,2.279,3.6,2.279l-0.045,0.852C48.367,22.708,48.246,25.349,44.767,24.988z"/>
		</g>
		<g i:knockout="Off">
			<path i:knockout="Off" fill="#1D8F38" d="M21.966,46.849c2.881-1.32,3.961-0.24,6.6,0.359c2.641,0.6,7.439-1.08,9.48-1.08
				c2.039,0,4.633,2.07,9.48,1.08c3.889-0.793,4.904-3.061,4.967-5.334c0.078-2.828-2.314-4.824-4.922-5.357
				c-4.848-0.988-7.441,1.08-9.48,1.08s-6.84-1.68-9.48-1.08c-2.639,0.6-3.719,1.68-6.6,0.359
				c-2.879-1.318-11.039-0.959-11.879,4.92l0.004,0.305C10.976,47.982,19.087,48.169,21.966,46.849z M44.767,44.568
				c-3.48-0.359-4.264-2.004-8.4-1.199c-4.23,0.822-6.359,0.84-9.84,0.119c-3.48-0.719-4.693-0.164-6.84,0.48
				c-2.859,0.857-6.66-0.225-6.555-2.287c0.066-1.342,1.945-3.217,6.6-1.924c2.16,0.6,3.359,1.199,6.84,0.48
				c3.48-0.721,5.609-0.703,9.84,0.119c4.137,0.805,4.92-0.84,8.4-1.199c3.479-0.361,3.6,2.279,3.6,2.279l-0.045,0.852
				C48.367,42.289,48.246,44.929,44.767,44.568z"/>
		</g>
		<g i:knockout="Off">
			<path i:knockout="Off" fill="#1D8F38" d="M21.966,66.429c2.881-1.322,3.961-0.24,6.6,0.359c2.641,0.6,7.439-1.08,9.48-1.08
				c2.039,0,4.633,2.07,9.48,1.08c3.889-0.793,4.904-3.062,4.967-5.334c0.078-2.828-2.314-4.824-4.922-5.357
				c-4.848-0.988-7.441,1.08-9.48,1.08s-6.84-1.68-9.48-1.08c-2.639,0.6-3.719,1.68-6.6,0.359
				c-2.879-1.318-11.039-0.959-11.879,4.92l0.004,0.305C10.976,67.562,19.087,67.75,21.966,66.429z M44.767,64.146
				c-3.48-0.359-4.264-2.002-8.4-1.197c-4.23,0.82-6.359,0.838-9.84,0.119s-4.693-0.164-6.84,0.479
				c-2.859,0.857-6.66-0.225-6.555-2.285c0.066-1.342,1.945-3.217,6.6-1.924c2.16,0.6,3.359,1.199,6.84,0.48
				c3.48-0.721,5.609-0.703,9.84,0.119c4.137,0.805,4.92-0.84,8.4-1.199c3.479-0.361,3.6,2.279,3.6,2.279l-0.045,0.852
				C48.367,61.869,48.246,64.507,44.767,64.146z"/>
		</g>
	</g>
</g>
</svg>
