<?xml version="1.0" encoding="utf-8"?>
<!-- Generator: Adobe Illustrator 12.0.0, SVG Export Plug-In . SVG Version: 6.00 Build 51448)  -->
<!DOCTYPE svg PUBLIC "-//W3C//DTD SVG 1.1//EN" "http://www.w3.org/Graphics/SVG/1.1/DTD/svg11.dtd" [
	<!ENTITY ns_flows "http://ns.adobe.com/Flows/1.0/">
	<!ENTITY ns_extend "http://ns.adobe.com/Extensibility/1.0/">
	<!ENTITY ns_ai "http://ns.adobe.com/AdobeIllustrator/10.0/">
	<!ENTITY ns_graphs "http://ns.adobe.com/Graphs/1.0/">
	<!ENTITY ns_vars "http://ns.adobe.com/Variables/1.0/">
	<!ENTITY ns_imrep "http://ns.adobe.com/ImageReplacement/1.0/">
	<!ENTITY ns_sfw "http://ns.adobe.com/SaveForWeb/1.0/">
	<!ENTITY ns_custom "http://ns.adobe.com/GenericCustomNamespace/1.0/">
	<!ENTITY ns_adobe_xpath "http://ns.adobe.com/XPath/1.0/">
	<!ENTITY ns_svg "http://www.w3.org/2000/svg">
	<!ENTITY ns_xlink "http://www.w3.org/1999/xlink">
]>
<svg  version="1.1"
	 xmlns:x="&ns_extend;" xmlns:i="&ns_ai;" xmlns:graph="&ns_graphs;" i:viewOrigin="-0.3208 113.645" i:rulerOrigin="0 0" i:pageBounds="0 113 108 0"
	 xmlns="&ns_svg;" xmlns:xlink="&ns_xlink;" xmlns:a="http://ns.adobe.com/AdobeSVGViewerExtensions/3.0/"
	 width="109.1" height="113.832" viewBox="0 0 109.1 113.832" overflow="visible" enable-background="new 0 0 109.1 113.832"
	 xml:space="preserve">
<metadata>
	<variableSets  xmlns="&ns_vars;">
		<variableSet  varSetName="binding1" locked="none">
			<variables></variables>
			<v:sampleDataSets  xmlns="&ns_custom;" xmlns:v="&ns_vars;"></v:sampleDataSets>
		</variableSet>
	</variableSets>
</metadata>
<g id="图层_1" i:layer="yes" i:dimmedPercent="50" i:rgbTrio="#4F008000FFFF">
	<g>
		
			<linearGradient id="XMLID_3_" gradientUnits="userSpaceOnUse" x1="935.4341" y1="81.0015" x2="1020.2271" y2="81.0015" gradientTransform="matrix(0 -1 1 0 -26.8223 1049.0791)">
			<stop  offset="0.1348" style="stop-color:#1889BC"/>
			<stop  offset="0.2247" style="stop-color:#C4E9F2"/>
			<a:midPointStop  offset="0.1348" style="stop-color:#1889BC"/>
			<a:midPointStop  offset="0.5" style="stop-color:#1889BC"/>
			<a:midPointStop  offset="0.2247" style="stop-color:#C4E9F2"/>
		</linearGradient>
		<path i:knockout="Off" fill="url(#XMLID_3_)" stroke="#000000" stroke-width="0.3739" d="M100.038,28.852c4.418,0,8,3.42,8,7.638
			v69.518c0,4.218-3.582,7.638-8,7.638H8.321c-4.418,0-8-3.42-8-7.638V36.49c0-4.218,3.582-7.638,8-7.638H100.038z"/>
		<path i:knockout="Off" fill="#FFFFFF" stroke="#000000" stroke-width="0.6414" d="M8.377,85.36c-4.449,0-8.057-3.43-8.057-7.66
			V7.98c0-4.23,3.607-7.659,8.057-7.659h92.348c4.447,0,8.055,3.429,8.055,7.659V77.7c0,4.23-3.607,7.66-8.055,7.66H8.377z"/>
		
			<linearGradient id="XMLID_4_" gradientUnits="userSpaceOnUse" x1="-229.9092" y1="-254.2622" x2="-144.8701" y2="-254.2622" gradientTransform="matrix(0 1 -1 0 -199.7119 230.23)">
			<stop  offset="0" style="stop-color:#A3DDEA"/>
			<stop  offset="0.0899" style="stop-color:#0678B3"/>
			<stop  offset="0.2135" style="stop-color:#094C91"/>
			<stop  offset="0.6404" style="stop-color:#2890C0"/>
			<stop  offset="0.8034" style="stop-color:#82D0E3"/>
			<stop  offset="1" style="stop-color:#09468C"/>
			<a:midPointStop  offset="0" style="stop-color:#A3DDEA"/>
			<a:midPointStop  offset="0.5" style="stop-color:#A3DDEA"/>
			<a:midPointStop  offset="0.0899" style="stop-color:#0678B3"/>
			<a:midPointStop  offset="0.5" style="stop-color:#0678B3"/>
			<a:midPointStop  offset="0.2135" style="stop-color:#094C91"/>
			<a:midPointStop  offset="0.5" style="stop-color:#094C91"/>
			<a:midPointStop  offset="0.6404" style="stop-color:#2890C0"/>
			<a:midPointStop  offset="0.5" style="stop-color:#2890C0"/>
			<a:midPointStop  offset="0.8034" style="stop-color:#82D0E3"/>
			<a:midPointStop  offset="0.5" style="stop-color:#82D0E3"/>
			<a:midPointStop  offset="1" style="stop-color:#09468C"/>
		</linearGradient>
		<path i:knockout="Off" opacity="0.1" fill="url(#XMLID_4_)" stroke="#000000" stroke-width="0.6414" d="M8.377,85.36
			c-4.449,0-8.057-3.43-8.057-7.66V7.98c0-4.23,3.607-7.659,8.057-7.659h92.348c4.449,0,8.055,3.429,8.055,7.659V77.7
			c0,4.23-3.605,7.66-8.055,7.66H8.377z"/>
		<g i:knockout="Off">
			<path i:knockout="Off" fill="#1D8F38" d="M60.708,57.146c-1.897,1.191-2.608,0.217-4.349-0.324
				c-1.738-0.541-4.9,0.975-6.244,0.975c-1.345,0-3.053-1.867-6.246-0.975c-2.562,0.717-3.23,2.762-3.271,4.812
				c-0.053,2.551,1.523,4.354,3.242,4.834c3.193,0.893,4.901-0.975,6.245-0.975s4.507,1.516,6.245,0.975
				c1.739-0.541,2.451-1.516,4.348-0.324c1.898,1.189,7.273,0.865,7.827-4.439l-0.003-0.273
				C67.949,56.125,62.605,55.957,60.708,57.146z M45.687,59.205c2.293,0.324,2.808,1.809,5.533,1.082
				c2.787-0.742,4.19-0.758,6.482-0.107c2.293,0.648,3.092,0.146,4.507-0.434c1.884-0.773,4.388,0.203,4.318,2.064
				c-0.044,1.209-1.281,2.902-4.349,1.734c-1.422-0.541-2.213-1.082-4.506-0.434c-2.293,0.65-3.695,0.635-6.482-0.107
				c-2.726-0.725-3.241,0.758-5.533,1.082c-2.293,0.326-2.372-2.057-2.372-2.057l0.03-0.768
				C43.316,61.261,43.394,58.878,45.687,59.205z"/>
		</g>
		<g i:knockout="Off">
			<path i:knockout="Off" fill="#1D8F38" d="M90.683,57.146c-1.897,1.191-2.609,0.217-4.348-0.324
				c-1.74-0.541-4.902,0.975-6.246,0.975s-3.051-1.867-6.245-0.975c-2.562,0.717-3.231,2.762-3.272,4.812
				c-0.051,2.551,1.523,4.354,3.242,4.834c3.194,0.893,4.902-0.975,6.246-0.975s4.506,1.516,6.245,0.975s2.451-1.516,4.348-0.324
				c1.898,1.189,7.273,0.865,7.827-4.439l-0.003-0.273C97.924,56.125,92.581,55.957,90.683,57.146z M75.663,59.205
				c2.292,0.324,2.808,1.809,5.534,1.082c2.787-0.742,4.189-0.758,6.482-0.107c2.293,0.648,3.091,0.146,4.506-0.434
				c1.884-0.773,4.388,0.203,4.318,2.064c-0.044,1.209-1.281,2.902-4.349,1.734c-1.422-0.541-2.213-1.082-4.505-0.434
				c-2.293,0.65-3.696,0.635-6.483-0.107c-2.726-0.725-3.241,0.758-5.534,1.082c-2.292,0.326-2.371-2.057-2.371-2.057l0.029-0.768
				C73.291,61.261,73.371,58.878,75.663,59.205z"/>
		</g>
		<g i:knockout="Off">
			<path i:knockout="Off" fill="#D90000" d="M30.732,37.306c-1.897,1.191-2.609,0.217-4.348-0.324
				c-1.74-0.543-4.902,0.973-6.246,0.973s-3.051-1.867-6.245-0.973c-2.562,0.715-3.231,2.76-3.272,4.811
				c-0.051,2.553,1.523,4.354,3.242,4.836c3.194,0.891,4.902-0.975,6.246-0.975s4.506,1.516,6.245,0.975
				c1.739-0.543,2.451-1.516,4.349-0.326c1.896,1.191,7.272,0.867,7.826-4.439l-0.003-0.273
				C37.972,36.285,32.629,36.115,30.732,37.306z M15.711,39.363c2.292,0.324,2.808,1.809,5.534,1.082
				c2.787-0.74,4.189-0.758,6.482-0.107c2.293,0.648,3.092,0.148,4.506-0.434c1.884-0.773,4.387,0.203,4.318,2.064
				c-0.045,1.211-1.281,2.902-4.348,1.736c-1.424-0.541-2.214-1.084-4.506-0.434c-2.293,0.65-3.696,0.635-6.483-0.107
				c-2.726-0.727-3.241,0.758-5.534,1.082c-2.292,0.324-2.371-2.057-2.371-2.057l0.029-0.77
				C13.339,41.419,13.419,39.039,15.711,39.363z"/>
		</g>
		<g i:knockout="Off">
			<path i:knockout="Off" fill="#224899" d="M60.708,37.306c-1.897,1.191-2.608,0.217-4.349-0.324
				c-1.738-0.543-4.9,0.973-6.244,0.973c-1.345,0-3.053-1.867-6.246-0.973c-2.562,0.715-3.23,2.76-3.271,4.811
				c-0.053,2.553,1.523,4.354,3.242,4.836c3.193,0.891,4.901-0.975,6.245-0.975s4.507,1.516,6.245,0.975
				c1.739-0.543,2.451-1.516,4.348-0.326c1.898,1.191,7.273,0.867,7.827-4.439l-0.003-0.273
				C67.949,36.285,62.605,36.115,60.708,37.306z M45.687,39.363c2.293,0.324,2.808,1.809,5.533,1.082
				c2.787-0.74,4.19-0.758,6.482-0.107c2.293,0.648,3.092,0.148,4.507-0.434c1.884-0.773,4.388,0.203,4.318,2.064
				c-0.044,1.211-1.281,2.902-4.349,1.736c-1.422-0.541-2.213-1.084-4.506-0.434s-3.695,0.635-6.482-0.107
				c-2.726-0.727-3.241,0.758-5.533,1.082c-2.293,0.324-2.372-2.057-2.372-2.057l0.03-0.77
				C43.316,41.419,43.394,39.039,45.687,39.363z"/>
		</g>
		<g i:knockout="Off">
			<path i:knockout="Off" fill="#224899" d="M90.683,37.306c-1.897,1.191-2.609,0.217-4.348-0.324
				c-1.74-0.543-4.902,0.973-6.246,0.973s-3.051-1.867-6.245-0.973c-2.562,0.715-3.231,2.76-3.272,4.811
				c-0.051,2.553,1.523,4.354,3.242,4.836c3.194,0.891,4.902-0.975,6.246-0.975s4.506,1.516,6.245,0.975
				c1.739-0.543,2.451-1.516,4.348-0.326c1.898,1.191,7.273,0.867,7.827-4.439l-0.003-0.273
				C97.924,36.285,92.581,36.115,90.683,37.306z M75.663,39.363c2.292,0.324,2.808,1.809,5.534,1.082
				c2.787-0.74,4.189-0.758,6.482-0.107c2.293,0.648,3.091,0.148,4.506-0.434c1.884-0.773,4.388,0.203,4.318,2.064
				c-0.044,1.211-1.281,2.902-4.349,1.736c-1.422-0.541-2.213-1.084-4.505-0.434c-2.293,0.65-3.696,0.635-6.483-0.107
				c-2.726-0.727-3.241,0.758-5.534,1.082c-2.292,0.324-2.371-2.057-2.371-2.057l0.029-0.77
				C73.291,41.419,73.371,39.039,75.663,39.363z"/>
		</g>
		<g i:knockout="Off">
			<path i:knockout="Off" fill="#1D8F38" d="M60.708,17.656c-1.897,1.191-2.608,0.217-4.349-0.324
				c-1.738-0.541-4.9,0.975-6.244,0.975c-1.345,0-3.053-1.867-6.246-0.975c-2.562,0.717-3.23,2.762-3.271,4.812
				c-0.053,2.551,1.523,4.354,3.242,4.834c3.193,0.893,4.901-0.975,6.245-0.975s4.507,1.516,6.245,0.975
				c1.739-0.541,2.451-1.516,4.348-0.324c1.898,1.189,7.273,0.865,7.827-4.439l-0.003-0.275
				C67.949,16.634,62.605,16.464,60.708,17.656z M45.687,19.714c2.293,0.324,2.808,1.807,5.533,1.082
				c2.787-0.742,4.19-0.758,6.482-0.107c2.293,0.648,3.092,0.146,4.507-0.434c1.884-0.773,4.388,0.201,4.318,2.062
				c-0.044,1.211-1.281,2.902-4.349,1.736c-1.422-0.541-2.213-1.082-4.506-0.434c-2.293,0.65-3.695,0.635-6.482-0.107
				c-2.726-0.727-3.241,0.758-5.533,1.082c-2.293,0.326-2.372-2.057-2.372-2.057l0.03-0.768
				C43.316,21.771,43.394,19.388,45.687,19.714z"/>
		</g>
		<g i:knockout="Off">
			<path i:knockout="Off" fill="#1D8F38" d="M90.683,17.656c-1.897,1.191-2.609,0.217-4.348-0.324
				c-1.74-0.541-4.902,0.975-6.246,0.975s-3.051-1.867-6.245-0.975c-2.562,0.717-3.231,2.762-3.272,4.812
				c-0.051,2.551,1.523,4.354,3.242,4.834c3.194,0.893,4.902-0.975,6.246-0.975s4.506,1.516,6.245,0.975s2.451-1.516,4.348-0.324
				c1.898,1.189,7.273,0.865,7.827-4.439l-0.003-0.275C97.924,16.634,92.581,16.464,90.683,17.656z M75.663,19.714
				c2.292,0.324,2.808,1.807,5.534,1.082c2.787-0.742,4.189-0.758,6.482-0.107c2.293,0.648,3.091,0.146,4.506-0.434
				c1.884-0.773,4.388,0.201,4.318,2.062c-0.044,1.211-1.281,2.902-4.349,1.736c-1.422-0.541-2.213-1.082-4.505-0.434
				c-2.293,0.65-3.696,0.635-6.483-0.107c-2.726-0.727-3.241,0.758-5.534,1.082c-2.292,0.326-2.371-2.057-2.371-2.057l0.029-0.768
				C73.291,21.771,73.371,19.388,75.663,19.714z"/>
		</g>
	</g>
</g>
</svg>
