<?xml version="1.0" encoding="utf-8"?>
<!-- Generator: Adobe Illustrator 12.0.0, SVG Export Plug-In . SVG Version: 6.00 Build 51448)  -->
<!DOCTYPE svg PUBLIC "-//W3C//DTD SVG 1.1//EN" "http://www.w3.org/Graphics/SVG/1.1/DTD/svg11.dtd" [
	<!ENTITY ns_flows "http://ns.adobe.com/Flows/1.0/">
	<!ENTITY ns_extend "http://ns.adobe.com/Extensibility/1.0/">
	<!ENTITY ns_ai "http://ns.adobe.com/AdobeIllustrator/10.0/">
	<!ENTITY ns_graphs "http://ns.adobe.com/Graphs/1.0/">
	<!ENTITY ns_vars "http://ns.adobe.com/Variables/1.0/">
	<!ENTITY ns_imrep "http://ns.adobe.com/ImageReplacement/1.0/">
	<!ENTITY ns_sfw "http://ns.adobe.com/SaveForWeb/1.0/">
	<!ENTITY ns_custom "http://ns.adobe.com/GenericCustomNamespace/1.0/">
	<!ENTITY ns_adobe_xpath "http://ns.adobe.com/XPath/1.0/">
	<!ENTITY ns_svg "http://www.w3.org/2000/svg">
	<!ENTITY ns_xlink "http://www.w3.org/1999/xlink">
]>
<svg  version="1.1"
	 xmlns:x="&ns_extend;" xmlns:i="&ns_ai;" xmlns:graph="&ns_graphs;" i:viewOrigin="-0.3208 113.645" i:rulerOrigin="0 0" i:pageBounds="0 113 108 0"
	 xmlns="&ns_svg;" xmlns:xlink="&ns_xlink;" xmlns:a="http://ns.adobe.com/AdobeSVGViewerExtensions/3.0/"
	 width="109.1" height="113.832" viewBox="0 0 109.1 113.832" overflow="visible" enable-background="new 0 0 109.1 113.832"
	 xml:space="preserve">
<metadata>
	<variableSets  xmlns="&ns_vars;">
		<variableSet  varSetName="binding1" locked="none">
			<variables></variables>
			<v:sampleDataSets  xmlns="&ns_custom;" xmlns:v="&ns_vars;"></v:sampleDataSets>
		</variableSet>
	</variableSets>
</metadata>
<g id="图层_1" i:layer="yes" i:dimmedPercent="50" i:rgbTrio="#4F008000FFFF">
	<g>
		
			<linearGradient id="XMLID_3_" gradientUnits="userSpaceOnUse" x1="935.4341" y1="81.0015" x2="1020.2271" y2="81.0015" gradientTransform="matrix(0 -1 1 0 -26.8223 1049.0791)">
			<stop  offset="0.1348" style="stop-color:#1889BC"/>
			<stop  offset="0.2247" style="stop-color:#C4E9F2"/>
			<a:midPointStop  offset="0.1348" style="stop-color:#1889BC"/>
			<a:midPointStop  offset="0.5" style="stop-color:#1889BC"/>
			<a:midPointStop  offset="0.2247" style="stop-color:#C4E9F2"/>
		</linearGradient>
		<path i:knockout="Off" fill="url(#XMLID_3_)" stroke="#000000" stroke-width="0.3739" d="M100.037,28.852
			c4.418,0,8.001,3.42,8.001,7.638v69.518c0,4.218-3.583,7.638-8.001,7.638H8.321c-4.418,0-8-3.42-8-7.638V36.49
			c0-4.218,3.582-7.638,8-7.638H100.037z"/>
		<path i:knockout="Off" fill="#FFFFFF" stroke="#000000" stroke-width="0.6414" d="M8.377,85.36c-4.449,0-8.057-3.43-8.057-7.66
			V7.98c0-4.23,3.607-7.659,8.057-7.659h92.348c4.447,0,8.055,3.429,8.055,7.659V77.7c0,4.23-3.607,7.66-8.055,7.66H8.377z"/>
		
			<linearGradient id="XMLID_4_" gradientUnits="userSpaceOnUse" x1="-229.9092" y1="-254.2622" x2="-144.8701" y2="-254.2622" gradientTransform="matrix(0 1 -1 0 -199.7119 230.23)">
			<stop  offset="0" style="stop-color:#A3DDEA"/>
			<stop  offset="0.0899" style="stop-color:#0678B3"/>
			<stop  offset="0.2135" style="stop-color:#094C91"/>
			<stop  offset="0.6404" style="stop-color:#2890C0"/>
			<stop  offset="0.8034" style="stop-color:#82D0E3"/>
			<stop  offset="1" style="stop-color:#09468C"/>
			<a:midPointStop  offset="0" style="stop-color:#A3DDEA"/>
			<a:midPointStop  offset="0.5" style="stop-color:#A3DDEA"/>
			<a:midPointStop  offset="0.0899" style="stop-color:#0678B3"/>
			<a:midPointStop  offset="0.5" style="stop-color:#0678B3"/>
			<a:midPointStop  offset="0.2135" style="stop-color:#094C91"/>
			<a:midPointStop  offset="0.5" style="stop-color:#094C91"/>
			<a:midPointStop  offset="0.6404" style="stop-color:#2890C0"/>
			<a:midPointStop  offset="0.5" style="stop-color:#2890C0"/>
			<a:midPointStop  offset="0.8034" style="stop-color:#82D0E3"/>
			<a:midPointStop  offset="0.5" style="stop-color:#82D0E3"/>
			<a:midPointStop  offset="1" style="stop-color:#09468C"/>
		</linearGradient>
		<path i:knockout="Off" opacity="0.1" fill="url(#XMLID_4_)" stroke="#000000" stroke-width="0.6414" d="M8.377,85.36
			c-4.449,0-8.057-3.43-8.057-7.66V7.98c0-4.23,3.607-7.659,8.057-7.659h92.348c4.448,0,8.055,3.429,8.055,7.659V77.7
			c0,4.23-3.606,7.66-8.055,7.66H8.377z"/>
		<g i:knockout="Off">
			<path i:knockout="Off" fill="#1D8F38" d="M68.352,66.617c2.862-1.271,3.936-0.232,6.559,0.346
				c2.624,0.576,7.395-1.039,9.42-1.039c2.029,0,4.604,1.99,9.422,1.039c3.864-0.766,4.874-2.945,4.936-5.131
				c0.078-2.721-2.298-4.643-4.892-5.156c-4.816-0.949-7.393,1.039-9.421,1.039c-2.026,0-6.797-1.615-9.419-1.039
				c-2.625,0.578-3.697,1.617-6.56,0.348c-2.861-1.27-10.971-0.924-11.806,4.732l0.004,0.293
				C57.43,67.705,65.491,67.884,68.352,66.617z M91.009,64.421c-3.459-0.346-4.234-1.928-8.348-1.154
				c-4.204,0.791-6.319,0.809-9.778,0.115c-3.457-0.691-4.663-0.156-6.797,0.463c-2.842,0.824-6.618-0.217-6.514-2.201
				c0.068-1.289,1.933-3.094,6.559-1.85c2.146,0.576,3.339,1.154,6.797,0.461s5.574-0.676,9.778,0.115
				c4.112,0.773,4.89-0.809,8.348-1.154c3.459-0.346,3.577,2.193,3.577,2.193l-0.044,0.818
				C94.587,62.228,94.468,64.767,91.009,64.421z"/>
		</g>
		<path i:knockout="Off" fill="none" d="M85.903,38.607c-2.751-1.936-4.343-1.287-6.847-4.443c-2.561-3.227-4.093-4.576-7.069-6.262
			"/>
		<path i:knockout="Off" fill="#1D8F38" d="M82.124,42.011c0-0.859-1.786-3.914-4.911-5.732c-3.584-2.088-5.141-3.412-7.219-6.098
			c-1.281-1.656-2.246-2.418-3.254-2.98c0,0-1.467-0.037-3.125-0.086c-1.657-0.049-3.381-0.652-3.381-0.652
			c1.361,1.604,3.112,2.803,4.354,3.184c2.913,0.895,3.026,2.32,4.568,4.395c1.543,2.074,6.076,3.924,7.556,5.205
			c0.602,0.52,1.898,1.834,1.898,2.506c0,0.674-1.222,2.182-1.898,2.768c-1.479,1.281-6.013,3.131-7.556,5.205
			c-1.542,2.074-1.655,3.5-4.568,4.395c-1.242,0.381-2.993,1.578-4.354,3.184c0,0,1.724-0.684,3.381-0.732
			c1.658-0.049,3.125-0.006,3.125-0.006c1.008-0.562,1.973-1.326,3.254-2.982c2.078-2.684,3.635-4.008,7.219-6.096
			C80.184,45.755,82.124,42.869,82.124,42.011z"/>
		<path i:knockout="Off" fill="#1D8F38" d="M89.836,38.439c-2.903-3.729-6.358-3.852-7.841-5.133
			c-1.294-1.119-3.318-4.449-5.336-6.102c0,0-0.45-0.229-1.37-0.291c-0.919-0.064-2.714-0.74-3.849-0.865s-1.79,0.25-1.79,0.25
			c0.572,0.502,1.309,1.021,2.336,1.604c2.977,1.686,4.509,3.035,7.069,6.262c2.504,3.156,4.096,2.508,6.847,4.443
			c1.339,0.943,1.903,2.119,1.878,2.83c0,1.174-0.409,2.043-0.409,2.043c-0.21,0.523-0.646,1.098-1.469,1.676
			c-2.751,1.938-4.343,1.289-6.847,4.445c-2.561,3.227-4.093,4.574-7.069,6.262c-1.027,0.582-1.764,1.102-2.336,1.604
			c0,0,0.655,0.25,1.79,0.125s2.93-0.91,3.849-0.975c0.92-0.064,1.37-0.057,1.37-0.057c2.018-1.652,4.042-4.982,5.336-6.102
			c1.482-1.281,4.654-1.477,7.558-5.205C91.881,42.261,91.206,40.052,89.836,38.439z"/>
		<g i:knockout="Off">
			<path i:knockout="Off" fill="#1D8F38" d="M68.397,26.742c2.862-1.27,3.935-0.23,6.56,0.348c2.622,0.576,7.393-1.041,9.419-1.041
				c2.028,0,4.604,1.99,9.421,1.041c2.594-0.514,4.97-2.436,4.892-5.156c-0.062-2.186-1.071-4.367-4.936-5.131
				c-4.817-0.951-7.393,1.039-9.422,1.039c-2.025,0-6.796-1.615-9.42-1.039c-2.623,0.578-3.696,1.617-6.559,0.346
				c-2.861-1.27-10.922-1.088-11.757,4.568l-0.004,0.293C57.426,27.666,65.536,28.011,68.397,26.742z M91.054,24.548
				c-3.458-0.346-4.235-1.928-8.348-1.154c-4.204,0.791-6.32,0.809-9.778,0.115s-4.65-0.115-6.797,0.461
				c-4.626,1.244-6.49-0.561-6.559-1.85c-0.104-1.984,3.672-3.025,6.514-2.201c2.134,0.619,3.34,1.154,6.797,0.463
				c3.459-0.693,5.574-0.676,9.778,0.115c4.113,0.773,4.889-0.809,8.348-1.154c3.459-0.348,3.578,2.193,3.578,2.193l0.044,0.818
				C94.631,22.355,94.513,24.894,91.054,24.548z"/>
		</g>
		<g>
			<g i:knockout="Off">
				<path i:knockout="Off" fill="#1D8F38" d="M34.19,66.962c2.623-0.578,3.696-1.617,6.559-0.346
					c2.861,1.268,10.922,1.088,11.757-4.568l0.004-0.293c-0.835-5.656-8.944-6.002-11.806-4.732c-2.862,1.27-3.935,0.23-6.56-0.348
					c-2.622-0.576-7.393,1.039-9.419,1.039c-2.028,0-4.604-1.988-9.421-1.039c-2.594,0.514-4.97,2.436-4.892,5.156
					c0.062,2.186,1.071,4.365,4.936,5.131c4.817,0.951,7.393-1.039,9.422-1.039C26.795,65.923,31.566,67.539,34.19,66.962z
					 M14.513,62.228l-0.044-0.818c0,0,0.118-2.539,3.577-2.193c3.458,0.346,4.235,1.928,8.348,1.154
					c4.204-0.791,6.32-0.809,9.778-0.115s4.65,0.115,6.797-0.461c4.626-1.244,6.49,0.561,6.559,1.85
					c0.104,1.984-3.672,3.025-6.514,2.201c-2.134-0.619-3.34-1.154-6.797-0.463c-3.459,0.693-5.574,0.676-9.778-0.115
					c-4.113-0.773-4.889,0.809-8.348,1.154S14.513,62.228,14.513,62.228z"/>
			</g>
			<path i:knockout="Off" fill="none" d="M23.198,38.607c2.751-1.936,4.343-1.287,6.847-4.443c2.561-3.227,4.093-4.576,7.069-6.262"
				/>
			<path i:knockout="Off" fill="#1D8F38" d="M31.888,47.486c3.584,2.088,5.141,3.412,7.219,6.096
				c1.281,1.656,2.246,2.42,3.254,2.982c0,0,1.467-0.043,3.125,0.006c1.657,0.049,3.381,0.732,3.381,0.732
				c-1.361-1.605-3.112-2.803-4.354-3.184c-2.913-0.895-3.026-2.32-4.568-4.395c-1.543-2.074-6.076-3.924-7.556-5.205
				c-0.677-0.586-1.898-2.094-1.898-2.768c0-0.672,1.297-1.986,1.898-2.506c1.479-1.281,6.013-3.131,7.556-5.205
				c1.542-2.074,1.655-3.5,4.568-4.395c1.242-0.381,2.993-1.58,4.354-3.184c0,0-1.724,0.604-3.381,0.652
				c-1.658,0.049-3.125,0.086-3.125,0.086c-1.008,0.562-1.973,1.324-3.254,2.98c-2.078,2.686-3.635,4.01-7.219,6.098
				c-3.125,1.818-4.911,4.873-4.911,5.732C26.977,42.869,28.917,45.755,31.888,47.486z"/>
			<path i:knockout="Off" fill="#1D8F38" d="M19.547,45.253c2.903,3.729,6.075,3.924,7.558,5.205
				c1.294,1.119,3.318,4.449,5.336,6.102c0,0,0.45-0.008,1.37,0.057c0.919,0.064,2.714,0.85,3.849,0.975s1.79-0.125,1.79-0.125
				c-0.572-0.502-1.309-1.021-2.336-1.604c-2.977-1.688-4.509-3.035-7.069-6.262c-2.504-3.156-4.096-2.508-6.847-4.445
				c-0.822-0.578-1.259-1.152-1.469-1.676c0,0-0.409-0.869-0.409-2.043c-0.025-0.711,0.539-1.887,1.878-2.83
				c2.751-1.936,4.343-1.287,6.847-4.443c2.561-3.227,4.093-4.576,7.069-6.262c1.027-0.582,1.764-1.102,2.336-1.604
				c0,0-0.655-0.375-1.79-0.25s-2.93,0.801-3.849,0.865c-0.92,0.062-1.37,0.291-1.37,0.291c-2.018,1.652-4.042,4.982-5.336,6.102
				c-1.482,1.281-4.938,1.404-7.841,5.133C17.895,40.052,17.219,42.261,19.547,45.253z"/>
			<g i:knockout="Off">
				<path i:knockout="Off" fill="#1D8F38" d="M34.144,27.089c2.625-0.578,3.697-1.617,6.56-0.348
					c2.861,1.27,10.971,0.924,11.806-4.732l-0.004-0.293c-0.835-5.656-8.896-5.838-11.757-4.568
					c-2.862,1.271-3.936,0.232-6.559-0.346c-2.624-0.576-7.395,1.039-9.42,1.039c-2.029,0-4.604-1.99-9.422-1.039
					c-3.864,0.764-4.874,2.945-4.936,5.131c-0.078,2.721,2.298,4.643,4.892,5.156c4.816,0.949,7.393-1.041,9.421-1.041
					C26.751,26.048,31.522,27.666,34.144,27.089z M14.469,22.355l0.044-0.818c0,0,0.119-2.541,3.578-2.193
					c3.459,0.346,4.234,1.928,8.348,1.154c4.204-0.791,6.319-0.809,9.778-0.115c3.457,0.691,4.663,0.156,6.797-0.463
					c2.842-0.824,6.618,0.217,6.514,2.201c-0.068,1.289-1.933,3.094-6.559,1.85c-2.146-0.576-3.339-1.154-6.797-0.461
					s-5.574,0.676-9.778-0.115c-4.112-0.773-4.89,0.809-8.348,1.154C14.587,24.894,14.469,22.355,14.469,22.355z"/>
			</g>
		</g>
	</g>
</g>
</svg>
