<?xml version="1.0" encoding="utf-8"?>
<!-- Generator: Adobe Illustrator 12.0.0, SVG Export Plug-In . SVG Version: 6.00 Build 51448)  -->
<!DOCTYPE svg PUBLIC "-//W3C//DTD SVG 1.1//EN" "http://www.w3.org/Graphics/SVG/1.1/DTD/svg11.dtd" [
	<!ENTITY ns_flows "http://ns.adobe.com/Flows/1.0/">
	<!ENTITY ns_extend "http://ns.adobe.com/Extensibility/1.0/">
	<!ENTITY ns_ai "http://ns.adobe.com/AdobeIllustrator/10.0/">
	<!ENTITY ns_graphs "http://ns.adobe.com/Graphs/1.0/">
	<!ENTITY ns_vars "http://ns.adobe.com/Variables/1.0/">
	<!ENTITY ns_imrep "http://ns.adobe.com/ImageReplacement/1.0/">
	<!ENTITY ns_sfw "http://ns.adobe.com/SaveForWeb/1.0/">
	<!ENTITY ns_custom "http://ns.adobe.com/GenericCustomNamespace/1.0/">
	<!ENTITY ns_adobe_xpath "http://ns.adobe.com/XPath/1.0/">
	<!ENTITY ns_svg "http://www.w3.org/2000/svg">
	<!ENTITY ns_xlink "http://www.w3.org/1999/xlink">
]>
<svg  version="1.1"
	 xmlns:x="&ns_extend;" xmlns:i="&ns_ai;" xmlns:graph="&ns_graphs;" i:viewOrigin="-0.3193 135.7061" i:rulerOrigin="0 0" i:pageBounds="0 136 85 0"
	 xmlns="&ns_svg;" xmlns:xlink="&ns_xlink;" xmlns:a="http://ns.adobe.com/AdobeSVGViewerExtensions/3.0/"
	 width="85.678" height="136.025" viewBox="0 0 85.678 136.025" overflow="visible" enable-background="new 0 0 85.678 136.025"
	 xml:space="preserve">
<metadata>
	<variableSets  xmlns="http://ns.adobe.com/Variables/1.0/">
		<variableSet  varSetName="binding1" locked="none">
			<variables></variables>
			<v:sampleDataSets  xmlns:v="http://ns.adobe.com/Variables/1.0/" xmlns="http://ns.adobe.com/GenericCustomNamespace/1.0/">
				</v:sampleDataSets>
		</variableSet>
	</variableSets>
</metadata>
<g id="图层_1" i:knockout="Off" i:layer="yes" i:dimmedPercent="50" i:rgbTrio="#4F008000FFFF">
	<g>
		<path fill="#333333" d="M83.403,37.587V12.625c0-5.149-3.352-9.325-7.481-9.325H7.804c-4.133,0-7.484,4.175-7.484,9.325h0.002
			v115.211c0,4.344,3.351,7.869,7.482,7.869h68.118c4.131,0,7.481-3.525,7.481-7.869h0.002V37.608
			C83.405,37.601,83.403,37.594,83.403,37.587z"/>
		
			<linearGradient id="XMLID_3_" gradientUnits="userSpaceOnUse" x1="-23.3101" y1="112.9883" x2="-23.3101" y2="-12.5781" gradientTransform="matrix(-1 0 0 -1 20.5059 114.334)">
			<stop  offset="0.0899" style="stop-color:#2089B9"/>
			<stop  offset="0.0985" style="stop-color:#4FA3C2"/>
			<stop  offset="0.1071" style="stop-color:#77B9CA"/>
			<stop  offset="0.1138" style="stop-color:#8FC7CF"/>
			<stop  offset="0.118" style="stop-color:#98CCD1"/>
			<stop  offset="0.1341" style="stop-color:#9ECFD3"/>
			<stop  offset="0.156" style="stop-color:#AFD6D9"/>
			<stop  offset="0.1809" style="stop-color:#CBE1E3"/>
			<stop  offset="0.1966" style="stop-color:#E1EAEB"/>
			<a:midPointStop  offset="0.0899" style="stop-color:#2089B9"/>
			<a:midPointStop  offset="0.4" style="stop-color:#2089B9"/>
			<a:midPointStop  offset="0.118" style="stop-color:#98CCD1"/>
			<a:midPointStop  offset="0.6429" style="stop-color:#98CCD1"/>
			<a:midPointStop  offset="0.1966" style="stop-color:#E1EAEB"/>
		</linearGradient>
		<path fill="url(#XMLID_3_)" d="M2.273,10.671c0-5.15,3.351-9.325,7.481-9.325h68.12c4.131,0,7.482,4.176,7.482,9.325v106.916
			c0,5.148-3.353,9.326-7.482,9.326H9.757c-4.132,0-7.483-4.176-7.483-9.326V10.671L2.273,10.671z"/>
		<path fill="none" stroke="#333333" stroke-width="0.977" d="M2.273,10.671c0-5.15,3.351-9.325,7.481-9.325h68.12
			c4.131,0,7.482,4.176,7.482,9.325v106.916c0,5.148-3.353,9.326-7.482,9.326H9.757c-4.132,0-7.483-4.176-7.483-9.326V10.671
			L2.273,10.671z"/>
		<path fill="#FFFFFF" d="M85.357,125.882c0,4.344-3.353,7.869-7.482,7.869H9.757c-4.132,0-7.483-3.523-7.483-7.869V35.654
			c0-4.347,3.352-7.87,7.483-7.87h68.119c4.131,0,7.482,3.523,7.482,7.87L85.357,125.882L85.357,125.882z"/>
		
			<linearGradient id="XMLID_4_" gradientUnits="userSpaceOnUse" x1="3.3818" y1="80.7676" x2="85.5273" y2="80.7676" gradientTransform="matrix(1 0 0 1 -0.6387 0)">
			<stop  offset="0" style="stop-color:#A2D8E0"/>
			<stop  offset="0.0899" style="stop-color:#1878AD"/>
			<stop  offset="0.2135" style="stop-color:#194D91"/>
			<stop  offset="0.6404" style="stop-color:#2B90BD"/>
			<stop  offset="0.9438" style="stop-color:#82CBDE"/>
			<stop  offset="1" style="stop-color:#1A478D"/>
			<a:midPointStop  offset="0" style="stop-color:#A2D8E0"/>
			<a:midPointStop  offset="0.5" style="stop-color:#A2D8E0"/>
			<a:midPointStop  offset="0.0899" style="stop-color:#1878AD"/>
			<a:midPointStop  offset="0.5" style="stop-color:#1878AD"/>
			<a:midPointStop  offset="0.2135" style="stop-color:#194D91"/>
			<a:midPointStop  offset="0.5" style="stop-color:#194D91"/>
			<a:midPointStop  offset="0.6404" style="stop-color:#2B90BD"/>
			<a:midPointStop  offset="0.5" style="stop-color:#2B90BD"/>
			<a:midPointStop  offset="0.9438" style="stop-color:#82CBDE"/>
			<a:midPointStop  offset="0.5" style="stop-color:#82CBDE"/>
			<a:midPointStop  offset="1" style="stop-color:#1A478D"/>
		</linearGradient>
		<path i:isolated="yes" i:knockout="Off" opacity="0.1" fill="url(#XMLID_4_)" enable-background="new    " d="M84.888,125.882
			c0,4.344-3.314,7.869-7.398,7.869H10.144c-4.086,0-7.4-3.523-7.4-7.869V35.654c0-4.347,3.314-7.87,7.4-7.87H77.49
			c4.084,0,7.398,3.523,7.398,7.87L84.888,125.882L84.888,125.882z"/>
		<path fill="none" stroke="#4D4D4D" stroke-width="0.977" d="M85.357,35.633V10.671c0-5.149-3.352-9.325-7.482-9.325H9.755
			c-4.131,0-7.481,4.175-7.481,9.325v115.21c0,4.346,3.352,7.869,7.483,7.869h68.118c4.13,0,7.482-3.525,7.482-7.869l0.001-90.228
			C85.358,35.647,85.357,35.64,85.357,35.633z"/>
	</g>
	<g i:knockout="Off">
		<path fill="#24258D" d="M45.412,51.587c0.189,0.383,0.286,1.051,0.286,2.006l1.146-0.287c0.955-0.191,1.528-0.287,1.721-0.287
			c0.382,0,0.764,0.096,1.146,0.287c0.382,0,0.859,0.287,1.434,0.859c0.572,0.191,0.955,0.574,1.146,1.146
			c0.19,0.191,0.286,0.574,0.286,1.146l-0.286,0.287c-0.191,0-0.574,0.287-1.146,0.859c-0.19,0-0.479,0.191-0.859,0.574
			c-0.766,0.383-1.338,0.668-1.72,0.859c-0.384,0.191-0.86,0.383-1.434,0.574c-1.146,0.572-2.198,1.051-3.152,1.432l-0.573,3.439
			l1.434-0.572c0.955-0.572,1.91-0.859,2.866-0.859c0.955-0.191,1.91-0.287,2.866-0.287c0.955,0,1.91,0.096,2.866,0.287
			c0.382,0,0.858,0.096,1.433,0.285h0.573c0.382,0,0.858,0.096,1.434,0.287c0.572,0,1.146,0.287,1.72,0.859
			c0.572,0.191,1.241,0.766,2.007,1.721c0.764,0.574,1.241,1.146,1.434,1.719c0.189,0,0.286,0.957,0.286,2.867l-0.859,0.858
			c-0.574,0.574-1.146,1.435-1.72,2.58c-0.574,1.146-1.243,2.39-2.007,3.728c-0.383,0.572-0.86,1.242-1.434,2.006
			c-0.19,0.574-0.383,0.955-0.572,1.146c-0.191,0.19-0.479,0.479-0.86,0.858c-0.383,0.574-0.765,1.051-1.146,1.435
			c-0.765,0.573-1.434,1.146-2.006,1.719c-0.573,0.19-1.146,0.479-1.72,0.86c-0.191,0-0.383,0-0.573,0
			c-0.383,0.191-0.669,0.285-0.859,0.285l-0.286-0.285c0-0.19-0.097-0.383-0.287-0.573c-0.191-0.381-0.382-0.668-0.573-0.859
			l-0.573-0.287c-0.383-0.19-0.859-0.287-1.433-0.287c-0.574-0.188-1.243,0.002-2.007,0.574l-0.286,0.572
			c-0.191-0.189-0.287,0.957-0.287,3.438l1.146,0.287c0.382,0,1.051,0.191,2.007,0.574c0.382,0.191,0.764,0.381,1.146,0.572
			c1.337,0.573,2.675,1.242,4.014,2.006c1.527,0.574,2.961,1.338,4.299,2.293c1.527,0.574,2.865,1.147,4.013,1.721
			c1.146,0.191,1.337,0.287,0.573,0.287c0.764,0,1.91,0.287,3.438,0.859c1.528,0.19,2.962,0.573,4.301,1.146
			c0.764,0.191,1.813,0.574,3.151,1.146c0.382,0.19,0.669,0.287,0.86,0.287c1.337,0.571,2.196,1.051,2.579,1.432v0.574l-0.286,0.287
			c-0.191,0-0.86,0.287-2.007,0.858c-1.146,0.191-2.293,0.479-3.439,0.859c-0.383,0-0.956,0-1.72,0
			c-0.955,0.19-1.72,0.287-2.293,0.287s-1.242-0.097-2.006-0.287c-0.766,0-1.242,0-1.435,0c-0.765-0.191-1.624-0.572-2.579-1.146
			c-0.765-0.571-1.625-1.146-2.58-1.719c-0.383-0.19-0.859-0.574-1.433-1.146c-0.574-0.574-1.052-0.955-1.434-1.146
			c-1.146-1.146-2.197-2.006-3.152-2.58c-0.383-0.383-1.052-0.858-2.007-1.434c-0.383-0.191-0.669-0.381-0.859-0.572
			c-0.956-0.764-2.198-1.434-3.727-2.008l-0.573,0.574v5.731c0,2.484,0,4.203,0,5.158c0,1.146-0.096,1.816-0.286,2.008
			c0,0.381-0.096,0.859-0.287,1.435c0,0.381-0.096,0.858-0.286,1.432c0,0.191-0.096,0.479-0.287,0.861
			c0,0.188-0.096,0.381-0.286,0.571c-0.191,0.384-0.479,0.859-0.86,1.435c-0.191,0.571-0.573,1.051-1.146,1.434h-0.573l-0.286-0.574
			c-0.191,0-0.287-0.19-0.287-0.571c-0.191-0.384-0.382-0.574-0.573-0.574c-0.383-0.383-0.765-0.859-1.146-1.435
			c-0.191-0.571-0.765-1.338-1.72-2.293c-0.383-0.383-0.765-0.858-1.146-1.432c-0.383-0.191-0.669-0.383-0.859-0.574
			c-0.574-0.955-1.052-1.719-1.434-2.293c-0.191-0.764-0.478-1.434-0.859-2.006c-0.191-0.574-0.287-1.051-0.287-1.434l-1.433,1.146
			c-0.956,0.574-1.625,1.146-2.007,1.719c-0.191,0.191-0.765,0.957-1.72,2.294h-0.573l-0.573-0.572v-0.859
			c0-0.574,0.096-1.051,0.287-1.434c0.19-0.383,0.668-1.338,1.433-2.867v1.146l0.86-0.858c0.19-0.191,0.477-0.478,0.859-0.859
			c0.382-0.572,0.764-1.051,1.146-1.434c0.191-0.381,0.478-0.765,0.86-1.146c0.382-0.381,0.668-0.764,0.859-1.146
			c0.382-0.572,0.859-1.338,1.434-2.293c0.382-0.572,1.051-1.623,2.006-3.152c-0.383,0.383-0.191,0,0.573-1.146l-0.859,0.287
			c-0.191,0-0.479,0-0.86,0c-0.383,0.19-0.765,0.284-1.146,0.284l-0.859-0.571c-0.574-0.572-1.243-1.146-2.007-1.722
			c-0.765-0.955-1.434-1.813-2.006-2.578c-0.191-0.19-0.383-0.573-0.573-1.146c-0.191-0.383-0.479-0.955-0.86-1.721
			c-0.191-0.382-0.286-0.955-0.286-1.72c-0.191-0.573-0.383-1.051-0.573-1.434c-0.191-1.146-0.287-2.197-0.287-3.152
			c0-1.146,0.096-2.102,0.287-2.866c0.382-1.146,0.668-2.007,0.859-2.58c0.382-0.956,0.764-1.527,1.146-1.719
			c0.382-0.572,0.859-0.859,1.434-0.859c0.572-0.383,1.146-0.67,1.72-0.861c0.19-0.189,0.668-0.572,1.433-1.146
			c-0.383,0.191-0.191,0.098,0.573-0.285c0.191-0.191,0.382-0.383,0.573-0.574c0.382-0.191,0.955-0.477,1.72-0.859l-0.286-0.287
			c-0.191-0.381-0.574-0.572-1.146-0.572c-0.574-0.383-1.147-0.67-1.72-0.861c-0.191-0.189-0.479-0.381-0.86-0.572
			c-0.383-0.383-0.765-0.764-1.146-1.146v-0.574l0.287-0.285c0.19-0.383,0.859-0.574,2.006-0.574
			c1.146-0.381,2.293-0.668,3.439-0.859c0.955-0.572,2.102-0.955,3.439-1.146l0.287-0.574c0.19-0.572,0.286-1.049,0.286-1.432
			c0-0.574-0.096-1.146-0.286-1.721c-0.191-0.572-0.479-1.146-0.86-1.719c-0.191-0.574-0.573-1.051-1.146-1.434v-0.574l0.287-0.285
			c0.19-0.383,0.572-0.574,1.146-0.574c0.572-0.191,0.955-0.287,1.146-0.287c0.19,0,0.668,0.096,1.433,0.287
			c0.382,0,0.955,0.287,1.72,0.859c0.191,0.191,0.382,0.287,0.573,0.287c1.146,0.766,2.102,1.434,2.866,2.006L45.412,51.587z
			 M38.246,63.337H37.96c-0.191,0-0.67,0.096-1.434,0.287c-0.765,0-1.624,0.287-2.579,0.859c-1.146,0.383-2.198,0.957-3.153,1.721
			h-0.286c-0.191,0-1.052,0.383-2.58,1.146l-0.286,0.572c-0.191,0-0.287,0.957-0.287,2.867l0.573-0.287
			c0.191-0.191,0.765-0.477,1.72-0.859c-0.765,0.384-0.478,0.287,0.86-0.287c0.382-0.19,0.955-0.477,1.72-0.858
			c0.764-0.191,1.337-0.383,1.72-0.574c0.382-0.189,1.241-0.572,2.579-1.146c0.764-0.189,1.337-0.381,1.72-0.572L38.246,63.337
			L38.246,63.337z M37.673,70.79l-0.859,0.287c-0.574,0-1.338,0.19-2.293,0.572c-0.383,0-0.86,0-1.434,0
			c-0.573,0.19-1.051,0.286-1.433,0.286c-0.765,0-1.625,0.097-2.58,0.287c-0.573,0-1.146,0.287-1.72,0.859v1.146
			c0,0.574,0.096,1.435,0.287,2.58c0.382,0.955,0.668,2.006,0.859,3.152c0.382,1.146,0.669,2.006,0.86,2.58
			c0,0.191,0.095,0.285,0.286,0.285c0,0.383,0.19,0.766,0.573,1.146h0.573h0.573c0.382-0.188,0.669-0.285,0.86-0.285
			c0.572-0.19,1.241-0.573,2.006-1.146c0.955-0.574,1.528-1.051,1.72-1.434c0.382-0.572,0.669-0.955,0.86-1.146
			c0.19-0.572,0.286-0.955,0.286-1.146l-2.006-0.286c-0.383,0-0.86-0.097-1.434-0.287c-0.383-0.189-0.86-0.285-1.433-0.285
			c-0.191-0.191-0.383-0.383-0.573-0.574c-0.383,0-0.669-0.096-0.86-0.287v-0.572l1.146-0.573c0.382-0.189,0.859-0.478,1.434-0.859
			c0.382-0.19,0.764-0.381,1.146-0.572c0.955-0.764,2.196-1.434,3.726-2.008v-1.146L37.673,70.79z M36.526,91.427l-0.573,0.859
			c-0.191,0.19-0.478,0.574-0.859,1.146c-0.383,0.384-0.669,0.767-0.86,1.146c-0.573,0.574-1.338,1.529-2.293,2.867
			c0.191-0.191,0,0.096-0.573,0.858v0.287l0.287,1.146c0.19,0.571,0.572,1.146,1.146,1.719c0.19,0.191,0.477,0.383,0.859,0.574
			c0.382,0.383,0.669,0.668,0.86,0.858c0.572,0.191,1.05,0.479,1.433,0.859h0.573c0.382,0.191,0.764,0.287,1.146,0.287l0.573-0.574
			v-3.152c0-2.483-0.191-5.062-0.573-7.737L36.526,91.427z M53.15,66.491c-0.384-0.191-1.146-0.287-2.293-0.287
			c-1.147,0-2.197,0.096-3.152,0.287c-0.765,0-1.625,0.287-2.58,0.859c-0.573,0.191-1.146,0.574-1.72,1.146v2.865h1.434
			c0.955,0,1.719,0.096,2.293,0.287c0.572-0.191,1.241,0.286,2.006,1.434v0.572l-1.433,1.434c-0.765,0.955-1.625,1.721-2.58,2.293
			c-0.765,0.383-1.242,0.861-1.433,1.435c-0.191,0.19-0.287,0.573-0.287,1.146l0.859,0.287c0.572,0,1.146,0.19,1.721,0.572
			c0.571,0,1.24,0.287,2.006,0.858l0.287-0.571c0.189-0.572,0.571-1.146,1.146-1.722c0.572-0.764,1.146-1.719,1.72-2.865
			c0.572-1.338,1.051-2.579,1.434-3.727c0.382-1.527,0.669-2.674,0.86-3.439c0.189-0.764,0.285-1.623,0.285-2.58L53.15,66.491z"/>
	</g>
</g>
</svg>
