<?xml version="1.0" encoding="utf-8"?>
<!-- Generator: Adobe Illustrator 12.0.0, SVG Export Plug-In . SVG Version: 6.00 Build 51448)  -->
<!DOCTYPE svg PUBLIC "-//W3C//DTD SVG 1.1//EN" "http://www.w3.org/Graphics/SVG/1.1/DTD/svg11.dtd" [
	<!ENTITY ns_flows "http://ns.adobe.com/Flows/1.0/">
	<!ENTITY ns_extend "http://ns.adobe.com/Extensibility/1.0/">
	<!ENTITY ns_ai "http://ns.adobe.com/AdobeIllustrator/10.0/">
	<!ENTITY ns_graphs "http://ns.adobe.com/Graphs/1.0/">
	<!ENTITY ns_vars "http://ns.adobe.com/Variables/1.0/">
	<!ENTITY ns_imrep "http://ns.adobe.com/ImageReplacement/1.0/">
	<!ENTITY ns_sfw "http://ns.adobe.com/SaveForWeb/1.0/">
	<!ENTITY ns_custom "http://ns.adobe.com/GenericCustomNamespace/1.0/">
	<!ENTITY ns_adobe_xpath "http://ns.adobe.com/XPath/1.0/">
	<!ENTITY ns_svg "http://www.w3.org/2000/svg">
	<!ENTITY ns_xlink "http://www.w3.org/1999/xlink">
]>
<svg  version="1.1"
	 xmlns:x="&ns_extend;" xmlns:i="&ns_ai;" xmlns:graph="&ns_graphs;" i:viewOrigin="-0.3193 135.7061" i:rulerOrigin="0 0" i:pageBounds="0 136 85 0"
	 xmlns="&ns_svg;" xmlns:xlink="&ns_xlink;" xmlns:a="http://ns.adobe.com/AdobeSVGViewerExtensions/3.0/"
	 width="85.678" height="136.025" viewBox="0 0 85.678 136.025" overflow="visible" enable-background="new 0 0 85.678 136.025"
	 xml:space="preserve">
<metadata>
	<variableSets  xmlns="http://ns.adobe.com/Variables/1.0/">
		<variableSet  varSetName="binding1" locked="none">
			<variables></variables>
			<v:sampleDataSets  xmlns:v="http://ns.adobe.com/Variables/1.0/" xmlns="http://ns.adobe.com/GenericCustomNamespace/1.0/">
				</v:sampleDataSets>
		</variableSet>
	</variableSets>
</metadata>
<g id="图层_1" i:knockout="Off" i:layer="yes" i:dimmedPercent="50" i:rgbTrio="#4F008000FFFF">
	<g>
		<path fill="#333333" d="M83.403,37.587V12.625c0-5.149-3.352-9.325-7.481-9.325H7.804c-4.133,0-7.484,4.175-7.484,9.325h0.002
			v115.211c0,4.344,3.351,7.869,7.482,7.869h68.118c4.131,0,7.481-3.525,7.481-7.869h0.002V37.608
			C83.405,37.601,83.403,37.594,83.403,37.587z"/>
		
			<linearGradient id="XMLID_3_" gradientUnits="userSpaceOnUse" x1="-23.3101" y1="112.9883" x2="-23.3101" y2="-12.5781" gradientTransform="matrix(-1 0 0 -1 20.5059 114.334)">
			<stop  offset="0.0899" style="stop-color:#2089B9"/>
			<stop  offset="0.0985" style="stop-color:#4FA3C2"/>
			<stop  offset="0.1071" style="stop-color:#77B9CA"/>
			<stop  offset="0.1138" style="stop-color:#8FC7CF"/>
			<stop  offset="0.118" style="stop-color:#98CCD1"/>
			<stop  offset="0.1341" style="stop-color:#9ECFD3"/>
			<stop  offset="0.156" style="stop-color:#AFD6D9"/>
			<stop  offset="0.1809" style="stop-color:#CBE1E3"/>
			<stop  offset="0.1966" style="stop-color:#E1EAEB"/>
			<a:midPointStop  offset="0.0899" style="stop-color:#2089B9"/>
			<a:midPointStop  offset="0.4" style="stop-color:#2089B9"/>
			<a:midPointStop  offset="0.118" style="stop-color:#98CCD1"/>
			<a:midPointStop  offset="0.6429" style="stop-color:#98CCD1"/>
			<a:midPointStop  offset="0.1966" style="stop-color:#E1EAEB"/>
		</linearGradient>
		<path fill="url(#XMLID_3_)" d="M2.273,10.671c0-5.15,3.351-9.325,7.481-9.325h68.12c4.131,0,7.482,4.176,7.482,9.325v106.916
			c0,5.148-3.353,9.326-7.482,9.326H9.757c-4.132,0-7.483-4.176-7.483-9.326V10.671L2.273,10.671z"/>
		<path fill="none" stroke="#333333" stroke-width="0.977" d="M2.273,10.671c0-5.15,3.351-9.325,7.481-9.325h68.12
			c4.131,0,7.482,4.176,7.482,9.325v106.916c0,5.148-3.353,9.326-7.482,9.326H9.757c-4.132,0-7.483-4.176-7.483-9.326V10.671
			L2.273,10.671z"/>
		<path fill="#FFFFFF" d="M85.357,125.882c0,4.344-3.353,7.869-7.482,7.869H9.757c-4.132,0-7.483-3.523-7.483-7.869V35.654
			c0-4.347,3.352-7.87,7.483-7.87h68.119c4.131,0,7.482,3.523,7.482,7.87L85.357,125.882L85.357,125.882z"/>
		
			<linearGradient id="XMLID_4_" gradientUnits="userSpaceOnUse" x1="3.3818" y1="80.7676" x2="85.5273" y2="80.7676" gradientTransform="matrix(1 0 0 1 -0.6387 0)">
			<stop  offset="0" style="stop-color:#A2D8E0"/>
			<stop  offset="0.0899" style="stop-color:#1878AD"/>
			<stop  offset="0.2135" style="stop-color:#194D91"/>
			<stop  offset="0.6404" style="stop-color:#2B90BD"/>
			<stop  offset="0.9438" style="stop-color:#82CBDE"/>
			<stop  offset="1" style="stop-color:#1A478D"/>
			<a:midPointStop  offset="0" style="stop-color:#A2D8E0"/>
			<a:midPointStop  offset="0.5" style="stop-color:#A2D8E0"/>
			<a:midPointStop  offset="0.0899" style="stop-color:#1878AD"/>
			<a:midPointStop  offset="0.5" style="stop-color:#1878AD"/>
			<a:midPointStop  offset="0.2135" style="stop-color:#194D91"/>
			<a:midPointStop  offset="0.5" style="stop-color:#194D91"/>
			<a:midPointStop  offset="0.6404" style="stop-color:#2B90BD"/>
			<a:midPointStop  offset="0.5" style="stop-color:#2B90BD"/>
			<a:midPointStop  offset="0.9438" style="stop-color:#82CBDE"/>
			<a:midPointStop  offset="0.5" style="stop-color:#82CBDE"/>
			<a:midPointStop  offset="1" style="stop-color:#1A478D"/>
		</linearGradient>
		<path i:isolated="yes" i:knockout="Off" opacity="0.1" fill="url(#XMLID_4_)" enable-background="new    " d="M84.888,125.882
			c0,4.344-3.314,7.869-7.398,7.869H10.144c-4.086,0-7.4-3.523-7.4-7.869V35.654c0-4.347,3.314-7.87,7.4-7.87H77.49
			c4.084,0,7.398,3.523,7.398,7.87L84.888,125.882L84.888,125.882z"/>
		<path fill="none" stroke="#4D4D4D" stroke-width="0.977" d="M85.357,35.633V10.671c0-5.149-3.352-9.325-7.482-9.325H9.755
			c-4.131,0-7.481,4.175-7.481,9.325v115.21c0,4.346,3.352,7.869,7.483,7.869h68.118c4.13,0,7.482-3.525,7.482-7.869l0.001-90.228
			C85.358,35.647,85.357,35.64,85.357,35.633z"/>
	</g>
	<g i:knockout="Off">
		<path fill="#24258D" d="M53.528,62.515c-0.191,0-0.383,0.096-0.574,0.285c-0.191,0.191-0.383,0.287-0.572,0.287
			c-0.19,0-0.67,0.096-1.434,0.287c0.381-0.191,0.188-0.096-0.574,0.287c-0.383,0-1.146,0.383-2.293,1.146
			c-0.572,0.383-0.955,0.668-1.146,0.859l-1.146-0.574l-0.572,0.574l1.72,1.719h1.721l1.719,1.722l0.574-0.575l2.293,2.293v3.153
			l1.434-0.286c0.955,0,1.527,0,1.72,0c0.19-0.191,0.668,0,1.434,0.571l0.572-0.285c0.383-0.19,0.67-0.286,0.86-0.286
			c0.381-0.191,0.955,0,1.72,0.571c0.955,0.191,1.719,0.574,2.293,1.146c0.19,0.19,0.571,0.383,1.146,0.574
			c0.383,0.383,0.668,0.668,0.859,0.858c0.574,0.383,1.528,1.242,2.867,2.58v1.146l-0.574,0.571
			c-0.383,0.191-0.765,0.861-1.146,2.009c0,0.19-0.19,0.571-0.571,1.146c-0.191,0.764-0.384,1.338-0.574,1.719
			c0,0.383-0.191,0.767-0.572,1.146c-0.383,0.574-0.574,1.051-0.574,1.434c-0.383,0.574-0.764,1.529-1.146,2.865
			c-0.383,1.146-0.859,2.293-1.433,3.439c-0.573,1.146-1.243,2.293-2.008,3.438c-0.764,1.146-1.434,2.104-2.006,2.867
			c-0.574,0.574-1.051,1.146-1.434,1.719c-0.191,0.191-0.765,0.479-1.72,0.861c-0.766,0-1.528,0.287-2.293,0.858l-0.287-0.858
			c-0.19-0.191-0.286-0.574-0.286-1.146c0-0.383-0.097-0.67-0.285-0.86c-0.383-0.955-0.861-2.291-1.435-4.013h-2.006
			c-1.338,0-2.58,0.097-3.727,0.287c-1.147,0-2.198,0.191-3.153,0.572c-0.383,0-1.242,0.096-2.58,0.287
			c0.955-0.191,0.668-0.096-0.859,0.287c-1.338,0-2.58,0.287-3.727,0.858c-1.146,0.191-2.197,0.574-3.152,1.146
			c-0.766,0.383-1.625,0.572-2.58,0.572c-0.383,0-0.766-0.095-1.146-0.285H26.3c-0.383-0.383-0.859-0.859-1.432-1.435
			c-0.191-0.19-0.479-0.477-0.861-0.858c-0.191-0.574-0.381-0.955-0.572-1.146c0-0.19-0.096-0.383-0.287-0.574
			c-0.191-0.19-0.479-0.764-0.859-1.719c-0.191-1.146-0.479-2.006-0.859-2.58c-0.191-0.383-0.287-0.858-0.287-1.434
			c0-0.381-0.096-0.765-0.287-1.146c-0.191-1.146-0.479-2.102-0.859-2.864c-0.191-0.574-0.479-1.339-0.859-2.293
			c0.189,0.383,0.094,0.286-0.287-0.287c-0.191-0.955-0.479-2.007-0.859-3.152c-0.191-1.529-0.098-2.676,0.285-3.439
			c0.383-1.146,0.859-2.102,1.434-2.866c0.383-0.955,1.242-1.814,2.58-2.58l-0.859,1.146c-0.574,0.574-0.957,1.338-1.146,2.293
			c-0.191,0.574-0.287,1.148-0.287,1.722l0.572,0.858c0,0.191,0.191,0.479,0.574,0.859c0.381,0.574,0.668,1.053,0.859,1.434
			c0.764,1.146,1.625,2.197,2.58,3.152l0.287-0.859c0.189-0.764,0.285-0.955,0.285-0.571c0-0.384,0.287-0.859,0.861-1.435
			c0.572-0.955,1.336-1.529,2.293-1.721c0.381-0.381,1.146-0.668,2.293-0.859c-0.574,0-0.383-0.096,0.572-0.287
			c0.764-0.571,1.434-0.858,2.006-0.858l-0.285-0.859c-0.191-0.191-0.287-0.477-0.287-0.859c0-0.382-0.096-0.67-0.287-0.86
			c0-0.189-0.096-0.478-0.287-0.859c0-0.381-0.096-0.668-0.285-0.858c-0.191-0.384-0.287-0.955-0.287-1.722l0.572-0.285
			c0.191-0.19,0.574-0.287,1.146-0.287l0.574,0.572l0.572,0.287c0.383,0.383,0.67,0.67,0.861,0.859
			c0.572,0.19,1.432,1.147,2.578,2.867l0.287-0.574c0.383-0.572,0.668-1.24,0.859-2.006c0.383-1.146,0.67-1.814,0.861-2.007
			c0.381-0.571,1.051-1.528,2.006-2.867v-0.57h-0.287c-0.191,0-0.574,0.096-1.146,0.287c-0.191,0-0.479,0-0.859,0
			c-0.383,0.191-0.766,0.285-1.146,0.285l-1.721-1.146l-0.572,0.287c-0.191,0-0.479,0.096-0.859,0.287
			c-0.383,0.191-0.67,0.287-0.861,0.287c-0.764,0-1.623,0.287-2.578,0.859c-0.766,0.19-1.625,0.479-2.58,0.858
			c-0.766,0-1.434,0.191-2.006,0.574c-0.191,0-0.383,0-0.574,0c-0.383,0.19-0.668,0.285-0.859,0.285l1.146-0.859
			c0.381-0.19,0.859-0.572,1.434-1.146c0.381-0.381,0.764-0.668,1.146-0.859c0.764-0.955,1.814-1.529,3.152-1.721l-0.574-0.572
			c0-0.191-0.191-0.477-0.572-0.859c-0.383-0.191-0.574-0.383-0.574-0.574c-0.383-0.572-0.859-1.338-1.432-2.293
			c-0.574-1.146-0.861-1.814-0.861-2.006l2.293-0.287c1.529-0.381,2.771-0.572,3.727-0.572c0.955-0.383,1.91-0.574,2.867-0.574
			c0.955-0.381,2.006-0.668,3.152-0.859c0.572-0.383,1.434-0.668,2.58-0.859c-0.574,0-0.383-0.096,0.573-0.287
			c0.955-0.572,1.719-0.859,2.293-0.859c0.572-0.191,0.955-0.287,1.146-0.287c0.191-0.191,0.669,0,1.435,0.572
			c0.764,0.191,1.527,0.574,2.293,1.146c0.955,0.383,1.527,0.861,1.719,1.434c0.383,0.574,0.67,1.146,0.861,1.721
			c0.188,0.383,0.285,1.051,0.285,2.006L53.528,62.515z M26.872,84.583v0.287l-0.287,1.146c-0.191,0.191-0.287,0.574-0.287,1.146
			c-0.191,0.383-0.285,0.766-0.285,1.146c-0.191,0.955-0.191,1.722,0,2.293c0.381,0.574,0.381,1.146,0,1.722
			c-0.383,0.383-0.287,1.623,0.285,3.725l1.721-0.285c1.146-0.383,1.432-0.479,0.859-0.287c0.572-0.19,1.146-0.287,1.721-0.287
			c0.572-0.381,1.623-0.858,3.152-1.434l-0.287-1.719c-0.191-1.146-0.287-2.006-0.287-2.58c0-0.572,0.096-1.435,0.287-2.58
			c0.383-1.146,0.383-1.91,0-2.293c-0.191,0-0.67,0.096-1.434,0.287c-0.572,0-1.146,0.287-1.719,0.858L26.872,84.583z
			 M43.209,80.284c-0.574,0-0.957,0.19-1.146,0.574l-0.574,0.284c-0.574,0.191-1.242,0.479-2.006,0.861l-0.287,1.432
			c-0.191,0.191-0.287,0.574-0.287,1.146c-0.191,0.574-0.285,0.957-0.285,1.146c-0.191,0.191-0.287,0.767-0.287,1.722
			c-0.191,0.764-0.287,1.338-0.287,1.719c-0.191,0.957-0.287,2.391-0.287,4.301l0.861-0.287c0.189,0,0.381,0,0.572,0
			c0.764-0.19,1.434-0.287,2.006-0.287v-0.571c0-0.191,0.096-0.574,0.287-1.146c0.191-0.19,0.287-0.574,0.287-1.146
			c0.191-0.574,0.287-0.955,0.287-1.146c0-0.383,0.094-0.858,0.285-1.434c0-0.572,0.096-1.051,0.287-1.435
			c0-0.381,0.096-0.858,0.287-1.434c0-0.572,0.096-0.955,0.287-1.146c0.19-0.381,0.286-0.954,0.286-1.719
			c0.19-0.572,0.287-1.051,0.287-1.434H43.209z M42.063,69.679c-0.574,0.191-1.053,0.767-1.434,1.722
			c-0.383,0.573-0.479,0.67-0.287,0.286c-0.191,0.384-0.479,1.146-0.859,2.293c-0.383,0.765-0.479,0.955-0.287,0.572
			c-0.191,0.383-0.287,0.861-0.287,1.435l1.146,1.146l0.574-0.287c0.191-0.19,1.527-0.571,4.012-1.146v-0.572
			c0-0.383,0.097-0.859,0.287-1.434l0.287-1.435c0-0.19-0.096-0.572-0.287-1.146c0-0.191-0.096-0.381-0.287-0.572
			c0-0.383-0.096-0.574-0.284-0.574c-0.191-0.381-0.67-0.668-1.435-0.858L42.063,69.679z M55.247,77.419l-0.572,0.285
			c-0.19,0-0.479,0.096-0.86,0.287c-0.765,0-1.435,0.19-2.007,0.574l-0.571,0.858c0,0.191-0.191,0.574-0.574,1.146
			c-0.191,0.764-0.383,1.434-0.572,2.006c-0.574,1.146-1.053,2.483-1.434,4.014c-0.383,1.338-0.861,2.865-1.435,4.586l0.859,0.859
			l1.146-1.146h0.287c0.384,0,1.052,0.191,2.007,0.572l0.573,0.861c0,0.19,0.097,0.381,0.287,0.571
			c0.381,0.574,0.668,1.052,0.859,1.435l0.858-1.146c0.572-0.955,1.052-1.719,1.435-2.293c0.381-0.764,0.668-1.434,0.858-2.006
			c0.384-0.574,0.668-1.434,0.859-2.58c0-0.383,0.191-1.051,0.574-2.006c0.381-0.764,0.572-1.338,0.572-1.721
			c0.383-1.338,0.67-2.293,0.86-2.865c0-0.191,0.095-0.383,0.285-0.574c0.191-0.571,0.383-1.051,0.574-1.434l-1.146-0.572
			l-1.721,1.146l-0.285-0.287c-0.19-0.381-0.67-0.668-1.434-0.859L55.247,77.419z"/>
	</g>
</g>
</svg>
