<?xml version="1.0" encoding="utf-8"?>
<!-- Generator: Adobe Illustrator 12.0.0, SVG Export Plug-In . SVG Version: 6.00 Build 51448)  -->
<!DOCTYPE svg PUBLIC "-//W3C//DTD SVG 1.1//EN" "http://www.w3.org/Graphics/SVG/1.1/DTD/svg11.dtd" [
	<!ENTITY ns_flows "http://ns.adobe.com/Flows/1.0/">
	<!ENTITY ns_extend "http://ns.adobe.com/Extensibility/1.0/">
	<!ENTITY ns_ai "http://ns.adobe.com/AdobeIllustrator/10.0/">
	<!ENTITY ns_graphs "http://ns.adobe.com/Graphs/1.0/">
	<!ENTITY ns_vars "http://ns.adobe.com/Variables/1.0/">
	<!ENTITY ns_imrep "http://ns.adobe.com/ImageReplacement/1.0/">
	<!ENTITY ns_sfw "http://ns.adobe.com/SaveForWeb/1.0/">
	<!ENTITY ns_custom "http://ns.adobe.com/GenericCustomNamespace/1.0/">
	<!ENTITY ns_adobe_xpath "http://ns.adobe.com/XPath/1.0/">
	<!ENTITY ns_svg "http://www.w3.org/2000/svg">
	<!ENTITY ns_xlink "http://www.w3.org/1999/xlink">
]>
<svg  version="1.1"
	 xmlns:x="&ns_extend;" xmlns:i="&ns_ai;" xmlns:graph="&ns_graphs;" i:viewOrigin="-0.3193 135.7061" i:rulerOrigin="0 0" i:pageBounds="0 136 85 0"
	 xmlns="&ns_svg;" xmlns:xlink="&ns_xlink;" xmlns:a="http://ns.adobe.com/AdobeSVGViewerExtensions/3.0/"
	 width="85.678" height="136.025" viewBox="0 0 85.678 136.025" overflow="visible" enable-background="new 0 0 85.678 136.025"
	 xml:space="preserve">
<metadata>
	<variableSets  xmlns="http://ns.adobe.com/Variables/1.0/">
		<variableSet  varSetName="binding1" locked="none">
			<variables></variables>
			<v:sampleDataSets  xmlns:v="http://ns.adobe.com/Variables/1.0/" xmlns="http://ns.adobe.com/GenericCustomNamespace/1.0/">
				</v:sampleDataSets>
		</variableSet>
	</variableSets>
</metadata>
<g id="图层_1" i:knockout="Off" i:layer="yes" i:dimmedPercent="50" i:rgbTrio="#4F008000FFFF">
	<g>
		<path fill="#333333" d="M83.403,37.587V12.625c0-5.149-3.352-9.325-7.481-9.325H7.804c-4.133,0-7.484,4.175-7.484,9.325h0.002
			v115.211c0,4.344,3.351,7.869,7.482,7.869h68.118c4.131,0,7.481-3.525,7.481-7.869h0.002V37.608
			C83.405,37.601,83.403,37.594,83.403,37.587z"/>
		
			<linearGradient id="XMLID_3_" gradientUnits="userSpaceOnUse" x1="-23.3101" y1="112.9883" x2="-23.3101" y2="-12.5781" gradientTransform="matrix(-1 0 0 -1 20.5059 114.334)">
			<stop  offset="0.0899" style="stop-color:#2089B9"/>
			<stop  offset="0.0985" style="stop-color:#4FA3C2"/>
			<stop  offset="0.1071" style="stop-color:#77B9CA"/>
			<stop  offset="0.1138" style="stop-color:#8FC7CF"/>
			<stop  offset="0.118" style="stop-color:#98CCD1"/>
			<stop  offset="0.1341" style="stop-color:#9ECFD3"/>
			<stop  offset="0.156" style="stop-color:#AFD6D9"/>
			<stop  offset="0.1809" style="stop-color:#CBE1E3"/>
			<stop  offset="0.1966" style="stop-color:#E1EAEB"/>
			<a:midPointStop  offset="0.0899" style="stop-color:#2089B9"/>
			<a:midPointStop  offset="0.4" style="stop-color:#2089B9"/>
			<a:midPointStop  offset="0.118" style="stop-color:#98CCD1"/>
			<a:midPointStop  offset="0.6429" style="stop-color:#98CCD1"/>
			<a:midPointStop  offset="0.1966" style="stop-color:#E1EAEB"/>
		</linearGradient>
		<path fill="url(#XMLID_3_)" d="M2.273,10.671c0-5.15,3.351-9.325,7.481-9.325h68.12c4.131,0,7.482,4.176,7.482,9.325v106.916
			c0,5.148-3.353,9.326-7.482,9.326H9.757c-4.132,0-7.483-4.176-7.483-9.326V10.671L2.273,10.671z"/>
		<path fill="none" stroke="#333333" stroke-width="0.977" d="M2.273,10.671c0-5.15,3.351-9.325,7.481-9.325h68.12
			c4.131,0,7.482,4.176,7.482,9.325v106.916c0,5.148-3.353,9.326-7.482,9.326H9.757c-4.132,0-7.483-4.176-7.483-9.326V10.671
			L2.273,10.671z"/>
		<path fill="#FFFFFF" d="M85.357,125.882c0,4.344-3.353,7.869-7.482,7.869H9.757c-4.132,0-7.483-3.523-7.483-7.869V35.654
			c0-4.347,3.352-7.87,7.483-7.87h68.119c4.131,0,7.482,3.523,7.482,7.87L85.357,125.882L85.357,125.882z"/>
		
			<linearGradient id="XMLID_4_" gradientUnits="userSpaceOnUse" x1="3.3818" y1="80.7676" x2="85.5273" y2="80.7676" gradientTransform="matrix(1 0 0 1 -0.6387 0)">
			<stop  offset="0" style="stop-color:#A2D8E0"/>
			<stop  offset="0.0899" style="stop-color:#1878AD"/>
			<stop  offset="0.2135" style="stop-color:#194D91"/>
			<stop  offset="0.6404" style="stop-color:#2B90BD"/>
			<stop  offset="0.9438" style="stop-color:#82CBDE"/>
			<stop  offset="1" style="stop-color:#1A478D"/>
			<a:midPointStop  offset="0" style="stop-color:#A2D8E0"/>
			<a:midPointStop  offset="0.5" style="stop-color:#A2D8E0"/>
			<a:midPointStop  offset="0.0899" style="stop-color:#1878AD"/>
			<a:midPointStop  offset="0.5" style="stop-color:#1878AD"/>
			<a:midPointStop  offset="0.2135" style="stop-color:#194D91"/>
			<a:midPointStop  offset="0.5" style="stop-color:#194D91"/>
			<a:midPointStop  offset="0.6404" style="stop-color:#2B90BD"/>
			<a:midPointStop  offset="0.5" style="stop-color:#2B90BD"/>
			<a:midPointStop  offset="0.9438" style="stop-color:#82CBDE"/>
			<a:midPointStop  offset="0.5" style="stop-color:#82CBDE"/>
			<a:midPointStop  offset="1" style="stop-color:#1A478D"/>
		</linearGradient>
		<path i:isolated="yes" i:knockout="Off" opacity="0.1" fill="url(#XMLID_4_)" enable-background="new    " d="M84.888,125.882
			c0,4.344-3.314,7.869-7.398,7.869H10.144c-4.086,0-7.4-3.523-7.4-7.869V35.654c0-4.347,3.314-7.87,7.4-7.87H77.49
			c4.084,0,7.398,3.523,7.398,7.87L84.888,125.882L84.888,125.882z"/>
		<path fill="none" stroke="#4D4D4D" stroke-width="0.977" d="M85.357,35.633V10.671c0-5.149-3.352-9.325-7.482-9.325H9.755
			c-4.131,0-7.481,4.175-7.481,9.325v115.21c0,4.346,3.352,7.869,7.483,7.869h68.118c4.13,0,7.482-3.525,7.482-7.869l0.001-90.228
			C85.358,35.647,85.357,35.64,85.357,35.633z"/>
	</g>
	<g i:knockout="Off">
		<path fill="#24258D" d="M48.687,52.304c1.146,0.572,2.196,1.146,3.152,1.719c0.382,0.191,0.955,0.479,1.72,0.859
			c0.19,0.191,0.383,0.287,0.573,0.287s0.478,0,0.859,0c0.382,0.191,0.764,0.287,1.146,0.287l1.146,1.719v0.574l1.146,1.146
			l-1.146,1.719v1.434c0,0.955-0.096,2.293-0.286,4.014c0,0.383-0.096,0.955-0.287,1.719c-0.191,1.338-0.382,2.581-0.573,3.727
			l1.146,2.293l0.573-1.721l0.859-0.572c0.572-0.572,1.337-0.858,2.293-0.858c0.955-0.384,1.72-0.671,2.293-0.861
			c0.572-0.572,1.146-0.859,1.721-0.859c0.571-0.19,0.954-0.287,1.146-0.287c0.382,0,1.051,0.191,2.006,0.574l0.573,0.859
			c0.382,0.574,0.669,1.242,0.86,2.006c0.189,0.574,0.285,1.147,0.285,1.721c0.191,0.191,0,0.955-0.572,2.293l-0.859,0.572
			c-0.19,0-0.383,0.096-0.573,0.287c-0.19,0-0.765,0.287-1.72,0.858c-0.956,0.384-2.007,0.861-3.153,1.435
			c-0.19,0.19-0.572,0.383-1.146,0.574c-0.383,0-0.956,0.287-1.72,0.858c-0.766,0.191-1.721,0.765-2.866,1.72H56.71l-1.72-1.146
			l-0.286,0.861c-0.191,0.19-0.287,0.571-0.287,1.146c-0.191,0.383-0.286,0.765-0.286,1.146c-0.19,0.383-0.287,0.858-0.287,1.432
			c-0.19,0.574-0.286,1.053-0.286,1.434c-0.19,0.955-0.286,1.722-0.286,2.294c0,0.573,0.096,1.241,0.286,2.006
			c0.19,0.573,0.286,0.766,0.286,0.573c0,0.191,0.286,0.671,0.86,1.435c0.382,0.383,1.433,0.955,3.152,1.719
			c-0.191-0.19,0.19-0.096,1.146,0.287l0.86-0.287c0.571-0.381,1.241-0.668,2.006-0.859c0.382-0.383,1.91-0.954,4.586-1.721
			l0.573,1.146l0.572-1.146l1.146,0.574c0.955,0.191,1.528,0.479,1.72,0.859c0.382,0,1.528,0.86,3.439,2.579l0.287,1.146
			c0.189,0.574,0.286,1.146,0.286,1.719c0,0.191-0.191,0.767-0.573,1.722c0.19-0.384,0,0-0.573,1.146l-0.859,0.287
			c-0.573,0-1.528,0.287-2.865,0.859c-1.338,0.19-2.391,0.286-3.153,0.286c-0.765-0.383-1.72-0.383-2.866,0
			c-1.146,0-2.007,0-2.579,0c-0.574-0.19-1.146-0.286-1.72-0.286c-0.191,0-0.479,0-0.86,0c-0.955-0.191-1.72-0.287-2.293-0.287
			c-0.383,0-0.859-0.097-1.433-0.287c-0.574-0.189-1.052-0.285-1.434-0.285c-0.191-0.383-0.766-0.67-1.721-0.861
			c-0.765-0.571-1.338-1.145-1.72-1.719c0-0.383-0.191-0.859-0.573-1.434c-0.383-0.382-0.573-0.765-0.573-1.146
			c-0.19-1.146-0.478-2.102-0.858-2.865c-0.191-1.146-0.287-2.102-0.287-2.866c0-1.146,0.096-2.103,0.287-2.865
			c0.189-0.383,0.286-1.051,0.286-2.008c0.19-0.765,0.287-1.336,0.287-1.72c0.189-1.719,0.285-2.676,0.285-2.866
			c0-0.572-0.19-1.527-0.572-2.865l-0.859,0.858c-0.191,0.191-0.765,0.67-1.72,1.435c0.572-0.383,0.286-0.191-0.86,0.572
			c-0.955,0.383-3.631,2.866-8.025,7.452l-0.286,2.007c-0.191,0.383-0.287,1.051-0.287,2.006c-0.191,0.957-0.286,1.625-0.286,2.008
			c-0.191,0.383-0.287,0.955-0.287,1.719c0,0.767-0.096,1.338-0.286,1.721c0,0.191-0.096,0.572-0.287,1.146
			c0,0.572-0.096,0.955-0.286,1.146c-0.383,0.572-0.86,1.623-1.434,3.152l-0.573-0.574c0-0.188-0.191-0.477-0.573-0.858
			c-0.573-0.765-1.146-1.623-1.72-2.58l-1.72,1.146l-0.286,0.861c-0.191,0.383-0.67,1.146-1.434,2.293
			c-0.955,1.146-2.293,2.293-4.013,3.439H22.03c-0.574-0.191-1.243-0.287-2.007-0.287l-0.286-0.287
			c-0.191-0.191-0.574-0.859-1.146-2.006c-0.191-0.384-0.479-1.052-0.86-2.007c-0.191-0.383-0.286-0.67-0.286-0.86
			c-0.191-0.955-0.287-1.527-0.287-1.719c0-0.572,0.19-1.146,0.573-1.722c0.382-0.955,0.669-1.719,0.86-2.293
			c0.382-0.955,0.668-2.006,0.859-3.151c0.191-0.572,0.478-1.435,0.86-2.58c0.19-0.382,0.286-0.668,0.286-0.859
			c0.191-0.572,0.573-1.434,1.146-2.58c0.191-0.381,0.382-0.764,0.573-1.146L21.456,86.7c-0.574-0.191-1.243-0.574-2.007-1.146
			c-0.765-0.574-1.242-1.146-1.433-1.721c-0.191-0.191-0.287-0.572-0.287-1.146c-0.191-0.381-0.382-0.668-0.573-0.858
			c0-0.191-0.191-0.572-0.573-1.146c-0.383-0.955-0.765-1.91-1.146-2.866h0.86c0.19,0,0.477,0,0.859,0
			c0.764-0.189,1.433-0.285,2.007-0.285c1.528-0.191,2.675-0.287,3.439-0.287c0.382,0,0.859-0.097,1.433-0.287
			c0.382,0,0.669,0,0.86,0c0.19-0.191,1.241-0.287,3.152-0.287l0.86-0.572c0.572-0.571,1.241-0.955,2.006-1.146l-0.286-0.574
			c-0.191-0.572-0.287-0.955-0.287-1.146c0-0.188-0.096-0.764-0.286-1.719c0.19,0.574,0.095,0.287-0.287-0.858
			c-0.191-0.574-0.382-1.339-0.573-2.293c-0.383-0.574-0.573-1.051-0.573-1.434c-0.191-0.955-0.573-2.484-1.146-4.586l0.86,0.287
			c0.19,0,0.477,0.096,0.859,0.285h0.573c0.382,0,1.051,0.096,2.007,0.287c0.764-0.191,2.006,0.67,3.726,2.58h0.573l0.86,1.146
			c0.572,0.574,0.955,1.338,1.146,2.293c0.19,0.191,0.286,0.574,0.286,1.146c0.191,0.573,0.287,0.955,0.287,1.146
			c0.19,0.574,0.286,1.242,0.286,2.006c0,0.574-0.096,1.435-0.286,2.58c0,0.383-0.096,0.859-0.287,1.435
			c0,0.571-0.096,1.051-0.286,1.432c-0.191,0.191-0.287,0.67-0.287,1.434c-0.191,0.574-0.286,1.052-0.286,1.435
			c-0.191,0.574-0.287,1.529-0.287,2.865c-0.191,0.957-0.286,1.721-0.286,2.293l0.859-0.859c0.382-0.191,1.146-0.859,2.293-2.006
			c0.955-0.764,1.72-1.435,2.293-2.006c0.764-0.765,1.815-1.722,3.153-2.867c1.527-1.527,2.771-2.771,3.726-3.728l0.287-4.299
			c0.19-2.865,0.286-4.777,0.286-5.732c0-1.146-0.096-2.293-0.286-3.439c0-0.381-0.096-0.859-0.287-1.434
			c0-0.381-0.096-0.859-0.286-1.432c-0.19-0.574-0.479-1.146-0.859-1.721c-0.191-0.191-0.286-0.572-0.286-1.146
			c-0.191-0.381-0.383-0.668-0.573-0.859c0-0.191-0.096-0.477-0.287-0.859c-0.19-0.764-0.382-1.434-0.573-2.008l0.573-1.146
			L48.687,52.304z M28.336,85.552c-0.574,0.572-1.243,1.146-2.007,1.719c-0.765,0.384-1.624,1.146-2.579,2.293
			c-0.956,0.955-1.625,1.722-2.007,2.294c0,0.19-0.191,0.479-0.573,0.858c-0.383,0.383-0.573,0.67-0.573,0.861
			c-0.383,0.572-0.478,0.668-0.286,0.285c-0.191,0.383-0.479,1.146-0.86,2.293c-0.191,0.573-0.191,0.766,0,0.573
			c-0.383,0.955-0.573,1.91-0.573,2.865l1.434-0.572c0.382-0.19,0.955-0.477,1.72-0.858c0.572-0.191,1.05-0.383,1.433-0.574
			c0.191-0.19,0.478-0.381,0.86-0.572c0.572-0.383,1.146-0.573,1.72-0.573c0.764-0.382,2.006-1.433,3.726-3.152l0.287-1.721
			c0.19-1.146,0.286-2.197,0.286-3.152s-0.383-2.197-1.146-3.727L28.336,85.552z"/>
	</g>
</g>
</svg>
