<?xml version="1.0" encoding="utf-8"?>
<!-- Generator: Adobe Illustrator 12.0.0, SVG Export Plug-In . SVG Version: 6.00 Build 51448)  -->
<!DOCTYPE svg PUBLIC "-//W3C//DTD SVG 1.1//EN" "http://www.w3.org/Graphics/SVG/1.1/DTD/svg11.dtd" [
	<!ENTITY ns_flows "http://ns.adobe.com/Flows/1.0/">
	<!ENTITY ns_extend "http://ns.adobe.com/Extensibility/1.0/">
	<!ENTITY ns_ai "http://ns.adobe.com/AdobeIllustrator/10.0/">
	<!ENTITY ns_graphs "http://ns.adobe.com/Graphs/1.0/">
	<!ENTITY ns_vars "http://ns.adobe.com/Variables/1.0/">
	<!ENTITY ns_imrep "http://ns.adobe.com/ImageReplacement/1.0/">
	<!ENTITY ns_sfw "http://ns.adobe.com/SaveForWeb/1.0/">
	<!ENTITY ns_custom "http://ns.adobe.com/GenericCustomNamespace/1.0/">
	<!ENTITY ns_adobe_xpath "http://ns.adobe.com/XPath/1.0/">
	<!ENTITY ns_svg "http://www.w3.org/2000/svg">
	<!ENTITY ns_xlink "http://www.w3.org/1999/xlink">
]>
<svg  version="1.1"
	 xmlns:x="&ns_extend;" xmlns:i="&ns_ai;" xmlns:graph="&ns_graphs;" i:viewOrigin="-0.3193 135.7061" i:rulerOrigin="0 0" i:pageBounds="0 136 85 0"
	 xmlns="&ns_svg;" xmlns:xlink="&ns_xlink;" xmlns:a="http://ns.adobe.com/AdobeSVGViewerExtensions/3.0/"
	 width="85.678" height="136.025" viewBox="0 0 85.678 136.025" overflow="visible" enable-background="new 0 0 85.678 136.025"
	 xml:space="preserve">
<metadata>
	<variableSets  xmlns="http://ns.adobe.com/Variables/1.0/">
		<variableSet  varSetName="binding1" locked="none">
			<variables></variables>
			<v:sampleDataSets  xmlns:v="http://ns.adobe.com/Variables/1.0/" xmlns="http://ns.adobe.com/GenericCustomNamespace/1.0/">
				</v:sampleDataSets>
		</variableSet>
	</variableSets>
</metadata>
<g id="图层_1" i:knockout="Off" i:layer="yes" i:dimmedPercent="50" i:rgbTrio="#4F008000FFFF">
	<g>
		<path fill="#333333" d="M83.403,37.587V12.625c0-5.149-3.352-9.325-7.481-9.325H7.804c-4.133,0-7.484,4.175-7.484,9.325h0.002
			v115.211c0,4.344,3.351,7.869,7.482,7.869h68.118c4.131,0,7.481-3.525,7.481-7.869h0.002V37.608
			C83.405,37.601,83.403,37.594,83.403,37.587z"/>
		
			<linearGradient id="XMLID_3_" gradientUnits="userSpaceOnUse" x1="-23.3101" y1="112.9883" x2="-23.3101" y2="-12.5781" gradientTransform="matrix(-1 0 0 -1 20.5059 114.334)">
			<stop  offset="0.0899" style="stop-color:#2089B9"/>
			<stop  offset="0.0985" style="stop-color:#4FA3C2"/>
			<stop  offset="0.1071" style="stop-color:#77B9CA"/>
			<stop  offset="0.1138" style="stop-color:#8FC7CF"/>
			<stop  offset="0.118" style="stop-color:#98CCD1"/>
			<stop  offset="0.1341" style="stop-color:#9ECFD3"/>
			<stop  offset="0.156" style="stop-color:#AFD6D9"/>
			<stop  offset="0.1809" style="stop-color:#CBE1E3"/>
			<stop  offset="0.1966" style="stop-color:#E1EAEB"/>
			<a:midPointStop  offset="0.0899" style="stop-color:#2089B9"/>
			<a:midPointStop  offset="0.4" style="stop-color:#2089B9"/>
			<a:midPointStop  offset="0.118" style="stop-color:#98CCD1"/>
			<a:midPointStop  offset="0.6429" style="stop-color:#98CCD1"/>
			<a:midPointStop  offset="0.1966" style="stop-color:#E1EAEB"/>
		</linearGradient>
		<path fill="url(#XMLID_3_)" d="M2.273,10.671c0-5.15,3.351-9.325,7.481-9.325h68.12c4.131,0,7.482,4.176,7.482,9.325v106.916
			c0,5.148-3.353,9.326-7.482,9.326H9.757c-4.132,0-7.483-4.176-7.483-9.326V10.671L2.273,10.671z"/>
		<path fill="none" stroke="#333333" stroke-width="0.977" d="M2.273,10.671c0-5.15,3.351-9.325,7.481-9.325h68.12
			c4.131,0,7.482,4.176,7.482,9.325v106.916c0,5.148-3.353,9.326-7.482,9.326H9.757c-4.132,0-7.483-4.176-7.483-9.326V10.671
			L2.273,10.671z"/>
		<path fill="#FFFFFF" d="M85.357,125.882c0,4.344-3.353,7.869-7.482,7.869H9.757c-4.132,0-7.483-3.523-7.483-7.869V35.654
			c0-4.347,3.352-7.87,7.483-7.87h68.119c4.131,0,7.482,3.523,7.482,7.87L85.357,125.882L85.357,125.882z"/>
		
			<linearGradient id="XMLID_4_" gradientUnits="userSpaceOnUse" x1="3.3818" y1="80.7676" x2="85.5273" y2="80.7676" gradientTransform="matrix(1 0 0 1 -0.6387 0)">
			<stop  offset="0" style="stop-color:#A2D8E0"/>
			<stop  offset="0.0899" style="stop-color:#1878AD"/>
			<stop  offset="0.2135" style="stop-color:#194D91"/>
			<stop  offset="0.6404" style="stop-color:#2B90BD"/>
			<stop  offset="0.9438" style="stop-color:#82CBDE"/>
			<stop  offset="1" style="stop-color:#1A478D"/>
			<a:midPointStop  offset="0" style="stop-color:#A2D8E0"/>
			<a:midPointStop  offset="0.5" style="stop-color:#A2D8E0"/>
			<a:midPointStop  offset="0.0899" style="stop-color:#1878AD"/>
			<a:midPointStop  offset="0.5" style="stop-color:#1878AD"/>
			<a:midPointStop  offset="0.2135" style="stop-color:#194D91"/>
			<a:midPointStop  offset="0.5" style="stop-color:#194D91"/>
			<a:midPointStop  offset="0.6404" style="stop-color:#2B90BD"/>
			<a:midPointStop  offset="0.5" style="stop-color:#2B90BD"/>
			<a:midPointStop  offset="0.9438" style="stop-color:#82CBDE"/>
			<a:midPointStop  offset="0.5" style="stop-color:#82CBDE"/>
			<a:midPointStop  offset="1" style="stop-color:#1A478D"/>
		</linearGradient>
		<path i:isolated="yes" i:knockout="Off" opacity="0.1" fill="url(#XMLID_4_)" enable-background="new    " d="M84.888,125.882
			c0,4.344-3.314,7.869-7.398,7.869H10.144c-4.086,0-7.4-3.523-7.4-7.869V35.654c0-4.347,3.314-7.87,7.4-7.87H77.49
			c4.084,0,7.398,3.523,7.398,7.87L84.888,125.882L84.888,125.882z"/>
		<path fill="none" stroke="#4D4D4D" stroke-width="0.977" d="M85.357,35.633V10.671c0-5.149-3.352-9.325-7.482-9.325H9.755
			c-4.131,0-7.481,4.175-7.481,9.325v115.21c0,4.346,3.352,7.869,7.483,7.869h68.118c4.13,0,7.482-3.525,7.482-7.869l0.001-90.228
			C85.358,35.647,85.357,35.64,85.357,35.633z"/>
	</g>
	<path fill="#D90000" d="M42.46,42.432l1.875-1.25l-0.625,0.625l0.312,0.312c0.209,0,0.521,0.105,0.938,0.312
		c-0.418-0.207-0.209,0.002,0.625,0.627c0.834,0.209,1.562,0.625,2.189,1.25c0.625,0.209,1.354,0.627,2.188,1.252l0.312,1.25
		c0.207,0.625,0.312,1.252,0.312,1.877c0,0.209-0.104,0.521-0.312,0.938c-0.209,0.418-0.312,0.73-0.312,0.939
		c-0.209,0.416-0.627,1.668-1.252,3.752l1.252,0.625l-1.252,2.502l1.877-0.312c1.25-0.416,1.459-0.521,0.625-0.312
		c0.834-0.209,1.668-0.312,2.502-0.312c1.043-0.209,2.293-0.312,3.754-0.312c0.625,0,1.459-0.104,2.502-0.312
		c0.416,0,0.729,0,0.938,0c0.209-0.209,0.521-0.418,0.938-0.627c0.209,0,0.418-0.104,0.627-0.312l0.625,0.627l0.625,0.312
		c0.416,0.416,0.729,0.729,0.938,0.938c0.625,0.418,1.459,0.939,2.502,1.564c0.209,0.209,0.521,0.416,0.939,0.625
		c0.834,0.418,1.354,0.73,1.562,0.938c0.625,0.209,1.043,0.627,1.252,1.252c0.209,0.209,0.312,0.416,0.312,0.625
		c0.209,0.418,0.312,0.73,0.312,0.938c0.209,0.418,0.312,0.939,0.312,1.564l-1.25,1.564c-0.834,1.043-1.773,1.877-2.814,2.502
		c-0.834,0.625-2.086,1.667-3.754,3.126c-0.418,0.418-1.043,1.043-1.877,1.877c-0.625,0.625-1.146,1.044-1.562,1.25
		c-1.252,0.834-2.293,1.564-3.127,2.189l0.625,0.938c0,0.209,0.207,0.522,0.625,0.938c0.416,0.625,0.834,1.252,1.252,1.877
		l-0.313,0.625c-0.209,0.209-0.521,0.625-0.938,1.25c0.416-0.625,0.209-0.207-0.625,1.252h-0.312h-0.627
		c-0.625-0.209-1.25-0.416-1.875-0.625c-1.461-0.625-2.504-0.834-3.129-0.627c-0.834,0-1.771,0.209-2.814,0.627l-0.312,1.25
		c-0.209,0.209-0.312,0.834-0.312,1.877c-0.209,1.043-0.312,1.771-0.312,2.189c-0.209,0.625-0.312,1.877-0.312,3.752
		c-0.209,1.461-0.312,2.606-0.312,3.44s-0.105,2.084-0.312,3.752c0,1.668-0.104,2.814-0.313,3.439
		c-0.209,0.627-0.312,1.564-0.312,2.816c0,1.25-0.104,2.188-0.312,2.813c0,0.416-0.104,1.146-0.312,2.189
		c0,1.25-0.104,2.084-0.312,2.502c0,0.416-0.105,0.938-0.312,1.562c0,0.625-0.104,1.146-0.312,1.564
		c0,0.209-0.105,0.416-0.312,0.625c0,0.834-0.209,1.459-0.627,1.877l-0.625-1.252c-0.209-0.834-0.521-2.293-0.938-4.377
		c0-0.418-0.105-1.043-0.312-1.877c0-0.834-0.105-1.564-0.314-2.189c-0.209-0.418-0.312-1.459-0.312-3.127s0-3.127,0-4.379
		c0-1.25-0.104-2.605-0.312-4.066c-0.209-1.459-0.312-3.127-0.312-5.004c0-1.25,0-3.752,0-7.506l-0.938,0.312
		c-0.627,0-1.461,0.209-2.502,0.627c-0.418,0-0.836,0.104-1.252,0.312h-0.625h-0.312c-0.418-0.209-0.73-0.312-0.939-0.312
		c-0.625-0.418-1.771-1.146-3.439-2.189v2.502c0,1.459-0.104,2.502-0.312,3.127l-0.312,0.312c-0.209,0.418-0.418,0.729-0.625,0.938
		l-2.502-2.502c-0.418-0.418-0.939-1.043-1.564-1.877c-0.625-0.625-1.146-1.252-1.564-1.877c0-0.416-0.209-0.938-0.625-1.563
		c-0.418-0.416-0.625-0.832-0.625-1.25c-0.209-1.25-0.521-2.503-0.939-3.755c-0.209-0.625-0.312-1.459-0.312-2.502
		c0-0.834-0.104-1.562-0.312-2.188c0-0.418-0.104-1.043-0.312-1.877c0-0.625-0.104-1.252-0.312-1.877
		c0-0.209-0.105-0.521-0.312-0.938c0-0.625-0.105-1.043-0.312-1.252c-0.209-0.625-0.312-1.771-0.312-3.439l0.938,0.625
		c0.625,0.209,1.25,0.834,1.877,1.877c0.207,0.209,0.52,0.521,0.938,0.938c0.416,0.627,0.729,1.043,0.938,1.252
		c0.834,0.625,1.564,1.771,2.189,3.439l0.312-1.25c0.209-1.043,1.043-2.189,2.502-3.441c1.668-1.459,2.92-2.502,3.754-3.127
		c1.043-0.625,1.98-1.146,2.814-1.564c1.043-0.625,1.668-0.938,1.877-0.938c0.416-0.416,0.938-0.625,1.562-0.625
		c0.625-0.418,1.146-0.73,1.564-0.939c0.209-0.207,0.416-0.52,0.625-0.938c0-0.209,0.104-0.416,0.312-0.625
		c0.209-0.625,0.314-1.564,0.314-2.814c0-1.459,0.104-2.502,0.312-3.129c0.207-0.834,0.312-1.562,0.312-2.189
		c0-0.625-0.105-1.25-0.312-1.875c0-0.209-0.105-0.418-0.312-0.627c-0.209-0.625-0.418-1.145-0.627-1.562l-0.312,1.25
		c-0.209,0.209-0.312,0.73-0.312,1.564c-0.209,0.834-0.312,1.459-0.312,1.877c-0.209,0.625-0.312,1.355-0.312,2.189
		c0,0.625,0,2.084,0,4.377l-0.312-2.502c-0.209-1.875-0.312-3.543-0.312-5.004c0-1.875,0.207-3.334,0.625-4.377l-0.625-1.252
		l0.312-0.625c0-0.416,0.938-1.25,2.814-2.502L42.46,42.432z M41.833,67.451l-0.938,0.312c-0.625,0-1.564,0.314-2.814,0.939
		c-1.461,0.418-3.336,1.043-5.629,1.877l-0.627,0.938c-0.209,0.625-0.521,1.355-0.938,2.189c-0.209,0.209-0.312,0.625-0.312,1.25
		c-0.209,0.627-0.312,1.147-0.312,1.563c-0.209,0.834-0.312,1.564-0.312,2.189c0,0.418,0.207,1.043,0.625,1.877l1.877-1.252h1.25
		v-1.25h2.502c1.459,0,3.336-0.418,5.629-1.252L41.833,67.451L41.833,67.451z M58.097,59.32l-0.625,1.252l-3.754,0.625l-0.625-0.625
		l-0.312,0.312c-0.209,0-0.418,0.104-0.627,0.312s-0.416,0.312-0.625,0.312c-0.418,0-1.355,0.521-2.814,1.564v2.502
		c0,1.668-0.104,2.814-0.312,3.439c-0.208,0.625-0.209,1.355,0,2.189c0,0.209,0.104,0.521,0.312,0.938
		c0.209,0.834,0.416,1.564,0.625,2.189l1.564-1.25c0.209-0.209,0.625-0.627,1.25-1.252c0.834-0.625,1.563-1.25,2.188-1.877
		l-0.625-0.625l0.938-0.625c0.209-0.209,0.521-0.521,0.938-0.939l0.625-0.312c0.209-0.207,0.416-0.52,0.625-0.938
		c0.209-0.416,0.418-0.729,0.627-0.938l1.25-0.627l-0.625-1.25l0.938-0.939c0.416-0.416,0.938-1.354,1.563-2.814L58.097,59.32z"/>
</g>
</svg>
