<?xml version="1.0" encoding="utf-8"?>
<!-- Generator: Adobe Illustrator 12.0.0, SVG Export Plug-In . SVG Version: 6.00 Build 51448)  -->
<!DOCTYPE svg PUBLIC "-//W3C//DTD SVG 1.1//EN" "http://www.w3.org/Graphics/SVG/1.1/DTD/svg11.dtd" [
	<!ENTITY ns_flows "http://ns.adobe.com/Flows/1.0/">
	<!ENTITY ns_extend "http://ns.adobe.com/Extensibility/1.0/">
	<!ENTITY ns_ai "http://ns.adobe.com/AdobeIllustrator/10.0/">
	<!ENTITY ns_graphs "http://ns.adobe.com/Graphs/1.0/">
	<!ENTITY ns_vars "http://ns.adobe.com/Variables/1.0/">
	<!ENTITY ns_imrep "http://ns.adobe.com/ImageReplacement/1.0/">
	<!ENTITY ns_sfw "http://ns.adobe.com/SaveForWeb/1.0/">
	<!ENTITY ns_custom "http://ns.adobe.com/GenericCustomNamespace/1.0/">
	<!ENTITY ns_adobe_xpath "http://ns.adobe.com/XPath/1.0/">
	<!ENTITY ns_svg "http://www.w3.org/2000/svg">
	<!ENTITY ns_xlink "http://www.w3.org/1999/xlink">
]>
<svg  version="1.1"
	 xmlns:x="&ns_extend;" xmlns:i="&ns_ai;" xmlns:graph="&ns_graphs;" i:viewOrigin="-0.3193 135.7061" i:rulerOrigin="0 0" i:pageBounds="0 136 85 0"
	 xmlns="&ns_svg;" xmlns:xlink="&ns_xlink;" xmlns:a="http://ns.adobe.com/AdobeSVGViewerExtensions/3.0/"
	 width="85.678" height="136.025" viewBox="0 0 85.678 136.025" overflow="visible" enable-background="new 0 0 85.678 136.025"
	 xml:space="preserve">
<metadata>
	<variableSets  xmlns="http://ns.adobe.com/Variables/1.0/">
		<variableSet  varSetName="binding1" locked="none">
			<variables></variables>
			<v:sampleDataSets  xmlns:v="http://ns.adobe.com/Variables/1.0/" xmlns="http://ns.adobe.com/GenericCustomNamespace/1.0/">
				</v:sampleDataSets>
		</variableSet>
	</variableSets>
</metadata>
<g id="图层_1" i:knockout="Off" i:layer="yes" i:dimmedPercent="50" i:rgbTrio="#4F008000FFFF">
	<g>
		<path fill="#333333" d="M83.403,37.587V12.625c0-5.149-3.352-9.325-7.481-9.325H7.804c-4.133,0-7.484,4.175-7.484,9.325h0.002
			v115.211c0,4.344,3.351,7.869,7.482,7.869h68.118c4.131,0,7.481-3.525,7.481-7.869h0.002V37.608
			C83.405,37.601,83.403,37.594,83.403,37.587z"/>
		
			<linearGradient id="XMLID_3_" gradientUnits="userSpaceOnUse" x1="-23.3101" y1="112.9883" x2="-23.3101" y2="-12.5781" gradientTransform="matrix(-1 0 0 -1 20.5059 114.334)">
			<stop  offset="0.0899" style="stop-color:#2089B9"/>
			<stop  offset="0.0985" style="stop-color:#4FA3C2"/>
			<stop  offset="0.1071" style="stop-color:#77B9CA"/>
			<stop  offset="0.1138" style="stop-color:#8FC7CF"/>
			<stop  offset="0.118" style="stop-color:#98CCD1"/>
			<stop  offset="0.1341" style="stop-color:#9ECFD3"/>
			<stop  offset="0.156" style="stop-color:#AFD6D9"/>
			<stop  offset="0.1809" style="stop-color:#CBE1E3"/>
			<stop  offset="0.1966" style="stop-color:#E1EAEB"/>
			<a:midPointStop  offset="0.0899" style="stop-color:#2089B9"/>
			<a:midPointStop  offset="0.4" style="stop-color:#2089B9"/>
			<a:midPointStop  offset="0.118" style="stop-color:#98CCD1"/>
			<a:midPointStop  offset="0.6429" style="stop-color:#98CCD1"/>
			<a:midPointStop  offset="0.1966" style="stop-color:#E1EAEB"/>
		</linearGradient>
		<path fill="url(#XMLID_3_)" d="M2.273,10.671c0-5.15,3.351-9.325,7.481-9.325h68.12c4.131,0,7.482,4.176,7.482,9.325v106.916
			c0,5.148-3.353,9.326-7.482,9.326H9.757c-4.132,0-7.483-4.176-7.483-9.326V10.671L2.273,10.671z"/>
		<path fill="none" stroke="#333333" stroke-width="0.977" d="M2.273,10.671c0-5.15,3.351-9.325,7.481-9.325h68.12
			c4.131,0,7.482,4.176,7.482,9.325v106.916c0,5.148-3.353,9.326-7.482,9.326H9.757c-4.132,0-7.483-4.176-7.483-9.326V10.671
			L2.273,10.671z"/>
		<path fill="#FFFFFF" d="M85.357,125.882c0,4.344-3.353,7.869-7.482,7.869H9.757c-4.132,0-7.483-3.523-7.483-7.869V35.654
			c0-4.347,3.352-7.87,7.483-7.87h68.119c4.131,0,7.482,3.523,7.482,7.87L85.357,125.882L85.357,125.882z"/>
		
			<linearGradient id="XMLID_4_" gradientUnits="userSpaceOnUse" x1="3.3818" y1="80.7676" x2="85.5273" y2="80.7676" gradientTransform="matrix(1 0 0 1 -0.6387 0)">
			<stop  offset="0" style="stop-color:#A2D8E0"/>
			<stop  offset="0.0899" style="stop-color:#1878AD"/>
			<stop  offset="0.2135" style="stop-color:#194D91"/>
			<stop  offset="0.6404" style="stop-color:#2B90BD"/>
			<stop  offset="0.9438" style="stop-color:#82CBDE"/>
			<stop  offset="1" style="stop-color:#1A478D"/>
			<a:midPointStop  offset="0" style="stop-color:#A2D8E0"/>
			<a:midPointStop  offset="0.5" style="stop-color:#A2D8E0"/>
			<a:midPointStop  offset="0.0899" style="stop-color:#1878AD"/>
			<a:midPointStop  offset="0.5" style="stop-color:#1878AD"/>
			<a:midPointStop  offset="0.2135" style="stop-color:#194D91"/>
			<a:midPointStop  offset="0.5" style="stop-color:#194D91"/>
			<a:midPointStop  offset="0.6404" style="stop-color:#2B90BD"/>
			<a:midPointStop  offset="0.5" style="stop-color:#2B90BD"/>
			<a:midPointStop  offset="0.9438" style="stop-color:#82CBDE"/>
			<a:midPointStop  offset="0.5" style="stop-color:#82CBDE"/>
			<a:midPointStop  offset="1" style="stop-color:#1A478D"/>
		</linearGradient>
		<path i:isolated="yes" i:knockout="Off" opacity="0.1" fill="url(#XMLID_4_)" enable-background="new    " d="M84.888,125.882
			c0,4.344-3.314,7.869-7.398,7.869H10.144c-4.086,0-7.4-3.523-7.4-7.869V35.654c0-4.347,3.314-7.87,7.4-7.87H77.49
			c4.084,0,7.398,3.523,7.398,7.87L84.888,125.882L84.888,125.882z"/>
		<path fill="none" stroke="#4D4D4D" stroke-width="0.977" d="M85.357,35.633V10.671c0-5.149-3.352-9.325-7.482-9.325H9.755
			c-4.131,0-7.481,4.175-7.481,9.325v115.21c0,4.346,3.352,7.869,7.483,7.869h68.118c4.13,0,7.482-3.525,7.482-7.869l0.001-90.228
			C85.358,35.647,85.357,35.64,85.357,35.633z"/>
	</g>
	<g i:knockout="Off">
		<path fill="#1D8F38" d="M46.402,47.124c1.043,0,1.877,0.104,2.502,0.312c0.625,0,1.042,0.209,1.251,0.625
			c0.417,0,0.729,0.418,0.938,1.252c0.417,0.625,0.729,1.25,0.938,1.875c0.208,0.418,0.312,1.148,0.312,2.189l-0.312,0.312
			c-0.209,0-0.521,0.209-0.938,0.627c-0.209,0-0.626,0.104-1.251,0.312c-0.417,0.209-0.834,0.312-1.251,0.312
			c-1.251,0-2.188,0.209-2.813,0.625c-0.418,0-0.938,0.314-1.563,0.939l1.251,0.625c0.416,0.209,1.146,0.625,2.188,1.25
			c0.625,0.627,1.146,1.043,1.563,1.252h0.625l1.563-1.252c0.417-0.416,0.938-0.832,1.563-1.25c0.416-0.416,0.729-0.73,0.938-0.939
			c0.209-0.207,0.521-0.52,0.938-0.938l0.312-0.625c0.209-0.209,0.312-1.043,0.312-2.502l0.625-0.625h0.312
			c0.417,0,0.729,0.104,0.938,0.312c0.417,0,0.938,0.312,1.563,0.938c0.625,0.209,1.146,0.627,1.563,1.252
			c0.416,0.416,0.729,0.938,0.938,1.562c0.209,0.418,0.312,0.939,0.312,1.564L61.41,57.44c-0.209,0-0.521,0.104-0.938,0.312
			c0.416-0.209,0.208,0-0.626,0.625c-0.834,0.209-1.771,0.627-2.813,1.252H56.72c-1.46,0.418-2.92,1.043-4.379,1.877l0.626,0.625
			c0.416,0.418,1.042,0.938,1.876,1.562c1.042,0.627,1.98,1.252,2.814,1.877c1.043,0.627,2.188,1.252,3.439,1.877
			c0.417,0.209,1.146,0.521,2.189,0.938c0.834,0.209,1.459,0.418,1.876,0.627c1.668,0.209,2.919,0.521,3.753,0.938
			c1.043,0,2.189,0.312,3.44,0.938c1.251,0.418,2.396,0.939,3.439,1.564c1.459,0.834,2.397,1.563,2.814,2.188v0.625l-0.625,0.312
			l-0.938,0.312c-0.626,0-1.252,0.105-1.877,0.312c-0.625,0-1.354,0-2.188,0c-0.834,0.209-1.564,0.313-2.189,0.313
			c-0.626,0-1.354-0.104-2.189-0.313c-0.834,0-1.46,0-1.876,0c-1.252-0.416-2.397-0.729-3.439-0.938
			c-0.418-0.209-1.043-0.521-1.877-0.938c-0.209-0.209-0.417-0.312-0.625-0.312c-0.626-0.625-1.46-1.252-2.502-1.877
			c-0.209-0.209-0.626-0.625-1.251-1.252c-0.834-0.625-1.564-1.25-2.189-1.875v0.938c0,0.625-0.104,1.354-0.312,2.188
			c-0.209,0.209-0.312,0.521-0.312,0.938c0,0.418-0.104,0.729-0.312,0.938s-0.312,0.416-0.312,0.625
			c-0.209,0.418-0.312,0.73-0.312,0.938c-0.209,0.418-0.312,0.938-0.312,1.563l0.625,0.625l0.938-0.312
			c0.625-0.209,1.042-0.312,1.251-0.312c0.416,0,0.729,0.104,0.938,0.312c0.416,0,0.833,0.312,1.251,0.938
			c0.416,0.209,0.729,0.627,0.938,1.252c0.209,0,0.312,0.625,0.312,1.877l-0.312,0.312l-0.625,0.312
			c-0.209,0-0.521,0.104-0.938,0.312c-0.834,0-1.46,0.209-1.876,0.625c-0.418,0-0.938,0.313-1.563,0.938
			c-0.209,0.209-0.626,0.521-1.251,0.938c-0.834,0.625-1.563,1.146-2.188,1.564h0.938c0.625,0,1.146,0.104,1.563,0.312
			c0.416,0,0.833,0.312,1.251,0.938c0.416,0.209,0.729,0.627,0.938,1.252c0.209,0.416,0.312,0.938,0.312,1.562
			c0,0.418-0.104,0.939-0.312,1.564c-0.209,0.209-0.521,0.834-0.938,1.877c-0.209,0.625-0.521,1.459-0.938,2.502
			c-0.209,0.625-0.312,1.25-0.312,1.875l1.251,0.627c0.416,0.209,1.042,0.521,1.876,0.938c0.625,0.209,1.042,0.418,1.251,0.625
			c1.251,0.627,2.502,1.252,3.753,1.877c1.252,0.625,2.397,1.252,3.44,1.877c1.042,0.625,1.876,1.25,2.502,1.875
			c0.625,0.418,1.042,0.834,1.251,1.252c0.208,0.625,0.312,1.25,0.312,1.877c0,0.625-0.104,1.25-0.312,1.877
			c0,0.207-0.104,0.312-0.312,0.312c0,0.416-0.209,0.832-0.626,1.25h-0.312c-0.209,0-0.521-0.104-0.938-0.312
			c-0.209-0.209-1.146-0.834-2.814-1.877c-0.626-0.416-1.563-1.146-2.813-2.188c-0.626-0.416-1.043-0.729-1.251-0.938
			c-1.253-0.834-2.504-1.563-3.754-2.188c-0.626-0.416-1.354-0.938-2.188-1.564c-0.626-0.207-1.043-0.416-1.251-0.625
			c-0.834-0.625-1.564-0.938-2.189-0.938l-0.312,0.312l-0.626,0.312c-0.209,0.418-0.521,0.729-0.938,0.938
			c-0.418,0.209-0.835,0.418-1.251,0.627c-0.418,0.416-0.835,0.729-1.251,0.938c-0.834,0.209-1.771,0.521-2.815,0.938
			c-0.417,0-0.938,0-1.563,0c-0.626,0.209-1.147,0.314-1.563,0.314c-0.418,0-0.938-0.105-1.563-0.314c-0.418,0-0.73,0-0.938,0
			c-0.209,0-0.417-0.104-0.626-0.312c-0.209-0.207-0.417-0.312-0.625-0.312c-0.209-0.207-0.312-0.416-0.312-0.625
			c-0.209-0.209-0.313-0.416-0.313-0.625c-0.209-0.625-0.312-1.146-0.312-1.563l0.626,0.312c0.416,0,0.938,0.209,1.563,0.625
			c0.208,0,0.521,0,0.938,0c0.416,0.209,0.729,0.314,0.938,0.314c0.209,0,0.521-0.105,0.938-0.314c0.417,0,0.729,0,0.938,0
			c0.625-0.416,1.251-0.729,1.876-0.938c0.209-0.209,0.521-0.521,0.938-0.938l0.626-0.312c0-0.209,0.208-0.418,0.625-0.627
			c0.417-0.625,0.834-1.25,1.251-1.875l-0.625-0.627c-0.209-0.625-0.835-1.041-1.877-1.25c-0.833-0.625-1.563-0.939-2.188-0.939
			c-0.625-0.207-1.251-0.312-1.876-0.312c-0.834,0-1.772,0.209-2.814,0.627l-0.626,1.875h-0.625l-0.313,0.312
			c-0.209,0-0.521,0.627-0.938,1.877c0,0.209-0.209,0.627-0.626,1.252c-0.209,0.834-0.417,1.459-0.625,1.875
			c-0.209,0.418-0.522,1.043-0.938,1.877c-0.209,0.627-0.417,1.043-0.626,1.252c-0.209,0-0.521,0.312-0.938,0.938
			c-0.418,0.416-0.73,0.729-0.938,0.938c-0.209,0.207-0.521,0.521-0.938,0.938l-0.625,0.312c-0.209,0.209-0.522,0.312-0.938,0.312
			c-0.209,0-0.521-0.104-0.938-0.312l-0.625-0.312c-0.418-0.418-0.73-0.73-0.938-0.938c-0.209-0.209-0.521-0.522-0.938-0.938
			l-0.312-0.625c-0.209-0.209-0.312-0.416-0.312-0.625c-0.209-0.418-0.313-0.73-0.313-0.939c-0.209-1.25-0.312-2.188-0.312-2.813
			c0-1.043,0.208-2.084,0.626-3.127l0.312,0.938c0.208,0.209,0.312,0.418,0.312,0.625c0,0.418,0.104,0.73,0.312,0.939
			c0.417,0.418,0.938,1.043,1.564,1.877h0.625l0.626-0.314h0.625l0.312-0.312c0.209,0,0.521-0.312,0.938-0.938
			c0-0.209,0.104-0.416,0.312-0.625s0.521-0.834,0.938-1.877c0.417-1.25,0.729-2.084,0.938-2.502l0.312-1.252
			c0.208-0.207,0-0.729-0.625-1.562h-0.626l-0.938,0.625c-0.625,0.418-1.459,0.938-2.502,1.563
			c-0.417,0.209-1.042,0.521-1.876,0.938c-0.209,0.209-0.417,0.312-0.626,0.312s-0.521,0-0.938,0
			c-0.418,0.209-0.835,0.312-1.251,0.312l-0.626-0.625v-0.625c0-0.416,0.208-1.25,0.626-2.502H21.07v-0.625l0.626-0.627
			c0.416-0.625,0.938-1.041,1.563-1.25c0.625-0.625,1.146-0.939,1.563-0.939l0.626-0.312c0.416-0.416,0.729-0.729,0.938-0.938
			c0.834-0.834,1.563-1.771,2.189-2.813V86.53h-0.312c-0.209,0-0.626,0.104-1.251,0.312c-0.626,0-1.147,0.209-1.563,0.625
			c-0.418,0-0.835,0.209-1.251,0.625h-0.313c-0.417,0.209-0.729,0.312-0.938,0.312l-0.626-0.625v-0.625
			c0-0.625,0.104-1.146,0.312-1.564c0.417-0.625,0.729-1.146,0.938-1.562c0.417-0.625,0.834-0.939,1.251-0.939
			c0.417-0.416,0.938-0.729,1.563-0.938c0.209-0.209,0.521-0.521,0.938-0.939c0.417-0.207,0.729-0.416,0.938-0.625
			c0.625-0.625,1.146-1.25,1.563-1.877c0.208-0.625,0.625-1.354,1.251-2.188H30.14c-0.209,0-0.521-0.104-0.938-0.313h-0.626
			c-0.209-0.416-0.626-0.729-1.251-0.938l-0.312,0.312c-0.209,0-0.626,0.627-1.251,1.877c-0.209,0.209-0.417,0.625-0.626,1.25
			c-0.625,0.834-1.146,1.563-1.563,2.188c-0.417,0.419-0.834,0.939-1.251,1.564c-0.417,0.834-0.834,1.459-1.251,1.877
			c-0.417,0.416-0.834,0.938-1.251,1.562c-0.417,0.418-0.729,0.729-0.938,0.938s-0.521,0.416-0.938,0.625
			c-0.418,0.418-0.73,0.73-0.938,0.938c-0.626,0.209-1.147,0.521-1.563,0.938c-0.209,0-0.626,0.104-1.251,0.312
			c0.625-0.209,0.208,0-1.251,0.625v-0.625H11.69l-0.626-0.625v-0.627l0.626-0.625h0.625l0.626-0.312h0.625
			c0-0.209,0.208-0.416,0.626-0.625c0.416,0,0.625-0.104,0.625-0.312c0.417-0.625,0.938-1.252,1.563-1.877
			c0.209-0.209,0.521-0.521,0.938-0.939c0.208-0.625,0.417-1.041,0.626-1.25c0.416-0.625,0.938-1.459,1.563-2.502
			c0.625-1.25,1.355-2.502,2.189-3.754c0.625-0.834,1.667-2.814,3.127-5.941h-0.938c-0.209,0-0.521-0.104-0.938-0.312
			c-0.418,0-0.73,0-0.938,0c-0.626-0.416-1.147-0.729-1.563-0.938c0-0.209-0.209-0.521-0.626-0.938
			c-0.417-0.207-0.625-0.416-0.625-0.625c-0.209-0.625-0.522-1.25-0.938-1.877c-0.209-0.625-0.312-1.146-0.312-1.562l0.625-0.627
			h1.563c1.043,0,1.772,0.105,2.189,0.312h0.626l0.625,0.314h0.626c0.416-0.209,0.729-0.314,0.938-0.314
			c0.625-0.416,1.251-0.729,1.877-0.938c0.625-0.625,1.042-1.041,1.251-1.25c0.208-0.209,0.312-0.521,0.312-0.939
			c0.208-0.625,0.417-1.146,0.626-1.562l-0.626-0.627h-0.938c-0.209,0-0.521-0.104-0.938-0.312h-0.626
			c-0.209-0.207-0.521-0.416-0.938-0.625s-0.729-0.416-0.938-0.625s-0.522-0.521-0.938-0.939c-0.418-0.416-0.73-0.625-0.938-0.625
			V54.63l0.312-0.312c0.417-0.418,1.043-0.627,1.877-0.627c1.042-0.416,1.876-0.625,2.502-0.625
			c0.625-0.416,1.355-0.729,2.189-0.938c0.208-0.209,0.521-0.416,0.938-0.625s0.729-0.418,0.938-0.627h0.626
			c0.416,0,0.833,0.105,1.251,0.312c0.416,0,0.938,0.521,1.563,1.564c0.625,0.625,1.355,1.668,2.189,3.127l0.625-0.312
			c0.208-0.207,1.042-0.312,2.502-0.312l0.626-0.625c0.416-0.625,1.146-1.252,2.188-1.877c0.209-0.209,0.626-0.625,1.251-1.25
			c0.834-0.625,1.562-1.252,2.188-1.877v-0.625l-1.251-1.252v-0.625H46.402z M34.519,58.382c-0.209,0.209-0.521,0.834-0.938,1.877
			c0,0.209-0.209,0.521-0.625,0.938c-0.418,0.834-0.73,1.461-0.938,1.877c-0.626,0.834-1.252,2.086-1.877,3.754
			c-0.625,1.25-1.146,2.502-1.563,3.752c-0.417,0.834-0.521,1.043-0.312,0.625c-0.209,0.418-0.312,0.938-0.312,1.563h0.625h0.626
			c0.416-0.209,0.729-0.312,0.938-0.312c0.625-0.416,1.251-0.729,1.877-0.938c0.625-0.625,1.146-0.938,1.563-0.938
			c0.417-0.207,0.834-0.312,1.251-0.312s0.834,0.105,1.251,0.312c0.417,0,0.938,0.418,1.563,1.252
			c0.625,0.416,1.042,0.938,1.251,1.562c0.209,0.209,0.313,0.627,0.313,1.252l-5.63,5.63V80.9l0.938,0.627
			c0.625,0.209,1.042,0.625,1.251,1.25c0.208,0.209,0.312,1.043,0.312,2.502l-0.312,0.312c-0.209,0-0.626,0.314-1.251,0.939
			c-0.209-0.209-1.772,1.25-4.691,4.377h0.938c0.625,0,1.251,0.104,1.876,0.312c0.625,0,1.146,0.314,1.564,0.939
			c0.416,0.418,0.729,0.938,0.938,1.562c0,0.209,0.104,0.523,0.313,0.939c0.208,0.625,0.416,1.252,0.625,1.877l0.626-0.939
			c0.416-0.834,0.833-1.25,1.251-1.25c0-0.209,1.251-0.312,3.753-0.312v-0.627h-1.251l-0.626-0.625
			c-0.209-0.625-0.521-1.041-0.938-1.25c-0.209-0.625-0.312-1.043-0.312-1.252l0.938-0.312c0.625-0.416,1.355-0.729,2.189-0.938
			c0.416-0.209,0.833-0.521,1.251-0.939c0.416-0.207,0.833-0.416,1.251-0.625c0.416-0.209,0.833-0.625,1.251-1.252
			c0.416-0.416,0.833-0.729,1.251-0.938c0.834-1.043,2.085-2.084,3.753-3.127l-0.626-0.312c-0.209-0.418-0.521-0.627-0.938-0.627
			c-0.209-0.207-0.312-0.416-0.312-0.625l-0.312-0.312c-0.209-0.625-0.312-1.041-0.312-1.25c0-0.625,0.104-1.459,0.312-2.503
			c0.208-1.252,0.312-2.086,0.312-2.502l-0.625-0.627h-2.502l-0.626,0.627v1.25c0,0.625-0.104,1.771-0.312,3.439
			c0,0.418-0.104,1.043-0.312,1.877c0,0.627-0.104,1.148-0.312,1.564c-0.209,0.625-0.521,1.563-0.938,2.813
			c-0.209,0.418-0.626,1.043-1.251,1.877c-0.209,0.416-0.418,0.729-0.626,0.938h-0.625l-0.313-0.312
			c-0.209-0.209-0.312-0.416-0.312-0.625l-0.312-0.312c-0.209-0.209-0.312-0.521-0.312-0.939c0-0.416-0.104-0.729-0.313-0.938
			c-0.209-1.043-0.312-1.668-0.312-1.877c0-0.625,0.104-1.041,0.312-1.25c0.417-0.625,0.729-1.355,0.938-2.189
			c0.417-1.252,0.729-2.189,0.938-2.814c0.208-1.043,0.312-1.668,0.312-1.877c0-0.625-0.104-1.252-0.312-1.877
			c-0.209-0.834-0.312-1.668-0.312-2.502l0.625,0.312c0.417,0,1.043,0.313,1.877,0.938l0.625-0.313
			c0.417-0.416,0.938-0.729,1.563-0.938c0.625-0.625,1.251-1.041,1.877-1.25c0.208-0.209,0.521-0.417,0.938-0.626
			c0.416-0.416,0.833-0.832,1.251-1.25l0.625,0.312h0.312c0.834,0.209,1.771,0.312,2.814,0.312l-0.938-0.938
			c-0.834-1.043-2.189-2.189-4.065-3.441l-1.877,0.627c-1.251,0.209-2.293,0.521-3.127,0.938c-0.418,0-0.835,0.104-1.251,0.312
			c-0.209,0-0.418,0-0.626,0l5.004-3.127l-0.312-0.312c-0.209-0.209-0.521-0.418-0.938-0.627c-0.417-0.207-0.729-0.416-0.938-0.625
			c-1.043-0.625-2.085-1.146-3.127-1.562c-1.043-0.625-2.085-0.939-3.128-0.939c-0.834-0.207-1.772-0.312-2.814-0.312L34.519,58.382
			z M49.53,89.032c-0.209-0.209-0.729,0-1.563,0.625c-0.418,0.209-1.043,0.521-1.877,0.938c-0.209,0.209-0.417,0.418-0.625,0.625
			c-0.418,0.209-1.146,0.627-2.189,1.252c0.417-0.209-0.104,0.104-1.563,0.938v0.627l1.251,0.312c1.042,0,1.98,0.312,2.814,0.938
			c0.834,0.418,1.042,0.521,0.625,0.312c0.417,0.209,0.938,0.312,1.563,0.312l0.625-1.562c0.417-1.252,0.729-2.188,0.938-2.813
			c0.208-0.834,0.312-1.668,0.312-2.502L49.53,89.032L49.53,89.032z"/>
	</g>
</g>
</svg>
