<?xml version="1.0" encoding="utf-8"?>
<!-- Generator: Adobe Illustrator 12.0.0, SVG Export Plug-In . SVG Version: 6.00 Build 51448)  -->
<!DOCTYPE svg PUBLIC "-//W3C//DTD SVG 1.1//EN" "http://www.w3.org/Graphics/SVG/1.1/DTD/svg11.dtd" [
	<!ENTITY ns_flows "http://ns.adobe.com/Flows/1.0/">
	<!ENTITY ns_extend "http://ns.adobe.com/Extensibility/1.0/">
	<!ENTITY ns_ai "http://ns.adobe.com/AdobeIllustrator/10.0/">
	<!ENTITY ns_graphs "http://ns.adobe.com/Graphs/1.0/">
	<!ENTITY ns_vars "http://ns.adobe.com/Variables/1.0/">
	<!ENTITY ns_imrep "http://ns.adobe.com/ImageReplacement/1.0/">
	<!ENTITY ns_sfw "http://ns.adobe.com/SaveForWeb/1.0/">
	<!ENTITY ns_custom "http://ns.adobe.com/GenericCustomNamespace/1.0/">
	<!ENTITY ns_adobe_xpath "http://ns.adobe.com/XPath/1.0/">
	<!ENTITY ns_svg "http://www.w3.org/2000/svg">
	<!ENTITY ns_xlink "http://www.w3.org/1999/xlink">
]>
<svg  version="1.1"
	 xmlns:x="&ns_extend;" xmlns:i="&ns_ai;" xmlns:graph="&ns_graphs;" i:viewOrigin="-0.3193 135.7061" i:rulerOrigin="0 0" i:pageBounds="0 136 85 0"
	 xmlns="&ns_svg;" xmlns:xlink="&ns_xlink;" xmlns:a="http://ns.adobe.com/AdobeSVGViewerExtensions/3.0/"
	 width="85.678" height="136.025" viewBox="0 0 85.678 136.025" overflow="visible" enable-background="new 0 0 85.678 136.025"
	 xml:space="preserve">
<metadata>
	<variableSets  xmlns="http://ns.adobe.com/Variables/1.0/">
		<variableSet  varSetName="binding1" locked="none">
			<variables></variables>
			<v:sampleDataSets  xmlns:v="http://ns.adobe.com/Variables/1.0/" xmlns="http://ns.adobe.com/GenericCustomNamespace/1.0/">
				</v:sampleDataSets>
		</variableSet>
	</variableSets>
</metadata>
<g id="图层_1" i:knockout="Off" i:layer="yes" i:dimmedPercent="50" i:rgbTrio="#4F008000FFFF">
	<g>
		<path fill="#333333" d="M83.403,37.587V12.625c0-5.149-3.352-9.325-7.481-9.325H7.804c-4.133,0-7.484,4.175-7.484,9.325h0.002
			v115.211c0,4.344,3.351,7.869,7.482,7.869h68.118c4.131,0,7.481-3.525,7.481-7.869h0.002V37.608
			C83.405,37.601,83.403,37.594,83.403,37.587z"/>
		
			<linearGradient id="XMLID_3_" gradientUnits="userSpaceOnUse" x1="-23.3101" y1="112.9883" x2="-23.3101" y2="-12.5781" gradientTransform="matrix(-1 0 0 -1 20.5059 114.334)">
			<stop  offset="0.0899" style="stop-color:#2089B9"/>
			<stop  offset="0.0985" style="stop-color:#4FA3C2"/>
			<stop  offset="0.1071" style="stop-color:#77B9CA"/>
			<stop  offset="0.1138" style="stop-color:#8FC7CF"/>
			<stop  offset="0.118" style="stop-color:#98CCD1"/>
			<stop  offset="0.1341" style="stop-color:#9ECFD3"/>
			<stop  offset="0.156" style="stop-color:#AFD6D9"/>
			<stop  offset="0.1809" style="stop-color:#CBE1E3"/>
			<stop  offset="0.1966" style="stop-color:#E1EAEB"/>
			<a:midPointStop  offset="0.0899" style="stop-color:#2089B9"/>
			<a:midPointStop  offset="0.4" style="stop-color:#2089B9"/>
			<a:midPointStop  offset="0.118" style="stop-color:#98CCD1"/>
			<a:midPointStop  offset="0.6429" style="stop-color:#98CCD1"/>
			<a:midPointStop  offset="0.1966" style="stop-color:#E1EAEB"/>
		</linearGradient>
		<path fill="url(#XMLID_3_)" d="M2.273,10.671c0-5.15,3.351-9.325,7.481-9.325h68.12c4.131,0,7.482,4.176,7.482,9.325v106.916
			c0,5.148-3.353,9.326-7.482,9.326H9.757c-4.132,0-7.483-4.176-7.483-9.326V10.671L2.273,10.671z"/>
		<path fill="none" stroke="#333333" stroke-width="0.977" d="M2.273,10.671c0-5.15,3.351-9.325,7.481-9.325h68.12
			c4.131,0,7.482,4.176,7.482,9.325v106.916c0,5.148-3.353,9.326-7.482,9.326H9.757c-4.132,0-7.483-4.176-7.483-9.326V10.671
			L2.273,10.671z"/>
		<path fill="#FFFFFF" d="M85.357,125.882c0,4.344-3.353,7.869-7.482,7.869H9.757c-4.132,0-7.483-3.523-7.483-7.869V35.654
			c0-4.347,3.352-7.87,7.483-7.87h68.119c4.131,0,7.482,3.523,7.482,7.87L85.357,125.882L85.357,125.882z"/>
		
			<linearGradient id="XMLID_4_" gradientUnits="userSpaceOnUse" x1="3.3818" y1="80.7676" x2="85.5273" y2="80.7676" gradientTransform="matrix(1 0 0 1 -0.6387 0)">
			<stop  offset="0" style="stop-color:#A2D8E0"/>
			<stop  offset="0.0899" style="stop-color:#1878AD"/>
			<stop  offset="0.2135" style="stop-color:#194D91"/>
			<stop  offset="0.6404" style="stop-color:#2B90BD"/>
			<stop  offset="0.9438" style="stop-color:#82CBDE"/>
			<stop  offset="1" style="stop-color:#1A478D"/>
			<a:midPointStop  offset="0" style="stop-color:#A2D8E0"/>
			<a:midPointStop  offset="0.5" style="stop-color:#A2D8E0"/>
			<a:midPointStop  offset="0.0899" style="stop-color:#1878AD"/>
			<a:midPointStop  offset="0.5" style="stop-color:#1878AD"/>
			<a:midPointStop  offset="0.2135" style="stop-color:#194D91"/>
			<a:midPointStop  offset="0.5" style="stop-color:#194D91"/>
			<a:midPointStop  offset="0.6404" style="stop-color:#2B90BD"/>
			<a:midPointStop  offset="0.5" style="stop-color:#2B90BD"/>
			<a:midPointStop  offset="0.9438" style="stop-color:#82CBDE"/>
			<a:midPointStop  offset="0.5" style="stop-color:#82CBDE"/>
			<a:midPointStop  offset="1" style="stop-color:#1A478D"/>
		</linearGradient>
		<path i:isolated="yes" i:knockout="Off" opacity="0.1" fill="url(#XMLID_4_)" enable-background="new    " d="M84.888,125.882
			c0,4.344-3.314,7.869-7.398,7.869H10.144c-4.086,0-7.4-3.523-7.4-7.869V35.654c0-4.347,3.314-7.87,7.4-7.87H77.49
			c4.084,0,7.398,3.523,7.398,7.87L84.888,125.882L84.888,125.882z"/>
		<path fill="none" stroke="#4D4D4D" stroke-width="0.977" d="M85.357,35.633V10.671c0-5.149-3.352-9.325-7.482-9.325H9.755
			c-4.131,0-7.481,4.175-7.481,9.325v115.21c0,4.346,3.352,7.869,7.483,7.869h68.118c4.13,0,7.482-3.525,7.482-7.869l0.001-90.228
			C85.358,35.647,85.357,35.64,85.357,35.633z"/>
	</g>
	<g i:knockout="Off">
		<g i:knockout="Off">
			<path fill="#24258D" d="M41.939,55.773c0.505,0.201,0.909,0.303,1.213,0.303c1.011,0,2.476-0.051,4.398-0.151
				c1.92-0.101,3.385-0.151,4.396-0.151c5.963,0,10.309,0,13.037,0c3.032,0,4.953,0.051,5.762,0.151c0.102,0,0.354,0,0.758,0
				c1.213,0.101,1.971,0.101,2.275,0c0.908,0.101,0.809,1.011-0.306,2.729c-1.516,2.526-3.536,3.234-6.063,2.122
				c-2.223-0.909-4.801-1.466-7.73-1.668c-1.518-0.202-3.235-0.304-5.155-0.304c-1.92-0.1-4.498-0.1-7.732,0
				c-2.83,0.203-4.801,0.557-5.913,1.062c-1.111,0.505-1.213,0.555-0.303,0.15c-0.91,0.404-1.668,0.607-2.274,0.607
				c-1.213-0.102-1.517-0.91-0.909-2.426c1.516-2.123,2.931-2.982,4.244-2.578C41.939,55.723,42.04,55.773,41.939,55.773z
				 M42.243,42.432c0.404-0.404,0.909-0.708,1.516-0.91c0.81-0.202,1.465-0.252,1.972-0.151c0.403,0.101,0.858,0.151,1.364,0.151
				c0.707,0,1.718-0.051,3.031-0.151c1.314-0.1,2.324-0.151,3.033-0.151c4.447,0,8.49,0.101,12.129,0.303
				c1.717,0.304,2.525,1.012,2.426,2.123c-0.102,0.707-0.758,1.162-1.971,1.364c-4.348-0.304-9.25-0.455-14.707-0.455
				c-2.324,0-4.549,0.202-6.672,0.606c-0.504,0.202-1.112,0.303-1.819,0.303C40.928,45.262,40.827,44.25,42.243,42.432z
				 M53.614,48.647c1.717-0.101,3.436-0.101,5.153,0c1.818,0,3.185,0.101,4.095,0.304c1.617,0.101,2.426,0.454,2.426,1.061
				c0,0.809-0.506,1.314-1.518,1.516c-10.41,0-16.425,0.304-18.041,0.91c-0.91,0.202-1.517,0-1.818-0.606
				c-0.305-0.606-0.103-1.263,0.604-1.971c1.013-1.011,2.021-1.415,3.033-1.213C47.649,48.951,49.671,48.951,53.614,48.647z"/>
		</g>
	</g>
	<g i:knockout="Off">
		<g i:knockout="Off">
			<path fill="#1D8F38" d="M42.8,71.095c-3.125-3.011-5.771-2.816-7.094-2.41c-2.255,0.692-3.974,2.899-4.487,5.761
				c-0.064,0.36-0.096,0.696-0.1,1.017c-0.29,0.188-0.558,0.36-0.809,0.524c0.072-2.691,0.133-5.134,0.133-5.685
				c0-0.348,0.125-0.774,0.259-1.229c0.28-0.953,0.63-2.139-0.021-3.331c0.007,0.014,0.011,0.021,0.011,0.021
				c-0.162-0.421,0.048-2.262,0.217-3.741c0.323-2.845,0.727-6.385,0.244-9.628c-1.52-10.209-9.611-12.381-13.684-12.301
				c-2.631,0.051-2.064,1.201-2.064,1.201c0.121,0.016,9.3,1.221,12.678,7.93c-1.664,1.008-5.684,3.867-5.518,7.918l0.019,0.648
				c0.062,2.564,0.155,5.727,6.058,7.379c0.002,0.67,0.082,1.16,0.284,1.531c0.241,0.443,0.104,0.976-0.142,1.809
				c-0.167,0.568-0.791,0.978-0.791,1.613c0,0.992,0.24,8.781,0.142,12.297c-0.764-1.438-1.652-3.162-1.958-3.957
				c-0.382-0.994-2.559-5.924-7.887-5.313c-4.961,0.566-6.85,3.366-7.016,5.054c-0.091,0.929,0.881,1.294,0.881,1.294v0.002
				c0.02-0.031,1.648-2.41,4.109-3.654c-0.295,1.67-0.316,4.094,1.515,5.56c1.704,1.362,3.973,2.067,5.921,1.838
				c0.834-0.099,1.563-0.377,2.192-0.785c0.831,1.594,1.664,3.106,1.726,3.219l2.465-1.424c0.008-0.234,0.082-2.879,0.162-5.812
				c0.411-0.281,0.907-0.611,1.461-0.971c0.092,0.126,0.172,0.264,0.287,0.372c1.307,1.244,3.613,0.892,5.235,0.519
				c2.756-0.638,4.833-3.675,5.668-5.085c1.669,0.834,2.699,2.647,2.712,2.673c0,0,0.748-0.547,0.832-1.366
				C46.552,73.486,45.083,71.961,42.8,71.095z M23.465,81.254c-1.414,0.168-3.156-0.387-4.438-1.412
				c-0.799-0.641-0.959-1.738-0.896-2.752c1.08,1.506,2.99,3.648,5.395,4.152C23.504,81.246,23.487,81.252,23.465,81.254z
				 M19.206,75.101c3.371,0.042,4.832,3.374,5.104,4.081c0.018,0.045,0.042,0.102,0.062,0.15
				C21.975,79.174,19.926,76.259,19.206,75.101z M28.995,61.143c-0.766-0.354-1.293-0.834-1.568-1.473
				c-0.826-1.914,0.681-4.656,0.696-4.684l-1.738-0.988c-0.083,0.146-2.024,3.613-0.794,6.465c0.436,1.012,1.201,1.796,2.268,2.354
				c-3.171-1.229-3.225-2.962-3.275-5.075l-0.02-0.681c-0.113-2.773,2.775-4.987,4.264-5.94c0.146,0.498,0.266,1.019,0.348,1.568
				C29.583,55.441,29.287,58.537,28.995,61.143z M36.293,70.596c0.998-0.306,2.114-0.104,3.264,0.539
				c-1.833,0.529-4.161,1.75-6.203,2.955C33.85,72.324,34.936,71.014,36.293,70.596z M36.778,76.408
				c-2.325,0.537-3.117,0.235-3.387-0.002c2.575-1.578,5.646-3.242,7.377-3.502C39.86,74.274,38.375,76.039,36.778,76.408z"/>
		</g>
		<path fill="#1D8F38" d="M42.407,84.729l1.877,0.689v0.002c0.07-0.193,0.988-2.578,3.104-4.967
			c1.572,0.461,5.623,1.291,9.021-1.047c1.637-1.125,2.91-2.117,3.783-2.95c0.141-0.133,0.268-0.26,0.381-0.38
			c2.203,1.123,2.541,3.457,2.559,3.592c0,0,0.789-1.704,0.465-2.933c-0.321-1.229-4.823-7.251-12.707-4.354
			c-4.094,1.506-4.672,5.312-4.78,6.517C43.577,81.67,42.489,84.506,42.407,84.729z M55.276,77.758
			c-2.099,1.443-4.59,1.328-6.191,1.035c1.98-1.66,4.646-3.047,8.148-3.293c0.373-0.027,0.717-0.023,1.045-0.006
			C57.651,76.033,56.702,76.777,55.276,77.758z M51.677,74.221c1.445-0.619,2.775-0.699,3.918-0.524
			c-2.569,0.412-4.703,1.357-6.444,2.547C49.681,75.483,50.47,74.738,51.677,74.221z"/>
		<path fill="#1D8F38" d="M55.833,98.583c-3.201,0.768-5.145,4.114-5.992,7.017c-0.932,3.185-0.604,5.931-0.526,6.41
			c-3.521-4.223-5.882-8.412-5.916-8.475l-1.749,0.973c0.163,0.293,3.048,5.416,7.298,10.146c-5.85-5.035-10.813-12.534-10.87-12.62
			l-1.672,1.097c0.174,0.266,2.908,4.394,6.745,8.621c-1.198-0.795-2.395-1.607-3.519-2.371c-1.672-1.135-3.25-2.207-4.609-3.08
			c-5.078-3.264-12.252-6.126-15.336-7.183c-2.435-0.836-5.18-0.523-7.344,0.834c-1.873,1.174-3.088,3.007-3.334,5.03
			c-0.486,4.021-0.022,9.004-0.002,9.215l1.99-0.189c-0.004-0.041-0.312-3.358-0.17-6.647c2.082,1.051,5.969,2.463,8.819,0.207
			c2.151-1.703,2.485-3.824,2.192-5.52c2.297,0.903,5.223,2.161,8.021,3.606c-1.837-0.24-3.898,0.022-5.389,1.016
			c-2.355,1.57-2.4,4.023-1.965,5.633c-1.335,1.779-1.702,2.773-1.727,3.74c-0.038,1.529,0.877,2.479,0.877,2.479
			c0.045-0.192,0.569-2.375,2.068-4.565c1.759,1.104,3.484,1.426,5.136,0.938c3.509-1.03,5.232-5.356,5.304-5.541l0.041-0.104
			l0.018-0.109c0.038-0.26,0.037-0.633-0.111-1.043c1.301,0.84,2.804,1.859,4.396,2.941c4.604,3.125,9.821,6.668,12.606,7.504
			c3.485,1.045,5.158,1.754,5.174,1.762l0.074,0.031l0.076,0.018l0.317,0.08l0.301-0.123l2.427-0.983l-0.082,3.151l2,0.054
			l0.118-4.683l0.041-1.526l-1.416,0.575c0,0-2.196,1.3-2.924,1.371c-1.473,0.146-4.562-2.08-5.176-2.875
			c-0.613-0.793-1.963-4.858-0.201-9.063c0.054-0.129,0.117-0.254,0.185-0.379c1.043,1.016,2.896,2.36,5.465,2.432
			c3.74,0.105,4.977-3.664,5.387-5.964c1.533,0.569,3.129,1.737,4.17,4.056c0,0,0.719-0.521,0.646-1.559
			C67.429,101.093,59.526,97.696,55.833,98.583z M13.407,101.646c1.396-0.875,3.109-1.174,4.732-0.866
			c-1.01,2.242-5.17,3.854-7.13,4.406c-0.001-0.002-0.004-0.002-0.006-0.004C11.19,103.756,12.04,102.503,13.407,101.646z
			 M18.407,105.998c-1.33,1.053-3.137,0.875-4.689,0.389c2.109-0.817,4.873-2.25,6.064-4.415
			C20.079,103.02,20.13,104.635,18.407,105.998z M25.583,108.334c1.012-0.674,2.535-0.861,3.9-0.709
			c-2.129,0.479-3.824,1.486-5.166,2.691C24.405,109.633,24.729,108.902,25.583,108.334z M28.293,112.977
			c-1.014,0.298-2.119,0.093-3.293-0.592c1.57-1.629,3.814-2.961,6.97-3.055C31.414,110.412,30.159,112.432,28.293,112.977z
			 M56.349,99.972c0.502-0.184,1.097,0.068,1.603,0.113c-0.627,0.412-1.912,0.779-2.795,0.811
			C55.546,100.587,55.56,100.263,56.349,99.972z M57.552,106.383c-2.043-0.057-3.508-1.225-4.262-2
			c1.598-1.449,4.08-2.444,6.545-2.476c0.324-0.004,0.695,0.012,1.096,0.055C60.642,103.68,59.825,106.445,57.552,106.383z"/>
	</g>
	<g i:knockout="Off">
		<g i:knockout="Off">
			<g i:knockout="Off">
				<path fill="#D90000" d="M45.614,101.045l0.002,0.001c-0.041-0.007-4.175-0.661-5.013-3.523c-0.429-1.464-1.505-6.415,2.63-8.627
					c1.518-0.812,3.411-0.776,5.065,0.092c1.65,0.865,2.713,2.385,2.914,4.166c0.189,1.685-0.113,4.097-1.535,5.814
					c-1.02,1.231-2.479,1.928-4.338,2.068L45.614,101.045z M53.696,92.871c-0.297-2.618-1.84-4.841-4.236-6.1
					c-2.389-1.254-5.158-1.283-7.407-0.081c-4.605,2.463-5.008,7.572-3.85,11.533c1.291,4.41,6.817,5.262,7.051,5.295l0.137,0.021
					l0.138-0.011c2.524-0.19,4.627-1.218,6.073-2.968C53.235,98.59,54.017,95.715,53.696,92.871z"/>
			</g>
		</g>
		<g i:knockout="Off">
			<g i:knockout="Off">
				
					<rect x="36.532" y="93.621" transform="matrix(0.1354 0.9908 -0.9908 0.1354 131.813 38.6865)" fill="#D90000" width="14.414" height="2.501"/>
			</g>
		</g>
		<g i:knockout="Off">
			<g i:knockout="Off">
				
					<rect x="40.128" y="92.981" transform="matrix(0.1664 0.9861 -0.9861 0.1664 132.4107 31.8314)" fill="#D90000" width="14.5" height="2.5"/>
			</g>
		</g>
		<g i:knockout="Off">
			<g i:knockout="Off">
				<path fill="#D90000" d="M45.979,86.312c-1.845-2.312-4.222-5.171-5.069-5.643c-1.271-0.706-2.395,0.408-3.215,1.222
					c-0.301,0.298-0.861,0.854-1.091,0.928c-0.719,0.222-2.474,0.305-3.412,0.305h-0.875l-0.3,0.822
					c-0.161,0.444-3.885,10.939,2.904,14.747c1.228,0.688,3.818,0.778,4.584,0.791l0.036-2.5h0.001
					c-1.271-0.021-2.939-0.214-3.398-0.472c-4.939-2.771-1.809-11.624-1.776-11.714l-1.175,0.824c0.286,0,2.836-0.012,4.147-0.416
					c0.813-0.25,1.476-0.906,2.114-1.54c0.27-0.267,0.676-0.67,0.84-0.749c-0.085,0.041-0.344,0.08-0.6-0.062
					c0.459,0.329,2.616,2.867,4.33,5.017L45.979,86.312z"/>
			</g>
		</g>
		<g i:knockout="Off">
			<g i:knockout="Off">
				<path fill="#D90000" d="M33.228,83.124c-0.149,0.007-3.694,0.176-6.728,1.445c-1.777,0.743-3.014,2.522-3.389,4.881
					c-0.637,3.982,1.128,8.438,4.494,11.348c0.588,0.509,2.152,1.861,4.375,1.619c1.855-0.202,3.667-1.472,5.384-3.772l-2.004-1.493
					c-1.267,1.696-2.528,2.658-3.65,2.78c-1.141,0.124-2.038-0.65-2.47-1.023c-3.1-2.682-4.072-6.483-3.66-9.063
					c0.236-1.482,0.924-2.564,1.886-2.968c2.614-1.095,5.841-1.253,5.873-1.254L33.228,83.124z"/>
			</g>
		</g>
		<g i:knockout="Off">
			<g i:knockout="Off">
				<path fill="#D90000" d="M36.737,86.39c-0.098,0.148-2.371,3.688-1.502,6.985c0.424,1.606,1.482,2.857,3.145,3.718l1.148-2.221
					c-1.02-0.527-1.633-1.224-1.873-2.128c-0.49-1.841,0.684-4.229,1.177-4.991L36.737,86.39z"/>
			</g>
		</g>
	</g>
</g>
</svg>
