<?xml version="1.0" encoding="utf-8"?>
<!-- Generator: Adobe Illustrator 12.0.0, SVG Export Plug-In . SVG Version: 6.00 Build 51448)  -->
<!DOCTYPE svg PUBLIC "-//W3C//DTD SVG 1.1//EN" "http://www.w3.org/Graphics/SVG/1.1/DTD/svg11.dtd" [
	<!ENTITY ns_flows "http://ns.adobe.com/Flows/1.0/">
	<!ENTITY ns_extend "http://ns.adobe.com/Extensibility/1.0/">
	<!ENTITY ns_ai "http://ns.adobe.com/AdobeIllustrator/10.0/">
	<!ENTITY ns_graphs "http://ns.adobe.com/Graphs/1.0/">
	<!ENTITY ns_vars "http://ns.adobe.com/Variables/1.0/">
	<!ENTITY ns_imrep "http://ns.adobe.com/ImageReplacement/1.0/">
	<!ENTITY ns_sfw "http://ns.adobe.com/SaveForWeb/1.0/">
	<!ENTITY ns_custom "http://ns.adobe.com/GenericCustomNamespace/1.0/">
	<!ENTITY ns_adobe_xpath "http://ns.adobe.com/XPath/1.0/">
	<!ENTITY ns_svg "http://www.w3.org/2000/svg">
	<!ENTITY ns_xlink "http://www.w3.org/1999/xlink">
]>
<svg  version="1.1"
	 xmlns:x="&ns_extend;" xmlns:i="&ns_ai;" xmlns:graph="&ns_graphs;" i:viewOrigin="-0.3193 135.7061" i:rulerOrigin="0 0" i:pageBounds="0 136 85 0"
	 xmlns="&ns_svg;" xmlns:xlink="&ns_xlink;" xmlns:a="http://ns.adobe.com/AdobeSVGViewerExtensions/3.0/"
	 width="85.678" height="136.025" viewBox="0 0 85.678 136.025" overflow="visible" enable-background="new 0 0 85.678 136.025"
	 xml:space="preserve">
<metadata>
	<variableSets  xmlns="http://ns.adobe.com/Variables/1.0/">
		<variableSet  varSetName="binding1" locked="none">
			<variables></variables>
			<v:sampleDataSets  xmlns:v="http://ns.adobe.com/Variables/1.0/" xmlns="http://ns.adobe.com/GenericCustomNamespace/1.0/">
				</v:sampleDataSets>
		</variableSet>
	</variableSets>
</metadata>
<g id="图层_1" i:knockout="Off" i:layer="yes" i:dimmedPercent="50" i:rgbTrio="#4F008000FFFF">
	<g>
		<path fill="#333333" d="M83.403,37.587V12.625c0-5.149-3.352-9.325-7.481-9.325H7.804c-4.133,0-7.484,4.175-7.484,9.325h0.002
			v115.211c0,4.344,3.351,7.869,7.482,7.869h68.118c4.131,0,7.481-3.525,7.481-7.869h0.002V37.608
			C83.405,37.601,83.403,37.594,83.403,37.587z"/>
		
			<linearGradient id="XMLID_3_" gradientUnits="userSpaceOnUse" x1="-23.3101" y1="112.9883" x2="-23.3101" y2="-12.5781" gradientTransform="matrix(-1 0 0 -1 20.5059 114.334)">
			<stop  offset="0.0899" style="stop-color:#2089B9"/>
			<stop  offset="0.0985" style="stop-color:#4FA3C2"/>
			<stop  offset="0.1071" style="stop-color:#77B9CA"/>
			<stop  offset="0.1138" style="stop-color:#8FC7CF"/>
			<stop  offset="0.118" style="stop-color:#98CCD1"/>
			<stop  offset="0.1341" style="stop-color:#9ECFD3"/>
			<stop  offset="0.156" style="stop-color:#AFD6D9"/>
			<stop  offset="0.1809" style="stop-color:#CBE1E3"/>
			<stop  offset="0.1966" style="stop-color:#E1EAEB"/>
			<a:midPointStop  offset="0.0899" style="stop-color:#2089B9"/>
			<a:midPointStop  offset="0.4" style="stop-color:#2089B9"/>
			<a:midPointStop  offset="0.118" style="stop-color:#98CCD1"/>
			<a:midPointStop  offset="0.6429" style="stop-color:#98CCD1"/>
			<a:midPointStop  offset="0.1966" style="stop-color:#E1EAEB"/>
		</linearGradient>
		<path fill="url(#XMLID_3_)" d="M2.273,10.671c0-5.15,3.351-9.325,7.481-9.325h68.12c4.131,0,7.482,4.176,7.482,9.325v106.916
			c0,5.148-3.353,9.326-7.482,9.326H9.757c-4.132,0-7.483-4.176-7.483-9.326V10.671L2.273,10.671z"/>
		<path fill="none" stroke="#333333" stroke-width="0.977" d="M2.273,10.671c0-5.15,3.351-9.325,7.481-9.325h68.12
			c4.131,0,7.482,4.176,7.482,9.325v106.916c0,5.148-3.353,9.326-7.482,9.326H9.757c-4.132,0-7.483-4.176-7.483-9.326V10.671
			L2.273,10.671z"/>
		<path fill="#FFFFFF" d="M85.357,125.882c0,4.344-3.353,7.869-7.482,7.869H9.757c-4.132,0-7.483-3.523-7.483-7.869V35.654
			c0-4.347,3.352-7.87,7.483-7.87h68.119c4.131,0,7.482,3.523,7.482,7.87L85.357,125.882L85.357,125.882z"/>
		
			<linearGradient id="XMLID_4_" gradientUnits="userSpaceOnUse" x1="3.3818" y1="80.7676" x2="85.5273" y2="80.7676" gradientTransform="matrix(1 0 0 1 -0.6387 0)">
			<stop  offset="0" style="stop-color:#A2D8E0"/>
			<stop  offset="0.0899" style="stop-color:#1878AD"/>
			<stop  offset="0.2135" style="stop-color:#194D91"/>
			<stop  offset="0.6404" style="stop-color:#2B90BD"/>
			<stop  offset="0.9438" style="stop-color:#82CBDE"/>
			<stop  offset="1" style="stop-color:#1A478D"/>
			<a:midPointStop  offset="0" style="stop-color:#A2D8E0"/>
			<a:midPointStop  offset="0.5" style="stop-color:#A2D8E0"/>
			<a:midPointStop  offset="0.0899" style="stop-color:#1878AD"/>
			<a:midPointStop  offset="0.5" style="stop-color:#1878AD"/>
			<a:midPointStop  offset="0.2135" style="stop-color:#194D91"/>
			<a:midPointStop  offset="0.5" style="stop-color:#194D91"/>
			<a:midPointStop  offset="0.6404" style="stop-color:#2B90BD"/>
			<a:midPointStop  offset="0.5" style="stop-color:#2B90BD"/>
			<a:midPointStop  offset="0.9438" style="stop-color:#82CBDE"/>
			<a:midPointStop  offset="0.5" style="stop-color:#82CBDE"/>
			<a:midPointStop  offset="1" style="stop-color:#1A478D"/>
		</linearGradient>
		<path i:isolated="yes" i:knockout="Off" opacity="0.1" fill="url(#XMLID_4_)" enable-background="new    " d="M84.888,125.882
			c0,4.344-3.314,7.869-7.398,7.869H10.144c-4.086,0-7.4-3.523-7.4-7.869V35.654c0-4.347,3.314-7.87,7.4-7.87H77.49
			c4.084,0,7.398,3.523,7.398,7.87L84.888,125.882L84.888,125.882z"/>
		<path fill="none" stroke="#4D4D4D" stroke-width="0.977" d="M85.357,35.633V10.671c0-5.149-3.352-9.325-7.482-9.325H9.755
			c-4.131,0-7.481,4.175-7.481,9.325v115.21c0,4.346,3.352,7.869,7.483,7.869h68.118c4.13,0,7.482-3.525,7.482-7.869l0.001-90.228
			C85.358,35.647,85.357,35.64,85.357,35.633z"/>
	</g>
	<g i:knockout="Off">
		<path fill="#1D8F38" d="M29.276,83.595c-0.339-10.049-0.983-27.601-1.488-32.252c-0.817-7.531-11.084-8.844-11.521-8.896
			l-0.279-0.034l-0.262,0.105c-0.454,0.182-0.791,0.602-1.029,1.281c-0.625,1.78-0.764,5.805,0.922,8.79
			c1.422,2.516,3.859,3.272,5.473,3.773c0.389,0.121,0.92,0.286,1.056,0.384c-0.032-0.024-0.128-0.121-0.176-0.288
			c0.167,0.895,1.51,16.377,2.681,30.36l2.191-0.185c-0.934-11.162-2.535-30.004-2.757-30.781c-0.271-0.949-1.231-1.247-2.343-1.592
			c-1.434-0.445-3.217-0.999-4.209-2.755c-1.572-2.782-1.062-6.573-0.68-7.173c-0.023,0.038-0.127,0.151-0.309,0.225l-0.541,0.071
			c0.089,0.011,8.967,1.157,9.595,6.95c0.498,4.58,1.14,22.07,1.477,32.088L29.276,83.595z"/>
	</g>
	<g i:knockout="Off">
		<path fill="#1D8F38" d="M25.971,81.641c-0.17-0.108-4.174-2.683-5.676-3.434c-1.367-0.686-3.195-0.664-4.346,0.048
			c-0.777,0.479-1.205,1.229-1.205,2.109c0,2.102,2.175,4.768,4.619,4.768c1.447,0,5.076,1.871,5.547,2.459l1.82-1.233
			c-0.874-1.312-5.418-3.425-7.367-3.425c-1.121,0-2.42-1.555-2.42-2.567c0-0.068,0-0.14,0.162-0.238
			c0.494-0.305,1.545-0.282,2.205,0.048c1.396,0.699,5.429,3.291,5.469,3.316L25.971,81.641z"/>
	</g>
	<polygon fill="#B3D495" points="43.864,80.64 43.864,80.639 43.863,80.639 	"/>
	<g i:knockout="Off">
		<g i:knockout="Off">
			<path fill="#24258D" d="M47.814,41.059c2.123,0.809,4.396,1.112,6.821,0.91c4.146-0.202,7.985-0.202,11.523,0
				c1.92,0.102,3.184,0.102,3.79,0c0.707,0,1.364-0.102,1.971-0.303c2.628-0.607,3.942,0.556,3.942,3.486
				C75.154,49.195,74.8,53.39,74.8,57.736c-0.102,1.617-0.759,2.779-1.972,3.487c-1.313,0.606-2.576,0.404-3.789-0.606
				c-0.709-0.506-3.285-0.859-7.732-1.062c-5.659,0-9.098,0.202-10.311,0.606c-1.213,1.011-2.324,1.415-3.335,1.213
				c-1.011-0.404-1.518-1.314-1.518-2.729c-0.101-4.75-0.505-9.501-1.213-14.252C44.631,41.666,45.592,40.555,47.814,41.059z
				 M54.637,45.305c0-0.404-0.2-0.607-0.604-0.607c-0.708,0-1.617,0-2.729,0c-1.718,0.102-2.628,0.81-2.729,2.123
				c0.203,2.628,0.304,4.396,0.304,5.307c-0.101,0.506,0.202,0.656,0.909,0.455C53.323,51.975,54.94,49.549,54.637,45.305z
				 M60.398,51.672c-0.507-1.111-0.455-3.082,0.151-5.912c0.304-0.809-0.102-1.162-1.213-1.062c-0.91,0-1.365,0.304-1.365,0.91
				c0,3.437-0.605,5.762-1.818,6.975c-1.213,1.414-3.387,2.122-6.52,2.122c-0.305,0-0.455,0.304-0.455,0.909
				c0.201,0.709,0.605,1.113,1.213,1.213c5.861,0,12.027,0,18.496,0c1.314,0.102,2.021-0.303,2.123-1.213
				c0.102-0.404,0.201-1.516,0.304-3.335c-1.617,1.819-3.438,2.729-5.458,2.729C63.026,54.906,61.207,53.795,60.398,51.672z
				 M71.617,48.64c0.102-0.202,0.151-0.657,0.151-1.364c0.102-0.606,0.151-1.061,0.151-1.365c-0.101-0.707-0.605-1.111-1.517-1.213
				c-1.617,0-3.387,0-5.307,0c-0.809-0.1-1.363,0.506-1.668,1.82c-0.403,1.516-0.304,2.628,0.305,3.335
				c2.021,2.123,4.295,2.427,6.821,0.909C71.163,50.561,71.517,49.853,71.617,48.64z"/>
		</g>
	</g>
	<g i:knockout="Off">
		<path fill="#1D8F38" d="M28.622,78.354l-0.001,0.002c0.026-0.037,2.739-3.815,6.092-3.218l-0.906-1.083
			c-0.002,0.999-0.228,3.883-1.238,5.198c-1.045,1.357-3.821,2.64-4.803,3.019l0.791,2.054c0.42-0.161,4.146-1.64,5.756-3.73
			c1.646-2.143,1.693-6.096,1.693-6.539v-0.921L35.1,72.973c-4.742-0.847-8.138,3.917-8.28,4.12L28.622,78.354z"/>
	</g>
	<g i:knockout="Off">
		<path fill="#1D8F38" d="M42.937,87.5L42.937,87.5c-0.077-3.222,0.24-12.292,2.597-15.526c2.63-3.605,8.258-2.464,8.313-2.45
			l-0.856-0.91c0.355,2.327,0.317,4.863-0.08,5.321c0.001,0,0.02-0.021,0.061-0.044c-0.314,0.175-1.067,0.307-1.795,0.435
			c-1.901,0.334-4.508,0.791-5.926,2.859c-1.527,2.227-1.65,6.82-1.57,11.021c0.006,0.295,0.011,0.528,0.011,0.688v2.305h2.198
			v-2.305c0-0.181-0.004-0.424-0.01-0.729c-0.037-1.927-0.147-7.791,1.187-9.735c0.896-1.307,2.806-1.642,4.49-1.938
			c0.987-0.174,1.841-0.323,2.477-0.673c1.84-1.013,1.5-5.158,1.133-7.54l-0.115-0.748l-0.738-0.16
			c-0.288-0.062-7.075-1.465-10.555,3.307c-3.277,4.498-3.031,16.372-3.019,16.875L42.937,87.5z"/>
	</g>
	<g i:knockout="Off">
		<path fill="#1D8F38" d="M44.536,88.986c1.666,0.056,7.198,0.055,8.43-2.322c1.167-2.25,0.702-4.91,0.683-5.022l-0.127-0.701
			l-0.692-0.171c-0.24-0.059-2.386-0.559-4.1-0.059c-1.936,0.563-4.429,2.949-4.706,3.219l1.532,1.578h-0.001
			c0.9-0.873,2.728-2.375,3.79-2.686c0.974-0.283,2.468-0.035,2.96,0.084l-0.821-0.872c0.004,0.018,0.346,2.044-0.471,3.617
			c-0.358,0.692-3.411,1.233-6.402,1.136L44.536,88.986z"/>
	</g>
	<g i:knockout="Off">
		<path fill="#1D8F38" d="M42.854,82.104c-0.242-0.314-2.43-3.1-4.498-3.761c-0.997-0.318-1.905-0.062-2.43,0.688
			c-0.823,1.179-0.379,3.137,0.506,4.274c1.096,1.407,4.439,3.543,4.817,3.782l1.176-1.859l0,0
			c-1.302-0.822-3.608-2.439-4.256-3.271c-0.444-0.573-0.551-1.453-0.435-1.675c-0.029,0.057-0.136,0.123-0.199,0.125
			c0,0,0.047-0.001,0.15,0.031c1.068,0.342,2.668,2.025,3.424,3.008L42.854,82.104z"/>
	</g>
	<g i:knockout="Off">
		<path fill="#1D8F38" d="M39.345,106.407c0.868,1.938,5.243,11.674,6.07,12.865l1.809-1.252c-0.548-0.792-3.892-8.096-5.871-12.513
			L39.345,106.407z"/>
		<path fill="#1D8F38" d="M43.062,104.6L43.062,104.6c0.031,0.07,3.084,7.092,3.027,12.777l2.199,0.021
			c0.062-6.166-3.079-13.381-3.213-13.685L43.062,104.6z"/>
	</g>
	<g i:knockout="Off">
		<path fill="#1D8F38" d="M35.106,105.948c0.134,0.397,3.343,9.815,9.487,15.347l1.472-1.635
			c-5.708-5.139-8.842-14.319-8.873-14.412L35.106,105.948z"/>
	</g>
	<g i:knockout="Off">
		<path fill="#1D8F38" d="M35.32,113.537c-0.449-0.4-11.025-9.808-13.486-11.282c-1.969-1.181-5.158-1.947-7.442-1.13
			c-1.296,0.464-2.222,1.385-2.679,2.662c-1.197,3.352-1.773,8.881,1.545,10.373l0.127,0.058c2.309,1.04,4.304,1.938,6.719-1.233
			c1.732-2.272,3.033-3.071,3.047-3.079l-1.262-0.1c0.452,0.374,11.121,9.182,14.957,11.818c3.929,2.702,6.656,3.586,6.77,3.622
			l0.924,0.294l0.408-0.878c0.039-0.085,3.972-8.542,5.858-12.199c1.677-3.248,6.664-3.967,8.412-3.417
			c1.906,0.604,3.814-0.604,4.781-1.983c1.012-1.439,1.066-3.086,0.143-4.293c-1.793-2.345-7.387-5.431-10.641-3.656
			c-2.299,1.256-4.312,3.683-5.987,7.215c-1.056,2.227-2.007,4.016-2.017,4.033l1.941,1.034c0.039-0.073,0.983-1.85,2.062-4.127
			c1.45-3.059,3.197-5.212,5.054-6.225c1.925-1.05,6.419,1.206,7.838,3.062c0.468,0.609,0.021,1.387-0.194,1.691
			c-0.605,0.864-1.625,1.369-2.318,1.149c-2.542-0.802-8.737,0.062-11.029,4.505c-1.907,3.698-5.859,12.196-5.899,12.281
			l1.332-0.584c-0.023-0.009-2.558-0.841-6.191-3.34c-3.756-2.583-14.692-11.609-14.803-11.7l-0.592-0.489l-0.662,0.387
			c-0.167,0.098-1.686,1.025-3.682,3.644c-1.356,1.78-1.77,1.595-4.065,0.562l-0.128-0.058c-1.573-0.708-1.461-4.588-0.375-7.627
			c0.233-0.654,0.675-1.091,1.348-1.331c1.565-0.561,4.062,0.041,5.57,0.944c1.896,1.138,10.139,8.354,13.154,11.038L35.32,113.537z
			"/>
	</g>
	<g i:knockout="Off">
		<path fill="#1D8F38" d="M31.404,107.746c0.277,0.507,6.861,12.439,12.436,15.972l1.178-1.858
			c-5.098-3.229-11.619-15.052-11.684-15.171L31.404,107.746z"/>
	</g>
	<g i:knockout="Off">
		<g i:knockout="Off">
			<path fill="#D90000" d="M35.419,105.553c0.152,0.103,3.779,2.468,7.995,0.699c2.49-1.043,2.194-3.954,1.689-5.348l-2.068,0.75
				l-0.002-0.005c0.008,0.021,0.717,2.075-0.469,2.572c-3.107,1.304-5.815-0.429-5.93-0.503l-0.084-0.056
				c-0.005-0.003-0.099-0.042-0.099-0.042L35.419,105.553z"/>
		</g>
		<g i:knockout="Off">
			<path fill="#D90000" d="M39.077,101.537c0.405,0.025,1.006-0.09,1.562-0.797c1.093-1.395,1.84-5.19,1.119-7.474
				c-0.762-2.415-2.562-3.229-3.755-3.77c-0.188-0.085-0.365-0.165-0.521-0.243c-1.151-0.575-2.54,0.17-4.01,0.958
				c-0.606,0.325-1.62,0.87-1.949,0.86c0.001,0,0.009,0,0.022,0.003c-0.598-0.108-1.164,0.128-1.554,0.647
				c-1.126,1.501-0.823,6.332,0.015,8.006c0.983,1.971,2.785,2.957,2.861,2.998l0.607,0.326l0.559-0.402
				C34.046,102.643,35.957,101.329,39.077,101.537z M33.91,100.791l0.005,0.003c-0.013-0.007-1.276-0.716-1.942-2.047
				c-0.611-1.223-0.669-5.032-0.219-5.706c-0.062,0.093-0.311,0.252-0.602,0.199c0.993,0.181,2.09-0.407,3.359-1.089
				c0.646-0.347,1.728-0.927,2.078-0.898c0,0-0.037-0.003-0.092-0.03c0.193,0.098,0.399,0.189,0.598,0.279
				c1.079,0.488,2.098,0.949,2.564,2.428c0.542,1.719-0.236,5.015-0.797,5.503c0.031-0.026,0.165-0.104,0.358-0.091
				c-3.95-0.264-6.376,1.453-6.478,1.526L33.91,100.791z"/>
		</g>
		<g i:knockout="Off">
			<path fill="#D90000" d="M39.395,99.716c1.479,1.717,5.513,4.358,10.197,2.071c2.562-1.251,3.72-3.735,3.021-6.482
				c-0.705-2.771-3.348-5.487-7.031-5.325l-0.188,0.009l-0.174,0.068c-0.001,0.001-0.911,0.324-1.145-0.104
				c-0.142-0.258-0.233-0.563-0.341-0.919c-0.341-1.122-0.805-2.659-3.25-3.549c-2.552-0.928-3.998,0.688-4.775,1.556
				c-0.19,0.214-0.479,0.535-0.601,0.593c0.119-0.055,0.351-0.021,0.452,0.062c-0.062-0.053-0.21-0.253-0.318-0.399
				c-0.423-0.573-1.062-1.438-2.274-1.97c-2.11-0.923-4.142,0.073-5.573,2.731l1.938,1.043c0.856-1.593,1.784-2.185,2.755-1.76
				c0.672,0.294,1.034,0.785,1.385,1.26c0.395,0.536,1.217,1.652,2.564,1.026c0.531-0.247,0.928-0.691,1.312-1.12
				c0.809-0.903,1.282-1.355,2.384-0.955c1.409,0.514,1.603,1.151,1.896,2.118c0.125,0.411,0.266,0.879,0.516,1.335
				c0.938,1.722,2.957,1.469,3.893,1.094l-0.359,0.077c2.484-0.108,4.328,1.81,4.803,3.67c0.208,0.818,0.443,2.842-1.854,3.964
				c-4.312,2.104-7.438-1.384-7.568-1.533L39.395,99.716z"/>
		</g>
		<g i:knockout="Off">
			<path fill="#D90000" d="M24.652,86.818l0.359,4.348l1.012-1.188c-0.568,0.044-5.576,0.521-6.195,3.774
				c-0.385,2.021,0.366,5.028,1.748,6.996c0.931,1.325,2.093,2.133,3.36,2.334c3.209,0.515,4.479-0.208,4.792-0.442l-1.752-0.76
				c0.166,1.496,0.926,6.376,3.732,6.376c2.394,0,4.909-1.679,5.279-3.521c0.283-1.418-0.311-3.624-0.38-3.871l-2.119,0.59
				l-0.001-0.001c0.205,0.739,0.479,2.167,0.342,2.851c-0.119,0.602-1.521,1.755-3.121,1.755c-0.414,0-1.272-1.979-1.547-4.42
				l-0.214-1.908l-1.538,1.149c0.052-0.036-0.776,0.408-3.127,0.032c-0.842-0.135-1.502-0.851-1.906-1.427
				c-1.167-1.661-1.629-4.056-1.387-5.319c0.241-1.272,2.937-1.894,4.204-1.993l1.101-0.088c0.001,0-0.09-1.1-0.09-1.1l-0.361-4.349
				L24.652,86.818z"/>
		</g>
		<g i:knockout="Off">
			
				<rect x="24.003" y="86.844" transform="matrix(-0.0322 -0.9995 0.9995 -0.0322 -58.6715 119.0779)" fill="#D90000" width="8.624" height="2.2"/>
		</g>
	</g>
	<circle fill="#D90000" cx="33.29" cy="96.471" r="1.429"/>
	<circle fill="#D90000" cx="36.022" cy="97.465" r="1.429"/>
	<circle fill="#D90000" cx="35.091" cy="93.862" r="1.429"/>
	<circle fill="#D90000" cx="38.134" cy="94.856" r="1.429"/>
</g>
</svg>
