<?xml version="1.0" encoding="utf-8"?>
<!-- Generator: Adobe Illustrator 12.0.0, SVG Export Plug-In . SVG Version: 6.00 Build 51448)  -->
<!DOCTYPE svg PUBLIC "-//W3C//DTD SVG 1.1//EN" "http://www.w3.org/Graphics/SVG/1.1/DTD/svg11.dtd" [
	<!ENTITY ns_flows "http://ns.adobe.com/Flows/1.0/">
	<!ENTITY ns_extend "http://ns.adobe.com/Extensibility/1.0/">
	<!ENTITY ns_ai "http://ns.adobe.com/AdobeIllustrator/10.0/">
	<!ENTITY ns_graphs "http://ns.adobe.com/Graphs/1.0/">
	<!ENTITY ns_vars "http://ns.adobe.com/Variables/1.0/">
	<!ENTITY ns_imrep "http://ns.adobe.com/ImageReplacement/1.0/">
	<!ENTITY ns_sfw "http://ns.adobe.com/SaveForWeb/1.0/">
	<!ENTITY ns_custom "http://ns.adobe.com/GenericCustomNamespace/1.0/">
	<!ENTITY ns_adobe_xpath "http://ns.adobe.com/XPath/1.0/">
	<!ENTITY ns_svg "http://www.w3.org/2000/svg">
	<!ENTITY ns_xlink "http://www.w3.org/1999/xlink">
]>
<svg  version="1.1"
	 xmlns:x="&ns_extend;" xmlns:i="&ns_ai;" xmlns:graph="&ns_graphs;" i:viewOrigin="-0.3193 135.7061" i:rulerOrigin="0 0" i:pageBounds="0 136 85 0"
	 xmlns="&ns_svg;" xmlns:xlink="&ns_xlink;" xmlns:a="http://ns.adobe.com/AdobeSVGViewerExtensions/3.0/"
	 width="85.678" height="136.025" viewBox="0 0 85.678 136.025" overflow="visible" enable-background="new 0 0 85.678 136.025"
	 xml:space="preserve">
<metadata>
	<variableSets  xmlns="http://ns.adobe.com/Variables/1.0/">
		<variableSet  varSetName="binding1" locked="none">
			<variables></variables>
			<v:sampleDataSets  xmlns:v="http://ns.adobe.com/Variables/1.0/" xmlns="http://ns.adobe.com/GenericCustomNamespace/1.0/">
				</v:sampleDataSets>
		</variableSet>
	</variableSets>
</metadata>
<g id="图层_1" i:knockout="Off" i:layer="yes" i:dimmedPercent="50" i:rgbTrio="#4F008000FFFF">
	<g>
		<path fill="#333333" d="M83.403,37.587V12.625c0-5.149-3.352-9.325-7.481-9.325H7.804c-4.133,0-7.484,4.175-7.484,9.325h0.002
			v115.211c0,4.344,3.351,7.869,7.482,7.869h68.118c4.131,0,7.481-3.525,7.481-7.869h0.002V37.608
			C83.405,37.601,83.403,37.594,83.403,37.587z"/>
		
			<linearGradient id="XMLID_3_" gradientUnits="userSpaceOnUse" x1="-23.3101" y1="112.9883" x2="-23.3101" y2="-12.5781" gradientTransform="matrix(-1 0 0 -1 20.5059 114.334)">
			<stop  offset="0.0899" style="stop-color:#2089B9"/>
			<stop  offset="0.0985" style="stop-color:#4FA3C2"/>
			<stop  offset="0.1071" style="stop-color:#77B9CA"/>
			<stop  offset="0.1138" style="stop-color:#8FC7CF"/>
			<stop  offset="0.118" style="stop-color:#98CCD1"/>
			<stop  offset="0.1341" style="stop-color:#9ECFD3"/>
			<stop  offset="0.156" style="stop-color:#AFD6D9"/>
			<stop  offset="0.1809" style="stop-color:#CBE1E3"/>
			<stop  offset="0.1966" style="stop-color:#E1EAEB"/>
			<a:midPointStop  offset="0.0899" style="stop-color:#2089B9"/>
			<a:midPointStop  offset="0.4" style="stop-color:#2089B9"/>
			<a:midPointStop  offset="0.118" style="stop-color:#98CCD1"/>
			<a:midPointStop  offset="0.6429" style="stop-color:#98CCD1"/>
			<a:midPointStop  offset="0.1966" style="stop-color:#E1EAEB"/>
		</linearGradient>
		<path fill="url(#XMLID_3_)" d="M2.273,10.671c0-5.15,3.351-9.325,7.481-9.325h68.12c4.131,0,7.482,4.176,7.482,9.325v106.916
			c0,5.148-3.353,9.326-7.482,9.326H9.757c-4.132,0-7.483-4.176-7.483-9.326V10.671L2.273,10.671z"/>
		<path fill="none" stroke="#333333" stroke-width="0.977" d="M2.273,10.671c0-5.15,3.351-9.325,7.481-9.325h68.12
			c4.131,0,7.482,4.176,7.482,9.325v106.916c0,5.148-3.353,9.326-7.482,9.326H9.757c-4.132,0-7.483-4.176-7.483-9.326V10.671
			L2.273,10.671z"/>
		<path fill="#FFFFFF" d="M85.357,125.882c0,4.344-3.353,7.869-7.482,7.869H9.757c-4.132,0-7.483-3.523-7.483-7.869V35.654
			c0-4.347,3.352-7.87,7.483-7.87h68.119c4.131,0,7.482,3.523,7.482,7.87L85.357,125.882L85.357,125.882z"/>
		
			<linearGradient id="XMLID_4_" gradientUnits="userSpaceOnUse" x1="3.3818" y1="80.7676" x2="85.5273" y2="80.7676" gradientTransform="matrix(1 0 0 1 -0.6387 0)">
			<stop  offset="0" style="stop-color:#A2D8E0"/>
			<stop  offset="0.0899" style="stop-color:#1878AD"/>
			<stop  offset="0.2135" style="stop-color:#194D91"/>
			<stop  offset="0.6404" style="stop-color:#2B90BD"/>
			<stop  offset="0.9438" style="stop-color:#82CBDE"/>
			<stop  offset="1" style="stop-color:#1A478D"/>
			<a:midPointStop  offset="0" style="stop-color:#A2D8E0"/>
			<a:midPointStop  offset="0.5" style="stop-color:#A2D8E0"/>
			<a:midPointStop  offset="0.0899" style="stop-color:#1878AD"/>
			<a:midPointStop  offset="0.5" style="stop-color:#1878AD"/>
			<a:midPointStop  offset="0.2135" style="stop-color:#194D91"/>
			<a:midPointStop  offset="0.5" style="stop-color:#194D91"/>
			<a:midPointStop  offset="0.6404" style="stop-color:#2B90BD"/>
			<a:midPointStop  offset="0.5" style="stop-color:#2B90BD"/>
			<a:midPointStop  offset="0.9438" style="stop-color:#82CBDE"/>
			<a:midPointStop  offset="0.5" style="stop-color:#82CBDE"/>
			<a:midPointStop  offset="1" style="stop-color:#1A478D"/>
		</linearGradient>
		<path i:isolated="yes" i:knockout="Off" opacity="0.1" fill="url(#XMLID_4_)" enable-background="new    " d="M84.888,125.882
			c0,4.344-3.314,7.869-7.398,7.869H10.144c-4.086,0-7.4-3.523-7.4-7.869V35.654c0-4.347,3.314-7.87,7.4-7.87H77.49
			c4.084,0,7.398,3.523,7.398,7.87L84.888,125.882L84.888,125.882z"/>
		<path fill="none" stroke="#4D4D4D" stroke-width="0.977" d="M85.357,35.633V10.671c0-5.149-3.352-9.325-7.482-9.325H9.755
			c-4.131,0-7.481,4.175-7.481,9.325v115.21c0,4.346,3.352,7.869,7.483,7.869h68.118c4.13,0,7.482-3.525,7.482-7.869l0.001-90.228
			C85.358,35.647,85.357,35.64,85.357,35.633z"/>
	</g>
	<g i:knockout="Off">
		<path fill="#D90000" d="M25.457,59.701c-0.191,2.195,0.62,3.246,2.434,3.15c1.432,0,2.148,0.381,2.148,1.145
			c0,0.764-0.573,1.146-1.719,1.146H17.007c-1.24,0-1.861-0.383-1.861-1.146c-0.096-0.668,0.668-1.049,2.291-1.145
			c1.146-0.096,1.861-0.334,2.148-0.717c0.287-0.381,0.43-1.193,0.43-2.434V45.096c0-1.24-0.143-2.004-0.43-2.291
			c-0.287-0.286-1.098-0.43-2.434-0.43h-1.146c-1.145,0-1.717-0.334-1.717-1.002s0.668-1.098,2.004-1.289
			c1.719-0.19,3.531-0.811,5.441-1.861c1.049-0.572,1.812-0.859,2.291-0.859c1.05,0,1.527,0.717,1.433,2.148V59.701z"/>
	</g>
	<g i:knockout="Off">
		<path fill="#1D8F38" d="M43.533,36.954c0,0,4.311,2.501,6.567,7.678c1.466,3.355,0.943,10.562,0.943,10.562
			s1.848-2.953,3.145-3.097c1.296-0.144,1.655,0.72,0.863,1.944s-4.104,2.951-4.104,2.951l-1.08,2.521c0,0,2.088-1.872,3.527-1.872
			c1.438,0,3.239,2.016,2.663,4.536c-0.575,2.52-3.312,3.744-4.464,3.744c-1.151,0-2.017-0.576-1.8-1.584
			c0.216-1.009,2.16,0,3.455-0.792c1.297-0.792,1.08-2.809,0.576-3.744s-1.729,0-2.375,0.576c-0.648,0.576-1.584,0.863-1.584,0.863
			s-2.592,4.681-3.744,6.984c-1.152,2.305-3.168,7.057-3.385,8.711c-0.216,1.656,3.672,2.231,4.969,0.938
			c1.296-1.297,0.359-3.24-0.648-3.24c-1.007,0-2.016-0.36-1.871-1.438c0.144-1.08,2.089-1.656,3.815-0.506
			c1.729,1.152,1.655,4.178,0.72,5.977c-0.936,1.801-5.399,3.889-7.344,0.504c0,0-0.217,4.537-0.36,5.473
			c-0.143,0.937-1.08,1.296-1.8,1.152c-0.721-0.145-1.296-2.664-1.296-3.672c0,0-1.009-2.521-3.815-2.16
			c-2.809,0.359-1.585,4.176-0.217,3.527c1.368-0.647,2.736-0.576,3.385-0.504c0.647,0.071,0.432,2.088,0,2.231
			c-0.433,0.146-4.177,1.296-5.832-0.432c-1.656-1.729-1.801-5.041,0.432-6.408c2.232-1.368,5.4,0.576,6.552,1.943
			c0,0,0.647-6.912,3.312-10.584c0,0-2.16-4.031-3.6-4.463c-1.439-0.433-0.936,2.735-0.288,3.383
			c0.647,0.648,1.163,0.958,1.738,1.029c0.576,0.072,1.193,0.318,1.142,0.987c-0.051,0.669-1.028,1.749-2.88,0.926
			c-1.851-0.822-3.446-2.57-3.085-5.503c0.359-2.932,3.702-3.137,4.885-2.417c1.184,0.72,3.138,2.931,3.549,3.908
			c0,0,2.828-6.12,3.6-9.154c0.772-3.034,0.516-3.6,0.516-3.6s-2.108-1.491-3.188-1.132c-1.08,0.36,0.205,1.902,0.566,2.264
			c0.358,0.359,1.489,0.925,1.489,1.542c0,0.617-0.719,1.543-1.901,1.028c-1.185-0.514-3.034-2.725-2.417-5.297
			c0.617-2.571,3.085-1.852,3.702-1.543c0.616,0.309,2.006,0.978,2.006,0.978s-1.285-10.595-5.297-14.04
			C43.275,38.634,42.607,37.417,43.533,36.954z"/>
		<path fill="#1D8F38" d="M33.381,71.825c0.144-1.151,2.376-0.287,3.312,0.071c0.936,0.36,1.871,0.722,1.799,1.44
			C38.42,74.056,36.98,76,36.117,75.713C35.252,75.426,33.236,72.978,33.381,71.825z"/>
		<path fill="#1D8F38" d="M40.447,56.839c0.512-0.576,1.389-0.051,2.057,0.566c0.669,0.617,2.365,2.674,2.16,3.96
			c-0.205,1.286-1.902,1.543-2.726,0.978C41.115,61.776,39.213,58.228,40.447,56.839z"/>
		<path fill="#1D8F38" d="M46.67,70.468c0.463-0.564,3.497-2.726,4.629-2.828c1.131-0.104,1.697,1.389,1.594,2.005
			c-0.103,0.617-4.423,2.007-5.399,1.853C46.516,71.343,46.207,71.034,46.67,70.468z"/>
		<path fill="#1D8F38" d="M27.484,100.615c0,0-0.871,1.02-2.023,0.299c-1.153-0.719-1.872-2.088-1.44-3.023
			c0.432-0.937,1.872-2.593,2.736-2.521c0.864,0.072,2.592,0.72,3.6,1.728c1.009,1.008,1.656,2.881,1.296,4.683
			c-0.359,1.798-2.447,2.591-2.447,2.591s2.664,1.871,4.68,3.744c2.016,1.871,5.615,7.485,6.768,8.062
			c1.153,0.576,3.528,0.648,3.528,0.648s-1.295-1.871-2.23-2.521c-0.937-0.647-2.305-2.305-2.305-2.664
			c0-0.358,1.801-1.225,1.801-1.225s2.879,4.104,3.814,4.824c0.937,0.72,3.815,1.942,5.04,2.305c1.225,0.359,2.88,0.863,2.88,0.863
			s-2.304-2.306-3.456-2.879c-1.151-0.576-4.319-1.873-5.184-2.953s-1.44-2.088-1.44-2.088l1.584-1.152c0,0,2.376,2.16,3.601,2.809
			c1.224,0.648,2.016,0.937,2.808,1.439s2.593,2.809,2.593,2.809s0.359-0.862-0.217-1.942c-0.575-1.08-1.151-2.16-0.936-2.953
			c0.215-0.791,1.943-3.312,1.943-3.312l1.584-0.143l-0.359,1.727c0,0,1.943-2.52,3.814-3.096c1.872-0.576,4.178,0.938,4.753,2.953
			c0.575,2.016-0.217,5.975-3.239,6.047c-3.024,0.072-5.186-2.879-5.186-2.879l1.151-0.504c0,0,2.449,1.008,4.248,0.215
			c1.801-0.791,0.217-3.816-0.791-3.816s-4.176,2.232-4.752,2.953l-0.289,1.729l0.865,3.527c0,0,2.016,2.088,4.104,3.385
			c2.088,1.295,3.601,2.088,4.248,2.375c0.648,0.289,1.584,0.071,1.871-0.072c0.289-0.143,1.584,0.721,1.729,1.369
			c0.145,0.646-1.439,2.375-1.872,2.52c-0.433,0.146-11.088-6.121-11.088-6.121s-4.248,0.146-5.112-0.286
			c-0.863-0.433-2.809-1.584-2.809-1.584s-2.304,0.647-3.814,0.647c-1.513,0-5.545-1.08-6.553-2.305
			c-1.008-1.226-2.447-4.32-2.447-4.32s-2.521-3.744-4.104-4.752s-3.384-2.16-3.672-2.52c-0.288-0.36-1.945-1.226-2.664-1.226
			c-0.721,0-2.305-0.646-2.305-1.438c0-0.79-0.359-2.159-1.369-2.809c-1.008-0.646-1.727-1.438-1.727-2.088
			c0-0.646,0.863-1.944,0.863-1.944l5.041,5.979c0,0,1.224,0.359,2.304,1.294c0,0,1.152,0.072,1.872-0.647
			c0.72-0.719,0.433-3.237-0.647-3.813s-2.088,0.646-1.584,0.936C27.045,99.762,27.484,100.615,27.484,100.615z"/>
		<path fill="#1D8F38" d="M19.196,103.218c-0.145-0.864-0.648-1.224-0.145-2.015c0.504-0.793,2.016-0.217,2.232,0.936
			c0.215,1.151-0.072,4.68-2.016,5.977c-1.945,1.295-3.529,0.287-4.105-0.793c-0.574-1.08,0.361-3.959,0.361-4.681
			c0-0.72,0.576-3.095-1.008-3.814s-1.801,0.289-1.729,1.225c0.072,0.937,1.225,1.008,1.584,2.375
			c0.359,1.368-0.863,2.231-1.873,2.952c-1.008,0.719-1.871,1.295-2.592,0.719c-0.719-0.576-0.143-1.366,0.576-2.016
			c0.721-0.648,1.584-0.937,1.584-1.655s-1.727-1.223-1.871-2.229c-0.145-1.011,1.223-3.241,2.879-3.817
			c1.656-0.576,3.961,1.008,4.248,2.089c0.289,1.08,0.504,2.879,0.217,4.606c-0.289,1.729-0.863,3.096,0.217,3.096
			C18.835,106.169,19.341,104.081,19.196,103.218z"/>
		<path fill="#1D8F38" d="M27.261,106.458c0,0-2.017-1.008-4.178-0.361c-2.158,0.648-0.996,2.285-0.215,2.736
			c1.871,1.08,4.464-0.146,5.112-0.719C28.629,107.538,27.261,106.458,27.261,106.458z"/>
		<path fill="#1D8F38" d="M31.725,110.345c0,0-3.527,0.072-4.68,0.793c-1.152,0.72-1.225,2.664-0.36,3.959
			c0.864,1.297,2.593,2.881,4.608,2.16c2.016-0.719,3.744-2.879,3.6-3.455s-1.08-1.225-1.872-0.576
			c-0.792,0.649-2.159,2.16-2.88,2.017c-0.721-0.145-1.8-1.513-1.296-2.447c0.504-0.938,2.304-0.793,2.88-1.225
			C32.301,111.138,32.732,110.345,31.725,110.345z"/>
		<path fill="#1D8F38" d="M58.725,100.986c0,0,1.297-1.226,2.017-1.439c0.721-0.217,1.873-0.504,2.377-1.08
			s-0.289-2.665-1.297-3.023c-1.008-0.361-2.809,0-2.231,1.15c0.575,1.152,1.512,2.232,1.079,2.377
			c-0.432,0.146-1.279,0.297-1.728,0.215c-0.792-0.143-1.225-1.584-1.225-3.814c0-2.232,2.664-2.953,3.023-2.736
			c0.359,0.216,3.961,1.512,4.176,4.824c0,0,1.152,1.872,1.729,2.448c0,0,0.217,2.016,0.721,2.446
			c0.504,0.434,1.942,1.225,2.52-0.069c0.576-1.297-0.36-2.16-0.36-2.16s1.586-0.576,2.448,0.143
			c0.863,0.722-0.721,4.751-2.809,4.896c-2.088,0.145-4.031-1.512-4.319-2.878c-0.288-1.369-0.72-2.881-0.72-2.881
			s-1.297,1.297-2.305,2.231c-1.008,0.936-1.584,1.223-2.231,0.936C58.94,102.283,58.725,100.986,58.725,100.986z"/>
		<path fill="#1D8F38" d="M66.429,95.442c0,0,0.071-2.232,1.225-2.232c1.152,0,2.52,1.224,2.088,1.943
			c-0.433,0.721-0.791,1.655-0.791,1.655s2.16,0,3.813,0.218c1.656,0.215,3.816,0.937,3.744,2.158
			c-0.071,1.226-0.862,1.656-1.512,1.08s-2.664-1.799-3.6-1.727c-0.937,0.072-0.218,0.576-1.439,0.719
			c-1.225,0.146-2.018,0.289-2.377-0.215s0.289-1.152-0.287-1.441C66.132,97.021,66.429,95.442,66.429,95.442z"/>
		<path fill="#1D8F38" d="M60.812,103.794c0,0,1.008-0.432,2.663,0.072c1.656,0.504,2.736,1.295,1.943,2.016
			c-0.791,0.719-2.879-0.361-3.383-0.432C61.533,105.378,60.812,103.794,60.812,103.794z"/>
	</g>
	<path fill="#D90000" d="M57.021,96.596c0-0.475-0.046-0.925-0.104-1.336c-0.182-1.254-0.996-2.976-2.738-4.044
		c-1.02-0.624-2.689-1.165-5.012-0.643c-1.175-3.128-3.049-5.143-5.203-5.344c-3.366-0.313-5.037,1.692-6.633,5.223
		c-0.156,0.023-0.334,0.053-0.334,0.053l-2.996,0.524c-1.518,0.343-2.76,1.524-3.243,3.087c-0.146,0.475-0.218,0.96-0.218,1.444
		c0,1.306,0.519,2.604,1.497,3.657c0.876,0.943,1.66,1.588,2.366,1.996c-0.48,1.462-0.865,2.905-0.865,4.081
		c0,0.105,0.002,0.211,0.01,0.312c0.191,3.024,2.213,5.291,5.029,5.637c1.765,0.217,3.806-0.447,6.057-1.908
		c4.062,2.729,7.054,1.768,8.505,0.883c1.036-0.633,1.837-1.969,2.088-3.485c0.06-0.353,0.088-0.705,0.088-1.06
		c0-1.305-0.5-2.58-1.252-3.782C56.379,100.193,57.021,98.25,57.021,96.596z M52.071,100.65l-1.128,0.653l0.836,1.002
		c1.416,1.698,1.408,3.276,1.276,4.067c-0.166,1.008-0.668,1.725-1.062,1.967c-1.288,0.785-3.494,1.217-6.689-1.188l-0.641-0.482
		l-0.655,0.463c-2.052,1.447-3.789,2.096-5.163,1.928c-1.759-0.215-2.977-1.625-3.102-3.592c-0.07-1.094,0.531-2.979,1.063-4.501
		l0.456-1.307l-1.375-0.15c-0.247-0.026-1.074-0.537-2.239-1.791c-0.812-0.874-1.099-1.951-0.789-2.954
		c0.255-0.823,0.862-1.419,1.625-1.591l2.853-0.497l1.503-0.236l0.237-0.559c1.887-4.395,3.027-4.617,4.682-4.463
		c1.076,0.101,2.689,1.41,3.693,4.771l0.326,1.094l1.082-0.367c1.655-0.564,3.059-0.506,4.168,0.174
		c1.024,0.629,1.598,1.699,1.711,2.482C54.984,97.265,54.828,99.051,52.071,100.65z"/>
	<path fill="#D90000" d="M50.815,95.54c-0.772-1.188-2.493-1.486-3.548-1.583c-0.499-0.844-1.402-2.129-2.648-2.466l-0.229-3.08
		l-2.194,0.164l0.255,3.41c-0.804,0.643-1.333,1.67-1.642,2.388c-0.789,0.176-1.947,0.523-2.729,1.246l-2.59-1.063l-0.836,2.035
		l2.629,1.081c0.145,1.25,1.197,2.334,1.918,2.969c-0.023,0.261-0.042,0.556-0.042,0.875c0,0.629,0.077,1.331,0.323,1.95
		l-1.91,2.402l1.721,1.369l1.797-2.256c1.265,0.344,2.722-0.359,3.588-0.871c0.736,0.313,1.855,0.692,2.893,0.59l1.607,2.252
		l1.79-1.279l-1.521-2.127c0.315-0.543,0.434-1.189,0.434-1.827c0-0.67-0.11-1.256-0.222-1.742c0.472-0.534,1.099-1.344,1.386-2.239
		l2.288-0.043l-0.041-2.199L50.815,95.54z M44.519,101.617l-0.511,0.326c-1.848,1.177-2.364,0.915-2.369,0.91
		c-0.004-0.002-0.462-0.355-0.189-2.529l0.076-0.603l-0.469-0.385c-1.69-1.393-1.602-1.965-1.6-1.971
		c0.001-0.005,0.197-0.551,2.349-0.963L42.4,96.29l0.222-0.563c0.802-2.038,1.374-2.131,1.38-2.131s0.584,0.019,1.642,1.938
		l0.293,0.529L46.54,96.1c2.187,0.134,2.451,0.648,2.454,0.653c0.002,0.005,0.162,0.562-1.336,2.159l-0.414,0.442l0.152,0.587
		c0.549,2.12,0.141,2.53,0.137,2.534s-0.483,0.327-2.467-0.602L44.519,101.617z"/>
	<path fill="#D90000" d="M60.693,78.933c-2.263,0-4.102,1.826-4.102,4.07s1.839,4.07,4.102,4.07c2.26,0,4.1-1.826,4.1-4.07
		S62.953,78.933,60.693,78.933z M60.693,84.873c-1.05,0-1.9-0.839-1.9-1.87s0.853-1.869,1.9-1.869c1.047,0,1.898,0.838,1.898,1.869
		S61.74,84.873,60.693,84.873z"/>
	<path fill="#D90000" d="M23.312,84.153c-2.26,0-4.1,1.893-4.1,4.22s1.84,4.221,4.1,4.221c2.262,0,4.101-1.894,4.101-4.221
		S25.573,84.153,23.312,84.153z M23.312,90.394c-1.047,0-1.9-0.905-1.9-2.021c0-1.113,0.854-2.021,1.9-2.021
		c1.049,0,1.901,0.906,1.901,2.021S24.36,90.394,23.312,90.394z"/>
	<path fill="#D90000" d="M54.955,103.12c0,0,0.938-0.412,1.703-0.529c0.763-0.116,1.584-0.997,1.584-0.997l0.938,2.936
		c0,0-1.35,0.938-1.761,1.76c-0.411,0.822-0.938,1.938-0.938,1.938l-1.646,0.529C54.838,108.755,55.953,105.526,54.955,103.12z"/>
</g>
</svg>
