<?xml version="1.0" encoding="utf-8"?>
<!-- Generator: Adobe Illustrator 12.0.0, SVG Export Plug-In . SVG Version: 6.00 Build 51448)  -->
<!DOCTYPE svg PUBLIC "-//W3C//DTD SVG 1.1//EN" "http://www.w3.org/Graphics/SVG/1.1/DTD/svg11.dtd" [
	<!ENTITY ns_flows "http://ns.adobe.com/Flows/1.0/">
	<!ENTITY ns_extend "http://ns.adobe.com/Extensibility/1.0/">
	<!ENTITY ns_ai "http://ns.adobe.com/AdobeIllustrator/10.0/">
	<!ENTITY ns_graphs "http://ns.adobe.com/Graphs/1.0/">
	<!ENTITY ns_vars "http://ns.adobe.com/Variables/1.0/">
	<!ENTITY ns_imrep "http://ns.adobe.com/ImageReplacement/1.0/">
	<!ENTITY ns_sfw "http://ns.adobe.com/SaveForWeb/1.0/">
	<!ENTITY ns_custom "http://ns.adobe.com/GenericCustomNamespace/1.0/">
	<!ENTITY ns_adobe_xpath "http://ns.adobe.com/XPath/1.0/">
	<!ENTITY ns_svg "http://www.w3.org/2000/svg">
	<!ENTITY ns_xlink "http://www.w3.org/1999/xlink">
]>
<svg  version="1.1"
	 xmlns:x="&ns_extend;" xmlns:i="&ns_ai;" xmlns:graph="&ns_graphs;" i:viewOrigin="-0.3193 135.7061" i:rulerOrigin="0 0" i:pageBounds="0 136 85 0"
	 xmlns="&ns_svg;" xmlns:xlink="&ns_xlink;" xmlns:a="http://ns.adobe.com/AdobeSVGViewerExtensions/3.0/"
	 width="85.678" height="136.025" viewBox="0 0 85.678 136.025" overflow="visible" enable-background="new 0 0 85.678 136.025"
	 xml:space="preserve">
<metadata>
	<variableSets  xmlns="http://ns.adobe.com/Variables/1.0/">
		<variableSet  varSetName="binding1" locked="none">
			<variables></variables>
			<v:sampleDataSets  xmlns:v="http://ns.adobe.com/Variables/1.0/" xmlns="http://ns.adobe.com/GenericCustomNamespace/1.0/">
				</v:sampleDataSets>
		</variableSet>
	</variableSets>
</metadata>
<g id="图层_1" i:knockout="Off" i:layer="yes" i:dimmedPercent="50" i:rgbTrio="#4F008000FFFF">
	<g>
		<path fill="#333333" d="M83.403,37.587V12.625c0-5.149-3.352-9.325-7.481-9.325H7.804c-4.133,0-7.484,4.175-7.484,9.325h0.002
			v115.211c0,4.344,3.351,7.869,7.482,7.869h68.118c4.131,0,7.481-3.525,7.481-7.869h0.002V37.608
			C83.405,37.601,83.403,37.594,83.403,37.587z"/>
		
			<linearGradient id="XMLID_3_" gradientUnits="userSpaceOnUse" x1="-23.3101" y1="112.9883" x2="-23.3101" y2="-12.5781" gradientTransform="matrix(-1 0 0 -1 20.5059 114.334)">
			<stop  offset="0.0899" style="stop-color:#2089B9"/>
			<stop  offset="0.0985" style="stop-color:#4FA3C2"/>
			<stop  offset="0.1071" style="stop-color:#77B9CA"/>
			<stop  offset="0.1138" style="stop-color:#8FC7CF"/>
			<stop  offset="0.118" style="stop-color:#98CCD1"/>
			<stop  offset="0.1341" style="stop-color:#9ECFD3"/>
			<stop  offset="0.156" style="stop-color:#AFD6D9"/>
			<stop  offset="0.1809" style="stop-color:#CBE1E3"/>
			<stop  offset="0.1966" style="stop-color:#E1EAEB"/>
			<a:midPointStop  offset="0.0899" style="stop-color:#2089B9"/>
			<a:midPointStop  offset="0.4" style="stop-color:#2089B9"/>
			<a:midPointStop  offset="0.118" style="stop-color:#98CCD1"/>
			<a:midPointStop  offset="0.6429" style="stop-color:#98CCD1"/>
			<a:midPointStop  offset="0.1966" style="stop-color:#E1EAEB"/>
		</linearGradient>
		<path fill="url(#XMLID_3_)" d="M2.273,10.671c0-5.15,3.351-9.325,7.481-9.325h68.12c4.131,0,7.482,4.176,7.482,9.325v106.916
			c0,5.148-3.353,9.326-7.482,9.326H9.757c-4.132,0-7.483-4.176-7.483-9.326V10.671L2.273,10.671z"/>
		<path fill="none" stroke="#333333" stroke-width="0.977" d="M2.273,10.671c0-5.15,3.351-9.325,7.481-9.325h68.12
			c4.131,0,7.482,4.176,7.482,9.325v106.916c0,5.148-3.353,9.326-7.482,9.326H9.757c-4.132,0-7.483-4.176-7.483-9.326V10.671
			L2.273,10.671z"/>
		<path fill="#FFFFFF" d="M85.357,125.882c0,4.344-3.353,7.869-7.482,7.869H9.757c-4.132,0-7.483-3.523-7.483-7.869V35.654
			c0-4.347,3.352-7.87,7.483-7.87h68.119c4.131,0,7.482,3.523,7.482,7.87L85.357,125.882L85.357,125.882z"/>
		
			<linearGradient id="XMLID_4_" gradientUnits="userSpaceOnUse" x1="3.3818" y1="80.7676" x2="85.5273" y2="80.7676" gradientTransform="matrix(1 0 0 1 -0.6387 0)">
			<stop  offset="0" style="stop-color:#A2D8E0"/>
			<stop  offset="0.0899" style="stop-color:#1878AD"/>
			<stop  offset="0.2135" style="stop-color:#194D91"/>
			<stop  offset="0.6404" style="stop-color:#2B90BD"/>
			<stop  offset="0.9438" style="stop-color:#82CBDE"/>
			<stop  offset="1" style="stop-color:#1A478D"/>
			<a:midPointStop  offset="0" style="stop-color:#A2D8E0"/>
			<a:midPointStop  offset="0.5" style="stop-color:#A2D8E0"/>
			<a:midPointStop  offset="0.0899" style="stop-color:#1878AD"/>
			<a:midPointStop  offset="0.5" style="stop-color:#1878AD"/>
			<a:midPointStop  offset="0.2135" style="stop-color:#194D91"/>
			<a:midPointStop  offset="0.5" style="stop-color:#194D91"/>
			<a:midPointStop  offset="0.6404" style="stop-color:#2B90BD"/>
			<a:midPointStop  offset="0.5" style="stop-color:#2B90BD"/>
			<a:midPointStop  offset="0.9438" style="stop-color:#82CBDE"/>
			<a:midPointStop  offset="0.5" style="stop-color:#82CBDE"/>
			<a:midPointStop  offset="1" style="stop-color:#1A478D"/>
		</linearGradient>
		<path i:isolated="yes" i:knockout="Off" opacity="0.1" fill="url(#XMLID_4_)" enable-background="new    " d="M84.888,125.882
			c0,4.344-3.314,7.869-7.398,7.869H10.144c-4.086,0-7.4-3.523-7.4-7.869V35.654c0-4.347,3.314-7.87,7.4-7.87H77.49
			c4.084,0,7.398,3.523,7.398,7.87L84.888,125.882L84.888,125.882z"/>
		<path fill="none" stroke="#4D4D4D" stroke-width="0.977" d="M85.357,35.633V10.671c0-5.149-3.352-9.325-7.482-9.325H9.755
			c-4.131,0-7.481,4.175-7.481,9.325v115.21c0,4.346,3.352,7.869,7.483,7.869h68.118c4.13,0,7.482-3.525,7.482-7.869l0.001-90.228
			C85.358,35.647,85.357,35.64,85.357,35.633z"/>
	</g>
	<g i:knockout="Off">
		<path fill="#35A034" d="M48.169,43.625c0.959-3,2.16-3.48,3.48-2.521c1.318,0.959-2.281,6-2.643,14.521
			c-0.357,8.52,0.723,16.92,1.562,19.08s1.68,6.6,1.318,8.16c-0.359,1.56-1.682,2.159-2.398,1.919
			c-0.723-0.239-1.92-1.562-1.92-3.12c0-1.562,1.08-5.279,0.119-7.68c-0.959-2.4-1.488-8.568-1.488-11.447
			c0-2.881-0.312-10.873,0.289-13.752C47.089,45.904,47.208,46.625,48.169,43.625z"/>
		<path fill="#35A034" d="M49.562,53.752c0,0,2.732-2.951,4.463-3.815c1.729-0.864,3.096-1.368,2.881-0.071
			c-0.217,1.295-2.307,1.655-3.025,3.023c-0.719,1.367-2.303,4.968-3.311,4.968S49.128,56.345,49.562,53.752z"/>
		<path fill="#35A034" d="M39.192,53.537c1.512,0.936,3.672,1.943,5.545,4.392c1.871,2.448,0.357,4.823-1.08,5.472
			c-1.439,0.649-2.52-1.943-2.52-3.168c0-1.224,0.359-3.023-1.152-3.6c-1.511-0.577-2.52-1.44-2.449-2.088
			C37.608,53.896,37.681,52.601,39.192,53.537z"/>
		<path fill="#35A034" d="M50.208,70.097c0,0,0.217-2.017,0.072-3.168c-0.145-1.152,1.801-3.96,3.814-4.032
			c2.017-0.072,6.191-0.288,6.191-0.288s-3.814,1.44-4.391,2.736C55.319,66.641,52.802,70.529,50.208,70.097z"/>
		<path fill="#35A034" d="M36.169,67.217c0,0,3.6,0.648,5.688,2.232c2.088,1.584,3.744,1.512,4.609,2.375
			c0.863,0.862,0.938,3.889,0.938,5.185s-1.227,2.81-1.945,2.376c-0.719-0.432-1.871-1.656-2.52-2.23
			c-0.649-0.576-1.08-3.744-2.232-5.258c-1.15-1.512-3.959-3.096-5.111-3.24C34.44,68.513,35.017,67.217,36.169,67.217z"/>
		<path fill="#35A034" d="M52.513,82.121c0,0-0.504-2.592,0.219-4.177c0.719-1.584,2.592-1.655,5.109-2.448
			c2.521-0.791,3.891-1.729,5.76-1.151C65.474,74.92,65.329,76,64.249,76s-2.953-0.359-3.889,1.297
			c-0.938,1.656-3.744,3.6-5.473,4.392C53.161,82.479,52.513,82.121,52.513,82.121z"/>
		<path fill="#35A034" d="M57.192,92.2c0,0,0.289-4.752,1.439-6.912c1.15-2.159,3.742-2.376,5.615-1.729
			c1.871,0.648,3.168,0.288,4.607,0.648c1.438,0.359,2.592,2.088,1.297,2.088c-1.297,0-3.168-0.792-4.682-0.792
			s-2.447,0.144-2.594,1.296c-0.143,1.151-0.504,3.096-1.727,3.527c-1.227,0.433-2.307,1.297-2.307,1.942
			C58.849,92.921,57.554,92.849,57.192,92.2z"/>
		<path fill="#35A034" d="M24.528,75.785c0,0,2.281-1.201,4.801,0.239c2.52,1.438,5.4,2.521,5.52,4.56
			c0.121,2.041,0.48,2.881,0.6,4.801c0.121,1.92-1.559,1.92-2.16,1.562c-0.6-0.359,0.121-1.92-0.959-2.04s-2.76-1.439-3.121-3.359
			c-0.359-1.92-0.359-3.12-2.039-3.601C25.489,77.465,23.089,76.865,24.528,75.785z"/>
		<path fill="#35A034" d="M12.169,101.704c0,0,0.359-1.68,5.881-1.439c5.52,0.24,8.52,3.24,9.238,5.4c0.721,2.159,0.84,6,1.32,7.079
			c0,0,1.08-0.84,1.08-2.399c0-1.561,1.801-3.96,1.801-3.96l2.279,0.84c0,0-1.68,5.04-1.32,5.642
			c0.361,0.601-1.107,3.508-1.947,4.707c0,0,0.984-0.226,1.584-0.942c0.6-0.721,2.645-2.444,5.043-4.244
			c2.4-1.8,3.961-2.76,3.961-2.76l2.039,2.04c0,0-2.039,1.079-3.119,1.92c-1.08,0.84,1.68,0.239,3.24-0.721
			c1.56-0.96,5.279-3.359,6.959-3.359c1.682,0,4.201-0.36,5.16-1.2c0.961-0.84,1.682-2.16,4.201-1.561
			c2.52,0.601,7.92,3.358,10.08,4.2c2.158,0.84,4.799,2.641,5.398,3.84c0.602,1.2-0.24,1.561-0.961,1.561s-4.199-3.12-6-3.96
			s-3.24-1.318-4.561-1.08c-1.321,0.24-3.84,1.08-5.641,0.84c-1.801-0.238-3.238-0.72-4.318-0.72s-1.201,1.92-3.24,2.04
			c-2.041,0.12-2.521,0.12-2.521,0.12s-1.801,0.96-3.119,0.72c-1.32-0.238-2.879,1.2-2.879,1.2s2.76-0.84,5.76,0.12
			s5.848,3.288,7.287,4.008s2.07,3.912,0.752,4.032c-1.32,0.119-2.88-3.48-4.32-3.961c-1.439-0.479-2.16-0.96-4.08-0.359
			c-1.92,0.602-3,0.84-4.318,0.24c-1.32-0.601-2.521-1.561-4.682-1.561c-2.158,0-3.84,0.72-5.279,2.398s-1.199,2.04-1.08,2.642
			c0.121,0.601,1.801,2.398,1.561,3.358c-0.24,0.96-1.439,0.96-2.041,0.24c-0.6-0.721-0.959-0.603-1.68-0.12
			c-0.719,0.479-2.879,0.479-3.959,0.239c-1.08-0.239-2.881-0.239-2.881-0.239s0.961-1.44,1.561-2.521
			c0.6-1.081,1.68-3.24,1.68-5.04c0-1.802,0-3.602,0-4.682s-0.961-3.96-1.801-4.561c-0.84-0.602-4.199-2.642-4.318-4.439
			c-0.121-1.8-0.602-2.88-2.041-2.88s-4.92,0-4.92,0L12.169,101.704z"/>
	</g>
	<g i:knockout="Off">
		<path fill="#D90000" d="M61.188,97.017c-1.011-2.478-3.216-3.425-4.511-3.776c0.047-1.402-0.34-3.105-1.248-4.188
			c-0.693-0.828-1.609-1.222-2.648-1.163c-0.359-1.739-1.197-3.586-1.24-3.679l-1.818,0.832c0.248,0.541,0.814,1.947,1.079,3.162
			c-0.731-1.729-2.146-4.354-4.028-4.464c-0.881-0.054-6.757,0.222-8.3,2.313c-1.577-0.244-2.931,0.021-4.027,0.803
			c-1.482,1.057-2.054,2.771-2.267,3.76c-0.494,0.07-1.013,0.17-1.608,0.316c-2.587,0.646-4.552,2.068-5.256,3.806
			c-0.364,0.897-0.573,2.338,0.507,4.077c1.669,2.688,5.058,3.909,6.74,4.367c-0.1,0.829-0.094,1.998,0.482,2.993
			c0.471,0.813,1.248,1.364,2.247,1.598c2.112,0.485,3.712,0.35,4.575,0.195c1.104,1.313,2.303,2.022,3.646,2.159
			c1.557,0.158,3.166-0.475,4.908-1.914c0.078,0.034,0.154,0.073,0.234,0.099c0.98,0.308,2.884,0.661,4.596-0.398
			c1.195-0.741,2.015-2.011,2.445-3.771c1.247-0.06,2.52-0.562,3.621-1.506C61.159,101.057,61.911,98.798,61.188,97.017z
			 M54.59,93.888c-0.062,0.241-0.2,0.405-0.44,0.532c-0.634,0.334-1.789,0.297-2.896-0.08c-0.238-0.252-0.685-1.166-0.958-1.729
			c-0.21-0.433-0.404-0.827-0.597-1.184c0.602-0.562,1.73-1.428,3.146-1.551c0.433-0.037,0.755,0.104,1.056,0.459
			C54.657,91.243,54.815,93.045,54.59,93.888z M45.313,101.323c-0.367-0.041-2.434-0.825-4.141-1.556
			c-0.162-0.127-1.224-0.965-1.677-1.321c-0.096-1.052-0.163-2.181-0.163-3.036c0-0.619,0.032-1.094,0.104-1.285
			c0.228-0.316,1.851-1.31,3.503-2.126c0.364-0.016,4.175-0.182,4.626-0.202c0.252,0.314,0.664,1.15,0.928,1.689
			c0.541,1.112,0.945,1.875,1.418,2.322c0.026,0.252,0.053,0.592,0.053,0.984c0,0.381-0.023,0.797-0.104,1.18
			c-0.129,0.629-0.504,1.198-0.686,1.445C47.634,100.301,45.761,101.253,45.313,101.323z M40.094,87.158
			c-0.001,0.012,0.005,0.027,0.005,0.041c0.488-0.759,4.551-1.58,6.553-1.462c0.566,0.031,1.676,1.696,2.44,3.591
			c-0.276,0.207-0.507,0.404-0.708,0.59c-0.172-0.078-0.354-0.132-0.557-0.132L42.42,90.02l-0.177,0.092
			c-0.134,0.062-0.283,0.141-0.432,0.215c-0.828-1.021-1.727-2.406-1.713-3.125c-0.006,0.009-0.016,0.017-0.021,0.023
			C40.081,87.218,40.092,87.192,40.094,87.158z M35.61,88.479c0.662-0.469,1.547-0.598,2.611-0.426
			c0.31,1.166,1.139,2.396,1.799,3.24c-0.653,0.386-1.271,0.799-1.729,1.201c-1.648-1.117-2.839-1.711-4.046-1.899
			C34.446,89.916,34.837,89.026,35.61,88.479z M34.046,91.536v0.004V91.536z M27.517,97.762c-0.519-0.834-0.634-1.578-0.353-2.271
			c0.45-1.11,1.976-2.139,3.888-2.613c2.586-0.646,3.403-0.615,6.344,1.42c-0.129,1.187-0.027,2.895,0.09,4.188l-3.986,2.876
			C32.347,101.084,28.966,100.097,27.517,97.762z M35.737,105.825c-0.465-0.106-0.772-0.313-0.967-0.648
			c-0.447-0.772-0.211-2.062-0.092-2.454l3.806-2.526l1.044,0.822c-0.566,1.121-1.343,3.163-0.76,5.073
			C38.038,106.142,37.001,106.117,35.737,105.825z M43.71,108.141c-0.932-0.094-1.811-0.726-2.686-1.93
			c-0.947-1.303-0.244-3.205,0.26-4.227c1.205,0.497,2.631,1.043,3.518,1.247c0.371,0.911,1.096,2.497,2.047,3.679
			C45.674,107.812,44.62,108.234,43.71,108.141z M52.192,106.216c-1.074,0.666-2.417,0.354-2.945,0.19
			c-0.663-0.208-1.684-1.846-2.418-3.521c0.889-0.38,1.977-0.956,2.975-1.519l3.184,2.121c0.229,0.138,0.469,0.252,0.711,0.347
			C53.39,104.973,52.892,105.781,52.192,106.216z M58.013,101.12c-1.014,0.868-2.585,1.503-3.957,0.679
			c0.027,0.02-1.737-1.16-2.824-1.885c0.23-0.418,0.47-0.945,0.592-1.539c0.105-0.529,0.144-1.086,0.144-1.587
			c0-0.075-0.002-0.147-0.003-0.22c1.186,0.18,2.291,0.058,3.119-0.381c0.471-0.247,0.831-0.6,1.094-1.019
			c0.91,0.248,2.471,0.907,3.158,2.6C59.729,98.738,59.185,100.115,58.013,101.12z"/>
		<g i:knockout="Off">
			<circle fill="#D90000" cx="41.881" cy="95.801" r="1.683"/>
			<circle fill="#D90000" cx="44.259" cy="98.594" r="1.683"/>
			<circle fill="#D90000" cx="45.169" cy="93.878" r="1.683"/>
			<circle fill="#D90000" cx="47.609" cy="96.649" r="1.683"/>
		</g>
	</g>
	<g i:knockout="Off">
		<path fill="#D90000" d="M25.684,61.571c0,0.859,0.477,1.432,1.432,1.719c0.668,0.096,1.002,0.381,1.002,0.858
			c0.096,0.669-0.477,1.003-1.719,1.003H19.67c-1.242,0-1.814-0.334-1.719-1.003c0-0.478,0.334-0.763,1.002-0.858
			c0.859-0.287,1.289-0.859,1.289-1.719v-3.437h-9.164C9.646,58.23,8.977,57.8,9.073,56.845c1.622-6.587,5.489-12.791,11.599-18.614
			c0.668-0.668,1.527-0.955,2.577-0.859c1.718-0.096,2.529,0.812,2.435,2.721v15.465h2.863c1.146,0,1.719,0.43,1.719,1.288
			c0,0.955-0.525,1.385-1.576,1.289h-3.006V61.571z M20.242,41.812c-3.914,4.773-6.635,9.355-8.162,13.746h8.162V41.812z"/>
	</g>
</g>
</svg>
