<?xml version="1.0" encoding="utf-8"?>
<!-- Generator: Adobe Illustrator 12.0.0, SVG Export Plug-In . SVG Version: 6.00 Build 51448)  -->
<!DOCTYPE svg PUBLIC "-//W3C//DTD SVG 1.1//EN" "http://www.w3.org/Graphics/SVG/1.1/DTD/svg11.dtd" [
	<!ENTITY ns_flows "http://ns.adobe.com/Flows/1.0/">
	<!ENTITY ns_extend "http://ns.adobe.com/Extensibility/1.0/">
	<!ENTITY ns_ai "http://ns.adobe.com/AdobeIllustrator/10.0/">
	<!ENTITY ns_graphs "http://ns.adobe.com/Graphs/1.0/">
	<!ENTITY ns_vars "http://ns.adobe.com/Variables/1.0/">
	<!ENTITY ns_imrep "http://ns.adobe.com/ImageReplacement/1.0/">
	<!ENTITY ns_sfw "http://ns.adobe.com/SaveForWeb/1.0/">
	<!ENTITY ns_custom "http://ns.adobe.com/GenericCustomNamespace/1.0/">
	<!ENTITY ns_adobe_xpath "http://ns.adobe.com/XPath/1.0/">
	<!ENTITY ns_svg "http://www.w3.org/2000/svg">
	<!ENTITY ns_xlink "http://www.w3.org/1999/xlink">
]>
<svg  version="1.1"
	 xmlns:x="&ns_extend;" xmlns:i="&ns_ai;" xmlns:graph="&ns_graphs;" i:viewOrigin="-0.3193 135.7061" i:rulerOrigin="0 0" i:pageBounds="0 136 85 0"
	 xmlns="&ns_svg;" xmlns:xlink="&ns_xlink;" xmlns:a="http://ns.adobe.com/AdobeSVGViewerExtensions/3.0/"
	 width="85.678" height="136.025" viewBox="0 0 85.678 136.025" overflow="visible" enable-background="new 0 0 85.678 136.025"
	 xml:space="preserve">
<metadata>
	<variableSets  xmlns="http://ns.adobe.com/Variables/1.0/">
		<variableSet  varSetName="binding1" locked="none">
			<variables></variables>
			<v:sampleDataSets  xmlns:v="http://ns.adobe.com/Variables/1.0/" xmlns="http://ns.adobe.com/GenericCustomNamespace/1.0/">
				</v:sampleDataSets>
		</variableSet>
	</variableSets>
</metadata>
<g id="图层_1" i:knockout="Off" i:layer="yes" i:dimmedPercent="50" i:rgbTrio="#4F008000FFFF">
	<g>
		<path fill="#333333" d="M83.403,37.587V12.625c0-5.149-3.352-9.325-7.481-9.325H7.804c-4.133,0-7.484,4.175-7.484,9.325h0.002
			v115.211c0,4.344,3.351,7.869,7.482,7.869h68.118c4.131,0,7.481-3.525,7.481-7.869h0.002V37.608
			C83.405,37.601,83.403,37.594,83.403,37.587z"/>
		
			<linearGradient id="XMLID_3_" gradientUnits="userSpaceOnUse" x1="-23.3101" y1="112.9883" x2="-23.3101" y2="-12.5781" gradientTransform="matrix(-1 0 0 -1 20.5059 114.334)">
			<stop  offset="0.0899" style="stop-color:#2089B9"/>
			<stop  offset="0.0985" style="stop-color:#4FA3C2"/>
			<stop  offset="0.1071" style="stop-color:#77B9CA"/>
			<stop  offset="0.1138" style="stop-color:#8FC7CF"/>
			<stop  offset="0.118" style="stop-color:#98CCD1"/>
			<stop  offset="0.1341" style="stop-color:#9ECFD3"/>
			<stop  offset="0.156" style="stop-color:#AFD6D9"/>
			<stop  offset="0.1809" style="stop-color:#CBE1E3"/>
			<stop  offset="0.1966" style="stop-color:#E1EAEB"/>
			<a:midPointStop  offset="0.0899" style="stop-color:#2089B9"/>
			<a:midPointStop  offset="0.4" style="stop-color:#2089B9"/>
			<a:midPointStop  offset="0.118" style="stop-color:#98CCD1"/>
			<a:midPointStop  offset="0.6429" style="stop-color:#98CCD1"/>
			<a:midPointStop  offset="0.1966" style="stop-color:#E1EAEB"/>
		</linearGradient>
		<path fill="url(#XMLID_3_)" d="M2.273,10.671c0-5.15,3.351-9.325,7.481-9.325h68.12c4.131,0,7.482,4.176,7.482,9.325v106.916
			c0,5.148-3.353,9.326-7.482,9.326H9.757c-4.132,0-7.483-4.176-7.483-9.326V10.671L2.273,10.671z"/>
		<path fill="none" stroke="#333333" stroke-width="0.977" d="M2.273,10.671c0-5.15,3.351-9.325,7.481-9.325h68.12
			c4.131,0,7.482,4.176,7.482,9.325v106.916c0,5.148-3.353,9.326-7.482,9.326H9.757c-4.132,0-7.483-4.176-7.483-9.326V10.671
			L2.273,10.671z"/>
		<path fill="#FFFFFF" d="M85.357,125.882c0,4.344-3.353,7.869-7.482,7.869H9.757c-4.132,0-7.483-3.523-7.483-7.869V35.654
			c0-4.347,3.352-7.87,7.483-7.87h68.119c4.131,0,7.482,3.523,7.482,7.87L85.357,125.882L85.357,125.882z"/>
		
			<linearGradient id="XMLID_4_" gradientUnits="userSpaceOnUse" x1="3.3818" y1="80.7676" x2="85.5273" y2="80.7676" gradientTransform="matrix(1 0 0 1 -0.6387 0)">
			<stop  offset="0" style="stop-color:#A2D8E0"/>
			<stop  offset="0.0899" style="stop-color:#1878AD"/>
			<stop  offset="0.2135" style="stop-color:#194D91"/>
			<stop  offset="0.6404" style="stop-color:#2B90BD"/>
			<stop  offset="0.9438" style="stop-color:#82CBDE"/>
			<stop  offset="1" style="stop-color:#1A478D"/>
			<a:midPointStop  offset="0" style="stop-color:#A2D8E0"/>
			<a:midPointStop  offset="0.5" style="stop-color:#A2D8E0"/>
			<a:midPointStop  offset="0.0899" style="stop-color:#1878AD"/>
			<a:midPointStop  offset="0.5" style="stop-color:#1878AD"/>
			<a:midPointStop  offset="0.2135" style="stop-color:#194D91"/>
			<a:midPointStop  offset="0.5" style="stop-color:#194D91"/>
			<a:midPointStop  offset="0.6404" style="stop-color:#2B90BD"/>
			<a:midPointStop  offset="0.5" style="stop-color:#2B90BD"/>
			<a:midPointStop  offset="0.9438" style="stop-color:#82CBDE"/>
			<a:midPointStop  offset="0.5" style="stop-color:#82CBDE"/>
			<a:midPointStop  offset="1" style="stop-color:#1A478D"/>
		</linearGradient>
		<path i:isolated="yes" i:knockout="Off" opacity="0.1" fill="url(#XMLID_4_)" enable-background="new    " d="M84.888,125.882
			c0,4.344-3.314,7.869-7.398,7.869H10.144c-4.086,0-7.4-3.523-7.4-7.869V35.654c0-4.347,3.314-7.87,7.4-7.87H77.49
			c4.084,0,7.398,3.523,7.398,7.87L84.888,125.882L84.888,125.882z"/>
		<path fill="none" stroke="#4D4D4D" stroke-width="0.977" d="M85.357,35.633V10.671c0-5.149-3.352-9.325-7.482-9.325H9.755
			c-4.131,0-7.481,4.175-7.481,9.325v115.21c0,4.346,3.352,7.869,7.483,7.869h68.118c4.13,0,7.482-3.525,7.482-7.869l0.001-90.228
			C85.358,35.647,85.357,35.64,85.357,35.633z"/>
	</g>
	<g i:knockout="Off">
		<g i:knockout="Off">
			<path fill="#333333" d="M24.015,57.868c0.689,0.275,1.24,0.414,1.654,0.414c1.379,0,3.377-0.069,5.998-0.207
				c2.619-0.138,4.617-0.207,5.996-0.207c8.132,0,14.06,0,17.783,0c4.137,0,6.756,0.069,7.856,0.207c0.14,0,0.482,0,1.035,0
				c1.654,0.138,2.688,0.138,3.103,0c1.239,0.138,1.104,1.379-0.414,3.723c-2.068,3.445-4.824,4.411-8.271,2.895
				c-3.033-1.24-6.549-1.999-10.545-2.275c-2.068-0.275-4.412-0.413-7.031-0.413c-2.619-0.138-6.135-0.138-10.547,0
				c-3.859,0.276-6.549,0.759-8.064,1.448c-1.515,0.689-1.654,0.758-0.412,0.206c-1.242,0.552-2.275,0.827-3.104,0.827
				c-1.654-0.138-2.066-1.24-1.24-3.309c2.068-2.895,3.998-4.066,5.791-3.516C24.015,57.8,24.154,57.868,24.015,57.868z
				 M24.429,39.671c0.551-0.551,1.24-0.965,2.068-1.24c1.102-0.275,1.998-0.345,2.688-0.207c0.551,0.138,1.172,0.207,1.861,0.207
				c0.965,0,2.344-0.069,4.135-0.207c1.793-0.138,3.172-0.207,4.137-0.207c6.064,0,11.581,0.139,16.542,0.414
				c2.344,0.414,3.444,1.379,3.309,2.895c-0.139,0.965-1.033,1.586-2.688,1.861c-5.931-0.414-12.615-0.621-20.059-0.621
				c-3.172,0-6.205,0.276-9.1,0.828c-0.689,0.275-1.516,0.413-2.48,0.413C22.636,43.531,22.5,42.152,24.429,39.671z M39.939,48.149
				c2.342-0.138,4.685-0.138,7.029,0c2.482,0,4.345,0.139,5.584,0.414c2.205,0.137,3.31,0.619,3.31,1.447
				c0,1.103-0.689,1.792-2.068,2.067c-14.199,0-22.402,0.413-24.607,1.241c-1.24,0.275-2.068,0-2.48-0.828
				c-0.414-0.826-0.139-1.723,0.826-2.688c1.379-1.379,2.758-1.93,4.137-1.654C31.804,48.563,34.562,48.563,39.939,48.149z"/>
		</g>
		<path fill="#D90000" d="M44.022,72.985c0.791,0,1.502,0.08,2.133,0.235c0.633,0,1.264,0.238,1.896,0.711
			c0.789,0.158,1.263,0.476,1.42,0.949c0.316,0.158,0.554,0.473,0.711,0.947c0.158,0.158,0.238,0.395,0.238,0.711l-0.238,0.711
			c-0.157,0.316-0.395,0.711-0.711,1.184c-0.157,0.476-0.395,0.949-0.711,1.422c-0.158,0.316-0.235,0.712-0.235,1.187l0.946-0.238
			c0.634-0.313,0.791-0.395,0.476-0.235c0.315-0.158,0.711-0.236,1.186-0.236c0.474-0.316,0.947-0.475,1.42-0.475
			c0.476-0.158,0.869-0.236,1.187-0.236c0.316,0,0.631,0.078,0.946,0.236c0.158,0,0.396,0.157,0.712,0.475
			c0.315,0.158,0.553,0.315,0.711,0.473l0.235,0.238c0.633,0.316,1.187,0.789,1.66,1.422v0.473h-0.475
			c-0.158,0-0.869,0.08-2.133,0.237c-1.105,0-2.054,0.158-2.845,0.473c-0.789,0-1.658,0.158-2.604,0.476c-0.316,0-0.711,0-1.187,0
			c-0.631,0.158-1.184,0.236-1.658,0.236l-0.473,0.475c-0.315,0.158-0.711,0.631-1.186,1.422c-0.158,0.158-0.396,0.396-0.711,0.711
			c-0.316,0.473-0.554,0.789-0.711,0.947c-0.474,0.475-0.87,1.027-1.184,1.658h0.236h0.474c0.314-0.158,0.631-0.236,0.947-0.236
			c0.789-0.316,1.815-0.475,3.08-0.475c1.264-0.158,2.211-0.236,2.844-0.236c0.631,0,1.184,0.078,1.658,0.236
			c0.158,0,0.553,0.157,1.184,0.475c0.158,0.158,0.316,0.316,0.476,0.473c0.789,0.476,1.264,0.949,1.422,1.422
			c0.315,0.476,0.553,0.949,0.711,1.423c0.158,0.315,0.236,0.711,0.236,1.186l-0.712,0.947c-0.473,0.475-0.946,1.186-1.422,2.133
			c-0.473,0.631-0.946,1.422-1.422,2.369c-0.473,0.631-0.867,1.342-1.184,2.133c-0.316,0.631-1.105,1.58-2.369,2.844h-0.475
			l-1.423-1.422l-0.473,0.236c-0.316,0-0.633,0.158-0.949,0.475c-0.157,0-0.395,0.078-0.711,0.236
			c-0.313,0.158-0.553,0.236-0.709,0.236c-0.633,0-1.027,0.157-1.185,0.475c-0.158,0-0.316,0.475-0.475,1.422
			c0,0.789-0.078,1.5-0.236,2.133l0.947-0.237c0.632-0.314,1.738-0.554,3.318-0.712c1.578-0.473,3.08-0.711,4.502-0.711
			c1.42-0.155,2.685-0.235,3.791-0.235c0.473,0,1.105-0.078,1.896-0.236h0.235c0.316-0.158,0.711-0.238,1.187-0.238
			c0.473,0,0.946,0.08,1.422,0.238c0.158,0,0.553,0.158,1.184,0.473c0.158,0.158,0.316,0.316,0.476,0.476
			c0.789,0.475,1.264,0.947,1.422,1.422c0.158,0.158,0.315,0.316,0.475,0.473c0,0.316,0.078,0.556,0.236,0.711
			c0.158,0.158,0.236,0.476,0.236,0.949l-0.236,0.236c-0.158,0-0.396,0.395-0.711,1.186c-0.316,0.474-0.633,1.342-0.947,2.605
			c0,0.315-0.158,0.789-0.475,1.422c-0.316,0.789-0.476,1.342-0.476,1.658c-0.313,0.946-0.711,1.896-1.184,2.844
			c-0.476,0.789-0.949,1.5-1.422,2.133c-0.158,0.156-0.316,0.396-0.476,0.711c-0.157,0.314-0.553,0.867-1.184,1.658
			c-0.316,0.314-0.633,0.711-0.947,1.184c-0.315,0.316-0.555,0.554-0.711,0.712c-0.158,0.157-0.396,0.395-0.711,0.711l-0.475,0.237
			c-0.158,0.156-0.634,0.236-1.422,0.236l-0.712-0.947c-0.157-0.315-0.395-0.633-0.711-0.949c-0.315-0.315-0.553-0.631-0.711-0.946
			c-0.157-0.316-0.395-0.633-0.711-0.947c-0.313-0.316-0.553-0.633-0.711-0.947c-0.473-0.633-1.024-1.186-1.658-1.66h0.711
			c0.476,0,1.265,0,2.369,0c1.105,0.158,1.896,0.238,2.369,0.238c0.476,0,0.869-0.08,1.187-0.238h0.235
			c0.316-0.155,0.554-0.313,0.711-0.473c0.316-0.475,0.396-0.553,0.238-0.238c0.156-0.313,0.396-0.946,0.711-1.895
			c0-0.158,0.078-0.553,0.236-1.187c0.313-0.946,0.553-1.735,0.711-2.368c0.313-1.423,0.553-2.605,0.711-3.554
			s0.236-1.737,0.236-2.371L57.054,109h-2.131c-1.422,0-2.766,0.078-4.029,0.236c-0.788,0-2.053,0.237-3.79,0.711l0.475,0.475
			c0.315,0.316,0.789,0.711,1.422,1.184c0.631,0.476,1.184,1.027,1.658,1.658c0.315,0.316,0.553,0.711,0.711,1.187
			c0-0.316,0.078-0.158,0.236,0.475c0.157,0.473,0.237,0.947,0.237,1.42c0,0.316-0.08,0.713-0.237,1.187l-0.236,0.235
			c-0.158,0.316-0.316,0.554-0.476,0.711h-0.235c-0.158,0-0.236-0.077-0.236-0.235c-0.158,0-0.315,0-0.475,0l-0.236-0.236
			c-0.315-0.316-0.711-0.791-1.186-1.422l-1.422,0.236c-0.947,0-1.896,0.157-2.843,0.475c-0.949,0-2.054,0.314-3.318,0.947
			c-1.264,0.475-2.369,0.946-3.316,1.422c-0.316,0.158-0.633,0.315-0.947,0.473c-0.316,0.158-0.633,0.316-0.949,0.476h-0.236
			c-0.158,0.157-0.316,0.235-0.475,0.235h-0.236c-0.316-0.155-0.553-0.235-0.711-0.235c-0.475-0.316-0.869-0.554-1.186-0.711
			c-0.158-0.158-0.236-0.396-0.236-0.712c-0.158-0.157-0.316-0.313-0.475-0.473c-0.158-0.475-0.236-0.869-0.236-1.186l0.475-0.476
			l0.711,0.238c0.156,0,0.395,0.078,0.711,0.236h0.236c0.158,0,0.314-0.078,0.473-0.236c0.316-0.158,0.555-0.238,0.713-0.238
			c0.631-0.473,1.184-0.789,1.658-0.946c0.473-0.474,0.789-0.712,0.947-0.712c0.158-0.157,0.236-0.313,0.236-0.473l0.238-0.238
			c0.158-0.157,0.236-1.104,0.236-2.842l-0.711,0.236c-0.475,0-1.105,0.236-1.895,0.711c-0.316,0.158-0.791,0.316-1.424,0.473
			c-0.631,0.316-1.105,0.556-1.42,0.711c-0.158,0.158-0.475,0.316-0.949,0.476c-1.105,0.315-2.133,0.711-3.08,1.186l0.475,1.42
			c0.316,0.949,0.553,1.896,0.711,2.845c0.158,0.475,0.236,1.579,0.236,3.317l-0.473,0.474v0.946l-0.711-0.946
			c-0.158-0.158-0.396-0.396-0.711-0.712c-0.158-0.473-0.316-0.788-0.475-0.946c-0.158-0.316-0.395-0.554-0.711-0.711
			c-0.158-0.474-0.236-0.869-0.236-1.187c0-0.473-0.08-0.946-0.238-1.42c0-0.158-0.078-0.315-0.236-0.475
			c-0.158-0.476-0.316-0.869-0.473-1.187h-0.238c-0.158,0-0.395,0.08-0.711,0.238c-0.158,0-0.473,0.236-0.947,0.711h-0.236
			c-0.158,0-0.238-0.08-0.238-0.238c-0.156,0-0.314,0-0.473,0l-0.236-0.235c-0.316-0.316-0.711-0.789-1.186-1.422v-0.947
			l0.475-0.476l0.475,0.476h0.473h0.473c0.316-0.158,0.553-0.236,0.711-0.236c0.158-0.158,0.395-0.315,0.711-0.475
			c0.158,0,0.316-0.078,0.475-0.236v-0.949c0-0.789,0.078-1.262,0.236-1.42c0.158-0.475,0.475-0.791,0.947-0.949
			c0.158-0.157,0.633-0.473,1.422-0.946c0.316,0,0.553-0.078,0.711-0.236c0.947-0.475,1.816-0.947,2.607-1.422
			c0.631-0.475,1.5-1.027,2.605-1.658l-0.473-0.238c-0.158-0.313-0.396-0.473-0.711-0.473c-0.158-0.158-0.396-0.475-0.711-0.949
			c0-0.155-0.08-0.313-0.238-0.473c-0.158-0.159-0.395-0.633-0.711-1.422c0-0.316-0.158-0.789-0.473-1.422
			c-0.316-0.631-0.475-1.105-0.475-1.422c-0.158-0.632-0.395-1.343-0.711-2.134l-0.236-0.235c-0.158-0.474-0.395-0.947-0.711-1.422
			c-0.158-0.474-0.236-0.867-0.236-1.185c0-0.475,0.078-0.791,0.236-0.949l0.236-0.235c0-0.316,0.158-0.553,0.475-0.711h0.475
			l0.947,0.946l0.236-0.235c0.158-0.158,0.553-0.474,1.186-0.947c0.156,0,0.314-0.078,0.473-0.236
			c0.633-0.633,1.422-1.104,2.371-1.422v-0.475l-0.475-0.711c-0.158-0.474-0.475-1.342-0.947-2.605h-0.238
			c-0.158,0-0.631,0.236-1.422,0.711c-0.316,0.158-0.631,0.314-0.947,0.474c-0.475,0.315-0.869,0.553-1.184,0.711
			c-0.475,0.158-0.949,0.475-1.422,0.946h-0.238c-0.158,0-0.236-0.077-0.236-0.235c-0.158,0-0.316,0-0.475,0l-0.473-0.236
			c-0.316-0.315-0.553-0.553-0.711-0.711c-0.475-0.475-0.791-0.947-0.947-1.422c-0.158-0.475-0.238-1.027-0.238-1.658l0.475-0.475
			l0.947,0.235c0.316,0,0.711,0.08,1.186,0.238h0.236h0.475c0.473-0.158,0.867-0.238,1.184-0.238
			c0.791-0.313,1.422-0.473,1.896-0.473c0.473-0.315,1.025-0.553,1.658-0.711v-1.658c0-1.105-0.08-1.896-0.236-2.37
			c-0.158-0.473-0.396-0.946-0.711-1.422c-0.158-0.473-0.633-1.024-1.422-1.658v-0.473h0.947c0.633,0,1.186,0.078,1.658,0.236
			c0.475,0,0.869,0.158,1.186,0.475c0.316,0,0.711,0.314,1.186,0.947c0.473,0.475,0.867,1.027,1.184,1.658
			c0.158,0.315,0.475,1.264,0.947,2.843h0.238h0.236c0.316-0.158,0.631-0.236,0.947-0.236c0.633-0.314,1.422-0.474,2.369-0.474
			c0.316-0.158,0.711-0.236,1.186-0.236l0.474-0.238c0.156-0.157,0.236-0.313,0.236-0.473c0.158-0.158,0.236-0.315,0.236-0.475
			c0.315-0.476,0.553-1.185,0.711-2.133c0-0.314,0.078-0.632,0.235-0.947c0.158-0.316,0.238-0.631,0.238-0.947
			c0-0.475-0.08-0.791-0.238-0.949c-0.157-0.155-0.235-0.395-0.235-0.711c-0.158-0.155-0.316-0.313-0.474-0.473
			c-0.158-0.475-0.633-1.027-1.421-1.658v-0.475h1.183V72.985z M39.048,105.682H38.81c-0.158,0-0.631,0.238-1.422,0.711
			c-0.158,0.158-0.631,0.396-1.42,0.711c-0.633,0.316-1.186,0.634-1.66,0.949c-0.475,0.158-1.027,0.396-1.658,0.709
			c-0.791,0.476-1.422,0.791-1.896,0.949c-0.631,0.158-0.789,0.236-0.473,0.236c-0.949,0.315-1.502,0.475-1.658,0.475l-0.711,0.473
			c-0.316,0.158-0.711,0.476-1.186,0.949v0.474l0.947,0.946h0.238c0.158,0,0.395-0.078,0.711-0.235
			c0.314-0.158,0.553-0.236,0.711-0.236c0.314-0.316,0.947-0.553,1.895-0.711c-0.475,0-0.316-0.078,0.475-0.236
			c0.314-0.158,0.947-0.396,1.895-0.711c0.316-0.158,0.633-0.315,0.947-0.475c0.316-0.158,0.713-0.316,1.186-0.476
			c1.105-0.473,2.055-0.866,2.844-1.184L39.048,105.682z M36.441,93.125c-0.473,0-0.947,0.158-1.422,0.473c-0.158,0-0.395,0-0.711,0
			c-0.316,0.158-0.553,0.238-0.711,0.238c-0.473-0.158-1.025,0-1.658,0.473l-0.236,0.476c-0.158,0.158-0.238,0.395-0.238,0.711
			l0.238,0.947c0.158,0.157,0.236,0.315,0.236,0.475c0,0.316,0.078,0.553,0.236,0.711c0.158,0.158,0.238,0.395,0.238,0.711
			c0.156,0.316,0.236,0.553,0.236,0.711c0.158,0.473,0.236,1.105,0.236,1.896c0,0.791,0.158,1.737,0.475,2.844h0.236
			c0.158,0,0.316-0.078,0.475-0.236h0.236c0.316-0.315,0.633-0.475,0.949-0.475c0-0.158,0.156-0.316,0.473-0.476
			c0.316,0,0.475-0.077,0.475-0.235s0.158-0.396,0.475-0.711c0.314-0.158,0.473-0.316,0.473-0.476
			c0.316-0.473,0.791-1.024,1.422-1.658h-1.186c-0.314,0-0.631-0.077-0.947-0.235c-0.473,0-0.869,0-1.184,0
			c-0.949-0.316-1.738-0.553-2.371-0.711V98.1l0.711-0.473c0.475-0.475,1.105-0.789,1.896-0.947
			c0.789-0.475,1.422-0.711,1.895-0.711c0.475-0.315,1.027-0.553,1.66-0.711v-0.475l-0.475-0.476
			c-0.158-0.155-0.395-0.395-0.711-0.711c-0.316-0.313-0.553-0.551-0.711-0.709L36.441,93.125z M42.839,83.41h-0.475
			c-0.158,0-0.633,0.08-1.422,0.235c-0.631,0-1.186,0.158-1.658,0.476c-0.475,0-0.789,0.158-0.947,0.475
			c-0.158,0-0.238,0.078-0.238,0.236c0-0.158-0.078,0-0.236,0.475c-0.158,0.158-0.236,0.314-0.236,0.474
			c-0.158,0.315-0.238,0.553-0.238,0.711c-0.158,0.475-0.395,0.946-0.709,1.422c-0.158,0.475-0.396,1.027-0.711,1.658
			c-0.158,0.315-0.238,0.948-0.238,1.896l1.186-0.475c0.789-0.474,1.422-0.711,1.895-0.711c0.475-0.316,0.869-0.554,1.186-0.711
			c0.316-0.474,0.711-0.947,1.184-1.422c0.475-0.789,0.869-1.423,1.186-1.896c0.158-0.316,0.316-0.711,0.475-1.186
			c0.156-0.474,0.314-0.867,0.473-1.185L42.839,83.41z M49.946,90.992h-0.711c-0.476,0-1.105,0.08-1.896,0.235
			c-0.791,0-1.58,0.158-2.371,0.476c-0.473,0-1.264,0.158-2.369,0.475c0.158,0-0.078,0.078-0.711,0.236l0.475,0.236
			c0.316,0,0.553,0.157,0.711,0.475c0.158,0,0.315,0.158,0.474,0.473c0,0.316,0.078,0.556,0.236,0.711h0.947l0.711,0.476
			c0.475,0.158,0.869,0.475,1.186,0.946v0.949l-0.238,0.236c-0.157,0-0.395,0.158-0.711,0.473c-0.313,0-0.711,0.158-1.184,0.476
			c-0.475,0-0.791,0.157-0.947,0.475c-0.158,0-0.316,0.396-0.474,1.184c0,0.476-0.08,0.949-0.236,1.423h2.369l0.473,0.475
			c0.158,0.158,0.396,0.316,0.711,0.473c0.316,0.158,0.554,0.316,0.712,0.476v-1.187c0-0.946,0.079-1.5,0.237-1.657
			c0.314-0.474,0.553-0.947,0.711-1.423c0.314-0.789,0.709-1.657,1.185-2.604c0.157-0.476,0.315-1.027,0.475-1.658
			c0.314-0.475,0.473-0.789,0.473-0.947c0.158-0.791,0.238-1.264,0.238-1.422L49.946,90.992z M44.497,110.184
			c-0.633,0-1.343,0.238-2.132,0.711l-0.475,3.791l1.422-0.235c0.632-0.158,1.896-0.236,3.792-0.236v-0.238
			c0-0.313-0.158-0.711-0.474-1.184c-0.158-0.633-0.475-1.58-0.949-2.844L44.497,110.184z"/>
	</g>
</g>
</svg>
