<?xml version="1.0" encoding="utf-8"?>
<!-- Generator: Adobe Illustrator 12.0.0, SVG Export Plug-In . SVG Version: 6.00 Build 51448)  -->
<!DOCTYPE svg PUBLIC "-//W3C//DTD SVG 1.1//EN" "http://www.w3.org/Graphics/SVG/1.1/DTD/svg11.dtd" [
	<!ENTITY ns_flows "http://ns.adobe.com/Flows/1.0/">
	<!ENTITY ns_extend "http://ns.adobe.com/Extensibility/1.0/">
	<!ENTITY ns_ai "http://ns.adobe.com/AdobeIllustrator/10.0/">
	<!ENTITY ns_graphs "http://ns.adobe.com/Graphs/1.0/">
	<!ENTITY ns_vars "http://ns.adobe.com/Variables/1.0/">
	<!ENTITY ns_imrep "http://ns.adobe.com/ImageReplacement/1.0/">
	<!ENTITY ns_sfw "http://ns.adobe.com/SaveForWeb/1.0/">
	<!ENTITY ns_custom "http://ns.adobe.com/GenericCustomNamespace/1.0/">
	<!ENTITY ns_adobe_xpath "http://ns.adobe.com/XPath/1.0/">
	<!ENTITY ns_svg "http://www.w3.org/2000/svg">
	<!ENTITY ns_xlink "http://www.w3.org/1999/xlink">
]>
<svg  version="1.1"
	 xmlns:x="&ns_extend;" xmlns:i="&ns_ai;" xmlns:graph="&ns_graphs;" i:viewOrigin="-0.3193 135.7061" i:rulerOrigin="0 0" i:pageBounds="0 136 85 0"
	 xmlns="&ns_svg;" xmlns:xlink="&ns_xlink;" xmlns:a="http://ns.adobe.com/AdobeSVGViewerExtensions/3.0/"
	 width="85.678" height="136.025" viewBox="0 0 85.678 136.025" overflow="visible" enable-background="new 0 0 85.678 136.025"
	 xml:space="preserve">
<metadata>
	<variableSets  xmlns="http://ns.adobe.com/Variables/1.0/">
		<variableSet  varSetName="binding1" locked="none">
			<variables></variables>
			<v:sampleDataSets  xmlns:v="http://ns.adobe.com/Variables/1.0/" xmlns="http://ns.adobe.com/GenericCustomNamespace/1.0/">
				</v:sampleDataSets>
		</variableSet>
	</variableSets>
</metadata>
<g id="图层_1" i:knockout="Off" i:layer="yes" i:dimmedPercent="50" i:rgbTrio="#4F008000FFFF">
	<g>
		<path fill="#333333" d="M83.403,37.587V12.625c0-5.149-3.352-9.325-7.481-9.325H7.804c-4.133,0-7.484,4.175-7.484,9.325h0.002
			v115.211c0,4.344,3.351,7.869,7.482,7.869h68.118c4.131,0,7.481-3.525,7.481-7.869h0.002V37.608
			C83.405,37.601,83.403,37.594,83.403,37.587z"/>
		
			<linearGradient id="XMLID_3_" gradientUnits="userSpaceOnUse" x1="-23.3101" y1="112.9883" x2="-23.3101" y2="-12.5781" gradientTransform="matrix(-1 0 0 -1 20.5059 114.334)">
			<stop  offset="0.0899" style="stop-color:#2089B9"/>
			<stop  offset="0.0985" style="stop-color:#4FA3C2"/>
			<stop  offset="0.1071" style="stop-color:#77B9CA"/>
			<stop  offset="0.1138" style="stop-color:#8FC7CF"/>
			<stop  offset="0.118" style="stop-color:#98CCD1"/>
			<stop  offset="0.1341" style="stop-color:#9ECFD3"/>
			<stop  offset="0.156" style="stop-color:#AFD6D9"/>
			<stop  offset="0.1809" style="stop-color:#CBE1E3"/>
			<stop  offset="0.1966" style="stop-color:#E1EAEB"/>
			<a:midPointStop  offset="0.0899" style="stop-color:#2089B9"/>
			<a:midPointStop  offset="0.4" style="stop-color:#2089B9"/>
			<a:midPointStop  offset="0.118" style="stop-color:#98CCD1"/>
			<a:midPointStop  offset="0.6429" style="stop-color:#98CCD1"/>
			<a:midPointStop  offset="0.1966" style="stop-color:#E1EAEB"/>
		</linearGradient>
		<path fill="url(#XMLID_3_)" d="M2.273,10.671c0-5.15,3.351-9.325,7.481-9.325h68.12c4.131,0,7.482,4.176,7.482,9.325v106.916
			c0,5.148-3.353,9.326-7.482,9.326H9.757c-4.132,0-7.483-4.176-7.483-9.326V10.671L2.273,10.671z"/>
		<path fill="none" stroke="#333333" stroke-width="0.977" d="M2.273,10.671c0-5.15,3.351-9.325,7.481-9.325h68.12
			c4.131,0,7.482,4.176,7.482,9.325v106.916c0,5.148-3.353,9.326-7.482,9.326H9.757c-4.132,0-7.483-4.176-7.483-9.326V10.671
			L2.273,10.671z"/>
		<path fill="#FFFFFF" d="M85.357,125.882c0,4.344-3.353,7.869-7.482,7.869H9.757c-4.132,0-7.483-3.523-7.483-7.869V35.654
			c0-4.347,3.352-7.87,7.483-7.87h68.119c4.131,0,7.482,3.523,7.482,7.87L85.357,125.882L85.357,125.882z"/>
		
			<linearGradient id="XMLID_4_" gradientUnits="userSpaceOnUse" x1="3.3818" y1="80.7676" x2="85.5273" y2="80.7676" gradientTransform="matrix(1 0 0 1 -0.6387 0)">
			<stop  offset="0" style="stop-color:#A2D8E0"/>
			<stop  offset="0.0899" style="stop-color:#1878AD"/>
			<stop  offset="0.2135" style="stop-color:#194D91"/>
			<stop  offset="0.6404" style="stop-color:#2B90BD"/>
			<stop  offset="0.9438" style="stop-color:#82CBDE"/>
			<stop  offset="1" style="stop-color:#1A478D"/>
			<a:midPointStop  offset="0" style="stop-color:#A2D8E0"/>
			<a:midPointStop  offset="0.5" style="stop-color:#A2D8E0"/>
			<a:midPointStop  offset="0.0899" style="stop-color:#1878AD"/>
			<a:midPointStop  offset="0.5" style="stop-color:#1878AD"/>
			<a:midPointStop  offset="0.2135" style="stop-color:#194D91"/>
			<a:midPointStop  offset="0.5" style="stop-color:#194D91"/>
			<a:midPointStop  offset="0.6404" style="stop-color:#2B90BD"/>
			<a:midPointStop  offset="0.5" style="stop-color:#2B90BD"/>
			<a:midPointStop  offset="0.9438" style="stop-color:#82CBDE"/>
			<a:midPointStop  offset="0.5" style="stop-color:#82CBDE"/>
			<a:midPointStop  offset="1" style="stop-color:#1A478D"/>
		</linearGradient>
		<path i:isolated="yes" i:knockout="Off" opacity="0.1" fill="url(#XMLID_4_)" enable-background="new    " d="M84.888,125.882
			c0,4.344-3.314,7.869-7.398,7.869H10.144c-4.086,0-7.4-3.523-7.4-7.869V35.654c0-4.347,3.314-7.87,7.4-7.87H77.49
			c4.084,0,7.398,3.523,7.398,7.87L84.888,125.882L84.888,125.882z"/>
		<path fill="none" stroke="#4D4D4D" stroke-width="0.977" d="M85.357,35.633V10.671c0-5.149-3.352-9.325-7.482-9.325H9.755
			c-4.131,0-7.481,4.175-7.481,9.325v115.21c0,4.346,3.352,7.869,7.483,7.869h68.118c4.13,0,7.482-3.525,7.482-7.869l0.001-90.228
			C85.358,35.647,85.357,35.64,85.357,35.633z"/>
	</g>
	<g i:knockout="Off">
		<path fill="#333333" d="M36.089,37.672c0-1.378,0.965-1.93,2.895-1.654c1.654,0.553,2.48,1.518,2.48,2.896
			c-0.275,2.206,0.07,3.171,1.035,2.896c1.791,0,3.309-0.275,4.549-0.828c1.654-0.551,2.963-0.413,3.931,0.414
			c0.965,0.965,1.032,2.068,0.204,3.309c-3.584,4.688-4.202,8.686-1.858,11.994c2.756,3.446,8.34,4.205,16.748,2.274
			c0.828-0.138,1.379-0.069,1.653,0.206c0.14,0.139,0.14,0.553,0,1.241c-1.653,4.825-4.756,7.169-9.305,7.03
			c-6.893-0.826-11.305-3.859-13.233-9.098c-0.414-1.517-0.414-5.515,0-11.994c0.139-0.689-0.414-1.103-1.654-1.24
			c-1.93-0.139-2.758,0.414-2.48,1.654c0.137,6.342-2.344,11.58-7.445,15.715c-6.342,4.274-11.373,4.826-15.096,1.654
			c-0.551-0.551-0.758-0.965-0.619-1.24c0.137-0.413,0.619-0.689,1.447-0.827c11.855-1.517,17.715-6.616,17.576-15.302
			c0.275-2.344-3.033-2.068-9.926,0.826c-1.24,0.553-2.137,0.621-2.688,0.207c-0.414-0.551-0.346-1.447,0.207-2.688
			c1.377-2.482,3.17-3.447,5.375-2.896c0.275,0.138,1.379,0.069,3.309-0.206c0.689-0.139,1.24-0.207,1.654-0.207
			C35.95,42.223,36.364,40.844,36.089,37.672z"/>
		<path fill="#D90000" d="M43.888,75.599c0.791,0,1.502,0.08,2.134,0.238c0.633,0,1.264,0.236,1.896,0.711
			c0.789,0.158,1.262,0.473,1.42,0.947c0.316,0.158,0.553,0.475,0.711,0.947c0.158,0.157,0.238,0.395,0.238,0.711l-0.238,0.711
			c-0.158,0.315-0.395,0.711-0.711,1.184c-0.158,0.475-0.395,0.949-0.711,1.422c-0.158,0.316-0.236,0.712-0.236,1.188l0.947-0.238
			c0.633-0.314,0.791-0.396,0.476-0.236c0.315-0.158,0.711-0.236,1.186-0.236c0.473-0.316,0.947-0.476,1.42-0.476
			c0.475-0.155,0.869-0.235,1.187-0.235c0.316,0,0.631,0.08,0.946,0.235c0.158,0,0.396,0.158,0.711,0.476
			c0.316,0.158,0.554,0.316,0.711,0.474l0.236,0.238c0.633,0.315,1.187,0.789,1.66,1.422v0.473h-0.476
			c-0.157,0-0.868,0.08-2.133,0.236c-1.104,0-2.053,0.158-2.844,0.475c-0.789,0-1.658,0.158-2.604,0.476c-0.316,0-0.712,0-1.187,0
			c-0.631,0.157-1.184,0.235-1.658,0.235l-0.473,0.476c-0.316,0.158-0.711,0.631-1.187,1.422c-0.157,0.158-0.395,0.395-0.711,0.709
			c-0.315,0.475-0.553,0.791-0.711,0.949c-0.473,0.473-0.869,1.024-1.184,1.657h0.236h0.475c0.313-0.157,0.631-0.235,0.947-0.235
			c0.789-0.316,1.815-0.476,3.08-0.476c1.264-0.157,2.211-0.235,2.844-0.235c0.631,0,1.184,0.078,1.658,0.235
			c0.157,0,0.553,0.158,1.184,0.476c0.158,0.158,0.316,0.313,0.475,0.473c0.789,0.476,1.265,0.949,1.423,1.422
			c0.315,0.476,0.553,0.947,0.711,1.422c0.157,0.316,0.235,0.711,0.235,1.187l-0.711,0.947c-0.473,0.473-0.946,1.184-1.422,2.133
			c-0.473,0.631-0.947,1.422-1.422,2.369c-0.473,0.631-0.867,1.342-1.184,2.133c-0.316,0.631-1.105,1.578-2.369,2.842H48.39
			l-1.422-1.422l-0.473,0.238c-0.316,0-0.633,0.157-0.949,0.473c-0.158,0-0.395,0.08-0.711,0.238
			c-0.313,0.157-0.553,0.235-0.709,0.235c-0.633,0-1.027,0.158-1.186,0.476c-0.158,0-0.316,0.473-0.475,1.42
			c0,0.791-0.078,1.502-0.236,2.133l0.947-0.236c0.632-0.315,1.738-0.553,3.318-0.711c1.578-0.473,3.08-0.711,4.502-0.711
			c1.42-0.158,2.684-0.235,3.791-0.235c0.473,0,1.104-0.08,1.895-0.238h0.236c0.316-0.156,0.711-0.236,1.187-0.236
			c0.473,0,0.946,0.08,1.422,0.236c0.157,0,0.553,0.158,1.184,0.475c0.158,0.158,0.316,0.316,0.475,0.476
			c0.789,0.473,1.265,0.946,1.423,1.422c0.157,0.158,0.315,0.313,0.475,0.473c0,0.316,0.078,0.553,0.236,0.711
			c0.157,0.158,0.235,0.476,0.235,0.947l-0.235,0.238c-0.158,0-0.396,0.395-0.711,1.184c-0.316,0.475-0.634,1.344-0.947,2.607
			c0,0.315-0.158,0.789-0.476,1.422c-0.315,0.789-0.475,1.342-0.475,1.658c-0.313,0.946-0.711,1.895-1.184,2.844
			c-0.476,0.789-0.949,1.5-1.422,2.131c-0.158,0.158-0.316,0.395-0.476,0.711s-0.553,0.869-1.184,1.66
			c-0.316,0.313-0.633,0.709-0.947,1.184c-0.316,0.316-0.555,0.554-0.711,0.711c-0.158,0.158-0.396,0.396-0.711,0.711l-0.476,0.236
			c-0.157,0.158-0.633,0.238-1.422,0.238l-0.711-0.949c-0.158-0.316-0.395-0.631-0.711-0.947c-0.315-0.315-0.553-0.633-0.711-0.947
			c-0.158-0.315-0.395-0.633-0.711-0.946c-0.313-0.316-0.553-0.633-0.711-0.949c-0.473-0.631-1.025-1.184-1.658-1.658h0.711
			c0.476,0,1.265,0,2.369,0c1.105,0.158,1.896,0.236,2.369,0.236c0.475,0,0.869-0.078,1.186-0.236h0.236
			c0.316-0.158,0.553-0.315,0.711-0.475c0.316-0.474,0.396-0.551,0.238-0.236c0.156-0.313,0.395-0.947,0.711-1.895
			c0-0.158,0.078-0.554,0.236-1.187c0.313-0.947,0.553-1.738,0.711-2.369c0.313-1.422,0.553-2.604,0.711-3.555
			c0.158-0.947,0.235-1.736,0.235-2.369l-0.475-0.473h-2.131c-1.422,0-2.767,0.078-4.029,0.235c-0.789,0-2.053,0.236-3.791,0.712
			l0.476,0.473c0.315,0.315,0.789,0.711,1.422,1.186c0.631,0.476,1.184,1.027,1.658,1.658c0.315,0.316,0.553,0.711,0.711,1.187
			c0-0.316,0.077-0.158,0.235,0.473c0.158,0.475,0.238,0.949,0.238,1.422c0,0.316-0.08,0.711-0.238,1.187l-0.235,0.235
			c-0.158,0.316-0.316,0.553-0.476,0.711h-0.235c-0.158,0-0.236-0.078-0.236-0.235c-0.158,0-0.316,0-0.476,0l-0.235-0.238
			c-0.316-0.314-0.711-0.789-1.187-1.42l-1.422,0.235c-0.947,0-1.895,0.158-2.842,0.474c-0.949,0-2.055,0.315-3.318,0.949
			c-1.264,0.473-2.369,0.946-3.316,1.422c-0.316,0.158-0.633,0.313-0.947,0.473c-0.316,0.158-0.633,0.316-0.949,0.475h-0.236
			c-0.158,0.158-0.316,0.236-0.475,0.236h-0.236c-0.316-0.158-0.553-0.236-0.711-0.236c-0.475-0.315-0.869-0.553-1.186-0.711
			c-0.158-0.157-0.236-0.395-0.236-0.711c-0.158-0.157-0.316-0.315-0.475-0.475c-0.158-0.473-0.236-0.867-0.236-1.184l0.475-0.476
			l0.711,0.236c0.156,0,0.395,0.08,0.711,0.238h0.236c0.158,0,0.314-0.08,0.473-0.238c0.316-0.156,0.555-0.236,0.713-0.236
			c0.631-0.473,1.184-0.789,1.658-0.947c0.473-0.475,0.789-0.711,0.947-0.711c0.158-0.157,0.236-0.315,0.236-0.475l0.238-0.236
			c0.158-0.158,0.236-1.104,0.236-2.844l-0.711,0.238c-0.475,0-1.105,0.235-1.895,0.711c-0.316,0.158-0.791,0.313-1.424,0.473
			c-0.631,0.316-1.105,0.553-1.42,0.711c-0.158,0.158-0.475,0.316-0.949,0.476c-1.105,0.315-2.133,0.711-3.08,1.184l0.475,1.422
			c0.316,0.949,0.553,1.896,0.711,2.844c0.158,0.476,0.236,1.58,0.236,3.316l-0.473,0.475v0.947l-0.711-0.947
			c-0.158-0.157-0.396-0.395-0.711-0.711c-0.158-0.475-0.316-0.789-0.475-0.946c-0.158-0.316-0.395-0.554-0.711-0.711
			c-0.158-0.476-0.236-0.869-0.236-1.187c0-0.473-0.08-0.947-0.238-1.422c0-0.156-0.078-0.314-0.236-0.473
			c-0.158-0.476-0.316-0.869-0.473-1.187H25.88c-0.158,0-0.395,0.08-0.711,0.236c-0.158,0-0.473,0.238-0.947,0.711h-0.236
			c-0.158,0-0.238-0.078-0.238-0.236c-0.158,0-0.314,0-0.473,0l-0.238-0.235c-0.314-0.316-0.711-0.791-1.184-1.423v-0.946
			l0.475-0.476l0.473,0.476h0.475h0.473c0.316-0.158,0.553-0.238,0.711-0.238c0.158-0.156,0.395-0.314,0.711-0.473
			c0.158,0,0.316-0.08,0.475-0.238v-0.947c0-0.789,0.078-1.264,0.236-1.422c0.158-0.473,0.475-0.789,0.947-0.947
			c0.158-0.157,0.633-0.475,1.422-0.946c0.316,0,0.553-0.08,0.711-0.238c0.947-0.473,1.816-0.947,2.607-1.42
			c0.631-0.476,1.5-1.027,2.605-1.66l-0.473-0.236c-0.158-0.315-0.396-0.475-0.711-0.475c-0.158-0.156-0.396-0.473-0.711-0.947
			c0-0.158-0.08-0.313-0.238-0.473s-0.395-0.633-0.711-1.422c0-0.316-0.158-0.791-0.473-1.422c-0.316-0.634-0.475-1.105-0.475-1.423
			c-0.158-0.633-0.395-1.342-0.711-2.133l-0.236-0.235c-0.158-0.476-0.395-0.947-0.711-1.423c-0.158-0.475-0.236-0.868-0.236-1.186
			c0-0.473,0.078-0.789,0.236-0.947l0.236-0.235c0-0.316,0.158-0.554,0.475-0.711h0.475l0.947,0.946l0.236-0.235
			c0.158-0.158,0.553-0.476,1.186-0.947c0.156,0,0.314-0.08,0.473-0.238c0.633-0.631,1.422-1.104,2.371-1.422v-0.473l-0.475-0.711
			c-0.158-0.476-0.475-1.345-0.947-2.607h-0.238c-0.158,0-0.631,0.238-1.422,0.711c-0.316,0.158-0.631,0.316-0.947,0.476
			c-0.475,0.315-0.869,0.553-1.184,0.711c-0.475,0.157-0.949,0.475-1.422,0.946H28.25c-0.158,0-0.236-0.078-0.236-0.235
			c-0.158,0-0.316,0-0.475,0l-0.473-0.236c-0.316-0.316-0.553-0.553-0.711-0.711c-0.475-0.475-0.791-0.949-0.947-1.422
			c-0.158-0.476-0.238-1.027-0.238-1.658l0.475-0.475l0.947,0.235c0.316,0,0.711,0.08,1.186,0.238h0.236h0.475
			c0.473-0.158,0.867-0.238,1.184-0.238c0.791-0.313,1.422-0.473,1.896-0.473c0.473-0.316,1.025-0.553,1.658-0.711v-1.66
			c0-1.104-0.08-1.895-0.236-2.369c-0.158-0.474-0.396-0.948-0.711-1.421c-0.158-0.475-0.633-1.027-1.422-1.658v-0.475h0.947
			c0.633,0,1.186,0.078,1.658,0.236c0.475,0,0.869,0.157,1.186,0.475c0.316,0,0.711,0.316,1.186,0.947
			c0.473,0.475,0.867,1.026,1.184,1.658c0.158,0.316,0.475,1.265,0.947,2.845h0.238h0.236c0.316-0.158,0.631-0.238,0.947-0.238
			c0.633-0.314,1.422-0.473,2.369-0.473c0.316-0.158,0.711-0.236,1.186-0.236l0.475-0.238c0.156-0.157,0.236-0.313,0.236-0.473
			c0.158-0.158,0.235-0.316,0.235-0.475c0.316-0.476,0.554-1.186,0.711-2.135c0-0.313,0.078-0.631,0.236-0.946
			c0.158-0.314,0.238-0.632,0.238-0.947c0-0.476-0.08-0.789-0.238-0.947S44.6,78.531,44.6,78.215
			c-0.157-0.158-0.315-0.315-0.473-0.475c-0.158-0.474-0.633-1.027-1.422-1.658v-0.475h1.183V75.599z M38.913,108.297h-0.238
			c-0.158,0-0.631,0.238-1.422,0.711c-0.158,0.158-0.631,0.396-1.42,0.711c-0.633,0.316-1.186,0.633-1.66,0.947
			c-0.475,0.158-1.027,0.396-1.658,0.711c-0.791,0.475-1.422,0.791-1.896,0.947c-0.631,0.158-0.789,0.237-0.473,0.237
			c-0.949,0.316-1.502,0.474-1.658,0.474l-0.711,0.475c-0.316,0.158-0.711,0.476-1.186,0.947v0.475l0.947,0.947h0.238
			c0.158,0,0.395-0.078,0.711-0.236c0.314-0.157,0.553-0.235,0.711-0.235c0.314-0.316,0.947-0.554,1.895-0.711
			c-0.475,0-0.316-0.08,0.475-0.238c0.314-0.158,0.947-0.396,1.895-0.711c0.316-0.156,0.633-0.314,0.947-0.473
			c0.316-0.158,0.713-0.316,1.186-0.476c1.105-0.473,2.055-0.869,2.844-1.184L38.913,108.297z M36.306,95.74
			c-0.473,0-0.947,0.157-1.422,0.473c-0.158,0-0.395,0-0.711,0c-0.316,0.158-0.553,0.238-0.711,0.238
			c-0.473-0.158-1.025,0-1.658,0.473l-0.236,0.476c-0.158,0.157-0.238,0.395-0.238,0.711l0.238,0.946
			c0.158,0.158,0.236,0.316,0.236,0.476c0,0.313,0.078,0.553,0.236,0.711s0.238,0.395,0.238,0.709
			c0.156,0.315,0.236,0.555,0.236,0.711c0.158,0.475,0.236,1.106,0.236,1.896s0.158,1.738,0.475,2.845h0.236
			c0.158,0,0.316-0.08,0.475-0.238h0.236c0.316-0.314,0.633-0.473,0.949-0.473c0-0.158,0.156-0.316,0.473-0.476
			c0.316,0,0.475-0.078,0.475-0.236c0-0.157,0.158-0.395,0.475-0.711c0.314-0.157,0.473-0.315,0.473-0.475
			c0.316-0.473,0.791-1.025,1.422-1.658h-1.186c-0.314,0-0.631-0.078-0.947-0.235c-0.473,0-0.869,0-1.184,0
			c-0.949-0.316-1.738-0.554-2.371-0.711v-0.476l0.711-0.473c0.475-0.476,1.105-0.791,1.896-0.949
			c0.789-0.473,1.422-0.711,1.895-0.711c0.475-0.314,1.027-0.553,1.66-0.711v-0.473l-0.475-0.476
			c-0.158-0.158-0.395-0.395-0.711-0.711c-0.316-0.313-0.553-0.553-0.711-0.711L36.306,95.74z M42.704,86.025h-0.475
			c-0.158,0-0.633,0.077-1.422,0.235c-0.631,0-1.186,0.158-1.658,0.476c-0.475,0-0.789,0.157-0.947,0.473
			c-0.158,0-0.238,0.08-0.238,0.238c0-0.158-0.078,0-0.236,0.473c-0.158,0.158-0.236,0.316-0.236,0.475
			c-0.158,0.316-0.238,0.554-0.238,0.711c-0.158,0.476-0.395,0.947-0.709,1.423c-0.158,0.473-0.396,1.024-0.711,1.657
			c-0.158,0.316-0.238,0.947-0.238,1.896l1.186-0.473c0.789-0.476,1.422-0.712,1.895-0.712c0.475-0.315,0.869-0.553,1.186-0.711
			c0.316-0.475,0.711-0.946,1.184-1.422c0.475-0.789,0.869-1.422,1.186-1.895c0.158-0.316,0.316-0.711,0.475-1.187
			c0.156-0.475,0.314-0.869,0.473-1.186L42.704,86.025z M49.812,93.607h-0.712c-0.475,0-1.104,0.077-1.895,0.235
			c-0.791,0-1.58,0.158-2.371,0.476c-0.473,0-1.264,0.157-2.369,0.473c0.158,0-0.078,0.08-0.711,0.238l0.475,0.235
			c0.316,0,0.553,0.158,0.711,0.476c0.158,0,0.316,0.157,0.475,0.473c0,0.316,0.078,0.553,0.236,0.711h0.946l0.711,0.476
			c0.476,0.157,0.869,0.475,1.187,0.946v0.947l-0.238,0.238c-0.158,0-0.395,0.157-0.711,0.473c-0.313,0-0.711,0.158-1.184,0.475
			c-0.476,0-0.791,0.158-0.947,0.474c-0.158,0-0.316,0.396-0.475,1.186c0,0.476-0.08,0.947-0.236,1.422h2.369l0.473,0.476
			c0.158,0.158,0.396,0.313,0.711,0.473c0.316,0.159,0.554,0.316,0.711,0.476v-1.187c0-0.947,0.08-1.5,0.238-1.658
			c0.314-0.473,0.553-0.946,0.711-1.422c0.314-0.789,0.709-1.658,1.184-2.604c0.158-0.476,0.316-1.027,0.476-1.658
			c0.313-0.476,0.473-0.791,0.473-0.949c0.158-0.789,0.238-1.264,0.238-1.422L49.812,93.607z M44.362,112.799
			c-0.633,0-1.344,0.238-2.133,0.711l-0.475,3.791l1.422-0.235c0.632-0.158,1.896-0.238,3.791-0.238v-0.236
			c0-0.315-0.158-0.711-0.473-1.184c-0.158-0.633-0.476-1.58-0.949-2.845L44.362,112.799z"/>
	</g>
</g>
</svg>
