<?xml version="1.0" encoding="utf-8"?>
<!-- Generator: Adobe Illustrator 12.0.0, SVG Export Plug-In . SVG Version: 6.00 Build 51448)  -->
<!DOCTYPE svg PUBLIC "-//W3C//DTD SVG 1.1//EN" "http://www.w3.org/Graphics/SVG/1.1/DTD/svg11.dtd" [
	<!ENTITY ns_flows "http://ns.adobe.com/Flows/1.0/">
	<!ENTITY ns_extend "http://ns.adobe.com/Extensibility/1.0/">
	<!ENTITY ns_ai "http://ns.adobe.com/AdobeIllustrator/10.0/">
	<!ENTITY ns_graphs "http://ns.adobe.com/Graphs/1.0/">
	<!ENTITY ns_vars "http://ns.adobe.com/Variables/1.0/">
	<!ENTITY ns_imrep "http://ns.adobe.com/ImageReplacement/1.0/">
	<!ENTITY ns_sfw "http://ns.adobe.com/SaveForWeb/1.0/">
	<!ENTITY ns_custom "http://ns.adobe.com/GenericCustomNamespace/1.0/">
	<!ENTITY ns_adobe_xpath "http://ns.adobe.com/XPath/1.0/">
	<!ENTITY ns_svg "http://www.w3.org/2000/svg">
	<!ENTITY ns_xlink "http://www.w3.org/1999/xlink">
]>
<svg  version="1.1"
	 xmlns:x="&ns_extend;" xmlns:i="&ns_ai;" xmlns:graph="&ns_graphs;" i:viewOrigin="-0.3193 135.7061" i:rulerOrigin="0 0" i:pageBounds="0 136 85 0"
	 xmlns="&ns_svg;" xmlns:xlink="&ns_xlink;" xmlns:a="http://ns.adobe.com/AdobeSVGViewerExtensions/3.0/"
	 width="85.678" height="136.025" viewBox="0 0 85.678 136.025" overflow="visible" enable-background="new 0 0 85.678 136.025"
	 xml:space="preserve">
<metadata>
	<variableSets  xmlns="http://ns.adobe.com/Variables/1.0/">
		<variableSet  varSetName="binding1" locked="none">
			<variables></variables>
			<v:sampleDataSets  xmlns:v="http://ns.adobe.com/Variables/1.0/" xmlns="http://ns.adobe.com/GenericCustomNamespace/1.0/">
				</v:sampleDataSets>
		</variableSet>
	</variableSets>
</metadata>
<g id="图层_1" i:knockout="Off" i:layer="yes" i:dimmedPercent="50" i:rgbTrio="#4F008000FFFF">
	<g>
		<path fill="#333333" d="M83.403,37.587V12.625c0-5.149-3.352-9.325-7.481-9.325H7.804c-4.133,0-7.484,4.175-7.484,9.325h0.002
			v115.211c0,4.344,3.351,7.869,7.482,7.869h68.118c4.131,0,7.481-3.525,7.481-7.869h0.002V37.608
			C83.405,37.601,83.403,37.594,83.403,37.587z"/>
		
			<linearGradient id="XMLID_3_" gradientUnits="userSpaceOnUse" x1="-23.3101" y1="112.9883" x2="-23.3101" y2="-12.5781" gradientTransform="matrix(-1 0 0 -1 20.5059 114.334)">
			<stop  offset="0.0899" style="stop-color:#2089B9"/>
			<stop  offset="0.0985" style="stop-color:#4FA3C2"/>
			<stop  offset="0.1071" style="stop-color:#77B9CA"/>
			<stop  offset="0.1138" style="stop-color:#8FC7CF"/>
			<stop  offset="0.118" style="stop-color:#98CCD1"/>
			<stop  offset="0.1341" style="stop-color:#9ECFD3"/>
			<stop  offset="0.156" style="stop-color:#AFD6D9"/>
			<stop  offset="0.1809" style="stop-color:#CBE1E3"/>
			<stop  offset="0.1966" style="stop-color:#E1EAEB"/>
			<a:midPointStop  offset="0.0899" style="stop-color:#2089B9"/>
			<a:midPointStop  offset="0.4" style="stop-color:#2089B9"/>
			<a:midPointStop  offset="0.118" style="stop-color:#98CCD1"/>
			<a:midPointStop  offset="0.6429" style="stop-color:#98CCD1"/>
			<a:midPointStop  offset="0.1966" style="stop-color:#E1EAEB"/>
		</linearGradient>
		<path fill="url(#XMLID_3_)" d="M2.273,10.671c0-5.15,3.351-9.325,7.481-9.325h68.12c4.131,0,7.482,4.176,7.482,9.325v106.916
			c0,5.148-3.353,9.326-7.482,9.326H9.757c-4.132,0-7.483-4.176-7.483-9.326V10.671L2.273,10.671z"/>
		<path fill="none" stroke="#333333" stroke-width="0.977" d="M2.273,10.671c0-5.15,3.351-9.325,7.481-9.325h68.12
			c4.131,0,7.482,4.176,7.482,9.325v106.916c0,5.148-3.353,9.326-7.482,9.326H9.757c-4.132,0-7.483-4.176-7.483-9.326V10.671
			L2.273,10.671z"/>
		<path fill="#FFFFFF" d="M85.357,125.882c0,4.344-3.353,7.869-7.482,7.869H9.757c-4.132,0-7.483-3.523-7.483-7.869V35.654
			c0-4.347,3.352-7.87,7.483-7.87h68.119c4.131,0,7.482,3.523,7.482,7.87L85.357,125.882L85.357,125.882z"/>
		
			<linearGradient id="XMLID_4_" gradientUnits="userSpaceOnUse" x1="3.3818" y1="80.7676" x2="85.5273" y2="80.7676" gradientTransform="matrix(1 0 0 1 -0.6387 0)">
			<stop  offset="0" style="stop-color:#A2D8E0"/>
			<stop  offset="0.0899" style="stop-color:#1878AD"/>
			<stop  offset="0.2135" style="stop-color:#194D91"/>
			<stop  offset="0.6404" style="stop-color:#2B90BD"/>
			<stop  offset="0.9438" style="stop-color:#82CBDE"/>
			<stop  offset="1" style="stop-color:#1A478D"/>
			<a:midPointStop  offset="0" style="stop-color:#A2D8E0"/>
			<a:midPointStop  offset="0.5" style="stop-color:#A2D8E0"/>
			<a:midPointStop  offset="0.0899" style="stop-color:#1878AD"/>
			<a:midPointStop  offset="0.5" style="stop-color:#1878AD"/>
			<a:midPointStop  offset="0.2135" style="stop-color:#194D91"/>
			<a:midPointStop  offset="0.5" style="stop-color:#194D91"/>
			<a:midPointStop  offset="0.6404" style="stop-color:#2B90BD"/>
			<a:midPointStop  offset="0.5" style="stop-color:#2B90BD"/>
			<a:midPointStop  offset="0.9438" style="stop-color:#82CBDE"/>
			<a:midPointStop  offset="0.5" style="stop-color:#82CBDE"/>
			<a:midPointStop  offset="1" style="stop-color:#1A478D"/>
		</linearGradient>
		<path i:isolated="yes" i:knockout="Off" opacity="0.1" fill="url(#XMLID_4_)" enable-background="new    " d="M84.888,125.882
			c0,4.344-3.314,7.869-7.398,7.869H10.144c-4.086,0-7.4-3.523-7.4-7.869V35.654c0-4.347,3.314-7.87,7.4-7.87H77.49
			c4.084,0,7.398,3.523,7.398,7.87L84.888,125.882L84.888,125.882z"/>
		<path fill="none" stroke="#4D4D4D" stroke-width="0.977" d="M85.357,35.633V10.671c0-5.149-3.352-9.325-7.482-9.325H9.755
			c-4.131,0-7.481,4.175-7.481,9.325v115.21c0,4.346,3.352,7.869,7.483,7.869h68.118c4.13,0,7.482-3.525,7.482-7.869l0.001-90.228
			C85.358,35.647,85.357,35.64,85.357,35.633z"/>
	</g>
	<g i:knockout="Off">
		<circle fill="#FFFFFF" cx="31.45" cy="53.071" r="10.771"/>
		<path fill="#1D8F38" d="M31.45,42.299c-5.947,0-10.771,4.822-10.771,10.772c0,5.948,4.824,10.771,10.771,10.771
			c5.949,0,10.771-4.823,10.771-10.771C42.222,47.122,37.399,42.299,31.45,42.299z M31.45,60.307c-3.998,0-7.236-3.239-7.236-7.235
			c0-3.997,3.238-7.236,7.236-7.236c3.996,0,7.234,3.239,7.234,7.236C38.685,57.068,35.446,60.307,31.45,60.307z M31.45,47.858
			c-2.879,0-5.213,2.334-5.213,5.213c0,2.879,2.334,5.213,5.213,5.213c2.879,0,5.211-2.334,5.211-5.213
			C36.661,50.192,34.329,47.858,31.45,47.858z M31.45,56.417c-1.85,0-3.348-1.499-3.348-3.347c0-1.848,1.498-3.347,3.348-3.347
			c1.848,0,3.346,1.499,3.346,3.347C34.796,54.918,33.298,56.417,31.45,56.417z M31.45,51.627c-0.797,0-1.443,0.646-1.443,1.443
			c0,0.797,0.646,1.441,1.443,1.441c0.797,0,1.441-0.645,1.441-1.441S32.247,51.627,31.45,51.627z"/>
	</g>
	<g i:knockout="Off">
		<circle fill="#FFFFFF" cx="54.229" cy="53.071" r="10.771"/>
		<path fill="#1D8F38" d="M54.229,42.298c-5.947,0-10.771,4.823-10.771,10.773c0,5.948,4.824,10.772,10.771,10.772
			c5.948,0,10.771-4.824,10.771-10.772C64.999,47.122,60.177,42.298,54.229,42.298z M54.229,60.307
			c-3.996,0-7.236-3.239-7.236-7.235c0-3.997,3.24-7.237,7.236-7.237c3.995,0,7.233,3.24,7.233,7.237
			C61.462,57.068,58.224,60.307,54.229,60.307z M54.229,47.858c-2.88,0-5.214,2.334-5.214,5.213c0,2.879,2.334,5.213,5.214,5.213
			c2.879,0,5.211-2.334,5.211-5.213C59.439,50.192,57.106,47.858,54.229,47.858z M54.229,56.417c-1.849,0-3.347-1.499-3.347-3.347
			c0-1.848,1.498-3.347,3.347-3.347c1.85,0,3.348,1.499,3.348,3.347C57.576,54.918,56.077,56.417,54.229,56.417z M54.229,51.627
			c-0.796,0-1.443,0.646-1.443,1.443c0,0.797,0.647,1.441,1.443,1.441c0.797,0,1.442-0.645,1.442-1.441S55.024,51.627,54.229,51.627
			z"/>
	</g>
	<g i:knockout="Off">
		<circle fill="#FFFFFF" cx="31.45" cy="90.548" r="10.771"/>
		<path fill="#D90000" d="M31.45,79.771c-5.947,0-10.771,4.824-10.771,10.773s4.824,10.773,10.771,10.773
			c5.949,0,10.771-4.824,10.771-10.773S37.399,79.771,31.45,79.771z M31.45,97.782c-3.998,0-7.236-3.24-7.236-7.236
			c0-3.994,3.238-7.236,7.236-7.236c3.996,0,7.234,3.242,7.234,7.236C38.685,94.542,35.446,97.782,31.45,97.782z M31.45,85.333
			c-2.879,0-5.213,2.334-5.213,5.213s2.334,5.213,5.213,5.213c2.879,0,5.211-2.334,5.211-5.213S34.329,85.333,31.45,85.333z
			 M31.45,93.894c-1.85,0-3.348-1.5-3.348-3.348S29.601,87.2,31.45,87.2c1.848,0,3.346,1.498,3.346,3.346
			S33.298,93.894,31.45,93.894z M31.45,89.103c-0.797,0-1.443,0.646-1.443,1.443s0.646,1.441,1.443,1.441
			c0.797,0,1.441-0.646,1.441-1.441S32.247,89.103,31.45,89.103z"/>
	</g>
	<g i:knockout="Off">
		<circle fill="#FFFFFF" cx="54.229" cy="90.548" r="10.771"/>
		<path fill="#D90000" d="M54.229,79.771c-5.947,0-10.771,4.824-10.771,10.773s4.824,10.773,10.771,10.773
			c5.948,0,10.771-4.824,10.771-10.773S60.177,79.771,54.229,79.771z M54.229,97.782c-3.996,0-7.236-3.238-7.236-7.236
			c0-3.996,3.24-7.236,7.236-7.236c3.995,0,7.233,3.24,7.233,7.236C61.462,94.544,58.224,97.782,54.229,97.782z M54.229,85.333
			c-2.88,0-5.214,2.334-5.214,5.213s2.334,5.213,5.214,5.213c2.879,0,5.211-2.334,5.211-5.213S57.106,85.333,54.229,85.333z
			 M54.229,93.894c-1.849,0-3.347-1.5-3.347-3.348S52.38,87.2,54.229,87.2c1.85,0,3.348,1.498,3.348,3.346
			S56.077,93.894,54.229,93.894z M54.229,89.103c-0.796,0-1.443,0.646-1.443,1.443s0.647,1.441,1.443,1.441
			c0.797,0,1.442-0.646,1.442-1.441S55.024,89.103,54.229,89.103z"/>
	</g>
	<g i:knockout="Off">
		<circle fill="#FFFFFF" cx="31.45" cy="112.524" r="10.771"/>
		<path fill="#D90000" d="M31.45,101.751c-5.947,0-10.771,4.824-10.771,10.773c0,5.946,4.824,10.771,10.771,10.771
			c5.949,0,10.771-4.824,10.771-10.771C42.222,106.575,37.399,101.751,31.45,101.751z M31.45,119.759
			c-3.998,0-7.236-3.238-7.236-7.233c0-3.996,3.238-7.236,7.236-7.236c3.996,0,7.234,3.24,7.234,7.236
			C38.684,116.521,35.446,119.759,31.45,119.759z M31.45,107.31c-2.879,0-5.213,2.334-5.213,5.213c0,2.88,2.334,5.214,5.213,5.214
			c2.879,0,5.211-2.334,5.211-5.214C36.661,109.644,34.329,107.31,31.45,107.31z M31.45,115.87c-1.85,0-3.348-1.5-3.348-3.349
			c0-1.848,1.498-3.346,3.348-3.346c1.848,0,3.346,1.498,3.346,3.346C34.796,114.37,33.298,115.87,31.45,115.87z M31.45,111.079
			c-0.797,0-1.443,0.646-1.443,1.442c0,0.798,0.646,1.443,1.443,1.443c0.797,0,1.441-0.646,1.441-1.443
			C32.891,111.725,32.247,111.079,31.45,111.079z"/>
	</g>
	<g i:knockout="Off">
		<circle fill="#FFFFFF" cx="54.229" cy="112.524" r="10.771"/>
		<path fill="#D90000" d="M54.229,101.751c-5.947,0-10.771,4.824-10.771,10.773c0,5.946,4.824,10.771,10.771,10.771
			c5.948,0,10.771-4.824,10.771-10.771C64.999,106.575,60.177,101.751,54.229,101.751z M54.229,119.759
			c-3.996,0-7.236-3.238-7.236-7.233c0-3.998,3.24-7.236,7.236-7.236c3.995,0,7.233,3.238,7.233,7.236
			C61.462,116.521,58.224,119.759,54.229,119.759z M54.229,107.31c-2.88,0-5.214,2.334-5.214,5.213c0,2.88,2.334,5.214,5.214,5.214
			c2.879,0,5.211-2.334,5.211-5.214C59.439,109.644,57.106,107.31,54.229,107.31z M54.229,115.87c-1.849,0-3.347-1.5-3.347-3.349
			c0-1.848,1.498-3.346,3.347-3.346c1.85,0,3.348,1.498,3.348,3.346C57.576,114.37,56.077,115.87,54.229,115.87z M54.229,111.079
			c-0.796,0-1.443,0.646-1.443,1.442c0,0.798,0.647,1.443,1.443,1.443c0.797,0,1.442-0.646,1.442-1.443
			C55.671,111.725,55.024,111.079,54.229,111.079z"/>
	</g>
</g>
</svg>
