<?xml version="1.0" encoding="utf-8"?>
<!-- Generator: Adobe Illustrator 12.0.0, SVG Export Plug-In . SVG Version: 6.00 Build 51448)  -->
<!DOCTYPE svg PUBLIC "-//W3C//DTD SVG 1.1//EN" "http://www.w3.org/Graphics/SVG/1.1/DTD/svg11.dtd" [
	<!ENTITY ns_flows "http://ns.adobe.com/Flows/1.0/">
	<!ENTITY ns_extend "http://ns.adobe.com/Extensibility/1.0/">
	<!ENTITY ns_ai "http://ns.adobe.com/AdobeIllustrator/10.0/">
	<!ENTITY ns_graphs "http://ns.adobe.com/Graphs/1.0/">
	<!ENTITY ns_vars "http://ns.adobe.com/Variables/1.0/">
	<!ENTITY ns_imrep "http://ns.adobe.com/ImageReplacement/1.0/">
	<!ENTITY ns_sfw "http://ns.adobe.com/SaveForWeb/1.0/">
	<!ENTITY ns_custom "http://ns.adobe.com/GenericCustomNamespace/1.0/">
	<!ENTITY ns_adobe_xpath "http://ns.adobe.com/XPath/1.0/">
	<!ENTITY ns_svg "http://www.w3.org/2000/svg">
	<!ENTITY ns_xlink "http://www.w3.org/1999/xlink">
]>
<svg  version="1.1"
	 xmlns:x="&ns_extend;" xmlns:i="&ns_ai;" xmlns:graph="&ns_graphs;" i:viewOrigin="-0.3193 135.7061" i:rulerOrigin="0 0" i:pageBounds="0 136 85 0"
	 xmlns="&ns_svg;" xmlns:xlink="&ns_xlink;" xmlns:a="http://ns.adobe.com/AdobeSVGViewerExtensions/3.0/"
	 width="85.678" height="136.025" viewBox="0 0 85.678 136.025" overflow="visible" enable-background="new 0 0 85.678 136.025"
	 xml:space="preserve">
<metadata>
	<variableSets  xmlns="http://ns.adobe.com/Variables/1.0/">
		<variableSet  varSetName="binding1" locked="none">
			<variables></variables>
			<v:sampleDataSets  xmlns:v="http://ns.adobe.com/Variables/1.0/" xmlns="http://ns.adobe.com/GenericCustomNamespace/1.0/">
				</v:sampleDataSets>
		</variableSet>
	</variableSets>
</metadata>
<g id="图层_1" i:knockout="Off" i:layer="yes" i:dimmedPercent="50" i:rgbTrio="#4F008000FFFF">
	<g>
		<path fill="#333333" d="M83.403,37.587V12.625c0-5.149-3.352-9.325-7.481-9.325H7.804c-4.133,0-7.484,4.175-7.484,9.325h0.002
			v115.211c0,4.344,3.351,7.869,7.482,7.869h68.118c4.131,0,7.481-3.525,7.481-7.869h0.002V37.608
			C83.405,37.601,83.403,37.594,83.403,37.587z"/>
		
			<linearGradient id="XMLID_3_" gradientUnits="userSpaceOnUse" x1="-23.3101" y1="112.9883" x2="-23.3101" y2="-12.5781" gradientTransform="matrix(-1 0 0 -1 20.5059 114.334)">
			<stop  offset="0.0899" style="stop-color:#2089B9"/>
			<stop  offset="0.0985" style="stop-color:#4FA3C2"/>
			<stop  offset="0.1071" style="stop-color:#77B9CA"/>
			<stop  offset="0.1138" style="stop-color:#8FC7CF"/>
			<stop  offset="0.118" style="stop-color:#98CCD1"/>
			<stop  offset="0.1341" style="stop-color:#9ECFD3"/>
			<stop  offset="0.156" style="stop-color:#AFD6D9"/>
			<stop  offset="0.1809" style="stop-color:#CBE1E3"/>
			<stop  offset="0.1966" style="stop-color:#E1EAEB"/>
			<a:midPointStop  offset="0.0899" style="stop-color:#2089B9"/>
			<a:midPointStop  offset="0.4" style="stop-color:#2089B9"/>
			<a:midPointStop  offset="0.118" style="stop-color:#98CCD1"/>
			<a:midPointStop  offset="0.6429" style="stop-color:#98CCD1"/>
			<a:midPointStop  offset="0.1966" style="stop-color:#E1EAEB"/>
		</linearGradient>
		<path fill="url(#XMLID_3_)" d="M2.273,10.671c0-5.15,3.351-9.325,7.481-9.325h68.12c4.131,0,7.482,4.176,7.482,9.325v106.916
			c0,5.148-3.353,9.326-7.482,9.326H9.757c-4.132,0-7.483-4.176-7.483-9.326V10.671L2.273,10.671z"/>
		<path fill="none" stroke="#333333" stroke-width="0.977" d="M2.273,10.671c0-5.15,3.351-9.325,7.481-9.325h68.12
			c4.131,0,7.482,4.176,7.482,9.325v106.916c0,5.148-3.353,9.326-7.482,9.326H9.757c-4.132,0-7.483-4.176-7.483-9.326V10.671
			L2.273,10.671z"/>
		<path fill="#FFFFFF" d="M85.357,125.882c0,4.344-3.353,7.869-7.482,7.869H9.757c-4.132,0-7.483-3.523-7.483-7.869V35.654
			c0-4.347,3.352-7.87,7.483-7.87h68.119c4.131,0,7.482,3.523,7.482,7.87L85.357,125.882L85.357,125.882z"/>
		
			<linearGradient id="XMLID_4_" gradientUnits="userSpaceOnUse" x1="3.3818" y1="80.7676" x2="85.5273" y2="80.7676" gradientTransform="matrix(1 0 0 1 -0.6387 0)">
			<stop  offset="0" style="stop-color:#A2D8E0"/>
			<stop  offset="0.0899" style="stop-color:#1878AD"/>
			<stop  offset="0.2135" style="stop-color:#194D91"/>
			<stop  offset="0.6404" style="stop-color:#2B90BD"/>
			<stop  offset="0.9438" style="stop-color:#82CBDE"/>
			<stop  offset="1" style="stop-color:#1A478D"/>
			<a:midPointStop  offset="0" style="stop-color:#A2D8E0"/>
			<a:midPointStop  offset="0.5" style="stop-color:#A2D8E0"/>
			<a:midPointStop  offset="0.0899" style="stop-color:#1878AD"/>
			<a:midPointStop  offset="0.5" style="stop-color:#1878AD"/>
			<a:midPointStop  offset="0.2135" style="stop-color:#194D91"/>
			<a:midPointStop  offset="0.5" style="stop-color:#194D91"/>
			<a:midPointStop  offset="0.6404" style="stop-color:#2B90BD"/>
			<a:midPointStop  offset="0.5" style="stop-color:#2B90BD"/>
			<a:midPointStop  offset="0.9438" style="stop-color:#82CBDE"/>
			<a:midPointStop  offset="0.5" style="stop-color:#82CBDE"/>
			<a:midPointStop  offset="1" style="stop-color:#1A478D"/>
		</linearGradient>
		<path i:isolated="yes" i:knockout="Off" opacity="0.1" fill="url(#XMLID_4_)" enable-background="new    " d="M84.888,125.882
			c0,4.344-3.314,7.869-7.398,7.869H10.144c-4.086,0-7.4-3.523-7.4-7.869V35.654c0-4.347,3.314-7.87,7.4-7.87H77.49
			c4.084,0,7.398,3.523,7.398,7.87L84.888,125.882L84.888,125.882z"/>
		<path fill="none" stroke="#4D4D4D" stroke-width="0.977" d="M85.357,35.633V10.671c0-5.149-3.352-9.325-7.482-9.325H9.755
			c-4.131,0-7.481,4.175-7.481,9.325v115.21c0,4.346,3.352,7.869,7.483,7.869h68.118c4.13,0,7.482-3.525,7.482-7.869l0.001-90.228
			C85.358,35.647,85.357,35.64,85.357,35.633z"/>
	</g>
	<circle fill="#FFFFFF" cx="23.741" cy="52.821" r="10.771"/>
	<circle fill="#FFFFFF" cx="42.658" cy="60.972" r="10.771"/>
	<circle fill="#FFFFFF" cx="61.938" cy="67.75" r="10.771"/>
	<circle fill="#FFFFFF" cx="31.674" cy="91.979" r="10.771"/>
	<circle fill="#FFFFFF" cx="53.283" cy="91.979" r="10.771"/>
	<circle fill="#FFFFFF" cx="31.674" cy="112.774" r="10.771"/>
	<circle fill="#FFFFFF" cx="53.283" cy="112.774" r="10.771"/>
	<path fill="#D90000" d="M31.673,81.206c-5.948,0-10.771,4.824-10.771,10.772c0,5.949,4.822,10.771,10.771,10.771
		c5.949,0,10.772-4.822,10.772-10.771C42.445,86.03,37.621,81.206,31.673,81.206z M31.673,99.216c-3.996,0-7.235-3.24-7.235-7.236
		c0-3.995,3.239-7.235,7.235-7.235c3.996,0,7.235,3.24,7.235,7.235C38.908,95.976,35.669,99.216,31.673,99.216z M31.673,86.765
		c-2.878,0-5.212,2.334-5.212,5.215c0,2.88,2.334,5.214,5.212,5.214c2.88,0,5.214-2.334,5.214-5.214
		C36.887,89.099,34.553,86.765,31.673,86.765z M31.673,95.325c-1.847,0-3.347-1.498-3.347-3.347c0-1.85,1.5-3.348,3.347-3.348
		c1.849,0,3.347,1.498,3.347,3.348C35.02,93.827,33.521,95.325,31.673,95.325z M31.673,90.534c-0.797,0-1.442,0.646-1.442,1.444
		c0,0.798,0.646,1.441,1.442,1.441c0.796,0,1.441-0.645,1.441-1.441C33.114,91.181,32.47,90.534,31.673,90.534z"/>
	<path fill="#D90000" d="M53.282,81.206c-5.948,0-10.771,4.824-10.771,10.772c0,5.949,4.822,10.771,10.771,10.771
		s10.771-4.822,10.771-10.771C64.054,86.03,59.23,81.206,53.282,81.206z M53.282,99.216c-3.996,0-7.235-3.24-7.235-7.236
		c0-3.995,3.239-7.235,7.235-7.235s7.234,3.24,7.234,7.235C60.517,95.976,57.278,99.216,53.282,99.216z M53.282,86.765
		c-2.878,0-5.212,2.334-5.212,5.215c0,2.88,2.334,5.214,5.212,5.214c2.88,0,5.214-2.334,5.214-5.214
		C58.496,89.099,56.162,86.765,53.282,86.765z M53.282,95.325c-1.848,0-3.348-1.498-3.348-3.347c0-1.85,1.5-3.348,3.348-3.348
		c1.849,0,3.347,1.498,3.347,3.348C56.629,93.827,55.131,95.325,53.282,95.325z M53.282,90.534c-0.797,0-1.442,0.646-1.442,1.444
		c0,0.798,0.646,1.441,1.442,1.441s1.44-0.645,1.44-1.441C54.724,91.181,54.079,90.534,53.282,90.534z"/>
	<path fill="#D90000" d="M31.673,102.003c-5.948,0-10.771,4.822-10.771,10.771c0,5.948,4.822,10.771,10.771,10.771
		c5.949,0,10.772-4.822,10.772-10.771C42.445,106.825,37.621,102.003,31.673,102.003z M31.673,120.011
		c-3.996,0-7.235-3.237-7.235-7.235c0-3.996,3.239-7.236,7.235-7.236c3.996,0,7.235,3.24,7.235,7.236S35.669,120.011,31.673,120.011
		z M31.673,107.562c-2.878,0-5.212,2.334-5.212,5.214c0,2.879,2.334,5.213,5.212,5.213c2.88,0,5.214-2.334,5.214-5.213
		C36.887,109.896,34.553,107.562,31.673,107.562z M31.673,116.12c-1.847,0-3.347-1.498-3.347-3.346c0-1.849,1.5-3.349,3.347-3.349
		c1.849,0,3.347,1.5,3.347,3.349C35.02,114.622,33.521,116.12,31.673,116.12z M31.673,111.331c-0.797,0-1.442,0.645-1.442,1.443
		c0,0.797,0.646,1.44,1.442,1.44c0.796,0,1.441-0.645,1.441-1.44C33.114,111.976,32.47,111.331,31.673,111.331z"/>
	<path fill="#D90000" d="M53.282,102.003c-5.948,0-10.771,4.822-10.771,10.771c0,5.948,4.822,10.771,10.771,10.771
		s10.771-4.822,10.771-10.771C64.054,106.825,59.23,102.003,53.282,102.003z M53.282,120.011c-3.996,0-7.235-3.237-7.235-7.235
		c0-3.996,3.239-7.236,7.235-7.236s7.234,3.24,7.234,7.236C60.518,116.771,57.278,120.011,53.282,120.011z M53.282,107.562
		c-2.878,0-5.212,2.334-5.212,5.214c0,2.879,2.334,5.213,5.212,5.213c2.88,0,5.214-2.334,5.214-5.213
		C58.496,109.896,56.162,107.562,53.282,107.562z M53.282,116.12c-1.848,0-3.348-1.498-3.348-3.346c0-1.849,1.5-3.349,3.348-3.349
		c1.849,0,3.347,1.5,3.347,3.349C56.629,114.622,55.131,116.12,53.282,116.12z M53.282,111.331c-0.797,0-1.442,0.645-1.442,1.443
		c0,0.797,0.646,1.44,1.442,1.44s1.44-0.645,1.44-1.44C54.724,111.976,54.079,111.331,53.282,111.331z"/>
	<path fill="#1D8F38" d="M27.377,42.686c-5.598-2.009-11.763,0.9-13.772,6.5c-2.007,5.598,0.902,11.764,6.499,13.771
		c5.598,2.008,11.765-0.9,13.774-6.498C35.887,50.86,32.974,44.694,27.377,42.686z M30.548,55.266
		c-1.349,3.76-5.49,5.714-9.251,4.365c-3.759-1.35-5.714-5.492-4.364-9.252c1.349-3.76,5.49-5.717,9.251-4.367
		C29.945,47.362,31.897,51.506,30.548,55.266z M25.5,47.917c-2.708-0.971-5.69,0.438-6.663,3.145
		c-0.973,2.71,0.435,5.693,3.144,6.665c2.71,0.974,5.694-0.435,6.667-3.146C29.618,51.874,28.211,48.889,25.5,47.917z
		 M26.891,53.952c-0.626,1.738-2.54,2.643-4.279,2.018c-1.739-0.623-2.645-2.539-2.02-4.279c0.624-1.738,2.54-2.643,4.279-2.018
		C26.61,50.296,27.514,52.212,26.891,53.952z M24.228,51.463c-0.748-0.268-1.574,0.121-1.843,0.87
		c-0.27,0.749,0.119,1.575,0.87,1.844c0.748,0.269,1.574-0.12,1.843-0.87C25.365,52.558,24.977,51.733,24.228,51.463z"/>
	<path fill="#1D8F38" d="M46.295,50.836c-5.598-2.008-11.763,0.9-13.772,6.5c-2.01,5.598,0.899,11.764,6.497,13.772
		c5.598,2.01,11.767-0.898,13.774-6.498C54.804,59.012,51.893,52.845,46.295,50.836z M49.466,63.417
		c-1.351,3.76-5.492,5.715-9.253,4.365c-3.759-1.349-5.713-5.491-4.364-9.252c1.348-3.76,5.492-5.715,9.25-4.365
		C48.86,55.512,50.814,59.657,49.466,63.417z M44.416,56.069c-2.706-0.973-5.69,0.436-6.661,3.143
		c-0.973,2.711,0.435,5.695,3.143,6.666c2.711,0.973,5.693-0.436,6.667-3.146C48.534,60.024,47.127,57.04,44.416,56.069z
		 M45.807,62.102c-0.624,1.74-2.54,2.643-4.279,2.02c-1.737-0.624-2.643-2.54-2.018-4.279c0.622-1.738,2.54-2.643,4.277-2.02
		C45.528,58.447,46.432,60.364,45.807,62.102z M43.144,59.616c-0.748-0.27-1.574,0.12-1.843,0.869
		c-0.268,0.75,0.121,1.574,0.87,1.844c0.75,0.269,1.574-0.121,1.845-0.87C44.283,60.709,43.896,59.883,43.144,59.616z"/>
	<path fill="#1D8F38" d="M65.574,57.614c-5.599-2.009-11.764,0.9-13.772,6.5c-2.01,5.598,0.901,11.764,6.497,13.772
		c5.601,2.01,11.768-0.899,13.774-6.496C74.083,65.79,71.172,59.622,65.574,57.614z M68.745,70.194
		c-1.35,3.76-5.49,5.715-9.253,4.364c-3.759-1.35-5.713-5.491-4.364-9.251c1.351-3.76,5.492-5.715,9.253-4.367
		C68.14,62.29,70.096,66.433,68.745,70.194z M63.698,62.844c-2.709-0.972-5.693,0.437-6.664,3.145
		c-0.975,2.711,0.435,5.696,3.143,6.667c2.711,0.973,5.695-0.437,6.666-3.146C67.814,66.801,66.406,63.817,63.698,62.844z
		 M65.086,68.88c-0.624,1.74-2.538,2.643-4.279,2.018c-1.736-0.622-2.643-2.539-2.018-4.277c0.622-1.738,2.54-2.645,4.279-2.02
		C64.808,65.224,65.709,67.141,65.086,68.88z M62.425,66.391c-0.75-0.268-1.576,0.122-1.845,0.871
		c-0.268,0.75,0.121,1.575,0.87,1.845c0.75,0.27,1.576-0.121,1.845-0.873C63.562,67.487,63.174,66.661,62.425,66.391z"/>
</g>
</svg>
