<?xml version="1.0" encoding="utf-8"?>
<!-- Generator: Adobe Illustrator 12.0.0, SVG Export Plug-In . SVG Version: 6.00 Build 51448)  -->
<!DOCTYPE svg PUBLIC "-//W3C//DTD SVG 1.1//EN" "http://www.w3.org/Graphics/SVG/1.1/DTD/svg11.dtd" [
	<!ENTITY ns_flows "http://ns.adobe.com/Flows/1.0/">
	<!ENTITY ns_extend "http://ns.adobe.com/Extensibility/1.0/">
	<!ENTITY ns_ai "http://ns.adobe.com/AdobeIllustrator/10.0/">
	<!ENTITY ns_graphs "http://ns.adobe.com/Graphs/1.0/">
	<!ENTITY ns_vars "http://ns.adobe.com/Variables/1.0/">
	<!ENTITY ns_imrep "http://ns.adobe.com/ImageReplacement/1.0/">
	<!ENTITY ns_sfw "http://ns.adobe.com/SaveForWeb/1.0/">
	<!ENTITY ns_custom "http://ns.adobe.com/GenericCustomNamespace/1.0/">
	<!ENTITY ns_adobe_xpath "http://ns.adobe.com/XPath/1.0/">
	<!ENTITY ns_svg "http://www.w3.org/2000/svg">
	<!ENTITY ns_xlink "http://www.w3.org/1999/xlink">
]>
<svg  version="1.1"
	 xmlns:x="&ns_extend;" xmlns:i="&ns_ai;" xmlns:graph="&ns_graphs;" i:viewOrigin="-0.3193 135.7061" i:rulerOrigin="0 0" i:pageBounds="0 136 85 0"
	 xmlns="&ns_svg;" xmlns:xlink="&ns_xlink;" xmlns:a="http://ns.adobe.com/AdobeSVGViewerExtensions/3.0/"
	 width="85.678" height="136.025" viewBox="0 0 85.678 136.025" overflow="visible" enable-background="new 0 0 85.678 136.025"
	 xml:space="preserve">
<metadata>
	<variableSets  xmlns="http://ns.adobe.com/Variables/1.0/">
		<variableSet  varSetName="binding1" locked="none">
			<variables></variables>
			<v:sampleDataSets  xmlns:v="http://ns.adobe.com/Variables/1.0/" xmlns="http://ns.adobe.com/GenericCustomNamespace/1.0/">
				</v:sampleDataSets>
		</variableSet>
	</variableSets>
</metadata>
<g id="图层_1" i:knockout="Off" i:layer="yes" i:dimmedPercent="50" i:rgbTrio="#4F008000FFFF">
	<g>
		<path fill="#333333" d="M83.403,37.587V12.625c0-5.149-3.352-9.325-7.481-9.325H7.804c-4.133,0-7.484,4.175-7.484,9.325h0.002
			v115.211c0,4.344,3.351,7.869,7.482,7.869h68.118c4.131,0,7.481-3.525,7.481-7.869h0.002V37.608
			C83.405,37.601,83.403,37.594,83.403,37.587z"/>
		
			<linearGradient id="XMLID_3_" gradientUnits="userSpaceOnUse" x1="-23.3101" y1="112.9883" x2="-23.3101" y2="-12.5781" gradientTransform="matrix(-1 0 0 -1 20.5059 114.334)">
			<stop  offset="0.0899" style="stop-color:#2089B9"/>
			<stop  offset="0.0985" style="stop-color:#4FA3C2"/>
			<stop  offset="0.1071" style="stop-color:#77B9CA"/>
			<stop  offset="0.1138" style="stop-color:#8FC7CF"/>
			<stop  offset="0.118" style="stop-color:#98CCD1"/>
			<stop  offset="0.1341" style="stop-color:#9ECFD3"/>
			<stop  offset="0.156" style="stop-color:#AFD6D9"/>
			<stop  offset="0.1809" style="stop-color:#CBE1E3"/>
			<stop  offset="0.1966" style="stop-color:#E1EAEB"/>
			<a:midPointStop  offset="0.0899" style="stop-color:#2089B9"/>
			<a:midPointStop  offset="0.4" style="stop-color:#2089B9"/>
			<a:midPointStop  offset="0.118" style="stop-color:#98CCD1"/>
			<a:midPointStop  offset="0.6429" style="stop-color:#98CCD1"/>
			<a:midPointStop  offset="0.1966" style="stop-color:#E1EAEB"/>
		</linearGradient>
		<path fill="url(#XMLID_3_)" d="M2.273,10.671c0-5.15,3.351-9.325,7.481-9.325h68.12c4.131,0,7.482,4.176,7.482,9.325v106.916
			c0,5.148-3.353,9.326-7.482,9.326H9.757c-4.132,0-7.483-4.176-7.483-9.326V10.671L2.273,10.671z"/>
		<path fill="none" stroke="#333333" stroke-width="0.977" d="M2.273,10.671c0-5.15,3.351-9.325,7.481-9.325h68.12
			c4.131,0,7.482,4.176,7.482,9.325v106.916c0,5.148-3.353,9.326-7.482,9.326H9.757c-4.132,0-7.483-4.176-7.483-9.326V10.671
			L2.273,10.671z"/>
		<path fill="#FFFFFF" d="M85.357,125.882c0,4.344-3.353,7.869-7.482,7.869H9.757c-4.132,0-7.483-3.523-7.483-7.869V35.654
			c0-4.347,3.352-7.87,7.483-7.87h68.119c4.131,0,7.482,3.523,7.482,7.87L85.357,125.882L85.357,125.882z"/>
		
			<linearGradient id="XMLID_4_" gradientUnits="userSpaceOnUse" x1="3.3818" y1="80.7676" x2="85.5273" y2="80.7676" gradientTransform="matrix(1 0 0 1 -0.6387 0)">
			<stop  offset="0" style="stop-color:#A2D8E0"/>
			<stop  offset="0.0899" style="stop-color:#1878AD"/>
			<stop  offset="0.2135" style="stop-color:#194D91"/>
			<stop  offset="0.6404" style="stop-color:#2B90BD"/>
			<stop  offset="0.9438" style="stop-color:#82CBDE"/>
			<stop  offset="1" style="stop-color:#1A478D"/>
			<a:midPointStop  offset="0" style="stop-color:#A2D8E0"/>
			<a:midPointStop  offset="0.5" style="stop-color:#A2D8E0"/>
			<a:midPointStop  offset="0.0899" style="stop-color:#1878AD"/>
			<a:midPointStop  offset="0.5" style="stop-color:#1878AD"/>
			<a:midPointStop  offset="0.2135" style="stop-color:#194D91"/>
			<a:midPointStop  offset="0.5" style="stop-color:#194D91"/>
			<a:midPointStop  offset="0.6404" style="stop-color:#2B90BD"/>
			<a:midPointStop  offset="0.5" style="stop-color:#2B90BD"/>
			<a:midPointStop  offset="0.9438" style="stop-color:#82CBDE"/>
			<a:midPointStop  offset="0.5" style="stop-color:#82CBDE"/>
			<a:midPointStop  offset="1" style="stop-color:#1A478D"/>
		</linearGradient>
		<path i:isolated="yes" i:knockout="Off" opacity="0.1" fill="url(#XMLID_4_)" enable-background="new    " d="M84.888,125.882
			c0,4.344-3.314,7.869-7.398,7.869H10.144c-4.086,0-7.4-3.523-7.4-7.869V35.654c0-4.347,3.314-7.87,7.4-7.87H77.49
			c4.084,0,7.398,3.523,7.398,7.87L84.888,125.882L84.888,125.882z"/>
		<path fill="none" stroke="#4D4D4D" stroke-width="0.977" d="M85.357,35.633V10.671c0-5.149-3.352-9.325-7.482-9.325H9.755
			c-4.131,0-7.481,4.175-7.481,9.325v115.21c0,4.346,3.352,7.869,7.483,7.869h68.118c4.13,0,7.482-3.525,7.482-7.869l0.001-90.228
			C85.358,35.647,85.357,35.64,85.357,35.633z"/>
	</g>
	<circle fill="#FFFFFF" cx="31.673" cy="54.011" r="10.771"/>
	<circle fill="#FFFFFF" cx="54.005" cy="54.011" r="10.771"/>
	<circle fill="#FFFFFF" cx="31.673" cy="73.202" r="10.771"/>
	<circle fill="#FFFFFF" cx="54.005" cy="73.202" r="10.771"/>
	<circle fill="#FFFFFF" cx="31.673" cy="92.394" r="10.771"/>
	<circle fill="#FFFFFF" cx="54.005" cy="92.394" r="10.771"/>
	<circle fill="#FFFFFF" cx="31.673" cy="111.585" r="10.771"/>
	<circle fill="#FFFFFF" cx="54.005" cy="111.585" r="10.771"/>
	<path fill="#224899" d="M31.673,43.237c-5.949,0-10.771,4.824-10.771,10.773c0,5.949,4.822,10.773,10.771,10.773
		c5.949,0,10.771-4.824,10.771-10.773C42.444,48.061,37.622,43.237,31.673,43.237z M31.673,61.247c-3.996,0-7.236-3.239-7.236-7.236
		c0-3.996,3.24-7.236,7.236-7.236c3.996,0,7.236,3.24,7.236,7.236C38.909,58.007,35.669,61.247,31.673,61.247z M31.673,48.797
		c-2.881,0-5.215,2.334-5.215,5.213c0,2.879,2.334,5.213,5.215,5.213c2.877,0,5.211-2.334,5.211-5.213
		C36.884,51.131,34.55,48.797,31.673,48.797z M31.673,57.356c-1.85,0-3.348-1.498-3.348-3.346c0-1.849,1.498-3.348,3.348-3.348
		c1.848,0,3.346,1.499,3.346,3.348C35.019,55.858,33.521,57.356,31.673,57.356z M31.673,52.567c-0.797,0-1.443,0.646-1.443,1.443
		c0,0.796,0.646,1.441,1.443,1.441c0.797,0,1.441-0.646,1.441-1.441C33.114,53.212,32.47,52.567,31.673,52.567z"/>
	<path fill="#224899" d="M54.005,43.239c-5.949,0-10.771,4.822-10.771,10.771c0,5.949,4.822,10.771,10.771,10.771
		c5.947,0,10.771-4.822,10.771-10.771C64.776,48.061,59.952,43.239,54.005,43.239z M54.005,61.247c-3.996,0-7.236-3.24-7.236-7.236
		c0-3.996,3.24-7.236,7.236-7.236s7.234,3.24,7.234,7.236C61.239,58.007,58.001,61.247,54.005,61.247z M54.005,48.797
		c-2.879,0-5.213,2.334-5.213,5.213c0,2.879,2.334,5.212,5.213,5.212s5.213-2.333,5.213-5.212
		C59.218,51.131,56.884,48.797,54.005,48.797z M54.005,57.356c-1.848,0-3.348-1.498-3.348-3.346c0-1.849,1.5-3.348,3.348-3.348
		c1.849,0,3.346,1.499,3.346,3.348C57.351,55.858,55.854,57.356,54.005,57.356z M54.005,52.567c-0.797,0-1.44,0.646-1.44,1.443
		c0,0.796,0.645,1.441,1.44,1.441s1.441-0.646,1.441-1.441C55.446,53.212,54.802,52.567,54.005,52.567z"/>
	<path fill="#224899" d="M31.673,62.428c-5.949,0-10.771,4.824-10.771,10.774c0,5.949,4.822,10.772,10.771,10.772
		c5.949,0,10.771-4.823,10.771-10.772C42.444,67.252,37.622,62.428,31.673,62.428z M31.673,80.438c-3.996,0-7.236-3.239-7.236-7.235
		s3.24-7.237,7.236-7.237c3.996,0,7.236,3.241,7.236,7.237S35.669,80.438,31.673,80.438z M31.673,67.989
		c-2.881,0-5.215,2.334-5.215,5.213s2.334,5.213,5.215,5.213c2.877,0,5.211-2.334,5.211-5.213S34.55,67.989,31.673,67.989z
		 M31.673,76.548c-1.85,0-3.348-1.498-3.348-3.346c0-1.851,1.498-3.349,3.348-3.349c1.848,0,3.346,1.498,3.346,3.349
		C35.019,75.05,33.521,76.548,31.673,76.548z M31.673,71.759c-0.797,0-1.443,0.646-1.443,1.443c0,0.795,0.646,1.44,1.443,1.44
		c0.797,0,1.441-0.646,1.441-1.44C33.114,72.403,32.47,71.759,31.673,71.759z"/>
	<path fill="#224899" d="M54.005,62.43c-5.949,0-10.771,4.822-10.771,10.772c0,5.949,4.822,10.771,10.771,10.771
		c5.947,0,10.771-4.821,10.771-10.771C64.776,67.252,59.952,62.43,54.005,62.43z M54.005,80.438c-3.996,0-7.236-3.239-7.236-7.235
		s3.24-7.237,7.236-7.237s7.234,3.241,7.234,7.237S58.001,80.438,54.005,80.438z M54.005,67.989c-2.879,0-5.213,2.334-5.213,5.213
		s2.334,5.211,5.213,5.211s5.213-2.332,5.213-5.211S56.884,67.989,54.005,67.989z M54.005,76.548c-1.848,0-3.348-1.498-3.348-3.346
		c0-1.851,1.5-3.349,3.348-3.349c1.849,0,3.346,1.498,3.346,3.349C57.351,75.05,55.854,76.548,54.005,76.548z M54.005,71.759
		c-0.797,0-1.44,0.646-1.44,1.443c0,0.795,0.645,1.44,1.44,1.44s1.441-0.646,1.441-1.44C55.446,72.403,54.802,71.759,54.005,71.759z
		"/>
	<path fill="#224899" d="M31.673,81.62c-5.949,0-10.771,4.824-10.771,10.772c0,5.949,4.822,10.773,10.771,10.773
		c5.949,0,10.771-4.824,10.771-10.773C42.444,86.444,37.622,81.62,31.673,81.62z M31.673,99.63c-3.996,0-7.236-3.24-7.236-7.236
		s3.24-7.235,7.236-7.235c3.996,0,7.236,3.239,7.236,7.235S35.669,99.63,31.673,99.63z M31.673,87.181
		c-2.881,0-5.215,2.334-5.215,5.213s2.334,5.214,5.215,5.214c2.877,0,5.211-2.335,5.211-5.214S34.55,87.181,31.673,87.181z
		 M31.673,95.739c-1.85,0-3.348-1.498-3.348-3.347c0-1.85,1.498-3.348,3.348-3.348c1.848,0,3.346,1.498,3.346,3.348
		C35.019,94.241,33.521,95.739,31.673,95.739z M31.673,90.95c-0.797,0-1.443,0.645-1.443,1.442s0.646,1.441,1.443,1.441
		c0.797,0,1.441-0.646,1.441-1.441C33.114,91.595,32.47,90.95,31.673,90.95z"/>
	<path fill="#224899" d="M54.005,81.622c-5.949,0-10.771,4.822-10.771,10.771c0,5.949,4.822,10.771,10.771,10.771
		c5.947,0,10.771-4.822,10.771-10.771C64.776,86.444,59.952,81.622,54.005,81.622z M54.005,99.63c-3.996,0-7.236-3.24-7.236-7.236
		s3.24-7.235,7.236-7.235s7.234,3.239,7.234,7.235S58.001,99.63,54.005,99.63z M54.005,87.181c-2.879,0-5.213,2.334-5.213,5.213
		s2.334,5.214,5.213,5.214s5.213-2.335,5.213-5.214S56.884,87.181,54.005,87.181z M54.005,95.739c-1.848,0-3.348-1.498-3.348-3.347
		c0-1.848,1.5-3.348,3.348-3.348c1.849,0,3.346,1.5,3.346,3.348C57.351,94.241,55.854,95.739,54.005,95.739z M54.005,90.95
		c-0.797,0-1.44,0.645-1.44,1.442s0.645,1.441,1.44,1.441s1.441-0.646,1.441-1.441C55.446,91.595,54.802,90.95,54.005,90.95z"/>
	<path fill="#224899" d="M31.673,100.812c-5.949,0-10.771,4.824-10.771,10.773s4.822,10.773,10.771,10.773
		c5.949,0,10.771-4.824,10.771-10.773S37.622,100.812,31.673,100.812z M31.673,118.821c-3.996,0-7.236-3.24-7.236-7.236
		s3.24-7.236,7.236-7.236c3.996,0,7.236,3.24,7.236,7.236S35.669,118.821,31.673,118.821z M31.673,106.372
		c-2.881,0-5.215,2.334-5.215,5.213s2.334,5.213,5.215,5.213c2.877,0,5.211-2.334,5.211-5.213S34.55,106.372,31.673,106.372z
		 M31.673,114.931c-1.85,0-3.348-1.498-3.348-3.346c0-1.85,1.498-3.348,3.348-3.348c1.848,0,3.346,1.498,3.346,3.348
		C35.019,113.433,33.521,114.931,31.673,114.931z M31.673,110.142c-0.797,0-1.443,0.646-1.443,1.443
		c0,0.797,0.646,1.441,1.443,1.441c0.797,0,1.441-0.646,1.441-1.441C33.114,110.786,32.47,110.142,31.673,110.142z"/>
	<path fill="#224899" d="M54.005,100.812c-5.949,0-10.771,4.822-10.771,10.771s4.822,10.771,10.771,10.771
		c5.947,0,10.771-4.821,10.771-10.771S59.952,100.812,54.005,100.812z M54.005,118.821c-3.996,0-7.236-3.24-7.236-7.236
		s3.24-7.236,7.236-7.236s7.234,3.24,7.234,7.236S58.001,118.821,54.005,118.821z M54.005,106.372c-2.879,0-5.213,2.334-5.213,5.213
		s2.334,5.213,5.213,5.213s5.213-2.334,5.213-5.213S56.884,106.372,54.005,106.372z M54.005,114.931
		c-1.848,0-3.348-1.498-3.348-3.346s1.5-3.348,3.348-3.348c1.849,0,3.346,1.5,3.346,3.348S55.854,114.931,54.005,114.931z
		 M54.005,110.142c-0.797,0-1.44,0.646-1.44,1.443c0,0.797,0.645,1.441,1.44,1.441s1.441-0.646,1.441-1.441
		C55.446,110.786,54.802,110.142,54.005,110.142z"/>
</g>
</svg>
