<?xml version="1.0" encoding="utf-8"?>
<!-- Generator: Adobe Illustrator 12.0.0, SVG Export Plug-In . SVG Version: 6.00 Build 51448)  -->
<!DOCTYPE svg PUBLIC "-//W3C//DTD SVG 1.1//EN" "http://www.w3.org/Graphics/SVG/1.1/DTD/svg11.dtd" [
	<!ENTITY ns_flows "http://ns.adobe.com/Flows/1.0/">
	<!ENTITY ns_extend "http://ns.adobe.com/Extensibility/1.0/">
	<!ENTITY ns_ai "http://ns.adobe.com/AdobeIllustrator/10.0/">
	<!ENTITY ns_graphs "http://ns.adobe.com/Graphs/1.0/">
	<!ENTITY ns_vars "http://ns.adobe.com/Variables/1.0/">
	<!ENTITY ns_imrep "http://ns.adobe.com/ImageReplacement/1.0/">
	<!ENTITY ns_sfw "http://ns.adobe.com/SaveForWeb/1.0/">
	<!ENTITY ns_custom "http://ns.adobe.com/GenericCustomNamespace/1.0/">
	<!ENTITY ns_adobe_xpath "http://ns.adobe.com/XPath/1.0/">
	<!ENTITY ns_svg "http://www.w3.org/2000/svg">
	<!ENTITY ns_xlink "http://www.w3.org/1999/xlink">
]>
<svg  version="1.1"
	 xmlns:x="&ns_extend;" xmlns:i="&ns_ai;" xmlns:graph="&ns_graphs;" i:viewOrigin="-0.3193 136.187" i:rulerOrigin="0 0" i:pageBounds="0 136 85 0"
	 xmlns="&ns_svg;" xmlns:xlink="&ns_xlink;" xmlns:a="http://ns.adobe.com/AdobeSVGViewerExtensions/3.0/"
	 width="85.678" height="136.025" viewBox="0 0 85.678 136.025" overflow="visible" enable-background="new 0 0 85.678 136.025"
	 xml:space="preserve">
<metadata>
	<variableSets  xmlns="http://ns.adobe.com/Variables/1.0/">
		<variableSet  varSetName="binding1" locked="none">
			<variables></variables>
			<v:sampleDataSets  xmlns:v="http://ns.adobe.com/Variables/1.0/" xmlns="http://ns.adobe.com/GenericCustomNamespace/1.0/">
				</v:sampleDataSets>
		</variableSet>
	</variableSets>
</metadata>
<g id="图层_1" i:knockout="Off" i:layer="yes" i:dimmedPercent="50" i:rgbTrio="#4F008000FFFF">
	<g>
		<path fill="#333333" d="M83.403,38.068V13.106c0-5.149-3.352-9.325-7.481-9.325H7.804c-4.133,0-7.484,4.175-7.484,9.325h0.002
			v115.211c0,4.344,3.351,7.869,7.482,7.869h68.118c4.131,0,7.481-3.525,7.481-7.869h0.002V38.089
			C83.405,38.082,83.403,38.075,83.403,38.068z"/>
		
			<linearGradient id="XMLID_3_" gradientUnits="userSpaceOnUse" x1="-23.3101" y1="113.4692" x2="-23.3101" y2="-12.0972" gradientTransform="matrix(-1 0 0 -1 20.5059 115.2959)">
			<stop  offset="0.0899" style="stop-color:#2089B9"/>
			<stop  offset="0.0985" style="stop-color:#4FA3C2"/>
			<stop  offset="0.1071" style="stop-color:#77B9CA"/>
			<stop  offset="0.1138" style="stop-color:#8FC7CF"/>
			<stop  offset="0.118" style="stop-color:#98CCD1"/>
			<stop  offset="0.1341" style="stop-color:#9ECFD3"/>
			<stop  offset="0.156" style="stop-color:#AFD6D9"/>
			<stop  offset="0.1809" style="stop-color:#CBE1E3"/>
			<stop  offset="0.1966" style="stop-color:#E1EAEB"/>
			<a:midPointStop  offset="0.0899" style="stop-color:#2089B9"/>
			<a:midPointStop  offset="0.4" style="stop-color:#2089B9"/>
			<a:midPointStop  offset="0.118" style="stop-color:#98CCD1"/>
			<a:midPointStop  offset="0.6429" style="stop-color:#98CCD1"/>
			<a:midPointStop  offset="0.1966" style="stop-color:#E1EAEB"/>
		</linearGradient>
		<path fill="url(#XMLID_3_)" d="M2.273,11.152c0-5.15,3.351-9.325,7.481-9.325h68.12c4.131,0,7.482,4.176,7.482,9.325v106.916
			c0,5.148-3.353,9.326-7.482,9.326H9.757c-4.132,0-7.483-4.176-7.483-9.326V11.152L2.273,11.152z"/>
		<path fill="none" stroke="#333333" stroke-width="0.977" d="M2.273,11.152c0-5.15,3.351-9.325,7.481-9.325h68.12
			c4.131,0,7.482,4.176,7.482,9.325v106.916c0,5.148-3.353,9.326-7.482,9.326H9.757c-4.132,0-7.483-4.176-7.483-9.326V11.152
			L2.273,11.152z"/>
		<path fill="#FFFFFF" d="M85.357,126.363c0,4.344-3.353,7.869-7.482,7.869H9.757c-4.132,0-7.483-3.523-7.483-7.869V36.135
			c0-4.347,3.352-7.87,7.483-7.87h68.119c4.131,0,7.482,3.523,7.482,7.87L85.357,126.363L85.357,126.363z"/>
		
			<linearGradient id="XMLID_4_" gradientUnits="userSpaceOnUse" x1="3.3818" y1="81.2485" x2="85.5273" y2="81.2485" gradientTransform="matrix(1 0 0 1 -0.6387 0)">
			<stop  offset="0" style="stop-color:#A2D8E0"/>
			<stop  offset="0.0899" style="stop-color:#1878AD"/>
			<stop  offset="0.2135" style="stop-color:#194D91"/>
			<stop  offset="0.6404" style="stop-color:#2B90BD"/>
			<stop  offset="0.9438" style="stop-color:#82CBDE"/>
			<stop  offset="1" style="stop-color:#1A478D"/>
			<a:midPointStop  offset="0" style="stop-color:#A2D8E0"/>
			<a:midPointStop  offset="0.5" style="stop-color:#A2D8E0"/>
			<a:midPointStop  offset="0.0899" style="stop-color:#1878AD"/>
			<a:midPointStop  offset="0.5" style="stop-color:#1878AD"/>
			<a:midPointStop  offset="0.2135" style="stop-color:#194D91"/>
			<a:midPointStop  offset="0.5" style="stop-color:#194D91"/>
			<a:midPointStop  offset="0.6404" style="stop-color:#2B90BD"/>
			<a:midPointStop  offset="0.5" style="stop-color:#2B90BD"/>
			<a:midPointStop  offset="0.9438" style="stop-color:#82CBDE"/>
			<a:midPointStop  offset="0.5" style="stop-color:#82CBDE"/>
			<a:midPointStop  offset="1" style="stop-color:#1A478D"/>
		</linearGradient>
		<path i:isolated="yes" i:knockout="Off" opacity="0.1" fill="url(#XMLID_4_)" enable-background="new    " d="M84.888,126.363
			c0,4.344-3.314,7.869-7.398,7.869H10.144c-4.086,0-7.4-3.523-7.4-7.869V36.135c0-4.347,3.314-7.87,7.4-7.87H77.49
			c4.084,0,7.398,3.523,7.398,7.87L84.888,126.363L84.888,126.363z"/>
		<path fill="none" stroke="#4D4D4D" stroke-width="0.977" d="M85.357,36.114V11.152c0-5.149-3.352-9.325-7.482-9.325H9.755
			c-4.131,0-7.481,4.175-7.481,9.325v115.21c0,4.346,3.352,7.869,7.483,7.869h68.118c4.13,0,7.482-3.525,7.482-7.869l0.001-90.228
			C85.358,36.128,85.357,36.121,85.357,36.114z"/>
	</g>
	<circle fill="#FFFFFF" cx="63.4" cy="111.937" r="10.771"/>
	<circle fill="#FFFFFF" cx="42.776" cy="111.937" r="10.771"/>
	<circle fill="#FFFFFF" cx="22.275" cy="111.937" r="10.771"/>
	<circle fill="#FFFFFF" cx="63.4" cy="83.485" r="10.771"/>
	<circle fill="#FFFFFF" cx="42.776" cy="83.485" r="10.771"/>
	<circle fill="#FFFFFF" cx="22.275" cy="83.485" r="10.771"/>
	<circle fill="#FFFFFF" cx="63.401" cy="53.658" r="10.771"/>
	<circle fill="#FFFFFF" cx="42.776" cy="53.658" r="10.771"/>
	<circle fill="#FFFFFF" cx="22.275" cy="53.658" r="10.771"/>
	<path fill="#224899" d="M63.4,122.708c5.948,0,10.771-4.822,10.771-10.773c0-5.947-4.822-10.771-10.771-10.771
		c-5.949,0-10.771,4.824-10.771,10.771C52.629,117.886,57.45,122.708,63.4,122.708z M63.4,104.7c3.996,0,7.235,3.237,7.235,7.235
		c0,3.996-3.239,7.236-7.235,7.236s-7.236-3.24-7.236-7.236C56.164,107.937,59.404,104.7,63.4,104.7z M63.4,117.149
		c2.88,0,5.214-2.334,5.214-5.214c0-2.879-2.334-5.213-5.214-5.213c-2.878,0-5.212,2.334-5.212,5.213
		C58.188,114.815,60.522,117.149,63.4,117.149z M63.4,108.589c1.85,0,3.347,1.5,3.347,3.348s-1.497,3.347-3.347,3.347
		c-1.849,0-3.348-1.499-3.348-3.347S61.553,108.589,63.4,108.589z M63.4,113.38c0.797,0,1.441-0.646,1.441-1.443
		s-0.646-1.441-1.441-1.441s-1.442,0.646-1.442,1.441S62.604,113.38,63.4,113.38z"/>
	<path fill="#224899" d="M42.776,122.708c5.949,0,10.771-4.822,10.771-10.773c0-5.947-4.822-10.771-10.771-10.771
		s-10.771,4.824-10.771,10.771C32.004,117.885,36.826,122.708,42.776,122.708z M42.776,104.7c3.997,0,7.236,3.237,7.236,7.235
		c0,3.996-3.239,7.236-7.236,7.236c-3.997,0-7.236-3.24-7.236-7.237S38.779,104.7,42.776,104.7z M42.776,117.149
		c2.879,0,5.213-2.334,5.213-5.214c0-2.879-2.334-5.213-5.213-5.213c-2.878,0-5.212,2.334-5.212,5.213
		C37.563,114.815,39.897,117.149,42.776,117.149z M42.776,108.589c1.849,0,3.346,1.5,3.346,3.348s-1.497,3.347-3.346,3.347
		c-1.848,0-3.347-1.499-3.347-3.348C39.429,110.088,40.928,108.589,42.776,108.589z M42.776,113.38c0.796,0,1.442-0.646,1.442-1.443
		s-0.646-1.441-1.442-1.441c-0.796,0-1.442,0.646-1.442,1.44C41.334,112.733,41.979,113.38,42.776,113.38z"/>
	<path fill="#224899" d="M22.275,122.708c5.949,0,10.771-4.823,10.771-10.773c0-5.947-4.822-10.771-10.771-10.771
		c-5.948,0-10.771,4.824-10.771,10.771C11.504,117.885,16.326,122.708,22.275,122.708z M22.275,104.7
		c3.996,0,7.236,3.237,7.236,7.234s-3.24,7.237-7.236,7.237s-7.235-3.24-7.235-7.237S18.279,104.7,22.275,104.7z M22.275,117.149
		c2.88,0,5.214-2.334,5.214-5.214c0-2.879-2.334-5.213-5.214-5.213c-2.878,0-5.212,2.334-5.212,5.213
		C17.063,114.815,19.397,117.149,22.275,117.149z M22.275,108.589c1.851,0,3.348,1.499,3.348,3.347c0,1.849-1.497,3.348-3.348,3.348
		c-1.848,0-3.347-1.499-3.347-3.348C18.929,110.088,20.428,108.589,22.275,108.589z M22.275,113.379
		c0.797,0,1.442-0.646,1.442-1.443s-0.646-1.44-1.442-1.44s-1.441,0.646-1.441,1.44C20.834,112.733,21.479,113.379,22.275,113.379z"
		/>
	<path fill="#D90000" d="M63.4,94.259c5.948,0,10.771-4.823,10.771-10.772S69.35,72.714,63.4,72.714
		c-5.95,0-10.771,4.822-10.771,10.771S57.45,94.259,63.4,94.259z M63.4,76.25c3.996,0,7.235,3.239,7.235,7.235
		s-3.239,7.236-7.235,7.236s-7.236-3.24-7.236-7.236S59.404,76.25,63.4,76.25z M63.4,88.701c2.88,0,5.214-2.334,5.214-5.213
		c0-2.881-2.334-5.215-5.214-5.215c-2.878,0-5.212,2.334-5.212,5.215C58.188,86.367,60.522,88.701,63.4,88.701z M63.4,80.14
		c1.851,0,3.347,1.498,3.347,3.348c0,1.849-1.497,3.347-3.347,3.347c-1.849,0-3.348-1.498-3.348-3.347
		C60.054,81.638,61.553,80.14,63.4,80.14z M63.4,84.929c0.797,0,1.441-0.646,1.441-1.441s-0.646-1.442-1.441-1.442
		s-1.442,0.646-1.442,1.442S62.604,84.929,63.4,84.929z"/>
	<path fill="#D90000" d="M42.776,94.259c5.949,0,10.771-4.823,10.771-10.772s-4.822-10.771-10.771-10.771
		s-10.771,4.821-10.771,10.771S36.826,94.259,42.776,94.259z M42.776,76.25c3.997,0,7.236,3.239,7.236,7.235
		s-3.239,7.236-7.236,7.236c-3.997,0-7.236-3.24-7.236-7.236S38.779,76.25,42.776,76.25z M42.776,88.701
		c2.879,0,5.213-2.334,5.213-5.213c0-2.881-2.334-5.215-5.213-5.215c-2.878,0-5.212,2.334-5.212,5.215
		C37.563,86.367,39.897,88.701,42.776,88.701z M42.776,80.14c1.849,0,3.346,1.498,3.346,3.348c0,1.849-1.497,3.347-3.346,3.347
		c-1.848,0-3.347-1.498-3.347-3.347C39.429,81.638,40.928,80.14,42.776,80.14z M42.776,84.929c0.796,0,1.442-0.646,1.442-1.441
		s-0.646-1.442-1.442-1.442c-0.796,0-1.442,0.646-1.442,1.442S41.979,84.929,42.776,84.929z"/>
	<path fill="#D90000" d="M22.275,94.259c5.949,0,10.771-4.823,10.771-10.772s-4.822-10.771-10.771-10.771
		c-5.948,0-10.771,4.821-10.771,10.771S16.326,94.259,22.275,94.259z M22.275,76.25c3.996,0,7.236,3.239,7.236,7.235
		s-3.24,7.236-7.236,7.236s-7.235-3.24-7.235-7.236S18.279,76.25,22.275,76.25z M22.275,88.701c2.88,0,5.214-2.334,5.214-5.213
		c0-2.881-2.334-5.215-5.214-5.215c-2.878,0-5.212,2.334-5.212,5.215C17.063,86.367,19.397,88.701,22.275,88.701z M22.275,80.14
		c1.851,0,3.348,1.498,3.348,3.348c0,1.849-1.497,3.347-3.348,3.347c-1.848,0-3.347-1.498-3.347-3.347
		C18.929,81.638,20.428,80.14,22.275,80.14z M22.275,84.929c0.797,0,1.442-0.646,1.442-1.441s-0.646-1.442-1.442-1.442
		s-1.441,0.646-1.441,1.442S21.479,84.929,22.275,84.929z"/>
	<path fill="#1D8F38" d="M63.4,64.431c5.948,0,10.771-4.822,10.771-10.773c0-5.949-4.822-10.771-10.771-10.771
		c-5.949,0-10.771,4.822-10.771,10.771C52.629,59.609,57.45,64.431,63.4,64.431z M63.401,46.421c3.995,0,7.234,3.24,7.234,7.236
		c0,3.996-3.239,7.238-7.234,7.238c-3.996,0-7.236-3.242-7.236-7.238C56.165,49.661,59.405,46.421,63.401,46.421z M63.401,58.871
		c2.879,0,5.213-2.334,5.213-5.211c0-2.881-2.334-5.215-5.213-5.215s-5.213,2.334-5.213,5.215
		C58.188,56.537,60.522,58.871,63.401,58.871z M63.401,50.312c1.85,0,3.346,1.498,3.346,3.348c0,1.848-1.496,3.346-3.346,3.346
		s-3.349-1.498-3.349-3.346C60.054,51.81,61.553,50.312,63.401,50.312z M63.401,55.101c0.797,0,1.44-0.646,1.44-1.441
		s-0.646-1.443-1.44-1.443c-0.797,0-1.443,0.646-1.443,1.443C61.958,54.457,62.604,55.101,63.401,55.101z"/>
	<path fill="#1D8F38" d="M42.776,64.431c5.949,0,10.771-4.822,10.771-10.773c0-5.949-4.822-10.771-10.771-10.771
		s-10.771,4.822-10.771,10.771C32.004,59.609,36.826,64.431,42.776,64.431z M42.776,46.421c3.997,0,7.236,3.24,7.236,7.236
		c0,3.996-3.239,7.238-7.236,7.238c-3.997,0-7.236-3.242-7.236-7.238C35.54,49.661,38.779,46.421,42.776,46.421z M42.776,58.871
		c2.879,0,5.213-2.334,5.213-5.211c0-2.881-2.334-5.215-5.213-5.215c-2.878,0-5.212,2.334-5.212,5.215
		C37.563,56.537,39.897,58.871,42.776,58.871z M42.776,50.312c1.85,0,3.346,1.498,3.346,3.348c0,1.848-1.497,3.346-3.346,3.346
		c-1.848,0-3.347-1.498-3.347-3.346C39.429,51.81,40.928,50.312,42.776,50.312z M42.776,55.101c0.796,0,1.442-0.646,1.442-1.441
		s-0.646-1.443-1.442-1.443c-0.796,0-1.442,0.646-1.442,1.443C41.334,54.457,41.979,55.101,42.776,55.101z"/>
	<path fill="#1D8F38" d="M22.275,64.431c5.949,0,10.771-4.822,10.771-10.773c0-5.949-4.822-10.771-10.771-10.771
		c-5.948,0-10.771,4.822-10.771,10.771C11.504,59.609,16.326,64.431,22.275,64.431z M22.275,46.421c3.996,0,7.236,3.24,7.236,7.236
		c0,3.996-3.24,7.238-7.236,7.238s-7.235-3.242-7.235-7.238C15.04,49.661,18.279,46.421,22.275,46.421z M22.275,58.871
		c2.88,0,5.214-2.334,5.214-5.211c0-2.881-2.334-5.215-5.214-5.215c-2.878,0-5.212,2.334-5.212,5.215
		C17.063,56.537,19.397,58.871,22.275,58.871z M22.275,50.312c1.851,0,3.348,1.498,3.348,3.348c0,1.848-1.497,3.346-3.348,3.346
		c-1.848,0-3.347-1.498-3.347-3.346C18.929,51.81,20.428,50.312,22.275,50.312z M22.275,55.101c0.797,0,1.442-0.646,1.442-1.441
		s-0.646-1.443-1.442-1.443s-1.441,0.646-1.441,1.443C20.834,54.457,21.479,55.101,22.275,55.101z"/>
</g>
</svg>
