<?xml version="1.0" encoding="utf-8"?>
<!-- Generator: Adobe Illustrator 12.0.0, SVG Export Plug-In . SVG Version: 6.00 Build 51448)  -->
<!DOCTYPE svg PUBLIC "-//W3C//DTD SVG 1.1//EN" "http://www.w3.org/Graphics/SVG/1.1/DTD/svg11.dtd" [
	<!ENTITY ns_flows "http://ns.adobe.com/Flows/1.0/">
	<!ENTITY ns_extend "http://ns.adobe.com/Extensibility/1.0/">
	<!ENTITY ns_ai "http://ns.adobe.com/AdobeIllustrator/10.0/">
	<!ENTITY ns_graphs "http://ns.adobe.com/Graphs/1.0/">
	<!ENTITY ns_vars "http://ns.adobe.com/Variables/1.0/">
	<!ENTITY ns_imrep "http://ns.adobe.com/ImageReplacement/1.0/">
	<!ENTITY ns_sfw "http://ns.adobe.com/SaveForWeb/1.0/">
	<!ENTITY ns_custom "http://ns.adobe.com/GenericCustomNamespace/1.0/">
	<!ENTITY ns_adobe_xpath "http://ns.adobe.com/XPath/1.0/">
	<!ENTITY ns_svg "http://www.w3.org/2000/svg">
	<!ENTITY ns_xlink "http://www.w3.org/1999/xlink">
]>
<svg  version="1.1"
	 xmlns:x="&ns_extend;" xmlns:i="&ns_ai;" xmlns:graph="&ns_graphs;" i:viewOrigin="-0.3193 135.7061" i:rulerOrigin="0 0" i:pageBounds="0 136 85 0"
	 xmlns="&ns_svg;" xmlns:xlink="&ns_xlink;" xmlns:a="http://ns.adobe.com/AdobeSVGViewerExtensions/3.0/"
	 width="85.678" height="136.025" viewBox="0 0 85.678 136.025" overflow="visible" enable-background="new 0 0 85.678 136.025"
	 xml:space="preserve">
<metadata>
	<variableSets  xmlns="http://ns.adobe.com/Variables/1.0/">
		<variableSet  varSetName="binding1" locked="none">
			<variables></variables>
			<v:sampleDataSets  xmlns:v="http://ns.adobe.com/Variables/1.0/" xmlns="http://ns.adobe.com/GenericCustomNamespace/1.0/">
				</v:sampleDataSets>
		</variableSet>
	</variableSets>
</metadata>
<g id="图层_1" i:knockout="Off" i:layer="yes" i:dimmedPercent="50" i:rgbTrio="#4F008000FFFF">
	<g>
		<path fill="#333333" d="M83.403,37.587V12.625c0-5.149-3.352-9.325-7.481-9.325H7.804c-4.133,0-7.484,4.175-7.484,9.325h0.002
			v115.211c0,4.344,3.351,7.869,7.482,7.869h68.118c4.131,0,7.481-3.525,7.481-7.869h0.002V37.608
			C83.405,37.601,83.403,37.594,83.403,37.587z"/>
		
			<linearGradient id="XMLID_3_" gradientUnits="userSpaceOnUse" x1="-23.3101" y1="112.9883" x2="-23.3101" y2="-12.5781" gradientTransform="matrix(-1 0 0 -1 20.5059 114.334)">
			<stop  offset="0.0899" style="stop-color:#2089B9"/>
			<stop  offset="0.0985" style="stop-color:#4FA3C2"/>
			<stop  offset="0.1071" style="stop-color:#77B9CA"/>
			<stop  offset="0.1138" style="stop-color:#8FC7CF"/>
			<stop  offset="0.118" style="stop-color:#98CCD1"/>
			<stop  offset="0.1341" style="stop-color:#9ECFD3"/>
			<stop  offset="0.156" style="stop-color:#AFD6D9"/>
			<stop  offset="0.1809" style="stop-color:#CBE1E3"/>
			<stop  offset="0.1966" style="stop-color:#E1EAEB"/>
			<a:midPointStop  offset="0.0899" style="stop-color:#2089B9"/>
			<a:midPointStop  offset="0.4" style="stop-color:#2089B9"/>
			<a:midPointStop  offset="0.118" style="stop-color:#98CCD1"/>
			<a:midPointStop  offset="0.6429" style="stop-color:#98CCD1"/>
			<a:midPointStop  offset="0.1966" style="stop-color:#E1EAEB"/>
		</linearGradient>
		<path fill="url(#XMLID_3_)" d="M2.273,10.671c0-5.15,3.351-9.325,7.481-9.325h68.12c4.131,0,7.482,4.176,7.482,9.325v106.916
			c0,5.148-3.353,9.326-7.482,9.326H9.757c-4.132,0-7.483-4.176-7.483-9.326V10.671L2.273,10.671z"/>
		<path fill="none" stroke="#333333" stroke-width="0.977" d="M2.273,10.671c0-5.15,3.351-9.325,7.481-9.325h68.12
			c4.131,0,7.482,4.176,7.482,9.325v106.916c0,5.148-3.353,9.326-7.482,9.326H9.757c-4.132,0-7.483-4.176-7.483-9.326V10.671
			L2.273,10.671z"/>
		<path fill="#FFFFFF" d="M85.357,125.882c0,4.344-3.353,7.869-7.482,7.869H9.757c-4.132,0-7.483-3.523-7.483-7.869V35.654
			c0-4.347,3.352-7.87,7.483-7.87h68.119c4.131,0,7.482,3.523,7.482,7.87L85.357,125.882L85.357,125.882z"/>
		
			<linearGradient id="XMLID_4_" gradientUnits="userSpaceOnUse" x1="3.3818" y1="80.7676" x2="85.5273" y2="80.7676" gradientTransform="matrix(1 0 0 1 -0.6387 0)">
			<stop  offset="0" style="stop-color:#A2D8E0"/>
			<stop  offset="0.0899" style="stop-color:#1878AD"/>
			<stop  offset="0.2135" style="stop-color:#194D91"/>
			<stop  offset="0.6404" style="stop-color:#2B90BD"/>
			<stop  offset="0.9438" style="stop-color:#82CBDE"/>
			<stop  offset="1" style="stop-color:#1A478D"/>
			<a:midPointStop  offset="0" style="stop-color:#A2D8E0"/>
			<a:midPointStop  offset="0.5" style="stop-color:#A2D8E0"/>
			<a:midPointStop  offset="0.0899" style="stop-color:#1878AD"/>
			<a:midPointStop  offset="0.5" style="stop-color:#1878AD"/>
			<a:midPointStop  offset="0.2135" style="stop-color:#194D91"/>
			<a:midPointStop  offset="0.5" style="stop-color:#194D91"/>
			<a:midPointStop  offset="0.6404" style="stop-color:#2B90BD"/>
			<a:midPointStop  offset="0.5" style="stop-color:#2B90BD"/>
			<a:midPointStop  offset="0.9438" style="stop-color:#82CBDE"/>
			<a:midPointStop  offset="0.5" style="stop-color:#82CBDE"/>
			<a:midPointStop  offset="1" style="stop-color:#1A478D"/>
		</linearGradient>
		<path i:isolated="yes" i:knockout="Off" opacity="0.1" fill="url(#XMLID_4_)" enable-background="new    " d="M84.888,125.882
			c0,4.344-3.314,7.869-7.398,7.869H10.144c-4.086,0-7.4-3.523-7.4-7.869V35.654c0-4.347,3.314-7.87,7.4-7.87H77.49
			c4.084,0,7.398,3.523,7.398,7.87L84.888,125.882L84.888,125.882z"/>
		<path fill="none" stroke="#4D4D4D" stroke-width="0.977" d="M85.357,35.633V10.671c0-5.149-3.352-9.325-7.482-9.325H9.755
			c-4.131,0-7.481,4.175-7.481,9.325v115.21c0,4.346,3.352,7.869,7.483,7.869h68.118c4.13,0,7.482-3.525,7.482-7.869l0.001-90.228
			C85.358,35.647,85.357,35.64,85.357,35.633z"/>
	</g>
	<g i:knockout="Off">
		<g i:knockout="Off">
			<g i:knockout="Off">
				<path fill="#1D8F38" d="M33.577,69.984c-1.32-2.88-0.24-3.96,0.359-6.601c0.599-2.64-1.08-7.44-1.08-9.479
					c0-2.041,2.07-4.633,1.08-9.48c-0.793-3.889-3.061-4.904-5.332-4.967c-2.828-0.078-4.826,2.312-5.359,4.922
					c-0.988,4.848,1.08,7.439,1.08,9.48c0,2.039-1.68,6.84-1.08,9.479c0.602,2.641,1.68,3.721,0.361,6.602
					c-1.32,2.88-0.961,11.039,4.92,11.88l0.303-0.004C34.71,80.976,34.897,72.864,33.577,69.984z M31.296,47.185
					c-0.359,3.48-2.004,4.262-1.199,8.4c0.822,4.23,0.84,6.359,0.119,9.84c-0.719,3.479-0.162,4.692,0.48,6.84
					c0.857,2.859-0.225,6.659-2.287,6.556c-1.34-0.068-3.217-1.945-1.924-6.601c0.6-2.16,1.201-3.359,0.48-6.84
					c-0.721-3.48-0.703-5.609,0.119-9.84c0.805-4.139-0.84-4.92-1.199-8.4c-0.359-3.48,2.279-3.6,2.279-3.6l0.852,0.045
					C29.017,43.585,31.657,43.705,31.296,47.185z"/>
			</g>
			<g i:knockout="Off">
				<path fill="#1D8F38" d="M33.577,116.296c-1.32-2.88-0.24-3.96,0.359-6.6c0.599-2.641-1.08-7.44-1.08-9.479
					c0-2.041,2.07-4.633,1.08-9.479c-0.793-3.89-3.061-4.904-5.332-4.968c-2.828-0.077-4.826,2.312-5.359,4.923
					c-0.988,4.848,1.08,7.438,1.08,9.479c0,2.039-1.68,6.84-1.08,9.479c0.602,2.641,1.68,3.721,0.361,6.601
					c-1.32,2.88-0.961,11.04,4.92,11.88l0.303-0.004C34.71,127.287,34.897,119.176,33.577,116.296z M31.296,93.496
					c-0.359,3.479-2.004,4.262-1.199,8.399c0.822,4.23,0.84,6.359,0.119,9.841c-0.719,3.479-0.162,4.691,0.48,6.84
					c0.857,2.858-0.225,6.659-2.287,6.555c-1.34-0.068-3.217-1.945-1.924-6.6c0.6-2.16,1.201-3.36,0.48-6.84
					c-0.721-3.48-0.703-5.609,0.119-9.841c0.805-4.139-0.84-4.92-1.199-8.399c-0.359-3.48,2.279-3.601,2.279-3.601l0.852,0.045
					C29.017,89.896,31.657,90.017,31.296,93.496z"/>
			</g>
		</g>
		<g i:knockout="Off">
			<g i:knockout="Off">
				<path fill="#1D8F38" d="M62.034,69.984c-1.32-2.88-0.24-3.96,0.358-6.601c0.6-2.64-1.079-7.44-1.079-9.479
					c0-2.041,2.069-4.633,1.079-9.48c-0.793-3.889-3.061-4.904-5.331-4.967c-2.828-0.078-4.826,2.312-5.359,4.922
					c-0.988,4.848,1.08,7.439,1.08,9.48c0,2.039-1.681,6.84-1.08,9.479c0.602,2.641,1.68,3.721,0.361,6.602
					c-1.32,2.88-0.962,11.039,4.92,11.88l0.303-0.004C63.167,80.976,63.354,72.864,62.034,69.984z M59.753,47.185
					c-0.359,3.48-2.004,4.262-1.199,8.4c0.822,4.23,0.84,6.359,0.119,9.84c-0.719,3.479-0.162,4.692,0.48,6.84
					c0.856,2.859-0.226,6.659-2.287,6.556c-1.34-0.068-3.217-1.945-1.924-6.601c0.6-2.16,1.2-3.359,0.479-6.84
					c-0.721-3.48-0.703-5.609,0.119-9.84c0.805-4.139-0.84-4.92-1.199-8.4c-0.358-3.48,2.279-3.6,2.279-3.6l0.852,0.045
					C57.474,43.585,60.114,43.705,59.753,47.185z"/>
			</g>
			<g i:knockout="Off">
				<path fill="#1D8F38" d="M62.034,116.296c-1.32-2.88-0.24-3.96,0.358-6.6c0.6-2.641-1.079-7.44-1.079-9.479
					c0-2.041,2.069-4.633,1.079-9.479c-0.793-3.89-3.061-4.904-5.331-4.968c-2.828-0.077-4.826,2.312-5.359,4.923
					c-0.988,4.848,1.08,7.438,1.08,9.479c0,2.039-1.681,6.84-1.08,9.479c0.602,2.641,1.68,3.721,0.361,6.601
					c-1.32,2.88-0.962,11.04,4.92,11.88l0.303-0.004C63.167,127.287,63.354,119.176,62.034,116.296z M59.753,93.496
					c-0.359,3.479-2.004,4.262-1.199,8.399c0.822,4.23,0.84,6.359,0.119,9.841c-0.719,3.479-0.162,4.691,0.48,6.84
					c0.856,2.858-0.226,6.659-2.287,6.555c-1.34-0.068-3.217-1.945-1.924-6.6c0.6-2.16,1.2-3.36,0.479-6.84
					c-0.721-3.48-0.703-5.609,0.119-9.841c0.805-4.139-0.84-4.92-1.199-8.399c-0.358-3.48,2.279-3.601,2.279-3.601l0.852,0.045
					C57.474,89.896,60.114,90.017,59.753,93.496z"/>
			</g>
		</g>
	</g>
</g>
</svg>
