<?xml version="1.0" encoding="utf-8"?>
<!-- Generator: Adobe Illustrator 12.0.0, SVG Export Plug-In . SVG Version: 6.00 Build 51448)  -->
<!DOCTYPE svg PUBLIC "-//W3C//DTD SVG 1.1//EN" "http://www.w3.org/Graphics/SVG/1.1/DTD/svg11.dtd" [
	<!ENTITY ns_flows "http://ns.adobe.com/Flows/1.0/">
	<!ENTITY ns_extend "http://ns.adobe.com/Extensibility/1.0/">
	<!ENTITY ns_ai "http://ns.adobe.com/AdobeIllustrator/10.0/">
	<!ENTITY ns_graphs "http://ns.adobe.com/Graphs/1.0/">
	<!ENTITY ns_vars "http://ns.adobe.com/Variables/1.0/">
	<!ENTITY ns_imrep "http://ns.adobe.com/ImageReplacement/1.0/">
	<!ENTITY ns_sfw "http://ns.adobe.com/SaveForWeb/1.0/">
	<!ENTITY ns_custom "http://ns.adobe.com/GenericCustomNamespace/1.0/">
	<!ENTITY ns_adobe_xpath "http://ns.adobe.com/XPath/1.0/">
	<!ENTITY ns_svg "http://www.w3.org/2000/svg">
	<!ENTITY ns_xlink "http://www.w3.org/1999/xlink">
]>
<svg  version="1.1"
	 xmlns:x="&ns_extend;" xmlns:i="&ns_ai;" xmlns:graph="&ns_graphs;" i:viewOrigin="-0.3193 135.7061" i:rulerOrigin="0 0" i:pageBounds="0 136 85 0"
	 xmlns="&ns_svg;" xmlns:xlink="&ns_xlink;" xmlns:a="http://ns.adobe.com/AdobeSVGViewerExtensions/3.0/"
	 width="85.678" height="136.025" viewBox="0 0 85.678 136.025" overflow="visible" enable-background="new 0 0 85.678 136.025"
	 xml:space="preserve">
<metadata>
	<variableSets  xmlns="http://ns.adobe.com/Variables/1.0/">
		<variableSet  varSetName="binding1" locked="none">
			<variables></variables>
			<v:sampleDataSets  xmlns:v="http://ns.adobe.com/Variables/1.0/" xmlns="http://ns.adobe.com/GenericCustomNamespace/1.0/">
				</v:sampleDataSets>
		</variableSet>
	</variableSets>
</metadata>
<g id="图层_1" i:knockout="Off" i:layer="yes" i:dimmedPercent="50" i:rgbTrio="#4F008000FFFF">
	<g>
		<path fill="#333333" d="M83.403,37.587V12.625c0-5.149-3.352-9.325-7.481-9.325H7.804c-4.133,0-7.484,4.175-7.484,9.325h0.002
			v115.211c0,4.344,3.351,7.869,7.482,7.869h68.118c4.131,0,7.481-3.525,7.481-7.869h0.002V37.608
			C83.405,37.601,83.403,37.594,83.403,37.587z"/>
		
			<linearGradient id="XMLID_3_" gradientUnits="userSpaceOnUse" x1="-23.3101" y1="112.9883" x2="-23.3101" y2="-12.5781" gradientTransform="matrix(-1 0 0 -1 20.5059 114.334)">
			<stop  offset="0.0899" style="stop-color:#2089B9"/>
			<stop  offset="0.0985" style="stop-color:#4FA3C2"/>
			<stop  offset="0.1071" style="stop-color:#77B9CA"/>
			<stop  offset="0.1138" style="stop-color:#8FC7CF"/>
			<stop  offset="0.118" style="stop-color:#98CCD1"/>
			<stop  offset="0.1341" style="stop-color:#9ECFD3"/>
			<stop  offset="0.156" style="stop-color:#AFD6D9"/>
			<stop  offset="0.1809" style="stop-color:#CBE1E3"/>
			<stop  offset="0.1966" style="stop-color:#E1EAEB"/>
			<a:midPointStop  offset="0.0899" style="stop-color:#2089B9"/>
			<a:midPointStop  offset="0.4" style="stop-color:#2089B9"/>
			<a:midPointStop  offset="0.118" style="stop-color:#98CCD1"/>
			<a:midPointStop  offset="0.6429" style="stop-color:#98CCD1"/>
			<a:midPointStop  offset="0.1966" style="stop-color:#E1EAEB"/>
		</linearGradient>
		<path fill="url(#XMLID_3_)" d="M2.273,10.671c0-5.15,3.351-9.325,7.481-9.325h68.12c4.131,0,7.482,4.176,7.482,9.325v106.916
			c0,5.148-3.353,9.326-7.482,9.326H9.757c-4.132,0-7.483-4.176-7.483-9.326V10.671L2.273,10.671z"/>
		<path fill="none" stroke="#333333" stroke-width="0.977" d="M2.273,10.671c0-5.15,3.351-9.325,7.481-9.325h68.12
			c4.131,0,7.482,4.176,7.482,9.325v106.916c0,5.148-3.353,9.326-7.482,9.326H9.757c-4.132,0-7.483-4.176-7.483-9.326V10.671
			L2.273,10.671z"/>
		<path fill="#FFFFFF" d="M85.357,125.882c0,4.344-3.353,7.869-7.482,7.869H9.757c-4.132,0-7.483-3.523-7.483-7.869V35.654
			c0-4.347,3.352-7.87,7.483-7.87h68.119c4.131,0,7.482,3.523,7.482,7.87L85.357,125.882L85.357,125.882z"/>
		
			<linearGradient id="XMLID_4_" gradientUnits="userSpaceOnUse" x1="3.3818" y1="80.7676" x2="85.5273" y2="80.7676" gradientTransform="matrix(1 0 0 1 -0.6387 0)">
			<stop  offset="0" style="stop-color:#A2D8E0"/>
			<stop  offset="0.0899" style="stop-color:#1878AD"/>
			<stop  offset="0.2135" style="stop-color:#194D91"/>
			<stop  offset="0.6404" style="stop-color:#2B90BD"/>
			<stop  offset="0.9438" style="stop-color:#82CBDE"/>
			<stop  offset="1" style="stop-color:#1A478D"/>
			<a:midPointStop  offset="0" style="stop-color:#A2D8E0"/>
			<a:midPointStop  offset="0.5" style="stop-color:#A2D8E0"/>
			<a:midPointStop  offset="0.0899" style="stop-color:#1878AD"/>
			<a:midPointStop  offset="0.5" style="stop-color:#1878AD"/>
			<a:midPointStop  offset="0.2135" style="stop-color:#194D91"/>
			<a:midPointStop  offset="0.5" style="stop-color:#194D91"/>
			<a:midPointStop  offset="0.6404" style="stop-color:#2B90BD"/>
			<a:midPointStop  offset="0.5" style="stop-color:#2B90BD"/>
			<a:midPointStop  offset="0.9438" style="stop-color:#82CBDE"/>
			<a:midPointStop  offset="0.5" style="stop-color:#82CBDE"/>
			<a:midPointStop  offset="1" style="stop-color:#1A478D"/>
		</linearGradient>
		<path i:isolated="yes" i:knockout="Off" opacity="0.1" fill="url(#XMLID_4_)" enable-background="new    " d="M84.888,125.882
			c0,4.344-3.314,7.869-7.398,7.869H10.144c-4.086,0-7.4-3.523-7.4-7.869V35.654c0-4.347,3.314-7.87,7.4-7.87H77.49
			c4.084,0,7.398,3.523,7.398,7.87L84.888,125.882L84.888,125.882z"/>
		<path fill="none" stroke="#4D4D4D" stroke-width="0.977" d="M85.357,35.633V10.671c0-5.149-3.352-9.325-7.482-9.325H9.755
			c-4.131,0-7.481,4.175-7.481,9.325v115.21c0,4.346,3.352,7.869,7.483,7.869h68.118c4.13,0,7.482-3.525,7.482-7.869l0.001-90.228
			C85.358,35.647,85.357,35.64,85.357,35.633z"/>
	</g>
	<g i:knockout="Off">
		<g i:knockout="Off">
			<path fill="#1D8F38" d="M27.575,89.952c-1.191-1.897-0.217-2.608,0.324-4.35c0.541-1.737-0.975-4.899-0.975-6.243
				c0-1.346,1.867-3.054,0.975-6.246c-0.717-2.562-2.762-3.23-4.812-3.271c-2.551-0.053-4.354,1.523-4.834,3.242
				c-0.893,3.193,0.975,4.901,0.975,6.245s-1.516,4.507-0.975,6.245s1.516,2.451,0.324,4.348c-1.189,1.898-0.865,7.273,4.439,7.827
				l0.273-0.003C28.597,97.193,28.765,91.85,27.575,89.952z M25.517,74.932c-0.324,2.293-1.809,2.809-1.082,5.533
				c0.742,2.787,0.758,4.19,0.107,6.482c-0.648,2.293-0.146,3.092,0.434,4.507c0.773,1.884-0.203,4.388-2.064,4.317
				c-1.209-0.044-2.902-1.28-1.734-4.349c0.541-1.422,1.082-2.213,0.434-4.506c-0.65-2.293-0.635-3.695,0.107-6.482
				c0.725-2.726-0.758-3.24-1.082-5.532c-0.326-2.293,2.057-2.372,2.057-2.372l0.768,0.029
				C23.46,72.561,25.843,72.639,25.517,74.932z"/>
		</g>
		<g i:knockout="Off">
			<path fill="#1D8F38" d="M27.575,119.928c-1.191-1.896-0.217-2.608,0.324-4.348c0.541-1.74-0.975-4.902-0.975-6.246
				s1.867-3.051,0.975-6.245c-0.717-2.562-2.762-3.23-4.812-3.271c-2.551-0.052-4.354,1.522-4.834,3.241
				c-0.893,3.194,0.975,4.902,0.975,6.246c0,1.345-1.516,4.506-0.975,6.245s1.516,2.451,0.324,4.348
				c-1.189,1.898-0.865,7.273,4.439,7.827l0.273-0.003C28.597,127.169,28.765,121.825,27.575,119.928z M25.517,104.907
				c-0.324,2.292-1.809,2.808-1.082,5.534c0.742,2.786,0.758,4.188,0.107,6.481c-0.648,2.293-0.146,3.091,0.434,4.506
				c0.773,1.884-0.203,4.389-2.064,4.318c-1.209-0.044-2.902-1.281-1.734-4.35c0.541-1.422,1.082-2.213,0.434-4.505
				c-0.65-2.293-0.635-3.695,0.107-6.482c0.725-2.727-0.758-3.241-1.082-5.534c-0.326-2.292,2.057-2.371,2.057-2.371l0.768,0.029
				C23.46,102.535,25.843,102.615,25.517,104.907z"/>
		</g>
		<g i:knockout="Off">
			<path fill="#D90000" d="M47.415,59.977c-1.191-1.897-0.217-2.609,0.324-4.348c0.543-1.74-0.974-4.902-0.974-6.246
				c0-1.344,1.867-3.051,0.974-6.245c-0.715-2.562-2.76-3.231-4.811-3.272c-2.553-0.051-4.354,1.523-4.836,3.242
				c-0.891,3.194,0.975,4.902,0.975,6.246c0,1.344-1.516,4.506-0.975,6.245c0.543,1.739,1.516,2.451,0.326,4.349
				c-1.191,1.896-0.867,7.272,4.439,7.826l0.273-0.003C48.438,67.217,48.606,61.874,47.415,59.977z M45.358,44.956
				c-0.324,2.292-1.81,2.808-1.082,5.534c0.739,2.787,0.758,4.189,0.106,6.482c-0.647,2.293-0.147,3.092,0.435,4.506
				c0.772,1.884-0.203,4.387-2.064,4.318c-1.211-0.045-2.902-1.281-1.736-4.348c0.541-1.424,1.084-2.214,0.434-4.506
				c-0.65-2.293-0.635-3.696,0.107-6.483c0.727-2.726-0.758-3.241-1.082-5.534c-0.324-2.292,2.057-2.371,2.057-2.371l0.77,0.029
				C43.302,42.584,45.683,42.664,45.358,44.956z"/>
		</g>
		<g i:knockout="Off">
			<path fill="#224899" d="M47.415,89.952c-1.191-1.897-0.217-2.608,0.324-4.35c0.543-1.737-0.974-4.899-0.974-6.243
				c0-1.346,1.867-3.054,0.974-6.246c-0.715-2.562-2.76-3.23-4.811-3.271c-2.553-0.053-4.354,1.523-4.836,3.242
				c-0.891,3.193,0.975,4.901,0.975,6.245s-1.516,4.507-0.975,6.245c0.543,1.738,1.516,2.451,0.326,4.348
				c-1.191,1.898-0.867,7.273,4.439,7.827l0.273-0.003C48.438,97.193,48.606,91.85,47.415,89.952z M45.358,74.932
				c-0.324,2.293-1.81,2.809-1.082,5.533c0.739,2.787,0.758,4.19,0.106,6.482c-0.647,2.293-0.147,3.092,0.435,4.507
				c0.772,1.884-0.203,4.388-2.064,4.317c-1.211-0.044-2.902-1.28-1.736-4.349c0.541-1.422,1.084-2.213,0.434-4.506
				s-0.635-3.695,0.107-6.482c0.727-2.726-0.758-3.24-1.082-5.532c-0.324-2.293,2.057-2.372,2.057-2.372l0.77,0.029
				C43.302,72.561,45.683,72.639,45.358,74.932z"/>
		</g>
		<g i:knockout="Off">
			<path fill="#224899" d="M47.415,119.928c-1.191-1.896-0.217-2.608,0.324-4.348c0.543-1.74-0.974-4.902-0.974-6.246
				s1.867-3.051,0.974-6.245c-0.715-2.562-2.76-3.23-4.811-3.271c-2.553-0.052-4.354,1.522-4.836,3.241
				c-0.891,3.194,0.975,4.902,0.975,6.246c0,1.345-1.516,4.506-0.975,6.245c0.543,1.739,1.516,2.451,0.326,4.348
				c-1.191,1.898-0.867,7.273,4.439,7.827l0.273-0.003C48.438,127.169,48.606,121.825,47.415,119.928z M45.358,104.907
				c-0.324,2.292-1.81,2.808-1.082,5.534c0.739,2.786,0.758,4.188,0.106,6.481c-0.647,2.293-0.147,3.091,0.435,4.506
				c0.772,1.884-0.203,4.389-2.064,4.318c-1.211-0.044-2.902-1.281-1.736-4.35c0.541-1.422,1.084-2.213,0.434-4.505
				c-0.65-2.293-0.635-3.695,0.107-6.482c0.727-2.727-0.758-3.241-1.082-5.534c-0.324-2.292,2.057-2.371,2.057-2.371l0.77,0.029
				C43.302,102.535,45.683,102.615,45.358,104.907z"/>
		</g>
		<g i:knockout="Off">
			<path fill="#1D8F38" d="M67.065,89.952c-1.191-1.897-0.218-2.608,0.323-4.35c0.541-1.737-0.975-4.899-0.975-6.243
				c0-1.346,1.867-3.054,0.975-6.246c-0.717-2.562-2.762-3.23-4.812-3.271c-2.551-0.053-4.354,1.523-4.834,3.242
				c-0.894,3.193,0.975,4.901,0.975,6.245s-1.516,4.507-0.975,6.245s1.516,2.451,0.324,4.348c-1.189,1.898-0.865,7.273,4.438,7.827
				l0.275-0.003C68.087,97.193,68.257,91.85,67.065,89.952z M65.007,74.932c-0.324,2.293-1.807,2.809-1.082,5.533
				c0.742,2.787,0.758,4.19,0.107,6.482c-0.648,2.293-0.146,3.092,0.434,4.507c0.773,1.884-0.201,4.388-2.062,4.317
				c-1.211-0.044-2.902-1.28-1.736-4.349c0.541-1.422,1.082-2.213,0.434-4.506c-0.649-2.293-0.635-3.695,0.107-6.482
				c0.728-2.726-0.758-3.24-1.082-5.532c-0.326-2.293,2.057-2.372,2.057-2.372l0.769,0.029
				C62.95,72.561,65.333,72.639,65.007,74.932z"/>
		</g>
		<g i:knockout="Off">
			<path fill="#1D8F38" d="M67.065,119.928c-1.191-1.896-0.218-2.608,0.323-4.348c0.541-1.74-0.975-4.902-0.975-6.246
				s1.867-3.051,0.975-6.245c-0.717-2.562-2.762-3.23-4.812-3.271c-2.551-0.052-4.354,1.522-4.834,3.241
				c-0.894,3.194,0.975,4.902,0.975,6.246c0,1.345-1.516,4.506-0.975,6.245s1.516,2.451,0.324,4.348
				c-1.189,1.898-0.865,7.273,4.438,7.827l0.275-0.003C68.087,127.169,68.257,121.825,67.065,119.928z M65.007,104.907
				c-0.324,2.292-1.807,2.808-1.082,5.534c0.742,2.786,0.758,4.188,0.107,6.481c-0.648,2.293-0.146,3.091,0.434,4.506
				c0.773,1.884-0.201,4.389-2.062,4.318c-1.211-0.044-2.902-1.281-1.736-4.35c0.541-1.422,1.082-2.213,0.434-4.505
				c-0.649-2.293-0.635-3.695,0.107-6.482c0.728-2.727-0.758-3.241-1.082-5.534c-0.326-2.292,2.057-2.371,2.057-2.371l0.769,0.029
				C62.95,102.535,65.333,102.615,65.007,104.907z"/>
		</g>
	</g>
</g>
</svg>
