<?xml version="1.0" encoding="utf-8"?>
<!-- Generator: Adobe Illustrator 12.0.0, SVG Export Plug-In . SVG Version: 6.00 Build 51448)  -->
<!DOCTYPE svg PUBLIC "-//W3C//DTD SVG 1.1//EN" "http://www.w3.org/Graphics/SVG/1.1/DTD/svg11.dtd" [
	<!ENTITY ns_flows "http://ns.adobe.com/Flows/1.0/">
	<!ENTITY ns_extend "http://ns.adobe.com/Extensibility/1.0/">
	<!ENTITY ns_ai "http://ns.adobe.com/AdobeIllustrator/10.0/">
	<!ENTITY ns_graphs "http://ns.adobe.com/Graphs/1.0/">
	<!ENTITY ns_vars "http://ns.adobe.com/Variables/1.0/">
	<!ENTITY ns_imrep "http://ns.adobe.com/ImageReplacement/1.0/">
	<!ENTITY ns_sfw "http://ns.adobe.com/SaveForWeb/1.0/">
	<!ENTITY ns_custom "http://ns.adobe.com/GenericCustomNamespace/1.0/">
	<!ENTITY ns_adobe_xpath "http://ns.adobe.com/XPath/1.0/">
	<!ENTITY ns_svg "http://www.w3.org/2000/svg">
	<!ENTITY ns_xlink "http://www.w3.org/1999/xlink">
]>
<svg  version="1.1"
	 xmlns:x="&ns_extend;" xmlns:i="&ns_ai;" xmlns:graph="&ns_graphs;" i:viewOrigin="-0.3193 135.7061" i:rulerOrigin="0 0" i:pageBounds="0 136 85 0"
	 xmlns="&ns_svg;" xmlns:xlink="&ns_xlink;" xmlns:a="http://ns.adobe.com/AdobeSVGViewerExtensions/3.0/"
	 width="85.678" height="136.025" viewBox="0 0 85.678 136.025" overflow="visible" enable-background="new 0 0 85.678 136.025"
	 xml:space="preserve">
<metadata>
	<variableSets  xmlns="http://ns.adobe.com/Variables/1.0/">
		<variableSet  varSetName="binding1" locked="none">
			<variables></variables>
			<v:sampleDataSets  xmlns:v="http://ns.adobe.com/Variables/1.0/" xmlns="http://ns.adobe.com/GenericCustomNamespace/1.0/">
				</v:sampleDataSets>
		</variableSet>
	</variableSets>
</metadata>
<g id="图层_1" i:knockout="Off" i:layer="yes" i:dimmedPercent="50" i:rgbTrio="#4F008000FFFF">
	<g>
		<path fill="#333333" d="M83.403,37.587V12.625c0-5.149-3.352-9.325-7.481-9.325H7.804c-4.133,0-7.484,4.175-7.484,9.325h0.002
			v115.211c0,4.344,3.351,7.869,7.482,7.869h68.118c4.131,0,7.481-3.525,7.481-7.869h0.002V37.608
			C83.405,37.601,83.403,37.594,83.403,37.587z"/>
		
			<linearGradient id="XMLID_3_" gradientUnits="userSpaceOnUse" x1="-23.3101" y1="112.9883" x2="-23.3101" y2="-12.5781" gradientTransform="matrix(-1 0 0 -1 20.5059 114.334)">
			<stop  offset="0.0899" style="stop-color:#2089B9"/>
			<stop  offset="0.0985" style="stop-color:#4FA3C2"/>
			<stop  offset="0.1071" style="stop-color:#77B9CA"/>
			<stop  offset="0.1138" style="stop-color:#8FC7CF"/>
			<stop  offset="0.118" style="stop-color:#98CCD1"/>
			<stop  offset="0.1341" style="stop-color:#9ECFD3"/>
			<stop  offset="0.156" style="stop-color:#AFD6D9"/>
			<stop  offset="0.1809" style="stop-color:#CBE1E3"/>
			<stop  offset="0.1966" style="stop-color:#E1EAEB"/>
			<a:midPointStop  offset="0.0899" style="stop-color:#2089B9"/>
			<a:midPointStop  offset="0.4" style="stop-color:#2089B9"/>
			<a:midPointStop  offset="0.118" style="stop-color:#98CCD1"/>
			<a:midPointStop  offset="0.6429" style="stop-color:#98CCD1"/>
			<a:midPointStop  offset="0.1966" style="stop-color:#E1EAEB"/>
		</linearGradient>
		<path fill="url(#XMLID_3_)" d="M2.273,10.671c0-5.15,3.351-9.325,7.481-9.325h68.12c4.131,0,7.482,4.176,7.482,9.325v106.916
			c0,5.148-3.353,9.326-7.482,9.326H9.757c-4.132,0-7.483-4.176-7.483-9.326V10.671L2.273,10.671z"/>
		<path fill="none" stroke="#333333" stroke-width="0.977" d="M2.273,10.671c0-5.15,3.351-9.325,7.481-9.325h68.12
			c4.131,0,7.482,4.176,7.482,9.325v106.916c0,5.148-3.353,9.326-7.482,9.326H9.757c-4.132,0-7.483-4.176-7.483-9.326V10.671
			L2.273,10.671z"/>
		<path fill="#FFFFFF" d="M85.357,125.882c0,4.344-3.353,7.869-7.482,7.869H9.757c-4.132,0-7.483-3.523-7.483-7.869V35.654
			c0-4.347,3.352-7.87,7.483-7.87h68.119c4.131,0,7.482,3.523,7.482,7.87L85.357,125.882L85.357,125.882z"/>
		
			<linearGradient id="XMLID_4_" gradientUnits="userSpaceOnUse" x1="3.3818" y1="80.7676" x2="85.5273" y2="80.7676" gradientTransform="matrix(1 0 0 1 -0.6387 0)">
			<stop  offset="0" style="stop-color:#A2D8E0"/>
			<stop  offset="0.0899" style="stop-color:#1878AD"/>
			<stop  offset="0.2135" style="stop-color:#194D91"/>
			<stop  offset="0.6404" style="stop-color:#2B90BD"/>
			<stop  offset="0.9438" style="stop-color:#82CBDE"/>
			<stop  offset="1" style="stop-color:#1A478D"/>
			<a:midPointStop  offset="0" style="stop-color:#A2D8E0"/>
			<a:midPointStop  offset="0.5" style="stop-color:#A2D8E0"/>
			<a:midPointStop  offset="0.0899" style="stop-color:#1878AD"/>
			<a:midPointStop  offset="0.5" style="stop-color:#1878AD"/>
			<a:midPointStop  offset="0.2135" style="stop-color:#194D91"/>
			<a:midPointStop  offset="0.5" style="stop-color:#194D91"/>
			<a:midPointStop  offset="0.6404" style="stop-color:#2B90BD"/>
			<a:midPointStop  offset="0.5" style="stop-color:#2B90BD"/>
			<a:midPointStop  offset="0.9438" style="stop-color:#82CBDE"/>
			<a:midPointStop  offset="0.5" style="stop-color:#82CBDE"/>
			<a:midPointStop  offset="1" style="stop-color:#1A478D"/>
		</linearGradient>
		<path i:isolated="yes" i:knockout="Off" opacity="0.1" fill="url(#XMLID_4_)" enable-background="new    " d="M84.888,125.882
			c0,4.344-3.314,7.869-7.398,7.869H10.144c-4.086,0-7.4-3.523-7.4-7.869V35.654c0-4.347,3.314-7.87,7.4-7.87H77.49
			c4.084,0,7.398,3.523,7.398,7.87L84.888,125.882L84.888,125.882z"/>
		<path fill="none" stroke="#4D4D4D" stroke-width="0.977" d="M85.357,35.633V10.671c0-5.149-3.352-9.325-7.482-9.325H9.755
			c-4.131,0-7.481,4.175-7.481,9.325v115.21c0,4.346,3.352,7.869,7.483,7.869h68.118c4.13,0,7.482-3.525,7.482-7.869l0.001-90.228
			C85.358,35.647,85.357,35.64,85.357,35.633z"/>
	</g>
	<g i:knockout="Off">
		<g i:knockout="Off">
			<path fill="#1D8F38" d="M67.573,69.992c-1.271-2.862-0.232-3.936,0.346-6.559c0.576-2.624-1.039-7.395-1.039-9.42
				c0-2.029,1.99-4.604,1.039-9.422c-0.766-3.864-2.945-4.874-5.131-4.936c-2.721-0.078-4.643,2.298-5.156,4.892
				c-0.949,4.816,1.039,7.393,1.039,9.421c0,2.026-1.615,6.797-1.039,9.419c0.578,2.625,1.617,3.697,0.349,6.561
				c-1.271,2.86-0.925,10.971,4.731,11.806l0.293-0.004C68.661,80.914,68.841,72.854,67.573,69.992z M65.378,47.335
				c-0.346,3.459-1.928,4.234-1.154,8.348c0.791,4.204,0.81,6.319,0.115,9.778c-0.69,3.457-0.156,4.663,0.463,6.797
				c0.824,2.842-0.217,6.618-2.201,6.514c-1.288-0.067-3.094-1.933-1.85-6.559c0.576-2.146,1.154-3.339,0.461-6.797
				s-0.676-5.574,0.115-9.778c0.772-4.112-0.81-4.89-1.154-8.348c-0.346-3.459,2.193-3.577,2.193-3.577l0.817,0.044
				C63.185,43.757,65.724,43.876,65.378,47.335z"/>
		</g>
		<path i:knockout="Off" fill="none" d="M39.563,52.441c-1.936,2.751-1.287,4.343-4.443,6.847c-3.227,2.561-4.576,4.093-6.262,7.069
			"/>
		<path fill="#1D8F38" d="M42.968,56.221c-0.859,0-3.914,1.786-5.732,4.911c-2.088,3.584-3.412,5.141-6.098,7.219
			c-1.656,1.281-2.418,2.246-2.98,3.253c0,0-0.037,1.468-0.086,3.125c-0.049,1.657-0.652,3.382-0.652,3.382
			c1.604-1.361,2.803-3.112,3.184-4.354c0.895-2.913,2.32-3.026,4.395-4.568c2.074-1.542,3.924-6.076,5.205-7.556
			c0.52-0.602,1.834-1.898,2.506-1.898c0.674,0,2.182,1.222,2.769,1.898c1.28,1.479,3.131,6.013,5.204,7.556
			c2.074,1.542,3.5,1.655,4.396,4.568c0.381,1.242,1.578,2.993,3.184,4.354c0,0-0.684-1.725-0.731-3.382
			c-0.049-1.657-0.006-3.125-0.006-3.125c-0.562-1.008-1.326-1.973-2.982-3.253c-2.684-2.078-4.008-3.635-6.096-7.219
			C46.712,58.16,43.825,56.221,42.968,56.221z"/>
		<path fill="#1D8F38" d="M39.396,48.508c-3.729,2.903-3.852,6.358-5.133,7.841c-1.119,1.294-4.449,3.318-6.102,5.336
			c0,0-0.229,0.45-0.291,1.37c-0.064,0.919-0.74,2.714-0.865,3.849c-0.125,1.135,0.25,1.79,0.25,1.79
			c0.502-0.572,1.021-1.309,1.604-2.336c1.686-2.977,3.035-4.509,6.262-7.069c3.156-2.504,2.508-4.096,4.443-6.847
			c0.943-1.339,2.119-1.903,2.83-1.878c1.174,0,2.043,0.409,2.043,0.409c0.522,0.21,1.098,0.646,1.676,1.469
			c1.938,2.751,1.289,4.343,4.444,6.847c3.228,2.561,4.574,4.093,6.263,7.069c0.582,1.027,1.102,1.764,1.604,2.336
			c0,0,0.25-0.655,0.125-1.79c-0.125-1.135-0.91-2.93-0.975-3.849c-0.064-0.92-0.058-1.37-0.058-1.37
			c-1.651-2.018-4.981-4.042-6.102-5.336c-1.281-1.482-1.477-4.654-5.205-7.558C43.218,46.463,41.009,47.139,39.396,48.508z"/>
		<g i:knockout="Off">
			<path fill="#1D8F38" d="M27.698,69.947c-1.27-2.862-0.23-3.936,0.348-6.561c0.576-2.622-1.041-7.393-1.041-9.419
				c0-2.028,1.99-4.604,1.041-9.421c-0.514-2.594-2.436-4.97-5.156-4.892c-2.186,0.062-4.367,1.071-5.131,4.936
				c-0.951,4.817,1.039,7.393,1.039,9.422c0,2.025-1.615,6.796-1.039,9.42c0.578,2.623,1.617,3.696,0.346,6.559
				c-1.27,2.86-1.088,10.922,4.568,11.757l0.293,0.004C28.622,80.918,28.968,72.809,27.698,69.947z M25.505,47.29
				c-0.346,3.458-1.928,4.235-1.154,8.348c0.791,4.204,0.809,6.32,0.115,9.778c-0.694,3.458-0.115,4.65,0.461,6.797
				c1.244,4.626-0.561,6.49-1.85,6.559c-1.984,0.104-3.025-3.672-2.201-6.514c0.619-2.134,1.154-3.34,0.463-6.797
				c-0.693-3.459-0.676-5.574,0.115-9.778c0.773-4.113-0.809-4.889-1.154-8.348c-0.348-3.459,2.193-3.578,2.193-3.578l0.818-0.044
				C23.312,43.713,25.851,43.831,25.505,47.29z"/>
		</g>
		<g i:knockout="Off">
			<g i:knockout="Off">
				<path fill="#1D8F38" d="M67.919,104.154c-0.578-2.623-1.617-3.696-0.346-6.56c1.268-2.86,1.088-10.922-4.568-11.757
					l-0.293-0.004c-5.656,0.835-6.002,8.944-4.731,11.806c1.27,2.862,0.229,3.936-0.349,6.561c-0.576,2.622,1.039,7.393,1.039,9.419
					c0,2.027-1.988,4.604-1.039,9.421c0.515,2.594,2.437,4.97,5.156,4.892c2.186-0.062,4.365-1.07,5.131-4.936
					c0.951-4.817-1.039-7.394-1.039-9.422C66.88,111.549,68.495,106.778,67.919,104.154z M63.185,123.831l-0.817,0.044
					c0,0-2.539-0.118-2.193-3.577c0.347-3.458,1.928-4.235,1.154-8.348c-0.791-4.204-0.81-6.32-0.115-9.778s0.115-4.65-0.461-6.797
					c-1.244-4.626,0.562-6.49,1.85-6.559c1.984-0.104,3.025,3.672,2.201,6.514c-0.619,2.134-1.153,3.34-0.463,6.797
					c0.693,3.459,0.676,5.574-0.115,9.778c-0.772,4.112,0.81,4.889,1.154,8.348S63.185,123.831,63.185,123.831z"/>
			</g>
			<path i:knockout="Off" fill="none" d="M39.563,115.146c-1.936-2.751-1.287-4.343-4.443-6.847
				c-3.227-2.561-4.576-4.093-6.262-7.069"/>
			<path fill="#1D8F38" d="M48.442,106.456c2.088-3.584,3.412-5.141,6.096-7.219c1.656-1.281,2.42-2.246,2.982-3.254
				c0,0-0.044-1.468,0.006-3.125c0.049-1.657,0.731-3.382,0.731-3.382c-1.604,1.361-2.803,3.112-3.184,4.354
				c-0.896,2.913-2.32,3.026-4.396,4.568c-2.073,1.543-3.924,6.075-5.205,7.556c-0.586,0.677-2.094,1.897-2.768,1.897
				c-0.672,0-1.986-1.297-2.506-1.897c-1.281-1.479-3.131-6.013-5.205-7.556c-2.074-1.542-3.5-1.655-4.395-4.568
				c-0.381-1.242-1.58-2.993-3.184-4.354c0,0,0.604,1.725,0.652,3.382c0.049,1.657,0.086,3.125,0.086,3.125
				c0.562,1.008,1.324,1.973,2.98,3.254c2.686,2.078,4.01,3.635,6.098,7.219c1.818,3.125,4.873,4.911,5.732,4.911
				C43.825,111.367,46.712,109.428,48.442,106.456z"/>
			<path fill="#1D8F38" d="M46.21,118.797c3.729-2.903,3.924-6.075,5.205-7.558c1.119-1.294,4.449-3.318,6.102-5.336
				c0,0-0.008-0.45,0.058-1.37c0.063-0.919,0.85-2.714,0.975-3.85c0.125-1.135-0.125-1.79-0.125-1.79
				c-0.502,0.572-1.021,1.31-1.604,2.336c-1.688,2.978-3.035,4.51-6.263,7.069c-3.155,2.504-2.508,4.096-4.444,6.847
				c-0.578,0.822-1.152,1.26-1.676,1.47c0,0-0.869,0.409-2.043,0.409c-0.711,0.024-1.887-0.539-2.83-1.879
				c-1.936-2.751-1.287-4.343-4.443-6.847c-3.227-2.561-4.576-4.093-6.262-7.069c-0.582-1.026-1.102-1.764-1.604-2.336
				c0,0-0.375,0.655-0.25,1.79c0.125,1.136,0.801,2.931,0.865,3.85c0.062,0.92,0.291,1.37,0.291,1.37
				c1.652,2.018,4.982,4.042,6.102,5.336c1.281,1.481,1.404,4.938,5.133,7.841C41.009,120.449,43.218,121.125,46.21,118.797z"/>
			<g i:knockout="Off">
				<path fill="#1D8F38" d="M28.046,104.2c-0.578-2.625-1.617-3.697-0.348-6.561c1.27-2.86,0.924-10.971-4.732-11.806l-0.293,0.004
					c-5.656,0.835-5.838,8.896-4.568,11.757c1.271,2.862,0.232,3.937-0.346,6.56c-0.576,2.624,1.039,7.395,1.039,9.42
					c0,2.028-1.99,4.604-1.039,9.422c0.764,3.864,2.945,4.874,5.131,4.936c2.721,0.078,4.643-2.298,5.156-4.892
					c0.949-4.816-1.041-7.394-1.041-9.421C27.005,111.593,28.622,106.822,28.046,104.2z M23.312,123.875l-0.818-0.044
					c0,0-2.541-0.119-2.193-3.578c0.346-3.459,1.928-4.234,1.154-8.348c-0.791-4.204-0.809-6.319-0.115-9.778
					c0.691-3.457,0.156-4.663-0.463-6.797c-0.824-2.842,0.217-6.618,2.201-6.514c1.289,0.067,3.094,1.933,1.85,6.559
					c-0.576,2.146-1.154,3.339-0.461,6.797c0.693,3.458,0.676,5.574-0.115,9.778c-0.773,4.111,0.809,4.89,1.154,8.348
					C25.851,123.757,23.312,123.875,23.312,123.875z"/>
			</g>
		</g>
	</g>
</g>
</svg>
