<?xml version="1.0" encoding="utf-8"?>
<!-- Generator: Adobe Illustrator 12.0.0, SVG Export Plug-In . SVG Version: 6.00 Build 51448)  -->
<!DOCTYPE svg PUBLIC "-//W3C//DTD SVG 1.1//EN" "http://www.w3.org/Graphics/SVG/1.1/DTD/svg11.dtd" [
	<!ENTITY ns_flows "http://ns.adobe.com/Flows/1.0/">
	<!ENTITY ns_extend "http://ns.adobe.com/Extensibility/1.0/">
	<!ENTITY ns_ai "http://ns.adobe.com/AdobeIllustrator/10.0/">
	<!ENTITY ns_graphs "http://ns.adobe.com/Graphs/1.0/">
	<!ENTITY ns_vars "http://ns.adobe.com/Variables/1.0/">
	<!ENTITY ns_imrep "http://ns.adobe.com/ImageReplacement/1.0/">
	<!ENTITY ns_sfw "http://ns.adobe.com/SaveForWeb/1.0/">
	<!ENTITY ns_custom "http://ns.adobe.com/GenericCustomNamespace/1.0/">
	<!ENTITY ns_adobe_xpath "http://ns.adobe.com/XPath/1.0/">
	<!ENTITY ns_svg "http://www.w3.org/2000/svg">
	<!ENTITY ns_xlink "http://www.w3.org/1999/xlink">
]>
<svg  version="1.1"
	 xmlns:x="&ns_extend;" xmlns:i="&ns_ai;" xmlns:graph="&ns_graphs;" i:viewOrigin="-0.2363 64.9995" i:rulerOrigin="0 0" i:pageBounds="0 65 45 0"
	 xmlns="&ns_svg;" xmlns:xlink="&ns_xlink;" xmlns:a="http://ns.adobe.com/AdobeSVGViewerExtensions/3.0/"
	 width="45.73" height="65.236" viewBox="0 0 45.73 65.236" overflow="visible" enable-background="new 0 0 45.73 65.236"
	 xml:space="preserve">
<metadata>
	<variableSets  xmlns="&ns_vars;">
		<variableSet  varSetName="binding1" locked="none">
			<variables></variables>
			<v:sampleDataSets  xmlns:v="&ns_vars;" xmlns="&ns_custom;"></v:sampleDataSets>
		</variableSet>
	</variableSets>
</metadata>
<g id="图层_1" i:layer="yes" i:dimmedPercent="50" i:rgbTrio="#4F008000FFFF">
	<g>
		<g i:knockout="Off">
			<path fill="#333333" d="M1.183,47.467v12.074c0,2.493,1.622,4.515,3.619,4.515h37.307c2.001,0,3.622-2.021,3.622-4.515h-0.002
				V3.807c0-2.1-1.622-3.807-3.62-3.807H4.802C2.804,0,1.183,1.707,1.183,3.807H1.181v43.651C1.181,47.46,1.183,47.464,1.183,47.467
				z"/>
			
				<linearGradient id="XMLID_3_" gradientUnits="userSpaceOnUse" x1="-41.7017" y1="22.0117" x2="-41.7017" y2="82.7559" gradientTransform="matrix(1 0 0 -1 64.2148 87.0107)">
				<stop  offset="0.0393" style="stop-color:#0060B6"/>
				<stop  offset="0.0899" style="stop-color:#2089B9"/>
				<stop  offset="0.0985" style="stop-color:#4FA3C2"/>
				<stop  offset="0.1071" style="stop-color:#77B9CA"/>
				<stop  offset="0.1138" style="stop-color:#8FC7CF"/>
				<stop  offset="0.118" style="stop-color:#98CCD1"/>
				<stop  offset="0.1341" style="stop-color:#9ECFD3"/>
				<stop  offset="0.156" style="stop-color:#AFD6D9"/>
				<stop  offset="0.1809" style="stop-color:#CBE1E3"/>
				<stop  offset="0.1966" style="stop-color:#E1EAEB"/>
				<a:midPointStop  offset="0.0393" style="stop-color:#0060B6"/>
				<a:midPointStop  offset="0.5" style="stop-color:#0060B6"/>
				<a:midPointStop  offset="0.0899" style="stop-color:#2089B9"/>
				<a:midPointStop  offset="0.5" style="stop-color:#2089B9"/>
				<a:midPointStop  offset="0.0985" style="stop-color:#4FA3C2"/>
				<a:midPointStop  offset="0.5" style="stop-color:#4FA3C2"/>
				<a:midPointStop  offset="0.1071" style="stop-color:#77B9CA"/>
				<a:midPointStop  offset="0.5" style="stop-color:#77B9CA"/>
				<a:midPointStop  offset="0.1138" style="stop-color:#8FC7CF"/>
				<a:midPointStop  offset="0.5" style="stop-color:#8FC7CF"/>
				<a:midPointStop  offset="0.118" style="stop-color:#98CCD1"/>
				<a:midPointStop  offset="0.5" style="stop-color:#98CCD1"/>
				<a:midPointStop  offset="0.1341" style="stop-color:#9ECFD3"/>
				<a:midPointStop  offset="0.5" style="stop-color:#9ECFD3"/>
				<a:midPointStop  offset="0.156" style="stop-color:#AFD6D9"/>
				<a:midPointStop  offset="0.5" style="stop-color:#AFD6D9"/>
				<a:midPointStop  offset="0.1809" style="stop-color:#CBE1E3"/>
				<a:midPointStop  offset="0.5" style="stop-color:#CBE1E3"/>
				<a:midPointStop  offset="0.1966" style="stop-color:#E1EAEB"/>
			</linearGradient>
			<path fill="url(#XMLID_3_)" d="M44.787,60.488c0,2.493-1.623,4.512-3.622,4.512H3.857c-1.998,0-3.619-2.021-3.619-4.512V8.763
				c0-2.489,1.623-4.508,3.619-4.508h37.308c2.001,0,3.62,2.02,3.62,4.508v51.725H44.787z"/>
			<path fill="none" stroke="#333333" stroke-width="0.4727" d="M44.787,60.488c0,2.493-1.623,4.512-3.622,4.512H3.857
				c-1.998,0-3.619-2.021-3.619-4.512V8.763c0-2.489,1.623-4.508,3.619-4.508h37.308c2.001,0,3.62,2.02,3.62,4.508v51.725H44.787z"
				/>
			<path fill="#FFFFFF" d="M0.236,4.752c0-2.101,1.625-3.807,3.621-3.807h37.308c1.999,0,3.619,1.704,3.619,3.807v43.65
				c0,2.104-1.621,3.807-3.619,3.807H3.857c-2,0-3.621-1.702-3.621-3.807V4.752L0.236,4.752z"/>
			
				<linearGradient id="XMLID_4_" gradientUnits="userSpaceOnUse" x1="2.5527" y1="25.2319" x2="46.6445" y2="25.2319" gradientTransform="matrix(-1 0 0 1 47.1094 1.3447)">
				<stop  offset="0" style="stop-color:#A2D8E0"/>
				<stop  offset="0.0899" style="stop-color:#1878AD"/>
				<stop  offset="0.2135" style="stop-color:#194D91"/>
				<stop  offset="0.6404" style="stop-color:#2B90BD"/>
				<stop  offset="0.9438" style="stop-color:#82CBDE"/>
				<stop  offset="1" style="stop-color:#1A478D"/>
				<a:midPointStop  offset="0" style="stop-color:#A2D8E0"/>
				<a:midPointStop  offset="0.5" style="stop-color:#A2D8E0"/>
				<a:midPointStop  offset="0.0899" style="stop-color:#1878AD"/>
				<a:midPointStop  offset="0.5" style="stop-color:#1878AD"/>
				<a:midPointStop  offset="0.2135" style="stop-color:#194D91"/>
				<a:midPointStop  offset="0.5" style="stop-color:#194D91"/>
				<a:midPointStop  offset="0.6404" style="stop-color:#2B90BD"/>
				<a:midPointStop  offset="0.5" style="stop-color:#2B90BD"/>
				<a:midPointStop  offset="0.9438" style="stop-color:#82CBDE"/>
				<a:midPointStop  offset="0.5" style="stop-color:#82CBDE"/>
				<a:midPointStop  offset="1" style="stop-color:#1A478D"/>
			</linearGradient>
			<path i:isolated="yes" i:knockout="Off" opacity="0.1" fill="url(#XMLID_4_)" enable-background="new    " d="M0.465,4.752
				c0-2.101,1.603-3.807,3.579-3.807h36.935c1.976,0,3.578,1.704,3.578,3.807v43.65c0,2.104-1.603,3.807-3.578,3.807H4.044
				c-1.976,0-3.579-1.702-3.579-3.807V4.752L0.465,4.752z"/>
			<path fill="none" stroke="#4D4D4D" stroke-width="0.4727" d="M0.236,48.411v12.077c0,2.49,1.623,4.512,3.621,4.512h37.308
				c1.999,0,3.619-2.019,3.619-4.512V4.752c0-2.101-1.621-3.807-3.619-3.807H3.857c-1.998,0-3.62,1.707-3.62,3.807l-0.001,43.65
				C0.236,48.405,0.236,48.411,0.236,48.411z"/>
		</g>
		<g>
			<path i:knockout="Off" d="M22.038,6.225c3.541,0.217,5.61,1.937,8.781,2.035c5.658,1.134,8.38,1.47,9.382,7.73
				c0.952,2.085,1.985,2.52,2.102,4.841c2.705,7.126-4.407,8.08-4.407,13.471c1.053,2.32,1.953,2.67,2.571,5.375
				c1.138,0.6,1.92,1.116,2.037,2.236c-2.169,1.72-7.461,2.437-10.166,2.505c-7.194-0.92-16.325,0.901-23.302-1.971
				c0-0.203-0.017-0.436-0.032-0.65c3.705-2.103,8.764,0.331,12.302-1.721c0-0.051,0-0.116,0-0.199
				c-1.202-0.484-2.738-1.403-4.241-1.521C8.652,39.542,5.081,31.063,6.283,23.751c0.082-0.167,0.166-0.332,0.233-0.487
				c5.058-0.917,10.083,2.508,15.191,1.039c0-0.567-14.257,0.801-9.081-4.356c-0.067-0.702-3.222-3.923,0.3-4.492
				c-0.018-0.184-0.034-0.369-0.065-0.551c-0.085-0.067-0.185-0.116-0.285-0.2c-0.584,0.731-1.319,1.218-1.937,1.902
				c0,4.475-2.104,5.475-4.708,1.834c-5.843-0.682-2.837-5.656-3.188-9.812c1.619-4.876,8.529,1.084,12.019-0.083
				C17.249,6.993,19.387,6.424,22.038,6.225L22.038,6.225z M28.1,23.419c-0.901,0.083-2.555,1.935-3.423,2.654
				c0.016,0.233,0.016,0.233,0.168,0.448C26.58,26.522,27.714,24.853,28.1,23.419L28.1,23.419z M12.442,12.901
				c-0.302,0-0.918,0.202-1.403,0.234c0.067,0.2,0.134,0.402,0.166,0.584c0.536,0,1.052-0.018,1.554-0.033
				C12.659,13.538,12.559,13.001,12.442,12.901z"/>
			<path i:knockout="Off" d="M27.496,10.114c2.338,1.752-1.768,3.054-1.251,0.702C26.529,10.299,26.881,10.114,27.496,10.114z"/>
			<path i:knockout="Off" fill="#FFFFFF" d="M27.433,10.516c0.082,0.064,0.148,0.1,0.199,0.148c0.017,0.185,0.05,0.336,0.066,0.501
				c-0.301-0.116-0.635-0.267-0.969-0.4C26.998,10.5,27.18,10.516,27.433,10.516z"/>
			<path i:knockout="Off" fill="#FFFFFF" d="M26.812,11.216c0.202,0.1,0.418,0.2,0.62,0.282c0,0.117,0,0.218,0,0.318
				c-0.302,0-0.92,0.102-0.82-0.6C26.696,11.216,26.762,11.216,26.812,11.216z"/>
			<path i:knockout="Off" fill="#FFFFFF" d="M23.142,13.051c1.618,5.66-6.311,4.289-5.859,1.956
				C19.302,14.503,21.238,13.151,23.142,13.051z"/>
			<path i:knockout="Off" fill="#B3B3B3" d="M26.213,13.103c1.22,0.266,1.118,0.985,1.22,1.735
				c-0.086,0.052-0.186,0.085-0.285,0.116c-0.084,0.482-0.084,0.333-0.435,0.636c0.384,1.769,0.518,2.92,0.567,4.572
				c-0.133,0-0.301-0.033-0.468-0.051c-0.217,0.603-0.533,0.621-0.451,1.269c-0.532,0.537-0.633,0.418-1.334,0.469
				c0,0.167-0.033,0.334-0.05,0.469c-0.735,0.266-1.368,0.531-2.254,0.699c-0.034-0.2-0.034-0.2-0.133-0.284
				c-0.92,1.367-7.479,0.552-9.047,0.2c0-0.2,0-0.4,0-0.615c-0.134,0.131-0.269,0.248-0.418,0.349c-0.167-0.4-0.167-0.4-0.266-0.466
				c-0.051,0.084-0.118,0.146-0.185,0.2c-0.1,0-0.2,0-0.3,0c-0.734-1.12-0.351-1.421,0.751-1.92
				c0.018,0.266,0.051,0.517,0.051,0.768c1.636,1.036,4.84,0.499,6.56,0.785c0.017-0.083,0.033-0.17,0.051-0.236
				c-0.084,0-0.169-0.033-0.269-0.051c-0.449-0.666-0.367-2.719,0.818-2.87c-0.267-0.352-3.489-0.116-4.557-0.552
				c-0.102,0.116-0.102,0.116-0.135,0.401c-0.066-0.016-0.133-0.033-0.199-0.067c-0.033-0.134-0.067-0.284-0.117-0.415
				c-0.084,0.015-0.149,0.015-0.233,0.015c-0.036,0.167-0.051,0.318-0.069,0.467c-0.984-0.067-2.286,0.367-2.585-0.9
				c-0.151,0.016-0.318,0.049-0.484,0.049c-0.501-0.82,0.316-1.368,0.884-1.604c-0.385,2.29,3.105,1.436,4.64,1.487
				c0,0.167,0,0.333-0.017,0.485c0.1,0.033,0.201,0.048,0.285,0.081c0.033-0.166,0.048-0.333,0.082-0.515
				c2.237-0.102,5.576-0.185,7.478-1.236c0.019-0.065,0.033-0.15,0.033-0.232C23.809,14.705,24.06,13.538,26.213,13.103z"/>
			<path i:knockout="Off" d="M26.412,13.919c1.371,2.053-2.636,1.368-0.716,0.033C25.946,13.953,26.18,13.953,26.412,13.919z"/>
			<path i:knockout="Off" d="M21.306,14.136c0.017,0.116,0.032,0.233,0.049,0.367c-0.1-0.033-0.2-0.048-0.299-0.066
				c0.016-0.098,0.048-0.2,0.048-0.301C21.173,14.136,21.238,14.136,21.306,14.136z"/>
			<path i:knockout="Off" fill="#A298B0" d="M33.625,15.421c2.587,1.286,3.722,0.384,3.722,4.326
				c-0.149,0.131-0.149,0.131-1.735,3.469c-1.068,0-6.963-1.266-7.562-2.186C29.283,18.642,30.285,15.421,33.625,15.421
				L33.625,15.421z M39.95,16.99c-0.017,0.018-0.051,0.018-0.102,0.018c-0.949,2.619-1.166,3.103-3.12,4.909
				c-0.884,1.768-0.935,3.619-3.122,3.255c0,0.08,0,0.131,0,0.197c0.969,0.65,0.551,0.65,1.587,0.185
				C39.849,24.402,42.788,21.664,39.95,16.99L39.95,16.99z M30.15,8.878C29.634,8.93,29.1,8.947,28.565,8.962
				c0,0.085,0,0.167-0.017,0.218c2.656,2.669,2.004,4.241,0.918,7.511c-0.316,0.182-0.582,0.851-0.6,1.136
				c0.083,0,0.134,0,0.199-0.017c1.67-2.622,2.404-3.841,5.509-4.225c4.291,0.503,3.589,3.857,2.987,6.896
				c1.987-0.97,3.021-6.329,0.45-7.611c0.018-0.136,0.035-0.252,0.035-0.369c0.135-0.034,0.233-0.066,0.333-0.102
				c-0.017-0.081-0.031-0.166-0.067-0.25c-0.2-0.049-0.399-0.082-0.6-0.116c-0.034-0.334,0.032-0.4,0.032-0.6
				C35.292,9.395,33.79,9.479,30.15,8.878L30.15,8.878z M22.94,6.927c0.969,0.117,1.971,0.284,2.788,0.564
				c0.033,0.088,0.051,0.136,0.066,0.205c-5.477-0.485-8.979-0.088-10.382,5.523c-0.585,0.182-1.604,0.017-2.371-0.083
				C13.042,8.512,19.504,6.927,22.94,6.927L22.94,6.927z M23.543,7.942c-3.992,0.12-6.879,0.82-7.663,5.277
				c1.671,0.033,1.671,0.033,2.62-0.051c0.067-0.065,0.102-0.118,0.151-0.201c0.467,0,0.283,0.067,0.735-0.066
				c0.033,0.049,0.048,0.085,0.081,0.1c0.553,0.082,3.79-0.267,3.874-0.682c0.082,0,0.15,0,0.201,0c0,0.081,0,0.131,0,0.197
				c0.917-0.233,0.768,0.587,1.149,0.587c4.274-1.585,2.438,2.771,3.006,4.522c0.1,0.018,0.184,0.018,0.267,0.018
				c0.135-0.218,0.135-0.5,0.135-0.902c0.099,0.067,0.099,0.067,0.217,0.551c0.066-0.018,0.133-0.033,0.201-0.049
				c0.031-0.187,0.048-0.37,0.082-0.552c0.1,0.033,0.184,0.085,0.268,0.118c-0.033-0.101-0.051-0.201-0.084-0.335
				c0.084-0.099,0.084-0.099,0.4-0.084c0.134-1.466,1.286-4.955-0.635-6.243c-0.116-0.518-0.166-0.382-0.649-0.966
				c-0.102,0.134-0.201,0.251-0.318,0.351c0-0.202,0-0.417-0.032-0.653C26.213,8.312,25.161,8.062,23.543,7.942L23.543,7.942z
				 M28.049,21.631c-0.051,0.033-0.102,0.051-0.167,0.084c-0.067,0.501,0,0.919,0.018,1.218c2.451,0.734,4.473,1.534,6.742,1.869
				c0.301-0.383,0.45-0.532,0.618-1.117C33.823,23.419,29.333,22.401,28.049,21.631z"/>
			<path i:knockout="Off" d="M25.311,17.34c0.118,0.168,0.118,0.168,0.135,0.634c0.2-0.064,0.267-0.164,0.451-0.147
				c0.116,4.757-1.47,3.303-5.36,3.655c-0.098-0.185,0.151-0.233,0.219-0.233c0-0.069,0-0.134,0-0.218c-0.101,0-0.234,0-0.352,0
				c0.035-0.051,0.067-0.134,0.082-0.215c0.118,0,0.219-0.021,0.32-0.054c-0.019-0.048-0.035-0.116-0.051-0.2
				c-0.135,0.069-0.135,0.069-0.234,0c0-1.868,2.703-2.37,4.106-2.735c0.017-0.133,0.05-0.302,0.065-0.467
				C24.893,17.359,25.095,17.359,25.311,17.34z"/>
			<path i:knockout="Off" d="M36.277,17.81c0.351,0.1,0.351,0.1,0.551,0.25c-0.567,0.418-1.15,0.833-1.72,1.234
				c-0.017,0.367-0.017,0.367,0.184,1.337c-1.502,0.248-3.604,0.218-5.291,0.131c0.051-0.116,0.084-0.266,0.135-0.4
				c1.034-0.517,1.034-0.517,2.755-1.167c0-0.217-0.067-0.468-0.234-0.87C33.907,18.007,35.108,17.891,36.277,17.81z"/>
			<path i:knockout="Off" fill="#FFCC00" d="M34.992,18.525c-0.2,1.034-0.435,0.469-0.2,1.837c-1.118-0.018-2.237-0.051-3.354-0.066
				c0.768-0.385,1.484-0.501,2.188-0.684c0-0.185,0-0.484-0.169-0.886C33.625,18.626,33.625,18.626,34.992,18.525z"/>
			<path i:knockout="Off" fill="#6878B7" d="M41.586,21.031c1.386,5.007-0.65,5.641-3.222,9.247c-0.6,0.316-1.618,0.734-1.686,0.836
				c0.519,0.015,1.035-0.254,1.435-0.2c0.236,1.553-1.435,1.953-2.654,2.153c-1.184-4.022,4.309-8.563,5.911-12.036
				C41.453,21.031,41.519,21.031,41.586,21.031L41.586,21.031z M36.478,25.656c-1.635,0.514-1.635,0.514-2.871,1.016
				c0.034,0.218,0.067,0.418,0.118,0.621c-0.269,0.196-0.234,0.298-0.718,0.298c-0.017-0.015-0.034-0.051-0.067-0.102
				c0.067-0.099,0.067-0.099,0.418-0.196c0-0.069,0-0.117,0-0.203c-2.087-0.517-2.104,1.737-3.789,2.454
				c-0.935,3.487,2.451,3.789,4.673,3.789c-0.5-3.004,0.316-4.876,2.222-7.411C36.478,25.841,36.478,25.754,36.478,25.656z"/>
			<path i:knockout="Off" fill="#FFCC00" d="M38.265,24.904c-0.785,2.119-3.956,3.406-3.238,8.312
				c-0.102,0.018-0.2,0.032-0.319,0.032C34.009,30.929,35.743,25.387,38.265,24.904z"/>
			<path i:knockout="Off" fill="#FF6600" d="M16.398,25.005c4.84,1.618,8.545-0.971,9.865,5.673c-0.2,0-0.285,0.102-0.402,0.235
				c0.184,0.514,0.234,0.866,0.085,1.2c-0.185-0.334-0.25-0.618-0.352-0.687c-0.135,1.254,0.317,2.072-1.069,2.523
				c-0.082,0.669-0.198,0.851-0.633,0.199c-0.167,0.168-0.084,0.771-0.084,0.902c-0.134-0.015-0.301-0.065-0.467-0.102
				c-0.034,0.119-0.084,0.251-0.133,0.367c-0.135-0.065-0.135-0.065-0.319,0.068c-0.398,1.019-2.119,1.135-3.153,1.102
				c0.582-0.687,1.785-0.636,2.069-1.836c-0.033-0.051-0.099-0.083-0.149-0.152c-0.302,0.287-0.269,0.236-0.702,0.287
				c0.033,0.334,0.033,0.334-0.066,0.517c-0.184,0-0.367,0-0.551,0c-0.033,0.102-0.084,0.2-0.117,0.283
				c-0.3-0.182-0.334-0.015-0.433,0.251c-0.2,0.084-0.2,0.084-0.669,0.084c-0.283-0.302-0.918,0.015-0.918-0.869
				c0.584-0.281,1.418-0.917,1.536-1.505c-0.818,0.319-4.189,2.94-4.189-0.266c0.517-0.534,2.453-0.985,3.371-1.902
				c-0.433-0.436-1.769,1.27-3.003,1.27c-0.069-0.149-0.135-0.284-0.219-0.448c-0.051,0-0.134,0-0.218,0
				c0,0.132-0.017,0.28-0.032,0.397c-0.317-0.048-0.35-0.117-0.619-0.601c-0.015,0.015-0.065,0.033-0.1,0.048
				c0,0.203,0,0.421-0.033,0.621c-1.969-0.534-1.302-3.021,0.684-3.272c0.018-0.068,0.034-0.116,0.034-0.2
				c1.367-0.687,1.971-1.302,3.505-1.604c0.017-0.015,0.033-0.051,0.051-0.102c-0.501-0.665-1.787,0.236-1.687-1.717
				c-0.251,0.048-0.316,0.165-0.35,0.35c-0.085-0.015-0.185-0.033-0.285-0.048c-0.032-0.254-0.067-0.505-0.1-0.771
				c-0.117,0.033-0.234,0.051-0.352,0.066C16.297,25.038,16.297,25.038,16.398,25.005L16.398,25.005z M6.799,7.443
				c0.4,0.551,0.734,0.266,1.168,0.369c0.034,0.081,0.068,0.149,0.119,0.215c0.667,0,1.167,0.233,1.635,0.451
				c0.1,0.452,0.1,0.452,0.201,0.501c0.116-0.116,0.266-0.168,0.382-0.134c0,0.233,0,0.469,0,0.686
				c0.051,0.016,0.084,0.049,0.101,0.065c0.45-0.384,0.249-0.666,1.153-0.417c0.015,0.082,0.031,0.149,0.064,0.215
				c-0.133,0-0.266,0-0.417-0.033c-0.283,0.769-1.435,5.407,0.417,5.042c0.018,0.12,0.034,0.236,0.034,0.366
				c-0.384,0.318-0.284,0.318-0.851,0.401c-0.033-0.1-0.051-0.2-0.067-0.333c-0.068,0.216-0.116,0.417-0.201,0.618
				c-0.099-0.116-0.099-0.267-0.467-0.351c0.017,0.099,0.033,0.182,0.033,0.267c-0.033,0.064-0.084,0.1-0.134,0.149
				c-0.048-0.049-0.116-0.085-0.167-0.149c-0.1,0.083-0.1,0.083-0.083,0.285c0.467,0.35,0.201,2.233,0.201,2.519
				c-0.269,0.102-0.269,0.102-0.402,0.285c0.117,0.017,0.234,0.049,0.334,0.064c0.033,0.134,0.05,0.285,0.068,0.403
				c-0.185,0-0.436,0.083-0.553,0.201c0.151,0.033,0.284,0.048,0.4,0.066c-0.3,1.6-3.839,0.884-2.603-3.004
				c0.217-0.035,0.45-0.082,0.651-0.117c0.017-0.067,0.033-0.116,0.033-0.2c-0.567-0.485-1.869,0.083-2.52,0.467
				c0,0.1-0.034,0.182-0.051,0.266c0.352-0.083,0.5-0.233,1.436-0.466c-0.083,0.466-0.083,0.466-0.484,1.418
				c-1.686,0.084-3.355-0.219-3.355-2.389c0.117-0.349,0.985-2.136,0.917-2.454c-0.149-0.015-0.299-0.031-0.467-0.083
				c-0.55-1.686,1.854-2.402,0.235-2.687C3.512,8.662,3.913,7.411,5.665,7.56c0.05,0.1,0.083,0.2,0.116,0.3
				c0.385-0.015,0.467-0.116,0.667,0.033C6.467,7.86,6.7,7.342,6.799,7.443z"/>
			<path i:knockout="Off" fill="#FFFFFF" d="M33.273,25.453c0.2,0.135,0.4,0.287,0.584,0.403c0.034,0.102,0.034,0.182,0.034,0.266
				c-0.334,0-0.534-0.185-0.836-0.669C33.123,25.453,33.208,25.453,33.273,25.453z"/>
			<path i:knockout="Off" fill="#FFFFFF" d="M33.007,25.958c0.333,0.212,0.249,0.299,0.267,0.43
				c-0.15-0.015-0.301-0.029-0.469-0.048C32.84,25.988,32.84,25.802,33.007,25.958z"/>
			<path i:knockout="Off" d="M22.591,27.809c3.806,0.633,3.422,6.61-0.418,5.657c-0.582-1.334-1.135-2.621-2.055-4.007
				c-0.133-0.015-0.249-0.048-0.382-0.065C19.736,28.925,21.989,27.809,22.591,27.809z"/>
			<path i:knockout="Off" fill="#C82A31" d="M22.858,28.208c3.321,0.651,2.02,6.109-0.504,4.858
				c-0.466-1.236-0.933-2.404-1.768-3.741C20.856,28.543,22.173,28.208,22.858,28.208z"/>
			<path i:knockout="Off" fill="#FFFFFF" d="M37.096,33.132c0.102,1.639,0.251,2.186,0.302,3.072
				c-2.756,2.287-4.124,0.015-5.16-2.32C34.174,33.801,35.459,33.383,37.096,33.132z"/>
			<path i:knockout="Off" fill="#FFFF00" d="M30.971,34.601c2.118,0.266,1.751,0.52,2.303,2.287
				c-0.617-0.099-0.617-0.099-0.936-0.232c-0.133-0.437-0.268-0.887-0.417-1.338c-0.199-0.099-0.199-0.099-2.187-0.266
				C29.936,34.467,30.503,34.62,30.971,34.601L30.971,34.601z M29.534,38.423c0.333,0.52,0.251,0.636,0.268,1.068
				c-0.084,0-0.168,0-0.268-0.032c-0.1-0.251-0.1-0.251-0.15-0.968C29.449,38.474,29.5,38.441,29.534,38.423L29.534,38.423z
				 M30.201,38.074c-0.099,0-0.2,0-0.316,0c-0.051,0.099,0.251,0.717,0.316,1.186c0.219,0.051,0.418,0.065,0.618,0.083
				C30.721,38.805,30.819,38.656,30.201,38.074L30.201,38.074z M31.104,38.023c0.618,0.517,0.551,0.601,0.65,1.119
				c-0.517,0.117-1-0.352-0.851-1.119C30.986,38.023,31.053,38.023,31.104,38.023L31.104,38.023z M31.988,36.99
				c-0.267,0-0.267,0-0.351,0.065c0.751,0.55,1.102,0.651,1.269,0.785c0,0.066,0,0.135,0,0.2c-0.669,0.084-0.802-0.316-1.536-0.636
				c-0.034,0.033-0.083,0.084-0.133,0.102c0.451,0.451,1.603,1.702,2.219,1.084c0-0.382,0.018-0.633-0.248-1.186
				C32.805,37.289,32.389,37.139,31.988,36.99L31.988,36.99z M28.565,38.074c0.636,0.6,0.534,0.833,0.534,1.386
				c-0.2,0.218-0.334,0.167-0.734,0.199c-0.017-0.051-0.4-1.235-0.316-1.585C28.232,38.074,28.416,38.074,28.565,38.074
				L28.565,38.074z M26.812,38.074c0.284,0.065,0.553,0.135,0.819,0.167c0.268,0.753,0.25,1.168,0.268,1.72
				c-1.203-0.382-1.469-0.552-2.003-1.836C26.213,38.125,26.513,38.091,26.812,38.074L26.812,38.074z M39.081,36.954
				c-0.082,0-0.182,0-0.3-0.015c-0.333,0.483-0.7,0.952-1.067,1.418c-2.688,2.538-10.633,4.44-12.319-0.232
				c-2.12-1.586-3.738,3.854,1.553,4.287c0-0.182,0-0.367-0.033-0.549c0.05-0.033,0.084-0.051,0.101-0.065
				c0.082,0.167,0.148,0.331,0.216,0.465c1.604,0.051,2.971-0.349,4.207-0.349c0-0.051,0-0.116,0-0.203
				c0.984,0.385,7.194-1.016,8.011-1.833c0-0.066,0-0.12-0.031-0.2c-0.234,0.116-0.502,0.2-0.885,0.134
				c0.399-0.152,0.399-0.152,0.95-0.269c-0.017-0.083-0.034-0.182-0.065-0.283c-0.551,0.182-0.551,0.182-0.752,0.149
				c0.383-0.332,0.718,0,0.817-0.55c-0.283,0.116-0.283,0.116-0.483,0.084c0.082-0.102,0.082-0.102,0.483-0.219
				c0-0.116,0-0.25,0-0.399c-0.083,0-0.184,0-0.283,0C39.315,37.707,39.417,37.79,39.081,36.954L39.081,36.954z M38.048,35.837
				c-0.102,0.033-0.102,0.033-0.485,0.684c-1.268,1.054-2.07,0.952-3.739,0.618c0.068,1.284,0.251,2.618-1.551,1.72
				c-1.369,1.087-1.536,0.72-3.306,1.302c0.034,0.081,0.084,0.167,0.1,0.251c2.837,0.382,5.977-0.051,7.964-2.021
				C37.997,37.692,39.315,36.805,38.048,35.837L38.048,35.837z M30.085,37.106c-0.018,0.117-0.033,0.215-0.084,0.316
				c-0.065,0-0.116,0-0.199,0c0.032-0.119,0.065-0.25,0.083-0.367C29.967,37.071,30.018,37.106,30.085,37.106L30.085,37.106z
				 M30.351,37.255c0.085,0.087,0.152,0.167,0.202,0.251c-0.083,0.015-0.168,0.033-0.268,0.033
				c-0.033-0.051-0.084-0.117-0.135-0.183C30.201,37.255,30.201,37.255,30.351,37.255L30.351,37.255z M28.783,40.077
				c0,0.102,0,0.2,0,0.284c-0.135-0.033-0.266-0.099-0.418-0.152C28.449,40.125,28.449,40.125,28.783,40.077L28.783,40.077z
				 M33.892,42.128c0,0.084,0,0.134,0,0.2c-0.267,0.018-0.534,0.035-0.817,0.035C33.273,42.245,33.273,42.245,33.892,42.128
				L33.892,42.128z M38.532,40.812c0.1,0.032,0.182,0.032,0.249,0.032c0,0.065,0,0.135,0,0.2c-0.684,0.215-2.021,0.768-2.77,0.585
				C36.545,41.397,38.048,40.812,38.532,40.812L38.532,40.812z M22.791,40.528c0.517,0.251,1,0.935,1.234,1.203
				c-0.451,0-1.217-0.486-1.401-1.152C22.724,40.496,22.724,40.496,22.791,40.528z"/>
			<path i:knockout="Off" fill="#CB7B21" d="M15.915,34.951c0.098,0.036,0.199,0.087,0.281,0.102
				c-0.267,1.421-2.202,2.421-3.621,1.901C13.693,36.303,14.813,35.62,15.915,34.951L15.915,34.951z M12.726,24.554
				c0.117,0.051,0.233,0.116,0.35,0.167c0,2.47-4.088,3.771-6.009,4.04c-0.1-0.186-0.1-0.186-0.066-0.621
				c2.352-0.382,4.19-1.618,5.442-3.586C12.541,24.554,12.642,24.554,12.726,24.554z"/>
			<path i:knockout="Off" fill="#FF9900" d="M16.864,35.62c0.836,0.334,0.887,0.585,0.818,1.218c0.518,0,0.684,0.135,0.969,0.186
				c-0.033,0.083-0.05,0.131-0.067,0.2c-0.8,0.382-2.337,0.182-3.487,0.018C15.547,36.721,16.297,35.852,16.864,35.62L16.864,35.62z
				 M14.144,25.088c0.953,0.299,1.636,0.833,2.254,1.35c0,2.821-2.839,1.938-3.206,3.774c-0.201-0.019-0.201-0.019-0.267-0.102
				c0.017-0.015,0.033-0.065,0.066-0.099c-0.433-0.084-1.651-1.236-1.651-1.988c1.018-1.019,1.669-1.651,2.353-2.92
				C13.86,25.104,14.01,25.104,14.144,25.088L14.144,25.088z M7.818,23.667c-1.652,0.549-0.985,2.705-0.968,4.04
				c1.302-0.149,3.522-1.001,4.073-2.139c0.1-0.015,0.201-0.032,0.283-0.047c0.135-0.517,0.735-0.4,0.619-1.12
				C10.705,23.903,9.271,23.769,7.818,23.667L7.818,23.667z M10.739,28.677c-0.267,0-0.267,0-3.472,0.968
				c-0.116,0.818,0.35,2.019,0.467,2.604c0.116,0.033,0.25,0.048,0.352,0.068c-0.268,1.23,2.019,3.619,2.585,3.753
				c0.034,0.084,0.051,0.149,0.051,0.219c1.486,0.734,3.789-0.604,3.64-2.255c-0.367-0.331-0.969-0.901-1.185-1.567
				c-0.033,0.084-0.069,0.132-0.102,0.2C12.742,31.311,11.94,29.877,10.739,28.677z"/>
			<path i:knockout="Off" d="M7.885,8.962c2.704,0.452,1.685,1.034,1.969,3.689c0.084,0,0.15,0,0.217,0
				c-0.333,1.236-2.587,1.452-3.739,0.887C6.015,11.483,5.247,9.078,7.885,8.962z"/>
			<path i:knockout="Off" fill="#C82A31" d="M7.467,9.362C8.086,9.431,8.702,9.511,9.104,9.68c0.099,0.466,0.099,0.466,0.35,3.391
				c-0.817,0.149-1.653,0.266-2.654,0.298C6.332,12.901,5.882,9.531,7.467,9.362z"/>
		</g>
	</g>
</g>
</svg>
