<?xml version="1.0" encoding="utf-8"?>
<!-- Generator: Adobe Illustrator 12.0.0, SVG Export Plug-In . SVG Version: 6.00 Build 51448)  -->
<!DOCTYPE svg PUBLIC "-//W3C//DTD SVG 1.1//EN" "http://www.w3.org/Graphics/SVG/1.1/DTD/svg11.dtd" [
	<!ENTITY ns_flows "http://ns.adobe.com/Flows/1.0/">
	<!ENTITY ns_extend "http://ns.adobe.com/Extensibility/1.0/">
	<!ENTITY ns_ai "http://ns.adobe.com/AdobeIllustrator/10.0/">
	<!ENTITY ns_graphs "http://ns.adobe.com/Graphs/1.0/">
	<!ENTITY ns_vars "http://ns.adobe.com/Variables/1.0/">
	<!ENTITY ns_imrep "http://ns.adobe.com/ImageReplacement/1.0/">
	<!ENTITY ns_sfw "http://ns.adobe.com/SaveForWeb/1.0/">
	<!ENTITY ns_custom "http://ns.adobe.com/GenericCustomNamespace/1.0/">
	<!ENTITY ns_adobe_xpath "http://ns.adobe.com/XPath/1.0/">
	<!ENTITY ns_svg "http://www.w3.org/2000/svg">
	<!ENTITY ns_xlink "http://www.w3.org/1999/xlink">
]>
<svg  version="1.1"
	 xmlns:x="&ns_extend;" xmlns:i="&ns_ai;" xmlns:graph="&ns_graphs;" i:viewOrigin="-0.2363 64.9995" i:rulerOrigin="0 0" i:pageBounds="0 65 45 0"
	 xmlns="&ns_svg;" xmlns:xlink="&ns_xlink;" xmlns:a="http://ns.adobe.com/AdobeSVGViewerExtensions/3.0/"
	 width="45.73" height="65.236" viewBox="0 0 45.73 65.236" overflow="visible" enable-background="new 0 0 45.73 65.236"
	 xml:space="preserve">
<metadata>
	<variableSets  xmlns="&ns_vars;">
		<variableSet  varSetName="binding1" locked="none">
			<variables></variables>
			<v:sampleDataSets  xmlns:v="&ns_vars;" xmlns="&ns_custom;"></v:sampleDataSets>
		</variableSet>
	</variableSets>
</metadata>
<g id="图层_1" i:layer="yes" i:dimmedPercent="50" i:rgbTrio="#4F008000FFFF">
	<g>
		<g i:knockout="Off">
			<path fill="#333333" d="M1.182,47.467v12.077c0,2.49,1.622,4.512,3.619,4.512h37.308c2.001,0,3.622-2.021,3.622-4.512l0,0V3.807
				C45.73,1.705,44.105,0,42.108,0H4.801C2.803,0,1.182,1.705,1.182,3.807H1.181v43.651C1.181,47.46,1.182,47.464,1.182,47.467z"/>
			
				<linearGradient id="XMLID_3_" gradientUnits="userSpaceOnUse" x1="-41.7026" y1="22.0117" x2="-41.7026" y2="82.7578" gradientTransform="matrix(1 0 0 -1 64.2148 87.0107)">
				<stop  offset="0.0393" style="stop-color:#0060B6"/>
				<stop  offset="0.0899" style="stop-color:#2089B9"/>
				<stop  offset="0.0985" style="stop-color:#4FA3C2"/>
				<stop  offset="0.1071" style="stop-color:#77B9CA"/>
				<stop  offset="0.1138" style="stop-color:#8FC7CF"/>
				<stop  offset="0.118" style="stop-color:#98CCD1"/>
				<stop  offset="0.1341" style="stop-color:#9ECFD3"/>
				<stop  offset="0.156" style="stop-color:#AFD6D9"/>
				<stop  offset="0.1809" style="stop-color:#CBE1E3"/>
				<stop  offset="0.1966" style="stop-color:#E1EAEB"/>
				<a:midPointStop  offset="0.0393" style="stop-color:#0060B6"/>
				<a:midPointStop  offset="0.5" style="stop-color:#0060B6"/>
				<a:midPointStop  offset="0.0899" style="stop-color:#2089B9"/>
				<a:midPointStop  offset="0.5" style="stop-color:#2089B9"/>
				<a:midPointStop  offset="0.0985" style="stop-color:#4FA3C2"/>
				<a:midPointStop  offset="0.5" style="stop-color:#4FA3C2"/>
				<a:midPointStop  offset="0.1071" style="stop-color:#77B9CA"/>
				<a:midPointStop  offset="0.5" style="stop-color:#77B9CA"/>
				<a:midPointStop  offset="0.1138" style="stop-color:#8FC7CF"/>
				<a:midPointStop  offset="0.5" style="stop-color:#8FC7CF"/>
				<a:midPointStop  offset="0.118" style="stop-color:#98CCD1"/>
				<a:midPointStop  offset="0.5" style="stop-color:#98CCD1"/>
				<a:midPointStop  offset="0.1341" style="stop-color:#9ECFD3"/>
				<a:midPointStop  offset="0.5" style="stop-color:#9ECFD3"/>
				<a:midPointStop  offset="0.156" style="stop-color:#AFD6D9"/>
				<a:midPointStop  offset="0.5" style="stop-color:#AFD6D9"/>
				<a:midPointStop  offset="0.1809" style="stop-color:#CBE1E3"/>
				<a:midPointStop  offset="0.5" style="stop-color:#CBE1E3"/>
				<a:midPointStop  offset="0.1966" style="stop-color:#E1EAEB"/>
			</linearGradient>
			<path fill="url(#XMLID_3_)" d="M44.787,60.488c0,2.493-1.625,4.512-3.621,4.512H3.856c-1.998,0-3.619-2.019-3.619-4.512V8.765
				c0-2.49,1.623-4.511,3.619-4.511h37.309c2,0,3.619,2.021,3.619,4.511v51.723H44.787z"/>
			<path fill="none" stroke="#333333" stroke-width="0.4727" d="M44.787,60.488c0,2.493-1.625,4.512-3.621,4.512H3.856
				c-1.998,0-3.619-2.019-3.619-4.512V8.765c0-2.49,1.623-4.511,3.619-4.511h37.309c2,0,3.619,2.021,3.619,4.511v51.723H44.787z"/>
			<path fill="#FFFFFF" d="M0.236,4.752c0-2.101,1.622-3.807,3.62-3.807h37.309c1.999,0,3.619,1.705,3.619,3.807v43.653
				c0,2.102-1.622,3.804-3.619,3.804H3.856c-1.998,0-3.62-1.702-3.62-3.807V4.752L0.236,4.752z"/>
			
				<linearGradient id="XMLID_4_" gradientUnits="userSpaceOnUse" x1="2.5527" y1="25.2319" x2="46.6465" y2="25.2319" gradientTransform="matrix(-1 0 0 1 47.1094 1.3447)">
				<stop  offset="0" style="stop-color:#A2D8E0"/>
				<stop  offset="0.0899" style="stop-color:#1878AD"/>
				<stop  offset="0.2135" style="stop-color:#194D91"/>
				<stop  offset="0.6404" style="stop-color:#2B90BD"/>
				<stop  offset="0.9438" style="stop-color:#82CBDE"/>
				<stop  offset="1" style="stop-color:#1A478D"/>
				<a:midPointStop  offset="0" style="stop-color:#A2D8E0"/>
				<a:midPointStop  offset="0.5" style="stop-color:#A2D8E0"/>
				<a:midPointStop  offset="0.0899" style="stop-color:#1878AD"/>
				<a:midPointStop  offset="0.5" style="stop-color:#1878AD"/>
				<a:midPointStop  offset="0.2135" style="stop-color:#194D91"/>
				<a:midPointStop  offset="0.5" style="stop-color:#194D91"/>
				<a:midPointStop  offset="0.6404" style="stop-color:#2B90BD"/>
				<a:midPointStop  offset="0.5" style="stop-color:#2B90BD"/>
				<a:midPointStop  offset="0.9438" style="stop-color:#82CBDE"/>
				<a:midPointStop  offset="0.5" style="stop-color:#82CBDE"/>
				<a:midPointStop  offset="1" style="stop-color:#1A478D"/>
			</linearGradient>
			<path i:isolated="yes" i:knockout="Off" opacity="0.1" fill="url(#XMLID_4_)" enable-background="new    " d="M0.463,4.752
				c0-2.101,1.603-3.807,3.579-3.807h36.935c1.977,0,3.58,1.705,3.58,3.807v43.653c0,2.102-1.604,3.804-3.58,3.804H4.042
				c-1.976,0-3.579-1.702-3.579-3.807L0.463,4.752L0.463,4.752z"/>
			<path fill="none" stroke="#4D4D4D" stroke-width="0.4727" d="M0.236,48.414v12.074c0,2.493,1.622,4.512,3.62,4.512h37.309
				c1.999,0,3.619-2.019,3.619-4.512V4.752c0-2.102-1.622-3.806-3.619-3.806H3.856c-1.998,0-3.62,1.705-3.62,3.806v43.653
				C0.236,48.408,0.236,48.411,0.236,48.414z"/>
		</g>
		<g>
			<path i:knockout="Off" d="M28.416,6.038c3.688,0.16,4.98,1.439,7.91,2.704c0.067-0.587,0.133-1.159,0.214-1.745
				c0.039-0.039,0.093-0.066,0.132-0.12c0.414,0.625,0.348,1.772,0.399,2.331c0.067,0,0.12,0,0.174,0
				c0.227-0.32,0.438-0.625,0.653-0.958c0.093,0.013,0.186,0.013,0.266,0.013c0.041,0.054,0.054,0.093,0.081,0.12
				c-0.121,0.267-0.881,1.453-0.827,1.665c0.787-0.052,1.358-0.093,1.918,0.254c-0.387,0.387-0.745,0.266-1.398,0.266
				c0,0.613,1.639,3.236,1.904,3.85c0.84,2.783,0.812,5.234-0.065,7.897c-0.546,1.292-2.37,4.595-0.388,5.261
				c0.494,1-2.156,2.944-2.93,3.331c1.053,2.61,2.544,3.116-1.093,4.874c0,0.587-0.133,0.96-0.173,1.386
				c4.955,0.227,2.292,6.779-1.598,7.231c-1.785,0.454-6.992,0.347-7.339-2.171c-0.054-0.054-0.107-0.105-0.159-0.173
				c-0.228,0.133-0.799,0.985-1.146,1.266c0.012,0.066,0.039,0.133,0.054,0.187c-0.08,0-0.413-0.013-0.52,0.146
				c-0.8,0.014-1.626,0.025-2.44,0.054c-3.048,1.159-12.039-4.396-8.363-6.846c2.718-0.72,2.718-1.932,3.37-4.436
				c-1.064-0.268-2.877-4.249-3.023-5.581c-3.077,0.612-5.58,0.065-7.832-2.465c-0.799-0.146-1.944-0.027-1.825-1.305
				c0.347-0.227,0.347-0.227,0.786-0.36c-0.146-0.466-0.28-0.958-0.439-1.438c-2.664-0.627-2.331-2.532,0.093-2.784
				c0.426-4.449,5.808-6.327,9.629-5.088c1.212,0.691,1.212,0.691,1.678,0.864c0.654-1.37,2.571-4.168,2.798-5.3
				c0.067,0,0.119,0,0.173-0.027C21.608,6.425,25.045,6.038,28.416,6.038L28.416,6.038z M4.626,18.971
				c-0.639,0.146-1.225,0.387-1.359,1.132c0.546,0.346,0.933,0.44,1.359,0.52C4.626,20.089,4.626,19.531,4.626,18.971L4.626,18.971z
				 M5.439,23.073c-0.253,0.039-0.493,0.079-0.706,0.292c0.253,0.387,0.652,0.281,0.893,0.281
				C5.638,23.539,5.638,23.539,5.439,23.073z"/>
			<path i:knockout="Off" fill="#FB6747" d="M28.309,6.85c6.192,0.427,8.432,2.251,11.015,7.858
				c1.079,4.316,0.465,6.34-1.225,10.322c-0.173,1.026-0.188,2.424,0.612,2.971c0,0.759-2.024,2.398-2.73,2.531
				c-1.919-1.732-0.079-3.716,0.599-6.021c0.387-3.209,1.851-5.274-1.891-6.233c0-0.465,0.132-1.518-0.227-1.997
				c-0.92,0.173-1.025,1.104-2.317,1.025c-4.476-1.146-9.085-1.865-13.827-1.652c-1.717-1.386,1.319-5.646,2.543-6.872
				C22.754,7.41,26.149,6.931,28.309,6.85L28.309,6.85z M17.573,24.458c-0.041,0-0.067,0-0.121-0.013
				c-0.305,0.333-0.612,0.639-0.932,0.958c0.173,0.292,1.439,0.8,1.572,0.8C17.918,25.63,17.746,25.057,17.573,24.458z"/>
			<path i:knockout="Off" fill="#99AED3" d="M12.406,13.47c2.225,0.427,6.312,2.93,5.808,5.501
				c-1.201,0.279-2.492,0.599-3.731,0.958c1.386,0,2.665-0.292,3.902-0.466c-0.171,6.633-6.659,10.016-11.734,4.941
				c0.054-0.054,3.637-0.173,4.129-0.227c-0.173-0.079-0.173-0.079-4.648-0.425c-0.28-0.587-0.973-1.665-0.866-2.451
				c1.545,0.054,5.461,0.493,6.686-0.374c-1.585-0.319-5.42,0.747-6.886-0.346C5.226,15.88,7.73,13.59,12.406,13.47z"/>
			<path i:knockout="Off" fill="#FEE8AD" d="M20.303,16.134c3.675,0.199,8.937,0.425,12.121,1.865c0.64,0,1.186-0.667,1.691-1.026
				c0,2.211-0.387,1.545,1.917,2.477c0.801,2.411-1.064,9.23-3.714,10.096c-3.171,0.479-12.747,0.958-13.72-3.916
				c2.717-0.2,2.677-3.823,0.135-3.61c0.025-0.359,0.025-0.798,0.277-1.185c1.054-0.014,2.186-0.426,2.479,0.493
				c0.639,0.414,0.785,0.067,1.131-0.439c1.373-0.121,2.718,0.173,3.903,0.387c0.281,1.424,0.866,1.237,1.493,0.385
				c2.384,0.4,2.744,0.52,2.97,0.479c0.013-0.065,0.026-0.16,0.026-0.239c-0.893-0.173-1.799-0.346-2.703-0.546
				c-0.412-0.999,0.159-0.985-1.159-1.159c-1,1.386-2.61,0.466-4.41,0.293c-0.053-0.466,0.041-0.812-0.519-1.212
				c-1.88,0.493,0.16,1.133-3.264,1.212c0-0.4,0-0.799-0.013-1.199c1.292-0.999,0.958-2.438-0.561-1.93
				c-0.066-0.121-0.652-1-0.398-1.2C18.384,16.414,19.903,16.16,20.303,16.134L20.303,16.134z M18.664,17.532
				c-0.065,0.013-0.131,0.027-0.226,0.027c0.16,0.4,0.16,0.4,0.347,1.212c0.333-0.054,0.398-0.2,0.613-0.359
				C19.344,18.105,19.037,17.866,18.664,17.532z"/>
			<path i:knockout="Off" d="M7.171,18.345c0.932,0.545,4.182,0.345,5.473,0.612c-1.065-0.014-4.715,0.359-5.713-0.241
				c0.013-0.119,0.013-0.252,0.013-0.372C7.037,18.345,7.104,18.345,7.171,18.345z"/>
			<path i:knockout="Off" d="M24.938,22.061c0.308,0.466,0.242,0.452,0.242,0.879c-0.121-0.187-0.242-0.374-0.389-0.573
				c-0.347,0-0.545,0.387-0.904,0.292C24.22,22.234,24.444,22.061,24.938,22.061z"/>
			<path i:knockout="Off" fill="#FFFF99" d="M19.01,22.288c4.063,0.652-1.611,5.526-0.997,1.251c0.2-0.387,0.398-0.772,0.585-1.172
				C18.733,22.354,18.878,22.313,19.01,22.288z"/>
			<path i:knockout="Off" d="M30.625,23.792c4.689,1.239,0.48,7.819-2.556,3.45C27.615,25.244,28.455,23.899,30.625,23.792z"/>
			<path i:knockout="Off" fill="#FFFF99" d="M30.625,24.099c3.198,0.905,1.759,5.434-1.505,3.995
				C27.508,26.497,28.043,24.099,30.625,24.099z"/>
			<path i:knockout="Off" d="M24.365,24.724c0.693,0.625,0.333,1.266,0,1.811C22.955,26.722,23.58,24.724,24.365,24.724z"/>
			<path i:knockout="Off" fill="#FB6747" d="M24.246,25.138c0.24,0.12,0.025,0.839,0.025,1.012
				c-0.104,0.014-0.212,0.039-0.305,0.039C23.887,26.004,23.887,24.911,24.246,25.138z"/>
			<path i:knockout="Off" fill="#FEE8AD" d="M16.12,25.883c4.184,1.399,2.306,2.89,1.279,5.715c-0.839,0-2.638-3.85-2.757-4.928
				C15.029,26.429,15.721,25.883,16.12,25.883z"/>
			<path i:knockout="Off" fill="#FEE8AD" d="M34.581,30.118c1.172,0.866,3.503,2.877,2.306,4.316
				c-0.387,0.214-1.186,0.879-1.64,0.771c-0.105-1.172-0.999-4.075-0.839-5.087C34.474,30.118,34.527,30.118,34.581,30.118z"/>
			<path i:knockout="Off" fill="#FEE8AD" d="M23.313,34.648c3.051,0.266,8.312,0.852,10.629,2.598
				c-0.026,0.024-0.04,0.065-0.054,0.079c-4.648,0.159-11.042,0.452-15.331-2.157C19.544,34.593,22.261,34.648,23.313,34.648z"/>
			<path i:knockout="Off" fill="#C9A4B7" d="M17.226,35.338c6.127,2.238,9.99,2.919,16.423,2.532
				c-0.04,0.173-3.424,3.676-4.022,4.182c-0.84,0.026-1.772,0.319-2.704,0.373c-0.039-0.254-0.093-0.52-0.146-0.785
				c0.041,0.027,0.081,0.039,0.093,0.053c0.015-0.053,0.015-0.093,0.015-0.174c-0.48-0.479,0.439-1.251,0.559-1.864
				c-0.347,0-1.598-0.373-1.519,0.333c0.226,0.04,0.44,0.08,0.652,0.094c-1.531,2.438-0.706,3.169-4.129,2.317
				c0-0.32-2.409-1.838-2.902-2.317c-0.786-1.279-1.585-3.223-3.425-3.609C16.281,35.687,16.493,35.394,17.226,35.338L17.226,35.338
				z M20.01,28.454c-0.681-0.453-2.903,5.647-2.903,6.194c3.702-0.146,6.593-0.666,10.335-0.107c2.49,0.6,5.034,1.758,7.246,2.158
				c0.093-1.918-0.066-5.009-1.266-6.806C29.134,30.811,23.887,31.184,20.01,28.454z"/>
			<path i:knockout="Off" d="M25.977,36.166c0,0.36,0.054,0.293-0.065,0.533c-0.281,0.04-0.281,0.04-0.412-0.054
				C25.578,36.218,25.618,36.218,25.977,36.166z"/>
			<path i:knockout="Off" fill="#FEE8AD" d="M16.054,37.032c2.264,0.812,2.609,3.183,4.422,4.541
				c1.104,0.479,1.932,0.706,1.053,1.691c-1.984,0.573-9.989-3.982-7.139-5.967c0.173,0.014,0.345,0.027,0.518,0.027
				c0.027-0.027,0.068-0.067,0.107-0.12C15.481,37.205,15.749,37.032,16.054,37.032z"/>
			<path i:knockout="Off" fill="#FEE8AD" d="M35.901,37.777c3.315,1.105-0.121,4.676-1.493,5.647
				C26.07,46.115,32.011,38.283,35.901,37.777z"/>
			<path i:knockout="Off" fill="#537FA1" d="M12.406,13.47c2.225,0.427,6.312,2.93,5.808,5.501
				c-1.201,0.279-2.492,0.599-3.731,0.958c1.386,0,2.665-0.292,3.902-0.466c-0.105,4.328-2.915,7.272-6.26,7.379
				c4.596-3.77,2.918-11.028-1.118-13.266C11.446,13.523,11.913,13.483,12.406,13.47z"/>
		</g>
	</g>
</g>
</svg>
