<?xml version="1.0" encoding="utf-8"?>
<!-- Generator: Adobe Illustrator 12.0.0, SVG Export Plug-In . SVG Version: 6.00 Build 51448)  -->
<!DOCTYPE svg PUBLIC "-//W3C//DTD SVG 1.1//EN" "http://www.w3.org/Graphics/SVG/1.1/DTD/svg11.dtd" [
	<!ENTITY ns_flows "http://ns.adobe.com/Flows/1.0/">
	<!ENTITY ns_extend "http://ns.adobe.com/Extensibility/1.0/">
	<!ENTITY ns_ai "http://ns.adobe.com/AdobeIllustrator/10.0/">
	<!ENTITY ns_graphs "http://ns.adobe.com/Graphs/1.0/">
	<!ENTITY ns_vars "http://ns.adobe.com/Variables/1.0/">
	<!ENTITY ns_imrep "http://ns.adobe.com/ImageReplacement/1.0/">
	<!ENTITY ns_sfw "http://ns.adobe.com/SaveForWeb/1.0/">
	<!ENTITY ns_custom "http://ns.adobe.com/GenericCustomNamespace/1.0/">
	<!ENTITY ns_adobe_xpath "http://ns.adobe.com/XPath/1.0/">
	<!ENTITY ns_svg "http://www.w3.org/2000/svg">
	<!ENTITY ns_xlink "http://www.w3.org/1999/xlink">
]>
<svg  version="1.1"
	 xmlns:x="&ns_extend;" xmlns:i="&ns_ai;" xmlns:graph="&ns_graphs;" i:viewOrigin="-0.2363 65" i:rulerOrigin="0 0" i:pageBounds="0 65 45 0"
	 xmlns="&ns_svg;" xmlns:xlink="&ns_xlink;" xmlns:a="http://ns.adobe.com/AdobeSVGViewerExtensions/3.0/"
	 width="45.731" height="65.236" viewBox="0 0 45.731 65.236" overflow="visible" enable-background="new 0 0 45.731 65.236"
	 xml:space="preserve">
<metadata>
	<variableSets  xmlns="&ns_vars;">
		<variableSet  varSetName="binding1" locked="none">
			<variables></variables>
			<v:sampleDataSets  xmlns:v="&ns_vars;" xmlns="&ns_custom;"></v:sampleDataSets>
		</variableSet>
	</variableSets>
</metadata>
<g id="图层_1" i:layer="yes" i:dimmedPercent="50" i:rgbTrio="#4F008000FFFF">
	<g>
		<g i:knockout="Off">
			<path fill="#333333" d="M1.182,47.468v12.077c0,2.49,1.622,4.512,3.62,4.512h37.31c1.998,0,3.62-2.021,3.62-4.512h-0.002V3.807
				C45.729,1.705,44.108,0,42.111,0H4.801C2.803,0,1.182,1.705,1.182,3.807H1.181v43.651C1.181,47.462,1.182,47.465,1.182,47.468z"
				/>
			
				<linearGradient id="XMLID_3_" gradientUnits="userSpaceOnUse" x1="-41.7026" y1="22.0122" x2="-41.7026" y2="82.7583" gradientTransform="matrix(1 0 0 -1 64.2148 87.0117)">
				<stop  offset="0.0393" style="stop-color:#0060B6"/>
				<stop  offset="0.0899" style="stop-color:#2089B9"/>
				<stop  offset="0.0985" style="stop-color:#4FA3C2"/>
				<stop  offset="0.1071" style="stop-color:#77B9CA"/>
				<stop  offset="0.1138" style="stop-color:#8FC7CF"/>
				<stop  offset="0.118" style="stop-color:#98CCD1"/>
				<stop  offset="0.1341" style="stop-color:#9ECFD3"/>
				<stop  offset="0.156" style="stop-color:#AFD6D9"/>
				<stop  offset="0.1809" style="stop-color:#CBE1E3"/>
				<stop  offset="0.1966" style="stop-color:#E1EAEB"/>
				<a:midPointStop  offset="0.0393" style="stop-color:#0060B6"/>
				<a:midPointStop  offset="0.5" style="stop-color:#0060B6"/>
				<a:midPointStop  offset="0.0899" style="stop-color:#2089B9"/>
				<a:midPointStop  offset="0.5" style="stop-color:#2089B9"/>
				<a:midPointStop  offset="0.0985" style="stop-color:#4FA3C2"/>
				<a:midPointStop  offset="0.5" style="stop-color:#4FA3C2"/>
				<a:midPointStop  offset="0.1071" style="stop-color:#77B9CA"/>
				<a:midPointStop  offset="0.5" style="stop-color:#77B9CA"/>
				<a:midPointStop  offset="0.1138" style="stop-color:#8FC7CF"/>
				<a:midPointStop  offset="0.5" style="stop-color:#8FC7CF"/>
				<a:midPointStop  offset="0.118" style="stop-color:#98CCD1"/>
				<a:midPointStop  offset="0.5" style="stop-color:#98CCD1"/>
				<a:midPointStop  offset="0.1341" style="stop-color:#9ECFD3"/>
				<a:midPointStop  offset="0.5" style="stop-color:#9ECFD3"/>
				<a:midPointStop  offset="0.156" style="stop-color:#AFD6D9"/>
				<a:midPointStop  offset="0.5" style="stop-color:#AFD6D9"/>
				<a:midPointStop  offset="0.1809" style="stop-color:#CBE1E3"/>
				<a:midPointStop  offset="0.5" style="stop-color:#CBE1E3"/>
				<a:midPointStop  offset="0.1966" style="stop-color:#E1EAEB"/>
			</linearGradient>
			<path fill="url(#XMLID_3_)" d="M44.786,60.489c0,2.492-1.621,4.511-3.619,4.511H3.857c-1.999,0-3.62-2.019-3.62-4.511V8.765
				c0-2.49,1.623-4.512,3.62-4.512h37.309c1.999,0,3.62,2.021,3.62,4.512V60.489L44.786,60.489z"/>
			<path fill="none" stroke="#333333" stroke-width="0.4727" d="M44.786,60.489c0,2.492-1.621,4.511-3.619,4.511H3.857
				c-1.999,0-3.62-2.019-3.62-4.511V8.765c0-2.49,1.623-4.512,3.62-4.512h37.309c1.999,0,3.62,2.021,3.62,4.512V60.489
				L44.786,60.489z"/>
			<path fill="#FFFFFF" d="M0.237,4.752c0-2.101,1.622-3.807,3.619-3.807h37.308c2.001,0,3.622,1.705,3.622,3.807v43.653
				c0,2.103-1.624,3.804-3.622,3.804H3.856c-1.998,0-3.619-1.701-3.619-3.807V4.752L0.237,4.752z"/>
			
				<linearGradient id="XMLID_4_" gradientUnits="userSpaceOnUse" x1="2.5518" y1="25.2324" x2="46.6465" y2="25.2324" gradientTransform="matrix(-1 0 0 1 47.1094 1.3447)">
				<stop  offset="0" style="stop-color:#A2D8E0"/>
				<stop  offset="0.0899" style="stop-color:#1878AD"/>
				<stop  offset="0.2135" style="stop-color:#194D91"/>
				<stop  offset="0.6404" style="stop-color:#2B90BD"/>
				<stop  offset="0.9438" style="stop-color:#82CBDE"/>
				<stop  offset="1" style="stop-color:#1A478D"/>
				<a:midPointStop  offset="0" style="stop-color:#A2D8E0"/>
				<a:midPointStop  offset="0.5" style="stop-color:#A2D8E0"/>
				<a:midPointStop  offset="0.0899" style="stop-color:#1878AD"/>
				<a:midPointStop  offset="0.5" style="stop-color:#1878AD"/>
				<a:midPointStop  offset="0.2135" style="stop-color:#194D91"/>
				<a:midPointStop  offset="0.5" style="stop-color:#194D91"/>
				<a:midPointStop  offset="0.6404" style="stop-color:#2B90BD"/>
				<a:midPointStop  offset="0.5" style="stop-color:#2B90BD"/>
				<a:midPointStop  offset="0.9438" style="stop-color:#82CBDE"/>
				<a:midPointStop  offset="0.5" style="stop-color:#82CBDE"/>
				<a:midPointStop  offset="1" style="stop-color:#1A478D"/>
			</linearGradient>
			<path i:isolated="yes" i:knockout="Off" opacity="0.1" fill="url(#XMLID_4_)" enable-background="new    " d="M0.463,4.752
				c0-2.101,1.603-3.807,3.579-3.807h36.938c1.977,0,3.578,1.705,3.578,3.807v43.653c0,2.103-1.602,3.804-3.578,3.804H4.043
				c-1.976,0-3.579-1.701-3.579-3.807L0.463,4.752L0.463,4.752z"/>
			<path fill="none" stroke="#4D4D4D" stroke-width="0.4727" d="M0.237,48.414v12.075C0.237,62.981,1.858,65,3.856,65h37.311
				c1.998,0,3.619-2.019,3.619-4.511V4.752c0-2.102-1.624-3.806-3.622-3.806H3.857c-1.999,0-3.62,1.705-3.62,3.806v43.653
				C0.236,48.408,0.237,48.411,0.237,48.414z"/>
		</g>
		<g>
			<path i:knockout="Off" d="M24.858,44.606c-2.012-0.275-10.29,0.118-10.502-1.966c0.285-1.523,3.596-0.834,2.632-1.785
				c-4.132-1.036-5.229-3.919-2.988-7.348c0.012-0.131,0.035-0.25,0.048-0.357c-1.108-0.547-0.347-1.713-0.072-2.548
				c-2.191,0.917-3.811-2.357-5.8-2.024c-0.631,0.524-2.5,1.727-3.155,1.346c-0.024-0.155-0.036-0.274-0.06-0.406
				c-0.12,0.024-0.25,0.036-0.358,0.071c0-1.56,2.501-2.821,3.739-3.62c0.773-1.059,4.202-0.201,5.454,0.014
				c0.512-0.56,1.191-1.012,1.809-1.489c-3.583-2.68-1.071-1.954-1.071-5.061c-1.049-2.822-0.595-3.453-0.595-5.8
				c-3.263-3.262-1.881-3.333-1.418-7.596c2.562,0,5.752,1.739,7.551,3.75c1.154-0.189,1.978-0.189,3.204,0.37
				c0.94,0,1.166-0.667,2.082-0.583c0,0.202-0.249,0.56-0.321,0.857c1.191-0.239,2.633,0.775,3.859,0.631
				c2.392-2.751,6.751-3.857,10.204-1.988c0,0.977-2.656,5.667-3.62,6.155c-0.107,3.37-2.846,5.001-2.216,8.193
				c-0.071,0.953-0.522,1.333-1.355,1.929c-0.023,0.071-0.023,0.166-0.023,0.249c1.63,1.417,3.487,3.393,3.226,5.858
				c0.082-0.022,0.154-0.035,0.237-0.059c0.454,0.917,1.072,1.405,1.18,2.726c1.453,1,4.822,0.346,6.632-0.035
				c0.299,0.179,0.585,0.381,0.87,0.571c0,2.584-6.37,0.964-7.514,0.916c0.179,0.572,0.63,1.501,0.689,2.168
				c-0.036,0.024-0.084,0.036-0.094,0.061c-0.309-0.442-0.131-0.584-0.512-0.907c0-0.678-0.251-1.07-0.323-1.511
				c-0.071,0-0.131,0-0.178,0c0,1.417,1.178,2.941,0.321,3.916c0,0.751,0.023,1.49,0.036,2.252c1.311,0,7.93-1.346,7.93,0.476
				c-1.179,1.716-13.075,3.478-10.812,0.072c0-0.798,0-0.798-0.095-1.704c-0.085,0.072-0.085,0.072-0.18,0.299
				c-0.071,0-0.118,0-0.178,0c0.393-1.395,0-1.739,0.07-2.764c0.06,0,0.107,0,0.179,0c-0.012,0.228-0.035,0.465-0.035,0.716
				c0.059,0.035,0.106,0.083,0.179,0.119c0,0.261-0.072,0.559,0.155,0.845c0.321-0.203-0.107-4.024-0.155-4.537
				c-1.048-1.155-1.023-1.476-0.797-2.845c-0.418-0.191-0.869-0.036-1.096-0.036c-0.024,0.261-0.036,0.512-0.061,0.761
				c-0.357-0.072-0.559-0.345-0.725-0.356c0,0.239,0.13,1.952-0.168,2.357c-0.701,0.107-2.62,0.18-3.024,0.43
				c0.452,2.965-1.643,2.882-2.786,5.191c2.286-0.273,8.394-1.001,7.942,3.202c-0.715,1.251-1.478,0.454-2.395,0.454
				C28.55,44.891,26.633,44.438,24.858,44.606z"/>
			<path i:knockout="Off" fill="#FFFFFF" d="M20.144,43.51c-0.096-0.035-0.179-0.071-0.264-0.083
				c0.989-0.202,3.382-0.405,3.704-1.727c0.144-0.047,0.311-0.107,0.478-0.143C23.68,43.366,21.559,43.391,20.144,43.51z"/>
			<path i:knockout="Off" fill="#FFFFFF" d="M18.072,43.438c-0.107-0.036-0.215-0.048-0.311-0.072
				c-0.013-0.071-0.036-0.117-0.048-0.177c0.347,0.035,0.689,0.094,1.036,0.142C18.546,43.534,18.238,43.438,18.072,43.438z"/>
			<path i:knockout="Off" fill="#987B53" d="M34.276,43.153c-1.154-1.155-0.189-2.869,0.656-3.668
				c-0.071-0.012-0.119-0.036-0.179-0.036c-0.216,0.191-0.358,0.263-0.55,0.299c0.264-0.728,0.132-1.216,0-1.895
				c0.371,0.096,0.371,0.096,0.609,0.263c0-0.072,0-0.144,0.012-0.228c-1.501-0.605-0.895-1.476-0.727-2.81
				c0.439-0.012,0.94-0.188,1.452-0.249c0.036,1.965,1.595,6.787-0.346,8.287C34.897,43.117,34.586,43.129,34.276,43.153z"/>
			<path i:knockout="Off" fill="#FFFFFF" d="M16.808,42.759c0.013-0.226,0.048-0.438,0.084-0.653
				c0.071-0.024,0.144-0.024,0.228-0.024c-0.096,0.262-0.096,0.262-0.096,0.62C16.952,42.713,16.88,42.735,16.808,42.759z"/>
			<path i:knockout="Off" fill="#FFFFFF" d="M17.892,42.069c-0.179-0.132-0.179-0.132-0.357-0.155c0-0.072,0-0.118,0-0.178
				c1.06,0.237,1.607-0.395,2.715-0.395C19.391,41.902,18.726,42.069,17.892,42.069z"/>
			<path i:knockout="Off" fill="#A298B0" d="M22.965,41.581c-0.538-0.132-1.562-0.239-2.287-0.417
				c-0.012-0.083-0.036-0.154-0.036-0.227c2.633-2.262,0.061-2.465-1.023-3.548c0.119-1.25-0.273-1.465-0.69-2.43
				c-0.071,0-0.131,0-0.179,0c0.56,1.335,0.56,1.335,0.536,1.488c-0.597,0-0.799-0.726-1.214-0.642
				c2.344,1.75,0.761,4.643-1.633,4.321c-3.548-2.239-4.167-2.868-1.905-6.798c1.107,0,1.976,0.689,3.18,0.845
				c-0.023-0.31-0.036-0.607-0.036-0.905c1.773,0,3.918,0.131,5.834,0.18c-0.106,1.999,1.632,1.547,3.573,1.785
				c0.69,3.227-2.179,3.441-3.25,5.966C23.452,41.581,23.44,41.581,22.965,41.581L22.965,41.581z M17.297,33.818
				c0.047,0.047,0.047,0.047,0.142,0c0.096-2.989,0.561-4.846,1.609-7.49c-0.108-0.036-0.216-0.072-0.299-0.107
				c-1.654-1.5-4.905-1.881-4.715,1.191c-0.833-0.644-0.68-1.429-2.119-1.429c-0.477,0.964-0.786,1.964-0.786,3.178
				c3.284,2.12,1.118,0.5,3.499,0.5c0.239,0.369-0.689,2.084-0.689,2.941c1.001,0.322,2.013,0.774,3.298,1.083
				C17.261,33.723,17.273,33.758,17.297,33.818L17.297,33.818z M26.298,34.924c1.264,0,2.658-0.071,4.049-0.369
				c0.311-0.701,0.036-2.012,0-2.606c-0.072,0-0.13,0-0.178,0c-0.095,0.415-0.179,0.833-0.272,1.274
				c-0.072,0.012-0.144,0.035-0.216,0.071c-0.274-0.263-0.523-0.512-0.785-0.751c-2.811-1.083,0.201-5.894,1.833-5.071
				c0,0.178,0,0.357,0,0.548c-1.083,0.666-2.5,0.666-2.5,2.404c1.68-1.951,3.81-1.63,3.81,1.274
				c2.321,0.084,3.097-0.203,2.238-2.572c-4.024-5.608-3.38-2.561-9.37-2.561c0.237,1.644-0.048,5.145-1.144,7.883
				C24.548,34.688,25.321,34.853,26.298,34.924z"/>
			<path i:knockout="Off" d="M37.051,40.901c0-0.88-0.381-1.213,0.19-1.773c-0.024,0.584-0.036,1.156-0.036,1.762
				C37.111,40.938,37.111,40.938,37.051,40.901z"/>
			<path i:knockout="Off" d="M33.015,36.008c-0.249-0.048-0.667-1.464-0.667-1.594c0.048,0,0.106,0,0.179,0
				c0,0.726,0.632,0.785,0.632,1.582C33.062,36.044,33.062,36.044,33.015,36.008z"/>
			<path i:knockout="Off" fill="#CBA325" d="M39.289,35.651c-0.189-0.036-0.345-0.06-0.511-0.072
				c-0.012-0.167-0.035-0.332-0.035-0.5c0.414,0.024,0.833,0.048,1.273,0.061c0,0.167,0.012,0.322,0.036,0.487
				C39.791,35.627,39.54,35.627,39.289,35.651z"/>
			<path i:knockout="Off" fill="#CBA325" d="M40.313,35.592c-0.084-0.202-0.084-0.202-0.048-0.488c0.274,0,0.596-0.144,0.965,0.131
				c0,0.084,0,0.178,0.012,0.262C40.861,35.592,40.861,35.592,40.313,35.592z"/>
			<path i:knockout="Off" fill="#CBA325" d="M38.087,35.462c-0.202-0.072-0.392-0.144-0.583-0.191
				c-0.012-0.096-0.036-0.167-0.036-0.239c0.346,0.048,0.691,0.108,1.036,0.168c0,0.071,0,0.155,0.024,0.249
				C38.385,35.448,38.229,35.448,38.087,35.462z"/>
			<path i:knockout="Off" fill="#CBA325" d="M41.529,35.448c-0.108-0.178-0.108-0.178-0.12-0.488
				c0.666-0.069,1.299-0.214,2.132-0.178C43.397,35.556,42.111,35.484,41.529,35.448z"/>
			<path i:knockout="Off" fill="#CBA325" d="M37.111,35.234c-0.179-0.071-0.369-0.155-0.548-0.203
				c-0.012-0.107-0.036-0.213-0.048-0.309c0.227,0.023,0.227,0.023,0.726,0.273C37.241,35.104,37.181,35.307,37.111,35.234z"/>
			<path i:knockout="Off" fill="#FDCC8A" d="M34.204,34.866c-1.058-0.203-1.391-1.632-0.94-2.371
				C35.587,30.793,37.324,34.866,34.204,34.866z"/>
			<path i:knockout="Off" fill="#CBA325" d="M36.146,34.818c-0.272-0.274-0.272-0.274-0.308-0.452c0.094,0,0.201,0,0.308,0.011
				c0.06,0.107,0.107,0.215,0.179,0.346C36.276,34.818,36.276,34.818,36.146,34.818z"/>
			<path i:knockout="Off" d="M36.742,33.4c0.061-0.31,0.118-0.619,0.19-0.905c0.048,0,0.106,0,0.179,0
				C37.087,32.734,37.051,33.258,36.742,33.4z"/>
			<path i:knockout="Off" fill="#FFCC00" d="M21.595,33.27c0.012-0.31,0.035-0.619,0.071-0.906c1.739-0.213,1.739-0.213,2.156-0.178
				C23.619,33.711,23.038,33.234,21.595,33.27L21.595,33.27z M18.928,33.187c-0.727-0.132-0.727-0.132-1.167-0.275
				c0-0.333,0-0.654,0.023-0.963c0.548,0.07,0.833,0.202,1.917,0.321c0.036,0.273,0.036,0.273-0.083,0.88
				C19.379,33.15,19.142,33.162,18.928,33.187z"/>
			<path i:knockout="Off" d="M6.294,32.925c-1.369-0.667-3.286-1.299-1.511-2.584c0.619,0,0.94,0,1.453,0.666
				c1,0.107,0.94,0.739,0.69,1.727C6.616,32.854,6.449,32.925,6.294,32.925z"/>
			<path i:knockout="Off" fill="#368FC0" d="M6.294,32.507c-0.917-0.285-0.309-0.738-0.238-1.106c0.155,0,0.322,0,0.488,0.024
				c0.215,0.357,0.251,0.583-0.071,1.083C6.401,32.507,6.342,32.507,6.294,32.507z"/>
			<path i:knockout="Off" fill="#FFFFFF" d="M20.917,32.15c-0.798-0.036-1.608-0.107-2.252-0.333
				c-0.035-0.417-0.071-0.811-0.107-1.215c-0.071,0-0.119,0-0.178,0c0.022,0.382,0.034,0.787,0.059,1.18
				c-0.367-0.048-0.367-0.048-0.678-0.191c0-2.001,0.762-3.703,1.666-5.334c0.155-0.036,0.299-0.072,0.453-0.107
				c-0.011,0.144-0.035,0.311-0.035,0.464c0.12,0.119,0.238,0.239,0.368,0.37c-0.13,1.19-1.799,3.536,0.096,4.655
				c0.977-0.773,1.966-1.596,2.811-2.537c-0.19-0.905-0.477-1.81-0.465-2.047c0.311-0.179,0.621-0.358,0.953-0.548
				c-0.06-0.311-0.131-0.358-0.155-0.607c0.418,0.036,0.728,0.142,1.239,0.428c-0.202,1.381,0.239,5.417-1.833,5.679
				c0.369-0.893,0.797-2.013,0.714-2.846c-0.691,0.977,0.035,2.68-1.619,2.965c0.438-1.083,0.438-1.083,0.414-1.261
				C21.667,31.282,22.155,32.15,20.917,32.15z"/>
			<path i:knockout="Off" fill="#368FC0" d="M4.735,31.734c-0.12-0.071-0.202-0.143-0.298-0.215c0-0.405,0-0.476,0.13-0.654
				c0.31,0,0.548-0.131,1,0.048C5.568,31.459,5.33,31.734,4.735,31.734z"/>
			<path i:knockout="Off" d="M3.21,30.389c-0.107-0.107-0.226-0.215-0.334-0.322c0.036-0.309,0.191-0.606,0.156-0.869
				c-2.215-0.333-0.62-2.132-2.215-3.597c-0.87-2.298,0.797-4.547,2.821-5.478c0-0.524-0.25-0.904-0.345-1.297
				c0.345-5.989,9.25-1.596,4.894,3.333c-2.429,2.216-4.656,1.036-4.656,5.133C3.734,27.853,4.877,30.389,3.21,30.389z"/>
			<path i:knockout="Off" fill="#FFFFCC" d="M3.33,30.008c0.297-1.383-0.107-1.191-1.024-1.359
				c-0.227-3.596-3.382-4.727,0.762-7.835c1.023-0.5,1.75,0.024,2.583-0.536c-0.012-0.083-0.012-0.155-0.012-0.225
				c-4.155,0-1.06-6.085,2.715-2.632c0.179,0.44,0.94,3.108,0.238,3.573c-0.487-0.227-0.583-0.536-1-0.464c0,0.046,0,0.106,0,0.178
				c0.346,0.215,0.596,0.287,0.596,0.904c-0.144,0.144-0.262,0.335-0.5,0.335c-0.334-0.572-0.69-0.644-0.965-0.68
				c-0.012,0.072-0.036,0.143-0.036,0.226c0.31,0.215,0.595,0.382,0.595,0.954c-2.358,1.833-4.584,1.13-4.037,5.155
				C3.389,28.03,4.401,29.757,3.33,30.008z"/>
			<path i:knockout="Off" fill="#CBA325" d="M6.104,29.245c-0.429-0.071-0.488-0.239-0.667-0.381c0-0.834,1.083-0.382,1.524,0.06
				C6.627,29.162,6.414,29.209,6.104,29.245z"/>
			<path i:knockout="Off" fill="#CBA325" d="M7.092,28.757c-0.345-0.167-0.691-0.323-1.036-0.465
				c-0.023-0.083-0.035-0.155-0.035-0.227c0.488-0.321,1.571-0.726,1.571,0.44C7.378,28.721,7.271,28.721,7.092,28.757z"/>
			<path i:knockout="Off" fill="#CBA325" d="M7.736,28.197c-0.286-0.524-0.453-0.512-0.774-0.667c0-0.678,1.19-0.535,1.357,0.49
				C7.866,28.209,7.866,28.209,7.736,28.197z"/>
			<path i:knockout="Off" fill="#CBA325" d="M8.533,27.792c-0.321-0.596-0.381-0.596-0.797-0.737c0-0.667,1.035-0.311,1.178,0.475
				C8.592,27.829,8.592,27.829,8.533,27.792z"/>
			<path i:knockout="Off" fill="#9983BD" d="M21.286,27.435c-0.523-0.369-1.096-0.654-1.178-1.106
				c0.534-0.691,2.57-0.928,3.308-0.072c-0.011,0.072-0.035,0.167-0.047,0.251C22.858,26.816,21.75,27.435,21.286,27.435
				L21.286,27.435z M19.833,29.424c-0.893-1.012,2.299-1.56,2.906-1.477c0.012,0.178,0.048,0.357,0.083,0.559
				C21.989,28.853,20.642,29.424,19.833,29.424L19.833,29.424z M20.25,31.282c-0.06-0.275-0.096-0.524-0.13-0.787
				c0.618-0.154,1.13-0.535,1.834-0.429C21.463,30.519,20.87,31.079,20.25,31.282z"/>
			<path i:knockout="Off" fill="#CBA325" d="M8.902,27.018c-0.131-0.106-0.237-0.214-0.346-0.321c0-0.083,0.013-0.155,0.036-0.227
				c0.286,0,0.274,0.071,0.382,0.513C8.938,26.983,8.914,26.995,8.902,27.018z"/>
			<path i:knockout="Off" fill="#FDCC8A" d="M25.274,26.47c-2.393-1.535-3.977-0.63-6.406-0.429
				c-1.251-0.75-4.821-2.774-4.821-4.131c0.261-0.607,0.725-1.335,1.012-2.048c2.355,0.5,4.047,1.845,6.095,0.191
				c0.036,0.034,0.072,0.07,0.132,0.13c-0.929,1.072-3.369,3.06-0.237,3.441c0.379-0.202,0.689-0.285,0.977-0.297
				c0.893-0.048,1.391,0.572,2.535-0.333c-0.19-1.275-1.63-2.632-2.547-3.132c1.321,0,1.25,0.773,2.357,1.536
				c1.024,0.25,6.954,0.905,7.741,0.203c-1.966-2.395-6.979-3.597-9.743-3.799c0.024-0.464,0.037-0.94,0.06-1.393
				c-0.069,0-0.13,0-0.189,0c0,0.273,0.024,0.964-0.213,1.273c-6.847,1.644-6.847,1.644-7.037,1.632
				c-0.74-2-1.467-3.678-0.502-5.501c-0.309-0.917-1.451-1.608-1.965-2.297c-0.427-1.488-0.071-3.752,0.418-4.93
				c1.857-0.251,5.644,1.905,6.763,3.477c-0.107,0.095-0.19,0.189-0.286,0.297c0.322,0.048,1.048-0.154,1.633-0.107
				c-0.597,0.464-2.609,1.084-2.847,1.5c0.131,0.012,0.273,0.036,0.416,0.047c-0.237,0.371-1.249,1.489-0.726,2.132
				c0.251-0.381,0.559-1.144,1.084-1.144c-1.155,1.953,0.226,4.204,2.69,3.381c0-0.07,0.012-0.118,0.036-0.178
				c0.702,0.072,4.312,0.333,3.93-1.632c-0.666,0.512-1.382,0.548-2.121,0.656c0-0.584,2.834-2.049,2.049-3.132
				c-0.131,0.083-0.251,0.191-0.356,0.299c0.153-0.977,0.153-0.977,0.249-1.191c1.228-0.144,2.466,1.144,3.751,0.44
				c2.322-3.19,5.895-2.965,9.432-2.036c-0.689,2.108-2.192,4.097-3.573,5.681c-0.381,1.06-0.213,2.297-0.822,3.69
				c-1.319,2.18-1.988,2.048-1.439,4.405C32.801,25.673,27.025,26.47,25.274,26.47L25.274,26.47z M23.095,11.027
				c0.096-0.096,0.204-0.167,0.31-0.239c-0.072-0.083-0.072-0.083-0.31-0.118C23.095,10.776,23.095,10.896,23.095,11.027
				L23.095,11.027z M24.062,11.646c0.319-0.059,0.498-0.238,0.762-0.488c-0.072-0.131-0.155-0.239-0.228-0.346
				c-0.083,0-0.154,0-0.227,0C24.251,11.087,24.144,11.348,24.062,11.646L24.062,11.646z M28.263,31.865
				c-0.047-0.322-0.022-0.596,0.023-0.834c0.251-1.094,1.383-1.833,2.312-1.642c0.845,0.166,1.263,1.118,1.215,1.714
				C30.562,29.353,27.943,32.031,28.263,31.865L28.263,31.865z M10.533,28.936c-0.142-0.048-0.298-0.107-0.439-0.143
				c0.451-1.81,0.451-1.81,0.547-2.596c0.274,0.024,0.549,0.036,0.822,0.06C10.89,28.757,10.999,28.936,10.533,28.936z"/>
			<path i:knockout="Off" d="M25.764,25.316c-1.287-0.453-5.644-1.072-6.526-0.179c-0.512,0-0.62-0.024-0.655-0.333
				c0.631-0.775,6.289-0.524,7.502,0.131c0,0.048,0,0.107,0,0.178C25.812,25.352,25.812,25.352,25.764,25.316z"/>
			<path i:knockout="Off" fill="#CAA36E" d="M20.797,23.447c-1.737-0.452-0.893-1.417-0.095-2.465
				c0.713-0.928,2.56-1.048,3.572,1.905c-1.072,0.631-1.488,0.071-2.453,0.071C21.463,23.208,20.917,23.447,20.797,23.447z"/>
			<path i:knockout="Off" d="M26.597,23.124c0.131-0.536,0.737-0.917,1.263-0.988C27.788,22.292,26.669,23.1,26.597,23.124z"/>
			<path i:knockout="Off" d="M29.49,22.684c0.119-0.106,0.095-0.096,0.37-0.06c-0.024,0.024-0.036,0.06-0.06,0.095
				C29.693,22.708,29.585,22.684,29.49,22.684z"/>
			<path i:knockout="Off" d="M27.943,22.625c0.226-0.154,0.463-0.5,0.833-0.417C28.514,22.447,28.263,22.684,27.943,22.625z"/>
			<path i:knockout="Off" d="M16.988,22.03c0.178-0.155,0.178-0.155,0.547-0.31c0,0.06,0,0.107,0,0.191
				C17.344,21.947,17.166,21.982,16.988,22.03z"/>
			<path i:knockout="Off" d="M16.261,21.851c0-0.072,0.023-0.131,0.035-0.179c0.823-0.453,0.823-0.453,1.001-0.488
				c-0.024,0.072-0.036,0.144-0.061,0.215C16.88,21.506,16.509,21.755,16.261,21.851z"/>
			<path i:knockout="Off" d="M15.249,21.791c0.12-0.381,0.728-0.702,1.072-0.977c0,0.096,0,0.18,0.012,0.275
				C15.904,21.327,15.426,21.755,15.249,21.791z"/>
			<path i:knockout="Off" fill="#679FCA" d="M18.51,20.542c-0.237-0.083-0.45-0.155-0.678-0.227c0-0.643,0.263-1.107,0.417-1.548
				c0.5-0.131,0.952-0.393,1.583-0.309c-0.321,0.69-0.631,1.381-0.94,2.072C18.761,20.53,18.63,20.53,18.51,20.542z"/>
			<path i:knockout="Off" fill="#679FCA" d="M17.166,20.219c0.096-0.273,0.203-0.547,0.309-0.797c0.061,0,0.108,0,0.18,0
				C17.57,19.624,17.38,20.147,17.166,20.219z"/>
			<path i:knockout="Off" d="M30.479,16.254c-0.072-0.189-0.132-0.369-0.191-0.548c-0.178,0-0.178,0-0.486,0.167
				c-0.013-0.083-0.036-0.131-0.048-0.191c0.119-0.07,0.249-0.118,0.38-0.178c-0.023-0.179-0.035-0.357-0.059-0.548
				c-0.31,0-0.465,0.096-0.584,0.096c-0.013-0.036-0.036-0.072-0.048-0.096c0.131-0.083,0.274-0.179,0.418-0.263
				c0.036-0.225,0.036-0.225-0.096-0.642c-0.395,0-0.572,0.297-0.809,0.237c0.178-0.166,0.378-0.321,0.581-0.476
				c0-0.297-0.119-0.417-0.095-0.607c0.274,0.346,0.322,0.5,0.964,0.358c0,0.094,0,0.18,0,0.273c-0.154,0-0.297,0.024-0.416,0.036
				c0.084,0.596,0.084,0.596,0.179,0.667c0.178-0.107,0.214-0.179,0.536-0.119c-0.18,0.143-0.18,0.143-0.431,0.239
				c0,0.213,0,0.428,0.013,0.666c0.119,0,0.238,0,0.37,0C30.49,15.493,30.525,16.29,30.479,16.254z"/>
			<path i:knockout="Off" fill="#C9A4B7" d="M21.048,16.064c-4.752-0.608-1.048-3.192-1.286-4.132
				c-0.894,0.476-1.18,0.833-1.811,1.584c0-1.632,2.202-2.941,3.691-3.084c-0.048-0.107-0.084-0.226-0.12-0.309
				c1.787-0.25,0.977,1.036,1.572,1.524c0.286-0.44,0.524-1.167,1.216-1.036c-0.203,0.44-0.394,0.726-0.489,1.273
				c0.511-0.06,1.084-0.726,1.286-0.678c-0.13,1.44-0.905,1.357-1.597,2.238c0.93,0,1.144-0.881,1.941-1.072
				c-0.179,1.321-1.762,1.905-2.536,2.584c0.726,0.369,1.428-0.107,2.226,0c-1.703,1.857-3.548,1.167-4.764-0.536
				c0,0.5,0.287,0.988,0.87,1.5c-0.023,0.036-0.023,0.096-0.023,0.144C21.154,16.064,21.106,16.064,21.048,16.064z"/>
			<path i:knockout="Off" d="M33.432,14.016c-0.666-1.179-1.583-1.251-2.595-1.299c0.166-0.166,0.546-0.166,0.904-0.202
				c1.583-0.869,2.666-2.572,4.679-2.323c-0.012,0.06-0.036,0.131-0.036,0.203C35.24,10.611,35.42,13.253,33.432,14.016z"/>
			<path i:knockout="Off" fill="#CAA36E" d="M33.432,13.693c-0.369-0.546-0.978-0.94-1.321-0.964
				c0.178-0.725,2.679-2.285,3.68-2.333c0.012,0.012,0.035,0.048,0.048,0.083C35.336,11.278,34.825,13.897,33.432,13.693z"/>
			<path i:knockout="Off" d="M14.879,12.027c-1.678-0.821-0.868-2.667-1.56-4.132c0.096-0.06,0.096-0.06,0.189,0
				c0.94,1.68,2.467,2.692,4.634,2.477C18.143,10.372,15.011,12.027,14.879,12.027z"/>
			<path i:knockout="Off" fill="#CAA36E" d="M14.76,11.789c-1.132-0.63-0.726-1.618-0.785-2.63c1,0.488,2.001,1,3.013,1.513
				C16.642,10.956,15.083,11.789,14.76,11.789z"/>
			<path i:knockout="Off" fill="#FDCC8A" d="M21.487,22.16C21.607,21.887,21.368,22.423,21.487,22.16
				c-0.167,0.381-0.498,0.596-0.749,0.489c-0.238-0.108-0.299-0.499-0.131-0.881c0.179-0.369,0.512-0.596,0.749-0.488L21.487,22.16z
				"/>
			<path i:knockout="Off" fill="#987B37" d="M8.914,25.84c0.202,0.048,1.43-0.048,1.405,0.167c-0.154,0.881-0.084,2.5-0.762,2.465
				L8.45,28.4l1.001-1L8.914,25.84L8.914,25.84z M29.669,32.996c0.167-0.321,0.072-1.309,0.488-1.405
				c0.381,0.191,0.822,0.703,1.201,1.012c0-0.405,0.191-1.393,0.072-1.738h-0.048v-0.012c-1.25-0.703-3.013,1.059-2.726,1.083
				C29.157,32.651,29.442,32.959,29.669,32.996z"/>
		</g>
	</g>
</g>
</svg>
