<?xml version="1.0" encoding="utf-8"?>
<!-- Generator: Adobe Illustrator 12.0.0, SVG Export Plug-In . SVG Version: 6.00 Build 51448)  -->
<!DOCTYPE svg PUBLIC "-//W3C//DTD SVG 1.1//EN" "http://www.w3.org/Graphics/SVG/1.1/DTD/svg11.dtd" [
	<!ENTITY ns_flows "http://ns.adobe.com/Flows/1.0/">
	<!ENTITY ns_extend "http://ns.adobe.com/Extensibility/1.0/">
	<!ENTITY ns_ai "http://ns.adobe.com/AdobeIllustrator/10.0/">
	<!ENTITY ns_graphs "http://ns.adobe.com/Graphs/1.0/">
	<!ENTITY ns_vars "http://ns.adobe.com/Variables/1.0/">
	<!ENTITY ns_imrep "http://ns.adobe.com/ImageReplacement/1.0/">
	<!ENTITY ns_sfw "http://ns.adobe.com/SaveForWeb/1.0/">
	<!ENTITY ns_custom "http://ns.adobe.com/GenericCustomNamespace/1.0/">
	<!ENTITY ns_adobe_xpath "http://ns.adobe.com/XPath/1.0/">
	<!ENTITY ns_svg "http://www.w3.org/2000/svg">
	<!ENTITY ns_xlink "http://www.w3.org/1999/xlink">
]>
<svg  version="1.1"
	 xmlns:x="&ns_extend;" xmlns:i="&ns_ai;" xmlns:graph="&ns_graphs;" i:viewOrigin="-0.2363 64.9995" i:rulerOrigin="0 0" i:pageBounds="0 65 45 0"
	 xmlns="&ns_svg;" xmlns:xlink="&ns_xlink;" xmlns:a="http://ns.adobe.com/AdobeSVGViewerExtensions/3.0/"
	 width="45.73" height="65.236" viewBox="0 0 45.73 65.236" overflow="visible" enable-background="new 0 0 45.73 65.236"
	 xml:space="preserve">
<metadata>
	<variableSets  xmlns="&ns_vars;">
		<variableSet  varSetName="binding1" locked="none">
			<variables></variables>
			<v:sampleDataSets  xmlns:v="&ns_vars;" xmlns="&ns_custom;"></v:sampleDataSets>
		</variableSet>
	</variableSets>
</metadata>
<g id="图层_1" i:layer="yes" i:dimmedPercent="50" i:rgbTrio="#4F008000FFFF">
	<g>
		<g i:knockout="Off">
			<path fill="#333333" d="M1.182,47.467v12.077c0,2.49,1.622,4.512,3.619,4.512h37.308c2.001,0,3.622-2.021,3.622-4.512l0,0V3.807
				C45.73,1.705,44.105,0,42.108,0H4.801C2.803,0,1.182,1.705,1.182,3.807H1.181v43.651C1.181,47.46,1.182,47.464,1.182,47.467z"/>
			
				<linearGradient id="XMLID_3_" gradientUnits="userSpaceOnUse" x1="-41.7026" y1="22.0117" x2="-41.7026" y2="82.7578" gradientTransform="matrix(1 0 0 -1 64.2148 87.0107)">
				<stop  offset="0.0393" style="stop-color:#0060B6"/>
				<stop  offset="0.0899" style="stop-color:#2089B9"/>
				<stop  offset="0.0985" style="stop-color:#4FA3C2"/>
				<stop  offset="0.1071" style="stop-color:#77B9CA"/>
				<stop  offset="0.1138" style="stop-color:#8FC7CF"/>
				<stop  offset="0.118" style="stop-color:#98CCD1"/>
				<stop  offset="0.1341" style="stop-color:#9ECFD3"/>
				<stop  offset="0.156" style="stop-color:#AFD6D9"/>
				<stop  offset="0.1809" style="stop-color:#CBE1E3"/>
				<stop  offset="0.1966" style="stop-color:#E1EAEB"/>
				<a:midPointStop  offset="0.0393" style="stop-color:#0060B6"/>
				<a:midPointStop  offset="0.5" style="stop-color:#0060B6"/>
				<a:midPointStop  offset="0.0899" style="stop-color:#2089B9"/>
				<a:midPointStop  offset="0.5" style="stop-color:#2089B9"/>
				<a:midPointStop  offset="0.0985" style="stop-color:#4FA3C2"/>
				<a:midPointStop  offset="0.5" style="stop-color:#4FA3C2"/>
				<a:midPointStop  offset="0.1071" style="stop-color:#77B9CA"/>
				<a:midPointStop  offset="0.5" style="stop-color:#77B9CA"/>
				<a:midPointStop  offset="0.1138" style="stop-color:#8FC7CF"/>
				<a:midPointStop  offset="0.5" style="stop-color:#8FC7CF"/>
				<a:midPointStop  offset="0.118" style="stop-color:#98CCD1"/>
				<a:midPointStop  offset="0.5" style="stop-color:#98CCD1"/>
				<a:midPointStop  offset="0.1341" style="stop-color:#9ECFD3"/>
				<a:midPointStop  offset="0.5" style="stop-color:#9ECFD3"/>
				<a:midPointStop  offset="0.156" style="stop-color:#AFD6D9"/>
				<a:midPointStop  offset="0.5" style="stop-color:#AFD6D9"/>
				<a:midPointStop  offset="0.1809" style="stop-color:#CBE1E3"/>
				<a:midPointStop  offset="0.5" style="stop-color:#CBE1E3"/>
				<a:midPointStop  offset="0.1966" style="stop-color:#E1EAEB"/>
			</linearGradient>
			<path fill="url(#XMLID_3_)" d="M44.787,60.488c0,2.493-1.625,4.512-3.621,4.512H3.856c-1.998,0-3.619-2.019-3.619-4.512V8.765
				c0-2.49,1.623-4.511,3.619-4.511h37.309c2,0,3.619,2.021,3.619,4.511v51.723H44.787z"/>
			<path fill="none" stroke="#333333" stroke-width="0.4727" d="M44.787,60.488c0,2.493-1.625,4.512-3.621,4.512H3.856
				c-1.998,0-3.619-2.019-3.619-4.512V8.765c0-2.49,1.623-4.511,3.619-4.511h37.309c2,0,3.619,2.021,3.619,4.511v51.723H44.787z"/>
			<path fill="#FFFFFF" d="M0.236,4.752c0-2.101,1.622-3.807,3.62-3.807h37.309c1.999,0,3.619,1.705,3.619,3.807v43.653
				c0,2.102-1.622,3.804-3.619,3.804H3.856c-1.998,0-3.62-1.702-3.62-3.807V4.752L0.236,4.752z"/>
			
				<linearGradient id="XMLID_4_" gradientUnits="userSpaceOnUse" x1="2.5527" y1="25.2319" x2="46.6465" y2="25.2319" gradientTransform="matrix(-1 0 0 1 47.1094 1.3447)">
				<stop  offset="0" style="stop-color:#A2D8E0"/>
				<stop  offset="0.0899" style="stop-color:#1878AD"/>
				<stop  offset="0.2135" style="stop-color:#194D91"/>
				<stop  offset="0.6404" style="stop-color:#2B90BD"/>
				<stop  offset="0.9438" style="stop-color:#82CBDE"/>
				<stop  offset="1" style="stop-color:#1A478D"/>
				<a:midPointStop  offset="0" style="stop-color:#A2D8E0"/>
				<a:midPointStop  offset="0.5" style="stop-color:#A2D8E0"/>
				<a:midPointStop  offset="0.0899" style="stop-color:#1878AD"/>
				<a:midPointStop  offset="0.5" style="stop-color:#1878AD"/>
				<a:midPointStop  offset="0.2135" style="stop-color:#194D91"/>
				<a:midPointStop  offset="0.5" style="stop-color:#194D91"/>
				<a:midPointStop  offset="0.6404" style="stop-color:#2B90BD"/>
				<a:midPointStop  offset="0.5" style="stop-color:#2B90BD"/>
				<a:midPointStop  offset="0.9438" style="stop-color:#82CBDE"/>
				<a:midPointStop  offset="0.5" style="stop-color:#82CBDE"/>
				<a:midPointStop  offset="1" style="stop-color:#1A478D"/>
			</linearGradient>
			<path i:isolated="yes" i:knockout="Off" opacity="0.1" fill="url(#XMLID_4_)" enable-background="new    " d="M0.463,4.752
				c0-2.101,1.603-3.807,3.579-3.807h36.935c1.977,0,3.58,1.705,3.58,3.807v43.653c0,2.102-1.604,3.804-3.58,3.804H4.042
				c-1.976,0-3.579-1.702-3.579-3.807L0.463,4.752L0.463,4.752z"/>
			<path fill="none" stroke="#4D4D4D" stroke-width="0.4727" d="M0.236,48.414v12.074c0,2.493,1.622,4.512,3.62,4.512h37.309
				c1.999,0,3.619-2.019,3.619-4.512V4.752c0-2.102-1.622-3.806-3.619-3.806H3.856c-1.998,0-3.62,1.705-3.62,3.806v43.653
				C0.236,48.408,0.236,48.411,0.236,48.414z"/>
		</g>
		<g>
			<path i:knockout="Off" d="M9.171,6.037c3.178,1.263,0.582,7.138-2.213,4.341C3.878,9.499,7.1,6.037,9.171,6.037z"/>
			<path i:knockout="Off" fill="#99AED3" d="M9.271,6.548c0.795,0.355,0.965,1.121,0.993,1.773c-0.227,0-0.327-0.354-0.753-0.425
				c0,1.178,1.404,0.993,0,2.299c-1.532,0.737-1.957,0.696-2.27-0.879c-0.071,0-0.156,0-0.241-0.015
				c-0.114,0.27-0.228,0.483-0.185,0.724c-0.993,0-1.035-2.626,0.611-2.455c0.085,0.354,0.156,0.666,0.283,0.851
				C8.107,8.094,7.909,6.548,9.271,6.548z"/>
			<path i:knockout="Off" d="M24.071,8.251c0.269,0.199,0.199,0.17,0.228,0.354c-0.186,0.185-0.852,0.724-0.795,0.981
				c0.383,0,13.013-0.499,12.26,1.006c-0.382,0.214-0.382,0.214-0.426,0.284c0.738,0.227,1.973,0.456,1.163,1.136
				c0,0.524,2.967,1.617,1.817,2.54c-0.157,0-0.838-0.057-1.05,0.157c0.681,1.049,0.355,1.006,1.475,1.206
				c2.016,1.361,2.228,2.397,2.129,4.469c2.242,1.12,2.725,4.058,1.49,5.96c-0.155,2.866-0.768,4.696-3.86,5.237
				c-1.574,1.347-1.29,2.072-3.688,1.176c-0.398-0.269-0.739-0.552-1.377-0.609c-0.015,0.2,0.084,0.397,0.511,2.894
				c-0.087,0.086-0.185,0.173-0.283,0.241c0.184,1.434,0.949,3.747-0.654,4.458c-0.893-0.144-0.893-0.144-1.107-0.116
				c0.241,1.689,2.129,4.144-0.212,4.854c-2.016-0.026-4.952,0.908-4.512-1.929c-0.144-0.087-0.144-0.087-0.454-0.57
				c-1.036,1.618-0.44,1.406-2.739,1.448c-7.153-0.284-1.817-0.567-1.817-4.085c-0.823-0.824-2.81,0.311-2.186-2.684
				c-0.367-0.481-0.779-0.852-3.007-3.476c-1.592,0.311-2.258,1.959-4.542,0.949c-1.277-0.877-1.703-1.445-2.781-2.935
				c-2.71,0.326-5.719-0.57-6.031-4.004c-1.844-1.66-2.1-4.538,0.185-6.058c-0.043-2.838-0.128-4.512,2.767-5.875
				c1.093-0.199,1.958,0.113,2.88,0.072c0.823-2.186,2.384-2.995,4.6-2.114c1.048,0.865,2.113-0.809,3.773-0.582
				c0.893-1.049,1.361-0.709,1.688-2.085c0.427-0.625,1.746-2.214,2.525-2.087c0.115,0.242,0.057,0.355,0.043,0.483
				C22.808,8.889,23.617,8.251,24.071,8.251L24.071,8.251z M23.22,32.003c-0.072,0-3.407,1.081-3.448,1.138
				c0.51,0.595,1.021,1.191,1.518,1.786c1.234,0,1.944-1.873,2.101-2.867C23.334,32.048,23.277,32.034,23.22,32.003z"/>
			<path i:knockout="Off" d="M42.661,8.733c0.879,0.469,0.893,0.511,1.049,1.333c0.753,0,0.951,0.796,1.064,1.235
				c-0.142,2.03-4.824,3.42-4.683,0C39.099,10.308,41.894,8.733,42.661,8.733z"/>
			<path i:knockout="Off" fill="#99AED3" d="M42.574,9.202c0.726,0.099,0.782,0.384,0.81,0.921c-0.197-0.07-0.454-0.07-0.454,0.185
				c0.355,0.341,0.711,0.667,1.065,0.993c0-0.17-0.071-0.496-0.058-0.779c0.058,0,0.1,0,0.142,0c0.824,0.822,0.427,1.532-0.567,1.73
				c-0.015-0.155-0.028-0.312-0.057-0.482c-0.085-0.057-0.085-0.057-0.227-0.057c-0.371,1.476-3.123,2.1-2.568-0.511
				c-0.1-0.085-0.213-0.185-0.327-0.284c0-0.909,0.511-0.909,1.191-0.938C41.738,9.486,42.05,9.259,42.574,9.202z"/>
			<path i:knockout="Off" fill="#987B37" d="M22.993,9.272c-0.143,0.355-0.453,0.866-0.241,1.164c0.312,0,0.667-0.27,0.995-0.383
				c3.66-0.369,7.633-0.185,11.167,0.397c0.015,0.057,0.028,0.1,0.028,0.142c-0.24,0.157-0.482,0.312-0.482,0.567
				c0.412,0.327,1.078,0.327,1.49,0.427c0.013,0.057,0.026,0.098,0.041,0.142c-0.185,0.028-0.411,0.184-0.582,0.326
				c0.072,0.369,2.072,1.149,2.526,1.943c-1.985,0.313-1.063,0.214-0.949,1.376c-0.186-0.013-0.371-0.027-0.567-0.042
				c-1.463-2.938-10.459-0.271-12.914-0.838c-0.213-0.851,0.596-1.263-0.34-2.766c-1.604-1.433-1.974-0.128-3.351,0.14
				c0.469-1.346,0.2-1.418,1.377-2.511c0.015,0.057,0.029,0.1,0.029,0.142C20.183,10.749,22.836,9.315,22.993,9.272z"/>
			<path i:knockout="Off" fill="#FFFF00" d="M21.999,11.373c3.548,1.32-0.269,5.918-0.992,1.817
				c-0.709,0.567,0.78,2.725,2.127,1.547c2.583,0.297,12.475-2.044,13.228,1.348c-0.272,0.312-0.257,0.312-0.696,0.354
				C30.926,15.09,26,17.502,21.333,16.58C18.948,15.786,18.877,11.373,21.999,11.373z"/>
			<path i:knockout="Off" fill="#FFFF00" d="M19.53,12.067c-0.07-0.042-0.511,2.384,0.17,3.392c0.582,0.951,1.051,1.093-0.07,1.546
				C17.627,17.005,17.246,11.827,19.53,12.067z"/>
			<path i:knockout="Off" fill="#99AED3" d="M17.076,13.417c0.155,0.014,0.312,0.014,0.469,0.014
				c-0.171,2.526,0.057,2.299,1.305,3.874c-0.325,1.617-0.325,1.617-0.496,2.825c-0.27-0.045-0.782-0.499-0.782,0.068
				c1.86,1.278,0.909,3.335-0.367,4.542c0.099,1.815,0.341,3.974,1.048,5.506c3.506,1.134,3.506,1.134,4.145,1.391
				c0,0.057,0,0.099,0,0.144c-4.243,2.567-3.078-0.797-5.506-2.246c-2.738-0.269-1.83,2.896-0.382,3.097
				c0,1.033-3.193,1.716-4.073,0.835c-0.554-0.128-1.958-1.731-1.845-2.454c0.667-0.057,2.072-0.17,2.257-0.938
				c-0.156-0.128-0.738,0.185-0.922,0.269c-2.867,0.57-3.875-0.992-4.967-3.616c-0.085,1.914,1.22,2.965,1.134,4.043
				c-1.291,0.382-4.512-2.383-3.859-3.249c0.213,0.027,0.213,0.027,0.312-0.045c-2.781-2.893-2.2-4.995,1.746-6.47
				c0.014-0.057,0.028-0.128,0.028-0.197c-0.44-0.242-1.376-0.128-1.973,0c-0.34-3.123,0.511-5.194,4.031-4.612
				c0.396,0.24,0.936,0.482,1.22,0.482c0.298-0.369,0.284-0.724,0.369-1.263c0.638-2.101,2.541-2.526,4.271-1.42
				c0,0.923-0.369,0.881,0.057,1.745c0.028-0.013,0.057-0.028,0.07-0.042C14.507,14.167,15.458,13.417,17.076,13.417L17.076,13.417z
				 M36.941,15.914c3.122,0.382,3.619,2.383,3.15,5.135c-0.142,0.215-0.312,0.612-0.271,0.824c0.54-0.099,0.711-0.666,0.979-1.165
				c0.057,0,0.113,0,0.156-0.012c1.462,1.46,2.513,3.29,1.093,5.108c-0.043,0.012-0.085,0.012-0.142,0.012
				c-0.142-0.764-0.453-1.672-1.036-2.397c-0.057,0-0.128,0-0.198,0c0,2.284,1.446,2.738-0.895,4.867
				c0.938,0,1.519-0.809,2.044-1.418c0.113,2.427-0.979,4.016-3.462,4.156c0.212-1.105,2-2.78,0.949-4.354
				c-0.254,0.382-0.424,2.41-0.637,3.079c-0.668,1.051-1.931,1.562-2.483,2.326c0.737,0,0.979-0.284,1.504-0.48
				c-0.284,1.149-4.612,1.603-2.64-0.995c-0.312,0-1.25,0.836-2.044,0.923c-0.113-0.17-0.242-0.355-0.368-0.541
				c5.688-3.362,4.469-6.372,4.469-12.686c0.199-0.155,0.653-0.127,0.951-0.326c0-0.085,0-0.185,0-0.284
				c-0.483-0.34-0.979-0.682-1.475-1.036c0.057-0.567,0.057-0.567,0.113-0.681C36.785,15.956,36.871,15.941,36.941,15.914z"/>
			<path i:knockout="Off" fill="#987B37" d="M32.969,16.254c0.795,0.07,4.017,0.511,4.257,1.475c-0.199,0-0.624-0.042-0.852,0.128
				c0,0.681,0.482,0.864,0.171,1.489c0.326,7.721-0.171,11.453-8.727,12.104c0-3.974-2.045-3.49-4.784-5.604
				c4.967-0.794,3.748-7.663-1.234-7.237c-0.511,0.198-1.745,0.993-2.271,0.993c-0.412-0.908-0.496-1.108-0.113-2.2
				c0.497-0.142,0.794-0.398,1.164-0.682C24.752,17.417,28.84,16.353,32.969,16.254L32.969,16.254z M22.226,37.055
				c1.887,1.32-1.815,2.938-1.815,0.355c0.042-0.026,0.083-0.057,0.127-0.099c0.766,0.511,0.951,0.355,1.503-0.257
				C22.113,37.055,22.169,37.055,22.226,37.055L22.226,37.055z M23.603,33.792c-0.028,0-0.057,0-0.099,0
				c-0.257,0.34-1.803,2.328-2.455,1.675c-1.548,1.361,0.851,3.123,0.851,0.511c0.07,0.015,0.141,0.015,0.197,0.015
				c0.953,2.242,2.386,0.424,2.216-1.036c-0.17-0.057-0.341-0.042-0.582-0.283C23.772,34.375,23.943,34.162,23.603,33.792
				L23.603,33.792z M32.784,34.431c0.212,1.021,1.802,5.32-0.426,4.654c-0.554,0.016-1.064,0.284-1.617,0.284
				c-0.128-0.2,0.171-1.634,0.171-2.2c-0.37-1.646-0.37-1.646-0.37-1.93C31.266,34.884,32.088,34.544,32.784,34.431L32.784,34.431z
				 M30.314,41.925c1.264,0.167,1.974,0.183,1.974,1.573c-0.327,0.654-5.252,1.702-4.499-0.949
				C28.654,42.194,29.492,41.925,30.314,41.925L30.314,41.925z M22.467,41.116c0.909,0.738,2.186,1.419,3.123,1.574
				c0,0.086,0,0.17,0,0.241c-1.462,0-3.151-0.099-4.725-0.143C20.906,42.591,22.467,41.116,22.467,41.116z"/>
			<path i:knockout="Off" d="M31.834,17.19c4.384,1.165,2.837,10.982-1.179,10.982c-1.263-0.409-2.299-1.815-3.15-3.007
				C26.739,21.306,27.066,17.19,31.834,17.19z"/>
			<path i:knockout="Off" fill="#987B37" d="M31.691,17.474c4.016,1.093,2.794,10.358-1.093,10.358
				c-1.12-0.594-1.973-1.66-2.81-2.81C27.01,21.461,27.236,17.474,31.691,17.474L31.691,17.474z M30.982,18.992
				c-1.817,0-2.385,1.705-2.767,3.138c0,1.218,0.511,0.537,1.093,0.991c-0.186,2.968-0.045,1.618,2,2.783
				C32.643,25.749,33.395,19.786,30.982,18.992z"/>
			<path i:knockout="Off" d="M12.25,18.61c0.653,0.085,1.051,0.227,1.49,0.54c-0.016,0.083-0.029,0.17-0.042,0.239
				c-2.044,0-4.612-0.75-4.825,2.654c-0.015,0.015-0.043,0.03-0.071,0.042C7.269,20.553,10.802,18.61,12.25,18.61z"/>
			<path i:knockout="Off" fill="#FECC5C" d="M23.077,18.809c3.903,0.637,3.933,7.818-0.936,6.528
				c-0.028,0.042-0.058,0.083-0.101,0.113c0.342,0.511,1.036,0.821,1.377,1.021c2.427,1.107,4.144,2.087,4.144,4.881
				c-1.562,1.248-7.492-0.737-8.882-1.433c-0.567-0.752-0.668-3.222-0.866-4.386c2.03-1.376,0.907-3.801,1.178-6.187
				c0.028-0.015,0.057-0.027,0.07-0.057c0.113,0.212,0.213,0.427,0.313,0.624C20.424,19.914,21.617,18.809,23.077,18.809
				L23.077,18.809z M26.909,31.878c-0.1,0.012-0.213,0.027-0.327,0.027c-0.013,0.128-0.026,0.242-0.041,0.355
				C26.81,32.204,26.839,32.132,26.909,31.878z"/>
			<path i:knockout="Off" fill="#FECC5C" d="M30.982,19.275c1.729,0.979,1.419,5.082,0.596,6.258
				c-0.682-0.186-1.362-0.382-2.058-0.583c0-1.162,0.681-2.296-0.994-2.413c-0.341-0.681,0.483-3.048,1.604-1.49
				c0.355,0.896,0.498,1.421,0.568,1.463c0.937-0.695-0.879-2.015-1.319-2.412C29.902,19.559,30.272,19.275,30.982,19.275z"/>
			<path i:knockout="Off" d="M22.083,19.944c0.993,0.851,2.086,2.95,2.329,3.944c-1.051,0-3.718,0.666-4.372,0.141
				C20.07,22.667,20.07,19.944,22.083,19.944z"/>
			<path i:knockout="Off" fill="#FFFFFF" d="M21.999,20.228c0.852,0.567,1.703,2.526,1.562,3.279
				c-0.526,0.068-0.979,0.185-1.603,0.14c0-1.006-0.299-1.902-0.923-2.836C21.176,20.326,21.673,20.228,21.999,20.228z"/>
			<path i:knockout="Off" fill="#FFFFFF" d="M20.906,21.121c0.355,0.597,0.469,1.021,0.611,1.535c-0.638,0-1.106-0.824-0.767-1.52
				C20.807,21.135,20.865,21.135,20.906,21.121z"/>
			<path i:knockout="Off" d="M21.333,29.069c0.14,0.042,0.283,0.083,0.424,0.113c0.015,0.072,0.029,0.128,0.029,0.182
				c-0.156,0.158-1.164,0-1.731,0.17c-0.071-0.11-0.071-0.11-0.042-0.28C20.437,29.167,20.962,29.069,21.333,29.069z"/>
			<path i:knockout="Off" fill="#FFCC00" d="M32.075,31.863c0.992,0.567,1.049,1.418,1.178,2.326
				c-1.25-0.182-2.739,1.149-3.521,0.994C28.711,32.956,29.918,31.863,32.075,31.863L32.075,31.863z M30.371,35.951
				c0.171,0.81,0.37,1.475,0.257,2.171c-0.271,0.17-3.618,0.624-4.144,0.582c-0.852-0.34-1.676-0.669-2.555-1.221
				c0-0.469,0.341-0.866,0.624-1.32C26.499,36.148,28.598,36.306,30.371,35.951L30.371,35.951z M24.597,32.061
				c0,0.469-0.453,1.081-0.567,1.519c-0.057,0.016-0.113,0.027-0.185,0.027c-0.397-0.496-0.085-0.949,0.325-1.517
				C24.313,32.09,24.454,32.075,24.597,32.061L24.597,32.061z M25.164,32.019c-0.042,0.015-0.086,0.03-0.142,0.03
				c-0.369,0.752-0.853,1.759-0.853,2.525c0.144,0.027,0.284,0.057,0.427,0.069C25.505,33.539,25.306,33.565,25.164,32.019
				L25.164,32.019z M32.019,31.054c-3.095,0-4.314,1.645-6.102,3.804c0.412,0.412,2.624,0.129,3.263,0.099
				c-0.17-2.341,0.256-3.732,3.079-3.407C32.217,31.379,32.217,31.379,32.019,31.054L32.019,31.054z M30.457,38.489
				c-1.235,0.102-2.312,0.328-3.689,0.597c-0.312,3.819,0.822,3.136,2.979,2.496c0.355,0.03,2.145,0.313,2.356,0.216
				c0-0.567-0.44-1.49-0.881-2.145c-0.184,0-0.367,0-0.567,0C30.3,39.256,30.314,39.142,30.457,38.489L30.457,38.489z
				 M23.887,37.823c-0.057,0-0.114,0-0.186,0c-0.582,0.836-1.135,2.001-1.091,3.01c2.952,2.239,4.442,1.943,3.731-1.804
				C24.355,38.107,24.271,38.008,23.887,37.823z"/>
			<path i:knockout="Off" fill="#9983BD" d="M24.782,35.028c1.646,0.367,3.191,0.254,4.682,0.311c0.17,0.272,0.17,0.272,0.198,0.469
				c-1.192,0.016-3.987,0.37-5.08-0.057C24.597,35.553,24.597,34.9,24.782,35.028L24.782,35.028z M30.229,35.467
				c0,0.071,0,0.144,0,0.2c-0.34,0.068-0.34,0.068-0.482,0.041C29.918,35.566,30.103,35.482,30.229,35.467L30.229,35.467z
				 M28.286,31.735c-0.256,0.768-2.256,2.046-2.696,3.036c-0.384,0.016-0.384,0.016-0.539-0.057
				C25.051,33.92,27.278,31.92,28.286,31.735L28.286,31.735z M26.2,31.92c-0.213,0.027-0.427,0.057-0.653,0.083
				c-0.027,0.684-0.027,0.684,0.043,1.252c0.057,0.014,0.1,0.026,0.142,0.026C26.257,32.714,26.2,32.786,26.2,31.92z"/>
			<path i:knockout="Off" d="M5.34,35.028c2.171,0.935,3.335,3.291,0.71,4.485c-1.121,0.155-3.022,0.624-3.278-1.207
				C3.155,36.829,3.311,35.028,5.34,35.028z"/>
			<path i:knockout="Off" fill="#99AED3" d="M5.34,35.595c2.313,0.511,2.512,3.177,0.242,3.547c0.128-0.227,0.128-0.227,0.128-0.37
				c-0.014-0.012-0.043-0.026-0.072-0.057c-2.98,1.335-2.171-0.125-2.015-2.057C4.02,36.064,4.631,35.595,5.34,35.595z"/>
			<path i:knockout="Off" fill="#FFFF00" d="M23.177,37.823c0,0.469-0.214,0.723-0.397,1.135
				C22.156,39.059,23.164,37.808,23.177,37.823L23.177,37.823z M16.749,29.961c0.299,0.298,0.355,0.567,0.355,0.782
				c-0.469,0.311-0.696,0.552-1.307,0.594C15.131,30.57,16.011,29.961,16.749,29.961L16.749,29.961z M17.968,31.905
				c0.612,0.639,4.046,3.604,2.129,4.073c-0.155-0.141-3.037-3.121-3.037-3.574C17.204,32.317,17.813,31.905,17.968,31.905
				L17.968,31.905z M17.643,30.771c-0.312,0-1.405,0.851-1.49,1.248c0.057,0.057,0.113,0.113,0.17,0.17
				c0.598,0,1.008-0.197,1.392-0.553c0-0.113-0.057-0.269,0.099-0.427C17.798,31.096,17.884,30.926,17.643,30.771z"/>
			<path i:knockout="Off" fill="#FFFF00" d="M21.999,11.373c3.222,1.207,0.384,5.094-0.709,2.753c1.761-0.525,0.921-1.887,0-2.654
				C21.503,11.415,21.744,11.373,21.999,11.373L21.999,11.373z M21.36,14.68c0.015,0.042,0.015,0.113,0.057,0.113
				c0,1.632,6.486,0.596,6.955,0.539c1.702-0.185,3.773-0.596,5.49-0.114c0.84,0.185,1.634,0.454,2.456,0.709
				c-1.036-3.15-10.643-0.895-13.184-1.191C22.496,15.304,21.814,15.105,21.36,14.68z"/>
			<path i:knockout="Off" fill="#FFCC00" d="M19.288,12.067c-0.026,0.058-0.07,0.1-0.083,0.144
				c-0.412,0.822-0.711,1.872-0.384,2.781c0.156,0.482,0.312,1.021,0.539,1.49c0.057,0.099,0.128,0.312,0.185,0.524
				c-0.057-0.212-0.128-0.425-0.185-0.524c-0.228-0.469-0.383-1.008-0.539-1.49c-0.327-0.909-0.028-1.959,0.384-2.781
				C19.217,12.167,19.261,12.125,19.288,12.067z"/>
			<path i:knockout="Off" fill="#FFFFCC" d="M21.999,11.373c2.838,1.064,0.979,4.2-0.255,3.349c1.704-0.454,1.874-2.794,0.156-3.333
				C21.927,11.373,21.97,11.373,21.999,11.373z"/>
			<path i:knockout="Off" fill="#FFFF00" d="M16.138,30.104c0.043,0.254,0.51,0.538,0.71,0.821c0.085-0.057,0.171-0.113,0.256-0.182
				c0-0.215-0.057-0.484-0.355-0.782C16.55,29.961,16.337,30.018,16.138,30.104L16.138,30.104z M16.947,31.153
				c0.284-0.212,0.567-0.382,0.696-0.382c0.241,0.155,0.155,0.326,0.17,0.439c-0.155,0.158-0.099,0.313-0.099,0.427
				c-0.1,0.099-0.2,0.185-0.313,0.254l-0.014-0.027C17.288,31.708,17.104,31.239,16.947,31.153L16.947,31.153z M17.557,32.105
				l1.276,1.83c0.384,0.595,1.25,1.12,1.761,1.759c0.596-0.893-2.086-3.222-2.626-3.789C17.898,31.905,17.728,32.003,17.557,32.105z
				"/>
			<path i:knockout="Off" fill="#FFFFCC" d="M22.097,15.077L22.097,15.077h0.016c0,0,0,0,0,0.013h0.028h0.028
				c0,0.683,5.804,0.214,6.614,0.1c2.737-0.312,4.611-0.397,7.407,0.439c0.07,0.144,0.141,0.299,0.171,0.456
				c-0.016,0.028-0.03,0.042-0.044,0.055c-0.512,0.058-2.766-0.594-3.038-0.666c-0.537-0.113-4.753,0.057-5.661,0.199
				c-1.263,0.212-6.697,0.582-6.228-0.936C21.417,14.736,21.885,15.033,22.097,15.077z"/>
			<path i:knockout="Off" fill="#FFFFFF" d="M17.076,13.417c0.155,0.014,0.312,0.014,0.469,0.014
				c-0.072,1.121-0.072,1.688,0.057,2.128c-1.066,0.454-2.258,1.32-1.618,2.469v0.07c-0.64-0.227-2.896-3.263-5.336,0.71
				c0,0.142,0,0.27-0.071,0.398c-1.305-2.001-4.895,0.651-3.249,2.667c-3.434,0.851-3.321,3.021-3.377,4.923
				c-2.071-2.538-1.277-4.425,2.342-5.79c0.014-0.057,0.028-0.128,0.028-0.197c-0.44-0.242-1.376-0.128-1.973,0
				c-0.34-3.123,0.511-5.194,4.031-4.612c0.396,0.24,0.936,0.482,1.22,0.482c0.298-0.369,0.284-0.724,0.369-1.263
				c0.638-2.101,2.541-2.526,4.271-1.42c0,0.923-0.369,0.881,0.057,1.745c0.028-0.013,0.057-0.028,0.07-0.042
				C14.507,14.167,15.458,13.417,17.076,13.417z"/>
			<path i:knockout="Off" fill="#0480B7" d="M17.514,27.692c0.157,0.922,0.397,1.815,0.737,2.553
				c3.506,1.134,3.506,1.134,4.145,1.391c0,0.057,0,0.099,0,0.144c-4.243,2.567-3.078-0.797-5.506-2.246
				c-2.738-0.269-1.83,2.896-0.382,3.097c0,1.033-3.193,1.716-4.073,0.835c-0.554-0.128-1.958-1.731-1.845-2.454
				c0.667-0.057,2.072-0.17,2.257-0.938c-0.156-0.128-0.738,0.185-0.922,0.269c-2.683,0.54-3.733-0.794-4.755-3.12
				c-0.015-0.215-0.042-0.412-0.042-0.612c2.114,0,1.419,3.392,5.462,0.2C13.94,26.812,14.621,29.137,17.514,27.692z"/>
			<path i:knockout="Off" fill="#0480B7" d="M37.65,31.606c0.016,0.03,0.016,0.045,0.03,0.057c0-0.012,0.014-0.042,0.014-0.068
				C37.681,31.606,37.666,31.606,37.65,31.606z"/>
			<path i:knockout="Off" fill="#0480B7" d="M38.815,29.152C38.8,29.167,38.8,29.194,38.8,29.209
				C38.8,29.194,38.815,29.182,38.815,29.152z"/>
			<path i:knockout="Off" fill="#0480B7" d="M39.852,28.229c-0.101,0.015-0.2,0.015-0.271,0.03c-0.24,1.051-1.079,2.027-1.22,2.765
				c2.482-0.141,3.575-1.729,3.462-4.156c-0.525,0.609-1.106,1.418-2.044,1.418C39.808,28.274,39.821,28.259,39.852,28.229z"/>
			<path i:knockout="Off" fill="#0480B7" d="M37.125,19.305c1.25,0.737,2.103,1.744,2.103,3.249
				c0.608-0.182,1.049,0.511,1.446,0.922c0-0.015,0-0.042,0-0.057c0.07,0,0.142,0,0.198,0c0.583,0.726,0.895,1.633,1.036,2.397
				c0.057,0,0.099,0,0.142-0.012c1.42-1.818,0.369-3.648-1.093-5.108c-0.043,0.012-0.1,0.012-0.156,0.012
				c-0.269,0.499-0.439,1.066-0.979,1.165c-0.042-0.212,0.129-0.609,0.271-0.824c0.469-2.752-0.028-4.752-3.15-5.135
				c-0.07,0.027-0.156,0.042-0.24,0.057c-0.057,0.114-0.057,0.114-0.113,0.681c0.495,0.354,0.991,0.696,1.475,1.036
				c0,0.099,0,0.199,0,0.284c-0.298,0.199-0.752,0.17-0.951,0.326C37.111,18.652,37.125,18.979,37.125,19.305z"/>
		</g>
	</g>
</g>
</svg>
