<?xml version="1.0" encoding="utf-8"?>
<!-- Generator: Adobe Illustrator 12.0.0, SVG Export Plug-In . SVG Version: 6.00 Build 51448)  -->
<!DOCTYPE svg PUBLIC "-//W3C//DTD SVG 1.1//EN" "http://www.w3.org/Graphics/SVG/1.1/DTD/svg11.dtd" [
	<!ENTITY ns_flows "http://ns.adobe.com/Flows/1.0/">
	<!ENTITY ns_extend "http://ns.adobe.com/Extensibility/1.0/">
	<!ENTITY ns_ai "http://ns.adobe.com/AdobeIllustrator/10.0/">
	<!ENTITY ns_graphs "http://ns.adobe.com/Graphs/1.0/">
	<!ENTITY ns_vars "http://ns.adobe.com/Variables/1.0/">
	<!ENTITY ns_imrep "http://ns.adobe.com/ImageReplacement/1.0/">
	<!ENTITY ns_sfw "http://ns.adobe.com/SaveForWeb/1.0/">
	<!ENTITY ns_custom "http://ns.adobe.com/GenericCustomNamespace/1.0/">
	<!ENTITY ns_adobe_xpath "http://ns.adobe.com/XPath/1.0/">
	<!ENTITY ns_svg "http://www.w3.org/2000/svg">
	<!ENTITY ns_xlink "http://www.w3.org/1999/xlink">
]>
<svg  version="1.1"
	 xmlns:x="&ns_extend;" xmlns:i="&ns_ai;" xmlns:graph="&ns_graphs;" i:viewOrigin="-0.2363 64.9995" i:rulerOrigin="0 0" i:pageBounds="0 65 45 0"
	 xmlns="&ns_svg;" xmlns:xlink="&ns_xlink;" xmlns:a="http://ns.adobe.com/AdobeSVGViewerExtensions/3.0/"
	 width="45.73" height="65.236" viewBox="0 0 45.73 65.236" overflow="visible" enable-background="new 0 0 45.73 65.236"
	 xml:space="preserve">
<metadata>
	<variableSets  xmlns="&ns_vars;">
		<variableSet  varSetName="binding1" locked="none">
			<variables></variables>
			<v:sampleDataSets  xmlns:v="&ns_vars;" xmlns="&ns_custom;"></v:sampleDataSets>
		</variableSet>
	</variableSets>
</metadata>
<g id="图层_1" i:layer="yes" i:dimmedPercent="50" i:rgbTrio="#4F008000FFFF">
	<g>
		<g i:knockout="Off">
			<path fill="#333333" d="M1.181,47.467v12.077c0,2.49,1.622,4.512,3.62,4.512h37.31c1.998,0,3.62-2.021,3.62-4.512h-0.002V3.807
				C45.729,1.705,44.107,0,42.11,0H4.801C2.803,0,1.182,1.705,1.182,3.807H1.181v43.651C1.181,47.46,1.181,47.464,1.181,47.467z"/>
			
				<linearGradient id="XMLID_3_" gradientUnits="userSpaceOnUse" x1="-41.7036" y1="22.0117" x2="-41.7036" y2="82.7578" gradientTransform="matrix(1 0 0 -1 64.2148 87.0107)">
				<stop  offset="0.0393" style="stop-color:#0060B6"/>
				<stop  offset="0.0899" style="stop-color:#2089B9"/>
				<stop  offset="0.0985" style="stop-color:#4FA3C2"/>
				<stop  offset="0.1071" style="stop-color:#77B9CA"/>
				<stop  offset="0.1138" style="stop-color:#8FC7CF"/>
				<stop  offset="0.118" style="stop-color:#98CCD1"/>
				<stop  offset="0.1341" style="stop-color:#9ECFD3"/>
				<stop  offset="0.156" style="stop-color:#AFD6D9"/>
				<stop  offset="0.1809" style="stop-color:#CBE1E3"/>
				<stop  offset="0.1966" style="stop-color:#E1EAEB"/>
				<a:midPointStop  offset="0.0393" style="stop-color:#0060B6"/>
				<a:midPointStop  offset="0.5" style="stop-color:#0060B6"/>
				<a:midPointStop  offset="0.0899" style="stop-color:#2089B9"/>
				<a:midPointStop  offset="0.5" style="stop-color:#2089B9"/>
				<a:midPointStop  offset="0.0985" style="stop-color:#4FA3C2"/>
				<a:midPointStop  offset="0.5" style="stop-color:#4FA3C2"/>
				<a:midPointStop  offset="0.1071" style="stop-color:#77B9CA"/>
				<a:midPointStop  offset="0.5" style="stop-color:#77B9CA"/>
				<a:midPointStop  offset="0.1138" style="stop-color:#8FC7CF"/>
				<a:midPointStop  offset="0.5" style="stop-color:#8FC7CF"/>
				<a:midPointStop  offset="0.118" style="stop-color:#98CCD1"/>
				<a:midPointStop  offset="0.5" style="stop-color:#98CCD1"/>
				<a:midPointStop  offset="0.1341" style="stop-color:#9ECFD3"/>
				<a:midPointStop  offset="0.5" style="stop-color:#9ECFD3"/>
				<a:midPointStop  offset="0.156" style="stop-color:#AFD6D9"/>
				<a:midPointStop  offset="0.5" style="stop-color:#AFD6D9"/>
				<a:midPointStop  offset="0.1809" style="stop-color:#CBE1E3"/>
				<a:midPointStop  offset="0.5" style="stop-color:#CBE1E3"/>
				<a:midPointStop  offset="0.1966" style="stop-color:#E1EAEB"/>
			</linearGradient>
			<path fill="url(#XMLID_3_)" d="M44.785,60.488c0,2.493-1.621,4.512-3.619,4.512H3.856c-1.998,0-3.619-2.019-3.619-4.512V8.765
				c0-2.49,1.623-4.511,3.619-4.511h37.309c1.999,0,3.62,2.021,3.62,4.511V60.488L44.785,60.488z"/>
			<path fill="none" stroke="#333333" stroke-width="0.4727" d="M44.785,60.488c0,2.493-1.621,4.512-3.619,4.512H3.856
				c-1.998,0-3.619-2.019-3.619-4.512V8.765c0-2.49,1.623-4.511,3.619-4.511h37.309c1.999,0,3.62,2.021,3.62,4.511V60.488
				L44.785,60.488z"/>
			<path fill="#FFFFFF" d="M0.236,4.752c0-2.101,1.622-3.807,3.62-3.807h37.307c2.001,0,3.622,1.705,3.622,3.807v43.653
				c0,2.102-1.624,3.804-3.622,3.804H3.856c-1.999,0-3.62-1.702-3.62-3.807V4.752L0.236,4.752z"/>
			
				<linearGradient id="XMLID_4_" gradientUnits="userSpaceOnUse" x1="2.5527" y1="25.2319" x2="46.6465" y2="25.2319" gradientTransform="matrix(-1 0 0 1 47.1094 1.3447)">
				<stop  offset="0" style="stop-color:#A2D8E0"/>
				<stop  offset="0.0899" style="stop-color:#1878AD"/>
				<stop  offset="0.2135" style="stop-color:#194D91"/>
				<stop  offset="0.6404" style="stop-color:#2B90BD"/>
				<stop  offset="0.9438" style="stop-color:#82CBDE"/>
				<stop  offset="1" style="stop-color:#1A478D"/>
				<a:midPointStop  offset="0" style="stop-color:#A2D8E0"/>
				<a:midPointStop  offset="0.5" style="stop-color:#A2D8E0"/>
				<a:midPointStop  offset="0.0899" style="stop-color:#1878AD"/>
				<a:midPointStop  offset="0.5" style="stop-color:#1878AD"/>
				<a:midPointStop  offset="0.2135" style="stop-color:#194D91"/>
				<a:midPointStop  offset="0.5" style="stop-color:#194D91"/>
				<a:midPointStop  offset="0.6404" style="stop-color:#2B90BD"/>
				<a:midPointStop  offset="0.5" style="stop-color:#2B90BD"/>
				<a:midPointStop  offset="0.9438" style="stop-color:#82CBDE"/>
				<a:midPointStop  offset="0.5" style="stop-color:#82CBDE"/>
				<a:midPointStop  offset="1" style="stop-color:#1A478D"/>
			</linearGradient>
			<path i:isolated="yes" i:knockout="Off" opacity="0.1" fill="url(#XMLID_4_)" enable-background="new    " d="M0.463,4.752
				c0-2.101,1.603-3.807,3.578-3.807h36.937c1.977,0,3.578,1.705,3.578,3.807v43.653c0,2.102-1.602,3.804-3.578,3.804H4.042
				c-1.976,0-3.579-1.702-3.579-3.807L0.463,4.752L0.463,4.752z"/>
			<path fill="none" stroke="#4D4D4D" stroke-width="0.4727" d="M0.236,48.414v12.074c0,2.493,1.622,4.512,3.62,4.512h37.31
				c1.998,0,3.619-2.019,3.619-4.512V4.752c0-2.102-1.624-3.806-3.622-3.806H3.856c-1.998,0-3.62,1.705-3.62,3.806v43.653
				C0.236,48.408,0.236,48.411,0.236,48.414z"/>
		</g>
		<g>
			<path i:knockout="Off" d="M40.272,6.038c1.68,0.648,1.818,0.827,3.154,0.606c1.708,1.708-3.568,7.906-2.301,9.435
				c0,0.166,0,0.316,0,0.469c-0.551,0.358-1.488-0.221-2.163,0.275c-0.427,1.391,0.496,1.75,0.593,2.644
				c-0.166,0.166-0.482,0.097-0.854,0.097c-0.234,0.248,0.592,1.268,0.592,1.639c-0.206,0.208-1.17,0.028-1.666-0.014
				c-1.391,3.637-1.391,1.17-5.027,3.058c0.054,0.345,0.605,1.557,1.294,3.526c1.033,0,2.19-0.469,3.044-0.646
				c3.732,0,7.672,6.268,3.857,6.887c-0.689-1.378,1.335-1.777-1.144-3.692c-0.91,0.455-0.84,1.02-1.35-0.261
				c-0.179,0.179-0.331,0.137-0.758,0.179c-0.606-1.777-1.434-1.887-3.36-0.688c-0.07,1.418,0.219,2.795,0.055,4.104
				c8.993-1.405,2.535,5.771,2.879,9.587c0.274,0.262,0.385,0.164,0.579,0.193c0.274,1.61-0.496,1.032-2.232,1.17
				c-0.124-1.363-0.082-2.92,0.138-4.338c-0.33,0-0.635,0.219-1.06-0.069c0-0.441,0.798-0.868,0.922-1.42
				c-0.247,0-0.455,0.083-0.771-0.137c0-0.098,0-0.208,0-0.332c0.495-0.357,1.088-0.77,1.639-1.004
				c0.166-0.688,0.124-1.226,0.138-2.024c-0.509,0-1.087-0.07-1.762,0.096c-1.074,0.634-3.017,5.055-3.168,6.433
				c-0.868,0-1.158-0.345-1.777,0.771c-0.109,0.014-0.206,0.04-0.33,0.04c-0.648-0.84-2.204-1.831-3.236-2.644
				c-3.679-3.815-2.852-3.444-7.838-2.92c-0.015,0.04-0.042,0.082-0.084,0.096c0.593,0.579,1.268,1.062,1.338,1.625
				c-0.11,0.029-0.236,0.042-0.373,0.069c0.152,0.482,0.234,0.358,0.179,0.745c-0.179,0.026-0.385,0.04-0.591,0.068
				c0.427,1.197,2.146,2.81,1.969,3.925c-0.771,0.385-2.301,0.166-3.25-0.096c0-0.675,0.646-0.635,0.646-1.406
				c-1.17-1.582-2.507-3.526-2.507-5.798c0.965-0.979,3.608-1.516,4.903-1.516c0-3.732-5.068-3.925-7.781-3.925
				c-0.11,1.818,0,0.936-1.075,0.936c-0.068,0.166-0.152,0.303-0.234,0.455c-0.303,0-0.563-0.028-0.991-0.166
				c-0.896,0.524-0.896,1.376-0.923,2.19c-0.427,0.137-1.474,0-1.776-0.606c2.727-4.656,4.489-5.068,9.998-4.201
				c0-0.414-0.66-1.847-1.005-2.369c-1.142-0.166-1.763-0.882-2.231-2.039c-1.06,0.097-2.106,0.179-3.18,0.263
				c-1.586-2.011-1.104-1.971-3.252-2.397c-0.165-0.358-0.33-0.73-0.482-1.088c-0.082-0.027-0.165-0.041-0.248-0.082
				c-0.179,0.137-0.221,0.303-0.551,0.221c-0.206-0.44-0.399-0.896-0.62-1.364c-0.083,0-0.165,0-0.248-0.014
				c-0.207,0.179-0.606,0.785-0.909,0.427c0.73-4.973,5.414,1.24,6.447,2.548c1.321,0,3.25,0.068,4.339-0.179
				c0-0.055,0-0.138-0.015-0.221c-4.242-0.48-4.022-5.137-0.275-6.639c0.316-0.275,0.62-0.564,0.923-0.854
				c-0.881-3.746-1.845-5.537-5.44-7.768c-6.253-2.728-4.628,4.31-6.295,7.203c-0.097,0-0.22-0.013-0.344-0.042
				C3.978,4.715,11.884,4.826,15.96,12.084c0.537,1.557,0.537,1.557,0.979,3.237c2.229-0.536,3.429-1.611,5.673-0.275
				c0.083,0,0.152-0.027,0.207-0.042c2.027-4.062,6.144-9.875,10.676-5.068c0.606,1.239,1.582,4.435,0.48,4.986
				c-0.082-0.082-0.164-0.166-0.248-0.261c0-14.958-15.674,3.002-8.153,1.197c3.623,0.234,3.415,2.508,3.03,5.152
				c3.953,2.024,3.251,2.714,7.396,0.082c0.579-2.106,0.938-4.201,1.53-6.432c0.703-0.345,1.638,0.056,2.244,0
				c0.289-0.758,1.074-2.011,0.964-2.838c-0.854-0.551-2.699-0.234-3.347-0.881c0.263-1.681,0.869-3.278,1.818-4.862
				C39.584,6.08,39.928,6.051,40.272,6.038z"/>
			<path i:knockout="Off" fill="#9983BD" d="M39.584,6.781c1.253,0.387,2.383,0.854,3.526,0.978c0,0.675-0.772,3.307-1.158,3.692
				c-1.115-0.137-2.562-0.633-3.912-0.867c0-1.062,0.772-2.741,1.308-3.774C39.432,6.81,39.516,6.81,39.584,6.781z"/>
			<path i:knockout="Off" fill="#AA8F50" d="M22.077,15.652c0,0.551,0.303,2.093-0.414,2.246c0.11-2.024,0.11-2.024,0.206-2.246
				C21.953,15.652,22.007,15.652,22.077,15.652L22.077,15.652z M22.543,15.858c-0.026,0.015-0.04,0.015-0.082,0.015
				c-0.082,0.206-0.082,0.206-0.124,1.226c0.206-0.028,0.206-0.028,0.316-0.152c0.028-0.316,0.042-0.661,0.069-1.004
				C22.654,15.914,22.6,15.9,22.543,15.858L22.543,15.858z M21.526,15.404c-0.027,0.717-0.042,1.405-0.056,2.093
				c-0.07,0-0.124,0-0.207,0c0.041-0.674,0.083-1.336,0.097-2.024C21.428,15.446,21.484,15.431,21.526,15.404L21.526,15.404z
				 M19.293,15.212c-0.04,0.922-0.082,1.845-0.124,2.754c-0.082-0.027-0.179-0.042-0.289-0.083c-0.18-0.4-0.138-1.942,0.083-2.632
				C19.087,15.252,19.197,15.225,19.293,15.212L19.293,15.212z M18.619,15.321c-0.013,0.676-0.04,1.323-0.055,1.971
				c-0.096-0.014-0.206-0.042-0.304-0.056c0.014-0.606,0.042-1.226,0.056-1.832C18.426,15.391,18.522,15.362,18.619,15.321
				L18.619,15.321z M18.013,15.57c0,0.481,0,0.978,0,1.46c-0.098-0.015-0.208-0.042-0.304-0.083c0-1.128,0-1.128,0.096-1.376
				C17.889,15.57,17.958,15.57,18.013,15.57L18.013,15.57z M17.462,15.942c-0.016,0.274-0.042,0.564-0.056,0.84
				c-0.082,0.027-0.166,0.041-0.262,0.041C17.159,16.438,17.077,16.01,17.462,15.942L17.462,15.942z M16.856,16.285
				c0,0.152,0,0.318,0,0.469c-0.138-0.027-0.303-0.042-0.469-0.069C16.65,16.382,16.65,16.382,16.856,16.285L16.856,16.285z
				 M20.245,15.17c-0.042,0.042-0.097,0.082-0.166,0.097c-0.013,1.21-0.055,2.438-0.097,3.65c-0.082-0.015-0.164-0.042-0.248-0.055
				c0.11-1.144,0.194-2.466-0.013-3.734c-0.109,0.084-0.109,0.084-0.18,0.345c-0.303,4.78,0.841,5.674-2.96,7.851
				c0.192,1.267,3.347,2.438,4.338,2.521c0.923-0.538,3.996-1.818,3.996-3.073c-2.714-0.221-3.417-1.239-3.417-4.201
				c-0.015-0.014-0.057-0.042-0.099-0.055c-0.096,0.055-0.096,0.055-0.137,0.469c-0.069,0-0.123,0-0.206,0c0-1.241,0-2.48,0-3.719
				c-0.084,0.013-0.164,0.04-0.262,0.04c-0.33,1.13-0.082,2.783-0.082,3.816c-0.057,0-0.125,0-0.207-0.027
				c-0.014-1.294-0.041-2.59-0.056-3.884C20.382,15.212,20.327,15.183,20.245,15.17L20.245,15.17z M16.195,23.93
				c-0.206,0.648-0.345,0.509-1.073,0.648c-0.042-0.042-0.084-0.083-0.152-0.139c-2.783,0.345-2.783,0.345-3.306,0.345
				c-0.166-0.166-0.317-0.33-0.482-0.509C11.539,23.806,15.659,23.93,16.195,23.93L16.195,23.93z M6.457,19.563
				c2.025,0.799,3.389,2.604,4.519,4.119c-0.056,0.083-0.056,0.083-0.207,0.083c-0.702-0.771-1.089-1.474-2.425-1.598
				c-0.812-1.625-0.412-0.772-1.377-1.02c-0.275-0.744-0.275-0.744-0.51-1.073c-0.193,0-0.372,0-0.551,0
				C5.961,19.55,6.112,19.605,6.457,19.563L6.457,19.563z M21.869,35.17c0.345,0.385,0.606,0.563,0.553,0.867
				c-0.455,0.042-5.729,0.152-4.959,1.309c0.427,0.138,0.51,0.262,0.551,0.481c-0.056,0.042-0.138,0.07-0.22,0.083
				c0.082,0.482,0.427,0.73,0.48,1.02c-0.261,0-0.522-0.028-0.812-0.041c-0.016,0.041-0.042,0.082-0.056,0.097
				c0.688,0.812,2.976,3.429,2.575,4.241c-0.522,0.015-1.033,0.097-1.708-0.109c0.221-0.234,0.427-0.481,0.635-0.744
				c-0.18-1.626-2.673-3.306-2.673-5.825C17.614,35.555,20.313,35.17,21.869,35.17L21.869,35.17z M15.52,29.633
				c1.156,0.179,2.273,0.482,3.14,0.771c0.083,0.208,0.167,0.414,0.221,0.606c-2.106-0.467-4.035-0.661-6.28-0.854
				c-0.248,0.318-0.304,0.635-0.33,0.923c-0.358,0-0.263-0.193-0.69-0.302c-0.274,0.275-0.426,0.44-0.467,0.839
				c-0.234-0.027-0.483-0.095-0.744-0.15c-0.647,0.385-1.323,1.46-1.419,2.19c-0.413-0.11-0.413-0.11-0.468-0.208
				C10.934,29.702,11.098,29.633,15.52,29.633L15.52,29.633z M16.043,24.784c0.633,0.303,1.846,0.936,1.308,1.612
				c-1.046-0.152-1.969-0.111-2.135-1.529C15.382,24.784,15.382,24.784,16.043,24.784L16.043,24.784z M31.264,23.765
				c0.098,0.042,0.208,0.055,0.276,0.083c-0.179,0.551-0.91,0.854-1.502,0.854c-0.015-0.029-0.041-0.069-0.055-0.111
				C30.328,24.289,30.809,23.765,31.264,23.765L31.264,23.765z M24.446,25.101c0.124,0.07,0.248,0.124,0.343,0.166
				c0.138,1.13-1.032,1.75-1.969,1.184c0-0.165-0.014-0.33-0.04-0.509C23.345,25.308,23.661,25.101,24.446,25.101L24.446,25.101z
				 M23.234,24.937c-0.58,1.334-0.896,1.17-2.232,1.266C21.153,25.72,22.682,25.06,23.234,24.937L23.234,24.937z M17.062,24.371
				c0.4,0.248,2.935,1.639,2.977,1.708c-1.392,0.152-2.66,0-3.403-1.487C16.774,24.454,16.94,24.371,17.062,24.371L17.062,24.371z
				 M33.37,29.357c0.358,1.35,0.346,3.347,0.098,4.614c-0.18,0.124-0.18,0.124-0.646,0.206c0.164-1.514,0.248-3.044,0.248-4.724
				C33.165,29.357,33.165,29.357,33.37,29.357L33.37,29.357z M25.864,22.815c1.887,0.551,1.887,0.551,3.086,1.033
				c0,0.082,0,0.137,0,0.206c-1.102,0.869-2.396,1.294-3.829,1.488c0-0.29-0.414-0.827-1.02-0.703
				c-0.124-0.124-0.124-0.179-0.166-0.509c0.689-0.524,0.951-0.661,1.322-1.515C25.464,22.815,25.658,22.815,25.864,22.815
				L25.864,22.815z M33.288,35.542c-0.097,0.73-0.551,1.516-0.729,2.162c-0.056,0-0.124,0-0.206,0
				c0.192-0.66,0.344-1.335,0.509-2.024C33,35.639,33.151,35.597,33.288,35.542L33.288,35.542z M32.89,30.817
				c-0.207,0.028-0.207,0.028-0.882,0.566c-3.486,1.432-7.824,1.761-11.695,1.212c-0.026,0.041-0.041,0.069-0.068,0.082
				c3.417,4.008,3.196,2.878,9.6,2.438C33.069,33.916,32.807,34.193,32.89,30.817L32.89,30.817z M31.746,24.371
				c-0.221,0-0.345,0.083-0.647,0.221c0.055,0.332,1.791,3.624,1.929,3.706C32.972,27.304,32.821,25.087,31.746,24.371
				L31.746,24.371z M28.303,21.534c-0.772,0-1.295,0.591-1.97,1.073c2.011,0.758,3.168,1.792,4.712,0.827c0-0.055,0-0.11,0-0.193
				C30.231,22.594,29.475,21.919,28.303,21.534L28.303,21.534z M29.515,24.096c0.207,1.088,0.482,0.881,1.336,0.881
				c3.637,3.623-16.061,4.959-13.099,1.268c1.377,0.069,4.407-0.096,5.137,0.551C24.887,27.084,27.751,24.096,29.515,24.096
				L29.515,24.096z M33.165,23.158c0.026,0.042,0.041,0.083,0.068,0.097c-0.262,0.11-0.262,0.11-0.412,0.069
				c0-0.027,0-0.069,0-0.111C32.943,23.2,33.069,23.173,33.165,23.158L33.165,23.158z M38.44,15.046
				c0.812,0.124,1.624,0.427,1.75,1.033c-2.192,0-2.177,1.115-1.42,2.907c-0.288,0-0.578,0-0.883-0.028
				c0,0.73,0.497,1.075,0.553,1.584c-1.364-0.124-1.212,0.042-1.723,1.557c-0.44,0.303-3.126,0.992-3.222,0.923
				c0.964-0.454,2.078-1.184,3.042-1.405C37.545,16.478,37.461,15.046,38.44,15.046L38.44,15.046z M33.37,28.544
				c-0.509,0-2.367,0.812-2.63,1.184c0.068,0.042,0.138,0.083,0.194,0.124c-0.016,0.068-0.042,0.11-0.084,0.152
				c0.923,0.11,2.341-0.882,3.194-1.226c-0.026-0.055-0.04-0.124-0.068-0.192C33.496,28.613,33.496,28.613,33.37,28.544
				L33.37,28.544z M37.958,27.662c-1.268,0.07-2.479,0.221-3.773,0.882c1.39,0,2.106-0.661,3.484-0.303
				c0.082,0.358,0.165,0.73,0.219,1.075c0.457-0.152,0.511-0.248,0.814-0.496c0.123,0.027,0.247,0.027,0.345,0.027
				c0,0.358,0,0.73,0,1.073c1.749-0.564,2.355,1.626,2.355,2.714C43.232,31.726,39.294,28.118,37.958,27.662L37.958,27.662z
				 M36.732,33.889c-0.882,0.069-4.147,0.343-5.151,1.102c0.329,2.286,4.71-2.024,5.399,0.29c-0.015,0.785,0.082,1.94-0.358,2.533
				c-0.316,0.014-0.511,0.056-0.812,0.358c0.233,0.068,0.481,0.097,0.702,0.137c0.373,0.69-0.511,0.938-0.991,1.283
				c0.302,0.04,0.605,0.068,0.896,0.082c0.164,0.827-0.594,3.058-0.483,4.324c0.193,0.042,0.193,0.042,0.882-0.041
				c0.11-0.552-0.137-2.728-0.04-3.76C37.27,38.517,40.038,34.48,36.732,33.889L36.732,33.889z M31.194,39.935
				c0,2.451-2.106,1.611-3.153,0.812c0-0.082,0-0.164-0.027-0.246C29.928,40.239,29.928,40.239,31.194,39.935L31.194,39.935z
				 M32.076,37.566c-0.082,0.606-0.082,0.606-0.495,1.818c-2.797,1.323-3.967,1.446-6.117-0.867
				c0.016-0.014,0.042-0.056,0.058-0.097C28.083,38.393,29.845,38.557,32.076,37.566L32.076,37.566z M31.347,34.867
				c-2.727,0.896-5.262,1.144-8.265,1.061c-0.014,0.041-0.042,0.083-0.054,0.097c0.744,0.771,1.583,1.748,2.354,2.135
				c2.163,0.056,6.776,0.661,7.095-2.272C31.856,36.066,31.43,35.721,31.347,34.867L31.347,34.867z M31.746,26.189
				c-0.137,0.055-0.137,0.055-0.689,0.62c-2.699,1.309-4.544,1.612-7.712,1.874c-1.419-0.069-5.125-0.551-5.345-0.509
				c0.124,0.469,0.66,1.748,0.619,1.832c0.428,0.702,0.854,1.418,1.281,2.121c1.832,1.281,12.907,0.509,12.907-2.411
				c-0.33-0.164-1.445,0.482-1.872,0.688c-0.276-0.164-0.4-0.303-0.4-0.853c0.66-0.345,1.322-0.689,1.969-1.048
				C32.517,27.786,32.269,27.001,31.746,26.189z"/>
			<path i:knockout="Off" fill="#FFFFFF" d="M25.258,16.588c6.268,0.689,1.984,7.866-2.836,4.864
				C20.19,18.958,22.696,16.588,25.258,16.588z"/>
			<path i:knockout="Off" fill="#FFFFFF" d="M16.195,16.988c5.578,0.524,2.92,7.163-2.176,5.068
				c0.027-0.096,0.041-0.193,0.041-0.303C12.517,19.977,13.467,16.988,16.195,16.988z"/>
			<path i:knockout="Off" d="M18.082,18.82c0.249,0,0.455,0.303,0.455,0.688c0,0.387-0.206,0.689-0.455,0.689
				c-0.248,0-0.44-0.303-0.44-0.689C17.641,19.123,17.833,18.82,18.082,18.82z"/>
			<path i:knockout="Off" d="M26.291,18.917c0.248,0,0.454,0.316,0.454,0.688c0,0.385-0.206,0.702-0.454,0.702
				c-0.232,0-0.44-0.317-0.44-0.702C25.851,19.233,26.059,18.917,26.291,18.917z"/>
		</g>
	</g>
</g>
</svg>
