<?xml version="1.0" encoding="utf-8"?>
<!-- Generator: Adobe Illustrator 12.0.0, SVG Export Plug-In . SVG Version: 6.00 Build 51448)  -->
<!DOCTYPE svg PUBLIC "-//W3C//DTD SVG 1.1//EN" "http://www.w3.org/Graphics/SVG/1.1/DTD/svg11.dtd" [
	<!ENTITY ns_flows "http://ns.adobe.com/Flows/1.0/">
	<!ENTITY ns_extend "http://ns.adobe.com/Extensibility/1.0/">
	<!ENTITY ns_ai "http://ns.adobe.com/AdobeIllustrator/10.0/">
	<!ENTITY ns_graphs "http://ns.adobe.com/Graphs/1.0/">
	<!ENTITY ns_vars "http://ns.adobe.com/Variables/1.0/">
	<!ENTITY ns_imrep "http://ns.adobe.com/ImageReplacement/1.0/">
	<!ENTITY ns_sfw "http://ns.adobe.com/SaveForWeb/1.0/">
	<!ENTITY ns_custom "http://ns.adobe.com/GenericCustomNamespace/1.0/">
	<!ENTITY ns_adobe_xpath "http://ns.adobe.com/XPath/1.0/">
	<!ENTITY ns_svg "http://www.w3.org/2000/svg">
	<!ENTITY ns_xlink "http://www.w3.org/1999/xlink">
]>
<svg  version="1.1"
	 xmlns:x="&ns_extend;" xmlns:i="&ns_ai;" xmlns:graph="&ns_graphs;" i:viewOrigin="-0.2363 64.9995" i:rulerOrigin="0 0" i:pageBounds="0 65 45 0"
	 xmlns="&ns_svg;" xmlns:xlink="&ns_xlink;" xmlns:a="http://ns.adobe.com/AdobeSVGViewerExtensions/3.0/"
	 width="45.73" height="65.236" viewBox="0 0 45.73 65.236" overflow="visible" enable-background="new 0 0 45.73 65.236"
	 xml:space="preserve">
<metadata>
	<variableSets  xmlns="&ns_vars;">
		<variableSet  varSetName="binding1" locked="none">
			<variables></variables>
			<v:sampleDataSets  xmlns:v="&ns_vars;" xmlns="&ns_custom;"></v:sampleDataSets>
		</variableSet>
	</variableSets>
</metadata>
<g id="图层_1" i:layer="yes" i:dimmedPercent="50" i:rgbTrio="#4F008000FFFF">
	<g>
		<g i:knockout="Off">
			<path fill="#333333" d="M1.183,47.467v12.074c0,2.493,1.622,4.515,3.619,4.515h37.307c2.001,0,3.622-2.021,3.622-4.515h-0.002
				V3.807c0-2.1-1.622-3.807-3.62-3.807H4.802c-1.998,0-3.62,1.707-3.62,3.807H1.181v43.651C1.181,47.46,1.183,47.464,1.183,47.467z
				"/>
			
				<linearGradient id="XMLID_3_" gradientUnits="userSpaceOnUse" x1="-41.7017" y1="22.0117" x2="-41.7017" y2="82.7559" gradientTransform="matrix(1 0 0 -1 64.2148 87.0107)">
				<stop  offset="0.0393" style="stop-color:#0060B6"/>
				<stop  offset="0.0899" style="stop-color:#2089B9"/>
				<stop  offset="0.0985" style="stop-color:#4FA3C2"/>
				<stop  offset="0.1071" style="stop-color:#77B9CA"/>
				<stop  offset="0.1138" style="stop-color:#8FC7CF"/>
				<stop  offset="0.118" style="stop-color:#98CCD1"/>
				<stop  offset="0.1341" style="stop-color:#9ECFD3"/>
				<stop  offset="0.156" style="stop-color:#AFD6D9"/>
				<stop  offset="0.1809" style="stop-color:#CBE1E3"/>
				<stop  offset="0.1966" style="stop-color:#E1EAEB"/>
				<a:midPointStop  offset="0.0393" style="stop-color:#0060B6"/>
				<a:midPointStop  offset="0.5" style="stop-color:#0060B6"/>
				<a:midPointStop  offset="0.0899" style="stop-color:#2089B9"/>
				<a:midPointStop  offset="0.5" style="stop-color:#2089B9"/>
				<a:midPointStop  offset="0.0985" style="stop-color:#4FA3C2"/>
				<a:midPointStop  offset="0.5" style="stop-color:#4FA3C2"/>
				<a:midPointStop  offset="0.1071" style="stop-color:#77B9CA"/>
				<a:midPointStop  offset="0.5" style="stop-color:#77B9CA"/>
				<a:midPointStop  offset="0.1138" style="stop-color:#8FC7CF"/>
				<a:midPointStop  offset="0.5" style="stop-color:#8FC7CF"/>
				<a:midPointStop  offset="0.118" style="stop-color:#98CCD1"/>
				<a:midPointStop  offset="0.5" style="stop-color:#98CCD1"/>
				<a:midPointStop  offset="0.1341" style="stop-color:#9ECFD3"/>
				<a:midPointStop  offset="0.5" style="stop-color:#9ECFD3"/>
				<a:midPointStop  offset="0.156" style="stop-color:#AFD6D9"/>
				<a:midPointStop  offset="0.5" style="stop-color:#AFD6D9"/>
				<a:midPointStop  offset="0.1809" style="stop-color:#CBE1E3"/>
				<a:midPointStop  offset="0.5" style="stop-color:#CBE1E3"/>
				<a:midPointStop  offset="0.1966" style="stop-color:#E1EAEB"/>
			</linearGradient>
			<path fill="url(#XMLID_3_)" d="M44.787,60.488c0,2.493-1.623,4.512-3.622,4.512H3.857c-1.999,0-3.619-2.021-3.619-4.512V8.763
				c0-2.489,1.623-4.508,3.619-4.508h37.308c2.001,0,3.62,2.02,3.62,4.508v51.725H44.787z"/>
			<path fill="none" stroke="#333333" stroke-width="0.4727" d="M44.787,60.488c0,2.493-1.623,4.512-3.622,4.512H3.857
				c-1.999,0-3.619-2.021-3.619-4.512V8.763c0-2.489,1.623-4.508,3.619-4.508h37.308c2.001,0,3.62,2.02,3.62,4.508v51.725H44.787z"
				/>
			<path fill="#FFFFFF" d="M0.236,4.752c0-2.101,1.624-3.807,3.621-3.807h37.308c1.999,0,3.619,1.704,3.619,3.807v43.65
				c0,2.104-1.621,3.807-3.619,3.807H3.857c-2,0-3.621-1.702-3.621-3.807V4.752L0.236,4.752z"/>
			
				<linearGradient id="XMLID_4_" gradientUnits="userSpaceOnUse" x1="2.5527" y1="25.2319" x2="46.6445" y2="25.2319" gradientTransform="matrix(-1 0 0 1 47.1094 1.3447)">
				<stop  offset="0" style="stop-color:#A2D8E0"/>
				<stop  offset="0.0899" style="stop-color:#1878AD"/>
				<stop  offset="0.2135" style="stop-color:#194D91"/>
				<stop  offset="0.6404" style="stop-color:#2B90BD"/>
				<stop  offset="0.9438" style="stop-color:#82CBDE"/>
				<stop  offset="1" style="stop-color:#1A478D"/>
				<a:midPointStop  offset="0" style="stop-color:#A2D8E0"/>
				<a:midPointStop  offset="0.5" style="stop-color:#A2D8E0"/>
				<a:midPointStop  offset="0.0899" style="stop-color:#1878AD"/>
				<a:midPointStop  offset="0.5" style="stop-color:#1878AD"/>
				<a:midPointStop  offset="0.2135" style="stop-color:#194D91"/>
				<a:midPointStop  offset="0.5" style="stop-color:#194D91"/>
				<a:midPointStop  offset="0.6404" style="stop-color:#2B90BD"/>
				<a:midPointStop  offset="0.5" style="stop-color:#2B90BD"/>
				<a:midPointStop  offset="0.9438" style="stop-color:#82CBDE"/>
				<a:midPointStop  offset="0.5" style="stop-color:#82CBDE"/>
				<a:midPointStop  offset="1" style="stop-color:#1A478D"/>
			</linearGradient>
			<path i:isolated="yes" i:knockout="Off" opacity="0.1" fill="url(#XMLID_4_)" enable-background="new    " d="M0.465,4.752
				c0-2.101,1.603-3.807,3.579-3.807h36.935c1.975,0,3.578,1.704,3.578,3.807v43.65c0,2.104-1.604,3.807-3.578,3.807H4.044
				c-1.976,0-3.579-1.702-3.579-3.807V4.752L0.465,4.752z"/>
			<path fill="none" stroke="#4D4D4D" stroke-width="0.4727" d="M0.236,48.411v12.077c0,2.49,1.623,4.512,3.621,4.512h37.308
				c1.999,0,3.619-2.019,3.619-4.512V4.752c0-2.101-1.621-3.807-3.619-3.807H3.857c-1.999,0-3.62,1.707-3.62,3.807l-0.001,43.65
				C0.236,48.405,0.236,48.411,0.236,48.411z"/>
		</g>
		<g>
			<path i:knockout="Off" d="M23.192,6.05c0.548,0.631-0.024,1.704,0.488,1.62c0.155-0.452,0.155-0.452,0.238-1.024
				c0.108-0.06,0.108-0.06,0.417-0.06c0.166,0.25-0.071,0.763-0.132,0.988c0.477,0,0.716-0.5,1.144-0.5
				c0.036,0.036,0.061,0.071,0.084,0.107c-0.094,0.179-0.309,0.263-0.356,0.428c0.155,0.06,0.297,0.096,0.428,0.131
				c0,0.06,0,0.096,0,0.131c-0.107,0.084-0.107,0.084-0.393,0.131c0.013,0.096,0.024,0.191,0.024,0.273
				c0.381,0.083,0.904,0.203,1.096,0.358c-0.012,0.06-0.036,0.119-0.071,0.166c-0.155,0.024-0.155,0.024-0.728-0.034
				c0,0.404,0.155,0.476,0.356,0.642c2.086,0.691,2.574,5.708,2.944,7.424c0.369,0.572,0.773,0.524,1.191,0.75
				c-0.536,2.324-3.027,2.86-3.992,4.408c1,0,1.871-0.952,2.944-0.285c1.512,1.883-1.454,4.05-2.383,5.624
				c6.469,0.583,7.017,4.896,1.285,7.553c-0.977,0.357-0.977,0.357-2.703,0.846c-0.514,1.312-1.084,2.038-2.228,2.883
				c-1.323,0.584-0.562,0.454-1.311,1.323c-2.86,1.562-4.707-1.728-5.458-4.158c-1.739-0.536-6.517-2.311-6.314-4.705
				c1.692-0.966,1.941-2.277,4.206-2.825c-0.012-0.048-0.023-0.083-0.036-0.131c-2.217-1.441-5.659-4.933-0.763-5.337
				c-0.381-1.526-3.324-2.098-3.621-3.61c1.048-0.596,0.476-2.526,0.345-3.562c0.179-5.327,3.55-8.293,8.709-9.02
				c1.598,0.036,3.134,0.095,4.492,0.811c0-0.382-0.107-0.834-0.107-1.239C23.145,6.026,23.145,6.026,23.192,6.05z"/>
			<path i:knockout="Off" fill="#797284" d="M19.521,7.074c2.454,0.155,3.671,0.906,5.518,2.205
				c1.775,1.691,2.358,2.812,2.979,5.206c0.105,1.501-0.072,2.693,1.179,3.312c0,0.583-2.418,3.098-2.966,3.169
				c-0.071-2.323-0.715-3.884-1.858-6.028c-1.146-0.334-1.146-0.334-1.62-0.418c-0.012-0.452,0.084-1.464-0.621-1.596
				c-0.345,0.512-0.57,1-0.929,1.418c-2.538,0-6.147-0.978-8.638,0.357c-0.739,1.12-0.441,4.944-0.394,6.195
				c-0.643-0.167-1.668-0.917-2.204-1.549c0.941-1.048,0.441-2.716,0.322-4.098c0-2.383,1.108-4.777,3.001-6.255
				C15.436,7.669,17.187,7.122,19.521,7.074z"/>
			<path i:knockout="Off" d="M30.364,21.443c0.655,0.382,0.381,1.667-0.201,1.775C30.271,22.933,30.364,21.443,30.364,21.443z"/>
			<path i:knockout="Off" d="M31.83,21.658c0.189,0.512-0.096,1.596-0.619,1.692C31.271,23.194,31.687,21.574,31.83,21.658z"/>
			<path i:knockout="Off" fill="#FB6747" d="M24.288,23.505c1.703,1.847,1.536,2.858,0.847,4.61c0.096,0,0.179,0,0.261-0.012
				c1.217-0.737,5.445,0.418,5.768,1.729c-1.538,0.166-1.954,0.964-2.682,2.239c-0.048,0.012-0.083,0.012-0.131,0.012
				c-0.12-0.428-0.237-0.846-0.369-1.275c0.369-0.369-0.273-1.525-0.954-1.607c-0.165,0.153,1.086,2.572,1.086,3.275
				c-0.656,0.643-2.349,0.93-3.337,0.87c-1.68-1.798-3.17-1.382-4.849,0.369c-0.06,0.012-0.107,0.023-0.18,0.048
				c-0.048-0.834-0.273-1.632,0.263-2.478c0.072,0.131,0.072,0.131,0.12,1.06c0.035,0.023,0.06,0.036,0.071,0.047
				c0.119-0.417,0.119-0.857-0.096-1.381c-0.036,0-0.083,0-0.131,0c-0.524,0.785-0.442,1.787-0.454,2.62
				c-0.345-0.033-2.096-0.703-2.419-0.285c-0.582,0.132-1.215,0.477-1.809,0.417c0.404-0.703-0.323-2.931,0.976-3.11
				c0.228,0.334,0.191,0.477,0.107,0.727c0.072,0.036,0.072,0.036,0.191-0.047c0.024-0.417,0.142-0.62-0.251-1.012
				c-2.025,0,0.263,5.004-2.478,2.632c-1.061-1.18-1.609-1.917-3.384-2.013c0.666-0.942,3.025-1.847,4.037-2.406
				c0.538,0.094,0.801,0.189,1.062,0.189c0.215-0.321,0.215-0.417-0.119-0.737c-0.082,0.082-0.047,0.369-0.047,0.44
				c-1.133-0.251-0.989-3.598-0.418-4.409c2.646,0,3.11,3.706,6.59,1.478C22.155,24.696,23.215,23.505,24.288,23.505L24.288,23.505z
				 M27.422,29.641c-0.012,0.036-0.036,0.047-0.072,0.06c0.203,0.345,0.406,0.691,0.584,1.012
				C28.077,30.569,27.648,29.938,27.422,29.641z"/>
			<path i:knockout="Off" d="M23.453,29.593c0.775,0.239,1.562,0.679,1.454,1.478c-0.596-0.739-0.834-1.43-2.071-1.014
				C22.953,29.748,23.133,29.593,23.453,29.593z"/>
			<path i:knockout="Off" fill="#FF6600" d="M31.031,30.176c0.383,2.146-4.337,4.849-5.896,5.159c0,0-0.132-1.215-0.096-1.514
				c1.263-0.143,2.418-0.5,3.395-1.131C29.161,31.844,29.685,30.176,31.031,30.176z"/>
			<path i:knockout="Off" fill="#FF6600" d="M10.885,31.368c2.097,0.679,2.835,3.038,4.932,2.788
				c0.048,0.369,0.071,0.738,0.095,1.097c-1.311-0.239-5.658-2.193-5.885-3.837C10.229,31.368,10.229,31.368,10.885,31.368z"/>
			<path i:knockout="Off" d="M25.527,31.666c0.048,0.048,0.048,0.048,0.477,0.072c-0.168,0.166-0.144,0.189-0.429,0.189
				c-0.107-0.189-0.107-0.189-0.084-0.285C25.503,31.654,25.516,31.666,25.527,31.666z"/>
			<path i:knockout="Off" fill="#FEE393" d="M17.641,33.655c2.048,0.083,3.072,1.633,3.586,3.312
				c0.167,2.275,0.334,3.479-2.407,2.467c-1.729-1.49-2.097-2.705-2.657-5.052C16.234,33.714,17.079,33.691,17.641,33.655
				L17.641,33.655z M22.966,32.595c-2.823,0.107-3.206,1.036-1.775,3.05c0.536,1.06,0.239,2.062,0.68,2.812
				C24.454,38.266,25.956,33.642,22.966,32.595L22.966,32.595z M28.171,21.883c2.265,0.895-1.702,4.944-2.072,5.04
				c0-1.381-0.5-2.55-1.43-3.741C25.527,22.479,27.087,21.883,28.171,21.883L28.171,21.883z M13.493,23.17
				c0.597,0.095,0.727,0.37,1.096,0.537c0.012,0.082,0.023,0.154,0.023,0.226c-1,1.55-0.119,2.55-0.32,3.873
				c-1.216-0.823-3.134-2.253-3.24-4.004C11.766,23.086,12.66,23.17,13.493,23.17L13.493,23.17z M21.643,24.588
				c-0.739,1.502-2.739,1.395-3.919,0.333C17.771,24.887,20.976,24.744,21.643,24.588L21.643,24.588z M22.095,13.711
				c-0.023-0.012-0.035-0.024-0.048-0.06c-0.201,0.142-0.51,0.917-0.845,1.179c-2.705-0.311-5.159-0.512-7.946,0.012
				c-1.109,5.397-1.502,7.684,3.979,9.507c6.267,0.524,11.319-2.524,6.875-8.947C22.047,14.592,22.87,15.76,22.095,13.711z"/>
			<path i:knockout="Off" d="M23.418,39.565c0.454,0.144,0.799,0.297,1.084,0.452c0,0.883-0.595,1.001-1.31,1.239
				c-0.012-0.036-0.024-0.083-0.048-0.131c0.333-0.178,1.084-0.393,1.084-0.846c-0.237-0.203-0.655-0.311-1.084-0.441
				c0.036-0.07,0.059-0.166,0.07-0.262C23.286,39.577,23.346,39.577,23.418,39.565z"/>
			<path i:knockout="Off" d="M17.676,39.91c0.048,0.024,0.107,0.048,0.144,0.06c0.012,0.072,0.024,0.12,0.034,0.18
				c-0.476,0-1.155,0.144-1.084,0.715c0.656,0.417,2.622,0.774,2.883,0.237c0.669,0,1.323-0.285,1.801-0.237c0,0.048,0,0.084,0,0.13
				c-1.466,0.525-2.669,0.562-4.386,0.418C15.936,40.923,16.698,39.91,17.676,39.91z"/>
			<path i:knockout="Off" d="M22.227,41.149c1.43,0.644-3.108,1.883-2.514,0.93c0.846,0.108,1.8-0.071,2.442-0.523
				c0.012-0.036,0.012-0.071,0.012-0.132c-0.429-0.012-0.737,0.072-0.917,0.061C21.405,41.149,21.965,41.149,22.227,41.149z"/>
			<path i:knockout="Off" d="M18.2,41.948c0.046,0.023,0.07,0.048,0.094,0.06c-0.272,0.107-0.32,0.132-0.368,0.345
				c1.204,0.858,3.146,0.347,4.372,0.49c-1.048,0.261-3.837,0.631-4.634-0.395C17.724,42.019,17.878,42.019,18.2,41.948z"/>
			<path i:knockout="Off" d="M24.073,42.055c-0.059,0.81-0.607,0.904-1.417,0.821c0.582-0.202,1.12-0.202,1.287-0.821
				C23.991,42.055,24.039,42.055,24.073,42.055z"/>
			<path i:knockout="Off" d="M21.106,43.735c0.155,0.023,0.287,0.048,0.418,0.071c0,0.596-0.43,0.429-0.489,0.799
				c-0.119,0-0.56-0.096-0.358-0.418c0.299,0,0.395-0.012,0.585-0.118c0-0.035,0-0.071,0-0.131c-0.227-0.06-0.227-0.06-0.585-0.036
				C20.713,43.651,20.964,43.71,21.106,43.735z"/>
			<path i:knockout="Off" d="M16.676,16.689c0.439,0.154,0.439,0.477,0.737,0.56c1.847,0,1.847,0,2.431,0.048
				c0.395-0.954,1.144-0.632,1.358,0.107c1.682,0.333,1.682,0.333,1.858,0.417c0.013,0.06,0.024,0.107,0.024,0.155
				c-0.477,0-1.098-0.191-1.703-0.287c-0.49,0.119-1.358,2.133-1.741-0.072c-0.119-0.06-0.119-0.06-0.952-0.131
				c0,0.06,0,0.096,0,0.131c-0.263-0.012-1.155-0.166-1.431,0.048c-0.215,1.036-1.023,1.072-1.441,0.024
				c-0.857,0.024-1.786,0.322-2.716,0.322c-0.012-0.024-0.024-0.048-0.06-0.071c0.272-0.395,2.348-0.572,2.835-0.62
				C16.114,16.975,16.246,16.702,16.676,16.689z"/>
			<path i:knockout="Off" d="M14.852,19.144c2.514,1.167-0.179,4.289-1.514,1.823C13.278,19.751,13.577,19.144,14.852,19.144z"/>
			<path i:knockout="Off" fill="#FA676B" d="M14.815,19.369c1.598,0.632,0.691,2.896-0.881,2.122
				C13.029,20.584,13.457,19.369,14.815,19.369z"/>
			<path i:knockout="Off" d="M23.097,19.537c1.333,0.394,1.168,1.55,0.644,2.406C21.69,23.433,20.416,19.537,23.097,19.537z"/>
			<path i:knockout="Off" d="M18.557,19.632c0.311,0.179,0.479,0.274,0.323,0.5c-0.108-0.024-0.155-0.036-0.323-0.273
				c-0.071,0.012-0.167,0.024-0.263,0.036c-0.023,0.06-0.048,0.094-0.094,0.13c-0.036,0.024-0.071,0.024-0.132,0.024
				c0.024-0.083,0.061-0.178,0.084-0.273C18.461,19.632,18.461,19.632,18.557,19.632z"/>
			<path i:knockout="Off" fill="#FA676B" d="M22.836,19.764c1.249,0.131,1.333,1.334,0.665,2.096
				C21.846,22.813,20.856,20.001,22.836,19.764z"/>
			<path i:knockout="Off" d="M18.819,21.18c0.263,0.251-0.203,0.799-0.298,0.93c-0.072,0-0.144,0-0.228,0
				c-0.226-0.227-0.416-0.333-0.393-0.847C18.211,21.228,18.521,21.204,18.819,21.18z"/>
			<path i:knockout="Off" fill="#FF9900" d="M18.652,21.419c-0.012,0.096-0.036,0.191-0.071,0.263
				c-0.06,0.024-0.132,0.06-0.191,0.072c-0.071-0.167-0.071-0.167-0.06-0.311C18.438,21.443,18.545,21.431,18.652,21.419z"/>
			<path i:knockout="Off" d="M10.134,23.004c-0.179,0.738-0.023,1.227,0,1.799c-0.071-0.012-0.167-0.023-0.263-0.047
				C9.741,24.302,9.443,23.266,10.134,23.004z"/>
			<path i:knockout="Off" d="M9.205,23.313c0,0.739,0.452,1.275,0.5,1.715C9.181,24.933,8.716,23.897,9.205,23.313z"/>
			<path i:knockout="Off" fill="#CABDDC" d="M26.326,10.672c0.227,0.287,0.428,0.583,0.594,0.882
				c-0.331-0.048-0.618-0.083-0.821-0.083c-1.286-0.024-2.598,0.691-3.956,0.691c-1.203,0-2.119-0.369-3.203-0.846
				c-0.895-0.393-2.526,0.322-3.396,0.691c-1.453,0.572-2.241,0.191-3.277-0.715c-0.368,0.024-0.678,0.036-0.988,0.095
				c0.18-0.321,0.37-0.631,0.584-0.917c0.333-0.036,0.632-0.024,0.751,0.048c0.929,0.631,1.263,1.299,2.562,0.773
				c1.287-0.572,2.8-1.227,4.193-0.666c0.931,0.393,1.728,0.726,2.764,0.726c1.347,0,2.646-0.715,3.956-0.691
				C26.159,10.66,26.242,10.66,26.326,10.672z"/>
		</g>
		<g>
			<path i:knockout="Off" d="M27.32,6.038c1.233,0.346,2.508,1.717,3.02,2.701c1.385,3.864,4.364,7.659,1.662,11.44
				c1.511,2.91,1.469,6.787,5.43,6.176c0.831-0.373,0.913-0.469,1.107-0.51c0.638,0.415-0.706,1.591-1.079,1.813
				c0,0.665,1.994-0.152,2.132-0.124c0.042,0.069-1.481,4.182-1.675,4.515c-0.984,0.747-1.759,1.371-3.117,1.371
				c-0.014,0.026-0.027,0.057-0.056,0.068c0.471,0.762,1.233,1.039,1.233,1.788c-1.33,1.231-1.51,1.37-3.352,1.37
				c-0.525,0.36-0.347,0.595-1.149,0.735c-1.066,0-1.233-0.126-2.078,0.622c1.065,1.454,3.795,4.792,0.596,5.748
				c-4.833-0.181-4.433-4.903-9.238-0.223c-3.31,2.562-5.512,0.194-3.713-3.407c0.418-0.678,0.875-1.26,1.081-2.021
				c-1.564,0.29-1.081-0.928-2.77-0.443c-1.787,0.79-1.191,0.333-2.853-0.498c-2.688,0.124-1.481,0.831-2.562-1.33
				c-1.025-1.024-3.753,1.8-2.701-2.021c-0.734,0.179-1.219,0.249-2.078,0.208c-0.097-0.111-0.097-0.111-0.11-0.305
				c0.637-0.638,3.213-2.176,3.019-3.158c-0.567-0.069-4.861-0.998-3.227-2.425c8.478-0.525,5.845-6.87,10.734-11.495
				c0-3.545-8.159,1.621-9.543,2.009c-1.398-0.152-2.451-2.313-1.316-3.449c2.202-1.398,7.617-5.928,10.871-5.277
				c1.843,0.817,3.643,2.729,4.64,4.266c0.666,0,1.484-0.277,2.052-0.346C23.388,10.511,22.833,6.232,27.32,6.038z"/>
			<path i:knockout="Off" fill="#FFFFFF" d="M27.183,6.496c3.434,2.063,4.308,5.789,5.429,9.307
				c0.263,1.925-0.027,2.895-1.245,4.237c-3.103,1.33-2.577-3.684-3.325-5.678c-0.997-1.412-1.994-2.838-2.991-4.265
				c-0.041,0.014-0.098,0.028-0.152,0.028c0.097,0.582,0.428,0.928,0.692,1.246c0,1.884-2.312,4.405-0.858,6.067
				c0.499-0.056,0.567-0.181,0.929-0.443c0.206,1.537-2.758,1.025-3.256-0.638C22.486,13.42,23.055,6.496,27.183,6.496L27.183,6.496
				z M15.272,10.373c1.965,0.596,5.706,4.571,5.706,6.44c-1.912,4.266-4.503-1.121-6.954-2.008c-2.076,0-5.332,2.064-7.257,3.144
				c-1.412,0.374-2.728-0.928-1.717-2.341C7.932,13.573,11.672,10.373,15.272,10.373z"/>
			<path i:knockout="Off" fill="#FCCCB7" d="M25.881,11.745c0.858,1.384,0.636,1.052,0.221,2.576
				c-0.582,1.08,0.056,2.701-1.328,2.839c-0.569-0.775,0.54-4.944,1.065-5.47C25.853,11.717,25.866,11.73,25.881,11.745z"/>
			<path i:knockout="Off" d="M15.078,13.199c0.998,0.401,6.925,4.695,3.933,5.027c-1.979-0.789-2.741-3.601-5.317-3.601
				c-0.624,0.167-3.256,1.289-3.712,0.983C9.981,14.611,14.317,13.199,15.078,13.199z"/>
			<path i:knockout="Off" fill="#FFFFFF" d="M26.905,13.267c0.152,0.306-0.582,1.87-0.692,2.203c-0.042,0-0.083,0-0.138,0
				c0.347-1.289,0.347-1.289,0.692-2.23C26.821,13.254,26.863,13.267,26.905,13.267z"/>
			<path i:knockout="Off" fill="#FCCCB7" d="M15.132,13.517c1.081,0.43,5.028,3.338,4.156,4.432
				c-1.827-0.194-2.756-3.31-5.083-3.643c-1.039,0.055-3.157,1.094-3.739,0.984C11.407,14.514,13.914,13.517,15.132,13.517
				L15.132,13.517z M17.709,18.046c-0.9-0.596-2.535,3.172-2.672,3.615c0.388-0.097,4.583-2.881,4.611-2.951
				C18.485,18.835,18.775,18.503,17.709,18.046L17.709,18.046z M22.1,16.121c-1.149,0.125-1.095,1.44-2.036,2.451
				c2.396,0.387,4.391-0.319,6.98,0.484c0.858,0.5,1.719,0.998,2.575,1.497c-0.026-0.152-0.553-0.624-0.803-0.929
				c-0.332-1.399-1.204-2.161-2.604-2.853c-0.027,0.027-0.069,0.055-0.111,0.083C25.506,19.153,22.64,18.281,22.1,16.121z"/>
			<path i:knockout="Off" fill="#FFFFFF" d="M27.32,14.251c0.264,0.443,0.485,0.831,0.556,1.177
				c-0.278-0.138-0.567-0.277-0.86-0.416c0.139-0.595,0.139-0.595,0.263-0.789C27.293,14.237,27.309,14.251,27.32,14.251z"/>
			<path i:knockout="Off" fill="#A298B0" d="M31.56,20.373c1.177,2.77,2.174,7.771,6.189,6.316c0.016,0.054,0.027,0.096,0.027,0.137
				c-0.206,0.32-0.607,0.374-1.038,0.402c-0.554,0.957,1.566,1.136,1.939,1.121c-0.319,2.188-0.817,4.364-3.463,4.598
				c-0.609-0.179-0.747-0.276-0.928-0.276c-0.608,0.611,0.817,1.995,1.108,2.188c0.013,0.082,0.028,0.166,0.028,0.235
				c-1.441,1.08-0.914,1.039-3.034,1.039c-0.249,0.083-0.346,0.582-0.776,0.791c-0.11,0-1.48-0.183-1.758-0.042
				c-1.344,1.801-3.434-1.621,0.235-3.962c1.675-0.609,3.075-1.081,4.75-1.357c1.856-0.609,0.152-1.121,0.956-2.381
				c1.427-3.713-2.242-1.191-4.003-0.499c0.611-1.718,2.896-4.792-0.706-5.264c-0.277-0.872-0.734-1.773-1.065-2.771
				C30.438,20.637,31.393,20.331,31.56,20.373L31.56,20.373z M23.997,18.739c-3.947,0-6.939,0.859-9.626,4.209
				c-0.94,2.009-0.816,4.807,1.815,4.986c-0.305-1.315-0.167-2.866,0.124-4.237c0.069-0.015,0.139-0.028,0.207-0.057
				c0.54,1.648,0,2.439,1.288,4.004c1.357,0,2.328-2.868,3.837-3.117c-0.028,0.278-0.028,0.278-0.61,2.355
				c1.012,0.165,2.95-1.039,3.312-1.94c0.041-0.221-0.016-0.665,0.291-0.665c0.317,0.651-0.236,1.829-0.417,2.411
				c1.317-0.264,2.146-0.639,2.314-2.023c0.083,0,0.165-0.013,0.235-0.028c0.152,0.415,0.305,0.818,0.442,1.218
				c0.068,0.015,0.139,0.015,0.193,0.015c0.583-1.108,0.209-2.23-0.11-3.518c0.069-0.042,0.069-0.042,0.236,0.042
				c0.624,1.772,1.994,2.81,2.367,4.21c0.056,0,0.111,0,0.168,0C32.861,22.173,28.041,19.183,23.997,18.739L23.997,18.739z
				 M16.145,16.882c0.401,0.277,0.788,0.541,1.177,0.804c0,0.069,0,0.138,0,0.193c-1.744,1.136-3.614,5.026-3.822,7.104
				c-1.842,1.717-0.776,2.937-0.221,4.891c-0.902-0.194-1.553-1.027-2.632-1.123c-2.286,0.415,0.305,2.589,0.305,3.116
				c-0.292,0.276-0.582,0.554-0.873,0.832c0.166,1.205,2.603,0.457,3.395,0.442c1.701,0.361,1.701,0.361,4.292,1.013
				c0.554,1.107,0.512,1.773,1.314,2.7c0,0.733-1.107,0.9-1.729,0.9c-1.538-1.648-1.606,0.068-3.325-0.139
				c-1.606-1.19-1.093-0.748-3.282-0.804c-1.122-2.465-0.415-1.315-3.268-1.482c0-0.65,0.29-1.328,0.29-2.132
				c-0.138-0.11-1.149,0.278-1.412,0.331c0-0.359,2.659-2.352,2.659-3.379c-0.596-0.442-3.753,0.112-3.961-1.564
				c3.338-0.318,4.487-0.651,6.412-3.281C11.824,24.542,14.732,16.882,16.145,16.882L16.145,16.882z M26.669,15.359
				c0.651,0.36,1.165,0.734,1.648,1.081c0.07,0.526,0.139,1.053,0.194,1.579c-0.693-0.388-1.344-1.039-2.258-1.524
				c0-0.304,0.126-0.858,0.374-1.164C26.643,15.345,26.657,15.359,26.669,15.359z"/>
			<path i:knockout="Off" fill="#A298B0" d="M22.334,14.361c-0.068,0.513-0.206,0.97-0.234,1.441
				c-0.318,0.055-0.638,0.097-0.969,0.139c-0.099-0.278-0.582-0.873-0.514-1.219C21.255,14.5,21.753,14.431,22.334,14.361z"/>
			<path i:knockout="Off" fill="#FDCC8A" d="M31.613,23.766c2.452,1.052,0.818,4.902-1.302,5.222
				c-0.179-2.093,0.567-2.965,0.818-4.973c0.042-0.07,0.068-0.152,0.096-0.234C31.366,23.781,31.49,23.781,31.613,23.766
				L31.613,23.766z M13.473,25.498c0.082,1.302,0.65,1.786,1.591,2.437c0.028,0.803,0.139,1.58,0.249,2.314
				c-1.178-0.125-1.44-0.083-2.118-1.289C12.959,28.239,12.322,25.955,13.473,25.498L13.473,25.498z M28.193,24.554
				c-0.04-0.027-0.04-0.027-0.112,0.015c-0.11,0.693-0.234,1.69-0.856,1.938c-0.042-0.096-0.223-0.843-0.514-0.94
				c-0.678,0.872-1.743,1.454-2.908,1.454c-0.055-0.332,0.291-0.651,0.291-1.108c-0.61,0.402-2.797,1.58-3.393,1.287
				c0-0.526,0.346-1.302,0.43-1.979c-0.708,0.277-1.857,1.633-2.314,2.355c0.832,0.415,3.061,0.815,2.591,2.242
				c-0.082,0-0.166-0.015-0.25-0.027c-0.083-0.14-0.165-0.292-0.263-0.445c-0.042,0-0.083,0-0.139,0
				c-0.885,1.773-3.795,1.941-3.795-0.623c-0.014-0.013-0.04-0.028-0.068-0.04c-0.265,0.179-0.443,0.415-0.693,0.594
				c-0.165-0.125-0.207-0.054-0.264-0.457c0.141-0.125,0.277-0.248,0.416-0.373c0-0.042,0-0.084-0.013-0.139
				c-0.069,0-0.818-0.181-0.956-0.042c0,4.446,2.825,5.152,6.482,5.235c0.068-0.319-0.389-0.514-0.389-1.039
				c0.789-0.401,1.426-0.401,2.147-0.208c0.096,0.512-0.375,0.79-0.375,1.136c1.842-0.099,3.379-0.597,5.083-1.136
				C30.949,30.608,30.354,26.425,28.193,24.554L28.193,24.554z M10.923,29.125c-1.772,0-0.318,1.731,0.263,2.272
				c0.304,0.609-0.359,0.997-0.733,1.344c0.014,0.068,0.014,0.137,0.014,0.206c0.845,0.361,2.091-0.138,2.949-0.138
				c2.771,0.651,3.325,0.831,4.557,1.081c0.152,0.305,0.293,0.595,0.43,0.887c0.084,0.013,1.412-0.914,1.441-1.066
				c-1.496-0.139-2.438-0.486-3.63-1.704c-0.734-1.344-0.734-1.344-0.858-1.454C13.236,30.442,12.791,29.803,10.923,29.125
				L10.923,29.125z M35.713,27.464c-1.591,0.139-3.434,1.551-5.373,1.855c-0.873,4.377-5.331,4.279-9.209,4.514
				c-0.015,0.029-0.028,0.057-0.042,0.07c2.577,1.593,1.759,1.149,4.377-0.264c1.371-0.207,1.564,0.486,2.451,0.65
				c1.854-1.979,4.528-2.686,7.104-3.087c0.734-0.292,0.556-0.333,0.125-1.191C35.146,29.209,36.447,28.349,35.713,27.464
				L35.713,27.464z M27.917,36.964c0.72,1.039,2.242,2.271,2.242,3.352c-1.785,3.38-2.562,1.994-5.123,0.776
				C25.036,40.746,27.335,37.077,27.917,36.964L27.917,36.964z M19.468,37.201c0.498,0.596,3.172,3.53,3.172,3.892
				c-0.721,0.692-1.44,1.386-2.16,2.063c-1.136-0.084-2.965-0.872-3.296-2.244c0.525-1.011,1.426-2.838,2.146-3.711
				C19.384,37.201,19.426,37.201,19.468,37.201L19.468,37.201z M16.422,25.733c0.234,0.581,1.149,1.883,1.108,2.117
				c-0.251,0.112-0.499,0.25-0.832,0.25c-0.458-0.555-0.347-1.524-0.347-2.382C16.38,25.733,16.407,25.733,16.422,25.733z"/>
			<path i:knockout="Off" d="M27.959,26.674c0.705,0.194,0.982,0.415,1.384,0.902c-0.042,0.11-0.097,0.221-0.152,0.316
				c-0.124,0.015-0.249,0.028-0.374,0.042c0,2.327-2.922,3.532-3.849,1.066c-0.07,0.042-0.07,0.042-0.168,0.319
				c-0.152,0-0.083,0.069-0.346-0.083C24.454,27.561,26.615,26.674,27.959,26.674z"/>
			<path i:knockout="Off" fill="#FFFFFF" d="M27.736,27.325c0.457,0.084,0.457,0.084,0.693,0.181
				c0.013,0.07,0.026,0.139,0.026,0.208c-0.72,0.402-1.037,0.32-1.745-0.236C27.016,27.27,27.445,27.325,27.736,27.325z"/>
			<path i:knockout="Off" fill="#FFFFFF" d="M26.394,27.603c0.388,0.388,0.69,0.567,1.107,0.665
				c-0.166,1.011-1.648,1.079-1.496-0.512C26.213,27.629,26.228,27.603,26.394,27.603z"/>
			<path i:knockout="Off" fill="#FFFFFF" d="M28.512,28.033c0,2.436-3.24,2.977-3.24,0.373c0.124-0.11,0.234-0.221,0.347-0.333
				c0.471,0.665,0.194,1.08,1.01,1.191c0.639-0.208,1.012-0.443,1.219-1.052C28.069,28.156,28.291,28.101,28.512,28.033z"/>
			<path i:knockout="Off" fill="#FFFFFF" d="M18.816,28.227c0.209,0.429,0.68,0.803,0.68,1.009c-0.347,0.263-0.347,0.251-0.9,0.251
				c-0.291-0.305-0.567-0.763-0.207-1.275C18.539,28.227,18.68,28.227,18.816,28.227z"/>
			<path i:knockout="Off" fill="#FFFFFF" d="M17.986,28.212c-0.415,2.562,1.538,1.191,2.451,0.997c0,1.662-4.016,1.551-2.977-0.761
				C17.682,28.295,17.819,28.239,17.986,28.212z"/>
			<path i:knockout="Off" fill="#FFFFFF" d="M19.468,28.295c0.526,0.137,0.887,0.236,0.97,0.609c-0.498,0-0.871,0.166-1.246-0.541
				c0.014-0.015,0.028-0.042,0.04-0.068C19.315,28.295,19.399,28.295,19.468,28.295z"/>
			<path i:knockout="Off" d="M21.823,30.789c0.042,0.331-0.582,0.51-0.929,0.734c-0.139-0.042-0.139-0.042-0.181-0.112
				C20.95,31.106,21.49,30.789,21.823,30.789z"/>
			<path i:knockout="Off" d="M22.334,30.968c0.042,0.027,0.084,0.055,0.112,0.068c0,0.057,0,0.099,0,0.141
				c-0.25,0.137-0.733,0.581-1.108,0.499c0-0.042,0-0.083,0-0.141C21.643,31.314,21.989,31.036,22.334,30.968z"/>
			<path i:knockout="Off" fill="#FD6624" d="M22.833,32.395c0.167,0.042,0.319,0.069,0.472,0.096
				c0.057,0.361-0.29,0.679-0.443,0.902c-0.14,0.014-0.292,0.027-0.443,0.027c-0.18-0.195-0.567-0.416-0.567-0.859
				C21.961,32.49,22.516,32.395,22.833,32.395z"/>
			<path i:knockout="Off" fill="#FB6747" d="M26.296,33.833c0.788,0.223,1.165,0.625,1.648,1.025
				c-0.373,0.942-0.373,1.274-0.457,2.035c-0.997,1.275-1.884,2.688-2.798,4.018c-0.319,0.042-1.232-0.014-1.717-0.04
				c-0.692-0.846-4.35-4.503-4.445-5.596c1.55-2.729,3.268,0.138,4.64-0.015C24.191,34.611,25.12,33.904,26.296,33.833
				L26.296,33.833z M30.506,40.413c1.013,2.259-0.068,3.478-2.451,2.396c1.095-0.818,1.677-1.081,2.313-2.425
				C30.422,40.4,30.464,40.413,30.506,40.413L30.506,40.413z M17.113,41.591c0.942,1.232,1.593,1.396,2.868,1.813
				c0.013,0.056,0.026,0.097,0.026,0.139C16.339,45.926,17.003,41.48,17.113,41.591z"/>
			<path i:knockout="Off" fill="#797284" d="M31.56,20.373c1.177,2.77,2.174,7.771,6.189,6.316c0.016,0.054,0.027,0.096,0.027,0.137
				c-0.206,0.32-0.607,0.374-1.038,0.402c-0.554,0.957,1.566,1.136,1.939,1.121c-0.068,0.458-0.139,0.902-0.235,1.344
				c-0.513-0.221-0.956-0.374-1.163-0.374l-0.084-0.179c-0.097,0-0.443-0.083-0.443-0.167h-0.788c0,0-0.057,0.057-0.141,0.139
				c1.346-3.601-2.284-1.121-4.029-0.428c0.611-1.718,2.896-4.792-0.706-5.264c-0.209-0.636-0.498-1.287-0.776-1.979
				c0.152-0.403,0.305-0.734,0.472-0.929C31.13,20.428,31.461,20.344,31.56,20.373L31.56,20.373z M30.299,32.852
				c1.302-0.472,2.438-0.86,3.697-1.123c-0.263,0.403-0.525,0.873-0.94,1.025C32.251,33.073,31.157,32.878,30.299,32.852
				L30.299,32.852z M12.849,22.049c0.013,0.442,0.055,0.969,0.151,1.024h0.098c0,0,0.166-0.263,0.263-0.263
				c0-0.083,0.181-0.263,0.181-0.346c0.347,0,0.525-0.887,0.955-0.887c0.027-0.013,0.069-0.055,0.138-0.095
				c-0.609,1.26-1.038,2.562-1.135,3.502c-1.842,1.717-0.776,2.937-0.221,4.891c-0.902-0.194-1.553-1.027-2.632-1.123
				c-2.286,0.415,0.305,2.589,0.305,3.116c-0.292,0.276-0.582,0.554-0.873,0.832c0.166,1.205,2.603,0.457,3.395,0.442
				c1.701,0.361,1.701,0.361,4.292,1.013c0.123,0.262,0.222,0.483,0.306,0.705c-0.943,0.029-1.206,0.79-2.078-0.082h-0.084h-0.083
				l-0.263-0.264c-0.442,0-0.969,0.443-1.329,0.79H13.18c-0.18-0.18-0.525-0.526-0.525-0.708c-0.263-0.082-0.443-0.609-0.706-0.705
				c-0.61-0.262-1.76,0.359-2.369,0.359c-0.097-0.359-0.525-1.495-0.789-1.592c0-0.209-0.263-0.748-0.554-1.165
				c0.429-0.484,0.775-0.982,0.775-1.344c-0.596-0.442-3.753,0.112-3.961-1.564c3.338-0.318,4.487-0.651,6.412-3.281
				C11.602,24.999,12.141,23.614,12.849,22.049L12.849,22.049z M15.037,22.173c0,0-0.016,0.014-0.028,0.028h0.013
				C15.037,22.187,15.037,22.173,15.037,22.173L15.037,22.173z M14.953,22.27c-0.194,0.208-0.388,0.443-0.582,0.678
				c-0.94,2.009-0.816,4.807,1.815,4.986c-0.305-1.315-0.167-2.866,0.124-4.237c0.069-0.015,0.139-0.028,0.207-0.057
				c0.54,1.648,0,2.439,1.288,4.004c1.357,0,2.328-2.868,3.837-3.117c-0.028,0.278-0.028,0.278-0.61,2.355
				c1.012,0.165,2.95-1.039,3.312-1.94c0.041-0.221-0.016-0.665,0.291-0.665c0.317,0.651-0.236,1.829-0.417,2.411
				c1.317-0.264,2.146-0.639,2.314-2.023c0.083,0,0.165-0.013,0.235-0.028c0.152,0.415,0.305,0.818,0.442,1.218
				c0.068,0.015,0.139,0.015,0.193,0.015c0.583-1.108,0.209-2.23-0.11-3.518c0.069-0.042,0.069-0.042,0.236,0.042
				c0.624,1.772,1.994,2.81,2.367,4.21c0.056,0,0.111,0,0.168,0c1.176-1.869,0.997-3.49,0.095-4.765
				c-0.304,0.928-0.525,1.967-0.525,2.203c-0.443-0.445-2.119-2.286-2.562-2.286c0,0.707-0.264,1.578-0.264,2.286
				c0-0.083-0.083-0.181-0.166-0.181c-0.098-0.082-0.443-0.692-0.525-0.692c0,0.428-0.708,0.79-0.708,1.231
				c-0.179,0-0.179-0.179-0.179-0.179h-0.084c-0.097-0.097-0.971-1.052-0.971-1.233l-1.577,2.105
				c-0.181-0.166-0.886-2.021-0.886-2.368c-0.61,0.263-1.233,1.136-1.76,1.675l-0.082-0.096c0-0.181-0.361-0.525-0.361-0.708
				c-0.347,0-1.233,1.149-1.315,1.414h-0.082h-0.099c0-0.79-1.315-1.677-1.315-2.646c-0.347,0-1.578,1.855-1.578,2.299l-0.099,0.082
				c-0.263-0.525-0.165-1.496-0.165-2.2C14.995,22.548,14.968,22.38,14.953,22.27z"/>
			<path i:knockout="Off" fill="#FFFFCC" d="M27.183,6.496c3.434,2.063,4.308,5.789,5.429,9.307
				c0.263,1.925-0.027,2.895-1.245,4.237c-0.209,0.083-0.403,0.152-0.569,0.181c-0.194-2.576,0.79-7.964-3.254-10.802
				c-1.109-0.693-2.008-0.762-2.908,0.415c-1.719,1.8-0.957,6.011-1.524,7.493v0.014c-0.331-0.25-0.595-0.582-0.706-0.984
				C22.486,13.42,23.055,6.496,27.183,6.496L27.183,6.496z M4.815,17.173c3.601-0.679,7.438-7.258,12.036-4.349
				c2.008,0.997,2.533,3.241,3.877,4.487c0.084-0.152,0.167-0.318,0.251-0.499c0-1.869-3.741-5.845-5.706-6.44
				c-3.601,0-7.341,3.2-10.222,5.235C4.635,16.176,4.607,16.73,4.815,17.173z"/>
		</g>
	</g>
</g>
</svg>
