<?xml version="1.0" encoding="utf-8"?>
<!-- Generator: Adobe Illustrator 12.0.0, SVG Export Plug-In . SVG Version: 6.00 Build 51448)  -->
<!DOCTYPE svg PUBLIC "-//W3C//DTD SVG 1.1//EN" "http://www.w3.org/Graphics/SVG/1.1/DTD/svg11.dtd" [
	<!ENTITY ns_flows "http://ns.adobe.com/Flows/1.0/">
	<!ENTITY ns_extend "http://ns.adobe.com/Extensibility/1.0/">
	<!ENTITY ns_ai "http://ns.adobe.com/AdobeIllustrator/10.0/">
	<!ENTITY ns_graphs "http://ns.adobe.com/Graphs/1.0/">
	<!ENTITY ns_vars "http://ns.adobe.com/Variables/1.0/">
	<!ENTITY ns_imrep "http://ns.adobe.com/ImageReplacement/1.0/">
	<!ENTITY ns_sfw "http://ns.adobe.com/SaveForWeb/1.0/">
	<!ENTITY ns_custom "http://ns.adobe.com/GenericCustomNamespace/1.0/">
	<!ENTITY ns_adobe_xpath "http://ns.adobe.com/XPath/1.0/">
	<!ENTITY ns_svg "http://www.w3.org/2000/svg">
	<!ENTITY ns_xlink "http://www.w3.org/1999/xlink">
]>
<svg  version="1.1"
	 xmlns:x="&ns_extend;" xmlns:i="&ns_ai;" xmlns:graph="&ns_graphs;" i:viewOrigin="-0.2363 64.9995" i:rulerOrigin="0 0" i:pageBounds="0 65 45 0"
	 xmlns="&ns_svg;" xmlns:xlink="&ns_xlink;" xmlns:a="http://ns.adobe.com/AdobeSVGViewerExtensions/3.0/"
	 width="45.73" height="65.236" viewBox="0 0 45.73 65.236" overflow="visible" enable-background="new 0 0 45.73 65.236"
	 xml:space="preserve">
<metadata>
	<variableSets  xmlns="&ns_vars;">
		<variableSet  varSetName="binding1" locked="none">
			<variables></variables>
			<v:sampleDataSets  xmlns:v="&ns_vars;" xmlns="&ns_custom;"></v:sampleDataSets>
		</variableSet>
	</variableSets>
</metadata>
<g id="图层_1" i:layer="yes" i:dimmedPercent="50" i:rgbTrio="#4F008000FFFF">
	<g>
		<g i:knockout="Off">
			<path fill="#333333" d="M1.182,47.467v12.077c0,2.49,1.622,4.512,3.619,4.512h37.308c2.001,0,3.622-2.021,3.622-4.512l0,0V3.807
				C45.73,1.705,44.105,0,42.108,0H4.801C2.803,0,1.182,1.705,1.182,3.807H1.181v43.651C1.181,47.46,1.182,47.464,1.182,47.467z"/>
			
				<linearGradient id="XMLID_3_" gradientUnits="userSpaceOnUse" x1="-41.7026" y1="22.0117" x2="-41.7026" y2="82.7578" gradientTransform="matrix(1 0 0 -1 64.2148 87.0107)">
				<stop  offset="0.0393" style="stop-color:#0060B6"/>
				<stop  offset="0.0899" style="stop-color:#2089B9"/>
				<stop  offset="0.0985" style="stop-color:#4FA3C2"/>
				<stop  offset="0.1071" style="stop-color:#77B9CA"/>
				<stop  offset="0.1138" style="stop-color:#8FC7CF"/>
				<stop  offset="0.118" style="stop-color:#98CCD1"/>
				<stop  offset="0.1341" style="stop-color:#9ECFD3"/>
				<stop  offset="0.156" style="stop-color:#AFD6D9"/>
				<stop  offset="0.1809" style="stop-color:#CBE1E3"/>
				<stop  offset="0.1966" style="stop-color:#E1EAEB"/>
				<a:midPointStop  offset="0.0393" style="stop-color:#0060B6"/>
				<a:midPointStop  offset="0.5" style="stop-color:#0060B6"/>
				<a:midPointStop  offset="0.0899" style="stop-color:#2089B9"/>
				<a:midPointStop  offset="0.5" style="stop-color:#2089B9"/>
				<a:midPointStop  offset="0.0985" style="stop-color:#4FA3C2"/>
				<a:midPointStop  offset="0.5" style="stop-color:#4FA3C2"/>
				<a:midPointStop  offset="0.1071" style="stop-color:#77B9CA"/>
				<a:midPointStop  offset="0.5" style="stop-color:#77B9CA"/>
				<a:midPointStop  offset="0.1138" style="stop-color:#8FC7CF"/>
				<a:midPointStop  offset="0.5" style="stop-color:#8FC7CF"/>
				<a:midPointStop  offset="0.118" style="stop-color:#98CCD1"/>
				<a:midPointStop  offset="0.5" style="stop-color:#98CCD1"/>
				<a:midPointStop  offset="0.1341" style="stop-color:#9ECFD3"/>
				<a:midPointStop  offset="0.5" style="stop-color:#9ECFD3"/>
				<a:midPointStop  offset="0.156" style="stop-color:#AFD6D9"/>
				<a:midPointStop  offset="0.5" style="stop-color:#AFD6D9"/>
				<a:midPointStop  offset="0.1809" style="stop-color:#CBE1E3"/>
				<a:midPointStop  offset="0.5" style="stop-color:#CBE1E3"/>
				<a:midPointStop  offset="0.1966" style="stop-color:#E1EAEB"/>
			</linearGradient>
			<path fill="url(#XMLID_3_)" d="M44.787,60.488c0,2.493-1.625,4.512-3.621,4.512H3.856c-1.998,0-3.619-2.019-3.619-4.512V8.765
				c0-2.49,1.623-4.511,3.619-4.511h37.309c2,0,3.619,2.021,3.619,4.511v51.723H44.787z"/>
			<path fill="none" stroke="#333333" stroke-width="0.4727" d="M44.787,60.488c0,2.493-1.625,4.512-3.621,4.512H3.856
				c-1.998,0-3.619-2.019-3.619-4.512V8.765c0-2.49,1.623-4.511,3.619-4.511h37.309c2,0,3.619,2.021,3.619,4.511v51.723H44.787z"/>
			<path fill="#FFFFFF" d="M0.236,4.752c0-2.101,1.622-3.807,3.62-3.807h37.309c1.999,0,3.619,1.705,3.619,3.807v43.653
				c0,2.102-1.622,3.804-3.619,3.804H3.856c-1.998,0-3.62-1.702-3.62-3.807V4.752L0.236,4.752z"/>
			
				<linearGradient id="XMLID_4_" gradientUnits="userSpaceOnUse" x1="2.5527" y1="25.2319" x2="46.6465" y2="25.2319" gradientTransform="matrix(-1 0 0 1 47.1094 1.3447)">
				<stop  offset="0" style="stop-color:#A2D8E0"/>
				<stop  offset="0.0899" style="stop-color:#1878AD"/>
				<stop  offset="0.2135" style="stop-color:#194D91"/>
				<stop  offset="0.6404" style="stop-color:#2B90BD"/>
				<stop  offset="0.9438" style="stop-color:#82CBDE"/>
				<stop  offset="1" style="stop-color:#1A478D"/>
				<a:midPointStop  offset="0" style="stop-color:#A2D8E0"/>
				<a:midPointStop  offset="0.5" style="stop-color:#A2D8E0"/>
				<a:midPointStop  offset="0.0899" style="stop-color:#1878AD"/>
				<a:midPointStop  offset="0.5" style="stop-color:#1878AD"/>
				<a:midPointStop  offset="0.2135" style="stop-color:#194D91"/>
				<a:midPointStop  offset="0.5" style="stop-color:#194D91"/>
				<a:midPointStop  offset="0.6404" style="stop-color:#2B90BD"/>
				<a:midPointStop  offset="0.5" style="stop-color:#2B90BD"/>
				<a:midPointStop  offset="0.9438" style="stop-color:#82CBDE"/>
				<a:midPointStop  offset="0.5" style="stop-color:#82CBDE"/>
				<a:midPointStop  offset="1" style="stop-color:#1A478D"/>
			</linearGradient>
			<path i:isolated="yes" i:knockout="Off" opacity="0.1" fill="url(#XMLID_4_)" enable-background="new    " d="M0.463,4.752
				c0-2.101,1.603-3.807,3.579-3.807h36.935c1.977,0,3.58,1.705,3.58,3.807v43.653c0,2.102-1.604,3.804-3.58,3.804H4.042
				c-1.976,0-3.579-1.702-3.579-3.807L0.463,4.752L0.463,4.752z"/>
			<path fill="none" stroke="#4D4D4D" stroke-width="0.4727" d="M0.236,48.414v12.074c0,2.493,1.622,4.512,3.62,4.512h37.309
				c1.999,0,3.619-2.019,3.619-4.512V4.752c0-2.102-1.622-3.806-3.619-3.806H3.856c-1.998,0-3.62,1.705-3.62,3.806v43.653
				C0.236,48.408,0.236,48.411,0.236,48.414z"/>
		</g>
		<g>
			<path i:knockout="Off" d="M30.837,44.566c-0.597-0.796-0.152-1.568-0.152-2.4c-0.421-1.136-0.89-2.412-1.522-3.232
				c-0.068-0.023-0.116-0.023-0.164-0.023c-0.842,4.639,0.457,4.931-4.134,4.557c-0.059,0.503-0.046,0.713-0.539,0.995
				c-2.894-0.07-9.815,1.253-6.384-2.963c1.395-0.75,1.944,0,3.27-0.212c0.057-0.421,0.129-0.832,0.186-1.241
				c-1.066-0.316-0.598-0.14-1.299,0.141c-0.517,0-5.166-4.51-5.248-5.178c-0.282,0.013-0.819,0.223-0.995,0.213
				c-0.223-0.457-0.082-0.868-0.329-1.185c-1.545-0.082-0.936,0.094-0.936-1.312c-0.655-0.479-0.948-0.351-1.593-0.421
				c-0.574-1.148,0.387-1.172-1.418-1.347c-0.035-0.34,0.035-0.504,0.035-1.054c-0.656-0.657-0.714-0.539-1.546-0.587
				c0-2.178-1.171-1.054-1.171-1.908c0.831-0.821-0.457-0.844-0.902-0.892c-0.012-0.092-0.024-0.198-0.024-0.292
				c0.762-0.96-0.492-1.018-0.832-1.371c0.165-0.339,0.352-0.421,0.727-0.527c0-0.609-0.21-0.936-0.621-1.03
				c0-0.341-0.023-0.281,0.106-0.505c1.089,0,0.96-0.21,1.101-1.182c1.171-0.399,0.55,0.27,1.452-0.703
				c0.668,0,0.715,0.727,1.733,0.012c0.105-0.012,0.211-0.024,0.328-0.046c0.176,0.784,0.387,1.183,1.405,1.008
				c0.632,0.96-0.445,1.429,1.686,1.639c0.377,0.573-0.116,2.132,1.559,1.627c0.072,0.06,0.129,0.106,0.2,0.152
				c0,1.769,0.211,0.785,1.335,1.628c0,1.721,0.21,0.96,1.395,1.675c0,0.843,0.164,1.088,1.146,1.264
				c0.388,0.785,0.608,2.707,2.107,3c0.212-0.293,1.827-2.262,1.827-2.472c-9.369-4.685-9.145-15.707-1.907-22.219
				c6.887-4.755,15.952-1.194,18.412,6.876c2.131,1.746,1.417,5.727-0.515,7.53c0,3.104-3.995,5.774-6.524,6.829
				c0.175,0.797,0.374,1.136-0.151,2.015c0.817,3.009,0.994,6.476,2.2,9.498c2.003,0.316,2.448,1.358,3.574,2.964
				C37.291,44.543,32.044,44.543,30.837,44.566L30.837,44.566z M8.994,25.64c0.89,0,1.054-0.667,0.585-1.3
				C8.291,23.543,7.822,25.054,8.994,25.64L8.994,25.64z M18.586,36.052c0.046,0,0.104,0,0.164,0
				c0.293-0.328,0.585-0.633,0.878-0.949c-0.082-0.422-0.341-0.539-0.505-0.68c-0.597,0.059-0.796,0.293-1.287,0.585
				C17.836,35.383,18.166,35.712,18.586,36.052z"/>
			<path i:knockout="Off" fill="#537FA1" d="M31.212,44.017c0-2.366-0.315-4.147-2.038-5.869c0.212-1.464,0.281-1.581,0.364-2.119
				c0.75-0.047,1.92-0.271,2.693,0.164c0.341,0.901,1.124,3.713,1.124,4.673c-0.433,0.176-1.416,0.469-1.416,1.02
				c0,0,5.059-1.044,4.508,1.745C35.241,44.017,32.524,44.017,31.212,44.017z"/>
			<path i:knockout="Off" fill="#537FA1" d="M22.862,43.853c-1.816-0.165-3.643-0.106-5.365-0.13c0-1.968,1.627-2.611,3.35-1.886
				c0,0.292-0.094,0.749-0.128,1.136c0.96,0.282,2.33,0.316,3.466,0.375c-0.012,0.164-0.012,0.328-0.012,0.505
				C23.729,43.853,23.295,43.853,22.862,43.853z"/>
			<path i:knockout="Off" fill="#FC0019" d="M18.796,38.487c-1.02-0.936-2.307-2.482-3.231-3.104c0-0.07,0-0.116,0-0.162
				c1.557-1.044,2.681,1.932,3.313,3.208C18.843,38.441,18.819,38.453,18.796,38.487z"/>
			<path i:knockout="Off" fill="#FF6600" d="M18.469,36.814c-0.656-0.505-2.858-2.062-1.782-2.332
				c0.505,0.515,1.817,1.488,1.923,2.319C18.527,36.848,18.527,36.848,18.469,36.814z"/>
			<path i:knockout="Off" fill="#5C687F" d="M29.655,35.431c0.046-0.2,0.092-0.387,0.14-0.585c0.714-0.142,1.311-0.2,2.19-0.165
				c0.022,0.234,0.034,0.457,0.07,0.702C31.246,35.395,30.452,35.419,29.655,35.431z"/>
			<path i:knockout="Off" fill="#973E2B" d="M17.449,34.857c-0.011-0.082-0.034-0.152-0.034-0.234
				c1.464-1.229,1.429-1.441,2.847,0.047c-0.562,0.504-0.974-1.428-2.553,0.141C17.613,34.833,17.532,34.846,17.449,34.857z"/>
			<path i:knockout="Off" fill="#FFFFFF" d="M15.224,34.646c-0.375-0.105-0.375-0.105-0.926-0.129
				c-0.14-0.831-0.655-0.938-1.146-1.041c-0.083-1.349-0.562-1.465-1.629-1.617c-0.14-1.102-0.516-1.207-1.3-1.406
				c-0.094-1.159-0.645-1.463-1.464-1.581c-0.047-0.936-0.223-1.3-1.008-1.511c-0.058-0.855-0.292-1.183-0.984-1.252
				c0-1.559-1.078-1.675,0.012-3.362c0.07-0.176,0.129-0.363,0.199-0.527c1.007-0.21,1.358-0.527,2.658-0.527
				c0.375,0.515,0.492,0.715,1.3,0.843c0.188,0.96,0.668,1.359,1.734,1.569c0.059,0.961,0.48,1.499,1.569,1.699
				c0.41,0.726,0.142,1.265,1.416,1.499c0,0.972,1.64,2.611,2.661,3.033c0.021,0.457,0.444,1.042,0.444,1.465
				c-0.06,0.058-0.13,0.104-0.188,0.164c-2.131-1.348-8.69-11.396-11.279-8.516c-1.03,2.611,4.719,6.863,6.218,9.007
				c0.224,0.21,1.887,1.581,1.887,2.108C15.272,34.681,15.272,34.681,15.224,34.646z"/>
			<path i:knockout="Off" fill="#FF3300" d="M20.636,34.564c-0.095-0.152-0.095-0.152-1.513-1.322
				c-0.912,0.092-1.381,0.926-2.166,1.111c0.07-0.375,1.805-1.979,2.284-1.979c0.539,0.421,1.465,1.346,2.272,2.049
				C21.303,34.634,20.764,34.564,20.636,34.564z"/>
			<path i:knockout="Off" fill="#999999" d="M15.705,34.33c-0.504-0.539-3.057-2.846-3.197-3.455c-1.042-0.258-8-7.778-3.584-7.778
				c1.909,0.751,9.358,8.411,9.358,9.148C17.861,32.667,15.893,34.435,15.705,34.33L15.705,34.33z M8.759,26.026
				c3.864,0-1.3-4.778-0.609-0.609C8.337,25.511,8.49,25.792,8.759,26.026z"/>
			<path i:knockout="Off" fill="#CCE968" d="M29.972,34.189c0.08-0.808,0.549-2.014,1.511-2.014
				c0.409,1.697,0.409,1.697,0.373,1.827C30.557,34.095,30.557,34.095,29.972,34.189z"/>
			<path i:knockout="Off" fill="#546092" d="M22.978,33.312c-0.387-0.305-1.008-0.738-1.078-1.021
				c1.043-1.312,2.004-2.471,4.008-1.042c-0.12,0.152-0.81,0.573-1.735,1.289c0-0.551,0.234-0.902,0.234-1.218
				c-0.082-0.082-0.082-0.082-0.292-0.082c-0.479,0.621-0.599,1.44-1.09,2.144C23.014,33.345,23.002,33.333,22.978,33.312
				L22.978,33.312z M24.771,35.185c0.633-0.094,1.546-1.066,2.271-1.465c0.634-0.749,6.104-2.236,4.334-4.017
				c-0.152,0-2.26,1.242-2.599,1.371c-1.535,0.21-5.94,2.144-5.94,3.49C23.472,34.764,24.115,34.974,24.771,35.185L24.771,35.185z
				 M27.463,43.103c0.061,0,0.106,0,0.165,0c0.772-3.315,1.37-6.806,2.073-10.05c-1.733,0.341-3.619,2.576-4.837,2.823
				c0.187,2.271-0.749,3.502-2.894,4.228c-0.175,0.797-0.503,1.675-0.597,2.553C23.342,42.716,25.367,42.951,27.463,43.103z"/>
			<path i:knockout="Off" fill="#CCCC29" d="M26.726,30.687c-1.522-0.269-4.965-3.97-4.79-4.743c0.457,0.269,1.089,1.03,1.7,0.539
				c-0.024-0.34-0.036-0.679-0.036-1.02c-0.974-0.914-1.617-0.96-2.683-1.17c-0.445-0.832-0.445-0.832-0.551-0.902
				c0.012,0.21,0.293,0.644,0.188,0.936c-0.669,0.094-1.008,0.234-1.499,0.527c0,0.445,0.068,0.575,0.562,0.938
				c0.398-0.27,1.218-0.28,1.803-0.058c1.138,1.709,2.227,3.162,3.972,4.603c-0.024,0.036-0.036,0.082-0.036,0.128
				c-5.551-0.339-9.242-6.16-9.37-11.138c1.254,0.398,1.887,0.867,2.564-0.75c0.445-2.763,0.691-2.307-1.896-2.717
				c0.467-2.366,4.355-9.207,7.295-8.62c-3.068,3.29-4.697,7.975-4.404,12.579c0-6.536,3.853-17.875,11.724-11.256
				c3.959,5.165,4.592,19.84-2.87,22.066C27.827,30.652,27.276,30.665,26.726,30.687z"/>
			<path i:knockout="Off" d="M37.549,21.364c-0.06-0.046-0.105-0.104-0.152-0.128c1.908-2.612-0.188-5.774-0.703-2.659
				c0.141,0.036,0.295,0.07,0.435,0.106c0.562,1.018,0.151,2.928-1.359,2.354c-0.022-0.07-0.035-0.13-0.059-0.176
				c2.025-0.667,1.254-1.663-0.433-1.663c-0.281-0.281,3.267-5.516,3.606,0.034C38.779,20.076,38.579,21.248,37.549,21.364z"/>
			<path i:knockout="Off" fill="#FEDEAE" d="M32.945,9.816c-0.341-0.575-1.852-2.214-1.861-2.366
				c0.643-0.645,3.466,1.545,4.029,2.166C34.844,9.898,33.216,9.816,32.945,9.816L32.945,9.816z M34.199,13.013
				c-0.257-0.351-0.387-1.066-0.433-1.381c2.482-0.082,2.482-0.082,3.09-0.024c0.61,0.89,0.81,0.948,0.692,1.3
				C36.436,12.932,35.312,12.966,34.199,13.013L34.199,13.013z M34.41,24.081c1.031-0.07,2.951,0.316,3.372-0.796
				c-0.784-0.128-1.744,0.691-2.341-0.164c0.057-0.082,0.141-0.165,0.221-0.247c3.246,0.258,4.428-2.763,3.879-5.55
				c-1.911-4.404-3.761,0.116-4.3-0.316c0-1.043,0.397-1.148,1.171-1.793c-0.011-0.035-0.035-0.07-0.045-0.082
				c-1.349,0.047-1.349,0.047-1.631,0.13c0.072,3.186,0,5.574-0.644,8.784C34.188,24.046,34.304,24.059,34.41,24.081L34.41,24.081z
				 M32.091,28.872c0.293-0.96,1.019-1.85,1.347-2.974c1.183-0.094,1.183-0.094,2.975-0.387
				C36.167,26.799,33.063,28.451,32.091,28.872L32.091,28.872z M22.052,34.212c-0.374-0.362-0.785-0.666-0.842-0.995
				c0.468-0.469,1.183-0.012,1.299,0.703C22.381,34.048,22.264,34.212,22.052,34.212L22.052,34.212z M21.292,39.46
				c-1.944-0.903-3.046-2.448-1.09-4.077c1.979-0.608,4.604-0.749,3.983,2.168C23.472,38.874,22.766,39.46,21.292,39.46z"/>
			<path i:knockout="Off" fill="#B3B33A" d="M24.514,29.294c-1.372-1.23-2.683-2.869-2.578-3.35c0.457,0.269,1.089,1.03,1.7,0.539
				c-0.024-0.34-0.036-0.679-0.036-1.02c-0.974-0.914-1.617-0.96-2.683-1.17c-0.445-0.832-0.445-0.832-0.551-0.902
				c0.012,0.21,0.293,0.644,0.188,0.936c-0.669,0.094-1.008,0.234-1.499,0.527c0,0.445,0.068,0.575,0.562,0.938
				c0.398-0.27,1.218-0.28,1.803-0.058c0.867,1.3,1.711,2.459,2.824,3.573c-0.128,0-0.258,0-0.375,0
				c-0.128,0.128-0.374,0.503-0.374,0.631c0.117,0,0.13,0.118,0.13,0.234c-4.569-1.3-7.522-6.406-7.638-10.846
				c1.254,0.398,1.887,0.867,2.564-0.75c0.445-2.763,0.691-2.307-1.896-2.717c0.14-0.715,0.585-1.827,1.229-3.021
				c0.773,0,3.327-1.312,3.327-2.038c0.069,0,0.141,0.034,0.209,0.07c-1.395,2.717-2.072,5.855-1.873,8.948
				c0-2.683,0.655-6.173,1.957-8.902c0.034,0.012,0.057,0.012,0.093,0.012c0,0.761-0.386,1.781-0.129,2.541
				c0.375,1.136,2.273,1.266,2.53,2.144c0.258,1.02-0.89,2.413-1.135,3.304c-0.633,1.639-0.389,3.923,0.762,5.316
				c1.393,1.652,5.188,1.522,5.819,3.42c-1.264,1.276-2.401,2.542-4.427,1.523C24.887,29.236,24.712,29.27,24.514,29.294z"/>
			<path i:knockout="Off" fill="#545A7A" d="M22.978,33.312c-0.387-0.305-1.008-0.738-1.078-1.021
				c1.043-1.312,2.004-2.471,4.008-1.042c-0.12,0.152-0.81,0.573-1.735,1.289c0-0.551,0.234-0.902,0.234-1.218
				c-0.082-0.082-0.082-0.082-0.292-0.082c-0.479,0.621-0.599,1.44-1.09,2.144C23.014,33.345,23.002,33.333,22.978,33.312
				L22.978,33.312z M28.225,31.191c-1.826,0.479-5.387,2.166-5.387,3.373c0.422,0.141,0.855,0.282,1.299,0.423
				c0.213-1.992,4.545-1.675,4.545-3.526C28.589,31.366,28.437,31.273,28.225,31.191L28.225,31.191z M24.887,36.461
				c0.435,1.921-1.511,4.1-1.64,6.289c-0.633-0.046-1.252-0.082-1.874-0.094c0.094-0.878,0.422-1.756,0.597-2.553
				C23.927,39.449,24.864,38.359,24.887,36.461z"/>
			<path i:knockout="Off" fill="#386CAF" d="M22.862,43.853c-0.152-0.013-0.316-0.024-0.469-0.036
				c-0.282-0.187-0.528-0.433-0.785-0.655c0.679,0.094,1.429,0.128,2.132,0.164c-0.036,0.175-0.164,0.351-0.224,0.527
				C23.295,43.853,23.083,43.853,22.862,43.853L22.862,43.853z M18.045,42.129c0.621-0.655,1.699-0.761,2.801-0.292
				c0,0.2-0.048,0.469-0.082,0.749C19.957,42.248,19.031,42.129,18.045,42.129z"/>
			<path i:knockout="Off" fill="#FEEDD1" d="M34.41,8.985c0.316,0.257,0.574,0.491,0.703,0.631
				c-0.084,0.083-0.257,0.128-0.493,0.165C34.527,9.512,34.456,9.242,34.41,8.985L34.41,8.985z M35.369,11.584
				c0.225,0.457,0.445,0.914,0.669,1.371c0.504-0.022,1.007-0.035,1.511-0.046c0.117-0.353-0.082-0.411-0.692-1.3
				C36.424,11.572,36.308,11.562,35.369,11.584L35.369,11.584z M37.093,15.555c0.14,0.551,0.187,1.09,0.08,1.581
				c-0.351,2.155-1.955,4.65-2.985,6.417c-0.036,0.165-0.059,0.329-0.095,0.493c0.095,0,0.211,0.012,0.317,0.035
				c1.031-0.07,2.951,0.316,3.372-0.796c-0.784-0.128-1.744,0.691-2.341-0.164c0.057-0.082,0.141-0.165,0.221-0.247
				c3.246,0.258,4.428-2.763,3.879-5.55C38.674,15.321,37.818,15.168,37.093,15.555L37.093,15.555z M32.091,28.872
				c0.293-0.96,1.019-1.85,1.347-2.974c1.183-0.094,1.183-0.094,2.975-0.387C36.167,26.799,33.063,28.451,32.091,28.872z"/>
			<path i:knockout="Off" fill="#368FC0" d="M30.932,35.934c0.467-0.012,0.924,0.048,1.3,0.259c0.341,0.901,1.124,3.713,1.124,4.673
				c-0.13,0.048-0.316,0.117-0.503,0.198c0.012-0.491-0.012-0.937-0.105-1.24C32.348,38.652,31.365,37.258,30.932,35.934
				L30.932,35.934z M32.816,41.755c1.429-0.152,4.04-0.163,3.631,1.875c-0.362,0.116-0.865,0.198-1.418,0.257
				c-0.76-0.187-1.521-0.387-2.282-0.773C32.747,42.75,32.781,42.259,32.816,41.755z"/>
			<path i:knockout="Off" fill="#386CAF" d="M29.421,30.735c0.398,0.316,0.912,0.631,1.172,1.076
				c0.958-0.62,1.545-1.334,0.783-2.108C31.271,29.703,30.17,30.336,29.421,30.735z"/>
			<path i:knockout="Off" d="M19.406,22.664c-0.106-0.046-0.187-0.094-0.271-0.128c0.084-0.703,0.2-1.206,0.398-1.745
				c0.095-0.012,0.188-0.036,0.295-0.036c0.373,0.446,0.97,0.901,1.17,1.617C20.871,22.454,20.871,22.454,19.406,22.664z"/>
			<path i:knockout="Off" d="M25.952,20.544c-2.316-0.691-4.11-1.769-4.308-4.24c1.299-0.656,7.941-0.375,9.077-0.035
				c0.385,0.573-0.809,2.167-1.266,2.729C28.261,20.111,27.453,20.31,25.952,20.544z"/>
			<path i:knockout="Off" fill="#FFFFFF" d="M27.09,19.619c-1.113-0.644-2.472-1.733-2.271-3.104c0.469,0,0.947,0,1.416,0.012
				c0.327,1.371,0.89,2.952,2.6,2.026c0.071,0.012,0.13,0.024,0.212,0.048C28.495,19.15,27.815,19.619,27.09,19.619z"/>
			<path i:knockout="Off" fill="#FFFFFF" d="M17.497,19.14c-0.375-0.375-0.375-0.868-0.375-1.207c0.046,0,0.106,0,0.164,0
				c0.047,0.292,0.281,0.667,0.503,1.066C17.672,19.116,17.672,19.116,17.497,19.14z"/>
			<path i:knockout="Off" fill="#FFFFFF" d="M29.094,18.482c-0.06-0.034-0.107-0.07-0.166-0.082
				c0.246-0.292,0.435-1.475,0.446-1.755c0.141-0.012,0.293-0.012,0.434-0.012C29.808,17.066,29.655,18.202,29.094,18.482z"/>
			<path i:knockout="Off" fill="#FFFFFF" d="M17.122,17.745c-0.034-0.633-0.034-0.633,0.046-1.347
				c0.061,0.022,0.118,0.035,0.188,0.07C17.274,17.617,17.228,17.803,17.122,17.745z"/>
			<path i:knockout="Off" fill="#FFFFFF" d="M27.09,17.651c-0.094-0.386-0.188-0.808-0.152-1.088c0.293,0,0.586,0,0.89,0
				C27.827,17.066,27.78,17.687,27.09,17.651z"/>
			<path i:knockout="Off" fill="#FFFFFF" d="M17.661,16.948c0-0.15,0-0.315,0-0.479c0.2,0,0.385,0,0.597,0
				c-0.092,0.14-0.188,0.292-0.269,0.457C17.873,16.925,17.753,16.938,17.661,16.948z"/>
			<path i:knockout="Off" fill="#FFFF00" d="M27.547,8.27c-1.651-0.258-1.769,2.025-1.395,3.045c1.523,3.29,5.833,3.548,5.833,7.602
				C36.073,16.188,28.729,8.48,27.547,8.27z"/>
			<path i:knockout="Off" fill="#E6E6E6" d="M15.166,33.781c-0.386-0.365-0.879-0.844-1.348-1.313l-0.361-5.634
				c0.784,0.761,1.569,1.559,2.272,2.296l-0.164,2.002C15.458,31.823,15.34,32.795,15.166,33.781L15.166,33.781z M11.23,29.903
				c-0.223-0.223-0.456-0.469-0.714-0.727l-0.035-5.024c0.516,0.409,1.089,0.914,1.686,1.463L11.23,29.903z"/>
		</g>
	</g>
</g>
</svg>
