<?xml version="1.0" encoding="utf-8"?>
<!-- Generator: Adobe Illustrator 12.0.0, SVG Export Plug-In . SVG Version: 6.00 Build 51448)  -->
<!DOCTYPE svg PUBLIC "-//W3C//DTD SVG 1.1//EN" "http://www.w3.org/Graphics/SVG/1.1/DTD/svg11.dtd" [
	<!ENTITY ns_flows "http://ns.adobe.com/Flows/1.0/">
	<!ENTITY ns_extend "http://ns.adobe.com/Extensibility/1.0/">
	<!ENTITY ns_ai "http://ns.adobe.com/AdobeIllustrator/10.0/">
	<!ENTITY ns_graphs "http://ns.adobe.com/Graphs/1.0/">
	<!ENTITY ns_vars "http://ns.adobe.com/Variables/1.0/">
	<!ENTITY ns_imrep "http://ns.adobe.com/ImageReplacement/1.0/">
	<!ENTITY ns_sfw "http://ns.adobe.com/SaveForWeb/1.0/">
	<!ENTITY ns_custom "http://ns.adobe.com/GenericCustomNamespace/1.0/">
	<!ENTITY ns_adobe_xpath "http://ns.adobe.com/XPath/1.0/">
	<!ENTITY ns_svg "http://www.w3.org/2000/svg">
	<!ENTITY ns_xlink "http://www.w3.org/1999/xlink">
]>
<svg  version="1.1"
	 xmlns:x="&ns_extend;" xmlns:i="&ns_ai;" xmlns:graph="&ns_graphs;" i:viewOrigin="-0.2368 64.9995" i:rulerOrigin="0 0" i:pageBounds="0 65 45 0"
	 xmlns="&ns_svg;" xmlns:xlink="&ns_xlink;" xmlns:a="http://ns.adobe.com/AdobeSVGViewerExtensions/3.0/"
	 width="45.73" height="65.236" viewBox="0 0 45.73 65.236" overflow="visible" enable-background="new 0 0 45.73 65.236"
	 xml:space="preserve">
<metadata>
	<variableSets  xmlns="&ns_vars;">
		<variableSet  varSetName="binding1" locked="none">
			<variables></variables>
			<v:sampleDataSets  xmlns:v="&ns_vars;" xmlns="&ns_custom;"></v:sampleDataSets>
		</variableSet>
	</variableSets>
</metadata>
<g id="图层_1" i:layer="yes" i:dimmedPercent="50" i:rgbTrio="#4F008000FFFF">
	<g>
		<g i:knockout="Off">
			<path fill="#333333" d="M1.181,47.467v12.077c0,2.49,1.623,4.512,3.62,4.512H42.11c1.999,0,3.62-2.021,3.62-4.512h-0.001V3.807
				C45.729,1.705,44.108,0,42.11,0H4.801C2.802,0,1.183,1.705,1.183,3.807H1.181v43.651C1.181,47.46,1.181,47.464,1.181,47.467z"/>
			
				<linearGradient id="XMLID_3_" gradientUnits="userSpaceOnUse" x1="-41.7031" y1="22.0117" x2="-41.7031" y2="82.7578" gradientTransform="matrix(1 0 0 -1 64.2148 87.0107)">
				<stop  offset="0.0393" style="stop-color:#0060B6"/>
				<stop  offset="0.0899" style="stop-color:#2089B9"/>
				<stop  offset="0.0985" style="stop-color:#4FA3C2"/>
				<stop  offset="0.1071" style="stop-color:#77B9CA"/>
				<stop  offset="0.1138" style="stop-color:#8FC7CF"/>
				<stop  offset="0.118" style="stop-color:#98CCD1"/>
				<stop  offset="0.1341" style="stop-color:#9ECFD3"/>
				<stop  offset="0.156" style="stop-color:#AFD6D9"/>
				<stop  offset="0.1809" style="stop-color:#CBE1E3"/>
				<stop  offset="0.1966" style="stop-color:#E1EAEB"/>
				<a:midPointStop  offset="0.0393" style="stop-color:#0060B6"/>
				<a:midPointStop  offset="0.5" style="stop-color:#0060B6"/>
				<a:midPointStop  offset="0.0899" style="stop-color:#2089B9"/>
				<a:midPointStop  offset="0.5" style="stop-color:#2089B9"/>
				<a:midPointStop  offset="0.0985" style="stop-color:#4FA3C2"/>
				<a:midPointStop  offset="0.5" style="stop-color:#4FA3C2"/>
				<a:midPointStop  offset="0.1071" style="stop-color:#77B9CA"/>
				<a:midPointStop  offset="0.5" style="stop-color:#77B9CA"/>
				<a:midPointStop  offset="0.1138" style="stop-color:#8FC7CF"/>
				<a:midPointStop  offset="0.5" style="stop-color:#8FC7CF"/>
				<a:midPointStop  offset="0.118" style="stop-color:#98CCD1"/>
				<a:midPointStop  offset="0.5" style="stop-color:#98CCD1"/>
				<a:midPointStop  offset="0.1341" style="stop-color:#9ECFD3"/>
				<a:midPointStop  offset="0.5" style="stop-color:#9ECFD3"/>
				<a:midPointStop  offset="0.156" style="stop-color:#AFD6D9"/>
				<a:midPointStop  offset="0.5" style="stop-color:#AFD6D9"/>
				<a:midPointStop  offset="0.1809" style="stop-color:#CBE1E3"/>
				<a:midPointStop  offset="0.5" style="stop-color:#CBE1E3"/>
				<a:midPointStop  offset="0.1966" style="stop-color:#E1EAEB"/>
			</linearGradient>
			<path fill="url(#XMLID_3_)" d="M44.786,60.488c0,2.493-1.621,4.512-3.619,4.512H3.856c-1.997,0-3.619-2.019-3.619-4.512V8.765
				c0-2.49,1.623-4.511,3.619-4.511h37.31c1.999,0,3.62,2.021,3.62,4.511V60.488L44.786,60.488z"/>
			<path fill="none" stroke="#333333" stroke-width="0.4727" d="M44.786,60.488c0,2.493-1.621,4.512-3.619,4.512H3.856
				c-1.997,0-3.619-2.019-3.619-4.512V8.765c0-2.49,1.623-4.511,3.619-4.511h37.31c1.999,0,3.62,2.021,3.62,4.511V60.488
				L44.786,60.488z"/>
			<path fill="#FFFFFF" d="M0.237,4.752c0-2.101,1.622-3.807,3.619-3.807h37.308c2.001,0,3.622,1.705,3.622,3.807v43.653
				c0,2.102-1.624,3.804-3.622,3.804H3.856c-1.997,0-3.619-1.702-3.619-3.807V4.752L0.237,4.752z"/>
			
				<linearGradient id="XMLID_4_" gradientUnits="userSpaceOnUse" x1="2.5532" y1="25.2319" x2="46.646" y2="25.2319" gradientTransform="matrix(-1 0 0 1 47.1104 1.3447)">
				<stop  offset="0" style="stop-color:#A2D8E0"/>
				<stop  offset="0.0899" style="stop-color:#1878AD"/>
				<stop  offset="0.2135" style="stop-color:#194D91"/>
				<stop  offset="0.6404" style="stop-color:#2B90BD"/>
				<stop  offset="0.9438" style="stop-color:#82CBDE"/>
				<stop  offset="1" style="stop-color:#1A478D"/>
				<a:midPointStop  offset="0" style="stop-color:#A2D8E0"/>
				<a:midPointStop  offset="0.5" style="stop-color:#A2D8E0"/>
				<a:midPointStop  offset="0.0899" style="stop-color:#1878AD"/>
				<a:midPointStop  offset="0.5" style="stop-color:#1878AD"/>
				<a:midPointStop  offset="0.2135" style="stop-color:#194D91"/>
				<a:midPointStop  offset="0.5" style="stop-color:#194D91"/>
				<a:midPointStop  offset="0.6404" style="stop-color:#2B90BD"/>
				<a:midPointStop  offset="0.5" style="stop-color:#2B90BD"/>
				<a:midPointStop  offset="0.9438" style="stop-color:#82CBDE"/>
				<a:midPointStop  offset="0.5" style="stop-color:#82CBDE"/>
				<a:midPointStop  offset="1" style="stop-color:#1A478D"/>
			</linearGradient>
			<path i:isolated="yes" i:knockout="Off" opacity="0.1" fill="url(#XMLID_4_)" enable-background="new    " d="M0.464,4.752
				c0-2.101,1.602-3.807,3.577-3.807h36.938c1.977,0,3.578,1.705,3.578,3.807v43.653c0,2.102-1.602,3.804-3.578,3.804H4.043
				c-1.975,0-3.579-1.702-3.579-3.807V4.752L0.464,4.752z"/>
			<path fill="none" stroke="#4D4D4D" stroke-width="0.4727" d="M0.237,48.414v12.074C0.237,62.981,1.859,65,3.856,65h37.311
				c1.998,0,3.619-2.019,3.619-4.512V4.752c0-2.102-1.624-3.806-3.622-3.806H3.856c-1.997,0-3.619,1.705-3.619,3.806v43.653
				C0.236,48.408,0.237,48.411,0.237,48.414z"/>
		</g>
		<g>
			<path i:knockout="Off" d="M33.601,44.604c-1.081-0.358-4.748-2.468-5.536-1.885c-4.251,0.138-7.662,1.284-11.827,0.12
				c-1.938-0.789-4.87,0.291-6.754,0.701C8.696,44.929,7,44.296,6.057,43.696c-1.577-2.965-4.491-7.61,0.926-7.61
				c1.971-1.405,2.69,1.251,3.771-0.085c-5.058-4.149-1.525-10.249,3.222-12.787c0-0.188-0.737-1.663-0.806-1.884
				c-0.239-2.126,0.72-3.069-0.224-4.629c-0.786-2.125-0.735-3.462,1.594-3.651c0.293-4.73,2.111-5.81,6.548-6.89
				c5.59-0.634,12.702,1.062,12.702,8.09c-0.343,1.422-0.343,1.422-0.361,1.765c2.95,0,1.92,3.531-0.734,4.114
				c0.084,1.594-1.131,2.724-1.131,3.771c2.997,2.209,4.233,6.443,2.639,9.992c-0.687,0.924-0.687,0.924-0.72,1.098
				c0.84,0.085,3.616,1.302,4.249,2.107c0.379,1.421-1.472,6.496-2.929,7.387C33.995,44.604,33.995,44.604,33.601,44.604z"/>
			<path i:knockout="Off" fill="#FEEDA2" d="M7.839,44.04c-2.021-0.361-3.959-4.972-3.532-6.479
				c1.251-1.424,5.022-2.777,5.347,0.344c0.737-0.55-0.083-0.962,1.2-1.476c3.84-0.308,4.577,2.126,4.715,5.587
				c-2.039,0.6-3.857,0.464-5.846,1.131c-0.033-0.101-0.051-0.205-0.069-0.307c-0.083,0-0.152,0-0.221,0
				C8.935,43.85,8.866,43.783,7.839,44.04L7.839,44.04z M33.427,44.209c-1.508-0.463-0.839-0.342-1.37-1.319
				c-0.068,0-0.119,0-0.17,0c-0.069,0.051-0.123,0.103-0.174,0.171c-1.096-0.136-2.57-0.446-3.322-0.873
				c-0.069-2.675-0.448-5.399,1.952-5.69c2.213-0.601,1.013-0.12,2.058,0.719c0.752-0.754,0.119-3.033,2.347-1.182
				c4.682,0,1.749,4.078,1.167,6.599C35.383,43.987,34.801,44.209,33.427,44.209L33.427,44.209z M16.854,36.772
				c1.731-0.138,1.851-0.036,1.851-1.44c0.206-0.154,0.412-0.31,0.636-0.461c0.102-1.047-0.154-0.756-0.636-1.15
				c0-1.731,0.275-2.365-1.952-1.679c-0.344-0.584-0.344-0.584-0.582-0.806c-2.195-0.993-1.562,0.754-2.177,1.115
				c-0.618-0.361,0.238-1.439,0.546-1.646c0-1.149-0.325-2.502-0.34-3.601c1.609-0.445,5.21-0.017,7.181-0.017
				c1.062,2.005,1.953,1.235,3.254,0.085c5.796,0.068,5.452-1.183,4.938,3.926c-0.086,0.085-4.063-1.887-2.538,0.394
				c-0.17,0.033-0.17,0.033-0.633-0.138c-1.355,0.12-0.463,0.908-1.406,1.851c0,0.344,0,0.344,0.12,0.857
				c0.737,0.82,0.224,0.564,0.224,1.61c2.107,1.577,6.718,0.378,8.348-1.663c1.541-2.76-0.412-11.671-3.051-9.29
				c-4.44,2.658-12.275,1.972-16.18-1.146c-0.688-0.086-0.894,0.188-1.425,0.496c-5.398,4.594-6.924,11.364,1.714,12.597
				C16.803,36.719,16.803,36.719,16.854,36.772L16.854,36.772z M13.718,17.181c-0.513-0.925-1.559-4.867,0.821-3.685
				c0.019,0.172,0.036,0.343,0.054,0.514c-0.035,0.017-0.068,0.035-0.086,0.069c-0.771-0.377-0.84-0.172-1.132,0.514
				c0.051,0,0.104,0,0.17,0c0.018-0.171,0.018-0.171,0.26-0.463c0.395,0,0.857-0.017,0.857,0.686
				c-0.036,0.017-0.069,0.034-0.087,0.051c-0.412-0.411-0.499-0.239-0.839-0.051c0,0.84,0.669,1.457,0.17,2.348
				C13.838,17.164,13.769,17.164,13.718,17.181L13.718,17.181z M32.693,19.667c-0.48-0.481,0.341-1.749,0.734-2.092
				c1.114,0-0.665,1.526-0.582,1.92c0.499-0.565,1.063-1.183,1.063-1.885c-0.412-0.274-0.481-0.12-0.651-0.171
				c-0.018-0.035-0.036-0.069-0.051-0.087c0.084-0.119,0.17-0.239,0.274-0.342c0.152,0,0.308,0,0.463,0
				c0.069,0.068,0.138,0.137,0.222,0.206c0-0.069,0.018-0.12,0.035-0.172c-0.257-0.377-0.567-0.24-0.824-0.223
				c0-0.171,0-0.343,0-0.514C35.965,16.307,34.627,19.905,32.693,19.667L32.693,19.667z M22.338,25.921
				c-4.49-0.222-10.128-2.159-8.655-7.455c0.91-2.108,0.91-2.108,0.979-2.451c-0.036-0.018-0.069-0.034-0.087-0.051
				c-0.119,0.085-0.239,0.171-0.344,0.274c-0.394-0.395-0.308-0.995-0.292-1.372c0.104-0.017,0.224-0.034,0.343-0.034
				c0.188,0.257,0.293,0.36,0.344,0.84c0.549-0.36,0.308-5.331,1.851-7.318c5.587-3.719,16.918-2.52,16.918,5.947
				c-0.55,3.034-0.514,8.261-3.222,10.283C27.567,25.716,24.996,25.921,22.338,25.921z"/>
			<path i:knockout="Off" fill="#99AED3" d="M21.894,43.114c-1.953-0.224-4.593-0.068-6.205-0.875
				c0.601-2.279-0.032-4.046-1.062-5.091c1.851-0.068,4.458,0.669,4.679-1.714c0.018-0.018,4.527,0.051,5.554-0.103
				c0.43,1.61,2.4,1.372,3.89,1.423c-0.752,2.022-0.925,2.914-0.546,5.191c-0.087,0.104-0.173,0.225-0.242,0.344
				C25.939,42.479,23.814,43.009,21.894,43.114z"/>
			<path i:knockout="Off" d="M7.033,39.444c0-0.684-0.033-1.388,0.224-1.866c0.051,0,0.102,0.016,0.17,0.033
				C7.34,37.885,7.084,39.444,7.033,39.444z"/>
			<path i:knockout="Off" d="M35.022,38.811c0-0.806-0.257-1.354-0.687-1.782c0.068-0.019,0.155-0.019,0.242-0.019
				c0.343,0.481,0.531,0.96,0.582,1.682C35.109,38.724,35.058,38.76,35.022,38.811z"/>
			<path i:knockout="Off" fill="#CA7B41" d="M20.917,34.097c-1.493-0.463-1.493-0.463-1.577-0.547
				c0.084-2.144-0.755-2.212-2.486-2.144c-1.146-1.475-1.216-2.896-1.646-4.199c2.007,0.034,4.027,0.069,6.052,0.121
				c0.857,2.005,2.315,1.131,3.428,0.016c1.371,0.035,2.741,0.069,4.111,0.103c0,4.097-1.522,1.286-2.277,3.565
				c-1.526,0.206-1.765,1.338-1.956,2.743C23.369,33.909,22.049,34.097,20.917,34.097z"/>
			<path i:knockout="Off" d="M22.457,31.184c-0.221-0.532-0.134-0.737-0.119-1.115c0.051-0.017,0.104-0.033,0.173-0.033
				C22.732,30.293,23.075,31.03,22.457,31.184z"/>
			<path i:knockout="Off" fill="#CCE968" d="M14.799,30.549c-0.361-1.269-0.43-2.263-0.394-3.393
				c0.188,0.017,0.376,0.051,0.563,0.085c0.155,1.029,0.651,2.144,0.821,3.291C15.45,30.532,15.124,30.532,14.799,30.549
				L14.799,30.549z M19.836,35.058c0-0.344,0-0.669,0-0.994c1.525,0.376,3.207,0.102,4.852-0.104
				c0.051,0.292,0.428,0.48,0.428,0.911C24.653,35.126,20.643,35.247,19.836,35.058L19.836,35.058z M29.194,30.549
				c-0.221-0.222-0.221-0.222-0.547-0.428c0.152-0.909,0.326-1.817,0.496-2.708c0.155,0,0.311,0,0.463,0.016
				c0,0.978-0.084,2.04-0.206,3.103C29.332,30.532,29.262,30.532,29.194,30.549z"/>
			<path i:knockout="Off" d="M25.372,29.915c-0.188-0.154-0.376-0.291-0.563-0.428c0.343,0,0.43,0.036,0.788,0.343
				C25.545,29.915,25.545,29.915,25.372,29.915z"/>
			<path i:knockout="Off" d="M19.717,29.864c-0.019-0.069-0.033-0.137-0.033-0.189c0.084-0.069,0.582-0.667,0.771-0.358
				C20.197,29.743,20.129,29.864,19.717,29.864z"/>
			<path i:knockout="Off" fill="#F9DF76" d="M21.293,6.555c0.138,0.068,0.274,0.12,0.43,0.12c2.261-0.429,9.29,3.959,4.695,8.261
				c0,1.406-3.034,5.227-1.953,5.227c0,4.234-2.279,3.429-4.046,5.554c0.651,0.104,1.305,0.171,1.92,0.206
				c2.658,0,5.229-0.206,7.835-1.337c2.708-2.021,2.672-7.249,3.222-10.283C33.395,7.874,26.879,5.629,21.293,6.555z"/>
			<path i:knockout="Off" d="M26.916,24.773c-0.684-0.531-1.012-1.457-0.926-2.124c0.138,0.083,1.2,1.662,1.149,2.124
				C27.053,24.773,26.984,24.773,26.916,24.773z"/>
			<path i:knockout="Off" fill="#99AED3" d="M26.916,24.602c-0.444-0.36-0.633-0.738-0.582-1.165
				c0.152,0.222,0.669,0.684,0.669,1.146C26.966,24.584,26.934,24.584,26.916,24.602z"/>
			<path i:knockout="Off" d="M25.252,22.15c-0.926-0.325-1.012-0.633-1.2-1.336c-1.234,0.772-5.811,0-5.829-2.057
				c2.675,2.93,5.351,1.542,8.692,0.771C28.355,20.729,26.847,22.15,25.252,22.15z"/>
			<path i:knockout="Off" fill="#FF9900" d="M25.202,21.928c-0.788-0.309-0.856-0.635-0.907-1.235
				c1.027-0.204,1.027-0.204,1.302-0.17c0.102,0.17,0.224,0.343,0.343,0.514c0.033-0.17-0.086-0.445-0.086-0.738
				C28.134,19.101,27.704,21.928,25.202,21.928z"/>
			<path i:knockout="Off" d="M28.799,18.586c0-0.086,0-0.155,0-0.223c-0.221-0.035-0.221-0.035-0.289-0.12
				c0.068-0.086,0.068-0.086,0.752-0.24c-0.17,0.154-0.17,0.154-0.34,0.189c0,0.051,0,0.103,0,0.171
				c0.188-0.017,0.376-0.017,0.564-0.017C29.23,18.535,29.005,18.552,28.799,18.586z"/>
			<path i:knockout="Off" d="M22.631,18.38c-0.395-0.394-0.55-0.411-0.926-0.188c-0.051-0.618,0.788-0.309,1.096,0.154
				C22.732,18.346,22.682,18.363,22.631,18.38z"/>
			<path i:knockout="Off" d="M27.892,17.404c-1.132-1.971-2.723-1.902-3.941-0.171c-0.104-0.017-0.188-0.017-0.274-0.017
				c0-1.955,3.804-2.485,4.458-0.172c0.137,0.017,0.289,0.034,0.444,0.052C28.167,17.352,28.167,17.352,27.892,17.404z"/>
			<path i:knockout="Off" d="M15.381,17.232c-0.018-0.069-0.035-0.137-0.035-0.189c0.137-0.034,0.6,0.086,0.72,0.172
				C15.826,17.215,15.603,17.215,15.381,17.232z"/>
			<path i:knockout="Off" d="M15.552,16.787c-0.084-0.034-0.171-0.068-0.239-0.086c-0.018-0.068-0.036-0.12-0.051-0.171
				c0.29,0.017,0.29,0.017,0.734,0.223C15.844,16.752,15.688,16.77,15.552,16.787z"/>
			<path i:knockout="Off" d="M20.573,16.718c-1.183-1.354-0.618-1.852-2.69-1.714c-0.668,0.411-1.045,1.028-1.663,0.617
				c0-0.069,0-0.12,0-0.172c0.069,0.052,0.155,0.103,0.239,0.172c1.389-1.389,4.664-1.526,4.339,1.097
				C20.711,16.718,20.643,16.718,20.573,16.718z"/>
			<path i:knockout="Off" fill="#F9DF76" d="M32.693,19.667c-0.48-0.481,0.341-1.749,0.734-2.092c1.114,0-0.665,1.526-0.582,1.92
				c0.499-0.565,1.063-1.183,1.063-1.885c-0.412-0.274-0.481-0.12-0.651-0.171c-0.018-0.035-0.036-0.069-0.051-0.087
				c0.084-0.119,0.17-0.239,0.274-0.342c0.152,0,0.308,0,0.463,0c0.069,0.068,0.138,0.137,0.222,0.206
				c0-0.069,0.018-0.12,0.035-0.172c-0.257-0.377-0.567-0.24-0.824-0.223c0-0.171,0-0.343,0-0.514
				C35.965,16.307,34.627,19.905,32.693,19.667z"/>
			<path i:knockout="Off" fill="#F9DF76" d="M21.567,26.23l0.051,0.052h0.104v0.085h0.084v0.103l0.087,0.085h0.086h0.084
				c0,0.085,0.361,0.446,0.447,0.446c0.412,0.342,0.926,0.564,1.508,0.702c0.188-0.17,0.395-0.343,0.615-0.531
				c5.59,0.052,5.47-1.096,4.989,3.411c0.051,0.052,0.087,0.103,0.087,0.137c0.17,0,0,0.085,0.17,0.085
				c0,3.24-2.982,1.595-4.509,1.833c-0.068,0.173-0.188,0.362-0.376,0.567c0,0.344,0,0.344,0.12,0.857
				c0.737,0.82,0.224,0.564,0.224,1.61c2.107,1.577,6.718,0.378,8.348-1.663c1.541-2.76-0.412-11.671-3.051-9.29
				C28.217,26.162,24.808,26.608,21.567,26.23z"/>
			<path i:knockout="Off" fill="#F9DF76" d="M28.459,38.297c0.102,0.239,4.885,3.24,3.547,4.574h-0.087c0,0,0,0,0,0.019
				c0.036,0,0.087,0,0.138,0c0.531,0.978-0.138,0.856,1.37,1.319c1.374,0,1.956-0.223,2.487-1.576
				c0.582-2.521,3.515-6.599-1.167-6.599c-2.228-1.852-1.595,0.428-2.347,1.182c-1.045-0.839,0.155-1.319-2.058-0.719
				C29.194,36.634,28.68,37.32,28.459,38.297z"/>
			<path i:knockout="Off" fill="#F9DF76" d="M7.839,44.04c-0.806-0.155-1.577-0.962-2.212-1.973c0.206,0.189,0.379,0.344,0.379,0.36
				c0.358,0,3.103,0.103,3.103-0.617c0.102,0,0.188-0.085,0.274-0.085l0.084-0.087c0,0,0.173-0.274,0.274-0.274
				c0-0.085,0.173-0.444,0.257-0.444v-0.257c0.086,0,0.188-0.361,0.361-0.445c1.062-0.531,3.377-0.618,4.439-0.806
				c0.135-0.019,0.29-0.036,0.445-0.053c0.206,0.771,0.289,1.663,0.325,2.656c-2.039,0.6-3.857,0.464-5.846,1.131
				c-0.033-0.101-0.051-0.205-0.069-0.307c-0.083,0-0.152,0-0.221,0C8.935,43.85,8.866,43.783,7.839,44.04z"/>
		</g>
	</g>
</g>
</svg>
