<?xml version="1.0" encoding="utf-8"?>
<!-- Generator: Adobe Illustrator 12.0.0, SVG Export Plug-In . SVG Version: 6.00 Build 51448)  -->
<!DOCTYPE svg PUBLIC "-//W3C//DTD SVG 1.1//EN" "http://www.w3.org/Graphics/SVG/1.1/DTD/svg11.dtd" [
	<!ENTITY ns_flows "http://ns.adobe.com/Flows/1.0/">
	<!ENTITY ns_extend "http://ns.adobe.com/Extensibility/1.0/">
	<!ENTITY ns_ai "http://ns.adobe.com/AdobeIllustrator/10.0/">
	<!ENTITY ns_graphs "http://ns.adobe.com/Graphs/1.0/">
	<!ENTITY ns_vars "http://ns.adobe.com/Variables/1.0/">
	<!ENTITY ns_imrep "http://ns.adobe.com/ImageReplacement/1.0/">
	<!ENTITY ns_sfw "http://ns.adobe.com/SaveForWeb/1.0/">
	<!ENTITY ns_custom "http://ns.adobe.com/GenericCustomNamespace/1.0/">
	<!ENTITY ns_adobe_xpath "http://ns.adobe.com/XPath/1.0/">
	<!ENTITY ns_svg "http://www.w3.org/2000/svg">
	<!ENTITY ns_xlink "http://www.w3.org/1999/xlink">
]>
<svg  version="1.1"
	 xmlns:x="&ns_extend;" xmlns:i="&ns_ai;" xmlns:graph="&ns_graphs;" i:viewOrigin="-0.2363 64.9995" i:rulerOrigin="0 0" i:pageBounds="0 65 45 0"
	 xmlns="&ns_svg;" xmlns:xlink="&ns_xlink;" xmlns:a="http://ns.adobe.com/AdobeSVGViewerExtensions/3.0/"
	 width="45.73" height="65.236" viewBox="0 0 45.73 65.236" overflow="visible" enable-background="new 0 0 45.73 65.236"
	 xml:space="preserve">
<metadata>
	<variableSets  xmlns="&ns_vars;">
		<variableSet  varSetName="binding1" locked="none">
			<variables></variables>
			<v:sampleDataSets  xmlns:v="&ns_vars;" xmlns="&ns_custom;"></v:sampleDataSets>
		</variableSet>
	</variableSets>
</metadata>
<g id="图层_1" i:layer="yes" i:dimmedPercent="50" i:rgbTrio="#4F008000FFFF">
	<g>
		<g i:knockout="Off">
			<path fill="#333333" d="M1.183,47.467v12.077c0,2.49,1.622,4.512,3.619,4.512h37.307c2.001,0,3.622-2.021,3.622-4.512l0,0V3.807
				C45.73,1.705,44.106,0,42.108,0H4.802C2.804,0,1.183,1.705,1.183,3.807H1.181v43.651C1.181,47.46,1.183,47.464,1.183,47.467z"/>
			
				<linearGradient id="XMLID_3_" gradientUnits="userSpaceOnUse" x1="-41.7021" y1="22.0117" x2="-41.7022" y2="82.7578" gradientTransform="matrix(1 0 0 -1 64.2148 87.0107)">
				<stop  offset="0.0393" style="stop-color:#0060B6"/>
				<stop  offset="0.0899" style="stop-color:#2089B9"/>
				<stop  offset="0.0985" style="stop-color:#4FA3C2"/>
				<stop  offset="0.1071" style="stop-color:#77B9CA"/>
				<stop  offset="0.1138" style="stop-color:#8FC7CF"/>
				<stop  offset="0.118" style="stop-color:#98CCD1"/>
				<stop  offset="0.1341" style="stop-color:#9ECFD3"/>
				<stop  offset="0.156" style="stop-color:#AFD6D9"/>
				<stop  offset="0.1809" style="stop-color:#CBE1E3"/>
				<stop  offset="0.1966" style="stop-color:#E1EAEB"/>
				<a:midPointStop  offset="0.0393" style="stop-color:#0060B6"/>
				<a:midPointStop  offset="0.5" style="stop-color:#0060B6"/>
				<a:midPointStop  offset="0.0899" style="stop-color:#2089B9"/>
				<a:midPointStop  offset="0.5" style="stop-color:#2089B9"/>
				<a:midPointStop  offset="0.0985" style="stop-color:#4FA3C2"/>
				<a:midPointStop  offset="0.5" style="stop-color:#4FA3C2"/>
				<a:midPointStop  offset="0.1071" style="stop-color:#77B9CA"/>
				<a:midPointStop  offset="0.5" style="stop-color:#77B9CA"/>
				<a:midPointStop  offset="0.1138" style="stop-color:#8FC7CF"/>
				<a:midPointStop  offset="0.5" style="stop-color:#8FC7CF"/>
				<a:midPointStop  offset="0.118" style="stop-color:#98CCD1"/>
				<a:midPointStop  offset="0.5" style="stop-color:#98CCD1"/>
				<a:midPointStop  offset="0.1341" style="stop-color:#9ECFD3"/>
				<a:midPointStop  offset="0.5" style="stop-color:#9ECFD3"/>
				<a:midPointStop  offset="0.156" style="stop-color:#AFD6D9"/>
				<a:midPointStop  offset="0.5" style="stop-color:#AFD6D9"/>
				<a:midPointStop  offset="0.1809" style="stop-color:#CBE1E3"/>
				<a:midPointStop  offset="0.5" style="stop-color:#CBE1E3"/>
				<a:midPointStop  offset="0.1966" style="stop-color:#E1EAEB"/>
			</linearGradient>
			<path fill="url(#XMLID_3_)" d="M44.787,60.488c0,2.493-1.624,4.512-3.62,4.512H3.858c-1.999,0-3.62-2.019-3.62-4.512V8.765
				c0-2.49,1.623-4.511,3.62-4.511h37.307c2.001,0,3.619,2.021,3.619,4.511v51.723H44.787z"/>
			<path fill="none" stroke="#333333" stroke-width="0.4727" d="M44.787,60.488c0,2.493-1.624,4.512-3.62,4.512H3.858
				c-1.999,0-3.62-2.019-3.62-4.512V8.765c0-2.49,1.623-4.511,3.62-4.511h37.307c2.001,0,3.619,2.021,3.619,4.511v51.723H44.787z"/>
			<path fill="#FFFFFF" d="M0.236,4.752c0-2.101,1.623-3.807,3.62-3.807h37.309c1.999,0,3.619,1.705,3.619,3.807v43.653
				c0,2.102-1.621,3.804-3.619,3.804H3.856c-1.999,0-3.62-1.702-3.62-3.807V4.752L0.236,4.752z"/>
			
				<linearGradient id="XMLID_4_" gradientUnits="userSpaceOnUse" x1="2.5527" y1="25.2319" x2="46.6465" y2="25.2319" gradientTransform="matrix(-1 0 0 1 47.1094 1.3447)">
				<stop  offset="0" style="stop-color:#A2D8E0"/>
				<stop  offset="0.0899" style="stop-color:#1878AD"/>
				<stop  offset="0.2135" style="stop-color:#194D91"/>
				<stop  offset="0.6404" style="stop-color:#2B90BD"/>
				<stop  offset="0.9438" style="stop-color:#82CBDE"/>
				<stop  offset="1" style="stop-color:#1A478D"/>
				<a:midPointStop  offset="0" style="stop-color:#A2D8E0"/>
				<a:midPointStop  offset="0.5" style="stop-color:#A2D8E0"/>
				<a:midPointStop  offset="0.0899" style="stop-color:#1878AD"/>
				<a:midPointStop  offset="0.5" style="stop-color:#1878AD"/>
				<a:midPointStop  offset="0.2135" style="stop-color:#194D91"/>
				<a:midPointStop  offset="0.5" style="stop-color:#194D91"/>
				<a:midPointStop  offset="0.6404" style="stop-color:#2B90BD"/>
				<a:midPointStop  offset="0.5" style="stop-color:#2B90BD"/>
				<a:midPointStop  offset="0.9438" style="stop-color:#82CBDE"/>
				<a:midPointStop  offset="0.5" style="stop-color:#82CBDE"/>
				<a:midPointStop  offset="1" style="stop-color:#1A478D"/>
			</linearGradient>
			<path i:isolated="yes" i:knockout="Off" opacity="0.1" fill="url(#XMLID_4_)" enable-background="new    " d="M0.463,4.752
				c0-2.101,1.603-3.807,3.58-3.807h36.934c1.977,0,3.58,1.705,3.58,3.807v43.653c0,2.102-1.604,3.804-3.58,3.804H4.043
				c-1.977,0-3.578-1.702-3.578-3.807L0.463,4.752L0.463,4.752z"/>
			<path fill="none" stroke="#4D4D4D" stroke-width="0.4727" d="M0.236,48.414v12.074c0,2.493,1.623,4.512,3.62,4.512h37.309
				c1.999,0,3.619-2.019,3.619-4.512V4.752c0-2.102-1.621-3.806-3.619-3.806H3.858c-1.999,0-3.622,1.705-3.622,3.806v43.653
				C0.236,48.408,0.236,48.411,0.236,48.414z"/>
		</g>
		<g>
			<path i:knockout="Off" d="M25.923,44.605c-0.601-0.231-1.021,0.067-1.499-0.218c-1.021-1.104-1.075-1.429,0.463-1.934
				c-0.012-0.299-0.026-0.599-0.039-0.898c-0.83-0.067-2.218-0.409-2.929-0.231c-0.012,0.273-0.027,0.545-0.039,0.816
				c0.965-0.096,1.55,0.273,1.048,1.293c-0.845,0.328-4.222,0.858-4.792,0.478c-0.355-1.09,0.734-1.415,1.538-1.771
				c-0.081-0.625-0.284-1.361-0.367-1.904c-2.479-1.553-0.26-1.471,0.218-3.854c-0.325,0.109-0.325,0.109-0.639,0.109
				c-0.165-0.165-0.573-1.389-0.776-1.688c-0.054,0-0.096,0.012-0.138,0.027c-0.559,2.042,0.015,2.26-2.149,2.639
				c-0.245,0.614,2.762,3.133,0.164,3.281c-0.681,0.682-1.171,0.313-1.499-0.298c-0.054,0-0.096,0-0.138,0
				c-0.761,0.884-1.618,0.761-1.618-0.396c-0.26-0.054-0.504-0.109-0.749-0.163c-0.49-0.994,1.129-1.579,1.729-2.042
				c0-0.109,0-0.205,0.015-0.301c-0.37-0.082-0.734-0.162-1.104-0.244c-0.773-0.899,0.149-4.575,0.383-5.689
				c-1.879-0.573-2.219-1.212-2.86-2.777c-2.23-0.776-1.033-1.472-1.156-3.31c-2.735-0.721-1.836-0.667-1.836-3.498
				c-0.436-0.382-0.956-0.79-1.186-1.13c0.666-6.671,2.41-10.292,8.739-12.824c0-0.654-0.122-1.892,0.681-2.042
				c0.039,0.068,0.081,0.136,0.138,0.205c-0.436,1.184-0.436,1.184-0.436,1.32c0.283,0.286,3.782-0.449,4.792-0.476
				c1.048,0.136,2.164,0.408,3.267,0.68c0.436-1.157,0.436-1.157,0.504-1.225c0.081,0.013,0.177,0.027,0.271,0.041
				c0,0.462-0.179,0.843-0.259,1.347c2.138,0.803,2.818,1.089,4.52,2.736c1.416-0.041,1.416-0.041,1.729,0
				c0.068,0.123,0.068,0.123,0.068,0.299c-0.409,0.205-0.887,0.15-1.254,0.231c1.472,2.723,2.451,5.064,2.559,8.305
				c-0.788,2.763-4.043,3.293-4.628,6.398c-0.164,0.245-0.313,0.407-0.559,0.448c0.11,0.736,0.395,1.58,0.696,2.41
				c1.09,2.26,3.634,8.387,3.361,10.892c-0.884,0.681-2.409,1.333-3.403,1.634c0.015,0.286,0.042,0.571,0.068,0.856
				C29.583,42.14,27.598,44.469,25.923,44.605z"/>
			<path i:knockout="Off" fill="#C9A4B7" d="M13.535,37.036c-0.206-0.068-0.409-0.136-0.601-0.19
				c-0.068-0.79-0.068-0.79-0.039-2.056c0.096,0.015,0.203,0.026,0.311,0.042c0.027,0.066,0.058,0.134,0.096,0.202
				c0.042,0,0.084,0,0.138,0c0.026-0.054,0.054-0.095,0.096-0.136c0.08,0.014,0.176,0.029,0.271,0.041
				c0.054,0.164,0.054,0.164,0.176,0.26c0.26-0.327,0.708-0.123,0.833-0.586c0.177-0.055,0.257-0.109,0.353-0.232
				c-0.068-0.041-0.137-0.08-0.191-0.123c0-0.148,0-0.285,0-0.42c0.206-0.055,0.287-0.082,0.329-0.272c-0.084,0-0.164,0-0.233,0
				c0-0.558-0.203-0.954-0.203-1.361c-0.054-0.015-0.11-0.027-0.164-0.027c-0.068,0.067-0.122,0.149-0.176,0.23
				c-0.218-0.027-0.437-0.054-0.642-0.067c0.068-0.231,0.068-0.231,0.057-0.436c-0.057,0-0.111,0.013-0.165,0.028
				c-0.095,0.271-0.148,0.352-0.367,0.312c0.042-0.258,0.081-0.518,0.123-0.763c1.361-0.176,3.239-0.57,3.729-2.178
				c1.457-1.088,5.053,0.313,6.835-0.667c0.734-0.666,0.91-1.442,1.197-2.328c0.054-0.013,0.11-0.027,0.164-0.027
				c0.612,1.878,1.335,3.785,2.383,5.651c0,0.517-2.084,1.755-2.559,1.862c0.065-1.21,0.134-2.421,0.203-3.633
				c-0.57-0.096-0.544,4.139-0.57,4.914c-0.287,0-0.711-0.531-0.765-0.585c-0.353,0.04-0.681,0.313-0.911,0.313
				c-0.19-0.287-0.328-0.643-0.462-0.736c-0.233,0.189-0.451,0.395-0.669,0.6c-0.313-0.069-0.341-0.259-0.437-0.422
				c-0.08-0.015-0.161-0.027-0.244-0.027c-0.708,0.735-1.197,1.39-2.139,1.701c-0.244-2.151,0.18-4.383,0.547-6.398
				c-0.054,0-0.096,0-0.138,0c-0.379,1.784-0.653,3.526-0.72,5.473c-0.068,0-0.137,0-0.19,0c-1.09-1.416-1.281-3.226-1.361-4.832
				c-0.069,0.013-0.123,0.027-0.177,0.04c-0.206,1.294,0.517,2.396,0.517,3.675C16.774,37.363,17.47,37.036,13.535,37.036
				L13.535,37.036z M24.37,40.983c2.123-0.148,3.445-0.434,5.339-1.606c0-2.109-1.021-4.886-1.977-6.697
				c-0.23,0-2.069,1.28-2.41,1.47c-0.298,0.777,0.52,1.524-0.585,1.741c-0.952,0.505-1.021-0.257-1.591,0.409
				c-0.995-0.136-0.995-0.136-1.171-0.107c-0.096,0.421-0.191,0.856-0.191,1.293c0.693,0,0.804,0.543,0.872,1.224
				c0.666,0.287,1.075,1.021,0.039,1.117c0.042,0.326,0.096,0.653,0.149,0.994C23.146,40.889,23.146,40.889,24.37,40.983
				L24.37,40.983z M18.98,38.737c0.448-0.341,0.747-0.68,1.332-0.911c0.11-0.6,0.218-1.186,0.341-1.771
				C20.002,36.165,19.143,38.029,18.98,38.737L18.98,38.737z M18.79,39.254c0-0.218,0.012-0.204,0.096-0.381
				c0.012,0.014,0.038,0.027,0.068,0.041c-0.015,0.108-0.03,0.218-0.03,0.34C18.87,39.254,18.829,39.254,18.79,39.254L18.79,39.254z
				 M19.838,39.935c-0.271-0.178-0.271-0.178-0.409-0.204c0-0.054,0-0.096,0-0.136c0.176-0.014,0.421-0.163,0.639-0.219
				C19.96,39.88,19.88,39.976,19.838,39.935z"/>
			<path i:knockout="Off" fill="#977B8A" d="M20.423,35.742c0.042-0.258,0.26-0.612,0.544-0.543
				c-0.081,0.149-0.149,0.313-0.219,0.476C20.641,35.688,20.53,35.715,20.423,35.742L20.423,35.742z M22.833,35.987
				c-0.313-0.096-0.313-0.096-0.776-0.107c0.137-0.601,0.095-1.253,0.681-1.389c0.19,0.299,0.34,0.666,0.45,0.803
				c0.338-0.244,0.463-0.382,0.911-0.489c0.218,0.229,0.448,0.461,0.681,0.708c-0.096,0.162-0.409,0.189-0.543,0.379
				c-0.711-0.107-0.601-0.57-1.171,0.096C22.981,35.987,22.901,35.987,22.833,35.987L22.833,35.987z M14.12,34.75
				c0.012-0.069,0.027-0.137,0.042-0.191c-0.084-0.014-0.152-0.027-0.218-0.027c-0.042,0.041-0.069,0.082-0.096,0.137
				c-0.069-0.014-0.138-0.014-0.206-0.014c0-0.109,0-0.219,0-0.314c-0.027-0.026-0.054-0.039-0.065-0.055
				c-0.18,0.219-0.313,0.26-0.547,0.232c0-0.723,0.176-1.348,0.287-1.946c0.08-0.027,0.164-0.042,0.26-0.054
				c0.012,0.272,0.012,0.272,0.08,0.326c0.122-0.096,0.122-0.096,0.191-0.258c0.406,0.04,0.406,0.04,0.501,0.109
				c-0.026,0.054-0.038,0.123-0.054,0.191c0.451-0.233,0.804,0.054,0.505,0.652c-0.11,0-0.218,0.014-0.313,0.028
				c0.027,0.108-0.015,0.135,0.218,0.245c0,0.096,0.016,0.191,0.027,0.299c-0.299,0.068-0.299,0.068-0.341,0.137
				c0.149,0.123,0.203,0.123,0.203,0.408C14.487,34.72,14.487,34.72,14.12,34.75z"/>
			<path i:knockout="Off" fill="#FF9900" d="M13.535,31.087c-2.765-0.137-4.07-3.595-2.437-5.459
				c0.394-0.027,0.394-0.027,2.479,0.136c-0.138,0.34-0.914,2.247-0.505,2.492c0.068-0.04,0.926-2.042,1.224-2.436
				c1.416-0.014,2.983-0.123,4.494,0.027C17.1,28.513,17.073,31.087,13.535,31.087z"/>
			<path i:knockout="Off" fill="#F8355B" d="M18.924,26.253c0.355-0.681,0.615-0.557,1.457-0.434
				C20.124,26.077,19.226,26.199,18.924,26.253z"/>
			<path i:knockout="Off" fill="#FFFFCC" d="M26.508,24.524c-0.286-0.775,0.096-1.4,0.818-1.538
				c-0.122,0.681-0.191,1.048-0.776,1.593C26.535,24.551,26.523,24.539,26.508,24.524L26.508,24.524z M9.588,25.981
				c0-0.163,0-0.326,0-0.49c0.08,0,0.176,0,0.271,0.013c0.054,0.083,0.107,0.163,0.176,0.245
				C9.928,25.913,9.722,25.941,9.588,25.981L9.588,25.981z M17.523,28.896c0.368-0.885,0.843-1.526,1.061-2.233
				c0.152-0.014,0.313-0.027,0.478-0.027c0.176,0.367,0.299,0.639,0.367,1.212c0.042,0,0.081,0,0.138,0
				c0-0.559-0.152-0.941-0.191-1.362c2.081-0.64,1.155-0.518,2.272,1.048c0.436-0.436-0.49-1.499-0.448-1.66
				c1.117-0.436,2.081,0.067,2.138,1.292c0.039-0.015,0.093-0.027,0.149-0.042c0.149-0.532-0.164-0.926-0.206-1.279
				c0.585,0.013,1.063,0.055,1.729,0.231C24.412,29.93,20.844,28.2,17.523,28.896L17.523,28.896z M9.722,28.188
				C9.6,28.119,9.478,28.05,9.37,27.983c-0.245-0.832-0.096-1.975,0.979-1.811c0.027,0.176-0.164,0.994-0.244,1.987
				C9.967,28.16,9.845,28.173,9.722,28.188L9.722,28.188z M25.46,25.913c0.26,0,0.421-0.039,0.708-0.149
				c0.218-1.266-0.448-1.919,0.517-2.886c5.242-1.918,4.467-4.41,2.887-9.053c-0.245-0.449-1.239-2.436-1.66-2.436
				c-0.585,0.64-0.859,0.789-1.525,0.354c-0.015-0.069-0.027-0.136-0.042-0.191c0.233-0.231,0.723,0.055,1.319-0.544
				c0-0.953-3.415-2.477-4.108-2.532c-0.029,0.164-0.057,0.34-0.083,0.517c-0.135,0.082-0.135,0.082-0.299,0.068
				c-0.203-0.272-0.107-0.572-0.107-0.803c-3.01-0.749-4.207-0.926-7.217-0.15c0.042,0.205,0.788,0.722,0.313,1.198
				c-0.096-0.014-0.19-0.027-0.271-0.027c-0.138-0.545-0.218-0.885-0.776-0.885c-6.02,2.314-8.36,5.977-8.605,12.471
				c0.355,0.298,0.723,0.599,1.09,0.899c0,1.048-0.081,1.551-0.138,2.721c0.382,0.313,1.239,0.491,1.893,0.572
				c0.177-0.436,0.383-0.816,0.627-1.197c0.013,0.014,0.039,0.027,0.069,0.041c0,0.3-0.26,0.858-0.329,1.266
				c0.682,0.136,1.702,0.163,2.56,0.136c0.083-0.532,0.11-0.926,0.478-1.293c0.042,0,0.08,0,0.137,0
				c0.013,0.042,0.039,0.081,0.066,0.123c-0.299,0.394-0.313,0.734-0.38,1.266c1.197,0.096,2.326,0.096,3.649,0.042
				c0-0.422,0-0.845,0-1.266c0.065-0.042,0.065-0.042,0.148,0c0.042,0.448,0.096,0.899,0.149,1.36
				c0.994-0.027,1.989-0.054,2.995-0.067c0.015-0.409,0.026-0.818,0.042-1.212c0.065,0,0.134,0,0.203,0.015
				c0.015,0.408,0.041,0.815,0.068,1.224c0.994,0.04,2.165,0.191,3.239,0.04c0.016-0.461,0.042-0.912,0.069-1.36
				c0.054,0,0.122,0,0.19,0.012c0.012,0.451,0.027,0.898,0.039,1.361C24.045,25.614,24.672,25.709,25.46,25.913L25.46,25.913z
				 M21.784,40.711c-0.041-0.028-0.164-0.926-0.137-1.09c0.271,0.04,0.271,0.04,0.382,0.109c0,0.042,0.015,0.082,0.027,0.137
				c0.041,0.013,0.08,0.027,0.137,0.041c0.066,0.162,0.135,0.327,0.203,0.503c-0.08,0.096-0.164,0.191-0.245,0.3
				C22.029,40.711,21.907,40.711,21.784,40.711L21.784,40.711z M15.21,40.657c-0.341-0.341-0.191-0.681-0.179-1.007
				c0.164,0.012,0.328,0.027,0.492,0.054C15.523,40.167,15.712,40.494,15.21,40.657L15.21,40.657z M13.344,40.616
				c-0.286-0.285,0.164-0.898,0.233-1.116c0.229-0.014,0.229-0.014,0.447,0.068C14.12,39.976,13.779,40.534,13.344,40.616
				L13.344,40.616z M20.519,40.576c-0.054-0.042-0.11-0.082-0.164-0.11c0.054-0.788-0.096-1.347,0.723-0.774
				c-0.081,0.272-0.149,0.545-0.218,0.816C20.736,40.52,20.626,40.549,20.519,40.576L20.519,40.576z M16.297,40.249
				c-0.096-0.108-0.096-0.108-0.311-0.831c0.271,0.068,0.869,0.218,0.489,0.831C16.407,40.249,16.354,40.249,16.297,40.249
				L16.297,40.249z M12.392,39.595c0.517-0.067,0.994-0.285,1.048-0.858C13.03,38.833,12.46,39.172,12.392,39.595L12.392,39.595z
				 M22.656,39.528c-0.122-0.082-0.245-0.164-0.355-0.245c0-0.055,0-0.096,0-0.137c0.191-0.191,0.734-0.163,0.734,0.313
				C22.928,39.528,22.928,39.528,22.656,39.528L22.656,39.528z M15.21,39.39c-0.096-0.054-0.179-0.107-0.26-0.149
				c0-0.271,0-0.271,0.096-0.816C15.998,38.424,16.339,39.39,15.21,39.39L15.21,39.39z M14.162,39.35
				c-1.036-0.313-0.042-1.633,0.612-1.116C14.774,38.587,14.786,39.35,14.162,39.35L14.162,39.35z M19.291,39.283
				c0-0.585,0.341-0.954,0.914-1.049C20.205,38.847,20.002,39.31,19.291,39.283L19.291,39.283z M21.334,39.254
				c0.206,0,0.37-0.054,0.615-0.149c0.08-0.531,0.367-0.816,0.107-1.212c-0.49-0.082-0.857-0.054-1.225-0.04
				C20.369,38.642,20.327,38.997,21.334,39.254L21.334,39.254z M14.936,38.029c0.068-0.014,0.137-0.014,0.206-0.014
				c0.054-0.258,0.107-0.517,0.164-0.774c-0.383,0-0.765,0-1.144,0c0.026,0.189,0.054,0.381,0.093,0.585
				C14.515,37.853,14.595,37.839,14.936,38.029L14.936,38.029z M20.748,37.512c0.058-1.075,0.368-2,0.682-2.926
				c0.041,0,0.083,0,0.137,0c0.627,0.707,0.054,1.822-0.164,2.788C21.185,37.417,20.967,37.458,20.748,37.512L20.748,37.512z
				 M25.965,44.114c-0.275-0.176-0.383-0.257-0.233-0.475c0.26-0.028,0.517-0.056,0.776-0.068c0.016,0.203,0.016,0.203-0.068,0.436
				C26.194,44.114,26.194,44.114,25.965,44.114L25.965,44.114z M24.833,44.06c-0.012-0.068-0.026-0.136-0.026-0.191
				c0.19-0.107,0.298-0.176,0.573-0.229c-0.058,0.135-0.111,0.271-0.165,0.407C25.078,44.046,24.955,44.046,24.833,44.06
				L24.833,44.06z M18.613,43.679c0.013-0.15,0.027-0.3,0.039-0.436c0.328,0,0.328,0,0.478,0.082
				c-0.015,0.054-0.015,0.122-0.015,0.191C18.939,43.571,18.775,43.625,18.613,43.679L18.613,43.679z M24.328,43.611
				c-0.065-0.109-0.065-0.109-0.065-0.341c0.218-0.108,0.692-0.326,0.994-0.136c-0.015,0.054-0.029,0.123-0.042,0.191
				C24.917,43.501,24.588,43.611,24.328,43.611L24.328,43.611z M26.875,43.517c-0.054-0.028-0.107-0.042-0.164-0.056
				c0-0.191,0-0.191,0.164-0.763C27.732,42.603,28.183,43.517,26.875,43.517L26.875,43.517z M25.869,43.339
				c-0.397-0.069-0.302-0.151-0.274-0.381c0.286-0.082,0.546-0.178,0.955-0.138C26.481,43.311,26.278,43.298,25.869,43.339
				L25.869,43.339z M19.429,43.298c0.11,0,0.914,0.081,1.063-0.068c-0.016-0.204-0.027-0.394-0.027-0.585
				C20.205,42.618,18.706,42.944,19.429,43.298L19.429,43.298z M20.967,43.204c-0.054-0.042-0.096-0.069-0.135-0.096
				c-0.015-0.109-0.026-0.218-0.026-0.327c0.19-0.191,0.311-0.259,0.665-0.259c0.177,0.23,0.177,0.23,0.203,0.395
				c-0.08,0.096-0.161,0.191-0.244,0.287C21.268,43.204,21.116,43.204,20.967,43.204L20.967,43.204z M22.151,43.162
				c-0.068-0.04-0.122-0.069-0.176-0.096c-0.015-0.096-0.026-0.189-0.026-0.285C22.301,42.427,23.104,42.876,22.151,43.162
				L22.151,43.162z M25.46,42.645c-0.068-1.144-0.068-1.144-0.138-1.415c0.219-0.028,0.451-0.056,0.682-0.084
				c0.083,0.342,0.26,0.818,0.205,1.268C26.045,42.507,26.045,42.507,25.46,42.645L25.46,42.645z M20.519,42.385
				c0.952-0.135,0.952-0.952,0.585-1.634c-0.926,0-0.695-0.026-1.224-0.202c0.065,0.557,0.283,1.144,0.501,1.824
				C20.423,42.374,20.465,42.374,20.519,42.385z"/>
			<path i:knockout="Off" d="M13.072,22.279c-1.239-0.489,1.033-1.96,1.197-0.558C13.956,22.184,13.562,22.279,13.072,22.279z"/>
			<path i:knockout="Off" d="M10.758,20.101c-3.636-0.572-2.765-1.471-1.935-4.819c0.708-1.96,1.988-4.656,4.479-4.479
				c1.048,1.279,1.036,2.491,1.159,4.288C14.461,18.917,14.908,20.101,10.758,20.101z"/>
			<path i:knockout="Off" fill="#FFFFFF" d="M11.627,19.38c-2.57,0.107-3.986-0.341-2.448-4.33c1.511,0,1.959,2.355,3.676,0.83
				c0.447-0.013,0.898-0.013,1.361-0.013C14.105,18.399,14.323,19.257,11.627,19.38z"/>
			<path i:knockout="Off" d="M33.041,16.425c-0.257-0.123-0.203-0.15-0.271-0.246c0.041-0.068,0.083-0.136,0.137-0.204
				c1.278-0.191,3.063-3.09,3.905-3.09C37.125,13.362,33.71,16.343,33.041,16.425z"/>
			<path i:knockout="Off" fill="#FFFFCC" d="M13.072,15.608C11.695,15.5,10.54,15.2,9.354,14.737c0-1.456,2.043-3.839,3.813-3.662
				c0.964,1.348,0.938,2.709,1.021,4.479C13.888,15.608,13.888,15.608,13.072,15.608z"/>
			<path i:knockout="Off" d="M37.768,14.383c-0.313-0.354,0.054-1.116,0.218-1.362c0.135,0,0.135,0,0.325,0.123
				c-0.026,0.436,0.015,0.831-0.325,1.239C37.901,14.383,37.833,14.383,37.768,14.383z"/>
			<path i:knockout="Off" d="M40.299,13.661c-0.45-0.177-0.653-0.626-0.653-0.925c0.421-0.258,0.803,0.327,0.898,0.816
				C40.461,13.648,40.461,13.648,40.299,13.661z"/>
			<path i:knockout="Off" d="M35.492,12.532c-0.229-0.231-0.164-0.313-0.164-0.517c0.26-0.205,0.887-0.572,1.269-0.191
				C36.54,12.205,35.833,12.532,35.492,12.532z"/>
			<path i:knockout="Off" d="M38.12,11.933c-2.027-0.463,0.734-2.955,0.925-0.653C38.911,11.715,38.556,11.878,38.12,11.933z"/>
			<path i:knockout="Off" fill="#C42B62" d="M37.985,11.443c-0.478-0.313,0.271-0.572,0.502-0.599c0.083,0.15,0.148,0.163,0.11,0.49
				C38.38,11.402,38.188,11.443,37.985,11.443z"/>
			<path i:knockout="Off" d="M40.571,11.116c-0.084-0.109-0.084-0.109-0.11-0.327c0.354-0.286,0.803-0.612,1.334-0.463
				C41.795,10.912,41.142,11.116,40.571,11.116z"/>
			<path i:knockout="Off" d="M36.311,10.762c-0.52-0.109-0.75-0.137-0.75-0.572c0.383-0.19,1.103-0.177,1.171,0.463
				C36.608,10.775,36.379,10.762,36.311,10.762z"/>
			<path i:knockout="Off" d="M39.305,9.713c-0.409-0.271,0.054-1.144,0.177-1.361c0.271,0.041,0.271,0.041,0.382,0.123
				C39.863,8.598,39.55,9.877,39.305,9.713z"/>
			<path i:knockout="Off" d="M37.63,9.673c-0.355-0.354-1.102-1.035-0.409-1.144c0.302,0.286,0.737,0.435,0.654,1.034
				C37.672,9.7,37.672,9.7,37.63,9.673z"/>
			<path i:knockout="Off" fill="#CA7B41" d="M13.535,31.087c-1.35-0.068-2.356-0.94-2.834-2.029
				c3.404,1.348,5.652,0.694,6.781-3.295c0.436,0.015,0.884,0.042,1.308,0.083C17.1,28.513,17.073,31.087,13.535,31.087z"/>
			<path i:knockout="Off" fill="#FFFF99" d="M26.508,24.524c-0.286-0.775,0.096-1.4,0.818-1.538
				c-0.122,0.681-0.191,1.048-0.776,1.593C26.535,24.551,26.523,24.539,26.508,24.524L26.508,24.524z M18.775,7.604l0.041,0.04
				h0.054h0.042c0.313,0.518,2.261,1.458,1.947,3.322c-0.096,0,0,0.055-0.096,0.055v0.054v0.055L20.71,11.17h-0.149v0.055h-0.11
				c0,0.204,0.57,0.408,0.57,0.667c0.096,0.054,0.301,0.463,0.355,0.463c0,0.055,0.054,0.205,0.095,0.205
				c0.11,0.517,0.463,2.409,0.11,2.763c0,0.109-0.057,0.205-0.057,0.313h0.057h0.055c0,0.04,0.095,0.096,0.148,0.096
				c0,0.054,0.463,0.462,0.517,0.462c0,0.054,0.245,0.354,0.245,0.409c0.11,0,0.11,0.109,0.164,0.109v0.04v0.055
				c0.096,0,0.096,0.313,0.203,0.313v0.245h0.042c0.11,0.367-0.096,0.871-0.096,1.185c-0.107,0-0.409,0.504-0.517,0.559
				c0,0.162-0.451,0.72-0.612,0.72v0.151c0.054,0.055,0.313,0.354,0.406,0.354v0.054v0.055c1.2,0,0.152,4.247-0.406,5.146
				c0.463,0.013,0.911,0,1.347-0.056c0.016-0.461,0.042-0.912,0.069-1.36c0.054,0,0.122,0,0.19,0.012
				c0.012,0.451,0.027,0.898,0.039,1.361c0.669,0.069,1.296,0.164,2.084,0.367c0.26,0,0.421-0.039,0.708-0.149
				c0.218-1.266-0.448-1.919,0.517-2.886c5.242-1.918,4.467-4.41,2.887-9.053c-0.245-0.449-1.239-2.436-1.66-2.436
				c-0.585,0.64-0.859,0.789-1.525,0.354c-0.015-0.069-0.027-0.136-0.042-0.191c0.233-0.231,0.723,0.055,1.319-0.544
				c0-0.953-3.415-2.477-4.108-2.532c-0.029,0.164-0.057,0.34-0.083,0.517c-0.135,0.082-0.135,0.082-0.299,0.068
				c-0.203-0.272-0.107-0.572-0.107-0.803C21.238,7.794,20.083,7.563,18.775,7.604L18.775,7.604z M21.784,25.723
				c0.857-0.082,1.511,0.435,1.553,1.443c0.039-0.015,0.093-0.027,0.149-0.042c0.149-0.532-0.164-0.926-0.206-1.279
				c0.585,0.013,1.063,0.055,1.729,0.231c-0.325,2.178-1.618,2.574-3.266,2.628c1.036-1.852,0.83-2.165,0.148-2.886h-0.054
				L21.784,25.723z"/>
			<path i:knockout="Off" d="M20.748,20.373c-4.612-0.463-3.484-2.191-3.155-6.412c1.782-7.133,7.921,0.178,7.622,4.493
				C24.573,20.441,22.492,20.333,20.748,20.373z"/>
			<path i:knockout="Off" d="M17.073,22.551c-0.517-0.258-0.544-0.599-0.57-0.966C17.903,20.822,18.763,22.225,17.073,22.551z"/>
			<path i:knockout="Off" fill="#FFFFFF" d="M20.423,19.651c-3.377-0.421-2.804-0.98-2.723-3.92c1.743,0.231,2.016,1.456,3.771,0.38
				c0.789-0.013,2.261-0.354,2.995-0.245c0.206,0.667,0.367,1.361,0.478,2.178C23.689,19.583,22.179,19.651,20.423,19.651z"/>
			<path i:knockout="Off" fill="#FFFFCC" d="M21.238,15.798c-1.197-0.067-2.49-0.312-3.538-0.339
				c0.421-3.676,0.967-5.418,4.547-3.118c0.421,0.381,2.191,2.451,2.043,3.227C23.295,15.908,22.137,15.798,21.238,15.798z"/>
			<path i:knockout="Off" fill="#FFFFFF" d="M22.11,16.058c0.791-0.095,1.797-0.272,2.355-0.19c0.206,0.667,0.367,1.361,0.478,2.178
				c-0.845,1.034-1.812,1.401-2.899,1.538c0.161-0.176,0.299-0.381,0.299-0.475c0.107-0.055,0.409-0.559,0.517-0.559
				c0-0.313,0.206-0.817,0.096-1.185h-0.042V17.12c-0.107,0-0.107-0.313-0.203-0.313v-0.055v-0.04c-0.054,0-0.054-0.109-0.164-0.109
				c0-0.055-0.245-0.355-0.245-0.409C22.274,16.194,22.193,16.14,22.11,16.058z"/>
			<path i:knockout="Off" fill="#FFFF99" d="M20.247,11.375c0.528,0.123,1.197,0.435,2,0.966c0.421,0.381,2.191,2.451,2.043,3.227
				c-0.627,0.217-1.335,0.245-1.989,0.245C22.316,15.377,21.238,11.81,20.247,11.375L20.247,11.375z"/>
			<path i:knockout="Off" fill="#E6E6E6" d="M22.45,16.017c0.723-0.095,1.526-0.218,2.016-0.149
				c0.206,0.667,0.367,1.361,0.478,2.178c-0.994,1.212-2.152,1.511-3.457,1.579c1.4-1.416,1.116-1.43,0.964-3.581V16.017z"/>
			<path i:knockout="Off" fill="#FFFF99" d="M13.072,15.608c-0.233-0.013-0.451-0.04-0.669-0.068
				c0.615-1.348,0.478-3.036,0.015-4.397c0.245-0.068,0.505-0.095,0.75-0.068c0.964,1.348,0.938,2.709,1.021,4.479
				C13.888,15.608,13.888,15.608,13.072,15.608z"/>
			<path i:knockout="Off" fill="#E6E6E6" d="M11.627,19.38c-0.283,0.012-0.57,0.012-0.83,0.012c2.233-1.401,2.084-2.109,1.648-3.171
				c-0.012,0-0.012-0.013-0.027-0.013c0.138-0.082,0.287-0.191,0.437-0.327c0.447-0.013,0.898-0.013,1.361-0.013
				C14.105,18.399,14.323,19.257,11.627,19.38z"/>
			<path i:knockout="Off" fill="#977B8A" d="M15.371,31.074c0.845-0.313,1.606-0.832,1.893-1.771
				c1.457-1.088,5.053,0.313,6.835-0.667c0.734-0.666,0.91-1.442,1.197-2.328c0.054-0.013,0.11-0.027,0.164-0.027
				c0.612,1.878,1.335,3.785,2.383,5.651c0,0.517-2.084,1.755-2.559,1.862c0.065-1.21,0.134-2.421,0.203-3.633
				c-0.57-0.096-0.544,4.139-0.57,4.914c-0.287,0-0.711-0.531-0.765-0.585c-0.353,0.04-0.681,0.313-0.911,0.313
				c-0.19-0.287-0.328-0.643-0.462-0.736c-0.191,0.163-0.383,0.327-0.574,0.504c-0.501-1.852,0-4.016-2.489-4.315
				c0.038-0.26,0.08-0.491,0.122-0.736c-0.054,0-0.096,0-0.138,0c-0.038,0.231-0.096,0.476-0.149,0.709
				c-0.19-0.015-0.367-0.015-0.475,0.041v0.067h-0.328c0,0.138-0.068,0-0.068,0.138c-0.341,0-0.598,0.803-0.938,0.803
				c0,0.149-0.084,0.436-0.138,0.708c-0.096-0.627-0.135-1.239-0.176-1.824c-0.069,0.013-0.123,0.027-0.177,0.04
				c-0.206,1.294,0.517,2.396,0.517,3.675c-0.83,2.941-0.478,3.173-2.708,3.159C14.473,35.891,16.828,32.651,15.371,31.074
				L15.371,31.074z M25.161,35.73c2.097,0.87,1.768,2.926,1.878,4.859c0.857-0.231,1.688-0.613,2.67-1.213
				c0-2.109-1.021-4.886-1.977-6.697c-0.23,0-2.069,1.28-2.41,1.47C25.078,34.79,25.595,35.417,25.161,35.73z"/>
		</g>
	</g>
</g>
</svg>
