<?xml version="1.0" encoding="utf-8"?>
<!-- Generator: Adobe Illustrator 12.0.0, SVG Export Plug-In . SVG Version: 6.00 Build 51448)  -->
<!DOCTYPE svg PUBLIC "-//W3C//DTD SVG 1.1//EN" "http://www.w3.org/Graphics/SVG/1.1/DTD/svg11.dtd" [
	<!ENTITY ns_flows "http://ns.adobe.com/Flows/1.0/">
	<!ENTITY ns_extend "http://ns.adobe.com/Extensibility/1.0/">
	<!ENTITY ns_ai "http://ns.adobe.com/AdobeIllustrator/10.0/">
	<!ENTITY ns_graphs "http://ns.adobe.com/Graphs/1.0/">
	<!ENTITY ns_vars "http://ns.adobe.com/Variables/1.0/">
	<!ENTITY ns_imrep "http://ns.adobe.com/ImageReplacement/1.0/">
	<!ENTITY ns_sfw "http://ns.adobe.com/SaveForWeb/1.0/">
	<!ENTITY ns_custom "http://ns.adobe.com/GenericCustomNamespace/1.0/">
	<!ENTITY ns_adobe_xpath "http://ns.adobe.com/XPath/1.0/">
	<!ENTITY ns_svg "http://www.w3.org/2000/svg">
	<!ENTITY ns_xlink "http://www.w3.org/1999/xlink">
]>
<svg  version="1.1"
	 xmlns:x="&ns_extend;" xmlns:i="&ns_ai;" xmlns:graph="&ns_graphs;" i:viewOrigin="-0.2363 64.9995" i:rulerOrigin="0 0" i:pageBounds="0 65 45 0"
	 xmlns="&ns_svg;" xmlns:xlink="&ns_xlink;" xmlns:a="http://ns.adobe.com/AdobeSVGViewerExtensions/3.0/"
	 width="45.729" height="65.236" viewBox="0 0 45.729 65.236" overflow="visible" enable-background="new 0 0 45.729 65.236"
	 xml:space="preserve">
<metadata>
	<variableSets  xmlns="&ns_vars;">
		<variableSet  varSetName="binding1" locked="none">
			<variables></variables>
			<v:sampleDataSets  xmlns:v="&ns_vars;" xmlns="&ns_custom;"></v:sampleDataSets>
		</variableSet>
	</variableSets>
</metadata>
<g id="图层_1" i:layer="yes" i:dimmedPercent="50" i:rgbTrio="#4F008000FFFF">
	<g>
		<g i:knockout="Off">
			<path fill="#333333" d="M1.181,47.467v12.077c0,2.49,1.623,4.512,3.62,4.512h37.309c1.998,0,3.62-2.021,3.62-4.512h-0.002V3.807
				C45.728,1.705,44.106,0,42.109,0H4.801C2.802,0,1.182,1.705,1.182,3.807H1.181v43.651C1.181,47.46,1.181,47.464,1.181,47.467z"/>
			
				<linearGradient id="XMLID_3_" gradientUnits="userSpaceOnUse" x1="-41.7036" y1="22.0117" x2="-41.7036" y2="82.7578" gradientTransform="matrix(1 0 0 -1 64.2148 87.0107)">
				<stop  offset="0.0393" style="stop-color:#0060B6"/>
				<stop  offset="0.0899" style="stop-color:#2089B9"/>
				<stop  offset="0.0985" style="stop-color:#4FA3C2"/>
				<stop  offset="0.1071" style="stop-color:#77B9CA"/>
				<stop  offset="0.1138" style="stop-color:#8FC7CF"/>
				<stop  offset="0.118" style="stop-color:#98CCD1"/>
				<stop  offset="0.1341" style="stop-color:#9ECFD3"/>
				<stop  offset="0.156" style="stop-color:#AFD6D9"/>
				<stop  offset="0.1809" style="stop-color:#CBE1E3"/>
				<stop  offset="0.1966" style="stop-color:#E1EAEB"/>
				<a:midPointStop  offset="0.0393" style="stop-color:#0060B6"/>
				<a:midPointStop  offset="0.5" style="stop-color:#0060B6"/>
				<a:midPointStop  offset="0.0899" style="stop-color:#2089B9"/>
				<a:midPointStop  offset="0.5" style="stop-color:#2089B9"/>
				<a:midPointStop  offset="0.0985" style="stop-color:#4FA3C2"/>
				<a:midPointStop  offset="0.5" style="stop-color:#4FA3C2"/>
				<a:midPointStop  offset="0.1071" style="stop-color:#77B9CA"/>
				<a:midPointStop  offset="0.5" style="stop-color:#77B9CA"/>
				<a:midPointStop  offset="0.1138" style="stop-color:#8FC7CF"/>
				<a:midPointStop  offset="0.5" style="stop-color:#8FC7CF"/>
				<a:midPointStop  offset="0.118" style="stop-color:#98CCD1"/>
				<a:midPointStop  offset="0.5" style="stop-color:#98CCD1"/>
				<a:midPointStop  offset="0.1341" style="stop-color:#9ECFD3"/>
				<a:midPointStop  offset="0.5" style="stop-color:#9ECFD3"/>
				<a:midPointStop  offset="0.156" style="stop-color:#AFD6D9"/>
				<a:midPointStop  offset="0.5" style="stop-color:#AFD6D9"/>
				<a:midPointStop  offset="0.1809" style="stop-color:#CBE1E3"/>
				<a:midPointStop  offset="0.5" style="stop-color:#CBE1E3"/>
				<a:midPointStop  offset="0.1966" style="stop-color:#E1EAEB"/>
			</linearGradient>
			<path fill="url(#XMLID_3_)" d="M44.784,60.488c0,2.493-1.621,4.512-3.619,4.512H3.856c-1.998,0-3.619-2.019-3.619-4.512V8.765
				c0-2.49,1.623-4.511,3.619-4.511h37.308c1.999,0,3.62,2.021,3.62,4.511V60.488L44.784,60.488z"/>
			<path fill="none" stroke="#333333" stroke-width="0.4727" d="M44.784,60.488c0,2.493-1.621,4.512-3.619,4.512H3.856
				c-1.998,0-3.619-2.019-3.619-4.512V8.765c0-2.49,1.623-4.511,3.619-4.511h37.308c1.999,0,3.62,2.021,3.62,4.511V60.488
				L44.784,60.488z"/>
			<path fill="#FFFFFF" d="M0.237,4.752c0-2.101,1.621-3.807,3.619-3.807h37.306c2.001,0,3.622,1.705,3.622,3.807v43.653
				c0,2.102-1.624,3.804-3.622,3.804H3.856c-1.998,0-3.619-1.702-3.619-3.807V4.752L0.237,4.752z"/>
			
				<linearGradient id="XMLID_4_" gradientUnits="userSpaceOnUse" x1="2.5537" y1="25.2319" x2="46.6455" y2="25.2319" gradientTransform="matrix(-1 0 0 1 47.1094 1.3447)">
				<stop  offset="0" style="stop-color:#A2D8E0"/>
				<stop  offset="0.0899" style="stop-color:#1878AD"/>
				<stop  offset="0.2135" style="stop-color:#194D91"/>
				<stop  offset="0.6404" style="stop-color:#2B90BD"/>
				<stop  offset="0.9438" style="stop-color:#82CBDE"/>
				<stop  offset="1" style="stop-color:#1A478D"/>
				<a:midPointStop  offset="0" style="stop-color:#A2D8E0"/>
				<a:midPointStop  offset="0.5" style="stop-color:#A2D8E0"/>
				<a:midPointStop  offset="0.0899" style="stop-color:#1878AD"/>
				<a:midPointStop  offset="0.5" style="stop-color:#1878AD"/>
				<a:midPointStop  offset="0.2135" style="stop-color:#194D91"/>
				<a:midPointStop  offset="0.5" style="stop-color:#194D91"/>
				<a:midPointStop  offset="0.6404" style="stop-color:#2B90BD"/>
				<a:midPointStop  offset="0.5" style="stop-color:#2B90BD"/>
				<a:midPointStop  offset="0.9438" style="stop-color:#82CBDE"/>
				<a:midPointStop  offset="0.5" style="stop-color:#82CBDE"/>
				<a:midPointStop  offset="1" style="stop-color:#1A478D"/>
			</linearGradient>
			<path i:isolated="yes" i:knockout="Off" opacity="0.1" fill="url(#XMLID_4_)" enable-background="new    " d="M0.464,4.752
				c0-2.101,1.602-3.807,3.577-3.807h36.937c1.977,0,3.578,1.705,3.578,3.807v43.653c0,2.102-1.602,3.804-3.578,3.804H4.042
				c-1.975,0-3.579-1.702-3.579-3.807V4.752L0.464,4.752z"/>
			<path fill="none" stroke="#4D4D4D" stroke-width="0.4727" d="M0.237,48.414v12.074C0.237,62.981,1.858,65,3.856,65h37.309
				c1.998,0,3.619-2.019,3.619-4.512V4.752c0-2.102-1.624-3.806-3.622-3.806H3.856c-1.998,0-3.619,1.705-3.619,3.806v43.653
				C0.235,48.408,0.237,48.411,0.237,48.414z"/>
		</g>
		<g>
			<path i:knockout="Off" d="M38.09,6.038c5.134,0.772,2.598,13.052-3.812,6.373C33.163,9.347,34.069,6.038,38.09,6.038z"/>
			<path i:knockout="Off" fill="#FFFFFF" d="M38.126,6.442c4.473,0.993,1.962,10.355-2.045,6.765
				C32.402,11.369,34.069,6.442,38.126,6.442z"/>
			<path i:knockout="Off" d="M27.146,7.693c0.196,0.968,0.231,1.826,0.257,2.671c0.221-0.319,0.307-0.821,0.602-1.054
				c0.759,0.563-0.099,12.989-0.074,15.184c1.557,1.287,1.788,2.072,2.475,3.762c1.177,0,1.938-1.421,2.967-1.496
				c-0.221,0.736-0.711,1.239-0.847,1.9c1.753-0.012,1.753-0.012,3.052-0.097c0,0.123,0,0.231-0.024,0.355
				c-0.797,0.537-1.593,1.066-2.401,1.591c0,0.051,0,0.075,0,0.11c0.661,0.221,2.599,0.355,2.599,1.054
				c-0.994,0.528-3.076,1.066-3.726,1.717c0.049,0.073,0.049,0.073,1.508,0.636c0.012,0.051,0.023,0.087,0.035,0.11
				c-1.372,0.283-7.488-0.244-5.478,2.844c0.772,0.686,0.662,0.725,0.662,1.654c0.244,0.259,4.51,0.209,4.926,0.085
				c0.418-0.6,1.264-1.591,1.473-2.341c0.06-0.012,0.122-0.035,0.182-0.06c0.123-0.98,0.478-4.216,2.23-3.995
				c-0.06,1.433-0.698,2.218-0.881,3.407c0.514,0.036,0.821,0.048,1.212-0.012c0.087,0.134,0.16,0.257,0.233,0.379
				c-1.911,1.899-2.207-1.042-4.252,2.646c1.654,0.821,1.801-0.244,1.58,2.095c-0.183,0.136-7.426,0.099-8.603,0.186
				c-3.848,0.675-6.998-1.129-11.029-1.005c-2.586,0.673-0.503,2.586-0.797,4.583c-5.466-0.122-4.252,0.282-5.136-4.363
				c-0.367-1.2-0.097-1.213-1.384-1.617c-0.797-0.527-1.766-4.436-0.699-5.074c3.97,0,5.87-1.188,5.748,3.688
				c0.527,1.337,6.323-0.526,7.647-0.526c1.457-0.171,3.774-0.612,2.131-2.377c-4.424-0.172-9.717-5.649-5.673-9.928
				c3.566-2.633,0.895-2.633-2.023-3.272c-1.642,0.099-0.576,0.773-1.421,1.202c-3.332-0.662-6.359-2.513-2.866-6.005
				c2.217-0.943,2.805-0.012,4.177-2.193c3.052-3.444,9.363-1.348,11.153-6.275C26.852,7.766,27.01,7.693,27.146,7.693L27.146,7.693
				z M20.75,37.987c-0.209,0.062-0.405,0.11-0.564,0.257c0.023,0.025,0.036,0.062,0.049,0.075
				C20.564,38.269,20.651,38.319,20.75,37.987z"/>
			<path i:knockout="Off" d="M36.876,8.293c2.23,0.772,1.704,0.613,1.961,2.218c0.43-0.037,0.54-0.257,0.797-0.294
				c-0.367,1.458-0.367,1.458-0.454,1.593c-0.049,0-0.086,0-0.146,0c-0.785-1.115-3.579,0.809-4.032-1.446
				c0.109-0.147,0.109-0.147,0.551-0.49c0-0.196-0.195-0.649-0.171-0.772C35.919,8.992,36.863,8.268,36.876,8.293z"/>
			<path i:knockout="Off" fill="#987B37" d="M26.998,8.465c0.012,1.041-0.184,2.071-0.146,2.965
				c0.135,0.061,0.269,0.123,0.403,0.172c0.173-0.319,0.331-0.638,0.505-0.957c0.035,0,0.071-0.012,0.097-0.024
				c0.184,4.535-0.282,9.093-0.318,13.53c-0.025,0.123-0.062,0.233-0.086,0.332c-2.059,0.403-2.795,1.654-3.249,3.577
				c-0.048,0-0.085,0-0.146,0c-0.232-2.205-0.687-4.41-3.015-5.575c-0.501,0.048-0.782,0.379-1.261,0.466
				c-0.024-0.478-0.208-0.98-0.417-1.606c0.146-0.11,0.294-0.233,0.454-0.343c0-2.647-7.844-4.595-2.685-7.904
				c3.908-0.968,7.291-0.968,9.718-4.596C26.913,8.501,26.962,8.489,26.998,8.465L26.998,8.465z M34.425,29.078
				c0,0.282-1.813,1.237-2.157,1.458c0,0.085,0,0.16-0.023,0.233c0.979,0.306,1.875,0.515,2.731,0.673
				c0.013,0.062,0.013,0.123,0.013,0.185c-0.146,0.06-0.305,0.11-0.466,0.146c0-0.036,0-0.087,0-0.146
				c-0.367,0.11-3.763,1.469-3.822,1.96c0.44,0.099,0.857,0.207,1.273,0.295c0.025,0.061,0.037,0.109,0.05,0.146
				c-1.214,0.025-2.439,0.038-3.664,0.038c-0.161-0.232-0.736-0.639-0.503-1.116c1.924-0.06,3.444,0.723,4.312-1.471
				c-0.292,0.073-0.292,0.073-0.894,0.123c0.539-0.685,0.944-1.543,0.797-2.489C32.146,29.078,32.146,29.078,34.425,29.078z"/>
			<path i:knockout="Off" fill="#FF9900" d="M36.985,8.55c0.884,0.22,1.63,0.355,1.705,1.127c-0.553-0.184-0.821-0.772-1.913-0.907
				c0.025-0.073,0.038-0.147,0.062-0.22C36.901,8.55,36.938,8.55,36.985,8.55z"/>
			<path i:knockout="Off" fill="#FF9900" d="M37.072,8.955c1.348,0.257,1.385,0.809,1.717,1.765c0.305,0,0.317-0.074,0.6-0.147
				c-0.062,0.318-0.134,0.637-0.209,0.943c-0.158,0-0.269-0.172-0.454-0.441c-0.809,0-1.421,0.674-2.548,0.172
				c1.065-0.834,1.163-0.895,0.736-2.28C36.974,8.967,37.036,8.967,37.072,8.955z"/>
			<path i:knockout="Off" fill="#FF9900" d="M36.63,8.992c0.663,1.017,0.355,2.059-0.906,2.059c-0.195-0.208-0.393-0.429-0.6-0.661
				c0.515-0.381,0.515-0.381,0.661-0.417c-0.062-0.22-0.122-0.466-0.184-0.71C36.056,9.04,36.263,8.992,36.63,8.992z"/>
			<path i:knockout="Off" d="M36.274,9.322c0,0.074,0,0.135,0,0.196c-0.085,0.049-0.085,0.049-0.158,0
				c0.036-0.208,0.036-0.208,0.123-0.257C36.251,9.298,36.263,9.311,36.274,9.322z"/>
			<path i:knockout="Off" d="M37.782,9.751c0.197,0.233,0.282,0.527,0.282,0.674c-0.195,0.196-0.232,0.282-0.282,0.453
				c-0.525-0.048-0.478-0.674-0.158-1.115C37.672,9.764,37.734,9.764,37.782,9.751z"/>
			<path i:knockout="Off" fill="#FF9900" d="M37.782,10.045c0.197,0.331,0.063,0.405-0.195,0.466
				C37.66,10.058,37.734,10.008,37.782,10.045z"/>
			<path i:knockout="Off" d="M32.673,11.406c2.107,0.417,1.261,4.632-1.202,2.659C30.847,13.023,31.237,11.406,32.673,11.406z"/>
			<path i:knockout="Off" fill="#FFFFFF" d="M32.868,11.847c1.311,1.312,0.418,3.199-1.2,1.851
				C31.411,12.668,31.581,11.847,32.868,11.847z"/>
			<path i:knockout="Off" d="M30.112,13.085c0.906,0.858,0.269,1.557-0.699,1.629C28.837,14.139,29.105,12.925,30.112,13.085z"/>
			<path i:knockout="Off" fill="#FFFFFF" d="M30.014,13.501c0.355,0.367,0.012,0.858-0.393,0.858
				c-0.109-0.135-0.184-0.208-0.184-0.539C29.694,13.6,29.816,13.538,30.014,13.501z"/>
			<path i:knockout="Off" d="M24.093,13.551c0.576,0.858-0.612,2.831-0.967,3.493c-1.715,1.998-6.458,1.532-6.813-1.458
				C16.545,15.339,23.492,13.551,24.093,13.551z"/>
			<path i:knockout="Off" fill="#FFFFFF" d="M23.898,13.857c0.723,0.723-0.994,3.198-1.422,3.676
				c-1.691,1.066-5.552,0.723-5.907-1.851c0.553-0.343,1.188-0.22,1.668-0.22C19.192,14.494,22.6,14.065,23.898,13.857z"/>
			<path i:knockout="Off" fill="#FFCC00" d="M21.14,22.73c2.893,1.152,2.992,5.601,2.463,7.99c-0.061,0.024-0.135,0.036-0.208,0.036
				c-0.195-0.245-0.392-0.501-0.601-0.746c-0.048,0.012-0.11,0.012-0.17,0.012c-0.245,0.454-0.601,1.362-1.078,1.484
				c-0.234-0.43-0.454-0.884-0.675-1.336c-0.087-0.014-0.159-0.049-0.232-0.073c-0.16,0.33-0.16,0.33-0.344,1.078
				c-0.711-0.098-1.006-1.263-1.508-1.421c-0.122,0.208-0.232,0.403-0.355,0.6c-0.048,0-0.099,0-0.158,0
				c-0.773-2.096-0.809-2.708-0.271-5.001C18.689,24.334,19.719,22.73,21.14,22.73L21.14,22.73z M14.927,15.609
				c0.943,0.76,4.62,4.693,4.693,5.344c-0.588,0.588-2.377,0.085-3.233-0.037c0.711-0.282,2.217-0.11,2.902-0.11
				c-0.024-0.062-0.036-0.123-0.048-0.184c-1.789,0.024-4.548-0.797-5.073,1.237c-3.493,0-5.27-2.279-2.672-5.184
				C11.765,16.541,14.891,15.609,14.927,15.609z"/>
			<path i:knockout="Off" fill="#987B37" d="M18.384,24.348c-0.014,0.146-0.014,0.146-0.418,0.758
				c-1.042,2.795-0.454,3.861,0.564,6.521C16.348,30.439,16.08,25.659,18.384,24.348z"/>
			<path i:knockout="Off" fill="#987B37" d="M27.513,24.678c2.193,1.691,3.003,3.689,2.586,6.239
				c0.025,0.085,0.062,0.134,0.085,0.194c0.075,0.025,0.161,0.039,0.233,0.039c0.331-0.271,0.724-0.43,0.797-0.835
				c-0.195,0-0.601,0.577-0.955,0.649c0.023-0.122,0.035-0.256,0.035-0.391c0.528-0.404,1.007-0.761,1.46-1.263
				c0.061,0.012,0.123,0.012,0.158,0.012c0,1.324-0.402,1.569-1.09,2.5c0.013,0.038,0.024,0.062,0.048,0.073
				c0.344-0.061,0.675-0.122,1.007-0.182c-0.271,2.243-9.939,1.959-6.949-5.406C25.688,25.181,26.275,24.85,27.513,24.678
				L27.513,24.678z M32.33,27.865c-0.382,0.072-1.483,0.699-1.888,0.956c-0.013,0.442-0.038,0.894-0.073,1.348
				c0.797-0.124,1.005-0.906,1.654-1.152C32.134,28.636,32.232,28.256,32.33,27.865z"/>
			<path i:knockout="Off" fill="#987B37" d="M24.144,28.564c0.208,2.4,1.078,4.105,3.454,4.362c-0.023,0.76,0.454,0.81,0.517,1.152
				c-0.062,0.013-0.124,0.036-0.185,0.048c0,0.146,0.074,0.209,0.11,0.454c-0.539,0.539-0.746-0.698-1.852-0.159
				c0,0.072-0.012,0.159-0.035,0.221c0.746-0.295,0.785-0.295,1.322,0.184c-0.11,2.034,0.908,2.573,0.785,3.872
				c-0.76,0.221-0.526,0.76-1.409,0.858c1.005-1.005-0.698-2.292-1.299-0.527c-0.404,0-0.663,0.158-1.129,0.123
				c0.063-0.367,0.32-0.49,0.651-0.662c0.036-0.098,0.048-0.195,0.06-0.306c-0.723-0.81-0.723-0.062-1.592-0.197
				c-0.013-0.023-0.025-0.061-0.051-0.086c0.381-0.38,0.688-0.33,1.105-0.38c0.071-0.086,0.146-0.195,0.207-0.294
				c0.466,0.05,0.918,0.282,1.25,0.355c0.257-0.661,0.576-2.108-0.195-2.708c-0.638,0.638-0.981-0.686-0.981-1.25
				c-0.023-0.074-1.409-1.078-1.728-1.152c0.172,0.688,1.164,0.797,1.448,1.078c0.06,1.569,2.585,2.171,1.347,3.714
				c-0.49-0.037-0.688-0.146-1.2-0.196c-0.651,0.65-2.06,0.453-2.34,1.63c-0.233,0.087-0.355,0.135-0.761,0.099
				c1.214-1.802-0.404-0.748-0.82-0.858c-0.062-0.109-0.466-0.612-0.44-0.674c2.915-0.354,2.72,0.295,4.006-2.132
				c0-0.406-0.711-0.711-0.589-1.066c0.196-0.013,0.38-0.038,0.552-0.062c0.049-0.074,0.049-0.074,0-0.146
				c-2.659-0.05-3.432-0.024-5.515-2.108c-0.404-0.809-0.6-0.845,0-1.691c0.417,0.44,1.042,1.312,1.508,1.312
				c0.086-0.343,0.196-0.699,0.405-1.056c0.257,0.405,0.746,1.495,0.797,1.508c0.452-0.491,0.796-0.993,1.2-1.604
				c0.673,0.809,0.673,0.809,0.809,0.893C24.057,30.818,23.812,28.894,24.144,28.564z"/>
			<path i:knockout="Off" fill="#A3BB78" d="M37.38,32.619c-0.051,1.176-0.271,3.052-1.558,3.261
				C35.932,35.34,36.815,32.891,37.38,32.619z"/>
			<path i:knockout="Off" fill="#A3BB78" d="M36.985,32.619c-0.208,0.675-1.078,3.089-1.506,3.296
				C35.479,34.679,35.907,33.427,36.985,32.619z"/>
			<path i:knockout="Off" fill="#796A42" d="M11.765,33.759c1.887,0.332,1.421,2.782,1.46,4.069
				c2.168,0.589,3.186-0.454,4.901-0.062c0.037,0.087,0.061,0.172,0.097,0.271c0.308,0.025,0.308,0.025,0.762-0.05
				c0,0.76-0.148,0.858,0.343,0.932c0.44-0.404,0.526-0.663,1.017-0.367c0.013,0.307,0.024,0.624,0.038,0.943
				c0.071,0.012,0.158,0.024,0.207,0.024c0.723-0.612,0.918-0.551,1.814-0.589c0,0.576,0.171,0.833,0.538,0.896
				c0.148-0.197,0.38-0.479,0.55-0.529c0.174,0.491,0.16,0.626,0.564,0.675c0.172-0.331,0.172-0.331,0.233-0.552
				c0.501-0.072,0.907-0.245,1.299-0.072c0.185,0.49,0.355,0.894,0.612,1.09c1.888-2.084,4.448-1.274,7.133-1.141
				c0,0.186,0,0.355-0.012,0.541c0.049,0,0.098,0,0.146,0c0.148-0.797,0.553-0.49,1.264-0.454c-0.073,0.404-0.073,0.404-0.061,0.821
				c-0.492,0.11-1.263,0.209-1.803-0.233c-2.953,0.062-5.992,0.944-8.97,0.944c-1.985-0.49-9.877-3.32-9.694,0.722
				C14.609,43,14.609,43,14.756,43.699c-0.588,0.845-3.469,0.821-4.191-0.185c-0.245-1.445,0.087-3.688-1.054-5
				c-1.312-0.33-2.402-3.065-1.581-4.388C9.351,34.126,10.515,33.833,11.765,33.759z"/>
			<path i:knockout="Off" fill="#A3BB78" d="M37.525,36.013c0.209,0.051,0.209,0.051,0.257,0.123
				c-0.158,0.295-1.701,0.675-2.107,0.405C36.141,35.965,36.926,36.051,37.525,36.013z"/>
			<path i:knockout="Off" fill="#9983BD" d="M26.35,38.269c0.686,0.233,0.648,0.44,0.686,0.918
				c-0.381,0.308-0.576,0.564-0.783,0.908c-0.051,0.012-0.099,0.023-0.148,0.023C25.871,39.838,25.601,37.778,26.35,38.269z"/>
			<path i:knockout="Off" fill="#9983BD" d="M23.492,38.172c0.431,0.097-0.402,1.248-0.489,1.396
				c-0.588-0.085-0.514-0.661-0.257-1.299C23.15,38.172,23.15,38.172,23.492,38.172z"/>
			<path i:knockout="Off" fill="#9983BD" d="M24.657,37.888c0,0.075,0,0.148,0,0.209c0.087,0.013,0.172,0.024,0.271,0.036
				c0,0.418-0.736,0.835-0.847,1.618c-0.072,0.012-0.146,0.024-0.233,0.024C23.358,38.82,23.604,38.11,24.657,37.888z"/>
			<path i:knockout="Off" fill="#9983BD" d="M21.741,37.829c0.062,0.024,0.099,0.06,0.147,0.085c0.014,0.172,0.025,0.33,0.025,0.479
				c-0.466,0.244-0.907,0.722-1.373,0.905C20.541,38.441,20.809,38.024,21.741,37.829z"/>
			<path i:knockout="Off" fill="#9983BD" d="M20.234,37.498c0,0.062,0,0.099,0,0.146c0.085,0.012,0.172,0.023,0.245,0.049
				c0,0.062,0,0.097,0,0.147c-0.232,0.135-0.955,0.796-1.164,0.747c0.037-0.332,0.049-0.478,0.27-0.747
				c0.048,0.013,0.073,0.024,0.11,0.048c0.048-0.099,0.086-0.195,0.123-0.306C19.964,37.559,20.098,37.521,20.234,37.498z"/>
			<path i:knockout="Off" fill="#9983BD" d="M19.328,37.422c0.048,0.038,0.086,0.075,0.111,0.099
				c-0.186,0.123-0.247,0.172-0.505,0.209C18.934,37.559,19.29,37.387,19.328,37.422z"/>
		</g>
	</g>
</g>
</svg>
