<?xml version="1.0" encoding="utf-8"?>
<!-- Generator: Adobe Illustrator 12.0.0, SVG Export Plug-In . SVG Version: 6.00 Build 51448)  -->
<!DOCTYPE svg PUBLIC "-//W3C//DTD SVG 1.1//EN" "http://www.w3.org/Graphics/SVG/1.1/DTD/svg11.dtd" [
	<!ENTITY ns_flows "http://ns.adobe.com/Flows/1.0/">
	<!ENTITY ns_extend "http://ns.adobe.com/Extensibility/1.0/">
	<!ENTITY ns_ai "http://ns.adobe.com/AdobeIllustrator/10.0/">
	<!ENTITY ns_graphs "http://ns.adobe.com/Graphs/1.0/">
	<!ENTITY ns_vars "http://ns.adobe.com/Variables/1.0/">
	<!ENTITY ns_imrep "http://ns.adobe.com/ImageReplacement/1.0/">
	<!ENTITY ns_sfw "http://ns.adobe.com/SaveForWeb/1.0/">
	<!ENTITY ns_custom "http://ns.adobe.com/GenericCustomNamespace/1.0/">
	<!ENTITY ns_adobe_xpath "http://ns.adobe.com/XPath/1.0/">
	<!ENTITY ns_svg "http://www.w3.org/2000/svg">
	<!ENTITY ns_xlink "http://www.w3.org/1999/xlink">
]>
<svg  version="1.1"
	 xmlns:x="&ns_extend;" xmlns:i="&ns_ai;" xmlns:graph="&ns_graphs;" i:viewOrigin="-0.2363 64.9995" i:rulerOrigin="0 0" i:pageBounds="0 65 45 0"
	 xmlns="&ns_svg;" xmlns:xlink="&ns_xlink;" xmlns:a="http://ns.adobe.com/AdobeSVGViewerExtensions/3.0/"
	 width="45.73" height="65.236" viewBox="0 0 45.73 65.236" overflow="visible" enable-background="new 0 0 45.73 65.236"
	 xml:space="preserve">
<metadata>
	<variableSets  xmlns="&ns_vars;">
		<variableSet  varSetName="binding1" locked="none">
			<variables></variables>
			<v:sampleDataSets  xmlns:v="&ns_vars;" xmlns="&ns_custom;"></v:sampleDataSets>
		</variableSet>
	</variableSets>
</metadata>
<g id="图层_1" i:layer="yes" i:dimmedPercent="50" i:rgbTrio="#4F008000FFFF">
	<g>
		<g i:knockout="Off">
			<path fill="#333333" d="M1.183,47.467v12.077c0,2.49,1.622,4.512,3.619,4.512h37.307c2.001,0,3.622-2.021,3.622-4.512l0,0V3.807
				C45.73,1.705,44.106,0,42.108,0H4.802C2.804,0,1.183,1.705,1.183,3.807H1.181v43.651C1.181,47.46,1.183,47.464,1.183,47.467z"/>
			
				<linearGradient id="XMLID_3_" gradientUnits="userSpaceOnUse" x1="-41.7021" y1="22.0117" x2="-41.7022" y2="82.7578" gradientTransform="matrix(1 0 0 -1 64.2148 87.0107)">
				<stop  offset="0.0393" style="stop-color:#0060B6"/>
				<stop  offset="0.0899" style="stop-color:#2089B9"/>
				<stop  offset="0.0985" style="stop-color:#4FA3C2"/>
				<stop  offset="0.1071" style="stop-color:#77B9CA"/>
				<stop  offset="0.1138" style="stop-color:#8FC7CF"/>
				<stop  offset="0.118" style="stop-color:#98CCD1"/>
				<stop  offset="0.1341" style="stop-color:#9ECFD3"/>
				<stop  offset="0.156" style="stop-color:#AFD6D9"/>
				<stop  offset="0.1809" style="stop-color:#CBE1E3"/>
				<stop  offset="0.1966" style="stop-color:#E1EAEB"/>
				<a:midPointStop  offset="0.0393" style="stop-color:#0060B6"/>
				<a:midPointStop  offset="0.5" style="stop-color:#0060B6"/>
				<a:midPointStop  offset="0.0899" style="stop-color:#2089B9"/>
				<a:midPointStop  offset="0.5" style="stop-color:#2089B9"/>
				<a:midPointStop  offset="0.0985" style="stop-color:#4FA3C2"/>
				<a:midPointStop  offset="0.5" style="stop-color:#4FA3C2"/>
				<a:midPointStop  offset="0.1071" style="stop-color:#77B9CA"/>
				<a:midPointStop  offset="0.5" style="stop-color:#77B9CA"/>
				<a:midPointStop  offset="0.1138" style="stop-color:#8FC7CF"/>
				<a:midPointStop  offset="0.5" style="stop-color:#8FC7CF"/>
				<a:midPointStop  offset="0.118" style="stop-color:#98CCD1"/>
				<a:midPointStop  offset="0.5" style="stop-color:#98CCD1"/>
				<a:midPointStop  offset="0.1341" style="stop-color:#9ECFD3"/>
				<a:midPointStop  offset="0.5" style="stop-color:#9ECFD3"/>
				<a:midPointStop  offset="0.156" style="stop-color:#AFD6D9"/>
				<a:midPointStop  offset="0.5" style="stop-color:#AFD6D9"/>
				<a:midPointStop  offset="0.1809" style="stop-color:#CBE1E3"/>
				<a:midPointStop  offset="0.5" style="stop-color:#CBE1E3"/>
				<a:midPointStop  offset="0.1966" style="stop-color:#E1EAEB"/>
			</linearGradient>
			<path fill="url(#XMLID_3_)" d="M44.787,60.488c0,2.493-1.624,4.512-3.62,4.512H3.858c-1.999,0-3.62-2.019-3.62-4.512V8.765
				c0-2.49,1.623-4.511,3.62-4.511h37.307c2.001,0,3.619,2.021,3.619,4.511v51.723H44.787z"/>
			<path fill="none" stroke="#333333" stroke-width="0.4727" d="M44.787,60.488c0,2.493-1.624,4.512-3.62,4.512H3.858
				c-1.999,0-3.62-2.019-3.62-4.512V8.765c0-2.49,1.623-4.511,3.62-4.511h37.307c2.001,0,3.619,2.021,3.619,4.511v51.723H44.787z"/>
			<path fill="#FFFFFF" d="M0.236,4.752c0-2.101,1.623-3.807,3.62-3.807h37.309c1.999,0,3.619,1.705,3.619,3.807v43.653
				c0,2.102-1.621,3.804-3.619,3.804H3.856c-1.999,0-3.62-1.702-3.62-3.807V4.752L0.236,4.752z"/>
			
				<linearGradient id="XMLID_4_" gradientUnits="userSpaceOnUse" x1="2.5527" y1="25.2319" x2="46.6465" y2="25.2319" gradientTransform="matrix(-1 0 0 1 47.1094 1.3447)">
				<stop  offset="0" style="stop-color:#A2D8E0"/>
				<stop  offset="0.0899" style="stop-color:#1878AD"/>
				<stop  offset="0.2135" style="stop-color:#194D91"/>
				<stop  offset="0.6404" style="stop-color:#2B90BD"/>
				<stop  offset="0.9438" style="stop-color:#82CBDE"/>
				<stop  offset="1" style="stop-color:#1A478D"/>
				<a:midPointStop  offset="0" style="stop-color:#A2D8E0"/>
				<a:midPointStop  offset="0.5" style="stop-color:#A2D8E0"/>
				<a:midPointStop  offset="0.0899" style="stop-color:#1878AD"/>
				<a:midPointStop  offset="0.5" style="stop-color:#1878AD"/>
				<a:midPointStop  offset="0.2135" style="stop-color:#194D91"/>
				<a:midPointStop  offset="0.5" style="stop-color:#194D91"/>
				<a:midPointStop  offset="0.6404" style="stop-color:#2B90BD"/>
				<a:midPointStop  offset="0.5" style="stop-color:#2B90BD"/>
				<a:midPointStop  offset="0.9438" style="stop-color:#82CBDE"/>
				<a:midPointStop  offset="0.5" style="stop-color:#82CBDE"/>
				<a:midPointStop  offset="1" style="stop-color:#1A478D"/>
			</linearGradient>
			<path i:isolated="yes" i:knockout="Off" opacity="0.1" fill="url(#XMLID_4_)" enable-background="new    " d="M0.463,4.752
				c0-2.101,1.603-3.807,3.58-3.807h36.934c1.977,0,3.58,1.705,3.58,3.807v43.653c0,2.102-1.604,3.804-3.58,3.804H4.043
				c-1.977,0-3.578-1.702-3.578-3.807L0.463,4.752L0.463,4.752z"/>
			<path fill="none" stroke="#4D4D4D" stroke-width="0.4727" d="M0.236,48.414v12.074c0,2.493,1.623,4.512,3.62,4.512h37.309
				c1.999,0,3.619-2.019,3.619-4.512V4.752c0-2.102-1.621-3.806-3.619-3.806H3.858c-1.999,0-3.622,1.705-3.622,3.806v43.653
				C0.236,48.408,0.236,48.411,0.236,48.414z"/>
		</g>
		<g>
			<path i:knockout="Off" d="M23.249,50.936c-0.66-0.331-0.265-5.066,0.133-5.461c1.386,0,3.845-1.286,4.834-2.493
				c0-0.444-0.051-0.478,0.313-0.658c-0.116-0.907-0.594-1.255-1.139-1.369c-3.416,4.355-6.269,2.606-10.295,0.347
				c-1.387-1.881-2.426-0.397-1.979,1.203c2.426,4.258,6.006,0.642,6.006,7.426c-0.168,0.131-0.299,0.277-0.445,0.412
				c-1.37-0.612-3.383-1.418-4.323-1.979c-0.776-2.312-1.287-1.717-2.938-3.069c-2.342-2.344-0.411-6.303,0.017-8.844
				c-1.435-1.171-4.074-7.012-0.774-6.121c0.313-0.644,0.824-1.633,0.824-2.177c-5.163-4.487-4.619-7.887,0.396-11.83
				c1.47-0.644,2.046-1.023,3.777-1.321c0.463,0,0.793-0.84,1.768-1.022c1.335-3.811,2.16-8.931,1.302-12.742h0.562
				c-0.084,3.53-0.759,9.046,1.616,12.198c1.42,0.939,3.068,1.797,5.049,2.771c4.009,2.92,4.851,6.996,0.957,10.873
				c0,0.891,0.677,1.848,1.056,2.772c3.399,0.66-0.017,5.031-0.774,6.647c0.229,3.002,3.267,4.06,1.633,7.557
				c-1.303,1.865-3.894,3.976-5.428,5.528C24.618,49.863,23.827,50.787,23.249,50.936L23.249,50.936z M26.27,24.456
				c1.847,0,1.996-5.147-2.015-5.147c-0.545,1.418-1.071,1.072-2.524,1.121c-0.099,0.842-0.099,0.842-0.065,2.606
				C23.299,23.267,24.651,23.646,26.27,24.456L26.27,24.456z M16.387,24.323c1.303-0.412,3.217-0.957,4.553-1.467
				c0.048-0.793,0.099-1.584,0.164-2.377c-2.424,0.281-2.475,0.512-3.414-1.385C14.341,19.423,12.92,22.591,16.387,24.323z"/>
			<path i:knockout="Off" fill="#AB3826" d="M23.579,49.945c-0.215-1.302,0.065-2.672,0.248-3.894
				c0.726-0.196,1.451-0.412,2.161-0.594c0.082,0.43,0.544,2.293,0.215,2.97C25.329,48.924,24.436,49.434,23.579,49.945z"/>
			<path i:knockout="Off" fill="#AB3826" d="M20.262,49.105c-0.938-0.595-2.308-0.761-3.084-1.14c0-1.006,0.032-1.633,0.28-2.424
				c2.41,0,2.871,0.907,2.871,3.547C20.312,49.088,20.279,49.088,20.262,49.105z"/>
			<path i:knockout="Off" fill="#FC5D40" d="M26.747,46.663c-0.116-0.494-0.231-0.974-0.347-1.451
				C28.891,43.726,27.439,47.356,26.747,46.663z"/>
			<path i:knockout="Off" fill="#FC5D40" d="M16.616,46.398c-0.313-0.132-0.642-0.248-0.974-0.361
				c-0.229-1.239,0.793-1.338,1.354-0.842c0,0.328-0.181,0.692-0.249,1.188C16.7,46.383,16.649,46.383,16.616,46.398z"/>
			<path i:knockout="Off" fill="#FD160E" d="M28.183,45.92c-0.051-0.776-0.247-1.271-0.247-1.782
				c0.444-0.347,1.022,0.198,1.254,0.842C29.058,45.293,28.529,45.689,28.183,45.92z"/>
			<path i:knockout="Off" fill="#FD160E" d="M14.999,45.706c-0.246-0.132-0.444-0.281-0.658-0.412c0-0.776,0.412-1.058,1.171-1.123
				c0.082,0.084,0.182,0.215,0.28,0.33C15.528,44.814,15.312,45.706,14.999,45.706z"/>
			<path i:knockout="Off" fill="#CF2819" d="M13.729,44.814c-0.346-0.56-0.528-0.759-0.576-1.088
				c0.347-0.299,1.914-1.188,1.914,0.099C14.604,44.105,14.126,44.732,13.729,44.814z"/>
			<path i:knockout="Off" fill="#CF2819" d="M29.535,44.633c-0.364-0.627-0.577-0.742-0.973-1.006
				c-0.033-0.066-0.033-0.133-0.033-0.183c0.595-0.676,1.236-0.743,1.748,0.297C30.13,44.055,29.864,44.469,29.535,44.633z"/>
			<path i:knockout="Off" fill="#B53825" d="M12.854,43.281c-0.197-0.579-0.248-1.024-0.165-1.37
				c0.562-0.329,0.859-0.478,1.651-0.38c0.016,0.711,0.016,0.711,0.113,1.023C13.944,42.702,13.054,43.346,12.854,43.281z"/>
			<path i:knockout="Off" fill="#B53825" d="M30.477,42.902c-0.513-0.084-0.908-0.397-1.271-0.514
				c-0.017-0.197-0.035-0.412-0.067-0.626c0.396-0.231,0.991-0.181,1.584,0c0,0.33,0.034,0.66-0.132,1.121
				C30.542,42.883,30.492,42.883,30.477,42.902z"/>
			<path i:knockout="Off" fill="#764031" d="M12.807,41.316c-0.281-0.543,0.675-1.22,0.791-1.615c0.445,0,1.123-0.167,1.534,0.478
				c-0.215,0.313-0.411,0.609-0.61,0.908C13.812,41.086,13.415,41.135,12.807,41.316L12.807,41.316z M28.843,41.349
				c-0.149-0.263-0.28-0.494-0.43-0.726c0.711-1.4,1.914-0.742,2.178,0.545C30.046,41.185,29.073,41.367,28.843,41.349
				L28.843,41.349z M15.312,39.734c0.199,0,0.199,0,0.248-0.065c-0.33-0.445-0.33-0.445-0.84-0.959c-0.216,0-0.431,0-0.646,0.033
				c-0.015,0.149-0.032,0.313-0.065,0.512C14.356,39.288,14.753,39.336,15.312,39.734L15.312,39.734z M27.951,40.443
				c0.115-0.166,0.181-0.528,1.468-0.875c0-0.231-0.562-1.766-0.642-1.864c-0.445,0.791-0.875,1.584-1.287,2.409
				C27.538,40.211,27.538,40.211,27.951,40.443L27.951,40.443z M14.061,38.265c0.015-0.084,0.049-0.183,0.065-0.281
				c0.147,0.099,0.147,0.099,0.197,0.23C14.225,38.214,14.126,38.249,14.061,38.265z"/>
			<path i:knockout="Off" fill="#973E2B" d="M16.816,40.062c-1.567-1.022-2.129-2.49-2.987-3.679c1.483,0,3.91,1.601,3.101,3.662
				C16.881,40.045,16.831,40.045,16.816,40.062L16.816,40.062z M21.566,42.769c-1.237-0.462-6.435-2.656-2.606-2.656
				c0.463,0.164,3.168,1.798,2.888,2.656C21.749,42.769,21.665,42.769,21.566,42.769L21.566,42.769z M22.408,43.099
				c1.863,0,3.398-1.419,4.521-2.921C23.827,38.281,21.749,42.836,22.408,43.099L22.408,43.099z M26.977,39.947
				c0.266-1.353-2.177-2.342,1.469-3.497C28.661,37.109,27.49,39.947,26.977,39.947L26.977,39.947z M27.439,30.724
				c0-0.279,0-0.543,0.033-0.808c0.116-0.083,0.43-0.545,0.743-0.412c0.05,0.511,0.05,0.511-0.051,0.974
				C27.818,30.675,27.818,30.675,27.439,30.724L27.439,30.724z M26.929,29.767c0.38,0,0.956-0.66,1.171-0.955
				c-0.842-0.546-1.963-1.354-2.705-1.354c-0.149,0.363-0.496,0.842-0.478,1.469C25.46,29.107,26.137,29.372,26.929,29.767
				L26.929,29.767z M16.022,31.12c-0.429-0.328-1.121-0.708-1.27-0.89c0.363-0.858,1.236-2.707,2.194-2.887
				C17.641,28.349,18.3,30.033,16.022,31.12L16.022,31.12z M19.01,28.877c2.045,0,2.441-0.66,2.441-2.541
				c-0.066-0.033-0.116-0.033-0.165-0.033c-0.513,0.808-3.119,0.842-3.828,0.842C17.327,27.574,18.249,28.777,19.01,28.877
				L19.01,28.877z M23.579,29.009c-0.776-0.231-1.287-0.463-1.717-0.758c0-0.627,0.034-1.271,0.051-1.863
				c0.791,0.511,1.946,0.839,3.103,0.972C24.8,28.497,24.568,28.927,23.579,29.009z"/>
			<path i:knockout="Off" fill="#FF3300" d="M17.458,39.814c-0.131-1.319-0.362-2.11-1.071-2.983c0.148,0,0.313,0,0.478,0
				c0.231,0.461,1.319,0.56,1.651,1.864C18.249,38.991,17.822,39.568,17.458,39.814L17.458,39.814z M21.749,41.564
				c0.824-0.263-1.024-5.231-3.582-1.963C19.868,39.833,20.247,40.178,21.749,41.564L21.749,41.564z M22.227,41.417
				c-0.496-1.567,1.122-4.836,3.118-2.756C25.278,38.808,22.738,40.722,22.227,41.417L22.227,41.417z M25.723,38.381
				c0.149-0.116,0.743-1.371,0.975-1.668C25.409,35.838,24.042,36.713,25.723,38.381L25.723,38.381z M25.956,31.269
				c0-0.23,0.412-0.627,0.741-0.528c0,0.067,0,0.164,0.017,0.248C26.466,31.087,26.203,31.187,25.956,31.269L25.956,31.269z
				 M25.016,31.4c0.049,0.017,0.049,0.017,1.418-1.154c-0.017-0.082-0.017-0.181-0.017-0.247c-1.287-0.496-2.524-1.141-2.524,0.956
				C24.503,31.204,24.917,31.302,25.016,31.4L25.016,31.4z M17.887,31.765c-0.396-0.116-0.791-0.215-1.171-0.297
				c0-0.628,0.906-1.468,1.304-1.897c0.084,0,0.147,0,0.229,0c0.199,0.379,0.397,0.758,0.612,1.121
				C18.68,31.021,18.3,31.665,17.887,31.765L17.887,31.765z M19.604,30.691c0.793-0.049,1.073-0.213,1.799-0.527
				c0.099-0.893,0.099-0.893,0.065-1.451c-0.196-0.1-1.023,0.412-1.071,0.543c-0.315,0-0.744,0.082-1.717,0.065
				C18.729,29.652,18.96,30.445,19.604,30.691L19.604,30.691z M22.128,30.511c-0.116-0.099-0.215-0.182-0.299-0.264
				c0-0.461,0-0.908,0.019-1.353c0.51,0.049,1.302,0.56,2.161,0.658C24.009,30.691,22.902,30.511,22.128,30.511z"/>
			<path i:knockout="Off" fill="#FF6600" d="M24.322,37.027c-0.562-0.461-0.907-0.694-0.726-1.188
				c0.493-0.198,0.742-0.131,1.32,0.447C24.604,36.747,24.388,37.109,24.322,37.027L24.322,37.027z M22.077,38.775
				c0.661-0.461,1.338-0.905,2.013-1.353C22.507,35.756,22.077,37.109,22.077,38.775L22.077,38.775z M21.616,38.975
				c-0.709-0.71-1.188-0.842-1.913-0.94C19.948,35.163,23.035,38.629,21.616,38.975L21.616,38.975z M18.96,38.1
				c1.947-0.775-0.594-3.069-1.172-1.387C18.118,36.995,18.118,36.995,18.96,38.1L18.96,38.1z M19.604,32.095
				c-0.348-0.067-0.694-0.117-1.022-0.166c0-0.412,0.213-0.562,0.594-0.742c0.148,0.082,0.46,0.446,0.544,0.875
				C19.686,32.062,19.635,32.062,19.604,32.095L19.604,32.095z M21.188,33.052c-0.28-0.711-1.039-1.288-1.353-1.849
				c0.147-0.084,1.17-0.281,1.517-0.445c0.051,0.609,0.051,0.609-0.08,2.293C21.235,33.052,21.221,33.052,21.188,33.052
				L21.188,33.052z M23.249,31.929c0.231-0.676,0.33-0.676,1.073-0.296C24.009,31.929,23.48,31.913,23.249,31.929L23.249,31.929z
				 M21.716,34.025c0.347,0.346,0.642-1.799,0.642-1.799c0.101-0.017,0.216-0.033,0.332-0.033c0.181-0.379,0.394-0.76,0.609-1.121
				c-0.511-0.084-1.007-0.117-1.502-0.167C21.682,31.797,21.402,33.001,21.716,34.025z"/>
			<path i:knockout="Off" fill="#FF9900" d="M21.436,36.665c-0.281-0.051-0.545-0.065-0.793-0.099
				c0.362-0.414,0.362-0.414,0.906-0.858c0,0.297,0.018,0.61,0.034,0.924C21.516,36.631,21.468,36.631,21.436,36.665L21.436,36.665z
				 M21.979,36.78c-0.017-0.281-0.017-0.561-0.017-0.841c0.017-0.018,0.05-0.051,0.101-0.051c0.295,0.2,0.295,0.2,0.511,0.43
				C22.357,36.45,22.177,36.614,21.979,36.78L21.979,36.78z M23.018,36.054c0.018,0,0.033,0,0.084,0
				c0.099-0.183,0.215-0.38,0.328-0.561c-0.395-0.051-0.791-0.083-1.17-0.116c0,0.05,0,0.116,0.032,0.183
				C22.522,35.724,22.755,35.888,23.018,36.054L23.018,36.054z M22.077,34.882c0.215-0.182,0.562-0.709,0.892-0.627
				c0.082,0.215,0.181,0.43,0.297,0.659C22.87,34.882,22.475,34.882,22.077,34.882L22.077,34.882z M22.357,34.007
				c-0.048-0.099-0.048-0.099,0.149-0.445c0.033,0,0.082,0,0.132,0c0,0.017,0.017,0.066,0.051,0.117
				C22.573,33.777,22.458,33.894,22.357,34.007L22.357,34.007z M21.005,34.24c-0.098-0.066-0.182-0.116-0.28-0.167
				c-0.015-0.229-0.015-0.229,0.099-0.411c0.067,0,0.131,0,0.215,0C21.071,34.007,21.122,34.353,21.005,34.24L21.005,34.24z
				 M20.115,35.146c0-0.33,0.247-0.676,0.395-0.742c0.562,0.412,0.562,0.412,0.612,0.562C20.593,35.129,20.593,35.129,20.115,35.146
				L20.115,35.146z M20.115,36.599c0.033,0,0.048,0,0.099,0.015c0.296-0.379,0.609-0.742,0.94-1.12
				c-0.678-0.167-1.286,0.181-1.782,0.378C19.307,36.12,19.703,36.383,20.115,36.599z"/>
			<path i:knockout="Off" fill="#FFFFFF" d="M15.23,36.235c-2.624-0.693-3.383-3.068-3.646-5.279
				c1.699,0.066,4.124,0.611,4.619,0.957c0-0.049,0.296,0.826,1.171,0.313c0.413-0.231,2.277,0.363,3.021,0.66
				c0,0.958-0.744,2.838-1.899,2.838C18.053,36.499,15.741,36.235,15.23,36.235z"/>
			<path i:knockout="Off" fill="#FFFFFF" d="M26.796,36.152c-1.567-0.114-4.321-1.864-3.926-3.53
				c0.742-0.281,1.551-0.676,2.211-0.496c0.528,0.149,1.022,0.2,1.385-0.493c1.156-0.38,2.839-1.221,4.207-1.106
				C31.22,33.299,29.684,35.988,26.796,36.152z"/>
			<path i:knockout="Off" fill="#963E40" d="M28.693,30.247c-0.065-1.353-0.065-1.353,0-1.435c0.248,0.361,0.496,0.676,0.496,1.353
				C29.007,30.247,29.007,30.247,28.693,30.247L28.693,30.247z M28.281,28.316c-0.791-0.396-1.567-0.908-2.245-1.205
				c-0.015-0.082-0.048-0.147-0.065-0.213c-0.099-0.033-0.181-0.051-0.248-0.051c0-0.56,0.397-1.072,0.48-1.451
				c0.066-0.018,0.165-0.018,0.263-0.018c0.678,1.009,1.353,1.633,1.979,2.921C28.38,28.3,28.332,28.3,28.281,28.316L28.281,28.316z
				 M14.622,30.972c-0.332-0.067-0.662-0.133-0.974-0.181c-0.149-0.463-0.084-0.562-0.036-0.826c0.149,0.1,0.959,0.562,1.174,0.99
				C14.721,30.956,14.67,30.956,14.622,30.972L14.622,30.972z M14.29,29.949c-0.28-0.182-0.28-0.182-0.562-0.561
				c0.332-0.726,1.619-3.498,2.294-3.498c0.165,0.297,0.331,0.611,0.513,0.908C15.956,27.474,14.885,29.669,14.29,29.949
				L14.29,29.949z M18.217,26.732c1.486,0,1.932-0.611,3.135-1.008c0-0.609,0.033-1.236,0.051-1.847
				c-0.926-0.611-4.356,0.858-5.049,1.683c0.263,0.561,0.263,0.561,0.644,1.072C17.393,26.665,17.788,26.682,18.217,26.732
				L18.217,26.732z M24.833,26.865c0.164-0.018,0.331-0.035,0.496-0.067c0.196-0.61,0.526-1.303,0.526-1.781
				c-1.452-0.578-2.722-1.09-4.059-1.239C21.797,26.154,21.962,26.501,24.833,26.865z"/>
			<path i:knockout="Off" fill="#973E2B" d="M14.29,27.292c-0.33-0.146-0.33-0.146-0.364-0.23c0.514-0.791,1.042-1.584,1.586-2.358
				c0.28,0.033,0.28,0.033,0.526,0.197c0,0.083,0.035,0.149,0.05,0.23C15.807,25.378,14.29,27.292,14.29,27.292z"/>
			<path i:knockout="Off" fill="#973E2B" d="M28.1,26.271c-0.281-0.332-0.544-0.628-0.791-0.94c0.182-0.266,0.016-0.43,0.016-0.611
				c0.05-0.067,0.099-0.116,0.166-0.166c0.742,0.116,1.517,0.231,2.275,0.346C29.419,25.429,28.843,26.271,28.1,26.271z"/>
			<path i:knockout="Off" fill="#FF0000" d="M28.843,24.372c-0.379-0.099-0.743-0.181-1.122-0.281c0-0.461,0.164-0.427,0.28-0.857
				c0.379-0.033,2.096-0.215,2.558-0.082c-0.181,0.377-0.363,0.758-0.545,1.121C29.634,24.372,29.634,24.372,28.843,24.372
				L28.843,24.372z M13.317,26.831c-0.66-0.428-0.66-0.428-0.843-0.66c0.265-0.396,1.815-1.897,2.377-2.029
				C15.561,24.604,13.383,26.847,13.317,26.831L13.317,26.831z M14.159,20.017c-0.562-0.84-1.353-1.072-1.272-2.145
				c0.397-0.214,0.776-0.76,1.272-0.644c0.065,0.479,0.676,1.717,0.676,2.277C14.735,19.54,14.208,20.05,14.159,20.017z"/>
			<path i:knockout="Off" fill="#FF3300" d="M28.744,22.839c-0.182-0.083-0.364-0.133-0.562-0.166
				c-0.018-0.379-0.018-0.379,0.05-0.676c0.429-0.083,2.474-1.22,2.524-1.187C31.318,22.706,30.13,22.839,28.744,22.839
				L28.744,22.839z M27.538,20.034c-1.022-0.891-0.164-1.815,0.397-2.954c0.229,0.083,0.229,0.083,1.436,1.105
				C29.371,19.011,28.266,19.902,27.538,20.034L27.538,20.034z M11.965,25.709c-0.628-0.479-1.222-1.799-1.123-2.244
				c0.28-0.115,2.573-0.594,3.084-0.594C14.604,24.109,13.432,25.429,11.965,25.709L11.965,25.709z M12.887,20.546
				c-0.692-0.181-0.692-0.181-1.664-0.611c-0.034-0.033-0.05-0.067-0.05-0.083c0.329-0.609,0.726-1.22,1.302-1.5
				c0.215,0.742,1.138,1.453,1.371,2.178C13.532,20.529,13.2,20.529,12.887,20.546z"/>
			<path i:knockout="Off" fill="#FF6600" d="M28.232,21.485c-0.166-0.675-0.248-0.875-0.231-1.056
				c0.676-0.445,1.123-0.89,1.633-1.518c0.066,0,0.132,0,0.23,0.034C30.658,20.429,30.21,21.485,28.232,21.485L28.232,21.485z
				 M10.842,22.921c-0.642-0.412,0-2.096,0.051-2.59c1.138,0.231,1.483,0.593,2.887,0.726c0.033,0.396,0.033,0.396-0.167,1.287
				C12.689,22.855,11.749,22.904,10.842,22.921z"/>
			<path i:knockout="Off" fill="#F30265" d="M20.954,19.753c-0.74-0.049-1.467-0.065-2.192-0.099
				c-0.858-1.303-0.527-4.29,0.61-5.049c1.104-0.313,1.171-2.359,1.567-3.316c0.015,0,0.048,0.034,0.099,0.049
				c0,3.597,0.084,5.544,0.033,8.398C21.038,19.737,20.987,19.737,20.954,19.753L20.954,19.753z M21.716,19.737
				c0-2.425-0.2-4.851,0.015-7.094c0.579,0.939,2.162,1.814,2.244,2.425C22.292,16.751,25.361,19.225,21.716,19.737z"/>
			<path i:knockout="Off" fill="#973E2B" d="M15.28,19.143c-0.677-0.743-0.677-1.583-0.775-2.26c0.33-0.166,1.072-0.727,1.47-0.595
				c0.015,0.644,0.247,1.535,0.247,2.41C15.348,19.177,15.348,19.177,15.28,19.143z"/>
			<path i:knockout="Off" fill="#FF0000" d="M26.466,19.143c-0.28-0.115-0.543-0.231-0.791-0.346c0-0.924,0.347-1.816,0.511-2.607
				c0.363,0,0.76,0.28,1.254,0.562C27.439,16.932,26.812,19.505,26.466,19.143z"/>
			<path i:knockout="Off" fill="#973E2B" d="M24.173,18.631c-0.231-1.007-0.065-2.112,0.05-2.953c0.446,0.016,0.907-0.034,1.5,0.23
				C25.723,17.361,25.79,18.548,24.173,18.631z"/>
			<path i:knockout="Off" fill="#973E2B" d="M16.896,18.499c-0.709-0.478-0.51-2.03-0.412-2.475c0.496-0.165,0.843-0.28,1.484-0.331
				c-0.015,0.859-0.033,1.75-0.065,2.641C17.557,18.384,17.229,18.433,16.896,18.499z"/>
			<path i:knockout="Off" fill="#E3E3E3" d="M15.23,36.235c-2.624-0.693-3.383-3.068-3.646-5.279
				c0.89,0.033,1.979,0.197,2.888,0.397c0.362,2.012,2.194,4.24,4.487,4.273c-0.149,0.065-0.299,0.099-0.463,0.099
				C18.053,36.499,15.741,36.235,15.23,36.235z"/>
			<path i:knockout="Off" fill="#E3E3E3" d="M26.796,36.152c-1.567-0.114-4.321-1.864-3.926-3.53
				c0.512-0.197,1.039-0.428,1.533-0.51c0.941,2.227,3.12,2.227,5.445,2.457C29.156,35.459,28.116,36.07,26.796,36.152z"/>
		</g>
	</g>
</g>
</svg>
