<?xml version="1.0" encoding="utf-8"?>
<!-- Generator: Adobe Illustrator 12.0.0, SVG Export Plug-In . SVG Version: 6.00 Build 51448)  -->
<!DOCTYPE svg PUBLIC "-//W3C//DTD SVG 1.1//EN" "http://www.w3.org/Graphics/SVG/1.1/DTD/svg11.dtd" [
	<!ENTITY ns_flows "http://ns.adobe.com/Flows/1.0/">
	<!ENTITY ns_extend "http://ns.adobe.com/Extensibility/1.0/">
	<!ENTITY ns_ai "http://ns.adobe.com/AdobeIllustrator/10.0/">
	<!ENTITY ns_graphs "http://ns.adobe.com/Graphs/1.0/">
	<!ENTITY ns_vars "http://ns.adobe.com/Variables/1.0/">
	<!ENTITY ns_imrep "http://ns.adobe.com/ImageReplacement/1.0/">
	<!ENTITY ns_sfw "http://ns.adobe.com/SaveForWeb/1.0/">
	<!ENTITY ns_custom "http://ns.adobe.com/GenericCustomNamespace/1.0/">
	<!ENTITY ns_adobe_xpath "http://ns.adobe.com/XPath/1.0/">
	<!ENTITY ns_svg "http://www.w3.org/2000/svg">
	<!ENTITY ns_xlink "http://www.w3.org/1999/xlink">
]>
<svg  version="1.1"
	 xmlns:x="&ns_extend;" xmlns:i="&ns_ai;" xmlns:graph="&ns_graphs;" i:viewOrigin="-0.2368 64.9995" i:rulerOrigin="0 0" i:pageBounds="0 65 45 0"
	 xmlns="&ns_svg;" xmlns:xlink="&ns_xlink;" xmlns:a="http://ns.adobe.com/AdobeSVGViewerExtensions/3.0/"
	 width="45.732" height="65.236" viewBox="0 0 45.732 65.236" overflow="visible" enable-background="new 0 0 45.732 65.236"
	 xml:space="preserve">
<metadata>
	<variableSets  xmlns="&ns_vars;">
		<variableSet  varSetName="binding1" locked="none">
			<variables></variables>
			<v:sampleDataSets  xmlns:v="&ns_vars;" xmlns="&ns_custom;"></v:sampleDataSets>
		</variableSet>
	</variableSets>
</metadata>
<g id="图层_1" i:layer="yes" i:dimmedPercent="50" i:rgbTrio="#4F008000FFFF">
	<g>
		<g i:knockout="Off">
			<path fill="#333333" d="M1.181,47.467v12.077c0,2.49,1.623,4.512,3.62,4.512H42.11c2.001,0,3.622-2.021,3.622-4.512h-0.003V3.807
				C45.729,1.705,44.108,0,42.11,0H4.801C2.802,0,1.183,1.705,1.183,3.807H1.181v43.651C1.181,47.46,1.181,47.464,1.181,47.467z"/>
			
				<linearGradient id="XMLID_3_" gradientUnits="userSpaceOnUse" x1="-41.7031" y1="22.0117" x2="-41.7031" y2="82.7578" gradientTransform="matrix(1 0 0 -1 64.2148 87.0107)">
				<stop  offset="0.0393" style="stop-color:#0060B6"/>
				<stop  offset="0.0899" style="stop-color:#2089B9"/>
				<stop  offset="0.0985" style="stop-color:#4FA3C2"/>
				<stop  offset="0.1071" style="stop-color:#77B9CA"/>
				<stop  offset="0.1138" style="stop-color:#8FC7CF"/>
				<stop  offset="0.118" style="stop-color:#98CCD1"/>
				<stop  offset="0.1341" style="stop-color:#9ECFD3"/>
				<stop  offset="0.156" style="stop-color:#AFD6D9"/>
				<stop  offset="0.1809" style="stop-color:#CBE1E3"/>
				<stop  offset="0.1966" style="stop-color:#E1EAEB"/>
				<a:midPointStop  offset="0.0393" style="stop-color:#0060B6"/>
				<a:midPointStop  offset="0.5" style="stop-color:#0060B6"/>
				<a:midPointStop  offset="0.0899" style="stop-color:#2089B9"/>
				<a:midPointStop  offset="0.5" style="stop-color:#2089B9"/>
				<a:midPointStop  offset="0.0985" style="stop-color:#4FA3C2"/>
				<a:midPointStop  offset="0.5" style="stop-color:#4FA3C2"/>
				<a:midPointStop  offset="0.1071" style="stop-color:#77B9CA"/>
				<a:midPointStop  offset="0.5" style="stop-color:#77B9CA"/>
				<a:midPointStop  offset="0.1138" style="stop-color:#8FC7CF"/>
				<a:midPointStop  offset="0.5" style="stop-color:#8FC7CF"/>
				<a:midPointStop  offset="0.118" style="stop-color:#98CCD1"/>
				<a:midPointStop  offset="0.5" style="stop-color:#98CCD1"/>
				<a:midPointStop  offset="0.1341" style="stop-color:#9ECFD3"/>
				<a:midPointStop  offset="0.5" style="stop-color:#9ECFD3"/>
				<a:midPointStop  offset="0.156" style="stop-color:#AFD6D9"/>
				<a:midPointStop  offset="0.5" style="stop-color:#AFD6D9"/>
				<a:midPointStop  offset="0.1809" style="stop-color:#CBE1E3"/>
				<a:midPointStop  offset="0.5" style="stop-color:#CBE1E3"/>
				<a:midPointStop  offset="0.1966" style="stop-color:#E1EAEB"/>
			</linearGradient>
			<path fill="url(#XMLID_3_)" d="M44.786,60.488c0,2.493-1.621,4.512-3.619,4.512H3.856c-1.997,0-3.619-2.019-3.619-4.512V8.765
				c0-2.49,1.623-4.511,3.619-4.511h37.311c1.998,0,3.619,2.021,3.619,4.511V60.488L44.786,60.488z"/>
			<path fill="none" stroke="#333333" stroke-width="0.4727" d="M44.786,60.488c0,2.493-1.621,4.512-3.619,4.512H3.856
				c-1.997,0-3.619-2.019-3.619-4.512V8.765c0-2.49,1.623-4.511,3.619-4.511h37.311c1.998,0,3.619,2.021,3.619,4.511V60.488
				L44.786,60.488z"/>
			<path fill="#FFFFFF" d="M0.237,4.752c0-2.101,1.622-3.807,3.619-3.807h37.308c2.001,0,3.622,1.705,3.622,3.807v43.653
				c0,2.102-1.624,3.804-3.622,3.804H3.856c-1.997,0-3.619-1.702-3.619-3.807V4.752L0.237,4.752z"/>
			
				<linearGradient id="XMLID_4_" gradientUnits="userSpaceOnUse" x1="2.5522" y1="25.2319" x2="46.646" y2="25.2319" gradientTransform="matrix(-1 0 0 1 47.1104 1.3447)">
				<stop  offset="0" style="stop-color:#A2D8E0"/>
				<stop  offset="0.0899" style="stop-color:#1878AD"/>
				<stop  offset="0.2135" style="stop-color:#194D91"/>
				<stop  offset="0.6404" style="stop-color:#2B90BD"/>
				<stop  offset="0.9438" style="stop-color:#82CBDE"/>
				<stop  offset="1" style="stop-color:#1A478D"/>
				<a:midPointStop  offset="0" style="stop-color:#A2D8E0"/>
				<a:midPointStop  offset="0.5" style="stop-color:#A2D8E0"/>
				<a:midPointStop  offset="0.0899" style="stop-color:#1878AD"/>
				<a:midPointStop  offset="0.5" style="stop-color:#1878AD"/>
				<a:midPointStop  offset="0.2135" style="stop-color:#194D91"/>
				<a:midPointStop  offset="0.5" style="stop-color:#194D91"/>
				<a:midPointStop  offset="0.6404" style="stop-color:#2B90BD"/>
				<a:midPointStop  offset="0.5" style="stop-color:#2B90BD"/>
				<a:midPointStop  offset="0.9438" style="stop-color:#82CBDE"/>
				<a:midPointStop  offset="0.5" style="stop-color:#82CBDE"/>
				<a:midPointStop  offset="1" style="stop-color:#1A478D"/>
			</linearGradient>
			<path i:isolated="yes" i:knockout="Off" opacity="0.1" fill="url(#XMLID_4_)" enable-background="new    " d="M0.464,4.752
				c0-2.101,1.602-3.807,3.577-3.807h36.938c1.977,0,3.579,1.705,3.579,3.807v43.653c0,2.102-1.603,3.804-3.579,3.804H4.043
				c-1.975,0-3.579-1.702-3.579-3.807V4.752L0.464,4.752z"/>
			<path fill="none" stroke="#4D4D4D" stroke-width="0.4727" d="M0.237,48.414v12.074C0.237,62.981,1.859,65,3.856,65h37.311
				c1.998,0,3.619-2.019,3.619-4.512V4.752c0-2.102-1.624-3.806-3.622-3.806H3.856c-1.997,0-3.619,1.705-3.619,3.806v43.653
				C0.236,48.408,0.237,48.411,0.237,48.414z"/>
		</g>
		<g>
			<path i:knockout="Off" d="M22.146,44.604c-1.851-0.284-2.52-0.583-3.62-1.953c-3.02-0.099-7.878,0.302-10.281-1.618
				c-0.4,0-1.334,0.834-1.902,0.952c-6.24-0.234-4.571-5.323-1.702-8.646c0.367-0.3,0.834-0.533,0.901-1.001
				c-1.185-3.138-1.152-6.56,1.802-8.461c-1.235-1.869-1.402-2.953-0.918-4.923c0.684-1.584,0.517-0.935-0.501-1.952
				c-0.733-1.719-0.582-3.771,1.752-3.421c1.403-7.393,6.677-6.826,12.8-6.458c3.222-2.637,5.576-0.083,5.692,3.588
				c0.201,0.2,0.602,0.1,0.985-0.034c4.089,0,2.903,3.622,2.22,6.042c3.821,0.166,3.955,2.703,2.671,5.907
				c2.186,0.233,3.27,2.104,2.535,4.323c-0.132,0.25-0.55,0.782-0.484,1.102c2.589,0.782,2.556,3.169,1.32,5.406
				c0.218,1.568,2.353,1.952,3.872,1.736c3.538-5.426,3.12,1.418,0.601,3.938c-4.706,2.571-9.664,3.804-14.903,3.639
				C24.467,42.836,23.634,44.32,22.146,44.604z"/>
			<path i:knockout="Off" fill="#CCE70B" d="M26.988,42.485c-0.75-0.034-1.484-0.067-2.219-0.083
				c0.099-1.268,0.116-7.228-0.435-8.012c-0.885-0.583-1.102-0.184-1.802,0.301c-0.367-0.1-1.102-0.852-1.135-1.018
				c0.684-0.417,1.635,0.951,2.804-0.619c-0.034-0.015-0.067-0.032-0.102-0.032c-0.232,0.234-0.601,0.45-0.901,0.45
				c-0.584-1.185-1.302-0.418-1.787-0.133c-1.467-0.985-1.551,0.101-2.853,0c-0.718-1.819-2.12,0.668-1.736-2.453
				c1.002-2.754,3.772-1.353,5.992-2.036c0.017-0.033,0.033-0.067,0.05-0.083c-0.233-0.017-0.449-0.033-0.668-0.051
				c-0.167-0.8-0.551-1.651-0.634-2.269c2.537-1.437,3.338-2.469,3.889-5.273c3.487-0.818,3.271-5.191,0.084-3.823
				c-6.059-3.705-10.248-4.639-17.292-4.522c0.135-0.768,0.251-1.402,0.602-2.036c0.734,0,1.536,0.951,3.238,0.617
				c2.502-1.402,1.469-2.036,1.102-3.921c3.371-0.835,7.16,0.133,10.747,1.585c-5.374,0.283-3.42,6.875,1.385,5.006
				c0.553-0.651,0.97-1.285,1.12-2.086c0.049,0,0.099,0,0.166,0.017c3.505,6.742,5.574,14.101,8.194,21.377
				c1.72,2.872,3.203,2.036,6.258,2.036c0.985,0.651-0.833,2.954-1.469,3.473C35.75,40.866,31.227,42.485,26.988,42.485
				L26.988,42.485z M41.29,35.142c0.068-0.017,0.152-0.017,0.235-0.017c0.2-0.417,0.084-1.485-0.134-1.704
				c-0.702,0.084-1.353,1.019-1.553,1.704C41.125,35.091,41.125,35.091,41.29,35.142L41.29,35.142z M10.965,35.443
				c0.386,0.033,0.386,0.033,0.586-0.051c0.467-1.65,2.469-0.301,2.469-2.338c-0.083-0.015-0.149-0.032-0.216-0.032
				c-0.317,0.367-0.4,0.618-0.567,1.152c-0.035-0.019-0.067-0.032-0.084-0.051c0-0.116,0-0.233,0-0.335
				c0.5-1,1.42-3.185,0.367-3.988c-1.418-0.583-1.886-0.717-3.22,0.036c-0.019-0.069-0.035-0.118-0.035-0.167
				c0.217-0.135,0.435-0.269,0.668-0.385c0.083-1.802,0.551-2.653,0.585-3.153c-1.52-0.469-2.787-1.002-3.84-1.953
				c-2.485,0.4-3.269,6.891-1.669,7.96c1.153-0.684,1.688,0.267,1.903,1.334c1.77-0.35,2.053-1.25,2.053,1.586
				C10.281,35.091,10.648,34.941,10.965,35.443L10.965,35.443z M21.696,44.154c3.94-0.184,2.471-3.655,2.471-6.309
				c0.133-0.667,0.234-1.335,0.234-2.002c-0.753-1.252-6.577-1.285-6.577,1.669C18.627,40.632,17.792,43.287,21.696,44.154
				L21.696,44.154z M5.242,41.534c2.654-0.267,6.025-3.988,4.407-5.974c-0.551-2.637-1.804-0.986-2.905-2.371
				C4.791,31.971-0.866,39.916,5.242,41.534L5.242,41.534z M17.976,42.269c0.084,0,0.184,0,0.284,0
				c0.065-1.219-0.384-3.122-0.734-4.091c-1.953,0.167-3.839,0.752-5.892-2.451c-0.167-0.019-0.334-0.034-0.501-0.034
				c-0.299,1.551-2.67,4.172-2.67,5.123C11.117,42.417,14.838,42.035,17.976,42.269z"/>
			<path i:knockout="Off" d="M21.096,41.702c-3.838-0.77-0.418-5.509,2.354-2.069C23.45,41.417,22.615,41.702,21.096,41.702z"/>
			<path i:knockout="Off" d="M5.627,39.865c-3.973-1.134-1.62-5.406,1.834-2.387C8.329,38.963,7.045,39.865,5.627,39.865z"/>
			<path i:knockout="Off" d="M8.847,37.362c-0.15-0.101-0.283-0.202-0.416-0.301c0-0.518,0.015-0.501,0.249-0.834
				c0.518,0,0.485-0.116,1.069,0.3C9.749,37.261,9.397,37.312,8.847,37.362z"/>
			<path i:knockout="Off" d="M19.026,37.261c-0.566-0.134-0.8-0.385-0.8-0.8c0.517-0.469,0.601-0.652,1.367-0.436
				C19.945,36.745,19.695,37.061,19.026,37.261z"/>
			<path i:knockout="Off" d="M23.15,36.978c-0.335-0.184-0.485-0.284-0.553-0.468c0.234-0.518,0.335-0.802,1.051-0.65
				c0.251,0.451,0.402,0.584-0.049,1.118C23.45,36.978,23.3,36.978,23.15,36.978z"/>
			<path i:knockout="Off" d="M21.146,36.76c-0.518-0.333-0.501-0.417-0.534-0.801c0.517-0.517,1.269-0.669,1.386,0.384
				C21.714,36.578,21.514,36.76,21.146,36.76z"/>
			<path i:knockout="Off" d="M7.912,35.759c-0.417-0.199-0.451-0.351-0.567-0.534c0.083-0.182,0.183-0.367,0.284-0.534
				C8.847,34.357,8.998,35.759,7.912,35.759z"/>
			<path i:knockout="Off" d="M6.009,34.691c-0.433-0.217-0.433-0.217-0.633-0.4C5.376,31.905,7.863,34.691,6.009,34.691z"/>
			<path i:knockout="Off" fill="#99CF16" d="M35.049,33.054c-0.418-1.767-0.418-1.767-1.27-4.604
				c2.306,0.149,2.487,2.753,1.469,4.557C35.183,33.022,35.115,33.04,35.049,33.054z"/>
			<path i:knockout="Off" fill="#99CF16" d="M33.547,27.849c-0.635-1.585-1.521-3.388-1.837-4.84
				C36.001,23.593,33.848,28.05,33.547,27.849L33.547,27.849z M11.899,35.56c0.437-0.168,0.97-0.4,1.12-0.953
				c2.536-0.9,1.753-6.557-1.785-5.389c0-1.001,0.065-2.087,0.517-2.836c3.203,0,5.674,1.084,9.279,0.25
				c0.099,0,0.217,0.016,0.333,0.033c0.3,0.667,0.567,1.102,0.5,2.02c-2.985,0.517-5.373-0.351-5.373,3.604
				c0.3,1.169,0.935,1.953,2.369,1.236c0.502,0,0.953,0.4,1.618,0.484c-0.416,1.001-0.416,1.001-0.498,1.051
				c-2.204-2.204-2.654,1.152-2.538,2.787C16.274,38.58,12.469,37.929,11.899,35.56L11.899,35.56z M22.481,33.589
				c0.15,0,0.302,0,0.451,0c0.016-0.033,0.032-0.066,0.051-0.084c-0.435-0.433-0.586-0.483-1.053-0.416
				c-0.017,0.084-0.017,0.167-0.017,0.25C22.098,33.421,22.281,33.505,22.481,33.589L22.481,33.589z M20.361,33.756
				c0.186,0,0.669-0.065,0.835-0.316c-0.367-0.618-1.268-0.233-1.584-0.101c0,0.05,0.015,0.117,0.032,0.184
				C19.861,33.64,19.861,33.64,20.361,33.756L20.361,33.756z M17.642,33.523c0.218-0.018,0.45-0.018,0.684-0.018
				c-0.099-0.767-0.917-0.684-1.4-0.716C16.974,33.173,17.125,33.291,17.642,33.523L17.642,33.523z M14.087,32.003
				c0.017,0.018,0.034,0.035,0.049,0.051c0.418-0.25,0.202-1.152,0.168-1.385c-0.066-0.015-0.117-0.033-0.168-0.033
				C13.971,31.036,13.987,31.437,14.087,32.003L14.087,32.003z M11.751,35.341c0.534-0.098,0.851-0.148,1.001-0.783
				C12.201,34.757,11.983,34.792,11.751,35.341L11.751,35.341z M10.633,36.427c-0.101-0.602-0.584-0.7-0.501-1.118
				c0.168,0,0.335,0.017,0.501,0.032c0,0.102,0,0.219,0.016,0.335c0.067,0.017,0.135,0.051,0.2,0.083
				C10.849,35.792,10.834,36.56,10.633,36.427L10.633,36.427z M7.511,33.421c-0.549-0.516-0.851-0.732-1.334-0.916
				c0-0.084,0-0.151,0-0.218c0.702,0,1.668-0.233,1.418,1.102C7.562,33.389,7.528,33.407,7.511,33.421L7.511,33.421z M9.749,34.308
				c-0.535-0.584-0.686-0.668-1.286-0.803c0-0.065,0-0.116,0.017-0.166c0.784-0.383,1.402-0.15,1.402,0.951
				C9.798,34.341,9.798,34.341,9.749,34.308L9.749,34.308z M17.809,35.676c0.551-0.284,1.102-0.551,1.669-0.818
				C18.476,34.257,18.042,34.708,17.809,35.676L17.809,35.676z M20.312,34.958c0.5-0.05,0.967-0.316,1.618-0.316
				c0.017-0.035,0.034-0.068,0.051-0.084C21.212,33.64,20.562,34.124,20.312,34.958L20.312,34.958z M24.369,35.193
				c-0.636-0.316-1.053-0.2-1.669-0.185c0.166-0.866,1.751-1.034,1.751,0.166C24.418,35.174,24.383,35.174,24.369,35.193z"/>
			<path i:knockout="Off" fill="#F9DF76" d="M18.359,26.68c-4.772-0.167-13.518-1.117-11.549-7.793
				c0.651-1.518,1.151-3.171,1.269-4.673c1.653,0.551,1.453,1.585,2.837-0.951c2.52,0.1,9.812,0.833,11.849,2.836
				c0,6.242,4.808-2.303,4.808,3.071c-0.367,0.702-1.086,1.502-1.92,1.502c0.65-0.633,1.085-1.051,1.085-1.886
				c-0.485-0.384-0.701-0.167-1.034,0.05c0-1.585,0.734-0.769,1.502-0.618c-1.536-3.088-2.521,4.573-2.637,5.006
				C23.199,25.662,21.045,26.463,18.359,26.68L18.359,26.68z M25.486,20.389c0.418-0.1,1.368-1.218,1.001-1.585
				C25.503,18.904,25.503,19.404,25.486,20.389L25.486,20.389z M6.845,17.302c0.084-0.017,0.166-0.017,0.25-0.017
				c-0.1-0.852-0.467-1.151-0.467-1.936c0.1-0.05,0.751-0.567,0.918-0.234c0.05-0.066,0.05-0.066,0.05-0.567
				c-0.4-0.317-0.417-0.167-0.717-0.167c-0.084,0.1-0.167,0.217-0.251,0.334c-0.033-0.017-0.066-0.034-0.083-0.051
				c0.083-0.534,0.451-0.768,1.018-0.384c0.084-0.066,0.084-0.066,0.067-0.316C5.76,13.029,5.441,16.034,6.845,17.302L6.845,17.302z
				 M7.128,16.751c0.568-0.134,0.484-1.168,0.333-1.485c-0.518,0.05-0.384-0.033-0.7,0.284C6.794,16,6.86,16.201,7.128,16.751z"/>
			<path i:knockout="Off" d="M14.922,23.142c-0.868-0.266-1.068-0.317-1.335-1.017c0.4,0,1.718,1.551,2.887,0.4
				c0.05,0,0.101,0.016,0.168,0.034C16.239,23.176,15.507,23.142,14.922,23.142z"/>
			<path i:knockout="Off" fill="#99CF16" d="M31.444,22.442c-0.751-1.718-1.736-3.655-2.002-5.274c3.188,0,3.971,3.137,2.051,5.341
				C31.478,22.476,31.46,22.458,31.444,22.442z"/>
			<path i:knockout="Off" d="M19.026,21.625c0-0.083,0-0.167,0-0.234c-0.1-0.016-0.199-0.034-0.3-0.049
				c-0.017-0.068-0.034-0.118-0.034-0.167c0.567-0.083,0.567-0.083,0.901-0.067c-0.065,0.082-0.065,0.082-0.232,0.117
				c0,0.049,0,0.1,0,0.167c0.133,0.049,0.266,0.1,0.4,0.166C19.511,21.574,19.26,21.591,19.026,21.625z"/>
			<path i:knockout="Off" d="M15.021,21.023c-0.234-0.017-0.449-0.017-0.667-0.017c0.016-0.067,0.032-0.116,0.051-0.167
				c0.283-0.033,0.483-0.066,0.851,0.167C15.172,21.007,15.089,21.007,15.021,21.023z"/>
			<path i:knockout="Off" d="M16.69,20.923c-3.905-1.302,1.969-6.859,3.289-1.87c-0.069,0-0.118,0-0.167,0
				c-0.2-0.951-0.768-1.418-1.553-1.501c0.267,1.6-0.517,2.736,0.051,3.12C17.608,20.673,17.241,20.923,16.69,20.923z"/>
			<path i:knockout="Off" d="M12.918,20.473c-0.768-0.484-0.9-0.585-1.601-0.684C11.3,19.722,11.3,19.672,11.3,19.622
				c0.15-0.033,0.302-0.051,0.467-0.067c-0.384-1.852,0.251-1.619,0.535-3.054c-0.935,0.2-1.369,1.052-1.886,1.168
				C13.271,13.013,16.758,20.473,12.918,20.473z"/>
			<path i:knockout="Off" d="M10.016,20.255c-0.067-0.015-0.116-0.033-0.167-0.033c0-0.065,0-0.116,0-0.167
				c0.217,0.051,0.433,0.102,0.667,0.167C10.349,20.222,10.183,20.24,10.016,20.255z"/>
			<path i:knockout="Off" d="M9.965,19.854c-0.116-0.033-0.232-0.049-0.334-0.065c-0.017-0.067-0.033-0.117-0.05-0.167
				c0.5,0.066,0.5,0.066,0.835,0.217C10.265,19.838,10.114,19.838,9.965,19.854z"/>
			<path i:knockout="Off" fill="#FFFFFF" d="M16.523,19.472c-0.449-0.451-0.249-0.551,0-0.952c0.15-0.017,0.3-0.034,0.45-0.05
				C17.325,18.821,17.107,19.472,16.523,19.472z"/>
			<path i:knockout="Off" fill="#FFFFFF" d="M13.638,19.021c-0.401-0.268-0.135-0.818,0-1.052c0.099,0,0.216,0,0.333,0
				c0.034,0.05,0.083,0.1,0.133,0.15c0,0.183,0,0.65-0.167,0.884C13.838,19.003,13.736,19.003,13.638,19.021z"/>
			<path i:knockout="Off" fill="#FFFFFF" d="M24.035,18.353c-1.135-0.417-1.002-1.218-1.102-2.069
				c0.567,0.233,2.018,0.834,2.302,1.553C24.802,18.12,24.5,18.27,24.035,18.353z"/>
			<path i:knockout="Off" fill="#99CF16" d="M28.94,16c-1.818-3.321-2.353-4.756-2.236-4.79C29.307,9.742,30.709,14.665,28.94,16z"
				/>
			<path i:knockout="Off" fill="#FFFFFF" d="M9.264,14.615c-0.584-0.234-1.419-1.035-1.019-1.369
				c0.435-0.066,0.435-0.066,2.437-0.083C10.516,14.081,10.1,14.415,9.264,14.615z"/>
			<path i:knockout="Off" fill="#FFFFFF" d="M23.267,14.181c-2.02-0.667-2.855-1.785-2.037-3.738
				C25.353,6.838,28.758,14.181,23.267,14.181z"/>
			<path i:knockout="Off" d="M23.366,13.13c-2.437-0.802-0.8-4.239,1.336-2.503C25.486,12.078,25.085,13.029,23.366,13.13z"/>
			<path i:knockout="Off" d="M17.023,12.963c-0.015-0.067-0.033-0.134-0.033-0.184c0.117-0.1,0.519-0.667,0.702-0.35
				C17.591,12.579,17.19,12.913,17.023,12.963z"/>
			<path i:knockout="Off" d="M15.855,12.746c-0.1-0.2-0.1-0.2-0.501-0.534c0.367-0.268,0.568,0.1,0.669,0.567
				C15.956,12.763,15.906,12.746,15.855,12.746z"/>
			<path i:knockout="Off" fill="#FFFFFF" d="M10.965,11.293c-1,0-2.869-0.901-1.116-1.752c0.884,2.454,4.088,0.117,2.418-1.552
				c0-0.066,0.019-0.133,0.035-0.2c0.333-0.116,0.333-0.116,0.718-0.116C14.087,9.592,12.903,11.227,10.965,11.293z"/>
			<path i:knockout="Off" fill="#99CF16" d="M25.602,10.109c0-1.084-4.039-2.586-4.623-2.787c-0.017-0.066-0.033-0.116-0.033-0.167
				c2.019-1.235,5.658-0.051,4.79,2.887C25.686,10.059,25.636,10.076,25.602,10.109z"/>
			<path i:knockout="Off" fill="#A3BA53" d="M26.003,25.178c0.835,0,1.502,0.752,1.502,1.652c0,0.9-0.667,1.653-1.502,1.653
				c-0.834,0-1.503-0.752-1.503-1.653C24.5,25.931,25.169,25.178,26.003,25.178z"/>
			<path i:knockout="Off" fill="#A3BA53" d="M28.406,24.178c0.418,0,0.752,0.368,0.752,0.818c0,0.466-0.334,0.833-0.752,0.833
				c-0.417,0-0.75-0.367-0.75-0.833C27.656,24.545,27.989,24.178,28.406,24.178z"/>
			<path i:knockout="Off" fill="#A3BA53" d="M28.723,20.44c0.603,0,1.086,0.534,1.086,1.185c0,0.633-0.483,1.167-1.086,1.167
				c-0.583,0-1.067-0.534-1.067-1.167C27.656,20.974,28.14,20.44,28.723,20.44z"/>
			<path i:knockout="Off" fill="#A3BA53" d="M27.856,29.935c0.417,0,0.75,0.385,0.75,0.836c0,0.449-0.333,0.816-0.75,0.816
				c-0.418,0-0.752-0.367-0.752-0.816C27.104,30.32,27.438,29.935,27.856,29.935z"/>
			<path i:knockout="Off" fill="#A3BA53" d="M31.209,27.282c0.836,0,1.52,0.751,1.52,1.652c0,0.902-0.684,1.651-1.52,1.651
				c-0.816,0-1.502-0.75-1.502-1.651C29.708,28.033,30.393,27.282,31.209,27.282z"/>
			<path i:knockout="Off" fill="#A3BA53" d="M30.709,37.695c0.618,0,1.102,0.534,1.102,1.203c0,0.65-0.483,1.2-1.102,1.2
				c-0.601,0-1.086-0.55-1.086-1.2C29.624,38.229,30.109,37.695,30.709,37.695z"/>
			<path i:knockout="Off" fill="#A3BA53" d="M32.227,33.691c0.567,0,1.052,0.5,1.052,1.135c0,0.633-0.484,1.15-1.052,1.15
				c-0.582,0-1.051-0.518-1.051-1.15C31.176,34.191,31.645,33.691,32.227,33.691z"/>
			<path i:knockout="Off" fill="#A3BA53" d="M27.74,32.521c1.033,0,1.884,0.918,1.884,2.052c0,1.119-0.851,2.037-1.884,2.037
				c-1.036,0-1.869-0.918-1.869-2.037C25.871,33.44,26.704,32.521,27.74,32.521z"/>
			<path i:knockout="Off" fill="#A3BA53" d="M35.616,35.643c1.019,0,1.869,0.917,1.869,2.036c0,1.135-0.851,2.052-1.869,2.052
				c-1.035,0-1.887-0.917-1.887-2.052C33.729,36.56,34.581,35.643,35.616,35.643z"/>
		</g>
	</g>
</g>
</svg>
