<?xml version="1.0" encoding="utf-8"?>
<!-- Generator: Adobe Illustrator 12.0.0, SVG Export Plug-In . SVG Version: 6.00 Build 51448)  -->
<!DOCTYPE svg PUBLIC "-//W3C//DTD SVG 1.1//EN" "http://www.w3.org/Graphics/SVG/1.1/DTD/svg11.dtd" [
	<!ENTITY ns_flows "http://ns.adobe.com/Flows/1.0/">
	<!ENTITY ns_extend "http://ns.adobe.com/Extensibility/1.0/">
	<!ENTITY ns_ai "http://ns.adobe.com/AdobeIllustrator/10.0/">
	<!ENTITY ns_graphs "http://ns.adobe.com/Graphs/1.0/">
	<!ENTITY ns_vars "http://ns.adobe.com/Variables/1.0/">
	<!ENTITY ns_imrep "http://ns.adobe.com/ImageReplacement/1.0/">
	<!ENTITY ns_sfw "http://ns.adobe.com/SaveForWeb/1.0/">
	<!ENTITY ns_custom "http://ns.adobe.com/GenericCustomNamespace/1.0/">
	<!ENTITY ns_adobe_xpath "http://ns.adobe.com/XPath/1.0/">
	<!ENTITY ns_svg "http://www.w3.org/2000/svg">
	<!ENTITY ns_xlink "http://www.w3.org/1999/xlink">
]>
<svg  version="1.1"
	 xmlns:x="&ns_extend;" xmlns:i="&ns_ai;" xmlns:graph="&ns_graphs;" i:viewOrigin="4.882812e-04 65" i:rulerOrigin="0 0" i:pageBounds="0 65 45 0"
	 xmlns="&ns_svg;" xmlns:xlink="&ns_xlink;" xmlns:a="http://ns.adobe.com/AdobeSVGViewerExtensions/3.0/"
	 width="45.799" height="65.236" viewBox="0 0 45.799 65.236" overflow="visible" enable-background="new 0 0 45.799 65.236"
	 xml:space="preserve">
<metadata>
	<variableSets  xmlns="&ns_vars;">
		<variableSet  varSetName="binding1" locked="none">
			<variables></variables>
			<v:sampleDataSets  xmlns:v="&ns_vars;" xmlns="&ns_custom;"></v:sampleDataSets>
		</variableSet>
	</variableSets>
</metadata>
<g id="图层_1" i:layer="yes" i:dimmedPercent="50" i:rgbTrio="#4F008000FFFF">
	<g>
		<g i:knockout="Off">
			<path fill="#333333" d="M1.251,47.468v12.074c0,2.491,1.623,4.515,3.619,4.515h37.308c2.001,0,3.622-2.023,3.622-4.515l0,0V3.807
				c0-2.1-1.624-3.807-3.622-3.807H4.871c-1.999,0-3.62,1.707-3.62,3.807l0,0v43.65C1.251,47.46,1.251,47.463,1.251,47.468z"/>
			
				<linearGradient id="XMLID_3_" gradientUnits="userSpaceOnUse" x1="-41.6328" y1="22.0122" x2="-41.6328" y2="82.7563" gradientTransform="matrix(1 0 0 -1 64.2148 87.0117)">
				<stop  offset="0.0393" style="stop-color:#0060B6"/>
				<stop  offset="0.0899" style="stop-color:#2089B9"/>
				<stop  offset="0.0985" style="stop-color:#4FA3C2"/>
				<stop  offset="0.1071" style="stop-color:#77B9CA"/>
				<stop  offset="0.1138" style="stop-color:#8FC7CF"/>
				<stop  offset="0.118" style="stop-color:#98CCD1"/>
				<stop  offset="0.1341" style="stop-color:#9ECFD3"/>
				<stop  offset="0.156" style="stop-color:#AFD6D9"/>
				<stop  offset="0.1809" style="stop-color:#CBE1E3"/>
				<stop  offset="0.1966" style="stop-color:#E1EAEB"/>
				<a:midPointStop  offset="0.0393" style="stop-color:#0060B6"/>
				<a:midPointStop  offset="0.5" style="stop-color:#0060B6"/>
				<a:midPointStop  offset="0.0899" style="stop-color:#2089B9"/>
				<a:midPointStop  offset="0.5" style="stop-color:#2089B9"/>
				<a:midPointStop  offset="0.0985" style="stop-color:#4FA3C2"/>
				<a:midPointStop  offset="0.5" style="stop-color:#4FA3C2"/>
				<a:midPointStop  offset="0.1071" style="stop-color:#77B9CA"/>
				<a:midPointStop  offset="0.5" style="stop-color:#77B9CA"/>
				<a:midPointStop  offset="0.1138" style="stop-color:#8FC7CF"/>
				<a:midPointStop  offset="0.5" style="stop-color:#8FC7CF"/>
				<a:midPointStop  offset="0.118" style="stop-color:#98CCD1"/>
				<a:midPointStop  offset="0.5" style="stop-color:#98CCD1"/>
				<a:midPointStop  offset="0.1341" style="stop-color:#9ECFD3"/>
				<a:midPointStop  offset="0.5" style="stop-color:#9ECFD3"/>
				<a:midPointStop  offset="0.156" style="stop-color:#AFD6D9"/>
				<a:midPointStop  offset="0.5" style="stop-color:#AFD6D9"/>
				<a:midPointStop  offset="0.1809" style="stop-color:#CBE1E3"/>
				<a:midPointStop  offset="0.5" style="stop-color:#CBE1E3"/>
				<a:midPointStop  offset="0.1966" style="stop-color:#E1EAEB"/>
			</linearGradient>
			<path fill="url(#XMLID_3_)" d="M44.856,60.487c0,2.493-1.621,4.513-3.622,4.513H3.926c-1.998,0-3.619-2.021-3.619-4.513V8.763
				c0-2.489,1.623-4.508,3.619-4.508h37.308c2.001,0,3.622,2.02,3.622,4.508V60.487L44.856,60.487z"/>
			<path fill="none" stroke="#333333" stroke-width="0.4727" d="M44.856,60.487c0,2.493-1.621,4.513-3.622,4.513H3.926
				c-1.998,0-3.619-2.021-3.619-4.513V8.763c0-2.489,1.623-4.508,3.619-4.508h37.308c2.001,0,3.622,2.02,3.622,4.508V60.487
				L44.856,60.487z"/>
			<path fill="#FFFFFF" d="M0.305,4.752c0-2.101,1.624-3.807,3.622-3.807h37.308c2.001,0,3.619,1.704,3.619,3.807v43.65
				c0,2.104-1.621,3.807-3.619,3.807H3.926c-2,0-3.622-1.703-3.622-3.807V4.752L0.305,4.752z"/>
			
				<linearGradient id="XMLID_4_" gradientUnits="userSpaceOnUse" x1="2.0103" y1="25.2324" x2="46.1011" y2="25.2324" gradientTransform="matrix(-1 0 0 1 46.6357 1.3447)">
				<stop  offset="0" style="stop-color:#A2D8E0"/>
				<stop  offset="0.0899" style="stop-color:#1878AD"/>
				<stop  offset="0.2135" style="stop-color:#194D91"/>
				<stop  offset="0.6404" style="stop-color:#2B90BD"/>
				<stop  offset="0.9438" style="stop-color:#82CBDE"/>
				<stop  offset="1" style="stop-color:#1A478D"/>
				<a:midPointStop  offset="0" style="stop-color:#A2D8E0"/>
				<a:midPointStop  offset="0.5" style="stop-color:#A2D8E0"/>
				<a:midPointStop  offset="0.0899" style="stop-color:#1878AD"/>
				<a:midPointStop  offset="0.5" style="stop-color:#1878AD"/>
				<a:midPointStop  offset="0.2135" style="stop-color:#194D91"/>
				<a:midPointStop  offset="0.5" style="stop-color:#194D91"/>
				<a:midPointStop  offset="0.6404" style="stop-color:#2B90BD"/>
				<a:midPointStop  offset="0.5" style="stop-color:#2B90BD"/>
				<a:midPointStop  offset="0.9438" style="stop-color:#82CBDE"/>
				<a:midPointStop  offset="0.5" style="stop-color:#82CBDE"/>
				<a:midPointStop  offset="1" style="stop-color:#1A478D"/>
			</linearGradient>
			<path i:isolated="yes" i:knockout="Off" opacity="0.1" fill="url(#XMLID_4_)" enable-background="new    " d="M0.535,4.752
				c0-2.101,1.602-3.807,3.578-3.807h36.937c1.974,0,3.576,1.704,3.576,3.807v43.65c0,2.104-1.603,3.807-3.576,3.807H4.113
				c-1.975,0-3.578-1.703-3.578-3.807V4.752L0.535,4.752z"/>
			<path fill="none" stroke="#4D4D4D" stroke-width="0.4727" d="M0.305,48.411v12.076C0.305,62.979,1.929,65,3.926,65h37.308
				c2.001,0,3.619-2.02,3.619-4.513V4.752c0-2.101-1.621-3.807-3.619-3.807H3.926c-1.998,0-3.619,1.707-3.619,3.807l-0.003,43.65
				C0.305,48.403,0.305,48.409,0.305,48.411z"/>
		</g>
		<g>
			<path i:knockout="Off" d="M28.341,44.604c0-0.082,0-0.166,0-0.233c-3.377-0.234-6.398-1.223-9.569-1.771
				c-3.926-0.054-7.77,0.495-11.612,0.137c-8.072-1.469-1.785-8.373-0.398-12.326c0.124-0.124,0.137-0.193,0.11-0.357
				c-1.333-0.755-1.579-1.29-1.799-2.705c-1.923-0.824-1.99-0.315-2.444-2.374c-1.482,0-1.427-2.074-2.183-2.747
				c-1.744-2.511,2.101-2.676,3.295-3.706c0.507-1.386,2.085-2.251,3.5-2.319c1.44-1.442,1.895-4.641,4.666-4.984
				c1.69-0.864,3.857-0.768,5.766-0.823c4.93-4.928,10.269-5.738,16.434-2.114c2.194,1.812,3.843,5.848,5.464,8.264
				c0.096,2.004,2.194,7.922,1.332,9.664c-1.016,0.109-1.69-0.082-2.583-0.273c1.03,3.102,6.136,3.074,4.312,7.822
				c-0.935,1.184-2.335,3.213-3.72,1.484c-0.481,0.068-0.837,0.426-1.332,0.55c-0.988-0.632-0.962-1.565-2.061-1.717
				c0.756,2.595,2.487,6.37,0.03,8.827c-1.839,1.192-3.777,1.304-5.796,1.51c0,0.041,0,0.083,0,0.137
				c-0.274-0.068-0.588-0.068-0.725-0.137c-0.016,0.041-0.03,0.083-0.042,0.137c-0.096,0-0.191,0-0.275,0c0-0.054,0-0.096,0-0.137
				C28.464,44.453,28.533,44.495,28.341,44.604z"/>
			<path i:knockout="Off" fill="#FFFFFF" d="M23.989,39.169c-1.812-3.351-1.812-3.351-2.168-4.132
				c-0.92-0.92-4.243,4.048-5.189,4.048c-0.961-1.55-1.606-3.156-2.183-4.693c-1.427-2.87-1.991,1.276-3.803,1.057
				c-0.027-2.293,0.014-4.626,0.082-6.906c-1.016,0.124-2.183,0.797-3.157,1.099c0.921-2.442,2.251-4.708,3.447-6.96
				c1.096-1.744,2.016-3.061,2.084-3.253c0.069,0,0.152,0,0.233,0c0.221,2.814-1.714,4.517,1.155,7.096
				c3.213,1.69,6.147,0.853,8.181-2.057c0.152-0.412,0.424-1.881,0.493-1.965c0.221,0.427,0.441,0.851,0.659,1.278
				c0.852,0,1.732-1.263,2.416-1.263c0.358,0.59,0.358,0.59,0.797,1.538c0.699,0,1.469-0.976,1.95-0.879
				c0.836,3.487,2.881,9.747,1.797,13.548c-0.672-0.81-1.977-2.966-2.812-3.13C27.544,34.239,24.565,39.169,23.989,39.169z"/>
			<path i:knockout="Off" fill="#1A1A1A" d="M21.847,37.851c-0.026-0.166-0.026-0.166,0.222-1.482
				c0.08,0.026,0.878,1.139,0.782,1.427C22.671,37.851,22.671,37.851,21.847,37.851L21.847,37.851z M25.636,37.685
				c0.714-1.234,0.714-1.234,1.977-3.155c0.302-0.056,0.604-0.111,0.905-0.166c0.235,0.303,1.827,2.127,1.949,2.635
				C28.697,37.398,27.366,37.604,25.636,37.685L25.636,37.685z M31.184,36.685c0.149-3.64-0.373-2.472,2.415-3.735
				c0.688,0.068,1.439,0.947,1.577,1.812C34.05,35.476,32.39,36.506,31.184,36.685L31.184,36.685z M12.556,36.382
				c-0.496-0.206-0.991-0.412-1.47-0.618c0-0.056,0-0.096,0-0.136c0.646-0.372,1.317-1.114,1.977-1.374
				c-0.098,0.7-0.179,1.4-0.263,2.114C12.72,36.368,12.636,36.368,12.556,36.382L12.556,36.382z M10.18,35.242
				c-2.925-1.812-4.119-1.895-2.869-5.01c0.055-0.015,0.108-0.028,0.164-0.028c2.621,2.925,2.883,0.48,2.842,5.038
				C10.262,35.242,10.22,35.242,10.18,35.242L10.18,35.242z M19.871,37.479c-0.301-0.012-0.603-0.012-0.904-0.012
				c0.122-0.37,1.564-1.689,1.92-1.744c-0.096,0.562-0.218,1.098-0.412,1.716C20.268,37.452,20.062,37.467,19.871,37.479
				L19.871,37.479z M14.888,36.752c-1.058-0.658-0.756-0.81-0.646-1.895c0.042,0.015,0.084,0.027,0.138,0.041
				c0.343,1.058,0.343,1.058,0.659,1.825C14.983,36.724,14.929,36.738,14.888,36.752z"/>
			<path i:knockout="Off" fill="#7F7F7F" d="M15.258,37.712c-0.893-0.313-1.428-0.562-2.058-1.096
				c-0.042-0.702-0.138-2.774,0.63-2.885c0.344,0.687,0.027,1.593,0.027,2.499c0.248,0.632,1.194,0.74,1.717,1.428
				C15.533,37.712,15.533,37.712,15.258,37.712L15.258,37.712z M18.772,38.398c-0.206-0.04-0.396-0.068-0.588-0.096
				c-0.015-0.054-0.03-0.11-0.03-0.15c0.824-0.823,1.663-0.067,2.541-0.398c0.233-0.824,0.522-1.729,0.618-2.484
				c0.122-0.082,0.122-0.082,0.26-0.082c0.427,0.782,0.316,2.691-0.645,3.115C19.788,38.398,19.788,38.398,18.772,38.398z"/>
			<path i:knockout="Off" fill="#973E2B" d="M10.22,31.851c-0.59-0.355-2.36-1.344-2.499-1.893c2.321-0.893,2.321-0.893,2.732-1.003
				c-0.041,0.961-0.083,1.923-0.123,2.884C10.262,31.879,10.262,31.879,10.22,31.851L10.22,31.851z M36.343,33.815
				c-0.534-0.234-3.843-2.143-3.885-2.074c0.302,0.288,0.618,0.576,0.935,0.864c-0.015,0.055-0.026,0.124-0.041,0.192
				c-0.592,0.357-1.442,0.579-2.033,0.727c-0.439-3.087-1.084-6.025-1.646-8.963c1.469,0.206,2.95,0.37,3.926-1.153
				c1.264,0,5.957,4.091,6.561,5.491C40.064,30.919,38.553,33.663,36.343,33.815L36.343,33.815z M25.281,43.479
				c3.362,0,8.647-2.059,10.952-4.6c-0.176-1.385-0.809-2.69-0.932-3.801c-0.74,0.096-4.258,2.019-4.448,2.305
				c-1.564-0.108-3.625,0.535-5.297,0.605c-0.633,0.232-0.977,1.165-1.606,1.619c-0.332-0.22-0.702-1.221-0.824-1.469
				c-1.938,0.054-3.35,0.632-5.396,0.397c-1.29,1.167-1.236,1.057-1.923-0.371c-2.183-0.521-4.735-2.141-6.644-3.155
				c-0.576-0.412-2.582-2.156-2.746-2.156c-0.687,1.195-2.087,2.568-2.087,3.966c1.675,5.478,7.756,5.752,12.659,5.189
				c0.52,0.014,6.574,0.715,7.231,1.372C24.771,43.382,24.771,43.382,25.281,43.479L25.281,43.479z M40.106,25.811
				c0.221,0,0.221,0,0.465-0.069c-0.095-3.129-0.89-6.136-1.508-9.06c-1.441-2.457-2.979-4.9-4.364-7.234
				C30.91,5.536,25.24,5.975,20.875,8.267c-1.264,0.783-3.434,2.403-3.693,3.982c1.358-0.138,1.729-0.673,3.239-0.344
				c2.114,0,1.592-0.453,4.037,0.275c2.263,0,3.624,0.11,5.326,1.812c1.439,0.864,1.771,2.992,2.717,4.406
				c1.481,0.796,1.29,1.675,1.854,3.28c0.274-0.273,0.878-3.252,0.988-3.76c0.054,0,0.107,0,0.176,0
				c-0.122,1.303-0.946,3.473-1.057,4.446c0.782-0.645,1.361-1.549,1.923-2.332c0.122,0.63-1.756,2.442-2.21,3.019
				c0,0.055,0.013,0.124,0.027,0.192C36.4,24.467,37.427,25.234,40.106,25.811L40.106,25.811z M5.1,22.01
				c0-0.66,0.509-1.896,1.181-1.896C6.582,20.731,5.731,21.913,5.1,22.01L5.1,22.01z M5.554,26.484
				c1.482-0.947,1.95-3.967,1.372-5.409c-0.027,0.015-0.054,0.027-0.067,0.055c0,0.028,0.04,2.402-0.467,2.1
				c0.123-0.603,0.246-1.606,0.082-2.018c-0.055,0-0.097,0-0.137,0c-0.385,0.425-0.755,0.975-1.332,1.072
				c-0.673-0.675,0.562-2.006,1.001-2.445c-0.809-1.221-3.926-0.096-4.749,0.303c-0.015,0.068-0.028,0.136-0.028,0.206
				c0.893,0.7,0.659,1.303,2.129,1.303c1.097,0.439,0.727,1.099,1.372,1.964C6.033,24.37,5.266,25.085,5.554,26.484L5.554,26.484z
				 M10.907,22.201c-0.919-1.221,1.428-2.512-0.549-3.761c-0.658-1.002-1.414-1.551-2.389-1.895c0-4.105,6.121-5.944,9.43-5.628
				c-0.63,2.156-2.538,1.469-2.538,4.311c-1.743,0.137-2.019,2.594-2.019,4.159C10.949,22.228,10.949,22.228,10.907,22.201
				L10.907,22.201z M28.891,43.835c-1.606-0.041-1.606-0.041-1.785-0.082c-0.016-0.028-0.027-0.055-0.042-0.068
				c0.083-0.068,0.961-0.261,2.197-0.618c2.347-0.919,4.969-1.879,6.864-3.665c0.042-0.014,0.081-0.014,0.138-0.014
				C35.519,43.862,32.802,43.725,28.891,43.835L28.891,43.835z M9.988,42.462c-3.955-0.178-7.208-0.727-6.041-5.407
				c0.04,0.014,0.082,0.027,0.137,0.042c0.961,2.318,2.484,3.979,5.079,4.873c0.356,0.068,0.947,0.122,1.373,0.412
				C10.495,42.422,10.495,42.422,9.988,42.462L9.988,42.462z M7.021,29.519c-0.082-0.07,3.227-6.467,3.433-7.455
				c-0.041,0-2.348,1.469-3.074,1.621C7.255,25.673,4.058,28.46,7.021,29.519z"/>
			<path i:knockout="Off" fill="#FDCC8A" d="M16.811,27.046c-0.275-0.095-0.275-0.095-1.236-0.274
				c-4.201-2.127-2.499-7.55,1.194-9.061c0-0.054,0-0.11,0.015-0.151c-1.373,0-2.225,1.482-2.995,2.389
				c-0.038-0.013-0.08-0.013-0.122-0.013c-0.026-0.33-0.057-0.646-0.084-0.961c-0.148,0-0.301,0-0.438,0
				c0.068-1.03,0.672-2.444,1.923-2.197c-0.164,0.206-0.331,0.412-0.496,0.632c0.016,0.027,0.027,0.054,0.042,0.096
				c0.92,0,4.049-0.975,4.354-2.004c1.11-0.261,1.4-0.206,2.606,0.247c0.439,0,1.305-0.425,1.69-0.137
				c-3.049,2.622,2.564,3.555,4.159,4.75c0.137,0.137,0.274,0.329,0.603,0.329c0.248-0.384-0.042-0.892-0.096-1.125
				c0.206,0.096,0.493,0.453,0.782,0.522c0.522-0.522,0.084-1.551-0.095-1.991c0.041-0.013,0.08-0.013,0.137-0.013
				c0.768,0.975,2.801,3.569,0.55,4.572c-0.893,0.082-1.251,0.988-2.019,1.098c-0.206-0.371-0.702-1.537-1.099-1.605
				c-0.397,0.328-1.812,1.372-2.197,1.303c-0.782-1.235-0.92-2.417-1.042-3.652c-0.054,0-0.096,0-0.138,0.014
				c-0.221,0.33-0.084,2.499-0.084,3.144C21.917,26.428,20.062,26.993,16.811,27.046L16.811,27.046z M40.01,35.462
				c-1.4-0.302-0.646-1.565-2.198-0.22c-0.698,0.138-0.809-0.809-0.809-1.167c1.908-1.248,3.156-2.568,3.514-4.873
				c2.637,1.015,2.389,3.446,0.905,5.423C41.094,34.857,40.311,35.462,40.01,35.462L40.01,35.462z M8.888,21.514
				c-1.633-0.713,1.882-4.955,2.032-1.208C10.413,20.953,9.7,21.514,8.888,21.514L8.888,21.514z M7.433,23.368
				c0.784-0.124,3.021-1.153,3.021-2.101C9.412,21.5,9.15,22.201,8.312,21.405c-0.741-1.332,0.796-2.251,1.676-2.938
				c-1.236-2.471-5.491-2.032-5.903,0.508C6.679,19.154,7.433,20.758,7.433,23.368L7.433,23.368z M30.125,22.502
				c1.277-0.232,1.938-1.4,0.412-1.744C30.509,21.308,30.125,22.01,30.125,22.502L30.125,22.502z M30.634,24.438
				c5.189,0,3.721-7.784-0.331-5.093c-0.026,0.233,0.099,0.577,0.194,0.905c1.015-0.151,0.961-0.837,2.167-0.178
				c0,0.137,0,0.137-0.068,0.205c-0.988,0-0.714-0.329-1.717,0.11c-0.012,0.055-0.026,0.124-0.026,0.193
				c0.37,0.028,0.576,0.274,0.797,0.727c-0.11,1.648-1.319,1.223-2.445,1.648C29.547,24.204,29.261,24.177,30.634,24.438
				L30.634,24.438z M13.472,17.053c0.278-0.165,0.278-0.165,1.595-1.373c-0.057-0.056-0.096-0.111-0.138-0.165
				C13.804,15.516,13.64,15.982,13.472,17.053z"/>
			<path i:knockout="Off" fill="#FF9900" d="M2.575,24.576c-0.303-0.906-1.099-0.274-1.167-1.895
				c-0.385-0.961-1.593-1.11-0.618-2.087c0.673,0.069,0.865,0.481,1.29,1.125c1.099,0.496,1.963-0.219,2.074,1.69
				C3.77,23.752,3.069,24.576,2.575,24.576L2.575,24.576z M4.962,26.676c0.042,0.027,0.042,0.027,0.248-0.11
				c0-1.29,0.494-2.637-0.988-2.814c-0.398,0.33-0.782,0.658-1.167,0.99C3.055,26.264,3.563,26.428,4.962,26.676z"/>
			<path i:knockout="Off" fill="#E6E6E6" d="M27.75,20.224c-1.538-0.659-2.744-1.455-4.312-2.004
				c-2.072-1.688,0.167-3.39,2.473-1.51c1.373,0.631,2.773,0.425,2.773,2.814c-0.042,0.027-0.068,0.055-0.096,0.096
				c-0.441-0.371-0.92-0.893-1.305-0.961C27.285,18.838,27.903,20.197,27.75,20.224z"/>
			<path i:knockout="Off" fill="#FFFFFF" d="M30.125,19.043c-0.547-0.686-1.894-1.977-2.47-2.333c-1.839,0-1.991-1.057-3.568-1.057
				c-1.511-0.59-3.598-0.563-5.177-0.412c-1.839-0.988-2.705,0.467-3.61,0.247c-0.274-0.728-0.148-1.386,0.152-1.963
				c1.606-1.963,9.17-1.853,11.421-0.796c0.454,0.11,1.03,0.288,1.606,0.316c1.164,1.358,3.281,3.157,3.541,5.244
				C31.39,18.536,30.757,18.783,30.125,19.043z"/>
			<path i:knockout="Off" fill="#FFFFFF" d="M15.341,17.053c0.054-0.316,0.424-0.494,0.37-0.714c-0.48,0-0.74,0.069-1.099,0.165
				c0-0.7,3.995-2.292,3.995-0.686C17.704,16.422,16.303,16.875,15.341,17.053z"/>
			<path i:knockout="Off" fill="#FF3300" d="M4.016,22.09c0.632-0.741,0.933-1.29,1.729-1.977c0.097-0.109,0.192-0.206,0.261-0.275
				c-0.809-1.221-3.926-0.096-4.749,0.303c-0.015,0.068-0.028,0.136-0.028,0.206c0.893,0.7,0.659,1.303,2.129,1.303
				C3.686,21.789,3.878,21.926,4.016,22.09L4.016,22.09z M9.164,17.149c0.192-0.22,0.522-0.631,0.522-0.7
				c2.896-1.922,1.84-1.963,5.354-2.471c0.493-1.427,1.852-1.304,2.359-3.062c-3.309-0.315-9.43,1.523-9.43,5.628
				C8.408,16.696,8.806,16.902,9.164,17.149L9.164,17.149z M20.393,11.905c-1.483-0.315-1.854,0.206-3.212,0.344
				c0.26-1.579,2.43-3.199,3.693-3.982C25.24,5.975,30.91,5.536,34.699,9.448c1.385,2.334,2.923,4.777,4.364,7.234
				c0.618,2.924,1.413,5.931,1.508,9.06c-0.244,0.069-0.244,0.069-0.465,0.069c-0.523-0.109-0.988-0.233-1.416-0.355
				c-0.218-0.427-0.424-1.167-0.492-1.236v-0.385h-0.096c0-0.096-0.096-0.755-0.194-0.755c0-0.754,0.29-2.36-0.096-2.937h-0.095
				v-0.193c-0.191,0,0-0.082-0.191-0.082c0-0.096-0.099-0.192-0.18-0.192c0-0.192-0.19-0.192-0.19-0.289h-1.045
				c0-0.947,0.289-2.183,0.289-3.212h-0.099h-0.095c0,0.178-0.096,0-0.096,0.178h-0.096h-0.096c0,0.192-0.096,0-0.096,0.192h-0.469
				l-0.096-0.096c0-8.539-8.097-8.333-14.495-4.833C20.68,11.672,20.558,11.782,20.393,11.905z"/>
			<path i:knockout="Off" fill="#FF3300" d="M6.033,39.73c0.261-0.245,0.509-0.52,0.729-0.741c0.275-0.288,1.51-1.893,1.895-1.893
				l1.276-1.663c-0.262-0.149-0.521-0.287-0.769-0.424c-0.576-0.412-2.582-2.156-2.746-2.156c-0.687,1.195-2.087,2.568-2.087,3.966
				C4.703,38.028,5.292,38.989,6.033,39.73z"/>
			<path i:knockout="Off" fill="#FF3300" d="M4.674,41.172v-0.013l0.097-0.083c0-0.095,0.095-0.192,0.191-0.192
				c0-0.097,0.083-0.192,0.179-0.192c0-0.191,0.288-0.286,0.288-0.466c0.137-0.096,0.288-0.206,0.425-0.33
				c-0.755-0.782-1.318-1.715-1.771-2.799c-0.055-0.015-0.097-0.028-0.137-0.042C3.439,39.127,3.783,40.39,4.674,41.172z"/>
			<path i:knockout="Off" fill="#FF3300" d="M10.22,31.851c-0.59-0.355-2.36-1.344-2.499-1.893c2.321-0.893,2.321-0.893,2.732-1.003
				c-0.041,0.961-0.083,1.923-0.123,2.884C10.262,31.879,10.262,31.879,10.22,31.851z"/>
			<path i:knockout="Off" fill="#E6E6E6" d="M23.989,39.169c-1.812-3.351-1.812-3.351-2.168-4.132
				c-0.92-0.92-4.243,4.048-5.189,4.048c-0.839-1.358-1.442-2.772-1.962-4.131c0.341-1.208,0.547-2.814,0.604-3.35
				c0.191-0.948,0.385-2.28,0.385-3.227c0.191,0,0.191,2.938,0.191,3.129l0.37,5.299c0-2.773,0.633-6.452,1.358-9.417
				c1.977,0.042,3.735-0.975,5.094-2.923c0.152-0.412,0.424-1.881,0.493-1.965c0.221,0.427,0.441,0.851,0.659,1.278
				c0.852,0,1.732-1.263,2.416-1.263c0.358,0.59,0.358,0.59,0.797,1.538c0.699,0,1.469-0.976,1.95-0.879
				c0.836,3.487,2.881,9.747,1.797,13.548c-0.672-0.81-1.977-2.966-2.812-3.13C27.544,34.239,24.565,39.169,23.989,39.169
				L23.989,39.169z M13.335,33.403c-0.657,0.206-1.222,1.646-2.153,1.989c0.589-0.975,0.988-2.195,1.92-3.13h0.099
				C13.201,32.633,13.254,33.018,13.335,33.403z"/>
			<path i:knockout="Off" fill="#CBAB7E" d="M16.811,27.046c-0.275-0.095-0.275-0.095-1.236-0.274
				c-0.057-0.027-0.123-0.069-0.18-0.096c0.096-0.11,0.164-0.219,0.164-0.29c0.29,0,1.236-0.466,1.332-0.562
				c0.66,0,1.319-0.946,1.991-0.946l0.084-0.194c0.576,0,1.988-1.99,2.084-2.457c0.29-1.235,0.29-2.745,0.29-3.98
				c0-0.275,0-2.266,0.095-2.266c0-0.082,0-0.178,0-0.288c0.042,0.028,0.096,0.041,0.138,0.055c0.439,0,1.305-0.425,1.69-0.137
				c-3.049,2.622,2.564,3.555,4.159,4.75c0.137,0.137,0.274,0.329,0.603,0.329c0.248-0.384-0.042-0.892-0.096-1.125
				c0.206,0.096,0.493,0.453,0.782,0.522c0.522-0.522,0.084-1.551-0.095-1.991c0.041-0.013,0.08-0.013,0.137-0.013
				c0.768,0.975,2.801,3.569,0.55,4.572c-0.893,0.082-1.251,0.988-2.019,1.098c-0.206-0.371-0.702-1.537-1.099-1.605
				c-0.397,0.328-1.812,1.372-2.197,1.303c-0.782-1.235-0.92-2.417-1.042-3.652c-0.054,0-0.096,0-0.138,0.014
				c-0.221,0.33-0.084,2.499-0.084,3.144C21.917,26.428,20.062,26.993,16.811,27.046L16.811,27.046z M40.01,35.462
				c-1.4-0.302-0.646-1.565-2.198-0.22c-0.698,0.138-0.809-0.809-0.809-1.167c1.908-1.248,3.156-2.568,3.514-4.873
				c2.637,1.015,2.389,3.446,0.905,5.423C41.094,34.857,40.311,35.462,40.01,35.462L40.01,35.462z M30.125,22.502
				c1.277-0.232,1.938-1.4,0.412-1.744C30.509,21.308,30.125,22.01,30.125,22.502L30.125,22.502z M30.634,24.438
				c5.189,0,3.721-7.784-0.331-5.093c-0.026,0.233,0.099,0.577,0.194,0.905c1.015-0.151,0.961-0.837,2.167-0.178
				c0,0.137,0,0.137-0.068,0.205c-0.988,0-0.714-0.329-1.717,0.11c-0.012,0.055-0.026,0.124-0.026,0.193
				c0.37,0.028,0.576,0.274,0.797,0.727c-0.11,1.648-1.319,1.223-2.445,1.648C29.547,24.204,29.261,24.177,30.634,24.438z"/>
			<path i:knockout="Off" fill="#E6E6E6" d="M30.125,19.043c-0.547-0.686-1.894-1.977-2.47-2.333c-1.839,0-1.991-1.057-3.568-1.057
				c-1.125-0.439-2.567-0.535-3.887-0.494c0.179-0.371,0.373-0.713,0.564-0.975c0-0.097,0.576-0.673,0.576-0.673v-0.096v-0.082
				c0.19,0,0-0.096,0.19-0.096v-0.673c-0.19,0-0.286-0.562-0.48-0.562v-0.014c2.335-0.069,4.724,0.22,5.822,0.741
				c0.454,0.11,1.03,0.288,1.606,0.316c1.164,1.358,3.281,3.157,3.541,5.244C31.39,18.536,30.757,18.783,30.125,19.043z"/>
			<path i:knockout="Off" fill="#CCCCCC" d="M21.367,34.954c-0.26,0.067-0.562,0.273-0.893,0.563
				c-0.176-1.442-0.274-2.896-0.274-4.202c-0.287,0-0.466,1.427-0.466,1.523l-0.604,3.995c-0.508,0.536-1.015,1.099-1.442,1.524
				l0.096-10.969c1.496-0.027,2.869-0.66,4.037-1.866L21.367,34.954L21.367,34.954z M22.493,24.727
				c0.068-0.082,0.125-0.164,0.179-0.26c0.152-0.412,0.424-1.881,0.493-1.965c0.221,0.427,0.441,0.851,0.659,1.278
				c0.852,0,1.732-1.263,2.416-1.263c0.358,0.59,0.358,0.59,0.797,1.538c0.699,0,1.469-0.976,1.95-0.879
				c0.836,3.487,2.881,9.747,1.797,13.548c-0.453-0.548-1.206-1.729-1.907-2.47c-0.522-1.221-1.001-2.457-1.386-3.693
				c-0.194-0.561-0.37-3.5-0.194-1.332l0.152,5.216c-0.316,0.496-0.729,1.152-1.167,1.812c-0.672-2.156-1.042-4.722-1.634-6.836
				c-0.096-0.288-0.274-3.597-0.659-3.597l-0.287,3.885c0,0.755,0.287,2.842-0.194,3.308h-0.08c0,0-0.096-0.179-0.096-0.274
				L22.493,24.727z"/>
		</g>
	</g>
</g>
</svg>
