<?xml version="1.0" encoding="utf-8"?>
<!-- Generator: Adobe Illustrator 12.0.0, SVG Export Plug-In . SVG Version: 6.00 Build 51448)  -->
<!DOCTYPE svg PUBLIC "-//W3C//DTD SVG 1.1//EN" "http://www.w3.org/Graphics/SVG/1.1/DTD/svg11.dtd" [
	<!ENTITY ns_flows "http://ns.adobe.com/Flows/1.0/">
	<!ENTITY ns_extend "http://ns.adobe.com/Extensibility/1.0/">
	<!ENTITY ns_ai "http://ns.adobe.com/AdobeIllustrator/10.0/">
	<!ENTITY ns_graphs "http://ns.adobe.com/Graphs/1.0/">
	<!ENTITY ns_vars "http://ns.adobe.com/Variables/1.0/">
	<!ENTITY ns_imrep "http://ns.adobe.com/ImageReplacement/1.0/">
	<!ENTITY ns_sfw "http://ns.adobe.com/SaveForWeb/1.0/">
	<!ENTITY ns_custom "http://ns.adobe.com/GenericCustomNamespace/1.0/">
	<!ENTITY ns_adobe_xpath "http://ns.adobe.com/XPath/1.0/">
	<!ENTITY ns_svg "http://www.w3.org/2000/svg">
	<!ENTITY ns_xlink "http://www.w3.org/1999/xlink">
]>
<svg  version="1.1"
	 xmlns:x="&ns_extend;" xmlns:i="&ns_ai;" xmlns:graph="&ns_graphs;" i:viewOrigin="-0.2363 65" i:rulerOrigin="0 0" i:pageBounds="0 65 45 0"
	 xmlns="&ns_svg;" xmlns:xlink="&ns_xlink;" xmlns:a="http://ns.adobe.com/AdobeSVGViewerExtensions/3.0/"
	 width="45.73" height="65.236" viewBox="0 0 45.73 65.236" overflow="visible" enable-background="new 0 0 45.73 65.236"
	 xml:space="preserve">
<metadata>
	<variableSets  xmlns="&ns_vars;">
		<variableSet  varSetName="binding1" locked="none">
			<variables></variables>
			<v:sampleDataSets  xmlns:v="&ns_vars;" xmlns="&ns_custom;"></v:sampleDataSets>
		</variableSet>
	</variableSets>
</metadata>
<g id="图层_1" i:layer="yes" i:dimmedPercent="50" i:rgbTrio="#4F008000FFFF">
	<g>
		<g i:knockout="Off">
			<path fill="#333333" d="M1.182,47.468v12.076c0,2.491,1.621,4.511,3.619,4.511h37.308c2.001,0,3.622-2.02,3.622-4.511l0,0V3.807
				C45.73,1.705,44.106,0,42.108,0H4.801C2.803,0,1.182,1.705,1.182,3.807l0,0v43.652C1.182,47.46,1.182,47.465,1.182,47.468z"/>
			
				<linearGradient id="XMLID_3_" gradientUnits="userSpaceOnUse" x1="-41.7017" y1="22.0122" x2="-41.7017" y2="82.7583" gradientTransform="matrix(1 0 0 -1 64.2148 87.0117)">
				<stop  offset="0.0393" style="stop-color:#0060B6"/>
				<stop  offset="0.0899" style="stop-color:#2089B9"/>
				<stop  offset="0.0985" style="stop-color:#4FA3C2"/>
				<stop  offset="0.1071" style="stop-color:#77B9CA"/>
				<stop  offset="0.1138" style="stop-color:#8FC7CF"/>
				<stop  offset="0.118" style="stop-color:#98CCD1"/>
				<stop  offset="0.1341" style="stop-color:#9ECFD3"/>
				<stop  offset="0.156" style="stop-color:#AFD6D9"/>
				<stop  offset="0.1809" style="stop-color:#CBE1E3"/>
				<stop  offset="0.1966" style="stop-color:#E1EAEB"/>
				<a:midPointStop  offset="0.0393" style="stop-color:#0060B6"/>
				<a:midPointStop  offset="0.5" style="stop-color:#0060B6"/>
				<a:midPointStop  offset="0.0899" style="stop-color:#2089B9"/>
				<a:midPointStop  offset="0.5" style="stop-color:#2089B9"/>
				<a:midPointStop  offset="0.0985" style="stop-color:#4FA3C2"/>
				<a:midPointStop  offset="0.5" style="stop-color:#4FA3C2"/>
				<a:midPointStop  offset="0.1071" style="stop-color:#77B9CA"/>
				<a:midPointStop  offset="0.5" style="stop-color:#77B9CA"/>
				<a:midPointStop  offset="0.1138" style="stop-color:#8FC7CF"/>
				<a:midPointStop  offset="0.5" style="stop-color:#8FC7CF"/>
				<a:midPointStop  offset="0.118" style="stop-color:#98CCD1"/>
				<a:midPointStop  offset="0.5" style="stop-color:#98CCD1"/>
				<a:midPointStop  offset="0.1341" style="stop-color:#9ECFD3"/>
				<a:midPointStop  offset="0.5" style="stop-color:#9ECFD3"/>
				<a:midPointStop  offset="0.156" style="stop-color:#AFD6D9"/>
				<a:midPointStop  offset="0.5" style="stop-color:#AFD6D9"/>
				<a:midPointStop  offset="0.1809" style="stop-color:#CBE1E3"/>
				<a:midPointStop  offset="0.5" style="stop-color:#CBE1E3"/>
				<a:midPointStop  offset="0.1966" style="stop-color:#E1EAEB"/>
			</linearGradient>
			<path fill="url(#XMLID_3_)" d="M44.787,60.488c0,2.492-1.625,4.512-3.619,4.512H3.857c-1.998,0-3.619-2.02-3.619-4.512V8.765
				c0-2.49,1.621-4.511,3.619-4.511h37.308c2.001,0,3.619,2.021,3.619,4.511v51.724H44.787z"/>
			<path fill="none" stroke="#333333" stroke-width="0.4727" d="M44.787,60.488c0,2.492-1.625,4.512-3.619,4.512H3.857
				c-1.998,0-3.619-2.02-3.619-4.512V8.765c0-2.49,1.621-4.511,3.619-4.511h37.308c2.001,0,3.619,2.021,3.619,4.511v51.724H44.787z"
				/>
			<path fill="#FFFFFF" d="M0.237,4.752c0-2.101,1.623-3.807,3.62-3.807h37.308c2.001,0,3.619,1.705,3.619,3.807v43.651
				c0,2.103-1.622,3.806-3.619,3.806H3.857c-1.999,0-3.62-1.703-3.62-3.807V4.752L0.237,4.752z"/>
			
				<linearGradient id="XMLID_4_" gradientUnits="userSpaceOnUse" x1="2.5527" y1="25.2324" x2="46.6455" y2="25.2324" gradientTransform="matrix(-1 0 0 1 47.1094 1.3447)">
				<stop  offset="0" style="stop-color:#A2D8E0"/>
				<stop  offset="0.0899" style="stop-color:#1878AD"/>
				<stop  offset="0.2135" style="stop-color:#194D91"/>
				<stop  offset="0.6404" style="stop-color:#2B90BD"/>
				<stop  offset="0.9438" style="stop-color:#82CBDE"/>
				<stop  offset="1" style="stop-color:#1A478D"/>
				<a:midPointStop  offset="0" style="stop-color:#A2D8E0"/>
				<a:midPointStop  offset="0.5" style="stop-color:#A2D8E0"/>
				<a:midPointStop  offset="0.0899" style="stop-color:#1878AD"/>
				<a:midPointStop  offset="0.5" style="stop-color:#1878AD"/>
				<a:midPointStop  offset="0.2135" style="stop-color:#194D91"/>
				<a:midPointStop  offset="0.5" style="stop-color:#194D91"/>
				<a:midPointStop  offset="0.6404" style="stop-color:#2B90BD"/>
				<a:midPointStop  offset="0.5" style="stop-color:#2B90BD"/>
				<a:midPointStop  offset="0.9438" style="stop-color:#82CBDE"/>
				<a:midPointStop  offset="0.5" style="stop-color:#82CBDE"/>
				<a:midPointStop  offset="1" style="stop-color:#1A478D"/>
			</linearGradient>
			<path i:isolated="yes" i:knockout="Off" opacity="0.1" fill="url(#XMLID_4_)" enable-background="new    " d="M0.464,4.752
				c0-2.101,1.602-3.807,3.579-3.807h36.934c1.977,0,3.58,1.705,3.58,3.807v43.651c0,2.103-1.604,3.806-3.58,3.806H4.042
				c-1.975,0-3.577-1.703-3.577-3.807L0.464,4.752L0.464,4.752z"/>
			<path fill="none" stroke="#4D4D4D" stroke-width="0.4727" d="M0.237,48.413v12.075C0.237,62.98,1.86,65,3.857,65h37.308
				c2.001,0,3.619-2.02,3.619-4.512V4.752c0-2.102-1.622-3.806-3.619-3.806H3.857c-1.998,0-3.62,1.705-3.62,3.806v43.651
				C0.235,48.406,0.237,48.409,0.237,48.413z"/>
		</g>
		<g>
			<path i:knockout="Off" d="M22.984,44.605c-1.146-0.382-1.367-1.045-1.707-1.938c-1.004-0.11-1.036-0.11-1.036-0.884
				c-0.702-0.182-2.058,0.039-2.41-0.221c-0.018-0.081-0.029-0.152-0.029-0.221c0.382-0.121,2.57-0.693,2.762-0.995
				c-0.714-1.457-1.275-2.711-2.499-3.726c-0.183-0.612-0.152-0.984-0.03-1.466c0.081-0.051,0.081-0.051,0.149,0
				c-0.051,0.441-0.191,1.015,0.17,1.466c0.021-0.009,0.051-0.03,0.081-0.039c-0.319-2.362,1.296-2.341,0.191-4.319
				c-0.18-0.703-0.191-1.115-0.191-1.677c-1.126-0.843-2.83-0.462-3.553-1.185c0-0.703-0.042-0.914-0.544-1.105
				c-0.403,0.242-0.734,0.493-1.135,0.493c-1.286-1.285-0.322-3.133,0.4-4.568c0.071,0.03,0.161,0.049,0.254,0.098
				c0.048,0.835,0.409,1.577,0.642,2.541c0.09,0,0.18,0,0.281,0.011c0.28-1.256,1.003-1.638,2.057-0.593
				c2.303-0.251,1.938-1.365,1.938-3.584c-0.693-0.442-1.888-1.748-1.938-2.411c-2.541,0.312-2.239-0.661-2.239-2.108
				c-0.421-0.321-0.379-0.381-0.45-0.693c-3.967-0.702-2.924-4.609,0.038-4.096c0.684-0.673,4.449-2.32,5.413-2.019
				c0.634,0.402,0.634,0.402,0.965,0.552c0.893-0.442,3.676-4.066,3.765-4.638c-0.803-1.598,1.78-1.718,1.275,0
				c-0.158,0.24,2.051,4.257,2.392,5.05c0.701,0,1.475-0.221,2.358,0.11c0.442,0.442,0.773,0.914,0.884,0.944
				c1.135-0.834,4.801,0.903,4.941,2.43c1.245,0.221,2.461,1.626,1.355,2.852c-1.436,0.954-1.657,0.713-2.914,0.461
				c-1.042,0.933-1.734,1.908-2.971,2.581c-0.08,0.573-0.191,1.003-0.663,1.475c0,0.764-0.119,2.551,0,3.275
				c0.472,0.128,1.075,0.459,1.657,0.51c0.582-0.572,1.637-1.083,2.019,0.081c0.09,0,0.191,0.011,0.302,0.03
				c0.472-0.472,0.141-2.339,0.923-2.971c0.814,0.933,0.021,2.129,0.814,3.232c0.158,1.566-1.104,0.903-1.768,1.034
				c-0.653,1.838-1.385,1.678-3.245,2.651c-0.158,0.732-1.174,2.158-1.174,2.5c1.245,1.134,1.165,2.992-0.522,3.756
				c-2.74,0.462-1.305,1.476-3.042,2.489c-0.021,0.051-0.03,0.09-0.051,0.151c1.023,0.172,2.141,0.251,3.144,0.975
				c0,0.11,0.009,0.229,0.03,0.351c-0.693,0.191-1.628-0.121-2.23-0.13c-0.129,0.171-0.26,0.352-0.392,0.542
				c-0.28,0.03-0.561,0.062-0.842,0.091c-0.182,0.612-0.182,0.612-0.373,1.013c-0.421,0-0.833,0-1.245,0.012
				C24.341,43.561,24.52,44.605,22.984,44.605L22.984,44.605z M21.898,40.307c0.08-0.03,0.19-0.061,0.292-0.069
				c0-0.061,0.009-0.121,0.03-0.161c-0.06-0.021-0.12-0.029-0.18-0.029C21.979,40.127,21.939,40.217,21.898,40.307L21.898,40.307z
				 M24.46,41c0.039,0,0.09,0,0.141,0c-0.021-0.312-0.069-0.592-0.2-0.693C24.37,40.519,24.43,40.599,24.46,41L24.46,41z
				 M23.717,39.575c0.151-0.021,0.301-0.03,0.441-0.03c-0.03-0.191-0.051-0.382-0.081-0.562c-0.089-0.011-0.179-0.03-0.271-0.041
				C23.776,39.142,23.746,39.354,23.717,39.575z"/>
			<path i:knockout="Off" fill="#7F7F7F" d="M23.173,43.28c-0.66-0.663-0.612-1.177-0.251-1.827c0.123,0,0.242,0,0.353,0
				c0.242,0.361-0.03,0.782,0.564,1.023C23.768,42.778,23.585,43.28,23.173,43.28L23.173,43.28z M25.573,41.121
				c-0.009-0.061-0.029-0.121-0.038-0.161c0.51,0,1.045,0,1.576,0.009C26.899,41.181,25.815,41.121,25.573,41.121z"/>
			<path i:knockout="Off" fill="#666666" d="M21.005,42.146c-0.131-0.03-0.241-0.051-0.361-0.071c0-0.099,0.01-0.2,0.03-0.29
				c0.2,0,0.361-0.06,0.663,0.06c-0.03,0.081-0.051,0.191-0.06,0.291C21.188,42.135,21.095,42.135,21.005,42.146L21.005,42.146z
				 M25.191,42.324c0.021-0.06,0.033-0.119,0.051-0.179c0.221-0.071,0.454-0.132,0.684-0.191c0.051-0.17,0.09-0.331,0.149-0.501
				c0.051-0.011,0.093-0.011,0.152-0.011C26.108,42.337,26.036,42.286,25.191,42.324L25.191,42.324z M23.666,42.074
				c0.021-0.481,0.232-1.093,0.14-1.445c-0.782-0.2-0.782-0.2-1.263-0.281c-0.093-0.331-0.093-0.331-0.102-0.772
				c0.229,0,0.48,0,0.731,0c-0.029,0.221-0.06,0.45-0.068,0.692c0.573,0.571,1.164-0.361,1.054,1.296
				c-0.11,0.06-0.221,0.11-0.319,0.17c0,0.09,0,0.191,0,0.302C23.776,42.044,23.717,42.064,23.666,42.074L23.666,42.074z
				 M22.833,39.243c-0.222-0.221-0.102-0.954-0.102-1.186c0.402,0,0.382,0.773,0.292,1.186
				C22.952,39.243,22.893,39.243,22.833,39.243z"/>
			<path i:knockout="Off" fill="#FF9900" d="M21.005,41.411c-0.441-0.039-0.884-0.09-1.325-0.119c0-0.061,0.021-0.102,0.029-0.141
				c1.007-0.372,1.007-0.372,1.547-0.472c0.081-0.161,0.081-0.161,0.11-0.522c0.09,0.02,0.191,0.051,0.293,0.08
				c0.039,0.222-0.102,0.884-0.233,1.165C21.277,41.402,21.146,41.402,21.005,41.411z"/>
			<path i:knockout="Off" fill="#FF9900" d="M27.702,40.68c-0.812-0.051-1.627-0.091-2.418-0.121
				c-0.03-0.15,0.068-0.482,0.149-1.034c0.271-0.09,0.382-0.09,0.772,0.11C26.287,41.03,29.359,40.68,27.702,40.68z"/>
			<path i:knockout="Off" fill="#FF9900" d="M19.047,32.173c-0.672-0.542-0.039-2.63,0.994-1.194
				C20.172,31.792,19.76,32.003,19.047,32.173z"/>
			<path i:knockout="Off" fill="#FFFF66" d="M23.868,30.407c-0.424-0.162-0.424-0.312-0.594-0.482
				c-1.186,0.221-1.454,0.161-2.058-0.744c-1.045,0.17-1.827-0.301-1.176-1.326c0.723,0.121,3.514,1.005,3.917,1.477
				c1.075,0.321,4.168-1.285,5.401-1.285C30.837,29.523,24.277,30.407,23.868,30.407z"/>
			<path i:knockout="Off" fill="#FF9900" d="M17.873,29.674c-0.854-0.654-0.212-0.943,0.48-1.034
				C18.686,29.13,18.435,29.603,17.873,29.674z"/>
			<path i:knockout="Off" fill="#F9DA77" d="M15.371,29.432c-0.37-0.361-0.188-0.542,0.11-0.663
				c-0.141-1.024-1.084-0.502-0.11-1.717c-0.209-0.21-0.141-0.492-0.141-0.633c1.386-1.375,1.275,2.12,0.836,3.013
				C15.825,29.432,15.592,29.432,15.371,29.432z"/>
			<path i:knockout="Off" fill="#FF9900" d="M31.178,29.432c-0.191-0.251-0.182-0.191-0.302-0.221
				c0.06-0.583,0.493-0.863,0.994-0.502C31.87,29.232,31.68,29.394,31.178,29.432z"/>
			<path i:knockout="Off" fill="#F9DA77" d="M33.638,29.462c0.03-0.854-0.522-1.768-0.624-2.41c0.323-0.401,0.544-0.462,1.016-0.119
				c0,0.149,0,0.311,0.021,0.472c0.222,0.089,0.35,0.191,0.57,0.481c-0.099,0.161-0.089,0.301-0.089,0.592
				c-0.723,0.321-0.383,0.191-0.383,0.784C33.948,29.423,33.799,29.453,33.638,29.462z"/>
			<path i:knockout="Off" fill="#F9DA77" d="M24.248,29.082c-1.768-0.704-3.876-1.146-5.091-2.692
				c-0.451-1.124,0.173-2.852,0.06-3.935c-0.582-0.361-0.914-0.663-0.651-1.215c0.974-0.231,1.165-1.236,1.267-2.029
				c0.752,0,1.104-0.131,1.534-0.914c0.072,0,0.141,0,0.233,0c0.128,0.13,0.71,0.12,1.033,0.13c0.611,2.009,2.499,2.621,3.493,0.461
				c0.441,0,0.794-0.08,1.215-0.441c0.06,0.009,0.141,0.02,0.212,0.04c0.039,0.15,0.102,0.311,0.161,0.472
				c-0.161,0.1-1.576,2.339-1.618,2.46c-0.34,0-0.684,0-1.003,0c0.06,0.351,0.251,0.472,0.672,0.784
				c-0.009,0.332-0.009,0.672-0.009,1.024c0.48,0.412,0.893,0.553,1.695,0.782c0.072,0.132,0.222,0.311,0.222,0.604
				c-2.019,0.542-9.62-1.869-7.662,2.057c2.239,1.457,6.157,1.597,8.716,0.705c1.126-1.125,0.624-2.38-0.692-2.762
				c0-0.863,0.492-0.754,1.134-1.054c0.021-0.332,0.03-0.654,0.061-0.964c0.161-0.121,0.322-0.231,0.504-0.342
				c-0.021-0.079-0.029-0.172-0.029-0.24c-0.765-0.361-1.618-2.04-1.81-2.762c0.412,0.151,0.833,0.412,1.427,0.352
				c0,1.918,0.37,0.873,0.974,1.787c0.361-0.06,0.582-0.09,0.994,0.282c0,0.704-0.2,0.924-0.734,1.417
				c0,1.876,0.663,3.213-1.364,4.607C27.944,28.228,25.505,28.96,24.248,29.082z"/>
			<path i:knockout="Off" fill="#CCCCCC" d="M13.353,28.297c-0.06-0.884-0.149-2.46,0.251-3.002c0.322,0.261,0.302,1.485,0.544,2.08
				c0.131,0.009,0.28,0.039,0.421,0.069c0,0.091,0.021,0.191,0.029,0.301C14.177,27.916,13.765,28.106,13.353,28.297z"/>
			<path i:knockout="Off" fill="#FF9900" d="M30.796,28.006c-0.663-0.822,0.2-1.064,0.964-0.843
				C31.951,27.977,31.31,27.977,30.796,28.006z"/>
			<path i:knockout="Off" fill="#CCCCCC" d="M35.597,28.006c-0.242-0.06-0.472-0.121-0.714-0.16
				c-0.029-0.102-0.051-0.212-0.071-0.292c0.854-0.06,0.765-1.657,0.904-2.308c0.009-0.012,0.042-0.03,0.072-0.042
				c0.119,0.453,0.37,2.401,0.099,2.802C35.788,28.006,35.687,28.006,35.597,28.006z"/>
			<path i:knockout="Off" fill="#7F7F7F" d="M13.084,28.308c-0.714,0-0.182-3.123,0.319-2.993c-0.161,0.03-0.382,2.591-0.2,2.974
				C13.132,28.338,13.132,28.338,13.084,28.308z"/>
			<path i:knockout="Off" fill="#7F7F7F" d="M36.238,27.817c-0.071-0.161-0.28-2.583-0.25-2.672c0.068,0,0.34,2.269,0.411,2.601
				C36.289,27.847,36.289,27.847,36.238,27.817z"/>
			<path i:knockout="Off" fill="#FF9900" d="M18.124,27.605c-0.562-0.272-0.531-0.672-0.502-1.075
				C19.076,26.049,19.9,27.464,18.124,27.605z"/>
			<path i:knockout="Off" fill="#FB6747" d="M23.224,27.464c-3.293-0.34-5.031-3.021-1.084-2.792
				c1.287,0.291,2.673,0.501,4.127,0.501c2.711-0.382,4.138,1.386,1.436,2.099C26.108,27.414,24.66,27.464,23.224,27.464z"/>
			<path i:knockout="Off" fill="#FFCC00" d="M18.757,20.696c-0.042-0.03-0.09-0.039-0.131-0.06c0-0.642-0.212-2.31,0.573-2.5
				C19.33,18.798,19.99,20.485,18.757,20.696L18.757,20.696z M17.912,21.29c0.943-0.123-0.039-2.642,1.257-3.505
				c0.239-0.834,0.442-2.009,1.475-2.009c-0.021,0.041-0.021,0.101-0.021,0.161c-3.123,1.817,0.373,4.529,0.633,1.798
				c0.051,0,0.09,0,0.152,0.019c1.313,1.306,1.123-1.155,2.699-1.375c0.021,0.03,0.051,0.07,0.102,0.121
				c-0.633,1.064-2.371,0.512-0.845,3.022c0.977,0.793,2.511,0.382,2.511-1.034c-0.149-0.06-0.28-0.121-0.412-0.161
				c0-0.08,0.012-0.151,0.021-0.221c0.662-0.271,0.522,1.115,1.817,0c0.812,0.131,0.562,1.527,2.139,1.055
				c0.161-0.321,0.263-0.712,0.513-0.884c0.26,0.171-1.396,2.381,0.29,2.712c0.021,0.02,0.773,0.12,1.135,0.251
				c0.029-0.06,0.06-0.102,0.09-0.141c0.343-0.061,2.119-0.582,1.396-1.306c0-0.07,0-0.13,0-0.19
				c2.55-0.522,0.562-1.817,2.139-2.038c0.071,0.07,0.071,0.07,0.06,0.241c-0.311,0.08-0.37,0.111-0.57,0.271
				c0,1.416,2.087,0.532,2.839,0.291c1.087-1.717-1.093-1.717-1.815-2.359c0-1.878-3.866-3.324-4.428-1.788
				c-0.062-0.02-0.122-0.02-0.182-0.02c-0.824-2.078-1.606-1.456-3.162-1.205c-0.161,0.643,0.29,0.984-0.152,2.019
				c-0.26,0.261-1.104,0.803-1.355,0.552c0-0.07,0.021-0.141,0.03-0.221c0.976,0,1.406-0.683,1.406-1.587
				c-0.914-3.223-3.744-1.064-5.864-1.797c-0.884,0.091-2.933,0.974-1.466,1.948c-0.01,0.07-0.01,0.141-0.01,0.221
				c-0.884-0.301-0.692-1.125-0.402-1.697c-1.807-1.808-5.41,1.145-2.75,2.912c0.311,0.02,0.43,0.09,0.782-0.111
				c0.102,0.693-1.606,1.426,0.421,1.767c-0.009,0.071-0.03,0.141-0.03,0.221c-1.274,0.502-0.952-1.094-1.023-1.536
				c-1.676-0.512-1.045-1.917-1.123-2.842c-0.946,0.041-1.389,0.161-1.869,0.985c-1.236,0-1.266-0.292-2.2,0.662
				c-1.013,2.38,2.493,1.797,2.361,3.143c1.606,1.004-1.517,2.239,2.49,2.139C17.419,20.194,16.93,20.726,17.912,21.29z"/>
			<path i:knockout="Off" fill="#7AA733" d="M22.731,10.826c-0.12-0.07-0.23-0.151-0.341-0.221
				C22.633,10.635,23.193,10.735,22.731,10.826L22.731,10.826z M25.383,11.368c-0.361-0.03-1.544-0.141-1.717-0.321
				c1.104,0.121,2.179,0.211,3.386,0.031C27.242,11.328,26.358,11.338,25.383,11.368z"/>
			<path i:knockout="Off" fill="#A3BA2E" d="M24.94,10.826c-0.851-0.07-1.615-0.261-2.27-0.501c0-0.392,1.738-2.782,2.32-2.882
				c0.483,0.643,1.737,2.38,1.839,3.264C26.138,10.816,25.535,10.826,24.94,10.826L24.94,10.826z M22.782,12
				c-0.311-0.11-0.621-0.23-0.932-0.352c0-0.361,0.068-0.391,0.25-0.672c0.341,0.06,1.476,0.442,2.449,0.672
				c-0.019,0.05-0.03,0.11-0.051,0.161C23.898,11.81,23.206,12,22.782,12L22.782,12z M27.493,12.724
				c-0.322-0.362-0.663-0.733-0.926-0.884c0-0.06,0-0.11,0-0.171c0.583-0.11,0.583-0.11,0.734-0.081
				c0.132,0.362,0.26,0.724,0.412,1.095C27.643,12.744,27.643,12.744,27.493,12.724L27.493,12.724z M31.468,30.587
				c-0.039-0.271-0.09-0.531-0.12-0.784c0.633-0.291,0.744-0.572,0.744-1.175c-0.624-0.552-0.191-0.713,0.029-1.315
				c0.039,0,0.081,0,0.141,0c0.403,0.503,0.854,1.396,0.854,2.199c-0.102,0.07-0.19,0.161-0.28,0.251
				c0-0.552-0.021-0.714-0.483-0.652c-0.099,0.372-0.251,0.623,0.25,0.813C32.231,30.246,31.909,30.486,31.468,30.587L31.468,30.587
				z M22.692,33.902c-1.045-0.072-3.145-0.412-3.374-1.407c1.397-0.794,1.113-2.531-0.311-2.25c0.06-0.342,0.26-0.784,0.341-1.175
				c-0.573,0.191-0.281,1.135-1.033,0.954c0-0.06,0-0.121,0-0.181c1.546-1.547-1.508-2.249-1.066-0.291
				c-0.26,0-0.289-0.011-0.412-0.091c0-0.994,0.251-1.776,0.191-2.75c0.093-0.012,0.191-0.03,0.302-0.03
				c0.352,2.329,1.367,0.541,2.158,0.541c0.141,0.142,0.271,0.271,0.403,0.412c-1.146,2.49,2.49,2.109,3.724,2.983
				c1.197,0.311,5.553-0.814,6.156-2.04c-0.039-0.29-0.068-0.582-0.102-0.884c0.344-0.221,0.505-0.723,0.875-0.791
				c-0.161,0.472-0.472,1.313,0.391,1.424c-0.26,1.385-0.26,0.552,0.212,1.958c-0.029,0.021-0.06,0.03-0.08,0.06
				c-1.326-0.884-3.072,1.355-1.266,2.741c0,0.062,0,0.122,0,0.183C27.481,33.902,24.94,33.872,22.692,33.902L22.692,33.902z
				 M33.146,28.578c0.131-0.2-0.039-0.531-0.06-0.541C33.056,28.187,33.056,28.187,33.146,28.578L33.146,28.578z M16.506,29.111
				c0.032-0.011,0.071-0.03,0.11-0.041c0.141-0.493,0.331-1.385,0.161-1.727C16.679,27.936,16.586,28.519,16.506,29.111
				L16.506,29.111z M23.958,38.511c1.114,0,2.219-0.432,3.595-0.342c0.472-0.672,1.013-1.176,1.888-1.245
				c-0.061-0.151-0.061-0.151-0.212-0.242c-1.574-2.078,0.823-2.027,1.167-2.609c-1.699-1.526-5.243,1.917-5.494,0.11
				c-1.104,0-2.209,0-3.302,0c-0.062,0.311-0.395,0.311-0.395,0.731c0.854-0.2,1.526-0.039,2.461,0.152
				C23.495,35.929,21.286,37.535,23.958,38.511L23.958,38.511z M18.757,36.29c0.681-0.591,1.003-1.505,1.926-0.11
				c0.062-0.038,0.062-0.038,0.242-1.266c-1.003-0.119-0.743-0.421-0.743-1.174C18.635,33.619,18.757,35.105,18.757,36.29
				L18.757,36.29z M22.34,38.731c-0.441-0.442-1.386-0.253-1.857-0.262c-0.43-0.562,0.263-1.164,0.332-2.039
				c1.155,0,1.636,1.256,1.636,2.32C22.382,38.791,22.382,38.791,22.34,38.731L22.34,38.731z M22.292,37.034
				c-1.075-0.583-1.197-0.612-1.257-1.586c0.28-0.433,1.274-0.151,1.747,0.119c0,0.332-0.239,0.995-0.341,1.467
				C22.382,37.034,22.34,37.034,22.292,37.034L22.292,37.034z M20.775,39.966c-0.012-0.261-0.03-0.531-0.03-0.773
				c0.532-0.302,0.681-0.029,1.255-0.029c0.041-0.081,0.089-0.151,0.14-0.222c0,0.222,0,0.451,0.021,0.693
				C21.787,39.936,21.205,39.896,20.775,39.966L20.775,39.966z M27.302,39.043c-0.021-0.131-0.029-0.271-0.05-0.382
				c-1.236-0.091-1.236-0.091-1.377-0.161c0.483-0.17,1.084,0.011,1.678,0.011C27.553,38.691,27.592,38.941,27.302,39.043
				L27.302,39.043z M26.457,39.354c0.242,0,0.595-0.089,0.744-0.331c-0.463-0.221-2.38-0.141-2.651,0.141
				C24.881,39.384,25.726,39.172,26.457,39.354z"/>
			<path i:knockout="Off" fill="#FF0000" d="M24.601,7.03c0.051-0.492-0.021-0.582,0.441-0.623c0.141,0.131,0.221,0.131,0.271,0.472
				C25.132,7.061,24.782,7.03,24.601,7.03z"/>
			<path i:knockout="Off" fill="#CBA325" d="M18.757,20.696c-0.042-0.03-0.09-0.039-0.131-0.06c0-0.642-0.212-2.31,0.573-2.5
				C19.33,18.798,19.99,20.485,18.757,20.696L18.757,20.696z M13.323,13.788c-0.38,0-0.612,0.12-1.186,0.703
				c-1.013,2.38,2.493,1.797,2.361,3.143c1.606,1.004-1.517,2.239,2.49,2.139c0.43,0.422-0.06,0.953,0.923,1.518
				c0.833-0.11,0.17-2.07,0.884-3.134c-0.943,0.151-0.791,0.542-2.007,0.542c0-0.211-0.675-0.623-0.675-0.753
				c-0.531-0.854-0.048-1.606-1.033-2.48c-0.212-0.141-0.561-0.141-0.743-0.251v-0.03c-0.042-0.041-0.251-0.041-0.28-0.071
				c-0.531-0.291-0.361-0.603-0.604-0.994h-0.039C13.383,14.08,13.353,13.949,13.323,13.788L13.323,13.788z M19.169,17.785v-0.01
				l0,0C19.169,17.774,19.169,17.774,19.169,17.785L19.169,17.785L19.169,17.785z M19.349,17.805
				c0.122,1.145,1.737,1.747,1.907-0.07c0.051,0,0.09,0,0.152,0.019c0.863,0.864,1.072,0.081,1.576-0.612
				c-0.283,0.04-1.125-0.171-1.367-0.332v-0.03l-0.08,0.03c-0.451,0.332-1.595,1.355-2.159,1.035v-0.041H19.349L19.349,17.805z
				 M23.346,17.212c0.32,0.924,1.998,0.914,1.998,0.492c0.119,0,0.522-0.352,0.633-0.462c0.149,0.271,1.003-0.21,1.776,0.311
				c0.442,0.302,1.033,0.964,1.917,0.11c0.033-0.03,0.254-0.21,0.322-0.21c0,0.894,0.341,1.526,1.347,1.526
				c0.009-0.01,1.063-0.462,1.104-0.462c0-0.643,0.672-1.175,1.063-1.556c1.155,0,1.517,0.13,2.52,0.381
				c0.595,0.131,0.965-0.101,1.296-0.401c0.353,0.28,0.463,0.702,0.009,1.425c-0.752,0.241-2.839,1.125-2.839-0.291
				c0.2-0.16,0.26-0.191,0.57-0.271c0.012-0.171,0.012-0.171-0.06-0.241c-1.577,0.221,0.411,1.516-2.139,2.038
				c0,0.06,0,0.121,0,0.19c0.723,0.724-1.054,1.245-1.396,1.306c-0.03,0.039-0.061,0.081-0.09,0.141
				c-0.361-0.131-1.114-0.231-1.135-0.251c-1.687-0.331-0.03-2.541-0.29-2.712c-0.25,0.171-0.352,0.562-0.513,0.884
				c-1.577,0.472-1.326-0.924-2.139-1.055c-1.295,1.115-1.155-0.271-1.817,0c-0.01,0.07-0.021,0.141-0.021,0.221
				c0.132,0.04,0.263,0.101,0.412,0.161c0,1.416-1.534,1.828-2.511,1.034C22.36,17.875,22.764,17.543,23.346,17.212z"/>
			<path i:knockout="Off" fill="#CBA325" d="M25.403,11.92c0.382,0.673,0.531,1.677,0.403,2.28
				c-0.062,0.281-0.093,0.713-0.093,1.024l0.122,0.191h0.06v0.03c0.09,0.05,0.222,0.06,0.353,0.05c0-0.05,0.009-0.101,0.019-0.15
				c0.976,0,1.406-0.683,1.406-1.587C27.242,12.252,26.397,11.92,25.403,11.92z"/>
			<path i:knockout="Off" fill="#FF9900" d="M19.68,37.687c-2.149-2.148,1.606-2.751,0.773-0.222
				C20.112,37.667,19.99,37.687,19.68,37.687z"/>
			<path i:knockout="Off" d="M24.46,37.687c-1.165-0.222-1.225-1.456-0.553-2.089C25.917,34.442,26.487,37.687,24.46,37.687z"/>
			<path i:knockout="Off" fill="#FF9900" d="M24.4,37.396c-0.753-0.211-0.624-0.753-0.624-1.254
				C25.505,34.533,26.347,37.396,24.4,37.396z"/>
			<path i:knockout="Off" d="M27.01,37.185c-1.275-0.822,0.391-2.59,1.186-1.387C28.145,36.711,27.905,37.114,27.01,37.185z"/>
			<path i:knockout="Off" d="M17.771,37.094c-0.531-0.531-0.34-1.024-0.382-1.586c0.042,0.01,0.102,0.03,0.161,0.039
				c0.102,0.935,0.102,0.935,0.191,1.287C17.882,36.924,17.844,37.174,17.771,37.094z"/>
			<path i:knockout="Off" fill="#FF9900" d="M27.01,36.894c-0.553-0.331,0.11-1.717,0.994-1.003
				C27.965,36.512,27.673,36.894,27.01,36.894z"/>
			<path i:knockout="Off" fill="#FF9900" d="M29.953,36.702c-1.647-0.662-0.814-2.711,0.732-2.169
				C30.876,35.135,31.046,36.702,29.953,36.702z"/>
			<path i:knockout="Off" d="M31.53,36.583c0.128-0.543,0.09-2.171,0.09-2.171c0.038-0.009,0.089-0.029,0.14-0.029
				C31.951,34.725,32.101,36.392,31.53,36.583z"/>
			<path i:knockout="Off" d="M32.262,36.331c0.11-0.693,0.021-1.005,0.021-1.516C32.644,34.595,32.694,36.05,32.262,36.331z"/>
			<path i:knockout="Off" fill="#FF9900" d="M20.563,34.595c-0.051-0.051-0.102-0.091-0.141-0.132c0-0.191,0-0.391,0-0.582
				c0.293,0.051,0.582,0.11,0.884,0.17c0,0.072,0.009,0.141,0.03,0.221C21.056,34.544,20.925,34.595,20.563,34.595z"/>
			<path i:knockout="Off" fill="#FF9900" d="M25.434,34.533c-0.09-0.061-0.18-0.121-0.272-0.16c0-0.061,0.021-0.122,0.03-0.182
				c0.373-0.009,0.734-0.029,1.126-0.039c0.012,0.01,0.029,0.039,0.051,0.068C26.138,34.463,25.696,34.533,25.434,34.533z"/>
			<path i:knockout="Off" fill="#FF9900" d="M29.953,32.827c-1.396-0.563-0.692-2.873,1.225-2.24
				C31.178,31.38,31.147,32.827,29.953,32.827z"/>
			<g>
				<path i:knockout="Off" stroke="#000000" stroke-width="0.0301" d="M28.267,30.337c0.29,0,0.52,0.23,0.52,0.501
					c0,0.281-0.229,0.512-0.52,0.512c-0.283,0-0.514-0.231-0.514-0.512C27.753,30.567,27.983,30.337,28.267,30.337z"/>
				<path i:knockout="Off" fill="#FF9900" stroke="#000000" stroke-width="0.0301" d="M28.267,30.437
					c0.229,0,0.421,0.181,0.421,0.401c0,0.23-0.191,0.412-0.421,0.412c-0.221,0-0.412-0.182-0.412-0.412
					C27.854,30.618,28.046,30.437,28.267,30.437z"/>
			</g>
			<g>
				<path i:knockout="Off" stroke="#000000" stroke-width="0.0301" d="M21.608,30.437c0.382,0,0.692,0.3,0.692,0.673
					c0,0.361-0.311,0.663-0.692,0.663s-0.692-0.302-0.692-0.663C20.916,30.737,21.227,30.437,21.608,30.437z"/>
				<path i:knockout="Off" fill="#FF9900" stroke="#000000" stroke-width="0.0301" d="M21.608,30.567
					c0.311,0,0.562,0.242,0.562,0.543c0,0.29-0.251,0.531-0.562,0.531c-0.302,0-0.553-0.242-0.553-0.531
					C21.056,30.809,21.307,30.567,21.608,30.567z"/>
			</g>
			<g>
				<path i:knockout="Off" stroke="#000000" stroke-width="0.0301" d="M25.917,31.068c0.612,0,1.113,0.484,1.113,1.075
					c0,0.594-0.501,1.076-1.113,1.076S24.8,32.737,24.8,32.143C24.8,31.552,25.305,31.068,25.917,31.068z"/>
				<path i:knockout="Off" fill="#FF9900" stroke="#000000" stroke-width="0.0301" d="M25.917,31.28
					c0.489,0,0.884,0.391,0.884,0.863s-0.395,0.865-0.884,0.865c-0.493,0-0.896-0.393-0.896-0.865S25.424,31.28,25.917,31.28z"/>
			</g>
			<g>
				<path i:knockout="Off" stroke="#000000" stroke-width="0.0301" d="M27.944,32.424c0.2,0,0.361,0.152,0.361,0.353
					c0,0.191-0.161,0.353-0.361,0.353s-0.37-0.162-0.37-0.353C27.574,32.576,27.744,32.424,27.944,32.424z"/>
				<path i:knockout="Off" fill="#FF9900" stroke="#000000" stroke-width="0.0301" d="M27.944,32.496
					c0.161,0,0.289,0.119,0.289,0.281c0,0.15-0.128,0.28-0.289,0.28s-0.29-0.13-0.29-0.28
					C27.654,32.615,27.783,32.496,27.944,32.496z"/>
			</g>
			<g>
				<path i:knockout="Off" stroke="#000000" stroke-width="0.0301" d="M23.486,31.351c0.281,0,0.522,0.221,0.522,0.503
					c0,0.271-0.241,0.501-0.522,0.501c-0.293,0-0.522-0.231-0.522-0.501C22.964,31.571,23.193,31.351,23.486,31.351z"/>
				<path i:knockout="Off" fill="#FF9900" stroke="#000000" stroke-width="0.0301" d="M23.486,31.451
					c0.23,0,0.412,0.181,0.412,0.403c0,0.221-0.182,0.4-0.412,0.4c-0.232,0-0.424-0.179-0.424-0.4
					C23.062,31.631,23.254,31.451,23.486,31.451z"/>
			</g>
			<g>
				<path i:knockout="Off" stroke="#000000" stroke-width="0.0301" d="M21.829,32.355c0.281,0,0.511,0.221,0.511,0.493
					c0,0.281-0.229,0.502-0.511,0.502c-0.292,0-0.522-0.221-0.522-0.502C21.307,32.576,21.537,32.355,21.829,32.355z"/>
				<path i:knockout="Off" fill="#FF9900" stroke="#000000" stroke-width="0.0301" d="M21.829,32.455
					c0.221,0,0.412,0.172,0.412,0.393s-0.191,0.4-0.412,0.4c-0.229,0-0.412-0.18-0.412-0.4S21.6,32.455,21.829,32.455z"/>
			</g>
			<path i:knockout="Off" fill="#F9D054" d="M24.248,29.082c-0.26-0.1-0.531-0.202-0.812-0.302c0.562-0.27,1.284-0.381,1.738-0.833
				c0,0,0.009-0.011,0.018-0.011c1.266-0.01,2.511-0.2,3.535-0.561c0.913-0.914,0.755-1.908-0.051-2.46
				c-0.009-0.382-0.048-0.773-0.06-1.155c0.161-0.051,0.353-0.11,0.552-0.2c0.021-0.332,0.03-0.654,0.061-0.964
				c0.161-0.121,0.322-0.231,0.504-0.342c-0.021-0.079-0.029-0.172-0.029-0.24c-0.765-0.361-1.618-2.04-1.81-2.762
				c0.412,0.151,0.833,0.412,1.427,0.352c0,1.918,0.37,0.873,0.974,1.787c0.361-0.06,0.582-0.09,0.994,0.282
				c0,0.704-0.2,0.924-0.734,1.417c0,1.876,0.663,3.213-1.364,4.607C27.944,28.228,25.505,28.96,24.248,29.082L24.248,29.082z
				 M19.217,22.504c0.102-0.151,0.403-0.432,0.441-0.502c0.625-0.924,1.126-1.727,2.272-1.727c1.233,1.155,5.342,0.421,4.679,0.291
				c0.442-0.682,1.003-1.546,1.104-1.606c-0.06-0.161-0.122-0.322-0.161-0.472c-0.071-0.02-0.152-0.03-0.212-0.04
				c-0.421,0.361-0.773,0.441-1.215,0.441c-0.994,2.16-2.882,1.547-3.493-0.461c-0.323-0.01-0.905,0-1.033-0.13
				c-0.093,0-0.161,0-0.233,0c-0.43,0.783-0.782,0.914-1.534,0.914c-0.102,0.792-0.293,1.797-1.267,2.029
				c-0.263,0.552,0.069,0.854,0.651,1.215C19.217,22.463,19.217,22.484,19.217,22.504z"/>
			<path i:knockout="Off" d="M21.157,24.08c-0.382-0.692-0.662-0.582-1.176-0.882c-0.102,0.06-0.212,0.12-0.302,0.179
				c0-0.431,0.021-0.854,0.029-1.265c-0.289-0.221-0.522-0.121-0.472-0.442c0.833-0.491,1.789-2.038,2.219-2.932
				c0.051,0.01,0.11,0.04,0.173,0.07c0.048,0.874,0.953,1.315,1.255,2.511c0.131,0.039,0.26,0.081,0.411,0.14
				c-0.029,0.332-0.051,0.332-0.271,0.553c0,2.239-0.994,0.522-1.598,2.018C21.337,24.04,21.247,24.05,21.157,24.08z"/>
			<path i:knockout="Off" fill="#F9DA77" d="M27.493,23.64c-0.534-0.522-0.943,0-1.508-0.552c0.582-4.982,3.565-2.583,2.902,0.29
				C28.416,23.559,27.944,23.64,27.493,23.64z"/>
			<path i:knockout="Off" fill="#F9DA77" d="M20.524,23.156c-0.182-0.09-0.353-0.179-0.514-0.26
				c-0.743-2.422,2.562-5.383,2.741-0.051c-0.37,0.131-0.711,0.271-1.093,0.271c-0.293-0.301-0.293-0.212-0.534-0.182
				c-0.03,0.072-0.039,0.152-0.06,0.221C20.874,23.156,20.704,23.156,20.524,23.156z"/>
			<path i:knockout="Off" d="M30.545,22.253c0.009-0.189,0.039-0.361,0.071-0.542c0.069-0.041,0.069-0.041,0.158,0
				c0,0.089,0.021,0.191,0.03,0.302C30.715,22.081,30.625,22.174,30.545,22.253z"/>
			<path i:knockout="Off" d="M18.715,21.681c-0.179-0.091-0.08-0.191-0.06-0.251c0.072,0,0.141,0.02,0.221,0.03
				c-0.021,0.081-0.021,0.149-0.021,0.221C18.796,21.681,18.757,21.681,18.715,21.681z"/>
			<path i:knockout="Off" fill="#F9D054" d="M21.588,19.873c0.582,0.121,1.096,0.954,1.164,2.973
				c-0.37,0.131-0.711,0.271-1.093,0.271c-0.122-0.131-0.191-0.182-0.251-0.202C21.357,21.971,21.196,20.848,21.588,19.873z"/>
			<path i:knockout="Off" fill="#F9D054" d="M28.888,23.377c-0.463,0.182-0.935,0.263-1.386,0.263
				c-0.289-1.166-0.089-2.35-0.038-3.425C28.896,20.215,29.117,22.413,28.888,23.377z"/>
			<path i:knockout="Off" fill="#FA343D" d="M25.033,25.124c0.412,0.032,0.821,0.051,1.233,0.051
				c2.711-0.382,4.138,1.386,1.436,2.099c-1.152,0.102-2.239,0.161-3.293,0.182c0-0.012,0-0.031,0-0.042
				C25.191,27.303,27.103,26.381,25.033,25.124z"/>
			<path i:knockout="Off" d="M19.861,25.607c-0.012-0.061-0.012-0.11-0.012-0.161c-0.099,1.024,9.179,1.003,9.268,0.994
				C28.547,27.244,19.85,26.59,19.861,25.607z"/>
			<path i:knockout="Off" fill="#99CF16" d="M24.711,7.583c0.11-0.08,0.199-0.131,0.28-0.141c0.483,0.643,1.737,2.38,1.839,3.264
				c-0.573,0.09-1.086,0.11-1.576,0.12c-0.131-0.612-0.232-1.215-0.322-1.818C24.881,8.617,24.91,7.974,24.711,7.583L24.711,7.583z
				 M27.493,12.724c-0.322-0.362-0.663-0.733-0.926-0.884c0-0.06,0-0.11,0-0.171c0.583-0.11,0.583-0.11,0.734-0.081
				c0.132,0.362,0.26,0.724,0.412,1.095C27.643,12.744,27.643,12.744,27.493,12.724z"/>
		</g>
	</g>
</g>
</svg>
