<?xml version="1.0" encoding="utf-8"?>
<!-- Generator: Adobe Illustrator 12.0.0, SVG Export Plug-In . SVG Version: 6.00 Build 51448)  -->
<!DOCTYPE svg PUBLIC "-//W3C//DTD SVG 1.1//EN" "http://www.w3.org/Graphics/SVG/1.1/DTD/svg11.dtd" [
	<!ENTITY ns_flows "http://ns.adobe.com/Flows/1.0/">
	<!ENTITY ns_extend "http://ns.adobe.com/Extensibility/1.0/">
	<!ENTITY ns_ai "http://ns.adobe.com/AdobeIllustrator/10.0/">
	<!ENTITY ns_graphs "http://ns.adobe.com/Graphs/1.0/">
	<!ENTITY ns_vars "http://ns.adobe.com/Variables/1.0/">
	<!ENTITY ns_imrep "http://ns.adobe.com/ImageReplacement/1.0/">
	<!ENTITY ns_sfw "http://ns.adobe.com/SaveForWeb/1.0/">
	<!ENTITY ns_custom "http://ns.adobe.com/GenericCustomNamespace/1.0/">
	<!ENTITY ns_adobe_xpath "http://ns.adobe.com/XPath/1.0/">
	<!ENTITY ns_svg "http://www.w3.org/2000/svg">
	<!ENTITY ns_xlink "http://www.w3.org/1999/xlink">
]>
<svg  version="1.1"
	 xmlns:x="&ns_extend;" xmlns:i="&ns_ai;" xmlns:graph="&ns_graphs;" i:viewOrigin="-0.2363 65" i:rulerOrigin="0 0" i:pageBounds="0 65 45 0"
	 xmlns="&ns_svg;" xmlns:xlink="&ns_xlink;" xmlns:a="http://ns.adobe.com/AdobeSVGViewerExtensions/3.0/"
	 width="45.73" height="65.236" viewBox="0 0 45.73 65.236" overflow="visible" enable-background="new 0 0 45.73 65.236"
	 xml:space="preserve">
<metadata>
	<variableSets  xmlns="&ns_vars;">
		<variableSet  varSetName="binding1" locked="none">
			<variables></variables>
			<v:sampleDataSets  xmlns:v="&ns_vars;" xmlns="&ns_custom;"></v:sampleDataSets>
		</variableSet>
	</variableSets>
</metadata>
<g id="图层_1" i:layer="yes" i:dimmedPercent="50" i:rgbTrio="#4F008000FFFF">
	<g>
		<g i:knockout="Off">
			<path fill="#333333" d="M1.181,47.468v12.076c0,2.491,1.623,4.511,3.621,4.511h37.308c2,0,3.621-2.02,3.621-4.511h-0.002V3.807
				C45.729,1.705,44.107,0,42.109,0H4.802C2.803,0,1.183,1.705,1.183,3.807H1.18v43.652C1.18,47.46,1.181,47.465,1.181,47.468z"/>
			
				<linearGradient id="XMLID_3_" gradientUnits="userSpaceOnUse" x1="-41.7036" y1="22.0122" x2="-41.7036" y2="82.7583" gradientTransform="matrix(1 0 0 -1 64.2148 87.0117)">
				<stop  offset="0.0393" style="stop-color:#0060B6"/>
				<stop  offset="0.0899" style="stop-color:#2089B9"/>
				<stop  offset="0.0985" style="stop-color:#4FA3C2"/>
				<stop  offset="0.1071" style="stop-color:#77B9CA"/>
				<stop  offset="0.1138" style="stop-color:#8FC7CF"/>
				<stop  offset="0.118" style="stop-color:#98CCD1"/>
				<stop  offset="0.1341" style="stop-color:#9ECFD3"/>
				<stop  offset="0.156" style="stop-color:#AFD6D9"/>
				<stop  offset="0.1809" style="stop-color:#CBE1E3"/>
				<stop  offset="0.1966" style="stop-color:#E1EAEB"/>
				<a:midPointStop  offset="0.0393" style="stop-color:#0060B6"/>
				<a:midPointStop  offset="0.5" style="stop-color:#0060B6"/>
				<a:midPointStop  offset="0.0899" style="stop-color:#2089B9"/>
				<a:midPointStop  offset="0.5" style="stop-color:#2089B9"/>
				<a:midPointStop  offset="0.0985" style="stop-color:#4FA3C2"/>
				<a:midPointStop  offset="0.5" style="stop-color:#4FA3C2"/>
				<a:midPointStop  offset="0.1071" style="stop-color:#77B9CA"/>
				<a:midPointStop  offset="0.5" style="stop-color:#77B9CA"/>
				<a:midPointStop  offset="0.1138" style="stop-color:#8FC7CF"/>
				<a:midPointStop  offset="0.5" style="stop-color:#8FC7CF"/>
				<a:midPointStop  offset="0.118" style="stop-color:#98CCD1"/>
				<a:midPointStop  offset="0.5" style="stop-color:#98CCD1"/>
				<a:midPointStop  offset="0.1341" style="stop-color:#9ECFD3"/>
				<a:midPointStop  offset="0.5" style="stop-color:#9ECFD3"/>
				<a:midPointStop  offset="0.156" style="stop-color:#AFD6D9"/>
				<a:midPointStop  offset="0.5" style="stop-color:#AFD6D9"/>
				<a:midPointStop  offset="0.1809" style="stop-color:#CBE1E3"/>
				<a:midPointStop  offset="0.5" style="stop-color:#CBE1E3"/>
				<a:midPointStop  offset="0.1966" style="stop-color:#E1EAEB"/>
			</linearGradient>
			<path fill="url(#XMLID_3_)" d="M44.785,60.488c0,2.492-1.621,4.512-3.619,4.512H3.856c-1.999,0-3.62-2.02-3.62-4.512V8.765
				c0-2.49,1.624-4.511,3.62-4.511h37.31c1.998,0,3.619,2.021,3.619,4.511V60.488L44.785,60.488z"/>
			<path fill="none" stroke="#333333" stroke-width="0.4727" d="M44.785,60.488c0,2.492-1.621,4.512-3.619,4.512H3.856
				c-1.999,0-3.62-2.02-3.62-4.512V8.765c0-2.49,1.624-4.511,3.62-4.511h37.31c1.998,0,3.619,2.021,3.619,4.511V60.488
				L44.785,60.488z"/>
			<path fill="#FFFFFF" d="M0.236,4.752c0-2.101,1.621-3.807,3.619-3.807h37.307c2.002,0,3.623,1.705,3.623,3.807v43.651
				c0,2.103-1.625,3.806-3.623,3.806H3.855c-1.998,0-3.619-1.703-3.619-3.807V4.752L0.236,4.752z"/>
			
				<linearGradient id="XMLID_4_" gradientUnits="userSpaceOnUse" x1="2.5508" y1="25.2324" x2="46.6465" y2="25.2324" gradientTransform="matrix(-1 0 0 1 47.1094 1.3447)">
				<stop  offset="0" style="stop-color:#A2D8E0"/>
				<stop  offset="0.0899" style="stop-color:#1878AD"/>
				<stop  offset="0.2135" style="stop-color:#194D91"/>
				<stop  offset="0.6404" style="stop-color:#2B90BD"/>
				<stop  offset="0.9438" style="stop-color:#82CBDE"/>
				<stop  offset="1" style="stop-color:#1A478D"/>
				<a:midPointStop  offset="0" style="stop-color:#A2D8E0"/>
				<a:midPointStop  offset="0.5" style="stop-color:#A2D8E0"/>
				<a:midPointStop  offset="0.0899" style="stop-color:#1878AD"/>
				<a:midPointStop  offset="0.5" style="stop-color:#1878AD"/>
				<a:midPointStop  offset="0.2135" style="stop-color:#194D91"/>
				<a:midPointStop  offset="0.5" style="stop-color:#194D91"/>
				<a:midPointStop  offset="0.6404" style="stop-color:#2B90BD"/>
				<a:midPointStop  offset="0.5" style="stop-color:#2B90BD"/>
				<a:midPointStop  offset="0.9438" style="stop-color:#82CBDE"/>
				<a:midPointStop  offset="0.5" style="stop-color:#82CBDE"/>
				<a:midPointStop  offset="1" style="stop-color:#1A478D"/>
			</linearGradient>
			<path i:isolated="yes" i:knockout="Off" opacity="0.1" fill="url(#XMLID_4_)" enable-background="new    " d="M0.463,4.752
				c0-2.101,1.603-3.807,3.578-3.807h36.937c1.977,0,3.58,1.705,3.58,3.807v43.651c0,2.103-1.604,3.806-3.58,3.806H4.043
				c-1.977,0-3.58-1.703-3.58-3.807V4.752L0.463,4.752z"/>
			<path fill="none" stroke="#4D4D4D" stroke-width="0.4727" d="M0.236,48.413v12.075C0.236,62.98,1.857,65,3.855,65h37.311
				c1.998,0,3.619-2.02,3.619-4.512V4.752c0-2.102-1.625-3.806-3.623-3.806H3.856c-1.999,0-3.62,1.705-3.62,3.806v43.651
				C0.236,48.406,0.236,48.409,0.236,48.413z"/>
		</g>
		<g>
			<path i:knockout="Off" d="M15.913,6.038c0.418,0.187,1.654,0.551,2.062,0.739c0.263,0.265,2.56,1.775,2.613,1.753
				c1.269-2.448,5.083-2.316,7.41-1.709c0.938,0.464,0.639,0.882,0.861,1.61c1.146,0.342,0.211,0.794,0.277,1.203
				c1.629,1.069,2.236,2.293,3.439,3.375c2.936,0.948,3.574,3.827,3.385,6.518c0.951-0.034,5.855-0.861,5.967-0.375
				c-1.531,3.353,0.441,3.54-3.959,3.42c-0.43-0.045-0.848-0.089-1.279-0.123c0.299,1.247,5.25,1.908,5.328,2.571
				c-0.951,0.893-2.293,1.344-3.223,2.469c-0.363,0.562-0.826,1.81-1.654,1.709c-1.453-2.029-2.922-4.256-3.605-5.173
				c-0.209,0-0.432,0-0.648,0c-1.953,2.427-5.174,4.169-8.24,4.7c0,1.234,2.57,2.17,1.182,4.389c0.107,1.83,3.506,3.54,0.43,4.918
				c-1.898-0.11-2.518-1.212-3.574-2.746c-0.045,0-0.078-0.01-0.132-0.033c0.177,0.972,0.341,1.764,0.341,2.669
				c-0.319,0.32-0.695,0.432-1.126,0.618c-0.43,0.849,0.75,2.161-0.11,2.9c0.43,1.545,0.75,2.349-0.761,3.032
				c0.961,0.067,0.961,0.067,1.104,0.134c-1.313-0.023-2.625-0.057-3.95-0.089c0-0.045,0-0.089,0-0.144
				c-4.487-1.335-2.834-3.693-3.583-7.411c-1.643-1.125-3.551-2.735-5.514-3.595c-0.938,0.694-4.522-2.327-5.316-2.968
				c-2.041-2.359-0.606-5.425,2.569-5.271c1.236,0.397,4.71,0.739,5.04,2.086c1.301-0.541,1.312-1.347,2.516-1.842
				c-1.048-3.155-1.403-4.5-0.254-8.106c0.783-1.312,0.783-1.312,0.804-1.456c-1.024,0.22-2.338,0.948-3.265,1.036
				c-0.076-0.11-0.076-0.11-0.108-0.308c0.198-0.243,2.006-2.085,2.038-2.24c-1.366,0.034-2.171,0.607-3.34,0.729
				c0.254-1.257,3.982-2.614,4.433-3.375c-0.232-0.397-2.592-0.507-3.209-1.335c0.011-0.054,0.022-0.121,0.045-0.187
				c2.833-0.794,3.353-1.544,6.242-1.103C16.969,8.509,15.007,6.038,15.913,6.038z"/>
			<path i:knockout="Off" fill="#FA676B" d="M28.859,8.894c-0.021,0.122-0.795,1.015-0.959,1.225
				c-1.797-0.055-1.932,0.904-3.705,0.309c-1.192,0-0.971,1.114-2.15,0.232c-0.431-0.022-1.049,0.199-1.49-0.022
				c0-0.044,0-0.088,0-0.132c0.904-0.806,5.029-0.673,6.662-1.037C27.777,9.302,28.385,8.96,28.859,8.894L28.859,8.894z
				 M30.746,12.17c0.52,0.188,1.068,0.497,1.135,0.894c-4.754,0.441-6.064,4.698-3.857,8.558c1.51,1.355,3.283,1.609,5.061,1.83
				c0,0.088,0,0.176,0,0.254c-1.557,0.342-1.908,0.078-3.496,0.233c-0.738-0.684-0.971-0.399-1.896-0.851
				c-0.254-0.926-0.684-1.235-1.543-1.875c-0.111-1.951-0.873-1.455-0.18-3.705c-0.1-2.68,1.566-3.132,2.992-4.919
				C29.391,12.5,30.492,12.17,30.746,12.17L30.746,12.17z M25.838,6.997c-1.654,0.188-5.614-0.099-4.62,2.879
				c2.436-0.066,4.885-0.32,7.1-1.125C28.605,6.876,27.426,7.152,25.838,6.997L25.838,6.997z M32.057,13.405
				c-4.631,0.22-5.777,4.29-3.838,7.94c0.959,0.96,2.58,1.467,3.764,1.676C36.348,23.188,36.977,14.597,32.057,13.405L32.057,13.405
				z M14.312,25.879c0.254,0.397,0.508,0.506,0.74,0.684c0,0.086,0,0.164,0,0.229c-0.782,0.354-1.392,1.257-1.797,1.953
				c-0.045,0-0.09,0-0.144,0C12.756,27.763,12.637,25.668,14.312,25.879L14.312,25.879z M14.897,32.594
				c2.141,0.917,4.7,2.151,6.927,1.822c0.517,0.527,0.573,2.591,0.573,3.318c-0.772,0.463-3.341,1.423-4.245,1.312
				c-1.149-1.642-3.123-4.212-3.309-6.44C14.876,32.606,14.885,32.606,14.897,32.594L14.897,32.594z M14.124,28.106
				c-0.032-0.033-0.032-0.033-0.196,0.11c-2.052,3.616,4.564,4.951,6.661,4.84c0.155-1.113-0.254-1.874,0.308-3.208
				c0.143,0,0.143,0,0.212,0.055c-1.437,5.393,1.498,3.034,4.533,2.702c1.277-1.699-2.285-4.919-4.369-4.323
				C19.618,29.462,16.22,28.172,14.124,28.106L14.124,28.106z M34.672,22.063c1.92,1.245,4.279,2.205,6.33,2.899
				c0,0.057,0,0.09,0,0.133c-0.971,0.706-2.02,1.357-2.734,2.338c-0.23,0.419-0.562,1.081-0.982,1.181
				c-0.816-1.06-3.826-4.743-3.826-5.482C33.865,22.944,34.65,22.051,34.672,22.063L34.672,22.063z M41.256,19.382
				c-0.164,0.85-0.475,1.787-0.607,2.614c-1.047,0.575-4.588-0.043-5.846-0.231C35.422,18.644,38.574,19.735,41.256,19.382
				L41.256,19.382z M15.36,27.036c-0.012-0.022-0.021-0.033-0.033-0.055c-0.373,0.176-0.373,0.176-0.617,0.364
				c0.032,0.176,0.023,0.155,0.134,0.221c0,0.099-0.012,0.197-0.023,0.275c0.254-0.099,0.254-0.131,0.352-0.43
				c0.069,0.022,0.135,0.022,0.188,0.022C15.36,27.312,15.36,27.169,15.36,27.036L15.36,27.036z M15.856,27.003
				c0.232,0.121,0.475,0.253,0.684,0.375c0,0.166,0,0.309,0,0.463c-0.341-0.054-0.791-0.264-0.791-0.827
				C15.814,26.981,15.814,26.981,15.856,27.003L15.856,27.003z M25.297,32.946c0.023,0.266,0.057,0.508,0.064,0.761
				c-0.119,0.123-0.15,0.09-0.385,0.123c-0.121-0.11-0.396-0.618-0.188-0.884C24.965,32.946,25.133,32.946,25.297,32.946
				L25.297,32.946z M24.24,33.057c-0.057,0.232-0.057,0.232-0.5,1.061c-0.064,0.012-0.152,0.032-0.229,0.032
				c-0.123-0.132-0.168-0.528-0.209-0.815C23.621,33.257,23.93,33.156,24.24,33.057L24.24,33.057z M22.815,33.479
				c-0.196,0.02-0.617,0.186-0.794,0.362c0.045,0.165,0.09,0.329,0.11,0.485C22.627,34.26,22.693,33.94,22.815,33.479L22.815,33.479
				z M14.721,31.91c-0.065,0.012-0.065,0.012-0.099,0.111c1.896,1.346,4.774,2.096,6.992,2.096
				c-0.012-0.066-0.044-0.132-0.068-0.209C19.474,33.225,17.026,32.86,14.721,31.91z"/>
			<path i:knockout="Off" fill="#9D8B40" d="M29.137,23.938c0.385,0.385,2.215,0.43,2.744,0.385
				c0.012,0.055,0.035,0.098,0.035,0.143c-3.279,2.117-5.02,4.334-9.232,3.529c0.66-0.85,1.082-0.827,1.687-0.442
				c2.637,0.442,4.699-0.782,4.699-3.595C29.092,23.959,29.125,23.959,29.137,23.938L29.137,23.938z M16.506,6.722
				c1.403,0.463,3.816,1.709,4.181,3.188c-0.23,0.275-0.451,0.452-0.451,0.827c0.353,0.231,2.448,0.584,2.579,0.574
				c1.269-0.729,0.951-0.685,2.207-0.276c0.619,0,3.1-0.75,3.387-1.191c0.584,0.088,2.611,1.588,2.611,2.128
				c-0.814-0.397-3.893,1.467-4.322,2.195c-0.32,1.676-1.168,1.302-1.057,3.298c-0.598,1.654-0.529,1.389,0.086,2.966
				c-0.066,0.893-0.926,2.35-1.807,2.571c0.959-2.726,0.328-7.776-3.43-7.556c0.009-0.176,0.021-0.363,0.021-0.552
				c-1.699-0.705-6.309,0.331-8.172,0.949c-0.054,0-0.119-0.011-0.188-0.033c0.741-0.816,1.47-1.235,2.428-1.709
				c0.021-0.11,0.033-0.221,0.033-0.342c-0.487-0.033-1.302,0.066-2.911,0.133c0-1.247,4.103-1.809,4.103-2.062
				c-0.618-0.617-2.891-1.037-3.927-1.368c0.012-0.044,0.033-0.088,0.033-0.144c2.084-0.783,3.562-1.51,5.658-0.573
				C18.824,9.743,16.077,6.887,16.506,6.722z"/>
			<path i:knockout="Off" fill="#FFCC00" d="M6.163,25.536c0.782,0.244,1.566,0.475,2.337,0.717
				c-0.01,0.078-0.043,0.143-0.065,0.221c-1.666,1.357-2.106,2.968-2.272,4.941c-1.312-0.496-2.305-0.958-2.911-2.469
				C3.064,26.792,3.957,25.536,6.163,25.536L6.163,25.536z M15.405,39.542c1.863,1.126,4.233,0.717,6.088,0.441
				c-0.021,0.332-0.033,0.64-0.057,0.959c-1.332,0.122-6.273,0.851-6.273-1.333C15.229,39.542,15.229,39.542,15.405,39.542
				L15.405,39.542z M9.539,26.419c-2.262,0-5.019,6.297-0.96,6.594c-0.166-1.886,0.231-3.396,1.367-5.03
				c0.319-0.363,0.728-0.518,0.728-1.048C10.397,26.76,10.011,26.551,9.539,26.419z"/>
			<path i:knockout="Off" d="M5.655,27.93c0,0.397-0.188,0.871-0.452,1.102c-0.276-0.265,0.022-0.75,0.243-1.091
				C5.522,27.941,5.59,27.941,5.655,27.93z"/>
			<path i:knockout="Off" d="M6.339,28.041c-0.133,0.43-0.187,0.871-0.485,1.18C5.7,28.901,5.887,28.117,6.339,28.041z"/>
			<path i:knockout="Off" fill="#CCE70B" d="M14.544,32.938c0.254,0.914,1.544,3.462,1.511,3.771
				c-2.096,0.586-1.797-1.887-1.621-3.783C14.5,32.881,14.5,32.881,14.544,32.938z"/>
			<path i:knockout="Off" fill="#FDCC8A" d="M26.766,35.628c1.012,1.952-0.707,2.305-2.119,1.379
				C24.715,36.962,26.697,35.615,26.766,35.628L26.766,35.628z M24.469,33.434c-0.045,0-0.605,0.848-0.781,1.025
				c-0.1,0-0.209,0-0.32,0c-0.143-0.166-0.143-0.166-0.343-0.618c-0.782,0.96,0.267,1.666,0.939,2.503
				c0.826-0.088,1.73-0.814,2.283-1.355c0-0.199-0.496-0.707-0.717-1.027C25.021,34.183,24.547,34.26,24.469,33.434L24.469,33.434z
				 M12.428,27.345c0.077,0.739,0.319,1.269,0.463,1.785c-0.278-0.065-1.336-0.914-1.534-1.333
				C11.535,27.687,12.251,27.268,12.428,27.345L12.428,27.345z M16.232,37.028c2.932,2.943,0.806,2.646,4.941,1.621
				c0,0.353,0,0.717-0.012,1.06c-1.323,0.75-4.467,0.152-5.867-0.552c-0.065-0.606-0.155-1.225-0.23-1.843
				C15.503,37.171,15.503,37.171,16.232,37.028L16.232,37.028z M10.784,27.787c-1.378,0-1.931,3.793-1.896,4.917
				c0.838,0.53,4.765,3.43,5.383,3.43c-0.09-0.971-0.167-1.93-0.167-2.979C14.488,30.786,12.527,29.418,10.784,27.787L10.784,27.787
				z M19.253,15.016c-0.958,0.066-4.852-0.287-4.267,1.665c0.229,1.092,0.483,3.606-0.818,3.872
				c-0.749-1.391,0.487-2.647,0.487-4.015c-0.024-0.011-0.045-0.022-0.078-0.034c-1.158,1.401-2.051,6.86-0.52,8.184
				c0.322-0.32-0.131-1.965,0.618-2.669c1.224,0.121,1.29,2.669,0.961,3.431c-0.552,0-0.794-0.11-1.325-0.508
				c-0.033,0.033-0.054,0.054-0.099,0.078c0.099,0.131,0.188,0.263,0.274,0.406c-0.021,0.045-0.032,0.067-0.041,0.1
				c1.773,2.536,6.571,3.199,9.04,1.545c0-0.134,0-0.134-0.074-0.278c0.043-0.021,0.066-0.065,0.1-0.11
				c0.307,0,0.605,0.364,0.729,0.464c2.027,0.784,5.568-1.091,4.311-3.507c-2.768-0.463-1.047-3.871-4.863,0.066
				c-0.111-0.011-0.176,0.033-0.332-0.121c0.131-0.408,0.131-0.408,0.496-1.181c0.553-2.635-0.01-7.014-3.595-6.617
				C19.815,15.225,20.83,15.17,19.253,15.016L19.253,15.016z M17.148,27.687c0.771,0.297,1.622,0.596,2.281,0.661
				c0,0.055,0,0.1,0,0.144c-0.495,0.022-2.723,0.065-2.48-0.782C17.014,27.709,17.08,27.709,17.148,27.687L17.148,27.687z
				 M15.503,27.554c0.176,0.176,0.176,0.176,0.221,0.343c-0.11-0.012-0.229-0.024-0.364-0.057
				C15.438,27.566,15.438,27.566,15.503,27.554z"/>
			<path i:knockout="Off" fill="#FFCC00" d="M15.679,40.966c1.843,0.551,3.651,0.265,5.396,0.386
				c0.385,0.85,0.438,1.455,0.397,2.239c-1.724,1.334-6.223,0.385-6.034-2.604C15.515,40.987,15.602,40.987,15.679,40.966z"/>
			<path i:knockout="Off" d="M19.429,41.561c0.078,0.495-0.881,0.298-1.224,0.286c0-0.054,0-0.119-0.012-0.187
				C18.602,41.626,19.024,41.605,19.429,41.561z"/>
			<path i:knockout="Off" fill="#FFFFFF" d="M14.852,17.485c0.024,0.166,0.033,0.32,0.033,0.474
				c-0.119,0.177-0.11,0.122-0.341,0.188C14.787,17.508,14.787,17.508,14.852,17.485z"/>
			<path i:knockout="Off" d="M20.666,17.529c0.319,0.022,0.353,0.078,0.463,0.166c-0.012,0.078-0.021,0.154-0.054,0.221
				c-0.466-0.044-2.583-0.011-2.824,0.408c2.228,5.558-4.147,4.964-1.544,0.596c0-0.1,0-0.21,0-0.32
				C18.029,17.872,19.22,17.529,20.666,17.529z"/>
			<path i:knockout="Off" d="M16.187,18.037c0.045,0.287,0.012,0.672,0.065,0.938c-0.054,0.022-0.107,0.055-0.164,0.077
				c-0.274-0.298-0.353-0.507-0.09-1.014C16.068,18.037,16.133,18.037,16.187,18.037z"/>
			<path i:knockout="Off" fill="#FFFFFF" d="M17.325,18.721c0.43,0.64,0.074,1.148-0.585,1.159c0.164-0.597,0.164-0.597,0.408-1.159
				C17.214,18.721,17.268,18.721,17.325,18.721z"/>
			<path i:knockout="Off" fill="#FFFFFF" d="M14.402,19.272c0.319,0.319,0.266,0.892-0.132,0.793
				c-0.036-0.408-0.036-0.408,0.021-0.783C14.357,19.25,14.357,19.25,14.402,19.272z"/>
			<path i:knockout="Off" fill="#FFFFFF" d="M18.05,19.901c0.663,0.263,0.2,1.434,0.09,1.863c-1.29,0.696-2.019,0.033-1.512-1.511
				c0.066-0.022,0.132-0.033,0.188-0.045C17.136,22.537,18.042,19.89,18.05,19.901z"/>
			<path i:knockout="Off" fill="#FFFFFF" d="M14.897,22.338c0.651,0.639,0.562,2.019,0.606,2.757
				c-1.454-0.133-1.233-1.357-0.762-2.745C14.798,22.35,14.852,22.35,14.897,22.338z"/>
			<path i:knockout="Off" d="M26.566,23.021c0.098,0.045,0.199,0.066,0.273,0.099c0.023,0.067,0.037,0.134,0.037,0.188
				c-0.223,0.155-0.443,0.099-0.762,0.09c-0.785,0.297-1.203,1.123-1.547,1.786c-0.055,0-0.107-0.022-0.164-0.033
				C24.404,24.201,25.615,23.021,26.566,23.021z"/>
		</g>
	</g>
</g>
</svg>
