<?xml version="1.0" encoding="utf-8"?>
<!-- Generator: Adobe Illustrator 12.0.0, SVG Export Plug-In . SVG Version: 6.00 Build 51448)  -->
<!DOCTYPE svg PUBLIC "-//W3C//DTD SVG 1.1//EN" "http://www.w3.org/Graphics/SVG/1.1/DTD/svg11.dtd" [
	<!ENTITY ns_flows "http://ns.adobe.com/Flows/1.0/">
	<!ENTITY ns_extend "http://ns.adobe.com/Extensibility/1.0/">
	<!ENTITY ns_ai "http://ns.adobe.com/AdobeIllustrator/10.0/">
	<!ENTITY ns_graphs "http://ns.adobe.com/Graphs/1.0/">
	<!ENTITY ns_vars "http://ns.adobe.com/Variables/1.0/">
	<!ENTITY ns_imrep "http://ns.adobe.com/ImageReplacement/1.0/">
	<!ENTITY ns_sfw "http://ns.adobe.com/SaveForWeb/1.0/">
	<!ENTITY ns_custom "http://ns.adobe.com/GenericCustomNamespace/1.0/">
	<!ENTITY ns_adobe_xpath "http://ns.adobe.com/XPath/1.0/">
	<!ENTITY ns_svg "http://www.w3.org/2000/svg">
	<!ENTITY ns_xlink "http://www.w3.org/1999/xlink">
]>
<svg  version="1.1"
	 xmlns:x="&ns_extend;" xmlns:i="&ns_ai;" xmlns:graph="&ns_graphs;" i:viewOrigin="-0.2363 65" i:rulerOrigin="0 0" i:pageBounds="0 65 45 0"
	 xmlns="&ns_svg;" xmlns:xlink="&ns_xlink;" xmlns:a="http://ns.adobe.com/AdobeSVGViewerExtensions/3.0/"
	 width="45.73" height="65.236" viewBox="0 0 45.73 65.236" overflow="visible" enable-background="new 0 0 45.73 65.236"
	 xml:space="preserve">
<metadata>
	<variableSets  xmlns="&ns_vars;">
		<variableSet  varSetName="binding1" locked="none">
			<variables></variables>
			<v:sampleDataSets  xmlns:v="&ns_vars;" xmlns="&ns_custom;"></v:sampleDataSets>
		</variableSet>
	</variableSets>
</metadata>
<g id="图层_1" i:layer="yes" i:dimmedPercent="50" i:rgbTrio="#4F008000FFFF">
	<g>
		<g i:knockout="Off">
			<path fill="#333333" d="M1.182,47.468v12.076c0,2.491,1.621,4.511,3.619,4.511h37.308c2.001,0,3.622-2.02,3.622-4.511l0,0V3.807
				C45.73,1.705,44.106,0,42.108,0H4.801C2.803,0,1.182,1.705,1.182,3.807l0,0v43.652C1.182,47.46,1.182,47.465,1.182,47.468z"/>
			
				<linearGradient id="XMLID_3_" gradientUnits="userSpaceOnUse" x1="-41.7017" y1="22.0122" x2="-41.7017" y2="82.7583" gradientTransform="matrix(1 0 0 -1 64.2148 87.0117)">
				<stop  offset="0.0393" style="stop-color:#0060B6"/>
				<stop  offset="0.0899" style="stop-color:#2089B9"/>
				<stop  offset="0.0985" style="stop-color:#4FA3C2"/>
				<stop  offset="0.1071" style="stop-color:#77B9CA"/>
				<stop  offset="0.1138" style="stop-color:#8FC7CF"/>
				<stop  offset="0.118" style="stop-color:#98CCD1"/>
				<stop  offset="0.1341" style="stop-color:#9ECFD3"/>
				<stop  offset="0.156" style="stop-color:#AFD6D9"/>
				<stop  offset="0.1809" style="stop-color:#CBE1E3"/>
				<stop  offset="0.1966" style="stop-color:#E1EAEB"/>
				<a:midPointStop  offset="0.0393" style="stop-color:#0060B6"/>
				<a:midPointStop  offset="0.5" style="stop-color:#0060B6"/>
				<a:midPointStop  offset="0.0899" style="stop-color:#2089B9"/>
				<a:midPointStop  offset="0.5" style="stop-color:#2089B9"/>
				<a:midPointStop  offset="0.0985" style="stop-color:#4FA3C2"/>
				<a:midPointStop  offset="0.5" style="stop-color:#4FA3C2"/>
				<a:midPointStop  offset="0.1071" style="stop-color:#77B9CA"/>
				<a:midPointStop  offset="0.5" style="stop-color:#77B9CA"/>
				<a:midPointStop  offset="0.1138" style="stop-color:#8FC7CF"/>
				<a:midPointStop  offset="0.5" style="stop-color:#8FC7CF"/>
				<a:midPointStop  offset="0.118" style="stop-color:#98CCD1"/>
				<a:midPointStop  offset="0.5" style="stop-color:#98CCD1"/>
				<a:midPointStop  offset="0.1341" style="stop-color:#9ECFD3"/>
				<a:midPointStop  offset="0.5" style="stop-color:#9ECFD3"/>
				<a:midPointStop  offset="0.156" style="stop-color:#AFD6D9"/>
				<a:midPointStop  offset="0.5" style="stop-color:#AFD6D9"/>
				<a:midPointStop  offset="0.1809" style="stop-color:#CBE1E3"/>
				<a:midPointStop  offset="0.5" style="stop-color:#CBE1E3"/>
				<a:midPointStop  offset="0.1966" style="stop-color:#E1EAEB"/>
			</linearGradient>
			<path fill="url(#XMLID_3_)" d="M44.787,60.488c0,2.492-1.624,4.512-3.619,4.512H3.857c-1.998,0-3.619-2.02-3.619-4.512V8.765
				c0-2.49,1.621-4.511,3.619-4.511h37.308c2.001,0,3.619,2.021,3.619,4.511v51.724H44.787z"/>
			<path fill="none" stroke="#333333" stroke-width="0.4727" d="M44.787,60.488c0,2.492-1.624,4.512-3.619,4.512H3.857
				c-1.998,0-3.619-2.02-3.619-4.512V8.765c0-2.49,1.621-4.511,3.619-4.511h37.308c2.001,0,3.619,2.021,3.619,4.511v51.724H44.787z"
				/>
			<path fill="#FFFFFF" d="M0.237,4.752c0-2.101,1.623-3.807,3.62-3.807h37.308c2.001,0,3.619,1.705,3.619,3.807v43.651
				c0,2.103-1.621,3.806-3.619,3.806H3.857c-1.999,0-3.62-1.703-3.62-3.807V4.752L0.237,4.752z"/>
			
				<linearGradient id="XMLID_4_" gradientUnits="userSpaceOnUse" x1="2.5527" y1="25.2324" x2="46.6455" y2="25.2324" gradientTransform="matrix(-1 0 0 1 47.1094 1.3447)">
				<stop  offset="0" style="stop-color:#A2D8E0"/>
				<stop  offset="0.0899" style="stop-color:#1878AD"/>
				<stop  offset="0.2135" style="stop-color:#194D91"/>
				<stop  offset="0.6404" style="stop-color:#2B90BD"/>
				<stop  offset="0.9438" style="stop-color:#82CBDE"/>
				<stop  offset="1" style="stop-color:#1A478D"/>
				<a:midPointStop  offset="0" style="stop-color:#A2D8E0"/>
				<a:midPointStop  offset="0.5" style="stop-color:#A2D8E0"/>
				<a:midPointStop  offset="0.0899" style="stop-color:#1878AD"/>
				<a:midPointStop  offset="0.5" style="stop-color:#1878AD"/>
				<a:midPointStop  offset="0.2135" style="stop-color:#194D91"/>
				<a:midPointStop  offset="0.5" style="stop-color:#194D91"/>
				<a:midPointStop  offset="0.6404" style="stop-color:#2B90BD"/>
				<a:midPointStop  offset="0.5" style="stop-color:#2B90BD"/>
				<a:midPointStop  offset="0.9438" style="stop-color:#82CBDE"/>
				<a:midPointStop  offset="0.5" style="stop-color:#82CBDE"/>
				<a:midPointStop  offset="1" style="stop-color:#1A478D"/>
			</linearGradient>
			<path i:isolated="yes" i:knockout="Off" opacity="0.1" fill="url(#XMLID_4_)" enable-background="new    " d="M0.464,4.752
				c0-2.101,1.602-3.807,3.579-3.807h36.934c1.977,0,3.58,1.705,3.58,3.807v43.651c0,2.103-1.604,3.806-3.58,3.806H4.042
				c-1.975,0-3.577-1.703-3.577-3.807L0.464,4.752L0.464,4.752z"/>
			<path fill="none" stroke="#4D4D4D" stroke-width="0.4727" d="M0.237,48.413v12.075C0.237,62.98,1.86,65,3.857,65h37.308
				c2.001,0,3.619-2.02,3.619-4.512V4.752c0-2.102-1.621-3.806-3.619-3.806H3.857c-1.998,0-3.62,1.705-3.62,3.806v43.651
				C0.235,48.406,0.237,48.409,0.237,48.413z"/>
		</g>
		<g>
			<path i:knockout="Off" d="M20.806,44.604c-2.126-1.604-6.446,1.638-6.903-1.69c-2.676-2.104,0.319-4.19,2.377-5.588
				c0-0.466-0.57-0.758-0.846-0.964c-1.325-1.553-1.373-2.899-1.099-4.485c-3.177,0.276-2.081-2.448-4.274-2.448
				c-3.084,0.914-2.628,0.672-4.001-1.76c-0.089-0.016-0.182-0.034-0.249-0.051c0-1.879,3.587-5.57,4.822-7.243
				c3.064-4.812,7.749-9.33,10.355-13.917c3.565-1.793,10.677,2.707,7.59,3.173c0.158,0.725-0.388,1.466-0.045,2.173
				c0.09,0.5,4.32,18.97,3.816,19.487c-3.063,0.276-3.178-0.792-5.372,1.414c-2.63,1.45-2.538-2.293-6.24,0
				c-3.888,1.708-1.576,0.242-4.183-0.137c0,1.329-0.161,2.242,1.601,3.121c3.771,0,7.085,4.241,3.747,5.949
				c-0.114,1-0.158,1.897-0.708,2.967C21.056,44.604,20.919,44.604,20.806,44.604z"/>
			<path i:knockout="Off" fill="#977B8A" d="M20.806,43.312c-0.114-0.345-0.114-0.345-0.069-0.725c0.069,0,0.161,0.017,0.251,0.035
				c0,0.206,0,0.413,0,0.637C20.919,43.277,20.85,43.294,20.806,43.312L20.806,43.312z M18.748,43.846
				c-1.395-0.017-3.063,0.069-4.228-0.241c-0.024-0.259-0.024-0.519-0.024-0.759c1.759,0.155,3.727,0.189,5.715,0.085
				c0.158,0.294,0.251,0.347,0.183,0.845C19.823,43.846,19.823,43.846,18.748,43.846L18.748,43.846z M17.147,42.638
				c-1.624-0.086-3.451,0.121-3.612-1.103c2.332-0.225,2.562-0.155,4.688,0.413c0.502,0,1.164-0.206,1.601-0.137
				c0.113,0.173,0.113,0.173,0.182,0.637C19.706,42.673,17.467,42.638,17.147,42.638L17.147,42.638z M20.736,41.638
				c-0.388-0.982,0.319-2.914,0.869-3.672c0.09,0,0.182,0,0.271,0c0.598,1,0.141,3-1.071,3.741
				C20.781,41.674,20.758,41.656,20.736,41.638z"/>
			<path i:knockout="Off" fill="#FDCC8A" d="M18.291,41.604c-0.869-0.224-1.875-0.604-1.669-1.259
				c0.093-0.018,0.183-0.018,0.296-0.018c0.093,0.673,0.436,0.828,1.762,0.828c0.137-0.173,0.206-0.328,0.525-0.379
				c0.021,0.206,0.068,0.414,0.113,0.638C18.954,41.69,18.655,41.604,18.291,41.604z"/>
			<path i:knockout="Off" fill="#FDCC8A" d="M14.724,41.327c-0.615-0.119-0.615-0.119-1.049-0.311
				c-0.023-0.224-0.023-0.43-0.023-0.637c1.072,0.171,1.096,0.413,2.445,0.12C16.097,41.241,15.503,41.19,14.724,41.327z"/>
			<path i:knockout="Off" fill="#FDCC8A" d="M19.593,40.897c-0.068-0.191-0.113-0.379-0.161-0.57
				c0.093,0.018,0.206,0.036,0.322,0.068c0,0.123,0,0.242,0.021,0.381C19.706,40.811,19.638,40.845,19.593,40.897z"/>
			<path i:knockout="Off" fill="#FDCC8A" d="M17.834,40.742c-0.161-0.053-0.322-0.104-0.456-0.139c0-0.345-0.072-0.276,0.113-0.519
				c0.594,0,0.594-0.085,1.302,0.295c0,0.052,0,0.103,0,0.171C18.336,40.811,18.246,40.742,17.834,40.742z"/>
			<path i:knockout="Off" fill="#FDCC8A" d="M20.279,40.432c-1.6-1.432-3.564-1.053-5.484-1.311c0-0.553,1.849-1.415,2.672-1.415
				c0.069-0.069,0.138-0.138,0.23-0.206c-0.598-0.674-1.511-1.174-2.105-1.725c-0.501-0.947-1.734-4.398,0.117-4.398
				c1.277,0.966-1.12,4.519,3.266,5.225c0.161-0.104,0.161-0.104,0.23-0.363c3.29,0.519,1.553,2.037,1.188,4.192
				C20.349,40.432,20.301,40.432,20.279,40.432z"/>
			<path i:knockout="Off" fill="#FDCC8A" d="M14.496,40.31c-0.048-0.225-0.048-0.225,0.069-0.361c0.617,0,0.617,0,0.913,0.104
				c0,0.085,0,0.172,0.024,0.274C15.159,40.31,14.815,40.31,14.496,40.31z"/>
			<path i:knockout="Off" d="M27.983,39.138c0-2.104,4.982-2.519,7.085-2.363c0.093,0.104,0.093,0.104,0.023,0.449
				c-3.016,0.207-3.657-0.604-6.356,1.224C28.189,39.085,28.049,39.189,27.983,39.138z"/>
			<path i:knockout="Off" d="M26.517,38.5c0-2.708,5.443-4.501,8.527-3.293c0,0.103,0,0.205,0.024,0.311
				c-0.48,0-0.55-0.139-0.684-0.227c-3.407-0.773-6.652,0.761-7.638,3.209C26.657,38.5,26.589,38.5,26.517,38.5z"/>
			<path i:knockout="Off" d="M38.107,36.724c0-2.069,1.783-5.208,5.031-4.915c0,0.069,0,0.155,0.021,0.242
				c-3.609,0.621-4.389,2.086-4.866,4.654C38.177,36.758,38.177,36.758,38.107,36.724z"/>
			<path i:knockout="Off" d="M36.212,34.688c0-1.948,2.881-5.674,5.738-5.295c0,0.139-5.487,2.087-5.487,5.243
				C36.37,34.654,36.28,34.672,36.212,34.688z"/>
			<path i:knockout="Off" fill="#537FA1" d="M18.449,33.136c0.183-0.982,0.299-1.984,0.869-2.759
				c2.765-2.035,2.171-4.761,3.634-7.104c1.28-0.155,2.493-0.57,3.888-0.57c0-0.068,0-0.137,0.023-0.206
				c-0.299-0.173-0.597-0.345-0.869-0.518c-2.562,1.553-10.241,0.724-10.903-1.551c-0.57-0.036-0.663,0.051-0.982,0.119
				c0,0.087,0,0.173,0,0.26c4.479,0.724-6.563,7.639,1.144,10.089c-0.299,0.224-1.672,0.603-1.988,0.603
				c-4.804-3.932,1.325-6.433,0.227-8.933c-2.628,3.896-1.759,7.346-5.555,6.897c-0.229-0.723,4.273-5.586,4.112-7.879
				c-1.164,1.482-3.655,7.036-4.503,7.467c-0.524-0.76-1.187-1.57-1.187-2.242c2.376-2.914,12.161-17.591,14.4-17.125
				c0,0.535-1.392,2.311-1.783,2.932c0.598-0.104,1.783-2.346,2.058-2.759c0.093-0.018,0.206-0.035,0.322-0.035
				c0.158,0.121,0.341,0.242,0.522,0.38c-0.89,1.948-0.89,1.948-0.979,2.414c0.09-0.035,0.183-0.069,0.296-0.086
				c0.319-0.725,0.639-1.432,0.982-2.139c0.319-0.017,0.663-0.017,1.006-0.017c-0.045,0.292-0.274,0.535-0.023,0.914
				c0.367-0.362,0.274-0.689,0.251-1.035c2.084,0.879,2.585,0.259,4.254,0.828c0.09,0.224,0.183,0.448,0.275,0.672
				c1.119,6.122,3.38,12.727,3.726,18.97c-0.597,0.448-2.448-0.035-3.087-0.035c-0.505-5.382-1.167-10.537-1.075-15.831
				c-1.096,3.811,0.663,11.348,0.663,16.039c-0.319,0.551-1.37,1.396-2.01,1.81c-1.009-0.12-2.448-1.138-3.062-1.466
				c0-2.188,0.662-4.449,0.546-6.467c-0.09-0.017-0.158-0.033-0.229-0.033c-0.251,2.104-0.502,4.207-0.729,6.329
				C21.605,31.653,19.686,32.964,18.449,33.136L18.449,33.136z M17.924,32.809c0.068,0.034,0.068,0.034,0.183-0.018
				c0.298-0.809,0.298-0.809,0.573-2.069c-0.962,0.034-1.738,0.224-2.744,0.224C16.052,31.446,17.285,32.274,17.924,32.809
				L17.924,32.809z M27.753,10.683c0.093,0,0.186,0,0.296,0c0.322-0.363-0.135-0.845-0.228-0.983
				c-1.967-0.276-5.439-1.311-7.085-1.311C17.673,9.648,26.863,10.458,27.753,10.683L27.753,10.683z M27.526,9.251
				c0.639-0.035,0.546,0.068,1.233-0.258c-0.299-1.828-7.36-3.449-7.611-1.432C23.045,8.389,25.308,8.734,27.526,9.251z"/>
			<path i:knockout="Off" fill="#FB6747" d="M16.004,30.635c-5.782-1.087-2.218-6.157-0.137-8.57
				c0.456,0.052,0.525,0.121,2.125,0.345c0,1.293-2.17,5.036-1.463,5.846c0.138-0.087,1.646-4.795,1.875-5.415
				c0.801-0.189,2.995,0.311,4.001,0.414C20.897,26.445,21.65,30.635,16.004,30.635z"/>
			<path i:knockout="Off" d="M21.032,21.375c-4.479-0.673-6.127-3.19-4.228-6.054C24.277,10.683,31.366,20.478,21.032,21.375z"/>
			<path i:knockout="Off" fill="#FFFFFF" d="M21.032,21.03c-10.878-2.053-0.525-11.451,4.619-3.984
				C26.313,19.599,24.438,20.857,21.032,21.03z"/>
			<path i:knockout="Off" d="M20.575,18.098c-0.09-0.017-0.158-0.017-0.227-0.017C19.617,15.442,22.45,19.03,20.575,18.098z"/>
		</g>
	</g>
</g>
</svg>
