<?xml version="1.0" encoding="utf-8"?>
<!-- Generator: Adobe Illustrator 12.0.0, SVG Export Plug-In . SVG Version: 6.00 Build 51448)  -->
<!DOCTYPE svg PUBLIC "-//W3C//DTD SVG 1.1//EN" "http://www.w3.org/Graphics/SVG/1.1/DTD/svg11.dtd" [
	<!ENTITY ns_flows "http://ns.adobe.com/Flows/1.0/">
	<!ENTITY ns_extend "http://ns.adobe.com/Extensibility/1.0/">
	<!ENTITY ns_ai "http://ns.adobe.com/AdobeIllustrator/10.0/">
	<!ENTITY ns_graphs "http://ns.adobe.com/Graphs/1.0/">
	<!ENTITY ns_vars "http://ns.adobe.com/Variables/1.0/">
	<!ENTITY ns_imrep "http://ns.adobe.com/ImageReplacement/1.0/">
	<!ENTITY ns_sfw "http://ns.adobe.com/SaveForWeb/1.0/">
	<!ENTITY ns_custom "http://ns.adobe.com/GenericCustomNamespace/1.0/">
	<!ENTITY ns_adobe_xpath "http://ns.adobe.com/XPath/1.0/">
	<!ENTITY ns_svg "http://www.w3.org/2000/svg">
	<!ENTITY ns_xlink "http://www.w3.org/1999/xlink">
]>
<svg  version="1.1"
	 xmlns:x="&ns_extend;" xmlns:i="&ns_ai;" xmlns:graph="&ns_graphs;" i:viewOrigin="-0.2363 65" i:rulerOrigin="0 0" i:pageBounds="0 65 45 0"
	 xmlns="&ns_svg;" xmlns:xlink="&ns_xlink;" xmlns:a="http://ns.adobe.com/AdobeSVGViewerExtensions/3.0/"
	 width="45.73" height="65.236" viewBox="0 0 45.73 65.236" overflow="visible" enable-background="new 0 0 45.73 65.236"
	 xml:space="preserve">
<metadata>
	<variableSets  xmlns="&ns_vars;">
		<variableSet  varSetName="binding1" locked="none">
			<variables></variables>
			<v:sampleDataSets  xmlns:v="&ns_vars;" xmlns="&ns_custom;"></v:sampleDataSets>
		</variableSet>
	</variableSets>
</metadata>
<g id="图层_1" i:layer="yes" i:dimmedPercent="50" i:rgbTrio="#4F008000FFFF">
	<g>
		<g i:knockout="Off">
			<path fill="#333333" d="M1.181,47.468v12.076c0,2.491,1.623,4.511,3.621,4.511h37.308c2,0,3.621-2.02,3.621-4.511h-0.002V3.807
				C45.729,1.705,44.107,0,42.109,0H4.802C2.803,0,1.183,1.705,1.183,3.807H1.18v43.652C1.18,47.46,1.181,47.465,1.181,47.468z"/>
			
				<linearGradient id="XMLID_3_" gradientUnits="userSpaceOnUse" x1="-41.7036" y1="22.0122" x2="-41.7036" y2="82.7583" gradientTransform="matrix(1 0 0 -1 64.2148 87.0117)">
				<stop  offset="0.0393" style="stop-color:#0060B6"/>
				<stop  offset="0.0899" style="stop-color:#2089B9"/>
				<stop  offset="0.0985" style="stop-color:#4FA3C2"/>
				<stop  offset="0.1071" style="stop-color:#77B9CA"/>
				<stop  offset="0.1138" style="stop-color:#8FC7CF"/>
				<stop  offset="0.118" style="stop-color:#98CCD1"/>
				<stop  offset="0.1341" style="stop-color:#9ECFD3"/>
				<stop  offset="0.156" style="stop-color:#AFD6D9"/>
				<stop  offset="0.1809" style="stop-color:#CBE1E3"/>
				<stop  offset="0.1966" style="stop-color:#E1EAEB"/>
				<a:midPointStop  offset="0.0393" style="stop-color:#0060B6"/>
				<a:midPointStop  offset="0.5" style="stop-color:#0060B6"/>
				<a:midPointStop  offset="0.0899" style="stop-color:#2089B9"/>
				<a:midPointStop  offset="0.5" style="stop-color:#2089B9"/>
				<a:midPointStop  offset="0.0985" style="stop-color:#4FA3C2"/>
				<a:midPointStop  offset="0.5" style="stop-color:#4FA3C2"/>
				<a:midPointStop  offset="0.1071" style="stop-color:#77B9CA"/>
				<a:midPointStop  offset="0.5" style="stop-color:#77B9CA"/>
				<a:midPointStop  offset="0.1138" style="stop-color:#8FC7CF"/>
				<a:midPointStop  offset="0.5" style="stop-color:#8FC7CF"/>
				<a:midPointStop  offset="0.118" style="stop-color:#98CCD1"/>
				<a:midPointStop  offset="0.5" style="stop-color:#98CCD1"/>
				<a:midPointStop  offset="0.1341" style="stop-color:#9ECFD3"/>
				<a:midPointStop  offset="0.5" style="stop-color:#9ECFD3"/>
				<a:midPointStop  offset="0.156" style="stop-color:#AFD6D9"/>
				<a:midPointStop  offset="0.5" style="stop-color:#AFD6D9"/>
				<a:midPointStop  offset="0.1809" style="stop-color:#CBE1E3"/>
				<a:midPointStop  offset="0.5" style="stop-color:#CBE1E3"/>
				<a:midPointStop  offset="0.1966" style="stop-color:#E1EAEB"/>
			</linearGradient>
			<path fill="url(#XMLID_3_)" d="M44.785,60.488c0,2.492-1.621,4.512-3.619,4.512H3.856c-1.999,0-3.62-2.02-3.62-4.512V8.765
				c0-2.49,1.624-4.511,3.62-4.511h37.31c1.998,0,3.619,2.021,3.619,4.511V60.488L44.785,60.488z"/>
			<path fill="none" stroke="#333333" stroke-width="0.4727" d="M44.785,60.488c0,2.492-1.621,4.512-3.619,4.512H3.856
				c-1.999,0-3.62-2.02-3.62-4.512V8.765c0-2.49,1.624-4.511,3.62-4.511h37.31c1.998,0,3.619,2.021,3.619,4.511V60.488
				L44.785,60.488z"/>
			<path fill="#FFFFFF" d="M0.236,4.752c0-2.101,1.621-3.807,3.619-3.807h37.307c2.002,0,3.623,1.705,3.623,3.807v43.651
				c0,2.103-1.625,3.806-3.623,3.806H3.855c-1.998,0-3.619-1.703-3.619-3.807V4.752L0.236,4.752z"/>
			
				<linearGradient id="XMLID_4_" gradientUnits="userSpaceOnUse" x1="2.5508" y1="25.2324" x2="46.6465" y2="25.2324" gradientTransform="matrix(-1 0 0 1 47.1094 1.3447)">
				<stop  offset="0" style="stop-color:#A2D8E0"/>
				<stop  offset="0.0899" style="stop-color:#1878AD"/>
				<stop  offset="0.2135" style="stop-color:#194D91"/>
				<stop  offset="0.6404" style="stop-color:#2B90BD"/>
				<stop  offset="0.9438" style="stop-color:#82CBDE"/>
				<stop  offset="1" style="stop-color:#1A478D"/>
				<a:midPointStop  offset="0" style="stop-color:#A2D8E0"/>
				<a:midPointStop  offset="0.5" style="stop-color:#A2D8E0"/>
				<a:midPointStop  offset="0.0899" style="stop-color:#1878AD"/>
				<a:midPointStop  offset="0.5" style="stop-color:#1878AD"/>
				<a:midPointStop  offset="0.2135" style="stop-color:#194D91"/>
				<a:midPointStop  offset="0.5" style="stop-color:#194D91"/>
				<a:midPointStop  offset="0.6404" style="stop-color:#2B90BD"/>
				<a:midPointStop  offset="0.5" style="stop-color:#2B90BD"/>
				<a:midPointStop  offset="0.9438" style="stop-color:#82CBDE"/>
				<a:midPointStop  offset="0.5" style="stop-color:#82CBDE"/>
				<a:midPointStop  offset="1" style="stop-color:#1A478D"/>
			</linearGradient>
			<path i:isolated="yes" i:knockout="Off" opacity="0.1" fill="url(#XMLID_4_)" enable-background="new    " d="M0.463,4.752
				c0-2.101,1.603-3.807,3.578-3.807h36.937c1.977,0,3.58,1.705,3.58,3.807v43.651c0,2.103-1.604,3.806-3.58,3.806H4.043
				c-1.977,0-3.58-1.703-3.58-3.807V4.752L0.463,4.752z"/>
			<path fill="none" stroke="#4D4D4D" stroke-width="0.4727" d="M0.236,48.413v12.075C0.236,62.98,1.857,65,3.855,65h37.311
				c1.998,0,3.619-2.02,3.619-4.512V4.752c0-2.102-1.625-3.806-3.623-3.806H3.856c-1.999,0-3.62,1.705-3.62,3.806v43.651
				C0.236,48.406,0.236,48.409,0.236,48.413z"/>
		</g>
		<g>
			<path i:knockout="Off" d="M30.098,44.604c-1.176-0.784-3.963-0.262-5.268-1.073c-2.248,0.102-8.703,1.885-10.357,0.463
				c-1.06-2.756,2.075-1.653,3.628-1.768c0-0.073,0.012-0.146,0.026-0.203c-2.045-2.41-1.232-4.904-0.534-7.646
				c-0.176-1.653-3.165-1.783-4.207-3.523c-0.191-0.684-0.191-0.684-0.406-1.177c-0.06,0-0.102,0-0.146,0
				c-0.188,0.363-0.377,0.797-0.726,1.03c0-0.652,0.478-0.929,0.579-1.451c-0.493,0.058-0.637,0.305-0.971,0.596
				c-0.188-0.028-0.188-0.028-0.232-0.116c0.131-0.13,0.856-0.667,0.624-0.9c-0.305,0.015-0.943,0.248-1.045,0.218
				c0-0.361,0.218-0.319,0.537-0.436c0-1.523-5.934-1.565-7.065-2.944C4.072,23.293,7.365,7.309,12.21,13.604
				c1.349,2.205,1.289,4.236-1.887,4.381c0.028,0.972,0.175,1.842,0.435,2.917c0.989,0.188,2.843,2.204,4.034,1.247
				c-0.263-1.363,0.579-2.8,0.842-4.018c-1.003-0.087-1.334-1.436-1.624-2.074c-0.552-2.206,1.651-3.104,2.058-4.745
				c0.567-0.101,0.785,0.218,1.409,0.218c1.071-3.133,4.425-3.815,7.398-4.845c1,0,2.002,0.638,2.857,0.638
				c0.174-0.217,0.348-0.436,0.523-0.638c1.086,0,1.203-1.045,2.275-0.479c0,0.116,0,0.231,0.014,0.362
				c-0.041,0.029-0.086,0.058-0.115,0.102c-0.291-0.174-0.434-0.131-0.621-0.131c-0.191,0.233-0.365,0.479-0.537,0.726
				c-0.248-0.028-0.494-0.057-0.727-0.086c-0.131,0.188-0.262,0.261-0.318,0.551c2.248,1.639,4.51,2.669,4.916,5.658
				c1.756-0.435,2.133,2.451,2.539,4.018c-0.406,1.639-4.6,4.932-0.609,5.527c1.045-0.797,1.943-1.162,3.395-1.162
				c0.74-1,0.785-3.017,0.203-3.974c-6.34-1.408-0.219-9.53,2.988-5.179c1.117,2.438,3.832,12.273,1.248,14.217
				c-1.77,0.638-3.568,0.957-5.223,1.551c-0.014,0.043-0.029,0.088-0.029,0.145c0.086,0.102,0.188,0.131,0.248,0.436
				c-0.061,0.045-0.117,0.086-0.176,0.146c-0.158-0.19-0.32-0.379-0.479-0.567c-0.115,0.015-0.232,0.03-0.334,0.043
				c0,0.246,0.086,0.494,0.117,0.9c-0.057,0-0.117,0-0.158,0c-0.088-0.188-0.178-0.363-0.248-0.537
				c-0.072-0.015-0.133-0.015-0.189-0.015c-0.318,0.319,0.117,0.552,0.117,1.09c-0.045,0.028-0.086,0.057-0.131,0.102
				c-0.117-0.146-0.117-0.146-0.275-0.522c-0.074,0-0.146,0.015-0.203,0.028c-1.059,3.205-5.383,3.032-3.846,7.5
				c0.975,3.829,0.523,2.132-0.447,4.933c1.797-0.464,2.812-0.886,3.93,1.059c0,1.987-3.002,0.667-4.031,1.35
				c0.041,0.028,0.086,0.057,0.143,0.102c-0.07,0-0.131,0.015-0.188,0.028C31.33,44.43,30.271,44.604,30.098,44.604L30.098,44.604z
				 M24.83,42.211c0.088,0.016,0.088,0.016,0.74-0.334c0.016-0.072,0.031-0.145,0.043-0.203c-0.361-0.421-0.594-0.768-0.637-1.16
				c-0.059,0-0.102,0.014-0.146,0.028c-0.203,0.364-0.639,0.726-0.639,1.19C24.424,41.849,24.582,41.833,24.83,42.211z"/>
			<path i:knockout="Off" fill="#9983BD" d="M24.582,38.847c-0.664-0.378-1.406-1.307-1.841-1.741
				c-1.538-0.842-3.162-1.699-4.685-2.105c-0.015-0.071-0.03-0.129-0.03-0.188c0.278-0.275,1.004-0.016,1.437,0.072
				c3.815,0.275,7.819,0.131,11.752,0.176c-0.016,0.173-0.031,0.346-0.031,0.521c-1.406,0.886-3.395,0.784-4.859,2.104
				C25.643,38.672,25.643,38.628,24.582,38.847z"/>
			<path i:knockout="Off" fill="#CAA36E" d="M18.593,32.826c-0.669-0.333-1.597,0.581-4.267-1.451
				c-0.128-0.16-0.244-0.318-0.361-0.479c-1.594-4.134-4.831-4.017-8.341-4.917C3.795,24.615,7.175,15.751,7.626,14.46
				c1.755-2.437,3.278-2.234,4.847,0.377c0.316,1.132,0.188,1.146-0.437,2.089c-0.029-0.029-0.06-0.044-0.071-0.058
				c0,0.537-2.599,1.45-2.426-0.609c0.102-0.029,0.203-0.044,0.32-0.058c0-0.392-0.406-0.203-0.552-0.203
				c0,1.697,1.219,3.946,0.697,5.716c-0.304,0.493-0.871,1.188-0.871,1.827c0.029,0.029,0.073,0.057,0.116,0.102
				c0.508-0.451,0.711-1.741,1.263-2.162c1.464,0,2.001,0.899,2.9,2.162c0.015-0.248,0.015-0.248-0.144-0.87
				c0.666,0,1.35-0.058,2.03-0.175c0.884,1.146,1.887,2.321,2.974,3.468c-0.029,0.043-0.045,0.086-0.057,0.145
				c-0.8-0.596-2.481-0.987-3.353-1.292c-0.016,0.073-0.03,0.145-0.03,0.218c2.353,0.972,5.297,1.712,7.575,3.075
				c0.158,0.188,0.71,1.203,1.03,1.13c-0.117-0.884-0.944-1.29-1.03-1.638c4.366,0.898,7.354-1.088,10.586-4.062
				c0.146-0.304,0.203-0.522,0.248-0.769c0.492,0.145,1,0.174,1.451,0.623c-0.172,0.379-0.262,0.48-0.305,0.973
				c0.812-1.176,1.58-1.771,3.004-2.162c1.885,0.086,0.768,0.726,1.639,2.393c0.129-1.871-0.045-3.336,0.564-5.077
				c0-1.03-0.578-1.77-0.578-2.321c0.578-0.581,0.549-0.653,0.463-1.45c-0.246-0.117-0.246-0.117-0.393-0.117
				c-0.014,0.015-0.029,0.043-0.043,0.073c1.48,2.582-5.121,0.827-1.682-3.003c4.178-2.902,4.582,1.842,5.324,5.179
				c0.303,2.219,0.664,4.541,0.725,6.861c-0.654,3.656-6.572,1.233-8.125,5.282c-0.957,1.985-6.322,3.075-8.195,2.233
				C24.09,31.245,21.538,32.724,18.593,32.826L18.593,32.826z M30.43,44.023c-1.406-0.188-4.076-0.406-5.264-0.869
				c0-0.958,0.928-0.537,1.029-1.625c-0.842-0.914-0.725-1.479-0.725-2.467c1.709-1.421,3.029-3.118,5.744-3.118
				c0.711,2.132,1.68,3.902-0.061,5.643c-0.635,0.29-0.65,0.102-0.65,0.87c0.826,0.886,4.309-1.639,4.598,1.059
				C34.26,43.937,31.488,43.937,30.43,44.023L30.43,44.023z M15.489,43.967c-0.985-0.35-0.741-0.812-0.29-1.364
				c0.884-0.087,4.354,0.986,3.264-0.972c-1.58-1.755-1.174-4.367-0.55-6.296c3.016,0,4.336,2.598,6.527,3.801
				c0,1.059-1.203,2.394-0.68,3.03c0.65,0.19,0.533,0.061,0.752,0.814C21.451,43.546,18.492,43.806,15.489,43.967L15.489,43.967z
				 M25.064,27.778c2.826-0.349,5.338-2.293,7.57-4.034c0.812-1.306,0.248-9.98-0.131-10.734c-1.521,1.784-2.523,1.638-5.02,0.812
				c0.174,1.059,2.25,1.029,3.264,1.262c-0.012,0.043-0.025,0.102-0.025,0.159c-1.047-0.043-1.945-0.319-2.846-0.362
				c2.439,4.497-0.812,2.93-3.295,3.844c-3.101-1.103-4.786-0.987-1.74-3.917c-1.335,0-2.364,0.319-3.67,0.13
				c0-0.072,0-0.13,0-0.189c0.798,0.029,3.294,0.247,3.861-0.42c-1.989,0.159-3.891,0.986-4.136-1.132
				c-0.681-0.479-0.552-0.493-0.406-1.161c-0.537-0.102-0.247-0.319-0.071-0.537c0.508-2.06,3.32-2.002,5.046-1.915
				c0.014-0.087,0.045-0.175,0.074-0.261c0.072-0.014,0.143-0.029,0.219-0.029c0.229,0.464,0.492,1.088,0.289,1.697
				c-1.858,0-3.395,0.682-5.079,1.06c-1.727,1.726,4.323-0.145,4.409-0.145c0.264,0.13,0.785,0.768,1.178,0.377
				c-0.016-0.117-0.016-0.232-0.016-0.349c0.057,0,0.117,0.014,0.188,0.029c0.609,0.987-2.725,4.105-3.262,4.671
				c0.041,0.508,0.97,1.653,1.624,1.001c-0.146-0.116-0.64-0.276-0.959-0.479c-0.041-0.29-0.026-0.203,0.03-0.319
				c0.943,0,1.06,0.494,1.801,1.364c1.477,0.812,2.158-1.814,3.756-0.899c0,0.072,0,0.145,0.014,0.217
				c-0.582,0.291-0.582,0.291-1.16,0.465c0,0.043,0,0.087,0,0.145c4.439,0.58-0.539-4.917-0.539-6.093c0.061,0,0.117,0,0.189,0.015
				c0.074,0.115,0.16,0.232,0.248,0.348c0.375,0,0.725-0.841,0.842-1.132c1.578-1.581,3.41,2.002,4.715,2.002
				c0.086-0.159,0.188-0.318,0.289-0.464c0.059,0.029,0.115,0.058,0.188,0.101c0.074-0.681-0.217-1.087-0.521-1.522
				c-0.32,0-0.26-0.029-0.434,0.145c-0.842,0-1.83-0.74-2.568-0.928c-0.521,0-2.322,0.319-2.395,0.276
				c-0.07-0.812,0.58-1.393,1-2.031c0.479-0.073,1.102-0.073,1.162-0.131c-0.785-0.551-1.422-0.914-2.131-1.306
				c-2.105-0.696-7.587,1.698-8.4,3.612c-0.669,2.408-1.278,4.903-2.12,7.398c-0.943,3.497-1.305,2.597,0.522,5.411
				c0.392-0.261,0.421-2.177,1.001-2.553c0.06,0.406-0.493,2.104-0.564,2.408c0,2.784,3.974-0.305,5.207-0.551
				c0.015,0.015,0.029,0.043,0.045,0.072c-1.004,1.161-2.959,1.481-4.309,1.93C18.39,26.733,23.439,27.662,25.064,27.778
				L25.064,27.778z M16.315,15.969c0.102-0.014,0.203-0.014,0.305-0.014c0.203-0.624,0.203-0.624,0.538-2.22
				c-1.35-0.087-1.132,1.015-1.132,2.147C16.113,15.91,16.214,15.939,16.315,15.969L16.315,15.969z M33.188,17.985
				c0.449-0.45,0.738-1.886-0.146-1.886C33.086,16.723,33.129,17.347,33.188,17.985L33.188,17.985z M33.289,19.77
				c3.088-0.435,1.145-4.686,0.535-6.021c-0.422,0.029-0.523,0.059-0.812,0.218c-0.041,0.392-0.041,0.392,0.029,1.117
				c0.117-0.131,0.234-0.247,0.35-0.363c0.203,0,0.549,0.319,0.549,0.696c-0.229,0-0.273-0.174-0.318-0.217
				c-0.102,0-0.203,0-0.289,0c-0.088,0.203-0.174,0.275-0.174,0.609C34.508,16.795,33.289,18.029,33.289,19.77L33.289,19.77z
				 M15.691,17.622c0.132-0.014,0.264-0.029,0.406-0.029c0.188-0.521,0.188-0.521,0.335-1.204c-0.072-0.072-0.072-0.072-0.726-0.333
				c-0.248-1.408,0.045-2.409,1.305-2.713c-0.057-0.42-0.129-0.377-0.305-0.609c-0.29,0.058-0.639,0.45-0.782,0.261
				c0.29-0.261,0.406-0.479,0.768-0.624c0.232,0.131,0.394,0.377,0.639,0.726c0.071-0.043,0.071-0.043,0.248-0.827
				c-0.48-0.362-0.726-0.479-1.177-0.479C15.676,12.806,12.777,16.65,15.691,17.622L15.691,17.622z M21.973,34.783
				c0.144-0.014,0.29-0.029,0.437-0.043c-0.132-0.58-0.03-0.958,0.071-1.379c-0.248-0.348-0.248-0.478-0.263-0.767
				c-1.55,0.346-3.03,0.58-4.554,0.521c0.072,0.246,0.26,0.58,0.463,1.219C19.116,34.695,20.785,34.695,21.973,34.783L21.973,34.783
				z M25.41,34.812c-0.346-0.522-0.26-0.579-0.289-1.059c0.582,0.087,1.217-0.043,1.928-0.015c0.131,0.276,0.248,0.435,0.162,0.886
				C26.703,34.871,25.846,34.797,25.41,34.812L25.41,34.812z M25.891,33.58c2.785,0,1.203-1.292-0.914-1.407
				c-0.131,0.435-0.09,0.638,0.129,1.188C25.369,33.435,25.629,33.508,25.891,33.58L25.891,33.58z M23.467,34.783
				c-0.203-0.014-0.392-0.029-0.58-0.043c-0.335-0.45-0.319-0.608-0.116-0.986c0.741,0,1.102-0.104,2.002-0.205
				c0.043,0.248,0.043,0.568,0.027,0.93C24.293,34.914,24.02,34.77,23.467,34.783L23.467,34.783z M23.568,33.623
				c0.35-0.029,0.711-0.087,1.029-0.406c-0.041-0.406-0.041-0.739,0.086-1.015c-0.752-0.029-1.624-0.029-2.161,0.333
				C22.583,33.203,22.771,33.318,23.568,33.623L23.568,33.623z M28.936,34.74c0.727,0,1.596,0.029,2.395-0.074
				c0.246-0.725,0.625-1.391,0.943-2.03c-0.725-0.116-2.916,0.393-3.773,0.406c-1.797-0.376-0.971,0.785-1.016,1.669
				C28.5,34.682,28.5,34.682,28.936,34.74z"/>
			<path i:knockout="Off" d="M25.41,29.416c-0.012-0.073-0.027-0.145-0.027-0.216c1.695-1.829,4.873-2.872,7.471-2.872
				c0.016,0.013,0.029,0.042,0.041,0.071c-1.203,1.204-4.684,0.784-6.525,2.104C26.211,28.705,25.715,29.416,25.41,29.416z"/>
			<path i:knockout="Off" d="M29.996,20.379c0-0.711,1.508-3.439,1.986-2.641c-0.971,0.855-1.438,1.088-1.666,2.524
				C30.199,20.291,30.098,20.334,29.996,20.379z"/>
			<path i:knockout="Off" d="M19.172,19.116c-0.361-1.856-0.202-1.784-1.552-2.568c-0.016-0.058-0.027-0.116-0.027-0.16
				c1.437,0,1.624,1.422,1.842,2.612C19.334,19.102,19.334,19.102,19.172,19.116z"/>
			<path i:knockout="Off" fill="#FFFFFF" d="M20.086,14.286c-0.943-0.146-0.827-0.421-0.869-1.088
				c0.943-0.058,2.437-0.595,3.481-0.87c-0.176,0.769,0.203,1.204,0.144,1.668C21.914,14.112,20.928,14.286,20.086,14.286z"/>
			<path i:knockout="Off" fill="#FFFFFF" d="M30.576,14.083c-0.857-0.145-1.711-0.275-2.553-0.406c0-0.826-0.291-1.755-0.203-2.35
				c1.363-0.45,2.521,1.479,3.801,2.118C31.707,14.141,31.17,14.025,30.576,14.083z"/>
			<path i:knockout="Off" d="M24.049,11.747c0.057-0.391,0.289-0.507,0.549-0.768c-0.041-0.61-0.26-1.146-0.305-1.596
				c0.061,0,0.117,0,0.189,0.014c0.176,0.42,0.348,1.001,0.404,1.582C24.672,11.24,24.309,11.704,24.049,11.747z"/>
			<path i:knockout="Off" d="M26.078,11.471c-0.594-0.594,0.305-1.842,0.58-2.262c0.146,0,0.146,0,0.203,0.072
				c-0.609,0.929-0.564,1.059-0.639,2.19C26.166,11.471,26.121,11.471,26.078,11.471z"/>
			<path i:knockout="Off" d="M25.5,10.673c-0.365-0.667,0.68-2.19,1.219-2.364c-0.305,0.87-0.914,1.349-1.076,2.422
				C25.586,10.703,25.541,10.688,25.5,10.673z"/>
			<path i:knockout="Off" d="M27.24,42.762c-0.219-0.449-0.203-0.624-0.219-0.941c0.057,0,0.117,0,0.174,0
				c0.045,0.216,0.102,0.447,0.158,0.681c0.41,0,1.131-0.262,1.48-0.145C28.473,42.719,27.658,42.762,27.24,42.762z"/>
			<path i:knockout="Off" d="M21.583,42.617c-0.582-0.102-0.959-0.29-1.061-0.74c0.248,0,0.669,0.45,1.35,0.45
				c0.319-0.232,0.421-0.624,0.869-0.552C22.41,42.095,22.03,42.617,21.583,42.617z"/>
			<path i:knockout="Off" d="M27.963,40.339c-1.043-0.522-1.072-1.059-0.723-2.116c0.057,0,0.113,0.013,0.174,0.028
				c0,1.972-0.275,0.885,0.984,1.93C28.182,40.339,28.182,40.339,27.963,40.339z"/>
			<path i:knockout="Off" d="M19.03,40.296c-0.03-0.087-0.045-0.175-0.06-0.262c1.319,0,1.409-0.624,1.74-1.812
				c0.045-0.016,0.087-0.03,0.146-0.03C20.741,39.324,20.349,40.296,19.03,40.296z"/>
			<path i:knockout="Off" fill="#B4956B" d="M26.557,7.395c0,0.015,0,0.029,0,0.029h0.061c0.562,1.03-1.35,3.887-1.438,3.844
				c-0.146,0.145,0.885,4.424,0.885,4.991c0.232,0.391-0.797,1.77-1.045,1.987c0.855-0.392,1.537-1.61,2.699-0.943
				c0,0.072,0,0.145,0.014,0.217c-0.582,0.291-0.582,0.291-1.16,0.465c0,0.043,0,0.087,0,0.145c4.887,0.638-1.654-6.34-0.35-6.078
				c0.074,0.115,0.16,0.232,0.248,0.348c0.375,0,0.725-0.841,0.842-1.132c0.361-0.363,0.752-0.449,1.131-0.363
				c0.016-0.086,0.016-0.174,0.016-0.261c-0.727,0.087-1.83,0.276-1.873,0.233c-0.07-0.812,0.58-1.393,1-2.031
				c0.479-0.073,1.102-0.073,1.162-0.131c-0.785-0.551-1.422-0.914-2.131-1.306C26.586,7.41,26.572,7.41,26.557,7.395L26.557,7.395z
				 M26.617,18.362c1.768-0.145,3.045-0.189,1.26-3.481c0.48,0.028,0.973,0.116,1.48,0.203c1.289,0.871,0.959,4.67-2.74,3.322
				V18.362L26.617,18.362z M29.17,14.837c-0.828-0.145-1.584-0.392-1.686-1.015c0.494,0.174,0.93,0.305,1.32,0.406
				C28.891,14.445,29.023,14.648,29.17,14.837z"/>
			<path i:knockout="Off" fill="#B4956B" d="M33.289,19.77c0-1.741,1.219-2.974-0.131-3.96c0-0.334,0.086-0.406,0.174-0.609
				c0.086,0,0.188,0,0.289,0c0.045,0.043,0.09,0.217,0.318,0.217c0-0.377-0.346-0.696-0.549-0.696
				c-0.115,0.116-0.232,0.232-0.35,0.363c-0.07-0.726-0.07-0.726-0.029-1.117c0.289-0.16,0.391-0.189,0.812-0.218
				C34.434,15.084,36.377,19.334,33.289,19.77z"/>
			<path i:knockout="Off" fill="#B4956B" d="M33.188,17.985c-0.059-0.639-0.102-1.263-0.146-1.886
				C33.926,16.099,33.637,17.535,33.188,17.985z"/>
			<path i:knockout="Off" fill="#B4956B" d="M30.285,14.402c0.031,0.203,0.057,0.421,0.088,0.624
				c0.131,0.014,0.26,0.043,0.375,0.058c-0.012,0.043-0.025,0.102-0.025,0.159c-0.102,0-0.203,0-0.305-0.014
				c0.012,0.072,0.025,0.13,0.041,0.203c0.668,2.234,1.029,4.526,0.594,6.861c-3,6.745-11.053,3.497-12.982,3.046
				c0.726,1.481,5.425,2.336,6.994,2.439c2.826-0.349,5.338-2.293,7.57-4.034c0.812-1.306,0.248-9.98-0.131-10.734
				C31.707,13.938,31.068,14.344,30.285,14.402z"/>
			<path i:knockout="Off" fill="#B4956B" d="M30.199,11.124c0,0.319,0,0.623,0,0.943c0.65,0.595,1.275,1.204,1.828,1.204
				c0.086-0.159,0.188-0.318,0.289-0.464c0.059,0.029,0.115,0.058,0.188,0.101c0.074-0.681-0.217-1.087-0.521-1.522
				c-0.32,0-0.26-0.029-0.434,0.145C31.113,11.529,30.646,11.341,30.199,11.124z"/>
			<path i:knockout="Off" d="M25.354,26.036c-0.289-0.479-0.057-1.015,0.146-1.363c0.172,0,0.33-0.045,0.609,0.086
				c0,0.276-0.32,0.203-0.467,0.203c-0.217,0.261-0.172,0.682-0.143,1.104C25.439,26.051,25.398,26.036,25.354,26.036z"/>
			<path i:knockout="Off" d="M21.827,25.833c0-0.378,0.38-0.754,0.669-0.987c0,0.377-0.289,0.639-0.45,0.973
				C21.973,25.819,21.902,25.819,21.827,25.833z"/>
			<path i:knockout="Off" d="M24.627,25.76c-0.145-0.696-0.203-1.16-0.232-1.783c0.061,0,0.117,0,0.188,0
				c0.162,0.827,0.162,0.827,0.264,1.741C24.773,25.79,24.773,25.79,24.627,25.76z"/>
			<path i:knockout="Off" d="M23.525,25.455c-0.172-0.346,0.016-1.247,0.145-1.436c0.045,0,0.102,0,0.16,0.015
				c0,0.218,0.072,1.132-0.115,1.421C23.643,25.455,23.582,25.455,23.525,25.455z"/>
			<path i:knockout="Off" d="M28.646,25.31c-0.857-0.318-2.613-1.218-2.424-2.205c0.928,1.088,2.846,3.148,4.164,1.06
				c0.031-0.624-0.451-1.771-0.391-1.887C31.098,22.41,30.951,25.31,28.646,25.31z"/>
			<path i:knockout="Off" d="M28.789,23.658c-2.273-3.278-2.871-1.075-5.8-2.321c-1.64,0-3.452,1.667-4.354,1.551
				c-0.012-0.057-0.026-0.115-0.026-0.158c1.334-0.885,3.335-3.38,4.668-3.569c1.742,1.494,0.93,0.594,3.148,0.203
				c1.018,0.667,2.338,2.887,2.582,4.178C28.834,23.686,28.834,23.686,28.789,23.658z"/>
			<path i:knockout="Off" fill="#B4956B" d="M20.101,21.932c0.827-0.741,1.929-1.842,2.843-2.482c0.625-0.087,0.8,0.668,1.48,0.828
				c0.189,0.057,1.711-0.581,2.002-0.668c0.146,0.42,0.582,0.725,0.826,1.044c0.334,0.421,1.451,2.03,1.365,2.365
				c-0.145-0.203-1.654-1.71-2.598-1.583c-0.621,0.088-1.291,0.075-1.639,0.015c-0.986-0.158-1.945-0.463-2.843-0.203
				C21.466,21.293,20.275,22.12,20.101,21.932z"/>
			<path i:knockout="Off" fill="#B4956B" d="M17.782,25.542c0.158,0.176,0.319,0.35,0.492,0.524
				c-0.029,0.043-0.045,0.086-0.057,0.145c-0.131-0.086-0.277-0.175-0.436-0.261C17.782,25.804,17.782,25.673,17.782,25.542z"/>
			<path i:knockout="Off" fill="#B4956B" d="M33.768,19.653c0.07-0.13,0.131-0.246,0.203-0.377c0.508-0.972,0.463-2.335,0.666-3.452
				C35.117,17.361,35.305,19.146,33.768,19.653z"/>
			<path i:knockout="Off" fill="#B4956B" d="M30.996,25.354c0.666-0.507,1.32-1.087,2-1.711c0.146-0.304,0.203-0.522,0.248-0.769
				c0.492,0.145,1,0.174,1.451,0.623c-0.172,0.379-0.262,0.48-0.305,0.973c0.812-1.176,1.58-1.771,3.004-2.162
				c1.885,0.086,0.768,0.726,1.639,2.393c0.129-1.871-0.045-3.336,0.564-5.077c0-1.03-0.578-1.77-0.578-2.321
				c0.578-0.581,0.549-0.653,0.463-1.45c-0.246-0.117-0.246-0.117-0.393-0.117c-0.014,0.015-0.029,0.043-0.043,0.073
				c1.48,2.582-5.121,0.827-1.682-3.003c0.318-0.218,0.623-0.406,0.898-0.537c1.379,0.987,2.41,2.191,2.41,4.105
				c1.361,1.276,2.262,9.385-2.365,9.372c-1.232,0.29-2.959-0.145-4.191-0.145c-0.496-0.493-2.121-0.35-2.861-0.35
				c0,0.102-0.203,0-0.203,0.102C31.041,25.354,31.012,25.354,30.996,25.354z"/>
			<path i:knockout="Off" fill="#B4956B" d="M18.593,32.826c-0.669-0.333-1.597,0.581-4.267-1.451
				c-0.128-0.16-0.244-0.318-0.361-0.479c-0.071-0.173-0.146-0.333-0.218-0.507c0.132,0.044,0.248,0.203,0.335,0.248
				c3.917,1.711,7.312,0.145,11.199-0.304c5.035,1.609,5.381,1.173,10.166-0.567c-0.057,0.116-0.113,0.248-0.158,0.364
				c-0.957,1.985-6.322,3.075-8.195,2.233C24.09,31.245,21.538,32.724,18.593,32.826L18.593,32.826z M21.973,34.783
				c0.144-0.014,0.29-0.029,0.437-0.043c-0.132-0.58-0.03-0.958,0.071-1.379c-0.248-0.348-0.248-0.478-0.263-0.767
				c-1.55,0.346-3.03,0.58-4.554,0.521c0.072,0.246,0.26,0.58,0.463,1.219C19.116,34.695,20.785,34.695,21.973,34.783L21.973,34.783
				z M25.41,34.812c-0.346-0.522-0.26-0.579-0.289-1.059c0.582,0.087,1.217-0.043,1.928-0.015c0.131,0.276,0.248,0.435,0.162,0.886
				C26.703,34.871,25.846,34.797,25.41,34.812L25.41,34.812z M25.891,33.58c2.785,0,1.203-1.292-0.914-1.407
				c-0.131,0.435-0.09,0.638,0.129,1.188C25.369,33.435,25.629,33.508,25.891,33.58L25.891,33.58z M23.467,34.783
				c-0.203-0.014-0.392-0.029-0.58-0.043c-0.335-0.45-0.319-0.608-0.116-0.986c0.741,0,1.102-0.104,2.002-0.205
				c0.043,0.248,0.043,0.568,0.027,0.93C24.293,34.914,24.02,34.77,23.467,34.783L23.467,34.783z M23.568,33.623
				c0.35-0.029,0.711-0.087,1.029-0.406c-0.041-0.406-0.041-0.739,0.086-1.015c-0.752-0.029-1.624-0.029-2.161,0.333
				C22.583,33.203,22.771,33.318,23.568,33.623L23.568,33.623z M28.936,34.74c0.727,0,1.596,0.029,2.395-0.074
				c0.246-0.725,0.625-1.391,0.943-2.03c-0.725-0.116-2.916,0.393-3.773,0.406c-1.797-0.376-0.971,0.785-1.016,1.669
				C28.5,34.682,28.5,34.682,28.936,34.74z"/>
		</g>
	</g>
</g>
</svg>
