<?xml version="1.0" encoding="utf-8"?>
<!-- Generator: Adobe Illustrator 12.0.0, SVG Export Plug-In . SVG Version: 6.00 Build 51448)  -->
<!DOCTYPE svg PUBLIC "-//W3C//DTD SVG 1.1//EN" "http://www.w3.org/Graphics/SVG/1.1/DTD/svg11.dtd" [
	<!ENTITY ns_flows "http://ns.adobe.com/Flows/1.0/">
	<!ENTITY ns_extend "http://ns.adobe.com/Extensibility/1.0/">
	<!ENTITY ns_ai "http://ns.adobe.com/AdobeIllustrator/10.0/">
	<!ENTITY ns_graphs "http://ns.adobe.com/Graphs/1.0/">
	<!ENTITY ns_vars "http://ns.adobe.com/Variables/1.0/">
	<!ENTITY ns_imrep "http://ns.adobe.com/ImageReplacement/1.0/">
	<!ENTITY ns_sfw "http://ns.adobe.com/SaveForWeb/1.0/">
	<!ENTITY ns_custom "http://ns.adobe.com/GenericCustomNamespace/1.0/">
	<!ENTITY ns_adobe_xpath "http://ns.adobe.com/XPath/1.0/">
	<!ENTITY ns_svg "http://www.w3.org/2000/svg">
	<!ENTITY ns_xlink "http://www.w3.org/1999/xlink">
]>
<svg  version="1.1"
	 xmlns:x="&ns_extend;" xmlns:i="&ns_ai;" xmlns:graph="&ns_graphs;" i:viewOrigin="-0.2363 65" i:rulerOrigin="0 0" i:pageBounds="0 65 45 0"
	 xmlns="&ns_svg;" xmlns:xlink="&ns_xlink;" xmlns:a="http://ns.adobe.com/AdobeSVGViewerExtensions/3.0/"
	 width="45.73" height="65.236" viewBox="0 0 45.73 65.236" overflow="visible" enable-background="new 0 0 45.73 65.236"
	 xml:space="preserve">
<metadata>
	<variableSets  xmlns="&ns_vars;">
		<variableSet  varSetName="binding1" locked="none">
			<variables></variables>
			<v:sampleDataSets  xmlns:v="&ns_vars;" xmlns="&ns_custom;"></v:sampleDataSets>
		</variableSet>
	</variableSets>
</metadata>
<g id="图层_1" i:layer="yes" i:dimmedPercent="50" i:rgbTrio="#4F008000FFFF">
	<g>
		<g i:knockout="Off">
			<path fill="#333333" d="M1.182,47.468v12.076c0,2.491,1.621,4.511,3.619,4.511h37.308c2.001,0,3.622-2.02,3.622-4.511l0,0V3.807
				C45.73,1.705,44.106,0,42.108,0H4.801C2.803,0,1.182,1.705,1.182,3.807l0,0v43.652C1.182,47.46,1.182,47.465,1.182,47.468z"/>
			
				<linearGradient id="XMLID_3_" gradientUnits="userSpaceOnUse" x1="-41.7017" y1="22.0122" x2="-41.7017" y2="82.7583" gradientTransform="matrix(1 0 0 -1 64.2148 87.0117)">
				<stop  offset="0.0393" style="stop-color:#0060B6"/>
				<stop  offset="0.0899" style="stop-color:#2089B9"/>
				<stop  offset="0.0985" style="stop-color:#4FA3C2"/>
				<stop  offset="0.1071" style="stop-color:#77B9CA"/>
				<stop  offset="0.1138" style="stop-color:#8FC7CF"/>
				<stop  offset="0.118" style="stop-color:#98CCD1"/>
				<stop  offset="0.1341" style="stop-color:#9ECFD3"/>
				<stop  offset="0.156" style="stop-color:#AFD6D9"/>
				<stop  offset="0.1809" style="stop-color:#CBE1E3"/>
				<stop  offset="0.1966" style="stop-color:#E1EAEB"/>
				<a:midPointStop  offset="0.0393" style="stop-color:#0060B6"/>
				<a:midPointStop  offset="0.5" style="stop-color:#0060B6"/>
				<a:midPointStop  offset="0.0899" style="stop-color:#2089B9"/>
				<a:midPointStop  offset="0.5" style="stop-color:#2089B9"/>
				<a:midPointStop  offset="0.0985" style="stop-color:#4FA3C2"/>
				<a:midPointStop  offset="0.5" style="stop-color:#4FA3C2"/>
				<a:midPointStop  offset="0.1071" style="stop-color:#77B9CA"/>
				<a:midPointStop  offset="0.5" style="stop-color:#77B9CA"/>
				<a:midPointStop  offset="0.1138" style="stop-color:#8FC7CF"/>
				<a:midPointStop  offset="0.5" style="stop-color:#8FC7CF"/>
				<a:midPointStop  offset="0.118" style="stop-color:#98CCD1"/>
				<a:midPointStop  offset="0.5" style="stop-color:#98CCD1"/>
				<a:midPointStop  offset="0.1341" style="stop-color:#9ECFD3"/>
				<a:midPointStop  offset="0.5" style="stop-color:#9ECFD3"/>
				<a:midPointStop  offset="0.156" style="stop-color:#AFD6D9"/>
				<a:midPointStop  offset="0.5" style="stop-color:#AFD6D9"/>
				<a:midPointStop  offset="0.1809" style="stop-color:#CBE1E3"/>
				<a:midPointStop  offset="0.5" style="stop-color:#CBE1E3"/>
				<a:midPointStop  offset="0.1966" style="stop-color:#E1EAEB"/>
			</linearGradient>
			<path fill="url(#XMLID_3_)" d="M44.787,60.488c0,2.492-1.624,4.512-3.619,4.512H3.857c-1.998,0-3.619-2.02-3.619-4.512V8.765
				c0-2.49,1.621-4.511,3.619-4.511h37.308c2.001,0,3.619,2.021,3.619,4.511v51.724H44.787z"/>
			<path fill="none" stroke="#333333" stroke-width="0.4727" d="M44.787,60.488c0,2.492-1.624,4.512-3.619,4.512H3.857
				c-1.998,0-3.619-2.02-3.619-4.512V8.765c0-2.49,1.621-4.511,3.619-4.511h37.308c2.001,0,3.619,2.021,3.619,4.511v51.724H44.787z"
				/>
			<path fill="#FFFFFF" d="M0.237,4.752c0-2.101,1.623-3.807,3.62-3.807h37.308c2.001,0,3.619,1.705,3.619,3.807v43.651
				c0,2.103-1.621,3.806-3.619,3.806H3.857c-1.999,0-3.62-1.703-3.62-3.807V4.752L0.237,4.752z"/>
			
				<linearGradient id="XMLID_4_" gradientUnits="userSpaceOnUse" x1="2.5527" y1="25.2324" x2="46.6455" y2="25.2324" gradientTransform="matrix(-1 0 0 1 47.1094 1.3447)">
				<stop  offset="0" style="stop-color:#A2D8E0"/>
				<stop  offset="0.0899" style="stop-color:#1878AD"/>
				<stop  offset="0.2135" style="stop-color:#194D91"/>
				<stop  offset="0.6404" style="stop-color:#2B90BD"/>
				<stop  offset="0.9438" style="stop-color:#82CBDE"/>
				<stop  offset="1" style="stop-color:#1A478D"/>
				<a:midPointStop  offset="0" style="stop-color:#A2D8E0"/>
				<a:midPointStop  offset="0.5" style="stop-color:#A2D8E0"/>
				<a:midPointStop  offset="0.0899" style="stop-color:#1878AD"/>
				<a:midPointStop  offset="0.5" style="stop-color:#1878AD"/>
				<a:midPointStop  offset="0.2135" style="stop-color:#194D91"/>
				<a:midPointStop  offset="0.5" style="stop-color:#194D91"/>
				<a:midPointStop  offset="0.6404" style="stop-color:#2B90BD"/>
				<a:midPointStop  offset="0.5" style="stop-color:#2B90BD"/>
				<a:midPointStop  offset="0.9438" style="stop-color:#82CBDE"/>
				<a:midPointStop  offset="0.5" style="stop-color:#82CBDE"/>
				<a:midPointStop  offset="1" style="stop-color:#1A478D"/>
			</linearGradient>
			<path i:isolated="yes" i:knockout="Off" opacity="0.1" fill="url(#XMLID_4_)" enable-background="new    " d="M0.464,4.752
				c0-2.101,1.602-3.807,3.579-3.807h36.934c1.977,0,3.58,1.705,3.58,3.807v43.651c0,2.103-1.604,3.806-3.58,3.806H4.042
				c-1.975,0-3.577-1.703-3.577-3.807L0.464,4.752L0.464,4.752z"/>
			<path fill="none" stroke="#4D4D4D" stroke-width="0.4727" d="M0.237,48.413v12.075C0.237,62.98,1.86,65,3.857,65h37.308
				c2.001,0,3.619-2.02,3.619-4.512V4.752c0-2.102-1.621-3.806-3.619-3.806H3.857c-1.998,0-3.62,1.705-3.62,3.806v43.651
				C0.235,48.406,0.237,48.409,0.237,48.413z"/>
		</g>
		<g>
			<path i:knockout="Off" d="M29.933,44.604c-1.556-0.291-1.475-1.33-2.024-2.281c0.493-1.623-1.051-2.55-1.442-4.082
				c-1.173-1.476-7.481-2.014-8.477-0.849c-0.179,1.206-0.199,2.347-0.122,3.69c1.756,0.391,1.621,2.962-0.257,2.771
				c-1.242-0.48-6.308-0.38-4.15-2.771c0.113-0.64,0.415-0.795,1.019-1.03c0.717-2.526,0.974-4.416,2.953-5.949
				c0.726-1.934-2.538-6.878-3.703-8.051c-1.689,0.155-3.063,1.332-3.063,3.063c0.682,0.425,1.98,1.096,0.938,1.991
				c0,4.07-7.715-0.493-3.533-2.583c0.604-2.931,1.912-4.875,4.562-6.052c0.057-0.098,0.123-0.188,0.191-0.277
				c-1.221-2.36-3.78-3.557-1.668-6.33c0.883-5.1,2.842-7.672,7.807-9.494c5.78-1.007,10.029,0.078,12.636,5.904
				c1.063,3.421,3.21,6.687-0.403,9.528c-0.244,0.29-0.884,1.621-0.827,2.033c2.786,1.645,5.034,3.547,6.163,6.777
				c3.275,2.359-2.46,4.909-3.019,2.137c-0.875-0.202-0.663-1.331-0.313-1.733c0.412-0.146,0.848-0.291,1.284-0.448
				c-0.27-2.259-2.84-3.076-4.551-3.076c-0.896,1.646-3.69,6.028-3.523,7.561c1.075,0.871,2.216,1.464,3.234,2.75
				c0.614,1.051,1.34,2.103,2.179,3.209c1.007,0.203,1.063,0.55,2.001,0.94C35.961,44.089,31.13,44.492,29.933,44.604z"/>
			<path i:knockout="Off" d="M28.377,39.158c-0.379-0.258-0.269-0.381-0.269-0.615c0.125-0.124,0.248-0.223,0.382-0.324
				c0.135,0.013,0.27,0.045,0.403,0.066C29.195,38.935,28.914,39.113,28.377,39.158z"/>
			<path i:knockout="Off" d="M16.413,38.107c-0.325-0.269-0.245-0.313-0.269-0.57c0.09-0.056,0.179-0.112,0.269-0.18
				c0.335,0.09,0.257,0.169,0.335,0.626C16.658,38.073,16.535,38.097,16.413,38.107z"/>
			<path i:knockout="Off" fill="#C98FC5" d="M14.98,43.038c-2.27-0.403-2.168-2.248-0.257-1.24c0.089,0,0.202,0,0.301,0
				c0.013-0.022,0.036-0.056,0.045-0.067c-0.412-0.212-0.814-0.403-1.229-0.604c0-0.146,0-0.146,0.089-0.382
				c0.785-0.322,2.016,0.224,2.696,0.828c-0.269,0.504-0.403,0.75-0.549,1.375C15.696,42.983,15.338,43.018,14.98,43.038z"/>
			<path i:knockout="Off" fill="#A1729D" d="M17.721,43.554c-3.812-1.555,2.081-3.289,0.974-0.527
				C18.336,43.363,18.157,43.475,17.721,43.554z"/>
			<path i:knockout="Off" fill="#C98FC5" d="M29.786,44.19c-0.982-0.358-1.206-0.692-0.916-1.609
				C31.285,41.519,33.032,44.19,29.786,44.19z"/>
			<path i:knockout="Off" fill="#A1729D" d="M31.822,43.854c-0.167-1.309-0.37-1.644-1.687-1.822
				c0.009-0.065,0.021-0.11,0.042-0.157c0.884-0.212,1.657-0.57,2.651-0.122c0,0.067,0,0.122,0.012,0.189
				c-0.347,0.146-0.537,0.18-0.717,0.426c0.269,0.267,1.621-0.984,1.824,0.615C33.558,43.955,32.674,43.766,31.822,43.854z"/>
			<path i:knockout="Off" fill="#C98FC5" d="M28.49,42.368c0-1.265-1.364-4.015-2.293-4.943c-1.556-0.559-2.627-0.57-4.138-0.704
				c-5.635-0.807-4.216,1.006-4.673,4.406c-0.729,0.491-1.756-0.504-2.583-0.749c0.392-1.835,0.893-3.77,1.944-5.278
				c2.081-1.666,0.817-2.314,0.48-4.44c0.504-0.033,1.018-0.057,1.531-0.078c0-0.057,0-0.113,0.024-0.157
				c-0.383-0.246-1.467-0.046-1.812-0.034c-0.236-0.403-0.313-0.581-0.347-0.86c1.141-0.248,1.141-0.248,2.09-0.337
				c-0.009-0.078-0.009-0.144-0.009-0.223c-0.896,0-1.678,0.268-2.383,0.268c-0.647-1.062-2.057-2.213-2.09-3.253
				c0.155,0,0.302,0,0.445,0.011c0-0.09,0-0.179,0-0.269c-2.123-0.491-4.517,1.421-4.517,3.591c0.391,0.213,1.498,0.537,1.498,1.252
				c-0.582,0.291-1.13,0.436-1.342-0.302c-0.067-0.012-0.124-0.012-0.179-0.012c-0.022,0.415-0.034,0.839-0.034,1.254
				c0.079,0,0.146,0,0.235,0.021c0.033-0.179,0.067-0.347,0.1-0.514c0.381,0.045,0.919,0.224,0.919,0.896
				c-2.271,1.71-5.816-1.881-3.065-3.077c0.839-2.393,1.812-5.748,4.897-6.071c2.146,3.13,6.542,8.318,10.949,7.525
				c3.03-1.9,4.105-3.802,5.792-6.24c1.242,0,4.852,3.825,5.658,4.965c0.505,1.363,0.415,1.521,1.433,2.54
				c0.86,2.158-1.836,1.923-2.854,1.923c-0.257-0.258-0.177-0.416-0.177-0.616c0.188-0.202,0.355-0.257,0.579-0.302
				c0.013,0.135,0.036,0.269,0.045,0.412c0.045-0.009,0.102-0.009,0.167-0.009c-0.021-0.415-0.077-0.761-0.212-1.075
				c-0.077-0.022-0.143-0.033-0.212-0.033c0,0.134,0.024,0.269,0.033,0.402c-0.188,0.201-0.692,0.168-0.827,0.168
				c-0.929-1.242,0.391-1.287,1.397-1.543c0-2.974-4.114-4.094-6.249-3.703c-0.024,0.069-0.033,0.157-0.033,0.247
				c0.221,0,0.559-0.157,0.803,0.091c-0.627,0.827-1.071,2.336-1.743,3.365c-0.514,0-1.254-0.458-1.646-0.525
				c0.024,0.334,0.884,0.424,1.355,0.815c-0.012,0.158-0.102,0.427-0.235,0.639c-0.57,0-1.107-0.347-1.409-0.257
				c0,0.065,0.023,0.122,0.032,0.2c0.37,0.135,0.75,0.269,1.12,0.403c-0.18,0.939-0.997,1.699-0.997,2.941
				c0.704,0.659,1.657,1.286,2.573,1.967c0.982,1.152,1.854,2.662,2.863,4.017C31.398,41.193,28.67,42.413,28.49,42.368z"/>
			<path i:knockout="Off" fill="#C98FC5" d="M23.134,30.056c-0.782,0-1.543,0.033-2.236-0.381c-2.281-1.554-4.061-3.154-5.873-5.021
				c-1.149-1.388-1.743-2.203-2.424-3.702c-1.958-2.214-2.395-2.516-1.042-5.021c0.717-7.436,9.348-12.513,16.024-8.174
				c2.773,2.248,3.58,3.747,4.272,7.426c1.923,2.662,1.132,4.562-1.129,6.586C29.374,24.15,26.051,29.832,23.134,30.056z"/>
			<path i:knockout="Off" d="M23,27.25c-0.582-0.269-1.007-0.615-1.389-0.929c0.012-0.024,0.024-0.057,0.045-0.068
				c0.505,0.113,0.875,0.75,1.747,0.75c0.367-0.424,0.367-0.424,0.447-0.604c0.099,0.012,0.221,0.033,0.221,0.281
				C23.591,27.181,23.546,27.25,23,27.25z"/>
			<path i:knockout="Off" d="M23,26.208c-0.09-0.11-2.27-1.632-2.338-1.642c-0.358,0.322-1.609,2.102-1.857,0.86
				c1.096,0.358,1.4-1.588,2.852-1.721c2.415,1.017,1.836-1.096,4.239,1.9c0.2,0.045,0.2,0.045,0.448,0
				c0,0.38-0.235,0.313-0.448,0.346c-0.806-0.939-0.806-0.939-1.039-1.296C24.331,24.655,23.94,25.985,23,26.208z"/>
			<path i:knockout="Off" d="M26.891,26.052c0-0.346,0.179-0.615,0.179-0.861c-0.313-0.267-0.379-0.336-0.424-0.56
				c0.537,0,0.848,0.874,0.469,1.399C27.036,26.03,26.959,26.041,26.891,26.052z"/>
			<path i:knockout="Off" fill="#FF6600" d="M23.102,25.951c-0.493-0.189-0.493-0.189-1.197-0.625
				c-0.013-0.079-0.024-0.134-0.024-0.202c0.729-0.134,1.12-0.134,1.914,0.067c0,0.045,0.012,0.089,0.021,0.145
				C23.749,25.437,23.269,26.052,23.102,25.951z"/>
			<path i:knockout="Off" d="M18.214,21.881c-2.93-0.247-4.094-1.287-6.175-2.952c-2.515-3.78,6.622-8.265,9.641-1.656
				C22.205,20.26,20.964,21.344,18.214,21.881z"/>
			<path i:knockout="Off" fill="#CCE70B" d="M17.317,21.625c-2.46-0.481-3.544-1.499-5.312-3.009
				c-1.565-6.351,12.403-5.938,8.925,1.946C19.488,21.413,18.886,21.625,17.317,21.625z"/>
			<path i:knockout="Off" d="M19.366,13.807c-1.634-1.331-2.541-0.75-4.195-0.75c-0.065-0.079-0.065-0.079-0.045-0.257
				c1.711-0.325,2.863-0.358,4.384,0.794c0,0.056,0,0.123,0.023,0.179C19.465,13.773,19.411,13.785,19.366,13.807z"/>
			<path i:knockout="Off" d="M21.949,33.836c-0.46-0.313-0.481-0.447-0.481-0.872C22.116,32.325,23.179,33.701,21.949,33.836z"/>
			<path i:knockout="Off" fill="#99CF16" d="M16.715,15.809c0.872,0,1.588,0.961,1.588,2.135c0,1.186-0.716,2.148-1.588,2.148
				c-0.884,0-1.601-0.963-1.601-2.148C15.114,16.771,15.831,15.809,16.715,15.809z"/>
			<path i:knockout="Off" fill="#FFFFCC" d="M16.682,16.591c0.38,0,0.681,0.302,0.681,0.682c0,0.381-0.301,0.693-0.681,0.693
				c-0.382,0-0.692-0.312-0.692-0.693C15.989,16.894,16.3,16.591,16.682,16.591z"/>
			<path i:knockout="Off" fill="#A3BA53" d="M17.317,21.625c-0.367-0.069-0.692-0.158-1.006-0.248
				c4.574-0.257,5.951-5.143-0.245-7.089c-0.122,0-0.212-0.01-0.28-0.045c3.287-0.324,7.169,1.733,5.145,6.319
				C19.488,21.413,18.886,21.625,17.317,21.625z"/>
			<path i:knockout="Off" fill="#A1729D" d="M23.134,30.056c-0.068-0.024-0.122-0.033-0.179-0.045v-0.044
				c1.946-2.171,1.598-1.656,2.472-3.635c0.123-0.593,3.455-10.388,2.481-10.388c-2.37-3.658-0.806-7.247-5.992-9.774
				c1.911-0.067,3.857,0.414,5.667,1.587c2.773,2.248,3.58,3.747,4.272,7.426c1.923,2.662,1.132,4.562-1.129,6.586
				C29.374,24.15,26.051,29.832,23.134,30.056z"/>
			<path i:knockout="Off" d="M26.846,21.323c-0.18-0.012-3.187-0.313-3.442-0.57c-2.921-12.167,14.896-6.61,6.473,0.123
				C28.804,21.132,27.786,21.278,26.846,21.323z"/>
			<path i:knockout="Off" fill="#CCE70B" d="M26.735,21.176c-3.288-0.424-3.557-0.089-3.323-3.813
				c0.26-4.875,6.936-4.395,8.288-1.129c0.367,0.895,0.065,1.958-0.549,3.276C29.843,20.964,28.557,21.087,26.735,21.176z"/>
			<path i:knockout="Off" fill="#99CF16" d="M27.407,15.898c0.88,0,1.597,0.961,1.597,2.136c0,1.185-0.717,2.146-1.597,2.146
				c-0.884,0-1.601-0.961-1.601-2.146C25.807,16.86,26.523,15.898,27.407,15.898z"/>
			<path i:knockout="Off" fill="#FFFFCC" d="M27.505,16.525c0.383,0,0.685,0.312,0.685,0.681c0,0.381-0.302,0.694-0.685,0.694
				c-0.379,0-0.692-0.313-0.692-0.694C26.812,16.837,27.126,16.525,27.505,16.525z"/>
			<path i:knockout="Off" fill="#A3BA2E" d="M27.114,13.751c1.878-0.09,3.902,0.839,4.586,2.482
				c0.367,0.895,0.065,1.958-0.549,3.276c-1.174,1.309-2.326,1.532-3.87,1.634C31.062,19.588,31.342,15.362,27.114,13.751z"/>
			<path i:knockout="Off" d="M23.749,13.986c0.392-1.107,1.968-1.946,3.198-1.71c-0.033,0.089-0.045,0.178-0.057,0.268
				C25,12.722,24.901,13.538,23.749,13.986z"/>
			<path i:knockout="Off" fill="#A1729D" d="M24.463,30.077c0.102,5.503-2.281,4.138,2.248,6.912
				c1.678,1.028,3.242,4.036,3.592,4.664c0.592-0.27,1.096-0.526,1.096-0.57c-1.009-1.354-1.881-2.864-2.863-4.017
				c-0.916-0.681-1.869-1.308-2.573-1.967c0-1.242,0.817-2.002,0.997-2.941c-0.37-0.134-0.75-0.269-1.12-0.403
				c-0.009-0.078-0.032-0.134-0.032-0.2c0.302-0.09,0.839,0.257,1.409,0.257c0.134-0.212,0.224-0.481,0.235-0.639
				c-0.472-0.391-1.331-0.481-1.355-0.815c0.392,0.067,1.132,0.525,1.646,0.525c0.672-1.029,1.116-2.538,1.743-3.365
				c-0.244-0.248-0.582-0.091-0.803-0.091c0-0.09,0.009-0.178,0.033-0.247c2.135-0.391,6.249,0.729,6.249,3.703
				c-1.007,0.257-2.326,0.301-1.397,1.543c0.135,0,0.639,0.033,0.827-0.168c-0.009-0.133-0.033-0.268-0.033-0.402
				c0.069,0,0.135,0.011,0.212,0.033c0.135,0.313,0.191,0.66,0.212,1.075c-0.065,0-0.122,0-0.167,0.009
				c-0.009-0.143-0.032-0.277-0.045-0.412c-0.224,0.045-0.391,0.1-0.579,0.302c0,0.2-0.08,0.358,0.177,0.616
				c1.018,0,3.714,0.234,2.854-1.923c-1.018-1.019-0.928-1.177-1.433-2.54c-0.807-1.141-4.416-4.965-5.658-4.965
				C28.312,26.398,27.248,28.244,24.463,30.077z"/>
			<path i:knockout="Off" fill="#A1729D" d="M21.534,36.653c-5.02-0.626-3.712,1.186-4.147,4.474
				c-0.236,0.168-0.517,0.168-0.794,0.09c-1.589-7.303,4.293-5.168,4.798-4.619h0.045h0.032L21.534,36.653z"/>
			<path i:knockout="Off" fill="#A1729D" d="M13.92,25.649c-1.89,0.033-3.758,1.755-3.758,3.668
				c0.391,0.213,1.498,0.537,1.498,1.252c-0.582,0.291-1.13,0.436-1.342-0.302c-0.067-0.012-0.124-0.012-0.179-0.012
				c-0.022,0.415-0.034,0.839-0.034,1.254c0.079,0,0.146,0,0.235,0.021c0.033-0.179,0.067-0.347,0.1-0.514
				c0.381,0.045,0.919,0.224,0.919,0.896c-0.304,0.233-0.64,0.368-0.974,0.424c-2.841-2.26-1.006-7.403,3.152-7.403
				c0,0.078,0.248,0.246,0.248,0.401C13.83,25.335,13.884,25.482,13.92,25.649z"/>
		</g>
	</g>
</g>
</svg>
