<?xml version="1.0" encoding="utf-8"?>
<!-- Generator: Adobe Illustrator 12.0.0, SVG Export Plug-In . SVG Version: 6.00 Build 51448)  -->
<!DOCTYPE svg PUBLIC "-//W3C//DTD SVG 1.1//EN" "http://www.w3.org/Graphics/SVG/1.1/DTD/svg11.dtd" [
	<!ENTITY ns_flows "http://ns.adobe.com/Flows/1.0/">
	<!ENTITY ns_extend "http://ns.adobe.com/Extensibility/1.0/">
	<!ENTITY ns_ai "http://ns.adobe.com/AdobeIllustrator/10.0/">
	<!ENTITY ns_graphs "http://ns.adobe.com/Graphs/1.0/">
	<!ENTITY ns_vars "http://ns.adobe.com/Variables/1.0/">
	<!ENTITY ns_imrep "http://ns.adobe.com/ImageReplacement/1.0/">
	<!ENTITY ns_sfw "http://ns.adobe.com/SaveForWeb/1.0/">
	<!ENTITY ns_custom "http://ns.adobe.com/GenericCustomNamespace/1.0/">
	<!ENTITY ns_adobe_xpath "http://ns.adobe.com/XPath/1.0/">
	<!ENTITY ns_svg "http://www.w3.org/2000/svg">
	<!ENTITY ns_xlink "http://www.w3.org/1999/xlink">
]>
<svg  version="1.1"
	 xmlns:x="&ns_extend;" xmlns:i="&ns_ai;" xmlns:graph="&ns_graphs;" i:viewOrigin="-0.2363 65" i:rulerOrigin="0 0" i:pageBounds="0 65 45 0"
	 xmlns="&ns_svg;" xmlns:xlink="&ns_xlink;" xmlns:a="http://ns.adobe.com/AdobeSVGViewerExtensions/3.0/"
	 width="45.73" height="65.236" viewBox="0 0 45.73 65.236" overflow="visible" enable-background="new 0 0 45.73 65.236"
	 xml:space="preserve">
<metadata>
	<variableSets  xmlns="&ns_vars;">
		<variableSet  varSetName="binding1" locked="none">
			<variables></variables>
			<v:sampleDataSets  xmlns:v="&ns_vars;" xmlns="&ns_custom;"></v:sampleDataSets>
		</variableSet>
	</variableSets>
</metadata>
<g id="图层_1" i:layer="yes" i:dimmedPercent="50" i:rgbTrio="#4F008000FFFF">
	<g>
		<g i:knockout="Off">
			<path fill="#333333" d="M1.181,47.468v12.076c0,2.491,1.623,4.511,3.621,4.511h37.308c2,0,3.621-2.02,3.621-4.511h-0.002V3.807
				C45.729,1.705,44.107,0,42.109,0H4.802C2.803,0,1.183,1.705,1.183,3.807H1.18v43.652C1.18,47.46,1.181,47.465,1.181,47.468z"/>
			
				<linearGradient id="XMLID_3_" gradientUnits="userSpaceOnUse" x1="-41.7036" y1="22.0122" x2="-41.7036" y2="82.7583" gradientTransform="matrix(1 0 0 -1 64.2148 87.0117)">
				<stop  offset="0.0393" style="stop-color:#0060B6"/>
				<stop  offset="0.0899" style="stop-color:#2089B9"/>
				<stop  offset="0.0985" style="stop-color:#4FA3C2"/>
				<stop  offset="0.1071" style="stop-color:#77B9CA"/>
				<stop  offset="0.1138" style="stop-color:#8FC7CF"/>
				<stop  offset="0.118" style="stop-color:#98CCD1"/>
				<stop  offset="0.1341" style="stop-color:#9ECFD3"/>
				<stop  offset="0.156" style="stop-color:#AFD6D9"/>
				<stop  offset="0.1809" style="stop-color:#CBE1E3"/>
				<stop  offset="0.1966" style="stop-color:#E1EAEB"/>
				<a:midPointStop  offset="0.0393" style="stop-color:#0060B6"/>
				<a:midPointStop  offset="0.5" style="stop-color:#0060B6"/>
				<a:midPointStop  offset="0.0899" style="stop-color:#2089B9"/>
				<a:midPointStop  offset="0.5" style="stop-color:#2089B9"/>
				<a:midPointStop  offset="0.0985" style="stop-color:#4FA3C2"/>
				<a:midPointStop  offset="0.5" style="stop-color:#4FA3C2"/>
				<a:midPointStop  offset="0.1071" style="stop-color:#77B9CA"/>
				<a:midPointStop  offset="0.5" style="stop-color:#77B9CA"/>
				<a:midPointStop  offset="0.1138" style="stop-color:#8FC7CF"/>
				<a:midPointStop  offset="0.5" style="stop-color:#8FC7CF"/>
				<a:midPointStop  offset="0.118" style="stop-color:#98CCD1"/>
				<a:midPointStop  offset="0.5" style="stop-color:#98CCD1"/>
				<a:midPointStop  offset="0.1341" style="stop-color:#9ECFD3"/>
				<a:midPointStop  offset="0.5" style="stop-color:#9ECFD3"/>
				<a:midPointStop  offset="0.156" style="stop-color:#AFD6D9"/>
				<a:midPointStop  offset="0.5" style="stop-color:#AFD6D9"/>
				<a:midPointStop  offset="0.1809" style="stop-color:#CBE1E3"/>
				<a:midPointStop  offset="0.5" style="stop-color:#CBE1E3"/>
				<a:midPointStop  offset="0.1966" style="stop-color:#E1EAEB"/>
			</linearGradient>
			<path fill="url(#XMLID_3_)" d="M44.785,60.488c0,2.492-1.621,4.512-3.619,4.512H3.856c-1.999,0-3.62-2.02-3.62-4.512V8.765
				c0-2.49,1.624-4.511,3.62-4.511h37.31c1.998,0,3.619,2.021,3.619,4.511V60.488L44.785,60.488z"/>
			<path fill="none" stroke="#333333" stroke-width="0.4727" d="M44.785,60.488c0,2.492-1.621,4.512-3.619,4.512H3.856
				c-1.999,0-3.62-2.02-3.62-4.512V8.765c0-2.49,1.624-4.511,3.62-4.511h37.31c1.998,0,3.619,2.021,3.619,4.511V60.488
				L44.785,60.488z"/>
			<path fill="#FFFFFF" d="M0.236,4.752c0-2.101,1.621-3.807,3.619-3.807h37.307c2.002,0,3.623,1.705,3.623,3.807v43.651
				c0,2.103-1.625,3.806-3.623,3.806H3.855c-1.998,0-3.619-1.703-3.619-3.807V4.752L0.236,4.752z"/>
			
				<linearGradient id="XMLID_4_" gradientUnits="userSpaceOnUse" x1="2.5508" y1="25.2324" x2="46.6465" y2="25.2324" gradientTransform="matrix(-1 0 0 1 47.1094 1.3447)">
				<stop  offset="0" style="stop-color:#A2D8E0"/>
				<stop  offset="0.0899" style="stop-color:#1878AD"/>
				<stop  offset="0.2135" style="stop-color:#194D91"/>
				<stop  offset="0.6404" style="stop-color:#2B90BD"/>
				<stop  offset="0.9438" style="stop-color:#82CBDE"/>
				<stop  offset="1" style="stop-color:#1A478D"/>
				<a:midPointStop  offset="0" style="stop-color:#A2D8E0"/>
				<a:midPointStop  offset="0.5" style="stop-color:#A2D8E0"/>
				<a:midPointStop  offset="0.0899" style="stop-color:#1878AD"/>
				<a:midPointStop  offset="0.5" style="stop-color:#1878AD"/>
				<a:midPointStop  offset="0.2135" style="stop-color:#194D91"/>
				<a:midPointStop  offset="0.5" style="stop-color:#194D91"/>
				<a:midPointStop  offset="0.6404" style="stop-color:#2B90BD"/>
				<a:midPointStop  offset="0.5" style="stop-color:#2B90BD"/>
				<a:midPointStop  offset="0.9438" style="stop-color:#82CBDE"/>
				<a:midPointStop  offset="0.5" style="stop-color:#82CBDE"/>
				<a:midPointStop  offset="1" style="stop-color:#1A478D"/>
			</linearGradient>
			<path i:isolated="yes" i:knockout="Off" opacity="0.1" fill="url(#XMLID_4_)" enable-background="new    " d="M0.463,4.752
				c0-2.101,1.603-3.807,3.578-3.807h36.937c1.977,0,3.58,1.705,3.58,3.807v43.651c0,2.103-1.604,3.806-3.58,3.806H4.043
				c-1.977,0-3.58-1.703-3.58-3.807V4.752L0.463,4.752z"/>
			<path fill="none" stroke="#4D4D4D" stroke-width="0.4727" d="M0.236,48.413v12.075C0.236,62.98,1.857,65,3.855,65h37.311
				c1.998,0,3.619-2.02,3.619-4.512V4.752c0-2.102-1.625-3.806-3.623-3.806H3.856c-1.999,0-3.62,1.705-3.62,3.806v43.651
				C0.236,48.406,0.236,48.409,0.236,48.413z"/>
		</g>
		<g>
			<path i:knockout="Off" d="M11.437,44.604c-1.022-0.124-4.965,0.097-3.338-1.903c1.158-0.69,3.585-1.186,4.26-2.439
				c-1.571-2.512,0.457-5.02,1.353-7.626c1.281-4.508,1.281-4.508,1.27-4.632c-4.357-0.911-1.738-3.393-1.738-6.081
				c-2.11-1.711-1.364-3.917-0.525-6.026c-0.522,0.207-1.006,0.62-1.46,0.662c-0.801-1.159,1.779-3.282,2.111-4.109
				c-1.036-0.193-4.124,0.248-4.471,0c-0.054-0.882,3.93-2.827,4.813-3.171c0-0.731-1.048-1.82-0.441-2.274
				c3.49,0.523,1.959,1.53,5.198-0.966c0.057,0.014,0.11,0.027,0.179,0.042c0.138,0.248,0.595,1.489,0.69,1.544
				c0.772-0.428,5.061-2.427,5.403-1.186C24.551,6.99,24.551,6.99,24.535,7.21c1.463-0.29,3.406-0.703,5.008-0.304
				c0,0.097,0.012,0.193,0.025,0.304c-0.234,0.248-0.689,0.538-0.621,0.855c1.049,0.234,5.752-0.814,5.861,0.166
				c-0.441,0.413-0.869,0.827-1.299,1.241c0,0.042,0.016,0.083,0.031,0.138c1.211,0.414,2.426,0.827,3.654,1.24
				c0,1.062-1.658,2.124-1.795,3.448c0.58,0.621,1.338,1.269,2.275,1.765c1.752,0.58,1.959,0.441,1.959,0.896
				c-0.676,0.51-1.711,0.634-2.439,1.062c0.205,1.502,3.213,1.309,3.818,2.523c-0.441,0.676-1.723,1.338-2.316,1.723
				c-0.016,0.07-0.027,0.139-0.027,0.208c0.191,0.166,1.529,1.104,1.406,1.627c-3.09-0.387-3.365,0.221-6.262,1.793
				c-0.73,0.11-1.379-0.373-2.012-0.484c0,1.696-0.453,1.793,0.73,3.42c1.723-0.276,3.541-2.965,5.062-3.723
				c0.59,0,4.936-0.193,4.936,0.855c-1.711,3.613-2.387,3.887-6,4.384c-0.855,0.482-1.752,1.09-2.48,1.656
				c0,3.019-2.428,2.108-3.297,4.631c0,1.228,1.654,3.544,0.881,4.315c0,0.951,7.035,3.021,0.305,3.655
				c-1.984-0.098-2.537-0.192-3.998-0.276c-2.096-0.427-2.537-0.15-2.469-2.275c-1.117-1.116-3.018,0.484-4.108,0.484
				c-1.144-0.387-1.628-0.4-2.718-0.208c-0.026,1.214,0.209,1.778-0.964,2.041C15.614,44.37,13.437,44.522,11.437,44.604z"/>
			<path i:knockout="Off" fill="#B59E42" d="M14.333,41.405c-0.152-0.522-0.137-0.896-0.125-1.323
				c1.615-1.187,3.021-2.138,4.908-2.896c0.126,0.882,0.896,0.924,1.021,1.421c-1.033,0.729-1.033,0.729-1.723,1.144
				c-1.326-0.759-3.007-0.124-3.007,1.475C14.966,41.394,14.718,41.434,14.333,41.405z"/>
			<path i:knockout="Off" fill="#FFD126" d="M15.712,41.089c0.026-1.048,1.46-1.862,2.344-1.159
				c-1.021,0.717-1.296-0.247-1.836,1.033C16.041,41.005,15.876,41.047,15.712,41.089z"/>
			<path i:knockout="Off" fill="#B59E42" d="M23.982,36.552c-0.439-0.372-1.323-0.924-1.239-1.435
				c2.756-1.682,4.151,0.926,5.473-3.198c0.51-0.248,1.654-1.075,2.207-0.993c0.305,0.814,0.867,0.841,1.654,0.482
				c0.068,0.069,0.014,0.275-0.027,0.484c-0.773,0.082-0.842-0.194-1.27,0.48c-0.193,0-0.373,0-0.553,0
				c-0.148,0.152-0.205,0.263-0.301,0.484c-0.773,0.082-0.689,0.385-0.689,1.103C27.953,34.842,25.488,36.207,23.982,36.552
				L23.982,36.552z M25.5,33.615c0.498,0,1.021-0.125,1.242-0.758c-0.428-0.083-0.938,0.4-1.311,0.606
				C25.445,33.6,25.445,33.6,25.5,33.615L25.5,33.615z M31.154,31.367c0.732,0,0.91-0.15,1.117-0.854
				C32.064,28.583,29.732,30.375,31.154,31.367L31.154,31.367z M32.299,31.313c-0.027-0.028-0.055-0.057-0.084-0.083
				c0.166-0.206,0.25-0.427,0.318-0.648c0.039,0,0.082,0.014,0.139,0.027c0.096,0.194,0.191,0.387,0.289,0.594
				C32.74,31.229,32.52,31.271,32.299,31.313z"/>
			<path i:knockout="Off" fill="#FFD126" d="M25.404,34.347c-0.496-0.083-0.496-0.083-0.828-0.194c0-0.068,0-0.137,0-0.192
				c0.139-0.082,0.275-0.165,0.416-0.249c1.682,0.607,1.529-0.881,2.756-1.489C27.664,33.726,26.811,34.347,25.404,34.347z"/>
			<path i:knockout="Off" fill="#987B37" d="M34.188,31.229c-0.262-0.593-0.525-1.185-0.785-1.765
				c0.648,0.263,1.225,0.496,1.75,1.227C35.057,30.83,34.283,31.229,34.188,31.229z"/>
			<path i:knockout="Off" fill="#987B37" d="M35.389,30.444c-0.814-0.813-0.762-0.773-0.926-1.724
				c0.373,0.139,1.213,0.979,1.213,1.572C35.58,30.388,35.469,30.444,35.389,30.444z"/>
			<path i:knockout="Off" fill="#987B37" d="M36.021,29.934c-0.469-0.663-0.922-1.213-1.406-1.627c0-0.069,0-0.124,0-0.179
				c1.006-0.896,1.75,0.606,1.75,1.696C36.227,29.96,36.105,29.919,36.021,29.934L36.021,29.934z M33.637,31.643
				c-0.275-0.455-1.27-1.847-1.201-2.165c0.193-0.042,0.332-0.139,0.51-0.139c0.332,0.58,0.842,1.326,0.938,2.195
				C33.678,31.671,33.678,31.671,33.637,31.643z"/>
			<path i:knockout="Off" fill="#999999" d="M36.711,29.754c-0.193-0.896-0.926-1.751-0.994-2.221
				c2.416-2.218,2.801-2.495,6.262-1.57C41.219,28.749,39.303,29.671,36.711,29.754z"/>
			<path i:knockout="Off" fill="#987B37" d="M34.09,29.437c-0.344-0.206-0.619-0.276-0.619-0.482
				c0.539-0.345,0.539-0.345,0.676-0.372c0.027,0.276,0.068,0.551,0.109,0.827C34.199,29.41,34.146,29.423,34.09,29.437z"/>
			<path i:knockout="Off" fill="#66663D" d="M15.393,28.68c0.057-0.276,0.057-0.276,0.331-0.787
				c0.305-0.069,0.305-0.069,0.717-0.041C16.167,28.03,15.533,28.638,15.393,28.68L15.393,28.68z M23.529,34.264
				c-0.359-0.359-0.538-0.359-0.881-0.469c-2.773-1.38-2.248-4.813-4.771-5.999c3.488-0.013,3.488-0.013,5.101,0.057
				c0.937,2.592,1.201,2.426,3.697,4.549c0,0.028,0,0.055,0,0.097C25.68,33.021,24.535,33.752,23.529,34.264L23.529,34.264z
				 M17.367,42.301c-0.442-0.344-0.938-0.702-1.021-1.116c1.406-0.759,2.759-1.571,4.066-2.481c1.078,0,3.711-0.621,3.959-1.985
				c0.289-0.124,3.762-2.041,4.439-2.041c0.289,0.317,1.322,1.076,1.529,1.545c-0.26,1.64,1.062,2.923,1.062,4.272
				c-0.469,0.373-0.814,0-1.254,0.057c-1.49,0.69-0.814,0.275-2.484,0.275c-2.688,1.793-2.26-0.18-4.741,0.786
				c-1.863,1.117-2.661-0.551-4.593,0.276C18.262,42.179,17.573,42.301,17.367,42.301L17.367,42.301z M12.679,39.957
				c0.633-0.082,0.77-0.881,1.376-0.274c0.705-0.069,1.517-1.049,2.206-1.518c1.117-0.234,1.849-0.469,2.732-1.353
				c0-0.688-1.174-1.585-1.475-1.928c-1.021-1.464-2.222-3.808-2.222-5.517c-0.054,0-0.096,0-0.138,0
				c-0.979,2.992-1.958,5.998-2.923,9.003C12.195,39.13,12.251,39.172,12.679,39.957z"/>
			<path i:knockout="Off" fill="#999999" d="M22.329,27.548c-0.771-0.015-5.998,0.276-7.362-0.111c0-1.6,0.938-5.171,2.854-5.171
				c2.523,1.738,1.974,1.917,5.378,0.084c1.517-0.166,4.386,3.487,4.386,5.046C27.295,27.686,22.717,27.548,22.329,27.548z"/>
			<path i:knockout="Off" d="M22.977,26.348c-0.439-0.027-7.79,0.084-5.652-1.696c0.564-0.233,9.265-1.323,7.005,1.448
				C23.846,26.334,23.434,26.321,22.977,26.348z"/>
			<path i:knockout="Off" fill="#FF9900" d="M22.648,26.073c-1.448-0.125-4.413,0.095-5.351-0.606c0-1.284,4.288-0.828,5.488-0.952
				C24.562,24.598,25.377,25.907,22.648,26.073z"/>
			<path i:knockout="Off" d="M23.254,25.48c-1.917-0.208-3.49-0.139-5.24-0.042C18,25.37,17.988,25.3,17.988,25.231
				c1.28-0.537,4.093-0.29,5.487-0.027c0.012,0.056,0.039,0.111,0.068,0.166C23.404,25.467,23.404,25.467,23.254,25.48z"/>
			<path i:knockout="Off" fill="#666666" d="M33.402,25.342c-0.646-0.234-1.295-0.522-1.793-0.731
				c-0.07-0.854-0.07-0.854-0.043-2.455c3.09-0.509,3.641-3.722,2.275-6.162c-2.867-2.427-3.213,2.15-3.557,4.012
				c-2.812-0.276-1.131-2.827-1.268-4.84c-0.443-0.441-1.793-1.917-2.139-1.917c-0.73,1.034-0.73,1.034-1.418,2.165
				c-0.898-0.221-1.49-2.055-2.127-1.931c-0.826,0.704-1.516,1.489-2.245,2.275c-0.029-0.634,0.013-2.344-0.042-2.716
				c-0.083-0.013-0.167-0.013-0.235-0.013c-0.854,0.841-2.149,2.165-3.087,2.729c-0.084-1.214,0.331-2.468,0.289-3.558
				c-1.863,0.374-4.397,3.351-6.303,3.613c0-0.703,1.875-3.006,2.415-3.405c0-0.068,0.013-0.125,0.027-0.18
				c-1.559-0.44-2.869-0.44-4.33-0.137c0-0.056,0-0.097,0-0.138c1.075-0.772,2.192-1.406,3.404-2.013
				c1.006-0.275,1.006-0.275,1.078-0.331c-0.042-0.276-0.595-1.655-0.663-1.986c1.38,0.344,1.559,0.441,2.386,0.662
				c0.441-0.318,2.013-1.655,2.481-1.655c0.152,0.469,0.305,0.938,0.469,1.407c1.158,0,3.35-1.393,5.144-1.489
				c0.08,0.331-0.125,0.676-0.168,1.076c0.043,0.028,0.084,0.069,0.127,0.11c1.584-0.138,3.061-0.689,4.797-0.469
				c0,0.042,0,0.083,0,0.138c-0.357,0.304-0.646,0.414-0.646,0.911c1.516,0.51,3.998,0.068,5.721,0
				c-0.07,0.316-0.84,0.923-1.076,1.158c0.016,0.096,0.027,0.207,0.043,0.317c0.854,0.345,2.053,0.704,3.707,1.283
				c0,0.896-1.916,2.109-1.775,3.227c1.102,1.351,1.914,1.82,3.609,2.537c-1.475,0.744-1.654,0.883-1.93,0.993
				c0,1.461,2.398,2.248,3.586,2.716c0,0.042,0,0.083,0.012,0.137c-0.785,0.539-1.57,1.077-2.344,1.614
				c0,0.429,0.4,0.608,0.912,0.909c-0.732,0.208-1.449,0.415-2.166,0.621C35.689,24.267,34.283,25.231,33.402,25.342z"/>
			<path i:knockout="Off" fill="#FFFFFF" d="M24.852,18.448c-1.238-0.221-2.493-0.47-2.755-1.669
				c0.316-0.055,0.633-0.11,0.964-0.165c0.663,0.993,1.143,0.399,1.655-0.442c1.006-0.206,2.053-0.455,3.129-0.62
				C28.963,17.427,25.93,18.448,24.852,18.448z"/>
			<path i:knockout="Off" fill="#FFFFFF" d="M16.635,18.213c-1.971-0.427-2.001-1.723-1.891-3.378
				c0.042-0.014,0.084-0.014,0.141-0.014c0.495,0.4,0.771,2.51,1.833,1.6c0.233,0,1.502,0.676,1.586,1.048
				C17.725,18.117,17.462,18.062,16.635,18.213z"/>
			<path i:knockout="Off" d="M21.089,17.248c-0.773-0.275-0.704-0.868-0.814-1.434c0.125-0.013,0.51,0.855,1.021,1.241
				C21.295,17.234,21.2,17.248,21.089,17.248z"/>
			<path i:knockout="Off" fill="#FFFFFF" d="M23.709,16.834c-0.223-0.179-0.234-0.179-0.234-0.331
				c0.139-0.083,0.139-0.083,0.881-0.193C24.246,16.655,24.055,16.834,23.709,16.834z"/>
			<path i:knockout="Off" fill="#FDCC8A" d="M22.096,16.476c-1.917-0.317,0.579-2.178,1.201-2.716c0.357,0,1.363,1.447,1.887,1.93
				C24.852,16.021,22.729,16.38,22.096,16.476L22.096,16.476z M13.959,21.797c-2.854-0.469-1.392-6.355,0.469-7.045
				c0,2.275,0.469,4.302,3.49,3.488C17.367,20.35,16.414,21.797,13.959,21.797L13.959,21.797z M14.375,27.369
				c0.081-0.014,0.164-0.027,0.248-0.027c0-1.89,1.018-4.565,2.744-5.309c0-0.331-0.457-0.4-0.457-0.938
				c-0.896,0.083-1.917,0.95-3.061,1.006C13.064,23.812,11.89,26.569,14.375,27.369L14.375,27.369z M19.752,23.371
				c0.812,0,3.033-0.994,3.833-1.585c-0.141-1.958-1.41-4.083-2.401-5.571c-0.125,0-0.248,0-0.373,0
				c-0.027-0.262,0.068-2.427,0.042-2.841c-1.392,0.346-2.344,2.703-3.446,2.855c0.027-1.269,0.149-2.387,0.275-3.503
				c-0.923,0.263-1.891,1.09-2.729,1.613c0,0.056,0,0.11,0,0.18c0.785,0.621,2.714,2.44,3.792,2.551
				c0.206-0.4,0.26-1.282,0.55-1.268c0.221,0.938-0.785,1.709-1.171,2.633C16.76,22.075,16.76,21.067,19.752,23.371L19.752,23.371z
				 M27.885,27.479c1.037-0.027,2.084-0.055,3.133-0.069c0.508-0.51,0.369-4.977,0.137-5.335c-0.277-0.069-0.357-0.069-0.414-0.29
				c0.994,0.069,2.016,0.123,2.826-0.69c2.828-4.357-2.549-7.819-2.549-3.406c0.332-0.249,1.928-1.118,2.107-0.18
				c-0.51-0.041-1.834-0.22-1.834,0.511c2.219,0.634,0.596,3.308-0.316,2.702c1.076-0.854,2.123-2.289-0.137-2.427
				c-0.057,0.317-0.193,1.848-0.373,2.124c-1.201-0.318-1.201-0.318-1.518-0.358c-0.014,0.082-0.025,0.166-0.025,0.248
				c1.307,0.248,1.307,0.248,1.363,0.318c-0.057,0.054-0.096,0.111-0.137,0.165c-0.416,0-0.416,0-1.379-0.138
				c-0.027,0.042-0.057,0.084-0.084,0.125c0,0.069,0.016,0.137,0.027,0.218c0.318,0.042,1.268,0.07,1.516,0.319
				c-0.025,0.04-0.053,0.082-0.08,0.123c-0.594,0.11-1.311-0.138-1.752-0.193c-1.697,1.53-2.592,0.869-4.51,0.469
				c-0.068,0.07-0.068,0.07-0.109,0.387C25.488,23.095,27.721,25.204,27.885,27.479L27.885,27.479z M26.189,21.937
				c2.91,0,2.289-2.331,2.359-4.33c0.357-2.716,0.441-2.179-1.533-3.985c-0.398,0.097-1.295,1.627-1.295,2
				c0.73-0.138,1.764-0.524,2.537-0.373c-0.854,3.75-2,3.792-5.556,2.951C23.625,20.709,23.309,21.675,26.189,21.937L26.189,21.937z
				 M29.459,34.953c-0.207-0.208-0.4-0.358-0.4-0.524c0.123-0.082,0.123-0.082,0.301-0.097c0.043,0.166,0.1,0.331,0.152,0.51
				C29.486,34.869,29.471,34.911,29.459,34.953L29.459,34.953z M30.424,35.863c-0.195-0.179-0.373-0.358-0.553-0.525
				c0.193,0,0.4,0.084,0.73,0.098C30.533,35.849,30.465,35.903,30.424,35.863L30.424,35.863z M30.465,35.132
				c1.006,0,3.186-1.269,3.186-2.496c-0.895-2.302-0.938-0.345-2.084-0.496c-0.689,0.137-1.307,1.034-1.998,1.09
				C29.223,33.684,29.719,34.994,30.465,35.132L30.465,35.132z M26.979,32.236c-1.807-1.42-3.381-2.302-3.682-4.482
				c3.682,0.029,3.682,0.029,7.816-0.027c0.385,0.442,0.842,0.938,1.074,1.641c-1.654,0-1.475,1.227-2.275,1.337
				c-0.121-0.607-0.469-2.302-0.826-2.483c-0.027,0.015-0.055,0.029-0.068,0.042c0.109,0.787,0.537,1.614,0.635,2.62
				C29.113,31.174,27.447,32.236,26.979,32.236L26.979,32.236z M21.089,38.539c0.633-0.194,3.034-0.953,3.034-1.727
				c-0.084,0.016-0.168,0.028-0.236,0.042c-1.337-1.102-2.081-1.254-0.663-2.288c-0.026-0.166-0.026-0.166-0.11-0.29
				c-3.529-1.324-2.866-5.322-5.431-6.176c-4.165-0.29-1.075,5.032,0.11,6.687C19.31,36.304,18.979,37.696,21.089,38.539
				L21.089,38.539z M31.844,44.136c-1.324-0.082-5.17-0.041-5.955-1.02c0.012-0.332,0.025-0.648,0.041-0.966
				c1.338-0.606,1.281-1.298,2.881-0.855c1.738,0,1.117-1.338,2.855,0.497c0.658,0.387,2.633,0.827,2.633,1.957
				C33.662,44.122,32.52,44.122,31.844,44.136L31.844,44.136z M11.81,44.19c-1.285-0.152-2.593,0.042-3.572-0.523
				c0.18-1.683,3.793-1.31,4.59-3.31c2.18-2.027-0.563,2.124,3.022,0.979c0.591,0,0.729,1.462,2.344,1.09
				c-0.027,0.454-0.058,0.911-0.069,1.378C17.503,44.218,12.9,44.19,11.81,44.19z"/>
			<path i:knockout="Off" fill="#FFFFFF" d="M16.22,16.421c-0.397-0.331-0.469-0.455-0.428-0.841
				c0.248,0.193,0.499,0.387,0.759,0.593C16.498,16.435,16.402,16.421,16.22,16.421z"/>
			<path i:knockout="Off" fill="#99997A" d="M14.18,32.36c1.448,0.263,2.565,1.626,2.565,3.268c0,1.821-1.392,3.31-3.103,3.31
				c-0.511,0-0.994-0.139-1.421-0.372c0-0.055,0-0.125,0.015-0.194c0.11-0.357,0.221-0.716,0.344-1.074
				c0.304,0.221,0.678,0.343,1.062,0.343c1.048,0,1.902-0.907,1.902-2.012c0-1.075-0.785-1.958-1.78-2.028
				C13.906,33.188,14.043,32.773,14.18,32.36z"/>
			<path i:knockout="Off" fill="#99997A" d="M23.034,38.33c1.681,0,3.06,1.447,3.101,3.228c-0.51,0.124-0.842-0.014-1.215-0.124
				c-0.096-1.008-0.908-1.807-1.886-1.807c-1.036,0-1.891,0.909-1.891,2.026c0,0.11,0.016,0.207,0.027,0.317
				c-0.412-0.07-0.812-0.207-1.239-0.289c0,0,0-0.014,0-0.028C19.931,39.819,21.323,38.33,23.034,38.33z"/>
			<path i:knockout="Off" fill="#99997A" d="M30.865,38.676c-0.457,0.275-0.98,0.44-1.543,0.44c-1.697,0-3.092-1.488-3.092-3.321
				c0-0.015,0-0.03,0-0.042c0.443-0.221,0.896-0.456,1.311-0.636c-0.068,0.207-0.109,0.441-0.109,0.678
				c0,1.116,0.854,2.025,1.891,2.025c0.41,0,0.785-0.139,1.086-0.371C30.52,37.876,30.686,38.276,30.865,38.676z"/>
			<path i:knockout="Off" fill="#99997A" d="M21.75,28.859c0.773,0,1.475,0.302,2.016,0.799c0.189,0.318,0.385,0.565,0.646,0.813
				c0.275,0.496,0.439,1.09,0.439,1.709c0,0.565-0.137,1.09-0.369,1.559c-0.332,0.179-0.648,0.358-0.953,0.524
				c-0.305-0.304-0.469-0.359-0.717-0.428c0.497-0.357,0.827-0.966,0.827-1.655c0-1.117-0.853-2.026-1.889-2.026
				c-0.606,0-1.144,0.301-1.487,0.771c-0.193-0.413-0.373-0.828-0.579-1.227C20.233,29.175,20.95,28.859,21.75,28.859z"/>
		</g>
	</g>
</g>
</svg>
