<?xml version="1.0" encoding="utf-8"?>
<!-- Generator: Adobe Illustrator 12.0.0, SVG Export Plug-In . SVG Version: 6.00 Build 51448)  -->
<!DOCTYPE svg PUBLIC "-//W3C//DTD SVG 1.1//EN" "http://www.w3.org/Graphics/SVG/1.1/DTD/svg11.dtd" [
	<!ENTITY ns_flows "http://ns.adobe.com/Flows/1.0/">
	<!ENTITY ns_extend "http://ns.adobe.com/Extensibility/1.0/">
	<!ENTITY ns_ai "http://ns.adobe.com/AdobeIllustrator/10.0/">
	<!ENTITY ns_graphs "http://ns.adobe.com/Graphs/1.0/">
	<!ENTITY ns_vars "http://ns.adobe.com/Variables/1.0/">
	<!ENTITY ns_imrep "http://ns.adobe.com/ImageReplacement/1.0/">
	<!ENTITY ns_sfw "http://ns.adobe.com/SaveForWeb/1.0/">
	<!ENTITY ns_custom "http://ns.adobe.com/GenericCustomNamespace/1.0/">
	<!ENTITY ns_adobe_xpath "http://ns.adobe.com/XPath/1.0/">
	<!ENTITY ns_svg "http://www.w3.org/2000/svg">
	<!ENTITY ns_xlink "http://www.w3.org/1999/xlink">
]>
<svg  version="1.1"
	 xmlns:x="&ns_extend;" xmlns:i="&ns_ai;" xmlns:graph="&ns_graphs;" i:viewOrigin="-0.2363 65" i:rulerOrigin="0 0" i:pageBounds="0 65 45 0"
	 xmlns="&ns_svg;" xmlns:xlink="&ns_xlink;" xmlns:a="http://ns.adobe.com/AdobeSVGViewerExtensions/3.0/"
	 width="45.73" height="65.236" viewBox="0 0 45.73 65.236" overflow="visible" enable-background="new 0 0 45.73 65.236"
	 xml:space="preserve">
<metadata>
	<variableSets  xmlns="&ns_vars;">
		<variableSet  varSetName="binding1" locked="none">
			<variables></variables>
			<v:sampleDataSets  xmlns:v="&ns_vars;" xmlns="&ns_custom;"></v:sampleDataSets>
		</variableSet>
	</variableSets>
</metadata>
<g id="图层_1" i:layer="yes" i:dimmedPercent="50" i:rgbTrio="#4F008000FFFF">
	<g>
		<g i:knockout="Off">
			<path fill="#333333" d="M1.183,47.468v12.074c0,2.491,1.623,4.515,3.619,4.515h37.308c2,0,3.621-2.023,3.621-4.515l0,0V3.807
				c0-2.1-1.623-3.807-3.621-3.807H4.803C2.804,0,1.183,1.707,1.183,3.807l0,0v43.65C1.183,47.46,1.183,47.463,1.183,47.468z"/>
			
				<linearGradient id="XMLID_3_" gradientUnits="userSpaceOnUse" x1="-41.7017" y1="22.0122" x2="-41.7017" y2="82.7563" gradientTransform="matrix(1 0 0 -1 64.2148 87.0117)">
				<stop  offset="0.0393" style="stop-color:#0060B6"/>
				<stop  offset="0.0899" style="stop-color:#2089B9"/>
				<stop  offset="0.0985" style="stop-color:#4FA3C2"/>
				<stop  offset="0.1071" style="stop-color:#77B9CA"/>
				<stop  offset="0.1138" style="stop-color:#8FC7CF"/>
				<stop  offset="0.118" style="stop-color:#98CCD1"/>
				<stop  offset="0.1341" style="stop-color:#9ECFD3"/>
				<stop  offset="0.156" style="stop-color:#AFD6D9"/>
				<stop  offset="0.1809" style="stop-color:#CBE1E3"/>
				<stop  offset="0.1966" style="stop-color:#E1EAEB"/>
				<a:midPointStop  offset="0.0393" style="stop-color:#0060B6"/>
				<a:midPointStop  offset="0.5" style="stop-color:#0060B6"/>
				<a:midPointStop  offset="0.0899" style="stop-color:#2089B9"/>
				<a:midPointStop  offset="0.5" style="stop-color:#2089B9"/>
				<a:midPointStop  offset="0.0985" style="stop-color:#4FA3C2"/>
				<a:midPointStop  offset="0.5" style="stop-color:#4FA3C2"/>
				<a:midPointStop  offset="0.1071" style="stop-color:#77B9CA"/>
				<a:midPointStop  offset="0.5" style="stop-color:#77B9CA"/>
				<a:midPointStop  offset="0.1138" style="stop-color:#8FC7CF"/>
				<a:midPointStop  offset="0.5" style="stop-color:#8FC7CF"/>
				<a:midPointStop  offset="0.118" style="stop-color:#98CCD1"/>
				<a:midPointStop  offset="0.5" style="stop-color:#98CCD1"/>
				<a:midPointStop  offset="0.1341" style="stop-color:#9ECFD3"/>
				<a:midPointStop  offset="0.5" style="stop-color:#9ECFD3"/>
				<a:midPointStop  offset="0.156" style="stop-color:#AFD6D9"/>
				<a:midPointStop  offset="0.5" style="stop-color:#AFD6D9"/>
				<a:midPointStop  offset="0.1809" style="stop-color:#CBE1E3"/>
				<a:midPointStop  offset="0.5" style="stop-color:#CBE1E3"/>
				<a:midPointStop  offset="0.1966" style="stop-color:#E1EAEB"/>
			</linearGradient>
			<path fill="url(#XMLID_3_)" d="M44.787,60.487c0,2.493-1.621,4.513-3.621,4.513H3.858c-1.998,0-3.619-2.021-3.619-4.513V8.763
				c0-2.489,1.623-4.508,3.619-4.508h37.308c2,0,3.621,2.02,3.621,4.508V60.487L44.787,60.487z"/>
			<path fill="none" stroke="#333333" stroke-width="0.4727" d="M44.787,60.487c0,2.493-1.621,4.513-3.621,4.513H3.858
				c-1.998,0-3.619-2.021-3.619-4.513V8.763c0-2.489,1.623-4.508,3.619-4.508h37.308c2,0,3.621,2.02,3.621,4.508V60.487
				L44.787,60.487z"/>
			<path fill="#FFFFFF" d="M0.236,4.752c0-2.101,1.624-3.807,3.622-3.807h37.308c2,0,3.619,1.704,3.619,3.807v43.65
				c0,2.104-1.621,3.807-3.619,3.807H3.858c-2,0-3.622-1.703-3.622-3.807V4.752L0.236,4.752z"/>
			
				<linearGradient id="XMLID_4_" gradientUnits="userSpaceOnUse" x1="2.5508" y1="25.2324" x2="46.6426" y2="25.2324" gradientTransform="matrix(-1 0 0 1 47.1094 1.3447)">
				<stop  offset="0" style="stop-color:#A2D8E0"/>
				<stop  offset="0.0899" style="stop-color:#1878AD"/>
				<stop  offset="0.2135" style="stop-color:#194D91"/>
				<stop  offset="0.6404" style="stop-color:#2B90BD"/>
				<stop  offset="0.9438" style="stop-color:#82CBDE"/>
				<stop  offset="1" style="stop-color:#1A478D"/>
				<a:midPointStop  offset="0" style="stop-color:#A2D8E0"/>
				<a:midPointStop  offset="0.5" style="stop-color:#A2D8E0"/>
				<a:midPointStop  offset="0.0899" style="stop-color:#1878AD"/>
				<a:midPointStop  offset="0.5" style="stop-color:#1878AD"/>
				<a:midPointStop  offset="0.2135" style="stop-color:#194D91"/>
				<a:midPointStop  offset="0.5" style="stop-color:#194D91"/>
				<a:midPointStop  offset="0.6404" style="stop-color:#2B90BD"/>
				<a:midPointStop  offset="0.5" style="stop-color:#2B90BD"/>
				<a:midPointStop  offset="0.9438" style="stop-color:#82CBDE"/>
				<a:midPointStop  offset="0.5" style="stop-color:#82CBDE"/>
				<a:midPointStop  offset="1" style="stop-color:#1A478D"/>
			</linearGradient>
			<path i:isolated="yes" i:knockout="Off" opacity="0.1" fill="url(#XMLID_4_)" enable-background="new    " d="M0.466,4.752
				c0-2.101,1.602-3.807,3.578-3.807H40.98c1.975,0,3.578,1.704,3.578,3.807v43.65c0,2.104-1.604,3.807-3.578,3.807H4.044
				c-1.975,0-3.578-1.703-3.578-3.807V4.752L0.466,4.752z"/>
			<path fill="none" stroke="#4D4D4D" stroke-width="0.4727" d="M0.236,48.411v12.076C0.236,62.979,1.86,65,3.858,65h37.308
				c2,0,3.619-2.02,3.619-4.513V4.752c0-2.101-1.621-3.807-3.619-3.807H3.858c-1.998,0-3.619,1.707-3.619,3.807l-0.003,43.65
				C0.236,48.403,0.236,48.409,0.236,48.411z"/>
		</g>
		<g>
			<path i:knockout="Off" d="M13.261,3.932c0.767,0.151,1.576,1.088,1.89,1.088c2.081-3.035,6.028,2.491,2.711,5.526
				c0.075,1.208,0.152,2.416,0.355,3.459c1.183,0.075,2.634,0.166,2.86,1.826c2.938,0.649,0.618,4.259,1.538,6.343
				c1.994,2.642,2.296,3.896,1.576,7.247c1.377-0.194,3.115-0.756,4.111,0.438c0.783-0.136,1.553-0.287,2.32-0.438
				c0-0.209-0.012-0.421-0.023-0.648c2.143-2.341,11.311-3.882,12.912-0.755c0,4.484-5.258,4.302-7.932,4.35
				c-0.518-0.018-2.824-0.305-3.82-0.848c-1.234-0.694-2.611-0.376-2.926,0.015c-0.617,2.235-3.104,1.239-4.795,2.372
				c-0.074,1.584-0.148,2.657-1.169,3.668c-0.013,0.062-0.027,0.107-0.036,0.152c0.463,0.559,0.629,0.92,0.754,1.511
				c1.172,1.991,1.072,1.041,0.756,2.821c0.771,1.058,2.121,2.523,1.387,3.927c-1.41,1.511-3.125-0.015-4.489-1.177
				c-1.932,0.194-3.834,0.302-5.75,0.302c-1.35,1.192-4.226,3.156-4.226-0.543c0.329-1.27,0.833-1.013,0.126-2.312
				c0.039-0.182,0.074-0.361,0.104-0.559c-0.52-0.092-0.721-0.573-0.886-1.254c-1.739,0.047-2.382-0.165-2.534-2.46
				c-0.769-0.454-1.576-1.284-2.597-0.68c-0.506-0.091-2.434-1.149-2.749-1.844c0-0.346,1.538-2.839,1.916-3.141
				c2.786,0.771,2.094,3.625,4.037,4.077c0.478-0.602,1.059-1.148,1.172-2.038c-2.725-0.104-3.646-2.523-6.015-3.139
				c-0.745-0.726-2.626-2.946-1.463-4.335c4.325-0.332,1.186-6.1,3.936-8.984c0-1.419-0.557-2.628-0.708-3.986
				c-2.421-0.242-3.444-1.177-3.707-4.38C2.061,6.74,4.406,5.835,6.284,6.952c0.052-0.015,0.103-0.044,0.152-0.076
				c0.708-1.902,2.825-2.112,4.263-1.69C11.418,3.994,12.201,3.932,13.261,3.932z"/>
			<path i:knockout="Off" fill="#FFFFFF" d="M13.222,4.431c0.806,0.242,1.299,0.528,1.663,1.239c0.074,0,0.152,0,0.227,0
				c2.538-3.7,5.954,3.578,1.514,4.71c-1.083-0.166-1.334-0.56-1.979,0.499c-0.907,0.755-1.299,0.77-2.483,0.408
				c-1.224,0.981-1.691,2.447-3.569,1.751c-0.354-0.211-0.782-0.574-1.299-0.648c-1.411,1.691-3.671,1.283-4.716-0.875
				C2.1,8.9,2.264,6.952,4.973,6.952C5.58,7.118,6.16,7.542,6.575,7.602C8.101,4.868,8.58,5.699,10.95,5.699
				C11.658,4.461,12.048,4.431,13.222,4.431z"/>
			<path i:knockout="Off" fill="#FFFFFF" d="M15.742,10.531c0.682,0.151,1.188,0.046,1.682,0.046c0.188,0.225,0.313,3.08,0.34,3.442
				c-3.696,0.603-7.366,2.445-10.973,3.774c-0.127-1.102-0.782-3.048-0.782-4.031c1.966-1.177,0.908-1.253,2.838-0.273
				c1.537,0.121,2.271-0.543,3.277-1.856c1.412,0.181,2.042,0.454,2.988-1.011C15.366,10.471,15.554,10.531,15.742,10.531z"/>
			<path i:knockout="Off" fill="#987B37" d="M21.371,16.42c1.749,0.619,0.528,4.983-0.129,5.858c-0.039,0-0.074,0-0.125,0
				c-0.012-0.771-0.23-1.691-0.23-2.521c0.923-1.389,0.493-1.675,0.344-3.322C21.281,16.435,21.332,16.435,21.371,16.42
				L21.371,16.42z M17.924,14.397c-3.305,0-7.742,2.4-10.882,3.623c-3.582,2.145,0.429,8.637-4.502,9.362
				c-0.972,2.793,3.695,6.01,5.285,0.981c0-0.12-0.127-1.238-0.062-1.312c1.537,1.39-1.326,3.835-2.257,4.286
				c0.315,2.281,3.984,0.138,4.641-1.13c0.06,0,0.124,0,0.176,0c0.2,1.208-2.384,2.22-3.078,2.369c0,0.092,0,0.182-0.013,0.271
				c2.031,2.977,5.926-0.588,6.52-3.427c0-2.974-1.197-7.02-1.639-10.268c0.062-0.045,0.062-0.045,0.203,0.046
				c0.289,1.464,0.438,2.9,0.719,4.181c1.236,0.363,1.093-6.401,1.197-6.658c0.048,0,0.087,0,0.126,0
				c0.035,2.174,0.203,4.44,0.203,6.463c1.878-0.739,3.744-3.94,3.353-6.342c-0.227-0.302-0.833-0.846-0.907-1.419
				c1.562,0.301,1.221,2.37,0.946,3.428c0.2,1.359,0.403,2.716,0.606,4.076c0.062,0,0.11,0,0.161-0.015
				c1.827-2.581,3.631-4.801,1.478-7.958C19.641,14.533,18.089,14.669,17.924,14.397z"/>
			<path i:knockout="Off" d="M36.588,19.636c0.971,0.227,1.604,0.393,2.613,0.484c0.705,1.073,1.904,0.242,0.982,2.099
				c-0.936,0.528-6.027,0.8-7.211,0.242C31.609,20.09,35.656,19.636,36.588,19.636z"/>
			<path i:knockout="Off" fill="#FFFFFF" d="M36.377,20.09c1.248,0.361,2.809,0.331,3.744,1.131c0,0.815-0.176,0.651-0.795,0.982
				c-0.57,0-9.334,0.376-5.297-1.511c0.102-0.106,0.201-0.226,0.291-0.346C35.555,20.527,35.316,20.24,36.377,20.09z"/>
			<path i:knockout="Off" d="M36.879,20.648c0.605,0.062,1.338,0.166,1.338,0.817C36.451,22.866,33.072,20.648,36.879,20.648z"/>
			<path i:knockout="Off" fill="#FFCC00" d="M36.551,20.89c0.441,0.045,1.199,0.136,1.34,0.484c-0.682,0.075-1.83,0.287-2.562,0
				c0-0.045,0-0.091-0.012-0.152C35.619,20.86,36.225,20.89,36.551,20.89z"/>
			<path i:knockout="Off" d="M38.318,24.015c0.59,0.709-2.523,1.631-3.33,0.182c0.047-0.06,0.086-0.121,0.125-0.182
				c0.896,0.167,1.287,0.439,2.234,0.409C38.191,24.015,38.191,24.015,38.318,24.015z"/>
			<path i:knockout="Off" d="M35.924,25.177c0.793,0.409,1.334,0.227,1.99,0.272c-0.152,0.906-1.65,0.514-2.244,0.123
				c0-0.108-0.014-0.212-0.027-0.334C35.746,25.177,35.746,25.177,35.924,25.177z"/>
			<path i:knockout="Off" fill="#7F7F7F" d="M38.318,26.779c1.639,0.134,3.469,0.03,4.752,1.131
				c0.012,0.106,0.012,0.211,0.012,0.303c-2.23,1.826-9.596,2.475-11.877,0.663C33.373,27.217,35.896,26.975,38.318,26.779z"/>
			<path i:knockout="Off" fill="#FB6747" d="M21.457,27.745c1.299,0.436,0.579,3.02,0.403,3.941
				C20.37,35.567,16.008,28.471,21.457,27.745z"/>
			<path i:knockout="Off" fill="#B3B3B3" d="M43.023,28.665c-1.061,4.319-8.324,3.156-11.062,2.555
				c-0.391-0.469-0.768-1.043-0.768-1.903C31.883,30.583,41.256,30.856,43.023,28.665z"/>
			<path i:knockout="Off" fill="#FDCC8A" d="M26.668,29.603c0.729,0.044,1.373,0.316,1.713,0.921c0.086,2.4-0.857,2.023-2.676,2.067
				C24.986,31.098,24.986,29.603,26.668,29.603L26.668,29.603z M10.611,35.598c3.555,1.418-1.55,7.912-2.119,2.022
				C8.771,36.699,9.742,35.598,10.611,35.598L10.611,35.598z M20.233,33.497c-0.174,1.286-1.627,1.632-2.434,0.861
				C17.838,34.284,17.838,34.284,20.233,33.497L20.233,33.497z M17.799,19.516c-0.012-0.015-0.027-0.03-0.036-0.06
				c-0.065,0.045-0.065,0.045-0.227,0.799c-0.657,1.252-1.946,3.322-3.281,3.322c0.039-0.693,0.039-0.693,0.015-1.962
				c-0.305,0.451-1.113,2.354-1.113,2.778c0.946,4.122,1.591,5.345-1.045,8.502c0.012,0.058,0.012,0.104,0.012,0.149
				c0.782,0.287,0.92,0.74,1.427,1.193c2.306,0.061,4.261-0.137,6.393-0.967c0.126-0.633-2.914-3.141-0.633-4.983
				c3.344-2.069,3.344,0.06,2.902,3.246c1.827-0.542,2.168-4.604,1.729-6.583c-2.183-4.288-1.792,0.439-3.494,0.77
				c-0.227-0.376-0.227-0.376-0.442-0.573c0.102-0.996,1.338-2.205,2.081-2.717c0-0.09,0.051-0.636-0.253-0.636
				c-0.287,0.484-0.529,0.893-0.843,1.269c-0.038,0-0.074,0-0.128,0c-0.188-0.499,0.215-2.25-0.203-2.747
				c-0.615,0.8-1.386,3.063-2.29,3.063C18.191,22.188,18.053,20.86,17.799,19.516L17.799,19.516z M12.628,43.192
				c-1.562,0,0.695,3.367,2.55,1.523c0-0.043-0.016-0.089-0.027-0.148C13.714,43.797,13.714,44.809,12.628,43.192L12.628,43.192z
				 M24.066,42.394c1.049,1.327,0.668,1.508-0.592,2.46c-1.071,0.528-0.869,0.588-1.892-0.334c0-0.044,0-0.089-0.012-0.149
				c0.743-0.892,1.716-1.013,2.32-1.977C23.953,42.394,24.016,42.394,24.066,42.394z"/>
			<path i:knockout="Off" fill="#987B37" d="M30.877,29.904c0.316,0.227,0.277,0.559,0.328,0.832
				c-1.213,0.075-2.219,0.226-2.473,0.196c-0.062-0.151-0.062-0.151-0.102-0.605C28.783,30.146,30.662,29.934,30.877,29.904z"/>
			<path i:knockout="Off" fill="#B3B3B3" d="M4.723,32.881c1.097,0.799,1.097,0.799,1.84,1.268c0.239,1.796,0.505,1.721,1.815,2.655
				c0,0.304,0,0.395-0.051,0.575c-0.049,0.029-0.099,0.06-0.152,0.076c-0.503-0.304-1.285-0.953-1.977-0.953
				c-1.251,0.408-1.778-0.165-2.965-1.042C3.273,35.129,4.658,32.833,4.723,32.881z"/>
			<path i:knockout="Off" d="M9.64,36.896c0.604,0.483,0.655,0.498,0.655,1.237c-0.327,0.35-0.667,0.591-1.16,0.197
				c0.266-0.212,0.632-0.168,0.844-0.168c0.379-0.813-0.339-0.738-0.718-1.191C9.375,36.835,9.55,36.896,9.64,36.896z"/>
			<path i:knockout="Off" fill="#A1729D" d="M13.043,38.103c0.304,0.302,0.531,0.469,0.582,0.785
				c-0.669,0.364-1.135,0.38-1.917,0.242C11.986,38.3,12.377,38.103,13.043,38.103L13.043,38.103z M13.512,40.339
				c-0.138,0.604-0.317,1.013-0.759,2.369c-0.251,0-0.893,0.151-0.893-0.557C12.527,41.605,12.996,41.048,13.512,40.339
				L13.512,40.339z M22.379,37.983c-0.015,0.06-0.029,0.104-0.039,0.149c-2.433,1.449-5.69,2.084-8.464,1.254
				c0.015-0.09,0.015-0.18,0.015-0.271C17.22,39.401,19.4,38.694,22.379,37.983L22.379,37.983z M13.55,39.311
				c-0.669,0.212-1.311,0.227-2.093,0.106c-0.141,0.182-0.293,0.362-0.445,0.528C11.141,42.543,13.55,40.655,13.55,39.311z"/>
			<path i:knockout="Off" fill="#FFFFCC" d="M22.755,38.359c3.493,4.184-7.327,5.512-8.273,4.001c0-0.8-0.012-1.599-0.023-2.415
				c3.165,0,5.207-0.104,8.133-1.586C22.654,38.359,22.705,38.359,22.755,38.359z"/>
			<path i:knockout="Off" fill="#C9A4B7" d="M24.986,43.6c1.541,2.583-0.35,3.156-2.18,1.887
				C23.576,44.673,24.168,44.687,24.986,43.6z"/>
			<path i:knockout="Off" fill="#C9A4B7" d="M11.912,44.249c0.669,0.802,1.35,1.192,2.066,1.435c-0.216,1.072-3.254,0.68-2.207-1.42
				C11.822,44.264,11.873,44.264,11.912,44.249z"/>
			<path i:knockout="Off" fill="#C9A4B7" d="M11.783,33.226c2.222,1.089,1.768,2.402,0.505,4.183
				c-0.039,0.016-0.074,0.016-0.125,0.016c-0.114-1.465-0.81-1.964-2.017-2.16C10.146,34.344,11.079,33.226,11.783,33.226z"/>
			<path i:knockout="Off" fill="#C9A4B7" d="M22,32.367c1.096,0.813,1.096,0.813,1.601,1.282c0.012,0.499,0.023,0.981,0.023,1.465
				c-0.669,4.213-10.188,4.967-10.845,2.113c0.732-0.967,0.869-1.269,0.756-2.672c1.326,0,2.562-0.106,3.759-0.165
				C20.31,36.261,19.716,33.529,22,32.367z"/>
			<path i:knockout="Off" fill="#C9A4B7" d="M25.24,29.723c-0.303,1.479-0.074,1.768,0.215,2.976
				c-2.207,0.754-1.084,0.784-3.204-0.484c0-0.06,0-0.12-0.016-0.182C23.486,30.735,23.652,30.055,25.24,29.723z"/>
			<path i:knockout="Off" fill="#C9A4B7" d="M14.142,39.886c0,0.301-0.051,2.355,0.152,2.779c1.815,1.177,9.116,0.512,9.243-2.523
				c0.025-0.015,0.051-0.029,0.064-0.046c1.826,1.963-1.198,2.99-2.145,4.049c-1.26,0.452-2.851,0.286-4.377,0.709
				c-0.43,0-3.81-0.952-4.007-1.39C13.034,42.77,13.64,40.278,14.142,39.886z"/>
			<path i:knockout="Off" d="M16.625,23.155c0.693,0.106,1.338,0.528,1.768,1.042c-0.517,0.936-2.144-1.178-2.612-0.257
				c0.036,0.075,0.036,0.075,0.469,0.271c2.863,2.808-1.666,6.085-1.857,1.283c-0.188,0-0.489-0.272-0.716-0.604
				C14.47,23.94,15.492,23.155,16.625,23.155z"/>
			<path i:knockout="Off" fill="#FFFFFF" d="M15.817,24.362c2.424,1.146,0.28,5.406-1.144,1.993c0-0.512,0-0.512,0.036-0.557
				c1.714,1.841,2.17,0.345,0.97-1.405C15.733,24.394,15.781,24.377,15.817,24.362z"/>
			<path i:knockout="Off" d="M27.041,30.101c0,0.891-0.037,1.511,0.684,1.511c0.164-0.275,0.316-0.787,0.414-0.876
				c0.039,0.03,0.078,0.06,0.113,0.09c-0.438,1.963-1.713,1.01-1.334-0.724C26.965,30.101,27.004,30.101,27.041,30.101z"/>
			<path i:knockout="Off" fill="#FFFFFF" d="M15.405,24.619c1.311,1.299-1.2,1.918-0.316,0.017
				C15.202,24.636,15.303,24.636,15.405,24.619z"/>
			<path i:knockout="Off" fill="#CBA325" d="M5.378,21.146c0.137,0.318,0.276,0.618,0.442,0.89c0-0.272,0.263-0.542,0.263-0.815
				c0,0.046,0.457,0.726,0.531,0.726c0-0.409,0.945-0.906,0.945-1.269c0,0.318,0.528,0.953,0.642,1.269H8.24h0.039
				c0-0.092,0.188-0.271,0.227-0.364c0,0.048,0.341,0.636,0.415,0.636c0-0.454,0.683-0.951,0.683-1.405l0.037-0.045h0.037
				l0.039-0.091c0,0.091,0.302,0.726,0.34,0.726c0,0.091,0.075,0.272,0.114,0.361c0-0.089,0.035,0,0.035-0.089
				c0.039,0,0.152-0.181,0.152-0.181c0.039,0,0.228,0.315,0.266,0.407c0.039,0,0.152,0.135,0.152,0.179h0.036h0.039
				c0-0.089,0.567-0.769,0.681-0.769c0.228,0.542,0.419,0.996,0.756,1.405c0-0.09,0.113-0.409,0.188-0.499
				c0-0.09,0-0.182,0.077-0.227v-0.045v-0.045c0.027,0.06,0.051,0.12,0.075,0.197c0.405,1.977,0.859,4.029,1.035,5.858
				c-0.089-0.091-0.164-0.182-0.241-0.257c0,0.633-0.152,1.314-0.152,1.947c-0.341-0.86-1.057-2.265-1.66-2.99h-0.039
				c0,0.138-0.646,1.224-0.795,1.406c0-0.589-0.34-1.269-0.34-1.813l-1.175,1.768c0-0.906-0.341-2.084-0.682-2.854H8.544
				c0,0.271-0.305,0.543-0.305,0.77c0-0.227-0.379-0.454-0.379-0.681H7.825H7.786c-0.302,0.771-0.983,1.542-1.512,2.177
				c0-0.772-0.152-1.678-0.266-2.448c-0.039-0.497-0.454,1.134-0.454,1.405c0-0.542-0.176-0.981-0.442-1.375
				C5.366,23.849,5.252,22.445,5.378,21.146z"/>
			<path i:knockout="Off" fill="#E6E6E6" d="M18.444,9.036c-0.331,0.604-0.907,1.103-1.818,1.344
				c-1.083-0.166-1.334-0.56-1.979,0.499c-0.907,0.755-1.299,0.77-2.483,0.408c-1.224,0.981-1.691,2.447-3.569,1.751
				c-0.354-0.211-0.782-0.574-1.299-0.648c-1.411,1.691-3.671,1.283-4.716-0.875c-0.113-0.604-0.188-1.163-0.216-1.677
				c0.808,1.39,3.369,3.216,4.087,0.861c2.623,1.057,4.199-0.242,4.516-1.223c2.269,1.661,3.744-1.104,3.427-0.876
				C15.628,9.233,17.091,9.294,18.444,9.036z"/>
		</g>
	</g>
</g>
</svg>
