<?xml version="1.0" encoding="utf-8"?>
<!-- Generator: Adobe Illustrator 12.0.0, SVG Export Plug-In . SVG Version: 6.00 Build 51448)  -->
<!DOCTYPE svg PUBLIC "-//W3C//DTD SVG 1.1//EN" "http://www.w3.org/Graphics/SVG/1.1/DTD/svg11.dtd" [
	<!ENTITY ns_flows "http://ns.adobe.com/Flows/1.0/">
	<!ENTITY ns_extend "http://ns.adobe.com/Extensibility/1.0/">
	<!ENTITY ns_ai "http://ns.adobe.com/AdobeIllustrator/10.0/">
	<!ENTITY ns_graphs "http://ns.adobe.com/Graphs/1.0/">
	<!ENTITY ns_vars "http://ns.adobe.com/Variables/1.0/">
	<!ENTITY ns_imrep "http://ns.adobe.com/ImageReplacement/1.0/">
	<!ENTITY ns_sfw "http://ns.adobe.com/SaveForWeb/1.0/">
	<!ENTITY ns_custom "http://ns.adobe.com/GenericCustomNamespace/1.0/">
	<!ENTITY ns_adobe_xpath "http://ns.adobe.com/XPath/1.0/">
	<!ENTITY ns_svg "http://www.w3.org/2000/svg">
	<!ENTITY ns_xlink "http://www.w3.org/1999/xlink">
]>
<svg  version="1.1"
	 xmlns:x="&ns_extend;" xmlns:i="&ns_ai;" xmlns:graph="&ns_graphs;" i:viewOrigin="-0.2363 65" i:rulerOrigin="0 0" i:pageBounds="0 65 45 0"
	 xmlns="&ns_svg;" xmlns:xlink="&ns_xlink;" xmlns:a="http://ns.adobe.com/AdobeSVGViewerExtensions/3.0/"
	 width="45.73" height="65.236" viewBox="0 0 45.73 65.236" overflow="visible" enable-background="new 0 0 45.73 65.236"
	 xml:space="preserve">
<metadata>
	<variableSets  xmlns="&ns_vars;">
		<variableSet  varSetName="binding1" locked="none">
			<variables></variables>
			<v:sampleDataSets  xmlns:v="&ns_vars;" xmlns="&ns_custom;"></v:sampleDataSets>
		</variableSet>
	</variableSets>
</metadata>
<g id="图层_1" i:layer="yes" i:dimmedPercent="50" i:rgbTrio="#4F008000FFFF">
	<g>
		<g i:knockout="Off">
			<path fill="#333333" d="M1.182,47.468v12.076c0,2.491,1.621,4.511,3.619,4.511h37.308c2.001,0,3.622-2.02,3.622-4.511l0,0V3.807
				C45.73,1.705,44.106,0,42.108,0H4.801C2.803,0,1.182,1.705,1.182,3.807l0,0v43.652C1.182,47.46,1.182,47.465,1.182,47.468z"/>
			
				<linearGradient id="XMLID_3_" gradientUnits="userSpaceOnUse" x1="-41.7017" y1="22.0122" x2="-41.7017" y2="82.7583" gradientTransform="matrix(1 0 0 -1 64.2148 87.0117)">
				<stop  offset="0.0393" style="stop-color:#0060B6"/>
				<stop  offset="0.0899" style="stop-color:#2089B9"/>
				<stop  offset="0.0985" style="stop-color:#4FA3C2"/>
				<stop  offset="0.1071" style="stop-color:#77B9CA"/>
				<stop  offset="0.1138" style="stop-color:#8FC7CF"/>
				<stop  offset="0.118" style="stop-color:#98CCD1"/>
				<stop  offset="0.1341" style="stop-color:#9ECFD3"/>
				<stop  offset="0.156" style="stop-color:#AFD6D9"/>
				<stop  offset="0.1809" style="stop-color:#CBE1E3"/>
				<stop  offset="0.1966" style="stop-color:#E1EAEB"/>
				<a:midPointStop  offset="0.0393" style="stop-color:#0060B6"/>
				<a:midPointStop  offset="0.5" style="stop-color:#0060B6"/>
				<a:midPointStop  offset="0.0899" style="stop-color:#2089B9"/>
				<a:midPointStop  offset="0.5" style="stop-color:#2089B9"/>
				<a:midPointStop  offset="0.0985" style="stop-color:#4FA3C2"/>
				<a:midPointStop  offset="0.5" style="stop-color:#4FA3C2"/>
				<a:midPointStop  offset="0.1071" style="stop-color:#77B9CA"/>
				<a:midPointStop  offset="0.5" style="stop-color:#77B9CA"/>
				<a:midPointStop  offset="0.1138" style="stop-color:#8FC7CF"/>
				<a:midPointStop  offset="0.5" style="stop-color:#8FC7CF"/>
				<a:midPointStop  offset="0.118" style="stop-color:#98CCD1"/>
				<a:midPointStop  offset="0.5" style="stop-color:#98CCD1"/>
				<a:midPointStop  offset="0.1341" style="stop-color:#9ECFD3"/>
				<a:midPointStop  offset="0.5" style="stop-color:#9ECFD3"/>
				<a:midPointStop  offset="0.156" style="stop-color:#AFD6D9"/>
				<a:midPointStop  offset="0.5" style="stop-color:#AFD6D9"/>
				<a:midPointStop  offset="0.1809" style="stop-color:#CBE1E3"/>
				<a:midPointStop  offset="0.5" style="stop-color:#CBE1E3"/>
				<a:midPointStop  offset="0.1966" style="stop-color:#E1EAEB"/>
			</linearGradient>
			<path fill="url(#XMLID_3_)" d="M44.787,60.488c0,2.492-1.625,4.512-3.619,4.512H3.857c-1.998,0-3.619-2.02-3.619-4.512V8.765
				c0-2.49,1.621-4.511,3.619-4.511h37.308c2.001,0,3.619,2.021,3.619,4.511v51.724H44.787z"/>
			<path fill="none" stroke="#333333" stroke-width="0.4727" d="M44.787,60.488c0,2.492-1.625,4.512-3.619,4.512H3.857
				c-1.998,0-3.619-2.02-3.619-4.512V8.765c0-2.49,1.621-4.511,3.619-4.511h37.308c2.001,0,3.619,2.021,3.619,4.511v51.724H44.787z"
				/>
			<path fill="#FFFFFF" d="M0.237,4.752c0-2.101,1.623-3.807,3.62-3.807h37.308c2.001,0,3.619,1.705,3.619,3.807v43.651
				c0,2.103-1.622,3.806-3.619,3.806H3.857c-1.999,0-3.62-1.703-3.62-3.807V4.752L0.237,4.752z"/>
			
				<linearGradient id="XMLID_4_" gradientUnits="userSpaceOnUse" x1="2.5527" y1="25.2324" x2="46.6455" y2="25.2324" gradientTransform="matrix(-1 0 0 1 47.1094 1.3447)">
				<stop  offset="0" style="stop-color:#A2D8E0"/>
				<stop  offset="0.0899" style="stop-color:#1878AD"/>
				<stop  offset="0.2135" style="stop-color:#194D91"/>
				<stop  offset="0.6404" style="stop-color:#2B90BD"/>
				<stop  offset="0.9438" style="stop-color:#82CBDE"/>
				<stop  offset="1" style="stop-color:#1A478D"/>
				<a:midPointStop  offset="0" style="stop-color:#A2D8E0"/>
				<a:midPointStop  offset="0.5" style="stop-color:#A2D8E0"/>
				<a:midPointStop  offset="0.0899" style="stop-color:#1878AD"/>
				<a:midPointStop  offset="0.5" style="stop-color:#1878AD"/>
				<a:midPointStop  offset="0.2135" style="stop-color:#194D91"/>
				<a:midPointStop  offset="0.5" style="stop-color:#194D91"/>
				<a:midPointStop  offset="0.6404" style="stop-color:#2B90BD"/>
				<a:midPointStop  offset="0.5" style="stop-color:#2B90BD"/>
				<a:midPointStop  offset="0.9438" style="stop-color:#82CBDE"/>
				<a:midPointStop  offset="0.5" style="stop-color:#82CBDE"/>
				<a:midPointStop  offset="1" style="stop-color:#1A478D"/>
			</linearGradient>
			<path i:isolated="yes" i:knockout="Off" opacity="0.1" fill="url(#XMLID_4_)" enable-background="new    " d="M0.464,4.752
				c0-2.101,1.602-3.807,3.579-3.807h36.934c1.977,0,3.58,1.705,3.58,3.807v43.651c0,2.103-1.604,3.806-3.58,3.806H4.042
				c-1.975,0-3.577-1.703-3.577-3.807L0.464,4.752L0.464,4.752z"/>
			<path fill="none" stroke="#4D4D4D" stroke-width="0.4727" d="M0.237,48.413v12.075C0.237,62.98,1.86,65,3.857,65h37.308
				c2.001,0,3.619-2.02,3.619-4.512V4.752c0-2.102-1.622-3.806-3.619-3.806H3.857c-1.998,0-3.62,1.705-3.62,3.806v43.651
				C0.235,48.406,0.237,48.409,0.237,48.413z"/>
		</g>
		<g>
			<path i:knockout="Off" d="M12.636,46.017c-1.498-0.067-13.999-0.356-8.09-4.597c2.683-1.528,6.194-1.424,9.231-1.681
				c0.072-0.084,0.785-2.798,0.785-2.849c-4.364-2.493-7.076,1.562-11.3,0.475c-3.84-2.271-0.628-4.631,1.811-5.718
				c0.415-1.374,0.202-2.323,0.83-3.696c2.053-2.221,4.352-1.239,6.979-1.069c-0.486-0.866-5.152-2.884-6.194-3.207
				c-1.599-0.118-1.769,0.102-1.897-1.374c-0.715-0.475-0.344-0.95-0.215-1.645c-0.628-0.696-0.455-1.409,0.187-1.917
				c0-1.036,0.057-1.29,0.956-1.527c0.799-3.562,2.583,0.883,4.453,1.137c-0.799-4.631,1.455-8.634,5.605-6.259
				c4.896-7.396,13.845-7.973,18.651,0.034c1.771,0,2.129-1.832,4.327,0.254c2.537,4.785,1.567,8.295-3.326,9.5
				c-0.985,1.714-1.968,2.562-2.983,4.037c0.057,0.391,0.27,0.848,0.615,1.357c1.439,4.172-2.499,10.909-1.328,13.129
				c1.597,1.765,0.241,1.459-0.672,2.544c-0.355,1.9-2.198,1.885-3.481,2.171C22.555,45.711,17.56,46.017,12.636,46.017z"/>
			<path i:knockout="Off" fill="#FDCC8A" d="M4.259,37.025c-4.208-0.948-1.339-5.123,1.144-4.715c0.67,1.511,1.81,2.375,3.281,3.069
				c0.772,0.238,0.772,0.238,0.815,0.324C8.711,36.637,5.274,36.975,4.259,37.025L4.259,37.025z M35.427,21.233
				c0.627-2.257-0.729-7.006,2.039-6.598c0.071-0.085,0.071-0.085,0.071-0.255c-1.239-0.492-1.809,1.001-2.141,0.917
				c-0.257-0.899-0.57-1.68-0.698-2.494C39.935,9.139,42.246,20.657,35.427,21.233L35.427,21.233z M24.866,28.495
				c4.281-0.373,6.592-1.511,9.246-5.396c1.299-2.799-2.17-5.666-3.953-6.055c0-0.086,0.016-0.171,0.03-0.255
				c6.449-2.969-1.771-12.553-5.467-4.869c-0.113,0.017-0.23,0.035-0.341,0.051c-1.856-2.205-4.383-3.885-6.452-1.153
				c-1.926,3.817-0.257,4.614,2.654,5.988c-0.385,0.458-1.525,0.44-2.099,0.798C12.651,24.286,19.229,27.714,24.866,28.495
				L24.866,28.495z M14.535,21.369c-6.865-1.629-4.211-12.163,1.11-8.686c-0.041,0.339-0.227,0.849-0.797,3.46
				c-0.672-1.289-1.057-1.899-2.254-1.73c-0.016,0.086-0.03,0.17-0.03,0.255c2.699,0,2.299,4.189,2.571,6.666
				C14.933,21.335,14.735,21.353,14.535,21.369L14.535,21.369z M6.743,23.117c0.086,0,0.185,0,0.285,0
				c0.015-0.036,0.028-0.069,0.043-0.086c-0.187-0.271-0.356-0.542-0.528-0.797c0.187-0.305,0.442-0.355,0.771-0.475
				C7.37,21.538,6.6,20.792,6.6,20.233c0.329-0.068,0.67-0.136,1.014-0.188C7.57,19.758,7.57,19.758,7.212,18.74
				c0.03-0.052,0.058-0.103,0.103-0.152c0.212-0.018,0.428-0.035,0.657-0.052c0.155-0.746-0.772-1.9-1.087-2.205
				c-1.054,0.118-0.298,0.781-0.627,1.578c-0.313-0.018-0.742-0.153-0.929,0.102c0,1.17,0.13,0.864-0.569,1.526
				c0,0.458,0.029,0.595,0.526,0.95c-0.097,0.458-0.512,0.779-0.313,1.272c0.528,0.102,0.313,0.442,0.387,1.138
				C5.673,23.048,6.258,23.082,6.743,23.117z"/>
			<path i:knockout="Off" fill="#FDCC8A" d="M20.626,30.41c-1.782-0.271-2.553-2.086-2.281-3.816
				c1.099,0.372,2.326,1.154,3.61,1.662c2.141,0.51,2.141,0.51,2.239,0.594C23.355,30.021,21.77,30.359,20.626,30.41z"/>
			<path i:knockout="Off" d="M40.078,29.274c-0.8-0.051-1.585-0.102-2.367-0.134c1.367-0.358,2.779-0.29,4.222-0.815
				c2.926-2.036-2.753-2.645-2.968-2.85c0-0.067,0.015-0.136,0.029-0.205C43.062,25.27,46.241,28.952,40.078,29.274z"/>
			<path i:knockout="Off" fill="#987B37" d="M13.637,26.39c-2.171-0.779-4.197-2.069-6.193-2.899c0-0.797-0.043-0.594-0.4-1.069
				c0.057-0.322,0.427-0.34,0.699-0.442c0.015-0.102,0.028-0.203,0.057-0.304c-0.313-0.374-0.841-0.832-0.784-1.188
				c0.386-0.033,0.771-0.069,1.155-0.083c0-0.628-0.557-0.798-0.486-1.478c0.258-0.033,0.515-0.068,0.771-0.101
				c0-0.441-0.271-0.628-0.285-0.882c0.872,0.526,1.482,0.916,2.512,1.222c1.584,1.881,2.582,1.765,4.624,2.765
				C15.461,22.641,13.678,26.424,13.637,26.39z"/>
			<path i:knockout="Off" fill="#987B37" d="M15.634,22.014c-1.057-4.818-0.657-8.414,2.254-11.875
				c0.03,0.034,0.058,0.068,0.099,0.119c-1.238,2.256-2.024,4.495,0.643,6.073c0.672,0.22,0.672,0.22,0.856,0.373
				c-0.026,0.067-1.624,1.085-2.039,1.543C17.031,18.875,15.789,21.895,15.634,22.014z"/>
			<path i:knockout="Off" fill="#79683E" d="M30.432,40.164c-0.129-0.237-0.257-0.475-0.386-0.712c-0.057,0-0.099,0-0.144,0
				c-0.185,0.287-0.472,0.61-0.71,0.661c-0.075-0.797-0.075-0.797-0.146-0.933c-0.457,0-0.684,0.509-0.997,0.645
				c0.071-0.509,0.071-0.509,0.042-0.764c-0.514,0-0.812,0.628-1.228,0.713c0-0.475,0-0.797-0.084-1.068
				c-0.373,0-0.671,0.185-0.973,0.221c0.143-1.104,0.8-2.377,1.03-3.562c0.227-2.801,2.752-8.976,5.634-8.127
				c1.612,3.326-1.126,8.907-1.598,12.417C30.76,39.927,30.646,40.164,30.432,40.164z"/>
			<path i:knockout="Off" fill="#987B37" d="M24.152,36.467c-2.368-0.254-4.637-0.968-6.336-2.783
				c-3.923-2.935-5.165-5.953-2.383-10.653c0.072-0.017,0.158-0.033,0.242-0.033c0.612,1.137,2.511,2.797,2.311,4.054
				c0,4.647,4.398,4.222,6.635,1.831c1.116-0.049,2.344-0.117,3.568-0.339c0.43-0.169,1.029-0.575,1.472-0.475
				c-1.657,2.358-2.968,4.056-3.213,7.296C25.893,36.195,24.923,36.314,24.152,36.467z"/>
			<path i:knockout="Off" fill="#987B37" d="M18.443,42.793c-4.024-1.271-1.854-6.58-4.479-8.667
				c-0.03,0.034-0.06,0.068-0.071,0.101c0.14,0.577,0.525,1.526,0.611,1.867c-0.026,0.016-0.057,0.032-0.068,0.066
				c-3.498-1.578-8.779,0.323-8.779-5.937c0.815-3.986,5.124-3.969,7.835-2.358c0.271,5.259,7.276,8.685,11.271,8.907
				C24.765,40.333,20.984,42.793,18.443,42.793z"/>
			<path i:knockout="Off" fill="#987B37" d="M34.656,21.962c-0.116-2.187-2.027-4.783-3.654-4.969c0-0.017,1.627-2.137,1.869-2.884
				c0-5.851-5.879-7.463-8.25-2.527c-0.054,0-0.096,0-0.141,0c-1.756-2.273-3.81-3.223-6.037-1.814
				c-0.026-0.034-0.042-0.069-0.057-0.085c7.336-6.039,16.896-1.714,17.097,9.737C35.411,20.045,35.083,21.588,34.656,21.962z"/>
			<path i:knockout="Off" d="M8.827,11.531C6.7,10.7,10.524,9.021,10.852,11.395C10.739,11.463,10.739,11.463,8.827,11.531z"/>
			<path i:knockout="Off" fill="#99AED3" d="M8.827,11.191c-0.059-0.034-0.116-0.068-0.172-0.085
				c-0.014-0.135-0.028-0.272-0.042-0.391c0.399-0.475,1.428-0.186,1.84,0.306C10.396,11.072,9.499,11.191,8.827,11.191z"/>
			<path i:knockout="Off" d="M13.592,9.428c-3.81-0.917-1.741-3.054-0.427-1.324c0.099,0.187,0.684,0.865,0.611,1.324
				C13.708,9.428,13.651,9.428,13.592,9.428z"/>
			<path i:knockout="Off" d="M39.708,9.156c-0.015-0.102-0.03-0.205-0.03-0.305c0.628-0.747,1.612-1.646,2.538-0.95
				C42.216,9.529,40.66,9.156,39.708,9.156z"/>
			<path i:knockout="Off" fill="#99AED3" d="M13.063,8.918c-0.798-0.169-1.514-0.136-1.284-1.103c0.8-0.356,1.012,0.271,1.528,1.017
				C13.251,8.918,13.251,8.918,13.063,8.918z"/>
			<path i:knockout="Off" d="M37.28,7.34c0-1.594,0.472-2.612,1.798-2.714C40.521,5.695,38.039,7.34,37.28,7.34z"/>
			<path i:knockout="Off" fill="#99AED3" d="M37.567,6.917c0.057-0.899,0.872-2.714,1.726-1.697
				C39.209,6.221,38.236,6.577,37.567,6.917z"/>
			<path i:knockout="Off" fill="#FABB69" d="M28.676,9.021v0.017v0.102c3.239,0,0.042,8.414-0.242,8.414
				c0.514,1.391,3.693,7.837-0.758,10.5h-0.084v0.034c0.427-0.103,0.827-0.222,1.2-0.373c0.068-0.069,0.084-0.052,0.17-0.052
				c1.968-0.761,3.497-2.12,5.15-4.562c1.299-2.799-2.17-5.666-3.953-6.055c0-0.086,0.016-0.171,0.03-0.255
				C34.74,14.703,31.987,9.308,28.676,9.021L28.676,9.021z M35.427,21.233c0.627-2.257-0.729-7.006,2.039-6.598
				c0.071-0.085,0.071-0.085,0.071-0.255c-1.239-0.492-1.809,1.001-2.141,0.917c-0.257-0.899-0.57-1.68-0.698-2.494
				C39.935,9.139,42.246,20.657,35.427,21.233z"/>
			<path i:knockout="Off" d="M25.293,25.034c-2.711-0.527-8.22-2.274-6.793-6.633c1.386-1.528,3.983,0.203,5.808,0.119
				c0.045-0.305,0.09-0.611,0.146-0.916c-2.156-1.223,0.982-2.766,1.182-0.611c-0.785,0.747-0.871,0.238-0.97,1.629
				c2.699-0.069,7.008-3.02,7.249,2.155C31.36,24.473,27.834,25.034,25.293,25.034z"/>
			<path i:knockout="Off" fill="#FF9900" d="M25.293,24.694c-1.609-0.272-3.509-0.933-4.766-1.797
				c-0.015-0.085-0.029-0.17-0.029-0.255c2.457-2.629,5.108-2.357,8.121-1.39c0.441,0.254,1.94,1.033,1.782,2.019
				C28.577,24.507,27.293,24.694,25.293,24.694z"/>
			<path i:knockout="Off" fill="#FF6600" d="M30.718,22.726c-2.454-3.783-7.892-3.087-10.519-0.17c-1.183,0-2.768-3.714-0.57-4.41
				c3.425,0.204,5.622,1.255,9.276-0.068c2.81-0.102,3.339,1.985,1.956,4.648C30.802,22.726,30.76,22.726,30.718,22.726z"/>
			<path i:knockout="Off" fill="#FFFFFF" d="M24.051,16.789c-0.012-0.084-0.027-0.169-0.027-0.255
				c0.257-0.254,0.374-0.187,0.741-0.22C24.695,16.653,24.239,16.754,24.051,16.789z"/>
			<path i:knockout="Off" d="M26.523,15.771c-0.389-1.832,3.681-3.935,5.191-2.917c-0.17,0.288-0.34,0.169-0.528,0.084
				c-2.054-0.084-2.609,0.237-4.097,1.917C26.564,15.806,26.564,15.806,26.523,15.771z"/>
			<path i:knockout="Off" d="M23.054,15.482c-2.069-3.154-2.383-2.494-5.136-2.121c0-0.083,0-0.152,0.012-0.22
				c2.258-1.526,3.882-0.033,5.381,2.087c-0.016,0.068-0.016,0.135-0.016,0.203C23.209,15.449,23.125,15.465,23.054,15.482z"/>
			<path i:knockout="Off" d="M21.486,11.751c-0.615-2.222-0.988-0.306-1.416-0.475c0-1.239,1.657-1.476,1.526,0.457
				C21.527,11.785,21.527,11.785,21.486,11.751z"/>
			<path i:knockout="Off" d="M27.479,11.751c-0.559-0.661,0.913-1.256,1.525-0.898c0.016,0.305,0.016,0.305-0.057,0.39
				c-0.483-0.102-1.257-0.356-1.328,0.542C27.562,11.768,27.521,11.751,27.479,11.751z"/>
			<path i:knockout="Off" fill="#99AED3" d="M40.606,8.816c-0.143-0.018-0.286-0.034-0.43-0.034c0-0.492,1.355-1.069,1.785-0.729
				c0,0.102,0,0.22,0,0.339C41.506,8.935,41.192,8.799,40.606,8.816z"/>
			<path i:knockout="Off" fill="#79683E" d="M20.098,35.787c0,3.359-0.737,4.377-3.708,5.379c0.412,0.729,1.026,1.305,2.054,1.627
				c2.541,0,6.321-2.46,6.321-6.021C24.039,36.738,20.029,35.704,20.098,35.787z"/>
			<path i:knockout="Off" fill="#79683E" d="M26.191,28.799c-0.125,4.257-1.911,6.498-5.607,6.801
				c1.114,0.477,2.326,0.73,3.568,0.866c0.771-0.152,1.74-0.271,2.296-1.102c0.245-3.24,1.556-4.938,3.213-7.296
				c-0.442-0.1-1.042,0.306-1.472,0.475C27.521,28.662,26.849,28.749,26.191,28.799z"/>
			<path i:knockout="Off" fill="#987B37" d="M29.491,28.698c0.868-1.102,1.896-1.765,2.979-1.46
				c0.057,0.119,0.116,0.255,0.158,0.373C32.059,32.242,29.076,34.854,29.491,28.698z"/>
			<path i:knockout="Off" fill="#79683E" d="M14.033,34.686c0.174,0.542,0.403,1.154,0.472,1.408
				c-0.026,0.016-0.057,0.032-0.068,0.066c-2.94-1.32-7.138-0.187-8.407-3.512c2.324-0.355,5.894,1.29,7.648,1.444l0.087,0.103
				v0.102h0.084l0.086,0.102v0.102v0.102l0.087,0.085H14.033z"/>
		</g>
	</g>
</g>
</svg>
