<?xml version="1.0" encoding="utf-8"?>
<!-- Generator: Adobe Illustrator 12.0.0, SVG Export Plug-In . SVG Version: 6.00 Build 51448)  -->
<!DOCTYPE svg PUBLIC "-//W3C//DTD SVG 1.1//EN" "http://www.w3.org/Graphics/SVG/1.1/DTD/svg11.dtd" [
	<!ENTITY ns_flows "http://ns.adobe.com/Flows/1.0/">
	<!ENTITY ns_extend "http://ns.adobe.com/Extensibility/1.0/">
	<!ENTITY ns_ai "http://ns.adobe.com/AdobeIllustrator/10.0/">
	<!ENTITY ns_graphs "http://ns.adobe.com/Graphs/1.0/">
	<!ENTITY ns_vars "http://ns.adobe.com/Variables/1.0/">
	<!ENTITY ns_imrep "http://ns.adobe.com/ImageReplacement/1.0/">
	<!ENTITY ns_sfw "http://ns.adobe.com/SaveForWeb/1.0/">
	<!ENTITY ns_custom "http://ns.adobe.com/GenericCustomNamespace/1.0/">
	<!ENTITY ns_adobe_xpath "http://ns.adobe.com/XPath/1.0/">
	<!ENTITY ns_svg "http://www.w3.org/2000/svg">
	<!ENTITY ns_xlink "http://www.w3.org/1999/xlink">
]>
<svg  version="1.1"
	 xmlns:x="&ns_extend;" xmlns:i="&ns_ai;" xmlns:graph="&ns_graphs;" i:viewOrigin="-0.2363 65" i:rulerOrigin="0 0" i:pageBounds="0 65 45 0"
	 xmlns="&ns_svg;" xmlns:xlink="&ns_xlink;" xmlns:a="http://ns.adobe.com/AdobeSVGViewerExtensions/3.0/"
	 width="45.73" height="65.236" viewBox="0 0 45.73 65.236" overflow="visible" enable-background="new 0 0 45.73 65.236"
	 xml:space="preserve">
<metadata>
	<variableSets  xmlns="&ns_vars;">
		<variableSet  varSetName="binding1" locked="none">
			<variables></variables>
			<v:sampleDataSets  xmlns:v="&ns_vars;" xmlns="&ns_custom;"></v:sampleDataSets>
		</variableSet>
	</variableSets>
</metadata>
<g id="图层_1" i:layer="yes" i:dimmedPercent="50" i:rgbTrio="#4F008000FFFF">
	<g>
		<g i:knockout="Off">
			<path fill="#333333" d="M1.18,47.468v12.076c0,2.491,1.625,4.511,3.622,4.511h37.307c2.001,0,3.622-2.02,3.622-4.511h-0.003
				V3.807C45.728,1.705,44.106,0,42.108,0H4.802c-2,0-3.619,1.705-3.619,3.807H1.18v43.652C1.18,47.46,1.18,47.465,1.18,47.468z"/>
			
				<linearGradient id="XMLID_3_" gradientUnits="userSpaceOnUse" x1="-41.7046" y1="22.0122" x2="-41.7046" y2="82.7583" gradientTransform="matrix(1 0 0 -1 64.2148 87.0117)">
				<stop  offset="0.0393" style="stop-color:#0060B6"/>
				<stop  offset="0.0899" style="stop-color:#2089B9"/>
				<stop  offset="0.0985" style="stop-color:#4FA3C2"/>
				<stop  offset="0.1071" style="stop-color:#77B9CA"/>
				<stop  offset="0.1138" style="stop-color:#8FC7CF"/>
				<stop  offset="0.118" style="stop-color:#98CCD1"/>
				<stop  offset="0.1341" style="stop-color:#9ECFD3"/>
				<stop  offset="0.156" style="stop-color:#AFD6D9"/>
				<stop  offset="0.1809" style="stop-color:#CBE1E3"/>
				<stop  offset="0.1966" style="stop-color:#E1EAEB"/>
				<a:midPointStop  offset="0.0393" style="stop-color:#0060B6"/>
				<a:midPointStop  offset="0.5" style="stop-color:#0060B6"/>
				<a:midPointStop  offset="0.0899" style="stop-color:#2089B9"/>
				<a:midPointStop  offset="0.5" style="stop-color:#2089B9"/>
				<a:midPointStop  offset="0.0985" style="stop-color:#4FA3C2"/>
				<a:midPointStop  offset="0.5" style="stop-color:#4FA3C2"/>
				<a:midPointStop  offset="0.1071" style="stop-color:#77B9CA"/>
				<a:midPointStop  offset="0.5" style="stop-color:#77B9CA"/>
				<a:midPointStop  offset="0.1138" style="stop-color:#8FC7CF"/>
				<a:midPointStop  offset="0.5" style="stop-color:#8FC7CF"/>
				<a:midPointStop  offset="0.118" style="stop-color:#98CCD1"/>
				<a:midPointStop  offset="0.5" style="stop-color:#98CCD1"/>
				<a:midPointStop  offset="0.1341" style="stop-color:#9ECFD3"/>
				<a:midPointStop  offset="0.5" style="stop-color:#9ECFD3"/>
				<a:midPointStop  offset="0.156" style="stop-color:#AFD6D9"/>
				<a:midPointStop  offset="0.5" style="stop-color:#AFD6D9"/>
				<a:midPointStop  offset="0.1809" style="stop-color:#CBE1E3"/>
				<a:midPointStop  offset="0.5" style="stop-color:#CBE1E3"/>
				<a:midPointStop  offset="0.1966" style="stop-color:#E1EAEB"/>
			</linearGradient>
			<path fill="url(#XMLID_3_)" d="M44.784,60.488c0,2.492-1.621,4.512-3.619,4.512H3.855c-1.998,0-3.619-2.02-3.619-4.512V8.765
				c0-2.49,1.624-4.511,3.619-4.511h37.31c1.998,0,3.619,2.021,3.619,4.511V60.488L44.784,60.488z"/>
			<path fill="none" stroke="#333333" stroke-width="0.4727" d="M44.784,60.488c0,2.492-1.621,4.512-3.619,4.512H3.855
				c-1.998,0-3.619-2.02-3.619-4.512V8.765c0-2.49,1.624-4.511,3.619-4.511h37.31c1.998,0,3.619,2.021,3.619,4.511V60.488
				L44.784,60.488z"/>
			<path fill="#FFFFFF" d="M0.236,4.752c0-2.101,1.621-3.807,3.619-3.807h37.307c2.001,0,3.622,1.705,3.622,3.807v43.651
				c0,2.103-1.625,3.806-3.622,3.806H3.855c-1.998,0-3.619-1.703-3.619-3.807V4.752L0.236,4.752z"/>
			
				<linearGradient id="XMLID_4_" gradientUnits="userSpaceOnUse" x1="2.5527" y1="25.2324" x2="46.6465" y2="25.2324" gradientTransform="matrix(-1 0 0 1 47.1094 1.3447)">
				<stop  offset="0" style="stop-color:#A2D8E0"/>
				<stop  offset="0.0899" style="stop-color:#1878AD"/>
				<stop  offset="0.2135" style="stop-color:#194D91"/>
				<stop  offset="0.6404" style="stop-color:#2B90BD"/>
				<stop  offset="0.9438" style="stop-color:#82CBDE"/>
				<stop  offset="1" style="stop-color:#1A478D"/>
				<a:midPointStop  offset="0" style="stop-color:#A2D8E0"/>
				<a:midPointStop  offset="0.5" style="stop-color:#A2D8E0"/>
				<a:midPointStop  offset="0.0899" style="stop-color:#1878AD"/>
				<a:midPointStop  offset="0.5" style="stop-color:#1878AD"/>
				<a:midPointStop  offset="0.2135" style="stop-color:#194D91"/>
				<a:midPointStop  offset="0.5" style="stop-color:#194D91"/>
				<a:midPointStop  offset="0.6404" style="stop-color:#2B90BD"/>
				<a:midPointStop  offset="0.5" style="stop-color:#2B90BD"/>
				<a:midPointStop  offset="0.9438" style="stop-color:#82CBDE"/>
				<a:midPointStop  offset="0.5" style="stop-color:#82CBDE"/>
				<a:midPointStop  offset="1" style="stop-color:#1A478D"/>
			</linearGradient>
			<path i:isolated="yes" i:knockout="Off" opacity="0.1" fill="url(#XMLID_4_)" enable-background="new    " d="M0.463,4.752
				c0-2.101,1.603-3.807,3.577-3.807h36.937c1.977,0,3.58,1.705,3.58,3.807v43.651c0,2.103-1.604,3.806-3.58,3.806H4.043
				c-1.977,0-3.58-1.703-3.58-3.807V4.752L0.463,4.752z"/>
			<path fill="none" stroke="#4D4D4D" stroke-width="0.4727" d="M0.236,48.413v12.075C0.236,62.98,1.857,65,3.855,65h37.31
				c1.998,0,3.619-2.02,3.619-4.512V4.752c0-2.102-1.625-3.806-3.622-3.806H3.855c-1.998,0-3.619,1.705-3.619,3.806v43.651
				C0.236,48.406,0.236,48.409,0.236,48.413z"/>
		</g>
		<g>
			<path i:knockout="Off" d="M7.065,45.836c-4.333-1.188-0.167-3.738,1.597-4.984c0.74-0.92,0.958-3.122,0.958-4.312
				c-1.424-1.343-2.988,1.477-4.923-1.726c-0.836-2.224-0.759-3.355,0.606-4.982c0.37-0.25,0.585-0.269,0.648-0.71
				c-2.756-3.123-3.514-6.383-2.583-10.658c0-2.241-0.713-4.312-0.713-6.209c0.618-0.766,2.15,0.96,3.063,1.112
				c0.621-0.576,1.89-1.994,2.323-2.703c-0.325-0.114-0.651-0.229-0.976-0.325c-0.556-1.379,3.096-1.803,3.669-2.684
				c-0.17-0.289-0.341-0.556-0.496-0.824c0.048-0.346,0.048-0.308,0.186-0.479c3.159,0.268,2.245,0.785,4.18-1.61
				c2.338,1.054,2.15,1.417,4.178-0.116c0.932,0.152,1.269,1.707,2.57,1.839c0.898-0.133,1.95-0.229,2.938-0.249
				c0.077,0.135,0.173,0.268,0.266,0.421c-0.219,0.383-0.466,0.383-0.466,0.958c0.636,0.518,2.383,1.112,2.49,2.108
				c-0.275,0.211-0.275,0.211-0.526,0.249c0,0.404,1.609,2.052,2.834,3.719c0.791-0.843,1.765-2.759,2.83-2.913
				c0.499,0.613-1.11,7.82-0.585,10.389c0,4.005-1.812,8.051-4.924,9.661c-0.015,0.078-0.029,0.152-0.029,0.23
				c0.929,0.709,1.779,1.515,2.756,2.548c1.006,0,5.123-2.548,5.494-4.083c0.029-0.038,0.06-0.075,0.107-0.114
				c0-5.328,2.102-8.741,6.84-6.497c0.11,0.115,1.702,1.34,1.132,2.049c-7.864,0-2.679,11.192,0.743,3.489
				c0.093-0.021,0.183-0.039,0.29-0.039c0.884,1.379,0.032,4.177-0.863,5.406c-2.167,2.146-4.721,1.303-6.407-0.978
				c-1.953,0-5.652,2.971-6.844,5.196c-1.313,1.188-8.201,2.721-3.528,4.369c1.349,0.748,2.277,1.456,0.617,2.874
				c-1.235,0.325-8.787,1.496-9.127-0.671c-0.791-0.037-1.535-0.574-2.075-0.516C15.159,46.851,8.507,45.836,7.065,45.836
				L7.065,45.836z M23.782,37.69c0.2,0,0.433-0.308,0.633-0.518c-0.015-0.192-0.03-0.384-0.048-0.578
				C23.938,36.595,23.72,37.151,23.782,37.69z"/>
			<path i:knockout="Off" fill="#FFCC00" d="M15.47,43.269c-0.233-0.098,0.045-2.147,0.107-2.38c0.093,0.596,0.403,1.553,0.311,2.38
				C15.747,43.269,15.61,43.269,15.47,43.269L15.47,43.269z M12.48,42.577c-1.113-0.46-2.149-0.959-3.078-1.494
				c0-0.863,0.637-2.685,0.807-3.526c1.176,0.382,2.427,0.421,3.714,0.633c-0.588,1.514-0.913,2.644-1.287,4.388
				C12.576,42.577,12.528,42.577,12.48,42.577L12.48,42.577z M18.781,43.572c0-2.088-1.439-3.775-1.547-5.117
				c1.949,0,3.962-0.211,5.927-0.362c0.141,0.286,0.511,3.468,0.466,3.832C22,42.558,20.408,43.113,18.781,43.572L18.781,43.572z
				 M12.684,36.502c-1.438-0.25-1.438-0.25-2.94-0.671c0-1.726,0.851-2.971,1.191-4.411c0.929,0.154,3.358,1.938,3.64,3.335
				c-0.451,0.576-0.884,1.151-1.317,1.746C13.054,36.502,12.869,36.502,12.684,36.502L12.684,36.502z M15.222,36.732
				c0.218-1.095,3.962-4.046,4.891-4.583c1.347-0.115,1.857-0.25,2.849-0.305c0.062,0.382,0.759,3.66,0.525,4.255
				C20.656,36.425,17.963,36.654,15.222,36.732z"/>
			<path i:knockout="Off" fill="#987B37" d="M29.661,36.021c-0.37-0.785-0.959-1.054-0.311-1.726
				c0.406-0.247,4.968-3.392,5.264-3.315c0.078,0.173,0.389,0.709,0.389,1.151C34.521,32.478,30.097,36.119,29.661,36.021
				L29.661,36.021z M23.89,40.278c-0.311-1.074,0.077-2.896,1.236-2.665c0.155,0.44,0.247,0.631,0.681,1.093
				c-0.016,0.077-0.03,0.172-0.045,0.267C25.344,39.279,24.26,40.278,23.89,40.278L23.89,40.278z M35.746,32.092
				c0.263,0.326-0.296-1.112-0.621-2.012c-0.074-0.02-0.138-0.039-0.2-0.057C34.892,30.847,34.939,31.594,35.746,32.092z"/>
			<path i:knockout="Off" fill="#999999" d="M39.412,34.335c-7.073-2.186-4.69-15.026,2.275-10.331
				c-0.185,0.23-1.316,0.326-1.502,0.364c-4.846,2.511-1.331,11.042,2.894,5.808c0.062-0.039,0.125-0.076,0.203-0.096
				C43.372,33.107,41.658,34.335,39.412,34.335z"/>
			<path i:knockout="Off" fill="#FF9900" d="M14.804,34.259c-0.666-0.558-1.731-1.65-1.857-2.32
				c0.837,0.076,1.891,0.577,2.368,1.784c-0.122,0.172-0.248,0.344-0.355,0.536C14.896,34.259,14.852,34.259,14.804,34.259
				L14.804,34.259z M13.878,36.634c1.358-0.478,4.1-3.507,5.258-4.312c-2.475-0.209-4.254,1.648-5.413,4.272
				C13.768,36.595,13.815,36.616,13.878,36.634L13.878,36.634z M15.377,38.169c-0.48-0.23-0.373-0.384-0.403-0.729
				c0.233-0.288,0.248-0.306,0.651-0.306c0.17,0.249,0.185,0.288,0.229,0.805C15.625,38.169,15.565,38.169,15.377,38.169
				L15.377,38.169z M17.745,38.093c-1.036-0.115-1.055-0.25-1.702-1.055c2.353,0,4.75-0.327,7.166-0.498
				c-0.033,0.362-0.062,0.727-0.078,1.093C21.507,38.169,19.307,38.034,17.745,38.093L17.745,38.093z M12.994,37.709
				c-1.113-0.076-2.723,0.173-2.833-1.304c2.785,0.479,2.785,0.479,4.442,0.652C14.604,37.882,13.302,37.709,12.994,37.709
				L12.994,37.709z M14.696,43.208c0.093-0.018,0.186-0.018,0.277-0.018c0.171-1.648,0.281-3.183,0.296-4.715
				c-0.358-0.25-0.528-0.537-0.806-0.537c-0.759,1.418-1.41,2.818-1.41,4.676C13.598,42.809,14.138,42.998,14.696,43.208
				L14.696,43.208z M16.661,43.842c0.711-0.057,1.054,0.077,1.717-0.536c0-2.013-1.158-4.065-2.024-5.463c-0.062,0-0.11,0-0.155,0
				C15.625,38.973,15.732,42.883,16.661,43.842z"/>
			<path i:knockout="Off" fill="#CCEA97" d="M15.532,33.377c-0.466-0.46-0.803-0.823-0.991-1.246c1.92,0.095,1.92,0.095,2.228,0.191
				C16.506,32.57,15.825,33.377,15.532,33.377L15.532,33.377z M26.982,38.418c-1.269-0.136-1.546-0.499-1.809-1.823
				c-1.487-0.46-1.735-3.774-1.857-4.905c2.152-0.499,5.386,0.48,5.386,4.083c-0.555,0.557-1.054,0.978-1.594,0.44
				c0.355-1.457,0.588-0.92,1.113-1.723c-0.463-0.576-2.245,1.492-0.881,2.336c0.496,0,1.251-0.324,1.654-0.9
				c0.048,0,0.096,0.02,0.155,0.039C29.398,37.747,28.222,38.418,26.982,38.418L26.982,38.418z M6.913,35.926
				c-2.353-0.824-3.141-5.098-0.621-5.807c0.761-1.245-0.152-2.108,1.347-2.244c0.233,0.882,0.947,4.603,0.433,5.731
				c-0.541,0.46-0.541,0.46-0.851,0.594c-0.015,0.096-0.03,0.192-0.03,0.29c0.015,0.018,0.045,0.037,0.078,0.076
				c1.409-0.691,1.425-1.687,1.473-3.259c0.569-0.479,1.158-0.192,1.824-0.078C10.564,33.953,8.97,35.926,6.913,35.926L6.913,35.926
				z M3.924,16.931c-0.152-0.919-0.711-3.124-0.618-4.005C5.641,13.27,6.106,15.13,3.924,16.931L3.924,16.931z M30.327,17.947
				c-0.248-0.69-1.207-2.78-1.207-3.584c0.559-0.69,1.347-2.222,2.136-2.415c-0.248,1.993-0.479,3.986-0.852,5.999
				C30.375,17.947,30.342,17.947,30.327,17.947L30.327,17.947z M16.398,31.9c5.741,0,12.148-0.402,14.054-8.395
				c0.274-5.002-2.678-14.414-7.398-13.206c-0.141,1.132,0.836,2.568,0.836,3.834c-0.573,0.498-3.56-1.879-4.783-1.879
				c-0.633,1.208-1.547,2.913-2.397,3.873c-0.11-0.02-0.218-0.039-0.311-0.039c-0.604-1.648-1.177-3.104-1.95-4.447
				c-0.773-0.575-3.606,1.726-4.598,1.898c0.141-0.881,0.977-2.397,1.287-3.258c-5.575,0.134-9.519,10.562-6.44,16.482
				c0.28,0.347,1.021,1.535,1.672,1.535c0.355-0.824,0.528-0.882,1.361-0.806c0.418,0.711,0.403,1.439,0.418,2.493
				C10.779,31.173,13.457,31.65,16.398,31.9L16.398,31.9z M17.127,9.092c-0.898-0.114-3.763-0.249-3.947-1.437
				c1.824-1.515,6.577-1.438,8.387,0.248C20.838,9.034,18.163,9.092,17.127,9.092L17.127,9.092z M19.713,45.184
				c-0.606-0.076-1.765-0.249-1.812-0.978c1.283-0.517,8.805-3.661,8.59,0.247C24.926,45.567,21.352,45.184,19.713,45.184
				L19.713,45.184z M8.411,45.26c-1.006-0.076-1.887-0.057-2.583-0.651c0-1.878,2.243-2.242,3.201-3.257
				c1.412,0.247,3.857,1.819,5.619,2.472c0.081,0.383,0.081,0.383,0.048,0.92C12.669,45.317,10.379,45.184,8.411,45.26z"/>
			<path i:knockout="Off" d="M16.198,29.793c-1.316-0.729-1.069-3.162-0.203-4.084C17.697,25.422,18.333,29.542,16.198,29.793z"/>
			<path i:knockout="Off" fill="#FF9900" d="M16.15,29.408c-1.113-1.054-0.511-2.28-0.062-3.314
				C17.419,26.094,17.915,29.408,16.15,29.408z"/>
			<path i:knockout="Off" d="M20.375,22.701c-3.947-1.705-0.647-8.03,2.061-4.16C23.254,20.747,22.34,22.701,20.375,22.701z"/>
			<path i:knockout="Off" fill="#FFFFFF" d="M20.375,22.317c-0.077-0.018-0.137-0.018-0.2-0.018
				c0.389-1.457,2.135-2.723,0.093-4.295c0-0.077,0-0.133,0-0.191C23.086,17.812,23.361,22.317,20.375,22.317z"/>
			<path i:knockout="Off" d="M12.281,21.992c-1.765-0.538-2.088-2.147-1.332-4.045C13.412,14.555,16.846,21.532,12.281,21.992z"/>
			<path i:knockout="Off" fill="#FFFFFF" d="M19.602,21.742c-0.695-0.422-0.388-1.649,0.155-1.151
				c0.881-0.152,0.448-1.225,1.081-1.302C20.979,20.765,20.916,21.627,19.602,21.742z"/>
			<path i:knockout="Off" fill="#FFFFFF" d="M12.065,21.55c-2.06-0.824-1.549-3.833,0.618-3.986
				c-0.928,1.533-1.299,2.012-0.34,3.968C12.251,21.532,12.158,21.532,12.065,21.55z"/>
			<path i:knockout="Off" fill="#FFFFFF" d="M12.994,21.358c-1.054-0.516-0.854-0.824-0.514-1.59
				c0.358,0.059,0.573,0.193,1.132,0.248c0.218-0.267,0.233-0.669,0.589-0.594C14.153,20.591,14.138,21.358,12.994,21.358z"/>
			<path i:knockout="Off" fill="#FFFFFF" d="M19.957,19.193c-0.244-0.46-0.215-0.518-0.229-0.804c0.152,0,1.11-0.039,0.726,0.766
				C20.283,19.155,20.112,19.174,19.957,19.193z"/>
			<path i:knockout="Off" fill="#FFFFFF" d="M13.567,19.059c-0.218-0.441-0.311-0.576-0.266-0.92
				c0.218-0.096,0.218-0.096,0.421-0.096c0.155,0.192,0.386,0.384,0.386,0.919C13.982,19.059,13.982,19.059,13.567,19.059z"/>
			<path i:knockout="Off" d="M12.174,14.9c-0.278-0.191-0.248-0.326-0.263-0.46c0.525,0.209,0.88,0.115,1.453-0.116
				c0.016,0.02,0.03,0.058,0.048,0.096C12.979,14.861,12.576,14.9,12.174,14.9z"/>
			<path i:knockout="Off" d="M21.304,14.9c-0.511-0.173-0.695-0.441-0.958-0.728c0-0.077,0.015-0.154,0.029-0.23
				c0.233,0,0.914,0.517,1.547,0.613C21.784,15.053,21.566,14.9,21.304,14.9z"/>
			<path i:knockout="Off" fill="#008D54" d="M13.982,6.831C14.264,5.048,15.1,5.7,16.088,6.16
				C15.503,6.485,14.604,6.542,13.982,6.831L13.982,6.831z M19.494,6.466c-0.466-0.114-0.466-0.114-1.642-0.21
				c0.34-1.726,1.486-0.46,2.012,0.152C19.802,6.466,19.802,6.466,19.494,6.466L19.494,6.466z M16.613,15.647
				c-2.383-6.039-1.329-4.734-6.097-2.818c0.325-1.055,0.868-2.051,1.113-2.99c-0.385-0.038-1.624,0.077-3.171,0
				c0.015-0.077,0.03-0.134,0.048-0.191c2.165-1.15,3.063-0.479,2.738-2.569c1.546,0.231,1.546,0.231,1.594,0.287
				c-0.263,0.27-0.28,0.212-0.34,0.614c2.615,1.611,6.855,2.397,9.44,0.058c-0.018-0.171-0.018-0.345-0.018-0.499
				c-0.293-0.154-0.43-0.306-0.463-0.46c0.881-0.096,0.881-0.096,2.013-0.057c-0.17,0.288-0.341,0.344-0.341,0.767
				c0.37,0.46,1.75,0.708,2.043,1.457c-0.326,0.402-2.088,0.613-2.523,0.708c0.048,0.941,0.914,3.03,0.773,3.739
				c-1.299-0.614-3.219-2.014-4.487-1.821C18.799,12.12,16.786,15.857,16.613,15.647z"/>
			<path i:knockout="Off" fill="#CCCCCC" d="M39.442,23.025c0.681,0.116,1.442,0.424,2.245,0.979
				c-0.185,0.23-1.316,0.326-1.502,0.364c-4.846,2.511-1.331,11.042,2.894,5.808c0.062-0.039,0.125-0.076,0.203-0.096
				c0.015,0.479-0.015,0.9-0.093,1.302C38.576,37,33.035,28.508,39.442,23.025z"/>
			<path i:knockout="Off" fill="#A3BB78" d="M18.085,6.62c0.48,0.363,1.162,0.766,1.332,1.247c0.141,0,0.141,0.171,0.141,0.171h0.06
				c0.17,0.25,0.34,0.479,0.511,0.729c0.62-0.173,1.176-0.44,1.438-0.864C20.793,7.175,19.479,6.754,18.085,6.62L18.085,6.62z
				 M22.62,13.845c0.045,0.193,0.093,0.365,0.138,0.537c5.446,14.396-1.469,15.946-2.057,17.231c-0.016,0.02-0.03,0.058-0.03,0.097
				c4.348-0.481,8.339-2.186,9.781-8.205c0.274-5.002-2.678-14.414-7.398-13.206c-0.141,1.132,0.836,2.568,0.836,3.834
				C23.687,14.286,23.224,14.134,22.62,13.845L22.62,13.845z M23.409,32.515c-0.048-0.327-0.063-0.615-0.093-0.826
				c2.152-0.499,5.386,0.48,5.386,4.083c-0.447,0.44-0.865,0.806-1.302,0.633c-0.06-0.153-0.152-0.286-0.229-0.44
				c0.322-1.15,0.556-0.729,1.051-1.475c-0.277-0.364-1.065,0.287-1.316,1.033C26.257,34.43,24.57,32.227,23.409,32.515
				L23.409,32.515z M27.604,36.789c0.2,0.438,0.389,0.901,0.556,1.38c0.698-0.347,1.161-1.035,0.991-2.204
				c-0.06-0.02-0.107-0.039-0.155-0.039C28.655,36.405,28.069,36.711,27.604,36.789L27.604,36.789z M30.327,17.947
				c-0.248-0.69-1.207-2.78-1.207-3.584c0.559-0.69,1.347-2.222,2.136-2.415c-0.248,1.993-0.479,3.986-0.852,5.999
				C30.375,17.947,30.342,17.947,30.327,17.947z"/>
		</g>
	</g>
</g>
</svg>
