<?xml version="1.0" encoding="utf-8"?>
<!-- Generator: Adobe Illustrator 12.0.0, SVG Export Plug-In . SVG Version: 6.00 Build 51448)  -->
<!DOCTYPE svg PUBLIC "-//W3C//DTD SVG 1.1//EN" "http://www.w3.org/Graphics/SVG/1.1/DTD/svg11.dtd" [
	<!ENTITY ns_flows "http://ns.adobe.com/Flows/1.0/">
	<!ENTITY ns_extend "http://ns.adobe.com/Extensibility/1.0/">
	<!ENTITY ns_ai "http://ns.adobe.com/AdobeIllustrator/10.0/">
	<!ENTITY ns_graphs "http://ns.adobe.com/Graphs/1.0/">
	<!ENTITY ns_vars "http://ns.adobe.com/Variables/1.0/">
	<!ENTITY ns_imrep "http://ns.adobe.com/ImageReplacement/1.0/">
	<!ENTITY ns_sfw "http://ns.adobe.com/SaveForWeb/1.0/">
	<!ENTITY ns_custom "http://ns.adobe.com/GenericCustomNamespace/1.0/">
	<!ENTITY ns_adobe_xpath "http://ns.adobe.com/XPath/1.0/">
	<!ENTITY ns_svg "http://www.w3.org/2000/svg">
	<!ENTITY ns_xlink "http://www.w3.org/1999/xlink">
]>
<svg  version="1.1"
	 xmlns:x="&ns_extend;" xmlns:i="&ns_ai;" xmlns:graph="&ns_graphs;" i:viewOrigin="-0.2363 65" i:rulerOrigin="0 0" i:pageBounds="0 65 45 0"
	 xmlns="&ns_svg;" xmlns:xlink="&ns_xlink;" xmlns:a="http://ns.adobe.com/AdobeSVGViewerExtensions/3.0/"
	 width="45.73" height="65.236" viewBox="0 0 45.73 65.236" overflow="visible" enable-background="new 0 0 45.73 65.236"
	 xml:space="preserve">
<metadata>
	<variableSets  xmlns="&ns_vars;">
		<variableSet  varSetName="binding1" locked="none">
			<variables></variables>
			<v:sampleDataSets  xmlns:v="&ns_vars;" xmlns="&ns_custom;"></v:sampleDataSets>
		</variableSet>
	</variableSets>
</metadata>
<g id="图层_1" i:layer="yes" i:dimmedPercent="50" i:rgbTrio="#4F008000FFFF">
	<g>
		<g i:knockout="Off">
			<path fill="#333333" d="M1.183,47.468v12.076c0,2.491,1.622,4.511,3.619,4.511h37.307c2.001,0,3.622-2.02,3.622-4.511l0,0V3.807
				C45.73,1.705,44.106,0,42.108,0H4.802C2.804,0,1.183,1.705,1.183,3.807l0,0v43.652C1.183,47.46,1.183,47.465,1.183,47.468z"/>
			
				<linearGradient id="XMLID_3_" gradientUnits="userSpaceOnUse" x1="-41.7017" y1="22.0122" x2="-41.7017" y2="82.7583" gradientTransform="matrix(1 0 0 -1 64.2148 87.0117)">
				<stop  offset="0.0393" style="stop-color:#0060B6"/>
				<stop  offset="0.0899" style="stop-color:#2089B9"/>
				<stop  offset="0.0985" style="stop-color:#4FA3C2"/>
				<stop  offset="0.1071" style="stop-color:#77B9CA"/>
				<stop  offset="0.1138" style="stop-color:#8FC7CF"/>
				<stop  offset="0.118" style="stop-color:#98CCD1"/>
				<stop  offset="0.1341" style="stop-color:#9ECFD3"/>
				<stop  offset="0.156" style="stop-color:#AFD6D9"/>
				<stop  offset="0.1809" style="stop-color:#CBE1E3"/>
				<stop  offset="0.1966" style="stop-color:#E1EAEB"/>
				<a:midPointStop  offset="0.0393" style="stop-color:#0060B6"/>
				<a:midPointStop  offset="0.5" style="stop-color:#0060B6"/>
				<a:midPointStop  offset="0.0899" style="stop-color:#2089B9"/>
				<a:midPointStop  offset="0.5" style="stop-color:#2089B9"/>
				<a:midPointStop  offset="0.0985" style="stop-color:#4FA3C2"/>
				<a:midPointStop  offset="0.5" style="stop-color:#4FA3C2"/>
				<a:midPointStop  offset="0.1071" style="stop-color:#77B9CA"/>
				<a:midPointStop  offset="0.5" style="stop-color:#77B9CA"/>
				<a:midPointStop  offset="0.1138" style="stop-color:#8FC7CF"/>
				<a:midPointStop  offset="0.5" style="stop-color:#8FC7CF"/>
				<a:midPointStop  offset="0.118" style="stop-color:#98CCD1"/>
				<a:midPointStop  offset="0.5" style="stop-color:#98CCD1"/>
				<a:midPointStop  offset="0.1341" style="stop-color:#9ECFD3"/>
				<a:midPointStop  offset="0.5" style="stop-color:#9ECFD3"/>
				<a:midPointStop  offset="0.156" style="stop-color:#AFD6D9"/>
				<a:midPointStop  offset="0.5" style="stop-color:#AFD6D9"/>
				<a:midPointStop  offset="0.1809" style="stop-color:#CBE1E3"/>
				<a:midPointStop  offset="0.5" style="stop-color:#CBE1E3"/>
				<a:midPointStop  offset="0.1966" style="stop-color:#E1EAEB"/>
			</linearGradient>
			<path fill="url(#XMLID_3_)" d="M44.787,60.488c0,2.492-1.624,4.512-3.619,4.512H3.858c-1.998,0-3.619-2.02-3.619-4.512V8.765
				c0-2.49,1.621-4.511,3.619-4.511h37.307c2.001,0,3.619,2.021,3.619,4.511v51.724H44.787z"/>
			<path fill="none" stroke="#333333" stroke-width="0.4727" d="M44.787,60.488c0,2.492-1.624,4.512-3.619,4.512H3.858
				c-1.998,0-3.619-2.02-3.619-4.512V8.765c0-2.49,1.621-4.511,3.619-4.511h37.307c2.001,0,3.619,2.021,3.619,4.511v51.724H44.787z"
				/>
			<path fill="#FFFFFF" d="M0.236,4.752c0-2.101,1.624-3.807,3.622-3.807h37.307c2.001,0,3.619,1.705,3.619,3.807v43.651
				c0,2.103-1.621,3.806-3.619,3.806H3.858c-2,0-3.622-1.703-3.622-3.807V4.752L0.236,4.752z"/>
			
				<linearGradient id="XMLID_4_" gradientUnits="userSpaceOnUse" x1="2.5527" y1="25.2324" x2="46.6465" y2="25.2324" gradientTransform="matrix(-1 0 0 1 47.1094 1.3447)">
				<stop  offset="0" style="stop-color:#A2D8E0"/>
				<stop  offset="0.0899" style="stop-color:#1878AD"/>
				<stop  offset="0.2135" style="stop-color:#194D91"/>
				<stop  offset="0.6404" style="stop-color:#2B90BD"/>
				<stop  offset="0.9438" style="stop-color:#82CBDE"/>
				<stop  offset="1" style="stop-color:#1A478D"/>
				<a:midPointStop  offset="0" style="stop-color:#A2D8E0"/>
				<a:midPointStop  offset="0.5" style="stop-color:#A2D8E0"/>
				<a:midPointStop  offset="0.0899" style="stop-color:#1878AD"/>
				<a:midPointStop  offset="0.5" style="stop-color:#1878AD"/>
				<a:midPointStop  offset="0.2135" style="stop-color:#194D91"/>
				<a:midPointStop  offset="0.5" style="stop-color:#194D91"/>
				<a:midPointStop  offset="0.6404" style="stop-color:#2B90BD"/>
				<a:midPointStop  offset="0.5" style="stop-color:#2B90BD"/>
				<a:midPointStop  offset="0.9438" style="stop-color:#82CBDE"/>
				<a:midPointStop  offset="0.5" style="stop-color:#82CBDE"/>
				<a:midPointStop  offset="1" style="stop-color:#1A478D"/>
			</linearGradient>
			<path i:isolated="yes" i:knockout="Off" opacity="0.1" fill="url(#XMLID_4_)" enable-background="new    " d="M0.463,4.752
				c0-2.101,1.603-3.807,3.58-3.807h36.934c1.977,0,3.58,1.705,3.58,3.807v43.651c0,2.103-1.604,3.806-3.58,3.806H4.043
				c-1.977,0-3.577-1.703-3.577-3.807L0.463,4.752L0.463,4.752z"/>
			<path fill="none" stroke="#4D4D4D" stroke-width="0.4727" d="M0.236,48.413v12.075C0.236,62.98,1.86,65,3.858,65h37.307
				c2.001,0,3.619-2.02,3.619-4.512V4.752c0-2.102-1.621-3.806-3.619-3.806H3.858c-1.998,0-3.622,1.705-3.622,3.806v43.651
				C0.236,48.406,0.236,48.409,0.236,48.413z"/>
		</g>
		<g>
			<path i:knockout="Off" d="M16.384,6.04c4.612,0.541,9.279,1.758,13.687,2.65c1.907,0.785,2.084,0.988,1.977,2.976
				c2.107,0.663,1.553,2.447,0.701,3.841c0.678,1.014,1.084,0.96,1.38,2.11c-0.054,2.988-0.541,6.667-4.272,6.274
				c-0.609,1.001-0.609,1.001-0.637,1.165c4.031,0.364,2.111,9.058,4.058,9.574c1.434-2.976,8.426,1.5,3.476,5.396
				c-1.907,0.717-2.949-0.026-4.559-1.421c-0.039,0-0.093,0-0.146,0c-1.406,2.367-4.425,0.663-2.03,4.531
				c0.46,2.285-9.737,1.393-11.319,0.716c-0.958,0.607-7.127,0.434-8.304-0.46c0-0.094-0.015-0.189-0.026-0.297
				c1.191-1.433,6.368-2.096,8.005-2.138c-0.12-0.635-0.161-1.433-0.174-2.203c-0.095,0-0.202-0.014-0.313-0.042
				c-0.621,0.812-0.295,1.096-1.433,1.502c-2.894-0.054-3.23-2.812-1.92-5.192c1.191-1.164,1.299-3.016,2.054-4.706
				c-5.679,0.148-3.908,0.054-6.61-5.41c-0.514-0.69-3.355-2.948-2.003-3.761c2.03-0.393,0.54-0.621,1.433-1.703
				c1.663,0.04,2.246-2.827,2.165-4.233c-1.839-0.879,0.582-2.015,0.609-3.624c-0.541-0.406-1.081-0.826-1.637-1.245
				c0.149-0.446,1.675-0.608,2.108-0.73C13.152,6.784,13.425,5.999,16.384,6.04L16.384,6.04z M24.675,39.077
				c-1.609,0.244-2.395,1.083-2.759,2.569c1.096-0.188,2.177-0.297,3.18-0.377C25.065,40.674,24.647,39.957,24.675,39.077
				L24.675,39.077z M20.349,30.247c-0.069,0-0.149,0-0.218,0c-1.353,1.759-2.487,4.842-1.001,6.721
				c0.149-0.026,1.609-1.337,1.936-1.568C21.958,33.236,22.334,31.952,20.349,30.247z"/>
			<path i:knockout="Off" fill="#B3B3B3" d="M14.019,9.881c0.122,0.04,0.229,0.094,0.338,0.122
				c-0.013,0.757-0.149,1.433-0.177,2.042c-0.229-0.027-0.472-0.041-0.717-0.081C13.463,11.909,13.735,9.678,14.019,9.881z"/>
			<path i:knockout="Off" fill="#999999" d="M12.559,10.097c0.012,0.352,0.012,0.352-0.096,0.905c-0.299,0-0.609-0.257-1.015-0.527
				C11.705,10.232,12.248,10.178,12.559,10.097z"/>
			<path i:knockout="Off" fill="#B3B3B3" d="M16.303,10.435c0.11,0.041,0.218,0.081,0.313,0.108
				c0.027,0.379,0.027,0.379-0.138,1.691c-0.257-0.027-0.514-0.068-0.785-0.122c0.149-0.46,0.149-0.46,0.38-1.663
				C16.156,10.449,16.222,10.449,16.303,10.435z"/>
			<path i:knockout="Off" fill="#999999" d="M32.154,12.207c-0.015,1.001-1.287,1.92-0.027,2.907
				c-0.015,0.055-0.042,0.095-0.08,0.149c-0.069-0.014-0.164-0.014-0.257-0.014c-0.233-0.325-0.245-0.663-0.773-0.906
				c-0.012,0-1.744,0.419-1.932,0.419c-0.341-0.5-0.203-2.109,0.663-2.204c0.012,0.162,0.026,0.325,0.026,0.487
				c0.379,0.298,0.958,0.163,1.257,0.163C31.396,12.747,31.599,12.41,32.154,12.207z"/>
			<path i:knockout="Off" fill="#B3B3B3" d="M26.824,12.396c0.421,0.107,0.421,0.107,0.487,0.189
				c-0.054,0.568-0.107,1.109-0.177,1.663c-0.46,0.014-0.46,0.014-0.771-0.027C26.338,14.154,26.529,12.193,26.824,12.396z"/>
			<path i:knockout="Off" fill="#E6E6E6" d="M32.614,12.558c0.364,0.676,0.621,2.271-0.46,2.042
				C32.085,14.113,31.829,12.734,32.614,12.558z"/>
			<path i:knockout="Off" fill="#FFFFFF" d="M12.666,15.033c0.107,1.785,0.962,0.014,1.46,0.081
				c-0.161,0.744-0.203,1.258-0.391,1.934c-0.081,0.014-0.177,0.027-0.272,0.027c-0.364-0.432-0.729-0.798-1.353-1.217
				c-0.012-0.244-0.026-0.514-0.038-0.785C12.248,15.02,12.248,15.02,12.666,15.033z"/>
			<path i:knockout="Off" d="M14.302,17.576c-0.337,1.798-1.486,0.825,0.326,1.961c0.012,0.081,0.026,0.162,0.026,0.243
				c-0.678,0.339-0.881-0.107-1.597-0.594c0.731-1.042,0.731-1.042,1.029-1.583C14.153,17.603,14.233,17.589,14.302,17.576z"/>
			<path i:knockout="Off" fill="#FFFFFF" d="M10.122,19.928c0.353,0.081,0.705,0.176,1.042,0.244
				c0.027,0.216,0.027,0.216-0.054,0.839c-0.514,0-1.015-0.013-1.528-0.028C9.678,20.2,9.678,20.2,9.758,19.928
				C9.88,19.928,10.015,19.928,10.122,19.928z"/>
			<path i:knockout="Off" fill="#FFFFFF" d="M20.388,21.672c0.256,0.068,0.513,0.136,0.758,0.203c0,0.541-0.096,0.663-0.311,0.975
				c-0.486-0.109-0.961-0.203-1.448-0.324c-0.026-0.515-0.149-0.651-0.068-0.988C19.632,21.538,20.077,21.672,20.388,21.672z"/>
			<path i:knockout="Off" fill="#FFFFFF" d="M21.904,22.132c0.418,0.109,0.836,0.231,1.242,0.353c0,0.325,0.026,0.514-0.093,0.731
				c-0.517-0.015-0.946-0.069-1.598-0.203c0.015-0.245,0.096-0.555,0.203-0.866C21.74,22.147,21.82,22.147,21.904,22.132z"/>
			<path i:knockout="Off" fill="#FF3300" d="M29.354,25.595c1.773,0.541,2.058,3.001,1.624,4.341
				c-0.406,0.621-1.773,0.757-2.598,0.824c-0.08-0.081-0.08-0.081-0.46-1.92c-0.107-0.015-0.215-0.015-0.337-0.027
				c-0.054,0.081-0.096,0.149-0.161,0.23c0.46,2.339,1.215,4.382,2.311,6.41c-0.012,0.932-7.506,0.188-7.966-0.283
				c0.717-2.058,1.257-3.801-0.946-5.343c0.337-0.324,3.016-0.013,3.544,0.027C27.609,29.761,27.744,25.568,29.354,25.595z"/>
			<path i:knockout="Off" fill="#FF3300" d="M31.572,30.018c0.176,0.879,0.176,0.879,0.337,2.176
				c-0.054-0.013-0.093-0.027-0.161-0.054c-0.042-0.161-0.743-1.906-0.229-2.191C31.545,29.976,31.557,29.99,31.572,30.018z"/>
			<path i:knockout="Off" fill="#CCECF4" d="M34.791,34.223c0.662,0.393-0.135,1.109,0.026,2.002
				c-0.418-0.203-0.743-0.514-1.203-1.016C33.886,34.29,33.871,34.209,34.791,34.223L34.791,34.223z M17.452,34.48
				c0.122,0.013,0.245,0.039,0.353,0.039c0.042,1.936,1.245,2.341,0.678,3.706c-0.801-0.135-1.598-1.515-2.111-0.242
				c0.123,0.594,0.637,0.46,0.962,0.445c-0.042,1.881-2.422,1.582-2.854-0.055C14.437,36.129,14.505,34.426,17.452,34.48
				L17.452,34.48z M30.828,30.803c-0.46-0.015-2.218,0.039-2.23,0.77c1.365,3.61,3.069,6.775,6.626,8.303
				c4.598,0.081,2.069-6.343,0.528-5.464c-0.054,0.609-0.176,0.703-0.543,1.137c0.148,0.825,2.517,1.96,0.26,1.703
				C33.112,36.292,31.384,33.316,30.828,30.803L30.828,30.803z M15.574,7.595c1.962,1.826,1.161,4.017,3.637,0.893
				c0.138-0.082,0.283-0.189,0.433-0.298c1.854,0.487-0.161,4.774,3.368,0.69c0.812,0.013,0.946,1.312,1.096,1.772
				c0.974,1.703,1.69-0.988,2.717-0.974c0.598,0.852,0.854,1.961,1.299,2.691c0.935-0.081,1.081-0.865,1.598-1.65
				c0.065,0,0.107,0,0.146,0c0.447,0.703,0.773,1.366,0.854,1.975c-0.854-0.014-1.692-1.988-2.313,1.055
				c-0.242,0-0.514,0.041-0.878-0.136c0-0.392-0.015-0.785-0.015-1.176c-0.418-0.244-0.418-0.244-0.702-0.325
				c-0.026-0.095-0.068-0.189-0.096-0.284c-0.042,0.013-0.107,0.013-0.176,0.013c-0.107,0.312-0.107,0.312-0.257,1.352
				c-3.15-0.69-6.127-1.379-9.426-1.947c0.015-0.257,0.041-0.527,0.041-0.785c-0.122-0.094-0.122-0.094-0.961-0.351
				c-0.081,0.311-0.176,0.622-0.269,0.933c-0.367-0.027-0.72-0.068-1.096-0.122c-0.11-0.108,0.215-0.689-0.057-1.177
				c-1.081-0.27-0.89-0.162-1.093,1.028C12.016,10.746,14.612,7.744,15.574,7.595L15.574,7.595z M13.368,11.084
				c-0.135,0.013-0.257,0.027-0.392,0.041c-0.299,0.743-1.621,2.961-1.636,3.461c0.501,0.108,2.271,0.189,3.003,0.284
				c0.039-0.257,0.188-1.366,0.46-1.515c-0.057,0.703,0.039,1.325,0.054,1.879c-1.096,0.095-0.447,1.326-1.027,2.164
				c-0.746-0.013-1.042-1.19-1.814-1.203c-0.323,0.5-1.188,3.056-1.284,3.516c0.257,0.095,0.501,0.189,0.731,0.271
				c-0.015,0.339-0.042,0.663-0.081,0.988c2.648,0.418,5.22,0.946,7.694,1.433c0.272-2.165,3.055-0.487,4.381-0.123
				c0.026,0.475-0.081,0.771-0.135,1.096c0.311,0.134,0.514,0.216,0.621,0.326c-0.012,0.229-0.107,0.242-0.203,0.337
				c-0.985-0.014-14.335-3.625-15.657-2.341c0.134,0.609,1.985,2.3,2.406,2.908c0.729,1.395,1.541,4.598,2.502,5.044
				c4.165,0.324,8.059-0.594,12.17-0.364c1.786-0.852,3.177-3.841,4.1-5.491c0.012-0.393-1.042-1.096-0.624-1.502
				c0.475,0.244,0.582,0.42,0.866,0.704c4.165,2.8,6.1-9.25,1.054-6.626c-0.35,0.378-0.594,0.838-1.012,1.19
				c-0.096,0-0.177-0.013-0.272-0.041c-0.122-0.513,0.364-1.46,0.38-2.286c-0.705,0.325-1.284-0.256-1.341-1.096
				c-0.729-0.215-0.729-0.215-0.904-0.202c-0.069,0.419-0.016,0.473-0.016,0.623c-1.081,0.094-1.242,0.202-1.215-0.96
				c-2.123-0.555-6.939-1.218-9.372-2.056c-0.069,0.352-0.135,0.757-0.096,1.015c-0.188,0.027-0.434-0.095-1.188-0.176
				c0.039-0.352,0.08-0.689,0.093-1.055c-1.162-0.216-1.108-0.189-1.257,0.92c-0.364,0.013-0.744,0.013-1.123,0.027
				C13.287,11.882,13.329,11.49,13.368,11.084z"/>
			<path i:knockout="Off" fill="#CCCC29" d="M21.498,35.752c2.878,0.595,5.652,1.136,8.396,0.31c0.421,0.014,0.95,1.069,1.069,1.244
				c2.326,2.408-3.219,1.245-2.365,4.45c-0.854-0.189-1.773-0.42-2.812-0.486c-0.746-1.217-0.812-2.814,0.35-3.936
				c0.015-0.082,0-0.163-0.026-0.243c-0.081,0-0.203,0-0.311,0c-1.529,1.582-1.637-0.623-2.258-0.027
				c0.119,0.635,0.824,0.878,1.203,1.123c0.013,0.107,0.027,0.215,0.039,0.311c-1.878,0.324-2.717,0.96-3.448,2.69
				c-1.081-0.175-1.081-0.175-2.272-0.27C17.996,39.24,19.713,36.171,21.498,35.752z"/>
			<path i:knockout="Off" fill="#CCE70B" d="M20.617,41.539c0.218,0.054,0.421,0.107,0.624,0.135
				c0.012,0.068,0.026,0.109,0.039,0.164c-1.001,0.311-2.135,0.635-2.732,1.541c-1.23,0.122-6.855,0.433-7.587-0.135
				C13.869,41.635,17.467,41.485,20.617,41.539z"/>
			<path i:knockout="Off" fill="#CCE70B" d="M25.311,41.728c1.245,0.435,3.908-0.175,4.234,1.664
				c-0.731,0.703-9.71,0.826-10.483,0.027C20.185,42.08,23.904,41.838,25.311,41.728z"/>
			<path i:knockout="Off" d="M25.081,13.424c0.229,1.163,0.472,2.217,0.486,3.205c-0.269,0.271-2.084-0.338-2.744-0.311
				c-0.229,0.514-0.229,0.514-0.367,1.095c-0.026-0.23-0.054-0.446-0.107-0.676c-0.068,0.081-0.068,0.081-0.218,0.771
				c0.015-0.284,0.084-0.974-0.135-1.312c-0.444,2.258-0.269,1.812-2.961,1.758c-4.231,0.325-2.825,0.893-3.192-2.354
				c-0.985-0.514-0.609-2.272-0.296-2.083c-0.026,0.649-0.11,1.204,0.123,1.677c3.135,0.405,6.652,1.055,9.629,1.217
				C25.23,15.412,25.149,14.424,25.081,13.424z"/>
			<path i:knockout="Off" fill="#FFFFFF" d="M21.686,16.087c-0.188,2.395-0.337,1.596-3.271,1.596
				c-0.759,0.055-1.487,0.203-2.368,0.122c0.081-1.136,0.042-2.298,0.893-2.217c0.338,1.244,1.287,1.096,1.57,0.054
				C20.349,15.98,19.778,16.223,21.686,16.087z"/>
			<path i:knockout="Off" fill="#B0E1ED" d="M16.02,8.082c-0.514,0.825-1.108,1.663-1.445,2.624
				c0.038-0.244,0.134-0.623-0.057-0.961c-1.081-0.27-0.89-0.162-1.093,1.028c-1.409-0.027,1.188-3.029,2.149-3.177
				C15.75,7.757,15.896,7.92,16.02,8.082L16.02,8.082z M14.087,12.26c-0.229,0.825-0.433,1.664-0.65,2.516
				c-0.797-0.054-1.744-0.108-2.096-0.189c0.015-0.5,1.337-2.718,1.636-3.461c0.135-0.014,0.257-0.028,0.392-0.041
				c-0.039,0.406-0.081,0.798-0.135,1.19C13.517,12.274,13.801,12.26,14.087,12.26L14.087,12.26z M12.923,16.791
				c-0.325,1.258-0.705,2.488-1.177,3.638c-0.08,0.189-0.149,0.379-0.203,0.569c-0.054-0.015-0.107-0.015-0.161-0.027
				c0.039-0.326,0.066-0.649,0.081-0.988c-0.23-0.081-0.475-0.176-0.731-0.271c0.096-0.46,0.961-3.016,1.284-3.516
				C12.409,16.209,12.666,16.507,12.923,16.791L12.923,16.791z M11.395,21.578c-0.149,0.837-0.054,1.649,0.475,2.516
				c0.636,1.015,2.149,2.029,2.908,3.042c1.119,1.597,2.946,1.975,4.744,2.341c-2.149,0.161-4.3,0.351-6.53,0.174
				c-0.961-0.446-1.773-3.65-2.502-5.044C10.068,24,8.217,22.308,8.083,21.699C8.447,21.348,9.719,21.362,11.395,21.578
				L11.395,21.578z M16.222,34.588c-0.391,1.65-0.325,3.557,0,5.126c-0.689,0.04-1.514-0.446-1.743-1.34
				C14.451,36.495,14.49,34.994,16.222,34.588z"/>
			<path i:knockout="Off" fill="#E3F4F9" d="M34.791,34.223c0.662,0.393-0.135,1.109,0.026,2.002
				c-0.418-0.203-0.743-0.514-1.203-1.016C33.886,34.29,33.871,34.209,34.791,34.223L34.791,34.223z M27.069,10.083
				c-0.068,0.663-0.068,1.366-0.026,2.097c0.107,0.04,0.202,0.108,0.472,0.257c0,0.392,0.015,0.784,0.015,1.176
				c0.364,0.176,0.636,0.136,0.878,0.136c0.621-3.043,1.46-1.069,2.313-1.055c-0.08-0.608-0.406-1.271-0.854-1.975
				c-0.039,0-0.081,0-0.146,0c-0.517,0.785-0.663,1.569-1.598,1.65C27.744,11.747,27.502,10.854,27.069,10.083L27.069,10.083z
				 M27.272,14.574c0.039,0,0.08,0,0.119-0.014c0-0.149-0.054-0.203,0.016-0.623c0.176-0.013,0.176-0.013,0.904,0.202
				c0.057,0.839,0.636,1.42,1.341,1.096c-0.016,0.825-0.502,1.772-0.38,2.286c0.096,0.028,0.177,0.041,0.272,0.041
				c0.418-0.352,0.662-0.812,1.012-1.19c5.046-2.623,3.111,9.427-1.054,6.626c-0.284-0.284-0.392-0.46-0.866-0.704
				c-0.418,0.406,0.636,1.109,0.624,1.502c-0.907,1.623-2.287,4.571-4.03,5.451c-0.69-3.111,0.555-6.452,1.797-9.196
				C27.679,18.576,27.487,16.602,27.272,14.574L27.272,14.574z M28.801,31.194c2.013,2.515,2.664,6.883,5.68,7.681
				c0.865,0.176,2.122,0.176,3.123-0.202c0.854-1.785-0.756-4.896-1.852-4.261c-0.054,0.609-0.176,0.703-0.543,1.137
				c0.148,0.825,2.517,1.96,0.26,1.703c-2.356-0.96-4.085-3.936-4.641-6.449C30.464,30.788,29.288,30.814,28.801,31.194z"/>
			<path i:knockout="Off" fill="#973E2B" d="M29.354,25.595c0.135,0.041,0.245,0.094,0.367,0.149
				c-1.448,3.936-6.655,4.219-5.464,9.223c0,0.257,0.119,0.378,0,0.635c-0.015,0.028-0.027,0.055-0.042,0.082
				c-1.271-0.149-2.299-0.353-2.448-0.514c0.717-2.058,1.257-3.801-0.946-5.343c0.337-0.324,3.016-0.013,3.544,0.027
				C27.609,29.761,27.744,25.568,29.354,25.595z"/>
			<path i:knockout="Off" fill="#99993D" d="M21.498,35.752c0.797,0.162,1.582,0.323,2.353,0.446
				c-1.042,1.203-3.153,1.785-4.016,3.312c-0.203,0.393-0.164,0.933-0.164,1.461c-0.161-0.015-0.364-0.026-0.609-0.054
				C17.996,39.24,19.713,36.171,21.498,35.752z"/>
			<path i:knockout="Off" fill="#A3BA2E" d="M12.164,42.676c2.354-0.948,5.005-1.149,7.479-1.149
				c-0.042,0.297-0.122,0.568-0.325,0.77C16.858,42.296,14.451,42.648,12.164,42.676z"/>
			<path i:knockout="Off" fill="#985C31" d="M19.456,29.963c-0.016,0.974-1.245,2.947-1.609,4.016
				c-0.624,0.04-1.272,0.054-1.908,0.081C16.494,31.437,16.425,29.91,19.456,29.963z"/>
			<path i:knockout="Off" d="M23.943,30.316c0.421,0.648,0.486,1.324,0.122,1.839c-0.134,0.012-0.283,0.025-0.418,0.039
				C23.376,31.68,22.755,30.288,23.943,30.316z"/>
			<path i:knockout="Off" fill="#514C58" d="M23.836,30.518c0.337,0.527,0.353,0.973,0.176,1.419
				c-0.08-0.013-0.161-0.013-0.257-0.013c-0.176-0.257-0.54-0.947-0.203-1.379C23.647,30.544,23.74,30.531,23.836,30.518z"/>
			<path i:knockout="Off" d="M24.472,32.83c0.486,0.514,0.392,0.893,0.379,1.393c-0.244,0.176-0.176,0.176-0.501,0.217
				C23.97,34.061,23.621,32.952,24.472,32.83z"/>
			<path i:knockout="Off" fill="#514C58" d="M24.46,33.102c0.337,0.23,0.146,0.947,0.134,1.148c-0.054,0-0.122-0.014-0.202-0.014
				c-0.149-0.242-0.434-0.663-0.135-1.135C24.337,33.102,24.406,33.102,24.46,33.102z"/>
			<path i:knockout="Off" fill="#FFFF00" d="M29.464,36.183c0.146-0.038,0.284-0.08,0.43-0.121c0.421,0.014,0.95,1.069,1.069,1.244
				c2.326,2.408-3.219,1.245-2.365,4.45c-0.65-0.136-1.325-0.312-2.068-0.406c0.161-1.703,1.809-3.098,2.648-4.489
				C29.3,36.657,29.396,36.428,29.464,36.183z"/>
			<path i:knockout="Off" fill="#CCEA97" d="M26.529,41.919c1.269,0.094,2.771,0.12,3.016,1.473
				c-0.203,0.19-1.004,0.339-2.084,0.434c-0.162-0.163-0.311-0.339-0.434-0.527C26.732,42.823,26.567,42.363,26.529,41.919z"/>
			<path i:knockout="Off" d="M32.112,17.035c1.773,1.135,0.731,5.45-1.188,5.409c-0.096-0.109-0.096-0.109-0.122-0.297
				c1.647-1.339,2.016-2.138,1.486-4.301c-0.567-0.798-1.486-0.027-1.501,0.758c1.394,1.149,0.122,2.961-1.027,2.367
				c0-0.083-0.012-0.163-0.027-0.257c1.744-0.326,1.338-1.448-0.203-1.935C29.518,18.414,31.423,17.021,32.112,17.035z"/>
		</g>
	</g>
</g>
</svg>
