<?xml version="1.0" encoding="utf-8"?>
<!-- Generator: Adobe Illustrator 12.0.0, SVG Export Plug-In . SVG Version: 6.00 Build 51448)  -->
<!DOCTYPE svg PUBLIC "-//W3C//DTD SVG 1.1//EN" "http://www.w3.org/Graphics/SVG/1.1/DTD/svg11.dtd" [
	<!ENTITY ns_flows "http://ns.adobe.com/Flows/1.0/">
	<!ENTITY ns_extend "http://ns.adobe.com/Extensibility/1.0/">
	<!ENTITY ns_ai "http://ns.adobe.com/AdobeIllustrator/10.0/">
	<!ENTITY ns_graphs "http://ns.adobe.com/Graphs/1.0/">
	<!ENTITY ns_vars "http://ns.adobe.com/Variables/1.0/">
	<!ENTITY ns_imrep "http://ns.adobe.com/ImageReplacement/1.0/">
	<!ENTITY ns_sfw "http://ns.adobe.com/SaveForWeb/1.0/">
	<!ENTITY ns_custom "http://ns.adobe.com/GenericCustomNamespace/1.0/">
	<!ENTITY ns_adobe_xpath "http://ns.adobe.com/XPath/1.0/">
	<!ENTITY ns_svg "http://www.w3.org/2000/svg">
	<!ENTITY ns_xlink "http://www.w3.org/1999/xlink">
]>
<svg  version="1.1"
	 xmlns:x="&ns_extend;" xmlns:i="&ns_ai;" xmlns:graph="&ns_graphs;" i:viewOrigin="-0.2363 65" i:rulerOrigin="0 0" i:pageBounds="0 65 45 0"
	 xmlns="&ns_svg;" xmlns:xlink="&ns_xlink;" xmlns:a="http://ns.adobe.com/AdobeSVGViewerExtensions/3.0/"
	 width="45.73" height="65.236" viewBox="0 0 45.73 65.236" overflow="visible" enable-background="new 0 0 45.73 65.236"
	 xml:space="preserve">
<metadata>
	<variableSets  xmlns="&ns_vars;">
		<variableSet  varSetName="binding1" locked="none">
			<variables></variables>
			<v:sampleDataSets  xmlns:v="&ns_vars;" xmlns="&ns_custom;"></v:sampleDataSets>
		</variableSet>
	</variableSets>
</metadata>
<g id="图层_1" i:layer="yes" i:dimmedPercent="50" i:rgbTrio="#4F008000FFFF">
	<g>
		<g i:knockout="Off">
			<path fill="#333333" d="M1.18,47.468v12.076c0,2.491,1.625,4.511,3.622,4.511h37.307c2.001,0,3.622-2.02,3.622-4.511h-0.003
				V3.807C45.728,1.705,44.106,0,42.108,0H4.802c-2,0-3.619,1.705-3.619,3.807H1.18v43.652C1.18,47.46,1.18,47.465,1.18,47.468z"/>
			
				<linearGradient id="XMLID_3_" gradientUnits="userSpaceOnUse" x1="-41.7046" y1="22.0122" x2="-41.7046" y2="82.7583" gradientTransform="matrix(1 0 0 -1 64.2148 87.0117)">
				<stop  offset="0.0393" style="stop-color:#0060B6"/>
				<stop  offset="0.0899" style="stop-color:#2089B9"/>
				<stop  offset="0.0985" style="stop-color:#4FA3C2"/>
				<stop  offset="0.1071" style="stop-color:#77B9CA"/>
				<stop  offset="0.1138" style="stop-color:#8FC7CF"/>
				<stop  offset="0.118" style="stop-color:#98CCD1"/>
				<stop  offset="0.1341" style="stop-color:#9ECFD3"/>
				<stop  offset="0.156" style="stop-color:#AFD6D9"/>
				<stop  offset="0.1809" style="stop-color:#CBE1E3"/>
				<stop  offset="0.1966" style="stop-color:#E1EAEB"/>
				<a:midPointStop  offset="0.0393" style="stop-color:#0060B6"/>
				<a:midPointStop  offset="0.5" style="stop-color:#0060B6"/>
				<a:midPointStop  offset="0.0899" style="stop-color:#2089B9"/>
				<a:midPointStop  offset="0.5" style="stop-color:#2089B9"/>
				<a:midPointStop  offset="0.0985" style="stop-color:#4FA3C2"/>
				<a:midPointStop  offset="0.5" style="stop-color:#4FA3C2"/>
				<a:midPointStop  offset="0.1071" style="stop-color:#77B9CA"/>
				<a:midPointStop  offset="0.5" style="stop-color:#77B9CA"/>
				<a:midPointStop  offset="0.1138" style="stop-color:#8FC7CF"/>
				<a:midPointStop  offset="0.5" style="stop-color:#8FC7CF"/>
				<a:midPointStop  offset="0.118" style="stop-color:#98CCD1"/>
				<a:midPointStop  offset="0.5" style="stop-color:#98CCD1"/>
				<a:midPointStop  offset="0.1341" style="stop-color:#9ECFD3"/>
				<a:midPointStop  offset="0.5" style="stop-color:#9ECFD3"/>
				<a:midPointStop  offset="0.156" style="stop-color:#AFD6D9"/>
				<a:midPointStop  offset="0.5" style="stop-color:#AFD6D9"/>
				<a:midPointStop  offset="0.1809" style="stop-color:#CBE1E3"/>
				<a:midPointStop  offset="0.5" style="stop-color:#CBE1E3"/>
				<a:midPointStop  offset="0.1966" style="stop-color:#E1EAEB"/>
			</linearGradient>
			<path fill="url(#XMLID_3_)" d="M44.784,60.488c0,2.492-1.621,4.512-3.619,4.512H3.855c-1.998,0-3.619-2.02-3.619-4.512V8.765
				c0-2.49,1.624-4.511,3.619-4.511h37.31c1.998,0,3.619,2.021,3.619,4.511V60.488L44.784,60.488z"/>
			<path fill="none" stroke="#333333" stroke-width="0.4727" d="M44.784,60.488c0,2.492-1.621,4.512-3.619,4.512H3.855
				c-1.998,0-3.619-2.02-3.619-4.512V8.765c0-2.49,1.624-4.511,3.619-4.511h37.31c1.998,0,3.619,2.021,3.619,4.511V60.488
				L44.784,60.488z"/>
			<path fill="#FFFFFF" d="M0.236,4.752c0-2.101,1.621-3.807,3.619-3.807h37.307c2.001,0,3.622,1.705,3.622,3.807v43.651
				c0,2.103-1.625,3.806-3.622,3.806H3.855c-1.998,0-3.619-1.703-3.619-3.807V4.752L0.236,4.752z"/>
			
				<linearGradient id="XMLID_4_" gradientUnits="userSpaceOnUse" x1="2.5527" y1="25.2324" x2="46.6465" y2="25.2324" gradientTransform="matrix(-1 0 0 1 47.1094 1.3447)">
				<stop  offset="0" style="stop-color:#A2D8E0"/>
				<stop  offset="0.0899" style="stop-color:#1878AD"/>
				<stop  offset="0.2135" style="stop-color:#194D91"/>
				<stop  offset="0.6404" style="stop-color:#2B90BD"/>
				<stop  offset="0.9438" style="stop-color:#82CBDE"/>
				<stop  offset="1" style="stop-color:#1A478D"/>
				<a:midPointStop  offset="0" style="stop-color:#A2D8E0"/>
				<a:midPointStop  offset="0.5" style="stop-color:#A2D8E0"/>
				<a:midPointStop  offset="0.0899" style="stop-color:#1878AD"/>
				<a:midPointStop  offset="0.5" style="stop-color:#1878AD"/>
				<a:midPointStop  offset="0.2135" style="stop-color:#194D91"/>
				<a:midPointStop  offset="0.5" style="stop-color:#194D91"/>
				<a:midPointStop  offset="0.6404" style="stop-color:#2B90BD"/>
				<a:midPointStop  offset="0.5" style="stop-color:#2B90BD"/>
				<a:midPointStop  offset="0.9438" style="stop-color:#82CBDE"/>
				<a:midPointStop  offset="0.5" style="stop-color:#82CBDE"/>
				<a:midPointStop  offset="1" style="stop-color:#1A478D"/>
			</linearGradient>
			<path i:isolated="yes" i:knockout="Off" opacity="0.1" fill="url(#XMLID_4_)" enable-background="new    " d="M0.463,4.752
				c0-2.101,1.603-3.807,3.577-3.807h36.937c1.977,0,3.58,1.705,3.58,3.807v43.651c0,2.103-1.604,3.806-3.58,3.806H4.043
				c-1.977,0-3.58-1.703-3.58-3.807V4.752L0.463,4.752z"/>
			<path fill="none" stroke="#4D4D4D" stroke-width="0.4727" d="M0.236,48.413v12.075C0.236,62.98,1.857,65,3.855,65h37.31
				c1.998,0,3.619-2.02,3.619-4.512V4.752c0-2.102-1.625-3.806-3.622-3.806H3.855c-1.998,0-3.619,1.705-3.619,3.806v43.651
				C0.236,48.406,0.236,48.409,0.236,48.413z"/>
		</g>
		<g>
			<path i:knockout="Off" d="M8.312,44.605c-5.258-0.615-1.905-9.289,2.606-5.246c1.236,1.663,0,2.201,2.595,2.484
				c0.021-0.263,0.021-0.263-0.283-2.66c0.065-2.759,0.447-5.115,1.084-7.688c-2.487,0.165-3.419-1.4-5.641-1.334
				c-1.149-0.319-3.756-1.391-1.982-2.672c-0.054-0.143-0.349-0.385-0.657-0.898c-1.149-5.781,8.125-3.35,4.413,1.107
				c0,0.066,0,0.12,0,0.197c1.708,1.708,3.111,1.991,5.169-0.057c-4.314-1.917-5.847-4.171-4.927-8.936
				c0.702-1.839,0.702-1.215,2.2-2.201c0.219-1.708,0.953-2.498,1.798-2.695v-0.218c-1.358,0-0.2-1.632,0.6-2.19
				c2.487-0.987,2.278,1.083,4.676-1.315c0.361-0.612,0.538-0.821,1.063-1.269c-0.197-1.95-3.055-0.472-3.867,0.099
				c-0.032,0.306,0.033,0.349,0.033,0.602c-2.09,1.665-1.651,0.405-2.66-0.745c0.155-0.548,1.141-0.798,1.687-0.996
				c2.442,0,8.115-4.513,8.948,0.24c2.243-0.493,3.831-0.339,5.243,1.862c5.094,1.226,6.769,3.582,7.558,9.122
				c0.065,0.078,0.164,0.164,0.25,0.263c-0.086,1.546-1.248,3.373-3.152,1.949c0.077-0.678,0.483-1.894,0.898-2.31
				c-0.099-1.412-1.116-2.956-2.409-3.241c0.065,0.998,0.065,0.998,0.021,2.246c0.833,1.127,0.702,2.3-0.765,2.398
				c0.81,2.988-2.179,5.759-5.105,5.114c-1.729,2.057-2.332,2.583-4.894,3.285c0,0.48,2.562,2.759,2.846,2.759
				c0.866-0.961,0.582-1.565,2.245-1.893c3.341,0,6.978,0.065,2.245,3.604c-1.039,0.206-1.794-0.11-2.648-0.11
				c-0.865,0.875-1.116,1.818-2.541,1.49c0,1.782,1.138,4.27,1.556,6.384c1.422-0.517,1.521-0.776,2.377-1.798
				c0.469,0.263,0.514,3.013,0.633,3.998c-0.612,0.768-5.616,0.681-6.822,0.681c-0.087-0.078-0.164-0.155-0.239-0.229
				c-0.373-6.954-5.081-6.802-6.386-0.406c-0.054,0.119-0.12,0.241-0.165,0.373C13.469,43.99,10.514,44.605,8.312,44.605z"/>
			<path i:knockout="Off" d="M32.504,43.608c-0.132-0.755,1.161-2.627,1.893-2.627c-0.974,0.82-1.248,1.421-1.741,2.627
				C32.602,43.608,32.548,43.608,32.504,43.608z"/>
			<path i:knockout="Off" fill="#CCE70B" d="M11.018,43.531c0.374-0.604,0.374-0.604,0.669-1.248c1.29-0.075,2.562,0,4.028-0.152
				C15.541,44.244,12.977,43.424,11.018,43.531L11.018,43.531z M23.009,43.379c0.045-0.341,0.087-0.69,0.144-1.019
				c1.806-0.176,3.863-0.517,5.452-1.601c0.054,0,0.11,0.013,0.176,0.021c0.099,1.457,0.099,1.457,0.251,2.302
				C28.309,43.531,24.006,43.334,23.009,43.379z"/>
			<path i:knockout="Off" d="M31.999,43.256c-0.033-0.041-0.065-0.086-0.087-0.131c1.03-2.431-0.286-3.854-0.669-5.735
				c1.117,0.173,1.216,3.48,1.248,4.487c0.09-0.087,1.149-1.479,1.556-1.389C33.632,40.858,32.044,43.289,31.999,43.256z"/>
			<path i:knockout="Off" d="M31.354,42.841c0-1.26,0.152-2.55-0.286-3.604c-0.239-0.206-0.316-0.305-0.35-0.448
				c0.033-0.044,0.078-0.077,0.119-0.098c1.097,0.854,0.735,2.726,0.669,4.149C31.44,42.841,31.396,42.841,31.354,42.841z"/>
			<path i:knockout="Off" d="M37.2,42.36c-3.679-0.483-4.38-4.852-1.302-6.506C40.738,34.365,42.523,41.253,37.2,42.36z"/>
			<path i:knockout="Off" fill="#FF6600" d="M14.072,41.835c-0.012-0.242-0.033-0.483-0.033-0.701
				c0.12-0.123,1.609-0.186,1.995-0.152c-0.045,0.361-0.045,0.361-0.155,0.558C15.21,41.703,15.21,41.703,14.072,41.835z"/>
			<path i:knockout="Off" fill="#FF6600" d="M23.107,41.802c-0.669-1.347,1.938-0.997,2.849-0.976c0,0.155,0,0.308,0.021,0.45
				C25.024,41.638,24.039,41.778,23.107,41.802z"/>
			<path i:knockout="Off" fill="#FFFFFF" d="M6.876,41.462c-0.809-0.81,0.767-2.069,1.502-2.18c0.143,1.084-0.493,1.215-1.207,2.18
				C7.074,41.462,6.966,41.462,6.876,41.462z"/>
			<path i:knockout="Off" fill="#FFCC00" d="M22.561,40.652c-1.731-2.836-4.622-3.899-6.275-0.319
				c-3.921,1.042-2.521-1.642-2.323-4.688c2.926,1.051,5.532,1.075,8.739,0.866c1.95-0.296,1.95-0.296,2.135-0.263
				c0.209,0.779,1.107,3.186,0.977,4.007C24.695,40.324,23.645,40.53,22.561,40.652z"/>
			<path i:knockout="Off" fill="#FFFFFF" d="M10.218,40.05c-0.284-0.057-0.559-0.12-0.821-0.164c-0.11-0.341-0.11-0.341-0.119-0.702
				C10.099,39.401,10.229,40.07,10.218,40.05z"/>
			<path i:knockout="Off" fill="#FFFFFF" d="M36.305,39.853c-0.735-0.582-0.768-1.567-0.529-2.323
				c0.058-0.021,0.123-0.054,0.177-0.074c0.319,0.283,0.636,0.591,0.964,0.887c0,0.427-0.119,1.006-0.394,1.499
				C36.444,39.841,36.37,39.841,36.305,39.853z"/>
			<path i:knockout="Off" fill="#FFFFFF" d="M37.344,38.014c-0.296-0.287-0.592-0.559-0.899-0.821c0-0.078,0-0.144,0-0.197
				c0.714-0.319,1.688,0.074,1.052,1.019C37.441,38.014,37.397,38.014,37.344,38.014z"/>
			<path i:knockout="Off" fill="#F9E2C1" d="M28.702,33.062c-1.292-0.307-2.135-0.877-2.135-2.125
				c1.204-1.027,1.983-0.624,3.58-0.624C33.632,29.743,30.837,33.062,28.702,33.062L28.702,33.062z M8.575,29.668
				c-4.49-1.182,0.165-3.209,2.287-0.636c-0.086,0.185-0.173,0.361-0.271,0.558C9.516,29.668,9.516,29.668,8.575,29.668
				L8.575,29.668z M17.314,30.817c-0.504-0.624-0.295-1.863-0.196-2.475c0.764,0.152,1.522,0.308,2.287,0.448
				C19.208,29.339,18.014,30.817,17.314,30.817L17.314,30.817z M15.024,13.953c2.442-0.143,5.477,3.964,1.042,5.267
				c-1.469-0.088-2.598-0.57-3.078-1.917c-2.355,0-1.917,3.658-1.896,5.091c1.074,5.685,10.349,7.82,14.765,4.523
				c0.624-0.767,1.347-1.215,1.302-2.167c0.077,0,0.164,0,0.251,0.012c2.935,1.729,6.735-2.771,3.943-5.29
				c-1.588-0.482-1.653,0.635-2.442,0.525c-0.032-0.042-0.044-0.075-0.065-0.11c0.316-0.338,0.57-0.59,0.965-0.864
				c0-2.65-7.59-8.202-9.803-8.202c-0.086,0.152-0.086,0.152-1.621,1.336c0.209,3.405-1.194,1.577-3.177,1.577
				c-0.065,0.01-0.129,0.022-0.186,0.033V13.953z"/>
			<path i:knockout="Off" d="M13.021,14.708c-0.242-1.106-1.03-1.467-1.863-1.609c0.023-0.067,0.033-0.143,0.065-0.219
				c2.606,0.121,1.228-1.051,1.437-2.104c0.065,0,0.144,0,0.209,0c0.448,0.56,1.609,0.975,1.893-0.164
				c0.045,0.022,0.09,0.033,0.152,0.044c-0.394,0.897-0.907,1.008-1.74,0.897c0,0.504-0.087,1.447-0.756,1.609
				c0.11,0.527,0.846,0.734,0.756,1.556C13.108,14.708,13.066,14.708,13.021,14.708z"/>
			<path i:knockout="Off" fill="#FFFFFF" d="M15.911,12.277c-0.086-0.043-0.173-0.087-0.25-0.12
				c-0.013-0.078-0.033-0.131-0.033-0.197c0.328-0.22,0.48-0.166,0.997-0.132c0,0.054,0,0.12,0.009,0.175
				C16.317,12.223,16.219,12.277,15.911,12.277z"/>
			<path i:knockout="Off" fill="#FC0019" d="M15.661,9.922c-0.197-0.427-0.517-0.778-0.451-1.106
				c0.319-0.152,0.562-0.284,1.009-0.329c0.165,0.219,0.472,0.548,0.448,1.051C16.108,9.726,15.813,9.922,15.661,9.922z"/>
			<path i:knockout="Off" fill="#7BAC98" d="M32.602,18.202c-0.143-0.57-0.887-2.202-0.854-2.399
				c0.328-0.164,0.624-0.349,1.104-0.109c0.164,0.635,0.386,1.753,0.012,2.508C32.778,18.202,32.688,18.202,32.602,18.202
				L32.602,18.202z M16.921,8.685c-0.09-0.12-0.09-0.12-0.065-0.273c0.361-0.131,1.421-0.69,1.806-0.603
				C18.147,8.083,17.422,8.609,16.921,8.685L16.921,8.685z M31.691,19.177c0.068-0.022,0.122-0.022,0.188-0.022
				c0.196-1.258-0.066-3.056-1.425-3.099c-0.033-0.252-0.033-0.252,0.045-0.372c3.252-1.118,5.288-0.154,5.989,3.416
				c0.099,0,0.788,0.099,0.932-0.043c0-1.258-0.451-2.475-0.746-3.559c-2.024-4.292-4.557-5.016-8.925-4.721
				c-0.012-0.054-0.021-0.12-0.021-0.164c0.415-0.329,1.839-0.438,1.971-0.657c-1.885-2.233-2.87-1.139-5.082-1.139
				c-0.045-0.208-0.045-0.208,0-1.008C23.72,5.553,20.25,6.911,18.87,7.71c1.216,0.242,1.882-0.832,2.637,0.921
				c0.144,0.054,0.254-0.022,0.406,0.273c-0.472,0.525-1.412,0.614-1.499,1.556c4.019,1.127,8.025,4.456,9.964,8.333
				C31.551,19.066,31.551,19.066,31.691,19.177z"/>
			<path i:knockout="Off" fill="#F0CE9F" d="M22.199,11.587c-1.403,0.987-3.23,1.303-4.35,2.859
				c-0.141,0.197-0.284,0.384-0.428,0.581c-0.645-0.668-1.552-1.118-2.397-1.073v-0.187c0.057-0.01,0.12-0.022,0.186-0.033
				c1.982,0,3.386,1.829,3.177-1.577c1.535-1.184,1.535-1.184,1.621-1.336C20.513,10.821,21.289,11.117,22.199,11.587L22.199,11.587
				z M15.037,19.066c-0.854,1.916-1.293,3.952-0.779,5.926c0.221,0.833,1.194,2.024,2.245,2.812c-2.693-0.931-4.918-2.803-5.41-5.41
				c-0.021-1.433-0.46-5.091,1.896-5.091C13.35,18.311,14.072,18.836,15.037,19.066L15.037,19.066z M17.644,28.453
				c0.238,0.087,0.469,0.141,0.689,0.141c0,0.242-0.122,0-0.122,0.242c-0.448,0-0.843,0.066-1.183,0.185
				c0.023-0.263,0.057-0.493,0.09-0.678C17.291,28.375,17.467,28.42,17.644,28.453L17.644,28.453z M8.575,29.668
				c0.94,0,0.94,0,2.016-0.078c0.099-0.197,0.186-0.373,0.271-0.558C8.74,26.458,4.085,28.486,8.575,29.668z"/>
			<path i:knockout="Off" fill="#FF9900" d="M15.419,40.521c-2.837,0.403-1.63-2.081-1.457-4.876c1.062,0.373,2.081,0.627,3.1,0.779
				c-0.329,0.997-1.532,1.313-1.852,2.353C14.983,39.435,15.145,39.993,15.419,40.521z"/>
			<path i:knockout="Off" fill="#A3BA2E" d="M11.531,42.611c0.045-0.087,0.099-0.197,0.155-0.328c1.29-0.075,2.562,0,4.028-0.152
				c-0.021,0.271-0.075,0.492-0.174,0.678l-2.959-0.197C12.254,42.578,11.904,42.591,11.531,42.611z"/>
			<path i:knockout="Off" fill="#A3BC9E" d="M32.602,18.202c-0.012-0.033-0.021-0.066-0.032-0.099
				c0.054,0.033,0.099,0.065,0.144,0.099C32.668,18.202,32.635,18.202,32.602,18.202L32.602,18.202z M26.141,8.674
				c-0.624,1.162-0.537,2.496,0.94,3.614c0.723,0.602,2.036,0.963,3.001,1.084c2.072,0.285,4.732,1.379,6.855,3.021
				c-0.087-0.306-0.186-0.602-0.263-0.897c-2.024-4.292-4.557-5.016-8.925-4.721c-0.012-0.054-0.021-0.12-0.021-0.164
				c0.415-0.329,1.839-0.438,1.971-0.657C28.309,8.303,27.4,8.467,26.141,8.674L26.141,8.674z M31.889,17.709
				c-0.798-0.395-1.663-0.636-2.484-0.57c0.373,0.537,0.689,1.096,0.974,1.654c1.173,0.273,1.173,0.273,1.313,0.384
				c0.068-0.022,0.122-0.022,0.188-0.022C31.945,18.705,31.957,18.191,31.889,17.709z"/>
			<path i:knockout="Off" fill="#FFF076" d="M22.603,36.523c0.033,0,0.065-0.012,0.099-0.012c1.95-0.296,1.95-0.296,2.135-0.263
				c0.209,0.779,1.107,3.186,0.977,4.007c-0.582,0.035-1.141,0.11-1.699,0.188C23.633,39.237,23.173,37.706,22.603,36.523z"/>
			<path i:knockout="Off" fill="#CCEA97" d="M25.155,42.074c0.974,0.779,2.583,0.997,3.834,0.779
				c-0.11-0.624-0.122-0.756-0.209-2.072c-0.065-0.009-0.122-0.021-0.176-0.021C27.586,41.462,26.371,41.844,25.155,42.074z"/>
			<path i:knockout="Off" fill="#CCE839" d="M18.506,36.15c-1.675-0.12-3.042-0.341-4.422-1.062c0.087-1.434,1.544-4.566,1.38-5.399
				c-0.078-0.009-0.132-0.021-0.197-0.021c-0.209,0.263-0.209,0.263-0.689,1.227c-0.866,0.173-1.49,0.152-2.213,0
				c0.078-0.746,0.078-0.746,0.177-1.096c1.248-0.493,2.43-0.538,3.624-1.741c1.257,0-0.57,2.397,1.149,3.251
				c1.061-0.099,2.058-1.511,2.661-2.323c0.755,0,1.511,0,2.277,0c0.021,0.134,0.042,0.274,0.078,0.406
				c-0.09,0.044-0.176,0.089-0.254,0.152c0,0.057,0.012,0.123,0.023,0.197c1.696,0.758,3.634,2.421,3.634,4.601
				c-0.776,0.48-2.606-1.732-3.374-1.633c-0.041,0.045-0.074,0.09-0.107,0.131c1.052,0.91,2.156,1.186,2.32,2.849
				C22.561,36.019,20.468,36.15,18.506,36.15z"/>
			<path i:knockout="Off" fill="#FFFFFF" d="M14.368,16.131c-0.734-0.361-0.054-1.566,0.94-0.93
				C15.309,16.012,15.255,16.131,14.368,16.131z"/>
			<path i:knockout="Off" d="M11.971,15.727c-0.013-0.076-0.021-0.154-0.021-0.229c0.066-0.076,0.066-0.076,0.624-0.121
				c-0.012,0.065-0.012,0.121-0.012,0.187C12.364,15.606,12.167,15.661,11.971,15.727z"/>
			<path i:knockout="Off" d="M11.762,15.234c0-0.078,0-0.153,0-0.229c0.603-0.131,0.603-0.131,0.812-0.099
				C12.319,15.07,12.003,15.234,11.762,15.234z"/>
			<path i:knockout="Off" d="M23.961,22.735c-1.03-2.081-2.64-2.015-3.801-0.263c-0.065-0.021-0.119-0.021-0.185-0.021
				c0-1.732,2.409-1.831,3.538-0.833c0.065-0.021,0.119-0.021,0.196-0.021c0.361-1.228,0.899-1.445,2.103-1.642
				c-0.033-0.364-0.525-2.345,0.447-2.104c-1.215,1.215,0.428,2.015,0.341,2.367c-1.412,0-3.493,0.624-2.431,2.472
				C24.113,22.768,24.113,22.768,23.961,22.735z"/>
			<path i:knockout="Off" d="M22.504,19.922c-4.721-0.659-4.368-6.54,0.263-6.747C27.171,13.711,26.49,19.637,22.504,19.922z"/>
			<path i:knockout="Off" fill="#FFFFFF" d="M20.217,16.702c-0.361-0.778,0.197-1.96,0.896-2.069
				C21.486,15.333,21.277,16.702,20.217,16.702z"/>
			<path i:knockout="Off" fill="#FFFFFF" d="M22.36,14.971c-0.185-0.417-0.185-0.417-0.26-0.755c0.601,0.054,0.601,0.054,0.81,0.131
				C22.91,14.84,22.856,14.916,22.36,14.971z"/>
			<path i:knockout="Off" fill="#FFFFFF" d="M7.369,25.867c-0.678-0.263,0.188-1.523,0.702-1.598
				c0.077,0.132,0.164,0.152,0.164,0.436C8.018,24.87,7.459,25.933,7.369,25.867z"/>
			<path i:knockout="Off" fill="#FFFFFF" d="M8.761,24.467c-0.087-0.155-0.087-0.155-0.141-0.472c0.164,0,0.592,0.021,0.502,0.472
				C9.003,24.467,8.883,24.467,8.761,24.467z"/>
			<path i:knockout="Off" d="M15.21,24.225c-1.322-0.615-3.326-2.233-2.431-3.669c1.83-1.828,2.75,2.006,2.849,3.439
				C15.496,24.138,15.332,24.213,15.21,24.225z"/>
			<path i:knockout="Off" fill="#FF6600" d="M15.058,23.864c-0.833-0.723-1.335-1.469-2.278-1.863
				c-0.361-1.191,0.812-2.583,1.741-1.06c0.319,0.896,0.726,1.818,0.812,2.911C15.246,23.852,15.145,23.852,15.058,23.864z"/>
			<path i:knockout="Off" d="M19.253,22.55c0.809-2.069,0.57-1.642,0.406-3.297c0.098,0.01,0.196,0.043,0.304,0.066
				C20.414,20.403,20.14,21.574,19.253,22.55z"/>
			<path i:knockout="Off" fill="#A3BA2E" d="M17.127,36.019c-1.084-0.152-2.058-0.415-3.043-0.931
				c0.087-1.434,1.544-4.566,1.38-5.399c-0.078-0.009-0.132-0.021-0.197-0.021c-0.209,0.263-0.209,0.263-0.689,1.227
				c-0.866,0.173-1.49,0.152-2.213,0c0.078-0.746,0.078-0.746,0.177-1.096c1.248-0.493,2.43-0.538,3.624-1.741
				c0.592,0,0.502,0.525,0.428,1.17c-2.213,1.281-1.47,5.366,0.546,6.67C17.139,35.941,17.127,35.974,17.127,36.019z"/>
			<path i:knockout="Off" fill="#FEF2E0" d="M28.702,33.062c-1.292-0.307-2.135-0.877-2.135-2.125
				c1.204-1.027,1.983-0.624,3.58-0.624C33.632,29.743,30.837,33.062,28.702,33.062L28.702,33.062z M29.031,17.194
				c-0.383,0.088-0.768,0.24-1.105,0.493c-0.122,0-0.36,0.482-0.36,0.603c-1.568,0.71-2.159,4.194-2.159,5.747
				c-0.239,0-0.119,0.714-0.119,0.833c-0.439,1.839-2.41,2.311-3.329,3.517c1.457-0.188,2.824-0.657,3.899-1.469
				c0.624-0.767,1.347-1.215,1.302-2.167c0.077,0,0.164,0,0.251,0.012c2.935,1.729,6.735-2.771,3.943-5.29
				c-1.588-0.482-1.653,0.635-2.442,0.525c-0.032-0.042-0.044-0.075-0.065-0.11c0.316-0.338,0.57-0.59,0.965-0.864
				C29.811,18.508,29.515,17.874,29.031,17.194z"/>
			<path i:knockout="Off" fill="#CCEA97" d="M21.629,28.987c0.209,0,0.415,0,0.624,0c0.021,0.134,0.042,0.274,0.078,0.406
				c-0.09,0.044-0.176,0.089-0.254,0.152c0,0.057,0.012,0.123,0.023,0.197c1.696,0.758,3.634,2.421,3.634,4.601
				c-0.689,0.415-2.167-1.215-3.042-1.577c0.065-0.176,0.099-0.361,0.074-0.582C22.537,31.026,21.19,30.436,21.629,28.987
				L21.629,28.987z M22.549,33.084c-0.385,0.668-1.084,1.227-0.743,2.332c0,0.196,0.295,0.385,0.48,0.57
				c0.768-0.078,1.531-0.177,2.287-0.296C24.433,34.18,23.501,33.818,22.549,33.084z"/>
			<path i:knockout="Off" d="M26.403,17.118c-0.144-0.154-0.045-0.209-0.045-0.242c0.254-0.076,0.484-0.099,0.899-0.076
				C27.204,16.876,27.204,16.876,26.403,17.118z"/>
			<path i:knockout="Off" d="M29.404,24.27c-0.11-0.11-0.11-0.11-0.132-0.274c0.669-0.899,2.123-1.466,1.499-2.989
				c-1.663-1.075-0.054,2.923-2.672,2.167c-0.206-0.209-0.239-0.218-0.197-0.406c2.442,0.284,0.537-1.433,0.756-1.642
				c0.176,0.012,0.352,0.021,0.549,0.044C31.858,18.508,32.217,23.875,29.404,24.27z"/>
			<path i:knockout="Off" fill="#FF6600" d="M36.403,21.072c-0.254-0.012-0.505-0.023-0.747-0.023
				c0.057-0.481,0.361-0.941,0.46-1.346c0.353-0.055,1.248-0.242,1.609,0c-0.065,0.405-0.141,0.877-0.361,1.346
				C37.036,21.048,36.72,21.06,36.403,21.072z"/>
			<path i:knockout="Off" fill="#FFFF00" d="M32.548,20.075c-0.57-0.854-0.188-0.569,0-1.37c0.559-0.086,0.559-0.086,0.798-0.055
				c0.131,0.287,0.045,0.954,0.032,1.404C33.095,20.054,32.82,20.054,32.548,20.075z"/>
		</g>
	</g>
</g>
</svg>
