<?xml version="1.0" encoding="utf-8"?>
<!-- Generator: Adobe Illustrator 12.0.0, SVG Export Plug-In . SVG Version: 6.00 Build 51448)  -->
<!DOCTYPE svg PUBLIC "-//W3C//DTD SVG 1.1//EN" "http://www.w3.org/Graphics/SVG/1.1/DTD/svg11.dtd" [
	<!ENTITY ns_flows "http://ns.adobe.com/Flows/1.0/">
	<!ENTITY ns_extend "http://ns.adobe.com/Extensibility/1.0/">
	<!ENTITY ns_ai "http://ns.adobe.com/AdobeIllustrator/10.0/">
	<!ENTITY ns_graphs "http://ns.adobe.com/Graphs/1.0/">
	<!ENTITY ns_vars "http://ns.adobe.com/Variables/1.0/">
	<!ENTITY ns_imrep "http://ns.adobe.com/ImageReplacement/1.0/">
	<!ENTITY ns_sfw "http://ns.adobe.com/SaveForWeb/1.0/">
	<!ENTITY ns_custom "http://ns.adobe.com/GenericCustomNamespace/1.0/">
	<!ENTITY ns_adobe_xpath "http://ns.adobe.com/XPath/1.0/">
	<!ENTITY ns_svg "http://www.w3.org/2000/svg">
	<!ENTITY ns_xlink "http://www.w3.org/1999/xlink">
]>
<svg  version="1.1"
	 xmlns:x="&ns_extend;" xmlns:i="&ns_ai;" xmlns:graph="&ns_graphs;" i:viewOrigin="-0.2363 65" i:rulerOrigin="0 0" i:pageBounds="0 65 45 0"
	 xmlns="&ns_svg;" xmlns:xlink="&ns_xlink;" xmlns:a="http://ns.adobe.com/AdobeSVGViewerExtensions/3.0/"
	 width="45.73" height="65.236" viewBox="0 0 45.73 65.236" overflow="visible" enable-background="new 0 0 45.73 65.236"
	 xml:space="preserve">
<metadata>
	<variableSets  xmlns="&ns_vars;">
		<variableSet  varSetName="binding1" locked="none">
			<variables></variables>
			<v:sampleDataSets  xmlns:v="&ns_vars;" xmlns="&ns_custom;"></v:sampleDataSets>
		</variableSet>
	</variableSets>
</metadata>
<g id="图层_1" i:layer="yes" i:dimmedPercent="50" i:rgbTrio="#4F008000FFFF">
	<g>
		<g i:knockout="Off">
			<path fill="#333333" d="M1.183,47.468v12.076c0,2.491,1.622,4.511,3.619,4.511h37.307c2.001,0,3.622-2.02,3.622-4.511l0,0V3.807
				C45.73,1.705,44.106,0,42.108,0H4.802C2.804,0,1.183,1.705,1.183,3.807l0,0v43.652C1.183,47.46,1.183,47.465,1.183,47.468z"/>
			
				<linearGradient id="XMLID_3_" gradientUnits="userSpaceOnUse" x1="-41.7017" y1="22.0122" x2="-41.7017" y2="82.7583" gradientTransform="matrix(1 0 0 -1 64.2148 87.0117)">
				<stop  offset="0.0393" style="stop-color:#0060B6"/>
				<stop  offset="0.0899" style="stop-color:#2089B9"/>
				<stop  offset="0.0985" style="stop-color:#4FA3C2"/>
				<stop  offset="0.1071" style="stop-color:#77B9CA"/>
				<stop  offset="0.1138" style="stop-color:#8FC7CF"/>
				<stop  offset="0.118" style="stop-color:#98CCD1"/>
				<stop  offset="0.1341" style="stop-color:#9ECFD3"/>
				<stop  offset="0.156" style="stop-color:#AFD6D9"/>
				<stop  offset="0.1809" style="stop-color:#CBE1E3"/>
				<stop  offset="0.1966" style="stop-color:#E1EAEB"/>
				<a:midPointStop  offset="0.0393" style="stop-color:#0060B6"/>
				<a:midPointStop  offset="0.5" style="stop-color:#0060B6"/>
				<a:midPointStop  offset="0.0899" style="stop-color:#2089B9"/>
				<a:midPointStop  offset="0.5" style="stop-color:#2089B9"/>
				<a:midPointStop  offset="0.0985" style="stop-color:#4FA3C2"/>
				<a:midPointStop  offset="0.5" style="stop-color:#4FA3C2"/>
				<a:midPointStop  offset="0.1071" style="stop-color:#77B9CA"/>
				<a:midPointStop  offset="0.5" style="stop-color:#77B9CA"/>
				<a:midPointStop  offset="0.1138" style="stop-color:#8FC7CF"/>
				<a:midPointStop  offset="0.5" style="stop-color:#8FC7CF"/>
				<a:midPointStop  offset="0.118" style="stop-color:#98CCD1"/>
				<a:midPointStop  offset="0.5" style="stop-color:#98CCD1"/>
				<a:midPointStop  offset="0.1341" style="stop-color:#9ECFD3"/>
				<a:midPointStop  offset="0.5" style="stop-color:#9ECFD3"/>
				<a:midPointStop  offset="0.156" style="stop-color:#AFD6D9"/>
				<a:midPointStop  offset="0.5" style="stop-color:#AFD6D9"/>
				<a:midPointStop  offset="0.1809" style="stop-color:#CBE1E3"/>
				<a:midPointStop  offset="0.5" style="stop-color:#CBE1E3"/>
				<a:midPointStop  offset="0.1966" style="stop-color:#E1EAEB"/>
			</linearGradient>
			<path fill="url(#XMLID_3_)" d="M44.787,60.488c0,2.492-1.624,4.512-3.619,4.512H3.858c-1.998,0-3.619-2.02-3.619-4.512V8.765
				c0-2.49,1.621-4.511,3.619-4.511h37.307c2.001,0,3.619,2.021,3.619,4.511v51.724H44.787z"/>
			<path fill="none" stroke="#333333" stroke-width="0.4727" d="M44.787,60.488c0,2.492-1.624,4.512-3.619,4.512H3.858
				c-1.998,0-3.619-2.02-3.619-4.512V8.765c0-2.49,1.621-4.511,3.619-4.511h37.307c2.001,0,3.619,2.021,3.619,4.511v51.724H44.787z"
				/>
			<path fill="#FFFFFF" d="M0.236,4.752c0-2.101,1.624-3.807,3.622-3.807h37.307c2.001,0,3.619,1.705,3.619,3.807v43.651
				c0,2.103-1.621,3.806-3.619,3.806H3.858c-2,0-3.622-1.703-3.622-3.807V4.752L0.236,4.752z"/>
			
				<linearGradient id="XMLID_4_" gradientUnits="userSpaceOnUse" x1="2.5527" y1="25.2324" x2="46.6465" y2="25.2324" gradientTransform="matrix(-1 0 0 1 47.1094 1.3447)">
				<stop  offset="0" style="stop-color:#A2D8E0"/>
				<stop  offset="0.0899" style="stop-color:#1878AD"/>
				<stop  offset="0.2135" style="stop-color:#194D91"/>
				<stop  offset="0.6404" style="stop-color:#2B90BD"/>
				<stop  offset="0.9438" style="stop-color:#82CBDE"/>
				<stop  offset="1" style="stop-color:#1A478D"/>
				<a:midPointStop  offset="0" style="stop-color:#A2D8E0"/>
				<a:midPointStop  offset="0.5" style="stop-color:#A2D8E0"/>
				<a:midPointStop  offset="0.0899" style="stop-color:#1878AD"/>
				<a:midPointStop  offset="0.5" style="stop-color:#1878AD"/>
				<a:midPointStop  offset="0.2135" style="stop-color:#194D91"/>
				<a:midPointStop  offset="0.5" style="stop-color:#194D91"/>
				<a:midPointStop  offset="0.6404" style="stop-color:#2B90BD"/>
				<a:midPointStop  offset="0.5" style="stop-color:#2B90BD"/>
				<a:midPointStop  offset="0.9438" style="stop-color:#82CBDE"/>
				<a:midPointStop  offset="0.5" style="stop-color:#82CBDE"/>
				<a:midPointStop  offset="1" style="stop-color:#1A478D"/>
			</linearGradient>
			<path i:isolated="yes" i:knockout="Off" opacity="0.1" fill="url(#XMLID_4_)" enable-background="new    " d="M0.463,4.752
				c0-2.101,1.603-3.807,3.58-3.807h36.934c1.977,0,3.58,1.705,3.58,3.807v43.651c0,2.103-1.604,3.806-3.58,3.806H4.043
				c-1.977,0-3.577-1.703-3.577-3.807L0.463,4.752L0.463,4.752z"/>
			<path fill="none" stroke="#4D4D4D" stroke-width="0.4727" d="M0.236,48.413v12.075C0.236,62.98,1.86,65,3.858,65h37.307
				c2.001,0,3.619-2.02,3.619-4.512V4.752c0-2.102-1.621-3.806-3.619-3.806H3.858c-1.998,0-3.622,1.705-3.622,3.806v43.651
				C0.236,48.406,0.236,48.409,0.236,48.413z"/>
		</g>
		<g>
			<path i:knockout="Off" d="M11.979,44.605c-0.643-0.215-1.643-1.549-1.881-1.964c0.119-2.001,1.167-2.894,3.155-2.24
				c0.132-0.047,0.798-1.144,1.013-1.346c-0.347-1.392,1.43-2.75,0.525-3.847c-0.06-0.749-0.107-0.629,0.463-0.988
				c0.012-0.131,0.036-0.262,0.048-0.379c-1.559-1.036-1.358-1.083-3.049-0.406c0,0.322,0.43,1.311,0.547,1.679
				c1.167,0.071,2.274,1.609,0.633,2.228c-0.107,2.454-4.467,2.594-4.467-0.418c-1.511-1.309-1.869-2.607-0.344-4.118
				c-0.048-0.657-0.023-0.621,0.308-1.072c1.609-0.084,1.479-0.538,3.085-1.335c0.19-0.654,0.215-0.678,0.681-1.012
				c0-0.036-1.657-1.761-1.777-1.869c-1.701-0.143-2.547-0.358-4.012-0.857c-1.667-1.083-1.165-3.49,0.107-4.514
				c0-0.072,0-0.131,0-0.191c-2.188-1.096-0.809-4.13,1.12-4.524c0.286-3.702,2.666-5.25,5.515-7.12
				c-0.119-0.524-1.155-0.418-1.06-1.311c0.035-0.012,0.083-0.024,0.14-0.024c0,0.155,0.812,1.179,1.039,0.811
				c-0.669-1.014-0.573-4.073,0.714-3.68c0,0.048,0.012,0.108,0.023,0.167c-0.286,0.285,0,0.964,0.251,1.381
				c0.271-0.155,0.415-1.763,1.236-1.608c0,1.656,0.81,1.477,1.036,3.072c0.37-0.297,0.502-0.905,0.597-1.287
				c0.096-0.011,0.18-0.024,0.26-0.024c0,0.37-0.048,0.644-0.14,1.084c0.868,0.083,1.737,0.167,2.618,0.25
				c2.358,0.5,3.869,1.453,5.571,3.453c0.18,0.273,0.406,0.881,0.765,1.12c1.797-1.68,3.165-0.215,3.428,2.036
				c-0.332,1.036-0.522,1.417-0.534,1.56c2.702,0.606,2.263,3.215,2.036,5.299c-0.048-0.012-0.072-0.024-0.107-0.036
				c-1.323,1.75-4.727,0.881-4.264,3.69c0.546,0.299,0.773,0.678,0.904,1.466c0.893,0.248,2.001,0.702,3.036,1.06
				c0.965-0.964,2.431-0.884,3.834-0.848c0.952-2.108,0.705-2.153,3.168-2.096c0.418-2.941-2.431-2.344-0.642-5.941
				c0.143-1.071,0.773-2.356,1.355-3.237c0.06,0,0.131,0,0.203,0c0.82,1.881,1.737,3.882,1.856,6.146
				c-0.152,0.152-0.307,0.307-0.475,0.462c0.168,0.809-0.311,1.598,0,2.559c2.132,0.573,0.833,1.191,1.013,1.944
				c0.749,0.14,1.036,0.869,0.355,1.463c0,0.797,1.155,1.358-0.821,1.573c0,0.033,0,0.093,0,0.152
				c0.394,0.215,0.881,0.514,0.881,1.167c-0.177,0.083-0.344,0.179-0.499,0.275c-0.071,1.809,0.072,3.702-0.071,5.643
				c-1.846,1.586-2.049-4.869-2.156-5.523c-0.833,0-1.534,0.299-2.215,0.06c-0.355-0.25-0.773-0.633-1.061-0.633
				c-1.248,1.358-5.965,0.788-6.393-0.702c-0.845-0.274-1.94-0.737-2.689-0.833c0.021,1.43-0.039,2.655,0.021,3.084
				c0.215,0.263,0.466,0.415,0.466,0.857c-0.084,0.07-0.167,0.154-0.239,0.238c0.155,0.845,0.598,1.487,0.702,2.499
				c0.382,0.144,1.287,0.869,0.681,1.478c0.071,0.355,0.606,1.036,0.893,1.559c2.406-0.06,3.763,1.359,2.335,3.599
				c-0.573,0.486-4.013,0.083-4.526-0.168c-1.534-1.191-3.631,0.072-3.061-2.203c0.609-0.881,0.107-1.618,0.702-2.643
				c0-1.585-2.571-1.311-3.38-1.311c-0.988-1.49-0.977-0.167-1.846-0.048c-0.549-0.107-1.048-0.06-1.502-0.048
				c-0.283,0.347-0.665,0.905-0.737,1.406c0.463,0.475,2.036,3.654,0.678,3.989c-2.177-0.203-2.917,2.236-4.487,1.093
				c-0.06,0-0.107,0-0.144,0C12.979,44.475,12.696,44.605,11.979,44.605z"/>
			<path i:knockout="Off" fill="#89794F" d="M40.535,37.747c-0.215-0.107-0.785-5.24-0.857-5.941
				c0.188,0.009,0.188,0.009,0.894,0.332c0.179,1.797,0.212,3.574,0.212,5.491C40.69,37.735,40.69,37.735,40.535,37.747
				L40.535,37.747z M40.248,30.922c-0.37-0.033-0.498-0.095-0.761-0.071c-0.18-1.177-0.18-1.177-0.144-1.32
				c0.18-0.083,0.263-0.287,0.347-0.43c0.164,0,0.143-0.071,0.415,0.096c-0.392,0.263-0.499,0.263-0.547,0.809
				c0.18,0.191,0.392,0.322,0.773,0.418c0,0.155,0.012,0.323,0.036,0.487C40.296,30.946,40.296,30.946,40.248,30.922L40.248,30.922z
				 M39.866,28.184c-0.048-0.191-0.068-0.367-0.104-0.546c0.129,0.024,0.26,0.036,0.392,0.048c0.012,0.096,0.035,0.212,0.071,0.332
				C40.093,28.112,39.985,28.184,39.866,28.184L39.866,28.184z M38.833,26.446c-0.131-0.761-0.334-1.57-0.251-2.204
				c0.392-0.095,0.392-0.095,0.905-0.095c0.311,0.311,0.299,1.478,0.311,2.012C39.344,26.339,39.344,26.339,38.833,26.446z"/>
			<path i:knockout="Off" fill="#89794F" d="M16.1,37.162c0.119-0.463,0.442-0.737,0.537-1.191c1.738-0.725,1.965,0.107,3.523,0.287
				c-1.036,0.94-1.582,0.334-2.595,0.107c-0.346,0.227-0.514,0.463-0.764,0.773C16.565,37.139,16.326,37.15,16.1,37.162L16.1,37.162
				z M22.436,36.852c-0.251-0.856-0.988-0.463-1.466-0.642c-0.013-0.06-0.036-0.096-0.036-0.144
				c0.717-0.534,0.917-0.689,1.881-0.689c0.466,0.594,1.371,0.618,1.812-0.144c0.203-0.024,0.415-0.024,0.642-0.024
				c0.061,0.762,0.371,0.834,1.239,0.714c0,0.168-0.322,0.586-0.466,0.788c-0.63,0.013-1.235,0.024-1.845,0.036
				c-0.012-0.144-0.036-0.263-0.036-0.394c-0.749-0.654-0.952-0.216-1.203,0.441C22.77,36.804,22.603,36.819,22.436,36.852
				L22.436,36.852z M18.506,34.221c-0.071-0.418-0.119-0.533-0.263-0.713c0.013-0.096,2.467-1.024,2.869-1.024
				c1.097,1.097,1.323,0.179,2.515-0.418c0.391-0.403-0.311-1.203-0.347-1.176c0.06-0.275,2.108-2.896,2.239-2.908
				c0.12,0.478,0.248,0.872,0.296,1.454c-1.057,0.367-1.475,0.678-0.427,1.511c-0.096,0.908-0.191,1.132,0.976,1.072
				c0.439,0.752-2.977,0.824-3.643,1.705C21.304,33.875,19.897,34.055,18.506,34.221z"/>
			<path i:knockout="Off" fill="#9983BD" d="M15.813,35.688c-0.013-0.12-0.033-0.228-0.033-0.334
				c-0.167-0.096-0.322-0.191-0.478-0.275c0-0.119,0.012-0.238,0.023-0.332c0.702-0.083,1.323-0.131,2.132-0.095
				c0.499-0.502,7.62-0.669,9.05-0.785c0.107,0.068,0.12,0.068,0.155,0.308c-0.215,0.215-0.179,0.191-0.179,0.621
				C25.782,35.246,17.159,35.556,15.813,35.688z"/>
			<path i:knockout="Off" fill="#987B53" d="M39.762,23.92c-0.537-0.164-1.155-0.072-1.633-0.164c0-0.06,0-0.107,0-0.144
				c0.43-0.287,1.441-0.406,1.833,0.144c-0.036,0.048-0.071,0.107-0.096,0.164C39.818,23.92,39.798,23.92,39.762,23.92z"/>
			<path i:knockout="Off" fill="#797284" d="M39.618,23.207c-0.131-0.036-0.274-0.072-0.418-0.096c-0.06-1.702-0.035-3.357,0-4.905
				c0.036,0,0.084,0,0.144,0c0.107,0.356,0.454,1.024,0.454,1.56C40.225,20.194,40.962,22.992,39.618,23.207z"/>
			<path i:knockout="Off" fill="#A298B0" d="M38.487,23.111c-0.311-0.311-0.69-0.355-0.953-0.439
				c-0.012-0.681-0.071-1.167,0.383-1.526c-0.144-0.917,0.498-2.19,0.856-3.012c0.036-0.012,0.084-0.012,0.141-0.012
				c-0.033,4.917-0.033,4.917-0.081,4.988C38.714,23.111,38.606,23.111,38.487,23.111z"/>
			<path i:knockout="Off" fill="#FECC5C" d="M8.277,21.648c-0.048-0.048-0.096-0.072-0.144-0.096
				c-2.108,0.179-2.144-3.37,0.096-3.37c0.012,0.024,0.274,0.428,0.238,0.62c-1.167,0-1.119-0.323-1.454,0.881
				c0,0.559-0.155,0.726,0.501,1.144c1.096-0.49,0.94-1.407-0.191-1.097c0-0.679,0.69-0.894,1.156-0.428
				c0.071,0.737,0.155,1.477,0.238,2.227C8.468,21.648,8.468,21.648,8.277,21.648L8.277,21.648z M28.354,17.17
				c-0.395-0.691-1.024-1.704-1.024-2.228c0.191-0.142,0.845-0.572,1.072-0.048c-0.048,0.072-0.048,0.072-0.335,0.155
				c-0.096,0.357-0.167,0.357,0.048,0.787c0.084,0,0.191,0.01,0.287,0.022c1.451-1.63-0.869-1.178-1.275-1.178
				c-0.94-1.644,2.562-1.929,2.299,1.453C29.27,16.586,28.864,17.17,28.354,17.17L28.354,17.17z M30.593,43.617
				c-0.717-0.096-0.977-0.441-1.239-0.856c-0.084,0-0.167,0-0.239,0c-0.023,0.012-0.035,0.048-0.048,0.068
				c0.024,0.051,0.155,0.132,0.155,0.347c-1.286,0.63-1.856-0.191-2.714-0.737c-1.023-0.287-2.49,0.463-1.977-1.072
				c0.319-0.179,0.319-0.179,0.595-0.251c0-0.666-0.714-1.833,0.215-2.392c0.119-1.107-0.917-1.132-1.061-1.705
				c0.821-0.012,1.643-0.023,2.467-0.023c0.096,0.239,0.176,0.478,0.26,0.74c0.656,0.036,1.084-0.441,1.084,0.559
				c-0.643,0.642,0.597,1.036,0.669,2.275c0.235,0.367,1.916-0.598,2.904,0.893c-0.023,0.036-0.048,0.071-0.083,0.119
				c-0.753-0.681-1.335-0.856-2.228-0.609c-0.012,0.072-0.036,0.144-0.036,0.216c1.275,0,2.383,0,2.383,1.797
				c-0.263,0.215-0.489-0.104-0.573-0.2c-0.191-1.418-2-1.705-2.296-0.645c1.164-0.726,2.595,0.119,2.415,1.478
				C31.008,43.617,30.805,43.617,30.593,43.617L30.593,43.617z M12.123,44.032c-0.107-0.023-0.203-0.048-0.287-0.083
				c0-0.403-0.057-0.332,0.299-0.535c0-0.346-0.144-0.489-0.144-0.772c0.692-0.634,1.024-0.609,2.013-0.311
				c0.012-0.024,0.035-0.061,0.048-0.072c-1.156-0.845-2.487-0.582-2.296,0.952c-0.216,0.203-0.216,0.203-0.406,0.287
				c-0.072-0.06-0.144-0.096-0.215-0.144c0-0.071,0-0.131,0-0.179c1.048-1.061-0.168-2.013,2.406-1.547
				c0.012-0.036,0.023-0.06,0.036-0.071c-1.132-1.144-2.323-0.072-2.658,1.06c-0.319,0-0.319,0-0.391-0.06
				c0.308-2.598,2.061-1.573,3.619-1.358c0.071-0.155,0.071-0.155,0.047-0.263c-0.881-0.666,0.609-1.643,0.678-1.929
				c-0.307-0.428-0.247-0.32-0.295-0.714c1.119-0.119,0.582-0.263,1.179-0.857c1.046-0.023,1.046-0.023,1.523-0.095
				c0,0.405-0.654,0.833-0.463,1.522c0.714,0.466,1.068,1.084,0.714,2.072c0.415,0.514,0.642,0.131,0.57,1.144
				c-0.216,0.215-0.726,0.071-0.929,0.023c-1.81,0.228-1.941,2.108-3.738,1.084c-0.084,0-0.167,0-0.239,0
				C12.932,43.653,12.672,43.939,12.123,44.032L12.123,44.032z M10.919,38.7c1.538-0.263,2.024-0.12,1.81-1.682
				c0.92-0.143,1.18-0.797,0.609-1.451c-1.251,0.072-0.478,0.132-1.096,0.738c-0.06-0.048-0.107-0.096-0.155-0.144
				c0-1.869,0.299-2.228-1.451-3.037c0-0.071,0-0.143,0-0.214c0.132,0.012,0.26-0.024,0.427,0.143
				c0.81-0.036,1.666-0.499,2.442-0.964c-0.048-0.284-0.048-0.284-0.023-0.451c0.071-0.012,0.155-0.036,0.238-0.036
				c0.535,1.464,1.571,1.132,3.129,0.738c0.096,0.442-1.116,0.57-1.319,0.606c0.036,0.323,0.06,0.37,0.463,0.681
				c2.881-0.645,7.396-1.75,8.575-4.989c-0.797,0.224-3.562,1.559-5.24,1.643c-1.514,0.382-6.108-0.618-6.252-0.618
				c-0.929,1.499-2.618,1.917-3.882,2.75c-0.048,0.346-0.048,0.346,0,0.63c-1.382,0.905-1.239,3.264,0.798,3.264
				C9.859,37.103,8.6,38.282,10.919,38.7L10.919,38.7z M33.092,32.161c-1.144-0.239-1.606-0.869-2.606-0.57
				c-0.737,0-0.228-0.669-0.431-0.905c-1.331-0.346-2.559-0.776-3.785-1.012c-0.929-2.881,0.893-4.108,1.251-1.525
				c1.463,0.334,2.344,0.585,3.678,1.382c1.132-1.633,2.56-1.036,4.371-1.132c0.096-2.311,1.061-2.132,3.013-1.75
				c0,0.048,0,0.083,0,0.143c0.846,0,1.228,1.75,0.726,2.416c-1.191,0.43-2.084,0-1.988-1.239c-0.083-0.06-0.167-0.096-0.251-0.141
				c-0.035,0.009-0.06,0.024-0.071,0.045c-0.071,0.919,0.478,1.06,0.669,2.036c0.06,0.024,0.107,0.036,0.164,0.06
				c0.048-0.096,0.087-0.2,0.144-0.284c0.358,0,0.716,0.012,1.084,0.036c0.25,1.797,0.25,1.797,0.215,1.845
				c-0.036-0.036-0.06-0.06-0.072-0.083c-0.367,1.12-2.917,0.737-3.072-0.773c-0.083,0-0.155,0-0.224,0
				C35.809,32.078,34.14,32.161,33.092,32.161L33.092,32.161z M17.602,30.077c3.332-0.06,9.501-1.427,9.488-5.763
				c0.821-1.371,3.503-0.167,4.359-3.204c0-3.345-1.406-3.333-4.001-3.333c-0.012-0.048-0.012-0.095-0.012-0.131
				c0.18-0.131,0.367-0.263,0.559-0.38c0-1.941-3.571-5.407-4.751-6.336c-1.809-0.821-6.108-2.297-7.393-0.369
				c-0.096,0-0.19,0-0.286,0c-1-1.345-5.181,3.144-5.847,3.87c-1.048,1.787-1.681,5.895,0,7.336
				c-0.012,0.045-0.012,0.107-0.012,0.165c-2.917-0.212-4.849,3.49-1.621,4.586c1.43,1,2.881-0.821,3.717,1.263
				C13.206,29.603,15.291,29.874,17.602,30.077L17.602,30.077z M40.619,29.029c-0.216-0.072-0.418-0.144-0.609-0.203
				c-0.024-0.093-0.036-0.176-0.036-0.248c0.274-0.227,1.431-0.74,1.741-0.096C41.56,28.862,40.986,29.029,40.619,29.029
				L40.619,29.029z M40.535,30.208c0.167,0,0.904,0.096,1.107-0.107c0-0.096,0-0.203,0-0.284
				C40.643,29.125,39.021,29.734,40.535,30.208L40.535,30.208z M40.714,31.877c0.18-0.015,0.355-0.024,0.547-0.024
				c-0.132-0.669-1.096-0.705-1.535-0.716C39.798,31.65,40.021,31.663,40.714,31.877L40.714,31.877z M39.678,27.327
				c0.631-0.012,1.439,0.251,1.439-0.594c-0.498-0.394-1.379-0.346-1.749-0.036C39.368,27.005,39.368,27.017,39.678,27.327z"/>
			<path i:knockout="Off" fill="#FFFFFF" d="M14.338,9.798c-0.562-0.333-0.809-1.63-0.57-1.999c0.177,0.606,0.618,1.297,0.821,1.989
				C14.505,9.788,14.422,9.788,14.338,9.798z"/>
			<path i:knockout="Off" fill="#FEDE8C" d="M8.277,21.648c-0.048-0.048-0.096-0.072-0.144-0.096
				c-2.108,0.179-2.144-3.37,0.096-3.37c0.012,0.024,0.274,0.428,0.238,0.62c-1.167,0-1.119-0.323-1.454,0.881
				c0,0.559-0.155,0.726,0.501,1.144c1.096-0.49,0.94-1.407-0.191-1.097c0-0.679,0.69-0.894,1.156-0.428
				c0.071,0.737,0.155,1.477,0.238,2.227C8.468,21.648,8.468,21.648,8.277,21.648L8.277,21.648z M15.351,10.382
				c-1.287-0.642-5.002,3.371-5.632,4.049c-1.048,1.787-1.681,5.895,0,7.336c-0.012,0.045-0.012,0.107-0.012,0.165
				c-2.917-0.212-4.849,3.49-1.621,4.586c1.43,1,2.881-0.821,3.717,1.263c1.165,1.499,2.774,1.953,4.596,2.165
				c-0.678-0.391-5.276-4.667-5.359-4.667c-0.177-0.809,0.286-1.299,0.525-1.618h0.083C9.8,20.374,14.422,10.787,15.351,10.382
				L15.351,10.382z M16.709,30.244c0.012,0.036,0.012,0.072,0.012,0.107c-0.263,0-0.466,0.084-0.729,0.084
				c0,0.403-2.631,0.427-2.631,0.63c-0.845-0.12-2.63,1.382-3.57,2.108c0,0.357,1.188,3.06,0.964,3.06
				c-0.597,0.893,1.048,2.061,1.048,2.264l0.069,0.048c-0.248,0.048-0.57,0.083-0.953,0.155c-2.319-0.418-1.06-1.598-0.928-2.395
				c-2.037,0-2.18-2.358-0.798-3.264c-0.048-0.284-0.048-0.284,0-0.63c1.726-1.191,3.204-1.454,3.882-2.75
				C13.171,29.662,14.98,30.041,16.709,30.244z"/>
			<path i:knockout="Off" fill="#FEDE8C" d="M26.042,28.638c0.49,0.12,4.646,1.308,4.622,1.392v0.083
				c2.773,0.633,3.989-0.271,5.24-0.57c0,0.917,2.938,1.953,3.296,1.239c0.107,0.737,0.096,0.75,0.072,0.785
				c-0.036-0.036-0.06-0.06-0.072-0.083c-0.367,1.12-2.917,0.737-3.072-0.773c-0.083,0-0.155,0-0.224,0
				c-0.096,1.368-1.765,1.451-2.812,1.451c-1.144-0.239-1.606-0.869-2.606-0.57c-0.737,0-0.228-0.669-0.431-0.905
				c-1.331-0.346-2.559-0.776-3.785-1.012C26.149,29.292,26.078,28.945,26.042,28.638L26.042,28.638z M40.714,31.877
				c-0.692-0.215-0.916-0.227-0.988-0.74c0.439,0.012,1.403,0.047,1.535,0.716C41.069,31.854,40.894,31.862,40.714,31.877z"/>
			<path i:knockout="Off" fill="#FEDE8C" d="M11.146,42.08l0.012-0.12c0,0,0.084-0.08,0.084-0.167l0.083-0.068l0.072-0.084h0.06
				c0.534-0.608,1.344-0.868,2.12-0.083c-0.013,0.012-0.024,0.035-0.036,0.071c-0.274-0.048-0.502-0.084-0.692-0.107v0.036h0.083
				h0.084v0.083h0.083h0.072v0.084h0.167c0,0.068,0.239,0.155,0.239,0.235h0.167v0.084h0.08h0.072v0.071h0.083h0.084v0.084
				c1.036,0,0.701-0.726,1.132-0.726c0-0.621,0.155-1.239,0.155-1.689c0.405-0.406,0.522-1.467,0.25-2.18
				c-0.346,0.45-0.023,0.582-1.023,0.689c0.048,0.394-0.012,0.286,0.295,0.714c-0.068,0.286-1.559,1.263-0.678,1.929
				c0.024,0.107,0.024,0.107-0.047,0.263c-1.559-0.215-3.312-1.239-3.619,1.358c0.071,0.06,0.071,0.06,0.391,0.06
				C10.979,42.438,11.051,42.247,11.146,42.08z"/>
			<path i:knockout="Off" fill="#FEDE8C" d="M25.994,37.043c0.466,0,0.776,1.454,0.479,1.454c0,2.94-1.204,1.773,0.25,3.228
				c0.236,0.179,1.882,0.367,2.094,0.155v-0.087c0.035-0.009,0.119-0.021,0.215-0.021c-0.096,0.093-0.167,0.212-0.2,0.367
				c0.438-0.284,0.929-0.332,1.355-0.203v0.023l0.071,0.084h0.084l0.084,0.071v0.084v0.084l0.083,0.083
				c0.167,0,0.311,0.036,0.451,0.107c0.227,0.299,0.347,0.69,0.286,1.144c-0.238,0-0.441,0-0.653,0
				c-0.717-0.096-0.977-0.441-1.239-0.856c-0.084,0-0.167,0-0.239,0c-0.023,0.012-0.035,0.048-0.048,0.068
				c0.024,0.051,0.155,0.132,0.155,0.347c-1.286,0.63-1.856-0.191-2.714-0.737c-1.023-0.287-2.49,0.463-1.977-1.072
				c0.319-0.179,0.319-0.179,0.595-0.251c0-0.666-0.714-1.833,0.215-2.392c0.119-1.107-0.917-1.132-1.061-1.705
				C24.46,37.019,25.994,36.947,25.994,37.043L25.994,37.043z M31.079,42.546c0.024,0.071,0.036,0.155,0.048,0.238
				c0.06,0.072,0.203,0.26,0.37,0.272C31.39,42.844,31.246,42.665,31.079,42.546z"/>
			<path i:knockout="Off" d="M10.6,19.599c-0.976-0.976,0.511-3.893,1.272-4.656c-0.582-0.118-1,0.454-1.368,0.382
				c-0.035-0.62-0.035-1.048,0.024-1.524c2.57-1.275,6.156,1.965,6.156,4.607c-0.035,0.012-0.06,0.023-0.071,0.047
				c-0.442-0.417-0.633-0.618-0.8-1c-1.225,0-2.5,1.131-2.5-1.132c0.061-0.189,0.383-0.785,0.358-0.904
				c-2.406-1.333-1.645,3.347-1.752,4.144c-0.107-0.024-0.2-0.036-0.284-0.048c-0.764-1.714-0.274-3.25,0.953-4.477
				c-1.905,0-1.634,3.357-1.634,4.501C10.884,19.599,10.884,19.599,10.6,19.599z"/>
			<path i:knockout="Off" d="M17.661,18.242c-1.239-2.895,0.904-6.228,3.547-7.252c0.49,0.06,2.287,1.393,0.478,1.596
				c0.013,0.036,0.024,0.095,0.036,0.155c1.38,0.273,3.001,2.309,2.905,3.929c-0.071,0-0.144,0-0.203,0
				c-0.071-0.107-0.119-0.679-0.179-0.739c-0.522-1.869-2.036-3.084-3.882-2.977c0,0.036,0,0.083,0,0.143
				c2.096,0.144,3.132,1.608,3.383,3.75c-0.215,0.014-0.215,0.014-0.347-0.058c-0.047-0.37-0.083-0.727-0.119-1.083
				c-0.929,0.225-1.689,0.737-2.454-0.084c-0.271-0.691-0.271-1.62,0.441-1.905c-0.143-0.572-1.605-0.251-1.904-0.131
				c-1.347,1.656-1.666,2.453-1.454,4.621C17.825,18.207,17.745,18.218,17.661,18.242z"/>
			<path i:knockout="Off" fill="#FFFFFF" d="M21.148,15.05c-0.036-0.107-0.083-0.225-0.107-0.333
				c0.06-0.012,0.107-0.012,0.167-0.012c-0.035-0.036-0.083-0.06-0.131-0.096c0-0.393,0.43-0.512,0.785-0.56
				c0.048,0.251,0.06,0.393,0.023,0.703C21.626,14.955,21.436,15.026,21.148,15.05z"/>
			<path i:knockout="Off" fill="#F1BF4C" d="M14.577,25.1c-0.311-0.047-0.562-0.071-0.81-0.095c-0.06-0.12-0.107-0.239-0.107-0.344
				c0.654-0.191,7.823-1.597,9.193-1.358c0,0.096,0,0.191,0,0.287C21.137,25.291,17.04,25.315,14.577,25.1z"/>
			<path i:knockout="Off" d="M8.504,24.243c-0.084-0.047-0.167-0.107-0.251-0.155c0.012-0.071,0.024-0.143,0.048-0.2
				c0.274-0.063,0.857,0.057,1.299,0.068c6.739-0.988,13.681-1.893,20.04-4.785c0.024-0.048,0.048-0.096,0.096-0.144
				c0.048,0.024,0.084,0.036,0.141,0.06c0.012,0.417-0.296,0.345-0.522,0.643c-0.155-0.215-1.846,0.583-1.988,0.786
				C22.854,22.254,16.303,23.956,8.504,24.243z"/>
			<path i:knockout="Off" d="M14.625,21.159c-0.024-0.072-0.036-0.144-0.036-0.191c0.486-0.331,2.941-2.261,3.619-2.131
				c0,0.036,0.023,0.083,0.035,0.143C17.028,19.468,15.554,21.003,14.625,21.159z"/>
			<path i:knockout="Off" d="M13.434,20.979c0-0.096,0-0.2,0-0.295c0.653-0.526,1.94-1.37,2.81-1.454
				c0.012,0.012,0.023,0.046,0.036,0.072c-0.547,0.701-2.001,0.785-2.595,1.677C13.601,20.979,13.505,20.979,13.434,20.979z"/>
			<path i:knockout="Off" d="M16.709,20.836c-0.096-0.2-0.048-0.224-0.024-0.355c0.773-0.514,2.727-2.085,3.679-2.085
				C19.136,19.207,17.909,20.015,16.709,20.836z"/>
			<path i:knockout="Off" d="M19.017,20.313c-0.036-0.036-0.083-0.048-0.107-0.06c0-0.06,0-0.096,0-0.144
				c0.872-0.547,2.013-1.416,3.097-1.547c0.012,0.06,0.048,0.12,0.071,0.167C21.806,18.897,19.124,20.313,19.017,20.313z"/>
			<path i:knockout="Off" fill="#FFFFFF" d="M14.004,16.861c-1.108-1.395,1.167-1.418,0.549-0.155
				C14.147,16.861,14.147,16.861,14.004,16.861z"/>
		</g>
	</g>
</g>
</svg>
